<svg xmlns="http://www.w3.org/2000/svg" class="icon icon-tabler icon-tabler-3d-cube-sphere" width="24" height="24" viewBox="0 0 24 24" stroke-width="2" stroke="currentColor" fill="none" stroke-linecap="round" stroke-linejoin="round">
  <path stroke="none" d="M0 0h24v24H0z" fill="none"/>
  <path d="M6 17.6l-2 -1.1v-2.5m0 -4v-2.5l2 -1.1m4 -2.3l2 -1.1l2 1.1m4 2.3l2 1.1v2.5m0 4v2.5l-2 1.12m-4 2.28l-2 1.1l-2 -1.1m2 -7.9l2 -1.1m4 -2.3l2 -1.1m-8 4.5l0 2.5m0 4l0 2.5m0 -9l-2 -1.12m-4 -2.28l-2 -1.1" />
</svg>


