<svg xmlns="http://www.w3.org/2000/svg" class="icon icon-tabler icon-tabler-apps-off" width="24" height="24" viewBox="0 0 24 24" stroke-width="2" stroke="currentColor" fill="none" stroke-linecap="round" stroke-linejoin="round">
  <path stroke="none" d="M0 0h24v24H0z" fill="none"/>
  <path d="M8 4h1a1 1 0 0 1 1 1v1m-.29 3.704a1 1 0 0 1 -.71 .296h-4a1 1 0 0 1 -1 -1v-4c0 -.276 .111 -.525 .292 -.706m13.708 9.706h1a1 1 0 0 1 1 1v1m-.29 3.704a1 1 0 0 1 -.71 .296h-4a1 1 0 0 1 -1 -1v-4c0 -.276 .111 -.525 .292 -.706m-10.292 -.294m0 1a1 1 0 0 1 1 -1h4a1 1 0 0 1 1 1v4a1 1 0 0 1 -1 1h-4a1 1 0 0 1 -1 -1zm10 -8h6m-3 -3v6m-14 -7l18 18" />
</svg>


