<svg xmlns="http://www.w3.org/2000/svg" class="icon icon-tabler icon-tabler-backhoe" width="24" height="24" viewBox="0 0 24 24" stroke-width="2" stroke="currentColor" fill="none" stroke-linecap="round" stroke-linejoin="round">
  <path stroke="none" d="M0 0h24v24H0z" fill="none"/>
  <path d="M4 17m-2 0a2 2 0 1 0 4 0a2 2 0 1 0 -4 0m11 0m-2 0a2 2 0 1 0 4 0a2 2 0 1 0 -4 0m2 2l-9 0m0 -4l9 0m-5 -3v-5h2a3 3 0 0 1 3 3v5m-8 0v-2a1 1 0 0 1 1 -1h7m8.12 -2.12l-3.12 -4.88l-5 5m8.12 -.12a3 3 0 0 1 -2.12 5.12a3 3 0 0 1 -2.12 -.88l4.24 -4.24z" />
</svg>


