<svg xmlns="http://www.w3.org/2000/svg" class="icon icon-tabler icon-tabler-backpack" width="24" height="24" viewBox="0 0 24 24" stroke-width="2" stroke="currentColor" fill="none" stroke-linecap="round" stroke-linejoin="round">
  <path stroke="none" d="M0 0h24v24H0z" fill="none"/>
  <path d="M5 18v-6a6 6 0 0 1 6 -6h2a6 6 0 0 1 6 6v6a3 3 0 0 1 -3 3h-8a3 3 0 0 1 -3 -3z" />
  <path d="M10 6v-1a2 2 0 1 1 4 0v1" />
  <path d="M9 21v-4a2 2 0 0 1 2 -2h2a2 2 0 0 1 2 2v4" />
  <path d="M11 10h2" />
</svg>


