<svg xmlns="http://www.w3.org/2000/svg" class="icon icon-tabler icon-tabler-barbell" width="24" height="24" viewBox="0 0 24 24" stroke-width="2" stroke="currentColor" fill="none" stroke-linecap="round" stroke-linejoin="round">
  <path stroke="none" d="M0 0h24v24H0z" fill="none"/>
  <path d="M2 12h1m3 -4h-2a1 1 0 0 0 -1 1v6a1 1 0 0 0 1 1h2m0 -9v10a1 1 0 0 0 1 1h1a1 1 0 0 0 1 -1v-10a1 1 0 0 0 -1 -1h-1a1 1 0 0 0 -1 1zm3 5h6m0 -5v10a1 1 0 0 0 1 1h1a1 1 0 0 0 1 -1v-10a1 1 0 0 0 -1 -1h-1a1 1 0 0 0 -1 1zm3 1h2a1 1 0 0 1 1 1v6a1 1 0 0 1 -1 1h-2m4 -4h-1" />
</svg>


