<svg xmlns="http://www.w3.org/2000/svg" class="icon icon-tabler icon-tabler-barcode-off" width="24" height="24" viewBox="0 0 24 24" stroke-width="2" stroke="currentColor" fill="none" stroke-linecap="round" stroke-linejoin="round">
  <path stroke="none" d="M0 0h24v24H0z" fill="none"/>
  <path d="M4 7v-1c0 -.552 .224 -1.052 .586 -1.414m-.586 12.414v1a2 2 0 0 0 2 2h2m8 -16h2a2 2 0 0 1 2 2v1m-4 13h2c.551 0 1.05 -.223 1.412 -.584m-14.412 -8.416h1v2h-1zm5 0v2m5 -2v.01m4 -.01v2m-16 -10l18 18" />
</svg>


