<svg xmlns="http://www.w3.org/2000/svg" class="icon icon-tabler icon-tabler-barrier-block-off" width="24" height="24" viewBox="0 0 24 24" stroke-width="2" stroke="currentColor" fill="none" stroke-linecap="round" stroke-linejoin="round">
  <path stroke="none" d="M0 0h24v24H0z" fill="none"/>
  <path d="M11 7h8a1 1 0 0 1 1 1v7c0 .27 -.107 .516 -.282 .696m-3.718 .304h-11a1 1 0 0 1 -1 -1v-7a1 1 0 0 1 1 -1h2m0 9v4m.5 -4l4.244 -4.244m2 -2l2.755 -2.755m-3 9l1.249 -1.249m1.992 -1.992l3.259 -3.259m-16 4l4.752 -4.752m8.248 8.252v3m-12 0h4m6 0h4m-2 -13v-2m-14 -2l18 18" />
</svg>


