<svg xmlns="http://www.w3.org/2000/svg" class="icon icon-tabler icon-tabler-basket-off" width="24" height="24" viewBox="0 0 24 24" stroke-width="2" stroke="currentColor" fill="none" stroke-linecap="round" stroke-linejoin="round">
  <path stroke="none" d="M0 0h24v24H0z" fill="none"/>
  <path d="M7 10l1.359 -1.63m1.817 -2.182l1.824 -2.188l5 6m1.77 8.757c-.358 .768 -1.027 1.262 -1.77 1.243h-10c-.966 .024 -1.807 -.817 -2 -2l-2 -8h7m4 0h7l-1.397 5.587m-7.603 -.587m-2 0a2 2 0 1 0 4 0a2 2 0 1 0 -4 0m-7 -12l18 18" />
</svg>


