<svg xmlns="http://www.w3.org/2000/svg" class="icon icon-tabler icon-tabler-beach-off" width="24" height="24" viewBox="0 0 24 24" stroke-width="2" stroke="currentColor" fill="none" stroke-linecap="round" stroke-linejoin="round">
  <path stroke="none" d="M0 0h24v24H0z" fill="none"/>
  <path d="M15.071 15.102a7.502 7.502 0 0 0 -8.124 1.648m3.323 -10.481l9.926 5.731a6 6 0 0 0 -10.32 -6.123m6.856 4.123c1.658 -2.87 2.225 -5.644 1.268 -6.196c-.957 -.552 -3.075 1.326 -4.732 4.196m1.732 1l-.739 1.279m-1.467 2.541l-.794 1.376m-9 5.054a2.4 2.4 0 0 1 1 -.25a2.4 2.4 0 0 1 2 1a2.4 2.4 0 0 0 2 1a2.4 2.4 0 0 0 2 -1a2.4 2.4 0 0 1 2 -1a2.4 2.4 0 0 1 2 1a2.4 2.4 0 0 0 2 1a2.4 2.4 0 0 0 2 -1a2.4 2.4 0 0 1 1.135 -.858m-16.135 -16.142l18 18" />
</svg>


