<svg xmlns="http://www.w3.org/2000/svg" class="icon icon-tabler icon-tabler-binary-tree" width="24" height="24" viewBox="0 0 24 24" stroke-width="2" stroke="currentColor" fill="none" stroke-linecap="round" stroke-linejoin="round">
  <path stroke="none" d="M0 0h24v24H0z" fill="none"/>
  <path d="M6 20a2 2 0 1 0 -4 0a2 2 0 0 0 4 0zm10 -16a2 2 0 1 0 -4 0a2 2 0 0 0 4 0zm0 16a2 2 0 1 0 -4 0a2 2 0 0 0 4 0zm-5 -8a2 2 0 1 0 -4 0a2 2 0 0 0 4 0zm10 0a2 2 0 1 0 -4 0a2 2 0 0 0 4 0zm-15.942 6.306l2.88 -4.606m2.123 -3.397l2.877 -4.604m-2.873 8l2.876 4.6m2.122 -12.605l2.881 4.61" />
</svg>


