<svg xmlns="http://www.w3.org/2000/svg" class="icon icon-tabler icon-tabler-biohazard-off" width="24" height="24" viewBox="0 0 24 24" stroke-width="2" stroke="currentColor" fill="none" stroke-linecap="round" stroke-linejoin="round">
  <path stroke="none" d="M0 0h24v24H0z" fill="none"/>
  <path d="M10.586 10.586a2 2 0 1 0 2.836 2.82m-1.483 .594c0 .173 .048 .351 .056 .533v.217a4.75 4.75 0 0 1 -4.533 4.745h-.217m-4.75 -4.75a4.75 4.75 0 0 1 7.737 -3.693m6.513 8.443a4.75 4.75 0 0 1 -4.69 -5.503h-.06m2.538 -3.454a4.75 4.75 0 0 1 6.957 3.987v.217m-11.195 -3.813a4.75 4.75 0 0 1 -2.988 -3.64m.66 -3.324a4.75 4.75 0 0 1 .5 -.66l.164 -.172m6.718 0a4.75 4.75 0 0 1 -.836 7.385m-11.513 -7.518l18 18" />
</svg>


