<svg xmlns="http://www.w3.org/2000/svg" class="icon icon-tabler icon-tabler-border-left" width="24" height="24" viewBox="0 0 24 24" stroke-width="2" stroke="currentColor" fill="none" stroke-linecap="round" stroke-linejoin="round">
  <path stroke="none" d="M0 0h24v24H0z" fill="none"/>
  <path d="M4 20l0 -16m4 0l0 .01m4 -.01l0 .01m4 -.01l0 .01m4 -.01l0 .01m-8 3.99l0 .01m8 -.01l0 .01m-12 3.99l0 .01m4 -.01l0 .01m4 -.01l0 .01m4 -.01l0 .01m-8 3.99l0 .01m8 -.01l0 .01m-12 3.99l0 .01m4 -.01l0 .01m4 -.01l0 .01m4 -.01l0 .01" />
</svg>


