<svg xmlns="http://www.w3.org/2000/svg" class="icon icon-tabler icon-tabler-box-multiple-9" width="24" height="24" viewBox="0 0 24 24" stroke-width="2" stroke="currentColor" fill="none" stroke-linecap="round" stroke-linejoin="round">
  <path stroke="none" d="M0 0h24v24H0z" fill="none"/>
  <path d="M7 3m0 2a2 2 0 0 1 2 -2h10a2 2 0 0 1 2 2v10a2 2 0 0 1 -2 2h-10a2 2 0 0 1 -2 -2z" />
  <path d="M14 8m-2 0a2 2 0 1 0 4 0a2 2 0 1 0 -4 0" />
  <path d="M12 12a2 2 0 1 0 4 0v-4" />
  <path d="M17 17v2a2 2 0 0 1 -2 2h-10a2 2 0 0 1 -2 -2v-10a2 2 0 0 1 2 -2h2" />
</svg>


