<svg xmlns="http://www.w3.org/2000/svg" class="icon icon-tabler icon-tabler-box-align-top-left" width="24" height="24" viewBox="0 0 24 24" stroke-width="2" stroke="currentColor" fill="none" stroke-linecap="round" stroke-linejoin="round">
  <path stroke="none" d="M0 0h24v24H0z" fill="none"/>
  <path d="M11 5v5a1 1 0 0 1 -1 1h-5a1 1 0 0 1 -1 -1v-5a1 1 0 0 1 1 -1h5a1 1 0 0 1 1 1zm4 -1h-.01m5.01 0h-.01m.01 5h-.01m.01 6h-.01m-15.99 0h-.01m16.01 5h-.01m-4.99 0h-.01m-5.99 0h-.01m-4.99 0h-.01" />
</svg>


