<svg xmlns="http://www.w3.org/2000/svg" class="icon icon-tabler icon-tabler-brand-graphql" width="24" height="24" viewBox="0 0 24 24" stroke-width="2" stroke="currentColor" fill="none" stroke-linecap="round" stroke-linejoin="round">
  <path stroke="none" d="M0 0h24v24H0z" fill="none"/>
  <path d="M5.308 7.265l5.385 -3.029m2.615 0l5.384 3.03m1.308 2.235v5m-1.307 2.236l-5.385 3.029m-2.616 0l-5.384 -3.03m-1.308 -2.235v-5m8.772 -4.714l6.121 10.202m-.393 1.012h-13m-.393 -1.012l6.122 -10.201m.771 -1.287m-1.5 0a1.5 1.5 0 1 0 3 0a1.5 1.5 0 1 0 -3 0m1.5 17m-1.5 0a1.5 1.5 0 1 0 3 0a1.5 1.5 0 1 0 -3 0m-6.5 -12.5m-1.5 0a1.5 1.5 0 1 0 3 0a1.5 1.5 0 1 0 -3 0m1.5 8m-1.5 0a1.5 1.5 0 1 0 3 0a1.5 1.5 0 1 0 -3 0m17.5 0m-1.5 0a1.5 1.5 0 1 0 3 0a1.5 1.5 0 1 0 -3 0m1.5 -8m-1.5 0a1.5 1.5 0 1 0 3 0a1.5 1.5 0 1 0 -3 0" />
</svg>


