<svg xmlns="http://www.w3.org/2000/svg" class="icon icon-tabler icon-tabler-brand-git" width="24" height="24" viewBox="0 0 24 24" stroke-width="2" stroke="currentColor" fill="none" stroke-linecap="round" stroke-linejoin="round">
  <path stroke="none" d="M0 0h24v24H0z" fill="none"/>
  <path d="M16 12m-1 0a1 1 0 1 0 2 0a1 1 0 1 0 -2 0m-3 -4m-1 0a1 1 0 1 0 2 0a1 1 0 1 0 -2 0m1 8m-1 0a1 1 0 1 0 2 0a1 1 0 1 0 -2 0m1 -1v-6m3 2l-2 -2m-2 -2l-1.9 -1.9m1.4 15.3l-6.9 -6.9c-.781 -.781 -.781 -2.219 0 -3l6.9 -6.9c.781 -.781 2.219 -.781 3 0l6.9 6.9c.781 .781 .781 2.219 0 3l-6.9 6.9c-.781 .781 -2.219 .781 -3 0z" />
</svg>


