<svg xmlns="http://www.w3.org/2000/svg" class="icon icon-tabler icon-tabler-brand-bumble" width="24" height="24" viewBox="0 0 24 24" stroke-width="2" stroke="currentColor" fill="none" stroke-linecap="round" stroke-linejoin="round">
  <path stroke="none" d="M0 0h24v24H0z" fill="none"/>
  <path d="M7 12h10m-8 -4h6m-5 8h4m2.268 -13h-8.536a1.46 1.46 0 0 0 -1.268 .748l-4.268 7.509a1.507 1.507 0 0 0 0 1.486l4.268 7.509c.26 .462 .744 .747 1.268 .748h8.536a1.46 1.46 0 0 0 1.268 -.748l4.268 -7.509a1.507 1.507 0 0 0 0 -1.486l-4.268 -7.509a1.46 1.46 0 0 0 -1.268 -.748z" />
</svg>


