<svg xmlns="http://www.w3.org/2000/svg" class="icon icon-tabler icon-tabler-brand-php" width="24" height="24" viewBox="0 0 24 24" stroke-width="2" stroke="currentColor" fill="none" stroke-linecap="round" stroke-linejoin="round">
  <path stroke="none" d="M0 0h24v24H0z" fill="none"/>
  <path d="M12 12m-10 0a10 9 0 1 0 20 0a10 9 0 1 0 -20 0m3.5 3l.395 -1.974l.605 -3.026h1.32a1 1 0 0 1 .986 1.164l-.167 1a1 1 0 0 1 -.986 .836h-1.653m9.5 2l.395 -1.974l.605 -3.026h1.32a1 1 0 0 1 .986 1.164l-.167 1a1 1 0 0 1 -.986 .836h-1.653m-4 -5.5l-1 5.5m.6 -3h2.4l-.5 3" />
</svg>


