<svg xmlns="http://www.w3.org/2000/svg" class="icon icon-tabler icon-tabler-brand-solidjs" width="24" height="24" viewBox="0 0 24 24" stroke-width="2" stroke="currentColor" fill="none" stroke-linecap="round" stroke-linejoin="round">
  <path stroke="none" d="M0 0h24v24H0z" fill="none"/>
  <path d="M2 17.5c4.667 3 8 4.5 10 4.5c2.5 0 4 -1.5 4 -3.5s-1.5 -3.5 -4 -3.5c-2 0 -5.333 .833 -10 2.5zm3 -4c4.667 -1.667 8 -2.5 10 -2.5c2.5 0 4 1.5 4 3.5c0 .738 -.204 1.408 -.588 1.96l-2.883 3.825m6.471 -13.785c-4 -3 -8 -4.5 -10 -4.5c-2.04 0 -2.618 .463 -3.419 1.545m-6.581 13.955l3 -4m17 -7l-3 4m-10.419 -6.955l-2.953 3.711m1.788 5.406c-1.51 -.476 -2.416 -1.479 -2.416 -3.162c0 -2.5 1.5 -3.5 4 -3.5c1.688 0 5.087 1.068 8.198 3.204a114.76 114.76 0 0 1 1.802 1.296l-2.302 .785" />
</svg>


