<svg xmlns="http://www.w3.org/2000/svg" class="icon icon-tabler icon-tabler-brand-apple-arcade" width="24" height="24" viewBox="0 0 24 24" stroke-width="2" stroke="currentColor" fill="none" stroke-linecap="round" stroke-linejoin="round">
  <path stroke="none" d="M0 0h24v24H0z" fill="none"/>
  <path d="M12 5m-2 0a2 2 0 1 0 4 0a2 2 0 1 0 -4 0m10 7.5v4.75a0.734 .734 0 0 1 -.055 .325a0.704 .704 0 0 1 -.348 .366l-5.462 2.58a5 5 0 0 1 -4.27 0l-5.462 -2.58a0.705 .705 0 0 1 -.401 -.691l0 -4.75m.431 -.284l5.634 -2.332a5.065 5.065 0 0 1 3.87 0l5.634 2.332a0.692 .692 0 0 1 .028 1.269l-5.462 2.543a5.064 5.064 0 0 1 -4.27 0l-5.462 -2.543a0.691 .691 0 0 1 .028 -1.27zm7.569 -5.216l0 6" />
</svg>


