<svg xmlns="http://www.w3.org/2000/svg" class="icon icon-tabler icon-tabler-brand-couchsurfing" width="24" height="24" viewBox="0 0 24 24" stroke-width="2" stroke="currentColor" fill="none" stroke-linecap="round" stroke-linejoin="round">
  <path stroke="none" d="M0 0h24v24H0z" fill="none"/>
  <path d="M3.1 13c3.267 0 5.9 -.167 7.9 -.5c3 -.5 4 -2 4 -3.5a3 3 0 1 0 -6 0c0 1.554 1.807 3 3 4c1.193 1 2 2.5 2 3.5a1.5 1.5 0 1 1 -3 0c0 -2 4 -3.5 7 -3.5h2.9" />
  <path d="M12 12m-9 0a9 9 0 1 0 18 0a9 9 0 1 0 -18 0" />
</svg>


