<svg xmlns="http://www.w3.org/2000/svg" class="icon icon-tabler icon-tabler-brand-taobao" width="24" height="24" viewBox="0 0 24 24" stroke-width="2" stroke="currentColor" fill="none" stroke-linecap="round" stroke-linejoin="round">
  <path stroke="none" d="M0 0h24v24H0z" fill="none"/>
  <path d="M17 10h-6.5m.5 -1c-.44 .843 -1 1.5 -2 2m4 -1v6.8m-4 -1.8c.71 3.675 6 1.366 8.5 .5m-.5 -1l1 2m-8 -3.5h5m-12 -3c4.5 1 2.902 4.85 0 8m4 -9c1.43 -1.652 2.06 -2.876 2.5 -4m-1 2c4.333 -.667 7 -1 8 -1c1.5 0 3.5 -.5 4 1.5c.333 1.333 .5 2.833 .5 4.5v4c0 2 -1 3 -5 3m-11 -13m-1 0a1 1 0 1 0 2 0a1 1 0 1 0 -2 0" />
</svg>


