<svg xmlns="http://www.w3.org/2000/svg" class="icon icon-tabler icon-tabler-brand-cucumber" width="24" height="24" viewBox="0 0 24 24" stroke-width="2" stroke="currentColor" fill="none" stroke-linecap="round" stroke-linejoin="round">
  <path stroke="none" d="M0 0h24v24H0z" fill="none"/>
  <path d="M20 10.99c-.01 5.52 -4.48 10 -10 10.01v-2.26l-.01 -.01c-4.28 -1.11 -6.86 -5.47 -5.76 -9.75a8 8 0 0 1 9.74 -5.76c3.53 .91 6.03 4.13 6.03 7.78v-.01zm-9.5 -2.99l-.5 -1m3.5 7l.5 1m-5 -2.5l-1 .5m3 1l-.5 1m2.5 -7l.5 -1m2.5 5.5l-1 -.5m-6 -2l-1 -.5" />
</svg>


