<svg xmlns="http://www.w3.org/2000/svg" class="icon icon-tabler icon-tabler-brand-wordpress" width="24" height="24" viewBox="0 0 24 24" stroke-width="2" stroke="currentColor" fill="none" stroke-linecap="round" stroke-linejoin="round">
  <path stroke="none" d="M0 0h24v24H0z" fill="none"/>
  <path d="M9.5 9h3m-8.5 0h2.5m4.5 0l3 11l4 -9m-12.5 -2l3.5 11l3 -7m6 -2c.177 -.528 1 -1.364 1 -2.5c0 -1.78 -.776 -2.5 -1.875 -2.5c-.898 0 -1.125 .812 -1.125 1.429c0 1.83 2 2.058 2 3.571zm-6 1m-9 0a9 9 0 1 0 18 0a9 9 0 1 0 -18 0" />
</svg>


