<svg xmlns="http://www.w3.org/2000/svg" class="icon icon-tabler icon-tabler-brand-finder" width="24" height="24" viewBox="0 0 24 24" stroke-width="2" stroke="currentColor" fill="none" stroke-linecap="round" stroke-linejoin="round">
  <path stroke="none" d="M0 0h24v24H0z" fill="none"/>
  <path d="M3 4m0 1a1 1 0 0 1 1 -1h16a1 1 0 0 1 1 1v14a1 1 0 0 1 -1 1h-16a1 1 0 0 1 -1 -1zm4 3v1m10 -1v1m-4.5 -5c-.654 1.486 -1.26 3.443 -1.5 9h2.5c-.19 2.867 .094 5.024 .5 7m-7 -4.5c3.667 2 6.333 2 10 0" />
</svg>


