<svg xmlns="http://www.w3.org/2000/svg" class="icon icon-tabler icon-tabler-bus-stop" width="24" height="24" viewBox="0 0 24 24" stroke-width="2" stroke="currentColor" fill="none" stroke-linecap="round" stroke-linejoin="round">
  <path stroke="none" d="M0 0h24v24H0z" fill="none"/>
  <path d="M3 3m0 1a1 1 0 0 1 1 -1h2a1 1 0 0 1 1 1v4a1 1 0 0 1 -1 1h-2a1 1 0 0 1 -1 -1zm15 13m-2 0a2 2 0 1 0 4 0a2 2 0 1 0 -4 0m-6 -12h7c2.761 0 5 3.134 5 7v5h-2m-4 0h-8m8 -12l1.5 7h4.5m-12.5 -2h7.5m-5 -5v5m-7 -1v11" />
</svg>


