<svg xmlns="http://www.w3.org/2000/svg" class="icon icon-tabler icon-tabler-calculator-off" width="24" height="24" viewBox="0 0 24 24" stroke-width="2" stroke="currentColor" fill="none" stroke-linecap="round" stroke-linejoin="round">
  <path stroke="none" d="M0 0h24v24H0z" fill="none"/>
  <path d="M19.823 19.824a2 2 0 0 1 -1.823 1.176h-12a2 2 0 0 1 -2 -2v-14c0 -.295 .064 -.575 .178 -.827m2.822 -1.173h11a2 2 0 0 1 2 2v11m-10 -6h-1a1 1 0 0 1 -1 -1v-1m3 -1h4a1 1 0 0 1 1 1v1a1 1 0 0 1 -1 1h-1m-6 4v.01m4 -.01v.01m-4 2.99v.01m4 -.01v.01m4 -.01v.01m-13 -14.01l18 18" />
</svg>


