<svg xmlns="http://www.w3.org/2000/svg" class="icon icon-tabler icon-tabler-calculator" width="24" height="24" viewBox="0 0 24 24" stroke-width="2" stroke="currentColor" fill="none" stroke-linecap="round" stroke-linejoin="round">
  <path stroke="none" d="M0 0h24v24H0z" fill="none"/>
  <path d="M4 3m0 2a2 2 0 0 1 2 -2h12a2 2 0 0 1 2 2v14a2 2 0 0 1 -2 2h-12a2 2 0 0 1 -2 -2zm4 2m0 1a1 1 0 0 1 1 -1h6a1 1 0 0 1 1 1v1a1 1 0 0 1 -1 1h-6a1 1 0 0 1 -1 -1zm0 6l0 .01m4 -.01l0 .01m4 -.01l0 .01m-8 2.99l0 .01m4 -.01l0 .01m4 -.01l0 .01" />
</svg>


