<svg xmlns="http://www.w3.org/2000/svg" class="icon icon-tabler icon-tabler-camera-rotate" width="24" height="24" viewBox="0 0 24 24" stroke-width="2" stroke="currentColor" fill="none" stroke-linecap="round" stroke-linejoin="round">
  <path stroke="none" d="M0 0h24v24H0z" fill="none"/>
  <path d="M5 7h1a2 2 0 0 0 2 -2a1 1 0 0 1 1 -1h6a1 1 0 0 1 1 1a2 2 0 0 0 2 2h1a2 2 0 0 1 2 2v9a2 2 0 0 1 -2 2h-14a2 2 0 0 1 -2 -2v-9a2 2 0 0 1 2 -2m6.245 8.904a3 3 0 0 0 3.755 -2.904m-2.25 -2.905a3 3 0 0 0 -3.75 2.905m5 0h2v2m-6 -2h-2v-2" />
</svg>


