<svg xmlns="http://www.w3.org/2000/svg" class="icon icon-tabler icon-tabler-chart-dots-3" width="24" height="24" viewBox="0 0 24 24" stroke-width="2" stroke="currentColor" fill="none" stroke-linecap="round" stroke-linejoin="round">
  <path stroke="none" d="M0 0h24v24H0z" fill="none"/>
  <path d="M5 7m-2 0a2 2 0 1 0 4 0a2 2 0 1 0 -4 0m13 8m-2 0a2 2 0 1 0 4 0a2 2 0 1 0 -4 0m4 -9m-3 0a3 3 0 1 0 6 0a3 3 0 1 0 -6 0m-9 12m-3 0a3 3 0 1 0 6 0a3 3 0 1 0 -6 0m6 -1l5 -1.5m-7.5 -7l7.81 5.37m-7.31 -6.87l8 -1" />
</svg>


