<svg xmlns="http://www.w3.org/2000/svg" class="icon icon-tabler icon-tabler-chart-bar-off" width="24" height="24" viewBox="0 0 24 24" stroke-width="2" stroke="currentColor" fill="none" stroke-linecap="round" stroke-linejoin="round">
  <path stroke="none" d="M0 0h24v24H0z" fill="none"/>
  <path d="M3 12m0 1a1 1 0 0 1 1 -1h4a1 1 0 0 1 1 1v6a1 1 0 0 1 -1 1h-4a1 1 0 0 1 -1 -1zm9 -5h2a1 1 0 0 1 1 1v2m0 4v4a1 1 0 0 1 -1 1h-4a1 1 0 0 1 -1 -1v-10m6 2v-6a1 1 0 0 1 1 -1h4a1 1 0 0 1 1 1v12m-1 3h-4a1 1 0 0 1 -1 -1v-4m-11 5h14m-15 -17l18 18" />
</svg>


