<svg xmlns="http://www.w3.org/2000/svg" class="icon icon-tabler icon-tabler-coffee" width="24" height="24" viewBox="0 0 24 24" stroke-width="2" stroke="currentColor" fill="none" stroke-linecap="round" stroke-linejoin="round">
  <path stroke="none" d="M0 0h24v24H0z" fill="none"/>
  <path d="M3 14c.83 .642 2.077 1.017 3.5 1c1.423 .017 2.67 -.358 3.5 -1c.83 -.642 2.077 -1.017 3.5 -1c1.423 -.017 2.67 .358 3.5 1m-9 -11a2.4 2.4 0 0 0 -1 2a2.4 2.4 0 0 0 1 2m4 -4a2.4 2.4 0 0 0 -1 2a2.4 2.4 0 0 0 1 2m-9 3h14v5a6 6 0 0 1 -6 6h-2a6 6 0 0 1 -6 -6v-5zm13.746 6.726a3 3 0 1 0 .252 -5.555" />
</svg>


