<svg xmlns="http://www.w3.org/2000/svg" class="icon icon-tabler icon-tabler-container" width="24" height="24" viewBox="0 0 24 24" stroke-width="2" stroke="currentColor" fill="none" stroke-linecap="round" stroke-linejoin="round">
  <path stroke="none" d="M0 0h24v24H0z" fill="none"/>
  <path d="M20 4v.01m0 15.99v.01m0 -4.01v.01m0 -4.01v.01m0 -4.01v.01m-12 -4.01m0 1a1 1 0 0 1 1 -1h6a1 1 0 0 1 1 1v14a1 1 0 0 1 -1 1h-6a1 1 0 0 1 -1 -1zm-4 -1v.01m0 15.99v.01m0 -4.01v.01m0 -4.01v.01m0 -4.01v.01" />
</svg>


