<svg xmlns="http://www.w3.org/2000/svg" class="icon icon-tabler icon-tabler-cpu-off" width="24" height="24" viewBox="0 0 24 24" stroke-width="2" stroke="currentColor" fill="none" stroke-linecap="round" stroke-linejoin="round">
  <path stroke="none" d="M0 0h24v24H0z" fill="none"/>
  <path d="M9 5h9a1 1 0 0 1 1 1v9m-.292 3.706a1 1 0 0 1 -.708 .294h-12a1 1 0 0 1 -1 -1v-12c0 -.272 .108 -.518 .284 -.698m7.716 3.698h2v2m0 4h-6v-6m-6 1h2m-2 4h2m5 -11v2m4 -2v2m7 5h-2m2 4h-2m-5 7v-2m-4 2v-2m-7 -16l18 18" />
</svg>


