<svg xmlns="http://www.w3.org/2000/svg" class="icon icon-tabler icon-tabler-creative-commons-off" width="24" height="24" viewBox="0 0 24 24" stroke-width="2" stroke="currentColor" fill="none" stroke-linecap="round" stroke-linejoin="round">
  <path stroke="none" d="M0 0h24v24H0z" fill="none"/>
  <path d="M5.638 5.634a9 9 0 1 0 12.723 12.733m1.686 -2.332a9 9 0 0 0 -12.093 -12.077m2.546 6.542a2.187 2.187 0 0 0 -2.914 .116a1.928 1.928 0 0 0 0 2.768a2.188 2.188 0 0 0 2.914 .116m6 -3a2.194 2.194 0 0 0 -2.309 -.302m-11.191 -7.198l18 18" />
</svg>


