<svg xmlns="http://www.w3.org/2000/svg" class="icon icon-tabler icon-tabler-cricket" width="24" height="24" viewBox="0 0 24 24" stroke-width="2" stroke="currentColor" fill="none" stroke-linecap="round" stroke-linejoin="round">
  <path stroke="none" d="M0 0h24v24H0z" fill="none"/>
  <path d="M11.105 18.79l-1 .992a4.159 4.159 0 0 1 -6.038 -5.715l.157 -.166l8.282 -8.401l1.5 1.5l3.45 -3.391a2.08 2.08 0 0 1 3.057 2.815l-.116 .126l-3.391 3.45l1.5 1.5l-3.668 3.617" />
  <path d="M10.5 7.5l6 6" />
  <path d="M14 18m-3 0a3 3 0 1 0 6 0a3 3 0 1 0 -6 0" />
</svg>


