<svg xmlns="http://www.w3.org/2000/svg" class="icon icon-tabler icon-tabler-crutches" width="24" height="24" viewBox="0 0 24 24" stroke-width="2" stroke="currentColor" fill="none" stroke-linecap="round" stroke-linejoin="round">
  <path stroke="none" d="M0 0h24v24H0z" fill="none"/>
  <path d="M8 3m0 2a2 2 0 0 1 2 -2h4a2 2 0 0 1 2 2v0a2 2 0 0 1 -2 2h-4a2 2 0 0 1 -2 -2z" />
  <path d="M11 21h2" />
  <path d="M12 21v-4.092a3 3 0 0 1 .504 -1.664l.992 -1.488a3 3 0 0 0 .504 -1.664v-5.092" />
  <path d="M12 21v-4.092a3 3 0 0 0 -.504 -1.664l-.992 -1.488a3 3 0 0 1 -.504 -1.664v-5.092" />
  <path d="M10 11h4" />
</svg>


