<svg xmlns="http://www.w3.org/2000/svg" class="icon icon-tabler icon-tabler-crutches-off" width="24" height="24" viewBox="0 0 24 24" stroke-width="2" stroke="currentColor" fill="none" stroke-linecap="round" stroke-linejoin="round">
  <path stroke="none" d="M0 0h24v24H0z" fill="none"/>
  <path d="M8.178 4.174a2 2 0 0 1 1.822 -1.174h4a2 2 0 1 1 0 4h-3m0 14h2m-1 0v-4.092a3 3 0 0 1 .504 -1.664l.992 -1.488a3 3 0 0 0 .097 -.155m.407 -3.601v-3m-2 14v-4.092a3 3 0 0 0 -.504 -1.664l-.992 -1.488a3 3 0 0 1 -.504 -1.664v-2.092m0 1h1m-8 -8l18 18" />
</svg>


