<svg xmlns="http://www.w3.org/2000/svg" class="icon icon-tabler icon-tabler-currency-hryvnia" width="24" height="24" viewBox="0 0 24 24" stroke-width="2" stroke="currentColor" fill="none" stroke-linecap="round" stroke-linejoin="round">
  <path stroke="none" d="M0 0h24v24H0z" fill="none"/>
  <path d="M8 7a2.64 2.64 0 0 1 2.562 -2h3.376a2.64 2.64 0 0 1 2.562 2a2.57 2.57 0 0 1 -1.344 2.922l-5.876 2.938a3.338 3.338 0 0 0 -1.78 3.64a3.11 3.11 0 0 0 3.05 2.5h2.888a2.64 2.64 0 0 0 2.562 -2" />
  <path d="M6 10h12" />
  <path d="M6 14h12" />
</svg>


