<svg xmlns="http://www.w3.org/2000/svg" class="icon icon-tabler icon-tabler-device-audio-tape" width="24" height="24" viewBox="0 0 24 24" stroke-width="2" stroke="currentColor" fill="none" stroke-linecap="round" stroke-linejoin="round">
  <path stroke="none" d="M0 0h24v24H0z" fill="none"/>
  <path d="M3 5m0 2a2 2 0 0 1 2 -2h14a2 2 0 0 1 2 2v10a2 2 0 0 1 -2 2h-14a2 2 0 0 1 -2 -2zm0 10l4 -3h10l4 3m-13.5 -7.5m-.5 0a0.5 .5 0 1 0 1 0a0.5 .5 0 1 0 -1 0m9.5 0m-.5 0a0.5 .5 0 1 0 1 0a0.5 .5 0 1 0 -1 0" />
</svg>


