<svg xmlns="http://www.w3.org/2000/svg" class="icon icon-tabler icon-tabler-device-cctv-off" width="24" height="24" viewBox="0 0 24 24" stroke-width="2" stroke="currentColor" fill="none" stroke-linecap="round" stroke-linejoin="round">
  <path stroke="none" d="M0 0h24v24H0z" fill="none"/>
  <path d="M7 7h-3a1 1 0 0 1 -1 -1v-2c0 -.275 .11 -.523 .29 -.704m3.71 -.296h13a1 1 0 0 1 1 1v2a1 1 0 0 1 -1 1h-9m-.64 3.35a4 4 0 1 0 5.285 5.3m3.355 -8.65v7c0 .321 -.022 .637 -.064 .947m-1.095 2.913a7 7 0 0 1 -12.841 -3.86l0 -7m7 7h.01m-9.01 -11l18 18" />
</svg>


