<svg xmlns="http://www.w3.org/2000/svg" class="icon icon-tabler icon-tabler-device-landline-phone" width="24" height="24" viewBox="0 0 24 24" stroke-width="2" stroke="currentColor" fill="none" stroke-linecap="round" stroke-linejoin="round">
  <path stroke="none" d="M0 0h24v24H0z" fill="none"/>
  <path d="M20 3h-2a2 2 0 0 0 -2 2v14a2 2 0 0 0 2 2h2a2 2 0 0 0 2 -2v-14a2 2 0 0 0 -2 -2zm-4 1h-11a3 3 0 0 0 -3 3v10a3 3 0 0 0 3 3h11m-4 -12h-6v3h6zm0 6v.01m-3 -.01v.01m-3 -.01v.01m6 2.99v.01m-3 -.01v.01m-3 -.01v.01" />
</svg>


