<svg xmlns="http://www.w3.org/2000/svg" class="icon icon-tabler icon-tabler-dice-6" width="24" height="24" viewBox="0 0 24 24" stroke-width="2" stroke="currentColor" fill="none" stroke-linecap="round" stroke-linejoin="round">
  <path stroke="none" d="M0 0h24v24H0z" fill="none"/>
  <path d="M4 4m0 2a2 2 0 0 1 2 -2h12a2 2 0 0 1 2 2v12a2 2 0 0 1 -2 2h-12a2 2 0 0 1 -2 -2zm4.5 1.5m-.5 0a0.5 .5 0 1 0 1 0a0.5 .5 0 1 0 -1 0m7.5 0m-.5 0a0.5 .5 0 1 0 1 0a0.5 .5 0 1 0 -1 0m-6.5 4.5m-.5 0a0.5 .5 0 1 0 1 0a0.5 .5 0 1 0 -1 0m7.5 0m-.5 0a0.5 .5 0 1 0 1 0a0.5 .5 0 1 0 -1 0m.5 4.5m-.5 0a0.5 .5 0 1 0 1 0a0.5 .5 0 1 0 -1 0m-6.5 0m-.5 0a0.5 .5 0 1 0 1 0a0.5 .5 0 1 0 -1 0" />
</svg>


