<svg xmlns="http://www.w3.org/2000/svg" class="icon icon-tabler icon-tabler-discount-2" width="24" height="24" viewBox="0 0 24 24" stroke-width="2" stroke="currentColor" fill="none" stroke-linecap="round" stroke-linejoin="round">
  <path stroke="none" d="M0 0h24v24H0z" fill="none"/>
  <path d="M9 15l6 -6m-5.5 .5m-.5 0a0.5 .5 0 1 0 1 0a0.5 .5 0 1 0 -1 0m5.5 5m-.5 0a0.5 .5 0 1 0 1 0a0.5 .5 0 1 0 -1 0m-9 -7.3a2.2 2.2 0 0 1 2.2 -2.2h1a2.2 2.2 0 0 0 1.55 -.64l.7 -.7a2.2 2.2 0 0 1 3.12 0l.7 .7a2.2 2.2 0 0 0 1.55 .64h1a2.2 2.2 0 0 1 2.2 2.2v1a2.2 2.2 0 0 0 .64 1.55l.7 .7a2.2 2.2 0 0 1 0 3.12l-.7 .7a2.2 2.2 0 0 0 -.64 1.55v1a2.2 2.2 0 0 1 -2.2 2.2h-1a2.2 2.2 0 0 0 -1.55 .64l-.7 .7a2.2 2.2 0 0 1 -3.12 0l-.7 -.7a2.2 2.2 0 0 0 -1.55 -.64h-1a2.2 2.2 0 0 1 -2.2 -2.2v-1a2.2 2.2 0 0 0 -.64 -1.55l-.7 -.7a2.2 2.2 0 0 1 0 -3.12l.7 -.7a2.2 2.2 0 0 0 .64 -1.55v-1" />
</svg>


