<svg xmlns="http://www.w3.org/2000/svg" class="icon icon-tabler icon-tabler-drone" width="24" height="24" viewBox="0 0 24 24" stroke-width="2" stroke="currentColor" fill="none" stroke-linecap="round" stroke-linejoin="round">
  <path stroke="none" d="M0 0h24v24H0z" fill="none"/>
  <path d="M10 10h4v4h-4zl-3.5 -3.5m3.46 -.5a3.5 3.5 0 1 0 -3.96 3.96m8 .04l3.5 -3.5m.5 3.46a3.5 3.5 0 1 0 -3.96 -3.96m-.04 8l3.5 3.5m-3.46 .5a3.5 3.5 0 1 0 3.96 -3.96m-8 -.04l-3.5 3.5m-.5 -3.46a3.5 3.5 0 1 0 3.96 3.96" />
</svg>


