<svg xmlns="http://www.w3.org/2000/svg" class="icon icon-tabler icon-tabler-eye-off" width="24" height="24" viewBox="0 0 24 24" stroke-width="2" stroke="currentColor" fill="none" stroke-linecap="round" stroke-linejoin="round">
  <path stroke="none" d="M0 0h24v24H0z" fill="none"/>
  <path d="M9.88 9.878a3 3 0 1 0 4.243 4.242m.581 -3.42a3.012 3.012 0 0 0 -1.45 -1.426m-3.877 -3.913a9.469 9.469 0 0 1 2.623 -.361c4 0 7.333 2.333 10 7c-.778 1.362 -1.613 2.524 -2.504 3.489m-2.138 1.859c-1.629 1.101 -3.415 1.652 -5.358 1.652c-4 0 -7.333 -2.333 -10 -7c1.374 -2.404 2.924 -4.189 4.652 -5.354m-3.652 -3.646l18 18" />
</svg>


