<svg xmlns="http://www.w3.org/2000/svg" class="icon icon-tabler icon-tabler-file-vector" width="24" height="24" viewBox="0 0 24 24" stroke-width="2" stroke="currentColor" fill="none" stroke-linecap="round" stroke-linejoin="round">
  <path stroke="none" d="M0 0h24v24H0z" fill="none"/>
  <path d="M14 3v4a1 1 0 0 0 1 1h4m-9.5 8.5m-1.5 0a1.5 1.5 0 1 0 3 0a1.5 1.5 0 1 0 -3 0m6.5 -4m-1.5 0a1.5 1.5 0 1 0 3 0a1.5 1.5 0 1 0 -3 0m4 8.5h-10a2 2 0 0 1 -2 -2v-14a2 2 0 0 1 2 -2h7l5 5v11a2 2 0 0 1 -2 2zm-7.5 -6a2.5 2.5 0 0 1 2.5 -2.5h1" />
</svg>


