<svg xmlns="http://www.w3.org/2000/svg" class="icon icon-tabler icon-tabler-file-settings" width="24" height="24" viewBox="0 0 24 24" stroke-width="2" stroke="currentColor" fill="none" stroke-linecap="round" stroke-linejoin="round">
  <path stroke="none" d="M0 0h24v24H0z" fill="none"/>
  <path d="M12 14m-2 0a2 2 0 1 0 4 0a2 2 0 1 0 -4 0m2 -3.5v1.5m0 4v1.5m3.031 -5.25l-1.299 .75m-3.464 2l-1.3 .75m6.032 .053l-1.285 -.773m-3.43 -2.06l-1.285 -.773m5 -9.197v4a1 1 0 0 0 1 1h4m-2 13h-10a2 2 0 0 1 -2 -2v-14a2 2 0 0 1 2 -2h7l5 5v11a2 2 0 0 1 -2 2z" />
</svg>


