<svg xmlns="http://www.w3.org/2000/svg" class="icon icon-tabler icon-tabler-flip-flops" width="24" height="24" viewBox="0 0 24 24" stroke-width="2" stroke="currentColor" fill="none" stroke-linecap="round" stroke-linejoin="round">
  <path stroke="none" d="M0 0h24v24H0z" fill="none"/>
  <path d="M18 4c2.21 0 4 1.682 4 3.758c0 .078 0 .156 -.008 .234l-.6 9.014c-.11 1.683 -1.596 3 -3.392 3s-3.28 -1.311 -3.392 -3l-.6 -9.014c-.138 -2.071 1.538 -3.855 3.743 -3.985a4.15 4.15 0 0 1 .25 -.007zm-3.5 10c1 -3.333 2.167 -5 3.5 -5c1.333 0 2.5 1.667 3.5 5m-3.5 2v1m-12 -13c2.21 0 4 1.682 4 3.758c0 .078 0 .156 -.008 .234l-.6 9.014c-.11 1.683 -1.596 3 -3.392 3s-3.28 -1.311 -3.392 -3l-.6 -9.014c-.138 -2.071 1.538 -3.855 3.742 -3.985c.084 0 .167 -.007 .25 -.007zm-3.5 10c1 -3.333 2.167 -5 3.5 -5c1.333 0 2.5 1.667 3.5 5m-3.5 2v1" />
</svg>


