<svg xmlns="http://www.w3.org/2000/svg" class="icon icon-tabler icon-tabler-gift" width="24" height="24" viewBox="0 0 24 24" stroke-width="2" stroke="currentColor" fill="none" stroke-linecap="round" stroke-linejoin="round">
  <path stroke="none" d="M0 0h24v24H0z" fill="none"/>
  <path d="M3 8m0 1a1 1 0 0 1 1 -1h16a1 1 0 0 1 1 1v2a1 1 0 0 1 -1 1h-16a1 1 0 0 1 -1 -1zm9 -1l0 13m7 -9v7a2 2 0 0 1 -2 2h-10a2 2 0 0 1 -2 -2v-7m2.5 -4a2.5 2.5 0 0 1 0 -5a4.8 8 0 0 1 4.5 5a4.8 8 0 0 1 4.5 -5a2.5 2.5 0 0 1 0 5" />
</svg>


