<svg xmlns="http://www.w3.org/2000/svg" class="icon icon-tabler icon-tabler-git-branch-deleted" width="24" height="24" viewBox="0 0 24 24" stroke-width="2" stroke="currentColor" fill="none" stroke-linecap="round" stroke-linejoin="round">
  <path stroke="none" d="M0 0h24v24H0z" fill="none"/>
  <path d="M7 18m-2 0a2 2 0 1 0 4 0a2 2 0 1 0 -4 0" />
  <path d="M7 6m-2 0a2 2 0 1 0 4 0a2 2 0 1 0 -4 0" />
  <path d="M7 8v8" />
  <path d="M9 18h6a2 2 0 0 0 2 -2v-5" />
  <path d="M14 14l3 -3l3 3" />
  <path d="M15 4l4 4" />
  <path d="M15 8l4 -4" />
</svg>


