<svg xmlns="http://www.w3.org/2000/svg" class="icon icon-tabler icon-tabler-go-game" width="24" height="24" viewBox="0 0 24 24" stroke-width="2" stroke="currentColor" fill="none" stroke-linecap="round" stroke-linejoin="round">
  <path stroke="none" d="M0 0h24v24H0z" fill="none"/>
  <path d="M6 6m-2 0a2 2 0 1 0 4 0a2 2 0 1 0 -4 0m8 6m-2 0a2 2 0 1 0 4 0a2 2 0 1 0 -4 0m-4 6m-2 0a2 2 0 1 0 4 0a2 2 0 1 0 -4 0m14 0m-2 0a2 2 0 1 0 4 0a2 2 0 1 0 -4 0m-13 -6h7m4 0h7m-18 -6h1m4 0h13m-18 12h1m4 0h8m4 0h1m-15 -15v1m0 4v8m0 4v1m6 -18v7m0 4v7m6 -18v13m0 4v1" />
</svg>


