<svg xmlns="http://www.w3.org/2000/svg" class="icon icon-tabler icon-tabler-hand-finger-off" width="24" height="24" viewBox="0 0 24 24" stroke-width="2" stroke="currentColor" fill="none" stroke-linecap="round" stroke-linejoin="round">
  <path stroke="none" d="M0 0h24v24H0z" fill="none"/>
  <path d="M8 13v-5m.06 -3.923a1.5 1.5 0 0 1 2.94 .423v2.5m0 4v1m1.063 -3.935a1.5 1.5 0 0 1 1.937 1.435v.5m.06 .082a1.5 1.5 0 0 1 2.94 .418v1.5m0 -.5a1.5 1.5 0 0 1 3 0v4.5m-.88 3.129a6 6 0 0 1 -5.12 2.871h-2h.208a6 6 0 0 1 -5.012 -2.7l-.196 -.3c-.312 -.479 -1.407 -2.388 -3.286 -5.728a1.5 1.5 0 0 1 .536 -2.022a1.867 1.867 0 0 1 2.28 .28l1.47 1.47m-5 -10l18 18" />
</svg>


