<svg xmlns="http://www.w3.org/2000/svg" class="icon icon-tabler icon-tabler-headphones" width="24" height="24" viewBox="0 0 24 24" stroke-width="2" stroke="currentColor" fill="none" stroke-linecap="round" stroke-linejoin="round">
  <path stroke="none" d="M0 0h24v24H0z" fill="none"/>
  <path d="M4 13m0 2a2 2 0 0 1 2 -2h1a2 2 0 0 1 2 2v3a2 2 0 0 1 -2 2h-1a2 2 0 0 1 -2 -2z" />
  <path d="M15 13m0 2a2 2 0 0 1 2 -2h1a2 2 0 0 1 2 2v3a2 2 0 0 1 -2 2h-1a2 2 0 0 1 -2 -2z" />
  <path d="M4 15v-3a8 8 0 0 1 16 0v3" />
</svg>


