<svg xmlns="http://www.w3.org/2000/svg" class="icon icon-tabler icon-tabler-hierarchy-3" width="24" height="24" viewBox="0 0 24 24" stroke-width="2" stroke="currentColor" fill="none" stroke-linecap="round" stroke-linejoin="round">
  <path stroke="none" d="M0 0h24v24H0z" fill="none"/>
  <path d="M12 5m-2 0a2 2 0 1 0 4 0a2 2 0 1 0 -4 0m-2 7m-2 0a2 2 0 1 0 4 0a2 2 0 1 0 -4 0m6 7m-2 0a2 2 0 1 0 4 0a2 2 0 1 0 -4 0m10 0m-2 0a2 2 0 1 0 4 0a2 2 0 1 0 -4 0m-14 0m-2 0a2 2 0 1 0 4 0a2 2 0 1 0 -4 0m14 -7m-2 0a2 2 0 1 0 4 0a2 2 0 1 0 -4 0m-9 5l2 -3m2 -4l2 -3m2 0l2 3m2 4l2 3m-4 -3l-2 3m-4 -3l2 3" />
</svg>


