<svg xmlns="http://www.w3.org/2000/svg" class="icon icon-tabler icon-tabler-keyboard-off" width="24" height="24" viewBox="0 0 24 24" stroke-width="2" stroke="currentColor" fill="none" stroke-linecap="round" stroke-linejoin="round">
  <path stroke="none" d="M0 0h24v24H0z" fill="none"/>
  <path d="M18 18h-14a2 2 0 0 1 -2 -2v-8a2 2 0 0 1 2 -2h2m4 0h10a2 2 0 0 1 2 2v8c0 .554 -.226 1.056 -.59 1.418m-15.41 -7.418l0 .01m4 -.01l0 .01m4 -.01l0 .01m4 -.01l0 .01m-12 3.99l0 .01m12 -.01l0 .01m-8 -.01l4 0m-11 -11l18 18" />
</svg>


