<svg xmlns="http://www.w3.org/2000/svg" class="icon icon-tabler icon-tabler-lifebuoy-off" width="24" height="24" viewBox="0 0 24 24" stroke-width="2" stroke="currentColor" fill="none" stroke-linecap="round" stroke-linejoin="round">
  <path stroke="none" d="M0 0h24v24H0z" fill="none"/>
  <path d="M9.171 9.172a4 4 0 0 0 5.65 5.663m1.179 -2.835a4 4 0 0 0 -4 -4m-6.36 -2.368a9 9 0 1 0 12.73 12.725m1.667 -2.301a9 9 0 0 0 -12.077 -12.1m7.04 11.044l3.35 3.35m-9.35 -3.35l-3.35 3.35m0 -12.7l3.35 3.35m9.35 -3.35l-3.35 3.35m-12 -6l18 18" />
</svg>


