<svg xmlns="http://www.w3.org/2000/svg" class="icon icon-tabler icon-tabler-link-off" width="24" height="24" viewBox="0 0 24 24" stroke-width="2" stroke="currentColor" fill="none" stroke-linecap="round" stroke-linejoin="round">
  <path stroke="none" d="M0 0h24v24H0z" fill="none"/>
  <path d="M10 14a3.5 3.5 0 0 0 4.47 .444m2.025 -1.94c.557 -.556 1.392 -1.39 2.505 -2.504a3.536 3.536 0 0 0 -5 -5l-.5 .5" />
  <path d="M9.548 9.544a3.5 3.5 0 0 0 -.548 .456l-4 4a3.536 3.536 0 0 0 5 5l.5 -.5" />
  <path d="M3 3l18 18" />
  <path d="M3 3l18 18" />
</svg>


