<svg xmlns="http://www.w3.org/2000/svg" class="icon icon-tabler icon-tabler-luggage" width="24" height="24" viewBox="0 0 24 24" stroke-width="2" stroke="currentColor" fill="none" stroke-linecap="round" stroke-linejoin="round">
  <path stroke="none" d="M0 0h24v24H0z" fill="none"/>
  <path d="M6 6m0 2a2 2 0 0 1 2 -2h8a2 2 0 0 1 2 2v10a2 2 0 0 1 -2 2h-8a2 2 0 0 1 -2 -2z" />
  <path d="M9 6v-1a2 2 0 0 1 2 -2h2a2 2 0 0 1 2 2v1" />
  <path d="M6 10h12" />
  <path d="M6 16h12" />
  <path d="M9 20v1" />
  <path d="M15 20v1" />
</svg>


