<svg xmlns="http://www.w3.org/2000/svg" class="icon icon-tabler icon-tabler-macro-off" width="24" height="24" viewBox="0 0 24 24" stroke-width="2" stroke="currentColor" fill="none" stroke-linecap="round" stroke-linejoin="round">
  <path stroke="none" d="M0 0h24v24H0z" fill="none"/>
  <path d="M6 15a6 6 0 0 0 11.47 2.467m-1.94 -1.937a6 6 0 0 0 -3.53 5.47a6 6 0 0 0 -6 -6m6 6v-10m-1.134 -.13a5.007 5.007 0 0 1 -3.734 -3.723m-.132 -4.147l3 2l2 -2l2 2l3 -2v3a5 5 0 0 1 -2.604 4.389m-11.396 -7.389l18 18" />
</svg>


