<svg xmlns="http://www.w3.org/2000/svg" class="icon icon-tabler icon-tabler-mail-fast" width="24" height="24" viewBox="0 0 24 24" stroke-width="2" stroke="currentColor" fill="none" stroke-linecap="round" stroke-linejoin="round">
  <path stroke="none" d="M0 0h24v24H0z" fill="none"/>
  <path d="M3 7h3m-3 4h2m4.02 -2.199l-.6 6a2 2 0 0 0 1.99 2.199h7.98a2 2 0 0 0 1.99 -1.801l.6 -6a2 2 0 0 0 -1.99 -2.199h-7.98a2 2 0 0 0 -1.99 1.801zm.78 -1.301l2.982 3.28a3 3 0 0 0 4.238 .202l3.28 -2.982" />
</svg>


