<svg xmlns="http://www.w3.org/2000/svg" class="icon icon-tabler icon-tabler-marquee-off" width="24" height="24" viewBox="0 0 24 24" stroke-width="2" stroke="currentColor" fill="none" stroke-linecap="round" stroke-linejoin="round">
  <path stroke="none" d="M0 0h24v24H0z" fill="none"/>
  <path d="M4 6c0 -.556 .227 -1.059 .593 -1.421m4.407 -.579h1.5m3 0h1.5m3 0a2 2 0 0 1 2 2m0 3v1.5m0 3v1.5m-.598 4.426a1.993 1.993 0 0 1 -1.402 .574m-3 0h-1.5m-3 0h-1.5m-3 0a2 2 0 0 1 -2 -2m0 -3v-1.5m0 -3v-1.5m-1 -6l18 18" />
</svg>


