<svg xmlns="http://www.w3.org/2000/svg" class="icon icon-tabler icon-tabler-mood-nerd" width="24" height="24" viewBox="0 0 24 24" stroke-width="2" stroke="currentColor" fill="none" stroke-linecap="round" stroke-linejoin="round">
  <path stroke="none" d="M0 0h24v24H0z" fill="none"/>
  <path d="M12 12m-9 0a9 9 0 1 0 18 0a9 9 0 1 0 -18 0m5 -2m-2 0a2 2 0 1 0 4 0a2 2 0 1 0 -4 0m10 0m-2 0a2 2 0 1 0 4 0a2 2 0 1 0 -4 0m-4.5 5a3.5 3.5 0 0 0 5 0m-11 -6h2.5m12 0h2.5m-10.5 .5c1.333 -1.333 2.667 -1.333 4 0" />
</svg>


