<svg xmlns="http://www.w3.org/2000/svg" class="icon icon-tabler icon-tabler-mood-boy" width="24" height="24" viewBox="0 0 24 24" stroke-width="2" stroke="currentColor" fill="none" stroke-linecap="round" stroke-linejoin="round">
  <path stroke="none" d="M0 0h24v24H0z" fill="none"/>
  <path d="M17 4.5a9 9 0 0 1 3.864 5.89a2.5 2.5 0 0 1 -.29 4.36a9 9 0 0 1 -17.137 0a2.5 2.5 0 0 1 -.29 -4.36a9 9 0 0 1 3.746 -5.81m2.607 11.42a3.5 3.5 0 0 0 5 0m-6 -14c1.5 1 2.5 3.5 2.5 5m1.5 -5c1.5 2 2 3.5 2 5m-5.5 5l.01 0m5.99 0l.01 0" />
</svg>


