<svg xmlns="http://www.w3.org/2000/svg" class="icon icon-tabler icon-tabler-movie-off" width="24" height="24" viewBox="0 0 24 24" stroke-width="2" stroke="currentColor" fill="none" stroke-linecap="round" stroke-linejoin="round">
  <path stroke="none" d="M0 0h24v24H0z" fill="none"/>
  <path d="M8 4h10a2 2 0 0 1 2 2v10m-.592 3.42c-.362 .359 -.859 .58 -1.408 .58h-12a2 2 0 0 1 -2 -2v-12c0 -.539 .213 -1.028 .56 -1.388m3.44 3.388v12m8 -16v8m0 4v4m-12 -12h4m-4 8h4m-4 -4h8m4 0h4m-4 -4h4m-17 -5l18 18" />
</svg>


