<svg xmlns="http://www.w3.org/2000/svg" class="icon icon-tabler icon-tabler-mug-off" width="24" height="24" viewBox="0 0 24 24" stroke-width="2" stroke="currentColor" fill="none" stroke-linecap="round" stroke-linejoin="round">
  <path stroke="none" d="M0 0h24v24H0z" fill="none"/>
  <path d="M9 5h5.917a1.08 1.08 0 0 1 1.083 1.077v5.923m-.167 3.88a4.33 4.33 0 0 1 -4.166 3.12h-4.334c-2.393 0 -4.333 -1.929 -4.333 -4.308v-8.615a1.08 1.08 0 0 1 1.083 -1.077h.917m11 3h2.5c1.38 0 2.5 1.045 2.5 2.333v2.334c0 1.148 -.89 2.103 -2.06 2.297m-15.94 -11.964l18 18" />
</svg>


