<svg xmlns="http://www.w3.org/2000/svg" class="icon icon-tabler icon-tabler-network-off" width="24" height="24" viewBox="0 0 24 24" stroke-width="2" stroke="currentColor" fill="none" stroke-linecap="round" stroke-linejoin="round">
  <path stroke="none" d="M0 0h24v24H0z" fill="none"/>
  <path d="M6.537 6.516a6 6 0 0 0 7.932 7.954m2.246 -1.76a6 6 0 0 0 -8.415 -8.433m3.7 -1.277c1.333 .333 2 2.333 2 6c0 .348 0 .681 -.018 1m-.545 3.43c-.332 .89 -.811 1.414 -1.437 1.57m0 -12c-.938 .234 -1.547 1.295 -1.825 3.182m-.156 3.837c.117 3.02 .777 4.68 1.981 4.981m-6 -6h3m4 0h5m-15 10h7m4 0h5m-7 0m-2 0a2 2 0 1 0 4 0a2 2 0 1 0 -4 0m2 -4v2m-9 -14l18 18" />
</svg>


