<svg xmlns="http://www.w3.org/2000/svg" class="icon icon-tabler icon-tabler-octagon" width="24" height="24" viewBox="0 0 24 24" stroke-width="2" stroke="currentColor" fill="none" stroke-linecap="round" stroke-linejoin="round">
  <path stroke="none" d="M0 0h24v24H0z" fill="none"/>
  <path d="M8.7 3h6.6c.3 0 .5 .1 .7 .3l4.7 4.7c.2 .2 .3 .4 .3 .7v6.6c0 .3 -.1 .5 -.3 .7l-4.7 4.7c-.2 .2 -.4 .3 -.7 .3h-6.6c-.3 0 -.5 -.1 -.7 -.3l-4.7 -4.7c-.2 -.2 -.3 -.4 -.3 -.7v-6.6c0 -.3 .1 -.5 .3 -.7l4.7 -4.7c.2 -.2 .4 -.3 .7 -.3z" />
</svg>


