<svg xmlns="http://www.w3.org/2000/svg" class="icon icon-tabler icon-tabler-olympics-off" width="24" height="24" viewBox="0 0 24 24" stroke-width="2" stroke="currentColor" fill="none" stroke-linecap="round" stroke-linejoin="round">
  <path stroke="none" d="M0 0h24v24H0z" fill="none"/>
  <path d="M6 6a3 3 0 1 0 3 3m9 0m-3 0a3 3 0 1 0 6 0a3 3 0 1 0 -6 0m-6 0a3 3 0 0 0 3 3m2.566 -1.445a3 3 0 0 0 -4.135 -4.113m-1.431 8.558m-3 0a3 3 0 1 0 6 0a3 3 0 1 0 -6 0m6.878 -2.12a3 3 0 0 0 4.239 4.247m.586 -3.431a3.012 3.012 0 0 0 -1.43 -1.414m-13.273 -9.282l18 18" />
</svg>


