<svg xmlns="http://www.w3.org/2000/svg" class="icon icon-tabler icon-tabler-parachute" width="24" height="24" viewBox="0 0 24 24" stroke-width="2" stroke="currentColor" fill="none" stroke-linecap="round" stroke-linejoin="round">
  <path stroke="none" d="M0 0h24v24H0z" fill="none"/>
  <path d="M22 12a10 10 0 1 0 -20 0m20 0c0 -1.66 -1.46 -3 -3.25 -3c-1.8 0 -3.25 1.34 -3.25 3c0 -1.66 -1.57 -3 -3.5 -3s-3.5 1.34 -3.5 3c0 -1.66 -1.46 -3 -3.25 -3c-1.8 0 -3.25 1.34 -3.25 3l10 10l-3.5 -10m7 0l-3.5 10l10 -10" />
</svg>


