<svg xmlns="http://www.w3.org/2000/svg" class="icon icon-tabler icon-tabler-plant-off" width="24" height="24" viewBox="0 0 24 24" stroke-width="2" stroke="currentColor" fill="none" stroke-linecap="round" stroke-linejoin="round">
  <path stroke="none" d="M0 0h24v24H0z" fill="none"/>
  <path d="M17 17v2a2 2 0 0 1 -2 2h-6a2 2 0 0 1 -2 -2v-4h8m-3.1 -7.092a6 6 0 0 0 -4.79 -4.806m-4.11 -.102v2a6 6 0 0 0 6 6h2m1.531 -2.472a6 6 0 0 1 5.469 -3.528h3v1a6 6 0 0 1 -5.037 5.923m-3.963 3.077v-3m-9 -9l18 18" />
</svg>


