<svg xmlns="http://www.w3.org/2000/svg" class="icon icon-tabler icon-tabler-poker-chip" width="24" height="24" viewBox="0 0 24 24" stroke-width="2" stroke="currentColor" fill="none" stroke-linecap="round" stroke-linejoin="round">
  <path stroke="none" d="M0 0h24v24H0z" fill="none"/>
  <path d="M12 12m-9 0a9 9 0 1 0 18 0a9 9 0 1 0 -18 0m9 0m-5 0a5 5 0 1 0 10 0a5 5 0 1 0 -10 0m5 -9v4m0 10v4m-9 -9h4m10 0h4m-2.636 -6.364l-2.828 2.828m-7.072 7.072l-2.828 2.828m0 -12.728l2.828 2.828m7.072 7.072l2.828 2.828" />
</svg>


