<svg xmlns="http://www.w3.org/2000/svg" class="icon icon-tabler icon-tabler-qrcode" width="24" height="24" viewBox="0 0 24 24" stroke-width="2" stroke="currentColor" fill="none" stroke-linecap="round" stroke-linejoin="round">
  <path stroke="none" d="M0 0h24v24H0z" fill="none"/>
  <path d="M4 4m0 1a1 1 0 0 1 1 -1h4a1 1 0 0 1 1 1v4a1 1 0 0 1 -1 1h-4a1 1 0 0 1 -1 -1zm3 12l0 .01m7 -13.01m0 1a1 1 0 0 1 1 -1h4a1 1 0 0 1 1 1v4a1 1 0 0 1 -1 1h-4a1 1 0 0 1 -1 -1zm-7 2l0 .01m-3 6.99m0 1a1 1 0 0 1 1 -1h4a1 1 0 0 1 1 1v4a1 1 0 0 1 -1 1h-4a1 1 0 0 1 -1 -1zm13 -8l0 .01m-3 6.99l3 0m3 0l0 .01m-6 -.01l0 3m0 3l3 0m0 -3l3 0l0 3" />
</svg>


