<svg xmlns="http://www.w3.org/2000/svg" class="icon icon-tabler icon-tabler-qrcode-off" width="24" height="24" viewBox="0 0 24 24" stroke-width="2" stroke="currentColor" fill="none" stroke-linecap="round" stroke-linejoin="round">
  <path stroke="none" d="M0 0h24v24H0z" fill="none"/>
  <path d="M8 4h1a1 1 0 0 1 1 1v1m-.297 3.711a1 1 0 0 1 -.703 .289h-4a1 1 0 0 1 -1 -1v-4c0 -.275 .11 -.524 .29 -.705m2.71 12.705v.01m7 -13.01m0 1a1 1 0 0 1 1 -1h4a1 1 0 0 1 1 1v4a1 1 0 0 1 -1 1h-4a1 1 0 0 1 -1 -1zm-7 2v.01m-3 6.99m0 1a1 1 0 0 1 1 -1h4a1 1 0 0 1 1 1v4a1 1 0 0 1 -1 1h-4a1 1 0 0 1 -1 -1zm13 -8v.01m3 6.99v.01m-6 -.01v3m0 3h3m-14 -17l18 18" />
</svg>


