<svg xmlns="http://www.w3.org/2000/svg" class="icon icon-tabler icon-tabler-replace-off" width="24" height="24" viewBox="0 0 24 24" stroke-width="2" stroke="currentColor" fill="none" stroke-linecap="round" stroke-linejoin="round">
  <path stroke="none" d="M0 0h24v24H0z" fill="none"/>
  <path d="M7 3h1a1 1 0 0 1 1 1v1m-.303 3.717a1 1 0 0 1 -.697 .283h-4a1 1 0 0 1 -1 -1v-4c0 -.28 .115 -.532 .3 -.714m15.7 11.714h1a1 1 0 0 1 1 1v1m-.303 3.717a1 1 0 0 1 -.697 .283h-4a1 1 0 0 1 -1 -1v-4c0 -.28 .115 -.532 .3 -.714m5.7 -4.286v-3a2 2 0 0 0 -2 -2h-6l3 3m0 -6l-3 3m-10 7v3a2 2 0 0 0 2 2h6l-3 -3m0 6l3 -3m-8 -15l18 18" />
</svg>


