<svg xmlns="http://www.w3.org/2000/svg" class="icon icon-tabler icon-tabler-report-search" width="24" height="24" viewBox="0 0 24 24" stroke-width="2" stroke="currentColor" fill="none" stroke-linecap="round" stroke-linejoin="round">
  <path stroke="none" d="M0 0h24v24H0z" fill="none"/>
  <path d="M8 5h-2a2 2 0 0 0 -2 2v12a2 2 0 0 0 2 2h5.697m6.303 -9v-5a2 2 0 0 0 -2 -2h-2m-6 -2m0 2a2 2 0 0 1 2 -2h2a2 2 0 0 1 2 2v0a2 2 0 0 1 -2 2h-2a2 2 0 0 1 -2 -2zm0 6h4m-4 4h3m5.5 2.5m-2.5 0a2.5 2.5 0 1 0 5 0a2.5 2.5 0 1 0 -5 0m4.5 2l2.5 2.5" />
</svg>


