<svg xmlns="http://www.w3.org/2000/svg" class="icon icon-tabler icon-tabler-robot-off" width="24" height="24" viewBox="0 0 24 24" stroke-width="2" stroke="currentColor" fill="none" stroke-linecap="round" stroke-linejoin="round">
  <path stroke="none" d="M0 0h24v24H0z" fill="none"/>
  <path d="M11 7h6a2 2 0 0 1 2 2v1l1 1v3l-1 1m-.171 3.811a2 2 0 0 1 -1.829 1.189h-10a2 2 0 0 1 -2 -2v-3l-1 -1v-3l1 -1v-1a2 2 0 0 1 2 -2m3 9h4m-5.5 -4.5m-1 0a1 1 0 1 0 2 0a1 1 0 1 0 -2 0m8.354 .353a0.498 .498 0 0 0 -.354 -.853a0.498 .498 0 0 0 -.356 .149m-6.808 -6.806l-.336 -1.343m7 4l1 -4m-13 0l18 18" />
</svg>


