<svg xmlns="http://www.w3.org/2000/svg" class="icon icon-tabler icon-tabler-robot" width="24" height="24" viewBox="0 0 24 24" stroke-width="2" stroke="currentColor" fill="none" stroke-linecap="round" stroke-linejoin="round">
  <path stroke="none" d="M0 0h24v24H0z" fill="none"/>
  <path d="M7 7h10a2 2 0 0 1 2 2v1l1 1v3l-1 1v3a2 2 0 0 1 -2 2h-10a2 2 0 0 1 -2 -2v-3l-1 -1v-3l1 -1v-1a2 2 0 0 1 2 -2zm3 9h4m-5.5 -4.5m-.5 0a0.5 .5 0 1 0 1 0a0.5 .5 0 1 0 -1 0m7.5 0m-.5 0a0.5 .5 0 1 0 1 0a0.5 .5 0 1 0 -1 0m-6 -4.5l-1 -4m7 4l1 -4" />
</svg>


