<svg xmlns="http://www.w3.org/2000/svg" class="icon icon-tabler icon-tabler-rollercoaster-off" width="24" height="24" viewBox="0 0 24 24" stroke-width="2" stroke="currentColor" fill="none" stroke-linecap="round" stroke-linejoin="round">
  <path stroke="none" d="M0 0h24v24H0z" fill="none"/>
  <path d="M3 21a5.55 5.55 0 0 0 5.265 -3.795l.735 -2.205a8.759 8.759 0 0 1 2.35 -3.652m2.403 -1.589a8.76 8.76 0 0 1 3.572 -.759h3.675m-1 0v7m0 4v1m-12 0v-3m4 3v-9m4 -2.5v2.5m0 4v5m-1 -18h5v3h-5zm-5.554 2.415l.554 -.415l2 2.5l-.285 .213m-2.268 1.702l-1.447 1.085l-1.8 -.5l-.2 -2l1.139 -.854m-4.139 -4.146l18 18" />
</svg>


