<svg xmlns="http://www.w3.org/2000/svg" class="icon icon-tabler icon-tabler-ruler-off" width="24" height="24" viewBox="0 0 24 24" stroke-width="2" stroke="currentColor" fill="none" stroke-linecap="round" stroke-linejoin="round">
  <path stroke="none" d="M0 0h24v24H0z" fill="none"/>
  <path d="M8 4h11a1 1 0 0 1 1 1v5a1 1 0 0 1 -1 1h-4m-3.713 .299a1 1 0 0 0 -.287 .701v7a1 1 0 0 1 -1 1h-5a1 1 0 0 1 -1 -1v-14c0 -.284 .118 -.54 .308 -.722m-.308 3.722h2m-2 4h3m-3 4h2m6 -12v3m4 -3v2m-13 -3l18 18" />
</svg>


