<svg xmlns="http://www.w3.org/2000/svg" class="icon icon-tabler icon-tabler-sailboat-2" width="24" height="24" viewBox="0 0 24 24" stroke-width="2" stroke="currentColor" fill="none" stroke-linecap="round" stroke-linejoin="round">
  <path stroke="none" d="M0 0h24v24H0z" fill="none"/>
  <path d="M2 20a2.4 2.4 0 0 0 2 1a2.4 2.4 0 0 0 2 -1a2.4 2.4 0 0 1 2 -1a2.4 2.4 0 0 1 2 1a2.4 2.4 0 0 0 2 1a2.4 2.4 0 0 0 2 -1a2.4 2.4 0 0 1 2 -1a2.4 2.4 0 0 1 2 1a2.4 2.4 0 0 0 2 1a2.4 2.4 0 0 0 2 -1m-18 -2l-1 -3h18l-1 3m-8 -7v4m-5 -12c1.333 2.667 1.333 5.333 0 8h10c1.333 -2.667 1.333 -5.333 0 -8m-11 0h12" />
</svg>


