<svg xmlns="http://www.w3.org/2000/svg" class="icon icon-tabler icon-tabler-satellite" width="24" height="24" viewBox="0 0 24 24" stroke-width="2" stroke="currentColor" fill="none" stroke-linecap="round" stroke-linejoin="round">
  <path stroke="none" d="M0 0h24v24H0z" fill="none"/>
  <path d="M3.707 6.293l2.586 -2.586a1 1 0 0 1 1.414 0l5.586 5.586a1 1 0 0 1 0 1.414l-2.586 2.586a1 1 0 0 1 -1.414 0l-5.586 -5.586a1 1 0 0 1 0 -1.414zm2.293 3.707l-3 3l3 3l3 -3m1 -7l3 -3l3 3l-3 3m-1 3l1.5 1.5m1 3.5a2.5 2.5 0 0 0 2.5 -2.5m-2 6.5a6 6 0 0 0 6 -6" />
</svg>


