<svg xmlns="http://www.w3.org/2000/svg" class="icon icon-tabler icon-tabler-sdk" width="24" height="24" viewBox="0 0 24 24" stroke-width="2" stroke="currentColor" fill="none" stroke-linecap="round" stroke-linejoin="round">
  <path stroke="none" d="M0 0h24v24H0z" fill="none"/>
  <path d="M7 8h-3a1 1 0 0 0 -1 1v2a1 1 0 0 0 1 1h2a1 1 0 0 1 1 1v2a1 1 0 0 1 -1 1h-3" />
  <path d="M17 8v8" />
  <path d="M21 8l-3 4l3 4" />
  <path d="M17 12h1" />
  <path d="M10 8v8h2a2 2 0 0 0 2 -2v-4a2 2 0 0 0 -2 -2h-2z" />
</svg>


