<svg xmlns="http://www.w3.org/2000/svg" class="icon icon-tabler icon-tabler-shopping-cart-discount" width="24" height="24" viewBox="0 0 24 24" stroke-width="2" stroke="currentColor" fill="none" stroke-linecap="round" stroke-linejoin="round">
  <path stroke="none" d="M0 0h24v24H0z" fill="none"/>
  <path d="M6 19m-2 0a2 2 0 1 0 4 0a2 2 0 1 0 -4 0m13 0m-2 0a2 2 0 1 0 4 0a2 2 0 1 0 -4 0m2 -2h-11v-14h-2m16 3l-1 7h-13m4 -3l6 -6m-5.5 .5m-.5 0a0.5 .5 0 1 0 1 0a0.5 .5 0 1 0 -1 0m5.5 5m-.5 0a0.5 .5 0 1 0 1 0a0.5 .5 0 1 0 -1 0" />
</svg>


