<svg xmlns="http://www.w3.org/2000/svg" class="icon icon-tabler icon-tabler-skull" width="24" height="24" viewBox="0 0 24 24" stroke-width="2" stroke="currentColor" fill="none" stroke-linecap="round" stroke-linejoin="round">
  <path stroke="none" d="M0 0h24v24H0z" fill="none"/>
  <path d="M12 4c4.418 0 8 3.358 8 7.5c0 1.901 -.755 3.637 -1.999 4.96l-.001 2.54a1 1 0 0 1 -1 1h-10a1 1 0 0 1 -1 -1v-2.54c-1.245 -1.322 -2 -3.058 -2 -4.96c0 -4.142 3.582 -7.5 8 -7.5z" />
  <path d="M10 17v3" />
  <path d="M14 17v3" />
  <circle cx="9" cy="11" r="1" />
  <circle cx="15" cy="11" r="1" />
</svg>


