<svg xmlns="http://www.w3.org/2000/svg" class="icon icon-tabler icon-tabler-snowflake" width="24" height="24" viewBox="0 0 24 24" stroke-width="2" stroke="currentColor" fill="none" stroke-linecap="round" stroke-linejoin="round">
  <path stroke="none" d="M0 0h24v24H0z" fill="none"/>
  <path d="M10 4l2 1l2 -1m-2 -2v6.5l3 1.72m2.928 -3.952l.134 2.232l1.866 1.232m.732 -2.732l-5.629 3.25l.01 3.458m4.887 .56l-1.866 1.232l-.134 2.232m2.732 -.732l-5.629 -3.25l-2.99 1.738m1.959 4.512l-2 -1l-2 1m2 2v-6.5l-3 -1.72m-2.928 3.952l-.134 -2.232l-1.866 -1.232m-.732 2.732l5.629 -3.25l-.01 -3.458m-4.887 -.56l1.866 -1.232l.134 -2.232m-2.732 .732l5.629 3.25l2.99 -1.738" />
</svg>


