<svg xmlns="http://www.w3.org/2000/svg" class="icon icon-tabler icon-tabler-snowflake-off" width="24" height="24" viewBox="0 0 24 24" stroke-width="2" stroke="currentColor" fill="none" stroke-linecap="round" stroke-linejoin="round">
  <path stroke="none" d="M0 0h24v24H0z" fill="none"/>
  <path d="M10 4l2 1l2 -1m-2 -2v6m1.196 1.186l1.804 1.034m2.928 -3.952l.134 2.232l1.866 1.232m.732 -2.732l-5.629 3.25l-.031 .75m4.928 3.268l-1.015 .67m-4.701 -.712l-2.171 1.262m1.959 4.512l-2 -1l-2 1m2 2v-6.5l-3 -1.72m-2.928 3.952l-.134 -2.232l-1.866 -1.232m-.732 2.732l5.629 -3.25l-.01 -3.458m-4.887 -.56l1.866 -1.232l.134 -2.232m-2.732 .732l5.629 3.25l.802 -.466m-6.771 -6.784l18 18" />
</svg>


