<svg xmlns="http://www.w3.org/2000/svg" class="icon icon-tabler icon-tabler-social" width="24" height="24" viewBox="0 0 24 24" stroke-width="2" stroke="currentColor" fill="none" stroke-linecap="round" stroke-linejoin="round">
  <path stroke="none" d="M0 0h24v24H0z" fill="none"/>
  <path d="M12 5m-2 0a2 2 0 1 0 4 0a2 2 0 1 0 -4 0m-5 14m-2 0a2 2 0 1 0 4 0a2 2 0 1 0 -4 0m16 0m-2 0a2 2 0 1 0 4 0a2 2 0 1 0 -4 0m-5 -5m-3 0a3 3 0 1 0 6 0a3 3 0 1 0 -6 0m3 -7l0 4m-5.3 6.8l2.8 -2m7.8 2l-2.8 -2" />
</svg>


