<svg xmlns="http://www.w3.org/2000/svg" class="icon icon-tabler icon-tabler-spiral" width="24" height="24" viewBox="0 0 24 24" stroke-width="2" stroke="currentColor" fill="none" stroke-linecap="round" stroke-linejoin="round">
  <path stroke="none" d="M0 0h24v24H0z" fill="none"/>
  <path d="M10 12.057a1.9 1.9 0 0 0 .614 .743c1.06 .713 2.472 .112 3.043 -.919c.839 -1.513 -.022 -3.368 -1.525 -4.08c-2.003 -.95 -4.371 .154 -5.24 2.086c-1.095 2.432 .29 5.248 2.71 6.246c2.931 1.208 6.283 -.418 7.438 -3.255c1.36 -3.343 -.557 -7.134 -3.896 -8.41c-3.855 -1.474 -8.2 .68 -9.636 4.422c-1.63 4.253 .823 9.024 5.082 10.576c4.778 1.74 10.118 -.941 11.833 -5.59a9.354 9.354 0 0 0 .577 -2.813" />
</svg>


