<svg xmlns="http://www.w3.org/2000/svg" class="icon icon-tabler icon-tabler-spray" width="24" height="24" viewBox="0 0 24 24" stroke-width="2" stroke="currentColor" fill="none" stroke-linecap="round" stroke-linejoin="round">
  <path stroke="none" d="M0 0h24v24H0z" fill="none"/>
  <path d="M4 10m0 2a2 2 0 0 1 2 -2h4a2 2 0 0 1 2 2v7a2 2 0 0 1 -2 2h-4a2 2 0 0 1 -2 -2zm2 -2v-4a1 1 0 0 1 1 -1h2a1 1 0 0 1 1 1v4m5 -3h.01m2.99 2h.01m-.01 -4h.01m2.99 -2h.01m-.01 4h.01m-.01 4h.01m-11.01 -4h1" />
</svg>


