<svg xmlns="http://www.w3.org/2000/svg" class="icon icon-tabler icon-tabler-spy-off" width="24" height="24" viewBox="0 0 24 24" stroke-width="2" stroke="currentColor" fill="none" stroke-linecap="round" stroke-linejoin="round">
  <path stroke="none" d="M0 0h24v24H0z" fill="none"/>
  <path d="M3 11h8m4 0h6m-16 0v-4c0 -.571 .16 -1.105 .437 -1.56m2.563 -1.44h8a3 3 0 0 1 3 3v4m-12 6m-3 0a3 3 0 1 0 6 0a3 3 0 1 0 -6 0m10.88 -2.123a3 3 0 1 0 4.239 4.247m.59 -3.414a3.012 3.012 0 0 0 -1.425 -1.422m-8.284 2.712h4m-11 -14l18 18" />
</svg>


