<svg xmlns="http://www.w3.org/2000/svg" class="icon icon-tabler icon-tabler-square-f2" width="24" height="24" viewBox="0 0 24 24" stroke-width="2" stroke="currentColor" fill="none" stroke-linecap="round" stroke-linejoin="round">
  <path stroke="none" d="M0 0h24v24H0z" fill="none"/>
  <path d="M20 6.667v10.666a2.667 2.667 0 0 1 -2.667 2.667h-10.666a2.667 2.667 0 0 1 -2.667 -2.667v-10.666a2.667 2.667 0 0 1 2.667 -2.667h10.666a2.667 2.667 0 0 1 2.667 2.667zm-7 2.333h2a1 1 0 0 1 1 1v1a1 1 0 0 1 -1 1h-1a1 1 0 0 0 -1 1v1a1 1 0 0 0 1 1h2m-8 -3h2m0 -3h-2v6" />
</svg>


