<svg xmlns="http://www.w3.org/2000/svg" class="icon icon-tabler icon-tabler-sun-wind" width="24" height="24" viewBox="0 0 24 24" stroke-width="2" stroke="currentColor" fill="none" stroke-linecap="round" stroke-linejoin="round">
  <path stroke="none" d="M0 0h24v24H0z" fill="none"/>
  <path d="M14.468 10a4 4 0 1 0 -5.466 5.46m-7 -3.465h1m8 -9v1m0 16v1m-6.4 -15.4l.7 .7m12.1 -.7l-.7 .7m-11.4 11.4l-.7 .7m10.4 -5.4h5a2 2 0 1 0 0 -4m-8 7h5.714l.253 0a2 2 0 0 1 2.033 2a2 2 0 0 1 -2 2h-.286" />
</svg>


