<svg xmlns="http://www.w3.org/2000/svg" class="icon icon-tabler icon-tabler-swipe" width="24" height="24" viewBox="0 0 24 24" stroke-width="2" stroke="currentColor" fill="none" stroke-linecap="round" stroke-linejoin="round">
  <path stroke="none" d="M0 0h24v24H0z" fill="none"/>
  <path d="M15 16.572v2.42a2.01 2.01 0 0 1 -2.009 2.008h-7.981a2.01 2.01 0 0 1 -2.01 -2.009v-7.981a2.01 2.01 0 0 1 2.009 -2.01h2.954" />
  <path d="M9.167 4.511a2.04 2.04 0 0 1 2.496 -1.441l7.826 2.097a2.04 2.04 0 0 1 1.441 2.496l-2.097 7.826a2.04 2.04 0 0 1 -2.496 1.441l-7.827 -2.097a2.04 2.04 0 0 1 -1.441 -2.496l2.098 -7.827z" />
</svg>


