<svg xmlns="http://www.w3.org/2000/svg" class="icon icon-tabler icon-tabler-tags-off" width="24" height="24" viewBox="0 0 24 24" stroke-width="2" stroke="currentColor" fill="none" stroke-linecap="round" stroke-linejoin="round">
  <path stroke="none" d="M0 0h24v24H0z" fill="none"/>
  <path d="M16.296 12.296l-5.71 -5.71" />
  <path d="M6 6h-1a2 2 0 0 0 -2 2v4.172a2 2 0 0 0 .586 1.414l5.71 5.71a2.41 2.41 0 0 0 3.408 0l3.278 -3.278" />
  <path d="M18 19l.496 -.496" />
  <path d="M20.384 16.367a4.822 4.822 0 0 0 -.792 -5.775l-4.592 -4.592" />
  <path d="M7 10h-.01" />
  <path d="M3 3l18 18" />
</svg>


