<svg xmlns="http://www.w3.org/2000/svg" class="icon icon-tabler icon-tabler-toilet-paper-off" width="24" height="24" viewBox="0 0 24 24" stroke-width="2" stroke="currentColor" fill="none" stroke-linecap="round" stroke-linejoin="round">
  <path stroke="none" d="M0 0h24v24H0z" fill="none"/>
  <path d="M4.27 4.28c-.768 1.27 -1.27 3.359 -1.27 5.72c0 3.866 1.343 7 3 7s3 -3.134 3 -7c0 -.34 -.01 -.672 -.03 -1m12.03 1c0 -3.866 -1.343 -7 -3 -7m-11 0h11m3 7v7m-1.513 2.496l-1.487 -.496l-3 2l-3 -3l-3 2v-10m-3 0h.01m-3.01 -7l18 18" />
</svg>


