<svg xmlns="http://www.w3.org/2000/svg" class="icon icon-tabler icon-tabler-topology-star" width="24" height="24" viewBox="0 0 24 24" stroke-width="2" stroke="currentColor" fill="none" stroke-linecap="round" stroke-linejoin="round">
  <path stroke="none" d="M0 0h24v24H0z" fill="none"/>
  <path d="M8 18a2 2 0 1 0 -4 0a2 2 0 0 0 4 0z" />
  <path d="M20 6a2 2 0 1 0 -4 0a2 2 0 0 0 4 0z" />
  <path d="M8 6a2 2 0 1 0 -4 0a2 2 0 0 0 4 0z" />
  <path d="M20 18a2 2 0 1 0 -4 0a2 2 0 0 0 4 0z" />
  <path d="M14 12a2 2 0 1 0 -4 0a2 2 0 0 0 4 0z" />
  <path d="M7.5 7.5l3 3" />
  <path d="M7.5 16.5l3 -3" />
  <path d="M13.5 13.5l3 3" />
  <path d="M16.5 7.5l-3 3" />
</svg>


