<svg xmlns="http://www.w3.org/2000/svg" class="icon icon-tabler icon-tabler-topology-star" width="24" height="24" viewBox="0 0 24 24" stroke-width="2" stroke="currentColor" fill="none" stroke-linecap="round" stroke-linejoin="round">
  <path stroke="none" d="M0 0h24v24H0z" fill="none"/>
  <path d="M8 18a2 2 0 1 0 -4 0a2 2 0 0 0 4 0zm12 -12a2 2 0 1 0 -4 0a2 2 0 0 0 4 0zm-12 0a2 2 0 1 0 -4 0a2 2 0 0 0 4 0zm12 12a2 2 0 1 0 -4 0a2 2 0 0 0 4 0zm-6 -6a2 2 0 1 0 -4 0a2 2 0 0 0 4 0zm-6.5 -4.5l3 3m-3 6l3 -3m3 0l3 3m0 -9l-3 3" />
</svg>


