<svg xmlns="http://www.w3.org/2000/svg" class="icon icon-tabler icon-tabler-topology-star-3" width="24" height="24" viewBox="0 0 24 24" stroke-width="2" stroke="currentColor" fill="none" stroke-linecap="round" stroke-linejoin="round">
  <path stroke="none" d="M0 0h24v24H0z" fill="none"/>
  <path d="M10 19a2 2 0 1 0 -4 0a2 2 0 0 0 4 0zm8 -14a2 2 0 1 0 -4 0a2 2 0 0 0 4 0zm-8 0a2 2 0 1 0 -4 0a2 2 0 0 0 4 0zm-4 7a2 2 0 1 0 -4 0a2 2 0 0 0 4 0zm12 7a2 2 0 1 0 -4 0a2 2 0 0 0 4 0zm-4 -7a2 2 0 1 0 -4 0a2 2 0 0 0 4 0zm8 0a2 2 0 1 0 -4 0a2 2 0 0 0 4 0zm-16 0h4m4 0h4m-3 -5l-2 3m-4 -3l2 3m0 4l-2 3m4 -3l2 3" />
</svg>


