<svg xmlns="http://www.w3.org/2000/svg" class="icon icon-tabler icon-tabler-tournament" width="24" height="24" viewBox="0 0 24 24" stroke-width="2" stroke="currentColor" fill="none" stroke-linecap="round" stroke-linejoin="round">
  <path stroke="none" d="M0 0h24v24H0z" fill="none"/>
  <path d="M4 4m-2 0a2 2 0 1 0 4 0a2 2 0 1 0 -4 0m18 6m-2 0a2 2 0 1 0 4 0a2 2 0 1 0 -4 0m-14 2m-2 0a2 2 0 1 0 4 0a2 2 0 1 0 -4 0m2 8m-2 0a2 2 0 1 0 4 0a2 2 0 1 0 -4 0m4 -8h3a1 1 0 0 1 1 1v6a1 1 0 0 1 -1 1h-3m0 -16h7a1 1 0 0 1 1 1v10a1 1 0 0 1 -1 1h-2m3 -6h4" />
</svg>


