<svg xmlns="http://www.w3.org/2000/svg" class="icon icon-tabler icon-tabler-transform" width="24" height="24" viewBox="0 0 24 24" stroke-width="2" stroke="currentColor" fill="none" stroke-linecap="round" stroke-linejoin="round">
  <path stroke="none" d="M0 0h24v24H0z" fill="none"/>
  <path d="M5 13v.875c0 3.383 2.686 6.125 6 6.125m-5 -14m-3 0a3 3 0 1 0 6 0a3 3 0 1 0 -6 0m15 12m-3 0a3 3 0 1 0 6 0a3 3 0 1 0 -6 0m1 -9l2 2l2 -2m-2 1v-.875c0 -3.383 -2.686 -6.125 -6 -6.125m-9 12l2 -2l2 2" />
</svg>


