<svg xmlns="http://www.w3.org/2000/svg" class="icon icon-tabler icon-tabler-variable-minus" width="24" height="24" viewBox="0 0 24 24" stroke-width="2" stroke="currentColor" fill="none" stroke-linecap="round" stroke-linejoin="round">
  <path stroke="none" d="M0 0h24v24H0z" fill="none"/>
  <path d="M8 16c1.5 0 3 -2 4 -3.5s2.5 -3.5 4 -3.5m-11 -5c-2.5 5 -2.5 10 0 16m14 -16c1.775 3.55 2.29 7.102 1.544 11.01m-11.544 -6.01h1c1 0 1 1 2.016 3.527c.782 1.966 .943 3 1.478 3.343m-5.494 .13c1.5 0 3 -2 4 -3.5s2.5 -3.5 4 -3.5m0 10h6" />
</svg>


