<svg xmlns="http://www.w3.org/2000/svg" class="icon icon-tabler icon-tabler-wifi-off" width="24" height="24" viewBox="0 0 24 24" stroke-width="2" stroke="currentColor" fill="none" stroke-linecap="round" stroke-linejoin="round">
  <path stroke="none" d="M0 0h24v24H0z" fill="none"/>
  <path d="M12 18l.01 0m-2.838 -2.828a4 4 0 0 1 5.656 0m-8.485 -2.829a7.963 7.963 0 0 1 3.864 -2.14m4.163 .155a7.965 7.965 0 0 1 3.287 2m-14.142 -2.843a12 12 0 0 1 3.544 -2.455m3.101 -.92a12 12 0 0 1 10.325 3.374m-17.485 -6.514l18 18" />
</svg>


