<svg xmlns="http://www.w3.org/2000/svg" class="icon icon-tabler icon-tabler-wood" width="24" height="24" viewBox="0 0 24 24" stroke-width="2" stroke="currentColor" fill="none" stroke-linecap="round" stroke-linejoin="round">
  <path stroke="none" d="M0 0h24v24H0z" fill="none"/>
  <path d="M12 5.5m-6 0a6 2.5 0 1 0 12 0a6 2.5 0 1 0 -12 0m12 0v4.626a1.415 1.415 0 0 1 1.683 2.18l-.097 .108l-1.586 1.586v4c0 1.61 -2.54 2.925 -5.725 3l-.275 0c-3.314 0 -6 -1.343 -6 -3v-2l-1.586 -1.586a1.414 1.414 0 0 1 1.586 -2.287v-6.627m4 7v1.5m4 2v1" />
</svg>


