<svg xmlns="http://www.w3.org/2000/svg" class="icon icon-tabler icon-tabler-writing-sign-off" width="24" height="24" viewBox="0 0 24 24" stroke-width="2" stroke="currentColor" fill="none" stroke-linecap="round" stroke-linejoin="round">
  <path stroke="none" d="M0 0h24v24H0z" fill="none"/>
  <path d="M3 19c3.333 -2 5 -4 5 -6c0 -3 -1 -3 -2 -3s-2.032 1.085 -2 3c.034 2.048 1.658 2.877 2.5 4c1.5 2 2.5 2.5 3.5 1c.667 -1 1.167 -1.833 1.5 -2.5c1 2.333 2.333 3.5 4 3.5h2.5m-2 -3v1l2 2l.5 -.5m1.5 -2.5v-11c0 -1.121 -.879 -2 -2 -2s-2 .879 -2 2v7m0 -5h4m-17 -4l18 18" />
</svg>


