<svg xmlns="http://www.w3.org/2000/svg" class="icon icon-tabler icon-tabler-adjustments" width="24" height="24" viewBox="0 0 24 24" stroke-width="2" stroke="currentColor" fill="none" stroke-linecap="round" stroke-linejoin="round">
  <path stroke="none" d="M0 0h24v24H0z" fill="none"/>
  <path d="M6 10m-2 0a2 2 0 1 0 4 0a2 2 0 1 0 -4 0" />
  <path d="M6 4l0 4" />
  <path d="M6 12l0 8" />
  <path d="M12 16m-2 0a2 2 0 1 0 4 0a2 2 0 1 0 -4 0" />
  <path d="M12 4l0 10" />
  <path d="M12 18l0 2" />
  <path d="M18 7m-2 0a2 2 0 1 0 4 0a2 2 0 1 0 -4 0" />
  <path d="M18 4l0 1" />
  <path d="M18 9l0 11" />
</svg>


