<svg xmlns="http://www.w3.org/2000/svg" class="icon icon-tabler icon-tabler-apps-off" width="24" height="24" viewBox="0 0 24 24" stroke-width="2" stroke="currentColor" fill="none" stroke-linecap="round" stroke-linejoin="round">
  <path stroke="none" d="M0 0h24v24H0z" fill="none"/>
  <path d="M8 4h1a1 1 0 0 1 1 1v1m-.29 3.704a1 1 0 0 1 -.71 .296h-4a1 1 0 0 1 -1 -1v-4c0 -.276 .111 -.525 .292 -.706" />
  <path d="M18 14h1a1 1 0 0 1 1 1v1m-.29 3.704a1 1 0 0 1 -.71 .296h-4a1 1 0 0 1 -1 -1v-4c0 -.276 .111 -.525 .292 -.706" />
  <path d="M4 14m0 1a1 1 0 0 1 1 -1h4a1 1 0 0 1 1 1v4a1 1 0 0 1 -1 1h-4a1 1 0 0 1 -1 -1z" />
  <path d="M14 7h6" />
  <path d="M17 4v6" />
  <path d="M3 3l18 18" />
</svg>


