<svg xmlns="http://www.w3.org/2000/svg" class="icon icon-tabler icon-tabler-brand-twitch" width="24" height="24" viewBox="0 0 24 24" stroke-width="2" stroke="currentColor" fill="none" stroke-linecap="round" stroke-linejoin="round">
  <path stroke="none" d="M0 0h24v24H0z" fill="none"/>
  <path d="M4 5v11a1 1 0 0 0 1 1h2v4l4 -4h5.584c.266 0 .52 -.105 .707 -.293l2.415 -2.414c.187 -.188 .293 -.442 .293 -.708v-8.585a1 1 0 0 0 -1 -1h-14a1 1 0 0 0 -1 1z" />
  <path d="M16 8l0 4" />
  <path d="M12 8l0 4" />
</svg>


