<svg xmlns="http://www.w3.org/2000/svg" class="icon icon-tabler icon-tabler-brand-cashapp" width="24" height="24" viewBox="0 0 24 24" stroke-width="2" stroke="currentColor" fill="none" stroke-linecap="round" stroke-linejoin="round">
  <path stroke="none" d="M0 0h24v24H0z" fill="none"/>
  <path d="M17.1 8.648a.568 .568 0 0 1 -.761 .011a5.682 5.682 0 0 0 -3.659 -1.34c-1.102 0 -2.205 .363 -2.205 1.374c0 1.023 1.182 1.364 2.546 1.875c2.386 .796 4.363 1.796 4.363 4.137c0 2.545 -1.977 4.295 -5.204 4.488l-.295 1.364a.557 .557 0 0 1 -.546 .443h-2.034l-.102 -.011a.568 .568 0 0 1 -.432 -.67l.318 -1.444a7.432 7.432 0 0 1 -3.273 -1.784v-.011a.545 .545 0 0 1 0 -.773l1.137 -1.102c.214 -.2 .547 -.2 .761 0a5.495 5.495 0 0 0 3.852 1.5c1.478 0 2.466 -.625 2.466 -1.614c0 -.989 -1 -1.25 -2.886 -1.954c-2 -.716 -3.898 -1.728 -3.898 -4.091c0 -2.75 2.284 -4.091 4.989 -4.216l.284 -1.398a.545 .545 0 0 1 .545 -.432h2.023l.114 .012a.544 .544 0 0 1 .42 .647l-.307 1.557a8.528 8.528 0 0 1 2.818 1.58l.023 .022c.216 .228 .216 .569 0 .773l-1.057 1.057z" />
</svg>


