<svg xmlns="http://www.w3.org/2000/svg" class="icon icon-tabler icon-tabler-brand-webflow" width="24" height="24" viewBox="0 0 24 24" stroke-width="2" stroke="currentColor" fill="none" stroke-linecap="round" stroke-linejoin="round">
  <path stroke="none" d="M0 0h24v24H0z" fill="none"/>
  <path d="M17 10s-1.376 3.606 -1.5 4c-.046 -.4 -1.5 -8 -1.5 -8c-2.627 0 -3.766 1.562 -4.5 3.5c0 0 -1.843 4.593 -2 5c-.013 -.368 -.5 -4.5 -.5 -4.5c-.15 -2.371 -2.211 -3.98 -4 -3.98l2 12.98c2.745 -.013 4.72 -1.562 5.5 -3.5c0 0 1.44 -4.3 1.5 -4.5c.013 .18 1 8 1 8c2.758 0 4.694 -1.626 5.5 -3.5l3.5 -9.5c-2.732 0 -4.253 2.055 -5 4z" />
</svg>


