<svg xmlns="http://www.w3.org/2000/svg" class="icon icon-tabler icon-tabler-cash-banknote-off" width="24" height="24" viewBox="0 0 24 24" stroke-width="2" stroke="currentColor" fill="none" stroke-linecap="round" stroke-linejoin="round">
  <path stroke="none" d="M0 0h24v24H0z" fill="none"/>
  <path d="M9.88 9.878a3 3 0 1 0 4.242 4.243m.58 -3.425a3.012 3.012 0 0 0 -1.412 -1.405" />
  <path d="M10 6h9a2 2 0 0 1 2 2v8c0 .294 -.064 .574 -.178 .825m-2.822 1.175h-13a2 2 0 0 1 -2 -2v-8a2 2 0 0 1 2 -2h1" />
  <path d="M18 12l.01 0" />
  <path d="M6 12l.01 0" />
  <path d="M3 3l18 18" />
</svg>


