<svg xmlns="http://www.w3.org/2000/svg" class="icon icon-tabler icon-tabler-chart-dots" width="24" height="24" viewBox="0 0 24 24" stroke-width="2" stroke="currentColor" fill="none" stroke-linecap="round" stroke-linejoin="round">
  <path stroke="none" d="M0 0h24v24H0z" fill="none"/>
  <path d="M3 3v18h18" />
  <path d="M9 9m-2 0a2 2 0 1 0 4 0a2 2 0 1 0 -4 0" />
  <path d="M19 7m-2 0a2 2 0 1 0 4 0a2 2 0 1 0 -4 0" />
  <path d="M14 15m-2 0a2 2 0 1 0 4 0a2 2 0 1 0 -4 0" />
  <path d="M10.16 10.62l2.34 2.88" />
  <path d="M15.088 13.328l2.837 -4.586" />
</svg>


