<svg xmlns="http://www.w3.org/2000/svg" class="icon icon-tabler icon-tabler-circuit-changeover" width="24" height="24" viewBox="0 0 24 24" stroke-width="2" stroke="currentColor" fill="none" stroke-linecap="round" stroke-linejoin="round">
  <path stroke="none" d="M0 0h24v24H0z" fill="none"/>
  <path d="M2 12h2" />
  <path d="M20 7h2" />
  <path d="M6 12m-2 0a2 2 0 1 0 4 0a2 2 0 1 0 -4 0" />
  <path d="M18 7m-2 0a2 2 0 1 0 4 0a2 2 0 1 0 -4 0" />
  <path d="M20 17h2" />
  <path d="M18 17m-2 0a2 2 0 1 0 4 0a2 2 0 1 0 -4 0" />
  <path d="M7.5 10.5l8.5 -3.5" />
</svg>


