<svg xmlns="http://www.w3.org/2000/svg" class="icon icon-tabler icon-tabler-currency-ripple" width="24" height="24" viewBox="0 0 24 24" stroke-width="2" stroke="currentColor" fill="none" stroke-linecap="round" stroke-linejoin="round">
  <path stroke="none" d="M0 0h24v24H0z" fill="none"/>
  <path d="M7 12m-3 0a3 3 0 1 0 6 0a3 3 0 1 0 -6 0" />
  <path d="M17 7m-3 0a3 3 0 1 0 6 0a3 3 0 1 0 -6 0" />
  <path d="M17 17m-3 0a3 3 0 1 0 6 0a3 3 0 1 0 -6 0" />
  <path d="M10 12h3l2 -2.5" />
  <path d="M15 14.5l-2 -2.5" />
</svg>


