<svg xmlns="http://www.w3.org/2000/svg" class="icon icon-tabler icon-tabler-emergency-bed" width="24" height="24" viewBox="0 0 24 24" stroke-width="2" stroke="currentColor" fill="none" stroke-linecap="round" stroke-linejoin="round">
  <path stroke="none" d="M0 0h24v24H0z" fill="none"/>
  <path d="M16 18m-2 0a2 2 0 1 0 4 0a2 2 0 1 0 -4 0" />
  <path d="M8 18m-2 0a2 2 0 1 0 4 0a2 2 0 1 0 -4 0" />
  <path d="M4 8l2.1 2.8a3 3 0 0 0 2.4 1.2h11.5" />
  <path d="M10 6h4" />
  <path d="M12 4v4" />
  <path d="M12 12v2l-2.5 2.5" />
  <path d="M14.5 16.5l-2.5 -2.5" />
</svg>


