<svg xmlns="http://www.w3.org/2000/svg" class="icon icon-tabler icon-tabler-grip-vertical" width="24" height="24" viewBox="0 0 24 24" stroke-width="2" stroke="currentColor" fill="none" stroke-linecap="round" stroke-linejoin="round">
  <path stroke="none" d="M0 0h24v24H0z" fill="none"/>
  <path d="M9 5m-1 0a1 1 0 1 0 2 0a1 1 0 1 0 -2 0" />
  <path d="M9 12m-1 0a1 1 0 1 0 2 0a1 1 0 1 0 -2 0" />
  <path d="M9 19m-1 0a1 1 0 1 0 2 0a1 1 0 1 0 -2 0" />
  <path d="M15 5m-1 0a1 1 0 1 0 2 0a1 1 0 1 0 -2 0" />
  <path d="M15 12m-1 0a1 1 0 1 0 2 0a1 1 0 1 0 -2 0" />
  <path d="M15 19m-1 0a1 1 0 1 0 2 0a1 1 0 1 0 -2 0" />
</svg>


