<svg xmlns="http://www.w3.org/2000/svg" class="icon icon-tabler icon-tabler-keyboard-off" width="24" height="24" viewBox="0 0 24 24" stroke-width="2" stroke="currentColor" fill="none" stroke-linecap="round" stroke-linejoin="round">
  <path stroke="none" d="M0 0h24v24H0z" fill="none"/>
  <path d="M18 18h-14a2 2 0 0 1 -2 -2v-8a2 2 0 0 1 2 -2h2m4 0h10a2 2 0 0 1 2 2v8c0 .554 -.226 1.056 -.59 1.418" />
  <path d="M6 10l0 .01" />
  <path d="M10 10l0 .01" />
  <path d="M14 10l0 .01" />
  <path d="M18 10l0 .01" />
  <path d="M6 14l0 .01" />
  <path d="M18 14l0 .01" />
  <path d="M10 14l4 0" />
  <path d="M3 3l18 18" />
</svg>


