<svg xmlns="http://www.w3.org/2000/svg" class="icon icon-tabler icon-tabler-server-bolt" width="24" height="24" viewBox="0 0 24 24" stroke-width="2" stroke="currentColor" fill="none" stroke-linecap="round" stroke-linejoin="round">
  <path stroke="none" d="M0 0h24v24H0z" fill="none"/>
  <path d="M3 4m0 3a3 3 0 0 1 3 -3h12a3 3 0 0 1 3 3v2a3 3 0 0 1 -3 3h-12a3 3 0 0 1 -3 -3z" />
  <path d="M15 20h-9a3 3 0 0 1 -3 -3v-2a3 3 0 0 1 3 -3h12" />
  <path d="M7 8v.01" />
  <path d="M7 16v.01" />
  <path d="M20 15l-2 3h3l-2 3" />
</svg>


