<svg xmlns="http://www.w3.org/2000/svg" class="icon icon-tabler icon-tabler-first-aid-kit-off" width="24" height="24" viewBox="0 0 24 24" stroke-width="2" stroke="currentColor" fill="none" stroke-linecap="round" stroke-linejoin="round">
  <path stroke="none" d="M0 0h24v24H0z" fill="none"/>
  <path d="M8.595 4.577a2 2 0 0 1 1.405 -.577h4a2 2 0 0 1 2 2v2" />
  <path d="M12 8h6a2 2 0 0 1 2 2v6m-.576 3.405a2 2 0 0 1 -1.424 .595h-12a2 2 0 0 1 -2 -2v-8a2 2 0 0 1 2 -2h2" />
  <path d="M10 14h4" />
  <path d="M12 12v4" />
  <path d="M3 3l18 18" />
</svg>


