<svg xmlns="http://www.w3.org/2000/svg" class="icon icon-tabler icon-tabler-article-filled-filled" width="24" height="24" viewBox="0 0 24 24" stroke-width="2" stroke="currentColor" fill="none" stroke-linecap="round" stroke-linejoin="round">
  <path stroke="none" d="M0 0h24v24H0z" fill="none"/>
  <path d="M19 3a3 3 0 0 1 2.995 2.824l.005 .176v12a3 3 0 0 1 -2.824 2.995l-.176 .005h-14a3 3 0 0 1 -2.995 -2.824l-.005 -.176v-12a3 3 0 0 1 2.824 -2.995l.176 -.005h14zm-2 12h-10l-.117 .007a1 1 0 0 0 0 1.986l.117 .007h10l.117 -.007a1 1 0 0 0 0 -1.986l-.117 -.007zm0 -4h-10l-.117 .007a1 1 0 0 0 0 1.986l.117 .007h10l.117 -.007a1 1 0 0 0 0 -1.986l-.117 -.007zm0 -4h-10l-.117 .007a1 1 0 0 0 0 1.986l.117 .007h10l.117 -.007a1 1 0 0 0 0 -1.986l-.117 -.007z" stroke-width="0" fill="currentColor" />
</svg>


