<svg xmlns="http://www.w3.org/2000/svg" class="icon icon-tabler icon-tabler-balloon-filled" width="24" height="24" viewBox="0 0 24 24" stroke-width="2" stroke="currentColor" fill="none" stroke-linecap="round" stroke-linejoin="round">
  <path stroke="none" d="M0 0h24v24H0z" fill="none"/>
  <path d="M12 1a7 7 0 0 1 7 7c0 5.457 -3.028 10 -7 10c-3.9 0 -6.89 -4.379 -6.997 -9.703l-.003 -.297l.004 -.24a7 7 0 0 1 6.996 -6.76zm0 4a1 1 0 0 0 0 2l.117 .007a1 1 0 0 1 .883 .993l.007 .117a1 1 0 0 0 1.993 -.117a3 3 0 0 0 -3 -3z" stroke-width="0" fill="currentColor" />
  <path d="M12 16a1 1 0 0 1 .993 .883l.007 .117v1a3 3 0 0 1 -2.824 2.995l-.176 .005h-3a1 1 0 0 0 -.993 .883l-.007 .117a1 1 0 0 1 -2 0a3 3 0 0 1 2.824 -2.995l.176 -.005h3a1 1 0 0 0 .993 -.883l.007 -.117v-1a1 1 0 0 1 1 -1z" stroke-width="0" fill="currentColor" />
</svg>


