<svg xmlns="http://www.w3.org/2000/svg" class="icon icon-tabler icon-tabler-bed-filled" width="24" height="24" viewBox="0 0 24 24" stroke-width="2" stroke="currentColor" fill="none" stroke-linecap="round" stroke-linejoin="round">
  <path stroke="none" d="M0 0h24v24H0z" fill="none"/>
  <path d="M3 6a1 1 0 0 1 .993 .883l.007 .117v6h6v-5a1 1 0 0 1 .883 -.993l.117 -.007h8a3 3 0 0 1 2.995 2.824l.005 .176v8a1 1 0 0 1 -1.993 .117l-.007 -.117v-3h-16v3a1 1 0 0 1 -1.993 .117l-.007 -.117v-11a1 1 0 0 1 1 -1z" stroke-width="0" fill="currentColor" />
  <path d="M7 8a2 2 0 1 1 -1.995 2.15l-.005 -.15l.005 -.15a2 2 0 0 1 1.995 -1.85z" stroke-width="0" fill="currentColor" />
</svg>


