<svg xmlns="http://www.w3.org/2000/svg" class="icon icon-tabler icon-tabler-box-align-top-left-filled" width="24" height="24" viewBox="0 0 24 24" stroke-width="2" stroke="currentColor" fill="none" stroke-linecap="round" stroke-linejoin="round">
  <path stroke="none" d="M0 0h24v24H0z" fill="none"/>
  <path d="M10 3h-5a2 2 0 0 0 -2 2v5a2 2 0 0 0 2 2h5a2 2 0 0 0 2 -2v-5a2 2 0 0 0 -2 -2z" stroke-width="0" fill="currentColor" />
  <path d="M15 3a1 1 0 0 1 .117 1.993l-.127 .007a1 1 0 0 1 -.117 -1.993l.127 -.007z" stroke-width="0" fill="currentColor" />
  <path d="M20 3a1 1 0 0 1 .117 1.993l-.127 .007a1 1 0 0 1 -.117 -1.993l.127 -.007z" stroke-width="0" fill="currentColor" />
  <path d="M20 8a1 1 0 0 1 .117 1.993l-.127 .007a1 1 0 0 1 -.117 -1.993l.127 -.007z" stroke-width="0" fill="currentColor" />
  <path d="M20 14a1 1 0 0 1 .117 1.993l-.127 .007a1 1 0 0 1 -.117 -1.993l.127 -.007z" stroke-width="0" fill="currentColor" />
  <path d="M4 14a1 1 0 0 1 .117 1.993l-.127 .007a1 1 0 0 1 -.117 -1.993l.127 -.007z" stroke-width="0" fill="currentColor" />
  <path d="M20 19a1 1 0 0 1 .117 1.993l-.127 .007a1 1 0 0 1 -.117 -1.993l.127 -.007z" stroke-width="0" fill="currentColor" />
  <path d="M15 19a1 1 0 0 1 .117 1.993l-.127 .007a1 1 0 0 1 -.117 -1.993l.127 -.007z" stroke-width="0" fill="currentColor" />
  <path d="M9 19a1 1 0 0 1 .117 1.993l-.127 .007a1 1 0 0 1 -.117 -1.993l.127 -.007z" stroke-width="0" fill="currentColor" />
  <path d="M4 19a1 1 0 0 1 .117 1.993l-.127 .007a1 1 0 0 1 -.117 -1.993l.127 -.007z" stroke-width="0" fill="currentColor" />
</svg>


