<svg xmlns="http://www.w3.org/2000/svg" class="icon icon-tabler icon-tabler-box-align-bottom-filled" width="24" height="24" viewBox="0 0 24 24" stroke-width="2" stroke="currentColor" fill="none" stroke-linecap="round" stroke-linejoin="round">
  <path stroke="none" d="M0 0h24v24H0z" fill="none"/>
  <path d="M20 13h-16a1 1 0 0 0 -1 1v5a2 2 0 0 0 2 2h14a2 2 0 0 0 2 -2v-5a1 1 0 0 0 -1 -1z" stroke-width="0" fill="currentColor" />
  <path d="M4 8a1 1 0 0 1 .993 .883l.007 .127a1 1 0 0 1 -1.993 .117l-.007 -.127a1 1 0 0 1 1 -1z" stroke-width="0" fill="currentColor" />
  <path d="M4 3a1 1 0 0 1 .993 .883l.007 .127a1 1 0 0 1 -1.993 .117l-.007 -.127a1 1 0 0 1 1 -1z" stroke-width="0" fill="currentColor" />
  <path d="M9 3a1 1 0 0 1 .993 .883l.007 .127a1 1 0 0 1 -1.993 .117l-.007 -.127a1 1 0 0 1 1 -1z" stroke-width="0" fill="currentColor" />
  <path d="M15 3a1 1 0 0 1 .993 .883l.007 .127a1 1 0 0 1 -1.993 .117l-.007 -.127a1 1 0 0 1 1 -1z" stroke-width="0" fill="currentColor" />
  <path d="M20 3a1 1 0 0 1 .993 .883l.007 .127a1 1 0 0 1 -1.993 .117l-.007 -.127a1 1 0 0 1 1 -1z" stroke-width="0" fill="currentColor" />
  <path d="M20 8a1 1 0 0 1 .993 .883l.007 .127a1 1 0 0 1 -1.993 .117l-.007 -.127a1 1 0 0 1 1 -1z" stroke-width="0" fill="currentColor" />
</svg>


