<svg xmlns="http://www.w3.org/2000/svg" class="icon icon-tabler icon-tabler-brand-youtube-filled" width="24" height="24" viewBox="0 0 24 24" stroke-width="2" stroke="currentColor" fill="none" stroke-linecap="round" stroke-linejoin="round">
  <path stroke="none" d="M0 0h24v24H0z" fill="none"/>
  <path d="M18 3a5 5 0 0 1 5 5v8a5 5 0 0 1 -5 5h-12a5 5 0 0 1 -5 -5v-8a5 5 0 0 1 5 -5zm-9 6v6a1 1 0 0 0 1.514 .857l5 -3a1 1 0 0 0 0 -1.714l-5 -3a1 1 0 0 0 -1.514 .857z" stroke-width="0" fill="currentColor" />
</svg>


