<svg xmlns="http://www.w3.org/2000/svg" class="icon icon-tabler icon-tabler-candle-filled" width="24" height="24" viewBox="0 0 24 24" stroke-width="2" stroke="currentColor" fill="none" stroke-linecap="round" stroke-linejoin="round">
  <path stroke="none" d="M0 0h24v24H0z" fill="none"/>
  <path d="M14 10h-4a2 2 0 0 0 -2 2v9a1 1 0 0 0 1 1h6a1 1 0 0 0 1 -1v-9a2 2 0 0 0 -2 -2z" stroke-width="0" fill="currentColor" />
  <path d="M11.254 2.334l-1.55 1.737c-1.042 1.277 -.898 3.097 .296 4.166a3 3 0 0 0 4.196 -4.28l-1.452 -1.624a1 1 0 0 0 -1.491 .001z" stroke-width="0" fill="currentColor" />
</svg>


