<svg xmlns="http://www.w3.org/2000/svg" class="icon icon-tabler icon-tabler-chart-bubble-filled" width="24" height="24" viewBox="0 0 24 24" stroke-width="2" stroke="currentColor" fill="none" stroke-linecap="round" stroke-linejoin="round">
  <path stroke="none" d="M0 0h24v24H0z" fill="none"/>
  <path d="M6 12a4 4 0 1 1 -3.995 4.2l-.005 -.2l.005 -.2a4 4 0 0 1 3.995 -3.8z" stroke-width="0" fill="currentColor" />
  <path d="M16 16a3 3 0 1 1 -2.995 3.176l-.005 -.176l.005 -.176a3 3 0 0 1 2.995 -2.824z" stroke-width="0" fill="currentColor" />
  <path d="M14.5 2a5.5 5.5 0 1 1 -5.496 5.721l-.004 -.221l.004 -.221a5.5 5.5 0 0 1 5.496 -5.279z" stroke-width="0" fill="currentColor" />
</svg>


