<svg xmlns="http://www.w3.org/2000/svg" class="icon icon-tabler icon-tabler-circle-6-filled" width="24" height="24" viewBox="0 0 24 24" stroke-width="2" stroke="currentColor" fill="none" stroke-linecap="round" stroke-linejoin="round">
  <path stroke="none" d="M0 0h24v24H0z" fill="none"/>
  <path d="M12 2c5.523 0 10 4.477 10 10s-4.477 10 -10 10s-10 -4.477 -10 -10s4.477 -10 10 -10zm1 5h-2l-.15 .005a2 2 0 0 0 -1.844 1.838l-.006 .157v6l.005 .15a2 2 0 0 0 1.838 1.844l.157 .006h2l.15 -.005a2 2 0 0 0 1.844 -1.838l.006 -.157v-2l-.005 -.15a2 2 0 0 0 -1.838 -1.844l-.157 -.006h-2v-2h2l.007 .117a1 1 0 0 0 1.993 -.117a2 2 0 0 0 -1.85 -1.995l-.15 -.005zm0 6v2h-2v-2h2z" stroke-width="0" fill="currentColor" />
</svg>


