<svg xmlns="http://www.w3.org/2000/svg" class="icon icon-tabler icon-tabler-circle-1-filled" width="24" height="24" viewBox="0 0 24 24" stroke-width="2" stroke="currentColor" fill="none" stroke-linecap="round" stroke-linejoin="round">
  <path stroke="none" d="M0 0h24v24H0z" fill="none"/>
  <path d="M12 2c5.523 0 10 4.477 10 10s-4.477 10 -10 10s-10 -4.477 -10 -10s4.477 -10 10 -10zm.994 5.886c-.083 -.777 -1.008 -1.16 -1.617 -.67l-.084 .077l-2 2l-.083 .094a1 1 0 0 0 0 1.226l.083 .094l.094 .083a1 1 0 0 0 1.226 0l.094 -.083l.293 -.293v5.586l.007 .117a1 1 0 0 0 1.986 0l.007 -.117v-8l-.006 -.114z" stroke-width="0" fill="currentColor" />
</svg>


