<svg xmlns="http://www.w3.org/2000/svg" class="icon icon-tabler icon-tabler-device-tablet-filled" width="24" height="24" viewBox="0 0 24 24" stroke-width="2" stroke="currentColor" fill="none" stroke-linecap="round" stroke-linejoin="round">
  <path stroke="none" d="M0 0h24v24H0z" fill="none"/>
  <path d="M18 2a2 2 0 0 1 1.995 1.85l.005 .15v16a2 2 0 0 1 -1.85 1.995l-.15 .005h-12a2 2 0 0 1 -1.995 -1.85l-.005 -.15v-16a2 2 0 0 1 1.85 -1.995l.15 -.005h12zm-6 13a2 2 0 0 0 -1.977 1.697l-.018 .154l-.005 .149l.005 .15a2 2 0 1 0 1.995 -2.15z" stroke-width="0" fill="currentColor" />
</svg>


