<svg xmlns="http://www.w3.org/2000/svg" class="icon icon-tabler icon-tabler-filter-filled" width="24" height="24" viewBox="0 0 24 24" stroke-width="2" stroke="currentColor" fill="none" stroke-linecap="round" stroke-linejoin="round">
  <path stroke="none" d="M0 0h24v24H0z" fill="none"/>
  <path d="M20 3h-16a1 1 0 0 0 -1 1v2.227l.008 .223a3 3 0 0 0 .772 1.795l4.22 4.641v8.114a1 1 0 0 0 1.316 .949l6 -2l.108 -.043a1 1 0 0 0 .576 -.906v-6.586l4.121 -4.12a3 3 0 0 0 .879 -2.123v-2.171a1 1 0 0 0 -1 -1z" stroke-width="0" fill="currentColor" />
</svg>


