<svg xmlns="http://www.w3.org/2000/svg" class="icon icon-tabler icon-tabler-flag-filled" width="24" height="24" viewBox="0 0 24 24" stroke-width="2" stroke="currentColor" fill="none" stroke-linecap="round" stroke-linejoin="round">
  <path stroke="none" d="M0 0h24v24H0z" fill="none"/>
  <path d="M4 5a1 1 0 0 1 .3 -.714a6 6 0 0 1 8.213 -.176l.351 .328a4 4 0 0 0 5.272 0l.249 -.227c.61 -.483 1.527 -.097 1.61 .676l.005 .113v9a1 1 0 0 1 -.3 .714a6 6 0 0 1 -8.213 .176l-.351 -.328a4 4 0 0 0 -5.136 -.114v6.552a1 1 0 0 1 -1.993 .117l-.007 -.117v-16z" stroke-width="0" fill="currentColor" />
</svg>


