<svg xmlns="http://www.w3.org/2000/svg" class="icon icon-tabler icon-tabler-folder-filled" width="24" height="24" viewBox="0 0 24 24" stroke-width="2" stroke="currentColor" fill="none" stroke-linecap="round" stroke-linejoin="round">
  <path stroke="none" d="M0 0h24v24H0z" fill="none"/>
  <path d="M9 3a1 1 0 0 1 .608 .206l.1 .087l2.706 2.707h6.586a3 3 0 0 1 2.995 2.824l.005 .176v8a3 3 0 0 1 -2.824 2.995l-.176 .005h-14a3 3 0 0 1 -2.995 -2.824l-.005 -.176v-11a3 3 0 0 1 2.824 -2.995l.176 -.005h4z" stroke-width="0" fill="currentColor" />
</svg>


