<svg xmlns="http://www.w3.org/2000/svg" class="icon icon-tabler icon-tabler-help-triangle-filled" width="24" height="24" viewBox="0 0 24 24" stroke-width="2" stroke="currentColor" fill="none" stroke-linecap="round" stroke-linejoin="round">
  <path stroke="none" d="M0 0h24v24H0z" fill="none"/>
  <path d="M11.94 2a2.99 2.99 0 0 1 2.45 1.279l.108 .164l8.431 14.074a2.989 2.989 0 0 1 -2.366 4.474l-.2 .009h-16.856a2.99 2.99 0 0 1 -2.648 -4.308l.101 -.189l8.425 -14.065a2.989 2.989 0 0 1 2.555 -1.438zm.06 14a1 1 0 0 0 -.993 .883l-.007 .117l.007 .127a1 1 0 0 0 1.986 0l.007 -.117l-.007 -.127a1 1 0 0 0 -.993 -.883zm1.368 -6.673a2.98 2.98 0 0 0 -3.631 .728a1 1 0 0 0 1.44 1.383l.171 -.18a.98 .98 0 0 1 1.11 -.15a1 1 0 0 1 -.34 1.886l-.232 .012a1 1 0 0 0 .111 1.994a3 3 0 0 0 1.371 -5.673z" stroke-width="0" fill="currentColor" />
</svg>


