<svg xmlns="http://www.w3.org/2000/svg" class="icon icon-tabler icon-tabler-hexagon-8-filled" width="24" height="24" viewBox="0 0 24 24" stroke-width="2" stroke="currentColor" fill="none" stroke-linecap="round" stroke-linejoin="round">
  <path stroke="none" d="M0 0h24v24H0z" fill="none"/>
  <path d="M10.425 1.414a3.33 3.33 0 0 1 3.216 0l6.775 3.995c.067 .04 .127 .084 .18 .133l.008 .007l.107 .076a3.223 3.223 0 0 1 1.284 2.39l.005 .203v7.284c0 1.175 -.643 2.256 -1.623 2.793l-6.804 4.302c-.98 .538 -2.166 .538 -3.2 -.032l-6.695 -4.237a3.226 3.226 0 0 1 -1.678 -2.826v-7.285a3.21 3.21 0 0 1 1.65 -2.808zm2.575 5.586h-2l-.15 .005a2 2 0 0 0 -1.844 1.838l-.006 .157v2l.005 .15c.018 .236 .077 .46 .17 .667l.075 .152l.018 .03l-.018 .032c-.133 .24 -.218 .509 -.243 .795l-.007 .174v2l.005 .15a2 2 0 0 0 1.838 1.844l.157 .006h2l.15 -.005a2 2 0 0 0 1.844 -1.838l.006 -.157v-2l-.005 -.15a1.988 1.988 0 0 0 -.17 -.667l-.075 -.152l-.019 -.032l.02 -.03a2.01 2.01 0 0 0 .242 -.795l.007 -.174v-2l-.005 -.15a2 2 0 0 0 -1.838 -1.844l-.157 -.006zm0 6v2h-2v-2h2zm0 -4v2h-2v-2h2z" stroke-width="0" fill="currentColor" />
</svg>


