<svg xmlns="http://www.w3.org/2000/svg" class="icon icon-tabler icon-tabler-hourglass-filled" width="24" height="24" viewBox="0 0 24 24" stroke-width="2" stroke="currentColor" fill="none" stroke-linecap="round" stroke-linejoin="round">
  <path stroke="none" d="M0 0h24v24H0z" fill="none"/>
  <path d="M17 2a2 2 0 0 1 1.995 1.85l.005 .15v2a6.996 6.996 0 0 1 -3.393 6a6.994 6.994 0 0 1 3.388 5.728l.005 .272v2a2 2 0 0 1 -1.85 1.995l-.15 .005h-10a2 2 0 0 1 -1.995 -1.85l-.005 -.15v-2a6.996 6.996 0 0 1 3.393 -6a6.994 6.994 0 0 1 -3.388 -5.728l-.005 -.272v-2a2 2 0 0 1 1.85 -1.995l.15 -.005h10z" stroke-width="0" fill="currentColor" />
</svg>


