<svg xmlns="http://www.w3.org/2000/svg" class="icon icon-tabler icon-tabler-mood-happy-filled" width="24" height="24" viewBox="0 0 24 24" stroke-width="2" stroke="currentColor" fill="none" stroke-linecap="round" stroke-linejoin="round">
  <path stroke="none" d="M0 0h24v24H0z" fill="none"/>
  <path d="M17 3.34a10 10 0 1 1 -14.995 8.984l-.005 -.324l.005 -.324a10 10 0 0 1 14.995 -8.336zm-2 9.66h-6a1 1 0 0 0 -1 1v.05a3.975 3.975 0 0 0 3.777 3.97l.227 .005a4.026 4.026 0 0 0 3.99 -3.79l.006 -.206a1 1 0 0 0 -1 -1.029zm-5.99 -5l-.127 .007a1 1 0 0 0 .117 1.993l.127 -.007a1 1 0 0 0 -.117 -1.993zm6 0l-.127 .007a1 1 0 0 0 .117 1.993l.127 -.007a1 1 0 0 0 -.117 -1.993z" stroke-width="0" fill="currentColor" />
</svg>


