<svg xmlns="http://www.w3.org/2000/svg" class="icon icon-tabler icon-tabler-sign-left-filled" width="24" height="24" viewBox="0 0 24 24" stroke-width="2" stroke="currentColor" fill="none" stroke-linecap="round" stroke-linejoin="round">
  <path stroke="none" d="M0 0h24v24H0z" fill="none"/>
  <path d="M14 2a1 1 0 0 1 .993 .883l.007 .117v2h3a1 1 0 0 1 .993 .883l.007 .117v5a1 1 0 0 1 -.883 .993l-.117 .007h-3v8h1a1 1 0 0 1 .117 1.993l-.117 .007h-4a1 1 0 0 1 -.117 -1.993l.117 -.007h1v-8h-5a1 1 0 0 1 -.694 -.28l-.087 -.095l-2 -2.5a1 1 0 0 1 -.072 -1.147l.072 -.103l2 -2.5a1 1 0 0 1 .652 -.367l.129 -.008h5v-2a1 1 0 0 1 1 -1z" stroke-width="0" fill="currentColor" />
</svg>


