<svg xmlns="http://www.w3.org/2000/svg" class="icon icon-tabler icon-tabler-square-chevron-right-filled" width="24" height="24" viewBox="0 0 24 24" stroke-width="2" stroke="currentColor" fill="none" stroke-linecap="round" stroke-linejoin="round">
  <path stroke="none" d="M0 0h24v24H0z" fill="none"/>
  <path d="M19 2a3 3 0 0 1 3 3v14a3 3 0 0 1 -3 3h-14a3 3 0 0 1 -3 -3v-14a3 3 0 0 1 3 -3zm-7.387 6.21a1 1 0 0 0 -1.32 .083l-.083 .094a1 1 0 0 0 .083 1.32l2.292 2.293l-2.292 2.293l-.083 .094a1 1 0 0 0 1.497 1.32l3 -3l.083 -.094a1 1 0 0 0 -.083 -1.32l-3 -3z" stroke-width="0" fill="currentColor" />
</svg>


