<svg xmlns="http://www.w3.org/2000/svg" class="icon icon-tabler icon-tabler-square-x-filled" width="24" height="24" viewBox="0 0 24 24" stroke-width="2" stroke="currentColor" fill="none" stroke-linecap="round" stroke-linejoin="round">
  <path stroke="none" d="M0 0h24v24H0z" fill="none"/>
  <path d="M19 2h-14a3 3 0 0 0 -3 3v14a3 3 0 0 0 3 3h14a3 3 0 0 0 3 -3v-14a3 3 0 0 0 -3 -3zm-9.387 6.21l.094 .083l2.293 2.292l2.293 -2.292a1 1 0 0 1 1.497 1.32l-.083 .094l-2.292 2.293l2.292 2.293a1 1 0 0 1 -1.32 1.497l-.094 -.083l-2.293 -2.292l-2.293 2.292a1 1 0 0 1 -1.497 -1.32l.083 -.094l2.292 -2.293l-2.292 -2.293a1 1 0 0 1 1.32 -1.497z" stroke-width="0" fill="currentColor" />
</svg>


