<svg xmlns="http://www.w3.org/2000/svg" class="icon icon-tabler icon-tabler-versions-filled" width="24" height="24" viewBox="0 0 24 24" stroke-width="2" stroke="currentColor" fill="none" stroke-linecap="round" stroke-linejoin="round">
  <path stroke="none" d="M0 0h24v24H0z" fill="none"/>
  <path d="M18 4h-6a3 3 0 0 0 -3 3v10a3 3 0 0 0 3 3h6a3 3 0 0 0 3 -3v-10a3 3 0 0 0 -3 -3z" stroke-width="0" fill="currentColor" />
  <path d="M7 6a1 1 0 0 1 .993 .883l.007 .117v10a1 1 0 0 1 -1.993 .117l-.007 -.117v-10a1 1 0 0 1 1 -1z" stroke-width="0" fill="currentColor" />
  <path d="M4 7a1 1 0 0 1 .993 .883l.007 .117v8a1 1 0 0 1 -1.993 .117l-.007 -.117v-8a1 1 0 0 1 1 -1z" stroke-width="0" fill="currentColor" />
</svg>


