<svg xmlns="http://www.w3.org/2000/svg" class="icon icon-tabler icon-tabler-windmill-filled" width="24" height="24" viewBox="0 0 24 24" stroke-width="2" stroke="currentColor" fill="none" stroke-linecap="round" stroke-linejoin="round">
  <path stroke="none" d="M0 0h24v24H0z" fill="none"/>
  <path d="M12 2c3.292 0 6 2.435 6 5.5c0 1.337 -.515 2.554 -1.369 3.5h4.369a1 1 0 0 1 1 1c0 3.292 -2.435 6 -5.5 6c-1.336 0 -2.553 -.515 -3.5 -1.368v4.368a1 1 0 0 1 -1 1c-3.292 0 -6 -2.435 -6 -5.5c0 -1.336 .515 -2.553 1.368 -3.5h-4.368a1 1 0 0 1 -1 -1c0 -3.292 2.435 -6 5.5 -6c1.337 0 2.554 .515 3.5 1.369v-4.369a1 1 0 0 1 1 -1z" stroke-width="0" fill="currentColor" />
</svg>


