<svg xmlns="http://www.w3.org/2000/svg" class="icon icon-tabler icon-tabler-diabolo" width="24" height="24" viewBox="0 0 24 24" stroke-width="2" stroke="currentColor" fill="none" stroke-linecap="round" stroke-linejoin="round">
  <path stroke="none" d="M0 0h24v24H0z" fill="none"/>
  <path d="M12 6m-8 0a8 3 0 1 0 16 0a8 3 0 1 0 -16 0" />
  <path d="M4 6v.143a1 1 0 0 0 .048 .307l1.952 5.55l-1.964 5.67a1 1 0 0 0 -.036 .265v.065c0 1.657 3.582 3 8 3s8 -1.343 8 -3v-.065a1 1 0 0 0 -.036 -.265l-1.964 -5.67l1.952 -5.55a1 1 0 0 0 .048 -.307v-.143" />
  <path d="M6 12c0 1.105 2.686 2 6 2s6 -.895 6 -2" />
</svg>


