<svg xmlns="http://www.w3.org/2000/svg" class="icon icon-tabler icon-tabler-pentagon-off" width="24" height="24" viewBox="0 0 24 24" stroke-width="2" stroke="currentColor" fill="none" stroke-linecap="round" stroke-linejoin="round">
  <path stroke="none" d="M0 0h24v24H0z" fill="none"/>
  <path d="M8.133 4.133l2.704 -1.965a1.978 1.978 0 0 1 2.326 0l8.021 5.828c.694 .504 .984 1.397 .719 2.212l-1.887 5.808m-.981 3.02l-.196 .602a1.978 1.978 0 0 1 -1.881 1.367h-9.916a1.978 1.978 0 0 1 -1.881 -1.367l-3.064 -9.43a1.978 1.978 0 0 1 .719 -2.212l2.994 -2.176" />
  <path d="M3 3l18 18" />
</svg>


