<svg xmlns="http://www.w3.org/2000/svg" xmlns:xlink="http://www.w3.org/1999/xlink" viewBox="0 0 914 42" width="914" height="42" style="color: #354052"><rect x="0" y="0" width="914" height="42" fill="#fff"></rect>
	<symbol id="icon-.5" class="icon icon-tabler icon-tabler-disabled" viewBox="0 0 24 24" stroke-width=".5" stroke="currentColor" fill="none" stroke-linecap="round" stroke-linejoin="round"><path stroke="none" d="M0 0h24v24H0z"/><circle cx="11" cy="5" r="2" /><polyline points="11 7 11 15 15 15 19 20" /><line x1="11" y1="11" x2="16" y2="11" /><path d="M7 11.5a4.97 4.97 0 1 0 6 7.5" />
</symbol>
	<symbol id="icon-1" class="icon icon-tabler icon-tabler-disabled" viewBox="0 0 24 24" stroke-width="1" stroke="currentColor" fill="none" stroke-linecap="round" stroke-linejoin="round"><path stroke="none" d="M0 0h24v24H0z"/><circle cx="11" cy="5" r="2" /><polyline points="11 7 11 15 15 15 19 20" /><line x1="11" y1="11" x2="16" y2="11" /><path d="M7 11.5a4.97 4.97 0 1 0 6 7.5" />
</symbol>
	<symbol id="icon-1.5" class="icon icon-tabler icon-tabler-disabled" viewBox="0 0 24 24" stroke-width="1.5" stroke="currentColor" fill="none" stroke-linecap="round" stroke-linejoin="round"><path stroke="none" d="M0 0h24v24H0z"/><circle cx="11" cy="5" r="2" /><polyline points="11 7 11 15 15 15 19 20" /><line x1="11" y1="11" x2="16" y2="11" /><path d="M7 11.5a4.97 4.97 0 1 0 6 7.5" />
</symbol>
	<symbol id="icon-2" class="icon icon-tabler icon-tabler-disabled" viewBox="0 0 24 24" stroke-width="2" stroke="currentColor" fill="none" stroke-linecap="round" stroke-linejoin="round"><path stroke="none" d="M0 0h24v24H0z"/><circle cx="11" cy="5" r="2" /><polyline points="11 7 11 15 15 15 19 20" /><line x1="11" y1="11" x2="16" y2="11" /><path d="M7 11.5a4.97 4.97 0 1 0 6 7.5" />
</symbol>
	<symbol id="icon-2.75" class="icon icon-tabler icon-tabler-disabled" viewBox="0 0 24 24" stroke-width="2.75" stroke="currentColor" fill="none" stroke-linecap="round" stroke-linejoin="round"><path stroke="none" d="M0 0h24v24H0z"/><circle cx="11" cy="5" r="2" /><polyline points="11 7 11 15 15 15 19 20" /><line x1="11" y1="11" x2="16" y2="11" /><path d="M7 11.5a4.97 4.97 0 1 0 6 7.5" />
</symbol>

	<use xlink:href="#icon-.5" x="5" y="5" width="32" height="32" />
	<use xlink:href="#icon-1" x="53" y="5" width="32" height="32" />
	<use xlink:href="#icon-1.5" x="101" y="5" width="32" height="32" />
	<use xlink:href="#icon-2" x="149" y="5" width="32" height="32" />
	<use xlink:href="#icon-2.75" x="197" y="5" width="32" height="32" />

</svg>