<svg xmlns="http://www.w3.org/2000/svg" xmlns:xlink="http://www.w3.org/1999/xlink" viewBox="0 0 292 160" width="292" height="160" style="color: #354052"><rect x="0" y="0" width="292" height="160" fill="#fff"></rect>
	<symbol id="filled-car-suv" xmlns="http://www.w3.org/2000/svg" width="24" height="24" viewBox="0 0 24 24" fill="currentColor"
> <path d="M7 14a3 3 0 1 1 -3 3l.005 -.176a3 3 0 0 1 2.995 -2.824m11 0a3 3 0 1 1 -3 3l.005 -.176a3 3 0 0 1 2.995 -2.824m-11 2a1 1 0 1 0 0 2a1 1 0 0 0 0 -2m11 0a1 1 0 1 0 0 2a1 1 0 0 0 0 -2m-3.562 -12a3 3 0 0 1 2.91 2.272l.433 1.728h2.219a3 3 0 0 1 2.995 2.824l.005 .176v3.02l-.01 .117a1 1 0 0 1 -.286 .575l-.107 .091l-.07 .049l-.076 .042l-.106 .046l-.017 .005l-.047 .016l-.108 .025l-.118 .013l-.08 .002l-.122 -.012l-.148 -.033l-.063 -.022a1 1 0 0 1 -.362 -.24l-.08 -.094a4 4 0 0 0 -3.2 -1.6a4 4 0 0 0 -3.2 1.6a1 1 0 0 1 -.8 .4h-3a1 1 0 0 1 -.8 -.4a3.998 3.998 0 0 0 -6.402 .002a1 1 0 1 1 -1.602 -1.198c.493 -.66 1.11 -1.2 1.804 -1.602v-2.792a1 1 0 0 1 .06 -.35l.042 -.1l2.004 -4.007a1 1 0 0 1 .894 -.553zm-12.438 2a1 1 0 0 1 1 1v4a1 1 0 0 1 -2 0v-4a1 1 0 0 1 1 -1m12.438 0h-3.438v2h4.718l-.31 -1.243a1 1 0 0 0 -.97 -.757m-5.438 0h-1.382l-1.001 2h2.383z" />
</symbol>
	<symbol id="filled-car" xmlns="http://www.w3.org/2000/svg" width="24" height="24" viewBox="0 0 24 24" fill="currentColor"
> <path d="M17 14a3 3 0 0 1 2.685 4.34l-.067 .126l-.1 .165l-.141 .2l-.116 .141l-.116 .126a3 3 0 0 1 -.388 .334l-.149 .1l-.089 .055q -.052 .032 -.107 .06l-.17 .085l-.175 .073l-.104 .037l-.17 .052l-.172 .042l-.183 .032l-.075 .01q -.09 .011 -.18 .016l-.183 .006l-.183 -.006l-.18 -.016l-.192 -.03l-.17 -.036l-.18 -.051l-.058 -.019a3 3 0 0 1 -.174 -.065l-.161 -.072l-.168 -.087l-.053 -.03q -.122 -.072 -.237 -.156l-.16 -.124l-.15 -.134l-.129 -.129l-.066 -.073l-.1 -.12l-.12 -.165l-.074 -.113l-.063 -.108l-.067 -.126a3 3 0 0 1 -.315 -1.34a3 3 0 0 1 3 -3m-10 0a3 3 0 0 1 2.685 4.34l-.067 .126l-.1 .165l-.141 .2l-.116 .141l-.116 .126a3 3 0 0 1 -.388 .334l-.149 .1l-.089 .055q -.052 .032 -.107 .06l-.17 .085l-.175 .073l-.104 .037l-.17 .052l-.172 .042l-.183 .032l-.075 .01q -.09 .011 -.18 .016l-.183 .006l-.183 -.006l-.18 -.016l-.192 -.03l-.17 -.036l-.18 -.051l-.058 -.019a3 3 0 0 1 -.174 -.065l-.161 -.072l-.168 -.087l-.053 -.03q -.122 -.072 -.237 -.156l-.16 -.124l-.15 -.134l-.129 -.129l-.066 -.073l-.1 -.12l-.12 -.165l-.074 -.113l-.063 -.108l-.067 -.126a3 3 0 0 1 -.315 -1.34a3 3 0 0 1 3 -3m7 -9a1 1 0 0 1 .694 .28l.087 .095l3.699 4.625h.52a3 3 0 0 1 2.995 2.824l.005 .176v4a1 1 0 0 1 -1 1h-.126q .125 -.48 .126 -1a4 4 0 1 0 -7.874 1h-2.252q .124 -.48 .126 -1a4 4 0 1 0 -7.874 1h-.126a1 1 0 0 1 -1 -1v-6l.007 -.117l.008 -.056l.017 -.078l.012 -.036l.014 -.05l2.014 -5.034a1 1 0 0 1 .928 -.629zm-7 11a1 1 0 1 0 0 2a1 1 0 0 0 0 -2m10 0a1 1 0 1 0 0 2a1 1 0 0 0 0 -2m-3.48 -9h-.52v3h2.92z" />
</symbol>
	<symbol id="filled-device-cctv" xmlns="http://www.w3.org/2000/svg" width="24" height="24" viewBox="0 0 24 24" fill="currentColor"
> <path d="M20 8v6a8 8 0 1 1 -16 0v-6zm-8 2a4 4 0 0 0 -3.996 3.826l-.004 .174a4 4 0 1 0 4 -4m.01 3a1 1 0 0 1 .117 1.993l-.127 .007a1 1 0 0 1 -.117 -1.993zm-10.01 -8v-1a2 2 0 0 1 2 -2h16a2 2 0 0 1 2 2v1a2 2 0 0 1 -2 2h-16a2 2 0 0 1 -2 -2" />
</symbol>
	<symbol id="filled-device-desktop" xmlns="http://www.w3.org/2000/svg" width="24" height="24" viewBox="0 0 24 24" fill="currentColor"
> <path d="M7 21a1 1 0 0 1 0 -2h1v-2h-4a2 2 0 0 1 -2 -2v-10a2 2 0 0 1 2 -2h16a2 2 0 0 1 2 2v10a2 2 0 0 1 -2 2h-4v2h1a1 1 0 0 1 0 2zm7 -4h-4v2h4z" />
</symbol>
	<symbol id="filled-device-gamepad-3" xmlns="http://www.w3.org/2000/svg" width="24" height="24" viewBox="0 0 24 24" fill="currentColor"
> <path d="M12.707 14.293l3 3a1 1 0 0 1 .293 .707v2a2 2 0 0 1 -2 2h-4a2 2 0 0 1 -2 -2v-2a1 1 0 0 1 .293 -.707l3 -3a1 1 0 0 1 1.414 0m-6.707 -6.293a1 1 0 0 1 .707 .293l3 3a1 1 0 0 1 0 1.414l-3 3a1 1 0 0 1 -.707 .293h-2a2 2 0 0 1 -2 -2v-4a2 2 0 0 1 2 -2zm14 0a2 2 0 0 1 2 2v4a2 2 0 0 1 -2 2h-2a1 1 0 0 1 -.707 -.293l-3 -3a1 1 0 0 1 0 -1.414l3 -3a1 1 0 0 1 .707 -.293zm-6 -6a2 2 0 0 1 2 2v2a1 1 0 0 1 -.293 .707l-3 3a1 1 0 0 1 -1.414 0l-3 -3a1 1 0 0 1 -.293 -.707v-2a2 2 0 0 1 2 -2z" />
</symbol>
	<symbol id="filled-device-imac" xmlns="http://www.w3.org/2000/svg" width="24" height="24" viewBox="0 0 24 24" fill="currentColor"
> <path d="M8 22a1 1 0 0 1 0 -2h.616l.25 -2h-4.866a2 2 0 0 1 -2 -2v-12a2 2 0 0 1 2 -2h16a2 2 0 0 1 2 2v12a2 2 0 0 1 -2 2h-4.867l.25 2h.617a1 1 0 0 1 0 2zm5.116 -4h-2.233l-.25 2h2.733z" />
</symbol>
	<symbol id="filled-device-ipad" xmlns="http://www.w3.org/2000/svg" width="24" height="24" viewBox="0 0 24 24" fill="currentColor"
> <path d="M18 2a3 3 0 0 1 3 3v14a3 3 0 0 1 -3 3h-12a3 3 0 0 1 -3 -3v-14a3 3 0 0 1 3 -3zm-3 16h-6a1 1 0 0 0 0 2h6a1 1 0 0 0 0 -2" />
</symbol>
	<symbol id="filled-device-remote" xmlns="http://www.w3.org/2000/svg" width="24" height="24" viewBox="0 0 24 24" fill="currentColor"
> <path d="M15 2a3 3 0 0 1 3 3v14a3 3 0 0 1 -3 3h-6a3 3 0 0 1 -3 -3v-14a3 3 0 0 1 3 -3h2v1a1 1 0 0 0 .883 .993l.117 .007a1 1 0 0 0 1 -1v-1zm-5 15a1 1 0 0 0 -1 1l.007 .127a1 1 0 0 0 1.993 -.117l-.007 -.127a1 1 0 0 0 -.993 -.883m4 0a1 1 0 0 0 -1 1l.007 .127a1 1 0 0 0 1.993 -.117l-.007 -.127a1 1 0 0 0 -.993 -.883m-4 -3a1 1 0 0 0 -1 1l.007 .127a1 1 0 0 0 1.993 -.117l-.007 -.127a1 1 0 0 0 -.993 -.883m4 0a1 1 0 0 0 -1 1l.007 .127a1 1 0 0 0 1.993 -.117l-.007 -.127a1 1 0 0 0 -.993 -.883m-2 -7a3 3 0 0 0 -2.995 2.824l-.005 .176a3 3 0 1 0 3 -3" />
</symbol>
	<symbol id="filled-device-speaker" xmlns="http://www.w3.org/2000/svg" width="24" height="24" viewBox="0 0 24 24" fill="currentColor"
> <path d="M17 2a3 3 0 0 1 3 3v14a3 3 0 0 1 -3 3h-10a3 3 0 0 1 -3 -3v-14a3 3 0 0 1 3 -3zm-5 9a4 4 0 0 0 -3.995 3.8l-.005 .2a4 4 0 1 0 4 -4m0 -5a1 1 0 0 0 -1 1v.01a1 1 0 0 0 2 0v-.01a1 1 0 0 0 -1 -1" />
</symbol>
	<symbol id="filled-device-tv-old" xmlns="http://www.w3.org/2000/svg" width="24" height="24" viewBox="0 0 24 24" fill="currentColor"
> <path d="M8.707 2.293l3.293 3.292l3.293 -3.292a1 1 0 0 1 1.32 -.083l.094 .083a1 1 0 0 1 0 1.414l-2.293 2.293h4.586a3 3 0 0 1 3 3v9a3 3 0 0 1 -3 3h-14a3 3 0 0 1 -3 -3v-9a3 3 0 0 1 3 -3h4.585l-2.292 -2.293a1 1 0 0 1 1.414 -1.414m10.293 5.707h-2a1 1 0 0 0 -1 1v9a1 1 0 0 0 1 1h2a1 1 0 0 0 1 -1v-9a1 1 0 0 0 -1 -1" /> <path d="M18 14a1 1 0 0 1 .993 .883l.007 .127a1 1 0 0 1 -1.993 .117l-.007 -.127a1 1 0 0 1 1 -1" /> <path d="M18 11a1 1 0 0 1 .993 .883l.007 .127a1 1 0 0 1 -1.993 .117l-.007 -.127a1 1 0 0 1 1 -1" />
</symbol>
	<symbol id="filled-device-tv" xmlns="http://www.w3.org/2000/svg" width="24" height="24" viewBox="0 0 24 24" fill="currentColor"
> <path d="M8.707 2.293l3.293 3.292l3.293 -3.292a1 1 0 0 1 1.32 -.083l.094 .083a1 1 0 0 1 0 1.414l-2.293 2.293h4.586a3 3 0 0 1 3 3v9a3 3 0 0 1 -3 3h-14a3 3 0 0 1 -3 -3v-9a3 3 0 0 1 3 -3h4.585l-2.292 -2.293a1 1 0 0 1 1.414 -1.414" />
</symbol>
	<symbol id="filled-device-usb" xmlns="http://www.w3.org/2000/svg" width="24" height="24" viewBox="0 0 24 24" fill="currentColor"
> <path d="M15 2a1 1 0 0 1 1 1v4h1a1 1 0 0 1 1 1v8a6 6 0 1 1 -12 0v-8a1 1 0 0 1 1 -1h1v-4a1 1 0 0 1 1 -1zm-1 2h-4v3h4z" />
</symbol>
	<symbol id="filled-device-vision-pro" xmlns="http://www.w3.org/2000/svg" width="24" height="24" viewBox="0 0 24 24" fill="currentColor"
> <path d="M12 6q 1.74 0 3.342 .106q 1.619 .107 2.973 .448q 1.388 .345 2.436 1.05a4.9 4.9 0 0 1 1.665 1.916c.397 .801 .584 1.769 .584 2.91c0 1.156 -.222 2.208 -.673 3.14c-.45 .934 -1.073 1.685 -1.868 2.236a4.7 4.7 0 0 1 -2.73 .839q -.932 .001 -1.703 -.263a7 7 0 0 1 -1.374 -.644a20 20 0 0 1 -1.107 -.736a8 8 0 0 0 -.901 -.567a1.4 1.4 0 0 0 -.643 -.174c-.209 0 -.426 .057 -.658 .18q -.42 .226 -.893 .564a20 20 0 0 1 -1.105 .733a6.8 6.8 0 0 1 -1.366 .642a5.2 5.2 0 0 1 -1.688 .264a4.7 4.7 0 0 1 -2.75 -.838c-.794 -.55 -1.418 -1.302 -1.868 -2.234q -.675 -1.407 -.673 -3.14c-.005 -1.135 .182 -2.105 .577 -2.9a4.9 4.9 0 0 1 1.673 -1.926c.699 -.47 1.511 -.816 2.442 -1.049a17 17 0 0 1 2.968 -.447q 1.599 -.11 3.34 -.11" />
</symbol>
	<symbol id="filled-device-watch" xmlns="http://www.w3.org/2000/svg" width="24" height="24" viewBox="0 0 24 24" fill="currentColor"
> <path d="M15 2a1 1 0 0 1 1 1v2.126c1.726 .445 3 2.01 3 3.874v6a4 4 0 0 1 -3 3.874v2.126a1 1 0 0 1 -1 1h-6a1 1 0 0 1 -1 -1v-2.126a4 4 0 0 1 -3 -3.874v-6a4 4 0 0 1 3 -3.874v-2.126a1 1 0 0 1 1 -1zm-1 17h-4v1h4zm0 -15h-4v1h4z" />
</symbol>
	<symbol id="filled-directions" xmlns="http://www.w3.org/2000/svg" width="24" height="24" viewBox="0 0 24 24" fill="currentColor"
> <path d="M10 22a1 1 0 0 1 0 -2h1v-2.001l-5 .001a1 1 0 0 1 -.707 -.293l-2 -2a1 1 0 0 1 0 -1.414l2 -2a1 1 0 0 1 .707 -.293l5 -.001v-1.999h-3a1 1 0 0 1 -1 -1v-4a1 1 0 0 1 1 -1h3v-1a1 1 0 0 1 2 0v1h6a1 1 0 0 1 .707 .293l2 2a1 1 0 0 1 0 1.414l-2 2a1 1 0 0 1 -.707 .293h-6v1.999l1 .001a1 1 0 0 1 1 1v4a1 1 0 0 1 -1 1l-1 -.001v2.001h1a1 1 0 0 1 0 2z" />
</symbol>
	<symbol id="filled-disc" xmlns="http://www.w3.org/2000/svg" width="24" height="24" viewBox="0 0 24 24" fill="currentColor"
> <path d="M17 3.34a10 10 0 1 1 -15 8.66l.005 -.324a10 10 0 0 1 14.995 -8.336m0 7.66a1 1 0 0 0 -1 1a4 4 0 0 1 -4 4a1 1 0 0 0 0 2a6 6 0 0 0 6 -6a1 1 0 0 0 -1 -1m-5 -1a2 2 0 0 0 -1.995 1.85l-.005 .15a2 2 0 1 0 2 -2m0 -4a6 6 0 0 0 -6 6a1 1 0 0 0 2 0a4 4 0 0 1 4 -4a1 1 0 0 0 0 -2" />
</symbol>
	<symbol id="filled-discount" xmlns="http://www.w3.org/2000/svg" width="24" height="24" viewBox="0 0 24 24" fill="currentColor"
> <path d="M17 3.34a10 10 0 1 1 -15 8.66l.005 -.324a10 10 0 0 1 14.995 -8.336m-2.5 9.66a1.5 1.5 0 1 0 0 3a1.5 1.5 0 0 0 0 -3m1.207 -4.707a1 1 0 0 0 -1.414 0l-6 6a1 1 0 0 0 1.414 1.414l6 -6a1 1 0 0 0 0 -1.414m-6.207 -.293a1.5 1.5 0 1 0 0 3a1.5 1.5 0 0 0 0 -3" />
</symbol>
	<symbol id="filled-elevator" xmlns="http://www.w3.org/2000/svg" width="24" height="24" viewBox="0 0 24 24" fill="currentColor"
> <path d="M18 3a2 2 0 0 1 2 2v14a2 2 0 0 1 -2 2h-12a2 2 0 0 1 -2 -2v-14a2 2 0 0 1 2 -2zm-7.293 10.293a1 1 0 1 0 -1.414 1.414l2 2a1 1 0 0 0 1.414 0l2 -2a1 1 0 0 0 0 -1.414l-.094 -.083a1 1 0 0 0 -1.32 .083l-1.294 1.292zm2 -6a1 1 0 0 0 -1.414 0l-2 2a1 1 0 0 0 0 1.414l.094 .083a1 1 0 0 0 1.32 -.083l1.293 -1.292l1.293 1.292a1 1 0 0 0 1.414 -1.414z" />
</symbol>

	<use xlink:href="#filled-car-suv" x="24" y="24" width="24" height="24" />
	<use xlink:href="#filled-car" x="68" y="24" width="24" height="24" />
	<use xlink:href="#filled-device-cctv" x="112" y="24" width="24" height="24" />
	<use xlink:href="#filled-device-desktop" x="156" y="24" width="24" height="24" />
	<use xlink:href="#filled-device-gamepad-3" x="200" y="24" width="24" height="24" />
	<use xlink:href="#filled-device-imac" x="244" y="24" width="24" height="24" />
	<use xlink:href="#filled-device-ipad" x="24" y="68" width="24" height="24" />
	<use xlink:href="#filled-device-remote" x="68" y="68" width="24" height="24" />
	<use xlink:href="#filled-device-speaker" x="112" y="68" width="24" height="24" />
	<use xlink:href="#filled-device-tv-old" x="156" y="68" width="24" height="24" />
	<use xlink:href="#filled-device-tv" x="200" y="68" width="24" height="24" />
	<use xlink:href="#filled-device-usb" x="244" y="68" width="24" height="24" />
	<use xlink:href="#filled-device-vision-pro" x="24" y="112" width="24" height="24" />
	<use xlink:href="#filled-device-watch" x="68" y="112" width="24" height="24" />
	<use xlink:href="#filled-directions" x="112" y="112" width="24" height="24" />
	<use xlink:href="#filled-disc" x="156" y="112" width="24" height="24" />
	<use xlink:href="#filled-discount" x="200" y="112" width="24" height="24" />
	<use xlink:href="#filled-elevator" x="244" y="112" width="24" height="24" />

</svg>