<svg xmlns="http://www.w3.org/2000/svg" xmlns:xlink="http://www.w3.org/1999/xlink" viewBox="0 0 292 160" width="292" height="160" style="color: #354052"><rect x="0" y="0" width="292" height="160" fill="#fff"></rect>
	<symbol id="filled-apple" xmlns="http://www.w3.org/2000/svg" width="24" height="24" viewBox="0 0 24 24" fill="currentColor"
> <path d="M15 2a1 1 0 0 1 .117 1.993l-.117 .007c-.693 0 -1.33 .694 -1.691 1.552a5.1 5.1 0 0 1 1.982 -.544l.265 -.008c2.982 0 5.444 3.053 5.444 6.32c0 3.547 -.606 5.862 -2.423 8.578c-1.692 2.251 -4.092 2.753 -6.41 1.234a.31 .31 0 0 0 -.317 -.01c-2.335 1.528 -4.735 1.027 -6.46 -1.27c-1.783 -2.668 -2.39 -4.984 -2.39 -8.532l.004 -.222c.108 -3.181 2.526 -6.098 5.44 -6.098c.94 0 1.852 .291 2.688 .792c.419 -1.95 1.818 -3.792 3.868 -3.792m-7.034 6.154c-1.36 .858 -1.966 2.06 -1.966 3.846a1 1 0 0 0 2 0c0 -1.125 .28 -1.678 1.034 -2.154a1 1 0 1 0 -1.068 -1.692" />
</symbol>
	<symbol id="filled-butterfly" xmlns="http://www.w3.org/2000/svg" width="24" height="24" viewBox="0 0 24 24" fill="currentColor"
> <path d="M17.117 6.244l.228 .076a5.5 5.5 0 0 1 1.24 9.738l-.063 .039l.02 .034a4 4 0 0 1 .101 3.533l-.093 .19a4 4 0 0 1 -5.55 1.608v-14.857a5.5 5.5 0 0 1 4.118 -.36" /> <path d="M8.505 6c.885 0 1.736 .21 2.495 .597v14.87a4 4 0 0 1 -1.012 .41l-.196 .045a4 4 0 0 1 -4.424 -5.587l.118 -.238l-.035 -.023a5.5 5.5 0 0 1 -2.397 -5.258l.034 -.233a5.5 5.5 0 0 1 5.417 -4.583" /> <path d="M14.445 2.168a1 1 0 0 1 1.11 1.664l-3 2a1 1 0 0 1 -1.11 0l-3 -2a1 1 0 0 1 1.11 -1.664l2.444 1.63z" />
</symbol>
	<symbol id="filled-cannabis" xmlns="http://www.w3.org/2000/svg" width="24" height="24" viewBox="0 0 24 24" fill="currentColor"
> <path d="M12.894 1.553c1.472 2.945 2.17 5.028 2.244 6.812l.001 .091l.032 -.022a8.7 8.7 0 0 1 2.73 -1.191l.352 -.079a8 8 0 0 1 1.562 -.169l.253 .007a1 1 0 0 1 .85 1.396c-.949 2.187 -1.818 3.595 -2.902 4.664l-.061 .058l.25 .055q .45 .108 .869 .259l.276 .104c.586 .235 1.006 .479 1.25 .662a1 1 0 0 1 -.042 1.63l-.199 .112l-1.133 .587c-.567 .289 -1.166 .584 -1.404 .67q -.123 .045 -.244 .083l-.074 .019l.016 .042c.327 .912 .456 1.789 .477 2.462l.003 .195a1 1 0 0 1 -1 1c-1.257 0 -2.77 -.729 -4.001 -1.647l.001 2.647a1 1 0 0 1 -2 0v-2.647c-1.16 .866 -2.57 1.563 -3.781 1.64l-.219 .007a1 1 0 0 1 -1 -1c0 -.624 .098 -1.464 .379 -2.358l.116 -.341l-.073 -.02l-.244 -.081c-.343 -.125 -1.442 -.686 -2.106 -1.032l-.52 -.274a1 1 0 0 1 -.152 -1.694c.244 -.183 .664 -.427 1.25 -.662a8 8 0 0 1 1.145 -.363l.249 -.055l-.06 -.058c-1.024 -1.01 -1.856 -2.322 -2.744 -4.307l-.157 -.357a1 1 0 0 1 .724 -1.38l.149 -.017l.058 -.003a7.5 7.5 0 0 1 1.744 .159a8.6 8.6 0 0 1 2.727 1.045l.27 .169v-.037c-.028 -1.594 .375 -3.18 1.095 -4.704l.139 -.285c.455 -.908 .914 -1.586 1.238 -1.98a1 1 0 0 1 1.666 .189" />
</symbol>
	<symbol id="filled-carambola" xmlns="http://www.w3.org/2000/svg" width="24" height="24" viewBox="0 0 24 24" fill="currentColor"
> <path d="M17.108 22.085c-1.266 -.068 -2.924 -.859 -5.071 -2.355l-.04 -.027l-.037 .027c-2.147 1.497 -3.804 2.288 -5.072 2.356l-.178 .005c-2.747 0 -3.097 -2.64 -1.718 -7.244l.054 -.178l-.1 -.075c-6.056 -4.638 -5.046 -7.848 2.554 -8.066l.202 -.005l.115 -.326c1.184 -3.33 2.426 -5.085 4.027 -5.192l.156 -.005c1.674 0 2.957 1.76 4.182 5.197l.114 .326l.204 .005c7.6 .218 8.61 3.428 2.553 8.065l-.102 .075l.055 .178c1.35 4.512 1.04 7.137 -1.556 7.24l-.163 .003z" />
</symbol>
	<symbol id="filled-clover" xmlns="http://www.w3.org/2000/svg" width="24" height="24" viewBox="0 0 24 24" fill="currentColor"
> <path d="M12.712 13.297l3.398 3.442a3.104 3.104 0 0 1 0 4.351a3.04 3.04 0 0 1 -4.036 .27l-.075 -.062l-.073 .062a3.04 3.04 0 0 1 -1.664 .634l-.203 .007a3.04 3.04 0 0 1 -2.17 -.91a3.104 3.104 0 0 1 .002 -4.354l3.397 -3.44a1 1 0 0 1 1.424 0m8.378 -5.407a3.04 3.04 0 0 1 .27 4.037l-.062 .073l.062 .075a3.04 3.04 0 0 1 .634 1.664l.007 .203a3.04 3.04 0 0 1 -.91 2.17a3.104 3.104 0 0 1 -4.354 -.002l-3.44 -3.397a1 1 0 0 1 0 -1.424l3.443 -3.399a3.104 3.104 0 0 1 4.351 0m-13.827 .002l3.44 3.397a1 1 0 0 1 0 1.424l-3.444 3.397a3.104 3.104 0 0 1 -4.351 0a3.04 3.04 0 0 1 -.27 -4.036l.062 -.075l-.062 -.073a3.04 3.04 0 0 1 -.634 -1.664l-.007 -.203c0 -.816 .328 -1.598 .91 -2.17a3.104 3.104 0 0 1 4.354 .002m6.678 -5.891a3.04 3.04 0 0 1 2.17 .91a3.104 3.104 0 0 1 -.002 4.354l-3.397 3.44a1 1 0 0 1 -1.424 0l-3.397 -3.444a3.104 3.104 0 0 1 0 -4.351a3.04 3.04 0 0 1 4.036 -.27l.073 .062l.075 -.062a3.04 3.04 0 0 1 1.664 -.634z" />
</symbol>
	<symbol id="filled-egg-cracked" xmlns="http://www.w3.org/2000/svg" width="24" height="24" viewBox="0 0 24 24" fill="currentColor"
> <path d="M11.236 2.066l-1.694 5.647l-.029 .123a1 1 0 0 0 .406 .978l2.764 1.974l-1.551 2.716a1 1 0 1 0 1.736 .992l2 -3.5l.052 -.105a1 1 0 0 0 -.339 -1.205l-2.918 -2.085l1.623 -5.41c3.641 1.074 6.714 6.497 6.714 11.892c0 4.59 -3.273 7.71 -8 7.917c-4.75 0 -8 -3.21 -8 -7.917c0 -5.654 3.372 -11.344 7.236 -12.017" />
</symbol>
	<symbol id="filled-feather" xmlns="http://www.w3.org/2000/svg" width="24" height="24" viewBox="0 0 24 24" fill="currentColor"
> <path d="M8 9.585v6.415h6.414l-2.707 2.707a1 1 0 0 1 -.112 .097l-.11 .071l-.114 .054l-.105 .035l-.149 .03l-.117 .006h-4.586l-1.707 1.707a1 1 0 1 1 -1.414 -1.414l1.707 -1.709v-4.584l.003 -.075l.017 -.126l.03 -.111l.044 -.111l.052 -.098l.067 -.096l.08 -.09z" /> <path d="M19.414 11l-3 3h-4.914l2.914 -3z" /> <path d="M13 4.586v4.998l-3 3v-4.999z" /> <path d="M16.482 3a4.515 4.515 0 0 1 4.518 4.514a4.7 4.7 0 0 1 -.239 1.487l-5.761 -.001v-5.76c.469 -.158 .968 -.24 1.482 -.24" />
</symbol>
	<symbol id="filled-flower" xmlns="http://www.w3.org/2000/svg" width="24" height="24" viewBox="0 0 24 24" fill="currentColor"
> <path d="M12 1a4 4 0 0 1 4 4l-.002 .055l.03 -.018a3.97 3.97 0 0 1 2.79 -.455l.237 .056a3.97 3.97 0 0 1 2.412 1.865a4.01 4.01 0 0 1 -1.455 5.461l-.068 .036l.071 .039a4.01 4.01 0 0 1 1.555 5.27l-.101 .186a3.97 3.97 0 0 1 -5.441 1.468l-.03 -.02l.002 .057a4 4 0 0 1 -3.8 3.995l-.2 .005a4 4 0 0 1 -4 -4l.001 -.056l-.029 .019a3.97 3.97 0 0 1 -2.79 .456l-.236 -.056a3.97 3.97 0 0 1 -2.413 -1.865a4.01 4.01 0 0 1 1.453 -5.46l.07 -.038l-.071 -.038a4.01 4.01 0 0 1 -1.555 -5.27l.1 -.187a3.97 3.97 0 0 1 5.444 -1.468l.026 .018v-.055a4 4 0 0 1 3.8 -3.995zm0 8a3 3 0 1 0 0 6a3 3 0 0 0 0 -6" />
</symbol>
	<symbol id="filled-glass" xmlns="http://www.w3.org/2000/svg" width="24" height="24" viewBox="0 0 24 24" fill="currentColor"
> <path d="M12 2c3.205 0 5.894 1.05 5.997 2.89l.99 5.946l.013 .164c0 3.226 -2.56 5.564 -6 5.945v3.055h3a1 1 0 0 1 0 2h-8a1 1 0 0 1 0 -2h3v-3.055c-3.44 -.38 -6 -2.719 -6 -5.945l.014 -.164l.991 -5.955l.001 -.038c.146 -1.81 2.817 -2.843 5.994 -2.843m0 2c-1.224 0 -2.359 .192 -3.164 .514c-.594 .238 -.836 .467 -.836 .486c0 .02 .242 .248 .836 .486c.804 .322 1.94 .514 3.164 .514s2.359 -.192 3.164 -.514c.594 -.238 .836 -.467 .836 -.486l-.02 -.026c-.07 -.07 -.321 -.262 -.816 -.46c-.804 -.322 -1.94 -.514 -3.164 -.514" />
</symbol>
	<symbol id="filled-melon" xmlns="http://www.w3.org/2000/svg" width="24" height="24" viewBox="0 0 24 24" fill="currentColor"
> <path d="M16.77 2.62a1 1 0 0 1 1.436 .055a10.96 10.96 0 0 1 2.794 7.326c0 6.074 -4.925 10.999 -10.999 10.999a10.97 10.97 0 0 1 -7.684 -3.127a1 1 0 0 1 .008 -1.438l4.343 -4.153a1 1 0 0 1 1.352 -.027a3 3 0 0 0 4.32 -4.133a1 1 0 0 1 .088 -1.35z" />
</symbol>
	<symbol id="filled-meteor" xmlns="http://www.w3.org/2000/svg" width="24" height="24" viewBox="0 0 24 24" fill="currentColor"
> <path d="M21.874 3.486l-4.174 7.514h3.3c.846 0 1.293 .973 .791 1.612l-.074 .085l-6.9 7.095a7.5 7.5 0 1 1 -10.21 -10.974l7.746 -6.58c.722 -.614 1.814 .028 1.628 .958l-.577 2.879l7.11 -3.95c.88 -.488 1.849 .481 1.36 1.36m-12.374 7.515a3.5 3.5 0 0 0 -3.495 3.308l-.005 .192a3.5 3.5 0 1 0 3.5 -3.5" />
</symbol>
	<symbol id="filled-michelin-star" xmlns="http://www.w3.org/2000/svg" width="24" height="24" viewBox="0 0 24 24" fill="currentColor"
> <path d="M11.81 2c2.018 0 3.478 1.232 3.874 3.129l.016 .089l.172 -.057c.34 -.104 .684 -.16 1.055 -.175l.227 -.005c2.09 0 3.925 1.93 3.925 4.094c0 1.095 -.51 2.087 -1.364 2.835l-.118 .098l.06 .048c.88 .737 1.36 1.605 1.416 2.656l.006 .213c0 2.24 -1.739 4.094 -3.925 4.094c-.445 0 -.923 -.084 -1.374 -.233l-.043 .193c-.395 1.736 -1.806 2.933 -3.662 3.016l-.208 .005c-2.018 0 -3.477 -1.232 -3.873 -3.13l-.03 -.161l-.011 .006a4.1 4.1 0 0 1 -1.26 .243l-.226 .005c-2.09 0 -3.925 -1.93 -3.925 -4.094c0 -1.096 .51 -2.087 1.378 -2.84l.073 -.062l-.03 -.023c-.88 -.737 -1.359 -1.605 -1.415 -2.656l-.006 -.213c0 -2.239 1.74 -4.094 3.925 -4.094c.44 0 .92 .098 1.391 .27l.036 .013l.008 -.048c.331 -1.84 1.776 -3.125 3.7 -3.211z" />
</symbol>
	<symbol id="filled-milk" xmlns="http://www.w3.org/2000/svg" width="24" height="24" viewBox="0 0 24 24" fill="currentColor"
> <path d="M17.799 7l.144 .23a7 7 0 0 1 1.057 3.7v8.07a3 3 0 0 1 -3 3h-8a3 3 0 0 1 -3 -3v-8.071a7 7 0 0 1 1.057 -3.698l.142 -.231zm-5.799 6a3 3 0 0 0 -2.995 2.824l-.005 .176a3 3 0 1 0 3 -3m0 2a1 1 0 1 1 0 2a1 1 0 0 1 0 -2m2 -6h-4a1 1 0 1 0 0 2h4a1 1 0 0 0 0 -2m1 -7a2 2 0 0 1 2 2v1h-10v-1a2 2 0 0 1 2 -2z" />
</symbol>
	<symbol id="filled-mountain" xmlns="http://www.w3.org/2000/svg" width="24" height="24" viewBox="0 0 24 24" fill="currentColor"
> <path d="M6.18 10.95l2.54 3.175l.084 .093a1 1 0 0 0 1.403 -.01l1.637 -1.638l1.324 1.985a1 1 0 0 0 1.457 .226l3.632 -2.906l3.647 7.697a1 1 0 0 1 -.904 1.428h-18a1 1 0 0 1 -.904 -1.428zm5.82 -7.878a3.3 3.3 0 0 1 2.983 1.888l2.394 5.057l-3.15 2.52l-1.395 -2.092l-.075 -.099a1 1 0 0 0 -1.464 -.053l-1.711 1.709l-1.301 -1.627l-1.151 -1.435l1.888 -3.98a3.3 3.3 0 0 1 2.982 -1.888" />
</symbol>
	<symbol id="filled-mug" xmlns="http://www.w3.org/2000/svg" width="24" height="24" viewBox="0 0 24 24" fill="currentColor"
> <path d="M3.903 4.008l.183 -.008h10.828a2.08 2.08 0 0 1 2.086 2.077v.923h1.5c1.917 0 3.5 1.477 3.5 3.333v2.334c0 1.856 -1.583 3.333 -3.5 3.333h-1.663a5.33 5.33 0 0 1 -5.17 4h-4.334c-2.944 0 -5.333 -2.375 -5.333 -5.308v-8.618a2.08 2.08 0 0 1 1.903 -2.066m13.097 9.992h1.5c.843 0 1.5 -.613 1.5 -1.333v-2.334c0 -.72 -.657 -1.333 -1.5 -1.333h-1.5z" />
</symbol>
	<symbol id="filled-pizza" xmlns="http://www.w3.org/2000/svg" width="24" height="24" viewBox="0 0 24 24" fill="currentColor"
> <path d="M12.89 2.542l8.5 16.517a1 1 0 0 1 -.446 1.354a20.1 20.1 0 0 1 -8.945 2.087l-.522 -.007a20.1 20.1 0 0 1 -8.423 -2.08a1 1 0 0 1 -.443 -1.354l8.5 -16.517a1 1 0 0 1 1.778 0m-7.064 14.64l-.96 1.865l.409 .17a18.2 18.2 0 0 0 6.226 1.276l.5 .007a18.1 18.1 0 0 0 6.708 -1.279l.424 -.176l-.89 -1.728a15.9 15.9 0 0 1 -6.046 1.183a15.9 15.9 0 0 1 -6.37 -1.318m5.174 -4.192a1 1 0 0 0 -1 1l.007 .127a1 1 0 0 0 1.993 -.117l-.007 -.127a1 1 0 0 0 -.993 -.883m2 -2.99a1 1 0 0 0 -1 1l.007 .127a1 1 0 0 0 1.993 -.117l-.007 -.127a1 1 0 0 0 -.993 -.883" />
</symbol>
	<symbol id="filled-salad" xmlns="http://www.w3.org/2000/svg" width="24" height="24" viewBox="0 0 24 24" fill="currentColor"
> <path d="M9.53 3.152l3.742 2.339q 1.492 -.491 3.472 -.491h2.256a1 1 0 0 1 1 1l-.001 1.336l-.05 .895l-.042 .585c-.037 .457 -.08 .84 -.134 1.185l.227 -.001a2 2 0 0 1 2 2v.5c0 1.694 -2.247 5.49 -3.983 6.983l-.017 .013v.504a2 2 0 0 1 -1.85 1.995l-.15 .005h-8a2 2 0 0 1 -2 -2v-.496l-.065 -.053c-1.76 -1.496 -3.794 -4.965 -3.928 -6.77l-.007 -.181v-.5a2 2 0 0 1 2 -2h.078a14 14 0 0 1 -.078 -1v-1a1 1 0 0 1 1 -1h1.755c.138 0 .287 .034 .44 .092l.835 -3.335a1 1 0 0 1 1.5 -.605m-2.193 5.847l-1.335 .001l.027 .42q .025 .292 .064 .58h.942q .078 -.533 .302 -1.001m10.663 -1.999h-1.256c-1.712 0 -3.003 .31 -3.922 .88a3.5 3.5 0 0 1 1.143 2.12h3.774c.127 -.615 .194 -1.4 .261 -2.714zm-7.5 2a1.5 1.5 0 0 0 -1.414 1h2.828a1.5 1.5 0 0 0 -.845 -.888l-.166 -.056a1.5 1.5 0 0 0 -.403 -.056m-.864 -3.424l-.415 1.665a3.5 3.5 0 0 1 1.502 -.234a6 6 0 0 1 .497 -.442z" />
</symbol>
	<symbol id="filled-seeding" xmlns="http://www.w3.org/2000/svg" width="24" height="24" viewBox="0 0 24 24" fill="currentColor"
> <path d="M6 3a7 7 0 0 1 6.95 6.155a6.97 6.97 0 0 1 5.05 -2.155h3a1 1 0 0 1 1 1v1a7 7 0 0 1 -7 7h-2v4a1 1 0 0 1 -2 0v-7h-2a7 7 0 0 1 -7 -7v-2a1 1 0 0 1 1 -1z" />
</symbol>

	<use xlink:href="#filled-apple" x="24" y="24" width="24" height="24" />
	<use xlink:href="#filled-butterfly" x="68" y="24" width="24" height="24" />
	<use xlink:href="#filled-cannabis" x="112" y="24" width="24" height="24" />
	<use xlink:href="#filled-carambola" x="156" y="24" width="24" height="24" />
	<use xlink:href="#filled-clover" x="200" y="24" width="24" height="24" />
	<use xlink:href="#filled-egg-cracked" x="244" y="24" width="24" height="24" />
	<use xlink:href="#filled-feather" x="24" y="68" width="24" height="24" />
	<use xlink:href="#filled-flower" x="68" y="68" width="24" height="24" />
	<use xlink:href="#filled-glass" x="112" y="68" width="24" height="24" />
	<use xlink:href="#filled-melon" x="156" y="68" width="24" height="24" />
	<use xlink:href="#filled-meteor" x="200" y="68" width="24" height="24" />
	<use xlink:href="#filled-michelin-star" x="244" y="68" width="24" height="24" />
	<use xlink:href="#filled-milk" x="24" y="112" width="24" height="24" />
	<use xlink:href="#filled-mountain" x="68" y="112" width="24" height="24" />
	<use xlink:href="#filled-mug" x="112" y="112" width="24" height="24" />
	<use xlink:href="#filled-pizza" x="156" y="112" width="24" height="24" />
	<use xlink:href="#filled-salad" x="200" y="112" width="24" height="24" />
	<use xlink:href="#filled-seeding" x="244" y="112" width="24" height="24" />

</svg>