<svg xmlns="http://www.w3.org/2000/svg" xmlns:xlink="http://www.w3.org/1999/xlink" viewBox="0 0 292 160" width="292" height="160" style="color: #354052"><rect x="0" y="0" width="292" height="160" fill="#fff"></rect>
	<symbol id="arrows-diff" class="icon icon-tabler icon-tabler-arrows-diff" viewBox="0 0 24 24" stroke-width="2" stroke="currentColor" fill="none" stroke-linecap="round" stroke-linejoin="round"><path stroke="none" d="M0 0h24v24H0z" fill="none"/><path d="M11 16h10" /><path d="M11 16l4 4" /><path d="M11 16l4 -4" /><path d="M13 8h-10" /><path d="M13 8l-4 4" /><path d="M13 8l-4 -4" />
</symbol>
	<symbol id="brand-google-fit" class="icon icon-tabler icon-tabler-brand-google-fit" viewBox="0 0 24 24" stroke-width="2" stroke="currentColor" fill="none" stroke-linecap="round" stroke-linejoin="round"><path stroke="none" d="M0 0h24v24H0z" fill="none"/><path d="M12 9.314l-2.343 -2.344a3.314 3.314 0 0 0 -4.686 4.686l2.343 2.344l4.686 4.686l7.03 -7.03a3.314 3.314 0 0 0 -4.687 -4.685l-7.03 7.029" />
</symbol>
	<symbol id="brand-xbox" class="icon icon-tabler icon-tabler-brand-xbox" viewBox="0 0 24 24" stroke-width="2" stroke="currentColor" fill="none" stroke-linecap="round" stroke-linejoin="round"><path stroke="none" d="M0 0h24v24H0z" fill="none"/><circle cx="12" cy="12" r="9" /><path d="M6.5 5c7.72 2.266 10.037 7.597 12.5 12.5" /><path d="M17.5 5c-7.72 2.266 -10.037 7.597 -12.5 12.5" />
</symbol>
	<symbol id="clipboard-copy" class="icon icon-tabler icon-tabler-clipboard-copy" viewBox="0 0 24 24" stroke-width="2" stroke="currentColor" fill="none" stroke-linecap="round" stroke-linejoin="round"><path stroke="none" d="M0 0h24v24H0z" fill="none"/><path d="M9 5h-2a2 2 0 0 0 -2 2v12a2 2 0 0 0 2 2h3m9 -9v-5a2 2 0 0 0 -2 -2h-2" /><path d="M13 17v-1a1 1 0 0 1 1 -1h1m3 0h1a1 1 0 0 1 1 1v1m0 3v1a1 1 0 0 1 -1 1h-1m-3 0h-1a1 1 0 0 1 -1 -1v-1" /><rect x="9" y="3" width="6" height="4" rx="2" />
</symbol>
	<symbol id="currency-yuan" class="icon icon-tabler icon-tabler-currency-yuan" viewBox="0 0 24 24" stroke-width="2" stroke="currentColor" fill="none" stroke-linecap="round" stroke-linejoin="round"><path stroke="none" d="M0 0h24v24H0z" fill="none"/><path d="M12 19v-7l-5 -7" /><path d="M17 5l-5 7" /><path d="M8 13h8" />
</symbol>
	<symbol id="empathize" class="icon icon-tabler icon-tabler-empathize" viewBox="0 0 24 24" stroke-width="2" stroke="currentColor" fill="none" stroke-linecap="round" stroke-linejoin="round"><path stroke="none" d="M0 0h24v24H0z" fill="none"/><circle cx="12" cy="5.5" r="2.5" /><path d="M12 21.368l5.095 -5.096a3.088 3.088 0 1 0 -4.367 -4.367l-.728 .727l-.728 -.727a3.088 3.088 0 1 0 -4.367 4.367l5.095 5.096z" />
</symbol>
	<symbol id="exposure-0" class="icon icon-tabler icon-tabler-exposure-0" viewBox="0 0 24 24" stroke-width="2" stroke="currentColor" fill="none" stroke-linecap="round" stroke-linejoin="round"><path stroke="none" d="M0 0h24v24H0z" fill="none"/><path d="M12 19a4 4 0 0 0 4 -4v-6a4 4 0 1 0 -8 0v6a4 4 0 0 0 4 4z" />
</symbol>
	<symbol id="exposure-minus-1" class="icon icon-tabler icon-tabler-exposure-minus-1" viewBox="0 0 24 24" stroke-width="2" stroke="currentColor" fill="none" stroke-linecap="round" stroke-linejoin="round"><path stroke="none" d="M0 0h24v24H0z" fill="none"/><path d="M3 12h6" /><path d="M18 19v-14l-4 4" />
</symbol>
	<symbol id="exposure-minus-2" class="icon icon-tabler icon-tabler-exposure-minus-2" viewBox="0 0 24 24" stroke-width="2" stroke="currentColor" fill="none" stroke-linecap="round" stroke-linejoin="round"><path stroke="none" d="M0 0h24v24H0z" fill="none"/><path d="M12 9a4 4 0 1 1 8 0c0 1.098 -.564 2.025 -1.159 2.815l-6.841 7.185h8" /><path d="M3 12h6" />
</symbol>
	<symbol id="exposure-plus-1" class="icon icon-tabler icon-tabler-exposure-plus-1" viewBox="0 0 24 24" stroke-width="2" stroke="currentColor" fill="none" stroke-linecap="round" stroke-linejoin="round"><path stroke="none" d="M0 0h24v24H0z" fill="none"/><path d="M3 12h6" /><path d="M6 9v6" /><path d="M18 19v-14l-4 4" />
</symbol>
	<symbol id="exposure-plus-2" class="icon icon-tabler icon-tabler-exposure-plus-2" viewBox="0 0 24 24" stroke-width="2" stroke="currentColor" fill="none" stroke-linecap="round" stroke-linejoin="round"><path stroke="none" d="M0 0h24v24H0z" fill="none"/><path d="M12 9a4 4 0 1 1 8 0c0 1.098 -.564 2.025 -1.159 2.815l-6.841 7.185h8" /><path d="M3 12h6" /><path d="M6 9v6" />
</symbol>
	<symbol id="file-orientation" class="icon icon-tabler icon-tabler-file-orientation" viewBox="0 0 24 24" stroke-width="2" stroke="currentColor" fill="none" stroke-linecap="round" stroke-linejoin="round"><path stroke="none" d="M0 0h24v24H0z" fill="none"/><path d="M14 3v4a1 1 0 0 0 1 1h4" /><path d="M10 21h-3a2 2 0 0 1 -2 -2v-14a2 2 0 0 1 2 -2h7l5 5v2" /><path d="M13 20h5a2 2 0 0 0 2 -2v-5" /><path d="M15 22l-2 -2l2 -2" /><path d="M18 15l2 -2l2 2" />
</symbol>
	<symbol id="input-search" class="icon icon-tabler icon-tabler-input-search" viewBox="0 0 24 24" stroke-width="2" stroke="currentColor" fill="none" stroke-linecap="round" stroke-linejoin="round"><path stroke="none" d="M0 0h24v24H0z" fill="none"/><path d="M19 11v-3a2 2 0 0 0 -2 -2h-12a2 2 0 0 0 -2 2v5a2 2 0 0 0 2 2h5" /><circle cx="15.5" cy="15.5" r="2.5" /><path d="M17.5 17.5l2.5 2.5" />
</symbol>
	<symbol id="mickey" class="icon icon-tabler icon-tabler-mickey" viewBox="0 0 24 24" stroke-width="2" stroke="currentColor" fill="none" stroke-linecap="round" stroke-linejoin="round"><path stroke="none" d="M0 0h24v24H0z" fill="none"/><path d="M5.5 3a3.5 3.5 0 0 1 3.25 4.8a7.017 7.017 0 0 0 -2.424 2.1a3.5 3.5 0 1 1 -.826 -6.9z" /><path d="M18.5 3a3.5 3.5 0 1 1 -.826 6.902a7.013 7.013 0 0 0 -2.424 -2.103a3.5 3.5 0 0 1 3.25 -4.799z" /><circle cx="12" cy="14" r="7" />
</symbol>
	<symbol id="text-orientation" class="icon icon-tabler icon-tabler-text-orientation" viewBox="0 0 24 24" stroke-width="2" stroke="currentColor" fill="none" stroke-linecap="round" stroke-linejoin="round"><path stroke="none" d="M0 0h24v24H0z" fill="none"/><path d="M9 15l-5 -5c-1.367 -1.367 -1.367 -3.633 0 -5s3.633 -1.367 5 0l5 5" /><path d="M5.5 11.5l5 -5" /><path d="M21 12l-9 9" /><path d="M21 12v4" /><path d="M21 12h-4" />
</symbol>
	<symbol id="text-plus" class="icon icon-tabler icon-tabler-text-plus" viewBox="0 0 24 24" stroke-width="2" stroke="currentColor" fill="none" stroke-linecap="round" stroke-linejoin="round"><path stroke="none" d="M0 0h24v24H0z" fill="none"/><path d="M19 10h-14" /><path d="M5 6h14" /><path d="M14 14h-9" /><path d="M5 18h6" /><path d="M18 15v6" /><path d="M15 18h6" />
</symbol>
	<symbol id="text-spellcheck" class="icon icon-tabler icon-tabler-text-spellcheck" viewBox="0 0 24 24" stroke-width="2" stroke="currentColor" fill="none" stroke-linecap="round" stroke-linejoin="round"><path stroke="none" d="M0 0h24v24H0z" fill="none"/><path d="M5 15v-7.5a3.5 3.5 0 0 1 7 0v7.5" /><path d="M5 10h7" /><path d="M10 18l3 3l7 -7" />
</symbol>
	<symbol id="zoom-replace" class="icon icon-tabler icon-tabler-zoom-replace" viewBox="0 0 24 24" stroke-width="2" stroke="currentColor" fill="none" stroke-linecap="round" stroke-linejoin="round"><path stroke="none" d="M0 0h24v24H0z" fill="none"/><path d="M21 21l-6 -6" /><path d="M3.291 8.003a7 7 0 0 1 5.077 -4.806a7.021 7.021 0 0 1 8.242 4.403" /><path d="M17 4v4h-4" /><path d="M16.705 12.005a7 7 0 0 1 -5.074 4.798a7.021 7.021 0 0 1 -8.241 -4.403" /><path d="M3 16v-4h4" />
</symbol>

	<use xlink:href="#arrows-diff" x="24" y="24" width="24" height="24" />
	<use xlink:href="#brand-google-fit" x="68" y="24" width="24" height="24" />
	<use xlink:href="#brand-xbox" x="112" y="24" width="24" height="24" />
	<use xlink:href="#clipboard-copy" x="156" y="24" width="24" height="24" />
	<use xlink:href="#currency-yuan" x="200" y="24" width="24" height="24" />
	<use xlink:href="#empathize" x="244" y="24" width="24" height="24" />
	<use xlink:href="#exposure-0" x="24" y="68" width="24" height="24" />
	<use xlink:href="#exposure-minus-1" x="68" y="68" width="24" height="24" />
	<use xlink:href="#exposure-minus-2" x="112" y="68" width="24" height="24" />
	<use xlink:href="#exposure-plus-1" x="156" y="68" width="24" height="24" />
	<use xlink:href="#exposure-plus-2" x="200" y="68" width="24" height="24" />
	<use xlink:href="#file-orientation" x="244" y="68" width="24" height="24" />
	<use xlink:href="#input-search" x="24" y="112" width="24" height="24" />
	<use xlink:href="#mickey" x="68" y="112" width="24" height="24" />
	<use xlink:href="#text-orientation" x="112" y="112" width="24" height="24" />
	<use xlink:href="#text-plus" x="156" y="112" width="24" height="24" />
	<use xlink:href="#text-spellcheck" x="200" y="112" width="24" height="24" />
	<use xlink:href="#zoom-replace" x="244" y="112" width="24" height="24" />

</svg>