<svg xmlns="http://www.w3.org/2000/svg" xmlns:xlink="http://www.w3.org/1999/xlink" viewBox="0 0 332 228" width="332" height="228" style="color: #354052"><rect x="0" y="0" width="332" height="228" fill="#fff"></rect>
	<symbol id="a-b" class="icon icon-tabler icon-tabler-a-b" viewBox="0 0 24 24" stroke-width="2" stroke="currentColor" fill="none" stroke-linecap="round" stroke-linejoin="round"><path stroke="none" d="M0 0h24v24H0z"/><path d="M3 16v-5.5a2.5 2.5 0 0 1 5 0v5.5m0 -4h-5" /><path d="M12 6v12" /><path d="M16 16v-8h3a2 2 0 0 1 0 4h-3m3 0a2 2 0 0 1 0 4h-3" />
</symbol>
	<symbol id="adjustments-alt" class="icon icon-tabler icon-tabler-adjustments-alt" viewBox="0 0 24 24" stroke-width="2" stroke="currentColor" fill="none" stroke-linecap="round" stroke-linejoin="round"><path stroke="none" d="M0 0h24v24H0z"/><rect x="4" y="8" width="4" height="4" /><line x1="6" y1="4" x2="6" y2="8" /><line x1="6" y1="12" x2="6" y2="20" /><rect x="10" y="14" width="4" height="4" /><line x1="12" y1="4" x2="12" y2="14" /><line x1="12" y1="18" x2="12" y2="20" /><rect x="16" y="5" width="4" height="4" /><line x1="18" y1="4" x2="18" y2="5" /><line x1="18" y1="9" x2="18" y2="20" />
</symbol>
	<symbol id="adjustments-horizontal" class="icon icon-tabler icon-tabler-adjustments-horizontal" viewBox="0 0 24 24" stroke-width="2" stroke="currentColor" fill="none" stroke-linecap="round" stroke-linejoin="round"><path stroke="none" d="M0 0h24v24H0z"/><circle cx="14" cy="6" r="2" /><line x1="4" y1="6" x2="12" y2="6" /><line x1="16" y1="6" x2="20" y2="6" /><circle cx="8" cy="12" r="2" /><line x1="4" y1="12" x2="6" y2="12" /><line x1="10" y1="12" x2="20" y2="12" /><circle cx="17" cy="18" r="2" /><line x1="4" y1="18" x2="15" y2="18" /><line x1="19" y1="18" x2="20" y2="18" />
</symbol>
	<symbol id="camera-minus" class="icon icon-tabler icon-tabler-camera-minus" viewBox="0 0 24 24" stroke-width="2" stroke="currentColor" fill="none" stroke-linecap="round" stroke-linejoin="round"><path stroke="none" d="M0 0h24v24H0z"/><circle cx="12" cy="13" r="3" /><path d="M5 7h1a2 2 0 0 0 2 -2a1 1 0 0 1 1 -1h3m9 6v8a2 2 0 0 1 -2 2h-14a2 2 0 0 1 -2 -2v-9a2 2 0 0 1 2 -2" /><line x1="15" y1="6" x2="21" y2="6" />
</symbol>
	<symbol id="camera-plus" class="icon icon-tabler icon-tabler-camera-plus" viewBox="0 0 24 24" stroke-width="2" stroke="currentColor" fill="none" stroke-linecap="round" stroke-linejoin="round"><path stroke="none" d="M0 0h24v24H0z"/><circle cx="12" cy="13" r="3" /><path d="M5 7h1a2 2 0 0 0 2 -2a1 1 0 0 1 1 -1h2m9 7v7a2 2 0 0 1 -2 2h-14a2 2 0 0 1 -2 -2v-9a2 2 0 0 1 2 -2" /><line x1="15" y1="6" x2="21" y2="6" /><line x1="18" y1="3" x2="18" y2="9" />
</symbol>
	<symbol id="capture" class="icon icon-tabler icon-tabler-capture" viewBox="0 0 24 24" stroke-width="2" stroke="currentColor" fill="none" stroke-linecap="round" stroke-linejoin="round"><path stroke="none" d="M0 0h24v24H0z"/><path d="M4 8v-2a2 2 0 0 1 2 -2h2" /><path d="M4 16v2a2 2 0 0 0 2 2h2" /><path d="M16 4h2a2 2 0 0 1 2 2v2" /><path d="M16 20h2a2 2 0 0 0 2 -2v-2" /><circle cx="12" cy="12" r="3" />
</symbol>
	<symbol id="copyleft" class="icon icon-tabler icon-tabler-copyleft" viewBox="0 0 24 24" stroke-width="2" stroke="currentColor" fill="none" stroke-linecap="round" stroke-linejoin="round"><path stroke="none" d="M0 0h24v24H0z"/><circle cx="12" cy="12" r="9" /><path d="M9.5 9a3.5 4 0 1 1 0 6" />
</symbol>
	<symbol id="crosshair" class="icon icon-tabler icon-tabler-crosshair" viewBox="0 0 24 24" stroke-width="2" stroke="currentColor" fill="none" stroke-linecap="round" stroke-linejoin="round"><path stroke="none" d="M0 0h24v24H0z"/><path d="M4 8v-2a2 2 0 0 1 2 -2h2" /><path d="M4 16v2a2 2 0 0 0 2 2h2" /><path d="M16 4h2a2 2 0 0 1 2 2v2" /><path d="M16 20h2a2 2 0 0 0 2 -2v-2" /><line x1="9" y1="12" x2="15" y2="12" /><line x1="12" y1="9" x2="12" y2="15" />
</symbol>
	<symbol id="layout-kanban" class="icon icon-tabler icon-tabler-layout-kanban" viewBox="0 0 24 24" stroke-width="2" stroke="currentColor" fill="none" stroke-linecap="round" stroke-linejoin="round"><path stroke="none" d="M0 0h24v24H0z"/><line x1="4" y1="4" x2="10" y2="4" /><line x1="14" y1="4" x2="20" y2="4" /><rect x="4" y="8" width="6" height="12" rx="2" /><rect x="14" y="8" width="6" height="6" rx="2" />
</symbol>
	<symbol id="line" class="icon icon-tabler icon-tabler-line" viewBox="0 0 24 24" stroke-width="2" stroke="currentColor" fill="none" stroke-linecap="round" stroke-linejoin="round"><path stroke="none" d="M0 0h24v24H0z"/><circle cx="6" cy="18" r="2" /><circle cx="18" cy="6" r="2" /><line x1="7.5" y1="16.5" x2="16.5" y2="7.5" />
</symbol>
	<symbol id="markdown" class="icon icon-tabler icon-tabler-markdown" viewBox="0 0 24 24" stroke-width="2" stroke="currentColor" fill="none" stroke-linecap="round" stroke-linejoin="round"><path stroke="none" d="M0 0h24v24H0z"/><rect x="3" y="5" width="18" height="14" rx="2" /><path d="M7 15v-6l2 2l2 -2v6" /><path d="M14 13l2 2l2 -2m-2 2v-6" />
</symbol>
	<symbol id="menu-2" class="icon icon-tabler icon-tabler-menu-2" viewBox="0 0 24 24" stroke-width="2" stroke="currentColor" fill="none" stroke-linecap="round" stroke-linejoin="round"><path stroke="none" d="M0 0h24v24H0z"/><line x1="4" y1="6" x2="20" y2="6" /><line x1="4" y1="12" x2="20" y2="12" /><line x1="4" y1="18" x2="20" y2="18" />
</symbol>
	<symbol id="phone-calling" class="icon icon-tabler icon-tabler-phone-calling" viewBox="0 0 24 24" stroke-width="2" stroke="currentColor" fill="none" stroke-linecap="round" stroke-linejoin="round"><path stroke="none" d="M0 0h24v24H0z"/><path d="M5 4h4l2 5l-2.5 1.5a11 11 0 0 0 5 5l1.5 -2.5l5 2v4a2 2 0 0 1 -2 2a16 16 0 0 1 -15 -15a2 2 0 0 1 2 -2" /><line x1="15" y1="7" x2="15" y2="7.01" /><line x1="18" y1="7" x2="18" y2="7.01" /><line x1="21" y1="7" x2="21" y2="7.01" />
</symbol>
	<symbol id="rocket" class="icon icon-tabler icon-tabler-rocket" viewBox="0 0 24 24" stroke-width="2" stroke="currentColor" fill="none" stroke-linecap="round" stroke-linejoin="round"><path stroke="none" d="M0 0h24v24H0z"/><path d="M4 13a8 8 0 0 1 7 7a6 6 0 0 0 3 -5a9 9 0 0 0 6 -8a3 3 0 0 0 -3 -3a9 9 0 0 0 -8 6a6 6 0 0 0 -5 3" /><path d="M7 14a6 6 0 0 0 -3 6a6 6 0 0 0 6 -3" /><circle cx="15" cy="9" r="1"  />
</symbol>
	<symbol id="tallymark-1" class="icon icon-tabler icon-tabler-tallymark-1" viewBox="0 0 24 24" stroke-width="2" stroke="currentColor" fill="none" stroke-linecap="round" stroke-linejoin="round"><path stroke="none" d="M0 0h24v24H0z"/><line x1="12" y1="5" x2="12" y2="19" />
</symbol>
	<symbol id="tallymark-2" class="icon icon-tabler icon-tabler-tallymark-2" viewBox="0 0 24 24" stroke-width="2" stroke="currentColor" fill="none" stroke-linecap="round" stroke-linejoin="round"><path stroke="none" d="M0 0h24v24H0z"/><line x1="10" y1="5" x2="10" y2="19" /><line x1="14" y1="5" x2="14" y2="19" />
</symbol>
	<symbol id="tallymark-3" class="icon icon-tabler icon-tabler-tallymark-3" viewBox="0 0 24 24" stroke-width="2" stroke="currentColor" fill="none" stroke-linecap="round" stroke-linejoin="round"><path stroke="none" d="M0 0h24v24H0z"/><line x1="8" y1="5" x2="8" y2="19" /><line x1="12" y1="5" x2="12" y2="19" /><line x1="16" y1="5" x2="16" y2="19" />
</symbol>
	<symbol id="tallymark-4" class="icon icon-tabler icon-tabler-tallymark-4" viewBox="0 0 24 24" stroke-width="2" stroke="currentColor" fill="none" stroke-linecap="round" stroke-linejoin="round"><path stroke="none" d="M0 0h24v24H0z"/><line x1="6" y1="5" x2="6" y2="19" /><line x1="10" y1="5" x2="10" y2="19" /><line x1="14" y1="5" x2="14" y2="19" /><line x1="18" y1="5" x2="18" y2="19" />
</symbol>
	<symbol id="tallymarks" class="icon icon-tabler icon-tabler-tallymarks" viewBox="0 0 24 24" stroke-width="2" stroke="currentColor" fill="none" stroke-linecap="round" stroke-linejoin="round"><path stroke="none" d="M0 0h24v24H0z"/><line x1="6" y1="5" x2="6" y2="19" /><line x1="10" y1="5" x2="10" y2="19" /><line x1="14" y1="5" x2="14" y2="19" /><line x1="18" y1="5" x2="18" y2="19" /><line x1="3" y1="17" x2="21" y2="7" />
</symbol>
	<symbol id="truck-delivery" class="icon icon-tabler icon-tabler-truck-delivery" viewBox="0 0 24 24" stroke-width="2" stroke="currentColor" fill="none" stroke-linecap="round" stroke-linejoin="round"><path stroke="none" d="M0 0h24v24H0z"/><circle cx="7" cy="17" r="2" /><circle cx="17" cy="17" r="2" /><path d="M5 17h-2v-4m-1 -8h11v12m-4 0h6m4 0h2v-6h-8m0 -5h5l3 5" /><line x1="3" y1="9" x2="7" y2="9" />
</symbol>
	<symbol id="truck-return" class="icon icon-tabler icon-tabler-truck-return" viewBox="0 0 24 24" stroke-width="2" stroke="currentColor" fill="none" stroke-linecap="round" stroke-linejoin="round"><path stroke="none" d="M0 0h24v24H0z"/><circle cx="7" cy="17" r="2" /><circle cx="17" cy="17" r="2" /><path d="M5 17h-2v-11a1 1 0 0 1 1 -1h9v6h-5l2 2m0 -4l-2 2" /><path d="M9 17h6" /><path d="M13 6h5l3 5v6h-2" />
</symbol>
	<symbol id="zoom-cancel" class="icon icon-tabler icon-tabler-zoom-cancel" viewBox="0 0 24 24" stroke-width="2" stroke="currentColor" fill="none" stroke-linecap="round" stroke-linejoin="round"><path stroke="none" d="M0 0h24v24H0z"/><circle cx="10" cy="10" r="7" /><line x1="8" y1="8" x2="12" y2="12" /><line x1="12" y1="8" x2="8" y2="12" /><line x1="21" y1="21" x2="15" y2="15" />
</symbol>

	<use xlink:href="#a-b" x="24" y="24" width="24" height="24" />
	<use xlink:href="#adjustments-alt" x="76" y="24" width="24" height="24" />
	<use xlink:href="#adjustments-horizontal" x="128" y="24" width="24" height="24" />
	<use xlink:href="#camera-minus" x="180" y="24" width="24" height="24" />
	<use xlink:href="#camera-plus" x="232" y="24" width="24" height="24" />
	<use xlink:href="#capture" x="284" y="24" width="24" height="24" />
	<use xlink:href="#copyleft" x="24" y="76" width="24" height="24" />
	<use xlink:href="#crosshair" x="76" y="76" width="24" height="24" />
	<use xlink:href="#layout-kanban" x="128" y="76" width="24" height="24" />
	<use xlink:href="#line" x="180" y="76" width="24" height="24" />
	<use xlink:href="#markdown" x="232" y="76" width="24" height="24" />
	<use xlink:href="#menu-2" x="284" y="76" width="24" height="24" />
	<use xlink:href="#phone-calling" x="24" y="128" width="24" height="24" />
	<use xlink:href="#rocket" x="76" y="128" width="24" height="24" />
	<use xlink:href="#tallymark-1" x="128" y="128" width="24" height="24" />
	<use xlink:href="#tallymark-2" x="180" y="128" width="24" height="24" />
	<use xlink:href="#tallymark-3" x="232" y="128" width="24" height="24" />
	<use xlink:href="#tallymark-4" x="284" y="128" width="24" height="24" />
	<use xlink:href="#tallymarks" x="24" y="180" width="24" height="24" />
	<use xlink:href="#truck-delivery" x="76" y="180" width="24" height="24" />
	<use xlink:href="#truck-return" x="128" y="180" width="24" height="24" />
	<use xlink:href="#zoom-cancel" x="180" y="180" width="24" height="24" />

</svg>