<svg xmlns="http://www.w3.org/2000/svg" xmlns:xlink="http://www.w3.org/1999/xlink" viewBox="0 0 292 644" width="292" height="644" style="color: #354052"><rect x="0" y="0" width="292" height="644" fill="#fff"></rect>
	<symbol id="circle-a" class="icon icon-tabler icon-tabler-circle-a" viewBox="0 0 24 24" stroke-width="2" stroke="currentColor" fill="none" stroke-linecap="round" stroke-linejoin="round"><path stroke="none" d="M0 0h24v24H0z" fill="none"/><circle cx="12" cy="12" r="9" /><path d="M10 16v-6a2 2 0 1 1 4 0v6" /><path d="M10 13h4" />
</symbol>
	<symbol id="circle-b" class="icon icon-tabler icon-tabler-circle-b" viewBox="0 0 24 24" stroke-width="2" stroke="currentColor" fill="none" stroke-linecap="round" stroke-linejoin="round"><path stroke="none" d="M0 0h24v24H0z" fill="none"/><circle cx="12" cy="12" r="9" /><path d="M10 16h2a2 2 0 1 0 0 -4h-2h2a2 2 0 1 0 0 -4h-2v8z" />
</symbol>
	<symbol id="circle-c" class="icon icon-tabler icon-tabler-circle-c" viewBox="0 0 24 24" stroke-width="2" stroke="currentColor" fill="none" stroke-linecap="round" stroke-linejoin="round"><path stroke="none" d="M0 0h24v24H0z" fill="none"/><circle cx="12" cy="12" r="9" /><path d="M14 10a2 2 0 1 0 -4 0v4a2 2 0 1 0 4 0" />
</symbol>
	<symbol id="circle-d" class="icon icon-tabler icon-tabler-circle-d" viewBox="0 0 24 24" stroke-width="2" stroke="currentColor" fill="none" stroke-linecap="round" stroke-linejoin="round"><path stroke="none" d="M0 0h24v24H0z" fill="none"/><circle cx="12" cy="12" r="9" /><path d="M10 8v8h2a2 2 0 0 0 2 -2v-4a2 2 0 0 0 -2 -2h-2z" />
</symbol>
	<symbol id="circle-e" class="icon icon-tabler icon-tabler-circle-e" viewBox="0 0 24 24" stroke-width="2" stroke="currentColor" fill="none" stroke-linecap="round" stroke-linejoin="round"><path stroke="none" d="M0 0h24v24H0z" fill="none"/><circle cx="12" cy="12" r="9" /><path d="M14 8h-4v8h4" /><path d="M10 12h2.5" />
</symbol>
	<symbol id="circle-f" class="icon icon-tabler icon-tabler-circle-f" viewBox="0 0 24 24" stroke-width="2" stroke="currentColor" fill="none" stroke-linecap="round" stroke-linejoin="round"><path stroke="none" d="M0 0h24v24H0z" fill="none"/><circle cx="12" cy="12" r="9" /><path d="M10 12h3" /><path d="M14 8h-4v8" />
</symbol>
	<symbol id="circle-g" class="icon icon-tabler icon-tabler-circle-g" viewBox="0 0 24 24" stroke-width="2" stroke="currentColor" fill="none" stroke-linecap="round" stroke-linejoin="round"><path stroke="none" d="M0 0h24v24H0z" fill="none"/><circle cx="12" cy="12" r="9" /><path d="M14 8h-2a2 2 0 0 0 -2 2v4a2 2 0 0 0 2 2h2v-4h-1" />
</symbol>
	<symbol id="circle-h" class="icon icon-tabler icon-tabler-circle-h" viewBox="0 0 24 24" stroke-width="2" stroke="currentColor" fill="none" stroke-linecap="round" stroke-linejoin="round"><path stroke="none" d="M0 0h24v24H0z" fill="none"/><circle cx="12" cy="12" r="9" /><path d="M10 16v-8m4 0v8" /><path d="M10 12h4" />
</symbol>
	<symbol id="circle-i" class="icon icon-tabler icon-tabler-circle-i" viewBox="0 0 24 24" stroke-width="2" stroke="currentColor" fill="none" stroke-linecap="round" stroke-linejoin="round"><path stroke="none" d="M0 0h24v24H0z" fill="none"/><circle cx="12" cy="12" r="9" /><path d="M12 8v8" />
</symbol>
	<symbol id="circle-j" class="icon icon-tabler icon-tabler-circle-j" viewBox="0 0 24 24" stroke-width="2" stroke="currentColor" fill="none" stroke-linecap="round" stroke-linejoin="round"><path stroke="none" d="M0 0h24v24H0z" fill="none"/><circle cx="12" cy="12" r="9" /><path d="M10 8h4v6a2 2 0 1 1 -4 0" />
</symbol>
	<symbol id="circle-k" class="icon icon-tabler icon-tabler-circle-k" viewBox="0 0 24 24" stroke-width="2" stroke="currentColor" fill="none" stroke-linecap="round" stroke-linejoin="round"><path stroke="none" d="M0 0h24v24H0z" fill="none"/><circle cx="12" cy="12" r="9" /><path d="M10 8v8" /><path d="M14 8l-2.5 4l2.5 4" /><path d="M10 12h1.5" />
</symbol>
	<symbol id="circle-l" class="icon icon-tabler icon-tabler-circle-l" viewBox="0 0 24 24" stroke-width="2" stroke="currentColor" fill="none" stroke-linecap="round" stroke-linejoin="round"><path stroke="none" d="M0 0h24v24H0z" fill="none"/><circle cx="12" cy="12" r="9" /><path d="M10 8v8h4" />
</symbol>
	<symbol id="circle-m" class="icon icon-tabler icon-tabler-circle-m" viewBox="0 0 24 24" stroke-width="2" stroke="currentColor" fill="none" stroke-linecap="round" stroke-linejoin="round"><path stroke="none" d="M0 0h24v24H0z" fill="none"/><circle cx="12" cy="12" r="9" /><path d="M9 16v-8l3 5l3 -5v8" />
</symbol>
	<symbol id="circle-n" class="icon icon-tabler icon-tabler-circle-n" viewBox="0 0 24 24" stroke-width="2" stroke="currentColor" fill="none" stroke-linecap="round" stroke-linejoin="round"><path stroke="none" d="M0 0h24v24H0z" fill="none"/><circle cx="12" cy="12" r="9" /><path d="M10 16v-8l4 8v-8" />
</symbol>
	<symbol id="circle-o" class="icon icon-tabler icon-tabler-circle-o" viewBox="0 0 24 24" stroke-width="2" stroke="currentColor" fill="none" stroke-linecap="round" stroke-linejoin="round"><path stroke="none" d="M0 0h24v24H0z" fill="none"/><circle cx="12" cy="12" r="9" /><path d="M12 8a2 2 0 0 1 2 2v4a2 2 0 1 1 -4 0v-4a2 2 0 0 1 2 -2z" />
</symbol>
	<symbol id="circle-p" class="icon icon-tabler icon-tabler-circle-p" viewBox="0 0 24 24" stroke-width="2" stroke="currentColor" fill="none" stroke-linecap="round" stroke-linejoin="round"><path stroke="none" d="M0 0h24v24H0z" fill="none"/><circle cx="12" cy="12" r="9" /><path d="M10 12h2a2 2 0 1 0 0 -4h-2v8" />
</symbol>
	<symbol id="circle-q" class="icon icon-tabler icon-tabler-circle-q" viewBox="0 0 24 24" stroke-width="2" stroke="currentColor" fill="none" stroke-linecap="round" stroke-linejoin="round"><path stroke="none" d="M0 0h24v24H0z" fill="none"/><circle cx="12" cy="12" r="9" /><path d="M12 8a2 2 0 0 1 2 2v4a2 2 0 1 1 -4 0v-4a2 2 0 0 1 2 -2z" /><path d="M13 15l1 1" />
</symbol>
	<symbol id="circle-r" class="icon icon-tabler icon-tabler-circle-r" viewBox="0 0 24 24" stroke-width="2" stroke="currentColor" fill="none" stroke-linecap="round" stroke-linejoin="round"><path stroke="none" d="M0 0h24v24H0z" fill="none"/><circle cx="12" cy="12" r="9" /><path d="M10 12h2a2 2 0 1 0 0 -4h-2v8m4 0l-3 -4" />
</symbol>
	<symbol id="circle-s" class="icon icon-tabler icon-tabler-circle-s" viewBox="0 0 24 24" stroke-width="2" stroke="currentColor" fill="none" stroke-linecap="round" stroke-linejoin="round"><path stroke="none" d="M0 0h24v24H0z" fill="none"/><circle cx="12" cy="12" r="9" /><path d="M10 15a1 1 0 0 0 1 1h2a1 1 0 0 0 1 -1v-2a1 1 0 0 0 -1 -1h-2a1 1 0 0 1 -1 -1v-2a1 1 0 0 1 1 -1h2a1 1 0 0 1 1 1" />
</symbol>
	<symbol id="circle-t" class="icon icon-tabler icon-tabler-circle-t" viewBox="0 0 24 24" stroke-width="2" stroke="currentColor" fill="none" stroke-linecap="round" stroke-linejoin="round"><path stroke="none" d="M0 0h24v24H0z" fill="none"/><circle cx="12" cy="12" r="9" /><path d="M10 8h4" /><path d="M12 8v8" />
</symbol>
	<symbol id="circle-u" class="icon icon-tabler icon-tabler-circle-u" viewBox="0 0 24 24" stroke-width="2" stroke="currentColor" fill="none" stroke-linecap="round" stroke-linejoin="round"><path stroke="none" d="M0 0h24v24H0z" fill="none"/><circle cx="12" cy="12" r="9" /><path d="M10 8v6a2 2 0 1 0 4 0v-6" />
</symbol>
	<symbol id="circle-w" class="icon icon-tabler icon-tabler-circle-w" viewBox="0 0 24 24" stroke-width="2" stroke="currentColor" fill="none" stroke-linecap="round" stroke-linejoin="round"><path stroke="none" d="M0 0h24v24H0z" fill="none"/><circle cx="12" cy="12" r="9" /><path d="M9 8l1 8l2 -5l2 5l1 -8" />
</symbol>
	<symbol id="circle-y" class="icon icon-tabler icon-tabler-circle-y" viewBox="0 0 24 24" stroke-width="2" stroke="currentColor" fill="none" stroke-linecap="round" stroke-linejoin="round"><path stroke="none" d="M0 0h24v24H0z" fill="none"/><circle cx="12" cy="12" r="9" /><path d="M10 8l2 5l2 -5" /><path d="M12 16v-3" />
</symbol>
	<symbol id="circle-z" class="icon icon-tabler icon-tabler-circle-z" viewBox="0 0 24 24" stroke-width="2" stroke="currentColor" fill="none" stroke-linecap="round" stroke-linejoin="round"><path stroke="none" d="M0 0h24v24H0z" fill="none"/><circle cx="12" cy="12" r="9" /><path d="M10 8h4l-4 8h4" />
</symbol>
	<symbol id="hexagon-0" class="icon icon-tabler icon-tabler-hexagon-0" viewBox="0 0 24 24" stroke-width="2" stroke="currentColor" fill="none" stroke-linecap="round" stroke-linejoin="round"><path stroke="none" d="M0 0h24v24H0z" fill="none"/><path d="M19 6.873a2 2 0 0 1 1 1.747v6.536a2 2 0 0 1 -1.029 1.748l-6 3.833a2 2 0 0 1 -1.942 0l-6 -3.833a2 2 0 0 1 -1.029 -1.747v-6.537a2 2 0 0 1 1.029 -1.748l6 -3.572a2.056 2.056 0 0 1 2 0l6 3.573h-.029z" /><path d="M10 10v4a2 2 0 1 0 4 0v-4a2 2 0 1 0 -4 0z" />
</symbol>
	<symbol id="hexagon-1" class="icon icon-tabler icon-tabler-hexagon-1" viewBox="0 0 24 24" stroke-width="2" stroke="currentColor" fill="none" stroke-linecap="round" stroke-linejoin="round"><path stroke="none" d="M0 0h24v24H0z" fill="none"/><path d="M19 6.873a2 2 0 0 1 1 1.747v6.536a2 2 0 0 1 -1.029 1.748l-6 3.833a2 2 0 0 1 -1.942 0l-6 -3.833a2 2 0 0 1 -1.029 -1.747v-6.537a2 2 0 0 1 1.029 -1.748l6 -3.572a2.056 2.056 0 0 1 2 0l6 3.573h-.029z" /><path d="M10 10l2 -2v8" />
</symbol>
	<symbol id="hexagon-2" class="icon icon-tabler icon-tabler-hexagon-2" viewBox="0 0 24 24" stroke-width="2" stroke="currentColor" fill="none" stroke-linecap="round" stroke-linejoin="round"><path stroke="none" d="M0 0h24v24H0z" fill="none"/><path d="M19 6.873a2 2 0 0 1 1 1.747v6.536a2 2 0 0 1 -1.029 1.748l-6 3.833a2 2 0 0 1 -1.942 0l-6 -3.833a2 2 0 0 1 -1.029 -1.747v-6.537a2 2 0 0 1 1.029 -1.748l6 -3.572a2.056 2.056 0 0 1 2 0l6 3.573h-.029z" /><path d="M10 8h3a1 1 0 0 1 1 1v2a1 1 0 0 1 -1 1h-2a1 1 0 0 0 -1 1v2a1 1 0 0 0 1 1h3" />
</symbol>
	<symbol id="hexagon-3" class="icon icon-tabler icon-tabler-hexagon-3" viewBox="0 0 24 24" stroke-width="2" stroke="currentColor" fill="none" stroke-linecap="round" stroke-linejoin="round"><path stroke="none" d="M0 0h24v24H0z" fill="none"/><path d="M19 6.873a2 2 0 0 1 1 1.747v6.536a2 2 0 0 1 -1.029 1.748l-6 3.833a2 2 0 0 1 -1.942 0l-6 -3.833a2 2 0 0 1 -1.029 -1.747v-6.537a2 2 0 0 1 1.029 -1.748l6 -3.572a2.056 2.056 0 0 1 2 0l6 3.573h-.029z" /><path d="M10 9a1 1 0 0 1 1 -1h2a1 1 0 0 1 1 1v2a1 1 0 0 1 -1 1h-2h2a1 1 0 0 1 1 1v2a1 1 0 0 1 -1 1h-2a1 1 0 0 1 -1 -1" />
</symbol>
	<symbol id="hexagon-4" class="icon icon-tabler icon-tabler-hexagon-4" viewBox="0 0 24 24" stroke-width="2" stroke="currentColor" fill="none" stroke-linecap="round" stroke-linejoin="round"><path stroke="none" d="M0 0h24v24H0z" fill="none"/><path d="M19 6.873a2 2 0 0 1 1 1.747v6.536a2 2 0 0 1 -1.029 1.748l-6 3.833a2 2 0 0 1 -1.942 0l-6 -3.833a2 2 0 0 1 -1.029 -1.747v-6.537a2 2 0 0 1 1.029 -1.748l6 -3.572a2.056 2.056 0 0 1 2 0l6 3.573h-.029z" /><path d="M10 8v3a1 1 0 0 0 1 1h3" /><path d="M14 8v8" />
</symbol>
	<symbol id="hexagon-5" class="icon icon-tabler icon-tabler-hexagon-5" viewBox="0 0 24 24" stroke-width="2" stroke="currentColor" fill="none" stroke-linecap="round" stroke-linejoin="round"><path stroke="none" d="M0 0h24v24H0z" fill="none"/><path d="M19 6.873a2 2 0 0 1 1 1.747v6.536a2 2 0 0 1 -1.029 1.748l-6 3.833a2 2 0 0 1 -1.942 0l-6 -3.833a2 2 0 0 1 -1.029 -1.747v-6.537a2 2 0 0 1 1.029 -1.748l6 -3.572a2.056 2.056 0 0 1 2 0l6 3.573h-.029z" /><path d="M10 15a1 1 0 0 0 1 1h2a1 1 0 0 0 1 -1v-2a1 1 0 0 0 -1 -1h-3v-4h4" />
</symbol>
	<symbol id="hexagon-6" class="icon icon-tabler icon-tabler-hexagon-6" viewBox="0 0 24 24" stroke-width="2" stroke="currentColor" fill="none" stroke-linecap="round" stroke-linejoin="round"><path stroke="none" d="M0 0h24v24H0z" fill="none"/><path d="M19 6.873a2 2 0 0 1 1 1.747v6.536a2 2 0 0 1 -1.029 1.748l-6 3.833a2 2 0 0 1 -1.942 0l-6 -3.833a2 2 0 0 1 -1.029 -1.747v-6.537a2 2 0 0 1 1.029 -1.748l6 -3.572a2.056 2.056 0 0 1 2 0l6 3.573h-.029z" /><path d="M14 9a1 1 0 0 0 -1 -1h-2a1 1 0 0 0 -1 1v6a1 1 0 0 0 1 1h2a1 1 0 0 0 1 -1v-2a1 1 0 0 0 -1 -1h-3" />
</symbol>
	<symbol id="hexagon-7" class="icon icon-tabler icon-tabler-hexagon-7" viewBox="0 0 24 24" stroke-width="2" stroke="currentColor" fill="none" stroke-linecap="round" stroke-linejoin="round"><path stroke="none" d="M0 0h24v24H0z" fill="none"/><path d="M19.02 6.858a2.006 2.006 0 0 1 1.003 1.752v6.555c0 .728 -.395 1.4 -1.032 1.753l-6.017 3.844a2.006 2.006 0 0 1 -1.948 0l-6.016 -3.844a2.006 2.006 0 0 1 -1.032 -1.752v-6.556c0 -.728 .395 -1.4 1.032 -1.753l6.017 -3.582a2.062 2.062 0 0 1 2.006 0l6.017 3.583h-.029z" /><path d="M10 8h4l-2 8" />
</symbol>
	<symbol id="hexagon-8" class="icon icon-tabler icon-tabler-hexagon-8" viewBox="0 0 24 24" stroke-width="2" stroke="currentColor" fill="none" stroke-linecap="round" stroke-linejoin="round"><path stroke="none" d="M0 0h24v24H0z" fill="none"/><path d="M19 6.873a2 2 0 0 1 1 1.747v6.536a2 2 0 0 1 -1.029 1.748l-6 3.833a2 2 0 0 1 -1.942 0l-6 -3.833a2 2 0 0 1 -1.029 -1.747v-6.537a2 2 0 0 1 1.029 -1.748l6 -3.572a2.056 2.056 0 0 1 2 0l6 3.573h-.029z" /><path d="M12 12h-1a1 1 0 0 1 -1 -1v-2a1 1 0 0 1 1 -1h2a1 1 0 0 1 1 1v2a1 1 0 0 1 -1 1h-2a1 1 0 0 0 -1 1v2a1 1 0 0 0 1 1h2a1 1 0 0 0 1 -1v-2a1 1 0 0 0 -1 -1" />
</symbol>
	<symbol id="hexagon-9" class="icon icon-tabler icon-tabler-hexagon-9" viewBox="0 0 24 24" stroke-width="2" stroke="currentColor" fill="none" stroke-linecap="round" stroke-linejoin="round"><path stroke="none" d="M0 0h24v24H0z" fill="none"/><path d="M19 6.873a2 2 0 0 1 1 1.747v6.536a2 2 0 0 1 -1.029 1.748l-6 3.833a2 2 0 0 1 -1.942 0l-6 -3.833a2 2 0 0 1 -1.029 -1.747v-6.537a2 2 0 0 1 1.029 -1.748l6 -3.572a2.056 2.056 0 0 1 2 0l6 3.573h-.029z" /><path d="M10 15a1 1 0 0 0 1 1h2a1 1 0 0 0 1 -1v-6a1 1 0 0 0 -1 -1h-2a1 1 0 0 0 -1 1v2a1 1 0 0 0 1 1h3" />
</symbol>
	<symbol id="hexagon-a" class="icon icon-tabler icon-tabler-hexagon-a" viewBox="0 0 24 24" stroke-width="2" stroke="currentColor" fill="none" stroke-linecap="round" stroke-linejoin="round"><path stroke="none" d="M0 0h24v24H0z" fill="none"/><path d="M19 6.873a2 2 0 0 1 1 1.747v6.536a2 2 0 0 1 -1.029 1.748l-6 3.833a2 2 0 0 1 -1.942 0l-6 -3.833a2 2 0 0 1 -1.029 -1.747v-6.537a2 2 0 0 1 1.029 -1.748l6 -3.572a2.056 2.056 0 0 1 2 0l6 3.573h-.029z" /><path d="M10 16v-6a2 2 0 1 1 4 0v6" /><path d="M10 13h4" />
</symbol>
	<symbol id="hexagon-b" class="icon icon-tabler icon-tabler-hexagon-b" viewBox="0 0 24 24" stroke-width="2" stroke="currentColor" fill="none" stroke-linecap="round" stroke-linejoin="round"><path stroke="none" d="M0 0h24v24H0z" fill="none"/><path d="M19 6.873a2 2 0 0 1 1 1.747v6.536a2 2 0 0 1 -1.029 1.748l-6 3.833a2 2 0 0 1 -1.942 0l-6 -3.833a2 2 0 0 1 -1.029 -1.747v-6.537a2 2 0 0 1 1.029 -1.748l6 -3.572a2.056 2.056 0 0 1 2 0l6 3.573h-.029z" /><path d="M10 16h2a2 2 0 1 0 0 -4h-2h2a2 2 0 1 0 0 -4h-2v8z" />
</symbol>
	<symbol id="hexagon-c" class="icon icon-tabler icon-tabler-hexagon-c" viewBox="0 0 24 24" stroke-width="2" stroke="currentColor" fill="none" stroke-linecap="round" stroke-linejoin="round"><path stroke="none" d="M0 0h24v24H0z" fill="none"/><path d="M19 6.873a2 2 0 0 1 1 1.747v6.536a2 2 0 0 1 -1.029 1.748l-6 3.833a2 2 0 0 1 -1.942 0l-6 -3.833a2 2 0 0 1 -1.029 -1.747v-6.537a2 2 0 0 1 1.029 -1.748l6 -3.572a2.056 2.056 0 0 1 2 0l6 3.573h-.029z" /><path d="M14 10a2 2 0 1 0 -4 0v4a2 2 0 1 0 4 0" />
</symbol>
	<symbol id="hexagon-d" class="icon icon-tabler icon-tabler-hexagon-d" viewBox="0 0 24 24" stroke-width="2" stroke="currentColor" fill="none" stroke-linecap="round" stroke-linejoin="round"><path stroke="none" d="M0 0h24v24H0z" fill="none"/><path d="M19 6.873a2 2 0 0 1 1 1.747v6.536a2 2 0 0 1 -1.029 1.748l-6 3.833a2 2 0 0 1 -1.942 0l-6 -3.833a2 2 0 0 1 -1.029 -1.747v-6.537a2 2 0 0 1 1.029 -1.748l6 -3.572a2.056 2.056 0 0 1 2 0l6 3.573h-.029z" /><path d="M10 8v8h2a2 2 0 0 0 2 -2v-4a2 2 0 0 0 -2 -2h-2z" />
</symbol>
	<symbol id="hexagon-e" class="icon icon-tabler icon-tabler-hexagon-e" viewBox="0 0 24 24" stroke-width="2" stroke="currentColor" fill="none" stroke-linecap="round" stroke-linejoin="round"><path stroke="none" d="M0 0h24v24H0z" fill="none"/><path d="M19 6.873a2 2 0 0 1 1 1.747v6.536a2 2 0 0 1 -1.029 1.748l-6 3.833a2 2 0 0 1 -1.942 0l-6 -3.833a2 2 0 0 1 -1.029 -1.747v-6.537a2 2 0 0 1 1.029 -1.748l6 -3.572a2.056 2.056 0 0 1 2 0l6 3.573h-.029z" /><path d="M14 8h-4v8h4" /><path d="M10 12h2.5" />
</symbol>
	<symbol id="hexagon-f" class="icon icon-tabler icon-tabler-hexagon-f" viewBox="0 0 24 24" stroke-width="2" stroke="currentColor" fill="none" stroke-linecap="round" stroke-linejoin="round"><path stroke="none" d="M0 0h24v24H0z" fill="none"/><path d="M19 6.873a2 2 0 0 1 1 1.747v6.536a2 2 0 0 1 -1.029 1.748l-6 3.833a2 2 0 0 1 -1.942 0l-6 -3.833a2 2 0 0 1 -1.029 -1.747v-6.537a2 2 0 0 1 1.029 -1.748l6 -3.572a2.056 2.056 0 0 1 2 0l6 3.573h-.029z" /><path d="M10 12h3" /><path d="M14 8h-4v8" />
</symbol>
	<symbol id="hexagon-g" class="icon icon-tabler icon-tabler-hexagon-g" viewBox="0 0 24 24" stroke-width="2" stroke="currentColor" fill="none" stroke-linecap="round" stroke-linejoin="round"><path stroke="none" d="M0 0h24v24H0z" fill="none"/><path d="M19 6.873a2 2 0 0 1 1 1.747v6.536a2 2 0 0 1 -1.029 1.748l-6 3.833a2 2 0 0 1 -1.942 0l-6 -3.833a2 2 0 0 1 -1.029 -1.747v-6.537a2 2 0 0 1 1.029 -1.748l6 -3.572a2.056 2.056 0 0 1 2 0l6 3.573h-.029z" /><path d="M14 8h-2a2 2 0 0 0 -2 2v4a2 2 0 0 0 2 2h2v-4h-1" />
</symbol>
	<symbol id="hexagon-h" class="icon icon-tabler icon-tabler-hexagon-h" viewBox="0 0 24 24" stroke-width="2" stroke="currentColor" fill="none" stroke-linecap="round" stroke-linejoin="round"><path stroke="none" d="M0 0h24v24H0z" fill="none"/><path d="M19 6.873a2 2 0 0 1 1 1.747v6.536a2 2 0 0 1 -1.029 1.748l-6 3.833a2 2 0 0 1 -1.942 0l-6 -3.833a2 2 0 0 1 -1.029 -1.747v-6.537a2 2 0 0 1 1.029 -1.748l6 -3.572a2.056 2.056 0 0 1 2 0l6 3.573h-.029z" /><path d="M10 16v-8m4 0v8" /><path d="M10 12h4" />
</symbol>
	<symbol id="hexagon-i" class="icon icon-tabler icon-tabler-hexagon-i" viewBox="0 0 24 24" stroke-width="2" stroke="currentColor" fill="none" stroke-linecap="round" stroke-linejoin="round"><path stroke="none" d="M0 0h24v24H0z" fill="none"/><path d="M19 6.873a2 2 0 0 1 1 1.747v6.536a2 2 0 0 1 -1.029 1.748l-6 3.833a2 2 0 0 1 -1.942 0l-6 -3.833a2 2 0 0 1 -1.029 -1.747v-6.537a2 2 0 0 1 1.029 -1.748l6 -3.572a2.056 2.056 0 0 1 2 0l6 3.573h-.029z" /><path d="M12 8v8" />
</symbol>
	<symbol id="hexagon-j" class="icon icon-tabler icon-tabler-hexagon-j" viewBox="0 0 24 24" stroke-width="2" stroke="currentColor" fill="none" stroke-linecap="round" stroke-linejoin="round"><path stroke="none" d="M0 0h24v24H0z" fill="none"/><path d="M19 6.873a2 2 0 0 1 1 1.747v6.536a2 2 0 0 1 -1.029 1.748l-6 3.833a2 2 0 0 1 -1.942 0l-6 -3.833a2 2 0 0 1 -1.029 -1.747v-6.537a2 2 0 0 1 1.029 -1.748l6 -3.572a2.056 2.056 0 0 1 2 0l6 3.573h-.029z" /><path d="M10 8h4v6a2 2 0 1 1 -4 0" />
</symbol>
	<symbol id="hexagon-k" class="icon icon-tabler icon-tabler-hexagon-k" viewBox="0 0 24 24" stroke-width="2" stroke="currentColor" fill="none" stroke-linecap="round" stroke-linejoin="round"><path stroke="none" d="M0 0h24v24H0z" fill="none"/><path d="M19 6.873a2 2 0 0 1 1 1.747v6.536a2 2 0 0 1 -1.029 1.748l-6 3.833a2 2 0 0 1 -1.942 0l-6 -3.833a2 2 0 0 1 -1.029 -1.747v-6.537a2 2 0 0 1 1.029 -1.748l6 -3.572a2.056 2.056 0 0 1 2 0l6 3.573h-.029z" /><path d="M10 8v8" /><path d="M14 8l-2.5 4l2.5 4" /><path d="M10 12h1.5" />
</symbol>
	<symbol id="hexagon-l" class="icon icon-tabler icon-tabler-hexagon-l" viewBox="0 0 24 24" stroke-width="2" stroke="currentColor" fill="none" stroke-linecap="round" stroke-linejoin="round"><path stroke="none" d="M0 0h24v24H0z" fill="none"/><path d="M19 6.873a2 2 0 0 1 1 1.747v6.536a2 2 0 0 1 -1.029 1.748l-6 3.833a2 2 0 0 1 -1.942 0l-6 -3.833a2 2 0 0 1 -1.029 -1.747v-6.537a2 2 0 0 1 1.029 -1.748l6 -3.572a2.056 2.056 0 0 1 2 0l6 3.573h-.029z" /><path d="M10 8v8h4" />
</symbol>
	<symbol id="hexagon-m" class="icon icon-tabler icon-tabler-hexagon-m" viewBox="0 0 24 24" stroke-width="2" stroke="currentColor" fill="none" stroke-linecap="round" stroke-linejoin="round"><path stroke="none" d="M0 0h24v24H0z" fill="none"/><path d="M19 6.873a2 2 0 0 1 1 1.747v6.536a2 2 0 0 1 -1.029 1.748l-6 3.833a2 2 0 0 1 -1.942 0l-6 -3.833a2 2 0 0 1 -1.029 -1.747v-6.537a2 2 0 0 1 1.029 -1.748l6 -3.572a2.056 2.056 0 0 1 2 0l6 3.573h-.029z" /><path d="M9 16v-8l3 5l3 -5v8" />
</symbol>
	<symbol id="hexagon-n" class="icon icon-tabler icon-tabler-hexagon-n" viewBox="0 0 24 24" stroke-width="2" stroke="currentColor" fill="none" stroke-linecap="round" stroke-linejoin="round"><path stroke="none" d="M0 0h24v24H0z" fill="none"/><path d="M19 6.873a2 2 0 0 1 1 1.747v6.536a2 2 0 0 1 -1.029 1.748l-6 3.833a2 2 0 0 1 -1.942 0l-6 -3.833a2 2 0 0 1 -1.029 -1.747v-6.537a2 2 0 0 1 1.029 -1.748l6 -3.572a2.056 2.056 0 0 1 2 0l6 3.573h-.029z" /><path d="M10 16v-8l4 8v-8" />
</symbol>
	<symbol id="hexagon-o" class="icon icon-tabler icon-tabler-hexagon-o" viewBox="0 0 24 24" stroke-width="2" stroke="currentColor" fill="none" stroke-linecap="round" stroke-linejoin="round"><path stroke="none" d="M0 0h24v24H0z" fill="none"/><path d="M19 6.873a2 2 0 0 1 1 1.747v6.536a2 2 0 0 1 -1.029 1.748l-6 3.833a2 2 0 0 1 -1.942 0l-6 -3.833a2 2 0 0 1 -1.029 -1.747v-6.537a2 2 0 0 1 1.029 -1.748l6 -3.572a2.056 2.056 0 0 1 2 0l6 3.573h-.029z" /><path d="M12 8a2 2 0 0 1 2 2v4a2 2 0 1 1 -4 0v-4a2 2 0 0 1 2 -2z" />
</symbol>
	<symbol id="hexagon-p" class="icon icon-tabler icon-tabler-hexagon-p" viewBox="0 0 24 24" stroke-width="2" stroke="currentColor" fill="none" stroke-linecap="round" stroke-linejoin="round"><path stroke="none" d="M0 0h24v24H0z" fill="none"/><path d="M19 6.873a2 2 0 0 1 1 1.747v6.536a2 2 0 0 1 -1.029 1.748l-6 3.833a2 2 0 0 1 -1.942 0l-6 -3.833a2 2 0 0 1 -1.029 -1.747v-6.537a2 2 0 0 1 1.029 -1.748l6 -3.572a2.056 2.056 0 0 1 2 0l6 3.573h-.029z" /><path d="M10 12h2a2 2 0 1 0 0 -4h-2v8" />
</symbol>
	<symbol id="hexagon-q" class="icon icon-tabler icon-tabler-hexagon-q" viewBox="0 0 24 24" stroke-width="2" stroke="currentColor" fill="none" stroke-linecap="round" stroke-linejoin="round"><path stroke="none" d="M0 0h24v24H0z" fill="none"/><path d="M19 6.873a2 2 0 0 1 1 1.747v6.536a2 2 0 0 1 -1.029 1.748l-6 3.833a2 2 0 0 1 -1.942 0l-6 -3.833a2 2 0 0 1 -1.029 -1.747v-6.537a2 2 0 0 1 1.029 -1.748l6 -3.572a2.056 2.056 0 0 1 2 0l6 3.573h-.029z" /><path d="M12 8a2 2 0 0 1 2 2v4a2 2 0 1 1 -4 0v-4a2 2 0 0 1 2 -2z" /><path d="M13 15l1 1" />
</symbol>
	<symbol id="hexagon-r" class="icon icon-tabler icon-tabler-hexagon-r" viewBox="0 0 24 24" stroke-width="2" stroke="currentColor" fill="none" stroke-linecap="round" stroke-linejoin="round"><path stroke="none" d="M0 0h24v24H0z" fill="none"/><path d="M19 6.873a2 2 0 0 1 1 1.747v6.536a2 2 0 0 1 -1.029 1.748l-6 3.833a2 2 0 0 1 -1.942 0l-6 -3.833a2 2 0 0 1 -1.029 -1.747v-6.537a2 2 0 0 1 1.029 -1.748l6 -3.572a2.056 2.056 0 0 1 2 0l6 3.573h-.029z" /><path d="M10 12h2a2 2 0 1 0 0 -4h-2v8m4 0l-3 -4" />
</symbol>
	<symbol id="hexagon-s" class="icon icon-tabler icon-tabler-hexagon-s" viewBox="0 0 24 24" stroke-width="2" stroke="currentColor" fill="none" stroke-linecap="round" stroke-linejoin="round"><path stroke="none" d="M0 0h24v24H0z" fill="none"/><path d="M19 6.873a2 2 0 0 1 1 1.747v6.536a2 2 0 0 1 -1.029 1.748l-6 3.833a2 2 0 0 1 -1.942 0l-6 -3.833a2 2 0 0 1 -1.029 -1.747v-6.537a2 2 0 0 1 1.029 -1.748l6 -3.572a2.056 2.056 0 0 1 2 0l6 3.573h-.029z" /><path d="M10 15a1 1 0 0 0 1 1h2a1 1 0 0 0 1 -1v-2a1 1 0 0 0 -1 -1h-2a1 1 0 0 1 -1 -1v-2a1 1 0 0 1 1 -1h2a1 1 0 0 1 1 1" />
</symbol>
	<symbol id="hexagon-t" class="icon icon-tabler icon-tabler-hexagon-t" viewBox="0 0 24 24" stroke-width="2" stroke="currentColor" fill="none" stroke-linecap="round" stroke-linejoin="round"><path stroke="none" d="M0 0h24v24H0z" fill="none"/><path d="M19 6.873a2 2 0 0 1 1 1.747v6.536a2 2 0 0 1 -1.029 1.748l-6 3.833a2 2 0 0 1 -1.942 0l-6 -3.833a2 2 0 0 1 -1.029 -1.747v-6.537a2 2 0 0 1 1.029 -1.748l6 -3.572a2.056 2.056 0 0 1 2 0l6 3.573h-.029z" /><path d="M10 8h4" /><path d="M12 8v8" />
</symbol>
	<symbol id="hexagon-u" class="icon icon-tabler icon-tabler-hexagon-u" viewBox="0 0 24 24" stroke-width="2" stroke="currentColor" fill="none" stroke-linecap="round" stroke-linejoin="round"><path stroke="none" d="M0 0h24v24H0z" fill="none"/><path d="M19 6.873a2 2 0 0 1 1 1.747v6.536a2 2 0 0 1 -1.029 1.748l-6 3.833a2 2 0 0 1 -1.942 0l-6 -3.833a2 2 0 0 1 -1.029 -1.747v-6.537a2 2 0 0 1 1.029 -1.748l6 -3.572a2.056 2.056 0 0 1 2 0l6 3.573h-.029z" /><path d="M10 8v6a2 2 0 1 0 4 0v-6" />
</symbol>
	<symbol id="hexagon-w" class="icon icon-tabler icon-tabler-hexagon-w" viewBox="0 0 24 24" stroke-width="2" stroke="currentColor" fill="none" stroke-linecap="round" stroke-linejoin="round"><path stroke="none" d="M0 0h24v24H0z" fill="none"/><path d="M19 6.873a2 2 0 0 1 1 1.747v6.536a2 2 0 0 1 -1.029 1.748l-6 3.833a2 2 0 0 1 -1.942 0l-6 -3.833a2 2 0 0 1 -1.029 -1.747v-6.537a2 2 0 0 1 1.029 -1.748l6 -3.572a2.056 2.056 0 0 1 2 0l6 3.573h-.029z" /><path d="M9 8l1 8l2 -5l2 5l1 -8" />
</symbol>
	<symbol id="hexagon-x" class="icon icon-tabler icon-tabler-hexagon-x" viewBox="0 0 24 24" stroke-width="2" stroke="currentColor" fill="none" stroke-linecap="round" stroke-linejoin="round"><path stroke="none" d="M0 0h24v24H0z" fill="none"/><path d="M19 6.873a2 2 0 0 1 1 1.747v6.536a2 2 0 0 1 -1.029 1.748l-6 3.833a2 2 0 0 1 -1.942 0l-6 -3.833a2 2 0 0 1 -1.029 -1.747v-6.537a2 2 0 0 1 1.029 -1.748l6 -3.572a2.056 2.056 0 0 1 2 0l6 3.573h-.029z" /><path d="M10 8l4 8" /><path d="M10 16l4 -8" />
</symbol>
	<symbol id="hexagon-y" class="icon icon-tabler icon-tabler-hexagon-y" viewBox="0 0 24 24" stroke-width="2" stroke="currentColor" fill="none" stroke-linecap="round" stroke-linejoin="round"><path stroke="none" d="M0 0h24v24H0z" fill="none"/><path d="M19 6.873a2 2 0 0 1 1 1.747v6.536a2 2 0 0 1 -1.029 1.748l-6 3.833a2 2 0 0 1 -1.942 0l-6 -3.833a2 2 0 0 1 -1.029 -1.747v-6.537a2 2 0 0 1 1.029 -1.748l6 -3.572a2.056 2.056 0 0 1 2 0l6 3.573h-.029z" /><path d="M10 8l2 5l2 -5" /><path d="M12 16v-3" />
</symbol>
	<symbol id="hexagon-z" class="icon icon-tabler icon-tabler-hexagon-z" viewBox="0 0 24 24" stroke-width="2" stroke="currentColor" fill="none" stroke-linecap="round" stroke-linejoin="round"><path stroke="none" d="M0 0h24v24H0z" fill="none"/><path d="M19 6.873a2 2 0 0 1 1 1.747v6.536a2 2 0 0 1 -1.029 1.748l-6 3.833a2 2 0 0 1 -1.942 0l-6 -3.833a2 2 0 0 1 -1.029 -1.747v-6.537a2 2 0 0 1 1.029 -1.748l6 -3.572a2.056 2.056 0 0 1 2 0l6 3.573h-.029z" /><path d="M10 8h4l-4 8h4" />
</symbol>
	<symbol id="square-a" class="icon icon-tabler icon-tabler-square-a" viewBox="0 0 24 24" stroke-width="2" stroke="currentColor" fill="none" stroke-linecap="round" stroke-linejoin="round"><path stroke="none" d="M0 0h24v24H0z" fill="none"/><rect x="4" y="4" width="16" height="16" rx="2" /><path d="M10 16v-6a2 2 0 1 1 4 0v6" /><path d="M10 13h4" />
</symbol>
	<symbol id="square-b" class="icon icon-tabler icon-tabler-square-b" viewBox="0 0 24 24" stroke-width="2" stroke="currentColor" fill="none" stroke-linecap="round" stroke-linejoin="round"><path stroke="none" d="M0 0h24v24H0z" fill="none"/><rect x="4" y="4" width="16" height="16" rx="2" /><path d="M10 16h2a2 2 0 1 0 0 -4h-2h2a2 2 0 1 0 0 -4h-2v8z" />
</symbol>
	<symbol id="square-c" class="icon icon-tabler icon-tabler-square-c" viewBox="0 0 24 24" stroke-width="2" stroke="currentColor" fill="none" stroke-linecap="round" stroke-linejoin="round"><path stroke="none" d="M0 0h24v24H0z" fill="none"/><rect x="4" y="4" width="16" height="16" rx="2" /><path d="M14 10a2 2 0 1 0 -4 0v4a2 2 0 1 0 4 0" />
</symbol>
	<symbol id="square-d" class="icon icon-tabler icon-tabler-square-d" viewBox="0 0 24 24" stroke-width="2" stroke="currentColor" fill="none" stroke-linecap="round" stroke-linejoin="round"><path stroke="none" d="M0 0h24v24H0z" fill="none"/><rect x="4" y="4" width="16" height="16" rx="2" /><path d="M10 8v8h2a2 2 0 0 0 2 -2v-4a2 2 0 0 0 -2 -2h-2z" />
</symbol>
	<symbol id="square-e" class="icon icon-tabler icon-tabler-square-e" viewBox="0 0 24 24" stroke-width="2" stroke="currentColor" fill="none" stroke-linecap="round" stroke-linejoin="round"><path stroke="none" d="M0 0h24v24H0z" fill="none"/><rect x="4" y="4" width="16" height="16" rx="2" /><path d="M14 8h-4v8h4" /><path d="M10 12h2.5" />
</symbol>
	<symbol id="square-f" class="icon icon-tabler icon-tabler-square-f" viewBox="0 0 24 24" stroke-width="2" stroke="currentColor" fill="none" stroke-linecap="round" stroke-linejoin="round"><path stroke="none" d="M0 0h24v24H0z" fill="none"/><rect x="4" y="4" width="16" height="16" rx="2" /><path d="M10 12h3" /><path d="M14 8h-4v8" />
</symbol>
	<symbol id="square-g" class="icon icon-tabler icon-tabler-square-g" viewBox="0 0 24 24" stroke-width="2" stroke="currentColor" fill="none" stroke-linecap="round" stroke-linejoin="round"><path stroke="none" d="M0 0h24v24H0z" fill="none"/><rect x="4" y="4" width="16" height="16" rx="2" /><path d="M14 8h-2a2 2 0 0 0 -2 2v4a2 2 0 0 0 2 2h2v-4h-1" />
</symbol>
	<symbol id="square-h" class="icon icon-tabler icon-tabler-square-h" viewBox="0 0 24 24" stroke-width="2" stroke="currentColor" fill="none" stroke-linecap="round" stroke-linejoin="round"><path stroke="none" d="M0 0h24v24H0z" fill="none"/><rect x="4" y="4" width="16" height="16" rx="2" /><path d="M10 16v-8m4 0v8" /><path d="M10 12h4" />
</symbol>
	<symbol id="square-i" class="icon icon-tabler icon-tabler-square-i" viewBox="0 0 24 24" stroke-width="2" stroke="currentColor" fill="none" stroke-linecap="round" stroke-linejoin="round"><path stroke="none" d="M0 0h24v24H0z" fill="none"/><rect x="4" y="4" width="16" height="16" rx="2" /><path d="M12 8v8" />
</symbol>
	<symbol id="square-j" class="icon icon-tabler icon-tabler-square-j" viewBox="0 0 24 24" stroke-width="2" stroke="currentColor" fill="none" stroke-linecap="round" stroke-linejoin="round"><path stroke="none" d="M0 0h24v24H0z" fill="none"/><rect x="4" y="4" width="16" height="16" rx="2" /><path d="M10 8h4v6a2 2 0 1 1 -4 0" />
</symbol>
	<symbol id="square-k" class="icon icon-tabler icon-tabler-square-k" viewBox="0 0 24 24" stroke-width="2" stroke="currentColor" fill="none" stroke-linecap="round" stroke-linejoin="round"><path stroke="none" d="M0 0h24v24H0z" fill="none"/><rect x="4" y="4" width="16" height="16" rx="2" /><path d="M10 8v8" /><path d="M14 8l-2.5 4l2.5 4" /><path d="M10 12h1.5" />
</symbol>
	<symbol id="square-l" class="icon icon-tabler icon-tabler-square-l" viewBox="0 0 24 24" stroke-width="2" stroke="currentColor" fill="none" stroke-linecap="round" stroke-linejoin="round"><path stroke="none" d="M0 0h24v24H0z" fill="none"/><rect x="4" y="4" width="16" height="16" rx="2" /><path d="M10 8v8h4" />
</symbol>
	<symbol id="square-m" class="icon icon-tabler icon-tabler-square-m" viewBox="0 0 24 24" stroke-width="2" stroke="currentColor" fill="none" stroke-linecap="round" stroke-linejoin="round"><path stroke="none" d="M0 0h24v24H0z" fill="none"/><rect x="4" y="4" width="16" height="16" rx="2" /><path d="M9 16v-8l3 5l3 -5v8" />
</symbol>
	<symbol id="square-n" class="icon icon-tabler icon-tabler-square-n" viewBox="0 0 24 24" stroke-width="2" stroke="currentColor" fill="none" stroke-linecap="round" stroke-linejoin="round"><path stroke="none" d="M0 0h24v24H0z" fill="none"/><rect x="4" y="4" width="16" height="16" rx="2" /><path d="M10 16v-8l4 8v-8" />
</symbol>
	<symbol id="square-o" class="icon icon-tabler icon-tabler-square-o" viewBox="0 0 24 24" stroke-width="2" stroke="currentColor" fill="none" stroke-linecap="round" stroke-linejoin="round"><path stroke="none" d="M0 0h24v24H0z" fill="none"/><rect x="4" y="4" width="16" height="16" rx="2" /><path d="M12 8a2 2 0 0 1 2 2v4a2 2 0 1 1 -4 0v-4a2 2 0 0 1 2 -2z" />
</symbol>
	<symbol id="square-p" class="icon icon-tabler icon-tabler-square-p" viewBox="0 0 24 24" stroke-width="2" stroke="currentColor" fill="none" stroke-linecap="round" stroke-linejoin="round"><path stroke="none" d="M0 0h24v24H0z" fill="none"/><rect x="4" y="4" width="16" height="16" rx="2" /><path d="M10 12h2a2 2 0 1 0 0 -4h-2v8" />
</symbol>
	<symbol id="square-q" class="icon icon-tabler icon-tabler-square-q" viewBox="0 0 24 24" stroke-width="2" stroke="currentColor" fill="none" stroke-linecap="round" stroke-linejoin="round"><path stroke="none" d="M0 0h24v24H0z" fill="none"/><rect x="4" y="4" width="16" height="16" rx="2" /><path d="M12 8a2 2 0 0 1 2 2v4a2 2 0 1 1 -4 0v-4a2 2 0 0 1 2 -2z" /><path d="M13 15l1 1" />
</symbol>
	<symbol id="square-r" class="icon icon-tabler icon-tabler-square-r" viewBox="0 0 24 24" stroke-width="2" stroke="currentColor" fill="none" stroke-linecap="round" stroke-linejoin="round"><path stroke="none" d="M0 0h24v24H0z" fill="none"/><rect x="4" y="4" width="16" height="16" rx="2" /><path d="M10 12h2a2 2 0 1 0 0 -4h-2v8m4 0l-3 -4" />
</symbol>
	<symbol id="square-s" class="icon icon-tabler icon-tabler-square-s" viewBox="0 0 24 24" stroke-width="2" stroke="currentColor" fill="none" stroke-linecap="round" stroke-linejoin="round"><path stroke="none" d="M0 0h24v24H0z" fill="none"/><rect x="4" y="4" width="16" height="16" rx="2" /><path d="M10 15a1 1 0 0 0 1 1h2a1 1 0 0 0 1 -1v-2a1 1 0 0 0 -1 -1h-2a1 1 0 0 1 -1 -1v-2a1 1 0 0 1 1 -1h2a1 1 0 0 1 1 1" />
</symbol>
	<symbol id="square-t" class="icon icon-tabler icon-tabler-square-t" viewBox="0 0 24 24" stroke-width="2" stroke="currentColor" fill="none" stroke-linecap="round" stroke-linejoin="round"><path stroke="none" d="M0 0h24v24H0z" fill="none"/><rect x="4" y="4" width="16" height="16" rx="2" /><path d="M10 8h4" /><path d="M12 8v8" />
</symbol>
	<symbol id="square-u" class="icon icon-tabler icon-tabler-square-u" viewBox="0 0 24 24" stroke-width="2" stroke="currentColor" fill="none" stroke-linecap="round" stroke-linejoin="round"><path stroke="none" d="M0 0h24v24H0z" fill="none"/><rect x="4" y="4" width="16" height="16" rx="2" /><path d="M10 8v6a2 2 0 1 0 4 0v-6" />
</symbol>
	<symbol id="square-w" class="icon icon-tabler icon-tabler-square-w" viewBox="0 0 24 24" stroke-width="2" stroke="currentColor" fill="none" stroke-linecap="round" stroke-linejoin="round"><path stroke="none" d="M0 0h24v24H0z" fill="none"/><rect x="4" y="4" width="16" height="16" rx="2" /><path d="M9 8l1 8l2 -5l2 5l1 -8" />
</symbol>
	<symbol id="square-y" class="icon icon-tabler icon-tabler-square-y" viewBox="0 0 24 24" stroke-width="2" stroke="currentColor" fill="none" stroke-linecap="round" stroke-linejoin="round"><path stroke="none" d="M0 0h24v24H0z" fill="none"/><rect x="4" y="4" width="16" height="16" rx="2" /><path d="M10 8l2 5l2 -5" /><path d="M12 16v-3" />
</symbol>
	<symbol id="square-z" class="icon icon-tabler icon-tabler-square-z" viewBox="0 0 24 24" stroke-width="2" stroke="currentColor" fill="none" stroke-linecap="round" stroke-linejoin="round"><path stroke="none" d="M0 0h24v24H0z" fill="none"/><rect x="4" y="4" width="16" height="16" rx="2" /><path d="M10 8h4l-4 8h4" />
</symbol>

	<use xlink:href="#circle-a" x="24" y="24" width="24" height="24" />
	<use xlink:href="#circle-b" x="68" y="24" width="24" height="24" />
	<use xlink:href="#circle-c" x="112" y="24" width="24" height="24" />
	<use xlink:href="#circle-d" x="156" y="24" width="24" height="24" />
	<use xlink:href="#circle-e" x="200" y="24" width="24" height="24" />
	<use xlink:href="#circle-f" x="244" y="24" width="24" height="24" />
	<use xlink:href="#circle-g" x="24" y="68" width="24" height="24" />
	<use xlink:href="#circle-h" x="68" y="68" width="24" height="24" />
	<use xlink:href="#circle-i" x="112" y="68" width="24" height="24" />
	<use xlink:href="#circle-j" x="156" y="68" width="24" height="24" />
	<use xlink:href="#circle-k" x="200" y="68" width="24" height="24" />
	<use xlink:href="#circle-l" x="244" y="68" width="24" height="24" />
	<use xlink:href="#circle-m" x="24" y="112" width="24" height="24" />
	<use xlink:href="#circle-n" x="68" y="112" width="24" height="24" />
	<use xlink:href="#circle-o" x="112" y="112" width="24" height="24" />
	<use xlink:href="#circle-p" x="156" y="112" width="24" height="24" />
	<use xlink:href="#circle-q" x="200" y="112" width="24" height="24" />
	<use xlink:href="#circle-r" x="244" y="112" width="24" height="24" />
	<use xlink:href="#circle-s" x="24" y="156" width="24" height="24" />
	<use xlink:href="#circle-t" x="68" y="156" width="24" height="24" />
	<use xlink:href="#circle-u" x="112" y="156" width="24" height="24" />
	<use xlink:href="#circle-w" x="156" y="156" width="24" height="24" />
	<use xlink:href="#circle-y" x="200" y="156" width="24" height="24" />
	<use xlink:href="#circle-z" x="244" y="156" width="24" height="24" />
	<use xlink:href="#hexagon-0" x="24" y="200" width="24" height="24" />
	<use xlink:href="#hexagon-1" x="68" y="200" width="24" height="24" />
	<use xlink:href="#hexagon-2" x="112" y="200" width="24" height="24" />
	<use xlink:href="#hexagon-3" x="156" y="200" width="24" height="24" />
	<use xlink:href="#hexagon-4" x="200" y="200" width="24" height="24" />
	<use xlink:href="#hexagon-5" x="244" y="200" width="24" height="24" />
	<use xlink:href="#hexagon-6" x="24" y="244" width="24" height="24" />
	<use xlink:href="#hexagon-7" x="68" y="244" width="24" height="24" />
	<use xlink:href="#hexagon-8" x="112" y="244" width="24" height="24" />
	<use xlink:href="#hexagon-9" x="156" y="244" width="24" height="24" />
	<use xlink:href="#hexagon-a" x="200" y="244" width="24" height="24" />
	<use xlink:href="#hexagon-b" x="244" y="244" width="24" height="24" />
	<use xlink:href="#hexagon-c" x="24" y="288" width="24" height="24" />
	<use xlink:href="#hexagon-d" x="68" y="288" width="24" height="24" />
	<use xlink:href="#hexagon-e" x="112" y="288" width="24" height="24" />
	<use xlink:href="#hexagon-f" x="156" y="288" width="24" height="24" />
	<use xlink:href="#hexagon-g" x="200" y="288" width="24" height="24" />
	<use xlink:href="#hexagon-h" x="244" y="288" width="24" height="24" />
	<use xlink:href="#hexagon-i" x="24" y="332" width="24" height="24" />
	<use xlink:href="#hexagon-j" x="68" y="332" width="24" height="24" />
	<use xlink:href="#hexagon-k" x="112" y="332" width="24" height="24" />
	<use xlink:href="#hexagon-l" x="156" y="332" width="24" height="24" />
	<use xlink:href="#hexagon-m" x="200" y="332" width="24" height="24" />
	<use xlink:href="#hexagon-n" x="244" y="332" width="24" height="24" />
	<use xlink:href="#hexagon-o" x="24" y="376" width="24" height="24" />
	<use xlink:href="#hexagon-p" x="68" y="376" width="24" height="24" />
	<use xlink:href="#hexagon-q" x="112" y="376" width="24" height="24" />
	<use xlink:href="#hexagon-r" x="156" y="376" width="24" height="24" />
	<use xlink:href="#hexagon-s" x="200" y="376" width="24" height="24" />
	<use xlink:href="#hexagon-t" x="244" y="376" width="24" height="24" />
	<use xlink:href="#hexagon-u" x="24" y="420" width="24" height="24" />
	<use xlink:href="#hexagon-w" x="68" y="420" width="24" height="24" />
	<use xlink:href="#hexagon-x" x="112" y="420" width="24" height="24" />
	<use xlink:href="#hexagon-y" x="156" y="420" width="24" height="24" />
	<use xlink:href="#hexagon-z" x="200" y="420" width="24" height="24" />
	<use xlink:href="#square-a" x="244" y="420" width="24" height="24" />
	<use xlink:href="#square-b" x="24" y="464" width="24" height="24" />
	<use xlink:href="#square-c" x="68" y="464" width="24" height="24" />
	<use xlink:href="#square-d" x="112" y="464" width="24" height="24" />
	<use xlink:href="#square-e" x="156" y="464" width="24" height="24" />
	<use xlink:href="#square-f" x="200" y="464" width="24" height="24" />
	<use xlink:href="#square-g" x="244" y="464" width="24" height="24" />
	<use xlink:href="#square-h" x="24" y="508" width="24" height="24" />
	<use xlink:href="#square-i" x="68" y="508" width="24" height="24" />
	<use xlink:href="#square-j" x="112" y="508" width="24" height="24" />
	<use xlink:href="#square-k" x="156" y="508" width="24" height="24" />
	<use xlink:href="#square-l" x="200" y="508" width="24" height="24" />
	<use xlink:href="#square-m" x="244" y="508" width="24" height="24" />
	<use xlink:href="#square-n" x="24" y="552" width="24" height="24" />
	<use xlink:href="#square-o" x="68" y="552" width="24" height="24" />
	<use xlink:href="#square-p" x="112" y="552" width="24" height="24" />
	<use xlink:href="#square-q" x="156" y="552" width="24" height="24" />
	<use xlink:href="#square-r" x="200" y="552" width="24" height="24" />
	<use xlink:href="#square-s" x="244" y="552" width="24" height="24" />
	<use xlink:href="#square-t" x="24" y="596" width="24" height="24" />
	<use xlink:href="#square-u" x="68" y="596" width="24" height="24" />
	<use xlink:href="#square-w" x="112" y="596" width="24" height="24" />
	<use xlink:href="#square-y" x="156" y="596" width="24" height="24" />
	<use xlink:href="#square-z" x="200" y="596" width="24" height="24" />

</svg>