<svg xmlns="http://www.w3.org/2000/svg" xmlns:xlink="http://www.w3.org/1999/xlink" viewBox="0 0 292 160" width="292" height="160" style="color: #354052"><rect x="0" y="0" width="292" height="160" fill="#fff"></rect>
	<symbol id="outline-alphabet-arabic" xmlns="http://www.w3.org/2000/svg" width="24" height="24" viewBox="0 0 24 24" fill="none" stroke="currentColor" stroke-width="2" stroke-linecap="round" stroke-linejoin="round"
> <path d="M10 6v4" /> <path d="M13 14h8q -2.518 -3 -4 -3" /> <path d="M13 6v9.958c0 .963 0 1.444 -.293 1.743s-.764 .299 -1.707 .299h-1" /> <path d="M7 6v9.958c0 .963 0 1.444 -.293 1.743s-.764 .299 -1.707 .299h-1" />
</symbol>
	<symbol id="outline-alphabet-bangla" xmlns="http://www.w3.org/2000/svg" width="24" height="24" viewBox="0 0 24 24" fill="none" stroke="currentColor" stroke-width="2" stroke-linecap="round" stroke-linejoin="round"
> <path d="M14 12c.904 -.027 3 2 3 7" /> <path d="M10 11c0 -.955 0 -2 .786 -2.677c1.262 -1.089 3.025 .55 3.2 2.06c.086 .741 -.215 3.109 -1.489 4.527c-.475 .53 -.904 .992 -1.711 1.074c-.75 .076 -1.364 -.122 -2.076 -.588c-1.138 -.743 -2.327 -1.997 -3.336 -3.73c-1.078 -1.849 -1.66 -3.113 -2.374 -5.666" /> <path d="M7.37 7.072c.769 -.836 5.246 -4.094 8.4 -.202c.382 .472 .573 .708 .9 1.63c.326 .921 .326 1.562 .326 2.844v7.656" /> <path d="M17 10c0 -1.989 1.5 -4 4 -4" />
</symbol>
	<symbol id="outline-alphabet-hebrew" xmlns="http://www.w3.org/2000/svg" width="24" height="24" viewBox="0 0 24 24" fill="none" stroke="currentColor" stroke-width="2" stroke-linecap="round" stroke-linejoin="round"
> <path d="M7 6c2.333 5.143 6.611 6.857 9.333 12" /> <path d="M13.667 14c2.505 -1.5 2.666 -4.141 2.666 -5.333c0 -1.778 -.443 -2.667 -.443 -2.667" /> <path d="M7.485 18s-.485 -.905 -.485 -2.714c0 -1.172 .164 -3.722 2.641 -5.27" />
</symbol>
	<symbol id="outline-alphabet-korean" xmlns="http://www.w3.org/2000/svg" width="24" height="24" viewBox="0 0 24 24" fill="none" stroke="currentColor" stroke-width="2" stroke-linecap="round" stroke-linejoin="round"
> <path d="M7 7h6c0 2.5 -1.593 8.474 -6 10" /> <path d="M16 5v14z" /> <path d="M16 12h2" />
</symbol>
	<symbol id="outline-alphabet-thai" xmlns="http://www.w3.org/2000/svg" width="24" height="24" viewBox="0 0 24 24" fill="none" stroke="currentColor" stroke-width="2" stroke-linecap="round" stroke-linejoin="round"
> <path d="M8 18v-3.444c0 -.49 .165 -.924 .494 -1.363c.326 -.449 1.009 -.76 1.506 -.934c.032 -.011 .035 -.079 .004 -.095c-.434 -.22 -1.294 -.52 -1.626 -1.032l-.014 -.021l-.083 -.125c-.281 -.42 -.281 -1.246 -.281 -1.246c0 -1.456 .849 -2.62 1.837 -3.199q .9 -.54 2.137 -.541q 1.077 0 1.995 .47c1.328 .647 2.031 2.202 2.031 3.976v7.554" />
</symbol>
	<symbol id="outline-brand-adobe-after-effect" xmlns="http://www.w3.org/2000/svg" width="24" height="24" viewBox="0 0 24 24" fill="none" stroke="currentColor" stroke-width="2" stroke-linecap="round" stroke-linejoin="round"
> <path d="M3 12c0 -4.243 0 -6.364 1.318 -7.682s3.44 -1.318 7.682 -1.318s6.364 0 7.682 1.318s1.318 3.44 1.318 7.682s0 6.364 -1.318 7.682s-3.44 1.318 -7.682 1.318s-6.364 0 -7.682 -1.318s-1.318 -3.44 -1.318 -7.682" /> <path d="M12 15.79l-.82 -2.653m-4.864 2.652l.82 -2.652m0 0l.686 -2.218c.559 -1.806 .838 -2.708 1.336 -2.708s.777 .902 1.335 2.708l.686 2.218m-4.043 0h4.043" /> <path d="M13.895 12.824v1.07a1.895 1.895 0 0 0 3.54 .942m-3.54 -2.012v-.824a1.895 1.895 0 1 1 3.79 0v.824z" />
</symbol>
	<symbol id="outline-brand-adobe-illustrator" xmlns="http://www.w3.org/2000/svg" width="24" height="24" viewBox="0 0 24 24" fill="none" stroke="currentColor" stroke-width="2" stroke-linecap="round" stroke-linejoin="round"
> <path d="M3 12c0 -4.243 0 -6.364 1.318 -7.682s3.44 -1.318 7.682 -1.318s6.364 0 7.682 1.318s1.318 3.44 1.318 7.682s0 6.364 -1.318 7.682s-3.44 1.318 -7.682 1.318s-6.364 0 -7.682 -1.318s-1.318 -3.44 -1.318 -7.682" /> <path d="M12.947 15.79l-.82 -2.653m-4.864 2.652l.82 -2.652m0 0l.687 -2.218c.558 -1.806 .838 -2.708 1.335 -2.708c.498 0 .777 .902 1.336 2.708l.686 2.218m-4.043 0h4.043" /> <path d="M15.789 15.789v-4.736" /> <path d="M15.789 8.684v-.473" />
</symbol>
	<symbol id="outline-brand-adobe-indesign" xmlns="http://www.w3.org/2000/svg" width="24" height="24" viewBox="0 0 24 24" fill="none" stroke="currentColor" stroke-width="2" stroke-linecap="round" stroke-linejoin="round"
> <path d="M3 12c0 -4.243 0 -6.364 1.318 -7.682s3.44 -1.318 7.682 -1.318s6.364 0 7.682 1.318s1.318 3.44 1.318 7.682s0 6.364 -1.318 7.682s-3.44 1.318 -7.682 1.318s-6.364 0 -7.682 -1.318s-1.318 -3.44 -1.318 -7.682" /> <path d="M14.842 11.053v3.79c0 1.044 -.49 .946 -1.42 .946a2.368 2.368 0 0 1 0 -4.736zm0 0v-2.843" /> <path d="M8.211 8.211v7.578" />
</symbol>
	<symbol id="outline-brand-adobe-photoshop" xmlns="http://www.w3.org/2000/svg" width="24" height="24" viewBox="0 0 24 24" fill="none" stroke="currentColor" stroke-width="2" stroke-linecap="round" stroke-linejoin="round"
> <path d="M3 12c0 -4.243 0 -6.364 1.318 -7.682s3.44 -1.318 7.682 -1.318s6.364 0 7.682 1.318s1.318 3.44 1.318 7.682s0 6.364 -1.318 7.682s-3.44 1.318 -7.682 1.318s-6.364 0 -7.682 -1.318s-1.318 -3.44 -1.318 -7.682" /> <path d="M6.79 15.79v-3.79m0 0v-2.724c0 -.11 0 -.165 .004 -.211c.044 -.45 .4 -.806 .85 -.85c.046 -.004 .101 -.004 .211 -.004h1.303a1.895 1.895 0 1 1 0 3.789z" /> <path d="M17.178 11.263c-.164 -.659 -.935 -1.158 -1.862 -1.158c-1.047 0 -1.895 .637 -1.895 1.421c0 .785 .848 1.421 1.895 1.421c1.046 0 1.895 .637 1.895 1.421c0 .785 -.849 1.421 -1.895 1.421c-.93 0 -1.704 -.502 -1.864 -1.165" />
</symbol>
	<symbol id="outline-brand-adobe-premier" xmlns="http://www.w3.org/2000/svg" width="24" height="24" viewBox="0 0 24 24" fill="none" stroke="currentColor" stroke-width="2" stroke-linecap="round" stroke-linejoin="round"
> <path d="M3 12c0 -4.243 0 -6.364 1.318 -7.682s3.44 -1.318 7.682 -1.318s6.364 0 7.682 1.318s1.318 3.44 1.318 7.682s0 6.364 -1.318 7.682s-3.44 1.318 -7.682 1.318s-6.364 0 -7.682 -1.318s-1.318 -3.44 -1.318 -7.682" /> <path d="M7.263 15.79v-3.79m0 0v-3.248c0 -.335 .222 -.541 .542 -.541h1.353a1.895 1.895 0 1 1 0 3.789z" /> <path d="M13.895 10.579v1.895m0 0v3.315m0 -3.315c.531 -.709 1.026 -1.592 1.894 -1.832q .22 -.062 .474 -.063" />
</symbol>
	<symbol id="outline-brand-adobe-xd" xmlns="http://www.w3.org/2000/svg" width="24" height="24" viewBox="0 0 24 24" fill="none" stroke="currentColor" stroke-width="2" stroke-linecap="round" stroke-linejoin="round"
> <path d="M3 12c0 -4.243 0 -6.364 1.318 -7.682s3.44 -1.318 7.682 -1.318s6.364 0 7.682 1.318s1.318 3.44 1.318 7.682s0 6.364 -1.318 7.682s-3.44 1.318 -7.682 1.318s-6.364 0 -7.682 -1.318s-1.318 -3.44 -1.318 -7.682" /> <path d="M6.316 8.21l5.684 7.58m-5.684 0l5.684 -7.58" /> <path d="M17.684 11.053v3.79c0 1.044 -.49 .946 -1.42 .946a2.368 2.368 0 0 1 0 -4.736zm0 0v-2.843" />
</symbol>
	<symbol id="outline-brand-apple-news" xmlns="http://www.w3.org/2000/svg" width="24" height="24" viewBox="0 0 24 24" fill="none" stroke="currentColor" stroke-width="2" stroke-linecap="round" stroke-linejoin="round"
> <path d="M4 14l6 6h-6z" /> <path d="M20 10l-6 -6h6z" /> <path d="M4 4v4l12 12h4v-4l-12 -12z" />
</symbol>
	<symbol id="outline-brand-hackerrank" xmlns="http://www.w3.org/2000/svg" width="24" height="24" viewBox="0 0 24 24" fill="none" stroke="currentColor" stroke-width="2" stroke-linecap="round" stroke-linejoin="round"
> <path d="M19.484 5.667c-1.146 -.904 -3.35 -2.394 -6.497 -3.429c-.484 -.159 -.725 -.238 -1.04 -.238c-.314 0 -.556 .08 -1.04 .238c-3.147 1.035 -5.35 2.525 -6.496 3.43c-.402 .317 -.604 .476 -.797 .816c-.194 .341 -.233 .62 -.309 1.178a33 33 0 0 0 -.305 4.338c0 1.742 .165 3.317 .305 4.338c.076 .558 .115 .837 .309 1.178c.193 .34 .395 .5 .797 .817c1.146 .904 3.35 2.394 6.497 3.429c.483 .159 .725 .238 1.04 .238c.314 0 .555 -.08 1.04 -.238c3.146 -1.035 5.35 -2.525 6.496 -3.43c.402 -.317 .603 -.476 .797 -.816c.194 -.341 .232 -.62 .309 -1.178c.14 -1.021 .305 -2.596 .305 -4.338s-.165 -3.317 -.305 -4.338c-.077 -.558 -.115 -.837 -.309 -1.178s-.395 -.5 -.797 -.817" /> <path d="M9 8v7" /> <path d="M9 12h6" /> <path d="M16 16h-2l1 1z" /> <path d="M8 8h2l-1 -1z" /> <path d="M15 9v7" />
</symbol>
	<symbol id="outline-cap-projecting" xmlns="http://www.w3.org/2000/svg" width="24" height="24" viewBox="0 0 24 24" fill="none" stroke="currentColor" stroke-width="2" stroke-linecap="round" stroke-linejoin="round"
> <path d="M20 6h-13a2 2 0 0 0 -2 2v8a2 2 0 0 0 2 2h13" /> <path d="M13 12a2 2 0 1 1 -4 0a2 2 0 0 1 4 0" /> <path d="M13 12h7" />
</symbol>
	<symbol id="outline-cap-rounded" xmlns="http://www.w3.org/2000/svg" width="24" height="24" viewBox="0 0 24 24" fill="none" stroke="currentColor" stroke-width="2" stroke-linecap="round" stroke-linejoin="round"
> <path d="M20 6h-9a6 6 0 1 0 0 12h9" /> <path d="M13 12a2 2 0 1 1 -4 0a2 2 0 0 1 4 0" /> <path d="M13 12h7" />
</symbol>
	<symbol id="outline-cap-straight" xmlns="http://www.w3.org/2000/svg" width="24" height="24" viewBox="0 0 24 24" fill="none" stroke="currentColor" stroke-width="2" stroke-linecap="round" stroke-linejoin="round"
> <path d="M8 12a2 2 0 1 1 -4 0a2 2 0 0 1 4 0" /> <path d="M8 12h12" /> <path d="M20 6h-12a2 2 0 0 0 -2 2v2" /> <path d="M6 14v2a2 2 0 0 0 2 2h12" />
</symbol>
	<symbol id="outline-math-cos" xmlns="http://www.w3.org/2000/svg" width="24" height="24" viewBox="0 0 24 24" fill="none" stroke="currentColor" stroke-width="2" stroke-linecap="round" stroke-linejoin="round"
> <path d="M7 10a2 2 0 1 0 -4 0v4a2 2 0 1 0 4 0" /> <path d="M12 8a2 2 0 0 1 2 2v4a2 2 0 1 1 -4 0v-4a2 2 0 0 1 2 -2" /> <path d="M17 15c.345 .6 1.258 1 2 1a2 2 0 1 0 0 -4a2 2 0 1 1 0 -4c.746 0 1.656 .394 2 1" />
</symbol>
	<symbol id="outline-math-sin" xmlns="http://www.w3.org/2000/svg" width="24" height="24" viewBox="0 0 24 24" fill="none" stroke="currentColor" stroke-width="2" stroke-linecap="round" stroke-linejoin="round"
> <path d="M4 15c.345 .6 1.258 1 2 1a2 2 0 1 0 0 -4a2 2 0 1 1 0 -4c.746 0 1.656 .394 2 1" /> <path d="M12 8v8" /> <path d="M16 16v-8l4 8v-8" />
</symbol>

	<use xlink:href="#outline-alphabet-arabic" x="24" y="24" width="24" height="24" />
	<use xlink:href="#outline-alphabet-bangla" x="68" y="24" width="24" height="24" />
	<use xlink:href="#outline-alphabet-hebrew" x="112" y="24" width="24" height="24" />
	<use xlink:href="#outline-alphabet-korean" x="156" y="24" width="24" height="24" />
	<use xlink:href="#outline-alphabet-thai" x="200" y="24" width="24" height="24" />
	<use xlink:href="#outline-brand-adobe-after-effect" x="244" y="24" width="24" height="24" />
	<use xlink:href="#outline-brand-adobe-illustrator" x="24" y="68" width="24" height="24" />
	<use xlink:href="#outline-brand-adobe-indesign" x="68" y="68" width="24" height="24" />
	<use xlink:href="#outline-brand-adobe-photoshop" x="112" y="68" width="24" height="24" />
	<use xlink:href="#outline-brand-adobe-premier" x="156" y="68" width="24" height="24" />
	<use xlink:href="#outline-brand-adobe-xd" x="200" y="68" width="24" height="24" />
	<use xlink:href="#outline-brand-apple-news" x="244" y="68" width="24" height="24" />
	<use xlink:href="#outline-brand-hackerrank" x="24" y="112" width="24" height="24" />
	<use xlink:href="#outline-cap-projecting" x="68" y="112" width="24" height="24" />
	<use xlink:href="#outline-cap-rounded" x="112" y="112" width="24" height="24" />
	<use xlink:href="#outline-cap-straight" x="156" y="112" width="24" height="24" />
	<use xlink:href="#outline-math-cos" x="200" y="112" width="24" height="24" />
	<use xlink:href="#outline-math-sin" x="244" y="112" width="24" height="24" />

</svg>