<svg xmlns="http://www.w3.org/2000/svg" xmlns:xlink="http://www.w3.org/1999/xlink" viewBox="0 0 292 292" width="292" height="292" style="color: #354052"><rect x="0" y="0" width="292" height="292" fill="#fff"></rect>
	<symbol id="biohazard-off" class="icon icon-tabler icon-tabler-biohazard-off" viewBox="0 0 24 24" stroke-width="2" stroke="currentColor" fill="none" stroke-linecap="round" stroke-linejoin="round"><path stroke="none" d="M0 0h24v24H0z" fill="none"/><path d="M10.586 10.586a2 2 0 1 0 2.836 2.82" /><path d="M11.939 14c0 .173 .048 .351 .056 .533v.217a4.75 4.75 0 0 1 -4.533 4.745h-.217" /><path d="M2.495 14.745a4.75 4.75 0 0 1 7.737 -3.693" /><path d="M16.745 19.495a4.75 4.75 0 0 1 -4.69 -5.503h-.06" /><path d="M14.533 10.538a4.75 4.75 0 0 1 6.957 3.987v.217" /><path d="M10.295 10.929a4.75 4.75 0 0 1 -2.988 -3.64m.66 -3.324a4.75 4.75 0 0 1 .5 -.66l.164 -.172" /><path d="M15.349 3.133a4.75 4.75 0 0 1 -.836 7.385" /><path d="M3 3l18 18" />
</symbol>
	<symbol id="bold-off" class="icon icon-tabler icon-tabler-bold-off" viewBox="0 0 24 24" stroke-width="2" stroke="currentColor" fill="none" stroke-linecap="round" stroke-linejoin="round"><path stroke="none" d="M0 0h24v24H0z" fill="none"/><path d="M9 5h4a3.5 3.5 0 0 1 2.222 6.204m-3.222 .796h-5v-5" /><path d="M17.107 17.112a3.5 3.5 0 0 1 -3.107 1.888h-7v-7" /><path d="M3 3l18 18" />
</symbol>
	<symbol id="bone-off" class="icon icon-tabler icon-tabler-bone-off" viewBox="0 0 24 24" stroke-width="2" stroke="currentColor" fill="none" stroke-linecap="round" stroke-linejoin="round"><path stroke="none" d="M0 0h24v24H0z" fill="none"/><path d="M12.5 8.502l.38 -.38a3 3 0 1 1 5.12 -2.122a3 3 0 1 1 -2.12 5.122l-.372 .372m-2.008 2.008l-2.378 2.378a3 3 0 1 1 -5.117 2.297l-.005 -.177l-.176 -.005a3 3 0 1 1 2.298 -5.115l2.378 -2.378" /><path d="M3 3l18 18" />
</symbol>
	<symbol id="book-off" class="icon icon-tabler icon-tabler-book-off" viewBox="0 0 24 24" stroke-width="2" stroke="currentColor" fill="none" stroke-linecap="round" stroke-linejoin="round"><path stroke="none" d="M0 0h24v24H0z" fill="none"/><path d="M3 19a9 9 0 0 1 9 0a8.999 8.999 0 0 1 5.899 -1.096" /><path d="M3 6a8.995 8.995 0 0 1 2.114 -.884m3.8 -.21c1.07 .17 2.116 .534 3.086 1.094a9 9 0 0 1 9 0" /><path d="M3 6v13" /><path d="M12 6v2m0 4v7" /><path d="M21 6v11" /><path d="M3 3l18 18" />
</symbol>
	<symbol id="bookmarks-off" class="icon icon-tabler icon-tabler-bookmarks-off" viewBox="0 0 24 24" stroke-width="2" stroke="currentColor" fill="none" stroke-linecap="round" stroke-linejoin="round"><path stroke="none" d="M0 0h24v24H0z" fill="none"/><path d="M11 7h2a2 2 0 0 1 2 2v2m0 4v6l-5 -3l-5 3v-12a2 2 0 0 1 2 -2" /><path d="M9.265 4a2 2 0 0 1 1.735 -1h6a2 2 0 0 1 2 2v10" /><path d="M3 3l18 18" />
</symbol>
	<symbol id="books-off" class="icon icon-tabler icon-tabler-books-off" viewBox="0 0 24 24" stroke-width="2" stroke="currentColor" fill="none" stroke-linecap="round" stroke-linejoin="round"><path stroke="none" d="M0 0h24v24H0z" fill="none"/><path d="M9 9v10a1 1 0 0 1 -1 1h-2a1 1 0 0 1 -1 -1v-14" /><path d="M8 4a1 1 0 0 1 1 1" /><path d="M9 5a1 1 0 0 1 1 -1h2a1 1 0 0 1 1 1v4" /><path d="M13 13v6a1 1 0 0 1 -1 1h-2a1 1 0 0 1 -1 -1v-10" /><path d="M5 8h3" /><path d="M9 16h4" /><path d="M14.254 10.244l-1.218 -4.424a1.02 1.02 0 0 1 .634 -1.219l.133 -.041l2.184 -.53c.562 -.135 1.133 .19 1.282 .732l3.236 11.75" /><path d="M19.585 19.589l-1.572 .38c-.562 .136 -1.133 -.19 -1.282 -.731l-.952 -3.458" /><path d="M14 9l4 -1" /><path d="M19.207 15.199l.716 -.18" /><path d="M3 3l18 18" />
</symbol>
	<symbol id="braces-off" class="icon icon-tabler icon-tabler-braces-off" viewBox="0 0 24 24" stroke-width="2" stroke="currentColor" fill="none" stroke-linecap="round" stroke-linejoin="round"><path stroke="none" d="M0 0h24v24H0z" fill="none"/><path d="M5.176 5.177c-.113 .251 -.176 .53 -.176 .823v3c0 1.657 -.895 3 -2 3c1.105 0 2 1.343 2 3v3a2 2 0 0 0 2 2" /><path d="M17 4a2 2 0 0 1 2 2v3c0 1.657 .895 3 2 3c-1.105 0 -2 1.343 -2 3m-.176 3.821a2 2 0 0 1 -1.824 1.179" /><path d="M3 3l18 18" />
</symbol>
	<symbol id="brackets-off" class="icon icon-tabler icon-tabler-brackets-off" viewBox="0 0 24 24" stroke-width="2" stroke="currentColor" fill="none" stroke-linecap="round" stroke-linejoin="round"><path stroke="none" d="M0 0h24v24H0z" fill="none"/><path d="M5 5v15h3" /><path d="M16 4h3v11m0 4v1h-3" /><path d="M3 3l18 18" />
</symbol>
	<symbol id="browser-off" class="icon icon-tabler icon-tabler-browser-off" viewBox="0 0 24 24" stroke-width="2" stroke="currentColor" fill="none" stroke-linecap="round" stroke-linejoin="round"><path stroke="none" d="M0 0h24v24H0z" fill="none"/><path d="M8 4h11a1 1 0 0 1 1 1v11m-.288 3.702a0.997 .997 0 0 1 -.712 .298h-14a1 1 0 0 1 -1 -1v-14c0 -.276 .112 -.526 .293 -.707" /><path d="M4 8h4m4 0h8" /><path d="M3 3l18 18" />
</symbol>
	<symbol id="brush-off" class="icon icon-tabler icon-tabler-brush-off" viewBox="0 0 24 24" stroke-width="2" stroke="currentColor" fill="none" stroke-linecap="round" stroke-linejoin="round"><path stroke="none" d="M0 0h24v24H0z" fill="none"/><path d="M3 17a4 4 0 1 1 4 4h-4v-4z" /><path d="M21 3a15.996 15.996 0 0 0 -9.309 4.704m-1.795 2.212a15.993 15.993 0 0 0 -1.696 3.284" /><path d="M21 3a15.996 15.996 0 0 1 -4.697 9.302m-2.195 1.786a15.993 15.993 0 0 1 -3.308 1.712" /><path d="M3 3l18 18" />
</symbol>
	<symbol id="bug-off" class="icon icon-tabler icon-tabler-bug-off" viewBox="0 0 24 24" stroke-width="2" stroke="currentColor" fill="none" stroke-linecap="round" stroke-linejoin="round"><path stroke="none" d="M0 0h24v24H0z" fill="none"/><path d="M9.884 5.873a3 3 0 0 1 5.116 2.127v1" /><path d="M13 9h3a6 6 0 0 1 1 3v1m-.298 3.705a5.002 5.002 0 0 1 -9.702 -1.705v-3a6 6 0 0 1 1 -3h1" /><path d="M3 13h4" /><path d="M17 13h4" /><path d="M12 20v-6" /><path d="M4 19l3.35 -2" /><path d="M4 7l3.75 2.4" /><path d="M20 7l-3.75 2.4" /><path d="M3 3l18 18" />
</symbol>
	<symbol id="calculator-off" class="icon icon-tabler icon-tabler-calculator-off" viewBox="0 0 24 24" stroke-width="2" stroke="currentColor" fill="none" stroke-linecap="round" stroke-linejoin="round"><path stroke="none" d="M0 0h24v24H0z" fill="none"/><path d="M19.823 19.824a2 2 0 0 1 -1.823 1.176h-12a2 2 0 0 1 -2 -2v-14c0 -.295 .064 -.575 .178 -.827m2.822 -1.173h11a2 2 0 0 1 2 2v11" /><path d="M10 10h-1a1 1 0 0 1 -1 -1v-1m3 -1h4a1 1 0 0 1 1 1v1a1 1 0 0 1 -1 1h-1" /><path d="M8 14v.01" /><path d="M12 14v.01" /><path d="M8 17v.01" /><path d="M12 17v.01" /><path d="M16 17v.01" /><path d="M3 3l18 18" />
</symbol>
	<symbol id="candy-off" class="icon icon-tabler icon-tabler-candy-off" viewBox="0 0 24 24" stroke-width="2" stroke="currentColor" fill="none" stroke-linecap="round" stroke-linejoin="round"><path stroke="none" d="M0 0h24v24H0z" fill="none"/><path d="M11.174 7.17l.119 -.12a2 2 0 0 1 2.828 0l2.829 2.83a2 2 0 0 1 0 2.828l-.124 .124m-1.996 1.996l-2.123 2.123a2 2 0 0 1 -2.828 0l-2.829 -2.831a2 2 0 0 1 0 -2.828l2.113 -2.112" /><path d="M16.243 9.172l3.086 -.772a1.5 1.5 0 0 0 .697 -2.516l-2.216 -2.217a1.5 1.5 0 0 0 -2.44 .47l-1.248 2.913" /><path d="M9.172 16.243l-.772 3.086a1.5 1.5 0 0 1 -2.516 .697l-2.217 -2.216a1.5 1.5 0 0 1 .47 -2.44l2.913 -1.248" /><path d="M3 3l18 18" />
</symbol>
	<symbol id="capture-off" class="icon icon-tabler icon-tabler-capture-off" viewBox="0 0 24 24" stroke-width="2" stroke="currentColor" fill="none" stroke-linecap="round" stroke-linejoin="round"><path stroke="none" d="M0 0h24v24H0z" fill="none"/><path d="M4 16v2a2 2 0 0 0 2 2h2" /><path d="M16 4h2a2 2 0 0 1 2 2v2" /><path d="M16 20h2c.554 0 1.055 -.225 1.417 -.589" /><path d="M9.87 9.887a3 3 0 0 0 4.255 4.23m.58 -3.416a3.012 3.012 0 0 0 -1.4 -1.403" /><path d="M4 8v-2c0 -.548 .22 -1.044 .577 -1.405" /><path d="M3 3l18 18" />
</symbol>
	<symbol id="car-off" class="icon icon-tabler icon-tabler-car-off" viewBox="0 0 24 24" stroke-width="2" stroke="currentColor" fill="none" stroke-linecap="round" stroke-linejoin="round"><path stroke="none" d="M0 0h24v24H0z" fill="none"/><circle cx="7" cy="17" r="2" /><path d="M15.584 15.588a2 2 0 0 0 2.828 2.83" /><path d="M5 17h-2v-6l2 -5h1m4 0h4l4 5h1a2 2 0 0 1 2 2v4m-6 0h-6m-6 -6h8m4 0h3m-6 -3v-2" /><path d="M3 3l18 18" />
</symbol>
	<symbol id="cardboards-off" class="icon icon-tabler icon-tabler-cardboards-off" viewBox="0 0 24 24" stroke-width="2" stroke="currentColor" fill="none" stroke-linecap="round" stroke-linejoin="round"><path stroke="none" d="M0 0h24v24H0z" fill="none"/><path d="M20.96 16.953c.026 -.147 .04 -.298 .04 -.453v-8.5a2 2 0 0 0 -2 -2h-9m-4 0h-1a2 2 0 0 0 -2 2v8.5a2.5 2.5 0 0 0 2.5 2.5h1.06a3 3 0 0 0 2.34 -1.13l1.54 -1.92a2 2 0 0 1 3.12 0l1.54 1.92a3 3 0 0 0 2.34 1.13h1.06c.155 0 .307 -.014 .454 -.041" /><circle cx="8" cy="12" r="1" /><path d="M16.714 12.7a1 1 0 0 0 -1.417 -1.411l1.417 1.41z" /><path d="M3 3l18 18" />
</symbol>
	<symbol id="cast-off" class="icon icon-tabler icon-tabler-cast-off" viewBox="0 0 24 24" stroke-width="2" stroke="currentColor" fill="none" stroke-linecap="round" stroke-linejoin="round"><path stroke="none" d="M0 0h24v24H0z" fill="none"/><path d="M3 19h.01" /><path d="M7 19a4 4 0 0 0 -4 -4" /><path d="M11 19a8 8 0 0 0 -8 -8" /><path d="M15 19h3a3 3 0 0 0 .875 -.13m1.997 -2.002a3 3 0 0 0 .128 -.868v-8a3 3 0 0 0 -3 -3h-9m-3.865 .136a3 3 0 0 0 -1.935 1.864" /><path d="M3 3l18 18" />
</symbol>
	<symbol id="ce-off" class="icon icon-tabler icon-tabler-ce-off" viewBox="0 0 24 24" stroke-width="2" stroke="currentColor" fill="none" stroke-linecap="round" stroke-linejoin="round"><path stroke="none" d="M0 0h24v24H0z" fill="none"/><path d="M11 4a7.99 7.99 0 0 0 -2.581 .426" /><path d="M5.867 5.864a8 8 0 0 0 5.133 14.136" /><path d="M20 4a8.001 8.001 0 0 0 -7.29 4.7" /><path d="M12 12a8 8 0 0 0 8 8" /><path d="M16 12h4" /><path d="M3 3l18 18" />
</symbol>
	<symbol id="certificate-2-off" class="icon icon-tabler icon-tabler-certificate-2-off" viewBox="0 0 24 24" stroke-width="2" stroke="currentColor" fill="none" stroke-linecap="round" stroke-linejoin="round"><path stroke="none" d="M0 0h24v24H0z" fill="none"/><path d="M12 12a3 3 0 1 0 3 3" /><path d="M11 7h3" /><path d="M10 18v4l2 -1l2 1v-4" /><path d="M10 19h-2a2 2 0 0 1 -2 -2v-11m1.18 -2.825c.25 -.112 .529 -.175 .82 -.175h8a2 2 0 0 1 2 2v9m-.175 3.82a2 2 0 0 1 -1.825 1.18h-2" /><path d="M3 3l18 18" />
</symbol>
	<symbol id="certificate-off" class="icon icon-tabler icon-tabler-certificate-off" viewBox="0 0 24 24" stroke-width="2" stroke="currentColor" fill="none" stroke-linecap="round" stroke-linejoin="round"><path stroke="none" d="M0 0h24v24H0z" fill="none"/><path d="M12.876 12.881a3 3 0 0 0 4.243 4.243m.588 -3.42a3.012 3.012 0 0 0 -1.437 -1.423" /><path d="M13 17.5v4.5l2 -1.5l2 1.5v-4.5" /><path d="M10 19h-5a2 2 0 0 1 -2 -2v-10c0 -1.1 .9 -2 2 -2m4 0h10a2 2 0 0 1 2 2v10" /><path d="M6 9h3m4 0h5" /><path d="M6 12h3" /><path d="M6 15h2" /><path d="M3 3l18 18" />
</symbol>
	<symbol id="circle-rectangle-off" class="icon icon-tabler icon-tabler-circle-rectangle-off" viewBox="0 0 24 24" stroke-width="2" stroke="currentColor" fill="none" stroke-linecap="round" stroke-linejoin="round"><path stroke="none" d="M0 0h24v24H0z" fill="none"/><path d="M14 10h3v3m-3 1h-7v-4h3" /><path d="M20.042 16.045a9 9 0 0 0 -12.087 -12.087m-2.318 1.677a9 9 0 1 0 12.725 12.73" /><path d="M3 3l18 18" />
</symbol>
	<symbol id="clipboard-off" class="icon icon-tabler icon-tabler-clipboard-off" viewBox="0 0 24 24" stroke-width="2" stroke="currentColor" fill="none" stroke-linecap="round" stroke-linejoin="round"><path stroke="none" d="M0 0h24v24H0z" fill="none"/><path d="M5.575 5.597a1.994 1.994 0 0 0 -.575 1.403v12a2 2 0 0 0 2 2h10a2 2 0 0 0 2 -2m0 -4v-8a2 2 0 0 0 -2 -2h-2" /><path d="M9 5a2 2 0 0 1 2 -2h2a2 2 0 1 1 0 4h-2" /><path d="M3 3l18 18" />
</symbol>
	<symbol id="clock-off" class="icon icon-tabler icon-tabler-clock-off" viewBox="0 0 24 24" stroke-width="2" stroke="currentColor" fill="none" stroke-linecap="round" stroke-linejoin="round"><path stroke="none" d="M0 0h24v24H0z" fill="none"/><path d="M12 7v1" /><path d="M20.042 16.045a9 9 0 0 0 -12.087 -12.087m-2.318 1.677a9 9 0 1 0 12.725 12.73" /><path d="M3 3l18 18" />
</symbol>
	<symbol id="code-off" class="icon icon-tabler icon-tabler-code-off" viewBox="0 0 24 24" stroke-width="2" stroke="currentColor" fill="none" stroke-linecap="round" stroke-linejoin="round"><path stroke="none" d="M0 0h24v24H0z" fill="none"/><path d="M7 8l-4 4l4 4" /><path d="M17 8l4 4l-2.5 2.5" /><path d="M14 4l-1.201 4.805m-.802 3.207l-1.997 7.988" /><path d="M3 3l18 18" />
</symbol>
	<symbol id="coin-off" class="icon icon-tabler icon-tabler-coin-off" viewBox="0 0 24 24" stroke-width="2" stroke="currentColor" fill="none" stroke-linecap="round" stroke-linejoin="round"><path stroke="none" d="M0 0h24v24H0z" fill="none"/><path d="M14.8 9a2 2 0 0 0 -1.8 -1h-1m-2.82 1.171a2 2 0 0 0 1.82 2.829h1m2.824 2.822a2 2 0 0 1 -1.824 1.178h-2a2 2 0 0 1 -1.8 -1" /><path d="M20.042 16.045a9 9 0 0 0 -12.087 -12.087m-2.318 1.677a9 9 0 1 0 12.725 12.73" /><path d="M12 6v2m0 8v2" /><path d="M3 3l18 18" />
</symbol>
	<symbol id="color-picker-off" class="icon icon-tabler icon-tabler-color-picker-off" viewBox="0 0 24 24" stroke-width="2" stroke="currentColor" fill="none" stroke-linecap="round" stroke-linejoin="round"><path stroke="none" d="M0 0h24v24H0z" fill="none"/><path d="M11 7l6 6" /><path d="M12.001 7.999l3.699 -3.699a1 1 0 0 1 1.4 0l2.6 2.6a1 1 0 0 1 0 1.4l-3.702 3.702m-1.998 1.998l-6 6h-4v-4l6.002 -6.002" /><path d="M3 3l18 18" />
</symbol>
	<symbol id="color-swatch-off" class="icon icon-tabler icon-tabler-color-swatch-off" viewBox="0 0 24 24" stroke-width="2" stroke="currentColor" fill="none" stroke-linecap="round" stroke-linejoin="round"><path stroke="none" d="M0 0h24v24H0z" fill="none"/><path d="M13 13v4a4 4 0 0 0 6.832 2.825m1.168 -2.825v-12a2 2 0 0 0 -2 -2h-4a2 2 0 0 0 -2 2v4" /><path d="M13 7.35l-2 -2a2 2 0 0 0 -2.11 -.461m-2.13 1.874l-1.416 1.415a2 2 0 0 0 0 2.828l9 9" /><path d="M7.3 13h-2.3a2 2 0 0 0 -2 2v4a2 2 0 0 0 2 2h12" /><path d="M17 17v.01" /><path d="M3 3l18 18" />
</symbol>
	<symbol id="columns-off" class="icon icon-tabler icon-tabler-columns-off" viewBox="0 0 24 24" stroke-width="2" stroke="currentColor" fill="none" stroke-linecap="round" stroke-linejoin="round"><path stroke="none" d="M0 0h24v24H0z" fill="none"/><path d="M4 6h2" /><path d="M4 10h5.5" /><path d="M4 14h5.5" /><path d="M4 18h5.5" /><path d="M14.5 6h5.5" /><path d="M14.5 10h5.5" /><path d="M18 14h2" /><path d="M14.5 18h3.5" /><path d="M3 3l18 18" />
</symbol>
	<symbol id="compass-off" class="icon icon-tabler icon-tabler-compass-off" viewBox="0 0 24 24" stroke-width="2" stroke="currentColor" fill="none" stroke-linecap="round" stroke-linejoin="round"><path stroke="none" d="M0 0h24v24H0z" fill="none"/><path d="M12.999 9l3.001 -1l-1.002 3.005m-.998 2.995l-6 2l2 -6" /><path d="M20.042 16.045a9 9 0 0 0 -12.087 -12.087m-2.318 1.677a9 9 0 1 0 12.725 12.73" /><path d="M12 3v2" /><path d="M12 19v2" /><path d="M3 12h2" /><path d="M19 12h2" /><path d="M3 3l18 18" />
</symbol>
	<symbol id="components-off" class="icon icon-tabler icon-tabler-components-off" viewBox="0 0 24 24" stroke-width="2" stroke="currentColor" fill="none" stroke-linecap="round" stroke-linejoin="round"><path stroke="none" d="M0 0h24v24H0z" fill="none"/><path d="M3 12l3 3l3 -3l-3 -3z" /><path d="M18.5 14.5l2.5 -2.5l-3 -3l-2.5 2.5" /><path d="M12.499 8.501l2.501 -2.501l-3 -3l-2.5 2.5" /><path d="M9 18l3 3l3 -3l-3 -3z" /><path d="M3 3l18 18" />
</symbol>
	<symbol id="cookie-off" class="icon icon-tabler icon-tabler-cookie-off" viewBox="0 0 24 24" stroke-width="2" stroke="currentColor" fill="none" stroke-linecap="round" stroke-linejoin="round"><path stroke="none" d="M0 0h24v24H0z" fill="none"/><path d="M8 13v.01" /><path d="M12 17v.01" /><path d="M12 12v.01" /><path d="M18.192 18.187a3 3 0 0 1 -.976 .652c-1.048 .263 -1.787 .483 -2.216 .661c-.475 .197 -1.092 .538 -1.852 1.024a3 3 0 0 1 -2.296 0c-.802 -.503 -1.419 -.844 -1.852 -1.024c-.471 -.195 -1.21 -.415 -2.216 -.66a3 3 0 0 1 -1.623 -1.624c-.265 -1.052 -.485 -1.79 -.661 -2.216c-.198 -.479 -.54 -1.096 -1.024 -1.852a3 3 0 0 1 0 -2.296c.48 -.744 .82 -1.361 1.024 -1.852c.171 -.413 .391 -1.152 .66 -2.216a3 3 0 0 1 .649 -.971m2.821 -1.174c.14 -.049 .263 -.095 .37 -.139c.458 -.19 1.075 -.531 1.852 -1.024a3 3 0 0 1 2.296 0l2.667 1.104a4 4 0 0 0 4.656 6.14l.053 .132a3 3 0 0 1 0 2.296c-.497 .786 -.838 1.404 -1.024 1.852a6.579 6.579 0 0 0 -.135 .36" /><path d="M3 3l18 18" />
</symbol>
	<symbol id="copy-off" class="icon icon-tabler icon-tabler-copy-off" viewBox="0 0 24 24" stroke-width="2" stroke="currentColor" fill="none" stroke-linecap="round" stroke-linejoin="round"><path stroke="none" d="M0 0h24v24H0z" fill="none"/><path d="M19.414 19.415a1.994 1.994 0 0 1 -1.414 .585h-8a2 2 0 0 1 -2 -2v-8c0 -.554 .225 -1.055 .589 -1.417m3.411 -.583h6a2 2 0 0 1 2 2v6" /><path d="M16 8v-2a2 2 0 0 0 -2 -2h-6m-3.418 .59c-.36 .36 -.582 .86 -.582 1.41v8a2 2 0 0 0 2 2h2" /><path d="M3 3l18 18" />
</symbol>
	<symbol id="copyleft-off" class="icon icon-tabler icon-tabler-copyleft-off" viewBox="0 0 24 24" stroke-width="2" stroke="currentColor" fill="none" stroke-linecap="round" stroke-linejoin="round"><path stroke="none" d="M0 0h24v24H0z" fill="none"/><path d="M13.303 9.3a3.01 3.01 0 0 1 1.405 1.406m-.586 3.413a3.016 3.016 0 0 1 -4.122 .131" /><path d="M20.042 16.045a9 9 0 0 0 -12.087 -12.087m-2.318 1.677a9 9 0 1 0 12.725 12.73" /><path d="M3 3l18 18" />
</symbol>
	<symbol id="copyright-off" class="icon icon-tabler icon-tabler-copyright-off" viewBox="0 0 24 24" stroke-width="2" stroke="currentColor" fill="none" stroke-linecap="round" stroke-linejoin="round"><path stroke="none" d="M0 0h24v24H0z" fill="none"/><path d="M14 9.75a3.016 3.016 0 0 0 -.711 -.466m-3.41 .596a2.993 2.993 0 0 0 -.042 4.197a3.016 3.016 0 0 0 4.163 .173" /><path d="M20.042 16.045a9 9 0 0 0 -12.087 -12.087m-2.318 1.677a9 9 0 1 0 12.725 12.73" /><path d="M3 3l18 18" />
</symbol>

	<use xlink:href="#biohazard-off" x="24" y="24" width="24" height="24" />
	<use xlink:href="#bold-off" x="68" y="24" width="24" height="24" />
	<use xlink:href="#bone-off" x="112" y="24" width="24" height="24" />
	<use xlink:href="#book-off" x="156" y="24" width="24" height="24" />
	<use xlink:href="#bookmarks-off" x="200" y="24" width="24" height="24" />
	<use xlink:href="#books-off" x="244" y="24" width="24" height="24" />
	<use xlink:href="#braces-off" x="24" y="68" width="24" height="24" />
	<use xlink:href="#brackets-off" x="68" y="68" width="24" height="24" />
	<use xlink:href="#browser-off" x="112" y="68" width="24" height="24" />
	<use xlink:href="#brush-off" x="156" y="68" width="24" height="24" />
	<use xlink:href="#bug-off" x="200" y="68" width="24" height="24" />
	<use xlink:href="#calculator-off" x="244" y="68" width="24" height="24" />
	<use xlink:href="#candy-off" x="24" y="112" width="24" height="24" />
	<use xlink:href="#capture-off" x="68" y="112" width="24" height="24" />
	<use xlink:href="#car-off" x="112" y="112" width="24" height="24" />
	<use xlink:href="#cardboards-off" x="156" y="112" width="24" height="24" />
	<use xlink:href="#cast-off" x="200" y="112" width="24" height="24" />
	<use xlink:href="#ce-off" x="244" y="112" width="24" height="24" />
	<use xlink:href="#certificate-2-off" x="24" y="156" width="24" height="24" />
	<use xlink:href="#certificate-off" x="68" y="156" width="24" height="24" />
	<use xlink:href="#circle-rectangle-off" x="112" y="156" width="24" height="24" />
	<use xlink:href="#clipboard-off" x="156" y="156" width="24" height="24" />
	<use xlink:href="#clock-off" x="200" y="156" width="24" height="24" />
	<use xlink:href="#code-off" x="244" y="156" width="24" height="24" />
	<use xlink:href="#coin-off" x="24" y="200" width="24" height="24" />
	<use xlink:href="#color-picker-off" x="68" y="200" width="24" height="24" />
	<use xlink:href="#color-swatch-off" x="112" y="200" width="24" height="24" />
	<use xlink:href="#columns-off" x="156" y="200" width="24" height="24" />
	<use xlink:href="#compass-off" x="200" y="200" width="24" height="24" />
	<use xlink:href="#components-off" x="244" y="200" width="24" height="24" />
	<use xlink:href="#cookie-off" x="24" y="244" width="24" height="24" />
	<use xlink:href="#copy-off" x="68" y="244" width="24" height="24" />
	<use xlink:href="#copyleft-off" x="112" y="244" width="24" height="24" />
	<use xlink:href="#copyright-off" x="156" y="244" width="24" height="24" />

</svg>