<svg xmlns="http://www.w3.org/2000/svg" xmlns:xlink="http://www.w3.org/1999/xlink" viewBox="0 0 337 284" width="337" height="284" style="color: #354052"><rect x="0" y="0" width="337" height="284" fill="#fff"></rect>
	<symbol id="ad" class="icon icon-tabler icon-tabler-ad" viewBox="0 0 24 24" stroke-width="2" stroke="currentColor" fill="none" stroke-linecap="round" stroke-linejoin="round"><path stroke="none" d="M0 0h24v24H0z"/><rect x="3" y="5" width="18" height="14" rx="2" /><path d="M7 15v-4a2 2 0 0 1 4 0v4" /><line x1="7" y1="13" x2="11" y2="13" /><path d="M17 9v6h-1.5a1.5 1.5 0 1 1 1.5 -1.5" />
</symbol>
	<symbol id="alarm" class="icon icon-tabler icon-tabler-alarm" viewBox="0 0 24 24" stroke-width="2" stroke="currentColor" fill="none" stroke-linecap="round" stroke-linejoin="round"><path stroke="none" d="M0 0h24v24H0z"/><circle cx="12" cy="13" r="7" /><polyline points="12 10 12 13 14 13" /><line x1="7" y1="4" x2="4.25" y2="6" /><line x1="17" y1="4" x2="19.75" y2="6" />
</symbol>
	<symbol id="arrow-back" class="icon icon-tabler icon-tabler-arrow-back" viewBox="0 0 24 24" stroke-width="2" stroke="currentColor" fill="none" stroke-linecap="round" stroke-linejoin="round"><path stroke="none" d="M0 0h24v24H0z"/><path d="M9 11l-4 4l4 4m-4 -4h11a4 4 0 0 0 0 -8h-1" />
</symbol>
	<symbol id="arrow-forward" class="icon icon-tabler icon-tabler-arrow-forward" viewBox="0 0 24 24" stroke-width="2" stroke="currentColor" fill="none" stroke-linecap="round" stroke-linejoin="round"><path stroke="none" d="M0 0h24v24H0z"/><path d="M15 11l4 4l-4 4m4 -4h-11a4 4 0 0 1 0 -8h1" />
</symbol>
	<symbol id="artboard" class="icon icon-tabler icon-tabler-artboard" viewBox="0 0 24 24" stroke-width="2" stroke="currentColor" fill="none" stroke-linecap="round" stroke-linejoin="round"><path stroke="none" d="M0 0h24v24H0z"/><rect x="8" y="8" width="8" height="8" rx="1" /><line x1="3" y1="8" x2="4" y2="8" /><line x1="3" y1="16" x2="4" y2="16" /><line x1="8" y1="3" x2="8" y2="4" /><line x1="16" y1="3" x2="16" y2="4" /><line x1="20" y1="8" x2="21" y2="8" /><line x1="20" y1="16" x2="21" y2="16" /><line x1="8" y1="20" x2="8" y2="21" /><line x1="16" y1="20" x2="16" y2="21" />
</symbol>
	<symbol id="award" class="icon icon-tabler icon-tabler-award" viewBox="0 0 24 24" stroke-width="2" stroke="currentColor" fill="none" stroke-linecap="round" stroke-linejoin="round"><path stroke="none" d="M0 0h24v24H0z"/><circle cx="12" cy="9" r="6" /><polyline points="8 13.5 8 21 12 19 16 21 16 13.5" />
</symbol>
	<symbol id="bug" class="icon icon-tabler icon-tabler-bug" viewBox="0 0 24 24" stroke-width="2" stroke="currentColor" fill="none" stroke-linecap="round" stroke-linejoin="round"><path stroke="none" d="M0 0h24v24H0z"/><path d="M9 9v-1a3 3 0 0 1 6 0v1" /><path d="M8 9h8a6 6 0 0 1 1 3v3a5 5 0 0 1 -10 0v-3a6 6 0 0 1 1 -3" /><line x1="3" y1="13" x2="7" y2="13" /><line x1="17" y1="13" x2="21" y2="13" /><line x1="12" y1="20" x2="12" y2="14" /><line x1="4" y1="19" x2="7.35" y2="17" /><line x1="20" y1="19" x2="16.65" y2="17" /><line x1="4" y1="7" x2="7.75" y2="9.4" /><line x1="20" y1="7" x2="16.25" y2="9.4" />
</symbol>
	<symbol id="building-arch" class="icon icon-tabler icon-tabler-building-arch" viewBox="0 0 24 24" stroke-width="2" stroke="currentColor" fill="none" stroke-linecap="round" stroke-linejoin="round"><path stroke="none" d="M0 0h24v24H0z"/><line x1="3" y1="21" x2="21" y2="21" /><path d="M4 21v-15a2 2 0 0 1 2 -2h12a2 2 0 0 1 2 2v15" /><path d="M9 21v-8a3 3 0 0 1 6 0v8" />
</symbol>
	<symbol id="building-bridge-2" class="icon icon-tabler icon-tabler-building-bridge-2" viewBox="0 0 24 24" stroke-width="2" stroke="currentColor" fill="none" stroke-linecap="round" stroke-linejoin="round"><path stroke="none" d="M0 0h24v24H0z"/><path d="M6 7h12a2 2 0 0 1 2 2v9a1 1 0 0 1 -1 1h-2a1 1 0 0 1 -1 -1v-2a4 4 0 0 0 -8 0v2a1 1 0 0 1 -1 1h-2a1 1 0 0 1 -1 -1v-9a2 2 0 0 1 2 -2" />
</symbol>
	<symbol id="building-bridge" class="icon icon-tabler icon-tabler-building-bridge" viewBox="0 0 24 24" stroke-width="2" stroke="currentColor" fill="none" stroke-linecap="round" stroke-linejoin="round"><path stroke="none" d="M0 0h24v24H0z"/><line x1="6" y1="5" x2="6" y2="19" /><line x1="18" y1="5" x2="18" y2="19" /><line x1="2" y1="15" x2="22" y2="15" /><path d="M3 8a7.5 7.5 0 0 0 3 -2a6.5 6.5 0 0 0 12 0a7.5 7.5 0 0 0 3 2" /><line x1="12" y1="10" x2="12" y2="15" />
</symbol>
	<symbol id="building-church" class="icon icon-tabler icon-tabler-building-church" viewBox="0 0 24 24" stroke-width="2" stroke="currentColor" fill="none" stroke-linecap="round" stroke-linejoin="round"><path stroke="none" d="M0 0h24v24H0z"/><line x1="3" y1="21" x2="21" y2="21" /><path d="M10 21v-4a2 2 0 0 1 4 0v4" /><line x1="10" y1="5" x2="14" y2="5" /><line x1="12" y1="3" x2="12" y2="8" /><path d="M6 21v-7m-2 2l8 -8l8 8m-2 -2v7" />
</symbol>
	<symbol id="building-hospital" class="icon icon-tabler icon-tabler-building-hospital" viewBox="0 0 24 24" stroke-width="2" stroke="currentColor" fill="none" stroke-linecap="round" stroke-linejoin="round"><path stroke="none" d="M0 0h24v24H0z"/><line x1="3" y1="21" x2="21" y2="21" /><path d="M5 21v-16a2 2 0 0 1 2 -2h10a2 2 0 0 1 2 2v16" /><path d="M9 21v-4a2 2 0 0 1 2 -2h2a2 2 0 0 1 2 2v4" /><line x1="10" y1="9" x2="14" y2="9" /><line x1="12" y1="7" x2="12" y2="11" />
</symbol>
	<symbol id="building-store" class="icon icon-tabler icon-tabler-building-store" viewBox="0 0 24 24" stroke-width="2" stroke="currentColor" fill="none" stroke-linecap="round" stroke-linejoin="round"><path stroke="none" d="M0 0h24v24H0z"/><line x1="3" y1="21" x2="21" y2="21" /><path d="M3 7v1a3 3 0 0 0 6 0v-1m0 1a3 3 0 0 0 6 0v-1m0 1a3 3 0 0 0 6 0v-1h-18l2 -4h14l2 4" /><path d="M5 21v-10.15" /><path d="M19 21v-10.15" /><path d="M9 21v-4a2 2 0 0 1 2 -2h2a2 2 0 0 1 2 2v4" />
</symbol>
	<symbol id="building" class="icon icon-tabler icon-tabler-building" viewBox="0 0 24 24" stroke-width="2" stroke="currentColor" fill="none" stroke-linecap="round" stroke-linejoin="round"><path stroke="none" d="M0 0h24v24H0z"/><line x1="3" y1="21" x2="21" y2="21" /><line x1="9" y1="8" x2="10" y2="8" /><line x1="9" y1="12" x2="10" y2="12" /><line x1="9" y1="16" x2="10" y2="16" /><line x1="14" y1="8" x2="15" y2="8" /><line x1="14" y1="12" x2="15" y2="12" /><line x1="14" y1="16" x2="15" y2="16" /><path d="M5 21v-16a2 2 0 0 1 2 -2h10a2 2 0 0 1 2 2v16" />
</symbol>
	<symbol id="calendar-event" class="icon icon-tabler icon-tabler-calendar-event" viewBox="0 0 24 24" stroke-width="2" stroke="currentColor" fill="none" stroke-linecap="round" stroke-linejoin="round"><path stroke="none" d="M0 0h24v24H0z"/><rect x="4" y="5" width="16" height="16" rx="2" /><line x1="16" y1="3" x2="16" y2="7" /><line x1="8" y1="3" x2="8" y2="7" /><line x1="4" y1="11" x2="20" y2="11" /><rect x="8" y="15" width="2" height="2" />
</symbol>
	<symbol id="device-speaker" class="icon icon-tabler icon-tabler-device-speaker" viewBox="0 0 24 24" stroke-width="2" stroke="currentColor" fill="none" stroke-linecap="round" stroke-linejoin="round"><path stroke="none" d="M0 0h24v24H0z"/><rect x="5" y="3" width="14" height="18" rx="2" /><circle cx="12" cy="14" r="3" /><line x1="12" y1="7" x2="12" y2="7.01" />
</symbol>
	<symbol id="globe" class="icon icon-tabler icon-tabler-globe" viewBox="0 0 24 24" stroke-width="2" stroke="currentColor" fill="none" stroke-linecap="round" stroke-linejoin="round"><path stroke="none" d="M0 0h24v24H0z"/><circle cx="12" cy="10" r="4" /><path d="M6.75 16a8.015 8.015 0 1 0 9.25 -13" /><line x1="12" y1="18" x2="12" y2="22" /><line x1="8" y1="22" x2="16" y2="22" />
</symbol>
	<symbol id="help" class="icon icon-tabler icon-tabler-help" viewBox="0 0 24 24" stroke-width="2" stroke="currentColor" fill="none" stroke-linecap="round" stroke-linejoin="round"><path stroke="none" d="M0 0h24v24H0z"/><circle cx="12" cy="12" r="9" /><line x1="12" y1="17" x2="12" y2="17.01" /><path d="M12 13.5a1.5 1.5 0 0 1 1 -1.5a2.6 2.6 0 1 0 -3 -4" />
</symbol>
	<symbol id="home-2" class="icon icon-tabler icon-tabler-home-2" viewBox="0 0 24 24" stroke-width="2" stroke="currentColor" fill="none" stroke-linecap="round" stroke-linejoin="round"><path stroke="none" d="M0 0h24v24H0z"/><polyline points="5 12 3 12 12 3 21 12 19 12" /><path d="M5 12v7a2 2 0 0 0 2 2h10a2 2 0 0 0 2 -2v-7" /><rect x="10" y="12" width="4" height="4" />
</symbol>
	<symbol id="id" class="icon icon-tabler icon-tabler-id" viewBox="0 0 24 24" stroke-width="2" stroke="currentColor" fill="none" stroke-linecap="round" stroke-linejoin="round"><path stroke="none" d="M0 0h24v24H0z"/><rect x="3" y="4" width="18" height="16" rx="3" /><circle cx="9" cy="10" r="2" /><line x1="15" y1="8" x2="17" y2="8" /><line x1="15" y1="12" x2="17" y2="12" /><line x1="7" y1="16" x2="17" y2="16" />
</symbol>
	<symbol id="layout-bottombar" class="icon icon-tabler icon-tabler-layout-bottombar" viewBox="0 0 24 24" stroke-width="2" stroke="currentColor" fill="none" stroke-linecap="round" stroke-linejoin="round"><path stroke="none" d="M0 0h24v24H0z"/><rect x="4" y="4" width="16" height="16" rx="2" /><line x1="4" y1="15" x2="20" y2="15" />
</symbol>
	<symbol id="live-photo" class="icon icon-tabler icon-tabler-live-photo" viewBox="0 0 24 24" stroke-width="2" stroke="currentColor" fill="none" stroke-linecap="round" stroke-linejoin="round"><path stroke="none" d="M0 0h24v24H0z"/><circle cx="12" cy="12" r="1" /><circle cx="12" cy="12" r="5" /><circle cx="12" cy="12" r="9" stroke-dasharray=".001 4.03" />
</symbol>
	<symbol id="mug" class="icon icon-tabler icon-tabler-mug" viewBox="0 0 24 24" stroke-width="2" stroke="currentColor" fill="none" stroke-linecap="round" stroke-linejoin="round"><path stroke="none" d="M0 0h24v24H0z"/><path d="M5 6h10a1 1 0 0 1 1 1v8a4 4 0 0 1 -4 4h-4a4 4 0 0 1 -4 -4v-8a1 1 0 0 1 1 -1" /><path d="M16 9h2a2 2 0 0 1 2 2v2a2 2 0 0 1 -2 2h-2" />
</symbol>
	<symbol id="palette" class="icon icon-tabler icon-tabler-palette" viewBox="0 0 24 24" stroke-width="2" stroke="currentColor" fill="none" stroke-linecap="round" stroke-linejoin="round"><path stroke="none" d="M0 0h24v24H0z"/><path d="M12 21a9 9 0 1 1 0 -18a9 8 0 0 1 9 8a4.5 4 0 0 1 -4.5 4h-2.5a2 2 0 0 0 -1 3.75a1.3 1.3 0 0 1 -1 2.25" /><circle cx="7.5" cy="10.5" r=".5" /><circle cx="12" cy="7.5" r=".5" /><circle cx="16.5" cy="10.5" r=".5" />
</symbol>
	<symbol id="pencil" class="icon icon-tabler icon-tabler-pencil" viewBox="0 0 24 24" stroke-width="2" stroke="currentColor" fill="none" stroke-linecap="round" stroke-linejoin="round"><path stroke="none" d="M0 0h24v24H0z"/><path d="M4 20h4l10.5 -10.5a1.5 1.5 0 0 0 -4 -4l-10.5 10.5v4" /><line x1="13.5" y1="6.5" x2="17.5" y2="10.5" />
</symbol>
	<symbol id="record-mail" class="icon icon-tabler icon-tabler-record-mail" viewBox="0 0 24 24" stroke-width="2" stroke="currentColor" fill="none" stroke-linecap="round" stroke-linejoin="round"><path stroke="none" d="M0 0h24v24H0z"/><circle cx="7" cy="12" r="3" /><circle cx="17" cy="12" r="3" /><line x1="7" y1="15" x2="17" y2="15" />
</symbol>
	<symbol id="ruler" class="icon icon-tabler icon-tabler-ruler" viewBox="0 0 24 24" stroke-width="2" stroke="currentColor" fill="none" stroke-linecap="round" stroke-linejoin="round"><path stroke="none" d="M0 0h24v24H0z"/><path d="M5 4h14a1 1 0 0 1 1 1v5a1 1 0 0 1 -1 1h-7a1 1 0 0 0 -1 1v7a1 1 0 0 1 -1 1h-5a1 1 0 0 1 -1 -1v-14a1 1 0 0 1 1 -1" /><line x1="4" y1="8" x2="6" y2="8" /><line x1="4" y1="12" x2="7" y2="12" /><line x1="4" y1="16" x2="6" y2="16" /><line x1="8" y1="4" x2="8" y2="6" /><polyline points="12 4 12 7 " /><polyline points="16 4 16 6 " />
</symbol>
	<symbol id="scissors" class="icon icon-tabler icon-tabler-scissors" viewBox="0 0 24 24" stroke-width="2" stroke="currentColor" fill="none" stroke-linecap="round" stroke-linejoin="round"><path stroke="none" d="M0 0h24v24H0z"/><circle cx="6" cy="7" r="3" /><circle cx="6" cy="17" r="3" /><line x1="8.6" y1="8.6" x2="19" y2="19" /><line x1="8.6" y1="15.4" x2="19" y2="5" />
</symbol>
	<symbol id="stack" class="icon icon-tabler icon-tabler-stack" viewBox="0 0 24 24" stroke-width="2" stroke="currentColor" fill="none" stroke-linecap="round" stroke-linejoin="round"><path stroke="none" d="M0 0h24v24H0z"/><polyline points="12 4 4 8 12 12 20 8 12 4" /><polyline points="4 12 12 16 20 12" /><polyline points="4 16 12 20 20 16" />
</symbol>
	<symbol id="template" class="icon icon-tabler icon-tabler-template" viewBox="0 0 24 24" stroke-width="2" stroke="currentColor" fill="none" stroke-linecap="round" stroke-linejoin="round"><path stroke="none" d="M0 0h24v24H0z"/><rect x="4" y="4" width="16" height="4" rx="1" /><rect x="4" y="12" width="6" height="8" rx="2" /><line x1="14" y1="12" x2="20" y2="12" /><line x1="14" y1="16" x2="20" y2="16" /><line x1="14" y1="20" x2="20" y2="20" />
</symbol>

	<use xlink:href="#ad" x="24" y="24" width="24" height="24" />
	<use xlink:href="#alarm" x="77" y="24" width="24" height="24" />
	<use xlink:href="#arrow-back" x="130" y="24" width="24" height="24" />
	<use xlink:href="#arrow-forward" x="183" y="24" width="24" height="24" />
	<use xlink:href="#artboard" x="236" y="24" width="24" height="24" />
	<use xlink:href="#award" x="289" y="24" width="24" height="24" />
	<use xlink:href="#bug" x="24" y="77" width="24" height="24" />
	<use xlink:href="#building-arch" x="77" y="77" width="24" height="24" />
	<use xlink:href="#building-bridge-2" x="130" y="77" width="24" height="24" />
	<use xlink:href="#building-bridge" x="183" y="77" width="24" height="24" />
	<use xlink:href="#building-church" x="236" y="77" width="24" height="24" />
	<use xlink:href="#building-hospital" x="289" y="77" width="24" height="24" />
	<use xlink:href="#building-store" x="24" y="130" width="24" height="24" />
	<use xlink:href="#building" x="77" y="130" width="24" height="24" />
	<use xlink:href="#calendar-event" x="130" y="130" width="24" height="24" />
	<use xlink:href="#device-speaker" x="183" y="130" width="24" height="24" />
	<use xlink:href="#globe" x="236" y="130" width="24" height="24" />
	<use xlink:href="#help" x="289" y="130" width="24" height="24" />
	<use xlink:href="#home-2" x="24" y="183" width="24" height="24" />
	<use xlink:href="#id" x="77" y="183" width="24" height="24" />
	<use xlink:href="#layout-bottombar" x="130" y="183" width="24" height="24" />
	<use xlink:href="#live-photo" x="183" y="183" width="24" height="24" />
	<use xlink:href="#mug" x="236" y="183" width="24" height="24" />
	<use xlink:href="#palette" x="289" y="183" width="24" height="24" />
	<use xlink:href="#pencil" x="24" y="236" width="24" height="24" />
	<use xlink:href="#record-mail" x="77" y="236" width="24" height="24" />
	<use xlink:href="#ruler" x="130" y="236" width="24" height="24" />
	<use xlink:href="#scissors" x="183" y="236" width="24" height="24" />
	<use xlink:href="#stack" x="236" y="236" width="24" height="24" />
	<use xlink:href="#template" x="289" y="236" width="24" height="24" />

</svg>