<svg xmlns="http://www.w3.org/2000/svg" xmlns:xlink="http://www.w3.org/1999/xlink" viewBox="0 0 292 160" width="292" height="160" style="color: #354052"><rect x="0" y="0" width="292" height="160" fill="#fff"></rect>
	<symbol id="bowl" class="icon icon-tabler icon-tabler-bowl" viewBox="0 0 24 24" stroke-width="2" stroke="currentColor" fill="none" stroke-linecap="round" stroke-linejoin="round"><path stroke="none" d="M0 0h24v24H0z" fill="none"/><path d="M4 8h16a1 1 0 0 1 1 1v.5c0 1.5 -2.517 5.573 -4 6.5v1a1 1 0 0 1 -1 1h-8a1 1 0 0 1 -1 -1v-1c-1.687 -1.054 -4 -5 -4 -6.5v-.5a1 1 0 0 1 1 -1z" />
</symbol>
	<symbol id="brand-guardian" class="icon icon-tabler icon-tabler-brand-guardian" viewBox="0 0 24 24" stroke-width="2" stroke="currentColor" fill="none" stroke-linecap="round" stroke-linejoin="round"><path stroke="none" d="M0 0h24v24H0z" fill="none"/><path d="M14 13h6" /><path d="M4 12c0 -9.296 9.5 -9 9.5 -9c-2.808 0 -4.5 4.373 -4.5 9s1.763 8.976 4.572 8.976c0 .023 -9.572 1.092 -9.572 -8.976z" /><path d="M14.5 3c1.416 0 3.853 1.16 4.5 2v3.5" /><path d="M15 13v8s2.77 -.37 4 -2v-6" /><path d="M13.5 21h1.5" /><path d="M13.5 3h1" />
</symbol>
	<symbol id="brand-spacehey" class="icon icon-tabler icon-tabler-brand-spacehey" viewBox="0 0 24 24" stroke-width="2" stroke="currentColor" fill="none" stroke-linecap="round" stroke-linejoin="round"><path stroke="none" d="M0 0h24v24H0z" fill="none"/><circle cx="17" cy="6" r="2" /><path d="M14 20h6v-6a3 3 0 0 0 -6 0v6z" /><path d="M11 8v2.5a3.5 3.5 0 0 1 -3.5 3.5h-.5a3 3 0 0 1 0 -6h4z" />
</symbol>
	<symbol id="car-turbine" class="icon icon-tabler icon-tabler-car-turbine" viewBox="0 0 24 24" stroke-width="2" stroke="currentColor" fill="none" stroke-linecap="round" stroke-linejoin="round"><path stroke="none" d="M0 0h24v24H0z" fill="none"/><circle cx="11" cy="13" r="4" /><path d="M18.86 11c.088 .66 .14 1.512 .14 2a8 8 0 1 1 -8 -8h6" /><path d="M11 9c2.489 .108 4.489 .108 6 0" /><rect x="17" y="3" width="4" height="8" rx="1" /><path d="M11 13l-3.5 -1.5" /><path d="M11 13l2.5 3" /><path d="M8.5 16l2.5 -3" /><path d="M11 13l3.5 -1.5" /><path d="M11 9v4" />
</symbol>
	<symbol id="code-circle-2" class="icon icon-tabler icon-tabler-code-circle-2" viewBox="0 0 24 24" stroke-width="2" stroke="currentColor" fill="none" stroke-linecap="round" stroke-linejoin="round"><path stroke="none" d="M0 0h24v24H0z" fill="none"/><path d="M8.5 13.5l-1.5 -1.5l1.5 -1.5" /><path d="M15.5 10.5l1.5 1.5l-1.5 1.5" /><circle cx="12" cy="12" r="9" /><path d="M13 9.5l-2 5.5" />
</symbol>
	<symbol id="code-circle" class="icon icon-tabler icon-tabler-code-circle" viewBox="0 0 24 24" stroke-width="2" stroke="currentColor" fill="none" stroke-linecap="round" stroke-linejoin="round"><path stroke="none" d="M0 0h24v24H0z" fill="none"/><path d="M10 14l-2 -2l2 -2" /><path d="M14 10l2 2l-2 2" /><circle cx="12" cy="12" r="9" />
</symbol>
	<symbol id="eggs" class="icon icon-tabler icon-tabler-eggs" viewBox="0 0 24 24" stroke-width="2" stroke="currentColor" fill="none" stroke-linecap="round" stroke-linejoin="round"><path stroke="none" d="M0 0h24v24H0z" fill="none"/><path d="M13 22c-3 0 -4.868 -2.118 -4.995 -5c-.005 -3 1.995 -5 4.995 -5c4 0 8.01 2.5 8.005 5c-.005 2.5 -4.005 5 -8.005 5z" /><path d="M8 18c-3.03 -.196 -5 -2.309 -5 -5.38c0 -4.307 2.75 -8.625 5.5 -8.62c2.614 .005 5.248 3.915 5.5 8" />
</symbol>
	<symbol id="file-broken" class="icon icon-tabler icon-tabler-file-broken" viewBox="0 0 24 24" stroke-width="2" stroke="currentColor" fill="none" stroke-linecap="round" stroke-linejoin="round"><path stroke="none" d="M0 0h24v24H0z" fill="none"/><path d="M14 3v4a1 1 0 0 0 1 1h4" /><path d="M5 7v-2a2 2 0 0 1 2 -2h7l5 5v2" /><path d="M19 19a2 2 0 0 1 -2 2h-10a2 2 0 0 1 -2 -2" /><path d="M5 16h.01" /><path d="M5 13h.01" /><path d="M5 10h.01" /><path d="M19 13h.01" /><path d="M19 16h.01" />
</symbol>
	<symbol id="file-infinity" class="icon icon-tabler icon-tabler-file-infinity" viewBox="0 0 24 24" stroke-width="2" stroke="currentColor" fill="none" stroke-linecap="round" stroke-linejoin="round"><path stroke="none" d="M0 0h24v24H0z" fill="none"/><path d="M15.536 17.586a2.123 2.123 0 0 0 -2.929 0a1.951 1.951 0 0 0 0 2.828c.809 .781 2.12 .781 2.929 0c.809 -.781 -.805 .778 .004 -.003l1.46 -1.41l1.46 -1.419" /><path d="M15.54 17.582l1.46 1.42l1.46 1.41c.809 .78 -.805 -.779 .004 .002s2.12 .781 2.929 0a1.951 1.951 0 0 0 0 -2.828a2.123 2.123 0 0 0 -2.929 0" /><path d="M14 3v4a1 1 0 0 0 1 1h4" /><path d="M9.5 21h-2.5a2 2 0 0 1 -2 -2v-14a2 2 0 0 1 2 -2h7l5 5v6" />
</symbol>
	<symbol id="file-stack" class="icon icon-tabler icon-tabler-file-stack" viewBox="0 0 24 24" stroke-width="2" stroke="currentColor" fill="none" stroke-linecap="round" stroke-linejoin="round"><path stroke="none" d="M0 0h24v24H0z" fill="none"/><path d="M14 3v4a1 1 0 0 0 1 1h4" /><path d="M5 12v-7a2 2 0 0 1 2 -2h7l5 5v4" /><path d="M5 21h14" /><path d="M5 18h14" /><path d="M5 15h14" />
</symbol>
	<symbol id="home-hand" class="icon icon-tabler icon-tabler-home-hand" viewBox="0 0 24 24" stroke-width="2" stroke="currentColor" fill="none" stroke-linecap="round" stroke-linejoin="round"><path stroke="none" d="M0 0h24v24H0z" fill="none"/><path d="M18 9l-6 -6l-9 9h2v7a2 2 0 0 0 2 2h3.5" /><path d="M9 21v-6a2 2 0 0 1 2 -2h2" /><path d="M16 17.5l-.585 -.578a1.516 1.516 0 0 0 -2 0c-.477 .433 -.551 1.112 -.177 1.622l1.762 2.456c.37 .506 1.331 1 2 1h3c1.009 0 1.497 -.683 1.622 -1.593c.252 -.938 .378 -1.74 .378 -2.407c0 -1 -.939 -1.843 -2 -2h-1v-2.636c0 -.754 -.672 -1.364 -1.5 -1.364s-1.5 .61 -1.5 1.364v4.136z" />
</symbol>
	<symbol id="home-infinity" class="icon icon-tabler icon-tabler-home-infinity" viewBox="0 0 24 24" stroke-width="2" stroke="currentColor" fill="none" stroke-linecap="round" stroke-linejoin="round"><path stroke="none" d="M0 0h24v24H0z" fill="none"/><path d="M19 14v-2h2l-9 -9l-9 9h2v7a2 2 0 0 0 2 2h2.5" /><path d="M9 21v-6a2 2 0 0 1 2 -2h2a2 2 0 0 1 1.75 1.032" /><path d="M15.536 17.586a2.123 2.123 0 0 0 -2.929 0a1.951 1.951 0 0 0 0 2.828c.809 .781 2.12 .781 2.929 0c.809 -.781 -.805 .778 .004 -.003l1.46 -1.41l1.46 -1.419" /><path d="M15.54 17.582l1.46 1.42l1.46 1.41c.809 .78 -.805 -.779 .004 .002s2.12 .781 2.929 0a1.951 1.951 0 0 0 0 -2.828a2.123 2.123 0 0 0 -2.929 0" />
</symbol>
	<symbol id="moneybag" class="icon icon-tabler icon-tabler-moneybag" viewBox="0 0 24 24" stroke-width="2" stroke="currentColor" fill="none" stroke-linecap="round" stroke-linejoin="round"><path stroke="none" d="M0 0h24v24H0z" fill="none"/><path d="M9.5 3h5a1.5 1.5 0 0 1 1.5 1.5a3.5 3.5 0 0 1 -3.5 3.5h-1a3.5 3.5 0 0 1 -3.5 -3.5a1.5 1.5 0 0 1 1.5 -1.5z" /><path d="M4 17v-1a8 8 0 1 1 16 0v1a4 4 0 0 1 -4 4h-8a4 4 0 0 1 -4 -4z" />
</symbol>
	<symbol id="needle-thread" class="icon icon-tabler icon-tabler-needle-thread" viewBox="0 0 24 24" stroke-width="2" stroke="currentColor" fill="none" stroke-linecap="round" stroke-linejoin="round"><path stroke="none" d="M0 0h24v24H0z" fill="none"/><path d="M3 21c-.667 -.667 3.262 -6.236 11.785 -16.709a3.5 3.5 0 1 1 5.078 4.791c-10.575 8.612 -16.196 12.585 -16.863 11.918z" /><path d="M17.5 6.5l-1 1" /><path d="M17 7c-2.333 -2.667 -3.5 -4 -5 -4s-2 1 -2 2c0 4 8.161 8.406 6 11c-1.056 1.268 -3.363 1.285 -5.75 .808" /><path d="M5.739 15.425c-1.393 -.565 -3.739 -1.925 -3.739 -3.425" /><path d="M19.5 9.5l1.5 1.5" />
</symbol>
	<symbol id="needle" class="icon icon-tabler icon-tabler-needle" viewBox="0 0 24 24" stroke-width="2" stroke="currentColor" fill="none" stroke-linecap="round" stroke-linejoin="round"><path stroke="none" d="M0 0h24v24H0z" fill="none"/><path d="M3 21c-.667 -.667 3.262 -6.236 11.785 -16.709a3.5 3.5 0 1 1 5.078 4.791c-10.575 8.612 -16.196 12.585 -16.863 11.918z" /><path d="M17.5 6.5l-1 1" />
</symbol>
	<symbol id="perfume" class="icon icon-tabler icon-tabler-perfume" viewBox="0 0 24 24" stroke-width="2" stroke="currentColor" fill="none" stroke-linecap="round" stroke-linejoin="round"><path stroke="none" d="M0 0h24v24H0z" fill="none"/><path d="M10 6v3" /><path d="M14 6v3" /><rect x="5" y="9" width="14" height="12" rx="2" /><circle cx="12" cy="15" r="2" /><path d="M9 3h6v3h-6z" />
</symbol>
	<symbol id="salad" class="icon icon-tabler icon-tabler-salad" viewBox="0 0 24 24" stroke-width="2" stroke="currentColor" fill="none" stroke-linecap="round" stroke-linejoin="round"><path stroke="none" d="M0 0h24v24H0z" fill="none"/><path d="M4 11h16a1 1 0 0 1 1 1v.5c0 1.5 -2.517 5.573 -4 6.5v1a1 1 0 0 1 -1 1h-8a1 1 0 0 1 -1 -1v-1c-1.687 -1.054 -4 -5 -4 -6.5v-.5a1 1 0 0 1 1 -1z" /><path d="M18.5 11c.351 -1.017 .426 -2.236 .5 -3.714v-1.286h-2.256c-2.83 0 -4.616 .804 -5.64 2.076" /><path d="M5.255 11.008a12.204 12.204 0 0 1 -.255 -2.008v-1h1.755c.98 0 1.801 .124 2.479 .35" /><path d="M8 8l1 -4l4 2.5" /><path d="M13 11v-.5a2.5 2.5 0 1 0 -5 0v.5" />
</symbol>
	<symbol id="spray" class="icon icon-tabler icon-tabler-spray" viewBox="0 0 24 24" stroke-width="2" stroke="currentColor" fill="none" stroke-linecap="round" stroke-linejoin="round"><path stroke="none" d="M0 0h24v24H0z" fill="none"/><rect x="4" y="10" width="8" height="11" rx="2" /><path d="M6 10v-4a1 1 0 0 1 1 -1h2a1 1 0 0 1 1 1v4" /><path d="M15 7h.01" /><path d="M18 9h.01" /><path d="M18 5h.01" /><path d="M21 3h.01" /><path d="M21 7h.01" /><path d="M21 11h.01" /><path d="M10 7h1" />
</symbol>

	<use xlink:href="#bowl" x="24" y="24" width="24" height="24" />
	<use xlink:href="#brand-guardian" x="68" y="24" width="24" height="24" />
	<use xlink:href="#brand-spacehey" x="112" y="24" width="24" height="24" />
	<use xlink:href="#car-turbine" x="156" y="24" width="24" height="24" />
	<use xlink:href="#code-circle-2" x="200" y="24" width="24" height="24" />
	<use xlink:href="#code-circle" x="244" y="24" width="24" height="24" />
	<use xlink:href="#eggs" x="24" y="68" width="24" height="24" />
	<use xlink:href="#file-broken" x="68" y="68" width="24" height="24" />
	<use xlink:href="#file-infinity" x="112" y="68" width="24" height="24" />
	<use xlink:href="#file-stack" x="156" y="68" width="24" height="24" />
	<use xlink:href="#home-hand" x="200" y="68" width="24" height="24" />
	<use xlink:href="#home-infinity" x="244" y="68" width="24" height="24" />
	<use xlink:href="#moneybag" x="24" y="112" width="24" height="24" />
	<use xlink:href="#needle-thread" x="68" y="112" width="24" height="24" />
	<use xlink:href="#needle" x="112" y="112" width="24" height="24" />
	<use xlink:href="#perfume" x="156" y="112" width="24" height="24" />
	<use xlink:href="#salad" x="200" y="112" width="24" height="24" />
	<use xlink:href="#spray" x="244" y="112" width="24" height="24" />

</svg>