<svg xmlns="http://www.w3.org/2000/svg" xmlns:xlink="http://www.w3.org/1999/xlink" viewBox="0 0 292 160" width="292" height="160" style="color: #354052"><rect x="0" y="0" width="292" height="160" fill="#fff"></rect>
	<symbol id="database-cog" class="icon icon-tabler icon-tabler-database-cog" viewBox="0 0 24 24" stroke-width="2" stroke="currentColor" fill="none" stroke-linecap="round" stroke-linejoin="round"><path stroke="none" d="M0 0h24v24H0z" fill="none"/><path d="M4 6c0 1.657 3.582 3 8 3s8 -1.343 8 -3s-3.582 -3 -8 -3s-8 1.343 -8 3" /><path d="M4 6v6c0 1.657 3.582 3 8 3c.21 0 .42 -.003 .626 -.01" /><path d="M20 11.5v-5.5" /><path d="M4 12v6c0 1.657 3.582 3 8 3" /><path d="M19.001 19m-2 0a2 2 0 1 0 4 0a2 2 0 1 0 -4 0" /><path d="M19.001 15.5v1.5" /><path d="M19.001 21v1.5" /><path d="M22.032 17.25l-1.299 .75" /><path d="M17.27 20l-1.3 .75" /><path d="M15.97 17.25l1.3 .75" /><path d="M20.733 20l1.3 .75" />
</symbol>
	<symbol id="database-dollar" class="icon icon-tabler icon-tabler-database-dollar" viewBox="0 0 24 24" stroke-width="2" stroke="currentColor" fill="none" stroke-linecap="round" stroke-linejoin="round"><path stroke="none" d="M0 0h24v24H0z" fill="none"/><path d="M4 6c0 1.657 3.582 3 8 3s8 -1.343 8 -3s-3.582 -3 -8 -3s-8 1.343 -8 3" /><path d="M4 6v6c0 1.657 3.582 3 8 3c.415 0 .822 -.012 1.22 -.035" /><path d="M20 10v-4" /><path d="M4 12v6c0 1.657 3.582 3 8 3c.352 0 .698 -.009 1.037 -.025" /><path d="M21 15h-2.5a1.5 1.5 0 0 0 0 3h1a1.5 1.5 0 0 1 0 3h-2.5" /><path d="M19 21v1m0 -8v1" />
</symbol>
	<symbol id="database-edit" class="icon icon-tabler icon-tabler-database-edit" viewBox="0 0 24 24" stroke-width="2" stroke="currentColor" fill="none" stroke-linecap="round" stroke-linejoin="round"><path stroke="none" d="M0 0h24v24H0z" fill="none"/><path d="M4 6c0 1.657 3.582 3 8 3s8 -1.343 8 -3s-3.582 -3 -8 -3s-8 1.343 -8 3" /><path d="M4 6v6c0 1.657 3.582 3 8 3c.478 0 .947 -.016 1.402 -.046" /><path d="M20 12v-6" /><path d="M4 12v6c0 1.526 3.04 2.786 6.972 2.975" /><path d="M18.42 15.61a2.1 2.1 0 0 1 2.97 2.97l-3.39 3.42h-3v-3l3.42 -3.39z" />
</symbol>
	<symbol id="database-exclamation" class="icon icon-tabler icon-tabler-database-exclamation" viewBox="0 0 24 24" stroke-width="2" stroke="currentColor" fill="none" stroke-linecap="round" stroke-linejoin="round"><path stroke="none" d="M0 0h24v24H0z" fill="none"/><path d="M4 6c0 1.657 3.582 3 8 3s8 -1.343 8 -3s-3.582 -3 -8 -3s-8 1.343 -8 3" /><path d="M4 6v6c0 1.657 3.582 3 8 3c1.118 0 2.182 -.086 3.148 -.241m4.852 -2.759v-6" /><path d="M4 12v6c0 1.657 3.582 3 8 3c1.064 0 2.079 -.078 3.007 -.22" /><path d="M19 16v3" /><path d="M19 22v.01" />
</symbol>
	<symbol id="database-heart" class="icon icon-tabler icon-tabler-database-heart" viewBox="0 0 24 24" stroke-width="2" stroke="currentColor" fill="none" stroke-linecap="round" stroke-linejoin="round"><path stroke="none" d="M0 0h24v24H0z" fill="none"/><path d="M4 6c0 1.657 3.582 3 8 3s8 -1.343 8 -3s-3.582 -3 -8 -3s-8 1.343 -8 3" /><path d="M4 6v6c0 1.453 2.755 2.665 6.414 2.941" /><path d="M20 11v-5" /><path d="M4 12v6c0 1.579 3.253 2.873 7.383 2.991" /><path d="M18 22l3.35 -3.284a2.143 2.143 0 0 0 .005 -3.071a2.242 2.242 0 0 0 -3.129 -.006l-.224 .22l-.223 -.22a2.242 2.242 0 0 0 -3.128 -.006a2.143 2.143 0 0 0 -.006 3.071l3.355 3.296z" />
</symbol>
	<symbol id="database-leak" class="icon icon-tabler icon-tabler-database-leak" viewBox="0 0 24 24" stroke-width="2" stroke="currentColor" fill="none" stroke-linecap="round" stroke-linejoin="round"><path stroke="none" d="M0 0h24v24H0z" fill="none"/><path d="M4 6c0 1.657 3.582 3 8 3s8 -1.343 8 -3s-3.582 -3 -8 -3s-8 1.343 -8 3" /><path d="M4 6v12c0 1.657 3.582 3 8 3s8 -1.343 8 -3v-12" /><path d="M4 15a2.4 2.4 0 0 0 2 -1a2.4 2.4 0 0 1 2 -1a2.4 2.4 0 0 1 2 1a2.4 2.4 0 0 0 2 1a2.4 2.4 0 0 0 2 -1a2.4 2.4 0 0 1 2 -1a2.4 2.4 0 0 1 2 1a2.4 2.4 0 0 0 2 1" />
</symbol>
	<symbol id="database-minus" class="icon icon-tabler icon-tabler-database-minus" viewBox="0 0 24 24" stroke-width="2" stroke="currentColor" fill="none" stroke-linecap="round" stroke-linejoin="round"><path stroke="none" d="M0 0h24v24H0z" fill="none"/><path d="M4 6c0 1.657 3.582 3 8 3s8 -1.343 8 -3s-3.582 -3 -8 -3s-8 1.343 -8 3" /><path d="M4 6v6c0 1.657 3.582 3 8 3s8 -1.343 8 -3v-6" /><path d="M4 12v6c0 1.657 3.582 3 8 3c.164 0 .328 -.002 .49 -.006" /><path d="M20 15v-3" /><path d="M16 19h6" />
</symbol>
	<symbol id="database-plus" class="icon icon-tabler icon-tabler-database-plus" viewBox="0 0 24 24" stroke-width="2" stroke="currentColor" fill="none" stroke-linecap="round" stroke-linejoin="round"><path stroke="none" d="M0 0h24v24H0z" fill="none"/><path d="M4 6c0 1.657 3.582 3 8 3s8 -1.343 8 -3s-3.582 -3 -8 -3s-8 1.343 -8 3" /><path d="M4 6v6c0 1.657 3.582 3 8 3c1.075 0 2.1 -.08 3.037 -.224" /><path d="M20 12v-6" /><path d="M4 12v6c0 1.657 3.582 3 8 3c.166 0 .331 -.002 .495 -.006" /><path d="M16 19h6" /><path d="M19 16v6" />
</symbol>
	<symbol id="database-search" class="icon icon-tabler icon-tabler-database-search" viewBox="0 0 24 24" stroke-width="2" stroke="currentColor" fill="none" stroke-linecap="round" stroke-linejoin="round"><path stroke="none" d="M0 0h24v24H0z" fill="none"/><path d="M4 6c0 1.657 3.582 3 8 3s8 -1.343 8 -3s-3.582 -3 -8 -3s-8 1.343 -8 3" /><path d="M4 6v6c0 1.657 3.582 3 8 3m8 -3.5v-5.5" /><path d="M4 12v6c0 1.657 3.582 3 8 3" /><path d="M18 18m-3 0a3 3 0 1 0 6 0a3 3 0 1 0 -6 0" /><path d="M20.2 20.2l1.8 1.8" />
</symbol>
	<symbol id="database-share" class="icon icon-tabler icon-tabler-database-share" viewBox="0 0 24 24" stroke-width="2" stroke="currentColor" fill="none" stroke-linecap="round" stroke-linejoin="round"><path stroke="none" d="M0 0h24v24H0z" fill="none"/><path d="M4 6c0 1.657 3.582 3 8 3s8 -1.343 8 -3s-3.582 -3 -8 -3s-8 1.343 -8 3" /><path d="M4 6v6c0 1.657 3.582 3 8 3c.361 0 .716 -.009 1.065 -.026" /><path d="M20 13v-7" /><path d="M4 12v6c0 1.657 3.582 3 8 3" /><path d="M16 22l5 -5" /><path d="M21 21.5v-4.5h-4.5" />
</symbol>
	<symbol id="database-star" class="icon icon-tabler icon-tabler-database-star" viewBox="0 0 24 24" stroke-width="2" stroke="currentColor" fill="none" stroke-linecap="round" stroke-linejoin="round"><path stroke="none" d="M0 0h24v24H0z" fill="none"/><path d="M4 6c0 1.657 3.582 3 8 3s8 -1.343 8 -3s-3.582 -3 -8 -3s-8 1.343 -8 3" /><path d="M4 6v6c0 1.43 2.67 2.627 6.243 2.927" /><path d="M20 10.5v-4.5" /><path d="M4 12v6c0 1.546 3.12 2.82 7.128 2.982" /><path d="M17.8 20.817l-2.172 1.138a.392 .392 0 0 1 -.568 -.41l.415 -2.411l-1.757 -1.707a.389 .389 0 0 1 .217 -.665l2.428 -.352l1.086 -2.193a.392 .392 0 0 1 .702 0l1.086 2.193l2.428 .352a.39 .39 0 0 1 .217 .665l-1.757 1.707l.414 2.41a.39 .39 0 0 1 -.567 .411l-2.172 -1.138z" />
</symbol>
	<symbol id="database-x" class="icon icon-tabler icon-tabler-database-x" viewBox="0 0 24 24" stroke-width="2" stroke="currentColor" fill="none" stroke-linecap="round" stroke-linejoin="round"><path stroke="none" d="M0 0h24v24H0z" fill="none"/><path d="M4 6c0 1.657 3.582 3 8 3s8 -1.343 8 -3s-3.582 -3 -8 -3s-8 1.343 -8 3" /><path d="M4 6v6c0 1.657 3.582 3 8 3c.537 0 1.062 -.02 1.57 -.058" /><path d="M20 13.5v-7.5" /><path d="M4 12v6c0 1.657 3.582 3 8 3c.384 0 .762 -.01 1.132 -.03" /><path d="M22 22l-5 -5" /><path d="M17 22l5 -5" />
</symbol>
	<symbol id="table-down" class="icon icon-tabler icon-tabler-table-down" viewBox="0 0 24 24" stroke-width="2" stroke="currentColor" fill="none" stroke-linecap="round" stroke-linejoin="round"><path stroke="none" d="M0 0h24v24H0z" fill="none"/><path d="M12.5 21h-7.5a2 2 0 0 1 -2 -2v-14a2 2 0 0 1 2 -2h14a2 2 0 0 1 2 2v7.5" /><path d="M3 10h18" /><path d="M10 3v18" /><path d="M19 16v6" /><path d="M22 19l-3 3l-3 -3" />
</symbol>
	<symbol id="table-heart" class="icon icon-tabler icon-tabler-table-heart" viewBox="0 0 24 24" stroke-width="2" stroke="currentColor" fill="none" stroke-linecap="round" stroke-linejoin="round"><path stroke="none" d="M0 0h24v24H0z" fill="none"/><path d="M11.5 21h-6.5a2 2 0 0 1 -2 -2v-14a2 2 0 0 1 2 -2h14a2 2 0 0 1 2 2v6" /><path d="M3 10h18" /><path d="M10 3v18" /><path d="M18 22l3.35 -3.284a2.143 2.143 0 0 0 .005 -3.071a2.242 2.242 0 0 0 -3.129 -.006l-.224 .22l-.223 -.22a2.242 2.242 0 0 0 -3.128 -.006a2.143 2.143 0 0 0 -.006 3.071l3.355 3.296z" />
</symbol>
	<symbol id="table-minus" class="icon icon-tabler icon-tabler-table-minus" viewBox="0 0 24 24" stroke-width="2" stroke="currentColor" fill="none" stroke-linecap="round" stroke-linejoin="round"><path stroke="none" d="M0 0h24v24H0z" fill="none"/><path d="M12.5 21h-7.5a2 2 0 0 1 -2 -2v-14a2 2 0 0 1 2 -2h14a2 2 0 0 1 2 2v10" /><path d="M3 10h18" /><path d="M10 3v18" /><path d="M16 19h6" />
</symbol>
	<symbol id="table-plus" class="icon icon-tabler icon-tabler-table-plus" viewBox="0 0 24 24" stroke-width="2" stroke="currentColor" fill="none" stroke-linecap="round" stroke-linejoin="round"><path stroke="none" d="M0 0h24v24H0z" fill="none"/><path d="M12.5 21h-7.5a2 2 0 0 1 -2 -2v-14a2 2 0 0 1 2 -2h14a2 2 0 0 1 2 2v7.5" /><path d="M3 10h18" /><path d="M10 3v18" /><path d="M16 19h6" /><path d="M19 16v6" />
</symbol>
	<symbol id="table-share" class="icon icon-tabler icon-tabler-table-share" viewBox="0 0 24 24" stroke-width="2" stroke="currentColor" fill="none" stroke-linecap="round" stroke-linejoin="round"><path stroke="none" d="M0 0h24v24H0z" fill="none"/><path d="M12 21h-7a2 2 0 0 1 -2 -2v-14a2 2 0 0 1 2 -2h14a2 2 0 0 1 2 2v8" /><path d="M3 10h18" /><path d="M10 3v18" /><path d="M16 22l5 -5" /><path d="M21 21.5v-4.5h-4.5" />
</symbol>
	<symbol id="users-group" class="icon icon-tabler icon-tabler-users-group" viewBox="0 0 24 24" stroke-width="2" stroke="currentColor" fill="none" stroke-linecap="round" stroke-linejoin="round"><path stroke="none" d="M0 0h24v24H0z" fill="none"/><path d="M10 13a2 2 0 1 0 4 0a2 2 0 0 0 -4 0" /><path d="M8 21v-1a2 2 0 0 1 2 -2h4a2 2 0 0 1 2 2v1" /><path d="M15 5a2 2 0 1 0 4 0a2 2 0 0 0 -4 0" /><path d="M17 10h2a2 2 0 0 1 2 2v1" /><path d="M5 5a2 2 0 1 0 4 0a2 2 0 0 0 -4 0" /><path d="M3 13v-1a2 2 0 0 1 2 -2h2" />
</symbol>

	<use xlink:href="#database-cog" x="24" y="24" width="24" height="24" />
	<use xlink:href="#database-dollar" x="68" y="24" width="24" height="24" />
	<use xlink:href="#database-edit" x="112" y="24" width="24" height="24" />
	<use xlink:href="#database-exclamation" x="156" y="24" width="24" height="24" />
	<use xlink:href="#database-heart" x="200" y="24" width="24" height="24" />
	<use xlink:href="#database-leak" x="244" y="24" width="24" height="24" />
	<use xlink:href="#database-minus" x="24" y="68" width="24" height="24" />
	<use xlink:href="#database-plus" x="68" y="68" width="24" height="24" />
	<use xlink:href="#database-search" x="112" y="68" width="24" height="24" />
	<use xlink:href="#database-share" x="156" y="68" width="24" height="24" />
	<use xlink:href="#database-star" x="200" y="68" width="24" height="24" />
	<use xlink:href="#database-x" x="244" y="68" width="24" height="24" />
	<use xlink:href="#table-down" x="24" y="112" width="24" height="24" />
	<use xlink:href="#table-heart" x="68" y="112" width="24" height="24" />
	<use xlink:href="#table-minus" x="112" y="112" width="24" height="24" />
	<use xlink:href="#table-plus" x="156" y="112" width="24" height="24" />
	<use xlink:href="#table-share" x="200" y="112" width="24" height="24" />
	<use xlink:href="#users-group" x="244" y="112" width="24" height="24" />

</svg>