<svg xmlns="http://www.w3.org/2000/svg" xmlns:xlink="http://www.w3.org/1999/xlink" viewBox="0 0 292 468" width="292" height="468" style="color: #354052"><rect x="0" y="0" width="292" height="468" fill="#fff"></rect>
	<symbol id="letter-a-small" class="icon icon-tabler icon-tabler-letter-a-small" viewBox="0 0 24 24" stroke-width="2" stroke="currentColor" fill="none" stroke-linecap="round" stroke-linejoin="round"><path stroke="none" d="M0 0h24v24H0z" fill="none"/><path d="M10 16v-6a2 2 0 1 1 4 0v6" /><path d="M10 13h4" />
</symbol>
	<symbol id="letter-b-small" class="icon icon-tabler icon-tabler-letter-b-small" viewBox="0 0 24 24" stroke-width="2" stroke="currentColor" fill="none" stroke-linecap="round" stroke-linejoin="round"><path stroke="none" d="M0 0h24v24H0z" fill="none"/><path d="M10 16h2a2 2 0 1 0 0 -4h-2h2a2 2 0 1 0 0 -4h-2v8z" />
</symbol>
	<symbol id="letter-c-small" class="icon icon-tabler icon-tabler-letter-c-small" viewBox="0 0 24 24" stroke-width="2" stroke="currentColor" fill="none" stroke-linecap="round" stroke-linejoin="round"><path stroke="none" d="M0 0h24v24H0z" fill="none"/><path d="M14 10a2 2 0 1 0 -4 0v4a2 2 0 1 0 4 0" />
</symbol>
	<symbol id="letter-d-small" class="icon icon-tabler icon-tabler-letter-d-small" viewBox="0 0 24 24" stroke-width="2" stroke="currentColor" fill="none" stroke-linecap="round" stroke-linejoin="round"><path stroke="none" d="M0 0h24v24H0z" fill="none"/><path d="M10 8v8h2a2 2 0 0 0 2 -2v-4a2 2 0 0 0 -2 -2h-2z" />
</symbol>
	<symbol id="letter-e-small" class="icon icon-tabler icon-tabler-letter-e-small" viewBox="0 0 24 24" stroke-width="2" stroke="currentColor" fill="none" stroke-linecap="round" stroke-linejoin="round"><path stroke="none" d="M0 0h24v24H0z" fill="none"/><path d="M14 8h-4v8h4" /><path d="M10 12h2.5" />
</symbol>
	<symbol id="letter-f-small" class="icon icon-tabler icon-tabler-letter-f-small" viewBox="0 0 24 24" stroke-width="2" stroke="currentColor" fill="none" stroke-linecap="round" stroke-linejoin="round"><path stroke="none" d="M0 0h24v24H0z" fill="none"/><path d="M10 12h3" /><path d="M14 8h-4v8" />
</symbol>
	<symbol id="letter-g-small" class="icon icon-tabler icon-tabler-letter-g-small" viewBox="0 0 24 24" stroke-width="2" stroke="currentColor" fill="none" stroke-linecap="round" stroke-linejoin="round"><path stroke="none" d="M0 0h24v24H0z" fill="none"/><path d="M14 8h-2a2 2 0 0 0 -2 2v4a2 2 0 0 0 2 2h2v-4h-1" />
</symbol>
	<symbol id="letter-h-small" class="icon icon-tabler icon-tabler-letter-h-small" viewBox="0 0 24 24" stroke-width="2" stroke="currentColor" fill="none" stroke-linecap="round" stroke-linejoin="round"><path stroke="none" d="M0 0h24v24H0z" fill="none"/><path d="M10 16v-8" /><path d="M14 8v8" /><path d="M10 12h4" />
</symbol>
	<symbol id="letter-i-small" class="icon icon-tabler icon-tabler-letter-i-small" viewBox="0 0 24 24" stroke-width="2" stroke="currentColor" fill="none" stroke-linecap="round" stroke-linejoin="round"><path stroke="none" d="M0 0h24v24H0z" fill="none"/><path d="M12 8v8" />
</symbol>
	<symbol id="letter-j-small" class="icon icon-tabler icon-tabler-letter-j-small" viewBox="0 0 24 24" stroke-width="2" stroke="currentColor" fill="none" stroke-linecap="round" stroke-linejoin="round"><path stroke="none" d="M0 0h24v24H0z" fill="none"/><path d="M10 8h4v6a2 2 0 1 1 -4 0" />
</symbol>
	<symbol id="letter-k-small" class="icon icon-tabler icon-tabler-letter-k-small" viewBox="0 0 24 24" stroke-width="2" stroke="currentColor" fill="none" stroke-linecap="round" stroke-linejoin="round"><path stroke="none" d="M0 0h24v24H0z" fill="none"/><path d="M10.5 8v8" /><path d="M14.5 8l-3 4l3 4" /><path d="M10.5 12h1" />
</symbol>
	<symbol id="letter-l-small" class="icon icon-tabler icon-tabler-letter-l-small" viewBox="0 0 24 24" stroke-width="2" stroke="currentColor" fill="none" stroke-linecap="round" stroke-linejoin="round"><path stroke="none" d="M0 0h24v24H0z" fill="none"/><path d="M10 8v8h4" />
</symbol>
	<symbol id="letter-m-small" class="icon icon-tabler icon-tabler-letter-m-small" viewBox="0 0 24 24" stroke-width="2" stroke="currentColor" fill="none" stroke-linecap="round" stroke-linejoin="round"><path stroke="none" d="M0 0h24v24H0z" fill="none"/><path d="M9 16v-8l3 5l3 -5v8" />
</symbol>
	<symbol id="letter-n-small" class="icon icon-tabler icon-tabler-letter-n-small" viewBox="0 0 24 24" stroke-width="2" stroke="currentColor" fill="none" stroke-linecap="round" stroke-linejoin="round"><path stroke="none" d="M0 0h24v24H0z" fill="none"/><path d="M10 16v-8l4 8v-8" />
</symbol>
	<symbol id="letter-o-small" class="icon icon-tabler icon-tabler-letter-o-small" viewBox="0 0 24 24" stroke-width="2" stroke="currentColor" fill="none" stroke-linecap="round" stroke-linejoin="round"><path stroke="none" d="M0 0h24v24H0z" fill="none"/><path d="M12 8a2 2 0 0 1 2 2v4a2 2 0 1 1 -4 0v-4a2 2 0 0 1 2 -2z" />
</symbol>
	<symbol id="letter-p-small" class="icon icon-tabler icon-tabler-letter-p-small" viewBox="0 0 24 24" stroke-width="2" stroke="currentColor" fill="none" stroke-linecap="round" stroke-linejoin="round"><path stroke="none" d="M0 0h24v24H0z" fill="none"/><path d="M10 12h2a2 2 0 1 0 0 -4h-2v8" />
</symbol>
	<symbol id="letter-q-small" class="icon icon-tabler icon-tabler-letter-q-small" viewBox="0 0 24 24" stroke-width="2" stroke="currentColor" fill="none" stroke-linecap="round" stroke-linejoin="round"><path stroke="none" d="M0 0h24v24H0z" fill="none"/><path d="M12 8a2 2 0 0 1 2 2v4a2 2 0 1 1 -4 0v-4a2 2 0 0 1 2 -2z" /><path d="M13 15l1 1" />
</symbol>
	<symbol id="letter-r-small" class="icon icon-tabler icon-tabler-letter-r-small" viewBox="0 0 24 24" stroke-width="2" stroke="currentColor" fill="none" stroke-linecap="round" stroke-linejoin="round"><path stroke="none" d="M0 0h24v24H0z" fill="none"/><path d="M10 12h2a2 2 0 1 0 0 -4h-2v8m4 0l-3 -4" />
</symbol>
	<symbol id="letter-s-small" class="icon icon-tabler icon-tabler-letter-s-small" viewBox="0 0 24 24" stroke-width="2" stroke="currentColor" fill="none" stroke-linecap="round" stroke-linejoin="round"><path stroke="none" d="M0 0h24v24H0z" fill="none"/><path d="M10 15a1 1 0 0 0 1 1h2a1 1 0 0 0 1 -1v-2a1 1 0 0 0 -1 -1h-2a1 1 0 0 1 -1 -1v-2a1 1 0 0 1 1 -1h2a1 1 0 0 1 1 1" />
</symbol>
	<symbol id="letter-t-small" class="icon icon-tabler icon-tabler-letter-t-small" viewBox="0 0 24 24" stroke-width="2" stroke="currentColor" fill="none" stroke-linecap="round" stroke-linejoin="round"><path stroke="none" d="M0 0h24v24H0z" fill="none"/><path d="M10 8h4" /><path d="M12 8v8" />
</symbol>
	<symbol id="letter-u-small" class="icon icon-tabler icon-tabler-letter-u-small" viewBox="0 0 24 24" stroke-width="2" stroke="currentColor" fill="none" stroke-linecap="round" stroke-linejoin="round"><path stroke="none" d="M0 0h24v24H0z" fill="none"/><path d="M10 8v6a2 2 0 1 0 4 0v-6" />
</symbol>
	<symbol id="letter-v-small" class="icon icon-tabler icon-tabler-letter-v-small" viewBox="0 0 24 24" stroke-width="2" stroke="currentColor" fill="none" stroke-linecap="round" stroke-linejoin="round"><path stroke="none" d="M0 0h24v24H0z" fill="none"/><path d="M10 8l2 8l2 -8" />
</symbol>
	<symbol id="letter-w-small" class="icon icon-tabler icon-tabler-letter-w-small" viewBox="0 0 24 24" stroke-width="2" stroke="currentColor" fill="none" stroke-linecap="round" stroke-linejoin="round"><path stroke="none" d="M0 0h24v24H0z" fill="none"/><path d="M9 8l1 8l2 -5l2 5l1 -8" />
</symbol>
	<symbol id="letter-x-small" class="icon icon-tabler icon-tabler-letter-x-small" viewBox="0 0 24 24" stroke-width="2" stroke="currentColor" fill="none" stroke-linecap="round" stroke-linejoin="round"><path stroke="none" d="M0 0h24v24H0z" fill="none"/><path d="M10 8l4 8" /><path d="M10 16l4 -8" />
</symbol>
	<symbol id="letter-y-small" class="icon icon-tabler icon-tabler-letter-y-small" viewBox="0 0 24 24" stroke-width="2" stroke="currentColor" fill="none" stroke-linecap="round" stroke-linejoin="round"><path stroke="none" d="M0 0h24v24H0z" fill="none"/><path d="M10 8l2 5l2 -5" /><path d="M12 16v-3" />
</symbol>
	<symbol id="letter-z-small" class="icon icon-tabler icon-tabler-letter-z-small" viewBox="0 0 24 24" stroke-width="2" stroke="currentColor" fill="none" stroke-linecap="round" stroke-linejoin="round"><path stroke="none" d="M0 0h24v24H0z" fill="none"/><path d="M10 8h4l-4 8h4" />
</symbol>
	<symbol id="number-0-small" class="icon icon-tabler icon-tabler-number-0-small" viewBox="0 0 24 24" stroke-width="2" stroke="currentColor" fill="none" stroke-linecap="round" stroke-linejoin="round"><path stroke="none" d="M0 0h24v24H0z" fill="none"/><path d="M10 10v4a2 2 0 1 0 4 0v-4a2 2 0 1 0 -4 0z" />
</symbol>
	<symbol id="number-1-small" class="icon icon-tabler icon-tabler-number-1-small" viewBox="0 0 24 24" stroke-width="2" stroke="currentColor" fill="none" stroke-linecap="round" stroke-linejoin="round"><path stroke="none" d="M0 0h24v24H0z" fill="none"/><path d="M10 10l2 -2v8" />
</symbol>
	<symbol id="number-10-small" class="icon icon-tabler icon-tabler-number-10-small" viewBox="0 0 24 24" stroke-width="2" stroke="currentColor" fill="none" stroke-linecap="round" stroke-linejoin="round"><path stroke="none" d="M0 0h24v24H0z" fill="none"/><path d="M7 10l2 -2v8" /><path d="M13 10v4a2 2 0 1 0 4 0v-4a2 2 0 1 0 -4 0z" />
</symbol>
	<symbol id="number-11-small" class="icon icon-tabler icon-tabler-number-11-small" viewBox="0 0 24 24" stroke-width="2" stroke="currentColor" fill="none" stroke-linecap="round" stroke-linejoin="round"><path stroke="none" d="M0 0h24v24H0z" fill="none"/><path d="M8 10l2 -2v8" /><path d="M14 10l2 -2v8" />
</symbol>
	<symbol id="number-12-small" class="icon icon-tabler icon-tabler-number-12-small" viewBox="0 0 24 24" stroke-width="2" stroke="currentColor" fill="none" stroke-linecap="round" stroke-linejoin="round"><path stroke="none" d="M0 0h24v24H0z" fill="none"/><path d="M7 10l2 -2v8" /><path d="M13 8h3a1 1 0 0 1 1 1v2a1 1 0 0 1 -1 1h-2a1 1 0 0 0 -1 1v2a1 1 0 0 0 1 1h3" />
</symbol>
	<symbol id="number-13-small" class="icon icon-tabler icon-tabler-number-13-small" viewBox="0 0 24 24" stroke-width="2" stroke="currentColor" fill="none" stroke-linecap="round" stroke-linejoin="round"><path stroke="none" d="M0 0h24v24H0z" fill="none"/><path d="M7 10l2 -2v8" /><path d="M13 8h2.5a1.5 1.5 0 0 1 1.5 1.5v1a1.5 1.5 0 0 1 -1.5 1.5h-1.5h1.5a1.5 1.5 0 0 1 1.5 1.5v1a1.5 1.5 0 0 1 -1.5 1.5h-2.5" />
</symbol>
	<symbol id="number-14-small" class="icon icon-tabler icon-tabler-number-14-small" viewBox="0 0 24 24" stroke-width="2" stroke="currentColor" fill="none" stroke-linecap="round" stroke-linejoin="round"><path stroke="none" d="M0 0h24v24H0z" fill="none"/><path d="M7 10l2 -2v8" /><path d="M13 8v3a1 1 0 0 0 1 1h3" /><path d="M17 8v8" />
</symbol>
	<symbol id="number-15-small" class="icon icon-tabler icon-tabler-number-15-small" viewBox="0 0 24 24" stroke-width="2" stroke="currentColor" fill="none" stroke-linecap="round" stroke-linejoin="round"><path stroke="none" d="M0 0h24v24H0z" fill="none"/><path d="M7 10l2 -2v8" /><path d="M13 15a1 1 0 0 0 1 1h2a1 1 0 0 0 1 -1v-2a1 1 0 0 0 -1 -1h-3v-4h4" />
</symbol>
	<symbol id="number-16-small" class="icon icon-tabler icon-tabler-number-16-small" viewBox="0 0 24 24" stroke-width="2" stroke="currentColor" fill="none" stroke-linecap="round" stroke-linejoin="round"><path stroke="none" d="M0 0h24v24H0z" fill="none"/><path d="M7 10l2 -2v8" /><path d="M17 9a1 1 0 0 0 -1 -1h-2a1 1 0 0 0 -1 1v6a1 1 0 0 0 1 1h2a1 1 0 0 0 1 -1v-2a1 1 0 0 0 -1 -1h-3" />
</symbol>
	<symbol id="number-17-small" class="icon icon-tabler icon-tabler-number-17-small" viewBox="0 0 24 24" stroke-width="2" stroke="currentColor" fill="none" stroke-linecap="round" stroke-linejoin="round"><path stroke="none" d="M0 0h24v24H0z" fill="none"/><path d="M7 10l2 -2v8" /><path d="M13 8h4l-2 8" />
</symbol>
	<symbol id="number-18-small" class="icon icon-tabler icon-tabler-number-18-small" viewBox="0 0 24 24" stroke-width="2" stroke="currentColor" fill="none" stroke-linecap="round" stroke-linejoin="round"><path stroke="none" d="M0 0h24v24H0z" fill="none"/><path d="M7 10l2 -2v8" /><path d="M15 12h-1a1 1 0 0 1 -1 -1v-2a1 1 0 0 1 1 -1h2a1 1 0 0 1 1 1v2a1 1 0 0 1 -1 1h-2a1 1 0 0 0 -1 1v2a1 1 0 0 0 1 1h2a1 1 0 0 0 1 -1v-2a1 1 0 0 0 -1 -1" />
</symbol>
	<symbol id="number-19-small" class="icon icon-tabler icon-tabler-number-19-small" viewBox="0 0 24 24" stroke-width="2" stroke="currentColor" fill="none" stroke-linecap="round" stroke-linejoin="round"><path stroke="none" d="M0 0h24v24H0z" fill="none"/><path d="M7 10l2 -2v8" /><path d="M13 15a1 1 0 0 0 1 1h2a1 1 0 0 0 1 -1v-6a1 1 0 0 0 -1 -1h-2a1 1 0 0 0 -1 1v2a1 1 0 0 0 1 1h3" />
</symbol>
	<symbol id="number-2-small" class="icon icon-tabler icon-tabler-number-2-small" viewBox="0 0 24 24" stroke-width="2" stroke="currentColor" fill="none" stroke-linecap="round" stroke-linejoin="round"><path stroke="none" d="M0 0h24v24H0z" fill="none"/><path d="M10 8h3a1 1 0 0 1 1 1v2a1 1 0 0 1 -1 1h-2a1 1 0 0 0 -1 1v2a1 1 0 0 0 1 1h3" />
</symbol>
	<symbol id="number-20-small" class="icon icon-tabler icon-tabler-number-20-small" viewBox="0 0 24 24" stroke-width="2" stroke="currentColor" fill="none" stroke-linecap="round" stroke-linejoin="round"><path stroke="none" d="M0 0h24v24H0z" fill="none"/><path d="M14 10v4a2 2 0 1 0 4 0v-4a2 2 0 1 0 -4 0z" /><path d="M6 8h3a1 1 0 0 1 1 1v2a1 1 0 0 1 -1 1h-2a1 1 0 0 0 -1 1v2a1 1 0 0 0 1 1h3" />
</symbol>
	<symbol id="number-21-small" class="icon icon-tabler icon-tabler-number-21-small" viewBox="0 0 24 24" stroke-width="2" stroke="currentColor" fill="none" stroke-linecap="round" stroke-linejoin="round"><path stroke="none" d="M0 0h24v24H0z" fill="none"/><path d="M15 10l2 -2v8" /><path d="M7 8h3a1 1 0 0 1 1 1v2a1 1 0 0 1 -1 1h-2a1 1 0 0 0 -1 1v2a1 1 0 0 0 1 1h3" />
</symbol>
	<symbol id="number-22-small" class="icon icon-tabler icon-tabler-number-22-small" viewBox="0 0 24 24" stroke-width="2" stroke="currentColor" fill="none" stroke-linecap="round" stroke-linejoin="round"><path stroke="none" d="M0 0h24v24H0z" fill="none"/><path d="M14 8h3a1 1 0 0 1 1 1v2a1 1 0 0 1 -1 1h-2a1 1 0 0 0 -1 1v2a1 1 0 0 0 1 1h3" /><path d="M6 8h3a1 1 0 0 1 1 1v2a1 1 0 0 1 -1 1h-2a1 1 0 0 0 -1 1v2a1 1 0 0 0 1 1h3" />
</symbol>
	<symbol id="number-23-small" class="icon icon-tabler icon-tabler-number-23-small" viewBox="0 0 24 24" stroke-width="2" stroke="currentColor" fill="none" stroke-linecap="round" stroke-linejoin="round"><path stroke="none" d="M0 0h24v24H0z" fill="none"/><path d="M13 8h2.5a1.5 1.5 0 0 1 1.5 1.5v1a1.5 1.5 0 0 1 -1.5 1.5h-1.5h1.5a1.5 1.5 0 0 1 1.5 1.5v1a1.5 1.5 0 0 1 -1.5 1.5h-2.5" /><path d="M6 8h3a1 1 0 0 1 1 1v2a1 1 0 0 1 -1 1h-2a1 1 0 0 0 -1 1v2a1 1 0 0 0 1 1h3" />
</symbol>
	<symbol id="number-24-small" class="icon icon-tabler icon-tabler-number-24-small" viewBox="0 0 24 24" stroke-width="2" stroke="currentColor" fill="none" stroke-linecap="round" stroke-linejoin="round"><path stroke="none" d="M0 0h24v24H0z" fill="none"/><path d="M14 8v3a1 1 0 0 0 1 1h3" /><path d="M18 8v8" /><path d="M6 8h3a1 1 0 0 1 1 1v2a1 1 0 0 1 -1 1h-2a1 1 0 0 0 -1 1v2a1 1 0 0 0 1 1h3" />
</symbol>
	<symbol id="number-25-small" class="icon icon-tabler icon-tabler-number-25-small" viewBox="0 0 24 24" stroke-width="2" stroke="currentColor" fill="none" stroke-linecap="round" stroke-linejoin="round"><path stroke="none" d="M0 0h24v24H0z" fill="none"/><path d="M14 15a1 1 0 0 0 1 1h2a1 1 0 0 0 1 -1v-2a1 1 0 0 0 -1 -1h-3v-4h4" /><path d="M6 8h3a1 1 0 0 1 1 1v2a1 1 0 0 1 -1 1h-2a1 1 0 0 0 -1 1v2a1 1 0 0 0 1 1h3" />
</symbol>
	<symbol id="number-26-small" class="icon icon-tabler icon-tabler-number-26-small" viewBox="0 0 24 24" stroke-width="2" stroke="currentColor" fill="none" stroke-linecap="round" stroke-linejoin="round"><path stroke="none" d="M0 0h24v24H0z" fill="none"/><path d="M18 9a1 1 0 0 0 -1 -1h-2a1 1 0 0 0 -1 1v6a1 1 0 0 0 1 1h2a1 1 0 0 0 1 -1v-2a1 1 0 0 0 -1 -1h-3" /><path d="M6 8h3a1 1 0 0 1 1 1v2a1 1 0 0 1 -1 1h-2a1 1 0 0 0 -1 1v2a1 1 0 0 0 1 1h3" />
</symbol>
	<symbol id="number-27-small" class="icon icon-tabler icon-tabler-number-27-small" viewBox="0 0 24 24" stroke-width="2" stroke="currentColor" fill="none" stroke-linecap="round" stroke-linejoin="round"><path stroke="none" d="M0 0h24v24H0z" fill="none"/><path d="M14 8h4l-2 8" /><path d="M6 8h3a1 1 0 0 1 1 1v2a1 1 0 0 1 -1 1h-2a1 1 0 0 0 -1 1v2a1 1 0 0 0 1 1h3" />
</symbol>
	<symbol id="number-28-small" class="icon icon-tabler icon-tabler-number-28-small" viewBox="0 0 24 24" stroke-width="2" stroke="currentColor" fill="none" stroke-linecap="round" stroke-linejoin="round"><path stroke="none" d="M0 0h24v24H0z" fill="none"/><path d="M16 12h-1a1 1 0 0 1 -1 -1v-2a1 1 0 0 1 1 -1h2a1 1 0 0 1 1 1v2a1 1 0 0 1 -1 1h-2a1 1 0 0 0 -1 1v2a1 1 0 0 0 1 1h2a1 1 0 0 0 1 -1v-2a1 1 0 0 0 -1 -1" /><path d="M6 8h3a1 1 0 0 1 1 1v2a1 1 0 0 1 -1 1h-2a1 1 0 0 0 -1 1v2a1 1 0 0 0 1 1h3" />
</symbol>
	<symbol id="number-29-small" class="icon icon-tabler icon-tabler-number-29-small" viewBox="0 0 24 24" stroke-width="2" stroke="currentColor" fill="none" stroke-linecap="round" stroke-linejoin="round"><path stroke="none" d="M0 0h24v24H0z" fill="none"/><path d="M14 15a1 1 0 0 0 1 1h2a1 1 0 0 0 1 -1v-6a1 1 0 0 0 -1 -1h-2a1 1 0 0 0 -1 1v2a1 1 0 0 0 1 1h3" /><path d="M6 8h3a1 1 0 0 1 1 1v2a1 1 0 0 1 -1 1h-2a1 1 0 0 0 -1 1v2a1 1 0 0 0 1 1h3" />
</symbol>
	<symbol id="number-3-small" class="icon icon-tabler icon-tabler-number-3-small" viewBox="0 0 24 24" stroke-width="2" stroke="currentColor" fill="none" stroke-linecap="round" stroke-linejoin="round"><path stroke="none" d="M0 0h24v24H0z" fill="none"/><path d="M10 8h2.5a1.5 1.5 0 0 1 1.5 1.5v1a1.5 1.5 0 0 1 -1.5 1.5h-1.5h1.5a1.5 1.5 0 0 1 1.5 1.5v1a1.5 1.5 0 0 1 -1.5 1.5h-2.5" />
</symbol>
	<symbol id="number-4-small" class="icon icon-tabler icon-tabler-number-4-small" viewBox="0 0 24 24" stroke-width="2" stroke="currentColor" fill="none" stroke-linecap="round" stroke-linejoin="round"><path stroke="none" d="M0 0h24v24H0z" fill="none"/><path d="M10 8v3a1 1 0 0 0 1 1h3" /><path d="M14 8v8" />
</symbol>
	<symbol id="number-5-small" class="icon icon-tabler icon-tabler-number-5-small" viewBox="0 0 24 24" stroke-width="2" stroke="currentColor" fill="none" stroke-linecap="round" stroke-linejoin="round"><path stroke="none" d="M0 0h24v24H0z" fill="none"/><path d="M10 15a1 1 0 0 0 1 1h2a1 1 0 0 0 1 -1v-2a1 1 0 0 0 -1 -1h-3v-4h4" />
</symbol>
	<symbol id="number-6-small" class="icon icon-tabler icon-tabler-number-6-small" viewBox="0 0 24 24" stroke-width="2" stroke="currentColor" fill="none" stroke-linecap="round" stroke-linejoin="round"><path stroke="none" d="M0 0h24v24H0z" fill="none"/><path d="M14 9a1 1 0 0 0 -1 -1h-2a1 1 0 0 0 -1 1v6a1 1 0 0 0 1 1h2a1 1 0 0 0 1 -1v-2a1 1 0 0 0 -1 -1h-3" />
</symbol>
	<symbol id="number-7-small" class="icon icon-tabler icon-tabler-number-7-small" viewBox="0 0 24 24" stroke-width="2" stroke="currentColor" fill="none" stroke-linecap="round" stroke-linejoin="round"><path stroke="none" d="M0 0h24v24H0z" fill="none"/><path d="M10 8h4l-2 8" />
</symbol>
	<symbol id="number-8-small" class="icon icon-tabler icon-tabler-number-8-small" viewBox="0 0 24 24" stroke-width="2" stroke="currentColor" fill="none" stroke-linecap="round" stroke-linejoin="round"><path stroke="none" d="M0 0h24v24H0z" fill="none"/><path d="M12 12h-1a1 1 0 0 1 -1 -1v-2a1 1 0 0 1 1 -1h2a1 1 0 0 1 1 1v2a1 1 0 0 1 -1 1h-2a1 1 0 0 0 -1 1v2a1 1 0 0 0 1 1h2a1 1 0 0 0 1 -1v-2a1 1 0 0 0 -1 -1" />
</symbol>
	<symbol id="number-9-small" class="icon icon-tabler icon-tabler-number-9-small" viewBox="0 0 24 24" stroke-width="2" stroke="currentColor" fill="none" stroke-linecap="round" stroke-linejoin="round"><path stroke="none" d="M0 0h24v24H0z" fill="none"/><path d="M10 15a1 1 0 0 0 1 1h2a1 1 0 0 0 1 -1v-6a1 1 0 0 0 -1 -1h-2a1 1 0 0 0 -1 1v2a1 1 0 0 0 1 1h3" />
</symbol>

	<use xlink:href="#letter-a-small" x="24" y="24" width="24" height="24" />
	<use xlink:href="#letter-b-small" x="68" y="24" width="24" height="24" />
	<use xlink:href="#letter-c-small" x="112" y="24" width="24" height="24" />
	<use xlink:href="#letter-d-small" x="156" y="24" width="24" height="24" />
	<use xlink:href="#letter-e-small" x="200" y="24" width="24" height="24" />
	<use xlink:href="#letter-f-small" x="244" y="24" width="24" height="24" />
	<use xlink:href="#letter-g-small" x="24" y="68" width="24" height="24" />
	<use xlink:href="#letter-h-small" x="68" y="68" width="24" height="24" />
	<use xlink:href="#letter-i-small" x="112" y="68" width="24" height="24" />
	<use xlink:href="#letter-j-small" x="156" y="68" width="24" height="24" />
	<use xlink:href="#letter-k-small" x="200" y="68" width="24" height="24" />
	<use xlink:href="#letter-l-small" x="244" y="68" width="24" height="24" />
	<use xlink:href="#letter-m-small" x="24" y="112" width="24" height="24" />
	<use xlink:href="#letter-n-small" x="68" y="112" width="24" height="24" />
	<use xlink:href="#letter-o-small" x="112" y="112" width="24" height="24" />
	<use xlink:href="#letter-p-small" x="156" y="112" width="24" height="24" />
	<use xlink:href="#letter-q-small" x="200" y="112" width="24" height="24" />
	<use xlink:href="#letter-r-small" x="244" y="112" width="24" height="24" />
	<use xlink:href="#letter-s-small" x="24" y="156" width="24" height="24" />
	<use xlink:href="#letter-t-small" x="68" y="156" width="24" height="24" />
	<use xlink:href="#letter-u-small" x="112" y="156" width="24" height="24" />
	<use xlink:href="#letter-v-small" x="156" y="156" width="24" height="24" />
	<use xlink:href="#letter-w-small" x="200" y="156" width="24" height="24" />
	<use xlink:href="#letter-x-small" x="244" y="156" width="24" height="24" />
	<use xlink:href="#letter-y-small" x="24" y="200" width="24" height="24" />
	<use xlink:href="#letter-z-small" x="68" y="200" width="24" height="24" />
	<use xlink:href="#number-0-small" x="112" y="200" width="24" height="24" />
	<use xlink:href="#number-1-small" x="156" y="200" width="24" height="24" />
	<use xlink:href="#number-10-small" x="200" y="200" width="24" height="24" />
	<use xlink:href="#number-11-small" x="244" y="200" width="24" height="24" />
	<use xlink:href="#number-12-small" x="24" y="244" width="24" height="24" />
	<use xlink:href="#number-13-small" x="68" y="244" width="24" height="24" />
	<use xlink:href="#number-14-small" x="112" y="244" width="24" height="24" />
	<use xlink:href="#number-15-small" x="156" y="244" width="24" height="24" />
	<use xlink:href="#number-16-small" x="200" y="244" width="24" height="24" />
	<use xlink:href="#number-17-small" x="244" y="244" width="24" height="24" />
	<use xlink:href="#number-18-small" x="24" y="288" width="24" height="24" />
	<use xlink:href="#number-19-small" x="68" y="288" width="24" height="24" />
	<use xlink:href="#number-2-small" x="112" y="288" width="24" height="24" />
	<use xlink:href="#number-20-small" x="156" y="288" width="24" height="24" />
	<use xlink:href="#number-21-small" x="200" y="288" width="24" height="24" />
	<use xlink:href="#number-22-small" x="244" y="288" width="24" height="24" />
	<use xlink:href="#number-23-small" x="24" y="332" width="24" height="24" />
	<use xlink:href="#number-24-small" x="68" y="332" width="24" height="24" />
	<use xlink:href="#number-25-small" x="112" y="332" width="24" height="24" />
	<use xlink:href="#number-26-small" x="156" y="332" width="24" height="24" />
	<use xlink:href="#number-27-small" x="200" y="332" width="24" height="24" />
	<use xlink:href="#number-28-small" x="244" y="332" width="24" height="24" />
	<use xlink:href="#number-29-small" x="24" y="376" width="24" height="24" />
	<use xlink:href="#number-3-small" x="68" y="376" width="24" height="24" />
	<use xlink:href="#number-4-small" x="112" y="376" width="24" height="24" />
	<use xlink:href="#number-5-small" x="156" y="376" width="24" height="24" />
	<use xlink:href="#number-6-small" x="200" y="376" width="24" height="24" />
	<use xlink:href="#number-7-small" x="244" y="376" width="24" height="24" />
	<use xlink:href="#number-8-small" x="24" y="420" width="24" height="24" />
	<use xlink:href="#number-9-small" x="68" y="420" width="24" height="24" />

</svg>