<svg xmlns="http://www.w3.org/2000/svg" xmlns:xlink="http://www.w3.org/1999/xlink" viewBox="0 0 292 160" width="292" height="160" style="color: #354052"><rect x="0" y="0" width="292" height="160" fill="#fff"></rect>
	<symbol id="arrow-move-down" class="icon icon-tabler icon-tabler-arrow-move-down" viewBox="0 0 24 24" stroke-width="2" stroke="currentColor" fill="none" stroke-linecap="round" stroke-linejoin="round"><path stroke="none" d="M0 0h24v24H0z" fill="none"/><path d="M12 11v10" /><path d="M9 18l3 3l3 -3" /><circle cx="12" cy="5" r="2" />
</symbol>
	<symbol id="arrow-move-left" class="icon icon-tabler icon-tabler-arrow-move-left" viewBox="0 0 24 24" stroke-width="2" stroke="currentColor" fill="none" stroke-linecap="round" stroke-linejoin="round"><path stroke="none" d="M0 0h24v24H0z" fill="none"/><path d="M13 12h-10" /><path d="M6 15l-3 -3l3 -3" /><path d="M17 12a2 2 0 1 1 4 0a2 2 0 0 1 -4 0z" />
</symbol>
	<symbol id="arrow-move-right" class="icon icon-tabler icon-tabler-arrow-move-right" viewBox="0 0 24 24" stroke-width="2" stroke="currentColor" fill="none" stroke-linecap="round" stroke-linejoin="round"><path stroke="none" d="M0 0h24v24H0z" fill="none"/><path d="M11 12h10" /><path d="M18 9l3 3l-3 3" /><path d="M7 12a2 2 0 1 1 -4 0a2 2 0 0 1 4 0z" />
</symbol>
	<symbol id="arrow-move-up" class="icon icon-tabler icon-tabler-arrow-move-up" viewBox="0 0 24 24" stroke-width="2" stroke="currentColor" fill="none" stroke-linecap="round" stroke-linejoin="round"><path stroke="none" d="M0 0h24v24H0z" fill="none"/><path d="M12 13v-10" /><path d="M9 6l3 -3l3 3" /><path d="M12 17a2 2 0 1 1 0 4a2 2 0 0 1 0 -4z" />
</symbol>
	<symbol id="coin-bitcoin" class="icon icon-tabler icon-tabler-coin-bitcoin" viewBox="0 0 24 24" stroke-width="2" stroke="currentColor" fill="none" stroke-linecap="round" stroke-linejoin="round"><path stroke="none" d="M0 0h24v24H0z" fill="none"/><circle cx="12" cy="12" r="9" /><path d="M9 8h4.09c1.055 0 1.91 .895 1.91 2s-.855 2 -1.91 2c1.055 0 1.91 .895 1.91 2s-.855 2 -1.91 2h-4.09" /><path d="M10 12h4" /><path d="M10 7v10v-9" /><path d="M13 7v1" /><path d="M13 16v1" />
</symbol>
	<symbol id="coin-euro" class="icon icon-tabler icon-tabler-coin-euro" viewBox="0 0 24 24" stroke-width="2" stroke="currentColor" fill="none" stroke-linecap="round" stroke-linejoin="round"><path stroke="none" d="M0 0h24v24H0z" fill="none"/><circle cx="12" cy="12" r="9" /><path d="M14.401 8c-.669 -.628 -1.5 -1 -2.401 -1c-2.21 0 -4 2.239 -4 5s1.79 5 4 5c.9 0 1.731 -.372 2.4 -1" /><path d="M7 10.5h4" /><path d="M7 13.5h4" />
</symbol>
	<symbol id="coin-pound" class="icon icon-tabler icon-tabler-coin-pound" viewBox="0 0 24 24" stroke-width="2" stroke="currentColor" fill="none" stroke-linecap="round" stroke-linejoin="round"><path stroke="none" d="M0 0h24v24H0z" fill="none"/><circle cx="12" cy="12" r="9" /><path d="M15 9a2 2 0 1 0 -4 0v5a2 2 0 0 1 -2 2h6" /><path d="M9 12h4" />
</symbol>
	<symbol id="coin-rupee" class="icon icon-tabler icon-tabler-coin-rupee" viewBox="0 0 24 24" stroke-width="2" stroke="currentColor" fill="none" stroke-linecap="round" stroke-linejoin="round"><path stroke="none" d="M0 0h24v24H0z" fill="none"/><circle cx="12" cy="12" r="9" /><path d="M15 8h-6h1a3 3 0 0 1 0 6h-1l3 3" /><path d="M9 11h6" />
</symbol>
	<symbol id="coin-yen" class="icon icon-tabler icon-tabler-coin-yen" viewBox="0 0 24 24" stroke-width="2" stroke="currentColor" fill="none" stroke-linecap="round" stroke-linejoin="round"><path stroke="none" d="M0 0h24v24H0z" fill="none"/><circle cx="12" cy="12" r="9" /><path d="M9 12h6" /><path d="M9 15h6" /><path d="M9 8l3 4.5" /><path d="M15 8l-3 4.5v4.5" />
</symbol>
	<symbol id="coin-yuan" class="icon icon-tabler icon-tabler-coin-yuan" viewBox="0 0 24 24" stroke-width="2" stroke="currentColor" fill="none" stroke-linecap="round" stroke-linejoin="round"><path stroke="none" d="M0 0h24v24H0z" fill="none"/><circle cx="12" cy="12" r="9" /><path d="M9 13h6" /><path d="M9 8l3 4.5" /><path d="M15 8l-3 4.5v4.5" />
</symbol>
	<symbol id="location-broken" class="icon icon-tabler icon-tabler-location-broken" viewBox="0 0 24 24" stroke-width="2" stroke="currentColor" fill="none" stroke-linecap="round" stroke-linejoin="round"><path stroke="none" d="M0 0h24v24H0z" fill="none"/><path d="M13 20l-3 -6l-7 -3.5a0.55 .55 0 0 1 0 -1l18 -6.5c-1.698 4.703 -3.05 8.37 -4 11" /><path d="M16 17l4 4m0 -4l-4 4" />
</symbol>
	<symbol id="mood-look-left" class="icon icon-tabler icon-tabler-mood-look-left" viewBox="0 0 24 24" stroke-width="2" stroke="currentColor" fill="none" stroke-linecap="round" stroke-linejoin="round"><path stroke="none" d="M0 0h24v24H0z" fill="none"/><circle cx="12" cy="12" r="9" /><path d="M9 9h.01" /><path d="M4 15h4" />
</symbol>
	<symbol id="mood-look-right" class="icon icon-tabler icon-tabler-mood-look-right" viewBox="0 0 24 24" stroke-width="2" stroke="currentColor" fill="none" stroke-linecap="round" stroke-linejoin="round"><path stroke="none" d="M0 0h24v24H0z" fill="none"/><circle transform="matrix(-1 0 0 1 24 0)" cx="12" cy="12" r="9" /><path d="M15 9h-.01" /><path d="M20 15h-4" />
</symbol>
	<symbol id="mood-sing" class="icon icon-tabler icon-tabler-mood-sing" viewBox="0 0 24 24" stroke-width="2" stroke="currentColor" fill="none" stroke-linecap="round" stroke-linejoin="round"><path stroke="none" d="M0 0h24v24H0z" fill="none"/><circle cx="12" cy="12" r="9" /><path d="M9 9h.01" /><path d="M15 9h.01" /><circle cx="15" cy="15" r="2" />
</symbol>
	<symbol id="navigation" class="icon icon-tabler icon-tabler-navigation" viewBox="0 0 24 24" stroke-width="2" stroke="currentColor" fill="none" stroke-linecap="round" stroke-linejoin="round"><path stroke="none" d="M0 0h24v24H0z" fill="none"/><path d="M12 18.5l7.265 2.463a0.535 .535 0 0 0 .57 -.116a0.548 .548 0 0 0 .134 -.572l-7.969 -17.275l-7.97 17.275a0.547 .547 0 0 0 .135 .572a0.535 .535 0 0 0 .57 .116l7.265 -2.463" />
</symbol>
	<symbol id="packages" class="icon icon-tabler icon-tabler-packages" viewBox="0 0 24 24" stroke-width="2" stroke="currentColor" fill="none" stroke-linecap="round" stroke-linejoin="round"><path stroke="none" d="M0 0h24v24H0z" fill="none"/><rect x="2" y="13" width="8" height="8" rx="2" /><path d="M6 13v3" /><rect x="8" y="3" width="8" height="8" rx="2" /><path d="M12 3v3" /><rect x="14" y="13" width="8" height="8" rx="2" /><path d="M18 13v3" />
</symbol>
	<symbol id="tower-off" class="icon icon-tabler icon-tabler-tower-off" viewBox="0 0 24 24" stroke-width="2" stroke="currentColor" fill="none" stroke-linecap="round" stroke-linejoin="round"><path stroke="none" d="M0 0h24v24H0z" fill="none"/><path d="M10 6v-2a1 1 0 0 1 1 -1h2a1 1 0 0 1 1 1v2h3v-2a1 1 0 0 1 1 -1h1a1 1 0 0 1 1 1v4.394a2 2 0 0 1 -.336 1.11l-1.328 1.992a2 2 0 0 0 -.336 1.11v1.394m0 4v2a1 1 0 0 1 -1 1h-10a1 1 0 0 1 -1 -1v-7.394a2 2 0 0 0 -.336 -1.11l-1.328 -1.992a2 2 0 0 1 -.336 -1.11v-4.394" /><path d="M10 21v-5a2 2 0 1 1 4 0v5" /><path d="M3 3l18 18" />
</symbol>
	<symbol id="tower" class="icon icon-tabler icon-tabler-tower" viewBox="0 0 24 24" stroke-width="2" stroke="currentColor" fill="none" stroke-linecap="round" stroke-linejoin="round"><path stroke="none" d="M0 0h24v24H0z" fill="none"/><path d="M5 3h1a1 1 0 0 1 1 1v2h3v-2a1 1 0 0 1 1 -1h2a1 1 0 0 1 1 1v2h3v-2a1 1 0 0 1 1 -1h1a1 1 0 0 1 1 1v4.394a2 2 0 0 1 -.336 1.11l-1.328 1.992a2 2 0 0 0 -.336 1.11v7.394a1 1 0 0 1 -1 1h-10a1 1 0 0 1 -1 -1v-7.394a2 2 0 0 0 -.336 -1.11l-1.328 -1.992a2 2 0 0 1 -.336 -1.11v-4.394a1 1 0 0 1 1 -1z" /><path d="M10 21v-5a2 2 0 1 1 4 0v5" />
</symbol>

	<use xlink:href="#arrow-move-down" x="24" y="24" width="24" height="24" />
	<use xlink:href="#arrow-move-left" x="68" y="24" width="24" height="24" />
	<use xlink:href="#arrow-move-right" x="112" y="24" width="24" height="24" />
	<use xlink:href="#arrow-move-up" x="156" y="24" width="24" height="24" />
	<use xlink:href="#coin-bitcoin" x="200" y="24" width="24" height="24" />
	<use xlink:href="#coin-euro" x="244" y="24" width="24" height="24" />
	<use xlink:href="#coin-pound" x="24" y="68" width="24" height="24" />
	<use xlink:href="#coin-rupee" x="68" y="68" width="24" height="24" />
	<use xlink:href="#coin-yen" x="112" y="68" width="24" height="24" />
	<use xlink:href="#coin-yuan" x="156" y="68" width="24" height="24" />
	<use xlink:href="#location-broken" x="200" y="68" width="24" height="24" />
	<use xlink:href="#mood-look-left" x="244" y="68" width="24" height="24" />
	<use xlink:href="#mood-look-right" x="24" y="112" width="24" height="24" />
	<use xlink:href="#mood-sing" x="68" y="112" width="24" height="24" />
	<use xlink:href="#navigation" x="112" y="112" width="24" height="24" />
	<use xlink:href="#packages" x="156" y="112" width="24" height="24" />
	<use xlink:href="#tower-off" x="200" y="112" width="24" height="24" />
	<use xlink:href="#tower" x="244" y="112" width="24" height="24" />

</svg>