<svg xmlns="http://www.w3.org/2000/svg" xmlns:xlink="http://www.w3.org/1999/xlink" viewBox="0 0 292 292" width="292" height="292" style="color: #354052"><rect x="0" y="0" width="292" height="292" fill="#fff"></rect>
	<symbol id="filled-arrow-down-circle" xmlns="http://www.w3.org/2000/svg" width="24" height="24" viewBox="0 0 24 24" fill="currentColor"
> <path d="M12 2a3 3 0 0 1 1 5.829v10.755l1.293 -1.291a1 1 0 0 1 1.32 -.083l.094 .083a1 1 0 0 1 0 1.414l-3 3a1 1 0 0 1 -.112 .097l-.11 .071l-.114 .054l-.105 .035l-.149 .03l-.117 .006l-.075 -.003l-.126 -.017l-.111 -.03l-.111 -.044l-.098 -.052l-.096 -.067l-.09 -.08l-3 -3a1 1 0 0 1 1.414 -1.414l1.293 1.293v-10.757a3.001 3.001 0 0 1 1 -5.829" />
</symbol>
	<symbol id="filled-arrow-down-rhombus" xmlns="http://www.w3.org/2000/svg" width="24" height="24" viewBox="0 0 24 24" fill="currentColor"
> <path d="M12.707 2.293l2.5 2.5a1 1 0 0 1 0 1.414l-2.207 2.207v10.17l1.293 -1.291a1 1 0 0 1 1.32 -.083l.094 .083a1 1 0 0 1 0 1.414l-3 3a1 1 0 0 1 -.112 .097l-.11 .071l-.114 .054l-.105 .035l-.149 .03l-.117 .006l-.075 -.003l-.126 -.017l-.111 -.03l-.111 -.044l-.098 -.052l-.096 -.067l-.09 -.08l-3 -3a1 1 0 0 1 1.414 -1.414l1.293 1.293v-10.171l-2.207 -2.208a1 1 0 0 1 0 -1.414l2.5 -2.5a1 1 0 0 1 1.414 0" />
</symbol>
	<symbol id="filled-arrow-down-square" xmlns="http://www.w3.org/2000/svg" width="24" height="24" viewBox="0 0 24 24" fill="currentColor"
> <path d="M14 2a1 1 0 0 1 1 1v4a1 1 0 0 1 -1 1h-1v10.584l1.293 -1.291a1 1 0 0 1 1.32 -.083l.094 .083a1 1 0 0 1 0 1.414l-3 3a1 1 0 0 1 -.112 .097l-.11 .071l-.114 .054l-.105 .035l-.149 .03l-.117 .006l-.075 -.003l-.126 -.017l-.111 -.03l-.111 -.044l-.098 -.052l-.096 -.067l-.09 -.08l-3 -3a1 1 0 0 1 1.414 -1.414l1.293 1.293v-10.586h-1a1 1 0 0 1 -1 -1v-4a1 1 0 0 1 1 -1z" />
</symbol>
	<symbol id="filled-arrow-guide" xmlns="http://www.w3.org/2000/svg" width="24" height="24" viewBox="0 0 24 24" fill="currentColor"
> <path d="M18.707 3.293l3 3q .054 .053 .097 .112l.071 .11l.054 .114l.035 .105l.03 .148l.006 .118l-.003 .075l-.017 .126l-.03 .111l-.044 .111l-.052 .098l-.067 .096l-.08 .09l-3 3a1 1 0 0 1 -1.414 -1.414l1.292 -1.293h-4.585a1 1 0 0 0 -1 1v8a3 3 0 0 1 -3 3h-2.171a3.001 3.001 0 0 1 -5.829 -1l.005 -.176a3 3 0 0 1 5.825 -.824h2.17a1 1 0 0 0 1 -1v-8a3 3 0 0 1 3 -3h4.585l-1.292 -1.293a1 1 0 0 1 -.083 -1.32l.083 -.094a1 1 0 0 1 1.414 0" />
</symbol>
	<symbol id="filled-arrow-left-circle" xmlns="http://www.w3.org/2000/svg" width="24" height="24" viewBox="0 0 24 24" fill="currentColor"
> <path d="M6.707 8.293a1 1 0 0 1 0 1.414l-1.292 1.293h10.756a3.001 3.001 0 1 1 0 2h-10.756l1.292 1.293a1 1 0 0 1 .083 1.32l-.083 .094a1 1 0 0 1 -1.414 0l-3 -3a1 1 0 0 1 -.097 -.112l-.071 -.11l-.054 -.114l-.035 -.105l-.025 -.118l-.007 -.058l-.004 -.09l.003 -.075l.017 -.126l.03 -.111l.044 -.111l.052 -.098l.067 -.096l.08 -.09l3 -3a1 1 0 0 1 1.414 0" />
</symbol>
	<symbol id="filled-arrow-left-rhombus" xmlns="http://www.w3.org/2000/svg" width="24" height="24" viewBox="0 0 24 24" fill="currentColor"
> <path d="M6.707 8.293a1 1 0 0 1 0 1.414l-1.292 1.293h10.169l2.209 -2.207a1 1 0 0 1 1.414 0l2.5 2.5a1 1 0 0 1 0 1.414l-2.5 2.5a1 1 0 0 1 -1.414 0l-2.208 -2.207h-10.17l1.292 1.293a1 1 0 0 1 .083 1.32l-.083 .094a1 1 0 0 1 -1.414 0l-3 -3a1 1 0 0 1 -.097 -.112l-.071 -.11l-.054 -.114l-.035 -.105l-.025 -.118l-.007 -.058l-.004 -.09l.003 -.075l.017 -.126l.03 -.111l.044 -.111l.052 -.098l.067 -.096l.08 -.09l3 -3a1 1 0 0 1 1.414 0" />
</symbol>
	<symbol id="filled-arrow-left-square" xmlns="http://www.w3.org/2000/svg" width="24" height="24" viewBox="0 0 24 24" fill="currentColor"
> <path d="M6.707 8.293a1 1 0 0 1 0 1.414l-1.292 1.293h10.585v-1a1 1 0 0 1 1 -1h4a1 1 0 0 1 1 1v4a1 1 0 0 1 -1 1h-4a1 1 0 0 1 -1 -1v-1h-10.585l1.292 1.293a1 1 0 0 1 .083 1.32l-.083 .094a1 1 0 0 1 -1.414 0l-3 -3a1 1 0 0 1 -.097 -.112l-.071 -.11l-.054 -.114l-.035 -.105l-.025 -.118l-.007 -.058l-.004 -.09l.003 -.075l.017 -.126l.03 -.111l.044 -.111l.052 -.098l.067 -.096l.08 -.09l3 -3a1 1 0 0 1 1.414 0" />
</symbol>
	<symbol id="filled-arrow-move-down" xmlns="http://www.w3.org/2000/svg" width="24" height="24" viewBox="0 0 24 24" fill="currentColor"
> <path d="M12 10a1 1 0 0 1 1 1v7.584l1.293 -1.291a1 1 0 0 1 1.32 -.083l.094 .083a1 1 0 0 1 0 1.414l-3 3a1 1 0 0 1 -.112 .097l-.11 .071l-.114 .054l-.105 .035l-.149 .03l-.117 .006l-.075 -.003l-.126 -.017l-.111 -.03l-.111 -.044l-.098 -.052l-.096 -.067l-.09 -.08l-3 -3a1 1 0 0 1 1.414 -1.414l1.293 1.293v-7.586a1 1 0 0 1 1 -1m0 -8a3 3 0 1 1 -3 3l.005 -.176a3 3 0 0 1 2.995 -2.824" />
</symbol>
	<symbol id="filled-arrow-move-left" xmlns="http://www.w3.org/2000/svg" width="24" height="24" viewBox="0 0 24 24" fill="currentColor"
> <path d="M6.707 8.293a1 1 0 0 1 0 1.414l-1.292 1.293h7.585a1 1 0 0 1 0 2h-7.585l1.292 1.293a1 1 0 0 1 .083 1.32l-.083 .094a1 1 0 0 1 -1.414 0l-3 -3a1 1 0 0 1 -.097 -.112l-.071 -.11l-.054 -.114l-.035 -.105l-.025 -.118l-.007 -.058l-.004 -.09l.003 -.075l.017 -.126l.03 -.111l.044 -.111l.052 -.098l.067 -.096l.08 -.09l3 -3a1 1 0 0 1 1.414 0m12.293 .707a3 3 0 1 1 0 6a3 3 0 0 1 0 -6" />
</symbol>
	<symbol id="filled-arrow-move-right" xmlns="http://www.w3.org/2000/svg" width="24" height="24" viewBox="0 0 24 24" fill="currentColor"
> <path d="M18.707 8.293l3 3q .054 .053 .097 .112l.071 .11l.054 .114l.035 .105l.03 .148l.006 .118l-.003 .075l-.017 .126l-.03 .111l-.044 .111l-.052 .098l-.074 .104l-.073 .082l-3 3a1 1 0 0 1 -1.414 -1.414l1.292 -1.293h-7.585a1 1 0 0 1 0 -2h7.585l-1.292 -1.293a1 1 0 0 1 -.083 -1.32l.083 -.094a1 1 0 0 1 1.414 0m-13.707 .707a3 3 0 1 1 0 6a3 3 0 0 1 0 -6" />
</symbol>
	<symbol id="filled-arrow-move-up" xmlns="http://www.w3.org/2000/svg" width="24" height="24" viewBox="0 0 24 24" fill="currentColor"
> <path d="M11.852 2.011l.058 -.007l.09 -.004l.075 .003l.126 .017l.111 .03l.111 .044l.098 .052l.104 .074l.082 .073l3 3a1 1 0 1 1 -1.414 1.414l-1.293 -1.292v7.585a1 1 0 0 1 -2 0v-7.585l-1.293 1.292a1 1 0 0 1 -1.32 .083l-.094 -.083a1 1 0 0 1 0 -1.414l3 -3q .053 -.054 .112 -.097l.11 -.071l.114 -.054l.105 -.035z" /> <path d="M12 16a3 3 0 1 1 0 6a3 3 0 0 1 0 -6" />
</symbol>
	<symbol id="filled-arrow-right-circle" xmlns="http://www.w3.org/2000/svg" width="24" height="24" viewBox="0 0 24 24" fill="currentColor"
> <path d="M5 15a3 3 0 0 1 -3 -3l.005 -.176a3 3 0 0 1 5.825 -.824h10.756l-1.292 -1.293a1 1 0 0 1 -.083 -1.32l.083 -.094a1 1 0 0 1 1.414 0l3 3l.097 .112l.071 .11l.031 .062l.034 .081l.024 .076l.03 .148l.005 .118l-.004 .085l-.016 .116l-.03 .111l-.044 .111l-.052 .098l-.074 .104l-.073 .082l-3 3a1 1 0 0 1 -1.414 -1.414l1.292 -1.293h-10.756a3 3 0 0 1 -2.829 2" />
</symbol>
	<symbol id="filled-arrow-right-rhombus" xmlns="http://www.w3.org/2000/svg" width="24" height="24" viewBox="0 0 24 24" fill="currentColor"
> <path d="M18.707 8.293l3 3l.097 .112l.071 .11l.031 .062l.034 .081l.024 .076l.03 .148l.006 .118l-.004 .085l-.016 .116l-.03 .111l-.044 .111l-.052 .098l-.074 .104l-.073 .082l-3 3a1 1 0 0 1 -1.414 -1.414l1.292 -1.293h-10.171l-2.207 2.207a1 1 0 0 1 -1.414 0l-2.5 -2.5a1 1 0 0 1 0 -1.414l2.5 -2.5a1 1 0 0 1 1.414 0l2.208 2.207h10.17l-1.292 -1.293a1 1 0 0 1 -.083 -1.32l.083 -.094a1 1 0 0 1 1.414 0" />
</symbol>
	<symbol id="filled-arrow-right-square" xmlns="http://www.w3.org/2000/svg" width="24" height="24" viewBox="0 0 24 24" fill="currentColor"
> <path d="M18.707 8.293l3 3q .054 .053 .097 .112l.071 .11l.054 .114l.035 .105l.03 .148l.006 .118l-.003 .075l-.017 .126l-.03 .111l-.044 .111l-.052 .098l-.074 .104l-.073 .082l-3 3a1 1 0 0 1 -1.414 -1.414l1.292 -1.293h-10.585v1a1 1 0 0 1 -1 1h-4a1 1 0 0 1 -1 -1v-4a1 1 0 0 1 1 -1h4a1 1 0 0 1 1 1v1h10.585l-1.292 -1.293a1 1 0 0 1 -.083 -1.32l.083 -.094a1 1 0 0 1 1.414 0" />
</symbol>
	<symbol id="filled-arrow-up-circle" xmlns="http://www.w3.org/2000/svg" width="24" height="24" viewBox="0 0 24 24" fill="currentColor"
> <path d="M11.852 2.011l.058 -.007l.09 -.004l.075 .003l.126 .017l.111 .03l.111 .044l.098 .052l.104 .074l.082 .073l3 3a1 1 0 1 1 -1.414 1.414l-1.293 -1.292v10.756a3.001 3.001 0 1 1 -2 0v-10.756l-1.293 1.292a1 1 0 0 1 -1.32 .083l-.094 -.083a1 1 0 0 1 0 -1.414l3 -3q .053 -.054 .112 -.097l.11 -.071l.114 -.054l.105 -.035z" />
</symbol>
	<symbol id="filled-arrow-up-rhombus" xmlns="http://www.w3.org/2000/svg" width="24" height="24" viewBox="0 0 24 24" fill="currentColor"
> <path d="M12 2l.081 .003l.12 .017l.111 .03l.111 .044l.098 .052l.104 .074l.082 .073l3 3a1 1 0 1 1 -1.414 1.414l-1.293 -1.292v10.17l2.207 2.208a1 1 0 0 1 0 1.414l-2.5 2.5a1 1 0 0 1 -1.414 0l-2.5 -2.5a1 1 0 0 1 0 -1.414l2.207 -2.209v-10.169l-1.293 1.292a1 1 0 0 1 -1.32 .083l-.094 -.083a1 1 0 0 1 0 -1.414l3 -3l.112 -.097l.11 -.071l.062 -.031l.081 -.034l.076 -.024l.118 -.025l.058 -.007z" />
</symbol>
	<symbol id="filled-arrow-up-square" xmlns="http://www.w3.org/2000/svg" width="24" height="24" viewBox="0 0 24 24" fill="currentColor"
> <path d="M11.852 2.011l.058 -.007l.09 -.004l.075 .003l.126 .017l.111 .03l.111 .044l.098 .052l.104 .074l.082 .073l3 3a1 1 0 1 1 -1.414 1.414l-1.293 -1.292v10.585h1a1 1 0 0 1 1 1v4a1 1 0 0 1 -1 1h-4a1 1 0 0 1 -1 -1v-4a1 1 0 0 1 1 -1h1v-10.585l-1.293 1.292a1 1 0 0 1 -1.32 .083l-.094 -.083a1 1 0 0 1 0 -1.414l3 -3q .053 -.054 .112 -.097l.11 -.071l.114 -.054l.105 -.035z" />
</symbol>
	<symbol id="filled-automatic-gearbox" xmlns="http://www.w3.org/2000/svg" width="24" height="24" viewBox="0 0 24 24" fill="currentColor"
> <path d="M18 16a3 3 0 0 1 0 6h-1a1 1 0 0 1 -1 -1v-4a1 1 0 0 1 1 -1zm0 4l.117 -.007a1 1 0 0 0 -.117 -1.993zm.5 -13a2.5 2.5 0 1 1 0 5h-.5v1a1 1 0 0 1 -.883 .993l-.117 .007a1 1 0 0 1 -1 -1v-5a1 1 0 0 1 1 -1zm-.5 3h.5a.5 .5 0 1 0 0 -1h-.5zm-5 0a1 1 0 0 1 0 2h-3v6h3a1 1 0 0 1 0 2h-3a2 2 0 0 1 -2 -2v-6h-2a2 2 0 0 1 -1.995 -1.85l-.005 -.15v-2.17a3 3 0 0 1 -2 -2.83l.005 -.176a3 3 0 1 1 3.996 3.005l-.001 2.171z" />
</symbol>
	<symbol id="filled-battery-automotive" xmlns="http://www.w3.org/2000/svg" width="24" height="24" viewBox="0 0 24 24" fill="currentColor"
> <path d="M18 2a1 1 0 0 1 1 1v1a3 3 0 0 1 3 3v10a3 3 0 0 1 -3 3h-14a3 3 0 0 1 -3 -3v-10a3 3 0 0 1 3 -3v-1a1 1 0 1 1 2 0v1h10v-1a1 1 0 0 1 1 -1m-2 7.5a1 1 0 0 0 -1 1v.5h-.5a1 1 0 0 0 0 2h.5v.5a1 1 0 0 0 2 0v-.5h.5a1 1 0 0 0 0 -2h-.5v-.5a1 1 0 0 0 -1 -1m-6.5 1.5h-3a1 1 0 0 0 0 2h3a1 1 0 0 0 0 -2" />
</symbol>
	<symbol id="filled-battery-vertical-1" xmlns="http://www.w3.org/2000/svg" width="24" height="24" viewBox="0 0 24 24" fill="currentColor"
> <path d="M13.5 3a1.5 1.5 0 0 1 1.395 .948l.018 .052h.087a3 3 0 0 1 2.995 2.824l.005 .176v11a3 3 0 0 1 -3 3h-6a3 3 0 0 1 -3 -3v-11a3 3 0 0 1 3 -3h.086l.019 -.052a1.5 1.5 0 0 1 1.25 -.941l.145 -.007zm.5 13h-4a1 1 0 0 0 0 2h4a1 1 0 0 0 0 -2" />
</symbol>
	<symbol id="filled-battery-vertical-2" xmlns="http://www.w3.org/2000/svg" width="24" height="24" viewBox="0 0 24 24" fill="currentColor"
> <path d="M13.5 3a1.5 1.5 0 0 1 1.395 .948l.018 .052h.087a3 3 0 0 1 2.995 2.824l.005 .176v11a3 3 0 0 1 -3 3h-6a3 3 0 0 1 -3 -3v-11a3 3 0 0 1 3 -3h.086l.019 -.052a1.5 1.5 0 0 1 1.25 -.941l.145 -.007zm.5 13h-4a1 1 0 0 0 0 2h4a1 1 0 0 0 0 -2m0 -3h-4a1 1 0 0 0 0 2h4a1 1 0 0 0 0 -2" />
</symbol>
	<symbol id="filled-battery-vertical-3" xmlns="http://www.w3.org/2000/svg" width="24" height="24" viewBox="0 0 24 24" fill="currentColor"
> <path d="M13.5 3a1.5 1.5 0 0 1 1.395 .948l.018 .052h.087a3 3 0 0 1 2.995 2.824l.005 .176v11a3 3 0 0 1 -3 3h-6a3 3 0 0 1 -3 -3v-11a3 3 0 0 1 3 -3h.086l.019 -.052a1.5 1.5 0 0 1 1.25 -.941l.145 -.007zm.5 13h-4a1 1 0 0 0 0 2h4a1 1 0 0 0 0 -2m0 -3h-4a1 1 0 0 0 0 2h4a1 1 0 0 0 0 -2m0 -3h-4a1 1 0 0 0 0 2h4a1 1 0 0 0 0 -2" />
</symbol>
	<symbol id="filled-battery-vertical-4" xmlns="http://www.w3.org/2000/svg" width="24" height="24" viewBox="0 0 24 24" fill="currentColor"
> <path d="M13.5 3a1.5 1.5 0 0 1 1.395 .948l.018 .052h.087a3 3 0 0 1 2.995 2.824l.005 .176v11a3 3 0 0 1 -3 3h-6a3 3 0 0 1 -3 -3v-11a3 3 0 0 1 3 -3h.086l.019 -.052a1.5 1.5 0 0 1 1.25 -.941l.145 -.007zm.5 13h-4a1 1 0 0 0 0 2h4a1 1 0 0 0 0 -2m0 -3h-4a1 1 0 0 0 0 2h4a1 1 0 0 0 0 -2m0 -3h-4a1 1 0 0 0 0 2h4a1 1 0 0 0 0 -2m0 -3h-4a1 1 0 1 0 0 2h4a1 1 0 0 0 0 -2" />
</symbol>
	<symbol id="filled-battery-vertical" xmlns="http://www.w3.org/2000/svg" width="24" height="24" viewBox="0 0 24 24" fill="currentColor"
> <path d="M13.5 3a1.5 1.5 0 0 1 1.395 .948l.018 .052h.087a3 3 0 0 1 2.995 2.824l.005 .176v11a3 3 0 0 1 -3 3h-6a3 3 0 0 1 -3 -3v-11a3 3 0 0 1 3 -3h.086l.019 -.052a1.5 1.5 0 0 1 1.25 -.941l.145 -.007z" />
</symbol>
	<symbol id="filled-bike" xmlns="http://www.w3.org/2000/svg" width="24" height="24" viewBox="0 0 24 24" fill="currentColor"
> <path d="M5 14a4 4 0 1 1 -4 4l.005 -.2a4 4 0 0 1 3.995 -3.8" /> <path d="M19 14a4 4 0 1 1 -4 4l.005 -.2a4 4 0 0 1 3.995 -3.8" /> <path d="M14.832 7.445l1.703 2.555h2.465a1 1 0 0 1 .993 .883l.007 .117a1 1 0 0 1 -1 1h-3a1 1 0 0 1 -.832 -.445l-1.396 -2.093l-3.275 2.62l2.21 2.21a1 1 0 0 1 .284 .577l.009 .131v4a1 1 0 0 1 -2 0v-3.585l-2.707 -2.708a1 1 0 0 1 -.01 -1.403l.092 -.085l5 -4a1 1 0 0 1 1.457 .226" /> <path d="M17 3a2 2 0 1 1 -2 2l.005 -.15a2 2 0 0 1 1.995 -1.85" />
</symbol>
	<symbol id="filled-blender" xmlns="http://www.w3.org/2000/svg" width="24" height="24" viewBox="0 0 24 24" fill="currentColor"
> <path d="M15 14c.899 0 1.728 .296 2.396 .797l-.12 -.086q .101 .069 .196 .144l-.076 -.058q .07 .053 .14 .109l-.064 -.05q .072 .055 .14 .115l-.077 -.065a4 4 0 0 1 .565 .566l-.065 -.078q .061 .072 .12 .147l-.055 -.07q .057 .071 .111 .144l-.056 -.074q .066 .084 .127 .172l-.07 -.098q .058 .078 .112 .16l-.042 -.062q .054 .078 .104 .157l-.062 -.096q .06 .09 .117 .185l-.055 -.089l.09 .15l-.035 -.061a4 4 0 0 1 .338 .727l-.055 -.15q .039 .1 .073 .201l-.018 -.051q .033 .093 .06 .188l-.042 -.137q .033 .1 .061 .204l-.019 -.067q .027 .091 .05 .184l-.03 -.117q .03 .114 .055 .23l-.025 -.113q .026 .107 .045 .215l-.02 -.101q .021 .1 .037 .201l-.017 -.1q .018 .095 .03 .19l-.013 -.09a4 4 0 0 1 .026 .196l.017 .205l.006 .226v2a2 2 0 0 1 -2 2h-8a2 2 0 0 1 -2 -2v-2q 0 -.273 .036 -.537l-.013 .105a4 4 0 0 1 .026 -.194l-.013 .09a4 4 0 0 1 .03 -.191l-.017 .1q .015 -.1 .037 -.2l-.02 .1q .02 -.108 .046 -.215l-.026 .114q .024 -.117 .056 -.23l-.03 .116a4 4 0 0 1 .049 -.184l-.02 .067q .03 -.104 .062 -.204l-.042 .137q .027 -.096 .06 -.188l-.018 .051a4 4 0 0 1 .32 -.717l-.064 .117q .048 -.09 .1 -.178l-.035 .06l.09 -.15l-.055 .09q .055 -.094 .117 -.185l-.062 .096q .05 -.08 .104 -.157l-.042 .061q .054 -.08 .113 -.16l-.071 .1q .06 -.09 .127 -.173l-.056 .074q .054 -.073 .111 -.143l-.055 .069a4 4 0 0 1 .542 -.57l-.072 .064q .073 -.066 .15 -.129l-.078 .065a4 4 0 0 1 .14 -.116l-.062 .051q .068 -.056 .139 -.11l-.076 .06q .096 -.076 .195 -.145l-.12 .086q .07 -.053 .142 -.101l-.022 .015q .072 -.05 .145 -.096a4 4 0 0 1 2.132 -.615zm-2 3a1 1 0 0 0 -.993 .883l-.007 .127a1 1 0 0 0 1.993 .117l.007 -.127a1 1 0 0 0 -1 -1m1 -15a1 1 0 0 1 1 .999l1.802 .001a2 2 0 0 1 1.968 2.358l-1.49 8.191a5 5 0 0 0 -2.28 -.549h-4c-.822 0 -1.597 .198 -2.28 .55l-.464 -2.551l-2.256 .001a2 2 0 0 1 -2 -2v-4a2 2 0 0 1 2 -2l5 -.001l.007 -.116a1 1 0 0 1 .993 -.883zm-6.835 2.999l-1.165 .001v4l1.893 -.001z" />
</symbol>
	<symbol id="filled-bolt" xmlns="http://www.w3.org/2000/svg" width="24" height="24" viewBox="0 0 24 24" fill="currentColor"
> <path d="M13 2l.018 .001l.016 .001l.083 .005l.011 .002h.011l.038 .009l.052 .008l.016 .006l.011 .001l.029 .011l.052 .014l.019 .009l.015 .004l.028 .014l.04 .017l.021 .012l.022 .01l.023 .015l.031 .017l.034 .024l.018 .011l.013 .012l.024 .017l.038 .034l.022 .017l.008 .01l.014 .012l.036 .041l.026 .027l.006 .009c.12 .147 .196 .322 .218 .513l.001 .012l.002 .041l.004 .064v6h5a1 1 0 0 1 .868 1.497l-.06 .091l-8 11c-.568 .783 -1.808 .38 -1.808 -.588v-6h-5a1 1 0 0 1 -.868 -1.497l.06 -.091l8 -11l.01 -.013l.018 -.024l.033 -.038l.018 -.022l.009 -.008l.013 -.014l.04 -.036l.028 -.026l.008 -.006a1 1 0 0 1 .402 -.199l.011 -.001l.027 -.005l.074 -.013l.011 -.001l.041 -.002z" />
</symbol>
	<symbol id="filled-bong" xmlns="http://www.w3.org/2000/svg" width="24" height="24" viewBox="0 0 24 24" fill="currentColor"
> <path d="M14 2a1 1 0 0 1 0 2v5.587l2.293 -2.294a1 1 0 0 1 1.32 -.083l.094 .083l2 2a1 1 0 0 1 0 1.414l-3.116 3.115l.086 .233c.311 .907 .396 1.865 .263 2.794l-.062 .36l-.012 .052a6 6 0 0 1 -1.121 2.41l-.16 .199a6 6 0 0 1 -10.396 -2.378l-.068 -.288l-.009 -.046a6 6 0 0 1 2.833 -6.324l.055 -.031v-6.803a1 1 0 1 1 0 -2zm-2 2h-2v7.416a1 1 0 0 1 -.483 .856l-.117 .06a4 4 0 0 0 -2.4 3.668h8a4 4 0 0 0 -.486 -1.914a1 1 0 0 1 .17 -1.185l2.902 -2.901l-.586 -.586l-2.9 2.902a1 1 0 0 1 -1.067 .226l-.12 -.056a4 4 0 0 0 -.316 -.155a1 1 0 0 1 -.597 -.915z" />
</symbol>
	<symbol id="filled-box-multiple" xmlns="http://www.w3.org/2000/svg" width="24" height="24" viewBox="0 0 24 24" fill="currentColor"
> <path d="M6 5.667a3.667 3.667 0 0 1 3.667 -3.667h8.666a3.667 3.667 0 0 1 3.667 3.667v8.666a3.667 3.667 0 0 1 -3.667 3.667h-8.666a3.667 3.667 0 0 1 -3.667 -3.667z" /> <path d="M2 9c0 -1.094 .533 -1.828 1.514 -2.374a1 1 0 1 1 .972 1.748c-.398 .221 -.486 .342 -.486 .626v10c0 .548 .452 1 1 1h9.998c.32 0 .618 -.154 .805 -.407l.065 -.1a1 1 0 1 1 1.738 .99a3 3 0 0 1 -2.606 1.517h-10c-1.652 0 -3 -1.348 -3 -3z" />
</symbol>
	<symbol id="filled-car-4wd" xmlns="http://www.w3.org/2000/svg" width="24" height="24" viewBox="0 0 24 24" fill="currentColor"
> <path d="M17 2a3 3 0 0 1 3 3v2a3 3 0 0 1 -6 0h-1v10h1a3 3 0 0 1 6 0v2a3 3 0 0 1 -6 0h-4a3 3 0 0 1 -6 0v-2a3 3 0 0 1 6 0h1v-10h-1a3 3 0 1 1 -6 0v-2a3 3 0 1 1 6 0h4a3 3 0 0 1 3 -3" />
</symbol>
	<symbol id="filled-car-fan" xmlns="http://www.w3.org/2000/svg" width="24" height="24" viewBox="0 0 24 24" fill="currentColor"
> <path d="M12.363 2.068l4.912 1.914a2.7 2.7 0 0 1 .68 4.646l-3.045 2.371l6.09 .001a1 1 0 0 1 .932 1.363l-1.914 4.912a2.7 2.7 0 0 1 -4.646 .68l-2.372 -3.047v6.092a1 1 0 0 1 -1.363 .932l-4.912 -1.914a2.7 2.7 0 0 1 -.68 -4.646l3.045 -2.372h-6.09a1 1 0 0 1 -.932 -1.363l1.914 -4.912a2.7 2.7 0 0 1 4.646 -.68l2.371 3.044l.001 -6.089a1 1 0 0 1 1.363 -.932" />
</symbol>
	<symbol id="filled-cardboards" xmlns="http://www.w3.org/2000/svg" width="24" height="24" viewBox="0 0 24 24" fill="currentColor"
> <path d="M19 5a3 3 0 0 1 3 3v8.5a3.5 3.5 0 0 1 -3.5 3.5h-1.062a4 4 0 0 1 -3.118 -1.504l-1.54 -1.92a1 1 0 0 0 -1.56 0l-1.538 1.917a4 4 0 0 1 -3.122 1.507h-1.06a3.5 3.5 0 0 1 -3.5 -3.5v-8.5a3 3 0 0 1 3 -3zm-11 5a2 2 0 0 0 -1.995 1.85l-.005 .15a2 2 0 1 0 2 -2m8 0a2 2 0 0 0 -1.995 1.85l-.005 .15a2 2 0 1 0 2 -2" />
</symbol>
	<symbol id="filled-charging-pile" xmlns="http://www.w3.org/2000/svg" width="24" height="24" viewBox="0 0 24 24" fill="currentColor"
> <path d="M12 3a3 3 0 0 1 3 3v4a3 3 0 0 1 3 3v3a.5 .5 0 1 0 1 0v-6.585l-1 -1l-.293 .292a1 1 0 0 1 -1.414 -1.414l.292 -.293l-.292 -.293a1 1 0 0 1 -.083 -1.32l.083 -.094a1 1 0 0 1 1.414 0l3 3a1 1 0 0 1 .293 .707v7a2.5 2.5 0 1 1 -5 0v-3a1 1 0 0 0 -1 -1v7a1 1 0 0 1 0 2h-12a1 1 0 0 1 0 -2v-13a3 3 0 0 1 3 -3zm-2.486 7.643a1 1 0 0 0 -1.371 .343l-1.5 2.5l-.054 .1a1 1 0 0 0 .911 1.414h1.233l-.59 .986a1 1 0 0 0 1.714 1.028l1.5 -2.5l.054 -.1a1 1 0 0 0 -.911 -1.414h-1.235l.592 -.986a1 1 0 0 0 -.343 -1.371m2.486 -5.643h-6a1 1 0 0 0 -1 1v1h8v-1a1 1 0 0 0 -1 -1" />
</symbol>
	<symbol id="filled-christmas-tree" xmlns="http://www.w3.org/2000/svg" width="24" height="24" viewBox="0 0 24 24" fill="currentColor"
> <path d="M15 19v1a2 2 0 0 1 -2 2h-2a2 2 0 0 1 -2 -2v-1zm-10 -1c-.89 0 -1.337 -1.077 -.707 -1.707l2.855 -2.857l-1.464 -.487a1 1 0 0 1 -.472 -1.565l.08 -.091l3.019 -3.02l-.758 -.379a1 1 0 0 1 -.343 -1.507l.083 -.094l4 -4a1 1 0 0 1 1.414 0l4 4a1 1 0 0 1 -.26 1.601l-.759 .379l3.02 3.02a1 1 0 0 1 -.279 1.61l-.113 .046l-1.465 .487l2.856 2.857c.603 .602 .22 1.614 -.593 1.701l-.114 .006z" />
</symbol>
	<symbol id="filled-dashboard" xmlns="http://www.w3.org/2000/svg" width="24" height="24" viewBox="0 0 24 24" fill="currentColor"
> <path d="M12 2.954a10 10 0 0 1 6.222 17.829a1 1 0 0 1 -.622 .217h-11.2a1 1 0 0 1 -.622 -.217a10 10 0 0 1 6.222 -17.829m4.207 5.839a1 1 0 0 0 -1.414 0l-2.276 2.274a2.003 2.003 0 0 0 -2.514 1.815l-.003 .118a2 2 0 1 0 3.933 -.517l2.274 -2.276a1 1 0 0 0 0 -1.414" />
</symbol>
	<symbol id="filled-device-unknown" xmlns="http://www.w3.org/2000/svg" width="24" height="24" viewBox="0 0 24 24" fill="currentColor"
> <path d="M17 2a3 3 0 0 1 3 3v14a3 3 0 0 1 -3 3h-10a3 3 0 0 1 -3 -3v-14a3 3 0 0 1 3 -3zm-5 13a1 1 0 0 0 -1 1v.01a1 1 0 0 0 2 0v-.01a1 1 0 0 0 -1 -1m1.368 -6.673a2.98 2.98 0 0 0 -3.631 .728a1 1 0 0 0 1.526 1.292a.98 .98 0 0 1 1.195 -.239a1 1 0 0 1 -.455 1.892a1 1 0 0 0 -.006 2a3 3 0 0 0 1.371 -5.673" />
</symbol>

	<use xlink:href="#filled-arrow-down-circle" x="24" y="24" width="24" height="24" />
	<use xlink:href="#filled-arrow-down-rhombus" x="68" y="24" width="24" height="24" />
	<use xlink:href="#filled-arrow-down-square" x="112" y="24" width="24" height="24" />
	<use xlink:href="#filled-arrow-guide" x="156" y="24" width="24" height="24" />
	<use xlink:href="#filled-arrow-left-circle" x="200" y="24" width="24" height="24" />
	<use xlink:href="#filled-arrow-left-rhombus" x="244" y="24" width="24" height="24" />
	<use xlink:href="#filled-arrow-left-square" x="24" y="68" width="24" height="24" />
	<use xlink:href="#filled-arrow-move-down" x="68" y="68" width="24" height="24" />
	<use xlink:href="#filled-arrow-move-left" x="112" y="68" width="24" height="24" />
	<use xlink:href="#filled-arrow-move-right" x="156" y="68" width="24" height="24" />
	<use xlink:href="#filled-arrow-move-up" x="200" y="68" width="24" height="24" />
	<use xlink:href="#filled-arrow-right-circle" x="244" y="68" width="24" height="24" />
	<use xlink:href="#filled-arrow-right-rhombus" x="24" y="112" width="24" height="24" />
	<use xlink:href="#filled-arrow-right-square" x="68" y="112" width="24" height="24" />
	<use xlink:href="#filled-arrow-up-circle" x="112" y="112" width="24" height="24" />
	<use xlink:href="#filled-arrow-up-rhombus" x="156" y="112" width="24" height="24" />
	<use xlink:href="#filled-arrow-up-square" x="200" y="112" width="24" height="24" />
	<use xlink:href="#filled-automatic-gearbox" x="244" y="112" width="24" height="24" />
	<use xlink:href="#filled-battery-automotive" x="24" y="156" width="24" height="24" />
	<use xlink:href="#filled-battery-vertical-1" x="68" y="156" width="24" height="24" />
	<use xlink:href="#filled-battery-vertical-2" x="112" y="156" width="24" height="24" />
	<use xlink:href="#filled-battery-vertical-3" x="156" y="156" width="24" height="24" />
	<use xlink:href="#filled-battery-vertical-4" x="200" y="156" width="24" height="24" />
	<use xlink:href="#filled-battery-vertical" x="244" y="156" width="24" height="24" />
	<use xlink:href="#filled-bike" x="24" y="200" width="24" height="24" />
	<use xlink:href="#filled-blender" x="68" y="200" width="24" height="24" />
	<use xlink:href="#filled-bolt" x="112" y="200" width="24" height="24" />
	<use xlink:href="#filled-bong" x="156" y="200" width="24" height="24" />
	<use xlink:href="#filled-box-multiple" x="200" y="200" width="24" height="24" />
	<use xlink:href="#filled-car-4wd" x="244" y="200" width="24" height="24" />
	<use xlink:href="#filled-car-fan" x="24" y="244" width="24" height="24" />
	<use xlink:href="#filled-cardboards" x="68" y="244" width="24" height="24" />
	<use xlink:href="#filled-charging-pile" x="112" y="244" width="24" height="24" />
	<use xlink:href="#filled-christmas-tree" x="156" y="244" width="24" height="24" />
	<use xlink:href="#filled-dashboard" x="200" y="244" width="24" height="24" />
	<use xlink:href="#filled-device-unknown" x="244" y="244" width="24" height="24" />

</svg>