<svg xmlns="http://www.w3.org/2000/svg" xmlns:xlink="http://www.w3.org/1999/xlink" viewBox="0 0 292 204" width="292" height="204" style="color: #354052"><rect x="0" y="0" width="292" height="204" fill="#fff"></rect>
	<symbol id="arrow-bear-left-2" class="icon icon-tabler icon-tabler-arrow-bear-left-2" viewBox="0 0 24 24" stroke-width="2" stroke="currentColor" fill="none" stroke-linecap="round" stroke-linejoin="round"><path stroke="none" d="M0 0h24v24H0z" fill="none"/><path d="M9 3h-5v5" /><path d="M4 3l7.536 7.536a5 5 0 0 1 1.464 3.534v6.93" /><path d="M20 5l-4.5 4.5" />
</symbol>
	<symbol id="arrow-bear-left" class="icon icon-tabler icon-tabler-arrow-bear-left" viewBox="0 0 24 24" stroke-width="2" stroke="currentColor" fill="none" stroke-linecap="round" stroke-linejoin="round"><path stroke="none" d="M0 0h24v24H0z" fill="none"/><path d="M13 3h-5v5" /><path d="M8 3l7.536 7.536a5 5 0 0 1 1.464 3.534v6.93" />
</symbol>
	<symbol id="arrow-bear-right-2" class="icon icon-tabler icon-tabler-arrow-bear-right-2" viewBox="0 0 24 24" stroke-width="2" stroke="currentColor" fill="none" stroke-linecap="round" stroke-linejoin="round"><path stroke="none" d="M0 0h24v24H0z" fill="none"/><path d="M15 3h5v5" /><path d="M20 3l-7.536 7.536a5 5 0 0 0 -1.464 3.534v6.93" /><path d="M4 5l4.5 4.5" />
</symbol>
	<symbol id="arrow-bear-right" class="icon icon-tabler icon-tabler-arrow-bear-right" viewBox="0 0 24 24" stroke-width="2" stroke="currentColor" fill="none" stroke-linecap="round" stroke-linejoin="round"><path stroke="none" d="M0 0h24v24H0z" fill="none"/><path d="M12 3h5v5" /><path d="M17 3l-7.536 7.536a5 5 0 0 0 -1.464 3.534v6.93" />
</symbol>
	<symbol id="arrow-curve-left" class="icon icon-tabler icon-tabler-arrow-curve-left" viewBox="0 0 24 24" stroke-width="2" stroke="currentColor" fill="none" stroke-linecap="round" stroke-linejoin="round"><path stroke="none" d="M0 0h24v24H0z" fill="none"/><path d="M14 7l-4 -4l-4 4" /><path d="M10 3v4.394a6.737 6.737 0 0 0 3 5.606a6.737 6.737 0 0 1 3 5.606v2.394" />
</symbol>
	<symbol id="arrow-curve-right" class="icon icon-tabler icon-tabler-arrow-curve-right" viewBox="0 0 24 24" stroke-width="2" stroke="currentColor" fill="none" stroke-linecap="round" stroke-linejoin="round"><path stroke="none" d="M0 0h24v24H0z" fill="none"/><path d="M10 7l4 -4l4 4" /><path d="M14 3v4.394a6.737 6.737 0 0 1 -3 5.606a6.737 6.737 0 0 0 -3 5.606v2.394" />
</symbol>
	<symbol id="arrow-fork" class="icon icon-tabler icon-tabler-arrow-fork" viewBox="0 0 24 24" stroke-width="2" stroke="currentColor" fill="none" stroke-linecap="round" stroke-linejoin="round"><path stroke="none" d="M0 0h24v24H0z" fill="none"/><path d="M16 3h5v5" /><path d="M8 3h-5v5" /><path d="M21 3l-7.536 7.536a5 5 0 0 0 -1.464 3.534v6.93" /><path d="M3 3l7.536 7.536a5 5 0 0 1 1.464 3.534v.93" />
</symbol>
	<symbol id="arrow-left-right" class="icon icon-tabler icon-tabler-arrow-left-right" viewBox="0 0 24 24" stroke-width="2" stroke="currentColor" fill="none" stroke-linecap="round" stroke-linejoin="round"><path stroke="none" d="M0 0h24v24H0z" fill="none"/><path d="M17 13l4 -4l-4 -4" /><path d="M7 13l-4 -4l4 -4" /><path d="M12 14a5 5 0 0 1 5 -5h4" /><path d="M12 19v-5a5 5 0 0 0 -5 -5h-4" />
</symbol>
	<symbol id="arrow-loop-left-2" class="icon icon-tabler icon-tabler-arrow-loop-left-2" viewBox="0 0 24 24" stroke-width="2" stroke="currentColor" fill="none" stroke-linecap="round" stroke-linejoin="round"><path stroke="none" d="M0 0h24v24H0z" fill="none"/><path d="M13 21v-6m0 -6v-1a4 4 0 1 1 4 4h-13" /><path d="M8 16l-4 -4l4 -4" />
</symbol>
	<symbol id="arrow-loop-right-2" class="icon icon-tabler icon-tabler-arrow-loop-right-2" viewBox="0 0 24 24" stroke-width="2" stroke="currentColor" fill="none" stroke-linecap="round" stroke-linejoin="round"><path stroke="none" d="M0 0h24v24H0z" fill="none"/><path d="M12 21v-6m0 -6v-1a4 4 0 1 0 -4 4h13" /><path d="M17 16l4 -4l-4 -4" />
</symbol>
	<symbol id="arrow-merge" class="icon icon-tabler icon-tabler-arrow-merge" viewBox="0 0 24 24" stroke-width="2" stroke="currentColor" fill="none" stroke-linecap="round" stroke-linejoin="round"><path stroke="none" d="M0 0h24v24H0z" fill="none"/><path d="M8 7l4 -4l4 4" /><path d="M12 3v5.394a6.737 6.737 0 0 1 -3 5.606a6.737 6.737 0 0 0 -3 5.606v1.394" /><path d="M12 3v5.394a6.737 6.737 0 0 0 3 5.606a6.737 6.737 0 0 1 3 5.606v1.394" />
</symbol>
	<symbol id="arrow-ramp-left-2" class="icon icon-tabler icon-tabler-arrow-ramp-left-2" viewBox="0 0 24 24" stroke-width="2" stroke="currentColor" fill="none" stroke-linecap="round" stroke-linejoin="round"><path stroke="none" d="M0 0h24v24H0z" fill="none"/><path d="M18 3v8.707" /><path d="M8 14l-4 -4l4 -4" /><path d="M18 21c0 -6.075 -4.925 -11 -11 -11h-3" />
</symbol>
	<symbol id="arrow-ramp-left-3" class="icon icon-tabler icon-tabler-arrow-ramp-left-3" viewBox="0 0 24 24" stroke-width="2" stroke="currentColor" fill="none" stroke-linecap="round" stroke-linejoin="round"><path stroke="none" d="M0 0h24v24H0z" fill="none"/><path d="M18 3v6" /><path d="M8 16l-4 -4l4 -4" /><path d="M18 21v-6a3 3 0 0 0 -3 -3h-11" />
</symbol>
	<symbol id="arrow-ramp-right-2" class="icon icon-tabler icon-tabler-arrow-ramp-right-2" viewBox="0 0 24 24" stroke-width="2" stroke="currentColor" fill="none" stroke-linecap="round" stroke-linejoin="round"><path stroke="none" d="M0 0h24v24H0z" fill="none"/><path d="M6 3v8.707" /><path d="M16 14l4 -4l-4 -4" /><path d="M6 21c0 -6.075 4.925 -11 11 -11h3" />
</symbol>
	<symbol id="arrow-ramp-right-3" class="icon icon-tabler icon-tabler-arrow-ramp-right-3" viewBox="0 0 24 24" stroke-width="2" stroke="currentColor" fill="none" stroke-linecap="round" stroke-linejoin="round"><path stroke="none" d="M0 0h24v24H0z" fill="none"/><path d="M6 3v6" /><path d="M16 16l4 -4l-4 -4" /><path d="M6 21v-6a3 3 0 0 1 3 -3h11" />
</symbol>
	<symbol id="arrow-rotary-first-left" class="icon icon-tabler icon-tabler-arrow-rotary-first-left" viewBox="0 0 24 24" stroke-width="2" stroke="currentColor" fill="none" stroke-linecap="round" stroke-linejoin="round"><path stroke="none" d="M0 0h24v24H0z" fill="none"/><circle transform="matrix(-1 0 0 1 32 0)" cx="16" cy="7" r="3" /><path d="M16 10v10" /><path d="M13.5 9.5l-8.5 8.5" /><path d="M10 18h-5v-5" />
</symbol>
	<symbol id="arrow-rotary-first-right" class="icon icon-tabler icon-tabler-arrow-rotary-first-right" viewBox="0 0 24 24" stroke-width="2" stroke="currentColor" fill="none" stroke-linecap="round" stroke-linejoin="round"><path stroke="none" d="M0 0h24v24H0z" fill="none"/><circle cx="8" cy="7" r="3" /><path d="M8 10v10" /><path d="M10.5 9.5l8.5 8.5" /><path d="M14 18h5v-5" />
</symbol>
	<symbol id="arrow-rotary-last-left" class="icon icon-tabler icon-tabler-arrow-rotary-last-left" viewBox="0 0 24 24" stroke-width="2" stroke="currentColor" fill="none" stroke-linecap="round" stroke-linejoin="round"><path stroke="none" d="M0 0h24v24H0z" fill="none"/><circle transform="matrix(-1 0 0 1 30 0)" cx="15" cy="12" r="3" /><path d="M15 15v6" /><path d="M12.5 9.5l-6.5 -6.5" /><path d="M11 3h-5v5" />
</symbol>
	<symbol id="arrow-rotary-last-right" class="icon icon-tabler icon-tabler-arrow-rotary-last-right" viewBox="0 0 24 24" stroke-width="2" stroke="currentColor" fill="none" stroke-linecap="round" stroke-linejoin="round"><path stroke="none" d="M0 0h24v24H0z" fill="none"/><circle cx="9" cy="12" r="3" /><path d="M9 15v6" /><path d="M11.5 9.5l6.5 -6.5" /><path d="M13 3h5v5" />
</symbol>
	<symbol id="arrow-rotary-left" class="icon icon-tabler icon-tabler-arrow-rotary-left" viewBox="0 0 24 24" stroke-width="2" stroke="currentColor" fill="none" stroke-linecap="round" stroke-linejoin="round"><path stroke="none" d="M0 0h24v24H0z" fill="none"/><circle transform="matrix(-1 0 0 1 32 0)" cx="16" cy="7" r="3" /><path d="M16 10v10" /><path d="M13 7h-10" /><path d="M7 11l-4 -4l4 -4" />
</symbol>
	<symbol id="arrow-rotary-right" class="icon icon-tabler icon-tabler-arrow-rotary-right" viewBox="0 0 24 24" stroke-width="2" stroke="currentColor" fill="none" stroke-linecap="round" stroke-linejoin="round"><path stroke="none" d="M0 0h24v24H0z" fill="none"/><circle cx="8" cy="7" r="3" /><path d="M8 10v10" /><path d="M17 11l4 -4l-4 -4" /><path d="M11 7h10" />
</symbol>
	<symbol id="arrow-rotary-straight" class="icon icon-tabler icon-tabler-arrow-rotary-straight" viewBox="0 0 24 24" stroke-width="2" stroke="currentColor" fill="none" stroke-linecap="round" stroke-linejoin="round"><path stroke="none" d="M0 0h24v24H0z" fill="none"/><circle cx="13" cy="13" r="3" /><path d="M13 16v5" /><path d="M13 3v7" /><path d="M9 7l4 -4l4 4" />
</symbol>
	<symbol id="arrow-sharp-turn-left" class="icon icon-tabler icon-tabler-arrow-sharp-turn-left" viewBox="0 0 24 24" stroke-width="2" stroke="currentColor" fill="none" stroke-linecap="round" stroke-linejoin="round"><path stroke="none" d="M0 0h24v24H0z" fill="none"/><path d="M17 18v-11.31a0.7 .7 0 0 0 -1.195 -.495l-9.805 9.805" /><path d="M11 16h-5v-5" />
</symbol>
	<symbol id="arrow-sharp-turn-right" class="icon icon-tabler icon-tabler-arrow-sharp-turn-right" viewBox="0 0 24 24" stroke-width="2" stroke="currentColor" fill="none" stroke-linecap="round" stroke-linejoin="round"><path stroke="none" d="M0 0h24v24H0z" fill="none"/><path d="M7 18v-11.31a0.7 .7 0 0 1 1.195 -.495l9.805 9.805" /><path d="M13 16h5v-5" />
</symbol>

	<use xlink:href="#arrow-bear-left-2" x="24" y="24" width="24" height="24" />
	<use xlink:href="#arrow-bear-left" x="68" y="24" width="24" height="24" />
	<use xlink:href="#arrow-bear-right-2" x="112" y="24" width="24" height="24" />
	<use xlink:href="#arrow-bear-right" x="156" y="24" width="24" height="24" />
	<use xlink:href="#arrow-curve-left" x="200" y="24" width="24" height="24" />
	<use xlink:href="#arrow-curve-right" x="244" y="24" width="24" height="24" />
	<use xlink:href="#arrow-fork" x="24" y="68" width="24" height="24" />
	<use xlink:href="#arrow-left-right" x="68" y="68" width="24" height="24" />
	<use xlink:href="#arrow-loop-left-2" x="112" y="68" width="24" height="24" />
	<use xlink:href="#arrow-loop-right-2" x="156" y="68" width="24" height="24" />
	<use xlink:href="#arrow-merge" x="200" y="68" width="24" height="24" />
	<use xlink:href="#arrow-ramp-left-2" x="244" y="68" width="24" height="24" />
	<use xlink:href="#arrow-ramp-left-3" x="24" y="112" width="24" height="24" />
	<use xlink:href="#arrow-ramp-right-2" x="68" y="112" width="24" height="24" />
	<use xlink:href="#arrow-ramp-right-3" x="112" y="112" width="24" height="24" />
	<use xlink:href="#arrow-rotary-first-left" x="156" y="112" width="24" height="24" />
	<use xlink:href="#arrow-rotary-first-right" x="200" y="112" width="24" height="24" />
	<use xlink:href="#arrow-rotary-last-left" x="244" y="112" width="24" height="24" />
	<use xlink:href="#arrow-rotary-last-right" x="24" y="156" width="24" height="24" />
	<use xlink:href="#arrow-rotary-left" x="68" y="156" width="24" height="24" />
	<use xlink:href="#arrow-rotary-right" x="112" y="156" width="24" height="24" />
	<use xlink:href="#arrow-rotary-straight" x="156" y="156" width="24" height="24" />
	<use xlink:href="#arrow-sharp-turn-left" x="200" y="156" width="24" height="24" />
	<use xlink:href="#arrow-sharp-turn-right" x="244" y="156" width="24" height="24" />

</svg>