<svg xmlns="http://www.w3.org/2000/svg" xmlns:xlink="http://www.w3.org/1999/xlink" viewBox="0 0 292 160" width="292" height="160" style="color: #354052"><rect x="0" y="0" width="292" height="160" fill="#fff"></rect>
	<symbol id="outline-brand-tesla" xmlns="http://www.w3.org/2000/svg" width="24" height="24" viewBox="0 0 24 24" fill="none" stroke="currentColor" stroke-width="2" stroke-linecap="round" stroke-linejoin="round"
> <path d="M12 21l3 -11c2.359 0 3 0 3 1c0 0 1.18 -1.745 2 -3c-3.077 -1.464 -6 -1 -6 -1l-2 2l-2 -2s-2.923 -.464 -6 1c.82 1.255 2 3 2 3c0 -1 .744 -1 3 -1z" /> <path d="M20 5c-5.114 -2 -10.886 -2 -16 0" />
</symbol>
	<symbol id="outline-clipboard-search" xmlns="http://www.w3.org/2000/svg" width="24" height="24" viewBox="0 0 24 24" fill="none" stroke="currentColor" stroke-width="2" stroke-linecap="round" stroke-linejoin="round"
> <path d="M9 5h-2a2 2 0 0 0 -2 2v12a2 2 0 0 0 2 2h4.5m7.5 -10v-4a2 2 0 0 0 -2 -2h-2" /> <path d="M9 5a2 2 0 0 1 2 -2h2a2 2 0 0 1 2 2a2 2 0 0 1 -2 2h-2a2 2 0 0 1 -2 -2" /> <path d="M18 18m-3 0a3 3 0 1 0 6 0a3 3 0 1 0 -6 0" /> <path d="M20.2 20.2l1.8 1.8" />
</symbol>
	<symbol id="outline-tag-plus" xmlns="http://www.w3.org/2000/svg" width="24" height="24" viewBox="0 0 24 24" fill="none" stroke="currentColor" stroke-width="2" stroke-linecap="round" stroke-linejoin="round"
> <path d="M7.5 7.5m-1 0a1 1 0 1 0 2 0a1 1 0 1 0 -2 0" /> <path d="M21.002 13c0 -.617 -.235 -1.233 -.706 -1.704l-7.71 -7.71c-.375 -.375 -.884 -.586 -1.414 -.586h-5.172c-1.657 0 -3 1.343 -3 3v5.172c0 .53 .211 1.039 .586 1.414l7.71 7.71c.471 .47 1.087 .706 1.704 .706" /> <path d="M16 19h6" /> <path d="M19 16v6" />
</symbol>
	<symbol id="outline-tag" xmlns="http://www.w3.org/2000/svg" width="24" height="24" viewBox="0 0 24 24" fill="none" stroke="currentColor" stroke-width="2" stroke-linecap="round" stroke-linejoin="round"
> <path d="M7.5 7.5m-1 0a1 1 0 1 0 2 0a1 1 0 1 0 -2 0" /> <path d="M3 6v5.172a2 2 0 0 0 .586 1.414l7.71 7.71a2.41 2.41 0 0 0 3.408 0l5.592 -5.592a2.41 2.41 0 0 0 0 -3.408l-7.71 -7.71a2 2 0 0 0 -1.414 -.586h-5.172a3 3 0 0 0 -3 3z" />
</symbol>
	<symbol id="filled-brand-messenger" xmlns="http://www.w3.org/2000/svg" width="24" height="24" viewBox="0 0 24 24" fill="currentColor"
> <path d="M18.894 5.446c3.667 3.127 4.168 8.238 1.152 11.897c-2.842 3.447 -7.965 4.583 -12.231 2.805l-.233 -.101l-4.374 .931l-.033 .005l-.042 .008l-.031 .002l-.01 .003h-.018l-.052 .004l-.024 -.001l-.02 .001l-.033 -.003h-.035l-.022 -.004l-.022 -.002l-.035 -.007l-.034 -.005l-.016 -.004l-.024 -.005l-.049 -.016l-.024 -.005l-.011 -.005l-.022 -.007l-.045 -.02l-.03 -.012l-.011 -.006l-.014 -.006l-.031 -.018l-.045 -.024l-.016 -.011l-.037 -.026l-.04 -.027l-.015 -.013l-.043 -.04l-.025 -.02l-.062 -.07l-.013 -.013l-.011 -.014l-.027 -.04l-.026 -.035a1 1 0 0 1 -.054 -.095l-.006 -.013l-.019 -.045l-.02 -.042l-.004 -.016l-.004 -.01l-.011 -.04l-.013 -.04l-.002 -.014l-.005 -.019l-.005 -.033l-.008 -.042l-.002 -.031l-.003 -.026l-.004 -.054l.001 -.036l.001 -.023l.002 -.053l.004 -.025v-.019l.008 -.036l.005 -.033l.004 -.017l.005 -.023l.018 -.06l.003 -.013l1.15 -3.45l-.022 -.037c-2.21 -3.747 -1.209 -8.392 2.411 -11.118l.23 -.168c3.898 -2.766 9.469 -2.54 13.073 .535m-2.062 5a1 1 0 0 0 -1.387 -.278l-2.318 1.544l-1.42 -1.42a1 1 0 0 0 -1.262 -.124l-3 2a1 1 0 0 0 -.277 1.387l.07 .093a1 1 0 0 0 1.317 .184l2.317 -1.545l1.42 1.42a1 1 0 0 0 1.263 .125l3 -2a1 1 0 0 0 .277 -1.387" />
</symbol>
	<symbol id="filled-brand-weibo" xmlns="http://www.w3.org/2000/svg" width="24" height="24" viewBox="0 0 24 24" fill="currentColor"
> <path d="M4.972 8.183c2.81 -2.987 6.162 -4.207 8.006 -2.24c.298 .316 .554 .773 .736 1.266l.127 -.031c2.064 -.469 4 1.287 3.817 3.544l-.005 .036l.15 .057c1.46 .574 2.14 1.355 2.193 3.081l.004 .231c0 3.776 -4.107 6.873 -9 6.873c-4.854 0 -9 -2.72 -9 -6.565c0 -2.04 1.068 -4.222 2.972 -6.252" /> <path d="M16 3a6 6 0 0 1 6 6v1a1 1 0 0 1 -2 0v-1a4 4 0 0 0 -4 -4h-1a1 1 0 0 1 0 -2z" />
</symbol>
	<symbol id="filled-bubble-text" xmlns="http://www.w3.org/2000/svg" width="24" height="24" viewBox="0 0 24 24" fill="currentColor"
> <path d="M12.4 2l.253 .005a6.34 6.34 0 0 1 5.235 3.166l.089 .163l.178 .039a6.33 6.33 0 0 1 4.254 3.406l.105 .228a6.334 6.334 0 0 1 -5.74 8.865l-.144 -.002l-.037 .052a5.26 5.26 0 0 1 -5.458 1.926l-.186 -.051l-3.435 2.06a1 1 0 0 1 -1.508 -.743l-.006 -.114v-2.435l-.055 -.026a3.67 3.67 0 0 1 -1.554 -1.498l-.102 -.199a3.67 3.67 0 0 1 -.312 -2.14l.038 -.21l-.116 -.092a5.8 5.8 0 0 1 -1.887 -6.025l.071 -.238a5.8 5.8 0 0 1 5.42 -4.004h.157l.15 -.165a6.33 6.33 0 0 1 4.33 -1.963zm1.6 11h-5a1 1 0 0 0 0 2h5a1 1 0 0 0 0 -2m3 -4h-10a1 1 0 1 0 0 2h10a1 1 0 0 0 0 -2" />
</symbol>
	<symbol id="filled-ghost-3" xmlns="http://www.w3.org/2000/svg" width="24" height="24" viewBox="0 0 24 24" fill="currentColor"
> <path d="M12 3a8 8 0 0 1 8 8v6.954l.009 .103a2.78 2.78 0 0 1 -1.468 2.618l-.163 .08c-1.111 .502 -2.42 .22 -3.266 -.74a.65 .65 0 0 0 -1.024 0a2.65 2.65 0 0 1 -4.176 0a.65 .65 0 0 0 -.512 -.249c-.2 0 -.389 .092 -.55 .296a2.78 2.78 0 0 1 -4.859 -2.005l.01 -.104l.007 -.077l-.008 .074v-6.95l.004 -.25a8 8 0 0 1 7.747 -7.746zm-1.99 6h-.01a1 1 0 1 0 0 2h.01a1 1 0 0 0 0 -2m4 0h-.01a1 1 0 0 0 0 2h.01a1 1 0 0 0 0 -2" />
</symbol>
	<symbol id="filled-golf" xmlns="http://www.w3.org/2000/svg" width="24" height="24" viewBox="0 0 24 24" fill="currentColor"
> <path d="M11 3a1 1 0 0 1 1.496 -.868l7 4a1 1 0 0 1 0 1.736l-6.496 3.712v6.42a1 1 0 0 1 -.883 .993l-.117 .007a1 1 0 0 1 -1 -1z" /> <path d="M14.135 17.168a1 1 0 0 1 1.367 -.363c.916 .532 1.498 1.291 1.498 2.195c0 1.84 -2.319 3 -5 3s-5 -1.16 -5 -3c0 -.911 .577 -1.66 1.498 -2.195a1 1 0 1 1 1.004 1.73c-.365 .212 -.502 .39 -.502 .465c0 .086 .179 .296 .622 .518c.6 .3 1.456 .482 2.378 .482s1.777 -.182 2.378 -.482c.443 -.222 .622 -.432 .622 -.518c0 -.07 -.142 -.256 -.502 -.465a1 1 0 0 1 -.363 -1.367" />
</symbol>
	<symbol id="filled-keyboard" xmlns="http://www.w3.org/2000/svg" width="24" height="24" viewBox="0 0 24 24" fill="currentColor"
> <path d="M20 5a3 3 0 0 1 3 3v8a3 3 0 0 1 -3 3h-16a3 3 0 0 1 -3 -3v-8a3 3 0 0 1 3 -3zm-14 8a1 1 0 0 0 -1 1v.01a1 1 0 0 0 2 0v-.01a1 1 0 0 0 -1 -1m12 0a1 1 0 0 0 -1 1v.01a1 1 0 0 0 2 0v-.01a1 1 0 0 0 -1 -1m-7.998 0a1 1 0 0 0 -.004 2l4 .01a1 1 0 0 0 .005 -2zm-4.002 -4a1 1 0 0 0 -1 1v.01a1 1 0 0 0 2 0v-.01a1 1 0 0 0 -1 -1m4 0a1 1 0 0 0 -1 1v.01a1 1 0 0 0 2 0v-.01a1 1 0 0 0 -1 -1m4 0a1 1 0 0 0 -1 1v.01a1 1 0 0 0 2 0v-.01a1 1 0 0 0 -1 -1m4 0a1 1 0 0 0 -1 1v.01a1 1 0 0 0 2 0v-.01a1 1 0 0 0 -1 -1" />
</symbol>
	<symbol id="filled-live-view" xmlns="http://www.w3.org/2000/svg" width="24" height="24" viewBox="0 0 24 24" fill="currentColor"
> <path d="M8 3a1 1 0 1 1 0 2h-2a1 1 0 0 0 -1 1v2a1 1 0 1 1 -2 0v-2a3 3 0 0 1 3 -3z" /> <path d="M4 15a1 1 0 0 1 1 1v2a1 1 0 0 0 1 1h2a1 1 0 0 1 0 2h-2a3 3 0 0 1 -3 -3v-2a1 1 0 0 1 1 -1" /> <path d="M18 3a3 3 0 0 1 3 3v2a1 1 0 0 1 -2 0v-2a1 1 0 0 0 -1 -1h-2a1 1 0 0 1 0 -2z" /> <path d="M20 15a1 1 0 0 1 1 1v2a3 3 0 0 1 -3 3h-2a1 1 0 0 1 0 -2h2a1 1 0 0 0 1 -1v-2a1 1 0 0 1 1 -1" /> <path d="M15.19 7.214a5 5 0 0 1 1.185 6.27l-.056 .09l-3.484 4.976a1 1 0 0 1 -.077 .103l-.017 .019l-.057 .056l-.012 .013l-.019 .017a1 1 0 0 1 -.096 .073l-.053 .03l-.038 .024l-.011 .005a1 1 0 0 1 -.223 .083l-.045 .008l-.066 .012a1 1 0 0 1 -.242 0l-.061 -.011l-.05 -.01a1 1 0 0 1 -.234 -.087l-.047 -.028l-.044 -.026l-.011 -.008l-.032 -.025l-.053 -.04l-.01 -.01l-.009 -.007l-.034 -.035l-.035 -.034l-.007 -.01l-.01 -.009l-.037 -.05l-.024 -.03l-3.5 -5l-.056 -.089a5 5 0 0 1 7.566 -6.27m-3.191 2.786a1 1 0 0 0 -1 1v.01a1 1 0 0 0 2 0v-.01a1 1 0 0 0 -1 -1" />
</symbol>
	<symbol id="filled-meeple" xmlns="http://www.w3.org/2000/svg" width="24" height="24" viewBox="0 0 24 24" fill="currentColor"
> <path d="M12 2c2.486 0 3.713 1.766 3.955 4.1l.01 .124l.129 .036c3.17 .928 5.754 2.487 5.9 4.556l.006 .184c0 1.427 -1.297 2.322 -2.871 2.733l-.201 .049l.026 .03c.244 .276 .532 .603 .7 .797l.057 .066c.49 .573 .884 1.073 1.216 1.56c.69 1.01 1.073 1.904 1.073 2.765a2 2 0 0 1 -2 2h-5c-1.043 0 -1.344 -.453 -2.394 -2.553c-.29 -.58 -.448 -.882 -.593 -1.118l-.013 -.022l-.013 .022c-.129 .21 -.268 .472 -.5 .935l-.093 .183c-1.05 2.1 -1.351 2.553 -2.394 2.553h-5a2 2 0 0 1 -2 -2c0 -.86 .384 -1.755 1.073 -2.765a18 18 0 0 1 1.216 -1.56c.152 -.178 .482 -.553 .757 -.863l.025 -.03l-.2 -.049c-1.506 -.393 -2.758 -1.23 -2.864 -2.55l-.007 -.183c0 -2.16 2.643 -3.785 5.906 -4.74l.128 -.036l.011 -.124c.235 -2.26 1.394 -3.99 3.726 -4.095z" />
</symbol>
	<symbol id="filled-message-2" xmlns="http://www.w3.org/2000/svg" width="24" height="24" viewBox="0 0 24 24" fill="currentColor"
> <path d="M18 3a4 4 0 0 1 4 4v8a4 4 0 0 1 -4 4h-2.586l-2.707 2.707a1 1 0 0 1 -1.32 .083l-.094 -.083l-2.708 -2.707h-2.585a4 4 0 0 1 -3.995 -3.8l-.005 -.2v-8a4 4 0 0 1 4 -4zm-4 9h-6a1 1 0 0 0 0 2h6a1 1 0 0 0 0 -2m2 -4h-8a1 1 0 1 0 0 2h8a1 1 0 0 0 0 -2" />
</symbol>
	<symbol id="filled-nurse" xmlns="http://www.w3.org/2000/svg" width="24" height="24" viewBox="0 0 24 24" fill="currentColor"
> <path d="M12.002 4c2.866 0 6.7 1.365 9.532 3.155a1 1 0 0 1 .45 1.024l-2 11a1 1 0 0 1 -.984 .821h-14a1 1 0 0 1 -.984 -.821l-2 -11a1 1 0 0 1 .45 -1.024c2.834 -1.792 6.724 -3.16 9.536 -3.155m-.002 5a1 1 0 0 0 -1 1v1h-1a1 1 0 0 0 -.993 .883l-.007 .117a1 1 0 0 0 1 1h1v1a1 1 0 0 0 .883 .993l.117 .007a1 1 0 0 0 1 -1v-1h1a1 1 0 0 0 .993 -.883l.007 -.117a1 1 0 0 0 -1 -1h-1v-1a1 1 0 0 0 -.883 -.993z" />
</symbol>
	<symbol id="filled-palette" xmlns="http://www.w3.org/2000/svg" width="24" height="24" viewBox="0 0 24 24" fill="currentColor"
> <path d="M12 2c5.498 0 10 4.002 10 9c0 1.351 -.6 2.64 -1.654 3.576c-1.03 .914 -2.412 1.424 -3.846 1.424h-2.516a1 1 0 0 0 -.5 1.875a1 1 0 0 1 .194 .14a2.3 2.3 0 0 1 -1.597 3.99l-.156 -.009l.068 .004l-.273 -.004c-5.3 -.146 -9.57 -4.416 -9.716 -9.716l-.004 -.28c0 -5.523 4.477 -10 10 -10m-3.5 6.5a2 2 0 0 0 -1.995 1.85l-.005 .15a2 2 0 1 0 2 -2m8 0a2 2 0 0 0 -1.995 1.85l-.005 .15a2 2 0 1 0 2 -2m-4 -3a2 2 0 0 0 -1.995 1.85l-.005 .15a2 2 0 1 0 2 -2" />
</symbol>
	<symbol id="filled-quote" xmlns="http://www.w3.org/2000/svg" width="24" height="24" viewBox="0 0 24 24" fill="currentColor"
> <path d="M9 5a2 2 0 0 1 2 2v6c0 3.13 -1.65 5.193 -4.757 5.97a1 1 0 1 1 -.486 -1.94c2.227 -.557 3.243 -1.827 3.243 -4.03v-1h-3a2 2 0 0 1 -1.995 -1.85l-.005 -.15v-3a2 2 0 0 1 2 -2z" /> <path d="M18 5a2 2 0 0 1 2 2v6c0 3.13 -1.65 5.193 -4.757 5.97a1 1 0 1 1 -.486 -1.94c2.227 -.557 3.243 -1.827 3.243 -4.03v-1h-3a2 2 0 0 1 -1.995 -1.85l-.005 -.15v-3a2 2 0 0 1 2 -2z" />
</symbol>
	<symbol id="filled-video" xmlns="http://www.w3.org/2000/svg" width="24" height="24" viewBox="0 0 24 24" fill="currentColor"
> <path d="M20.117 7.625a1 1 0 0 0 -.564 .1l-4.553 2.275v4l4.553 2.275a1 1 0 0 0 1.447 -.892v-6.766a1 1 0 0 0 -.883 -.992z" /> <path d="M5 5c-1.645 0 -3 1.355 -3 3v8c0 1.645 1.355 3 3 3h8c1.645 0 3 -1.355 3 -3v-8c0 -1.645 -1.355 -3 -3 -3z" />
</symbol>
	<symbol id="filled-windsock" xmlns="http://www.w3.org/2000/svg" width="24" height="24" viewBox="0 0 24 24" fill="currentColor"
> <path d="M6 2a1 1 0 0 1 1 1v1.079l11.083 .924a1 1 0 0 1 .917 .997v4a1 1 0 0 1 -.917 .997l-11.083 .923v8.08h1a1 1 0 0 1 0 2h-4a1 1 0 0 1 0 -2h1v-17a1 1 0 0 1 1 -1m1 4.086v3.827l3 -.25v-3.327zm7 .584v2.659l3 -.25v-2.159z" />
</symbol>

	<use xlink:href="#outline-brand-tesla" x="24" y="24" width="24" height="24" />
	<use xlink:href="#outline-clipboard-search" x="68" y="24" width="24" height="24" />
	<use xlink:href="#outline-tag-plus" x="112" y="24" width="24" height="24" />
	<use xlink:href="#outline-tag" x="156" y="24" width="24" height="24" />
	<use xlink:href="#filled-brand-messenger" x="200" y="24" width="24" height="24" />
	<use xlink:href="#filled-brand-weibo" x="244" y="24" width="24" height="24" />
	<use xlink:href="#filled-bubble-text" x="24" y="68" width="24" height="24" />
	<use xlink:href="#filled-ghost-3" x="68" y="68" width="24" height="24" />
	<use xlink:href="#filled-golf" x="112" y="68" width="24" height="24" />
	<use xlink:href="#filled-keyboard" x="156" y="68" width="24" height="24" />
	<use xlink:href="#filled-live-view" x="200" y="68" width="24" height="24" />
	<use xlink:href="#filled-meeple" x="244" y="68" width="24" height="24" />
	<use xlink:href="#filled-message-2" x="24" y="112" width="24" height="24" />
	<use xlink:href="#filled-nurse" x="68" y="112" width="24" height="24" />
	<use xlink:href="#filled-palette" x="112" y="112" width="24" height="24" />
	<use xlink:href="#filled-quote" x="156" y="112" width="24" height="24" />
	<use xlink:href="#filled-video" x="200" y="112" width="24" height="24" />
	<use xlink:href="#filled-windsock" x="244" y="112" width="24" height="24" />

</svg>