<svg xmlns="http://www.w3.org/2000/svg" xmlns:xlink="http://www.w3.org/1999/xlink" viewBox="0 0 292 160" width="292" height="160" style="color: #354052"><rect x="0" y="0" width="292" height="160" fill="#fff"></rect>
	<symbol id="brand-ansible" class="icon icon-tabler icon-tabler-brand-ansible" viewBox="0 0 24 24" stroke-width="2" stroke="currentColor" fill="none" stroke-linecap="round" stroke-linejoin="round"><path stroke="none" d="M0 0h24v24H0z" fill="none"/><path d="M12 12m-9 0a9 9 0 1 0 18 0a9 9 0 1 0 -18 0" /><path d="M9.647 12.294l6.353 3.706l-4 -9l-4 9" />
</symbol>
	<symbol id="brand-cinema-4d" class="icon icon-tabler icon-tabler-brand-cinema-4d" viewBox="0 0 24 24" stroke-width="2" stroke="currentColor" fill="none" stroke-linecap="round" stroke-linejoin="round"><path stroke="none" d="M0 0h24v24H0z" fill="none"/><path d="M9.65 6.956a5.39 5.39 0 0 0 7.494 7.495" /><path d="M12 12m-9 0a9 9 0 1 0 18 0a9 9 0 1 0 -18 0" /><path d="M17.7 12.137a5.738 5.738 0 1 1 -5.737 -5.737" /><path d="M17.7 12.338v-1.175c0 -.47 .171 -.92 .476 -1.253a1.56 1.56 0 0 1 1.149 -.52c.827 0 1.523 .676 1.62 1.573c.037 .344 .055 .69 .055 1.037" /><path d="M11.662 6.4h1.175c.47 0 .92 -.176 1.253 -.49c.333 -.314 .52 -.74 .52 -1.184c0 -.852 -.676 -1.57 -1.573 -1.67a9.496 9.496 0 0 0 -1.037 -.056" />
</symbol>
	<symbol id="brand-craft" class="icon icon-tabler icon-tabler-brand-craft" viewBox="0 0 24 24" stroke-width="2" stroke="currentColor" fill="none" stroke-linecap="round" stroke-linejoin="round"><path stroke="none" d="M0 0h24v24H0z" fill="none"/><path d="M20 4h-8a8 8 0 1 0 0 16h8a8 8 0 0 0 -8 -8a8 8 0 0 0 8 -8" /><path d="M4 12h8" /><path d="M12 4v16" />
</symbol>
	<symbol id="brand-digg" class="icon icon-tabler icon-tabler-brand-digg" viewBox="0 0 24 24" stroke-width="2" stroke="currentColor" fill="none" stroke-linecap="round" stroke-linejoin="round"><path stroke="none" d="M0 0h24v24H0z" fill="none"/><path d="M6 15h-3v-4h3" /><path d="M15 15h-3v-4h3" /><path d="M9 15v-4" /><path d="M15 11v7h-3" /><path d="M6 7v8" /><path d="M21 15h-3v-4h3" /><path d="M21 11v7h-3" />
</symbol>
	<symbol id="brand-electronic-arts" class="icon icon-tabler icon-tabler-brand-electronic-arts" viewBox="0 0 24 24" stroke-width="2" stroke="currentColor" fill="none" stroke-linecap="round" stroke-linejoin="round"><path stroke="none" d="M0 0h24v24H0z" fill="none"/><path d="M12 12m-9 0a9 9 0 1 0 18 0a9 9 0 1 0 -18 0" /><path d="M17.5 15l-3 -6l-3 6h-5l1.5 -3" /><path d="M17 14h-2" /><path d="M6.5 12h3.5" /><path d="M8 9h3" />
</symbol>
	<symbol id="brand-feedly" class="icon icon-tabler icon-tabler-brand-feedly" viewBox="0 0 24 24" stroke-width="2" stroke="currentColor" fill="none" stroke-linecap="round" stroke-linejoin="round"><path stroke="none" d="M0 0h24v24H0z" fill="none"/><path d="M7.833 12.278l4.445 -4.445" /><path d="M10.055 14.5l2.223 -2.222" /><path d="M12.278 16.722l.555 -.555" /><path d="M19.828 14.828a4 4 0 0 0 0 -5.656l-5 -5a4 4 0 0 0 -5.656 0l-5 5a4 4 0 0 0 0 5.656l6.171 6.172h3.314l6.171 -6.172z" />
</symbol>
	<symbol id="brand-filezilla" class="icon icon-tabler icon-tabler-brand-filezilla" viewBox="0 0 24 24" stroke-width="2" stroke="currentColor" fill="none" stroke-linecap="round" stroke-linejoin="round"><path stroke="none" d="M0 0h24v24H0z" fill="none"/><path d="M16 15.824a4.062 4.062 0 0 1 -2.25 .033c-.738 -.201 -2.018 -.08 -2.75 .143l4.583 -5h-6.583" /><path d="M12 12m-9 0a9 9 0 1 0 18 0a9 9 0 1 0 -18 0" /><path d="M8 15l2 -8h5" />
</symbol>
	<symbol id="brand-speedtest" class="icon icon-tabler icon-tabler-brand-speedtest" viewBox="0 0 24 24" stroke-width="2" stroke="currentColor" fill="none" stroke-linecap="round" stroke-linejoin="round"><path stroke="none" d="M0 0h24v24H0z" fill="none"/><path d="M5.636 19.364a9 9 0 1 1 12.728 0" /><path d="M16 9l-4 4" />
</symbol>
	<symbol id="brand-vlc" class="icon icon-tabler icon-tabler-brand-vlc" viewBox="0 0 24 24" stroke-width="2" stroke="currentColor" fill="none" stroke-linecap="round" stroke-linejoin="round"><path stroke="none" d="M0 0h24v24H0z" fill="none"/><path d="M13.79 4.337l3.101 9.305c.33 .985 -.113 2.07 -1.02 2.499a9.148 9.148 0 0 1 -7.742 0c-.907 -.428 -1.35 -1.514 -1.02 -2.499l3.1 -9.305c.267 -.8 .985 -1.337 1.791 -1.337c.807 0 1.525 .537 1.79 1.337z" /><path d="M7 14h-1.429a2 2 0 0 0 -1.923 1.45l-.571 2a2 2 0 0 0 1.923 2.55h13.998a2 2 0 0 0 1.923 -2.55l-.572 -2a2 2 0 0 0 -1.923 -1.45h-1.426" />
</symbol>
	<symbol id="brand-wikipedia" class="icon icon-tabler icon-tabler-brand-wikipedia" viewBox="0 0 24 24" stroke-width="2" stroke="currentColor" fill="none" stroke-linecap="round" stroke-linejoin="round"><path stroke="none" d="M0 0h24v24H0z" fill="none"/><path d="M3 4.984h2" /><path d="M8 4.984h2.5" /><path d="M14.5 4.984h2.5" /><path d="M22 4.984h-2" /><path d="M4 4.984l5.455 14.516l6.545 -14.516" /><path d="M9 4.984l6 14.516l6 -14.516" />
</symbol>
	<symbol id="brand-xamarin" class="icon icon-tabler icon-tabler-brand-xamarin" viewBox="0 0 24 24" stroke-width="2" stroke="currentColor" fill="none" stroke-linecap="round" stroke-linejoin="round"><path stroke="none" d="M0 0h24v24H0z" fill="none"/><path d="M15.958 21h-7.917a2 2 0 0 1 -1.732 -1l-4.041 -7a2 2 0 0 1 0 -2l4.041 -7a2 2 0 0 1 1.732 -1h7.917a2 2 0 0 1 1.732 1l4.042 7a2 2 0 0 1 0 2l-4.041 7a2 2 0 0 1 -1.733 1z" /><path d="M15 16l-6 -8" /><path d="M9 16l6 -8" />
</symbol>
	<symbol id="hdr" class="icon icon-tabler icon-tabler-hdr" viewBox="0 0 24 24" stroke-width="2" stroke="currentColor" fill="none" stroke-linecap="round" stroke-linejoin="round"><path stroke="none" d="M0 0h24v24H0z" fill="none"/><path d="M3 16v-8" /><path d="M7 8v8" /><path d="M3 12h4" /><path d="M10 8v8h2a2 2 0 0 0 2 -2v-4a2 2 0 0 0 -2 -2h-2z" /><path d="M17 12h2a2 2 0 1 0 0 -4h-2v8m4 0l-3 -4" />
</symbol>
	<symbol id="ironing" class="icon icon-tabler icon-tabler-ironing" viewBox="0 0 24 24" stroke-width="2" stroke="currentColor" fill="none" stroke-linecap="round" stroke-linejoin="round"><path stroke="none" d="M0 0h24v24H0z" fill="none"/><path d="M9 6h7.459a3 3 0 0 1 2.959 2.507l.577 3.464l.81 4.865a1 1 0 0 1 -.985 1.164h-16.82a7 7 0 0 1 7 -7h9.8" />
</symbol>
	<symbol id="layout-grid-remove" class="icon icon-tabler icon-tabler-layout-grid-remove" viewBox="0 0 24 24" stroke-width="2" stroke="currentColor" fill="none" stroke-linecap="round" stroke-linejoin="round"><path stroke="none" d="M0 0h24v24H0z" fill="none"/><path d="M4 5a1 1 0 0 1 1 -1h4a1 1 0 0 1 1 1v4a1 1 0 0 1 -1 1h-4a1 1 0 0 1 -1 -1v-4z" /><path d="M14 5a1 1 0 0 1 1 -1h4a1 1 0 0 1 1 1v4a1 1 0 0 1 -1 1h-4a1 1 0 0 1 -1 -1v-4z" /><path d="M4 15a1 1 0 0 1 1 -1h4a1 1 0 0 1 1 1v4a1 1 0 0 1 -1 1h-4a1 1 0 0 1 -1 -1v-4z" /><path d="M14 17h6" />
</symbol>
	<symbol id="logout-2" class="icon icon-tabler icon-tabler-logout-2" viewBox="0 0 24 24" stroke-width="2" stroke="currentColor" fill="none" stroke-linecap="round" stroke-linejoin="round"><path stroke="none" d="M0 0h24v24H0z" fill="none"/><path d="M10 8v-2a2 2 0 0 1 2 -2h7a2 2 0 0 1 2 2v12a2 2 0 0 1 -2 2h-7a2 2 0 0 1 -2 -2v-2" /><path d="M15 12h-12l3 -3" /><path d="M6 15l-3 -3" />
</symbol>
	<symbol id="wash-dry-flat" class="icon icon-tabler icon-tabler-wash-dry-flat" viewBox="0 0 24 24" stroke-width="2" stroke="currentColor" fill="none" stroke-linecap="round" stroke-linejoin="round"><path stroke="none" d="M0 0h24v24H0z" fill="none"/><path d="M3 6a3 3 0 0 1 3 -3h12a3 3 0 0 1 3 3v12a3 3 0 0 1 -3 3h-12a3 3 0 0 1 -3 -3v-12z" /><path d="M7 12h10" />
</symbol>
	<symbol id="wash-eco" class="icon icon-tabler icon-tabler-wash-eco" viewBox="0 0 24 24" stroke-width="2" stroke="currentColor" fill="none" stroke-linecap="round" stroke-linejoin="round"><path stroke="none" d="M0 0h24v24H0z" fill="none"/><path d="M3 6l1.721 10.329a2 2 0 0 0 1.973 1.671h5.306m8.162 -6.972l.838 -5.028" /><path d="M3.486 8.965c.168 .02 .34 .033 .514 .035c.79 .009 1.539 -.178 2 -.5c.461 -.32 1.21 -.507 2 -.5c.79 -.007 1.539 .18 2 .5c.461 .322 1.21 .509 2 .5c.79 .009 1.539 -.178 2 -.5c.461 -.32 1.21 -.507 2 -.5c.79 -.007 1.539 .18 2 .5c.461 .322 1.21 .509 2 .5c.17 0 .339 -.014 .503 -.034" /><path d="M16 22s0 -2 3 -4" /><path d="M19 21a3 3 0 0 1 0 -6h3v3a3 3 0 0 1 -3 3z" />
</symbol>
	<symbol id="wash-hand" class="icon icon-tabler icon-tabler-wash-hand" viewBox="0 0 24 24" stroke-width="2" stroke="currentColor" fill="none" stroke-linecap="round" stroke-linejoin="round"><path stroke="none" d="M0 0h24v24H0z" fill="none"/><path d="M3.486 9.965c.168 .02 .34 .033 .514 .035c.79 .009 1.539 -.178 2 -.5c.426 -.296 .777 -.5 1.5 -.5" /><path d="M16.615 9.034c.552 .067 1.046 .23 1.385 .466c.461 .322 1.21 .509 2 .5c.17 0 .339 -.014 .503 -.034" /><path d="M14 8.5l.586 .578a1.516 1.516 0 0 0 2 0c.476 -.433 .55 -1.112 .176 -1.622l-1.762 -2.456c-.37 -.506 -1.331 -1 -2 -1h-3.117a1 1 0 0 0 -.992 .876l-.499 3.986a3.857 3.857 0 0 0 2.608 4.138a2.28 2.28 0 0 0 3 -2.162v-2.338z" /><path d="M3 7l1.721 10.329a2 2 0 0 0 1.973 1.671h10.612a2 2 0 0 0 1.973 -1.671l1.721 -10.329" />
</symbol>

	<use xlink:href="#brand-ansible" x="24" y="24" width="24" height="24" />
	<use xlink:href="#brand-cinema-4d" x="68" y="24" width="24" height="24" />
	<use xlink:href="#brand-craft" x="112" y="24" width="24" height="24" />
	<use xlink:href="#brand-digg" x="156" y="24" width="24" height="24" />
	<use xlink:href="#brand-electronic-arts" x="200" y="24" width="24" height="24" />
	<use xlink:href="#brand-feedly" x="244" y="24" width="24" height="24" />
	<use xlink:href="#brand-filezilla" x="24" y="68" width="24" height="24" />
	<use xlink:href="#brand-speedtest" x="68" y="68" width="24" height="24" />
	<use xlink:href="#brand-vlc" x="112" y="68" width="24" height="24" />
	<use xlink:href="#brand-wikipedia" x="156" y="68" width="24" height="24" />
	<use xlink:href="#brand-xamarin" x="200" y="68" width="24" height="24" />
	<use xlink:href="#hdr" x="244" y="68" width="24" height="24" />
	<use xlink:href="#ironing" x="24" y="112" width="24" height="24" />
	<use xlink:href="#layout-grid-remove" x="68" y="112" width="24" height="24" />
	<use xlink:href="#logout-2" x="112" y="112" width="24" height="24" />
	<use xlink:href="#wash-dry-flat" x="156" y="112" width="24" height="24" />
	<use xlink:href="#wash-eco" x="200" y="112" width="24" height="24" />
	<use xlink:href="#wash-hand" x="244" y="112" width="24" height="24" />

</svg>