<svg xmlns="http://www.w3.org/2000/svg" xmlns:xlink="http://www.w3.org/1999/xlink" viewBox="0 0 292 160" width="292" height="160" style="color: #354052"><rect x="0" y="0" width="292" height="160" fill="#fff"></rect>
	<symbol id="confucius" class="icon icon-tabler icon-tabler-confucius" viewBox="0 0 24 24" stroke-width="2" stroke="currentColor" fill="none" stroke-linecap="round" stroke-linejoin="round"><path stroke="none" d="M0 0h24v24H0z" fill="none"/><path d="M9 19l3 2v-18" /><path d="M4 10l8 -2" /><path d="M4 18l8 -10" /><path d="M20 18l-8 -8l8 -4" />
</symbol>
	<symbol id="fish-christianity" class="icon icon-tabler icon-tabler-fish-christianity" viewBox="0 0 24 24" stroke-width="2" stroke="currentColor" fill="none" stroke-linecap="round" stroke-linejoin="round"><path stroke="none" d="M0 0h24v24H0z" fill="none"/><path d="M22 7s-5.646 10 -12.308 10c-3.226 .025 -6.194 -1.905 -7.692 -5c1.498 -3.095 4.466 -5.025 7.692 -5c6.662 0 12.308 10 12.308 10" />
</symbol>
	<symbol id="menorah" class="icon icon-tabler icon-tabler-menorah" viewBox="0 0 24 24" stroke-width="2" stroke="currentColor" fill="none" stroke-linecap="round" stroke-linejoin="round"><path stroke="none" d="M0 0h24v24H0z" fill="none"/><path d="M12 4v16" /><path d="M8 4v2a4 4 0 1 0 8 0v-2" /><path d="M4 4v2a8 8 0 1 0 16 0v-2" /><path d="M10 20h4" />
</symbol>
	<symbol id="om" class="icon icon-tabler icon-tabler-om" viewBox="0 0 24 24" stroke-width="2" stroke="currentColor" fill="none" stroke-linecap="round" stroke-linejoin="round"><path stroke="none" d="M0 0h24v24H0z" fill="none"/><path d="M7 12c2.21 0 4 -1.567 4 -3.5s-1.79 -3.5 -4 -3.5c-1.594 0 -2.97 .816 -3.613 1.996" /><path d="M3.423 14.483a4.944 4.944 0 0 0 -.423 2.017c0 2.485 1.79 4.5 4 4.5s4 -2.015 4 -4.5s-1.79 -4.5 -4 -4.5" /><path d="M14.071 17.01c.327 2.277 1.739 3.99 3.429 3.99c1.933 0 3.5 -2.239 3.5 -5s-1.567 -5 -3.5 -5c-.96 0 -1.868 .606 -2.5 1.5c-.717 1.049 -1.76 1.7 -2.936 1.7c-.92 0 -1.766 -.406 -2.434 -1.087" /><path d="M17 3l2 2" /><path d="M12 3c1.667 3.667 4.667 5.333 9 5" />
</symbol>
	<symbol id="ribbon-health" class="icon icon-tabler icon-tabler-ribbon-health" viewBox="0 0 24 24" stroke-width="2" stroke="currentColor" fill="none" stroke-linecap="round" stroke-linejoin="round"><path stroke="none" d="M0 0h24v24H0z" fill="none"/><path d="M7 21s9.286 -9.841 9.286 -13.841a3.864 3.864 0 0 0 -1.182 -3.008a4.13 4.13 0 0 0 -3.104 -1.144a4.13 4.13 0 0 0 -3.104 1.143a3.864 3.864 0 0 0 -1.182 3.01c0 3.999 9.286 13.84 9.286 13.84" />
</symbol>
	<symbol id="rosette-number-0" class="icon icon-tabler icon-tabler-rosette-number-0" viewBox="0 0 24 24" stroke-width="2" stroke="currentColor" fill="none" stroke-linecap="round" stroke-linejoin="round"><path stroke="none" d="M0 0h24v24H0z" fill="none"/><path d="M10 10v4a2 2 0 1 0 4 0v-4a2 2 0 1 0 -4 0z" /><path d="M5 7.2a2.2 2.2 0 0 1 2.2 -2.2h1a2.2 2.2 0 0 0 1.55 -.64l.7 -.7a2.2 2.2 0 0 1 3.12 0l.7 .7c.412 .41 .97 .64 1.55 .64h1a2.2 2.2 0 0 1 2.2 2.2v1c0 .58 .23 1.138 .64 1.55l.7 .7a2.2 2.2 0 0 1 0 3.12l-.7 .7a2.2 2.2 0 0 0 -.64 1.55v1a2.2 2.2 0 0 1 -2.2 2.2h-1a2.2 2.2 0 0 0 -1.55 .64l-.7 .7a2.2 2.2 0 0 1 -3.12 0l-.7 -.7a2.2 2.2 0 0 0 -1.55 -.64h-1a2.2 2.2 0 0 1 -2.2 -2.2v-1a2.2 2.2 0 0 0 -.64 -1.55l-.7 -.7a2.2 2.2 0 0 1 0 -3.12l.7 -.7a2.2 2.2 0 0 0 .64 -1.55v-1" />
</symbol>
	<symbol id="rosette-number-1" class="icon icon-tabler icon-tabler-rosette-number-1" viewBox="0 0 24 24" stroke-width="2" stroke="currentColor" fill="none" stroke-linecap="round" stroke-linejoin="round"><path stroke="none" d="M0 0h24v24H0z" fill="none"/><path d="M10 10l2 -2v8" /><path d="M5 7.2a2.2 2.2 0 0 1 2.2 -2.2h1a2.2 2.2 0 0 0 1.55 -.64l.7 -.7a2.2 2.2 0 0 1 3.12 0l.7 .7c.412 .41 .97 .64 1.55 .64h1a2.2 2.2 0 0 1 2.2 2.2v1c0 .58 .23 1.138 .64 1.55l.7 .7a2.2 2.2 0 0 1 0 3.12l-.7 .7a2.2 2.2 0 0 0 -.64 1.55v1a2.2 2.2 0 0 1 -2.2 2.2h-1a2.2 2.2 0 0 0 -1.55 .64l-.7 .7a2.2 2.2 0 0 1 -3.12 0l-.7 -.7a2.2 2.2 0 0 0 -1.55 -.64h-1a2.2 2.2 0 0 1 -2.2 -2.2v-1a2.2 2.2 0 0 0 -.64 -1.55l-.7 -.7a2.2 2.2 0 0 1 0 -3.12l.7 -.7a2.2 2.2 0 0 0 .64 -1.55v-1" />
</symbol>
	<symbol id="rosette-number-2" class="icon icon-tabler icon-tabler-rosette-number-2" viewBox="0 0 24 24" stroke-width="2" stroke="currentColor" fill="none" stroke-linecap="round" stroke-linejoin="round"><path stroke="none" d="M0 0h24v24H0z" fill="none"/><path d="M10 8h3a1 1 0 0 1 1 1v2a1 1 0 0 1 -1 1h-2a1 1 0 0 0 -1 1v2a1 1 0 0 0 1 1h3" /><path d="M5 7.2a2.2 2.2 0 0 1 2.2 -2.2h1a2.2 2.2 0 0 0 1.55 -.64l.7 -.7a2.2 2.2 0 0 1 3.12 0l.7 .7c.412 .41 .97 .64 1.55 .64h1a2.2 2.2 0 0 1 2.2 2.2v1c0 .58 .23 1.138 .64 1.55l.7 .7a2.2 2.2 0 0 1 0 3.12l-.7 .7a2.2 2.2 0 0 0 -.64 1.55v1a2.2 2.2 0 0 1 -2.2 2.2h-1a2.2 2.2 0 0 0 -1.55 .64l-.7 .7a2.2 2.2 0 0 1 -3.12 0l-.7 -.7a2.2 2.2 0 0 0 -1.55 -.64h-1a2.2 2.2 0 0 1 -2.2 -2.2v-1a2.2 2.2 0 0 0 -.64 -1.55l-.7 -.7a2.2 2.2 0 0 1 0 -3.12l.7 -.7a2.2 2.2 0 0 0 .64 -1.55v-1" />
</symbol>
	<symbol id="rosette-number-3" class="icon icon-tabler icon-tabler-rosette-number-3" viewBox="0 0 24 24" stroke-width="2" stroke="currentColor" fill="none" stroke-linecap="round" stroke-linejoin="round"><path stroke="none" d="M0 0h24v24H0z" fill="none"/><path d="M10 9a1 1 0 0 1 1 -1h2a1 1 0 0 1 1 1v2a1 1 0 0 1 -1 1h-2h2a1 1 0 0 1 1 1v2a1 1 0 0 1 -1 1h-2a1 1 0 0 1 -1 -1" /><path d="M5 7.2a2.2 2.2 0 0 1 2.2 -2.2h1a2.2 2.2 0 0 0 1.55 -.64l.7 -.7a2.2 2.2 0 0 1 3.12 0l.7 .7c.412 .41 .97 .64 1.55 .64h1a2.2 2.2 0 0 1 2.2 2.2v1c0 .58 .23 1.138 .64 1.55l.7 .7a2.2 2.2 0 0 1 0 3.12l-.7 .7a2.2 2.2 0 0 0 -.64 1.55v1a2.2 2.2 0 0 1 -2.2 2.2h-1a2.2 2.2 0 0 0 -1.55 .64l-.7 .7a2.2 2.2 0 0 1 -3.12 0l-.7 -.7a2.2 2.2 0 0 0 -1.55 -.64h-1a2.2 2.2 0 0 1 -2.2 -2.2v-1a2.2 2.2 0 0 0 -.64 -1.55l-.7 -.7a2.2 2.2 0 0 1 0 -3.12l.7 -.7a2.2 2.2 0 0 0 .64 -1.55v-1" />
</symbol>
	<symbol id="rosette-number-4" class="icon icon-tabler icon-tabler-rosette-number-4" viewBox="0 0 24 24" stroke-width="2" stroke="currentColor" fill="none" stroke-linecap="round" stroke-linejoin="round"><path stroke="none" d="M0 0h24v24H0z" fill="none"/><path d="M10 8v3a1 1 0 0 0 1 1h3" /><path d="M14 8v8" /><path d="M5 7.2a2.2 2.2 0 0 1 2.2 -2.2h1a2.2 2.2 0 0 0 1.55 -.64l.7 -.7a2.2 2.2 0 0 1 3.12 0l.7 .7c.412 .41 .97 .64 1.55 .64h1a2.2 2.2 0 0 1 2.2 2.2v1c0 .58 .23 1.138 .64 1.55l.7 .7a2.2 2.2 0 0 1 0 3.12l-.7 .7a2.2 2.2 0 0 0 -.64 1.55v1a2.2 2.2 0 0 1 -2.2 2.2h-1a2.2 2.2 0 0 0 -1.55 .64l-.7 .7a2.2 2.2 0 0 1 -3.12 0l-.7 -.7a2.2 2.2 0 0 0 -1.55 -.64h-1a2.2 2.2 0 0 1 -2.2 -2.2v-1a2.2 2.2 0 0 0 -.64 -1.55l-.7 -.7a2.2 2.2 0 0 1 0 -3.12l.7 -.7a2.2 2.2 0 0 0 .64 -1.55v-1" />
</symbol>
	<symbol id="rosette-number-5" class="icon icon-tabler icon-tabler-rosette-number-5" viewBox="0 0 24 24" stroke-width="2" stroke="currentColor" fill="none" stroke-linecap="round" stroke-linejoin="round"><path stroke="none" d="M0 0h24v24H0z" fill="none"/><path d="M10 15a1 1 0 0 0 1 1h2a1 1 0 0 0 1 -1v-2a1 1 0 0 0 -1 -1h-3v-4h4" /><path d="M5 7.2a2.2 2.2 0 0 1 2.2 -2.2h1a2.2 2.2 0 0 0 1.55 -.64l.7 -.7a2.2 2.2 0 0 1 3.12 0l.7 .7c.412 .41 .97 .64 1.55 .64h1a2.2 2.2 0 0 1 2.2 2.2v1c0 .58 .23 1.138 .64 1.55l.7 .7a2.2 2.2 0 0 1 0 3.12l-.7 .7a2.2 2.2 0 0 0 -.64 1.55v1a2.2 2.2 0 0 1 -2.2 2.2h-1a2.2 2.2 0 0 0 -1.55 .64l-.7 .7a2.2 2.2 0 0 1 -3.12 0l-.7 -.7a2.2 2.2 0 0 0 -1.55 -.64h-1a2.2 2.2 0 0 1 -2.2 -2.2v-1a2.2 2.2 0 0 0 -.64 -1.55l-.7 -.7a2.2 2.2 0 0 1 0 -3.12l.7 -.7a2.2 2.2 0 0 0 .64 -1.55v-1" />
</symbol>
	<symbol id="rosette-number-6" class="icon icon-tabler icon-tabler-rosette-number-6" viewBox="0 0 24 24" stroke-width="2" stroke="currentColor" fill="none" stroke-linecap="round" stroke-linejoin="round"><path stroke="none" d="M0 0h24v24H0z" fill="none"/><path d="M14 9a1 1 0 0 0 -1 -1h-2a1 1 0 0 0 -1 1v6a1 1 0 0 0 1 1h2a1 1 0 0 0 1 -1v-2a1 1 0 0 0 -1 -1h-3" /><path d="M5 7.2a2.2 2.2 0 0 1 2.2 -2.2h1a2.2 2.2 0 0 0 1.55 -.64l.7 -.7a2.2 2.2 0 0 1 3.12 0l.7 .7c.412 .41 .97 .64 1.55 .64h1a2.2 2.2 0 0 1 2.2 2.2v1c0 .58 .23 1.138 .64 1.55l.7 .7a2.2 2.2 0 0 1 0 3.12l-.7 .7a2.2 2.2 0 0 0 -.64 1.55v1a2.2 2.2 0 0 1 -2.2 2.2h-1a2.2 2.2 0 0 0 -1.55 .64l-.7 .7a2.2 2.2 0 0 1 -3.12 0l-.7 -.7a2.2 2.2 0 0 0 -1.55 -.64h-1a2.2 2.2 0 0 1 -2.2 -2.2v-1a2.2 2.2 0 0 0 -.64 -1.55l-.7 -.7a2.2 2.2 0 0 1 0 -3.12l.7 -.7a2.2 2.2 0 0 0 .64 -1.55v-1" />
</symbol>
	<symbol id="rosette-number-7" class="icon icon-tabler icon-tabler-rosette-number-7" viewBox="0 0 24 24" stroke-width="2" stroke="currentColor" fill="none" stroke-linecap="round" stroke-linejoin="round"><path stroke="none" d="M0 0h24v24H0z" fill="none"/><path d="M10 8h4l-2 8" /><path d="M5 7.2a2.2 2.2 0 0 1 2.2 -2.2h1a2.2 2.2 0 0 0 1.55 -.64l.7 -.7a2.2 2.2 0 0 1 3.12 0l.7 .7c.412 .41 .97 .64 1.55 .64h1a2.2 2.2 0 0 1 2.2 2.2v1c0 .58 .23 1.138 .64 1.55l.7 .7a2.2 2.2 0 0 1 0 3.12l-.7 .7a2.2 2.2 0 0 0 -.64 1.55v1a2.2 2.2 0 0 1 -2.2 2.2h-1a2.2 2.2 0 0 0 -1.55 .64l-.7 .7a2.2 2.2 0 0 1 -3.12 0l-.7 -.7a2.2 2.2 0 0 0 -1.55 -.64h-1a2.2 2.2 0 0 1 -2.2 -2.2v-1a2.2 2.2 0 0 0 -.64 -1.55l-.7 -.7a2.2 2.2 0 0 1 0 -3.12l.7 -.7a2.2 2.2 0 0 0 .64 -1.55v-1" />
</symbol>
	<symbol id="rosette-number-8" class="icon icon-tabler icon-tabler-rosette-number-8" viewBox="0 0 24 24" stroke-width="2" stroke="currentColor" fill="none" stroke-linecap="round" stroke-linejoin="round"><path stroke="none" d="M0 0h24v24H0z" fill="none"/><path d="M12 12h-1a1 1 0 0 1 -1 -1v-2a1 1 0 0 1 1 -1h2a1 1 0 0 1 1 1v2a1 1 0 0 1 -1 1h-2a1 1 0 0 0 -1 1v2a1 1 0 0 0 1 1h2a1 1 0 0 0 1 -1v-2a1 1 0 0 0 -1 -1" /><path d="M5 7.2a2.2 2.2 0 0 1 2.2 -2.2h1a2.2 2.2 0 0 0 1.55 -.64l.7 -.7a2.2 2.2 0 0 1 3.12 0l.7 .7c.412 .41 .97 .64 1.55 .64h1a2.2 2.2 0 0 1 2.2 2.2v1c0 .58 .23 1.138 .64 1.55l.7 .7a2.2 2.2 0 0 1 0 3.12l-.7 .7a2.2 2.2 0 0 0 -.64 1.55v1a2.2 2.2 0 0 1 -2.2 2.2h-1a2.2 2.2 0 0 0 -1.55 .64l-.7 .7a2.2 2.2 0 0 1 -3.12 0l-.7 -.7a2.2 2.2 0 0 0 -1.55 -.64h-1a2.2 2.2 0 0 1 -2.2 -2.2v-1a2.2 2.2 0 0 0 -.64 -1.55l-.7 -.7a2.2 2.2 0 0 1 0 -3.12l.7 -.7a2.2 2.2 0 0 0 .64 -1.55v-1" />
</symbol>
	<symbol id="rosette-number-9" class="icon icon-tabler icon-tabler-rosette-number-9" viewBox="0 0 24 24" stroke-width="2" stroke="currentColor" fill="none" stroke-linecap="round" stroke-linejoin="round"><path stroke="none" d="M0 0h24v24H0z" fill="none"/><path d="M10 15a1 1 0 0 0 1 1h2a1 1 0 0 0 1 -1v-6a1 1 0 0 0 -1 -1h-2a1 1 0 0 0 -1 1v2a1 1 0 0 0 1 1h3" /><path d="M5 7.2a2.2 2.2 0 0 1 2.2 -2.2h1a2.2 2.2 0 0 0 1.55 -.64l.7 -.7a2.2 2.2 0 0 1 3.12 0l.7 .7c.412 .41 .97 .64 1.55 .64h1a2.2 2.2 0 0 1 2.2 2.2v1c0 .58 .23 1.138 .64 1.55l.7 .7a2.2 2.2 0 0 1 0 3.12l-.7 .7a2.2 2.2 0 0 0 -.64 1.55v1a2.2 2.2 0 0 1 -2.2 2.2h-1a2.2 2.2 0 0 0 -1.55 .64l-.7 .7a2.2 2.2 0 0 1 -3.12 0l-.7 -.7a2.2 2.2 0 0 0 -1.55 -.64h-1a2.2 2.2 0 0 1 -2.2 -2.2v-1a2.2 2.2 0 0 0 -.64 -1.55l-.7 -.7a2.2 2.2 0 0 1 0 -3.12l.7 -.7a2.2 2.2 0 0 0 .64 -1.55v-1" />
</symbol>
	<symbol id="rosette" class="icon icon-tabler icon-tabler-rosette" viewBox="0 0 24 24" stroke-width="2" stroke="currentColor" fill="none" stroke-linecap="round" stroke-linejoin="round"><path stroke="none" d="M0 0h24v24H0z" fill="none"/><path d="M5 7.2a2.2 2.2 0 0 1 2.2 -2.2h1a2.2 2.2 0 0 0 1.55 -.64l.7 -.7a2.2 2.2 0 0 1 3.12 0l.7 .7c.412 .41 .97 .64 1.55 .64h1a2.2 2.2 0 0 1 2.2 2.2v1c0 .58 .23 1.138 .64 1.55l.7 .7a2.2 2.2 0 0 1 0 3.12l-.7 .7a2.2 2.2 0 0 0 -.64 1.55v1a2.2 2.2 0 0 1 -2.2 2.2h-1a2.2 2.2 0 0 0 -1.55 .64l-.7 .7a2.2 2.2 0 0 1 -3.12 0l-.7 -.7a2.2 2.2 0 0 0 -1.55 -.64h-1a2.2 2.2 0 0 1 -2.2 -2.2v-1a2.2 2.2 0 0 0 -.64 -1.55l-.7 -.7a2.2 2.2 0 0 1 0 -3.12l.7 -.7a2.2 2.2 0 0 0 .64 -1.55v-1" />
</symbol>
	<symbol id="square-rounded" class="icon icon-tabler icon-tabler-square-rounded" viewBox="0 0 24 24" stroke-width="2" stroke="currentColor" fill="none" stroke-linecap="round" stroke-linejoin="round"><path stroke="none" d="M0 0h24v24H0z" fill="none"/><path d="M12 3c7.2 0 9 1.8 9 9s-1.8 9 -9 9s-9 -1.8 -9 -9s1.8 -9 9 -9z" />
</symbol>
	<symbol id="torii" class="icon icon-tabler icon-tabler-torii" viewBox="0 0 24 24" stroke-width="2" stroke="currentColor" fill="none" stroke-linecap="round" stroke-linejoin="round"><path stroke="none" d="M0 0h24v24H0z" fill="none"/><path d="M4 4c5.333 1.333 10.667 1.333 16 0" /><path d="M4 8h16" /><path d="M12 5v3" /><path d="M18 4.5v15.5" /><path d="M6 4.5v15.5" />
</symbol>

	<use xlink:href="#confucius" x="24" y="24" width="24" height="24" />
	<use xlink:href="#fish-christianity" x="68" y="24" width="24" height="24" />
	<use xlink:href="#menorah" x="112" y="24" width="24" height="24" />
	<use xlink:href="#om" x="156" y="24" width="24" height="24" />
	<use xlink:href="#ribbon-health" x="200" y="24" width="24" height="24" />
	<use xlink:href="#rosette-number-0" x="244" y="24" width="24" height="24" />
	<use xlink:href="#rosette-number-1" x="24" y="68" width="24" height="24" />
	<use xlink:href="#rosette-number-2" x="68" y="68" width="24" height="24" />
	<use xlink:href="#rosette-number-3" x="112" y="68" width="24" height="24" />
	<use xlink:href="#rosette-number-4" x="156" y="68" width="24" height="24" />
	<use xlink:href="#rosette-number-5" x="200" y="68" width="24" height="24" />
	<use xlink:href="#rosette-number-6" x="244" y="68" width="24" height="24" />
	<use xlink:href="#rosette-number-7" x="24" y="112" width="24" height="24" />
	<use xlink:href="#rosette-number-8" x="68" y="112" width="24" height="24" />
	<use xlink:href="#rosette-number-9" x="112" y="112" width="24" height="24" />
	<use xlink:href="#rosette" x="156" y="112" width="24" height="24" />
	<use xlink:href="#square-rounded" x="200" y="112" width="24" height="24" />
	<use xlink:href="#torii" x="244" y="112" width="24" height="24" />

</svg>