<svg xmlns="http://www.w3.org/2000/svg" xmlns:xlink="http://www.w3.org/1999/xlink" viewBox="0 0 292 160" width="292" height="160" style="color: #354052"><rect x="0" y="0" width="292" height="160" fill="#fff"></rect>
	<symbol id="alert-circle-off" class="icon icon-tabler icon-tabler-alert-circle-off" viewBox="0 0 24 24" stroke-width="2" stroke="currentColor" fill="none" stroke-linecap="round" stroke-linejoin="round"><path stroke="none" d="M0 0h24v24H0z" fill="none"/><path d="M5.644 5.629a9 9 0 1 0 12.715 12.741m1.693 -2.349a9 9 0 0 0 -12.087 -12.068" /><path d="M12 7v1" /><path d="M12 16h.01" /><path d="M3 3l18 18" />
</symbol>
	<symbol id="alert-hexagon-off" class="icon icon-tabler icon-tabler-alert-hexagon-off" viewBox="0 0 24 24" stroke-width="2" stroke="currentColor" fill="none" stroke-linecap="round" stroke-linejoin="round"><path stroke="none" d="M0 0h24v24H0z" fill="none"/><path d="M18.36 18.387l-5.268 3.333a2.269 2.269 0 0 1 -2.184 0l-6.75 -4.27a2.225 2.225 0 0 1 -1.158 -1.948v-7.285c0 -.809 .443 -1.554 1.158 -1.947l1.317 -.777m2.535 -1.493l2.898 -1.709a2.33 2.33 0 0 1 2.25 0l6.75 3.98h-.033c.7 .398 1.13 1.143 1.125 1.948v7.284c0 .414 -.116 .812 -.326 1.155" /><path d="M12 7v1" /><path d="M12 8v.01" /><path d="M3 3l18 18" /><path d="M12 16h.01" />
</symbol>
	<symbol id="alert-small-off" class="icon icon-tabler icon-tabler-alert-small-off" viewBox="0 0 24 24" stroke-width="2" stroke="currentColor" fill="none" stroke-linecap="round" stroke-linejoin="round"><path stroke="none" d="M0 0h24v24H0z" fill="none"/><path d="M12 16h.01" /><path d="M12 7v1" /><path d="M3 3l18 18" />
</symbol>
	<symbol id="alert-square-rounded-off" class="icon icon-tabler icon-tabler-alert-square-rounded-off" viewBox="0 0 24 24" stroke-width="2" stroke="currentColor" fill="none" stroke-linecap="round" stroke-linejoin="round"><path stroke="none" d="M0 0h24v24H0z" fill="none"/><path d="M19.201 19.199c-1.35 1.35 -3.6 1.801 -7.201 1.801c-7.2 0 -9 -1.8 -9 -9c0 -3.598 .45 -5.847 1.797 -7.197m2.626 -1.376c1.204 -.307 2.709 -.427 4.577 -.427c7.2 0 9 1.8 9 9c0 1.865 -.12 3.367 -.425 4.57" /><path d="M12 7v1" /><path d="M12 16h.01" /><path d="M3 3l18 18" />
</symbol>
	<symbol id="alert-triangle-off" class="icon icon-tabler icon-tabler-alert-triangle-off" viewBox="0 0 24 24" stroke-width="2" stroke="currentColor" fill="none" stroke-linecap="round" stroke-linejoin="round"><path stroke="none" d="M0 0h24v24H0z" fill="none"/><path d="M21.998 17.997a1.913 1.913 0 0 0 -.255 -.872l-8.106 -13.534a1.914 1.914 0 0 0 -3.274 0l-1.04 1.736m-1.493 2.493l-5.573 9.304a1.914 1.914 0 0 0 1.636 2.871h16.107" /><path d="M12 16h.01" /><path d="M3 3l18 18" /><path d="M12 7v1" />
</symbol>
	<symbol id="brand-meetup" class="icon icon-tabler icon-tabler-brand-meetup" viewBox="0 0 24 24" stroke-width="2" stroke="currentColor" fill="none" stroke-linecap="round" stroke-linejoin="round"><path stroke="none" d="M0 0h24v24H0z" fill="none"/><path d="M5.455 10.82c.935 -2.163 3.045 -3.82 5.545 -3.82c2.104 0 2.844 1.915 2 4l-2 6" /><path d="M6.981 7l-3.981 9.914" /><path d="M13 11c.937 -2.16 3.071 -3.802 5.42 -3.972c2.104 0 3.128 1.706 2.284 3.792l-2.454 6.094c-.853 1.676 .75 2.586 2.75 2.086" />
</symbol>
	<symbol id="circle-dashed-number-0" class="icon icon-tabler icon-tabler-circle-dashed-number-0" viewBox="0 0 24 24" stroke-width="2" stroke="currentColor" fill="none" stroke-linecap="round" stroke-linejoin="round"><path stroke="none" d="M0 0h24v24H0z" fill="none"/><path d="M8.56 3.69a9 9 0 0 0 -2.92 1.95" /><path d="M3.69 8.56a9 9 0 0 0 -.69 3.44" /><path d="M3.69 15.44a9 9 0 0 0 1.95 2.92" /><path d="M8.56 20.31a9 9 0 0 0 3.44 .69" /><path d="M15.44 20.31a9 9 0 0 0 2.92 -1.95" /><path d="M20.31 15.44a9 9 0 0 0 .69 -3.44" /><path d="M20.31 8.56a9 9 0 0 0 -1.95 -2.92" /><path d="M15.44 3.69a9 9 0 0 0 -3.44 -.69" /><path d="M10 10v4a2 2 0 1 0 4 0v-4a2 2 0 1 0 -4 0z" />
</symbol>
	<symbol id="circle-dashed-number-1" class="icon icon-tabler icon-tabler-circle-dashed-number-1" viewBox="0 0 24 24" stroke-width="2" stroke="currentColor" fill="none" stroke-linecap="round" stroke-linejoin="round"><path stroke="none" d="M0 0h24v24H0z" fill="none"/><path d="M8.56 3.69a9 9 0 0 0 -2.92 1.95" /><path d="M3.69 8.56a9 9 0 0 0 -.69 3.44" /><path d="M3.69 15.44a9 9 0 0 0 1.95 2.92" /><path d="M8.56 20.31a9 9 0 0 0 3.44 .69" /><path d="M15.44 20.31a9 9 0 0 0 2.92 -1.95" /><path d="M20.31 15.44a9 9 0 0 0 .69 -3.44" /><path d="M20.31 8.56a9 9 0 0 0 -1.95 -2.92" /><path d="M15.44 3.69a9 9 0 0 0 -3.44 -.69" /><path d="M10 10l2 -2v8" />
</symbol>
	<symbol id="circle-dashed-number-2" class="icon icon-tabler icon-tabler-circle-dashed-number-2" viewBox="0 0 24 24" stroke-width="2" stroke="currentColor" fill="none" stroke-linecap="round" stroke-linejoin="round"><path stroke="none" d="M0 0h24v24H0z" fill="none"/><path d="M8.56 3.69a9 9 0 0 0 -2.92 1.95" /><path d="M3.69 8.56a9 9 0 0 0 -.69 3.44" /><path d="M3.69 15.44a9 9 0 0 0 1.95 2.92" /><path d="M8.56 20.31a9 9 0 0 0 3.44 .69" /><path d="M15.44 20.31a9 9 0 0 0 2.92 -1.95" /><path d="M20.31 15.44a9 9 0 0 0 .69 -3.44" /><path d="M20.31 8.56a9 9 0 0 0 -1.95 -2.92" /><path d="M15.44 3.69a9 9 0 0 0 -3.44 -.69" /><path d="M10 8h3a1 1 0 0 1 1 1v2a1 1 0 0 1 -1 1h-2a1 1 0 0 0 -1 1v2a1 1 0 0 0 1 1h3" />
</symbol>
	<symbol id="circle-dashed-number-3" class="icon icon-tabler icon-tabler-circle-dashed-number-3" viewBox="0 0 24 24" stroke-width="2" stroke="currentColor" fill="none" stroke-linecap="round" stroke-linejoin="round"><path stroke="none" d="M0 0h24v24H0z" fill="none"/><path d="M8.56 3.69a9 9 0 0 0 -2.92 1.95" /><path d="M3.69 8.56a9 9 0 0 0 -.69 3.44" /><path d="M3.69 15.44a9 9 0 0 0 1.95 2.92" /><path d="M8.56 20.31a9 9 0 0 0 3.44 .69" /><path d="M15.44 20.31a9 9 0 0 0 2.92 -1.95" /><path d="M20.31 15.44a9 9 0 0 0 .69 -3.44" /><path d="M20.31 8.56a9 9 0 0 0 -1.95 -2.92" /><path d="M15.44 3.69a9 9 0 0 0 -3.44 -.69" /><path d="M10 8h2.5a1.5 1.5 0 0 1 1.5 1.5v1a1.5 1.5 0 0 1 -1.5 1.5h-1.5h1.5a1.5 1.5 0 0 1 1.5 1.5v1a1.5 1.5 0 0 1 -1.5 1.5h-2.5" />
</symbol>
	<symbol id="circle-dashed-number-4" class="icon icon-tabler icon-tabler-circle-dashed-number-4" viewBox="0 0 24 24" stroke-width="2" stroke="currentColor" fill="none" stroke-linecap="round" stroke-linejoin="round"><path stroke="none" d="M0 0h24v24H0z" fill="none"/><path d="M8.56 3.69a9 9 0 0 0 -2.92 1.95" /><path d="M3.69 8.56a9 9 0 0 0 -.69 3.44" /><path d="M3.69 15.44a9 9 0 0 0 1.95 2.92" /><path d="M8.56 20.31a9 9 0 0 0 3.44 .69" /><path d="M15.44 20.31a9 9 0 0 0 2.92 -1.95" /><path d="M20.31 15.44a9 9 0 0 0 .69 -3.44" /><path d="M20.31 8.56a9 9 0 0 0 -1.95 -2.92" /><path d="M15.44 3.69a9 9 0 0 0 -3.44 -.69" /><path d="M10 8v3a1 1 0 0 0 1 1h3" /><path d="M14 8v8" />
</symbol>
	<symbol id="circle-dashed-number-5" class="icon icon-tabler icon-tabler-circle-dashed-number-5" viewBox="0 0 24 24" stroke-width="2" stroke="currentColor" fill="none" stroke-linecap="round" stroke-linejoin="round"><path stroke="none" d="M0 0h24v24H0z" fill="none"/><path d="M8.56 3.69a9 9 0 0 0 -2.92 1.95" /><path d="M3.69 8.56a9 9 0 0 0 -.69 3.44" /><path d="M3.69 15.44a9 9 0 0 0 1.95 2.92" /><path d="M8.56 20.31a9 9 0 0 0 3.44 .69" /><path d="M15.44 20.31a9 9 0 0 0 2.92 -1.95" /><path d="M20.31 15.44a9 9 0 0 0 .69 -3.44" /><path d="M20.31 8.56a9 9 0 0 0 -1.95 -2.92" /><path d="M15.44 3.69a9 9 0 0 0 -3.44 -.69" /><path d="M10 15a1 1 0 0 0 1 1h2a1 1 0 0 0 1 -1v-2a1 1 0 0 0 -1 -1h-3v-4h4" />
</symbol>
	<symbol id="circle-dashed-number-6" class="icon icon-tabler icon-tabler-circle-dashed-number-6" viewBox="0 0 24 24" stroke-width="2" stroke="currentColor" fill="none" stroke-linecap="round" stroke-linejoin="round"><path stroke="none" d="M0 0h24v24H0z" fill="none"/><path d="M8.56 3.69a9 9 0 0 0 -2.92 1.95" /><path d="M3.69 8.56a9 9 0 0 0 -.69 3.44" /><path d="M3.69 15.44a9 9 0 0 0 1.95 2.92" /><path d="M8.56 20.31a9 9 0 0 0 3.44 .69" /><path d="M15.44 20.31a9 9 0 0 0 2.92 -1.95" /><path d="M20.31 15.44a9 9 0 0 0 .69 -3.44" /><path d="M20.31 8.56a9 9 0 0 0 -1.95 -2.92" /><path d="M15.44 3.69a9 9 0 0 0 -3.44 -.69" /><path d="M14 9a1 1 0 0 0 -1 -1h-2a1 1 0 0 0 -1 1v6a1 1 0 0 0 1 1h2a1 1 0 0 0 1 -1v-2a1 1 0 0 0 -1 -1h-3" />
</symbol>
	<symbol id="circle-dashed-number-7" class="icon icon-tabler icon-tabler-circle-dashed-number-7" viewBox="0 0 24 24" stroke-width="2" stroke="currentColor" fill="none" stroke-linecap="round" stroke-linejoin="round"><path stroke="none" d="M0 0h24v24H0z" fill="none"/><path d="M8.56 3.69a9 9 0 0 0 -2.92 1.95" /><path d="M3.69 8.56a9 9 0 0 0 -.69 3.44" /><path d="M3.69 15.44a9 9 0 0 0 1.95 2.92" /><path d="M8.56 20.31a9 9 0 0 0 3.44 .69" /><path d="M15.44 20.31a9 9 0 0 0 2.92 -1.95" /><path d="M20.31 15.44a9 9 0 0 0 .69 -3.44" /><path d="M20.31 8.56a9 9 0 0 0 -1.95 -2.92" /><path d="M15.44 3.69a9 9 0 0 0 -3.44 -.69" /><path d="M10 8h4l-2 8" />
</symbol>
	<symbol id="circle-dashed-number-8" class="icon icon-tabler icon-tabler-circle-dashed-number-8" viewBox="0 0 24 24" stroke-width="2" stroke="currentColor" fill="none" stroke-linecap="round" stroke-linejoin="round"><path stroke="none" d="M0 0h24v24H0z" fill="none"/><path d="M8.56 3.69a9 9 0 0 0 -2.92 1.95" /><path d="M3.69 8.56a9 9 0 0 0 -.69 3.44" /><path d="M3.69 15.44a9 9 0 0 0 1.95 2.92" /><path d="M8.56 20.31a9 9 0 0 0 3.44 .69" /><path d="M15.44 20.31a9 9 0 0 0 2.92 -1.95" /><path d="M20.31 15.44a9 9 0 0 0 .69 -3.44" /><path d="M20.31 8.56a9 9 0 0 0 -1.95 -2.92" /><path d="M15.44 3.69a9 9 0 0 0 -3.44 -.69" /><path d="M12 12h-1a1 1 0 0 1 -1 -1v-2a1 1 0 0 1 1 -1h2a1 1 0 0 1 1 1v2a1 1 0 0 1 -1 1h-2a1 1 0 0 0 -1 1v2a1 1 0 0 0 1 1h2a1 1 0 0 0 1 -1v-2a1 1 0 0 0 -1 -1" />
</symbol>
	<symbol id="circle-dashed-number-9" class="icon icon-tabler icon-tabler-circle-dashed-number-9" viewBox="0 0 24 24" stroke-width="2" stroke="currentColor" fill="none" stroke-linecap="round" stroke-linejoin="round"><path stroke="none" d="M0 0h24v24H0z" fill="none"/><path d="M8.56 3.69a9 9 0 0 0 -2.92 1.95" /><path d="M3.69 8.56a9 9 0 0 0 -.69 3.44" /><path d="M3.69 15.44a9 9 0 0 0 1.95 2.92" /><path d="M8.56 20.31a9 9 0 0 0 3.44 .69" /><path d="M15.44 20.31a9 9 0 0 0 2.92 -1.95" /><path d="M20.31 15.44a9 9 0 0 0 .69 -3.44" /><path d="M20.31 8.56a9 9 0 0 0 -1.95 -2.92" /><path d="M15.44 3.69a9 9 0 0 0 -3.44 -.69" /><path d="M10 15a1 1 0 0 0 1 1h2a1 1 0 0 0 1 -1v-6a1 1 0 0 0 -1 -1h-2a1 1 0 0 0 -1 1v2a1 1 0 0 0 1 1h3" />
</symbol>
	<symbol id="circle-dashed-x" class="icon icon-tabler icon-tabler-circle-dashed-x" viewBox="0 0 24 24" stroke-width="2" stroke="currentColor" fill="none" stroke-linecap="round" stroke-linejoin="round"><path stroke="none" d="M0 0h24v24H0z" fill="none"/><path d="M8.56 3.69a9 9 0 0 0 -2.92 1.95" /><path d="M3.69 8.56a9 9 0 0 0 -.69 3.44" /><path d="M3.69 15.44a9 9 0 0 0 1.95 2.92" /><path d="M8.56 20.31a9 9 0 0 0 3.44 .69" /><path d="M15.44 20.31a9 9 0 0 0 2.92 -1.95" /><path d="M20.31 15.44a9 9 0 0 0 .69 -3.44" /><path d="M20.31 8.56a9 9 0 0 0 -1.95 -2.92" /><path d="M15.44 3.69a9 9 0 0 0 -3.44 -.69" /><path d="M14 14l-4 -4" /><path d="M10 14l4 -4" />
</symbol>
	<symbol id="login-2" class="icon icon-tabler icon-tabler-login-2" viewBox="0 0 24 24" stroke-width="2" stroke="currentColor" fill="none" stroke-linecap="round" stroke-linejoin="round"><path stroke="none" d="M0 0h24v24H0z" fill="none"/><path d="M9 8v-2a2 2 0 0 1 2 -2h7a2 2 0 0 1 2 2v12a2 2 0 0 1 -2 2h-7a2 2 0 0 1 -2 -2v-2" /><path d="M3 12h13l-3 -3" /><path d="M13 15l3 -3" />
</symbol>

	<use xlink:href="#alert-circle-off" x="24" y="24" width="24" height="24" />
	<use xlink:href="#alert-hexagon-off" x="68" y="24" width="24" height="24" />
	<use xlink:href="#alert-small-off" x="112" y="24" width="24" height="24" />
	<use xlink:href="#alert-square-rounded-off" x="156" y="24" width="24" height="24" />
	<use xlink:href="#alert-triangle-off" x="200" y="24" width="24" height="24" />
	<use xlink:href="#brand-meetup" x="244" y="24" width="24" height="24" />
	<use xlink:href="#circle-dashed-number-0" x="24" y="68" width="24" height="24" />
	<use xlink:href="#circle-dashed-number-1" x="68" y="68" width="24" height="24" />
	<use xlink:href="#circle-dashed-number-2" x="112" y="68" width="24" height="24" />
	<use xlink:href="#circle-dashed-number-3" x="156" y="68" width="24" height="24" />
	<use xlink:href="#circle-dashed-number-4" x="200" y="68" width="24" height="24" />
	<use xlink:href="#circle-dashed-number-5" x="244" y="68" width="24" height="24" />
	<use xlink:href="#circle-dashed-number-6" x="24" y="112" width="24" height="24" />
	<use xlink:href="#circle-dashed-number-7" x="68" y="112" width="24" height="24" />
	<use xlink:href="#circle-dashed-number-8" x="112" y="112" width="24" height="24" />
	<use xlink:href="#circle-dashed-number-9" x="156" y="112" width="24" height="24" />
	<use xlink:href="#circle-dashed-x" x="200" y="112" width="24" height="24" />
	<use xlink:href="#login-2" x="244" y="112" width="24" height="24" />

</svg>