<svg xmlns="http://www.w3.org/2000/svg" xmlns:xlink="http://www.w3.org/1999/xlink" viewBox="0 0 292 160" width="292" height="160" style="color: #354052"><rect x="0" y="0" width="292" height="160" fill="#fff"></rect>
	<symbol id="building-stadium" class="icon icon-tabler icon-tabler-building-stadium" viewBox="0 0 24 24" stroke-width="2" stroke="currentColor" fill="none" stroke-linecap="round" stroke-linejoin="round"><path stroke="none" d="M0 0h24v24H0z" fill="none"/><ellipse cx="12" cy="12" rx="8" ry="2" /><path d="M4 12v7c0 .94 2.51 1.785 6 2v-3h4v3c3.435 -.225 6 -1.07 6 -2v-7" /><path d="M15 6h4v-3h-4v7" /><path d="M7 6h4v-3h-4v7" />
</symbol>
	<symbol id="circle-chevrons-down" class="icon icon-tabler icon-tabler-circle-chevrons-down" viewBox="0 0 24 24" stroke-width="2" stroke="currentColor" fill="none" stroke-linecap="round" stroke-linejoin="round"><path stroke="none" d="M0 0h24v24H0z" fill="none"/><path d="M15 9l-3 3l-3 -3" /><path d="M15 13l-3 3l-3 -3" /><path d="M12 3a9 9 0 1 0 0 18a9 9 0 0 0 0 -18z" />
</symbol>
	<symbol id="circle-chevrons-left" class="icon icon-tabler icon-tabler-circle-chevrons-left" viewBox="0 0 24 24" stroke-width="2" stroke="currentColor" fill="none" stroke-linecap="round" stroke-linejoin="round"><path stroke="none" d="M0 0h24v24H0z" fill="none"/><path d="M15 15l-3 -3l3 -3" /><path d="M11 15l-3 -3l3 -3" /><path d="M21 12a9 9 0 1 0 -.004 .265l.004 -.265z" />
</symbol>
	<symbol id="circle-chevrons-right" class="icon icon-tabler icon-tabler-circle-chevrons-right" viewBox="0 0 24 24" stroke-width="2" stroke="currentColor" fill="none" stroke-linecap="round" stroke-linejoin="round"><path stroke="none" d="M0 0h24v24H0z" fill="none"/><path d="M9 9l3 3l-3 3" /><path d="M13 9l3 3l-3 3" /><path d="M3 12a9 9 0 1 0 .004 -.265l-.004 .265z" />
</symbol>
	<symbol id="circle-chevrons-up" class="icon icon-tabler icon-tabler-circle-chevrons-up" viewBox="0 0 24 24" stroke-width="2" stroke="currentColor" fill="none" stroke-linecap="round" stroke-linejoin="round"><path stroke="none" d="M0 0h24v24H0z" fill="none"/><path d="M9 15l3 -3l3 3" /><path d="M9 11l3 -3l3 3" /><path d="M12 21a9 9 0 1 0 -.265 -.004l.265 .004z" />
</symbol>
	<symbol id="device-airpods-case" class="icon icon-tabler icon-tabler-device-airpods-case" viewBox="0 0 24 24" stroke-width="2" stroke="currentColor" fill="none" stroke-linecap="round" stroke-linejoin="round"><path stroke="none" d="M0 0h24v24H0z" fill="none"/><path d="M21 10h-18" /><rect x="3" y="4" width="18" height="16" rx="4" /><path d="M7 10v1.5a1.5 1.5 0 0 0 1.5 1.5h7a1.5 1.5 0 0 0 1.5 -1.5v-1.5" />
</symbol>
	<symbol id="device-ipad-horizontal" class="icon icon-tabler icon-tabler-device-ipad-horizontal" viewBox="0 0 24 24" stroke-width="2" stroke="currentColor" fill="none" stroke-linecap="round" stroke-linejoin="round"><path stroke="none" d="M0 0h24v24H0z" fill="none"/><rect x="2" y="4" width="20" height="16" rx="2" /><path d="M9 17h6" />
</symbol>
	<symbol id="device-ipad" class="icon icon-tabler icon-tabler-device-ipad" viewBox="0 0 24 24" stroke-width="2" stroke="currentColor" fill="none" stroke-linecap="round" stroke-linejoin="round"><path stroke="none" d="M0 0h24v24H0z" fill="none"/><path d="M20 4v16a2 2 0 0 1 -2 2h-12a2 2 0 0 1 -2 -2v-16a2 2 0 0 1 2 -2h12a2 2 0 0 1 2 2z" /><path d="M9 19h6" />
</symbol>
	<symbol id="device-landline-phone" class="icon icon-tabler icon-tabler-device-landline-phone" viewBox="0 0 24 24" stroke-width="2" stroke="currentColor" fill="none" stroke-linecap="round" stroke-linejoin="round"><path stroke="none" d="M0 0h24v24H0z" fill="none"/><path d="M20 3h-2a2 2 0 0 0 -2 2v14a2 2 0 0 0 2 2h2a2 2 0 0 0 2 -2v-14a2 2 0 0 0 -2 -2z" /><path d="M16 4h-11a3 3 0 0 0 -3 3v10a3 3 0 0 0 3 3h11" /><path d="M12 8h-6v3h6z" /><path d="M12 14v.01" /><path d="M9 14v.01" /><path d="M6 14v.01" /><path d="M12 17v.01" /><path d="M9 17v.01" /><path d="M6 17v.01" />
</symbol>
	<symbol id="school-bell" class="icon icon-tabler icon-tabler-school-bell" viewBox="0 0 24 24" stroke-width="2" stroke="currentColor" fill="none" stroke-linecap="round" stroke-linejoin="round"><path stroke="none" d="M0 0h24v24H0z" fill="none"/><path d="M4 17a3 3 0 0 0 3 3" /><path d="M14.805 6.37l2.783 -2.784a2 2 0 1 1 2.829 2.828l-2.784 2.786" /><path d="M16.505 7.495a5.105 5.105 0 0 1 .176 7.035l-.176 .184l-1.867 1.867a3.48 3.48 0 0 0 -1.013 2.234l-.008 .23v.934c0 .327 -.13 .64 -.36 .871a0.51 .51 0 0 1 -.652 .06l-.07 -.06l-9.385 -9.384a0.51 .51 0 0 1 0 -.722c.198 -.198 .456 -.322 .732 -.353l.139 -.008h.933c.848 0 1.663 -.309 2.297 -.864l.168 -.157l1.867 -1.867l.16 -.153a5.105 5.105 0 0 1 7.059 .153z" />
</symbol>
	<symbol id="square-chevrons-down" class="icon icon-tabler icon-tabler-square-chevrons-down" viewBox="0 0 24 24" stroke-width="2" stroke="currentColor" fill="none" stroke-linecap="round" stroke-linejoin="round"><path stroke="none" d="M0 0h24v24H0z" fill="none"/><path d="M15 9l-3 3l-3 -3" /><path d="M15 13l-3 3l-3 -3" /><path d="M20 6.667v10.666a2.667 2.667 0 0 1 -2.667 2.667h-10.666a2.667 2.667 0 0 1 -2.667 -2.667v-10.666a2.667 2.667 0 0 1 2.667 -2.667h10.666a2.667 2.667 0 0 1 2.667 2.667z" />
</symbol>
	<symbol id="square-chevrons-left" class="icon icon-tabler icon-tabler-square-chevrons-left" viewBox="0 0 24 24" stroke-width="2" stroke="currentColor" fill="none" stroke-linecap="round" stroke-linejoin="round"><path stroke="none" d="M0 0h24v24H0z" fill="none"/><path d="M15 15l-3 -3l3 -3" /><path d="M11 15l-3 -3l3 -3" /><path d="M20 6.667v10.666a2.667 2.667 0 0 1 -2.667 2.667h-10.666a2.667 2.667 0 0 1 -2.667 -2.667v-10.666a2.667 2.667 0 0 1 2.667 -2.667h10.666a2.667 2.667 0 0 1 2.667 2.667z" />
</symbol>
	<symbol id="square-chevrons-right" class="icon icon-tabler icon-tabler-square-chevrons-right" viewBox="0 0 24 24" stroke-width="2" stroke="currentColor" fill="none" stroke-linecap="round" stroke-linejoin="round"><path stroke="none" d="M0 0h24v24H0z" fill="none"/><path d="M9 9l3 3l-3 3" /><path d="M13 9l3 3l-3 3" /><path d="M20 6.667v10.666a2.667 2.667 0 0 1 -2.667 2.667h-10.666a2.667 2.667 0 0 1 -2.667 -2.667v-10.666a2.667 2.667 0 0 1 2.667 -2.667h10.666a2.667 2.667 0 0 1 2.667 2.667z" />
</symbol>
	<symbol id="square-chevrons-up" class="icon icon-tabler icon-tabler-square-chevrons-up" viewBox="0 0 24 24" stroke-width="2" stroke="currentColor" fill="none" stroke-linecap="round" stroke-linejoin="round"><path stroke="none" d="M0 0h24v24H0z" fill="none"/><path d="M9 15l3 -3l3 3" /><path d="M9 11l3 -3l3 3" /><path d="M20 6.667v10.666a2.667 2.667 0 0 1 -2.667 2.667h-10.666a2.667 2.667 0 0 1 -2.667 -2.667v-10.666a2.667 2.667 0 0 1 2.667 -2.667h10.666a2.667 2.667 0 0 1 2.667 2.667z" />
</symbol>
	<symbol id="square-rounded-chevrons-down" class="icon icon-tabler icon-tabler-square-rounded-chevrons-down" viewBox="0 0 24 24" stroke-width="2" stroke="currentColor" fill="none" stroke-linecap="round" stroke-linejoin="round"><path stroke="none" d="M0 0h24v24H0z" fill="none"/><path d="M15 9l-3 3l-3 -3" /><path d="M15 13l-3 3l-3 -3" /><path d="M12 3c7.2 0 9 1.8 9 9s-1.8 9 -9 9s-9 -1.8 -9 -9s1.8 -9 9 -9z" />
</symbol>
	<symbol id="square-rounded-chevrons-left" class="icon icon-tabler icon-tabler-square-rounded-chevrons-left" viewBox="0 0 24 24" stroke-width="2" stroke="currentColor" fill="none" stroke-linecap="round" stroke-linejoin="round"><path stroke="none" d="M0 0h24v24H0z" fill="none"/><path d="M15 15l-3 -3l3 -3" /><path d="M11 15l-3 -3l3 -3" /><path d="M12 3c7.2 0 9 1.8 9 9s-1.8 9 -9 9s-9 -1.8 -9 -9s1.8 -9 9 -9z" />
</symbol>
	<symbol id="square-rounded-chevrons-right" class="icon icon-tabler icon-tabler-square-rounded-chevrons-right" viewBox="0 0 24 24" stroke-width="2" stroke="currentColor" fill="none" stroke-linecap="round" stroke-linejoin="round"><path stroke="none" d="M0 0h24v24H0z" fill="none"/><path d="M9 9l3 3l-3 3" /><path d="M13 9l3 3l-3 3" /><path d="M12 3c7.2 0 9 1.8 9 9s-1.8 9 -9 9s-9 -1.8 -9 -9s1.8 -9 9 -9z" />
</symbol>
	<symbol id="square-rounded-chevrons-up" class="icon icon-tabler icon-tabler-square-rounded-chevrons-up" viewBox="0 0 24 24" stroke-width="2" stroke="currentColor" fill="none" stroke-linecap="round" stroke-linejoin="round"><path stroke="none" d="M0 0h24v24H0z" fill="none"/><path d="M9 15l3 -3l3 3" /><path d="M9 11l3 -3l3 3" /><path d="M12 3c7.2 0 9 1.8 9 9s-1.8 9 -9 9s-9 -1.8 -9 -9s1.8 -9 9 -9z" />
</symbol>

	<use xlink:href="#building-stadium" x="24" y="24" width="24" height="24" />
	<use xlink:href="#circle-chevrons-down" x="68" y="24" width="24" height="24" />
	<use xlink:href="#circle-chevrons-left" x="112" y="24" width="24" height="24" />
	<use xlink:href="#circle-chevrons-right" x="156" y="24" width="24" height="24" />
	<use xlink:href="#circle-chevrons-up" x="200" y="24" width="24" height="24" />
	<use xlink:href="#device-airpods-case" x="244" y="24" width="24" height="24" />
	<use xlink:href="#device-ipad-horizontal" x="24" y="68" width="24" height="24" />
	<use xlink:href="#device-ipad" x="68" y="68" width="24" height="24" />
	<use xlink:href="#device-landline-phone" x="112" y="68" width="24" height="24" />
	<use xlink:href="#school-bell" x="156" y="68" width="24" height="24" />
	<use xlink:href="#square-chevrons-down" x="200" y="68" width="24" height="24" />
	<use xlink:href="#square-chevrons-left" x="244" y="68" width="24" height="24" />
	<use xlink:href="#square-chevrons-right" x="24" y="112" width="24" height="24" />
	<use xlink:href="#square-chevrons-up" x="68" y="112" width="24" height="24" />
	<use xlink:href="#square-rounded-chevrons-down" x="112" y="112" width="24" height="24" />
	<use xlink:href="#square-rounded-chevrons-left" x="156" y="112" width="24" height="24" />
	<use xlink:href="#square-rounded-chevrons-right" x="200" y="112" width="24" height="24" />
	<use xlink:href="#square-rounded-chevrons-up" x="244" y="112" width="24" height="24" />

</svg>