<svg xmlns="http://www.w3.org/2000/svg" xmlns:xlink="http://www.w3.org/1999/xlink" viewBox="0 0 292 160" width="292" height="160" style="color: #354052"><rect x="0" y="0" width="292" height="160" fill="#fff"></rect>
	<symbol id="arrow-merge-both" class="icon icon-tabler icon-tabler-arrow-merge-both" viewBox="0 0 24 24" stroke-width="2" stroke="currentColor" fill="none" stroke-linecap="round" stroke-linejoin="round"><path stroke="none" d="M0 0h24v24H0z" fill="none"/><path d="M16 8l-4 -4l-4 4" /><path d="M12 20v-16" /><path d="M18 18c-4 -1.333 -6 -4.667 -6 -10" /><path d="M6 18c4 -1.333 6 -4.667 6 -10" />
</symbol>
	<symbol id="arrow-merge-left" class="icon icon-tabler icon-tabler-arrow-merge-left" viewBox="0 0 24 24" stroke-width="2" stroke="currentColor" fill="none" stroke-linecap="round" stroke-linejoin="round"><path stroke="none" d="M0 0h24v24H0z" fill="none"/><path d="M8 8l4 -4l4 4" /><path d="M12 20v-16" /><path d="M6 18c4 -1.333 6 -4.667 6 -10" />
</symbol>
	<symbol id="arrow-merge-right" class="icon icon-tabler icon-tabler-arrow-merge-right" viewBox="0 0 24 24" stroke-width="2" stroke="currentColor" fill="none" stroke-linecap="round" stroke-linejoin="round"><path stroke="none" d="M0 0h24v24H0z" fill="none"/><path d="M16 8l-4 -4l-4 4" /><path d="M12 20v-16" /><path d="M18 18c-4 -1.333 -6 -4.667 -6 -10" />
</symbol>
	<symbol id="garden-cart" class="icon icon-tabler icon-tabler-garden-cart" viewBox="0 0 24 24" stroke-width="2" stroke="currentColor" fill="none" stroke-linecap="round" stroke-linejoin="round"><path stroke="none" d="M0 0h24v24H0z" fill="none"/><circle cx="17.5" cy="17.5" r="2.5" /><path d="M6 8v11a1 1 0 0 0 1.806 .591l3.694 -5.091v.055" /><path d="M6 8h15l-3.5 7l-7.1 -.747a4 4 0 0 1 -3.296 -2.493l-2.853 -7.13a1 1 0 0 0 -.928 -.63h-1.323" />
</symbol>
	<symbol id="ground" class="icon icon-tabler icon-tabler-ground" viewBox="0 0 24 24" stroke-width="2" stroke="currentColor" fill="none" stroke-linecap="round" stroke-linejoin="round"><path stroke="none" d="M0 0h24v24H0z" fill="none"/><path d="M12 13v-8" /><path d="M4 13h16" /><path d="M7 16h10" /><path d="M10 19h4" />
</symbol>
	<symbol id="logic-and" class="icon icon-tabler icon-tabler-logic-and" viewBox="0 0 24 24" stroke-width="2" stroke="currentColor" fill="none" stroke-linecap="round" stroke-linejoin="round"><path stroke="none" d="M0 0h24v24H0z" fill="none"/><path d="M22 12h-5" /><path d="M2 9h5" /><path d="M2 15h5" /><path d="M9 5c6 0 8 3.5 8 7s-2 7 -8 7h-2v-14h2z" />
</symbol>
	<symbol id="logic-buffer" class="icon icon-tabler icon-tabler-logic-buffer" viewBox="0 0 24 24" stroke-width="2" stroke="currentColor" fill="none" stroke-linecap="round" stroke-linejoin="round"><path stroke="none" d="M0 0h24v24H0z" fill="none"/><path d="M22 12h-5" /><path d="M2 9h5" /><path d="M2 15h5" /><path d="M7 5l10 7l-10 7z" />
</symbol>
	<symbol id="logic-nand" class="icon icon-tabler icon-tabler-logic-nand" viewBox="0 0 24 24" stroke-width="2" stroke="currentColor" fill="none" stroke-linecap="round" stroke-linejoin="round"><path stroke="none" d="M0 0h24v24H0z" fill="none"/><path d="M22 12h-3" /><path d="M2 9h3" /><path d="M2 15h3" /><path d="M7 5c6 0 8 3.5 8 7s-2 7 -8 7h-2v-14h2z" /><circle cx="17" cy="12" r="2" />
</symbol>
	<symbol id="logic-nor" class="icon icon-tabler icon-tabler-logic-nor" viewBox="0 0 24 24" stroke-width="2" stroke="currentColor" fill="none" stroke-linecap="round" stroke-linejoin="round"><path stroke="none" d="M0 0h24v24H0z" fill="none"/><path d="M22 12h-4" /><path d="M2 9h5" /><path d="M2 15h5" /><path d="M6 5c10.667 2.1 10.667 12.6 0 14c1.806 -4.667 1.806 -9.333 0 -14z" /><circle cx="16" cy="12" r="2" />
</symbol>
	<symbol id="logic-not" class="icon icon-tabler icon-tabler-logic-not" viewBox="0 0 24 24" stroke-width="2" stroke="currentColor" fill="none" stroke-linecap="round" stroke-linejoin="round"><path stroke="none" d="M0 0h24v24H0z" fill="none"/><path d="M22 12h-3" /><path d="M2 9h3" /><path d="M2 15h3" /><path d="M5 5l10 7l-10 7z" /><circle cx="17" cy="12" r="2" />
</symbol>
	<symbol id="logic-or" class="icon icon-tabler icon-tabler-logic-or" viewBox="0 0 24 24" stroke-width="2" stroke="currentColor" fill="none" stroke-linecap="round" stroke-linejoin="round"><path stroke="none" d="M0 0h24v24H0z" fill="none"/><path d="M22 12h-6" /><path d="M2 9h7" /><path d="M2 15h7" /><path d="M8 5c10.667 2.1 10.667 12.6 0 14c1.806 -4.667 1.806 -9.333 0 -14z" />
</symbol>
	<symbol id="logic-xnor" class="icon icon-tabler icon-tabler-logic-xnor" viewBox="0 0 24 24" stroke-width="2" stroke="currentColor" fill="none" stroke-linecap="round" stroke-linejoin="round"><path stroke="none" d="M0 0h24v24H0z" fill="none"/><path d="M22 12h-2" /><path d="M2 9h4" /><path d="M2 15h4" /><path d="M5 19c1.778 -4.667 1.778 -9.333 0 -14" /><path d="M8 5c10.667 2.1 10.667 12.6 0 14c1.806 -4.667 1.806 -9.333 0 -14z" /><circle cx="18" cy="12" r="2" />
</symbol>
	<symbol id="logic-xor" class="icon icon-tabler icon-tabler-logic-xor" viewBox="0 0 24 24" stroke-width="2" stroke="currentColor" fill="none" stroke-linecap="round" stroke-linejoin="round"><path stroke="none" d="M0 0h24v24H0z" fill="none"/><path d="M22 12h-4" /><path d="M2 9h6" /><path d="M2 15h6" /><path d="M7 19c1.778 -4.667 1.778 -9.333 0 -14" /><path d="M10 5c10.667 2.1 10.667 12.6 0 14c1.806 -4.667 1.806 -9.333 0 -14z" />
</symbol>
	<symbol id="microwave" class="icon icon-tabler icon-tabler-microwave" viewBox="0 0 24 24" stroke-width="2" stroke="currentColor" fill="none" stroke-linecap="round" stroke-linejoin="round"><path stroke="none" d="M0 0h24v24H0z" fill="none"/><rect x="3" y="6" width="18" height="12" rx="1" /><path d="M15 6v12" /><path d="M18 12h.01" /><path d="M18 15h.01" /><path d="M18 9h.01" /><path d="M6.5 10.5c1 -.667 1.5 -.667 2.5 0c.833 .347 1.667 .926 2.5 0" /><path d="M6.5 13.5c1 -.667 1.5 -.667 2.5 0c.833 .347 1.667 .926 2.5 0" />
</symbol>
	<symbol id="outbound" class="icon icon-tabler icon-tabler-outbound" viewBox="0 0 24 24" stroke-width="2" stroke="currentColor" fill="none" stroke-linecap="round" stroke-linejoin="round"><path stroke="none" d="M0 0h24v24H0z" fill="none"/><circle cx="12" cy="12" r="9" /><path d="M9 15l6 -6" /><path d="M11 9h4v4" />
</symbol>
	<symbol id="sos" class="icon icon-tabler icon-tabler-sos" viewBox="0 0 24 24" stroke-width="2" stroke="currentColor" fill="none" stroke-linecap="round" stroke-linejoin="round"><path stroke="none" d="M0 0h24v24H0z" fill="none"/><path d="M7 8h-3a1 1 0 0 0 -1 1v2a1 1 0 0 0 1 1h2a1 1 0 0 1 1 1v2a1 1 0 0 1 -1 1h-3" /><path d="M10 8h4v8h-4z" /><path d="M17 16h3a1 1 0 0 0 1 -1v-2a1 1 0 0 0 -1 -1h-2a1 1 0 0 1 -1 -1v-2a1 1 0 0 1 1 -1h3" />
</symbol>
	<symbol id="steam" class="icon icon-tabler icon-tabler-steam" viewBox="0 0 24 24" stroke-width="2" stroke="currentColor" fill="none" stroke-linecap="round" stroke-linejoin="round"><path stroke="none" d="M0 0h24v24H0z" fill="none"/><circle cx="12" cy="4" r="1" /><circle cx="4" cy="12" r="1" /><circle cx="20" cy="12" r="1" /><circle cx="12" cy="20" r="1" /><path d="M5.5 5.5l3 3" /><path d="M15.5 15.5l3 3" /><path d="M18.5 5.5l-3 3" /><path d="M8.5 15.5l-3 3" />
</symbol>
	<symbol id="storm" class="icon icon-tabler icon-tabler-storm" viewBox="0 0 24 24" stroke-width="2" stroke="currentColor" fill="none" stroke-linecap="round" stroke-linejoin="round"><path stroke="none" d="M0 0h24v24H0z" fill="none"/><circle cx="12" cy="12" r="3" /><circle cx="12" cy="12" r="7" /><path d="M5.369 14.236c-1.839 -3.929 -1.561 -7.616 -.704 -11.236" /><path d="M18.63 9.76c1.837 3.928 1.561 7.615 .703 11.236" />
</symbol>

	<use xlink:href="#arrow-merge-both" x="24" y="24" width="24" height="24" />
	<use xlink:href="#arrow-merge-left" x="68" y="24" width="24" height="24" />
	<use xlink:href="#arrow-merge-right" x="112" y="24" width="24" height="24" />
	<use xlink:href="#garden-cart" x="156" y="24" width="24" height="24" />
	<use xlink:href="#ground" x="200" y="24" width="24" height="24" />
	<use xlink:href="#logic-and" x="244" y="24" width="24" height="24" />
	<use xlink:href="#logic-buffer" x="24" y="68" width="24" height="24" />
	<use xlink:href="#logic-nand" x="68" y="68" width="24" height="24" />
	<use xlink:href="#logic-nor" x="112" y="68" width="24" height="24" />
	<use xlink:href="#logic-not" x="156" y="68" width="24" height="24" />
	<use xlink:href="#logic-or" x="200" y="68" width="24" height="24" />
	<use xlink:href="#logic-xnor" x="244" y="68" width="24" height="24" />
	<use xlink:href="#logic-xor" x="24" y="112" width="24" height="24" />
	<use xlink:href="#microwave" x="68" y="112" width="24" height="24" />
	<use xlink:href="#outbound" x="112" y="112" width="24" height="24" />
	<use xlink:href="#sos" x="156" y="112" width="24" height="24" />
	<use xlink:href="#steam" x="200" y="112" width="24" height="24" />
	<use xlink:href="#storm" x="244" y="112" width="24" height="24" />

</svg>