<svg xmlns="http://www.w3.org/2000/svg" xmlns:xlink="http://www.w3.org/1999/xlink" viewBox="0 0 292 160" width="292" height="160" style="color: #354052"><rect x="0" y="0" width="292" height="160" fill="#fff"></rect>
	<symbol id="currency-dollar-brunei" class="icon icon-tabler icon-tabler-currency-dollar-brunei" viewBox="0 0 24 24" stroke-width="2" stroke="currentColor" fill="none" stroke-linecap="round" stroke-linejoin="round"><path stroke="none" d="M0 0h24v24H0z" fill="none"/><path d="M21 6h-4a3 3 0 0 0 0 6h1a3 3 0 0 1 0 6h-4" /><path d="M17 20v-2" /><path d="M18 6v-2" /><path d="M3 6v12h4a3 3 0 0 0 0 -6h-4h4a3 3 0 0 0 0 -6h-4z" />
</symbol>
	<symbol id="currency-dollar-guyanese" class="icon icon-tabler icon-tabler-currency-dollar-guyanese" viewBox="0 0 24 24" stroke-width="2" stroke="currentColor" fill="none" stroke-linecap="round" stroke-linejoin="round"><path stroke="none" d="M0 0h24v24H0z" fill="none"/><path d="M21 6h-4a3 3 0 0 0 0 6h1a3 3 0 0 1 0 6h-4" /><path d="M10 6h-3a4 4 0 0 0 -4 4v4a4 4 0 0 0 4 4h3v-6h-2" /><path d="M17 20v-2" /><path d="M18 6v-2" />
</symbol>
	<symbol id="currency-dollar-zimbabwean" class="icon icon-tabler icon-tabler-currency-dollar-zimbabwean" viewBox="0 0 24 24" stroke-width="2" stroke="currentColor" fill="none" stroke-linecap="round" stroke-linejoin="round"><path stroke="none" d="M0 0h24v24H0z" fill="none"/><path d="M21 6h-4a3 3 0 0 0 0 6h1a3 3 0 0 1 0 6h-4" /><path d="M17 20v-2" /><path d="M18 6v-2" /><path d="M3 6h7l-7 12h7" />
</symbol>
	<symbol id="currency-dong" class="icon icon-tabler icon-tabler-currency-dong" viewBox="0 0 24 24" stroke-width="2" stroke="currentColor" fill="none" stroke-linecap="round" stroke-linejoin="round"><path stroke="none" d="M0 0h24v24H0z" fill="none"/><path d="M6 19h12" /><circle cx="12" cy="12" r="4" /><path d="M16 16v-12" /><path d="M17 5h-4" />
</symbol>
	<symbol id="currency-dram" class="icon icon-tabler icon-tabler-currency-dram" viewBox="0 0 24 24" stroke-width="2" stroke="currentColor" fill="none" stroke-linecap="round" stroke-linejoin="round"><path stroke="none" d="M0 0h24v24H0z" fill="none"/><path d="M4 10a6 6 0 1 1 12 0v10" /><path d="M12 16h8" /><path d="M12 12h8" />
</symbol>
	<symbol id="currency-guarani" class="icon icon-tabler icon-tabler-currency-guarani" viewBox="0 0 24 24" stroke-width="2" stroke="currentColor" fill="none" stroke-linecap="round" stroke-linejoin="round"><path stroke="none" d="M0 0h24v24H0z" fill="none"/><path d="M16.007 7.54a5.965 5.965 0 0 0 -4.008 -1.54a5.996 5.996 0 0 0 -5.992 6c0 3.314 2.682 6 5.992 6a5.965 5.965 0 0 0 4.004 -1.536c.732 -.66 1.064 -2.148 .997 -4.464h-5" /><path d="M12 20v-16" />
</symbol>
	<symbol id="currency-hryvnia" class="icon icon-tabler icon-tabler-currency-hryvnia" viewBox="0 0 24 24" stroke-width="2" stroke="currentColor" fill="none" stroke-linecap="round" stroke-linejoin="round"><path stroke="none" d="M0 0h24v24H0z" fill="none"/><path d="M8 7a2.64 2.64 0 0 1 2.562 -2h3.376a2.64 2.64 0 0 1 2.562 2a2.57 2.57 0 0 1 -1.344 2.922l-5.876 2.938a3.338 3.338 0 0 0 -1.78 3.64a3.11 3.11 0 0 0 3.05 2.5h2.888a2.64 2.64 0 0 0 2.562 -2" /><path d="M6 10h12" /><path d="M6 14h12" />
</symbol>
	<symbol id="currency-kip" class="icon icon-tabler icon-tabler-currency-kip" viewBox="0 0 24 24" stroke-width="2" stroke="currentColor" fill="none" stroke-linecap="round" stroke-linejoin="round"><path stroke="none" d="M0 0h24v24H0z" fill="none"/><path d="M6 12h12" /><path d="M9 5v14" /><path d="M16 19a7 7 0 0 0 -7 -7a7 7 0 0 0 7 -7" />
</symbol>
	<symbol id="currency-lari" class="icon icon-tabler icon-tabler-currency-lari" viewBox="0 0 24 24" stroke-width="2" stroke="currentColor" fill="none" stroke-linecap="round" stroke-linejoin="round"><path stroke="none" d="M0 0h24v24H0z" fill="none"/><path d="M18 13a6 6 0 1 0 -6 6" /><path d="M6 19h12" /><path d="M10 5v7" /><path d="M14 12v-7" />
</symbol>
	<symbol id="currency-lyd" class="icon icon-tabler icon-tabler-currency-lyd" viewBox="0 0 24 24" stroke-width="2" stroke="currentColor" fill="none" stroke-linecap="round" stroke-linejoin="round"><path stroke="none" d="M0 0h24v24H0z" fill="none"/><path d="M11 15h.01" /><path d="M21 5v10a2 2 0 0 1 -2 2h-2.764a2 2 0 0 1 -1.789 -1.106l-.447 -.894" /><path d="M5 8l2.773 4.687c.427 .697 .234 1.626 -.43 2.075a1.38 1.38 0 0 1 -.773 .238h-2.224a0.93 .93 0 0 1 -.673 -.293l-.673 -.707" />
</symbol>
	<symbol id="currency-manat" class="icon icon-tabler icon-tabler-currency-manat" viewBox="0 0 24 24" stroke-width="2" stroke="currentColor" fill="none" stroke-linecap="round" stroke-linejoin="round"><path stroke="none" d="M0 0h24v24H0z" fill="none"/><path d="M7 19v-7a5 5 0 1 1 10 0v7" /><path d="M12 5v14" />
</symbol>
	<symbol id="currency-monero" class="icon icon-tabler icon-tabler-currency-monero" viewBox="0 0 24 24" stroke-width="2" stroke="currentColor" fill="none" stroke-linecap="round" stroke-linejoin="round"><path stroke="none" d="M0 0h24v24H0z" fill="none"/><path d="M3 18h3v-11l6 7l6 -7v11h3" />
</symbol>
	<symbol id="currency-paanga" class="icon icon-tabler icon-tabler-currency-paanga" viewBox="0 0 24 24" stroke-width="2" stroke="currentColor" fill="none" stroke-linecap="round" stroke-linejoin="round"><path stroke="none" d="M0 0h24v24H0z" fill="none"/><path d="M21 6h-4a3 3 0 0 0 0 6h1a3 3 0 0 1 0 6h-4" /><path d="M17 20v-2" /><path d="M18 6v-2" /><path d="M3 6h8" /><path d="M7 6v12" />
</symbol>
	<symbol id="currency-quetzal" class="icon icon-tabler icon-tabler-currency-quetzal" viewBox="0 0 24 24" stroke-width="2" stroke="currentColor" fill="none" stroke-linecap="round" stroke-linejoin="round"><path stroke="none" d="M0 0h24v24H0z" fill="none"/><circle cx="12" cy="12" r="6" /><path d="M13 13l5 5" />
</symbol>
	<symbol id="currency-rufiyaa" class="icon icon-tabler icon-tabler-currency-rufiyaa" viewBox="0 0 24 24" stroke-width="2" stroke="currentColor" fill="none" stroke-linecap="round" stroke-linejoin="round"><path stroke="none" d="M0 0h24v24H0z" fill="none"/><path d="M20 16h.01" /><path d="M4 16c9.5 -4 11.5 -8 14 -9" /><path d="M12 8l5 3" />
</symbol>
	<symbol id="currency-rupee-nepalese" class="icon icon-tabler icon-tabler-currency-rupee-nepalese" viewBox="0 0 24 24" stroke-width="2" stroke="currentColor" fill="none" stroke-linecap="round" stroke-linejoin="round"><path stroke="none" d="M0 0h24v24H0z" fill="none"/><path d="M15 5h-11h3a4 4 0 1 1 0 8h-3l6 6" /><path d="M21 17l-4.586 -4.414a2 2 0 0 0 -2.828 2.828l.707 .707" />
</symbol>
	<symbol id="currency-som" class="icon icon-tabler icon-tabler-currency-som" viewBox="0 0 24 24" stroke-width="2" stroke="currentColor" fill="none" stroke-linecap="round" stroke-linejoin="round"><path stroke="none" d="M0 0h24v24H0z" fill="none"/><path d="M10 18v-12h-5v10a2 2 0 0 1 -2 2" /><path d="M14 6v12h4a3 3 0 0 0 0 -6h-4h4a3 3 0 0 0 0 -6h-4z" />
</symbol>
	<symbol id="currency-tenge" class="icon icon-tabler icon-tabler-currency-tenge" viewBox="0 0 24 24" stroke-width="2" stroke="currentColor" fill="none" stroke-linecap="round" stroke-linejoin="round"><path stroke="none" d="M0 0h24v24H0z" fill="none"/><path d="M6 5h12" /><path d="M6 9h12" /><path d="M12 9v10" />
</symbol>

	<use xlink:href="#currency-dollar-brunei" x="24" y="24" width="24" height="24" />
	<use xlink:href="#currency-dollar-guyanese" x="68" y="24" width="24" height="24" />
	<use xlink:href="#currency-dollar-zimbabwean" x="112" y="24" width="24" height="24" />
	<use xlink:href="#currency-dong" x="156" y="24" width="24" height="24" />
	<use xlink:href="#currency-dram" x="200" y="24" width="24" height="24" />
	<use xlink:href="#currency-guarani" x="244" y="24" width="24" height="24" />
	<use xlink:href="#currency-hryvnia" x="24" y="68" width="24" height="24" />
	<use xlink:href="#currency-kip" x="68" y="68" width="24" height="24" />
	<use xlink:href="#currency-lari" x="112" y="68" width="24" height="24" />
	<use xlink:href="#currency-lyd" x="156" y="68" width="24" height="24" />
	<use xlink:href="#currency-manat" x="200" y="68" width="24" height="24" />
	<use xlink:href="#currency-monero" x="244" y="68" width="24" height="24" />
	<use xlink:href="#currency-paanga" x="24" y="112" width="24" height="24" />
	<use xlink:href="#currency-quetzal" x="68" y="112" width="24" height="24" />
	<use xlink:href="#currency-rufiyaa" x="112" y="112" width="24" height="24" />
	<use xlink:href="#currency-rupee-nepalese" x="156" y="112" width="24" height="24" />
	<use xlink:href="#currency-som" x="200" y="112" width="24" height="24" />
	<use xlink:href="#currency-tenge" x="244" y="112" width="24" height="24" />

</svg>