<svg xmlns="http://www.w3.org/2000/svg" xmlns:xlink="http://www.w3.org/1999/xlink" viewBox="0 0 322 172" width="322" height="172" style="color: #354052"><rect x="0" y="0" width="322" height="172" fill="#fff"></rect>
	<symbol id="ad-2" class="icon icon-tabler icon-tabler-ad-2" viewBox="0 0 24 24" stroke-width="2" stroke="currentColor" fill="none" stroke-linecap="round" stroke-linejoin="round"><path stroke="none" d="M0 0h24v24H0z" fill="none"/><path d="M11.933 5h-6.933v16h13v-8" /><path d="M14 17h-5" /><path d="M9 13h5v-4h-5z" /><path d="M15 5v-2" /><path d="M18 6l2 -2" /><path d="M19 9h2" />
</symbol>
	<symbol id="angle" class="icon icon-tabler icon-tabler-angle" viewBox="0 0 24 24" stroke-width="2" stroke="currentColor" fill="none" stroke-linecap="round" stroke-linejoin="round"><path stroke="none" d="M0 0h24v24H0z" fill="none"/><path d="M21 19h-18l9 -15" /><path d="M20.615 15.171h.015" /><path d="M19.515 11.771h.015" /><path d="M17.715 8.671h.015" /><path d="M15.415 5.971h.015" />
</symbol>
	<symbol id="apple" class="icon icon-tabler icon-tabler-apple" viewBox="0 0 24 24" stroke-width="2" stroke="currentColor" fill="none" stroke-linecap="round" stroke-linejoin="round"><path stroke="none" d="M0 0h24v24H0z" fill="none"/><circle cx="12" cy="14" r="7" /><path d="M12 11v-6a2 2 0 0 1 2 -2h2v1a2 2 0 0 1 -2 2h-2" /><path d="M10 10.5c1.333 .667 2.667 .667 4 0" />
</symbol>
	<symbol id="border-style-2" class="icon icon-tabler icon-tabler-border-style-2" viewBox="0 0 24 24" stroke-width="2" stroke="currentColor" fill="none" stroke-linecap="round" stroke-linejoin="round"><path stroke="none" d="M0 0h24v24H0z" fill="none"/><path d="M4 18v.01" /><path d="M8 18v.01" /><path d="M12 18v.01" /><path d="M16 18v.01" /><path d="M20 18v.01" /><path d="M18 12h2" /><path d="M11 12h2" /><path d="M4 12h2" /><path d="M4 6h16" />
</symbol>
	<symbol id="box-model-2" class="icon icon-tabler icon-tabler-box-model-2" viewBox="0 0 24 24" stroke-width="2" stroke="currentColor" fill="none" stroke-linecap="round" stroke-linejoin="round"><path stroke="none" d="M0 0h24v24H0z" fill="none"/><path d="M8 8h8v8h-8z" /><rect x="4" y="4" width="16" height="16" rx="2" />
</symbol>
	<symbol id="brand-vercel" class="icon icon-tabler icon-tabler-brand-vercel" viewBox="0 0 24 24" stroke-width="2" stroke="currentColor" fill="none" stroke-linecap="round" stroke-linejoin="round"><path stroke="none" d="M0 0h24v24H0z" fill="none"/><path d="M3 19h18l-9 -15z" />
</symbol>
	<symbol id="car-crane" class="icon icon-tabler icon-tabler-car-crane" viewBox="0 0 24 24" stroke-width="2" stroke="currentColor" fill="none" stroke-linecap="round" stroke-linejoin="round"><path stroke="none" d="M0 0h24v24H0z" fill="none"/><circle cx="5" cy="17" r="2" /><circle cx="17" cy="17" r="2" /><path d="M7 18h8m4 0h2v-6a5 5 0 0 0 -5 -5h-1l1.5 5h4.5" /><path d="M12 18v-11h3" /><path d="M3 17v-5h9" /><path d="M4 12v-6l18 -3v2" /><path d="M8 12v-4l-4 -2" />
</symbol>
	<symbol id="cheese" class="icon icon-tabler icon-tabler-cheese" viewBox="0 0 24 24" stroke-width="2" stroke="currentColor" fill="none" stroke-linecap="round" stroke-linejoin="round"><path stroke="none" d="M0 0h24v24H0z" fill="none"/><path d="M4.519 20.008l16.481 -.008v-3.5a2 2 0 1 1 0 -4v-3.5h-16.722" /><path d="M21 9l-9.385 -4.992c-2.512 .12 -4.758 1.42 -6.327 3.425c-1.423 1.82 -2.288 4.221 -2.288 6.854c0 2.117 .56 4.085 1.519 5.721" /><path d="M15 13v.01" /><path d="M8 13v.01" /><path d="M11 16v.01" />
</symbol>
	<symbol id="crane" class="icon icon-tabler icon-tabler-crane" viewBox="0 0 24 24" stroke-width="2" stroke="currentColor" fill="none" stroke-linecap="round" stroke-linejoin="round"><path stroke="none" d="M0 0h24v24H0z" fill="none"/><path d="M6 21h6" /><path d="M9 21v-18l-6 6h18" /><path d="M9 3l10 6" /><path d="M17 9v4a2 2 0 1 1 -2 2" />
</symbol>
	<symbol id="cup" class="icon icon-tabler icon-tabler-cup" viewBox="0 0 24 24" stroke-width="2" stroke="currentColor" fill="none" stroke-linecap="round" stroke-linejoin="round"><path stroke="none" d="M0 0h24v24H0z" fill="none"/><path d="M5 11h14v-3h-14z" /><path d="M17.5 11l-1.5 10h-8l-1.5 -10" /><path d="M6 8v-1a2 2 0 0 1 2 -2h8a2 2 0 0 1 2 2v1" /><path d="M15 5v-2" />
</symbol>
	<symbol id="dog-bowl" class="icon icon-tabler icon-tabler-dog-bowl" viewBox="0 0 24 24" stroke-width="2" stroke="currentColor" fill="none" stroke-linecap="round" stroke-linejoin="round"><path stroke="none" d="M0 0h24v24H0z" fill="none"/><path d="M10 15l5.586 -5.585a2 2 0 1 1 3.414 -1.415a2 2 0 1 1 -1.413 3.414l-3.587 3.586" /><path d="M12 13l-3.586 -3.585a2 2 0 1 0 -3.414 -1.415a2 2 0 1 0 1.413 3.414l3.587 3.586" /><path d="M3 20h18c-.175 -1.671 -.046 -3.345 -2 -5h-14c-1.333 1 -2 2.667 -2 5z" />
</symbol>
	<symbol id="fence" class="icon icon-tabler icon-tabler-fence" viewBox="0 0 24 24" stroke-width="2" stroke="currentColor" fill="none" stroke-linecap="round" stroke-linejoin="round"><path stroke="none" d="M0 0h24v24H0z" fill="none"/><path d="M4 12v4h16v-4z" /><path d="M6 16v4h4v-4m0 -4v-6l-2 -2l-2 2v6" /><path d="M14 16v4h4v-4m0 -4v-6l-2 -2l-2 2v6" />
</symbol>
	<symbol id="fish" class="icon icon-tabler icon-tabler-fish" viewBox="0 0 24 24" stroke-width="2" stroke="currentColor" fill="none" stroke-linecap="round" stroke-linejoin="round"><path stroke="none" d="M0 0h24v24H0z" fill="none"/><path d="M16.69 7.44a6.973 6.973 0 0 0 -1.69 4.56c0 1.747 .64 3.345 1.699 4.571" /><path d="M2 9.504c7.715 8.647 14.75 10.265 20 2.498c-5.25 -7.761 -12.285 -6.142 -20 2.504" /><path d="M18 11v.01" /><path d="M11.5 10.5c-.667 1 -.667 2 0 3" />
</symbol>
	<symbol id="microphone-2" class="icon icon-tabler icon-tabler-microphone-2" viewBox="0 0 24 24" stroke-width="2" stroke="currentColor" fill="none" stroke-linecap="round" stroke-linejoin="round"><path stroke="none" d="M0 0h24v24H0z" fill="none"/><path d="M15.002 12.9a5 5 0 1 0 -3.902 -3.9" /><path d="M15.002 12.9l-3.902 -3.899l-7.513 8.584a2 2 0 1 0 2.827 2.83l8.588 -7.515z" />
</symbol>
	<symbol id="radio" class="icon icon-tabler icon-tabler-radio" viewBox="0 0 24 24" stroke-width="2" stroke="currentColor" fill="none" stroke-linecap="round" stroke-linejoin="round"><path stroke="none" d="M0 0h24v24H0z" fill="none"/><path d="M14 3l-9.371 3.749a1 1 0 0 0 -.629 .928v11.323a1 1 0 0 0 1 1h14a1 1 0 0 0 1 -1v-11a1 1 0 0 0 -1 -1h-14.5" /><path d="M4 12h16" /><path d="M7 12v-2" /><path d="M17 16v.01" /><path d="M13 16v.01" />
</symbol>
	<symbol id="soup" class="icon icon-tabler icon-tabler-soup" viewBox="0 0 24 24" stroke-width="2" stroke="currentColor" fill="none" stroke-linecap="round" stroke-linejoin="round"><path stroke="none" d="M0 0h24v24H0z" fill="none"/><path d="M3 19h18" /><path d="M3 11h18a8 8 0 0 1 -8 8h-2a8 8 0 0 1 -8 -8z" /><path d="M9 8v-3" /><path d="M12 5v3" /><path d="M15 5v3" />
</symbol>
	<symbol id="transfer-in" class="icon icon-tabler icon-tabler-transfer-in" viewBox="0 0 24 24" stroke-width="2" stroke="currentColor" fill="none" stroke-linecap="round" stroke-linejoin="round"><path stroke="none" d="M0 0h24v24H0z" fill="none"/><path d="M4 18v3h16v-14l-8 -4l-8 4v3" /><path d="M4 14h9" /><path d="M10 11l3 3l-3 3" />
</symbol>
	<symbol id="transfer-out" class="icon icon-tabler icon-tabler-transfer-out" viewBox="0 0 24 24" stroke-width="2" stroke="currentColor" fill="none" stroke-linecap="round" stroke-linejoin="round"><path stroke="none" d="M0 0h24v24H0z" fill="none"/><path d="M4 19v2h16v-14l-8 -4l-8 4v2" /><path d="M13 14h-9" /><path d="M7 11l-3 3l3 3" />
</symbol>

	<use xlink:href="#ad-2" x="24" y="24" width="24" height="24" />
	<use xlink:href="#angle" x="74" y="24" width="24" height="24" />
	<use xlink:href="#apple" x="124" y="24" width="24" height="24" />
	<use xlink:href="#border-style-2" x="174" y="24" width="24" height="24" />
	<use xlink:href="#box-model-2" x="224" y="24" width="24" height="24" />
	<use xlink:href="#brand-vercel" x="274" y="24" width="24" height="24" />
	<use xlink:href="#car-crane" x="24" y="74" width="24" height="24" />
	<use xlink:href="#cheese" x="74" y="74" width="24" height="24" />
	<use xlink:href="#crane" x="124" y="74" width="24" height="24" />
	<use xlink:href="#cup" x="174" y="74" width="24" height="24" />
	<use xlink:href="#dog-bowl" x="224" y="74" width="24" height="24" />
	<use xlink:href="#fence" x="274" y="74" width="24" height="24" />
	<use xlink:href="#fish" x="24" y="124" width="24" height="24" />
	<use xlink:href="#microphone-2" x="74" y="124" width="24" height="24" />
	<use xlink:href="#radio" x="124" y="124" width="24" height="24" />
	<use xlink:href="#soup" x="174" y="124" width="24" height="24" />
	<use xlink:href="#transfer-in" x="224" y="124" width="24" height="24" />
	<use xlink:href="#transfer-out" x="274" y="124" width="24" height="24" />

</svg>