<svg xmlns="http://www.w3.org/2000/svg" xmlns:xlink="http://www.w3.org/1999/xlink" viewBox="0 0 292 204" width="292" height="204" style="color: #354052"><rect x="0" y="0" width="292" height="204" fill="#fff"></rect>
	<symbol id="brackets-angle-off" class="icon icon-tabler icon-tabler-brackets-angle-off" viewBox="0 0 24 24" stroke-width="2" stroke="currentColor" fill="none" stroke-linecap="round" stroke-linejoin="round"><path stroke="none" d="M0 0h24v24H0z" fill="none"/><path d="M8 4h.01" /><path d="M6.453 6.474l-3.453 5.526l5 8" /><path d="M16 4l5 8l-1.917 3.067" /><path d="M17.535 17.544l-1.535 2.456" /><path d="M3 3l18 18" />
</symbol>
	<symbol id="brackets-angle" class="icon icon-tabler icon-tabler-brackets-angle" viewBox="0 0 24 24" stroke-width="2" stroke="currentColor" fill="none" stroke-linecap="round" stroke-linejoin="round"><path stroke="none" d="M0 0h24v24H0z" fill="none"/><path d="M8 4l-5 8l5 8" /><path d="M16 4l5 8l-5 8" />
</symbol>
	<symbol id="brand-auth0" class="icon icon-tabler icon-tabler-brand-auth0" viewBox="0 0 24 24" stroke-width="2" stroke="currentColor" fill="none" stroke-linecap="round" stroke-linejoin="round"><path stroke="none" d="M0 0h24v24H0z" fill="none"/><path d="M12 14.5l-5.5 3.5l2 -6l-4.5 -4h6l2 -5l2 5h6l-4.5 4l2 6z" /><path d="M20.507 8.872l-2.01 -5.872h-12.994l-2.009 5.872c-1.242 3.593 -.135 7.094 3.249 9.407l5.257 3.721l5.257 -3.721c3.385 -2.313 4.49 -5.814 3.25 -9.407z" />
</symbol>
	<symbol id="burger" class="icon icon-tabler icon-tabler-burger" viewBox="0 0 24 24" stroke-width="2" stroke="currentColor" fill="none" stroke-linecap="round" stroke-linejoin="round"><path stroke="none" d="M0 0h24v24H0z" fill="none"/><path d="M4 15h16a4 4 0 0 1 -4 4h-8a4 4 0 0 1 -4 -4z" /><path d="M12 4c3.783 0 6.953 2.133 7.786 5h-15.572c.833 -2.867 4.003 -5 7.786 -5z" /><path d="M5 12h14" />
</symbol>
	<symbol id="fingerprint-scan" class="icon icon-tabler icon-tabler-fingerprint-scan" viewBox="0 0 24 24" stroke-width="2" stroke="currentColor" fill="none" stroke-linecap="round" stroke-linejoin="round"><path stroke="none" d="M0 0h24v24H0z" fill="none"/><path d="M9 11a3 3 0 0 1 6 0c0 1.657 .612 3.082 1 4" /><path d="M12 11v1.75c-.001 1.11 .661 2.206 1 3.25" /><path d="M9 14.25c.068 .58 .358 1.186 .5 1.75" /><path d="M4 8v-2a2 2 0 0 1 2 -2h2" /><path d="M4 16v2a2 2 0 0 0 2 2h2" /><path d="M16 4h2a2 2 0 0 1 2 2v2" /><path d="M16 20h2a2 2 0 0 0 2 -2v-2" />
</symbol>
	<symbol id="galaxy" class="icon icon-tabler icon-tabler-galaxy" viewBox="0 0 24 24" stroke-width="2" stroke="currentColor" fill="none" stroke-linecap="round" stroke-linejoin="round"><path stroke="none" d="M0 0h24v24H0z" fill="none"/><path d="M12 3c-1.333 1 -2 2.5 -2 4.5c0 3 2 4.5 2 4.5s2 1.5 2 4.5c0 2 -.667 3.5 -2 4.5" /><path d="M19.794 16.5c-.2 -1.655 -1.165 -2.982 -2.897 -3.982c-2.597 -1.5 -4.897 -.518 -4.897 -.518s-2.299 .982 -4.897 -.518c-1.732 -1 -2.698 -2.327 -2.897 -3.982" /><path d="M19.794 7.5c-1.532 -.655 -3.165 -.482 -4.897 .518c-2.597 1.5 -2.897 3.982 -2.897 3.982s-.299 2.482 -2.897 3.982c-1.732 1 -3.365 1.173 -4.897 .518" />
</symbol>
	<symbol id="horseshoe" class="icon icon-tabler icon-tabler-horseshoe" viewBox="0 0 24 24" stroke-width="2" stroke="currentColor" fill="none" stroke-linecap="round" stroke-linejoin="round"><path stroke="none" d="M0 0h24v24H0z" fill="none"/><path d="M19 17c.5 -1.242 2 -2 2 -5s-1 -9 -9 -9s-9 6 -9 9s1.495 3.749 2 5l-2 1l2 3l2.406 -1.147c1.25 -.714 1.778 -2.08 1.203 -3.363c-1.078 -2.407 -1.609 -8.49 3.391 -8.49s4.469 6.083 3.39 8.49c-.574 1.284 -.045 2.649 1.204 3.363l2.406 1.147l2 -3l-2 -1z" />
</symbol>
	<symbol id="line-scan" class="icon icon-tabler icon-tabler-line-scan" viewBox="0 0 24 24" stroke-width="2" stroke="currentColor" fill="none" stroke-linecap="round" stroke-linejoin="round"><path stroke="none" d="M0 0h24v24H0z" fill="none"/><path d="M4 8v-2a2 2 0 0 1 2 -2h2" /><path d="M4 16v2a2 2 0 0 0 2 2h2" /><path d="M16 4h2a2 2 0 0 1 2 2v2" /><path d="M16 20h2a2 2 0 0 0 2 -2v-2" /><path d="M7 12h10" />
</symbol>
	<symbol id="magnetic" class="icon icon-tabler icon-tabler-magnetic" viewBox="0 0 24 24" stroke-width="2" stroke="currentColor" fill="none" stroke-linecap="round" stroke-linejoin="round"><path stroke="none" d="M0 0h24v24H0z" fill="none"/><path d="M12 3v18" /><path d="M18 7c-.633 -1.255 -1.538 -2 -2.5 -2c-1.933 0 -3.5 3.134 -3.5 7s1.567 7 3.5 7s3.5 -3.134 3.5 -7v-1" /><path d="M6 7c.633 -1.255 1.538 -2 2.5 -2c1.933 0 3.5 3.134 3.5 7s-1.567 7 -3.5 7s-3.5 -3.134 -3.5 -7v-1" /><path d="M3 13l2 -2l2 2" /><path d="M17 13l2 -2l2 2" />
</symbol>
	<symbol id="navigation-east" class="icon icon-tabler icon-tabler-navigation-east" viewBox="0 0 24 24" stroke-width="2" stroke="currentColor" fill="none" stroke-linecap="round" stroke-linejoin="round"><path stroke="none" d="M0 0h24v24H0z" fill="none"/><path d="M14 3h-4v6h4" /><path d="M10 6h2.5" /><path d="M16 21l-4 -8l-4 8l4 -2z" />
</symbol>
	<symbol id="navigation-north" class="icon icon-tabler icon-tabler-navigation-north" viewBox="0 0 24 24" stroke-width="2" stroke="currentColor" fill="none" stroke-linecap="round" stroke-linejoin="round"><path stroke="none" d="M0 0h24v24H0z" fill="none"/><path d="M16 21l-4 -8l-4 8l4 -2z" /><path d="M10 9v-6l4 6v-6" />
</symbol>
	<symbol id="navigation-south" class="icon icon-tabler icon-tabler-navigation-south" viewBox="0 0 24 24" stroke-width="2" stroke="currentColor" fill="none" stroke-linecap="round" stroke-linejoin="round"><path stroke="none" d="M0 0h24v24H0z" fill="none"/><path d="M10 8.25c0 .414 .336 .75 .75 .75h2.25a1 1 0 0 0 1 -1v-1a1 1 0 0 0 -1 -1h-2a1 1 0 0 1 -1 -1v-1a1 1 0 0 1 1 -1h2.25a.75 .75 0 0 1 .75 .75" /><path d="M16 21l-4 -8l-4 8l4 -2z" />
</symbol>
	<symbol id="navigation-west" class="icon icon-tabler icon-tabler-navigation-west" viewBox="0 0 24 24" stroke-width="2" stroke="currentColor" fill="none" stroke-linecap="round" stroke-linejoin="round"><path stroke="none" d="M0 0h24v24H0z" fill="none"/><path d="M9 3l1 6l2 -3.75l2 3.75l1 -6" /><path d="M16 21l-4 -8l-4 8l4 -2z" />
</symbol>
	<symbol id="robot-face" class="icon icon-tabler icon-tabler-robot-face" viewBox="0 0 24 24" stroke-width="2" stroke="currentColor" fill="none" stroke-linecap="round" stroke-linejoin="round"><path stroke="none" d="M0 0h24v24H0z" fill="none"/><path d="M6 5h12a2 2 0 0 1 2 2v12a2 2 0 0 1 -2 2h-12a2 2 0 0 1 -2 -2v-12a2 2 0 0 1 2 -2z" /><path d="M9 16c1 .667 2 1 3 1s2 -.333 3 -1" /><path d="M9 7l-1 -4" /><path d="M15 7l1 -4" /><path d="M9 12v-1" /><path d="M15 12v-1" />
</symbol>
	<symbol id="route-scan" class="icon icon-tabler icon-tabler-route-scan" viewBox="0 0 24 24" stroke-width="2" stroke="currentColor" fill="none" stroke-linecap="round" stroke-linejoin="round"><path stroke="none" d="M0 0h24v24H0z" fill="none"/><path d="M4 8v-2a2 2 0 0 1 2 -2h2" /><path d="M4 16v2a2 2 0 0 0 2 2h2" /><path d="M16 4h2a2 2 0 0 1 2 2v2" /><path d="M16 20h2a2 2 0 0 0 2 -2v-2" /><path d="M7 12v-3h3" /><path d="M14 9h3v3" /><path d="M7 9l4.414 4.414a2 2 0 0 1 .586 1.414v2.172" /><path d="M17 9l-4.414 4.414a2 2 0 0 0 -.586 1.414v2.172" />
</symbol>
	<symbol id="rv-truck" class="icon icon-tabler icon-tabler-rv-truck" viewBox="0 0 24 24" stroke-width="2" stroke="currentColor" fill="none" stroke-linecap="round" stroke-linejoin="round"><path stroke="none" d="M0 0h24v24H0z" fill="none"/><path d="M7 17m-2 0a2 2 0 1 0 4 0a2 2 0 1 0 -4 0" /><path d="M17 17m-2 0a2 2 0 1 0 4 0a2 2 0 1 0 -4 0" /><path d="M9 17h6" /><path d="M19 17h1a1 1 0 0 0 1 -1v-4.528a2 2 0 0 0 -.211 -.894l-.96 -1.92a3 3 0 0 0 -2.683 -1.658h-11.146a3 3 0 0 0 -3 3v6a1 1 0 0 0 1 1h1" /><path d="M3 12h18" /><path d="M15 12v-5" /><path d="M6 4m0 1.5a1.5 1.5 0 0 1 1.5 -1.5h7a1.5 1.5 0 0 1 1.5 1.5v0a1.5 1.5 0 0 1 -1.5 1.5h-7a1.5 1.5 0 0 1 -1.5 -1.5z" />
</symbol>
	<symbol id="solar-electricity" class="icon icon-tabler icon-tabler-solar-electricity" viewBox="0 0 24 24" stroke-width="2" stroke="currentColor" fill="none" stroke-linecap="round" stroke-linejoin="round"><path stroke="none" d="M0 0h24v24H0z" fill="none"/><path d="M4 6.28v11.44a1 1 0 0 0 1.243 .97l6 -1.5a1 1 0 0 0 .757 -.97v-8.44a1 1 0 0 0 -.757 -.97l-6 -1.5a1 1 0 0 0 -1.243 .97z" /><path d="M8 6v12" /><path d="M12 12h-8" /><path d="M20 7l-3 5h4l-3 5" />
</symbol>
	<symbol id="sun-electricity" class="icon icon-tabler icon-tabler-sun-electricity" viewBox="0 0 24 24" stroke-width="2" stroke="currentColor" fill="none" stroke-linecap="round" stroke-linejoin="round"><path stroke="none" d="M0 0h24v24H0z" fill="none"/><path d="M8 12a4 4 0 0 0 4 4m0 -8a4 4 0 0 0 -4 4" /><path d="M3 12h1" /><path d="M12 3v1" /><path d="M12 20v1" /><path d="M5.6 5.6l.7 .7" /><path d="M6.3 17.7l-.7 .7" /><path d="M20 7l-3 5h4l-3 5" />
</symbol>
	<symbol id="text-scan-2" class="icon icon-tabler icon-tabler-text-scan-2" viewBox="0 0 24 24" stroke-width="2" stroke="currentColor" fill="none" stroke-linecap="round" stroke-linejoin="round"><path stroke="none" d="M0 0h24v24H0z" fill="none"/><path d="M4 8v-2a2 2 0 0 1 2 -2h2" /><path d="M4 16v2a2 2 0 0 0 2 2h2" /><path d="M16 4h2a2 2 0 0 1 2 2v2" /><path d="M16 20h2a2 2 0 0 0 2 -2v-2" /><path d="M8 12h8" /><path d="M8 9h6" /><path d="M8 15h4" />
</symbol>
	<symbol id="universe" class="icon icon-tabler icon-tabler-universe" viewBox="0 0 24 24" stroke-width="2" stroke="currentColor" fill="none" stroke-linecap="round" stroke-linejoin="round"><path stroke="none" d="M0 0h24v24H0z" fill="none"/><path d="M7.027 11.477a5 5 0 1 0 5.496 -4.45a4.951 4.951 0 0 0 -3.088 .681" /><path d="M5.636 5.636a9 9 0 1 0 3.555 -2.188" /><path d="M18 5m-1 0a1 1 0 1 0 2 0a1 1 0 1 0 -2 0" /><path d="M12 12m-1 0a1 1 0 1 0 2 0a1 1 0 1 0 -2 0" /><path d="M9 16m-1 0a1 1 0 1 0 2 0a1 1 0 1 0 -2 0" />
</symbol>
	<symbol id="waves-electricity" class="icon icon-tabler icon-tabler-waves-electricity" viewBox="0 0 24 24" stroke-width="2" stroke="currentColor" fill="none" stroke-linecap="round" stroke-linejoin="round"><path stroke="none" d="M0 0h24v24H0z" fill="none"/><path d="M3 12c.576 -.643 1.512 -1.017 2.5 -1c.988 -.017 1.924 .357 2.5 1c.576 .643 1.512 1.017 2.5 1c.988 .017 1.924 -.357 2.5 -1" /><path d="M3 16c.576 -.643 1.512 -1.017 2.5 -1c.988 -.017 1.924 .357 2.5 1c.576 .643 1.512 1.017 2.5 1c.988 .017 1.924 -.357 2.5 -1" /><path d="M3 8c.576 -.643 1.512 -1.017 2.5 -1c.988 -.017 1.924 .357 2.5 1c.576 .643 1.512 1.017 2.5 1c.988 .017 1.924 -.357 2.5 -1" /><path d="M20 7l-3 5h4l-3 5" />
</symbol>
	<symbol id="wind-electricity" class="icon icon-tabler icon-tabler-wind-electricity" viewBox="0 0 24 24" stroke-width="2" stroke="currentColor" fill="none" stroke-linecap="round" stroke-linejoin="round"><path stroke="none" d="M0 0h24v24H0z" fill="none"/><path d="M20 7l-3 5h4l-3 5" /><path d="M3 16h4a2 2 0 1 1 0 4" /><path d="M3 12h8a2 2 0 1 0 0 -4" /><path d="M3 8h3a2 2 0 1 0 0 -4" />
</symbol>

	<use xlink:href="#brackets-angle-off" x="24" y="24" width="24" height="24" />
	<use xlink:href="#brackets-angle" x="68" y="24" width="24" height="24" />
	<use xlink:href="#brand-auth0" x="112" y="24" width="24" height="24" />
	<use xlink:href="#burger" x="156" y="24" width="24" height="24" />
	<use xlink:href="#fingerprint-scan" x="200" y="24" width="24" height="24" />
	<use xlink:href="#galaxy" x="244" y="24" width="24" height="24" />
	<use xlink:href="#horseshoe" x="24" y="68" width="24" height="24" />
	<use xlink:href="#line-scan" x="68" y="68" width="24" height="24" />
	<use xlink:href="#magnetic" x="112" y="68" width="24" height="24" />
	<use xlink:href="#navigation-east" x="156" y="68" width="24" height="24" />
	<use xlink:href="#navigation-north" x="200" y="68" width="24" height="24" />
	<use xlink:href="#navigation-south" x="244" y="68" width="24" height="24" />
	<use xlink:href="#navigation-west" x="24" y="112" width="24" height="24" />
	<use xlink:href="#robot-face" x="68" y="112" width="24" height="24" />
	<use xlink:href="#route-scan" x="112" y="112" width="24" height="24" />
	<use xlink:href="#rv-truck" x="156" y="112" width="24" height="24" />
	<use xlink:href="#solar-electricity" x="200" y="112" width="24" height="24" />
	<use xlink:href="#sun-electricity" x="244" y="112" width="24" height="24" />
	<use xlink:href="#text-scan-2" x="24" y="156" width="24" height="24" />
	<use xlink:href="#universe" x="68" y="156" width="24" height="24" />
	<use xlink:href="#waves-electricity" x="112" y="156" width="24" height="24" />
	<use xlink:href="#wind-electricity" x="156" y="156" width="24" height="24" />

</svg>