<svg xmlns="http://www.w3.org/2000/svg" xmlns:xlink="http://www.w3.org/1999/xlink" viewBox="0 0 292 248" width="292" height="248" style="color: #354052"><rect x="0" y="0" width="292" height="248" fill="#fff"></rect>
	<symbol id="activity-heartbeat" class="icon icon-tabler icon-tabler-activity-heartbeat" viewBox="0 0 24 24" stroke-width="2" stroke="currentColor" fill="none" stroke-linecap="round" stroke-linejoin="round"><path stroke="none" d="M0 0h24v24H0z" fill="none"/><path d="M3 12h4.5l1.5 -6l4 12l2 -9l1.5 3h4.5" />
</symbol>
	<symbol id="brand-adobe" class="icon icon-tabler icon-tabler-brand-adobe" viewBox="0 0 24 24" stroke-width="2" stroke="currentColor" fill="none" stroke-linecap="round" stroke-linejoin="round"><path stroke="none" d="M0 0h24v24H0z" fill="none"/><path d="M12.893 4.514l7.977 13.994a0.993 .993 0 0 1 -.394 1.365a1.04 1.04 0 0 1 -.5 .127h-3.476l-4.5 -8l-2.5 4h1.5l2 4h-8.977c-.565 0 -1.023 -.45 -1.023 -1.003c0 -.171 .045 -.34 .13 -.49l7.977 -13.993a1.034 1.034 0 0 1 1.786 0z" />
</symbol>
	<symbol id="brand-nextjs" class="icon icon-tabler icon-tabler-brand-nextjs" viewBox="0 0 24 24" stroke-width="2" stroke="currentColor" fill="none" stroke-linecap="round" stroke-linejoin="round"><path stroke="none" d="M0 0h24v24H0z" fill="none"/><path d="M9 15v-6l7.745 10.65a9 9 0 1 1 2.255 -1.993" /><path d="M15 12v-3" />
</symbol>
	<symbol id="brand-nuxt" class="icon icon-tabler icon-tabler-brand-nuxt" viewBox="0 0 24 24" stroke-width="2" stroke="currentColor" fill="none" stroke-linecap="round" stroke-linejoin="round"><path stroke="none" d="M0 0h24v24H0z" fill="none"/><path d="M12.146 8.583l-1.3 -2.09a1.046 1.046 0 0 0 -1.786 .017l-5.91 9.908a1.046 1.046 0 0 0 .897 1.582h3.913" /><path d="M20.043 18c.743 0 1.201 -.843 .82 -1.505l-4.044 -7.013a0.936 .936 0 0 0 -1.638 0l-4.043 7.013c-.382 .662 .076 1.505 .819 1.505h8.086z" />
</symbol>
	<symbol id="brand-svelte" class="icon icon-tabler icon-tabler-brand-svelte" viewBox="0 0 24 24" stroke-width="2" stroke="currentColor" fill="none" stroke-linecap="round" stroke-linejoin="round"><path stroke="none" d="M0 0h24v24H0z" fill="none"/><path d="M15 8l-5 3l.821 -.495c1.86 -1.15 4.412 -.49 5.574 1.352a3.91 3.91 0 0 1 -1.264 5.42l-5.053 3.126c-1.86 1.151 -4.312 .591 -5.474 -1.251a3.91 3.91 0 0 1 1.263 -5.42l.26 -.16" /><path d="M8 17l5 -3l-.822 .496c-1.86 1.151 -4.411 .491 -5.574 -1.351a3.91 3.91 0 0 1 1.264 -5.42l5.054 -3.127c1.86 -1.15 4.311 -.59 5.474 1.252a3.91 3.91 0 0 1 -1.264 5.42l-.26 .16" />
</symbol>
	<symbol id="brand-vue" class="icon icon-tabler icon-tabler-brand-vue" viewBox="0 0 24 24" stroke-width="2" stroke="currentColor" fill="none" stroke-linecap="round" stroke-linejoin="round"><path stroke="none" d="M0 0h24v24H0z" fill="none"/><path d="M18.5 5l-6.5 10l-6.5 -10" /><path d="M15 5l-3 4.5l-3 -4.5h-7l10 16l10 -16z" />
</symbol>
	<symbol id="gender-agender" class="icon icon-tabler icon-tabler-gender-agender" viewBox="0 0 24 24" stroke-width="2" stroke="currentColor" fill="none" stroke-linecap="round" stroke-linejoin="round"><path stroke="none" d="M0 0h24v24H0z" fill="none"/><circle cx="12" cy="12" r="6" /><path d="M7 12h11" />
</symbol>
	<symbol id="gender-androgyne" class="icon icon-tabler icon-tabler-gender-androgyne" viewBox="0 0 24 24" stroke-width="2" stroke="currentColor" fill="none" stroke-linecap="round" stroke-linejoin="round"><path stroke="none" d="M0 0h24v24H0z" fill="none"/><path d="M13 11l6 -6" /><circle cx="9" cy="15" r="5" /><path d="M19 9v-4h-4" /><path d="M16.5 10.5l-3 -3" />
</symbol>
	<symbol id="gender-bigender" class="icon icon-tabler icon-tabler-gender-bigender" viewBox="0 0 24 24" stroke-width="2" stroke="currentColor" fill="none" stroke-linecap="round" stroke-linejoin="round"><path stroke="none" d="M0 0h24v24H0z" fill="none"/><circle cx="11" cy="11" r="4" /><path d="M19 3l-5 5" /><path d="M15 3h4v4" /><path d="M11 16v6" /><path d="M8 19h6" />
</symbol>
	<symbol id="gender-demiboy" class="icon icon-tabler icon-tabler-gender-demiboy" viewBox="0 0 24 24" stroke-width="2" stroke="currentColor" fill="none" stroke-linecap="round" stroke-linejoin="round"><path stroke="none" d="M0 0h24v24H0z" fill="none"/><circle cx="10" cy="14" r="5" /><path d="M19 5l-5.4 5.4" /><path d="M19 5h-5" />
</symbol>
	<symbol id="gender-demigirl" class="icon icon-tabler icon-tabler-gender-demigirl" viewBox="0 0 24 24" stroke-width="2" stroke="currentColor" fill="none" stroke-linecap="round" stroke-linejoin="round"><path stroke="none" d="M0 0h24v24H0z" fill="none"/><circle cx="12" cy="9" r="5" /><path d="M12 14v7" /><path d="M9 18h3" />
</symbol>
	<symbol id="gender-epicene" class="icon icon-tabler icon-tabler-gender-epicene" viewBox="0 0 24 24" stroke-width="2" stroke="currentColor" fill="none" stroke-linecap="round" stroke-linejoin="round"><path stroke="none" d="M0 0h24v24H0z" fill="none"/><circle transform="rotate(-45 12 12)" cx="12" cy="12" r="5" /><path d="M15.536 15.535l5.464 -5.535" /><path d="M3 14l5.464 -5.535" /><path d="M12 12h.01" />
</symbol>
	<symbol id="gender-female" class="icon icon-tabler icon-tabler-gender-female" viewBox="0 0 24 24" stroke-width="2" stroke="currentColor" fill="none" stroke-linecap="round" stroke-linejoin="round"><path stroke="none" d="M0 0h24v24H0z" fill="none"/><circle cx="12" cy="9" r="5" /><path d="M12 14v7" /><path d="M9 18h6" />
</symbol>
	<symbol id="gender-femme" class="icon icon-tabler icon-tabler-gender-femme" viewBox="0 0 24 24" stroke-width="2" stroke="currentColor" fill="none" stroke-linecap="round" stroke-linejoin="round"><path stroke="none" d="M0 0h24v24H0z" fill="none"/><circle cx="12" cy="9" r="5" /><path d="M12 14v7" /><path d="M7 18h10" />
</symbol>
	<symbol id="gender-genderfluid" class="icon icon-tabler icon-tabler-gender-genderfluid" viewBox="0 0 24 24" stroke-width="2" stroke="currentColor" fill="none" stroke-linecap="round" stroke-linejoin="round"><path stroke="none" d="M0 0h24v24H0z" fill="none"/><g transform="rotate(30 -2.778 22.523)"><circle cx="4.759" cy="6.021" r="4" /><path d="M8.758 6.02v-6" /><path d="M.758 12.02v-6" /></g><path d="M12 12h.01" /><path d="M9 9l-6 -6" /><path d="M5.5 8.5l3 -3" /><path d="M21 21l-6 -6" /><path d="M17 20l3 -3" /><path d="M3 7v-4h4" />
</symbol>
	<symbol id="gender-genderless" class="icon icon-tabler icon-tabler-gender-genderless" viewBox="0 0 24 24" stroke-width="2" stroke="currentColor" fill="none" stroke-linecap="round" stroke-linejoin="round"><path stroke="none" d="M0 0h24v24H0z" fill="none"/><circle transform="matrix(1 0 0 -1 0 30)" cx="12" cy="15" r="5" /><path d="M12 10v-7" /><path d="M7 15h10" />
</symbol>
	<symbol id="gender-genderqueer" class="icon icon-tabler icon-tabler-gender-genderqueer" viewBox="0 0 24 24" stroke-width="2" stroke="currentColor" fill="none" stroke-linecap="round" stroke-linejoin="round"><path stroke="none" d="M0 0h24v24H0z" fill="none"/><circle transform="matrix(1 0 0 -1 0 32)" cx="12" cy="16" r="5" /><path d="M12 11v-8" /><path d="M14.5 4.5l-5 3" /><path d="M9.5 4.5l5 3" />
</symbol>
	<symbol id="gender-hermaphrodite" class="icon icon-tabler icon-tabler-gender-hermaphrodite" viewBox="0 0 24 24" stroke-width="2" stroke="currentColor" fill="none" stroke-linecap="round" stroke-linejoin="round"><path stroke="none" d="M0 0h24v24H0z" fill="none"/><path d="M12 14v7" /><path d="M9 18h6" /><circle transform="matrix(1 0 0 -1 0 20)" cx="12" cy="10" r="4" /><path d="M15 3a3 3 0 0 1 -6 0" />
</symbol>
	<symbol id="gender-intergender" class="icon icon-tabler icon-tabler-gender-intergender" viewBox="0 0 24 24" stroke-width="2" stroke="currentColor" fill="none" stroke-linecap="round" stroke-linejoin="round"><path stroke="none" d="M0 0h24v24H0z" fill="none"/><path d="M13.5 11.5l6.5 6.5v-4" /><path d="M11.5 13.5l6.5 6.5" /><circle transform="matrix(1 0 0 -1 0 18)" cx="9" cy="9" r="5" /><path d="M14 20l2 -2" />
</symbol>
	<symbol id="gender-male" class="icon icon-tabler icon-tabler-gender-male" viewBox="0 0 24 24" stroke-width="2" stroke="currentColor" fill="none" stroke-linecap="round" stroke-linejoin="round"><path stroke="none" d="M0 0h24v24H0z" fill="none"/><circle cx="10" cy="14" r="5" /><path d="M19 5l-5.4 5.4" /><path d="M19 5h-5" /><path d="M19 5v5" />
</symbol>
	<symbol id="gender-neutrois" class="icon icon-tabler icon-tabler-gender-neutrois" viewBox="0 0 24 24" stroke-width="2" stroke="currentColor" fill="none" stroke-linecap="round" stroke-linejoin="round"><path stroke="none" d="M0 0h24v24H0z" fill="none"/><circle transform="matrix(1 0 0 -1 0 30)" cx="12" cy="15" r="5" /><path d="M12 10v-7" />
</symbol>
	<symbol id="gender-third" class="icon icon-tabler icon-tabler-gender-third" viewBox="0 0 24 24" stroke-width="2" stroke="currentColor" fill="none" stroke-linecap="round" stroke-linejoin="round"><path stroke="none" d="M0 0h24v24H0z" fill="none"/><circle transform="rotate(90 16 12)" cx="16" cy="12" r="5" /><path d="M11 12h-3" /><path d="M8 12l-5 -4v8z" />
</symbol>
	<symbol id="gender-transgender" class="icon icon-tabler icon-tabler-gender-transgender" viewBox="0 0 24 24" stroke-width="2" stroke="currentColor" fill="none" stroke-linecap="round" stroke-linejoin="round"><path stroke="none" d="M0 0h24v24H0z" fill="none"/><circle cx="12" cy="12" r="4" /><path d="M15 9l6 -6" /><path d="M21 7v-4h-4" /><path d="M9 9l-6 -6" /><path d="M3 7v-4h4" /><path d="M5.5 8.5l3 -3" /><path d="M12 16v5" /><path d="M9.5 19h5" />
</symbol>
	<symbol id="gender-trasvesti" class="icon icon-tabler icon-tabler-gender-trasvesti" viewBox="0 0 24 24" stroke-width="2" stroke="currentColor" fill="none" stroke-linecap="round" stroke-linejoin="round"><path stroke="none" d="M0 0h24v24H0z" fill="none"/><path d="M15 20a5 5 0 1 1 0 -10a5 5 0 0 1 0 10z" /><path d="M6 6l5.4 5.4" /><path d="M4 8l4 -4" />
</symbol>
	<symbol id="heart-handshake" class="icon icon-tabler icon-tabler-heart-handshake" viewBox="0 0 24 24" stroke-width="2" stroke="currentColor" fill="none" stroke-linecap="round" stroke-linejoin="round"><path stroke="none" d="M0 0h24v24H0z" fill="none"/><path d="M19.5 13.572l-7.5 7.428l-7.5 -7.428a5 5 0 1 1 7.5 -6.566a5 5 0 1 1 7.5 6.572" /><path d="M12 7l-3.293 3.293a1 1 0 0 0 0 1.414l.543 .543c.69 .69 1.81 .69 2.5 0l1 -1a3.182 3.182 0 0 1 4.5 0l2.25 2.25" /><path d="M12.5 16.5l2 2" /><path d="M15 14l2 2" />
</symbol>
	<symbol id="math-avg" class="icon icon-tabler icon-tabler-math-avg" viewBox="0 0 24 24" stroke-width="2" stroke="currentColor" fill="none" stroke-linecap="round" stroke-linejoin="round"><path stroke="none" d="M0 0h24v24H0z" fill="none"/><path d="M3 21l18 -18" /><circle cx="12" cy="12" r="8" />
</symbol>
	<symbol id="math-max" class="icon icon-tabler icon-tabler-math-max" viewBox="0 0 24 24" stroke-width="2" stroke="currentColor" fill="none" stroke-linecap="round" stroke-linejoin="round"><path stroke="none" d="M0 0h24v24H0z" fill="none"/><circle cx="12" cy="5" r="2" /><path d="M3 20c0 -8.75 4 -14 7 -14.5m4 0c3 .5 7 5.75 7 14.5" />
</symbol>
	<symbol id="math-min" class="icon icon-tabler icon-tabler-math-min" viewBox="0 0 24 24" stroke-width="2" stroke="currentColor" fill="none" stroke-linecap="round" stroke-linejoin="round"><path stroke="none" d="M0 0h24v24H0z" fill="none"/><circle transform="matrix(1 0 0 -1 0 38)" cx="12" cy="19" r="2" /><path d="M3 4c0 8.75 4 14 7 14.5m4 0c3 -.5 7 -5.75 7 -14.5" />
</symbol>

	<use xlink:href="#activity-heartbeat" x="24" y="24" width="24" height="24" />
	<use xlink:href="#brand-adobe" x="68" y="24" width="24" height="24" />
	<use xlink:href="#brand-nextjs" x="112" y="24" width="24" height="24" />
	<use xlink:href="#brand-nuxt" x="156" y="24" width="24" height="24" />
	<use xlink:href="#brand-svelte" x="200" y="24" width="24" height="24" />
	<use xlink:href="#brand-vue" x="244" y="24" width="24" height="24" />
	<use xlink:href="#gender-agender" x="24" y="68" width="24" height="24" />
	<use xlink:href="#gender-androgyne" x="68" y="68" width="24" height="24" />
	<use xlink:href="#gender-bigender" x="112" y="68" width="24" height="24" />
	<use xlink:href="#gender-demiboy" x="156" y="68" width="24" height="24" />
	<use xlink:href="#gender-demigirl" x="200" y="68" width="24" height="24" />
	<use xlink:href="#gender-epicene" x="244" y="68" width="24" height="24" />
	<use xlink:href="#gender-female" x="24" y="112" width="24" height="24" />
	<use xlink:href="#gender-femme" x="68" y="112" width="24" height="24" />
	<use xlink:href="#gender-genderfluid" x="112" y="112" width="24" height="24" />
	<use xlink:href="#gender-genderless" x="156" y="112" width="24" height="24" />
	<use xlink:href="#gender-genderqueer" x="200" y="112" width="24" height="24" />
	<use xlink:href="#gender-hermaphrodite" x="244" y="112" width="24" height="24" />
	<use xlink:href="#gender-intergender" x="24" y="156" width="24" height="24" />
	<use xlink:href="#gender-male" x="68" y="156" width="24" height="24" />
	<use xlink:href="#gender-neutrois" x="112" y="156" width="24" height="24" />
	<use xlink:href="#gender-third" x="156" y="156" width="24" height="24" />
	<use xlink:href="#gender-transgender" x="200" y="156" width="24" height="24" />
	<use xlink:href="#gender-trasvesti" x="244" y="156" width="24" height="24" />
	<use xlink:href="#heart-handshake" x="24" y="200" width="24" height="24" />
	<use xlink:href="#math-avg" x="68" y="200" width="24" height="24" />
	<use xlink:href="#math-max" x="112" y="200" width="24" height="24" />
	<use xlink:href="#math-min" x="156" y="200" width="24" height="24" />

</svg>