<svg xmlns="http://www.w3.org/2000/svg" xmlns:xlink="http://www.w3.org/1999/xlink" viewBox="0 0 292 160" width="292" height="160" style="color: #354052"><rect x="0" y="0" width="292" height="160" fill="#fff"></rect>
	<symbol id="brand-deezer" class="icon icon-tabler icon-tabler-brand-deezer" viewBox="0 0 24 24" stroke-width="2" stroke="currentColor" fill="none" stroke-linecap="round" stroke-linejoin="round"><path stroke="none" d="M0 0h24v24H0z" fill="none"/><path d="M3 16.5h2v.5h-2z" /><path d="M8 16.5h2.5v.5h-2.5z" /><path d="M16 17h-2.5v-.5h2.5z" /><path d="M21.5 17h-2.5v-.5h2.5z" /><path d="M21.5 13h-2.5v.5h2.5z" /><path d="M21.5 9.5h-2.5v.5h2.5z" /><path d="M21.5 6h-2.5v.5h2.5z" /><path d="M16 13h-2.5v.5h2.5z" /><path d="M8 13.5h2.5v-.5h-2.5z" /><path d="M8 9.5h2.5v.5h-2.5z" />
</symbol>
	<symbol id="brand-framer-motion" class="icon icon-tabler icon-tabler-brand-framer-motion" viewBox="0 0 24 24" stroke-width="2" stroke="currentColor" fill="none" stroke-linecap="round" stroke-linejoin="round"><path stroke="none" d="M0 0h24v24H0z" fill="none"/><path d="M12 12l-8 -8v16l16 -16v16l-4 -4" /><path d="M20 12l-8 8l-4 -4" />
</symbol>
	<symbol id="brand-golang" class="icon icon-tabler icon-tabler-brand-golang" viewBox="0 0 24 24" stroke-width="2" stroke="currentColor" fill="none" stroke-linecap="round" stroke-linejoin="round"><path stroke="none" d="M0 0h24v24H0z" fill="none"/><path d="M15.695 14.305c1.061 1.06 2.953 .888 4.226 -.384c1.272 -1.273 1.444 -3.165 .384 -4.226c-1.061 -1.06 -2.953 -.888 -4.226 .384c-1.272 1.273 -1.444 3.165 -.384 4.226z" /><path d="M12.68 9.233c-1.084 -.497 -2.545 -.191 -3.591 .846c-1.284 1.273 -1.457 3.165 -.388 4.226c1.07 1.06 2.978 .888 4.261 -.384a3.669 3.669 0 0 0 1.038 -1.921h-2.427" /><path d="M5.5 15h-1.5" /><path d="M6 9h-2" /><path d="M5 12h-3" />
</symbol>
	<symbol id="brand-openai" class="icon icon-tabler icon-tabler-brand-openai" viewBox="0 0 24 24" stroke-width="2" stroke="currentColor" fill="none" stroke-linecap="round" stroke-linejoin="round"><path stroke="none" d="M0 0h24v24H0z" fill="none"/><path d="M11.217 19.384a3.501 3.501 0 0 0 6.783 -1.217v-5.167l-6 -3.35" /><path d="M5.214 15.014a3.501 3.501 0 0 0 4.446 5.266l4.34 -2.534v-6.946" /><path d="M6 7.63c-1.391 -.236 -2.787 .395 -3.534 1.689a3.474 3.474 0 0 0 1.271 4.745l4.263 2.514l6 -3.348" /><path d="M12.783 4.616a3.501 3.501 0 0 0 -6.783 1.217v5.067l6 3.45" /><path d="M18.786 8.986a3.501 3.501 0 0 0 -4.446 -5.266l-4.34 2.534v6.946" /><path d="M18 16.302c1.391 .236 2.787 -.395 3.534 -1.689a3.474 3.474 0 0 0 -1.271 -4.745l-4.308 -2.514l-5.955 3.42" />
</symbol>
	<symbol id="brand-planetscale" class="icon icon-tabler icon-tabler-brand-planetscale" viewBox="0 0 24 24" stroke-width="2" stroke="currentColor" fill="none" stroke-linecap="round" stroke-linejoin="round"><path stroke="none" d="M0 0h24v24H0z" fill="none"/><path d="M20.993 11.63a9 9 0 0 1 -9.362 9.362l9.362 -9.362z" /><path d="M12 3a9.001 9.001 0 0 1 8.166 5.211l-11.955 11.955a9 9 0 0 1 3.789 -17.166z" /><path d="M12 12l-6 6" />
</symbol>
	<symbol id="brand-radix-ui" class="icon icon-tabler icon-tabler-brand-radix-ui" viewBox="0 0 24 24" stroke-width="2" stroke="currentColor" fill="none" stroke-linecap="round" stroke-linejoin="round"><path stroke="none" d="M0 0h24v24H0z" fill="none"/><path d="M16.5 5.5m-2.5 0a2.5 2.5 0 1 0 5 0a2.5 2.5 0 1 0 -5 0" /><path d="M6 3h5v5h-5z" /><path d="M11 11v10a5 5 0 0 1 -.217 -9.995l.217 -.005z" />
</symbol>
	<symbol id="csv" class="icon icon-tabler icon-tabler-csv" viewBox="0 0 24 24" stroke-width="2" stroke="currentColor" fill="none" stroke-linecap="round" stroke-linejoin="round"><path stroke="none" d="M0 0h24v24H0z" fill="none"/><path d="M10 15a1 1 0 0 0 1 1h2a1 1 0 0 0 1 -1v-2a1 1 0 0 0 -1 -1h-2a1 1 0 0 1 -1 -1v-2a1 1 0 0 1 1 -1h2a1 1 0 0 1 1 1" /><path d="M17 8l2 8l2 -8" /><path d="M7 10a2 2 0 1 0 -4 0v4a2 2 0 1 0 4 0" />
</symbol>
	<symbol id="device-remote" class="icon icon-tabler icon-tabler-device-remote" viewBox="0 0 24 24" stroke-width="2" stroke="currentColor" fill="none" stroke-linecap="round" stroke-linejoin="round"><path stroke="none" d="M0 0h24v24H0z" fill="none"/><path d="M12 10m-2 0a2 2 0 1 0 4 0a2 2 0 1 0 -4 0" /><path d="M7 3m0 2a2 2 0 0 1 2 -2h6a2 2 0 0 1 2 2v14a2 2 0 0 1 -2 2h-6a2 2 0 0 1 -2 -2z" /><path d="M12 3v2" /><path d="M10 15v.01" /><path d="M10 18v.01" /><path d="M14 18v.01" /><path d="M14 15v.01" />
</symbol>
	<symbol id="filters" class="icon icon-tabler icon-tabler-filters" viewBox="0 0 24 24" stroke-width="2" stroke="currentColor" fill="none" stroke-linecap="round" stroke-linejoin="round"><path stroke="none" d="M0 0h24v24H0z" fill="none"/><path d="M12 8m-5 0a5 5 0 1 0 10 0a5 5 0 1 0 -10 0" /><path d="M8 11a5 5 0 1 0 3.998 1.997" /><path d="M12.002 19.003a5 5 0 1 0 3.998 -8.003" />
</symbol>
	<symbol id="lighter" class="icon icon-tabler icon-tabler-lighter" viewBox="0 0 24 24" stroke-width="2" stroke="currentColor" fill="none" stroke-linecap="round" stroke-linejoin="round"><path stroke="none" d="M0 0h24v24H0z" fill="none"/><path d="M10 3v16a2 2 0 0 0 2 2h5a2 2 0 0 0 2 -2v-7h-12a2 2 0 0 1 -2 -2v-5a2 2 0 0 1 2 -2h3z" /><path d="M16 4l1.465 1.638a2 2 0 1 1 -3.015 .099l1.55 -1.737z" />
</symbol>
	<symbol id="map-pin-share" class="icon icon-tabler icon-tabler-map-pin-share" viewBox="0 0 24 24" stroke-width="2" stroke="currentColor" fill="none" stroke-linecap="round" stroke-linejoin="round"><path stroke="none" d="M0 0h24v24H0z" fill="none"/><path d="M14.828 18.828a4 4 0 1 0 -5.656 0l2.828 2.829l2.828 -2.829z" /><path d="M12 16v.01" /><path d="M18.364 5.636a9 9 0 0 0 -12.728 0" /><path d="M15.536 8.464a5 5 0 0 0 -7.072 0" />
</symbol>
	<symbol id="photo-sensor-2" class="icon icon-tabler icon-tabler-photo-sensor-2" viewBox="0 0 24 24" stroke-width="2" stroke="currentColor" fill="none" stroke-linecap="round" stroke-linejoin="round"><path stroke="none" d="M0 0h24v24H0z" fill="none"/><path d="M17 5h2a2 2 0 0 1 2 2v10a2 2 0 0 1 -2 2h-2" /><path d="M7 19h-2a2 2 0 0 1 -2 -2v-10a2 2 0 0 1 2 -2h2" /><path d="M12 12m-4 0a4 4 0 1 0 8 0a4 4 0 1 0 -8 0" />
</symbol>
	<symbol id="photo-sensor-3" class="icon icon-tabler icon-tabler-photo-sensor-3" viewBox="0 0 24 24" stroke-width="2" stroke="currentColor" fill="none" stroke-linecap="round" stroke-linejoin="round"><path stroke="none" d="M0 0h24v24H0z" fill="none"/><path d="M17 4h1a2 2 0 0 1 2 2v1" /><path d="M20 17v1a2 2 0 0 1 -2 2h-1" /><path d="M7 20h-1a2 2 0 0 1 -2 -2v-1" /><path d="M4 7v-1a2 2 0 0 1 2 -2h1" /><path d="M12 12m-3 0a3 3 0 1 0 6 0a3 3 0 1 0 -6 0" /><path d="M12 18v2" /><path d="M4 12h2" /><path d="M12 4v2" /><path d="M20 12h-2" />
</symbol>
	<symbol id="photo-sensor" class="icon icon-tabler icon-tabler-photo-sensor" viewBox="0 0 24 24" stroke-width="2" stroke="currentColor" fill="none" stroke-linecap="round" stroke-linejoin="round"><path stroke="none" d="M0 0h24v24H0z" fill="none"/><path d="M17 5h2a2 2 0 0 1 2 2v2" /><path d="M21 15v2a2 2 0 0 1 -2 2h-2" /><path d="M7 19h-2a2 2 0 0 1 -2 -2v-2" /><path d="M3 9v-2a2 2 0 0 1 2 -2h2" /><path d="M7 9m0 1a1 1 0 0 1 1 -1h8a1 1 0 0 1 1 1v4a1 1 0 0 1 -1 1h-8a1 1 0 0 1 -1 -1z" />
</symbol>
	<symbol id="share-2" class="icon icon-tabler icon-tabler-share-2" viewBox="0 0 24 24" stroke-width="2" stroke="currentColor" fill="none" stroke-linecap="round" stroke-linejoin="round"><path stroke="none" d="M0 0h24v24H0z" fill="none"/><path d="M8 9h-1a2 2 0 0 0 -2 2v8a2 2 0 0 0 2 2h10a2 2 0 0 0 2 -2v-8a2 2 0 0 0 -2 -2h-1" /><path d="M12 14v-11" /><path d="M9 6l3 -3l3 3" />
</symbol>
	<symbol id="signal-2g" class="icon icon-tabler icon-tabler-signal-2g" viewBox="0 0 24 24" stroke-width="2" stroke="currentColor" fill="none" stroke-linecap="round" stroke-linejoin="round"><path stroke="none" d="M0 0h24v24H0z" fill="none"/><path d="M19 8h-3a2 2 0 0 0 -2 2v4a2 2 0 0 0 2 2h3v-4h-1" /><path d="M5 8h4a1 1 0 0 1 1 1v2a1 1 0 0 1 -1 1h-3a1 1 0 0 0 -1 1v2a1 1 0 0 0 1 1h4" />
</symbol>
	<symbol id="theater" class="icon icon-tabler icon-tabler-theater" viewBox="0 0 24 24" stroke-width="2" stroke="currentColor" fill="none" stroke-linecap="round" stroke-linejoin="round"><path stroke="none" d="M0 0h24v24H0z" fill="none"/><path d="M4 20h16" /><path d="M20 16v-10a2 2 0 0 0 -2 -2h-12a2 2 0 0 0 -2 2v10l4 -6c2.667 1.333 5.333 1.333 8 0l4 6z" />
</symbol>
	<symbol id="volcano" class="icon icon-tabler icon-tabler-volcano" viewBox="0 0 24 24" stroke-width="2" stroke="currentColor" fill="none" stroke-linecap="round" stroke-linejoin="round"><path stroke="none" d="M0 0h24v24H0z" fill="none"/><path d="M9 8v-1a2 2 0 1 0 -4 0" /><path d="M15 8v-1a2 2 0 1 1 4 0" /><path d="M4 20l3.472 -7.812a2 2 0 0 1 1.828 -1.188h5.4a2 2 0 0 1 1.828 1.188l3.472 7.812" /><path d="M6.192 15.064a2.14 2.14 0 0 1 .475 -.064c.527 -.009 1.026 .178 1.333 .5c.307 .32 .806 .507 1.333 .5c.527 .007 1.026 -.18 1.334 -.5c.307 -.322 .806 -.509 1.333 -.5c.527 -.009 1.026 .178 1.333 .5c.308 .32 .807 .507 1.334 .5c.527 .007 1.026 -.18 1.333 -.5c.307 -.322 .806 -.509 1.333 -.5c.161 .003 .32 .025 .472 .064" /><path d="M12 8v-4" />
</symbol>

	<use xlink:href="#brand-deezer" x="24" y="24" width="24" height="24" />
	<use xlink:href="#brand-framer-motion" x="68" y="24" width="24" height="24" />
	<use xlink:href="#brand-golang" x="112" y="24" width="24" height="24" />
	<use xlink:href="#brand-openai" x="156" y="24" width="24" height="24" />
	<use xlink:href="#brand-planetscale" x="200" y="24" width="24" height="24" />
	<use xlink:href="#brand-radix-ui" x="244" y="24" width="24" height="24" />
	<use xlink:href="#csv" x="24" y="68" width="24" height="24" />
	<use xlink:href="#device-remote" x="68" y="68" width="24" height="24" />
	<use xlink:href="#filters" x="112" y="68" width="24" height="24" />
	<use xlink:href="#lighter" x="156" y="68" width="24" height="24" />
	<use xlink:href="#map-pin-share" x="200" y="68" width="24" height="24" />
	<use xlink:href="#photo-sensor-2" x="244" y="68" width="24" height="24" />
	<use xlink:href="#photo-sensor-3" x="24" y="112" width="24" height="24" />
	<use xlink:href="#photo-sensor" x="68" y="112" width="24" height="24" />
	<use xlink:href="#share-2" x="112" y="112" width="24" height="24" />
	<use xlink:href="#signal-2g" x="156" y="112" width="24" height="24" />
	<use xlink:href="#theater" x="200" y="112" width="24" height="24" />
	<use xlink:href="#volcano" x="244" y="112" width="24" height="24" />

</svg>