<svg xmlns="http://www.w3.org/2000/svg" xmlns:xlink="http://www.w3.org/1999/xlink" viewBox="0 0 292 160" width="292" height="160" style="color: #354052"><rect x="0" y="0" width="292" height="160" fill="#fff"></rect>
	<symbol id="brand-apple-filled" class="icon icon-tabler icon-tabler-brand-apple-filled" viewBox="0 0 24 24" stroke-width="2" stroke="currentColor" fill="none" stroke-linecap="round" stroke-linejoin="round"><path stroke="none" d="M0 0h24v24H0z" fill="none"/><path d="M15.079 5.999l.239 .012c1.43 .097 3.434 1.013 4.508 2.586a1 1 0 0 1 -.344 1.44c-.05 .028 -.372 .158 -.497 .217a4.15 4.15 0 0 0 -.722 .431c-.614 .461 -.948 1.009 -.942 1.694c.01 .885 .339 1.454 .907 1.846c.208 .143 .436 .253 .666 .33c.126 .043 .426 .116 .444 .122a1 1 0 0 1 .662 .942c0 2.621 -3.04 6.381 -5.286 6.381c-.79 0 -1.272 -.091 -1.983 -.315l-.098 -.031c-.463 -.146 -.702 -.192 -1.133 -.192c-.52 0 -.863 .06 -1.518 .237l-.197 .053c-.575 .153 -.964 .226 -1.5 .248c-2.749 0 -5.285 -5.093 -5.285 -9.072c0 -3.87 1.786 -6.92 5.286 -6.92c.297 0 .598 .045 .909 .128c.403 .107 .774 .26 1.296 .508c.787 .374 .948 .44 1.009 .44h.016c.03 -.003 .128 -.047 1.056 -.457c1.061 -.467 1.864 -.685 2.746 -.616l-.24 -.012z" stroke-width="0" fill="currentColor" /><path d="M14 1a1 1 0 0 1 1 1a3 3 0 0 1 -3 3a1 1 0 0 1 -1 -1a3 3 0 0 1 3 -3z" stroke-width="0" fill="currentColor" />
</symbol>
	<symbol id="brand-bluesky" class="icon icon-tabler icon-tabler-brand-bluesky" viewBox="0 0 24 24" stroke-width="2" stroke="currentColor" fill="none" stroke-linecap="round" stroke-linejoin="round"><path stroke="none" d="M0 0h24v24H0z" fill="none"/><path d="M6.335 5.144c-1.654 -1.199 -4.335 -2.127 -4.335 .826c0 .59 .35 4.953 .556 5.661c.713 2.463 3.13 2.75 5.444 2.369c-4.045 .665 -4.889 3.208 -2.667 5.41c1.03 1.018 1.913 1.59 2.667 1.59c2 0 3.134 -2.769 3.5 -3.5c.333 -.667 .5 -1.167 .5 -1.5c0 .333 .167 .833 .5 1.5c.366 .731 1.5 3.5 3.5 3.5c.754 0 1.637 -.571 2.667 -1.59c2.222 -2.203 1.378 -4.746 -2.667 -5.41c2.314 .38 4.73 .094 5.444 -2.369c.206 -.708 .556 -5.072 .556 -5.661c0 -2.953 -2.68 -2.025 -4.335 -.826c-2.293 1.662 -4.76 5.048 -5.665 6.856c-.905 -1.808 -3.372 -5.194 -5.665 -6.856z" />
</symbol>
	<symbol id="brand-livewire" class="icon icon-tabler icon-tabler-brand-livewire" viewBox="0 0 24 24" stroke-width="2" stroke="currentColor" fill="none" stroke-linecap="round" stroke-linejoin="round"><path stroke="none" d="M0 0h24v24H0z" fill="none"/><path d="M20.982 18.777c-.372 .548 -.652 1.223 -1.406 1.223c-1.269 0 -1.337 -1.913 -2.607 -1.913c-1.27 0 -1.2 1.913 -2.47 1.913c-1.268 0 -1.337 -1.913 -2.607 -1.913c-1.269 0 -1.2 1.913 -2.47 1.913c-1.268 0 -1.337 -1.913 -2.607 -1.913c-1.27 0 -1.2 1.913 -2.47 1.913c-.398 0 -.679 -.189 -.915 -.448a10.414 10.414 0 0 1 -1.43 -5.29c0 -5.669 4.477 -10.262 10 -10.262c5.524 0 10 4.594 10 10.261c0 1.62 -.366 3.152 -1.018 4.516z" /><path d="M20.982 18.777c-.372 .548 -.652 1.223 -1.406 1.223c-1.269 0 -1.337 -1.913 -2.607 -1.913c-1.27 0 -1.2 1.913 -2.47 1.913c-1.268 0 -1.337 -1.913 -2.607 -1.913c-1.269 0 -1.2 1.913 -2.47 1.913c-1.268 0 -1.337 -1.913 -2.607 -1.913c-1.27 0 -1.2 1.913 -2.47 1.913c-.398 0 -.679 -.189 -.915 -.448a10.414 10.414 0 0 1 -1.43 -5.29c0 -5.669 4.477 -10.262 10 -10.262c5.524 0 10 4.594 10 10.261c0 1.62 -.366 3.152 -1.018 4.516z" /><path d="M11.5 16c3.167 0 4.5 -1.748 4.5 -4.231c0 -2.484 -2.014 -4.769 -4.5 -4.769c-2.485 0 -4.5 2.286 -4.5 4.769s1.333 4.231 4.5 4.231z" /><path d="M10 11a1 1 0 1 0 0 -2a1 1 0 0 0 0 2z" />
</symbol>
	<symbol id="brand-pnpm" class="icon icon-tabler icon-tabler-brand-pnpm" viewBox="0 0 24 24" stroke-width="2" stroke="currentColor" fill="none" stroke-linecap="round" stroke-linejoin="round"><path stroke="none" d="M0 0h24v24H0z" fill="none"/><path d="M3 17h4v4h-4z" /><path d="M10 17h4v4h-4z" /><path d="M17 17h4v4h-4z" /><path d="M17 10h4v4h-4z" /><path d="M17 3h4v4h-4z" /><path d="M10 10h4v4h-4z" /><path d="M10 3h4v4h-4z" /><path d="M3 3h4v4h-4z" />
</symbol>
	<symbol id="brand-stocktwits" class="icon icon-tabler icon-tabler-brand-stocktwits" viewBox="0 0 24 24" stroke-width="2" stroke="currentColor" fill="none" stroke-linecap="round" stroke-linejoin="round"><path stroke="none" d="M0 0h24v24H0z" fill="none"/><path d="M16 3l-8 4.5l8 4.5" /><path d="M8 12l8 4.5l-8 4.5" />
</symbol>
	<symbol id="brand-yarn" class="icon icon-tabler icon-tabler-brand-yarn" viewBox="0 0 24 24" stroke-width="2" stroke="currentColor" fill="none" stroke-linecap="round" stroke-linejoin="round"><path stroke="none" d="M0 0h24v24H0z" fill="none"/><path d="M17.845 19.308c-1.268 .814 -2.41 1.254 -3.845 1.692c-.176 .21 -.645 .544 -.912 .588a42.469 42.469 0 0 1 -4.498 .412c-.812 .006 -1.31 -.214 -1.447 -.554c-.115 -.279 .336 -2.054 .298 -1.964c-.157 .392 -.575 1.287 -.997 1.72c-.579 .6 -1.674 .4 -2.322 .051c-.71 -.386 -.07 -1.28 -.346 -1.267c-.276 .014 -.776 -1.486 -.776 -2.236c0 -.828 .622 -1.674 1.235 -2.211a6.811 6.811 0 0 1 .46 -3.143a7.414 7.414 0 0 1 2.208 -2.615s-1.353 -1.534 -.849 -2.912c.328 -.902 .46 -.895 .567 -.935c.38 -.12 .727 -.33 1.013 -.612c.78 -.88 1.96 -1.438 3.116 -1.322c0 0 .781 -2.43 1.533 -1.936c.415 .653 .671 1.218 .967 1.936c0 0 1.15 -.7 1.25 -.5c.514 1.398 .487 3.204 .211 4.67c-.324 1.408 -.84 2.691 -1.711 3.83c-.094 .16 .98 .705 1.722 2.812c.686 1.928 .278 2.438 .278 2.688s.716 .144 2.296 -.855a5.848 5.848 0 0 1 2.984 -1.145c.735 -.066 .988 -.035 1.22 1c.232 1.035 -.346 1.406 -.744 1.506c0 0 -2.09 .675 -2.911 1.302z" />
</symbol>
	<symbol id="circle-dashed-percentage" class="icon icon-tabler icon-tabler-circle-dashed-percentage" viewBox="0 0 24 24" stroke-width="2" stroke="currentColor" fill="none" stroke-linecap="round" stroke-linejoin="round"><path stroke="none" d="M0 0h24v24H0z" fill="none"/><path d="M9 15l6 -6" /><path d="M9.5 9.5m-1 0a1 1 0 1 0 2 0a1 1 0 1 0 -2 0" /><path d="M14.5 14.5m-1 0a1 1 0 1 0 2 0a1 1 0 1 0 -2 0" /><path d="M8.56 3.69a9 9 0 0 0 -2.92 1.95" /><path d="M3.69 8.56a9 9 0 0 0 -.69 3.44" /><path d="M3.69 15.44a9 9 0 0 0 1.95 2.92" /><path d="M8.56 20.31a9 9 0 0 0 3.44 .69" /><path d="M15.44 20.31a9 9 0 0 0 2.92 -1.95" /><path d="M20.31 15.44a9 9 0 0 0 .69 -3.44" /><path d="M20.31 8.56a9 9 0 0 0 -1.95 -2.92" /><path d="M15.44 3.69a9 9 0 0 0 -3.44 -.69" />
</symbol>
	<symbol id="circle-percentage" class="icon icon-tabler icon-tabler-circle-percentage" viewBox="0 0 24 24" stroke-width="2" stroke="currentColor" fill="none" stroke-linecap="round" stroke-linejoin="round"><path stroke="none" d="M0 0h24v24H0z" fill="none"/><path d="M9 15l6 -6" /><path d="M9.5 9.5m-1 0a1 1 0 1 0 2 0a1 1 0 1 0 -2 0" /><path d="M14.5 14.5m-1 0a1 1 0 1 0 2 0a1 1 0 1 0 -2 0" /><path d="M3 12a9 9 0 1 0 18 0a9 9 0 0 0 -18 0" />
</symbol>
	<symbol id="meter-cube" class="icon icon-tabler icon-tabler-meter-cube" viewBox="0 0 24 24" stroke-width="2" stroke="currentColor" fill="none" stroke-linecap="round" stroke-linejoin="round"><path stroke="none" d="M0 0h24v24H0z" fill="none"/><path d="M17 5h1.5a1.5 1.5 0 0 1 0 3h-.5h.5a1.5 1.5 0 0 1 0 3h-1.5" /><path d="M4 12v6" /><path d="M4 14a2 2 0 0 1 2 -2h.5a2.5 2.5 0 0 1 2.5 2.5v3.5" /><path d="M9 15.5v-1a2.5 2.5 0 1 1 5 0v3.5" />
</symbol>
	<symbol id="meter-square" class="icon icon-tabler icon-tabler-meter-square" viewBox="0 0 24 24" stroke-width="2" stroke="currentColor" fill="none" stroke-linecap="round" stroke-linejoin="round"><path stroke="none" d="M0 0h24v24H0z" fill="none"/><path d="M17 5h2a1 1 0 0 1 1 1v1a1 1 0 0 1 -1 1h-1a1 1 0 0 0 -1 1v1a1 1 0 0 0 1 1h2" /><path d="M4 12v6" /><path d="M4 14a2 2 0 0 1 2 -2h.5a2.5 2.5 0 0 1 2.5 2.5v3.5" /><path d="M9 15.5v-1a2.5 2.5 0 1 1 5 0v3.5" />
</symbol>
	<symbol id="paywall" class="icon icon-tabler icon-tabler-paywall" viewBox="0 0 24 24" stroke-width="2" stroke="currentColor" fill="none" stroke-linecap="round" stroke-linejoin="round"><path stroke="none" d="M0 0h24v24H0z" fill="none"/><path d="M13 21h-6a2 2 0 0 1 -2 -2v-6a2 2 0 0 1 2 -2h10" /><path d="M11 16a1 1 0 1 0 2 0a1 1 0 0 0 -2 0" /><path d="M8 11v-4a4 4 0 1 1 8 0v4" /><path d="M21 15h-2.5a1.5 1.5 0 0 0 0 3h1a1.5 1.5 0 0 1 0 3h-2.5" /><path d="M19 21v1" /><path d="M19 14v1" />
</symbol>
	<symbol id="pilcrow-left" class="icon icon-tabler icon-tabler-pilcrow-left" viewBox="0 0 24 24" stroke-width="2" stroke="currentColor" fill="none" stroke-linecap="round" stroke-linejoin="round"><path stroke="none" d="M0 0h24v24H0z" fill="none"/><path d="M11 9h-2a3 3 0 1 1 0 -6h7" /><path d="M11 3v11" /><path d="M15 3v11" /><path d="M3 18h18" /><path d="M6 15l-3 3l3 3" />
</symbol>
	<symbol id="pilcrow-right" class="icon icon-tabler icon-tabler-pilcrow-right" viewBox="0 0 24 24" stroke-width="2" stroke="currentColor" fill="none" stroke-linecap="round" stroke-linejoin="round"><path stroke="none" d="M0 0h24v24H0z" fill="none"/><path d="M11 9h-2a3 3 0 1 1 0 -6h7" /><path d="M11 3v11" /><path d="M15 3v11" /><path d="M21 18h-18" /><path d="M18 15l3 3l-3 3" />
</symbol>
	<symbol id="protocol" class="icon icon-tabler icon-tabler-protocol" viewBox="0 0 24 24" stroke-width="2" stroke="currentColor" fill="none" stroke-linecap="round" stroke-linejoin="round"><path stroke="none" d="M0 0h24v24H0z" fill="none"/><path d="M15 6l-7 12" /><path d="M20 6l-7 12" /><path d="M5 14v.015" /><path d="M5 10.015v.015" />
</symbol>
	<symbol id="receipt-rupee" class="icon icon-tabler icon-tabler-receipt-rupee" viewBox="0 0 24 24" stroke-width="2" stroke="currentColor" fill="none" stroke-linecap="round" stroke-linejoin="round"><path stroke="none" d="M0 0h24v24H0z" fill="none"/><path d="M5 21v-16a2 2 0 0 1 2 -2h10a2 2 0 0 1 2 2v16l-3 -2l-2 2l-2 -2l-2 2l-2 -2l-3 2" /><path d="M15 7h-6h1a3 3 0 0 1 0 6h-1l3 3" /><path d="M9 10h6" />
</symbol>
	<symbol id="square-percentage" class="icon icon-tabler icon-tabler-square-percentage" viewBox="0 0 24 24" stroke-width="2" stroke="currentColor" fill="none" stroke-linecap="round" stroke-linejoin="round"><path stroke="none" d="M0 0h24v24H0z" fill="none"/><path d="M9 15l6 -6" /><path d="M9.5 9.5m-1 0a1 1 0 1 0 2 0a1 1 0 1 0 -2 0" /><path d="M14.5 14.5m-1 0a1 1 0 1 0 2 0a1 1 0 1 0 -2 0" /><path d="M3 5a2 2 0 0 1 2 -2h14a2 2 0 0 1 2 2v14a2 2 0 0 1 -2 2h-14a2 2 0 0 1 -2 -2v-14z" />
</symbol>
	<symbol id="square-rounded-percentage" class="icon icon-tabler icon-tabler-square-rounded-percentage" viewBox="0 0 24 24" stroke-width="2" stroke="currentColor" fill="none" stroke-linecap="round" stroke-linejoin="round"><path stroke="none" d="M0 0h24v24H0z" fill="none"/><path d="M9 15l6 -6" /><path d="M9.5 9.5m-1 0a1 1 0 1 0 2 0a1 1 0 1 0 -2 0" /><path d="M14.5 14.5m-1 0a1 1 0 1 0 2 0a1 1 0 1 0 -2 0" /><path d="M12 3c7.2 0 9 1.8 9 9s-1.8 9 -9 9s-9 -1.8 -9 -9s1.8 -9 9 -9z" />
</symbol>
	<symbol id="transaction-rupee" class="icon icon-tabler icon-tabler-transaction-rupee" viewBox="0 0 24 24" stroke-width="2" stroke="currentColor" fill="none" stroke-linecap="round" stroke-linejoin="round"><path stroke="none" d="M0 0h24v24H0z" fill="none"/><path d="M21 12h-6h1a3 3 0 0 1 0 6h-1l3 3" /><path d="M15 15h6" /><path d="M5 5m-2 0a2 2 0 1 0 4 0a2 2 0 1 0 -4 0" /><path d="M17 5m-2 0a2 2 0 1 0 4 0a2 2 0 1 0 -4 0" /><path d="M7 5h8" /><path d="M7 5v8a3 3 0 0 0 3 3h1" />
</symbol>

	<use xlink:href="#brand-apple-filled" x="24" y="24" width="24" height="24" />
	<use xlink:href="#brand-bluesky" x="68" y="24" width="24" height="24" />
	<use xlink:href="#brand-livewire" x="112" y="24" width="24" height="24" />
	<use xlink:href="#brand-pnpm" x="156" y="24" width="24" height="24" />
	<use xlink:href="#brand-stocktwits" x="200" y="24" width="24" height="24" />
	<use xlink:href="#brand-yarn" x="244" y="24" width="24" height="24" />
	<use xlink:href="#circle-dashed-percentage" x="24" y="68" width="24" height="24" />
	<use xlink:href="#circle-percentage" x="68" y="68" width="24" height="24" />
	<use xlink:href="#meter-cube" x="112" y="68" width="24" height="24" />
	<use xlink:href="#meter-square" x="156" y="68" width="24" height="24" />
	<use xlink:href="#paywall" x="200" y="68" width="24" height="24" />
	<use xlink:href="#pilcrow-left" x="244" y="68" width="24" height="24" />
	<use xlink:href="#pilcrow-right" x="24" y="112" width="24" height="24" />
	<use xlink:href="#protocol" x="68" y="112" width="24" height="24" />
	<use xlink:href="#receipt-rupee" x="112" y="112" width="24" height="24" />
	<use xlink:href="#square-percentage" x="156" y="112" width="24" height="24" />
	<use xlink:href="#square-rounded-percentage" x="200" y="112" width="24" height="24" />
	<use xlink:href="#transaction-rupee" x="244" y="112" width="24" height="24" />

</svg>