<svg xmlns="http://www.w3.org/2000/svg" xmlns:xlink="http://www.w3.org/1999/xlink" viewBox="0 0 292 160" width="292" height="160" style="color: #354052"><rect x="0" y="0" width="292" height="160" fill="#fff"></rect>
	<symbol id="braces-asterix" class="icon icon-tabler icon-tabler-braces-asterix" viewBox="0 0 24 24" stroke-width="2" stroke="currentColor" fill="none" stroke-linecap="round" stroke-linejoin="round"><path stroke="none" d="M0 0h24v24H0z" fill="none"/><path d="M6 19a2 2 0 0 1 -2 -2v-4l-1 -1l1 -1v-4a2 2 0 0 1 2 -2" /><path d="M12 11.875l3 -1.687" /><path d="M12 11.875v3.375" /><path d="M12 11.875l-3 -1.687" /><path d="M12 11.875l3 1.688" /><path d="M12 8.5v3.375" /><path d="M12 11.875l-3 1.688" /><path d="M18 19a2 2 0 0 0 2 -2v-4l1 -1l-1 -1v-4a2 2 0 0 0 -2 -2" />
</symbol>
	<symbol id="clock-hour-1" class="icon icon-tabler icon-tabler-clock-hour-1" viewBox="0 0 24 24" stroke-width="2" stroke="currentColor" fill="none" stroke-linecap="round" stroke-linejoin="round"><path stroke="none" d="M0 0h24v24H0z" fill="none"/><circle cx="12" cy="12" r="9" /><path d="M12 7v5" /><path d="M12 12l2 -3" />
</symbol>
	<symbol id="clock-hour-10" class="icon icon-tabler icon-tabler-clock-hour-10" viewBox="0 0 24 24" stroke-width="2" stroke="currentColor" fill="none" stroke-linecap="round" stroke-linejoin="round"><path stroke="none" d="M0 0h24v24H0z" fill="none"/><circle cx="12" cy="12" r="9" /><path d="M12 12l-3 -2" /><path d="M12 7v5" />
</symbol>
	<symbol id="clock-hour-11" class="icon icon-tabler icon-tabler-clock-hour-11" viewBox="0 0 24 24" stroke-width="2" stroke="currentColor" fill="none" stroke-linecap="round" stroke-linejoin="round"><path stroke="none" d="M0 0h24v24H0z" fill="none"/><circle cx="12" cy="12" r="9" /><path d="M12 12l-2 -3" /><path d="M12 7v5" />
</symbol>
	<symbol id="clock-hour-12" class="icon icon-tabler icon-tabler-clock-hour-12" viewBox="0 0 24 24" stroke-width="2" stroke="currentColor" fill="none" stroke-linecap="round" stroke-linejoin="round"><path stroke="none" d="M0 0h24v24H0z" fill="none"/><circle cx="12" cy="12" r="9" /><path d="M12 7v5" />
</symbol>
	<symbol id="clock-hour-2" class="icon icon-tabler icon-tabler-clock-hour-2" viewBox="0 0 24 24" stroke-width="2" stroke="currentColor" fill="none" stroke-linecap="round" stroke-linejoin="round"><path stroke="none" d="M0 0h24v24H0z" fill="none"/><circle cx="12" cy="12" r="9" /><path d="M12 12l3 -2" /><path d="M12 7v5" />
</symbol>
	<symbol id="clock-hour-3" class="icon icon-tabler icon-tabler-clock-hour-3" viewBox="0 0 24 24" stroke-width="2" stroke="currentColor" fill="none" stroke-linecap="round" stroke-linejoin="round"><path stroke="none" d="M0 0h24v24H0z" fill="none"/><circle cx="12" cy="12" r="9" /><path d="M12 12h3.5" /><path d="M12 7v5" />
</symbol>
	<symbol id="clock-hour-4" class="icon icon-tabler icon-tabler-clock-hour-4" viewBox="0 0 24 24" stroke-width="2" stroke="currentColor" fill="none" stroke-linecap="round" stroke-linejoin="round"><path stroke="none" d="M0 0h24v24H0z" fill="none"/><circle cx="12" cy="12" r="9" /><path d="M12 12l3 2" /><path d="M12 7v5" />
</symbol>
	<symbol id="clock-hour-5" class="icon icon-tabler icon-tabler-clock-hour-5" viewBox="0 0 24 24" stroke-width="2" stroke="currentColor" fill="none" stroke-linecap="round" stroke-linejoin="round"><path stroke="none" d="M0 0h24v24H0z" fill="none"/><circle cx="12" cy="12" r="9" /><path d="M12 12l2 3" /><path d="M12 7v5" />
</symbol>
	<symbol id="clock-hour-6" class="icon icon-tabler icon-tabler-clock-hour-6" viewBox="0 0 24 24" stroke-width="2" stroke="currentColor" fill="none" stroke-linecap="round" stroke-linejoin="round"><path stroke="none" d="M0 0h24v24H0z" fill="none"/><circle cx="12" cy="12" r="9" /><path d="M12 12v3.5" /><path d="M12 7v5" />
</symbol>
	<symbol id="clock-hour-7" class="icon icon-tabler icon-tabler-clock-hour-7" viewBox="0 0 24 24" stroke-width="2" stroke="currentColor" fill="none" stroke-linecap="round" stroke-linejoin="round"><path stroke="none" d="M0 0h24v24H0z" fill="none"/><circle cx="12" cy="12" r="9" /><path d="M12 12l-2 3" /><path d="M12 7v5" />
</symbol>
	<symbol id="clock-hour-8" class="icon icon-tabler icon-tabler-clock-hour-8" viewBox="0 0 24 24" stroke-width="2" stroke="currentColor" fill="none" stroke-linecap="round" stroke-linejoin="round"><path stroke="none" d="M0 0h24v24H0z" fill="none"/><circle cx="12" cy="12" r="9" /><path d="M12 12l-3 2" /><path d="M12 7v5" />
</symbol>
	<symbol id="clock-hour-9" class="icon icon-tabler icon-tabler-clock-hour-9" viewBox="0 0 24 24" stroke-width="2" stroke="currentColor" fill="none" stroke-linecap="round" stroke-linejoin="round"><path stroke="none" d="M0 0h24v24H0z" fill="none"/><circle cx="12" cy="12" r="9" /><path d="M12 12h-3.5" /><path d="M12 7v5" />
</symbol>
	<symbol id="regex" class="icon icon-tabler icon-tabler-regex" viewBox="0 0 24 24" stroke-width="2" stroke="currentColor" fill="none" stroke-linecap="round" stroke-linejoin="round"><path stroke="none" d="M0 0h24v24H0z" fill="none"/><path d="M6.5 15a2.5 2.5 0 1 1 0 5a2.5 2.5 0 0 1 0 -5z" /><path d="M17 7.875l3 -1.687" /><path d="M17 7.875v3.375" /><path d="M17 7.875l-3 -1.687" /><path d="M17 7.875l3 1.688" /><path d="M17 4.5v3.375" /><path d="M17 7.875l-3 1.688" />
</symbol>
	<symbol id="server-bolt" class="icon icon-tabler icon-tabler-server-bolt" viewBox="0 0 24 24" stroke-width="2" stroke="currentColor" fill="none" stroke-linecap="round" stroke-linejoin="round"><path stroke="none" d="M0 0h24v24H0z" fill="none"/><rect x="3" y="4" width="18" height="8" rx="3" /><path d="M15 20h-9a3 3 0 0 1 -3 -3v-2a3 3 0 0 1 3 -3h12" /><path d="M7 8v.01" /><path d="M7 16v.01" /><path d="M20 15l-2 3h3l-2 3" />
</symbol>
	<symbol id="server-cog" class="icon icon-tabler icon-tabler-server-cog" viewBox="0 0 24 24" stroke-width="2" stroke="currentColor" fill="none" stroke-linecap="round" stroke-linejoin="round"><path stroke="none" d="M0 0h24v24H0z" fill="none"/><rect x="3" y="4" width="18" height="8" rx="3" /><path d="M12 20h-6a3 3 0 0 1 -3 -3v-2a3 3 0 0 1 3 -3h10.5" /><circle cx="18.001" cy="18" r="2" /><path d="M18.001 14.5v1.5" /><path d="M18.001 20v1.5" /><path d="M21.032 16.25l-1.299 .75" /><path d="M16.27 19l-1.3 .75" /><path d="M14.97 16.25l1.3 .75" /><path d="M19.733 19l1.3 .75" /><path d="M7 8v.01" /><path d="M7 16v.01" />
</symbol>
	<symbol id="wash-dry-w" class="icon icon-tabler icon-tabler-wash-dry-w" viewBox="0 0 24 24" stroke-width="2" stroke="currentColor" fill="none" stroke-linecap="round" stroke-linejoin="round"><path stroke="none" d="M0 0h24v24H0z" fill="none"/><circle cx="12" cy="12" r="9" /><path d="M8 8l1.5 8h1l1.5 -6l1.5 6h1l1.5 -8" />
</symbol>
	<symbol id="wash-dryclean-off" class="icon icon-tabler icon-tabler-wash-dryclean-off" viewBox="0 0 24 24" stroke-width="2" stroke="currentColor" fill="none" stroke-linecap="round" stroke-linejoin="round"><path stroke="none" d="M0 0h24v24H0z" fill="none"/><path d="M20.048 16.033a9 9 0 0 0 -12.094 -12.075m-2.321 1.682a9 9 0 0 0 12.733 12.723" /><path d="M3 3l18 18" />
</symbol>

	<use xlink:href="#braces-asterix" x="24" y="24" width="24" height="24" />
	<use xlink:href="#clock-hour-1" x="68" y="24" width="24" height="24" />
	<use xlink:href="#clock-hour-10" x="112" y="24" width="24" height="24" />
	<use xlink:href="#clock-hour-11" x="156" y="24" width="24" height="24" />
	<use xlink:href="#clock-hour-12" x="200" y="24" width="24" height="24" />
	<use xlink:href="#clock-hour-2" x="244" y="24" width="24" height="24" />
	<use xlink:href="#clock-hour-3" x="24" y="68" width="24" height="24" />
	<use xlink:href="#clock-hour-4" x="68" y="68" width="24" height="24" />
	<use xlink:href="#clock-hour-5" x="112" y="68" width="24" height="24" />
	<use xlink:href="#clock-hour-6" x="156" y="68" width="24" height="24" />
	<use xlink:href="#clock-hour-7" x="200" y="68" width="24" height="24" />
	<use xlink:href="#clock-hour-8" x="244" y="68" width="24" height="24" />
	<use xlink:href="#clock-hour-9" x="24" y="112" width="24" height="24" />
	<use xlink:href="#regex" x="68" y="112" width="24" height="24" />
	<use xlink:href="#server-bolt" x="112" y="112" width="24" height="24" />
	<use xlink:href="#server-cog" x="156" y="112" width="24" height="24" />
	<use xlink:href="#wash-dry-w" x="200" y="112" width="24" height="24" />
	<use xlink:href="#wash-dryclean-off" x="244" y="112" width="24" height="24" />

</svg>