<svg xmlns="http://www.w3.org/2000/svg" xmlns:xlink="http://www.w3.org/1999/xlink" viewBox="0 0 292 160" width="292" height="160" style="color: #354052"><rect x="0" y="0" width="292" height="160" fill="#fff"></rect>
	<symbol id="filled-drop-circle" xmlns="http://www.w3.org/2000/svg" width="24" height="24" viewBox="0 0 24 24" fill="currentColor"
> <path d="M17 3.34a10 10 0 1 1 -15 8.66l.005 -.324a10 10 0 0 1 14.995 -8.336m-4.177 4.092a1 1 0 0 0 -1.646 0l-2.602 3.764c-1.022 1.67 -.634 3.736 .875 4.929a4.144 4.144 0 0 0 5.095 0c1.51 -1.191 1.897 -3.26 .904 -4.882z" />
</symbol>
	<symbol id="filled-dual-screen" xmlns="http://www.w3.org/2000/svg" width="24" height="24" viewBox="0 0 24 24" fill="currentColor"
> <path d="M19 3a1 1 0 0 1 1 1v15a1 1 0 0 1 -1 1h-5v2a1 1 0 0 1 -1.351 .936l-8 -3a1 1 0 0 1 -.649 -.936v-15a1 1 0 0 1 .212 -.616l.068 -.079l.078 -.072l.066 -.05l.092 -.058l.065 -.033l.1 -.04l.099 -.028l.046 -.01l.108 -.013l.066 -.001zm-5.649 3.064a1 1 0 0 1 .649 .936v11h4v-13h-7.486z" />
</symbol>
	<symbol id="filled-dumpling" xmlns="http://www.w3.org/2000/svg" width="24" height="24" viewBox="0 0 24 24" fill="currentColor"
> <path d="M10.003 2.04a3.53 3.53 0 0 1 2.602 .62l.09 .07l.149 -.11a3.53 3.53 0 0 1 3.044 -.462l.207 .072a3.53 3.53 0 0 1 1.99 1.903l.014 .031l.045 -.004a3.53 3.53 0 0 1 2.624 .879l.153 .144l.358 .358c1.976 1.977 -.32 6.748 -4.655 11.083c-4.336 4.335 -9.106 6.632 -11.083 4.655l-.382 -.382l-.135 -.145a3.53 3.53 0 0 1 -.87 -2.556l.01 -.1l-.162 -.072a3.53 3.53 0 0 1 -1.838 -2.124l-.055 -.192a3.53 3.53 0 0 1 .56 -2.937l.062 -.079l-.07 -.092a3.53 3.53 0 0 1 -.644 -2.401l.025 -.2a3.53 3.53 0 0 1 1.707 -2.505l.046 -.026l-.005 -.14a3.53 3.53 0 0 1 .885 -2.345l.15 -.16l.159 -.149a3.53 3.53 0 0 1 2.346 -.884l.14 .004l.026 -.046a3.53 3.53 0 0 1 2.308 -1.67z" />
</symbol>
	<symbol id="filled-egg-fried" xmlns="http://www.w3.org/2000/svg" width="24" height="24" viewBox="0 0 24 24" fill="currentColor"
> <path d="M14.001 1.996q .06 0 .117 .007l.155 .003a6 6 0 0 1 4.25 2.05l.176 .21a6 6 0 0 1 1.296 4.014l-.018 .244l.106 .06a4 4 0 0 1 1.904 3.087l.011 .204a4 4 0 0 1 -1.392 3.161l-.085 .069l.083 .16a4 4 0 0 1 .239 2.848l-.065 .204a4 4 0 0 1 -6.257 1.824l-.115 -.096l-.092 .1a6 6 0 0 1 -4.022 1.787l-.257 .006a6 6 0 0 1 -5.644 -8.04l.034 -.089l-.155 -.12a6 6 0 0 1 -1.662 -7.256l.105 -.211a6 6 0 0 1 7.246 -2.894l.188 .068l.073 -.06a6 6 0 0 1 3.505 -1.334zm-2.001 7.004a3 3 0 0 0 -2.996 2.85l-.004 .15a3 3 0 1 0 3 -3" />
</symbol>
	<symbol id="filled-escalator-down" xmlns="http://www.w3.org/2000/svg" width="24" height="24" viewBox="0 0 24 24" fill="currentColor"
> <path d="M7.233 6a3 3 0 0 1 2.006 .77l9.145 8.23h1.116a3.5 3.5 0 0 1 3.495 3.308l.005 .192a3.5 3.5 0 0 1 -3.5 3.5h-2.733a3 3 0 0 1 -2.006 -.77l-9.144 -8.23h-1.117a3.5 3.5 0 0 1 -3.495 -3.308l-.005 -.192a3.5 3.5 0 0 1 3.5 -3.5z" /> <path d="M18 2a1 1 0 0 1 1 1v4.584l1.293 -1.291a1 1 0 0 1 1.32 -.083l.094 .083a1 1 0 0 1 0 1.414l-3 3a1 1 0 0 1 -.112 .097l-.11 .071l-.114 .054l-.105 .035l-.149 .03l-.117 .006l-.075 -.003l-.126 -.017l-.111 -.03l-.111 -.044l-.098 -.052l-.096 -.067l-.09 -.08l-3 -3a1 1 0 1 1 1.414 -1.414l1.293 1.293v-4.586a1 1 0 0 1 1 -1" />
</symbol>
	<symbol id="filled-escalator-up" xmlns="http://www.w3.org/2000/svg" width="24" height="24" viewBox="0 0 24 24" fill="currentColor"
> <path d="M19.5 6a3.5 3.5 0 0 1 0 7h-1.086l-8.12 8.121a3 3 0 0 1 -1.924 .872l-.198 .007h-3.672a3.5 3.5 0 0 1 0 -7h2.084l8.123 -8.121a3 3 0 0 1 1.923 -.872l.198 -.007z" /> <path d="M19.5 8h-2.672a1 1 0 0 0 -.707 .293l-8.414 8.414a1 1 0 0 1 -.707 .293h-2.5a1.5 1.5 0 0 0 0 3h3.672a1 1 0 0 0 .707 -.293l8.414 -8.414a1 1 0 0 1 .707 -.293h1.5a1.5 1.5 0 0 0 0 -3" /> <path d="M5.852 2.011l.058 -.007l.09 -.004l.075 .003l.126 .017l.111 .03l.111 .044l.098 .052l.104 .074l.082 .073l3 3a1 1 0 1 1 -1.414 1.414l-1.293 -1.292v4.585a1 1 0 0 1 -2 0v-4.585l-1.293 1.292a1 1 0 0 1 -1.32 .083l-.094 -.083a1 1 0 0 1 0 -1.414l3 -3q .053 -.054 .112 -.097l.11 -.071l.114 -.054l.105 -.035z" />
</symbol>
	<symbol id="filled-escalator" xmlns="http://www.w3.org/2000/svg" width="24" height="24" viewBox="0 0 24 24" fill="currentColor"
> <path d="M19.5 4a3.5 3.5 0 0 1 0 7h-1.086l-8.12 8.121a3 3 0 0 1 -1.924 .872l-.198 .007h-3.672a3.5 3.5 0 0 1 0 -7h2.084l8.123 -8.121a3 3 0 0 1 1.923 -.872l.198 -.007z" />
</symbol>
	<symbol id="filled-exchange" xmlns="http://www.w3.org/2000/svg" width="24" height="24" viewBox="0 0 24 24" fill="currentColor"
> <path d="M19 3a3 3 0 0 1 1 5.83v4.17a6 6 0 0 1 -6 6h-.585l1.292 1.293a1 1 0 0 1 .083 1.32l-.083 .094a1 1 0 0 1 -1.414 0l-2.959 -2.959a1 1 0 0 1 -.238 -.32l-.038 -.091l-.028 -.094a.98 .98 0 0 1 .187 -.866l.076 -.084l3 -3a1 1 0 0 1 1.414 1.414l-1.293 1.293h.586a4 4 0 0 0 3.995 -3.8l.005 -.2v-4.171a3 3 0 0 1 -2 -2.829l.005 -.176a3 3 0 0 1 2.995 -2.824m-8.293 -.707l3 3a.98 .98 0 0 1 .263 .95l-.01 .031l-.003 .018l-.008 .018l-.007 .027l-.016 .035l-.01 .032l-.007 .01l-.005 .014a1 1 0 0 1 -.232 .316l-2.965 2.963a1 1 0 0 1 -1.32 .083l-.094 -.083a1 1 0 0 1 0 -1.414l1.291 -1.293h-.584a4 4 0 0 0 -3.995 3.8l-.005 .2v4.171a3.001 3.001 0 1 1 -4 2.829l.005 -.176a3 3 0 0 1 1.995 -2.654v-4.17a6 6 0 0 1 6 -6h.585l-1.292 -1.293a1 1 0 0 1 -.083 -1.32l.083 -.094a1 1 0 0 1 1.414 0" />
</symbol>
	<symbol id="filled-explicit" xmlns="http://www.w3.org/2000/svg" width="24" height="24" viewBox="0 0 24 24" fill="currentColor"
> <path d="M19 3a2 2 0 0 1 2 2v14a2 2 0 0 1 -2 2h-14a2 2 0 0 1 -2 -2v-14a2 2 0 0 1 2 -2zm-5 4h-4a1 1 0 0 0 -1 1v8a1 1 0 0 0 1 1h4a1 1 0 0 0 1 -1l-.007 -.117a1 1 0 0 0 -.993 -.883h-3v-2h3a1 1 0 0 0 0 -2h-3v-2h3a1 1 0 0 0 0 -2" />
</symbol>
	<symbol id="filled-file-check" xmlns="http://www.w3.org/2000/svg" width="24" height="24" viewBox="0 0 24 24" fill="currentColor"
> <path d="M12 2l.117 .007a1 1 0 0 1 .876 .876l.007 .117v4l.005 .15a2 2 0 0 0 1.838 1.844l.157 .006h4l.117 .007a1 1 0 0 1 .876 .876l.007 .117v9a3 3 0 0 1 -2.824 2.995l-.176 .005h-10a3 3 0 0 1 -2.995 -2.824l-.005 -.176v-14a3 3 0 0 1 2.824 -2.995l.176 -.005zm3.707 10.293a1 1 0 0 0 -1.414 0l-3.293 3.292l-1.293 -1.292a1 1 0 1 0 -1.414 1.414l2 2a1 1 0 0 0 1.414 0l4 -4a1 1 0 0 0 0 -1.414m-.707 -9.294l4 4.001h-4z" />
</symbol>
	<symbol id="filled-file-code-2" xmlns="http://www.w3.org/2000/svg" width="24" height="24" viewBox="0 0 24 24" fill="currentColor"
> <path d="M12 2l.117 .007a1 1 0 0 1 .876 .876l.007 .117v4l.005 .15a2 2 0 0 0 1.838 1.844l.157 .006h4l.117 .007a1 1 0 0 1 .876 .876l.007 .117v9a3 3 0 0 1 -2.824 2.995l-.176 .005h-10a3 3 0 0 1 -2.995 -2.824l-.005 -.176v-14a3 3 0 0 1 2.824 -2.995l.176 -.005zm-2 9h-1a1 1 0 0 0 -1 1v5a1 1 0 0 0 1 1h1a1 1 0 0 0 1 -1l-.007 -.117a1 1 0 0 0 -.876 -.876l-.117 -.007v-3a1 1 0 0 0 0 -2m5 0h-1a1 1 0 0 0 0 2v3a1 1 0 0 0 0 2h1a1 1 0 0 0 1 -1v-5a1 1 0 0 0 -1 -1m-.001 -8.001l4.001 4.001h-4z" />
</symbol>
	<symbol id="filled-file-cv" xmlns="http://www.w3.org/2000/svg" width="24" height="24" viewBox="0 0 24 24" fill="currentColor"
> <path d="M12 2l.117 .007a1 1 0 0 1 .876 .876l.007 .117v4l.005 .15a2 2 0 0 0 1.838 1.844l.157 .006h4l.117 .007a1 1 0 0 1 .876 .876l.007 .117v9a3 3 0 0 1 -2.824 2.995l-.176 .005h-10a3 3 0 0 1 -2.995 -2.824l-.005 -.176v-14a3 3 0 0 1 2.824 -2.995l.176 -.005zm-2.5 8a2.5 2.5 0 0 0 -2.5 2.5v3a2.5 2.5 0 1 0 5 0a1 1 0 0 0 -2 0a.5 .5 0 1 1 -1 0v-3a.5 .5 0 1 1 1 0a1 1 0 0 0 2 0a2.5 2.5 0 0 0 -2.5 -2.5m6.743 .03a1 1 0 0 0 -1.213 .727l-.53 2.119l-.53 -2.119a1 1 0 1 0 -1.94 .486l1.5 6c.252 1.01 1.688 1.01 1.94 0l1.5 -6a1 1 0 0 0 -.727 -1.213m-1.244 -7.031l4.001 4.001h-4z" />
</symbol>
	<symbol id="filled-file-delta" xmlns="http://www.w3.org/2000/svg" width="24" height="24" viewBox="0 0 24 24" fill="currentColor"
> <path d="M12 2l.117 .007a1 1 0 0 1 .876 .876l.007 .117v4l.005 .15a2 2 0 0 0 1.838 1.844l.157 .006h4l.117 .007a1 1 0 0 1 .876 .876l.007 .117v9a3 3 0 0 1 -2.824 2.995l-.176 .005h-10a3 3 0 0 1 -2.995 -2.824l-.005 -.176v-14a3 3 0 0 1 2.824 -2.995l.176 -.005zm.894 8.553a1 1 0 0 0 -1.788 0l-3 6a1 1 0 0 0 .894 1.447h6a1 1 0 0 0 .894 -1.447zm-.894 2.683l1.381 2.764h-2.763zm2.999 -10.237l4.001 4.001h-4z" />
</symbol>
	<symbol id="filled-file-download" xmlns="http://www.w3.org/2000/svg" width="24" height="24" viewBox="0 0 24 24" fill="currentColor"
> <path d="M12 2l.117 .007a1 1 0 0 1 .876 .876l.007 .117v4l.005 .15a2 2 0 0 0 1.838 1.844l.157 .006h4l.117 .007a1 1 0 0 1 .876 .876l.007 .117v9a3 3 0 0 1 -2.824 2.995l-.176 .005h-10a3 3 0 0 1 -2.995 -2.824l-.005 -.176v-14a3 3 0 0 1 2.824 -2.995l.176 -.005zm0 8a1 1 0 0 0 -1 1v3.585l-.793 -.792a1 1 0 0 0 -1.32 -.083l-.094 .083a1 1 0 0 0 0 1.414l2.5 2.5l.044 .042l.068 .055l.11 .071l.114 .054l.105 .035l.15 .03l.116 .006l.117 -.007l.117 -.02l.108 -.033l.081 -.034l.098 -.052l.092 -.064l.094 -.083l2.5 -2.5a1 1 0 0 0 0 -1.414l-.094 -.083a1 1 0 0 0 -1.32 .083l-.793 .791v-3.584a1 1 0 0 0 -.883 -.993zm2.999 -7.001l4.001 4.001h-4z" />
</symbol>
	<symbol id="filled-file-lambda" xmlns="http://www.w3.org/2000/svg" width="24" height="24" viewBox="0 0 24 24" fill="currentColor"
> <path d="M12 2l.117 .007a1 1 0 0 1 .876 .876l.007 .117v4l.005 .15a2 2 0 0 0 1.838 1.844l.157 .006h4l.117 .007a1 1 0 0 1 .876 .876l.007 .117v9a3 3 0 0 1 -2.824 2.995l-.176 .005h-10a3 3 0 0 1 -2.995 -2.824l-.005 -.176v-14a3 3 0 0 1 2.824 -2.995l.176 -.005zm-2 8a1 1 0 0 0 -.117 1.993l.117 .007c.342 0 .662 .362 1.166 1.445l-1.998 3a1 1 0 0 0 1.664 1.11l1.29 -1.934c.825 1.738 1.508 2.379 2.878 2.379a1 1 0 0 0 .117 -1.993l-.117 -.007c-.39 0 -.75 -.47 -1.387 -1.938l-.415 -.976c-.985 -2.274 -1.656 -3.086 -3.198 -3.086m4.999 -7.001l4.001 4.001h-4z" />
</symbol>
	<symbol id="filled-file-percent" xmlns="http://www.w3.org/2000/svg" width="24" height="24" viewBox="0 0 24 24" fill="currentColor"
> <path d="M12 2l.117 .007a1 1 0 0 1 .876 .876l.007 .117v4l.005 .15a2 2 0 0 0 1.838 1.844l.157 .006h4l.117 .007a1 1 0 0 1 .876 .876l.007 .117v9a3 3 0 0 1 -2.824 2.995l-.176 .005h-10a3 3 0 0 1 -2.995 -2.824l-.005 -.176v-14a3 3 0 0 1 2.824 -2.995l.176 -.005zm2.01 14h-.01a1 1 0 0 0 -.117 1.993l.127 .007a1 1 0 0 0 0 -2m.697 -3.707a1 1 0 0 0 -1.414 0l-4 4a1 1 0 0 0 1.414 1.414l4 -4a1 1 0 0 0 0 -1.414m-4.697 -.293h-.01a1 1 0 0 0 -.117 1.993l.127 .007a1 1 0 0 0 0 -2m4.989 -9.001l4.001 4.001h-4z" />
</symbol>
	<symbol id="filled-file-phone" xmlns="http://www.w3.org/2000/svg" width="24" height="24" viewBox="0 0 24 24" fill="currentColor"
> <path d="M12 2l.117 .007a1 1 0 0 1 .876 .876l.007 .117v4l.005 .15a2 2 0 0 0 1.838 1.844l.157 .006h4l.117 .007a1 1 0 0 1 .876 .876l.007 .117v9a3 3 0 0 1 -2.824 2.995l-.176 .005h-10a3 3 0 0 1 -2.995 -2.824l-.005 -.176v-14a3 3 0 0 1 2.824 -2.995l.176 -.005zm-2.5 7.5a1.5 1.5 0 0 0 -1.5 1.5v1a6 6 0 0 0 6 6h1a1.5 1.5 0 0 0 0 -3h-1l-.144 .007a1.5 1.5 0 0 0 -1.128 .697l-.042 .074l-.022 -.007a4.01 4.01 0 0 1 -2.435 -2.435l-.008 -.023l.075 -.041a1.5 1.5 0 0 0 .704 -1.272v-1a1.5 1.5 0 0 0 -1.5 -1.5m5.499 -6.501l4.001 4.001h-4z" />
</symbol>
	<symbol id="filled-file-rss" xmlns="http://www.w3.org/2000/svg" width="24" height="24" viewBox="0 0 24 24" fill="currentColor"
> <path d="M12 2l.117 .007a1 1 0 0 1 .876 .876l.007 .117v4l.005 .15a2 2 0 0 0 1.838 1.844l.157 .006h4l.117 .007a1 1 0 0 1 .876 .876l.007 .117v9a3 3 0 0 1 -2.824 2.995l-.176 .005h-10a3 3 0 0 1 -2.995 -2.824l-.005 -.176v-14a3 3 0 0 1 2.824 -2.995l.176 -.005zm-3 11a1 1 0 0 0 0 2a2 2 0 0 1 1.995 1.85l.005 .15a1 1 0 0 0 2 0a4 4 0 0 0 -4 -4m0 -3a1 1 0 0 0 0 2a5 5 0 0 1 5 5a1 1 0 0 0 2 0a7 7 0 0 0 -7 -7m.01 6h-.01a1 1 0 0 0 -.117 1.993l.127 .007a1 1 0 0 0 0 -2m5.989 -13.001l4.001 4.001h-4z" />
</symbol>

	<use xlink:href="#filled-drop-circle" x="24" y="24" width="24" height="24" />
	<use xlink:href="#filled-dual-screen" x="68" y="24" width="24" height="24" />
	<use xlink:href="#filled-dumpling" x="112" y="24" width="24" height="24" />
	<use xlink:href="#filled-egg-fried" x="156" y="24" width="24" height="24" />
	<use xlink:href="#filled-escalator-down" x="200" y="24" width="24" height="24" />
	<use xlink:href="#filled-escalator-up" x="244" y="24" width="24" height="24" />
	<use xlink:href="#filled-escalator" x="24" y="68" width="24" height="24" />
	<use xlink:href="#filled-exchange" x="68" y="68" width="24" height="24" />
	<use xlink:href="#filled-explicit" x="112" y="68" width="24" height="24" />
	<use xlink:href="#filled-file-check" x="156" y="68" width="24" height="24" />
	<use xlink:href="#filled-file-code-2" x="200" y="68" width="24" height="24" />
	<use xlink:href="#filled-file-cv" x="244" y="68" width="24" height="24" />
	<use xlink:href="#filled-file-delta" x="24" y="112" width="24" height="24" />
	<use xlink:href="#filled-file-download" x="68" y="112" width="24" height="24" />
	<use xlink:href="#filled-file-lambda" x="112" y="112" width="24" height="24" />
	<use xlink:href="#filled-file-percent" x="156" y="112" width="24" height="24" />
	<use xlink:href="#filled-file-phone" x="200" y="112" width="24" height="24" />
	<use xlink:href="#filled-file-rss" x="244" y="112" width="24" height="24" />

</svg>