<svg xmlns="http://www.w3.org/2000/svg" xmlns:xlink="http://www.w3.org/1999/xlink" viewBox="0 0 292 160" width="292" height="160" style="color: #354052"><rect x="0" y="0" width="292" height="160" fill="#fff"></rect>
	<symbol id="box-align-bottom" class="icon icon-tabler icon-tabler-box-align-bottom" viewBox="0 0 24 24" stroke-width="2" stroke="currentColor" fill="none" stroke-linecap="round" stroke-linejoin="round"><path stroke="none" d="M0 0h24v24H0z" fill="none"/><path d="M4 14h16v5a1 1 0 0 1 -1 1h-14a1 1 0 0 1 -1 -1v-5z" /><path d="M4 9v.01" /><path d="M4 4v.01" /><path d="M9 4v.01" /><path d="M15 4v.01" /><path d="M20 4v.01" /><path d="M20 9v.01" />
</symbol>
	<symbol id="box-align-left" class="icon icon-tabler icon-tabler-box-align-left" viewBox="0 0 24 24" stroke-width="2" stroke="currentColor" fill="none" stroke-linecap="round" stroke-linejoin="round"><path stroke="none" d="M0 0h24v24H0z" fill="none"/><path d="M9.752 19.753v-16h-5a1 1 0 0 0 -1 1v14a1 1 0 0 0 1 1h5z" /><path d="M14.752 19.753h-.01" /><path d="M19.753 19.753h-.011" /><path d="M19.753 14.752h-.011" /><path d="M19.753 8.752h-.011" /><path d="M19.753 3.752h-.011" /><path d="M14.752 3.752h-.01" />
</symbol>
	<symbol id="box-align-right" class="icon icon-tabler icon-tabler-box-align-right" viewBox="0 0 24 24" stroke-width="2" stroke="currentColor" fill="none" stroke-linecap="round" stroke-linejoin="round"><path stroke="none" d="M0 0h24v24H0z" fill="none"/><path d="M14.248 19.753v-16h5a1 1 0 0 1 1 1v14a1 1 0 0 1 -1 1h-5z" /><path d="M9.248 19.753h.01" /><path d="M4.247 19.753h.011" /><path d="M4.247 14.752h.011" /><path d="M4.247 8.752h.011" /><path d="M4.247 3.752h.011" /><path d="M9.248 3.752h.01" />
</symbol>
	<symbol id="box-align-top" class="icon icon-tabler icon-tabler-box-align-top" viewBox="0 0 24 24" stroke-width="2" stroke="currentColor" fill="none" stroke-linecap="round" stroke-linejoin="round"><path stroke="none" d="M0 0h24v24H0z" fill="none"/><path d="M4 9.505h16v-5a1 1 0 0 0 -1 -1h-14a1 1 0 0 0 -1 1v5z" /><path d="M4 14.505v-.01" /><path d="M4 19.505v-.01" /><path d="M9 19.505v-.01" /><path d="M15 19.505v-.01" /><path d="M20 19.505v-.01" /><path d="M20 14.505v-.01" />
</symbol>
	<symbol id="brand-unity" class="icon icon-tabler icon-tabler-brand-unity" viewBox="0 0 24 24" stroke-width="2" stroke="currentColor" fill="none" stroke-linecap="round" stroke-linejoin="round"><path stroke="none" d="M0 0h24v24H0z" fill="none"/><path d="M2 13h11l5 -10" /><path d="M6.5 18l-4.5 -5l4.5 -5" /><path d="M13 13l5 8" /><path d="M11.5 4l6.5 -1l2 6" /><path d="M20 15l-2 6l-6.5 -.5" />
</symbol>
	<symbol id="playstation-circle" class="icon icon-tabler icon-tabler-playstation-circle" viewBox="0 0 24 24" stroke-width="2" stroke="currentColor" fill="none" stroke-linecap="round" stroke-linejoin="round"><path stroke="none" d="M0 0h24v24H0z" fill="none"/><path d="M12 21a9 9 0 0 0 9 -9a9 9 0 0 0 -9 -9a9 9 0 0 0 -9 9a9 9 0 0 0 9 9z" /><circle cx="12" cy="12" r="4.5" />
</symbol>
	<symbol id="playstation-square" class="icon icon-tabler icon-tabler-playstation-square" viewBox="0 0 24 24" stroke-width="2" stroke="currentColor" fill="none" stroke-linecap="round" stroke-linejoin="round"><path stroke="none" d="M0 0h24v24H0z" fill="none"/><path d="M12 21a9 9 0 0 0 9 -9a9 9 0 0 0 -9 -9a9 9 0 0 0 -9 9a9 9 0 0 0 9 9z" /><rect x="8" y="8" width="8" height="8" rx="1" />
</symbol>
	<symbol id="playstation-triangle" class="icon icon-tabler icon-tabler-playstation-triangle" viewBox="0 0 24 24" stroke-width="2" stroke="currentColor" fill="none" stroke-linecap="round" stroke-linejoin="round"><path stroke="none" d="M0 0h24v24H0z" fill="none"/><path d="M12 21a9 9 0 0 0 9 -9a9 9 0 0 0 -9 -9a9 9 0 0 0 -9 9a9 9 0 0 0 9 9z" /><path d="M7.5 15h9l-4.5 -8z" />
</symbol>
	<symbol id="playstation-x" class="icon icon-tabler icon-tabler-playstation-x" viewBox="0 0 24 24" stroke-width="2" stroke="currentColor" fill="none" stroke-linecap="round" stroke-linejoin="round"><path stroke="none" d="M0 0h24v24H0z" fill="none"/><path d="M12 21a9 9 0 0 0 9 -9a9 9 0 0 0 -9 -9a9 9 0 0 0 -9 9a9 9 0 0 0 9 9z" /><path d="M8.5 8.5l7 7" /><path d="M8.5 15.5l7 -7" />
</symbol>
	<symbol id="text-size" class="icon icon-tabler icon-tabler-text-size" viewBox="0 0 24 24" stroke-width="2" stroke="currentColor" fill="none" stroke-linecap="round" stroke-linejoin="round"><path stroke="none" d="M0 0h24v24H0z" fill="none"/><path d="M3 7v-2h13v2" /><path d="M10 5v14" /><path d="M12 19h-4" /><path d="M15 13v-1h6v1" /><path d="M18 12v7" /><path d="M17 19h2" />
</symbol>
	<symbol id="transition-bottom" class="icon icon-tabler icon-tabler-transition-bottom" viewBox="0 0 24 24" stroke-width="2" stroke="currentColor" fill="none" stroke-linecap="round" stroke-linejoin="round"><path stroke="none" d="M0 0h24v24H0z" fill="none"/><path d="M21 18a3 3 0 0 1 -3 3h-12a3 3 0 0 1 -3 -3" /><rect x="3" y="3" width="18" height="6" rx="3" /><path d="M12 9v8" /><path d="M9 14l3 3l3 -3" />
</symbol>
	<symbol id="transition-left" class="icon icon-tabler icon-tabler-transition-left" viewBox="0 0 24 24" stroke-width="2" stroke="currentColor" fill="none" stroke-linecap="round" stroke-linejoin="round"><path stroke="none" d="M0 0h24v24H0z" fill="none"/><path d="M6 21a3 3 0 0 1 -3 -3v-12a3 3 0 0 1 3 -3" /><path d="M21 6v12a3 3 0 0 1 -6 0v-12a3 3 0 0 1 6 0z" /><path d="M15 12h-8" /><path d="M10 9l-3 3l3 3" />
</symbol>
	<symbol id="transition-right" class="icon icon-tabler icon-tabler-transition-right" viewBox="0 0 24 24" stroke-width="2" stroke="currentColor" fill="none" stroke-linecap="round" stroke-linejoin="round"><path stroke="none" d="M0 0h24v24H0z" fill="none"/><path d="M18 3a3 3 0 0 1 3 3v12a3 3 0 0 1 -3 3" /><path d="M3 18v-12a3 3 0 1 1 6 0v12a3 3 0 0 1 -6 0z" /><path d="M9 12h8" /><path d="M14 15l3 -3l-3 -3" />
</symbol>
	<symbol id="transition-top" class="icon icon-tabler icon-tabler-transition-top" viewBox="0 0 24 24" stroke-width="2" stroke="currentColor" fill="none" stroke-linecap="round" stroke-linejoin="round"><path stroke="none" d="M0 0h24v24H0z" fill="none"/><path d="M21 6a3 3 0 0 0 -3 -3h-12a3 3 0 0 0 -3 3" /><path d="M6 21h12a3 3 0 0 0 0 -6h-12a3 3 0 0 0 0 6z" /><path d="M12 15v-8" /><path d="M9 10l3 -3l3 3" />
</symbol>
	<symbol id="xbox-a" class="icon icon-tabler icon-tabler-xbox-a" viewBox="0 0 24 24" stroke-width="2" stroke="currentColor" fill="none" stroke-linecap="round" stroke-linejoin="round"><path stroke="none" d="M0 0h24v24H0z" fill="none"/><path d="M12 21a9 9 0 0 0 9 -9a9 9 0 0 0 -9 -9a9 9 0 0 0 -9 9a9 9 0 0 0 9 9z" /><path d="M15 16l-3 -8l-3 8" /><path d="M14 14h-4" />
</symbol>
	<symbol id="xbox-b" class="icon icon-tabler icon-tabler-xbox-b" viewBox="0 0 24 24" stroke-width="2" stroke="currentColor" fill="none" stroke-linecap="round" stroke-linejoin="round"><path stroke="none" d="M0 0h24v24H0z" fill="none"/><path d="M12 21a9 9 0 0 0 9 -9a9 9 0 0 0 -9 -9a9 9 0 0 0 -9 9a9 9 0 0 0 9 9z" /><path d="M13 12a2 2 0 1 1 0 4h-3v-4" /><path d="M13 12h-3" /><path d="M13 12a2 2 0 1 0 0 -4h-3v4" />
</symbol>
	<symbol id="xbox-x" class="icon icon-tabler icon-tabler-xbox-x" viewBox="0 0 24 24" stroke-width="2" stroke="currentColor" fill="none" stroke-linecap="round" stroke-linejoin="round"><path stroke="none" d="M0 0h24v24H0z" fill="none"/><path d="M12 21a9 9 0 0 0 9 -9a9 9 0 0 0 -9 -9a9 9 0 0 0 -9 9a9 9 0 0 0 9 9z" /><path d="M9 8l6 8" /><path d="M15 8l-6 8" />
</symbol>
	<symbol id="xbox-y" class="icon icon-tabler icon-tabler-xbox-y" viewBox="0 0 24 24" stroke-width="2" stroke="currentColor" fill="none" stroke-linecap="round" stroke-linejoin="round"><path stroke="none" d="M0 0h24v24H0z" fill="none"/><path d="M12 21a9 9 0 0 0 9 -9a9 9 0 0 0 -9 -9a9 9 0 0 0 -9 9a9 9 0 0 0 9 9z" /><path d="M9 8l3 4" /><path d="M15 8l-2.988 3.984l-.012 4.016" />
</symbol>

	<use xlink:href="#box-align-bottom" x="24" y="24" width="24" height="24" />
	<use xlink:href="#box-align-left" x="68" y="24" width="24" height="24" />
	<use xlink:href="#box-align-right" x="112" y="24" width="24" height="24" />
	<use xlink:href="#box-align-top" x="156" y="24" width="24" height="24" />
	<use xlink:href="#brand-unity" x="200" y="24" width="24" height="24" />
	<use xlink:href="#playstation-circle" x="244" y="24" width="24" height="24" />
	<use xlink:href="#playstation-square" x="24" y="68" width="24" height="24" />
	<use xlink:href="#playstation-triangle" x="68" y="68" width="24" height="24" />
	<use xlink:href="#playstation-x" x="112" y="68" width="24" height="24" />
	<use xlink:href="#text-size" x="156" y="68" width="24" height="24" />
	<use xlink:href="#transition-bottom" x="200" y="68" width="24" height="24" />
	<use xlink:href="#transition-left" x="244" y="68" width="24" height="24" />
	<use xlink:href="#transition-right" x="24" y="112" width="24" height="24" />
	<use xlink:href="#transition-top" x="68" y="112" width="24" height="24" />
	<use xlink:href="#xbox-a" x="112" y="112" width="24" height="24" />
	<use xlink:href="#xbox-b" x="156" y="112" width="24" height="24" />
	<use xlink:href="#xbox-x" x="200" y="112" width="24" height="24" />
	<use xlink:href="#xbox-y" x="244" y="112" width="24" height="24" />

</svg>