<svg xmlns="http://www.w3.org/2000/svg" xmlns:xlink="http://www.w3.org/1999/xlink" viewBox="0 0 322 222" width="322" height="222" style="color: #354052"><rect x="0" y="0" width="322" height="222" fill="#fff"></rect>
	<symbol id="2fa" class="icon icon-tabler icon-tabler-2fa" viewBox="0 0 24 24" stroke-width="2" stroke="currentColor" fill="none" stroke-linecap="round" stroke-linejoin="round"><path stroke="none" d="M0 0h24v24H0z"/><path d="M7 16h-4 l3.47 -4.66 a2 2 0 1 0 -3.47 -1.54" /><path d="M10 16v-8h4" /><line x1="10" y1="12" x2="13" y2="12" /><path d="M17 16v-6a2 2 0 0 1 4 0v6" /><line x1="17" y1="13" x2="21" y2="13" />
</symbol>
	<symbol id="brand-tailwind" class="icon icon-tabler icon-tabler-brand-tailwind" viewBox="0 0 24 24" stroke-width="2" stroke="currentColor" fill="none" stroke-linecap="round" stroke-linejoin="round"><path stroke="none" d="M0 0h24v24H0z"/><path d="M11.667 6 c -2.49 0 -4.044 1.222 -4.667 3.667 c 0.933 -1.223 2.023 -1.68 3.267 -1.375 c 0.71 0.174 1.217 0.68 1.778 1.24 c 0.916 0.912 1.975 1.968 4.288 1.968 c 2.49 0 4.044 -1.222 4.667 -3.667 c -0.933 1.223 -2.023 1.68 -3.267 1.375 c -0.71 -0.174 -1.217 -0.68 -1.778 -1.24 c -0.916 -0.912 -1.975 -1.968 -4.288 -1.968 z m-4 6.5 c -2.49 0 -4.044 1.222 -4.667 3.667 c 0.933 -1.223 2.023 -1.68 3.267 -1.375 c 0.71 0.174 1.217 0.68 1.778 1.24 c 0.916 0.912 1.975 1.968 4.288 1.968 c 2.49 0 4.044 -1.222 4.667 -3.667 c -0.933 1.223 -2.023 1.68 -3.267 1.375 c -0.71 -0.174 -1.217 -0.68 -1.778 -1.24 c -0.916 -0.912 -1.975 -1.968 -4.288 -1.968 z" />
</symbol>
	<symbol id="loader-quarter" class="icon icon-tabler icon-tabler-loader-quarter" viewBox="0 0 24 24" stroke-width="2" stroke="currentColor" fill="none" stroke-linecap="round" stroke-linejoin="round"><path stroke="none" d="M0 0h24v24H0z"/><line x1="12" y1="6" x2="12" y2="3" /><line x1="6" y1="12" x2="3" y2="12" /><line x1="7.75" y1="7.75" x2="5.6" y2="5.6" />
</symbol>
	<symbol id="loader" class="icon icon-tabler icon-tabler-loader" viewBox="0 0 24 24" stroke-width="2" stroke="currentColor" fill="none" stroke-linecap="round" stroke-linejoin="round"><path stroke="none" d="M0 0h24v24H0z"/><line x1="12" y1="6" x2="12" y2="3" /><line x1="16.25" y1="7.75" x2="18.4" y2="5.6" /><line x1="18" y1="12" x2="21" y2="12" /><line x1="16.25" y1="16.25" x2="18.4" y2="18.4" /><line x1="12" y1="18" x2="12" y2="21" /><line x1="7.75" y1="16.25" x2="5.6" y2="18.4" /><line x1="6" y1="12" x2="3" y2="12" /><line x1="7.75" y1="7.75" x2="5.6" y2="5.6" />
</symbol>
	<symbol id="stairs-down" class="icon icon-tabler icon-tabler-stairs-down" viewBox="0 0 24 24" stroke-width="2" stroke="currentColor" fill="none" stroke-linecap="round" stroke-linejoin="round"><path stroke="none" d="M0 0h24v24H0z"/><path d="M4 20h4v-4h4v-4h4v-4h4" /><path d="M11 4l-7 7v-4m4 4h-4" />
</symbol>
	<symbol id="stairs-up" class="icon icon-tabler icon-tabler-stairs-up" viewBox="0 0 24 24" stroke-width="2" stroke="currentColor" fill="none" stroke-linecap="round" stroke-linejoin="round"><path stroke="none" d="M0 0h24v24H0z"/><path d="M4 20h4v-4h4v-4h4v-4h4" /><path d="M4 11l7 -7v4m-4 -4h4" />
</symbol>
	<symbol id="stairs" class="icon icon-tabler icon-tabler-stairs" viewBox="0 0 24 24" stroke-width="2" stroke="currentColor" fill="none" stroke-linecap="round" stroke-linejoin="round"><path stroke="none" d="M0 0h24v24H0z"/><path d="M4 18h4v-4h4v-4h4v-4h4" />
</symbol>
	<symbol id="text-wrap-disabled" class="icon icon-tabler icon-tabler-text-wrap-disabled" viewBox="0 0 24 24" stroke-width="2" stroke="currentColor" fill="none" stroke-linecap="round" stroke-linejoin="round"><path stroke="none" d="M0 0h24v24H0z"/><line x1="4" y1="6" x2="14" y2="6" /><line x1="4" y1="18" x2="14" y2="18" /><path d="M4 12h17l-3 -3m0 6l3 -3" />
</symbol>
	<symbol id="vector-triangle" class="icon icon-tabler icon-tabler-vector-triangle" viewBox="0 0 24 24" stroke-width="2" stroke="currentColor" fill="none" stroke-linecap="round" stroke-linejoin="round"><path stroke="none" d="M0 0h24v24H0z"/><rect x="10" y="4" width="4" height="4" rx="1" /><rect x="3" y="17" width="4" height="4" rx="1" /><rect x="17" y="17" width="4" height="4" rx="1" /><line x1="6.5" y1="17.1" x2="11.5" y2="8" /><line x1="17.5" y1="17.1" x2="12.5" y2="8" /><line x1="7" y1="19" x2="17" y2="19" />
</symbol>
	<symbol id="vector" class="icon icon-tabler icon-tabler-vector" viewBox="0 0 24 24" stroke-width="2" stroke="currentColor" fill="none" stroke-linecap="round" stroke-linejoin="round"><path stroke="none" d="M0 0h24v24H0z"/><rect x="3" y="3" width="4" height="4" rx="1" /><rect x="17" y="3" width="4" height="4" rx="1" /><rect x="17" y="17" width="4" height="4" rx="1" /><rect x="3" y="17" width="4" height="4" rx="1" /><line x1="5" y1="7" x2="5" y2="17" /><line x1="19" y1="7" x2="19" y2="17" /><line x1="7" y1="5" x2="17" y2="5" /><line x1="7" y1="19" x2="17" y2="19" />
</symbol>
	<symbol id="wiper-wash" class="icon icon-tabler icon-tabler-wiper-wash" viewBox="0 0 24 24" stroke-width="2" stroke="currentColor" fill="none" stroke-linecap="round" stroke-linejoin="round"><path stroke="none" d="M0 0h24v24H0z"/><circle cx="12" cy="20" r="1" /><path d="M3 11l5.5 5.5a5 5 0 0 1 7 0l5.5 -5.5a12 12 0 0 0 -18 0" /><path d="M12 20v-14" /><path d="M4 6a4 4 0 0 1 .4 -1.8" /><path d="M7 2.1a4 4 0 0 1 2 0" /><path d="M12 6a4 4 0 0 0 -.4 -1.8" /><path d="M12 6a4 4 0 0 1 .4 -1.8" /><path d="M15 2.1a4 4 0 0 1 2 0" /><path d="M20 6a4 4 0 0 0 -.4 -1.8" />
</symbol>
	<symbol id="wiper" class="icon icon-tabler icon-tabler-wiper" viewBox="0 0 24 24" stroke-width="2" stroke="currentColor" fill="none" stroke-linecap="round" stroke-linejoin="round"><path stroke="none" d="M0 0h24v24H0z"/><circle cx="12" cy="18" r="1" /><path d="M3 9l5.5 5.5a5 5 0 0 1 7 0l5.5 -5.5a12 12 0 0 0 -18 0" /><line x1="12" y1="18" x2="9.8" y2="5.2" />
</symbol>
	<symbol id="zodiac-aquarius" class="icon icon-tabler icon-tabler-zodiac-aquarius" viewBox="0 0 24 24" stroke-width="2" stroke="currentColor" fill="none" stroke-linecap="round" stroke-linejoin="round"><path stroke="none" d="M0 0h24v24H0z"/><path d="M3 10l3-3 3 3 3-3 3 3 3-3 3 3" /><path d="M3 17l3-3 3 3 3-3 3 3 3-3 3 3" />
</symbol>
	<symbol id="zodiac-aries" class="icon icon-tabler icon-tabler-zodiac-aries" viewBox="0 0 24 24" stroke-width="2" stroke="currentColor" fill="none" stroke-linecap="round" stroke-linejoin="round"><path stroke="none" d="M0 0h24v24H0z"/><path d="M12 5 a5 5 0 1 0 -4 8" /><path d="M16 13a5 5 0 1 0 -4 -8" /><path d="M12 21 v -16" />
</symbol>
	<symbol id="zodiac-cancer" class="icon icon-tabler icon-tabler-zodiac-cancer" viewBox="0 0 24 24" stroke-width="2" stroke="currentColor" fill="none" stroke-linecap="round" stroke-linejoin="round"><path stroke="none" d="M0 0h24v24H0z"/><circle cx="6" cy="12" r="3" /><circle cx="18" cy="12" r="3" /><path d="M3 12a10 6.5 0 0 1 14 -6.5" /><path d="M21 12a10 6.5 0 0 1 -14 6.5" />
</symbol>
	<symbol id="zodiac-capricorn" class="icon icon-tabler icon-tabler-zodiac-capricorn" viewBox="0 0 24 24" stroke-width="2" stroke="currentColor" fill="none" stroke-linecap="round" stroke-linejoin="round"><path stroke="none" d="M0 0h24v24H0z"/><path d="M4 4a3 3 0 0 1 3 3v9" /><path d="M7 7a3 3 0 0 1 6 0v11a3 3 0 0 1 -3 3" /><circle cx="16" cy="17" r="3" />
</symbol>
	<symbol id="zodiac-gemini" class="icon icon-tabler icon-tabler-zodiac-gemini" viewBox="0 0 24 24" stroke-width="2" stroke="currentColor" fill="none" stroke-linecap="round" stroke-linejoin="round"><path stroke="none" d="M0 0h24v24H0z"/><path d="M3 3a21 21 0 0 0 18 0" /><path d="M3 21a21 21 0 0 1 18 0" /><line x1="7" y1="4.5" x2="7" y2="19.5" /><line x1="17" y1="4.5" x2="17" y2="19.5" />
</symbol>
	<symbol id="zodiac-leo" class="icon icon-tabler icon-tabler-zodiac-leo" viewBox="0 0 24 24" stroke-width="2" stroke="currentColor" fill="none" stroke-linecap="round" stroke-linejoin="round"><path stroke="none" d="M0 0h24v24H0z"/><path d="M13 17a4 4 0 1 0 8 0" /><circle cx="6" cy="16" r="3" /><circle cx="11" cy="7" r="4" /><path d="M7 7c0 3 2 5 2 9" /><path d="M15 7c0 4-2 6-2 10" />
</symbol>
	<symbol id="zodiac-libra" class="icon icon-tabler icon-tabler-zodiac-libra" viewBox="0 0 24 24" stroke-width="2" stroke="currentColor" fill="none" stroke-linecap="round" stroke-linejoin="round"><path stroke="none" d="M0 0h24v24H0z"/><line x1="5" y1="20" x2="19" y2="20" /><path d="M5 17h5v-.3a7 7 0 1 1 4 0v.3h5" />
</symbol>
	<symbol id="zodiac-pisces" class="icon icon-tabler icon-tabler-zodiac-pisces" viewBox="0 0 24 24" stroke-width="2" stroke="currentColor" fill="none" stroke-linecap="round" stroke-linejoin="round"><path stroke="none" d="M0 0h24v24H0z"/><path d="M5 3a21 21 0 0 1 0 18" /><path d="M19 3a21 21 0 0 0 0 18" /><line x1="5" y1="12" x2="19" y2="12" />
</symbol>
	<symbol id="zodiac-sagittarius" class="icon icon-tabler icon-tabler-zodiac-sagittarius" viewBox="0 0 24 24" stroke-width="2" stroke="currentColor" fill="none" stroke-linecap="round" stroke-linejoin="round"><path stroke="none" d="M0 0h24v24H0z"/><line x1="4" y1="20" x2="20" y2="4" /><path d="M13 4h7v7" /><line x1="6.5" y1="12.5" x2="11.5" y2="17.5" />
</symbol>
	<symbol id="zodiac-scorpio" class="icon icon-tabler icon-tabler-zodiac-scorpio" viewBox="0 0 24 24" stroke-width="2" stroke="currentColor" fill="none" stroke-linecap="round" stroke-linejoin="round"><path stroke="none" d="M0 0h24v24H0z"/><path d="M3 4a2 2 0 0 1 2 2v9" /><path d="M5 6a2 2 0 0 1 4 0v9" /><path d="M9 6a2 2 0 0 1 4 0v10a3 3 0 0 0 3 3h5l-3 -3m0 6l3 -3" />
</symbol>
	<symbol id="zodiac-taurus" class="icon icon-tabler icon-tabler-zodiac-taurus" viewBox="0 0 24 24" stroke-width="2" stroke="currentColor" fill="none" stroke-linecap="round" stroke-linejoin="round"><path stroke="none" d="M0 0h24v24H0z"/><path d="M6 3a6 6 0 0 0 12 0" /><circle cx="12" cy="15" r="6" />
</symbol>
	<symbol id="zodiac-virgo" class="icon icon-tabler icon-tabler-zodiac-virgo" viewBox="0 0 24 24" stroke-width="2" stroke="currentColor" fill="none" stroke-linecap="round" stroke-linejoin="round"><path stroke="none" d="M0 0h24v24H0z"/><path d="M3 4a2 2 0 0 1 2 2v9" /><path d="M5 6a2 2 0 0 1 4 0v9" /><path d="M9 6a2 2 0 0 1 4 0v10a7 5 0 0 0 7 5" /><path d="M12 21a7 5 0 0 0 7 -5v-2a3 3 0 0 0 -6 0" />
</symbol>

	<use xlink:href="#2fa" x="24" y="24" width="24" height="24" />
	<use xlink:href="#brand-tailwind" x="74" y="24" width="24" height="24" />
	<use xlink:href="#loader-quarter" x="124" y="24" width="24" height="24" />
	<use xlink:href="#loader" x="174" y="24" width="24" height="24" />
	<use xlink:href="#stairs-down" x="224" y="24" width="24" height="24" />
	<use xlink:href="#stairs-up" x="274" y="24" width="24" height="24" />
	<use xlink:href="#stairs" x="24" y="74" width="24" height="24" />
	<use xlink:href="#text-wrap-disabled" x="74" y="74" width="24" height="24" />
	<use xlink:href="#vector-triangle" x="124" y="74" width="24" height="24" />
	<use xlink:href="#vector" x="174" y="74" width="24" height="24" />
	<use xlink:href="#wiper-wash" x="224" y="74" width="24" height="24" />
	<use xlink:href="#wiper" x="274" y="74" width="24" height="24" />
	<use xlink:href="#zodiac-aquarius" x="24" y="124" width="24" height="24" />
	<use xlink:href="#zodiac-aries" x="74" y="124" width="24" height="24" />
	<use xlink:href="#zodiac-cancer" x="124" y="124" width="24" height="24" />
	<use xlink:href="#zodiac-capricorn" x="174" y="124" width="24" height="24" />
	<use xlink:href="#zodiac-gemini" x="224" y="124" width="24" height="24" />
	<use xlink:href="#zodiac-leo" x="274" y="124" width="24" height="24" />
	<use xlink:href="#zodiac-libra" x="24" y="174" width="24" height="24" />
	<use xlink:href="#zodiac-pisces" x="74" y="174" width="24" height="24" />
	<use xlink:href="#zodiac-sagittarius" x="124" y="174" width="24" height="24" />
	<use xlink:href="#zodiac-scorpio" x="174" y="174" width="24" height="24" />
	<use xlink:href="#zodiac-taurus" x="224" y="174" width="24" height="24" />
	<use xlink:href="#zodiac-virgo" x="274" y="174" width="24" height="24" />

</svg>