<svg xmlns="http://www.w3.org/2000/svg" xmlns:xlink="http://www.w3.org/1999/xlink" viewBox="0 0 292 160" width="292" height="160" style="color: #354052"><rect x="0" y="0" width="292" height="160" fill="#fff"></rect>
	<symbol id="barrier-block" class="icon icon-tabler icon-tabler-barrier-block" viewBox="0 0 24 24" stroke-width="2" stroke="currentColor" fill="none" stroke-linecap="round" stroke-linejoin="round"><path stroke="none" d="M0 0h24v24H0z" fill="none"/><rect x="4" y="7" width="16" height="9" rx="1" /><path d="M7 16v4" /><path d="M7.5 16l9 -9" /><path d="M13.5 16l6.5 -6.5" /><path d="M4 13.5l6.5 -6.5" /><path d="M17 16v4" /><path d="M5 20h4" /><path d="M15 20h4" /><path d="M17 7v-2" /><path d="M7 7v-2" />
</symbol>
	<symbol id="cake" class="icon icon-tabler icon-tabler-cake" viewBox="0 0 24 24" stroke-width="2" stroke="currentColor" fill="none" stroke-linecap="round" stroke-linejoin="round"><path stroke="none" d="M0 0h24v24H0z" fill="none"/><path d="M3 20h18v-8a3 3 0 0 0 -3 -3h-12a3 3 0 0 0 -3 3v8z" /><path d="M2.996 14.803c.312 .135 .654 .204 1.004 .197a2.4 2.4 0 0 0 2 -1a2.4 2.4 0 0 1 2 -1a2.4 2.4 0 0 1 2 1a2.4 2.4 0 0 0 2 1a2.4 2.4 0 0 0 2 -1a2.4 2.4 0 0 1 2 -1a2.4 2.4 0 0 1 2 1a2.4 2.4 0 0 0 2 1c.35 .007 .692 -.062 1.004 -.197" /><path d="M12 4l1.465 1.638a2 2 0 1 1 -3.015 .099l1.55 -1.737z" />
</symbol>
	<symbol id="circle-rectangle" class="icon icon-tabler icon-tabler-circle-rectangle" viewBox="0 0 24 24" stroke-width="2" stroke="currentColor" fill="none" stroke-linecap="round" stroke-linejoin="round"><path stroke="none" d="M0 0h24v24H0z" fill="none"/><circle cx="12" cy="12" r="9" /><path d="M7 10h10v4h-10z" />
</symbol>
	<symbol id="circle-triangle" class="icon icon-tabler icon-tabler-circle-triangle" viewBox="0 0 24 24" stroke-width="2" stroke="currentColor" fill="none" stroke-linecap="round" stroke-linejoin="round"><path stroke="none" d="M0 0h24v24H0z" fill="none"/><circle cx="12" cy="12" r="9" /><path d="M12 20l7 -12h-14z" />
</symbol>
	<symbol id="message-2-code" class="icon icon-tabler icon-tabler-message-2-code" viewBox="0 0 24 24" stroke-width="2" stroke="currentColor" fill="none" stroke-linecap="round" stroke-linejoin="round"><path stroke="none" d="M0 0h24v24H0z" fill="none"/><path d="M12 20l-3 -3h-2a3 3 0 0 1 -3 -3v-6a3 3 0 0 1 3 -3h10a3 3 0 0 1 3 3v6a3 3 0 0 1 -3 3h-2l-3 3" /><path d="M10 9l-2 2l2 2" /><path d="M14 9l2 2l-2 2" />
</symbol>
	<symbol id="message-code" class="icon icon-tabler icon-tabler-message-code" viewBox="0 0 24 24" stroke-width="2" stroke="currentColor" fill="none" stroke-linecap="round" stroke-linejoin="round"><path stroke="none" d="M0 0h24v24H0z" fill="none"/><path d="M4 21v-13a3 3 0 0 1 3 -3h10a3 3 0 0 1 3 3v6a3 3 0 0 1 -3 3h-9l-4 4" /><path d="M10 9l-2 2l2 2" /><path d="M14 9l2 2l-2 2" />
</symbol>
	<symbol id="north-star" class="icon icon-tabler icon-tabler-north-star" viewBox="0 0 24 24" stroke-width="2" stroke="currentColor" fill="none" stroke-linecap="round" stroke-linejoin="round"><path stroke="none" d="M0 0h24v24H0z" fill="none"/><path d="M3 12h18" /><path d="M12 21v-18" /><path d="M7.5 7.5l9 9" /><path d="M7.5 16.5l9 -9" />
</symbol>
	<symbol id="numbers" class="icon icon-tabler icon-tabler-numbers" viewBox="0 0 24 24" stroke-width="2" stroke="currentColor" fill="none" stroke-linecap="round" stroke-linejoin="round"><path stroke="none" d="M0 0h24v24H0z" fill="none"/><path d="M8 10v-7l-2 2" /><path d="M6 16a2 2 0 1 1 4 0c0 .591 -.601 1.46 -1 2l-3 3.001h4" /><path d="M15 14a2 2 0 1 0 2 -2a2 2 0 1 0 -2 -2" /><path d="M6.5 10h3" />
</symbol>
	<symbol id="radar-2" class="icon icon-tabler icon-tabler-radar-2" viewBox="0 0 24 24" stroke-width="2" stroke="currentColor" fill="none" stroke-linecap="round" stroke-linejoin="round"><path stroke="none" d="M0 0h24v24H0z" fill="none"/><circle cx="12" cy="12" r="1" /><path d="M15.51 15.56a5 5 0 1 0 -3.51 1.44" /><path d="M18.832 17.86a9 9 0 1 0 -6.832 3.14" /><path d="M12 12v9" />
</symbol>
	<symbol id="radar" class="icon icon-tabler icon-tabler-radar" viewBox="0 0 24 24" stroke-width="2" stroke="currentColor" fill="none" stroke-linecap="round" stroke-linejoin="round"><path stroke="none" d="M0 0h24v24H0z" fill="none"/><path d="M21 12h-8a1 1 0 1 0 -1 1v8a9 9 0 0 0 9 -9" /><path d="M15.999 8.998a5 5 0 1 0 -6.999 7.003" /><path d="M20.486 8.995a9 9 0 1 0 -11.482 11.495" />
</symbol>
	<symbol id="road" class="icon icon-tabler icon-tabler-road" viewBox="0 0 24 24" stroke-width="2" stroke="currentColor" fill="none" stroke-linecap="round" stroke-linejoin="round"><path stroke="none" d="M0 0h24v24H0z" fill="none"/><path d="M4 19l4 -14" /><path d="M16 5l4 14" /><path d="M12 8v-2" /><path d="M12 13v-2" /><path d="M12 18v-2" />
</symbol>
	<symbol id="section-sign" class="icon icon-tabler icon-tabler-section-sign" viewBox="0 0 24 24" stroke-width="2" stroke="currentColor" fill="none" stroke-linecap="round" stroke-linejoin="round"><path stroke="none" d="M0 0h24v24H0z" fill="none"/><path d="M9.172 19.004a3.001 3.001 0 1 0 2.828 -4.004" /><path d="M14.83 5.002a3.001 3.001 0 1 0 -2.83 3.998" /><circle cx="12" cy="12" r="3" />
</symbol>
	<symbol id="square-asterisk" class="icon icon-tabler icon-tabler-square-asterisk" viewBox="0 0 24 24" stroke-width="2" stroke="currentColor" fill="none" stroke-linecap="round" stroke-linejoin="round"><path stroke="none" d="M0 0h24v24H0z" fill="none"/><rect x="4" y="4" width="16" height="16" rx="2" /><path d="M12 8.5v7" /><path d="M9 10l6 4" /><path d="M9 14l6 -4" />
</symbol>
	<symbol id="square-rotated-forbid-2" class="icon icon-tabler icon-tabler-square-rotated-forbid-2" viewBox="0 0 24 24" stroke-width="2" stroke="currentColor" fill="none" stroke-linecap="round" stroke-linejoin="round"><path stroke="none" d="M0 0h24v24H0z" fill="none"/><path d="M10.5 20.4l-6.9 -6.9c-.781 -.781 -.781 -2.219 0 -3l6.9 -6.9c.781 -.781 2.219 -.781 3 0l6.9 6.9c.781 .781 .781 2.219 0 3l-6.9 6.9c-.781 .781 -2.219 .781 -3 0z" /><path d="M9.5 9.5l5 5" />
</symbol>
	<symbol id="square-rotated-forbid" class="icon icon-tabler icon-tabler-square-rotated-forbid" viewBox="0 0 24 24" stroke-width="2" stroke="currentColor" fill="none" stroke-linecap="round" stroke-linejoin="round"><path stroke="none" d="M0 0h24v24H0z" fill="none"/><path d="M10.5 20.4l-6.9 -6.9c-.781 -.781 -.781 -2.219 0 -3l6.9 -6.9c.781 -.781 2.219 -.781 3 0l6.9 6.9c.781 .781 .781 2.219 0 3l-6.9 6.9c-.781 .781 -2.219 .781 -3 0z" /><path d="M9.5 14.5l5 -5" />
</symbol>
	<symbol id="triangle-inverted" class="icon icon-tabler icon-tabler-triangle-inverted" viewBox="0 0 24 24" stroke-width="2" stroke="currentColor" fill="none" stroke-linecap="round" stroke-linejoin="round"><path stroke="none" d="M0 0h24v24H0z" fill="none"/><path d="M5 4h14a2 2 0 0 1 1.84 2.75l-7.1 12.25a2 2 0 0 1 -3.5 0l-7.1 -12.25a2 2 0 0 1 1.75 -2.75" />
</symbol>
	<symbol id="webhook" class="icon icon-tabler icon-tabler-webhook" viewBox="0 0 24 24" stroke-width="2" stroke="currentColor" fill="none" stroke-linecap="round" stroke-linejoin="round"><path stroke="none" d="M0 0h24v24H0z" fill="none"/><path d="M4.876 13.61a4 4 0 1 0 6.124 3.39h6" /><path d="M15.066 20.502a4 4 0 1 0 1.934 -7.502c-.706 0 -1.424 .179 -2 .5l-3 -5.5" /><path d="M16 8a4 4 0 1 0 -8 0c0 1.506 .77 2.818 2 3.5l-3 5.5" />
</symbol>
	<symbol id="yoga" class="icon icon-tabler icon-tabler-yoga" viewBox="0 0 24 24" stroke-width="2" stroke="currentColor" fill="none" stroke-linecap="round" stroke-linejoin="round"><path stroke="none" d="M0 0h24v24H0z" fill="none"/><circle cx="12" cy="4" r="1" /><path d="M4 20h4l1.5 -3" /><path d="M17 20l-1 -5h-5l1 -7" /><path d="M4 10l4 -1l4 -1l4 1.5l4 1.5" />
</symbol>

	<use xlink:href="#barrier-block" x="24" y="24" width="24" height="24" />
	<use xlink:href="#cake" x="68" y="24" width="24" height="24" />
	<use xlink:href="#circle-rectangle" x="112" y="24" width="24" height="24" />
	<use xlink:href="#circle-triangle" x="156" y="24" width="24" height="24" />
	<use xlink:href="#message-2-code" x="200" y="24" width="24" height="24" />
	<use xlink:href="#message-code" x="244" y="24" width="24" height="24" />
	<use xlink:href="#north-star" x="24" y="68" width="24" height="24" />
	<use xlink:href="#numbers" x="68" y="68" width="24" height="24" />
	<use xlink:href="#radar-2" x="112" y="68" width="24" height="24" />
	<use xlink:href="#radar" x="156" y="68" width="24" height="24" />
	<use xlink:href="#road" x="200" y="68" width="24" height="24" />
	<use xlink:href="#section-sign" x="244" y="68" width="24" height="24" />
	<use xlink:href="#square-asterisk" x="24" y="112" width="24" height="24" />
	<use xlink:href="#square-rotated-forbid-2" x="68" y="112" width="24" height="24" />
	<use xlink:href="#square-rotated-forbid" x="112" y="112" width="24" height="24" />
	<use xlink:href="#triangle-inverted" x="156" y="112" width="24" height="24" />
	<use xlink:href="#webhook" x="200" y="112" width="24" height="24" />
	<use xlink:href="#yoga" x="244" y="112" width="24" height="24" />

</svg>