<svg xmlns="http://www.w3.org/2000/svg" xmlns:xlink="http://www.w3.org/1999/xlink" viewBox="0 0 292 160" width="292" height="160" style="color: #354052"><rect x="0" y="0" width="292" height="160" fill="#fff"></rect>
	<symbol id="brand-bunpo" class="icon icon-tabler icon-tabler-brand-bunpo" viewBox="0 0 24 24" stroke-width="2" stroke="currentColor" fill="none" stroke-linecap="round" stroke-linejoin="round"><path stroke="none" d="M0 0h24v24H0z" fill="none"/><path d="M3.9 7.205a17.764 17.764 0 0 0 4.008 2.753a7.917 7.917 0 0 0 4.57 .567c1.5 -.33 2.907 -.998 4.121 -1.956a12.107 12.107 0 0 0 2.892 -2.903c.603 -.94 .745 -1.766 .484 -2.231c-.261 -.465 -.927 -.568 -1.72 -.257a7.564 7.564 0 0 0 -2.608 2.034a18.425 18.425 0 0 0 -2.588 3.884a34.927 34.927 0 0 0 -2.093 5.073a12.908 12.908 0 0 0 -.677 3.515c-.07 .752 .07 1.51 .405 2.184c.323 .562 1.06 1.132 2.343 1.132c3.474 0 5.093 -3.53 5.463 -5.62c.24 -1.365 -.085 -3.197 -1.182 -4.01" />
</symbol>
	<symbol id="brand-ctemplar" class="icon icon-tabler icon-tabler-brand-ctemplar" viewBox="0 0 24 24" stroke-width="2" stroke="currentColor" fill="none" stroke-linecap="round" stroke-linejoin="round"><path stroke="none" d="M0 0h24v24H0z" fill="none"/><path d="M6.04 14.831l4.46 -4.331" /><path d="M12.555 20.82c4.55 -3.456 7.582 -8.639 8.426 -14.405a1.668 1.668 0 0 0 -.934 -1.767a19.647 19.647 0 0 0 -8.047 -1.648a19.647 19.647 0 0 0 -8.047 1.647a1.668 1.668 0 0 0 -.934 1.767c.844 5.766 3.875 10.95 8.426 14.406a0.948 .948 0 0 0 1.11 0z" /><path d="M20 5c-2 0 -4.37 3.304 -8 6.644c-3.63 -3.34 -6 -6.644 -8 -6.644" /><path d="M17.738 15l-4.238 -4.5" />
</symbol>
	<symbol id="brand-cupra" class="icon icon-tabler icon-tabler-brand-cupra" viewBox="0 0 24 24" stroke-width="2" stroke="currentColor" fill="none" stroke-linecap="round" stroke-linejoin="round"><path stroke="none" d="M0 0h24v24H0z" fill="none"/><path d="M4.5 10l-2.5 -4l15.298 6.909a0.2 .2 0 0 1 .09 .283l-3.388 5.808" /><path d="M10 19l-3.388 -5.808a0.2 .2 0 0 1 .09 -.283l15.298 -6.909l-2.5 4" />
</symbol>
	<symbol id="brand-days-counter" class="icon icon-tabler icon-tabler-brand-days-counter" viewBox="0 0 24 24" stroke-width="2" stroke="currentColor" fill="none" stroke-linecap="round" stroke-linejoin="round"><path stroke="none" d="M0 0h24v24H0z" fill="none"/><path d="M20.779 10.007a9 9 0 1 0 -10.77 10.772" /><path d="M13 21h8v-7" /><path d="M12 8v4l3 3" />
</symbol>
	<symbol id="brand-deliveroo" class="icon icon-tabler icon-tabler-brand-deliveroo" viewBox="0 0 24 24" stroke-width="2" stroke="currentColor" fill="none" stroke-linecap="round" stroke-linejoin="round"><path stroke="none" d="M0 0h24v24H0z" fill="none"/><path d="M15 11l1 -9l5 .5l-1 13.5l-3 6l-12.5 -2.5l-1.5 -6l7 -1.5l-1.5 -7.5l4.5 -1z" /><circle cx="15.5" cy="15.5" r="1" fill="currentColor" /><circle cx="11.5" cy="14.5" r="1" fill="currentColor" />
</symbol>
	<symbol id="brand-dolby-digital" class="icon icon-tabler icon-tabler-brand-dolby-digital" viewBox="0 0 24 24" stroke-width="2" stroke="currentColor" fill="none" stroke-linecap="round" stroke-linejoin="round"><path stroke="none" d="M0 0h24v24H0z" fill="none"/><path d="M21 6v12h-.89c-3.34 0 -6.047 -2.686 -6.047 -6s2.707 -6 6.046 -6h.891z" /><path d="M3.063 6v12h.891c3.34 0 6.046 -2.686 6.046 -6s-2.707 -6 -6.046 -6h-.89z" />
</symbol>
	<symbol id="brand-drops" class="icon icon-tabler icon-tabler-brand-drops" viewBox="0 0 24 24" stroke-width="2" stroke="currentColor" fill="none" stroke-linecap="round" stroke-linejoin="round"><path stroke="none" d="M0 0h24v24H0z" fill="none"/><path d="M17.637 7.416a7.907 7.907 0 0 1 1.76 8.666a8 8 0 0 1 -7.397 4.918a8 8 0 0 1 -7.396 -4.918a7.907 7.907 0 0 1 1.759 -8.666l5.637 -5.416l5.637 5.416z" /><path d="M14.466 10.923a3.595 3.595 0 0 1 .77 3.877a3.5 3.5 0 0 1 -3.236 2.2a3.5 3.5 0 0 1 -3.236 -2.2a3.595 3.595 0 0 1 .77 -3.877l2.466 -2.423l2.466 2.423z" />
</symbol>
	<symbol id="brand-flightradar24" class="icon icon-tabler icon-tabler-brand-flightradar24" viewBox="0 0 24 24" stroke-width="2" stroke="currentColor" fill="none" stroke-linecap="round" stroke-linejoin="round"><path stroke="none" d="M0 0h24v24H0z" fill="none"/><circle cx="12" cy="12" r="9" /><circle cx="12" cy="12" r="5" /><path d="M8.5 20l3.5 -8l-6.5 6" /><circle cx="12" cy="12" r="1" />
</symbol>
	<symbol id="brand-my-oppo" class="icon icon-tabler icon-tabler-brand-my-oppo" viewBox="0 0 24 24" stroke-width="2" stroke="currentColor" fill="none" stroke-linecap="round" stroke-linejoin="round"><path stroke="none" d="M0 0h24v24H0z" fill="none"/><path d="M18.316 5h-12.632l-3.418 4.019a1.089 1.089 0 0 0 .019 1.447l9.714 10.534l9.715 -10.49a1.09 1.09 0 0 0 .024 -1.444l-3.422 -4.066z" /><path d="M9 11l3 3l3 -3" />
</symbol>
	<symbol id="brand-nextcloud" class="icon icon-tabler icon-tabler-brand-nextcloud" viewBox="0 0 24 24" stroke-width="2" stroke="currentColor" fill="none" stroke-linecap="round" stroke-linejoin="round"><path stroke="none" d="M0 0h24v24H0z" fill="none"/><circle cx="12" cy="12" r="5" /><circle cx="4.5" cy="12.5" r="2.5" /><circle cx="19.5" cy="12.5" r="2.5" />
</symbol>
	<symbol id="brand-picsart" class="icon icon-tabler icon-tabler-brand-picsart" viewBox="0 0 24 24" stroke-width="2" stroke="currentColor" fill="none" stroke-linecap="round" stroke-linejoin="round"><path stroke="none" d="M0 0h24v24H0z" fill="none"/><circle cx="12" cy="9" r="7" /><circle cx="12" cy="9" r="3" /><path d="M5 9v11a2 2 0 1 0 4 0v-4.5" />
</symbol>
	<symbol id="brand-revolut" class="icon icon-tabler icon-tabler-brand-revolut" viewBox="0 0 24 24" stroke-width="2" stroke="currentColor" fill="none" stroke-linecap="round" stroke-linejoin="round"><path stroke="none" d="M0 0h24v24H0z" fill="none"/><path d="M10.908 6c-.091 .363 -.908 5 -.908 5h1.228c1.59 0 2.772 -1.168 2.772 -2.943c0 -1.249 -.818 -2.057 -2.087 -2.057h-1.005z" /><path d="M15.5 13.5l1.791 4.558c.535 1.352 1.13 2.008 1.709 2.442c-1 .5 -2.616 .522 -3.605 .497c-.973 0 -2.28 -.24 -3.106 -2.6l-1.289 -3.397h-1.5s-.465 2.243 -.65 3.202c-.092 .704 .059 1.594 .15 2.298c-1 .5 -2.5 .5 -3.5 .5c-.727 0 -1.45 -.248 -1.5 -1.5l.004 -.311a7 7 0 0 1 .149 -1.409c.75 -3.577 1.366 -7.17 1.847 -10.78c.23 -1.722 0 -3.5 0 -3.5c.585 -.144 2.709 -.602 6.787 -.471a10.26 10.26 0 0 1 3.641 .722c.308 .148 .601 .326 .875 .531c.254 .212 .497 .437 .727 .674c.3 .382 .545 .804 .727 1.253c.155 .483 .237 .987 .243 1.493c.001 2.462 -1.412 4.676 -3.5 5.798z" />
</symbol>
	<symbol id="brand-samsungpass" class="icon icon-tabler icon-tabler-brand-samsungpass" viewBox="0 0 24 24" stroke-width="2" stroke="currentColor" fill="none" stroke-linecap="round" stroke-linejoin="round"><path stroke="none" d="M0 0h24v24H0z" fill="none"/><rect x="4" y="10" width="16" height="11" rx="2" /><path d="M7 10v-1.862c0 -2.838 2.239 -5.138 5 -5.138s5 2.3 5 5.138v1.862" /><path d="M10.485 17.577c.337 .29 .7 .423 1.515 .423h.413c.323 0 .633 -.133 .862 -.368a1.27 1.27 0 0 0 .356 -.886c0 -.332 -.128 -.65 -.356 -.886a1.203 1.203 0 0 0 -.862 -.368h-.826a1.2 1.2 0 0 1 -.861 -.367a1.27 1.27 0 0 1 -.356 -.886c0 -.332 .128 -.651 .356 -.886a1.2 1.2 0 0 1 .861 -.368h.413c.816 0 1.178 .133 1.515 .423" />
</symbol>
	<symbol id="brand-sharik" class="icon icon-tabler icon-tabler-brand-sharik" viewBox="0 0 24 24" stroke-width="2" stroke="currentColor" fill="none" stroke-linecap="round" stroke-linejoin="round"><path stroke="none" d="M0 0h24v24H0z" fill="none"/><path d="M4.281 16.606a8.968 8.968 0 0 1 1.363 -10.977a9.033 9.033 0 0 1 11.011 -1.346c-1.584 4.692 -2.415 6.96 -4.655 8.717c-1.584 1.242 -3.836 2.24 -7.719 3.606zm16.335 -7.306c2.113 7.59 -4.892 13.361 -11.302 11.264c1.931 -3.1 3.235 -4.606 4.686 -6.065c1.705 -1.715 3.591 -3.23 6.616 -5.199z" />
</symbol>
	<symbol id="brand-windy" class="icon icon-tabler icon-tabler-brand-windy" viewBox="0 0 24 24" stroke-width="2" stroke="currentColor" fill="none" stroke-linecap="round" stroke-linejoin="round"><path stroke="none" d="M0 0h24v24H0z" fill="none"/><path d="M9 4c0 5.5 -.33 16 4 16s7.546 -11.27 8 -13" /><path d="M3 4c.253 5.44 1.449 16 5.894 16c4.444 0 8.42 -10.036 9.106 -14" />
</symbol>
	<symbol id="brand-zulip" class="icon icon-tabler icon-tabler-brand-zulip" viewBox="0 0 24 24" stroke-width="2" stroke="currentColor" fill="none" stroke-linecap="round" stroke-linejoin="round"><path stroke="none" d="M0 0h24v24H0z" fill="none"/><path d="M6.5 3h11c1.325 0 2.5 1 2.5 2.5c0 2 -1.705 3.264 -2 3.5l-4.5 4l2 -5h-9a2.5 2.5 0 0 1 0 -5z" /><path d="M17.5 21h-11c-1.325 0 -2.5 -1 -2.5 -2.5c0 -2 1.705 -3.264 2 -3.5l4.5 -4l-2 5h9a2.5 2.5 0 1 1 0 5z" />
</symbol>
	<symbol id="e-passport" class="icon icon-tabler icon-tabler-e-passport" viewBox="0 0 24 24" stroke-width="2" stroke="currentColor" fill="none" stroke-linecap="round" stroke-linejoin="round"><path stroke="none" d="M0 0h24v24H0z" fill="none"/><rect x="2" y="5" width="20" height="14" rx="1.999" /><circle cx="12" cy="12" r="3" /><path d="M9 12h-7" /><path d="M15 12h7" />
</symbol>
	<symbol id="tex" class="icon icon-tabler icon-tabler-tex" viewBox="0 0 24 24" stroke-width="2" stroke="currentColor" fill="none" stroke-linecap="round" stroke-linejoin="round"><path stroke="none" d="M0 0h24v24H0z" fill="none"/><path d="M9 8v-1h-6v1" /><path d="M6 15v-8" /><path d="M21 15l-5 -8" /><path d="M16 15l5 -8" /><path d="M14 11h-4v8h4" /><path d="M10 15h3" />
</symbol>

	<use xlink:href="#brand-bunpo" x="24" y="24" width="24" height="24" />
	<use xlink:href="#brand-ctemplar" x="68" y="24" width="24" height="24" />
	<use xlink:href="#brand-cupra" x="112" y="24" width="24" height="24" />
	<use xlink:href="#brand-days-counter" x="156" y="24" width="24" height="24" />
	<use xlink:href="#brand-deliveroo" x="200" y="24" width="24" height="24" />
	<use xlink:href="#brand-dolby-digital" x="244" y="24" width="24" height="24" />
	<use xlink:href="#brand-drops" x="24" y="68" width="24" height="24" />
	<use xlink:href="#brand-flightradar24" x="68" y="68" width="24" height="24" />
	<use xlink:href="#brand-my-oppo" x="112" y="68" width="24" height="24" />
	<use xlink:href="#brand-nextcloud" x="156" y="68" width="24" height="24" />
	<use xlink:href="#brand-picsart" x="200" y="68" width="24" height="24" />
	<use xlink:href="#brand-revolut" x="244" y="68" width="24" height="24" />
	<use xlink:href="#brand-samsungpass" x="24" y="112" width="24" height="24" />
	<use xlink:href="#brand-sharik" x="68" y="112" width="24" height="24" />
	<use xlink:href="#brand-windy" x="112" y="112" width="24" height="24" />
	<use xlink:href="#brand-zulip" x="156" y="112" width="24" height="24" />
	<use xlink:href="#e-passport" x="200" y="112" width="24" height="24" />
	<use xlink:href="#tex" x="244" y="112" width="24" height="24" />

</svg>