<svg xmlns="http://www.w3.org/2000/svg" xmlns:xlink="http://www.w3.org/1999/xlink" viewBox="0 0 292 160" width="292" height="160" style="color: #354052"><rect x="0" y="0" width="292" height="160" fill="#fff"></rect>
	<symbol id="inner-shadow-bottom-left" class="icon icon-tabler icon-tabler-inner-shadow-bottom-left" viewBox="0 0 24 24" stroke-width="2" stroke="currentColor" fill="none" stroke-linecap="round" stroke-linejoin="round"><path stroke="none" d="M0 0h24v24H0z" fill="none"/><circle cx="12" cy="12" r="9" /><path d="M6 12a6 6 0 0 0 6 6" />
</symbol>
	<symbol id="inner-shadow-bottom-right" class="icon icon-tabler icon-tabler-inner-shadow-bottom-right" viewBox="0 0 24 24" stroke-width="2" stroke="currentColor" fill="none" stroke-linecap="round" stroke-linejoin="round"><path stroke="none" d="M0 0h24v24H0z" fill="none"/><path d="M12 21a9 9 0 1 1 0 -18a9 9 0 0 1 0 18z" /><path d="M18 12a6 6 0 0 1 -6 6" />
</symbol>
	<symbol id="inner-shadow-bottom" class="icon icon-tabler icon-tabler-inner-shadow-bottom" viewBox="0 0 24 24" stroke-width="2" stroke="currentColor" fill="none" stroke-linecap="round" stroke-linejoin="round"><path stroke="none" d="M0 0h24v24H0z" fill="none"/><path d="M18.364 18.364a9 9 0 1 0 -12.728 -12.728a9 9 0 0 0 12.728 12.728z" /><path d="M7.757 16.243a6 6 0 0 0 8.486 0" />
</symbol>
	<symbol id="inner-shadow-left" class="icon icon-tabler icon-tabler-inner-shadow-left" viewBox="0 0 24 24" stroke-width="2" stroke="currentColor" fill="none" stroke-linecap="round" stroke-linejoin="round"><path stroke="none" d="M0 0h24v24H0z" fill="none"/><path d="M5.636 5.636a9 9 0 1 1 12.728 12.728a9 9 0 0 1 -12.728 -12.728z" /><path d="M7.757 16.243a6 6 0 0 1 0 -8.486" />
</symbol>
	<symbol id="inner-shadow-right" class="icon icon-tabler icon-tabler-inner-shadow-right" viewBox="0 0 24 24" stroke-width="2" stroke="currentColor" fill="none" stroke-linecap="round" stroke-linejoin="round"><path stroke="none" d="M0 0h24v24H0z" fill="none"/><path d="M18.364 18.364a9 9 0 1 1 -12.728 -12.728a9 9 0 0 1 12.728 12.728z" /><path d="M16.243 7.757a6 6 0 0 1 0 8.486" />
</symbol>
	<symbol id="inner-shadow-top-left" class="icon icon-tabler icon-tabler-inner-shadow-top-left" viewBox="0 0 24 24" stroke-width="2" stroke="currentColor" fill="none" stroke-linecap="round" stroke-linejoin="round"><path stroke="none" d="M0 0h24v24H0z" fill="none"/><path d="M12 3a9 9 0 1 1 0 18a9 9 0 0 1 0 -18z" /><path d="M6 12a6 6 0 0 1 6 -6" />
</symbol>
	<symbol id="inner-shadow-top-right" class="icon icon-tabler icon-tabler-inner-shadow-top-right" viewBox="0 0 24 24" stroke-width="2" stroke="currentColor" fill="none" stroke-linecap="round" stroke-linejoin="round"><path stroke="none" d="M0 0h24v24H0z" fill="none"/><path d="M12 3a9 9 0 1 0 0 18a9 9 0 0 0 0 -18z" /><path d="M18 12a6 6 0 0 0 -6 -6" />
</symbol>
	<symbol id="inner-shadow-top" class="icon icon-tabler icon-tabler-inner-shadow-top" viewBox="0 0 24 24" stroke-width="2" stroke="currentColor" fill="none" stroke-linecap="round" stroke-linejoin="round"><path stroke="none" d="M0 0h24v24H0z" fill="none"/><path d="M5.636 5.636a9 9 0 1 0 12.728 12.728a9 9 0 0 0 -12.728 -12.728z" /><path d="M16.243 7.757a6 6 0 0 0 -8.486 0" />
</symbol>
	<symbol id="square-f0" class="icon icon-tabler icon-tabler-square-f0" viewBox="0 0 24 24" stroke-width="2" stroke="currentColor" fill="none" stroke-linecap="round" stroke-linejoin="round"><path stroke="none" d="M0 0h24v24H0z" fill="none"/><path d="M20 6.667v10.666a2.667 2.667 0 0 1 -2.667 2.667h-10.666a2.667 2.667 0 0 1 -2.667 -2.667v-10.666a2.667 2.667 0 0 1 2.667 -2.667h10.666a2.667 2.667 0 0 1 2.667 2.667z" /><path d="M13 10.5v3a1.5 1.5 0 0 0 3 0v-3a1.5 1.5 0 0 0 -3 0z" /><path d="M8 12h2" /><path d="M10 9h-2v6" />
</symbol>
	<symbol id="square-f1" class="icon icon-tabler icon-tabler-square-f1" viewBox="0 0 24 24" stroke-width="2" stroke="currentColor" fill="none" stroke-linecap="round" stroke-linejoin="round"><path stroke="none" d="M0 0h24v24H0z" fill="none"/><path d="M20 6.667v10.666a2.667 2.667 0 0 1 -2.667 2.667h-10.666a2.667 2.667 0 0 1 -2.667 -2.667v-10.666a2.667 2.667 0 0 1 2.667 -2.667h10.666a2.667 2.667 0 0 1 2.667 2.667z" /><path d="M13 11l2 -2v6" /><path d="M8 12h2" /><path d="M10 9h-2v6" />
</symbol>
	<symbol id="square-f2" class="icon icon-tabler icon-tabler-square-f2" viewBox="0 0 24 24" stroke-width="2" stroke="currentColor" fill="none" stroke-linecap="round" stroke-linejoin="round"><path stroke="none" d="M0 0h24v24H0z" fill="none"/><path d="M20 6.667v10.666a2.667 2.667 0 0 1 -2.667 2.667h-10.666a2.667 2.667 0 0 1 -2.667 -2.667v-10.666a2.667 2.667 0 0 1 2.667 -2.667h10.666a2.667 2.667 0 0 1 2.667 2.667z" /><path d="M13 9h2a1 1 0 0 1 1 1v1a1 1 0 0 1 -1 1h-1a1 1 0 0 0 -1 1v1a1 1 0 0 0 1 1h2" /><path d="M8 12h2" /><path d="M10 9h-2v6" />
</symbol>
	<symbol id="square-f3" class="icon icon-tabler icon-tabler-square-f3" viewBox="0 0 24 24" stroke-width="2" stroke="currentColor" fill="none" stroke-linecap="round" stroke-linejoin="round"><path stroke="none" d="M0 0h24v24H0z" fill="none"/><path d="M20 6.667v10.666a2.667 2.667 0 0 1 -2.667 2.667h-10.666a2.667 2.667 0 0 1 -2.667 -2.667v-10.666a2.667 2.667 0 0 1 2.667 -2.667h10.666a2.667 2.667 0 0 1 2.667 2.667z" /><path d="M13 9.5a0.5 .5 0 0 1 .5 -.5h1a1.5 1.5 0 0 1 0 3h-.5h.5a1.5 1.5 0 0 1 0 3h-1a0.5 .5 0 0 1 -.5 -.5" /><path d="M8 12h2" /><path d="M10 9h-2v6" />
</symbol>
	<symbol id="square-f4" class="icon icon-tabler icon-tabler-square-f4" viewBox="0 0 24 24" stroke-width="2" stroke="currentColor" fill="none" stroke-linecap="round" stroke-linejoin="round"><path stroke="none" d="M0 0h24v24H0z" fill="none"/><path d="M20 6.667v10.666a2.667 2.667 0 0 1 -2.667 2.667h-10.666a2.667 2.667 0 0 1 -2.667 -2.667v-10.666a2.667 2.667 0 0 1 2.667 -2.667h10.666a2.667 2.667 0 0 1 2.667 2.667z" /><path d="M13 9v2a1 1 0 0 0 1 1h1" /><path d="M16 9v6" /><path d="M8 12h2" /><path d="M10 9h-2v6" />
</symbol>
	<symbol id="square-f5" class="icon icon-tabler icon-tabler-square-f5" viewBox="0 0 24 24" stroke-width="2" stroke="currentColor" fill="none" stroke-linecap="round" stroke-linejoin="round"><path stroke="none" d="M0 0h24v24H0z" fill="none"/><path d="M20 6.667v10.666a2.667 2.667 0 0 1 -2.667 2.667h-10.666a2.667 2.667 0 0 1 -2.667 -2.667v-10.666a2.667 2.667 0 0 1 2.667 -2.667h10.666a2.667 2.667 0 0 1 2.667 2.667z" /><path d="M13 14.25c0 .414 .336 .75 .75 .75h1.25a1 1 0 0 0 1 -1v-1a1 1 0 0 0 -1 -1h-2v-3h3" /><path d="M8 12h2" /><path d="M10 9h-2v6" />
</symbol>
	<symbol id="square-f6" class="icon icon-tabler icon-tabler-square-f6" viewBox="0 0 24 24" stroke-width="2" stroke="currentColor" fill="none" stroke-linecap="round" stroke-linejoin="round"><path stroke="none" d="M0 0h24v24H0z" fill="none"/><path d="M20 6.667v10.666a2.667 2.667 0 0 1 -2.667 2.667h-10.666a2.667 2.667 0 0 1 -2.667 -2.667v-10.666a2.667 2.667 0 0 1 2.667 -2.667h10.666a2.667 2.667 0 0 1 2.667 2.667z" /><path d="M16 9.75a0.75 .75 0 0 0 -.75 -.75h-1.25a1 1 0 0 0 -1 1v4a1 1 0 0 0 1 1h1a1 1 0 0 0 1 -1v-1a1 1 0 0 0 -1 -1h-2" /><path d="M8 12h2" /><path d="M10 9h-2v6" />
</symbol>
	<symbol id="square-f7" class="icon icon-tabler icon-tabler-square-f7" viewBox="0 0 24 24" stroke-width="2" stroke="currentColor" fill="none" stroke-linecap="round" stroke-linejoin="round"><path stroke="none" d="M0 0h24v24H0z" fill="none"/><path d="M20 6.667v10.666a2.667 2.667 0 0 1 -2.667 2.667h-10.666a2.667 2.667 0 0 1 -2.667 -2.667v-10.666a2.667 2.667 0 0 1 2.667 -2.667h10.666a2.667 2.667 0 0 1 2.667 2.667z" /><path d="M13 9h3l-1.5 6" /><path d="M8 12h2" /><path d="M10 9h-2v6" />
</symbol>
	<symbol id="square-f8" class="icon icon-tabler icon-tabler-square-f8" viewBox="0 0 24 24" stroke-width="2" stroke="currentColor" fill="none" stroke-linecap="round" stroke-linejoin="round"><path stroke="none" d="M0 0h24v24H0z" fill="none"/><path d="M20 6.667v10.666a2.667 2.667 0 0 1 -2.667 2.667h-10.666a2.667 2.667 0 0 1 -2.667 -2.667v-10.666a2.667 2.667 0 0 1 2.667 -2.667h10.666a2.667 2.667 0 0 1 2.667 2.667z" /><path d="M14.5 12h-.5a1 1 0 0 1 -1 -1v-1a1 1 0 0 1 1 -1h1a1 1 0 0 1 1 1v1a1 1 0 0 1 -1 1h-1a1 1 0 0 0 -1 1v1a1 1 0 0 0 1 1h1a1 1 0 0 0 1 -1v-1a1 1 0 0 0 -1 -1" /><path d="M8 12h2" /><path d="M10 9h-2v6" />
</symbol>
	<symbol id="square-f9" class="icon icon-tabler icon-tabler-square-f9" viewBox="0 0 24 24" stroke-width="2" stroke="currentColor" fill="none" stroke-linecap="round" stroke-linejoin="round"><path stroke="none" d="M0 0h24v24H0z" fill="none"/><path d="M20 6.667v10.666a2.667 2.667 0 0 1 -2.667 2.667h-10.666a2.667 2.667 0 0 1 -2.667 -2.667v-10.666a2.667 2.667 0 0 1 2.667 -2.667h10.666a2.667 2.667 0 0 1 2.667 2.667z" /><path d="M13 14.25c0 .414 .336 .75 .75 .75h1.5a0.75 .75 0 0 0 .75 -.75v-4.5a0.75 .75 0 0 0 -.75 -.75h-1.5a0.75 .75 0 0 0 -.75 .75v1.5c0 .414 .336 .75 .75 .75h2.25" /><path d="M8 12h2" /><path d="M10 9h-2v6" />
</symbol>

	<use xlink:href="#inner-shadow-bottom-left" x="24" y="24" width="24" height="24" />
	<use xlink:href="#inner-shadow-bottom-right" x="68" y="24" width="24" height="24" />
	<use xlink:href="#inner-shadow-bottom" x="112" y="24" width="24" height="24" />
	<use xlink:href="#inner-shadow-left" x="156" y="24" width="24" height="24" />
	<use xlink:href="#inner-shadow-right" x="200" y="24" width="24" height="24" />
	<use xlink:href="#inner-shadow-top-left" x="244" y="24" width="24" height="24" />
	<use xlink:href="#inner-shadow-top-right" x="24" y="68" width="24" height="24" />
	<use xlink:href="#inner-shadow-top" x="68" y="68" width="24" height="24" />
	<use xlink:href="#square-f0" x="112" y="68" width="24" height="24" />
	<use xlink:href="#square-f1" x="156" y="68" width="24" height="24" />
	<use xlink:href="#square-f2" x="200" y="68" width="24" height="24" />
	<use xlink:href="#square-f3" x="244" y="68" width="24" height="24" />
	<use xlink:href="#square-f4" x="24" y="112" width="24" height="24" />
	<use xlink:href="#square-f5" x="68" y="112" width="24" height="24" />
	<use xlink:href="#square-f6" x="112" y="112" width="24" height="24" />
	<use xlink:href="#square-f7" x="156" y="112" width="24" height="24" />
	<use xlink:href="#square-f8" x="200" y="112" width="24" height="24" />
	<use xlink:href="#square-f9" x="244" y="112" width="24" height="24" />

</svg>