<svg xmlns="http://www.w3.org/2000/svg" xmlns:xlink="http://www.w3.org/1999/xlink" viewBox="0 0 292 160" width="292" height="160" style="color: #354052"><rect x="0" y="0" width="292" height="160" fill="#fff"></rect>
	<symbol id="border-corner-pill" class="icon icon-tabler icon-tabler-border-corner-pill" viewBox="0 0 24 24" stroke-width="2" stroke="currentColor" fill="none" stroke-linecap="round" stroke-linejoin="round"><path stroke="none" d="M0 0h24v24H0z" fill="none"/><path d="M4 20v-5c0 -6.075 4.925 -11 11 -11h5" />
</symbol>
	<symbol id="border-corner-rounded" class="icon icon-tabler icon-tabler-border-corner-rounded" viewBox="0 0 24 24" stroke-width="2" stroke="currentColor" fill="none" stroke-linecap="round" stroke-linejoin="round"><path stroke="none" d="M0 0h24v24H0z" fill="none"/><path d="M4 20v-10a6 6 0 0 1 6 -6h10" />
</symbol>
	<symbol id="border-corner-square" class="icon icon-tabler icon-tabler-border-corner-square" viewBox="0 0 24 24" stroke-width="2" stroke="currentColor" fill="none" stroke-linecap="round" stroke-linejoin="round"><path stroke="none" d="M0 0h24v24H0z" fill="none"/><path d="M4 20v-15a1 1 0 0 1 1 -1h15" />
</symbol>
	<symbol id="favicon" class="icon icon-tabler icon-tabler-favicon" viewBox="0 0 24 24" stroke-width="2" stroke="currentColor" fill="none" stroke-linecap="round" stroke-linejoin="round"><path stroke="none" d="M0 0h24v24H0z" fill="none"/><path d="M2 5m0 3a3 3 0 0 1 3 -3h14a3 3 0 0 1 3 3v8a3 3 0 0 1 -3 3h-14a3 3 0 0 1 -3 -3z" /><path d="M6 10v4" /><path d="M11 10a2 2 0 1 0 0 4" /><path d="M16 12m-2 0a2 2 0 1 0 4 0a2 2 0 1 0 -4 0" />
</symbol>
	<symbol id="receipt-bitcoin" class="icon icon-tabler icon-tabler-receipt-bitcoin" viewBox="0 0 24 24" stroke-width="2" stroke="currentColor" fill="none" stroke-linecap="round" stroke-linejoin="round"><path stroke="none" d="M0 0h24v24H0z" fill="none"/><path d="M5 21v-16a2 2 0 0 1 2 -2h10a2 2 0 0 1 2 2v16l-3 -2l-2 2l-2 -2l-2 2l-2 -2l-3 2" /><path d="M9 7h4.09c1.055 0 1.91 .895 1.91 2s-.855 2 -1.91 2c1.055 0 1.91 .895 1.91 2s-.855 2 -1.91 2h-4.09" /><path d="M10 11h4" /><path d="M10 6v10v-9" /><path d="M13 6v1" /><path d="M13 15v1" />
</symbol>
	<symbol id="receipt-dollar" class="icon icon-tabler icon-tabler-receipt-dollar" viewBox="0 0 24 24" stroke-width="2" stroke="currentColor" fill="none" stroke-linecap="round" stroke-linejoin="round"><path stroke="none" d="M0 0h24v24H0z" fill="none"/><path d="M5 21v-16a2 2 0 0 1 2 -2h10a2 2 0 0 1 2 2v16l-3 -2l-2 2l-2 -2l-2 2l-2 -2l-3 2" /><path d="M14.8 8a2 2 0 0 0 -1.8 -1h-2a2 2 0 1 0 0 4h2a2 2 0 1 1 0 4h-2a2 2 0 0 1 -1.8 -1" /><path d="M12 6v10" />
</symbol>
	<symbol id="receipt-euro" class="icon icon-tabler icon-tabler-receipt-euro" viewBox="0 0 24 24" stroke-width="2" stroke="currentColor" fill="none" stroke-linecap="round" stroke-linejoin="round"><path stroke="none" d="M0 0h24v24H0z" fill="none"/><path d="M5 21v-16a2 2 0 0 1 2 -2h10a2 2 0 0 1 2 2v16l-3 -2l-2 2l-2 -2l-2 2l-2 -2l-3 2" /><path d="M15 7.8c-.523 -.502 -1.172 -.8 -1.875 -.8c-1.727 0 -3.125 1.791 -3.125 4s1.398 4 3.125 4c.703 0 1.352 -.298 1.874 -.8" /><path d="M9 11h4" />
</symbol>
	<symbol id="receipt-pound" class="icon icon-tabler icon-tabler-receipt-pound" viewBox="0 0 24 24" stroke-width="2" stroke="currentColor" fill="none" stroke-linecap="round" stroke-linejoin="round"><path stroke="none" d="M0 0h24v24H0z" fill="none"/><path d="M5 21v-16a2 2 0 0 1 2 -2h10a2 2 0 0 1 2 2v16l-3 -2l-2 2l-2 -2l-2 2l-2 -2l-3 2" /><path d="M15 9a2 2 0 1 0 -4 0v4a2 2 0 0 1 -2 2h6" /><path d="M9 12h4" />
</symbol>
	<symbol id="receipt-yen" class="icon icon-tabler icon-tabler-receipt-yen" viewBox="0 0 24 24" stroke-width="2" stroke="currentColor" fill="none" stroke-linecap="round" stroke-linejoin="round"><path stroke="none" d="M0 0h24v24H0z" fill="none"/><path d="M5 21v-16a2 2 0 0 1 2 -2h10a2 2 0 0 1 2 2v16l-3 -2l-2 2l-2 -2l-2 2l-2 -2l-3 2" /><path d="M9 11h6" /><path d="M9 14h6" /><path d="M9 7l3 4.5" /><path d="M15 7l-3 4.5v4.5" />
</symbol>
	<symbol id="receipt-yuan" class="icon icon-tabler icon-tabler-receipt-yuan" viewBox="0 0 24 24" stroke-width="2" stroke="currentColor" fill="none" stroke-linecap="round" stroke-linejoin="round"><path stroke="none" d="M0 0h24v24H0z" fill="none"/><path d="M5 21v-16a2 2 0 0 1 2 -2h10a2 2 0 0 1 2 2v16l-3 -2l-2 2l-2 -2l-2 2l-2 -2l-3 2" /><path d="M9 12h6" /><path d="M9 7l3 4.5" /><path d="M15 7l-3 4.5v4.5" />
</symbol>
	<symbol id="sandbox" class="icon icon-tabler icon-tabler-sandbox" viewBox="0 0 24 24" stroke-width="2" stroke="currentColor" fill="none" stroke-linecap="round" stroke-linejoin="round"><path stroke="none" d="M0 0h24v24H0z" fill="none"/><path d="M19.953 8.017l1.047 6.983v2a3 3 0 0 1 -3 3h-12a3 3 0 0 1 -3 -3v-2l1.245 -8.297a2 2 0 0 1 1.977 -1.703h3.778" /><path d="M3 15h18" /><path d="M13 3l5.5 1.5" /><path d="M15.75 3.75l-2 7" /><path d="M7 10.5c1.667 -.667 3.333 -.667 5 0c1.667 .667 3.333 .667 5 0" />
</symbol>
	<symbol id="text-grammar" class="icon icon-tabler icon-tabler-text-grammar" viewBox="0 0 24 24" stroke-width="2" stroke="currentColor" fill="none" stroke-linecap="round" stroke-linejoin="round"><path stroke="none" d="M0 0h24v24H0z" fill="none"/><path d="M14 9a3 3 0 1 0 6 0a3 3 0 0 0 -6 0" /><path d="M4 12v-5a3 3 0 1 1 6 0v5" /><path d="M4 9h6" /><path d="M20 6v6" /><path d="M4 16h12" /><path d="M4 20h6" /><path d="M14 20l2 2l5 -5" />
</symbol>
	<symbol id="transaction-bitcoin" class="icon icon-tabler icon-tabler-transaction-bitcoin" viewBox="0 0 24 24" stroke-width="2" stroke="currentColor" fill="none" stroke-linecap="round" stroke-linejoin="round"><path stroke="none" d="M0 0h24v24H0z" fill="none"/><path d="M15 12h4.09c1.055 0 1.91 .895 1.91 2s-.855 2 -1.91 2c1.055 0 1.91 .895 1.91 2s-.855 2 -1.91 2h-4.09" /><path d="M16 16h4" /><path d="M16 11v10v-9" /><path d="M19 11v1" /><path d="M19 20v1" /><path d="M5 5m-2 0a2 2 0 1 0 4 0a2 2 0 1 0 -4 0" /><path d="M17 5m-2 0a2 2 0 1 0 4 0a2 2 0 1 0 -4 0" /><path d="M7 5h8" /><path d="M7 5v8a3 3 0 0 0 3 3h1" />
</symbol>
	<symbol id="transaction-dollar" class="icon icon-tabler icon-tabler-transaction-dollar" viewBox="0 0 24 24" stroke-width="2" stroke="currentColor" fill="none" stroke-linecap="round" stroke-linejoin="round"><path stroke="none" d="M0 0h24v24H0z" fill="none"/><path d="M20.8 13a2 2 0 0 0 -1.8 -1h-2a2 2 0 1 0 0 4h2a2 2 0 1 1 0 4h-2a2 2 0 0 1 -1.8 -1" /><path d="M18 11v10" /><path d="M5 5m-2 0a2 2 0 1 0 4 0a2 2 0 1 0 -4 0" /><path d="M17 5m-2 0a2 2 0 1 0 4 0a2 2 0 1 0 -4 0" /><path d="M7 5h8" /><path d="M7 5v8a3 3 0 0 0 3 3h1" />
</symbol>
	<symbol id="transaction-euro" class="icon icon-tabler icon-tabler-transaction-euro" viewBox="0 0 24 24" stroke-width="2" stroke="currentColor" fill="none" stroke-linecap="round" stroke-linejoin="round"><path stroke="none" d="M0 0h24v24H0z" fill="none"/><path d="M21 12.8c-.523 -.502 -1.172 -.8 -1.875 -.8c-1.727 0 -3.125 1.791 -3.125 4s1.398 4 3.125 4c.703 0 1.352 -.298 1.874 -.8" /><path d="M15 16h4" /><path d="M5 5m-2 0a2 2 0 1 0 4 0a2 2 0 1 0 -4 0" /><path d="M17 5m-2 0a2 2 0 1 0 4 0a2 2 0 1 0 -4 0" /><path d="M7 5h8" /><path d="M7 5v8a3 3 0 0 0 3 3h1" />
</symbol>
	<symbol id="transaction-pound" class="icon icon-tabler icon-tabler-transaction-pound" viewBox="0 0 24 24" stroke-width="2" stroke="currentColor" fill="none" stroke-linecap="round" stroke-linejoin="round"><path stroke="none" d="M0 0h24v24H0z" fill="none"/><path d="M21 14a2 2 0 1 0 -4 0v4a2 2 0 0 1 -2 2h6" /><path d="M15 17h4" /><path d="M5 5m-2 0a2 2 0 1 0 4 0a2 2 0 1 0 -4 0" /><path d="M17 5m-2 0a2 2 0 1 0 4 0a2 2 0 1 0 -4 0" /><path d="M7 5h8" /><path d="M7 5v8a3 3 0 0 0 3 3h1" />
</symbol>
	<symbol id="transaction-yen" class="icon icon-tabler icon-tabler-transaction-yen" viewBox="0 0 24 24" stroke-width="2" stroke="currentColor" fill="none" stroke-linecap="round" stroke-linejoin="round"><path stroke="none" d="M0 0h24v24H0z" fill="none"/><path d="M15 16h6" /><path d="M15 12l3 4.5" /><path d="M21 12l-3 4.5v4.5" /><path d="M15 19h6" /><path d="M5 5m-2 0a2 2 0 1 0 4 0a2 2 0 1 0 -4 0" /><path d="M17 5m-2 0a2 2 0 1 0 4 0a2 2 0 1 0 -4 0" /><path d="M7 5h8" /><path d="M7 5v8a3 3 0 0 0 3 3h1" />
</symbol>
	<symbol id="transaction-yuan" class="icon icon-tabler icon-tabler-transaction-yuan" viewBox="0 0 24 24" stroke-width="2" stroke="currentColor" fill="none" stroke-linecap="round" stroke-linejoin="round"><path stroke="none" d="M0 0h24v24H0z" fill="none"/><path d="M15 17h6" /><path d="M15 12l3 4.5" /><path d="M21 12l-3 4.5v4.5" /><path d="M5 5m-2 0a2 2 0 1 0 4 0a2 2 0 1 0 -4 0" /><path d="M17 5m-2 0a2 2 0 1 0 4 0a2 2 0 1 0 -4 0" /><path d="M7 5h8" /><path d="M7 5v8a3 3 0 0 0 3 3h1" />
</symbol>

	<use xlink:href="#border-corner-pill" x="24" y="24" width="24" height="24" />
	<use xlink:href="#border-corner-rounded" x="68" y="24" width="24" height="24" />
	<use xlink:href="#border-corner-square" x="112" y="24" width="24" height="24" />
	<use xlink:href="#favicon" x="156" y="24" width="24" height="24" />
	<use xlink:href="#receipt-bitcoin" x="200" y="24" width="24" height="24" />
	<use xlink:href="#receipt-dollar" x="244" y="24" width="24" height="24" />
	<use xlink:href="#receipt-euro" x="24" y="68" width="24" height="24" />
	<use xlink:href="#receipt-pound" x="68" y="68" width="24" height="24" />
	<use xlink:href="#receipt-yen" x="112" y="68" width="24" height="24" />
	<use xlink:href="#receipt-yuan" x="156" y="68" width="24" height="24" />
	<use xlink:href="#sandbox" x="200" y="68" width="24" height="24" />
	<use xlink:href="#text-grammar" x="244" y="68" width="24" height="24" />
	<use xlink:href="#transaction-bitcoin" x="24" y="112" width="24" height="24" />
	<use xlink:href="#transaction-dollar" x="68" y="112" width="24" height="24" />
	<use xlink:href="#transaction-euro" x="112" y="112" width="24" height="24" />
	<use xlink:href="#transaction-pound" x="156" y="112" width="24" height="24" />
	<use xlink:href="#transaction-yen" x="200" y="112" width="24" height="24" />
	<use xlink:href="#transaction-yuan" x="244" y="112" width="24" height="24" />

</svg>