<svg xmlns="http://www.w3.org/2000/svg" xmlns:xlink="http://www.w3.org/1999/xlink" viewBox="0 0 292 160" width="292" height="160" style="color: #354052"><rect x="0" y="0" width="292" height="160" fill="#fff"></rect>
	<symbol id="arrow-back-up-double" class="icon icon-tabler icon-tabler-arrow-back-up-double" viewBox="0 0 24 24" stroke-width="2" stroke="currentColor" fill="none" stroke-linecap="round" stroke-linejoin="round"><path stroke="none" d="M0 0h24v24H0z" fill="none"/><path d="M13 14l-4 -4l4 -4" /><path d="M8 14l-4 -4l4 -4" /><path d="M9 10h7a4 4 0 1 1 0 8h-1" />
</symbol>
	<symbol id="arrow-elbow-left" class="icon icon-tabler icon-tabler-arrow-elbow-left" viewBox="0 0 24 24" stroke-width="2" stroke="currentColor" fill="none" stroke-linecap="round" stroke-linejoin="round"><path stroke="none" d="M0 0h24v24H0z" fill="none"/><path d="M3 14v-6h6" /><path d="M3 8l9 9l9 -9" />
</symbol>
	<symbol id="arrow-elbow-right" class="icon icon-tabler icon-tabler-arrow-elbow-right" viewBox="0 0 24 24" stroke-width="2" stroke="currentColor" fill="none" stroke-linecap="round" stroke-linejoin="round"><path stroke="none" d="M0 0h24v24H0z" fill="none"/><path d="M21 14v-6h-6" /><path d="M21 8l-9 9l-9 -9" />
</symbol>
	<symbol id="arrow-forward-up-double" class="icon icon-tabler icon-tabler-arrow-forward-up-double" viewBox="0 0 24 24" stroke-width="2" stroke="currentColor" fill="none" stroke-linecap="round" stroke-linejoin="round"><path stroke="none" d="M0 0h24v24H0z" fill="none"/><path d="M11 14l4 -4l-4 -4" /><path d="M16 14l4 -4l-4 -4" /><path d="M15 10h-7a4 4 0 1 0 0 8h1" />
</symbol>
	<symbol id="baseline-density-large" class="icon icon-tabler icon-tabler-baseline-density-large" viewBox="0 0 24 24" stroke-width="2" stroke="currentColor" fill="none" stroke-linecap="round" stroke-linejoin="round"><path stroke="none" d="M0 0h24v24H0z" fill="none"/><path d="M4 4h16" /><path d="M4 20h16" />
</symbol>
	<symbol id="baseline-density-medium" class="icon icon-tabler icon-tabler-baseline-density-medium" viewBox="0 0 24 24" stroke-width="2" stroke="currentColor" fill="none" stroke-linecap="round" stroke-linejoin="round"><path stroke="none" d="M0 0h24v24H0z" fill="none"/><path d="M4 20h16" /><path d="M4 12h16" /><path d="M4 4h16" />
</symbol>
	<symbol id="baseline-density-small" class="icon icon-tabler icon-tabler-baseline-density-small" viewBox="0 0 24 24" stroke-width="2" stroke="currentColor" fill="none" stroke-linecap="round" stroke-linejoin="round"><path stroke="none" d="M0 0h24v24H0z" fill="none"/><path d="M4 3h16" /><path d="M4 9h16" /><path d="M4 15h16" /><path d="M4 21h16" />
</symbol>
	<symbol id="deselect" class="icon icon-tabler icon-tabler-deselect" viewBox="0 0 24 24" stroke-width="2" stroke="currentColor" fill="none" stroke-linecap="round" stroke-linejoin="round"><path stroke="none" d="M0 0h24v24H0z" fill="none"/><path d="M12 8h3a1 1 0 0 1 1 1v3" /><path d="M16 16h-7a1 1 0 0 1 -1 -1v-7" /><path d="M12 20v.01" /><path d="M16 20v.01" /><path d="M8 20v.01" /><path d="M4 20v.01" /><path d="M4 16v.01" /><path d="M4 12v.01" /><path d="M4 8v.01" /><path d="M8 4v.01" /><path d="M12 4v.01" /><path d="M16 4v.01" /><path d="M20 4v.01" /><path d="M20 8v.01" /><path d="M20 12v.01" /><path d="M20 16v.01" /><path d="M3 3l18 18" />
</symbol>
	<symbol id="mobiledata-off" class="icon icon-tabler icon-tabler-mobiledata-off" viewBox="0 0 24 24" stroke-width="2" stroke="currentColor" fill="none" stroke-linecap="round" stroke-linejoin="round"><path stroke="none" d="M0 0h24v24H0z" fill="none"/><path d="M16 12v-8" /><path d="M8 20v-8" /><path d="M13 7l3 -3l3 3" /><path d="M5 17l3 3l3 -3" /><path d="M3 3l18 18" />
</symbol>
	<symbol id="mobiledata" class="icon icon-tabler icon-tabler-mobiledata" viewBox="0 0 24 24" stroke-width="2" stroke="currentColor" fill="none" stroke-linecap="round" stroke-linejoin="round"><path stroke="none" d="M0 0h24v24H0z" fill="none"/><path d="M16 12v-8" /><path d="M8 20v-8" /><path d="M13 7l3 -3l3 3" /><path d="M5 17l3 3l3 -3" />
</symbol>
	<symbol id="reserved-line" class="icon icon-tabler icon-tabler-reserved-line" viewBox="0 0 24 24" stroke-width="2" stroke="currentColor" fill="none" stroke-linecap="round" stroke-linejoin="round"><path stroke="none" d="M0 0h24v24H0z" fill="none"/><path d="M9 20h6" /><path d="M12 14v6" /><path d="M4 4m0 2a2 2 0 0 1 2 -2h12a2 2 0 0 1 2 2v6a2 2 0 0 1 -2 2h-12a2 2 0 0 1 -2 -2z" /><path d="M9 9h6" />
</symbol>
	<symbol id="select-all" class="icon icon-tabler icon-tabler-select-all" viewBox="0 0 24 24" stroke-width="2" stroke="currentColor" fill="none" stroke-linecap="round" stroke-linejoin="round"><path stroke="none" d="M0 0h24v24H0z" fill="none"/><path d="M8 8m0 1a1 1 0 0 1 1 -1h6a1 1 0 0 1 1 1v6a1 1 0 0 1 -1 1h-6a1 1 0 0 1 -1 -1z" /><path d="M12 20v.01" /><path d="M16 20v.01" /><path d="M8 20v.01" /><path d="M4 20v.01" /><path d="M4 16v.01" /><path d="M4 12v.01" /><path d="M4 8v.01" /><path d="M4 4v.01" /><path d="M8 4v.01" /><path d="M12 4v.01" /><path d="M16 4v.01" /><path d="M20 4v.01" /><path d="M20 8v.01" /><path d="M20 12v.01" /><path d="M20 16v.01" /><path d="M20 20v.01" />
</symbol>
	<symbol id="signal-6g" class="icon icon-tabler icon-tabler-signal-6g" viewBox="0 0 24 24" stroke-width="2" stroke="currentColor" fill="none" stroke-linecap="round" stroke-linejoin="round"><path stroke="none" d="M0 0h24v24H0z" fill="none"/><path d="M18 8h-2a2 2 0 0 0 -2 2v4a2 2 0 0 0 2 2h2v-4h-1" /><path d="M10 9a1 1 0 0 0 -1 -1h-2a1 1 0 0 0 -1 1v6a1 1 0 0 0 1 1h2a1 1 0 0 0 1 -1v-2a1 1 0 0 0 -1 -1h-3" />
</symbol>
	<symbol id="signal-e" class="icon icon-tabler icon-tabler-signal-e" viewBox="0 0 24 24" stroke-width="2" stroke="currentColor" fill="none" stroke-linecap="round" stroke-linejoin="round"><path stroke="none" d="M0 0h24v24H0z" fill="none"/><path d="M14 8h-4v8h4" /><path d="M10 12h2.5" />
</symbol>
	<symbol id="signal-g" class="icon icon-tabler icon-tabler-signal-g" viewBox="0 0 24 24" stroke-width="2" stroke="currentColor" fill="none" stroke-linecap="round" stroke-linejoin="round"><path stroke="none" d="M0 0h24v24H0z" fill="none"/><path d="M14 8h-2a2 2 0 0 0 -2 2v4a2 2 0 0 0 2 2h2v-4h-1" />
</symbol>
	<symbol id="signal-h-plus" class="icon icon-tabler icon-tabler-signal-h-plus" viewBox="0 0 24 24" stroke-width="2" stroke="currentColor" fill="none" stroke-linecap="round" stroke-linejoin="round"><path stroke="none" d="M0 0h24v24H0z" fill="none"/><path d="M7 16v-8" /><path d="M11 8v8" /><path d="M7 12h4" /><path d="M14 12h4" /><path d="M16 10v4" />
</symbol>
	<symbol id="signal-h" class="icon icon-tabler icon-tabler-signal-h" viewBox="0 0 24 24" stroke-width="2" stroke="currentColor" fill="none" stroke-linecap="round" stroke-linejoin="round"><path stroke="none" d="M0 0h24v24H0z" fill="none"/><path d="M10 16v-8" /><path d="M14 8v8" /><path d="M10 12h4" />
</symbol>
	<symbol id="signal-lte" class="icon icon-tabler icon-tabler-signal-lte" viewBox="0 0 24 24" stroke-width="2" stroke="currentColor" fill="none" stroke-linecap="round" stroke-linejoin="round"><path stroke="none" d="M0 0h24v24H0z" fill="none"/><path d="M21 8h-4v8h4" /><path d="M17 12h2.5" /><path d="M4 8v8h4" /><path d="M10 8h4" /><path d="M12 8v8" />
</symbol>

	<use xlink:href="#arrow-back-up-double" x="24" y="24" width="24" height="24" />
	<use xlink:href="#arrow-elbow-left" x="68" y="24" width="24" height="24" />
	<use xlink:href="#arrow-elbow-right" x="112" y="24" width="24" height="24" />
	<use xlink:href="#arrow-forward-up-double" x="156" y="24" width="24" height="24" />
	<use xlink:href="#baseline-density-large" x="200" y="24" width="24" height="24" />
	<use xlink:href="#baseline-density-medium" x="244" y="24" width="24" height="24" />
	<use xlink:href="#baseline-density-small" x="24" y="68" width="24" height="24" />
	<use xlink:href="#deselect" x="68" y="68" width="24" height="24" />
	<use xlink:href="#mobiledata-off" x="112" y="68" width="24" height="24" />
	<use xlink:href="#mobiledata" x="156" y="68" width="24" height="24" />
	<use xlink:href="#reserved-line" x="200" y="68" width="24" height="24" />
	<use xlink:href="#select-all" x="244" y="68" width="24" height="24" />
	<use xlink:href="#signal-6g" x="24" y="112" width="24" height="24" />
	<use xlink:href="#signal-e" x="68" y="112" width="24" height="24" />
	<use xlink:href="#signal-g" x="112" y="112" width="24" height="24" />
	<use xlink:href="#signal-h-plus" x="156" y="112" width="24" height="24" />
	<use xlink:href="#signal-h" x="200" y="112" width="24" height="24" />
	<use xlink:href="#signal-lte" x="244" y="112" width="24" height="24" />

</svg>