<svg xmlns="http://www.w3.org/2000/svg" xmlns:xlink="http://www.w3.org/1999/xlink" viewBox="0 0 292 160" width="292" height="160" style="color: #354052"><rect x="0" y="0" width="292" height="160" fill="#fff"></rect>
	<symbol id="outline-ai" xmlns="http://www.w3.org/2000/svg" width="24" height="24" viewBox="0 0 24 24" fill="none" stroke="currentColor" stroke-width="2" stroke-linecap="round" stroke-linejoin="round"
> <path d="M8 16v-6a2 2 0 1 1 4 0v6" /> <path d="M8 13h4" /> <path d="M16 8v8" />
</symbol>
	<symbol id="outline-cash-register" xmlns="http://www.w3.org/2000/svg" width="24" height="24" viewBox="0 0 24 24" fill="none" stroke="currentColor" stroke-width="2" stroke-linecap="round" stroke-linejoin="round"
> <path d="M21 15h-2.5c-.398 0 -.779 .158 -1.061 .439c-.281 .281 -.439 .663 -.439 1.061c0 .398 .158 .779 .439 1.061c.281 .281 .663 .439 1.061 .439h1c.398 0 .779 .158 1.061 .439c.281 .281 .439 .663 .439 1.061c0 .398 -.158 .779 -.439 1.061c-.281 .281 -.663 .439 -1.061 .439h-2.5" /> <path d="M19 21v1m0 -8v1" /> <path d="M13 21h-7c-.53 0 -1.039 -.211 -1.414 -.586c-.375 -.375 -.586 -.884 -.586 -1.414v-10c0 -.53 .211 -1.039 .586 -1.414c.375 -.375 .884 -.586 1.414 -.586h2m12 3.12v-1.12c0 -.53 -.211 -1.039 -.586 -1.414c-.375 -.375 -.884 -.586 -1.414 -.586h-2" /> <path d="M16 10v-6c0 -.53 -.211 -1.039 -.586 -1.414c-.375 -.375 -.884 -.586 -1.414 -.586h-4c-.53 0 -1.039 .211 -1.414 .586c-.375 .375 -.586 .884 -.586 1.414v6m8 0h-8m8 0h1m-9 0h-1" /> <path d="M8 14v.01" /> <path d="M8 17v.01" /> <path d="M12 13.99v.01" /> <path d="M12 17v.01" />
</symbol>
	<symbol id="outline-percentage-0" xmlns="http://www.w3.org/2000/svg" width="24" height="24" viewBox="0 0 24 24" fill="none" stroke="currentColor" stroke-width="2" stroke-linecap="round" stroke-linejoin="round"
> <path d="M3 12a9 9 0 1 0 18 0a9 9 0 0 0 -18 0" />
</symbol>
	<symbol id="outline-percentage-10" xmlns="http://www.w3.org/2000/svg" width="24" height="24" viewBox="0 0 24 24" fill="none" stroke="currentColor" stroke-width="2" stroke-linecap="round" stroke-linejoin="round"
> <path d="M12 3c1.92 0 3.7 .601 5.16 1.626l-5.16 7.374z" fill="currentColor" stroke="none" /> <path d="M3 12a9 9 0 1 0 18 0a9 9 0 0 0 -18 0" />
</symbol>
	<symbol id="outline-percentage-100" xmlns="http://www.w3.org/2000/svg" width="24" height="24" viewBox="0 0 24 24" fill="none" stroke="currentColor" stroke-width="2" stroke-linecap="round" stroke-linejoin="round"
> <path d="M3 12a9 9 0 1 0 18 0a9 9 0 0 0 -18 0" fill="currentColor" />
</symbol>
	<symbol id="outline-percentage-20" xmlns="http://www.w3.org/2000/svg" width="24" height="24" viewBox="0 0 24 24" fill="none" stroke="currentColor" stroke-width="2" stroke-linecap="round" stroke-linejoin="round"
> <path d="M12 3a9 9 0 0 1 8.497 6.025l-8.497 2.975z" fill="currentColor" stroke="none" /> <path d="M3 12a9 9 0 1 0 18 0a9 9 0 0 0 -18 0" />
</symbol>
	<symbol id="outline-percentage-25" xmlns="http://www.w3.org/2000/svg" width="24" height="24" viewBox="0 0 24 24" fill="none" stroke="currentColor" stroke-width="2" stroke-linecap="round" stroke-linejoin="round"
> <path d="M21 12a9 9 0 0 0 -9 -9m0 0v9h9" fill="currentColor" stroke="none" /> <path d="M3 12a9 9 0 1 0 18 0a9 9 0 0 0 -18 0" />
</symbol>
	<symbol id="outline-percentage-30" xmlns="http://www.w3.org/2000/svg" width="24" height="24" viewBox="0 0 24 24" fill="none" stroke="currentColor" stroke-width="2" stroke-linecap="round" stroke-linejoin="round"
> <path d="M12 3a9 9 0 0 1 8.495 11.973l-8.495 -2.973z" fill="currentColor" stroke="none" /> <path d="M3 12a9 9 0 1 0 18 0a9 9 0 0 0 -18 0" />
</symbol>
	<symbol id="outline-percentage-33" xmlns="http://www.w3.org/2000/svg" width="24" height="24" viewBox="0 0 24 24" fill="none" stroke="currentColor" stroke-width="2" stroke-linecap="round" stroke-linejoin="round"
> <path d="M12 3a9 9 0 0 1 7.794 13.5l-7.79 -4.497z" fill="currentColor" stroke="none" /> <path d="M3 12a9 9 0 1 0 18 0a9 9 0 0 0 -18 0" />
</symbol>
	<symbol id="outline-percentage-40" xmlns="http://www.w3.org/2000/svg" width="24" height="24" viewBox="0 0 24 24" fill="none" stroke="currentColor" stroke-width="2" stroke-linecap="round" stroke-linejoin="round"
> <path d="M12 3a9 9 0 0 1 5.162 16.372l-5.162 -7.372z" fill="currentColor" stroke="none" /> <path d="M3 12a9 9 0 1 0 18 0a9 9 0 0 0 -18 0" />
</symbol>
	<symbol id="outline-percentage-50" xmlns="http://www.w3.org/2000/svg" width="24" height="24" viewBox="0 0 24 24" fill="none" stroke="currentColor" stroke-width="2" stroke-linecap="round" stroke-linejoin="round"
> <path d="M12 21a9 9 0 0 0 0 -18m0 0v18" fill="currentColor" stroke="none" /> <path d="M3 12a9 9 0 1 0 18 0a9 9 0 0 0 -18 0" />
</symbol>
	<symbol id="outline-percentage-60" xmlns="http://www.w3.org/2000/svg" width="24" height="24" viewBox="0 0 24 24" fill="none" stroke="currentColor" stroke-width="2" stroke-linecap="round" stroke-linejoin="round"
> <path d="M12 3a9 9 0 1 1 -5.162 16.373l5.162 -7.373z" fill="currentColor" stroke="none" /> <path d="M3 12a9 9 0 1 0 18 0a9 9 0 0 0 -18 0" />
</symbol>
	<symbol id="outline-percentage-66" xmlns="http://www.w3.org/2000/svg" width="24" height="24" viewBox="0 0 24 24" fill="none" stroke="currentColor" stroke-width="2" stroke-linecap="round" stroke-linejoin="round"
> <path d="M12 3a9 9 0 1 1 -7.795 13.498l7.795 -4.498z" fill="currentColor" stroke="none" /> <path d="M3 12a9 9 0 1 0 18 0a9 9 0 0 0 -18 0" />
</symbol>
	<symbol id="outline-percentage-70" xmlns="http://www.w3.org/2000/svg" width="24" height="24" viewBox="0 0 24 24" fill="none" stroke="currentColor" stroke-width="2" stroke-linecap="round" stroke-linejoin="round"
> <path d="M12 3a9 9 0 1 1 -8.495 11.973l8.495 -2.973z" fill="currentColor" stroke="none" /> <path d="M3 12a9 9 0 1 0 18 0a9 9 0 0 0 -18 0" />
</symbol>
	<symbol id="outline-percentage-75" xmlns="http://www.w3.org/2000/svg" width="24" height="24" viewBox="0 0 24 24" fill="none" stroke="currentColor" stroke-width="2" stroke-linecap="round" stroke-linejoin="round"
> <path d="M3 12a9 9 0 1 0 9 -9m0 0v9h-9" fill="currentColor" stroke="none" /> <path d="M3 12a9 9 0 1 0 18 0a9 9 0 0 0 -18 0" />
</symbol>
	<symbol id="outline-percentage-80" xmlns="http://www.w3.org/2000/svg" width="24" height="24" viewBox="0 0 24 24" fill="none" stroke="currentColor" stroke-width="2" stroke-linecap="round" stroke-linejoin="round"
> <path d="M12 3a9 9 0 1 1 -8.497 6.025l8.497 2.975z" fill="currentColor" stroke="none" /> <path d="M3 12a9 9 0 1 0 18 0a9 9 0 0 0 -18 0" />
</symbol>
	<symbol id="outline-percentage-90" xmlns="http://www.w3.org/2000/svg" width="24" height="24" viewBox="0 0 24 24" fill="none" stroke="currentColor" stroke-width="2" stroke-linecap="round" stroke-linejoin="round"
> <path d="M12 3a9 9 0 1 1 -5.16 1.626l5.16 7.374z" fill="currentColor" stroke="none" /> <path d="M3 12a9 9 0 1 0 18 0a9 9 0 0 0 -18 0" />
</symbol>
	<symbol id="outline-picnic-table" xmlns="http://www.w3.org/2000/svg" width="24" height="24" viewBox="0 0 24 24" fill="none" stroke="currentColor" stroke-width="2" stroke-linecap="round" stroke-linejoin="round"
> <path d="M16 7l2 9m-10 -9l-2 9m-1 -9h14m2 5h-18" />
</symbol>

	<use xlink:href="#outline-ai" x="24" y="24" width="24" height="24" />
	<use xlink:href="#outline-cash-register" x="68" y="24" width="24" height="24" />
	<use xlink:href="#outline-percentage-0" x="112" y="24" width="24" height="24" />
	<use xlink:href="#outline-percentage-10" x="156" y="24" width="24" height="24" />
	<use xlink:href="#outline-percentage-100" x="200" y="24" width="24" height="24" />
	<use xlink:href="#outline-percentage-20" x="244" y="24" width="24" height="24" />
	<use xlink:href="#outline-percentage-25" x="24" y="68" width="24" height="24" />
	<use xlink:href="#outline-percentage-30" x="68" y="68" width="24" height="24" />
	<use xlink:href="#outline-percentage-33" x="112" y="68" width="24" height="24" />
	<use xlink:href="#outline-percentage-40" x="156" y="68" width="24" height="24" />
	<use xlink:href="#outline-percentage-50" x="200" y="68" width="24" height="24" />
	<use xlink:href="#outline-percentage-60" x="244" y="68" width="24" height="24" />
	<use xlink:href="#outline-percentage-66" x="24" y="112" width="24" height="24" />
	<use xlink:href="#outline-percentage-70" x="68" y="112" width="24" height="24" />
	<use xlink:href="#outline-percentage-75" x="112" y="112" width="24" height="24" />
	<use xlink:href="#outline-percentage-80" x="156" y="112" width="24" height="24" />
	<use xlink:href="#outline-percentage-90" x="200" y="112" width="24" height="24" />
	<use xlink:href="#outline-picnic-table" x="244" y="112" width="24" height="24" />

</svg>