<svg xmlns="http://www.w3.org/2000/svg" xmlns:xlink="http://www.w3.org/1999/xlink" viewBox="0 0 292 160" width="292" height="160" style="color: #354052"><rect x="0" y="0" width="292" height="160" fill="#fff"></rect>
	<symbol id="arrows-exchange-2" class="icon icon-tabler icon-tabler-arrows-exchange-2" viewBox="0 0 24 24" stroke-width="2" stroke="currentColor" fill="none" stroke-linecap="round" stroke-linejoin="round"><path stroke="none" d="M0 0h24v24H0z" fill="none"/><path d="M17 10h-14l4 -4" /><path d="M7 14h14l-4 4" />
</symbol>
	<symbol id="arrows-exchange" class="icon icon-tabler icon-tabler-arrows-exchange" viewBox="0 0 24 24" stroke-width="2" stroke="currentColor" fill="none" stroke-linecap="round" stroke-linejoin="round"><path stroke="none" d="M0 0h24v24H0z" fill="none"/><path d="M7 10h14l-4 -4" /><path d="M17 14h-14l4 4" />
</symbol>
	<symbol id="category-2" class="icon icon-tabler icon-tabler-category-2" viewBox="0 0 24 24" stroke-width="2" stroke="currentColor" fill="none" stroke-linecap="round" stroke-linejoin="round"><path stroke="none" d="M0 0h24v24H0z" fill="none"/><path d="M14 4h6v6h-6z" /><path d="M4 14h6v6h-6z" /><circle cx="17" cy="17" r="3" /><circle cx="7" cy="7" r="3" />
</symbol>
	<symbol id="category" class="icon icon-tabler icon-tabler-category" viewBox="0 0 24 24" stroke-width="2" stroke="currentColor" fill="none" stroke-linecap="round" stroke-linejoin="round"><path stroke="none" d="M0 0h24v24H0z" fill="none"/><path d="M4 4h6v6h-6z" /><path d="M14 4h6v6h-6z" /><path d="M4 14h6v6h-6z" /><circle cx="17" cy="17" r="3" />
</symbol>
	<symbol id="direction-sign" class="icon icon-tabler icon-tabler-direction-sign" viewBox="0 0 24 24" stroke-width="2" stroke="currentColor" fill="none" stroke-linecap="round" stroke-linejoin="round"><path stroke="none" d="M0 0h24v24H0z" fill="none"/><path d="M3.32 12.774l7.906 7.905c.427 .428 1.12 .428 1.548 0l7.905 -7.905a1.095 1.095 0 0 0 0 -1.548l-7.905 -7.905a1.095 1.095 0 0 0 -1.548 0l-7.905 7.905a1.095 1.095 0 0 0 0 1.548z" /><path d="M8 12h7.5" /><path d="M12 8.5l3.5 3.5l-3.5 3.5" />
</symbol>
	<symbol id="discount-check" class="icon icon-tabler icon-tabler-discount-check" viewBox="0 0 24 24" stroke-width="2" stroke="currentColor" fill="none" stroke-linecap="round" stroke-linejoin="round"><path stroke="none" d="M0 0h24v24H0z" fill="none"/><path d="M5 7.2a2.2 2.2 0 0 1 2.2 -2.2h1a2.2 2.2 0 0 0 1.55 -.64l.7 -.7a2.2 2.2 0 0 1 3.12 0l.7 .7c.412 .41 .97 .64 1.55 .64h1a2.2 2.2 0 0 1 2.2 2.2v1c0 .58 .23 1.138 .64 1.55l.7 .7a2.2 2.2 0 0 1 0 3.12l-.7 .7a2.2 2.2 0 0 0 -.64 1.55v1a2.2 2.2 0 0 1 -2.2 2.2h-1a2.2 2.2 0 0 0 -1.55 .64l-.7 .7a2.2 2.2 0 0 1 -3.12 0l-.7 -.7a2.2 2.2 0 0 0 -1.55 -.64h-1a2.2 2.2 0 0 1 -2.2 -2.2v-1a2.2 2.2 0 0 0 -.64 -1.55l-.7 -.7a2.2 2.2 0 0 1 0 -3.12l.7 -.7a2.2 2.2 0 0 0 .64 -1.55v-1" /><path d="M9 12l2 2l4 -4" />
</symbol>
	<symbol id="fish-hook" class="icon icon-tabler icon-tabler-fish-hook" viewBox="0 0 24 24" stroke-width="2" stroke="currentColor" fill="none" stroke-linecap="round" stroke-linejoin="round"><path stroke="none" d="M0 0h24v24H0z" fill="none"/><path d="M16 9v6a5 5 0 0 1 -10 0v-4l3 3" /><circle cx="16" cy="7" r="2" /><path d="M16 5v-2" />
</symbol>
	<symbol id="fridge" class="icon icon-tabler icon-tabler-fridge" viewBox="0 0 24 24" stroke-width="2" stroke="currentColor" fill="none" stroke-linecap="round" stroke-linejoin="round"><path stroke="none" d="M0 0h24v24H0z" fill="none"/><rect x="5" y="3" width="14" height="18" rx="2" /><path d="M5 10h14" /><path d="M9 13v3" /><path d="M9 6v1" />
</symbol>
	<symbol id="health-recognition" class="icon icon-tabler icon-tabler-health-recognition" viewBox="0 0 24 24" stroke-width="2" stroke="currentColor" fill="none" stroke-linecap="round" stroke-linejoin="round"><path stroke="none" d="M0 0h24v24H0z" fill="none"/><path d="M4 8v-2a2 2 0 0 1 2 -2h2" /><path d="M4 16v2a2 2 0 0 0 2 2h2" /><path d="M16 4h2a2 2 0 0 1 2 2v2" /><path d="M16 20h2a2 2 0 0 0 2 -2v-2" /><path d="M8.603 9.61a2.04 2.04 0 0 1 2.912 0l.485 .39l.5 -.396a2.035 2.035 0 0 1 2.897 .007a2.104 2.104 0 0 1 0 2.949l-3.397 3.44l-3.397 -3.44a2.104 2.104 0 0 1 0 -2.95z" />
</symbol>
	<symbol id="history-toggle" class="icon icon-tabler icon-tabler-history-toggle" viewBox="0 0 24 24" stroke-width="2" stroke="currentColor" fill="none" stroke-linecap="round" stroke-linejoin="round"><path stroke="none" d="M0 0h24v24H0z" fill="none"/><path d="M12 8v4l3 3" /><path d="M8.56 3.69a9 9 0 0 0 -2.92 1.95" /><path d="M3.69 8.56a9 9 0 0 0 -.69 3.44" /><path d="M3.69 15.44a9 9 0 0 0 1.95 2.92" /><path d="M8.56 20.31a9 9 0 0 0 3.44 .69" /><path d="M15.44 20.31a9 9 0 0 0 2.92 -1.95" /><path d="M20.31 15.44a9 9 0 0 0 .69 -3.44" /><path d="M20.31 8.56a9 9 0 0 0 -1.95 -2.92" /><path d="M15.44 3.69a9 9 0 0 0 -3.44 -.69" />
</symbol>
	<symbol id="meteor" class="icon icon-tabler icon-tabler-meteor" viewBox="0 0 24 24" stroke-width="2" stroke="currentColor" fill="none" stroke-linecap="round" stroke-linejoin="round"><path stroke="none" d="M0 0h24v24H0z" fill="none"/><path d="M21 3l-5 9h5l-6.891 7.086a6.5 6.5 0 1 1 -8.855 -9.506l7.746 -6.58l-1 5l9 -5z" /><circle cx="9.5" cy="14.5" r="2.5" />
</symbol>
	<symbol id="number" class="icon icon-tabler icon-tabler-number" viewBox="0 0 24 24" stroke-width="2" stroke="currentColor" fill="none" stroke-linecap="round" stroke-linejoin="round"><path stroke="none" d="M0 0h24v24H0z" fill="none"/><path d="M4 17v-10l7 10v-10" /><path d="M15 17h5" /><ellipse cx="17.5" cy="10" rx="2.5" ry="3" />
</symbol>
	<symbol id="scan-eye" class="icon icon-tabler icon-tabler-scan-eye" viewBox="0 0 24 24" stroke-width="2" stroke="currentColor" fill="none" stroke-linecap="round" stroke-linejoin="round"><path stroke="none" d="M0 0h24v24H0z" fill="none"/><path d="M4 8v-2a2 2 0 0 1 2 -2h2" /><path d="M4 16v2a2 2 0 0 0 2 2h2" /><path d="M16 4h2a2 2 0 0 1 2 2v2" /><path d="M16 20h2a2 2 0 0 0 2 -2v-2" /><path d="M7 12c3.333 -4.667 6.667 -4.667 10 0" /><path d="M7 12c3.333 4.667 6.667 4.667 10 0" /><path d="M12 12h-.01" />
</symbol>
	<symbol id="schema" class="icon icon-tabler icon-tabler-schema" viewBox="0 0 24 24" stroke-width="2" stroke="currentColor" fill="none" stroke-linecap="round" stroke-linejoin="round"><path stroke="none" d="M0 0h24v24H0z" fill="none"/><path d="M5 2h5v4h-5z" /><path d="M15 10h5v4h-5z" /><path d="M5 18h5v4h-5z" /><path d="M5 10h5v4h-5z" /><path d="M10 12h5" /><path d="M7.5 6v4" /><path d="M7.5 14v4" />
</symbol>
	<symbol id="screenshot" class="icon icon-tabler icon-tabler-screenshot" viewBox="0 0 24 24" stroke-width="2" stroke="currentColor" fill="none" stroke-linecap="round" stroke-linejoin="round"><path stroke="none" d="M0 0h24v24H0z" fill="none"/><path d="M7 19a2 2 0 0 1 -2 -2" /><path d="M5 13v-2" /><path d="M5 7a2 2 0 0 1 2 -2" /><path d="M11 5h2" /><path d="M17 5a2 2 0 0 1 2 2" /><path d="M19 11v2" /><path d="M19 17v4" /><path d="M21 19h-4" /><path d="M13 19h-2" />
</symbol>
	<symbol id="text-decrease" class="icon icon-tabler icon-tabler-text-decrease" viewBox="0 0 24 24" stroke-width="2" stroke="currentColor" fill="none" stroke-linecap="round" stroke-linejoin="round"><path stroke="none" d="M0 0h24v24H0z" fill="none"/><path d="M4 19v-10.5a3.5 3.5 0 1 1 7 0v10.5" /><path d="M4 13h7" /><path d="M21 12h-6" />
</symbol>
	<symbol id="text-increase" class="icon icon-tabler icon-tabler-text-increase" viewBox="0 0 24 24" stroke-width="2" stroke="currentColor" fill="none" stroke-linecap="round" stroke-linejoin="round"><path stroke="none" d="M0 0h24v24H0z" fill="none"/><path d="M4 19v-10.5a3.5 3.5 0 1 1 7 0v10.5" /><path d="M4 13h7" /><path d="M18 9v6" /><path d="M21 12h-6" />
</symbol>
	<symbol id="text-recognition" class="icon icon-tabler icon-tabler-text-recognition" viewBox="0 0 24 24" stroke-width="2" stroke="currentColor" fill="none" stroke-linecap="round" stroke-linejoin="round"><path stroke="none" d="M0 0h24v24H0z" fill="none"/><path d="M4 8v-2a2 2 0 0 1 2 -2h2" /><path d="M4 16v2a2 2 0 0 0 2 2h2" /><path d="M16 4h2a2 2 0 0 1 2 2v2" /><path d="M16 20h2a2 2 0 0 0 2 -2v-2" /><path d="M12 16v-7" /><path d="M9 9h6" />
</symbol>

	<use xlink:href="#arrows-exchange-2" x="24" y="24" width="24" height="24" />
	<use xlink:href="#arrows-exchange" x="68" y="24" width="24" height="24" />
	<use xlink:href="#category-2" x="112" y="24" width="24" height="24" />
	<use xlink:href="#category" x="156" y="24" width="24" height="24" />
	<use xlink:href="#direction-sign" x="200" y="24" width="24" height="24" />
	<use xlink:href="#discount-check" x="244" y="24" width="24" height="24" />
	<use xlink:href="#fish-hook" x="24" y="68" width="24" height="24" />
	<use xlink:href="#fridge" x="68" y="68" width="24" height="24" />
	<use xlink:href="#health-recognition" x="112" y="68" width="24" height="24" />
	<use xlink:href="#history-toggle" x="156" y="68" width="24" height="24" />
	<use xlink:href="#meteor" x="200" y="68" width="24" height="24" />
	<use xlink:href="#number" x="244" y="68" width="24" height="24" />
	<use xlink:href="#scan-eye" x="24" y="112" width="24" height="24" />
	<use xlink:href="#schema" x="68" y="112" width="24" height="24" />
	<use xlink:href="#screenshot" x="112" y="112" width="24" height="24" />
	<use xlink:href="#text-decrease" x="156" y="112" width="24" height="24" />
	<use xlink:href="#text-increase" x="200" y="112" width="24" height="24" />
	<use xlink:href="#text-recognition" x="244" y="112" width="24" height="24" />

</svg>