<svg xmlns="http://www.w3.org/2000/svg" xmlns:xlink="http://www.w3.org/1999/xlink" viewBox="0 0 292 160" width="292" height="160" style="color: #354052"><rect x="0" y="0" width="292" height="160" fill="#fff"></rect>
	<symbol id="brand-alpine-js" class="icon icon-tabler icon-tabler-brand-alpine-js" viewBox="0 0 24 24" stroke-width="2" stroke="currentColor" fill="none" stroke-linecap="round" stroke-linejoin="round"><path stroke="none" d="M0 0h24v24H0z" fill="none"/><path d="M2 10.375l5.455 5.625h6.545l-8.727 -9z" /><path d="M15 12.5l3.5 3.5l3.5 -3.5l-3.5 -3.5z" />
</symbol>
	<symbol id="brand-backbone" class="icon icon-tabler icon-tabler-brand-backbone" viewBox="0 0 24 24" stroke-width="2" stroke="currentColor" fill="none" stroke-linecap="round" stroke-linejoin="round"><path stroke="none" d="M0 0h24v24H0z" fill="none"/><path d="M5 20l14 -8l-14 -8z" /><path d="M19 20l-14 -8l14 -8z" />
</symbol>
	<symbol id="brand-blender" class="icon icon-tabler icon-tabler-brand-blender" viewBox="0 0 24 24" stroke-width="2" stroke="currentColor" fill="none" stroke-linecap="round" stroke-linejoin="round"><path stroke="none" d="M0 0h24v24H0z" fill="none"/><ellipse cx="15" cy="14" rx="6" ry="5" /><circle cx="15" cy="14" r="1" /><path d="M3 16l9 -6.5" /><path d="M6 9h9" /><path d="M13 5l5.65 5" />
</symbol>
	<symbol id="brand-bulma" class="icon icon-tabler icon-tabler-brand-bulma" viewBox="0 0 24 24" stroke-width="2" stroke="currentColor" fill="none" stroke-linecap="round" stroke-linejoin="round"><path stroke="none" d="M0 0h24v24H0z" fill="none"/><path d="M5 16l1 -9l5 -5l6.5 6l-3.5 4l5 5l-8 5z" />
</symbol>
	<symbol id="brand-campaignmonitor" class="icon icon-tabler icon-tabler-brand-campaignmonitor" viewBox="0 0 24 24" stroke-width="2" stroke="currentColor" fill="none" stroke-linecap="round" stroke-linejoin="round"><path stroke="none" d="M0 0h24v24H0z" fill="none"/><path d="M3 18l9 -6.462l-9 -5.538v12h18v-12l-9 5.538" />
</symbol>
	<symbol id="brand-codecov" class="icon icon-tabler icon-tabler-brand-codecov" viewBox="0 0 24 24" stroke-width="2" stroke="currentColor" fill="none" stroke-linecap="round" stroke-linejoin="round"><path stroke="none" d="M0 0h24v24H0z" fill="none"/><path d="M9.695 12.985a5.972 5.972 0 0 0 -3.295 -.985c-1.257 0 -2.436 .339 -3.4 1a9 9 0 1 1 18 0c-.966 -.664 -2.14 -1 -3.4 -1a6 6 0 0 0 -5.605 8.144" />
</symbol>
	<symbol id="brand-dcos" class="icon icon-tabler icon-tabler-brand-dcos" viewBox="0 0 24 24" stroke-width="2" stroke="currentColor" fill="none" stroke-linecap="round" stroke-linejoin="round"><path stroke="none" d="M0 0h24v24H0z" fill="none"/><path d="M3 18l18 -12h-18l9 14l9 -14v10l-18 -10z" />
</symbol>
	<symbol id="brand-grammarly" class="icon icon-tabler icon-tabler-brand-grammarly" viewBox="0 0 24 24" stroke-width="2" stroke="currentColor" fill="none" stroke-linecap="round" stroke-linejoin="round"><path stroke="none" d="M0 0h24v24H0z" fill="none"/><circle cx="12" cy="12" r="9" /><path d="M15.697 9.434a4.5 4.5 0 1 0 .217 4.788" /><path d="M13.5 14h2.5v2.5" />
</symbol>
	<symbol id="brand-graphql" class="icon icon-tabler icon-tabler-brand-graphql" viewBox="0 0 24 24" stroke-width="2" stroke="currentColor" fill="none" stroke-linecap="round" stroke-linejoin="round"><path stroke="none" d="M0 0h24v24H0z" fill="none"/><path d="M20 16l-8 -13l-8 13l8 5l8 -5v-8l-8 -5l-8 5v8z" /><circle cx="12" cy="3" r="1" /><circle cx="12" cy="21" r="1" /><circle cx="4" cy="8" r="1" /><circle cx="4" cy="16" r="1" /><circle cx="20" cy="16" r="1" /><circle cx="20" cy="8" r="1" />
</symbol>
	<symbol id="brand-headlessui" class="icon icon-tabler icon-tabler-brand-headlessui" viewBox="0 0 24 24" stroke-width="2" stroke="currentColor" fill="none" stroke-linecap="round" stroke-linejoin="round"><path stroke="none" d="M0 0h24v24H0z" fill="none"/><path d="M6.744 4.325l7.82 -1.267a4.456 4.456 0 0 1 5.111 3.686l1.267 7.82a4.456 4.456 0 0 1 -3.686 5.111l-7.82 1.267a4.456 4.456 0 0 1 -5.111 -3.686l-1.267 -7.82a4.456 4.456 0 0 1 3.686 -5.111z" /><path d="M7.252 7.704l7.897 -1.28a1 1 0 0 1 1.147 .828l.36 2.223l-9.562 3.51l-.67 -4.134a1 1 0 0 1 .828 -1.147z" />
</symbol>
	<symbol id="brand-mailgun" class="icon icon-tabler icon-tabler-brand-mailgun" viewBox="0 0 24 24" stroke-width="2" stroke="currentColor" fill="none" stroke-linecap="round" stroke-linejoin="round"><path stroke="none" d="M0 0h24v24H0z" fill="none"/><path d="M17 12a2 2 0 1 0 4 0a9 9 0 1 0 -2.987 6.697" /><circle cx="12" cy="12" r="5" /><circle cx="12" cy="12" r="1" /><circle cx="12" cy="12" r="1" />
</symbol>
	<symbol id="brand-mantine" class="icon icon-tabler icon-tabler-brand-mantine" viewBox="0 0 24 24" stroke-width="2" stroke="currentColor" fill="none" stroke-linecap="round" stroke-linejoin="round"><path stroke="none" d="M0 0h24v24H0z" fill="none"/><circle cx="12" cy="12" r="9" /><path d="M11 16c1.22 -.912 2 -2.36 2 -4a5.01 5.01 0 0 0 -2 -4" /><path d="M14 9h-2" /><path d="M14 15h-2" /><path d="M10 12h.01" />
</symbol>
	<symbol id="brand-pushbullet" class="icon icon-tabler icon-tabler-brand-pushbullet" viewBox="0 0 24 24" stroke-width="2" stroke="currentColor" fill="none" stroke-linecap="round" stroke-linejoin="round"><path stroke="none" d="M0 0h24v24H0z" fill="none"/><circle cx="12" cy="12" r="9" /><path d="M11 8v8h2a4 4 0 1 0 0 -8h-2z" /><path d="M8 8v8" />
</symbol>
	<symbol id="brand-redhat" class="icon icon-tabler icon-tabler-brand-redhat" viewBox="0 0 24 24" stroke-width="2" stroke="currentColor" fill="none" stroke-linecap="round" stroke-linejoin="round"><path stroke="none" d="M0 0h24v24H0z" fill="none"/><path d="M6 10.5l1.436 -4c.318 -.876 .728 -1.302 1.359 -1.302c.219 0 1.054 .365 1.88 .583c.825 .219 .733 -.329 .908 -.487c.176 -.158 .355 -.294 .61 -.294c.242 0 .553 .048 1.692 .448c.759 .267 1.493 .574 2.204 .922c1.175 .582 1.426 .913 1.595 1.507l.816 4.623c2.086 .898 3.5 2.357 3.5 3.682c0 1.685 -1.2 3.818 -5.957 3.818c-6.206 0 -14.043 -4.042 -14.043 -7.32c0 -1.044 1.333 -1.77 4 -2.18z" /><path d="M6 10.5c0 .969 4.39 3.5 9.5 3.5c1.314 0 3 .063 3 -1.5" />
</symbol>
	<symbol id="brand-storybook" class="icon icon-tabler icon-tabler-brand-storybook" viewBox="0 0 24 24" stroke-width="2" stroke="currentColor" fill="none" stroke-linecap="round" stroke-linejoin="round"><path stroke="none" d="M0 0h24v24H0z" fill="none"/><path d="M5 4l.5 16.5l13.5 .5v-18z" /><path d="M9 15c.6 1.5 1.639 2 3.283 2h-.283c1.8 0 3 -.974 3 -2.435c0 -1.194 -.831 -1.799 -2.147 -2.333l-1.975 -.802c-1.15 -.467 -1.878 -1.422 -1.878 -2.467c0 -.97 .899 -1.786 2.087 -1.893l.613 -.055c1.528 -.138 2.999 .762 3.3 1.985" /><path d="M16 3.5v1" />
</symbol>
	<symbol id="brand-vcypress" class="icon icon-tabler icon-tabler-brand-vcypress" viewBox="0 0 24 24" stroke-width="2" stroke="currentColor" fill="none" stroke-linecap="round" stroke-linejoin="round"><path stroke="none" d="M0 0h24v24H0z" fill="none"/><path d="M19.48 17.007a9 9 0 1 0 -7.48 3.993c.896 0 1.691 -.573 1.974 -1.423l3.526 -10.577" /><path d="M13.5 9l2 6" /><path d="M10.764 9.411a3 3 0 1 0 -.023 5.19" />
</symbol>
	<symbol id="brand-vsco" class="icon icon-tabler icon-tabler-brand-vsco" viewBox="0 0 24 24" stroke-width="2" stroke="currentColor" fill="none" stroke-linecap="round" stroke-linejoin="round"><path stroke="none" d="M0 0h24v24H0z" fill="none"/><g transform="translate(2 2)"><circle cx="10" cy="10" r="10" /><circle cx="10" cy="10" r="7" /><circle cx="10" cy="10" r="4" /><path d="M10 0v3" /><path d="M10 17v3" /><path d="M17 10h3" /><path d="M0 10h3" /><path d="M15 1.34l-1.5 2.598" /><path d="M6.5 16.062l-1.5 2.598" /><path d="M16.062 13.5l2.598 1.5" /><path d="M1.34 5l2.598 1.5" /><path d="M5 1.34l1.5 2.598" /><path d="M13.5 16.062l1.5 2.598" /><path d="M16.062 6.5l2.598 -1.5" /><path d="M1.34 15l2.598 -1.5" /><path d="M10 3v3" /><path d="M10 14v3" /><path d="M3 10h3" /><path d="M14 10h3" /><path d="M14.95 5.05l-2.122 2.122" /><path d="M7.172 12.828l-2.122 2.122" /><path d="M5.05 5.05l2.122 2.122" /><path d="M12.828 12.828l2.122 2.122" /></g>
</symbol>
	<symbol id="brand-zeit" class="icon icon-tabler icon-tabler-brand-zeit" viewBox="0 0 24 24" stroke-width="2" stroke="currentColor" fill="none" stroke-linecap="round" stroke-linejoin="round"><path stroke="none" d="M0 0h24v24H0z" fill="none"/><path d="M3 20h18l-9 -16z" />
</symbol>

	<use xlink:href="#brand-alpine-js" x="24" y="24" width="24" height="24" />
	<use xlink:href="#brand-backbone" x="68" y="24" width="24" height="24" />
	<use xlink:href="#brand-blender" x="112" y="24" width="24" height="24" />
	<use xlink:href="#brand-bulma" x="156" y="24" width="24" height="24" />
	<use xlink:href="#brand-campaignmonitor" x="200" y="24" width="24" height="24" />
	<use xlink:href="#brand-codecov" x="244" y="24" width="24" height="24" />
	<use xlink:href="#brand-dcos" x="24" y="68" width="24" height="24" />
	<use xlink:href="#brand-grammarly" x="68" y="68" width="24" height="24" />
	<use xlink:href="#brand-graphql" x="112" y="68" width="24" height="24" />
	<use xlink:href="#brand-headlessui" x="156" y="68" width="24" height="24" />
	<use xlink:href="#brand-mailgun" x="200" y="68" width="24" height="24" />
	<use xlink:href="#brand-mantine" x="244" y="68" width="24" height="24" />
	<use xlink:href="#brand-pushbullet" x="24" y="112" width="24" height="24" />
	<use xlink:href="#brand-redhat" x="68" y="112" width="24" height="24" />
	<use xlink:href="#brand-storybook" x="112" y="112" width="24" height="24" />
	<use xlink:href="#brand-vcypress" x="156" y="112" width="24" height="24" />
	<use xlink:href="#brand-vsco" x="200" y="112" width="24" height="24" />
	<use xlink:href="#brand-zeit" x="244" y="112" width="24" height="24" />

</svg>