<svg xmlns="http://www.w3.org/2000/svg" xmlns:xlink="http://www.w3.org/1999/xlink" viewBox="0 0 292 160" width="292" height="160" style="color: #354052"><rect x="0" y="0" width="292" height="160" fill="#fff"></rect>
	<symbol id="ad-circle-off" class="icon icon-tabler icon-tabler-ad-circle-off" viewBox="0 0 24 24" stroke-width="2" stroke="currentColor" fill="none" stroke-linecap="round" stroke-linejoin="round"><path stroke="none" d="M0 0h24v24H0z" fill="none"/><path d="M4.91 4.949a9.968 9.968 0 0 0 -2.91 7.051c0 5.523 4.477 10 10 10a9.968 9.968 0 0 0 7.05 -2.909" /><path d="M20.778 16.793a9.955 9.955 0 0 0 1.222 -4.793c0 -5.523 -4.477 -10 -10 -10c-1.74 0 -3.376 .444 -4.8 1.225" /><path d="M7 15v-4.5a1.5 1.5 0 0 1 2.138 -1.358" /><path d="M9.854 9.853c.094 .196 .146 .415 .146 .647v4.5" /><path d="M7 13h3" /><path d="M14 14v1h1" /><path d="M17 13v-2a2 2 0 0 0 -2 -2h-1v1" /><path d="M3 3l18 18" />
</symbol>
	<symbol id="ad-circle" class="icon icon-tabler icon-tabler-ad-circle" viewBox="0 0 24 24" stroke-width="2" stroke="currentColor" fill="none" stroke-linecap="round" stroke-linejoin="round"><path stroke="none" d="M0 0h24v24H0z" fill="none"/><path d="M12 12m-10 0a10 10 0 1 0 20 0a10 10 0 1 0 -20 0" /><path d="M7 15v-4.5a1.5 1.5 0 0 1 3 0v4.5" /><path d="M7 13h3" /><path d="M14 9v6h1a2 2 0 0 0 2 -2v-2a2 2 0 0 0 -2 -2h-1z" />
</symbol>
	<symbol id="align-box-center-middle" class="icon icon-tabler icon-tabler-align-box-center-middle" viewBox="0 0 24 24" stroke-width="2" stroke="currentColor" fill="none" stroke-linecap="round" stroke-linejoin="round"><path stroke="none" d="M0 0h24v24H0z" fill="none"/><path d="M3 19v-14a2 2 0 0 1 2 -2h14a2 2 0 0 1 2 2v14a2 2 0 0 1 -2 2h-14a2 2 0 0 1 -2 -2z" /><path d="M11 15h2" /><path d="M9 12h6" /><path d="M10 9h4" />
</symbol>
	<symbol id="border-corners" class="icon icon-tabler icon-tabler-border-corners" viewBox="0 0 24 24" stroke-width="2" stroke="currentColor" fill="none" stroke-linecap="round" stroke-linejoin="round"><path stroke="none" d="M0 0h24v24H0z" fill="none"/><path d="M16 4h2a2 2 0 0 1 2 2v2" /><path d="M20 16v2a2 2 0 0 1 -2 2h-2" /><path d="M8 20h-2a2 2 0 0 1 -2 -2v-2" /><path d="M4 8v-2a2 2 0 0 1 2 -2h2" />
</symbol>
	<symbol id="border-sides" class="icon icon-tabler icon-tabler-border-sides" viewBox="0 0 24 24" stroke-width="2" stroke="currentColor" fill="none" stroke-linecap="round" stroke-linejoin="round"><path stroke="none" d="M0 0h24v24H0z" fill="none"/><path d="M4 8v8" /><path d="M20 16v-8" /><path d="M8 4h8" /><path d="M8 20h8" />
</symbol>
	<symbol id="brand-alipay" class="icon icon-tabler icon-tabler-brand-alipay" viewBox="0 0 24 24" stroke-width="2" stroke="currentColor" fill="none" stroke-linecap="round" stroke-linejoin="round"><path stroke="none" d="M0 0h24v24H0z" fill="none"/><path d="M19 3h-14a2 2 0 0 0 -2 2v14a2 2 0 0 0 2 2h14a2 2 0 0 0 2 -2v-14a2 2 0 0 0 -2 -2z" /><path d="M7 7h10" /><path d="M12 3v7" /><path d="M21 17.314c-2.971 -1.923 -15 -8.779 -15 -1.864c0 1.716 1.52 2.55 2.985 2.55c3.512 0 6.814 -5.425 6.814 -8h-6.604" />
</symbol>
	<symbol id="brand-cake" class="icon icon-tabler icon-tabler-brand-cake" viewBox="0 0 24 24" stroke-width="2" stroke="currentColor" fill="none" stroke-linecap="round" stroke-linejoin="round"><path stroke="none" d="M0 0h24v24H0z" fill="none"/><path d="M20.84 12c0 2.05 .985 3.225 -.04 5c-1.026 1.775 -2.537 1.51 -4.314 2.534c-1.776 1.026 -2.302 2.466 -4.353 2.466c-2.051 0 -2.576 -1.441 -4.353 -2.466c-1.776 -1.024 -3.288 -.759 -4.314 -2.534c-1.025 -1.775 -.04 -2.95 -.04 -5s-.985 -3.225 .04 -5c1.026 -1.775 2.537 -1.51 4.314 -2.534c1.776 -1.026 2.302 -2.466 4.353 -2.466s2.577 1.441 4.353 2.466c1.776 1.024 3.288 .759 4.313 2.534c1.026 1.775 .04 2.95 .04 5z" />
</symbol>
	<symbol id="brand-fiverr" class="icon icon-tabler icon-tabler-brand-fiverr" viewBox="0 0 24 24" stroke-width="2" stroke="currentColor" fill="none" stroke-linecap="round" stroke-linejoin="round"><path stroke="none" d="M0 0h24v24H0z" fill="none"/><path d="M15 3h-2a6 6 0 0 0 -6 6h-3v4h3v8h4v-7h4v7h4v-11h-8v-1.033a1.967 1.967 0 0 1 2 -1.967h2v-4z" />
</symbol>
	<symbol id="brand-sugarizer" class="icon icon-tabler icon-tabler-brand-sugarizer" viewBox="0 0 24 24" stroke-width="2" stroke="currentColor" fill="none" stroke-linecap="round" stroke-linejoin="round"><path stroke="none" d="M0 0h24v24H0z" fill="none"/><path d="M14.277 16l3.252 -3.252a1.61 1.61 0 0 0 -2.277 -2.276l-3.252 3.251l-3.252 -3.251a1.61 1.61 0 0 0 -2.276 2.276l3.251 3.252l-3.251 3.252a1.61 1.61 0 1 0 2.276 2.277l3.252 -3.252l3.252 3.252a1.61 1.61 0 1 0 2.277 -2.277l-3.252 -3.252z" /><path d="M12 5m-3 0a3 3 0 1 0 6 0a3 3 0 1 0 -6 0" />
</symbol>
	<symbol id="currency-nano" class="icon icon-tabler icon-tabler-currency-nano" viewBox="0 0 24 24" stroke-width="2" stroke="currentColor" fill="none" stroke-linecap="round" stroke-linejoin="round"><path stroke="none" d="M0 0h24v24H0z" fill="none"/><path d="M7 20l10 -16" /><path d="M7 12h10" /><path d="M7 16h10" /><path d="M17 20l-10 -16" />
</symbol>
	<symbol id="device-imac" class="icon icon-tabler icon-tabler-device-imac" viewBox="0 0 24 24" stroke-width="2" stroke="currentColor" fill="none" stroke-linecap="round" stroke-linejoin="round"><path stroke="none" d="M0 0h24v24H0z" fill="none"/><path d="M3 3m0 1a1 1 0 0 1 1 -1h16a1 1 0 0 1 1 1v12a1 1 0 0 1 -1 1h-16a1 1 0 0 1 -1 -1z" /><path d="M3 13h18" /><path d="M8 21h8" /><path d="M10 17l-.5 4" /><path d="M14 17l.5 4" />
</symbol>
	<symbol id="help-hexagon" class="icon icon-tabler icon-tabler-help-hexagon" viewBox="0 0 24 24" stroke-width="2" stroke="currentColor" fill="none" stroke-linecap="round" stroke-linejoin="round"><path stroke="none" d="M0 0h24v24H0z" fill="none"/><path d="M12 13.5a1.5 1.5 0 0 1 1 -1.5a2.6 2.6 0 1 0 -3 -4" />  <path d="M12 17l0 .01" /><path d="M19.875 6.27a2.225 2.225 0 0 1 1.125 1.948v7.284c0 .809 -.443 1.555 -1.158 1.948l-6.75 4.27a2.269 2.269 0 0 1 -2.184 0l-6.75 -4.27a2.225 2.225 0 0 1 -1.158 -1.948v-7.285c0 -.809 .443 -1.554 1.158 -1.947l6.75 -3.98a2.33 2.33 0 0 1 2.25 0l6.75 3.98h-.033z" />
</symbol>
	<symbol id="help-octagon" class="icon icon-tabler icon-tabler-help-octagon" viewBox="0 0 24 24" stroke-width="2" stroke="currentColor" fill="none" stroke-linecap="round" stroke-linejoin="round"><path stroke="none" d="M0 0h24v24H0z" fill="none"/><path d="M12 13.5a1.5 1.5 0 0 1 1 -1.5a2.6 2.6 0 1 0 -3 -4" /><path d="M12 17l0 .01" /><path d="M8.7 3h6.6c.3 0 .5 .1 .7 .3l4.7 4.7c.2 .2 .3 .4 .3 .7v6.6c0 .3 -.1 .5 -.3 .7l-4.7 4.7c-.2 .2 -.4 .3 -.7 .3h-6.6c-.3 0 -.5 -.1 -.7 -.3l-4.7 -4.7c-.2 -.2 -.3 -.4 -.3 -.7v-6.6c0 -.3 .1 -.5 .3 -.7l4.7 -4.7c.2 -.2 .4 -.3 .7 -.3z" />
</symbol>
	<symbol id="info-hexagon" class="icon icon-tabler icon-tabler-info-hexagon" viewBox="0 0 24 24" stroke-width="2" stroke="currentColor" fill="none" stroke-linecap="round" stroke-linejoin="round"><path stroke="none" d="M0 0h24v24H0z" fill="none"/><path d="M19.875 6.27a2.225 2.225 0 0 1 1.125 1.948v7.284c0 .809 -.443 1.555 -1.158 1.948l-6.75 4.27a2.269 2.269 0 0 1 -2.184 0l-6.75 -4.27a2.225 2.225 0 0 1 -1.158 -1.948v-7.285c0 -.809 .443 -1.554 1.158 -1.947l6.75 -3.98a2.33 2.33 0 0 1 2.25 0l6.75 3.98h-.033z" /><path d="M12 8l.01 0" /><path d="M11 12l1 0l0 4l1 0" />
</symbol>
	<symbol id="info-octagon" class="icon icon-tabler icon-tabler-info-octagon" viewBox="0 0 24 24" stroke-width="2" stroke="currentColor" fill="none" stroke-linecap="round" stroke-linejoin="round"><path stroke="none" d="M0 0h24v24H0z" fill="none"/><path d="M9.103 2h5.794a3 3 0 0 1 2.122 .879l4.101 4.101a3 3 0 0 1 .88 2.123v5.794a3 3 0 0 1 -.879 2.122l-4.101 4.101a3 3 0 0 1 -2.122 .879h-5.795a3 3 0 0 1 -2.122 -.879l-4.101 -4.1a3 3 0 0 1 -.88 -2.123v-5.794a3 3 0 0 1 .879 -2.122l4.101 -4.101a3 3 0 0 1 2.123 -.88z" /><path d="M12 8l.01 0" /><path d="M11 12l1 0l0 4l1 0" />
</symbol>
	<symbol id="pdf" class="icon icon-tabler icon-tabler-pdf" viewBox="0 0 24 24" stroke-width="2" stroke="currentColor" fill="none" stroke-linecap="round" stroke-linejoin="round"><path stroke="none" d="M0 0h24v24H0z" fill="none"/><path d="M10 8v8h2a2 2 0 0 0 2 -2v-4a2 2 0 0 0 -2 -2h-2z" /><path d="M3 12h2a2 2 0 1 0 0 -4h-2v8" /><path d="M17 12h3" /><path d="M21 8h-4v8" />
</symbol>
	<symbol id="plus-equal" class="icon icon-tabler icon-tabler-plus-equal" viewBox="0 0 24 24" stroke-width="2" stroke="currentColor" fill="none" stroke-linecap="round" stroke-linejoin="round"><path stroke="none" d="M0 0h24v24H0z" fill="none"/><path d="M4 7h6" /><path d="M7 4v6" /><path d="M20 16h-6" /><path d="M20 19h-6" /><path d="M5 19l14 -14" />
</symbol>
	<symbol id="plus-minus" class="icon icon-tabler icon-tabler-plus-minus" viewBox="0 0 24 24" stroke-width="2" stroke="currentColor" fill="none" stroke-linecap="round" stroke-linejoin="round"><path stroke="none" d="M0 0h24v24H0z" fill="none"/><path d="M4 7h6" /><path d="M7 4v6" /><path d="M20 18h-6" /><path d="M5 19l14 -14" />
</symbol>

	<use xlink:href="#ad-circle-off" x="24" y="24" width="24" height="24" />
	<use xlink:href="#ad-circle" x="68" y="24" width="24" height="24" />
	<use xlink:href="#align-box-center-middle" x="112" y="24" width="24" height="24" />
	<use xlink:href="#border-corners" x="156" y="24" width="24" height="24" />
	<use xlink:href="#border-sides" x="200" y="24" width="24" height="24" />
	<use xlink:href="#brand-alipay" x="244" y="24" width="24" height="24" />
	<use xlink:href="#brand-cake" x="24" y="68" width="24" height="24" />
	<use xlink:href="#brand-fiverr" x="68" y="68" width="24" height="24" />
	<use xlink:href="#brand-sugarizer" x="112" y="68" width="24" height="24" />
	<use xlink:href="#currency-nano" x="156" y="68" width="24" height="24" />
	<use xlink:href="#device-imac" x="200" y="68" width="24" height="24" />
	<use xlink:href="#help-hexagon" x="244" y="68" width="24" height="24" />
	<use xlink:href="#help-octagon" x="24" y="112" width="24" height="24" />
	<use xlink:href="#info-hexagon" x="68" y="112" width="24" height="24" />
	<use xlink:href="#info-octagon" x="112" y="112" width="24" height="24" />
	<use xlink:href="#pdf" x="156" y="112" width="24" height="24" />
	<use xlink:href="#plus-equal" x="200" y="112" width="24" height="24" />
	<use xlink:href="#plus-minus" x="244" y="112" width="24" height="24" />

</svg>