<svg xmlns="http://www.w3.org/2000/svg" xmlns:xlink="http://www.w3.org/1999/xlink" viewBox="0 0 292 204" width="292" height="204" style="color: #354052"><rect x="0" y="0" width="292" height="204" fill="#fff"></rect>
	<symbol id="a-b-off" class="icon icon-tabler icon-tabler-a-b-off" viewBox="0 0 24 24" stroke-width="2" stroke="currentColor" fill="none" stroke-linecap="round" stroke-linejoin="round"><path stroke="none" d="M0 0h24v24H0z" fill="none"/><path d="M3 16v-5.5a2.5 2.5 0 0 1 5 0v5.5m0 -4h-5" /><path d="M12 12v6" /><path d="M16 8h3a2 2 0 1 1 0 4h-3m3 0a2 2 0 0 1 .83 3.82m-3.83 -3.82v-4" /><path d="M3 3l18 18" />
</symbol>
	<symbol id="accessible-off" class="icon icon-tabler icon-tabler-accessible-off" viewBox="0 0 24 24" stroke-width="2" stroke="currentColor" fill="none" stroke-linecap="round" stroke-linejoin="round"><path stroke="none" d="M0 0h24v24H0z" fill="none"/><path d="M10 16.5l2 -3l2 3m-2 -3v-1.5m2.627 -1.376l.373 -.124m-6 0l2.231 .744" /><path d="M20.042 16.045a9 9 0 0 0 -12.087 -12.087m-2.318 1.677a9 9 0 1 0 12.725 12.73" /><path d="M12 8a0.5 .5 0 1 0 -.5 -.5" /><path d="M3 3l18 18" />
</symbol>
	<symbol id="adjustments-off" class="icon icon-tabler icon-tabler-adjustments-off" viewBox="0 0 24 24" stroke-width="2" stroke="currentColor" fill="none" stroke-linecap="round" stroke-linejoin="round"><path stroke="none" d="M0 0h24v24H0z" fill="none"/><circle cx="6" cy="10" r="2" /><path d="M6 6v2" /><path d="M6 12v8" /><circle cx="12" cy="16" r="2" /><path d="M12 4v4" /><path d="M12 12v2" /><path d="M12 18v2" /><circle cx="18" cy="7" r="2" /><path d="M18 4v1" /><path d="M18 9v5" /><path d="M18 18v2" /><path d="M3 3l18 18" />
</symbol>
	<symbol id="alarm-off" class="icon icon-tabler icon-tabler-alarm-off" viewBox="0 0 24 24" stroke-width="2" stroke="currentColor" fill="none" stroke-linecap="round" stroke-linejoin="round"><path stroke="none" d="M0 0h24v24H0z" fill="none"/><path d="M7.587 7.566a7 7 0 1 0 9.833 9.864m1.35 -2.645a7 7 0 0 0 -8.536 -8.56" /><path d="M12 12v1h1" /><path d="M5.261 5.265l-1.011 .735" /><path d="M17 4l2.75 2" /><path d="M3 3l18 18" />
</symbol>
	<symbol id="antenna-bars-off" class="icon icon-tabler icon-tabler-antenna-bars-off" viewBox="0 0 24 24" stroke-width="2" stroke="currentColor" fill="none" stroke-linecap="round" stroke-linejoin="round"><path stroke="none" d="M0 0h24v24H0z" fill="none"/><path d="M6 18v-3" /><path d="M10 18v-6" /><path d="M14 18v-4" /><path d="M18 14v-8" /><path d="M3 3l18 18" />
</symbol>
	<symbol id="api-app-off" class="icon icon-tabler icon-tabler-api-app-off" viewBox="0 0 24 24" stroke-width="2" stroke="currentColor" fill="none" stroke-linecap="round" stroke-linejoin="round"><path stroke="none" d="M0 0h24v24H0z" fill="none"/><path d="M12 15h-6.5a2.5 2.5 0 1 1 0 -5h.5" /><path d="M15 15v3.5a2.5 2.5 0 1 1 -5 0v-.5" /><path d="M13 9h5.5a2.5 2.5 0 1 1 0 5h-.5" /><path d="M9 12v-3m.042 -3.957a2.5 2.5 0 0 1 4.958 .457v.5" /><path d="M3 3l18 18" />
</symbol>
	<symbol id="apps-off" class="icon icon-tabler icon-tabler-apps-off" viewBox="0 0 24 24" stroke-width="2" stroke="currentColor" fill="none" stroke-linecap="round" stroke-linejoin="round"><path stroke="none" d="M0 0h24v24H0z" fill="none"/><path d="M8 4h1a1 1 0 0 1 1 1v1m-.29 3.704a0.997 .997 0 0 1 -.71 .296h-4a1 1 0 0 1 -1 -1v-4c0 -.276 .111 -.525 .292 -.706" /><path d="M18 14h1a1 1 0 0 1 1 1v1m-.29 3.704a0.997 .997 0 0 1 -.71 .296h-4a1 1 0 0 1 -1 -1v-4c0 -.276 .111 -.525 .292 -.706" /><rect x="4" y="14" width="6" height="6" rx="1" /><path d="M14 7h6" /><path d="M17 4v6" /><path d="M3 3l18 18" />
</symbol>
	<symbol id="archive-off" class="icon icon-tabler icon-tabler-archive-off" viewBox="0 0 24 24" stroke-width="2" stroke="currentColor" fill="none" stroke-linecap="round" stroke-linejoin="round"><path stroke="none" d="M0 0h24v24H0z" fill="none"/><path d="M8 4h11a2 2 0 1 1 0 4h-7m-4 0h-3a2 2 0 0 1 -.826 -3.822" /><path d="M5 8v10a2 2 0 0 0 2 2h10a2 2 0 0 0 1.824 -1.18m.176 -3.82v-7" /><path d="M10 12h2" /><path d="M3 3l18 18" />
</symbol>
	<symbol id="artboard-off" class="icon icon-tabler icon-tabler-artboard-off" viewBox="0 0 24 24" stroke-width="2" stroke="currentColor" fill="none" stroke-linecap="round" stroke-linejoin="round"><path stroke="none" d="M0 0h24v24H0z" fill="none"/><path d="M12 8h3a1 1 0 0 1 1 1v3" /><path d="M15.716 15.698a0.997 .997 0 0 1 -.716 .302h-6a1 1 0 0 1 -1 -1v-6c0 -.273 .11 -.52 .287 -.7" /><path d="M3 8h1" /><path d="M3 16h1" /><path d="M8 3v1" /><path d="M16 3v1" /><path d="M20 8h1" /><path d="M20 16h1" /><path d="M8 20v1" /><path d="M16 20v1" /><path d="M3 3l18 18" />
</symbol>
	<symbol id="aspect-ratio-off" class="icon icon-tabler icon-tabler-aspect-ratio-off" viewBox="0 0 24 24" stroke-width="2" stroke="currentColor" fill="none" stroke-linecap="round" stroke-linejoin="round"><path stroke="none" d="M0 0h24v24H0z" fill="none"/><path d="M9 5h10a2 2 0 0 1 2 2v10m-2 2h-14a2 2 0 0 1 -2 -2v-10a2 2 0 0 1 2 -2" /><path d="M7 12v-3h2" /><path d="M17 12v1m-2 2h-1" /><path d="M3 3l18 18" />
</symbol>
	<symbol id="at-off" class="icon icon-tabler icon-tabler-at-off" viewBox="0 0 24 24" stroke-width="2" stroke="currentColor" fill="none" stroke-linecap="round" stroke-linejoin="round"><path stroke="none" d="M0 0h24v24H0z" fill="none"/><path d="M9.174 9.17a4 4 0 0 0 5.646 5.668m1.18 -2.838a4 4 0 0 0 -4 -4" /><path d="M19.695 15.697a2.5 2.5 0 0 0 1.305 -2.197v-1.5a9 9 0 0 0 -13.055 -8.047m-2.322 1.683a9 9 0 0 0 9.877 14.644" /><path d="M3 3l18 18" />
</symbol>
	<symbol id="ballpen-off" class="icon icon-tabler icon-tabler-ballpen-off" viewBox="0 0 24 24" stroke-width="2" stroke="currentColor" fill="none" stroke-linecap="round" stroke-linejoin="round"><path stroke="none" d="M0 0h24v24H0z" fill="none"/><path d="M14 6l7 7l-2 2" /><path d="M10 10l-4.172 4.172a2.828 2.828 0 1 0 4 4l4.172 -4.172" /><path d="M16 12l4.414 -4.414a2 2 0 0 0 0 -2.829l-1.171 -1.171a2 2 0 0 0 -2.829 0l-4.414 4.414" /><path d="M4 20l1.768 -1.768" /><path d="M3 3l18 18" />
</symbol>
	<symbol id="barbell-off" class="icon icon-tabler icon-tabler-barbell-off" viewBox="0 0 24 24" stroke-width="2" stroke="currentColor" fill="none" stroke-linecap="round" stroke-linejoin="round"><path stroke="none" d="M0 0h24v24H0z" fill="none"/><path d="M2 12h1" /><path d="M6 8h-2a1 1 0 0 0 -1 1v6a1 1 0 0 0 1 1h2" /><path d="M6.298 6.288a0.997 .997 0 0 0 -.298 .712v10a1 1 0 0 0 1 1h1a1 1 0 0 0 1 -1v-8" /><path d="M9 12h3" /><path d="M15 15v2a1 1 0 0 0 1 1h1c.275 0 .523 -.11 .704 -.29m.296 -3.71v-7a1 1 0 0 0 -1 -1h-1a1 1 0 0 0 -1 1v4" /><path d="M18 8h2a1 1 0 0 1 1 1v6a1 1 0 0 1 -1 1" /><path d="M22 12h-1" /><path d="M3 3l18 18" />
</symbol>
	<symbol id="barcode-off" class="icon icon-tabler icon-tabler-barcode-off" viewBox="0 0 24 24" stroke-width="2" stroke="currentColor" fill="none" stroke-linecap="round" stroke-linejoin="round"><path stroke="none" d="M0 0h24v24H0z" fill="none"/><path d="M4 7v-1c0 -.552 .224 -1.052 .586 -1.414" /><path d="M4 17v1a2 2 0 0 0 2 2h2" /><path d="M16 4h2a2 2 0 0 1 2 2v1" /><path d="M16 20h2c.551 0 1.05 -.223 1.412 -.584" /><path d="M5 11h1v2h-1z" /><path d="M10 11v2" /><path d="M15 11v.01" /><path d="M19 11v2" /><path d="M3 3l18 18" />
</symbol>
	<symbol id="barrel" class="icon icon-tabler icon-tabler-barrel" viewBox="0 0 24 24" stroke-width="2" stroke="currentColor" fill="none" stroke-linecap="round" stroke-linejoin="round"><path stroke="none" d="M0 0h24v24H0z" fill="none"/><path d="M7.278 4h9.444a2 2 0 0 1 1.841 1.22c.958 2.26 1.437 4.52 1.437 6.78c0 2.26 -.479 4.52 -1.437 6.78a2 2 0 0 1 -1.841 1.22h-9.444a2 2 0 0 1 -1.841 -1.22c-.958 -2.26 -1.437 -4.52 -1.437 -6.78c0 -2.26 .479 -4.52 1.437 -6.78a2 2 0 0 1 1.841 -1.22z" /><path d="M14 4c.667 2.667 1 5.333 1 8s-.333 5.333 -1 8" /><path d="M10 4c-.667 2.667 -1 5.333 -1 8s.333 5.333 1 8" /><path d="M4.5 16h15" /><path d="M19.5 8h-15" />
</symbol>
	<symbol id="barrier-block-off" class="icon icon-tabler icon-tabler-barrier-block-off" viewBox="0 0 24 24" stroke-width="2" stroke="currentColor" fill="none" stroke-linecap="round" stroke-linejoin="round"><path stroke="none" d="M0 0h24v24H0z" fill="none"/><path d="M11 7h8a1 1 0 0 1 1 1v7c0 .27 -.107 .516 -.282 .696" /><path d="M16 16h-11a1 1 0 0 1 -1 -1v-7a1 1 0 0 1 1 -1h2" /><path d="M7 16v4" /><path d="M7.5 16l4.244 -4.244" /><path d="M13.745 9.755l2.755 -2.755" /><path d="M13.5 16l1.249 -1.249" /><path d="M16.741 12.759l3.259 -3.259" /><path d="M4 13.5l4.752 -4.752" /><path d="M17 17v3" /><path d="M5 20h4" /><path d="M15 20h4" /><path d="M17 7v-2" /><path d="M3 3l18 18" />
</symbol>
	<symbol id="basket-off" class="icon icon-tabler icon-tabler-basket-off" viewBox="0 0 24 24" stroke-width="2" stroke="currentColor" fill="none" stroke-linecap="round" stroke-linejoin="round"><path stroke="none" d="M0 0h24v24H0z" fill="none"/><path d="M7 10l1.359 -1.63" /><path d="M10.176 6.188l1.824 -2.188l5 6" /><path d="M18.77 18.757c-.358 .768 -1.027 1.262 -1.77 1.243h-10c-.966 .024 -1.807 -.817 -2 -2l-2 -8h7" /><path d="M14 10h7l-1.397 5.587" /><circle cx="12" cy="15" r="2" /><path d="M3 3l18 18" />
</symbol>
	<symbol id="beach-off" class="icon icon-tabler icon-tabler-beach-off" viewBox="0 0 24 24" stroke-width="2" stroke="currentColor" fill="none" stroke-linecap="round" stroke-linejoin="round"><path stroke="none" d="M0 0h24v24H0z" fill="none"/><path d="M15.071 15.102a7.502 7.502 0 0 0 -8.124 1.648" /><path d="M10.27 6.269l9.926 5.731a6 6 0 0 0 -10.32 -6.123" /><path d="M16.732 10c1.658 -2.87 2.225 -5.644 1.268 -6.196c-.957 -.552 -3.075 1.326 -4.732 4.196" /><path d="M15 9l-.739 1.279" /><path d="M12.794 12.82l-.794 1.376" /><path d="M3 19.25a2.4 2.4 0 0 1 1 -.25a2.4 2.4 0 0 1 2 1a2.4 2.4 0 0 0 2 1a2.4 2.4 0 0 0 2 -1a2.4 2.4 0 0 1 2 -1a2.4 2.4 0 0 1 2 1a2.4 2.4 0 0 0 2 1a2.4 2.4 0 0 0 2 -1a2.4 2.4 0 0 1 1.135 -.858" /><path d="M3 3l18 18" />
</symbol>
	<symbol id="bike-off" class="icon icon-tabler icon-tabler-bike-off" viewBox="0 0 24 24" stroke-width="2" stroke="currentColor" fill="none" stroke-linecap="round" stroke-linejoin="round"><path stroke="none" d="M0 0h24v24H0z" fill="none"/><circle cx="5" cy="18" r="3" /><path d="M16.437 16.44a3 3 0 0 0 4.123 4.123m1.44 -2.563a3 3 0 0 0 -3 -3" /><path d="M12 19v-4l-3 -3l1.665 -1.332m2.215 -1.772l1.12 -.896l2 3h3" /><circle cx="17" cy="5" r="1" /><path d="M3 3l18 18" />
</symbol>

	<use xlink:href="#a-b-off" x="24" y="24" width="24" height="24" />
	<use xlink:href="#accessible-off" x="68" y="24" width="24" height="24" />
	<use xlink:href="#adjustments-off" x="112" y="24" width="24" height="24" />
	<use xlink:href="#alarm-off" x="156" y="24" width="24" height="24" />
	<use xlink:href="#antenna-bars-off" x="200" y="24" width="24" height="24" />
	<use xlink:href="#api-app-off" x="244" y="24" width="24" height="24" />
	<use xlink:href="#apps-off" x="24" y="68" width="24" height="24" />
	<use xlink:href="#archive-off" x="68" y="68" width="24" height="24" />
	<use xlink:href="#artboard-off" x="112" y="68" width="24" height="24" />
	<use xlink:href="#aspect-ratio-off" x="156" y="68" width="24" height="24" />
	<use xlink:href="#at-off" x="200" y="68" width="24" height="24" />
	<use xlink:href="#ballpen-off" x="244" y="68" width="24" height="24" />
	<use xlink:href="#barbell-off" x="24" y="112" width="24" height="24" />
	<use xlink:href="#barcode-off" x="68" y="112" width="24" height="24" />
	<use xlink:href="#barrel" x="112" y="112" width="24" height="24" />
	<use xlink:href="#barrier-block-off" x="156" y="112" width="24" height="24" />
	<use xlink:href="#basket-off" x="200" y="112" width="24" height="24" />
	<use xlink:href="#beach-off" x="244" y="112" width="24" height="24" />
	<use xlink:href="#bike-off" x="24" y="156" width="24" height="24" />

</svg>