<svg xmlns="http://www.w3.org/2000/svg" xmlns:xlink="http://www.w3.org/1999/xlink" viewBox="0 0 292 160" width="292" height="160" style="color: #354052"><rect x="0" y="0" width="292" height="160" fill="#fff"></rect>
	<symbol id="outline-http-connect-off" xmlns="http://www.w3.org/2000/svg" width="24" height="24" viewBox="0 0 24 24" fill="none" stroke="currentColor" stroke-width="2" stroke-linecap="round" stroke-linejoin="round"
> <path d="M7 10a2 2 0 1 0 -4 0v4a2 2 0 1 0 4 0" /> <path d="M17 13v-5l4 8v-8" /> <path d="M14 14a2 2 0 1 1 -4 0v-4m2 -2a2 2 0 0 1 2 2" /> <path d="M3 3l18 18" />
</symbol>
	<symbol id="outline-http-delete-off" xmlns="http://www.w3.org/2000/svg" width="24" height="24" viewBox="0 0 24 24" fill="none" stroke="currentColor" stroke-width="2" stroke-linecap="round" stroke-linejoin="round"
> <path d="M3 8v8h2a2 2 0 0 0 2 -2v-4a2 2 0 0 0 -2 -2z" /> <path d="M14 8h-2m-2 2v6h4" /> <path d="M10 12h2" /> <path d="M17 8v5m3 3h1" /> <path d="M3 3l18 18" />
</symbol>
	<symbol id="outline-http-get-off" xmlns="http://www.w3.org/2000/svg" width="24" height="24" viewBox="0 0 24 24" fill="none" stroke="currentColor" stroke-width="2" stroke-linecap="round" stroke-linejoin="round"
> <path d="M7 8h-2a2 2 0 0 0 -2 2v4a2 2 0 0 0 2 2h2v-4h-1" /> <path d="M14 8h-2m-2 2v6h4" /> <path d="M10 12h2" /> <path d="M17 8h4" /> <path d="M19 8v7" /> <path d="M3 3l18 18" />
</symbol>
	<symbol id="outline-http-head-off" xmlns="http://www.w3.org/2000/svg" width="24" height="24" viewBox="0 0 24 24" fill="none" stroke="currentColor" stroke-width="2" stroke-linecap="round" stroke-linejoin="round"
> <path d="M3 16v-8" /> <path d="M7 8v8" /> <path d="M3 12h4" /> <path d="M14 8h-2m-2 2v6h4" /> <path d="M10 12h2" /> <path d="M17 13v-3a2 2 0 1 1 4 0v6" /> <path d="M17 13h4" /> <path d="M3 3l18 18" />
</symbol>
	<symbol id="outline-http-options-off" xmlns="http://www.w3.org/2000/svg" width="24" height="24" viewBox="0 0 24 24" fill="none" stroke="currentColor" stroke-width="2" stroke-linecap="round" stroke-linejoin="round"
> <path d="M5 8a2 2 0 0 1 2 2v4a2 2 0 1 1 -4 0v-4a2 2 0 0 1 2 -2" /> <path d="M10 12h2m2 -2a2 2 0 0 0 -2 -2m-2 2v6" /> <path d="M17 8h4" /> <path d="M19 8v7" /> <path d="M3 3l18 18" />
</symbol>
	<symbol id="outline-http-patch-off" xmlns="http://www.w3.org/2000/svg" width="24" height="24" viewBox="0 0 24 24" fill="none" stroke="currentColor" stroke-width="2" stroke-linecap="round" stroke-linejoin="round"
> <path d="M3 12h2a2 2 0 1 0 0 -4h-2v8" /> <path d="M10 16v-6m2 -2a2 2 0 0 1 2 2m0 4v2" /> <path d="M10 13h3" /> <path d="M17 8h4" /> <path d="M19 8v7" /> <path d="M3 3l18 18" />
</symbol>
	<symbol id="outline-http-post-off" xmlns="http://www.w3.org/2000/svg" width="24" height="24" viewBox="0 0 24 24" fill="none" stroke="currentColor" stroke-width="2" stroke-linecap="round" stroke-linejoin="round"
> <path d="M3 12h2a2 2 0 1 0 0 -4h-2v8" /> <path d="M12 8a2 2 0 0 1 2 2m0 4a2 2 0 1 1 -4 0v-4" /> <path d="M20 16a1 1 0 0 0 1 -1v-2a1 1 0 0 0 -1 -1h-2a1 1 0 0 1 -1 -1v-2a1 1 0 0 1 1 -1h2a1 1 0 0 1 1 1" /> <path d="M3 3l18 18" />
</symbol>
	<symbol id="outline-http-put-off" xmlns="http://www.w3.org/2000/svg" width="24" height="24" viewBox="0 0 24 24" fill="none" stroke="currentColor" stroke-width="2" stroke-linecap="round" stroke-linejoin="round"
> <path d="M3 12h2a2 2 0 1 0 0 -4h-2v8" /> <path d="M17 8h4" /> <path d="M19 8v8" /> <path d="M10 10v4a2 2 0 1 0 4 0m0 -4v-2" /> <path d="M3 3l18 18" />
</symbol>
	<symbol id="outline-http-que-off" xmlns="http://www.w3.org/2000/svg" width="24" height="24" viewBox="0 0 24 24" fill="none" stroke="currentColor" stroke-width="2" stroke-linecap="round" stroke-linejoin="round"
> <path d="M5 8a2 2 0 0 1 2 2v4a2 2 0 1 1 -4 0v-4a2 2 0 0 1 2 -2" /> <path d="M6 15l1 1" /> <path d="M21 8h-4v8h4" /> <path d="M17 12h2.5" /> <path d="M10 10v4a2 2 0 1 0 4 0m0 -4v-2" /> <path d="M3 3l18 18" />
</symbol>
	<symbol id="outline-http-trace-off" xmlns="http://www.w3.org/2000/svg" width="24" height="24" viewBox="0 0 24 24" fill="none" stroke="currentColor" stroke-width="2" stroke-linecap="round" stroke-linejoin="round"
> <path d="M3 8h4" /> <path d="M5 8v8" /> <path d="M10 12h2m2 -2a2 2 0 0 0 -2 -2m-2 2v6" /> <path d="M14 16l-3 -4" /> <path d="M17 13v-3a2 2 0 1 1 4 0v6" /> <path d="M17 13h4" /> <path d="M3 3l18 18" />
</symbol>
	<symbol id="filled-circle-chevrons-down" xmlns="http://www.w3.org/2000/svg" width="24" height="24" viewBox="0 0 24 24" fill="currentColor"
> <path d="M12 2c5.523 0 10 4.477 10 10s-4.477 10 -10 10a10 10 0 1 1 0 -20m-2.293 10.293a1 1 0 1 0 -1.414 1.414l3 3a1 1 0 0 0 1.414 0l3 -3a1 1 0 0 0 0 -1.414l-.094 -.083a1 1 0 0 0 -1.32 .083l-2.294 2.292zm0 -4a1 1 0 0 0 -1.414 1.414l3 3a1 1 0 0 0 1.414 0l3 -3a1 1 0 0 0 0 -1.414l-.094 -.083a1 1 0 0 0 -1.32 .083l-2.294 2.292z" />
</symbol>
	<symbol id="filled-circle-chevrons-left" xmlns="http://www.w3.org/2000/svg" width="24" height="24" viewBox="0 0 24 24" fill="currentColor"
> <path d="M11.927 2.133c5.494 -.04 9.992 4.359 10.073 9.852v.295c-.081 5.493 -4.579 9.893 -10.073 9.852c-5.494 -.04 -9.926 -4.505 -9.926 -10c0 -5.494 4.432 -9.959 9.926 -10m3.78 6.16a1 1 0 0 0 -1.414 0l-3 3a1 1 0 0 0 0 1.414l3 3a1 1 0 0 0 1.414 0l.083 -.094a1 1 0 0 0 -.083 -1.32l-2.292 -2.292l2.292 -2.293a1 1 0 0 0 0 -1.414m-4 0a1 1 0 0 0 -1.414 0l-3 3a1 1 0 0 0 0 1.414l3 3a1 1 0 0 0 1.414 0l.083 -.094a1 1 0 0 0 -.083 -1.32l-2.292 -2.293l2.292 -2.293a1 1 0 0 0 0 -1.414" />
</symbol>
	<symbol id="filled-circle-chevrons-right" xmlns="http://www.w3.org/2000/svg" width="24" height="24" viewBox="0 0 24 24" fill="currentColor"
> <path d="M12.073 1.868c5.494 .04 9.926 4.505 9.926 10c0 5.494 -4.432 9.959 -9.926 10c-5.494 .04 -9.992 -4.36 -10.073 -9.853v-.295c.081 -5.493 4.579 -9.893 10.073 -9.852m-2.366 6.425a1 1 0 0 0 -1.414 0l-.083 .094a1 1 0 0 0 .083 1.32l2.292 2.293l-2.292 2.293a1 1 0 0 0 1.414 1.414l3 -3a1 1 0 0 0 0 -1.414zm4 0a1 1 0 0 0 -1.414 0l-.083 .094a1 1 0 0 0 .083 1.32l2.292 2.293l-2.292 2.293a1 1 0 0 0 1.414 1.414l3 -3a1 1 0 0 0 0 -1.414z" />
</symbol>
	<symbol id="filled-circle-chevrons-up" xmlns="http://www.w3.org/2000/svg" width="24" height="24" viewBox="0 0 24 24" fill="currentColor"
> <path d="M11.867 2.001c5.495 0 9.96 4.432 10 9.926s-4.359 9.993 -9.852 10.073h-.295c-5.493 -.081 -9.893 -4.579 -9.852 -10.073c.04 -5.494 4.505 -9.926 10 -9.926m.84 9.292a1 1 0 0 0 -1.414 0l-3 3a1 1 0 0 0 0 1.414l.094 .083a1 1 0 0 0 1.32 -.083l2.292 -2.292l2.293 2.292a1 1 0 0 0 1.414 -1.414zm0 -4a1 1 0 0 0 -1.414 0l-3 3a1 1 0 0 0 0 1.414l.094 .083a1 1 0 0 0 1.32 -.083l2.292 -2.292l2.293 2.292a1 1 0 0 0 1.414 -1.414z" />
</symbol>
	<symbol id="filled-clipboard-data" xmlns="http://www.w3.org/2000/svg" width="24" height="24" viewBox="0 0 24 24" fill="currentColor"
> <path d="M17.997 4.17a3 3 0 0 1 2.003 2.83v12a3 3 0 0 1 -3 3h-10a3 3 0 0 1 -3 -3v-12a3 3 0 0 1 2.003 -2.83a4 4 0 0 0 3.997 3.83h4a4 4 0 0 0 3.98 -3.597zm-8.997 7.83a1 1 0 0 0 -1 1v4a1 1 0 0 0 2 0v-4a1 1 0 0 0 -1 -1m3 3a1 1 0 0 0 -1 1v1a1 1 0 0 0 1 1l.117 -.007a1 1 0 0 0 .883 -.993v-1a1 1 0 0 0 -1 -1m3 -1a1 1 0 0 0 -1 1v2a1 1 0 0 0 2 0v-2a1 1 0 0 0 -1 -1m-1 -12a2 2 0 1 1 0 4h-4a2 2 0 1 1 0 -4z" />
</symbol>
	<symbol id="filled-clipboard-list" xmlns="http://www.w3.org/2000/svg" width="24" height="24" viewBox="0 0 24 24" fill="currentColor"
> <path d="M17.997 4.17a3 3 0 0 1 2.003 2.83v12a3 3 0 0 1 -3 3h-10a3 3 0 0 1 -3 -3v-12a3 3 0 0 1 2.003 -2.83a4 4 0 0 0 3.997 3.83h4a4 4 0 0 0 3.98 -3.597zm-8.987 10.83h-.01a1 1 0 0 0 -.117 1.993l.127 .007a1 1 0 0 0 0 -2m5.99 0h-2a1 1 0 0 0 0 2h2a1 1 0 0 0 0 -2m-5.99 -4h-.01a1 1 0 0 0 -.117 1.993l.127 .007a1 1 0 0 0 0 -2m5.99 0h-2a1 1 0 0 0 0 2h2a1 1 0 0 0 0 -2m-1 -9a2 2 0 1 1 0 4h-4a2 2 0 1 1 0 -4z" />
</symbol>
	<symbol id="filled-clipboard-text" xmlns="http://www.w3.org/2000/svg" width="24" height="24" viewBox="0 0 24 24" fill="currentColor"
> <path d="M17.997 4.17a3 3 0 0 1 2.003 2.83v12a3 3 0 0 1 -3 3h-10a3 3 0 0 1 -3 -3v-12a3 3 0 0 1 2.003 -2.83a4 4 0 0 0 3.997 3.83h4a4 4 0 0 0 3.98 -3.597zm-2.997 10.83h-6a1 1 0 0 0 0 2h6a1 1 0 0 0 0 -2m0 -4h-6a1 1 0 0 0 0 2h6a1 1 0 0 0 0 -2m-1 -9a2 2 0 1 1 0 4h-4a2 2 0 1 1 0 -4z" />
</symbol>
	<symbol id="filled-clipboard-typography" xmlns="http://www.w3.org/2000/svg" width="24" height="24" viewBox="0 0 24 24" fill="currentColor"
> <path d="M17.997 4.17a3 3 0 0 1 2.003 2.83v12a3 3 0 0 1 -3 3h-10a3 3 0 0 1 -3 -3v-12a3 3 0 0 1 2.003 -2.83a4 4 0 0 0 3.997 3.83h4a4 4 0 0 0 3.98 -3.597zm-2.997 5.83h-6a1 1 0 0 0 -1 1v1a1 1 0 0 0 2 0h1v4a1 1 0 0 0 0 2h2a1 1 0 0 0 0 -2v-4h1a1 1 0 0 0 2 0v-1a1 1 0 0 0 -1 -1m-1 -8a2 2 0 1 1 0 4h-4a2 2 0 1 1 0 -4z" />
</symbol>

	<use xlink:href="#outline-http-connect-off" x="24" y="24" width="24" height="24" />
	<use xlink:href="#outline-http-delete-off" x="68" y="24" width="24" height="24" />
	<use xlink:href="#outline-http-get-off" x="112" y="24" width="24" height="24" />
	<use xlink:href="#outline-http-head-off" x="156" y="24" width="24" height="24" />
	<use xlink:href="#outline-http-options-off" x="200" y="24" width="24" height="24" />
	<use xlink:href="#outline-http-patch-off" x="244" y="24" width="24" height="24" />
	<use xlink:href="#outline-http-post-off" x="24" y="68" width="24" height="24" />
	<use xlink:href="#outline-http-put-off" x="68" y="68" width="24" height="24" />
	<use xlink:href="#outline-http-que-off" x="112" y="68" width="24" height="24" />
	<use xlink:href="#outline-http-trace-off" x="156" y="68" width="24" height="24" />
	<use xlink:href="#filled-circle-chevrons-down" x="200" y="68" width="24" height="24" />
	<use xlink:href="#filled-circle-chevrons-left" x="244" y="68" width="24" height="24" />
	<use xlink:href="#filled-circle-chevrons-right" x="24" y="112" width="24" height="24" />
	<use xlink:href="#filled-circle-chevrons-up" x="68" y="112" width="24" height="24" />
	<use xlink:href="#filled-clipboard-data" x="112" y="112" width="24" height="24" />
	<use xlink:href="#filled-clipboard-list" x="156" y="112" width="24" height="24" />
	<use xlink:href="#filled-clipboard-text" x="200" y="112" width="24" height="24" />
	<use xlink:href="#filled-clipboard-typography" x="244" y="112" width="24" height="24" />

</svg>