<svg xmlns="http://www.w3.org/2000/svg" xmlns:xlink="http://www.w3.org/1999/xlink" viewBox="0 0 292 160" width="292" height="160" style="color: #354052"><rect x="0" y="0" width="292" height="160" fill="#fff"></rect>
	<symbol id="outline-brand-jira" xmlns="http://www.w3.org/2000/svg" width="24" height="24" viewBox="0 0 24 24" fill="none" stroke="currentColor" stroke-width="2" stroke-linecap="round" stroke-linejoin="round"
> <path d="M20 4h-9v1.5a2.5 2.5 0 0 0 2.5 2.5h1.5a1 1 0 0 1 1 1v1.5a2.5 2.5 0 0 0 2.5 2.5h1.5v-9" /> <path d="M15 8h-8v1.5a2.5 2.5 0 0 0 2.5 2.5h1.5a1 1 0 0 1 1 1v1.5a2.5 2.5 0 0 0 2.5 2.5h1.5v-8a1 1 0 0 0 -1 -1" /> <path d="M11 12h-8v1.5a2.5 2.5 0 0 0 2.5 2.5h1.5a1 1 0 0 1 1 1v1.5a2.5 2.5 0 0 0 2.5 2.5h1.5v-8a1 1 0 0 0 -1 -1" />
</symbol>
	<symbol id="outline-car-off-road" xmlns="http://www.w3.org/2000/svg" width="24" height="24" viewBox="0 0 24 24" fill="none" stroke="currentColor" stroke-width="2" stroke-linecap="round" stroke-linejoin="round"
> <path d="M9 17h6" /> <path d="M9 17a2 2 0 1 1 -4 0a2 2 0 0 1 4 0" /> <path d="M19 17a2 2 0 1 1 -4 0a2 2 0 0 1 4 0" /> <path d="M17 10l-2 -3" /> <path d="M19 17h2v-5a2 2 0 0 0 -2 -2h-5v2h-2.586a1 1 0 0 1 -.707 -.293l-1.121 -1.121a2 2 0 0 0 -1.414 -.586h-4.172a1 1 0 0 0 -1 1v6h2" />
</symbol>
	<symbol id="outline-car-suspension" xmlns="http://www.w3.org/2000/svg" width="24" height="24" viewBox="0 0 24 24" fill="none" stroke="currentColor" stroke-width="2" stroke-linecap="round" stroke-linejoin="round"
> <path d="M12 22a3 3 0 1 1 0 -6a3 3 0 0 1 0 6" /> <path d="M12 16v-12" /> <path d="M13 2h-2v2h2v-2" /> <path d="M9 11l6 -1" /> <path d="M9 14l6 -1" /> <path d="M9 8l6 -1" />
</symbol>
	<symbol id="outline-credit-card-hand" xmlns="http://www.w3.org/2000/svg" width="24" height="24" viewBox="0 0 24 24" fill="none" stroke="currentColor" stroke-width="2" stroke-linecap="round" stroke-linejoin="round"
> <path d="M2 4h9.914a3 3 0 0 1 1.92 .695l5.166 4.305" /> <path d="M11.15 9h8.85a2 2 0 0 1 2 2v7a2 2 0 0 1 -2 2h-13a2 2 0 0 1 -2 -2v-8.7" /> <path d="M3 8l7.2 4.7a1.803 1.803 0 0 0 2 -3l-4.2 -2.7" /> <path d="M5 16h17" />
</symbol>
	<symbol id="outline-device-3d-camera" xmlns="http://www.w3.org/2000/svg" width="24" height="24" viewBox="0 0 24 24" fill="none" stroke="currentColor" stroke-width="2" stroke-linecap="round" stroke-linejoin="round"
> <path d="M11 8a2 2 0 0 1 2 -2a2 2 0 0 1 2 2a2 2 0 0 1 -2 2a2 2 0 0 1 -2 -2" /> <path d="M8 6a3 3 0 0 1 3 -3h4a3 3 0 0 1 3 3v12a3 3 0 0 1 -3 3h-4a3 3 0 0 1 -3 -3v-12"  /> <path d="M13 14v2" />
</symbol>
	<symbol id="outline-device-3d-lens" xmlns="http://www.w3.org/2000/svg" width="24" height="24" viewBox="0 0 24 24" fill="none" stroke="currentColor" stroke-width="2" stroke-linecap="round" stroke-linejoin="round"
> <path d="M18.005 14.64a3.98 3.98 0 0 0 .995 -2.64" /> <path d="M12 4v16" /> <path d="M15 5v14a7 7 0 0 0 0 -14" /> <path d="M9 5v14a7 7 0 0 1 0 -14" />
</symbol>
	<symbol id="outline-device-screen" xmlns="http://www.w3.org/2000/svg" width="24" height="24" viewBox="0 0 24 24" fill="none" stroke="currentColor" stroke-width="2" stroke-linecap="round" stroke-linejoin="round"
> <path d="M5 5a2 2 0 0 1 2 -2h10a2 2 0 0 1 2 2v14a2 2 0 0 1 -2 2h-10a2 2 0 0 1 -2 -2v-14"  /> <path d="M15 7l-6 10" /> <path d="M15 14l-1.75 3" /> <path d="M10.75 7l-1.75 3" />
</symbol>
	<symbol id="outline-iceberg" xmlns="http://www.w3.org/2000/svg" width="24" height="24" viewBox="0 0 24 24" fill="none" stroke="currentColor" stroke-width="2" stroke-linecap="round" stroke-linejoin="round"
> <path d="M19 10l-2 9l-4 3l-3 -5l-3 -1l-2 -6l2 -5l3 -2l3 3l4 1l2 3" /> <path d="M3 10h18" />
</symbol>
	<symbol id="outline-jetski" xmlns="http://www.w3.org/2000/svg" width="24" height="24" viewBox="0 0 24 24" fill="none" stroke="currentColor" stroke-width="2" stroke-linecap="round" stroke-linejoin="round"
> <path d="M10 5h1.4a1 1 0 0 1 .882 .53l1.718 3.22" /> <path d="M3.485 16.94l.136 .545a2 2 0 0 0 1.94 1.515h7.439a10 10 0 0 0 8 -4c0 -6 -5 -8 -5 -8c-1.889 2.518 -5.852 4 -9 4h-2a2 2 0 0 0 -2 2c0 1.328 .163 2.652 .485 3.94" /> <path d="M3.25 15h17.75" />
</symbol>
	<symbol id="outline-olympic-torch" xmlns="http://www.w3.org/2000/svg" width="24" height="24" viewBox="0 0 24 24" fill="none" stroke="currentColor" stroke-width="2" stroke-linecap="round" stroke-linejoin="round"
> <path d="M8 9h8" /> <path d="M9 9c1 4.364 1 7.636 1 12h4c0 -4.364 0 -7.636 1 -12" /> <path d="M11 3c0 2.5 -1 2.66 -1 4a1.9 1.9 0 0 0 2 2a1.87 1.87 0 0 0 2 -2c0 -1.41 -1 -3 -3 -4" />
</symbol>
	<symbol id="outline-parking-meter" xmlns="http://www.w3.org/2000/svg" width="24" height="24" viewBox="0 0 24 24" fill="none" stroke="currentColor" stroke-width="2" stroke-linecap="round" stroke-linejoin="round"
> <path d="M15 9a3 3 0 0 0 -6 0" /> <path d="M12 19v3" /> <path d="M10.938 19h2.122a4.04 4.04 0 0 0 3.868 -2.82l1.775 -5.68c1.082 -3.463 -.882 -7.138 -4.386 -8.208a6.7 6.7 0 0 0 -1.96 -.292h-.716c-3.668 0 -6.641 2.939 -6.641 6.563c0 .657 .1 1.31 .296 1.937l1.775 5.68a4.04 4.04 0 0 0 3.867 2.82" /> <path d="M11 12h2" /> <path d="M12 12v3" />
</symbol>
	<symbol id="outline-pillow" xmlns="http://www.w3.org/2000/svg" width="24" height="24" viewBox="0 0 24 24" fill="none" stroke="currentColor" stroke-width="2" stroke-linecap="round" stroke-linejoin="round"
> <path d="M6 9a9.34 9.34 0 0 1 0 6" /> <path d="M21.699 16.607c.481 .934 .28 2.088 -.486 2.79c-.767 .703 -1.9 .77 -2.74 .165a48 48 0 0 1 -12.946 0a2.16 2.16 0 0 1 -2.74 -.165a2.345 2.345 0 0 1 -.486 -2.79a41.7 41.7 0 0 1 0 -9.163a2.346 2.346 0 0 1 .433 -2.856a2.16 2.16 0 0 1 2.793 -.145a48 48 0 0 1 12.946 0a2.16 2.16 0 0 1 2.793 .145c.78 .726 .961 1.918 .433 2.856a41.7 41.7 0 0 1 0 9.163" />
</symbol>
	<symbol id="outline-pipeline" xmlns="http://www.w3.org/2000/svg" width="24" height="24" viewBox="0 0 24 24" fill="none" stroke="currentColor" stroke-width="2" stroke-linecap="round" stroke-linejoin="round"
> <path d="M3 4h8" /> <path d="M4 4v5a6 6 0 0 0 6 6h3a1 1 0 0 1 1 1v4" /> <path d="M10 4v4a1 1 0 0 0 1 1h3a6 6 0 0 1 6 6v5" /> <path d="M13 20h8" /> <path d="M12 9v6" />
</symbol>
	<symbol id="outline-quote-open" xmlns="http://www.w3.org/2000/svg" width="24" height="24" viewBox="0 0 24 24" fill="none" stroke="currentColor" stroke-width="2" stroke-linecap="round" stroke-linejoin="round"
> <path d="M14 13h4a1 1 0 0 1 1 1v3a1 1 0 0 1 -1 1h-3a1 1 0 0 1 -1 -1v-6q 0 -4 4 -5" /> <path d="M5 13h4a1 1 0 0 1 1 1v3a1 1 0 0 1 -1 1h-3a1 1 0 0 1 -1 -1v-6q 0 -4 4 -5" />
</symbol>
	<symbol id="outline-scan-letter-a" xmlns="http://www.w3.org/2000/svg" width="24" height="24" viewBox="0 0 24 24" fill="none" stroke="currentColor" stroke-width="2" stroke-linecap="round" stroke-linejoin="round"
> <path d="M4 8v-2a2 2 0 0 1 2 -2h2" /> <path d="M4 16v2a2 2 0 0 0 2 2h2" /> <path d="M16 4h2a2 2 0 0 1 2 2v2" /> <path d="M16 20h2a2 2 0 0 0 2 -2v-2" /> <path d="M9 16v-6a2 2 0 0 1 2 -2h2a2 2 0 0 1 2 2v6" /> <path d="M9 13h6" />
</symbol>
	<symbol id="outline-scan-letter-t" xmlns="http://www.w3.org/2000/svg" width="24" height="24" viewBox="0 0 24 24" fill="none" stroke="currentColor" stroke-width="2" stroke-linecap="round" stroke-linejoin="round"
> <path d="M4 8v-2a2 2 0 0 1 2 -2h2" /> <path d="M4 16v2a2 2 0 0 0 2 2h2" /> <path d="M16 4h2a2 2 0 0 1 2 2v2" /> <path d="M16 20h2a2 2 0 0 0 2 -2v-2" /> <path d="M9 8h6" /> <path d="M12 8v8" />
</symbol>
	<symbol id="outline-segway" xmlns="http://www.w3.org/2000/svg" width="24" height="24" viewBox="0 0 24 24" fill="none" stroke="currentColor" stroke-width="2" stroke-linecap="round" stroke-linejoin="round"
> <path d="M11 3h3q -2.25 5 .75 11" /> <path d="M8 17a4 4 0 1 0 8 0a4 4 0 1 0 -8 0" /> <path d="M12 17.01v.01" />
</symbol>
	<symbol id="outline-x-mark" xmlns="http://www.w3.org/2000/svg" width="24" height="24" viewBox="0 0 24 24" fill="none" stroke="currentColor" stroke-width="2" stroke-linecap="round" stroke-linejoin="round"
> <path d="M12 16l3.644 3.644a1.21 1.21 0 0 0 1.712 0l2.288 -2.288a1.21 1.21 0 0 0 0 -1.712l-3.644 -3.644l3.644 -3.644a1.21 1.21 0 0 0 0 -1.712l-2.288 -2.288a1.21 1.21 0 0 0 -1.712 0l-3.644 3.644l-3.644 -3.644a1.21 1.21 0 0 0 -1.712 0l-2.288 2.288a1.21 1.21 0 0 0 0 1.712l3.644 3.644l-3.644 3.644a1.21 1.21 0 0 0 0 1.712l2.288 2.288a1.21 1.21 0 0 0 1.712 0l3.644 -3.644" />
</symbol>

	<use xlink:href="#outline-brand-jira" x="24" y="24" width="24" height="24" />
	<use xlink:href="#outline-car-off-road" x="68" y="24" width="24" height="24" />
	<use xlink:href="#outline-car-suspension" x="112" y="24" width="24" height="24" />
	<use xlink:href="#outline-credit-card-hand" x="156" y="24" width="24" height="24" />
	<use xlink:href="#outline-device-3d-camera" x="200" y="24" width="24" height="24" />
	<use xlink:href="#outline-device-3d-lens" x="244" y="24" width="24" height="24" />
	<use xlink:href="#outline-device-screen" x="24" y="68" width="24" height="24" />
	<use xlink:href="#outline-iceberg" x="68" y="68" width="24" height="24" />
	<use xlink:href="#outline-jetski" x="112" y="68" width="24" height="24" />
	<use xlink:href="#outline-olympic-torch" x="156" y="68" width="24" height="24" />
	<use xlink:href="#outline-parking-meter" x="200" y="68" width="24" height="24" />
	<use xlink:href="#outline-pillow" x="244" y="68" width="24" height="24" />
	<use xlink:href="#outline-pipeline" x="24" y="112" width="24" height="24" />
	<use xlink:href="#outline-quote-open" x="68" y="112" width="24" height="24" />
	<use xlink:href="#outline-scan-letter-a" x="112" y="112" width="24" height="24" />
	<use xlink:href="#outline-scan-letter-t" x="156" y="112" width="24" height="24" />
	<use xlink:href="#outline-segway" x="200" y="112" width="24" height="24" />
	<use xlink:href="#outline-x-mark" x="244" y="112" width="24" height="24" />

</svg>