<svg xmlns="http://www.w3.org/2000/svg" xmlns:xlink="http://www.w3.org/1999/xlink" viewBox="0 0 292 292" width="292" height="292" style="color: #354052"><rect x="0" y="0" width="292" height="292" fill="#fff"></rect>
	<symbol id="brand-x-filled" class="icon icon-tabler icon-tabler-brand-x-filled" viewBox="0 0 24 24" stroke-width="2" stroke="currentColor" fill="none" stroke-linecap="round" stroke-linejoin="round"><path stroke="none" d="M0 0h24v24H0z" fill="none"/><path d="M8.267 3a1 1 0 0 1 .73 .317l.076 .092l4.274 5.828l5.946 -5.944a1 1 0 0 1 1.497 1.32l-.083 .094l-6.163 6.162l6.262 8.54a1 1 0 0 1 -.697 1.585l-.109 .006h-4.267a1 1 0 0 1 -.73 -.317l-.076 -.092l-4.276 -5.829l-5.944 5.945a1 1 0 0 1 -1.497 -1.32l.083 -.094l6.161 -6.163l-6.26 -8.539a1 1 0 0 1 .697 -1.585l.109 -.006h4.267z" stroke-width="0" fill="currentColor" />
</symbol>
	<symbol id="brand-youtube-filled" class="icon icon-tabler icon-tabler-brand-youtube-filled" viewBox="0 0 24 24" stroke-width="2" stroke="currentColor" fill="none" stroke-linecap="round" stroke-linejoin="round"><path stroke="none" d="M0 0h24v24H0z" fill="none"/><path d="M18 3a5 5 0 0 1 5 5v8a5 5 0 0 1 -5 5h-12a5 5 0 0 1 -5 -5v-8a5 5 0 0 1 5 -5zm-9 6v6a1 1 0 0 0 1.514 .857l5 -3a1 1 0 0 0 0 -1.714l-5 -3a1 1 0 0 0 -1.514 .857z" stroke-width="0" fill="currentColor" />
</symbol>
	<symbol id="candle-filled" class="icon icon-tabler icon-tabler-candle-filled" viewBox="0 0 24 24" stroke-width="2" stroke="currentColor" fill="none" stroke-linecap="round" stroke-linejoin="round"><path stroke="none" d="M0 0h24v24H0z" fill="none"/><path d="M14 10h-4a2 2 0 0 0 -2 2v9a1 1 0 0 0 1 1h6a1 1 0 0 0 1 -1v-9a2 2 0 0 0 -2 -2z" stroke-width="0" fill="currentColor" /><path d="M11.254 2.334l-1.55 1.737c-1.042 1.277 -.898 3.097 .296 4.166a3 3 0 0 0 4.196 -4.28l-1.452 -1.624a1 1 0 0 0 -1.491 .001z" stroke-width="0" fill="currentColor" />
</symbol>
	<symbol id="capsule-filled" class="icon icon-tabler icon-tabler-capsule-filled" viewBox="0 0 24 24" stroke-width="2" stroke="currentColor" fill="none" stroke-linecap="round" stroke-linejoin="round"><path stroke="none" d="M0 0h24v24H0z" fill="none"/><path d="M12 2l-.243 .004a7.004 7.004 0 0 0 -6.757 6.996v6a7 7 0 0 0 7 7l.243 -.004a7.004 7.004 0 0 0 6.757 -6.996v-6a7 7 0 0 0 -7 -7z" stroke-width="0" fill="currentColor" />
</symbol>
	<symbol id="capsule-horizontal-filled" class="icon icon-tabler icon-tabler-capsule-horizontal-filled" viewBox="0 0 24 24" stroke-width="2" stroke="currentColor" fill="none" stroke-linecap="round" stroke-linejoin="round"><path stroke="none" d="M0 0h24v24H0z" fill="none"/><path d="M15 5h-6a7 7 0 1 0 0 14h6a7 7 0 0 0 7 -7l-.007 -.303a7 7 0 0 0 -6.993 -6.697z" stroke-width="0" fill="currentColor" />
</symbol>
	<symbol id="cards-filled" class="icon icon-tabler icon-tabler-cards-filled" viewBox="0 0 24 24" stroke-width="2" stroke="currentColor" fill="none" stroke-linecap="round" stroke-linejoin="round"><path stroke="none" d="M0 0h24v24H0z" fill="none"/><path d="M10.348 3.169l-7.15 3.113a2 2 0 0 0 -1.03 2.608l4.92 11.895a1.96 1.96 0 0 0 2.59 1.063l7.142 -3.11a2.002 2.002 0 0 0 1.036 -2.611l-4.92 -11.894a1.96 1.96 0 0 0 -2.588 -1.064z" stroke-width="0" fill="currentColor" /><path d="M16 3a2 2 0 0 1 1.995 1.85l.005 .15v3.5a1 1 0 0 1 -1.993 .117l-.007 -.117v-3.5h-1a1 1 0 0 1 -.117 -1.993l.117 -.007h1z" stroke-width="0" fill="currentColor" /><path d="M19.08 5.61a1 1 0 0 1 1.31 -.53c.257 .108 .505 .21 .769 .314a2 2 0 0 1 1.114 2.479l-.056 .146l-2.298 5.374a1 1 0 0 1 -1.878 -.676l.04 -.11l2.296 -5.371l-.366 -.148l-.402 -.167a1 1 0 0 1 -.53 -1.312z" stroke-width="0" fill="currentColor" />
</symbol>
	<symbol id="filter-filled" class="icon icon-tabler icon-tabler-filter-filled" viewBox="0 0 24 24" stroke-width="2" stroke="currentColor" fill="none" stroke-linecap="round" stroke-linejoin="round"><path stroke="none" d="M0 0h24v24H0z" fill="none"/><path d="M20 3h-16a1 1 0 0 0 -1 1v2.227l.008 .223a3 3 0 0 0 .772 1.795l4.22 4.641v8.114a1 1 0 0 0 1.316 .949l6 -2l.108 -.043a1 1 0 0 0 .576 -.906v-6.586l4.121 -4.12a3 3 0 0 0 .879 -2.123v-2.171a1 1 0 0 0 -1 -1z" stroke-width="0" fill="currentColor" />
</symbol>
	<symbol id="forbid-2-filled" class="icon icon-tabler icon-tabler-forbid-2-filled" viewBox="0 0 24 24" stroke-width="2" stroke="currentColor" fill="none" stroke-linecap="round" stroke-linejoin="round"><path stroke="none" d="M0 0h24v24H0z" fill="none"/><path d="M17 3.34a10 10 0 1 1 -14.995 8.984l-.005 -.324l.005 -.324a10 10 0 0 1 14.995 -8.336zm-1.293 4.953a1 1 0 0 0 -1.414 0l-6 6l-.083 .094a1 1 0 0 0 1.497 1.32l6 -6l.083 -.094a1 1 0 0 0 -.083 -1.32z" stroke-width="0" fill="currentColor" />
</symbol>
	<symbol id="forbid-filled" class="icon icon-tabler icon-tabler-forbid-filled" viewBox="0 0 24 24" stroke-width="2" stroke="currentColor" fill="none" stroke-linecap="round" stroke-linejoin="round"><path stroke="none" d="M0 0h24v24H0z" fill="none"/><path d="M17 3.34a10 10 0 1 1 -14.995 8.984l-.005 -.324l.005 -.324a10 10 0 0 1 14.995 -8.336zm-7.387 4.87a1 1 0 0 0 -1.32 1.497l6 6l.094 .083a1 1 0 0 0 1.32 -1.497l-6 -6z" stroke-width="0" fill="currentColor" />
</symbol>
	<symbol id="fountain-filled" class="icon icon-tabler icon-tabler-fountain-filled" viewBox="0 0 24 24" stroke-width="2" stroke="currentColor" fill="none" stroke-linecap="round" stroke-linejoin="round"><path stroke="none" d="M0 0h24v24H0z" fill="none"/><path d="M15 2a4 4 0 0 1 4 4a1 1 0 0 1 -1.993 .117l-.007 -.117a2 2 0 0 0 -3.995 -.15l-.005 .15v9h1v-4a3 3 0 0 1 6 0a1 1 0 0 1 -1.993 .117l-.007 -.117a1 1 0 0 0 -1.993 -.117l-.007 .117v4h5a1 1 0 0 1 .993 .883l.007 .117v2a4 4 0 0 1 -3.8 3.995l-.2 .005h-12a4 4 0 0 1 -3.995 -3.8l-.005 -.2v-2a1 1 0 0 1 .883 -.993l.117 -.007h5v-4a1 1 0 0 0 -1.993 -.117l-.007 .117a1 1 0 0 1 -2 0a3 3 0 0 1 5.995 -.176l.005 .176v4h1v-9a2 2 0 1 0 -4 0a1 1 0 1 1 -2 0a4 4 0 0 1 7.001 -2.645a3.983 3.983 0 0 1 2.999 -1.355z" stroke-width="0" fill="currentColor" />
</symbol>
	<symbol id="function-filled" class="icon icon-tabler icon-tabler-function-filled" viewBox="0 0 24 24" stroke-width="2" stroke="currentColor" fill="none" stroke-linecap="round" stroke-linejoin="round"><path stroke="none" d="M0 0h24v24H0z" fill="none"/><path d="M17.333 3a3.667 3.667 0 0 1 3.667 3.667v10.666a3.667 3.667 0 0 1 -3.667 3.667h-10.666a3.667 3.667 0 0 1 -3.667 -3.667v-10.666a3.667 3.667 0 0 1 3.667 -3.667zm-3.583 3a2.38 2.38 0 0 0 -2.37 2.145l-.285 2.855h-2.095l-.117 .007a1 1 0 0 0 .117 1.993h1.894l-.265 2.656l-.014 .071a.38 .38 0 0 1 -.365 .273a.25 .25 0 0 1 -.25 -.25v-.25l-.007 -.117a1 1 0 0 0 -1.993 .117v.25l.005 .154a2.25 2.25 0 0 0 2.245 2.096a2.38 2.38 0 0 0 2.37 -2.145l.284 -2.855h2.096l.117 -.007a1 1 0 0 0 -.117 -1.993h-1.895l.266 -2.656l.014 -.071a.381 .381 0 0 1 .365 -.273a.25 .25 0 0 1 .25 .25v.25l.007 .117a1 1 0 0 0 1.993 -.117v-.25l-.005 -.154a2.25 2.25 0 0 0 -2.245 -2.096z" stroke-width="0" fill="currentColor" />
</symbol>
	<symbol id="gauge-filled" class="icon icon-tabler icon-tabler-gauge-filled" viewBox="0 0 24 24" stroke-width="2" stroke="currentColor" fill="none" stroke-linecap="round" stroke-linejoin="round"><path stroke="none" d="M0 0h24v24H0z" fill="none"/><path d="M17 3.34a10 10 0 1 1 -14.995 8.984l-.005 -.324l.005 -.324a10 10 0 0 1 14.995 -8.336zm-.293 3.953a1 1 0 0 0 -1.414 0l-2.59 2.59l-.083 .094l-.068 .1a2.001 2.001 0 0 0 -2.547 1.774l-.005 .149l.005 .15a2 2 0 1 0 3.917 -.701a.968 .968 0 0 0 .195 -.152l2.59 -2.59l.083 -.094a1 1 0 0 0 -.083 -1.32zm-4.707 -1.293a6 6 0 0 0 -6 6a1 1 0 0 0 2 0a4 4 0 0 1 4 -4a1 1 0 0 0 0 -2z" stroke-width="0" fill="currentColor" />
</symbol>
	<symbol id="gift-card-filled" class="icon icon-tabler icon-tabler-gift-card-filled" viewBox="0 0 24 24" stroke-width="2" stroke="currentColor" fill="none" stroke-linecap="round" stroke-linejoin="round"><path stroke="none" d="M0 0h24v24H0z" fill="none"/><path d="M18 4a4 4 0 0 1 3.995 3.8l.005 .2v8a4 4 0 0 1 -3.8 3.995l-.2 .005h-12a4 4 0 0 1 -3.995 -3.8l-.005 -.2v-8a4 4 0 0 1 3.8 -3.995l.2 -.005h12zm-5.493 5l-.19 .004c-.928 .052 -1.719 .583 -2.317 1.444c-.56 -.805 -1.288 -1.322 -2.139 -1.428l-.198 -.017l-.164 -.003l-.16 .005c-1.28 .086 -2.339 1.179 -2.339 2.495c0 1.226 1.222 2.211 2.453 2.447l.16 .026l-1.32 1.32l-.083 .094a1 1 0 0 0 0 1.226l.083 .094l.094 .083a1 1 0 0 0 1.226 0l.094 -.083l2.293 -2.292l2.293 2.292l.094 .083a1 1 0 0 0 1.403 -1.403l-.083 -.094l-1.32 -1.32c1.229 -.169 2.502 -1.11 2.606 -2.315l.007 -.158l-.005 -.163c-.08 -1.189 -1.02 -2.162 -2.175 -2.316l-.159 -.016l-.154 -.005zm-.025 2l.102 .009c.194 .04 .367 .21 .407 .406l.009 .085l-.012 .031l-.034 .04c-.13 .135 -.513 .369 -.836 .42l-.118 .009h-.602l.052 -.1l.088 -.156c.27 -.444 .574 -.696 .852 -.738l.092 -.006zm-4.964 0l.084 .005l.094 .02c.254 .077 .523 .32 .765 .718l.09 .157l.05 .1h-.601l-.106 -.008c-.398 -.057 -.894 -.4 -.894 -.492c0 -.23 .194 -.446 .416 -.491l.102 -.01z" stroke-width="0" fill="currentColor" />
</symbol>
	<symbol id="glass-full-filled" class="icon icon-tabler icon-tabler-glass-full-filled" viewBox="0 0 24 24" stroke-width="2" stroke="currentColor" fill="none" stroke-linecap="round" stroke-linejoin="round"><path stroke="none" d="M0 0h24v24H0z" fill="none"/><path d="M5.004 10.229l-.003 -.186l.001 -.113l.008 -.071l1 -7a1 1 0 0 1 .877 -.853l.113 -.006h10a1 1 0 0 1 .968 .747l.022 .112l1.006 7.05l.004 .091c0 3.226 -2.56 5.564 -6 5.945v4.055h3a1 1 0 0 1 .117 1.993l-.117 .007h-8a1 1 0 0 1 -.117 -1.993l.117 -.007h3v-4.055c-3.358 -.371 -5.878 -2.609 -5.996 -5.716zm11.129 -6.229h-8.267l-.607 4.258a6.001 6.001 0 0 1 5.125 .787l.216 .155a4 4 0 0 0 4.32 .31l-.787 -5.51z" stroke-width="0" fill="currentColor" />
</symbol>
	<symbol id="globe-filled" class="icon icon-tabler icon-tabler-globe-filled" viewBox="0 0 24 24" stroke-width="2" stroke="currentColor" fill="none" stroke-linecap="round" stroke-linejoin="round"><path stroke="none" d="M0 0h24v24H0z" fill="none"/><path d="M11 4a5 5 0 1 1 -4.995 5.217l-.005 -.217l.005 -.217a5 5 0 0 1 4.995 -4.783z" stroke-width="0" fill="currentColor" /><path d="M14.133 1.502a1 1 0 0 1 1.365 -.369a9.015 9.015 0 1 1 -10.404 14.622a1 1 0 1 1 1.312 -1.51a7.015 7.015 0 1 0 8.096 -11.378a1 1 0 0 1 -.369 -1.365z" stroke-width="0" fill="currentColor" /><path d="M11 16a1 1 0 0 1 .993 .883l.007 .117v4a1 1 0 0 1 -1.993 .117l-.007 -.117v-4a1 1 0 0 1 1 -1z" stroke-width="0" fill="currentColor" /><path d="M15 20a1 1 0 0 1 .117 1.993l-.117 .007h-8a1 1 0 0 1 -.117 -1.993l.117 -.007h8z" stroke-width="0" fill="currentColor" />
</symbol>
	<symbol id="keyframe-align-center-filled" class="icon icon-tabler icon-tabler-keyframe-align-center-filled" viewBox="0 0 24 24" stroke-width="2" stroke="currentColor" fill="none" stroke-linecap="round" stroke-linejoin="round"><path stroke="none" d="M0 0h24v24H0z" fill="none"/><path d="M12 19a1 1 0 0 1 .993 .883l.007 .117v2a1 1 0 0 1 -1.993 .117l-.007 -.117v-2a1 1 0 0 1 1 -1z" stroke-width="0" fill="currentColor" /><path d="M12 6c-.629 0 -1.214 .301 -1.606 .807l-2.908 3.748a2.395 2.395 0 0 0 -.011 2.876l2.919 3.762c.39 .505 .977 .807 1.606 .807c.629 0 1.214 -.301 1.606 -.807l2.908 -3.748a2.395 2.395 0 0 0 .011 -2.876l-2.919 -3.762a2.032 2.032 0 0 0 -1.606 -.807z" stroke-width="0" fill="currentColor" /><path d="M12 1a1 1 0 0 1 .993 .883l.007 .117v2a1 1 0 0 1 -1.993 .117l-.007 -.117v-2a1 1 0 0 1 1 -1z" stroke-width="0" fill="currentColor" /><path d="M5 11a1 1 0 0 1 .117 1.993l-.117 .007h-2a1 1 0 0 1 -.117 -1.993l.117 -.007h2z" stroke-width="0" fill="currentColor" /><path d="M21 11a1 1 0 0 1 .117 1.993l-.117 .007h-2a1 1 0 0 1 -.117 -1.993l.117 -.007h2z" stroke-width="0" fill="currentColor" />
</symbol>
	<symbol id="keyframe-align-horizontal-filled" class="icon icon-tabler icon-tabler-keyframe-align-horizontal-filled" viewBox="0 0 24 24" stroke-width="2" stroke="currentColor" fill="none" stroke-linecap="round" stroke-linejoin="round"><path stroke="none" d="M0 0h24v24H0z" fill="none"/><path d="M12 6c-.629 0 -1.214 .301 -1.606 .807l-2.908 3.748a2.395 2.395 0 0 0 -.011 2.876l2.919 3.762c.39 .505 .977 .807 1.606 .807c.629 0 1.214 -.301 1.606 -.807l2.908 -3.748a2.395 2.395 0 0 0 .011 -2.876l-2.919 -3.762a2.032 2.032 0 0 0 -1.606 -.807z" stroke-width="0" fill="currentColor" /><path d="M5 11a1 1 0 0 1 .117 1.993l-.117 .007h-2a1 1 0 0 1 -.117 -1.993l.117 -.007h2z" stroke-width="0" fill="currentColor" /><path d="M21 11a1 1 0 0 1 .117 1.993l-.117 .007h-2a1 1 0 0 1 -.117 -1.993l.117 -.007h2z" stroke-width="0" fill="currentColor" />
</symbol>
	<symbol id="keyframe-align-vertical-filled" class="icon icon-tabler icon-tabler-keyframe-align-vertical-filled" viewBox="0 0 24 24" stroke-width="2" stroke="currentColor" fill="none" stroke-linecap="round" stroke-linejoin="round"><path stroke="none" d="M0 0h24v24H0z" fill="none"/><path d="M12 1a1 1 0 0 1 .993 .883l.007 .117v2a1 1 0 0 1 -1.993 .117l-.007 -.117v-2a1 1 0 0 1 1 -1z" stroke-width="0" fill="currentColor" /><path d="M12 6c-.629 0 -1.214 .301 -1.606 .807l-2.908 3.748a2.395 2.395 0 0 0 -.011 2.876l2.919 3.762c.39 .505 .977 .807 1.606 .807c.629 0 1.214 -.301 1.606 -.807l2.908 -3.748a2.395 2.395 0 0 0 .011 -2.876l-2.919 -3.762a2.032 2.032 0 0 0 -1.606 -.807z" stroke-width="0" fill="currentColor" /><path d="M12 19a1 1 0 0 1 .993 .883l.007 .117v2a1 1 0 0 1 -1.993 .117l-.007 -.117v-2a1 1 0 0 1 1 -1z" stroke-width="0" fill="currentColor" />
</symbol>
	<symbol id="keyframe-filled" class="icon icon-tabler icon-tabler-keyframe-filled" viewBox="0 0 24 24" stroke-width="2" stroke="currentColor" fill="none" stroke-linecap="round" stroke-linejoin="round"><path stroke="none" d="M0 0h24v24H0z" fill="none"/><path d="M12 4a2.599 2.599 0 0 0 -2 .957l-4.355 5.24a2.847 2.847 0 0 0 -.007 3.598l4.368 5.256c.499 .6 1.225 .949 1.994 .949a2.599 2.599 0 0 0 2 -.957l4.355 -5.24a2.847 2.847 0 0 0 .007 -3.598l-4.368 -5.256a2.593 2.593 0 0 0 -1.994 -.949z" stroke-width="0" fill="currentColor" />
</symbol>
	<symbol id="keyframes-filled" class="icon icon-tabler icon-tabler-keyframes-filled" viewBox="0 0 24 24" stroke-width="2" stroke="currentColor" fill="none" stroke-linecap="round" stroke-linejoin="round"><path stroke="none" d="M0 0h24v24H0z" fill="none"/><path d="M8 4a2.599 2.599 0 0 0 -2 .957l-4.355 5.24a2.847 2.847 0 0 0 -.007 3.598l4.368 5.256c.499 .6 1.224 .949 1.994 .949a2.599 2.599 0 0 0 2 -.957l4.355 -5.24a2.847 2.847 0 0 0 .007 -3.598l-4.368 -5.256a2.593 2.593 0 0 0 -1.994 -.949z" stroke-width="0" fill="currentColor" /><path d="M16.382 4.214a1 1 0 0 1 1.32 .074l.084 .094l4.576 5.823c.808 .993 .848 2.396 .13 3.419l-.12 .158l-4.586 5.836a1 1 0 0 1 -1.644 -1.132l.072 -.104l4.596 -5.85a.845 .845 0 0 0 .06 -.978l-.07 -.1l-4.586 -5.836a1 1 0 0 1 .168 -1.404z" stroke-width="0" fill="currentColor" /><path d="M12.382 4.214a1 1 0 0 1 1.32 .074l.084 .094l4.576 5.823c.808 .993 .848 2.396 .13 3.419l-.12 .158l-4.586 5.836a1 1 0 0 1 -1.644 -1.132l.072 -.104l4.596 -5.85a.845 .845 0 0 0 .06 -.978l-.07 -.1l-4.586 -5.836a1 1 0 0 1 .168 -1.404z" stroke-width="0" fill="currentColor" />
</symbol>
	<symbol id="layout-bottombar-collapse-filled" class="icon icon-tabler icon-tabler-layout-bottombar-collapse-filled" viewBox="0 0 24 24" stroke-width="2" stroke="currentColor" fill="none" stroke-linecap="round" stroke-linejoin="round"><path stroke="none" d="M0 0h24v24H0z" fill="none"/><path d="M18 3a3 3 0 0 1 2.995 2.824l.005 .176v12a3 3 0 0 1 -2.824 2.995l-.176 .005h-12a3 3 0 0 1 -2.995 -2.824l-.005 -.176v-12a3 3 0 0 1 2.824 -2.995l.176 -.005h12zm0 2h-12a1 1 0 0 0 -.993 .883l-.007 .117v9h14v-9a1 1 0 0 0 -.883 -.993l-.117 -.007zm-7.387 3.21l.094 .083l1.293 1.292l1.293 -1.292a1 1 0 0 1 1.32 -.083l.094 .083a1 1 0 0 1 .083 1.32l-.083 .094l-2 2a1 1 0 0 1 -1.32 .083l-.094 -.083l-2 -2a1 1 0 0 1 1.32 -1.497z" stroke-width="0" fill="currentColor" />
</symbol>
	<symbol id="layout-bottombar-expand-filled" class="icon icon-tabler icon-tabler-layout-bottombar-expand-filled" viewBox="0 0 24 24" stroke-width="2" stroke="currentColor" fill="none" stroke-linecap="round" stroke-linejoin="round"><path stroke="none" d="M0 0h24v24H0z" fill="none"/><path d="M18 3a3 3 0 0 1 2.995 2.824l.005 .176v12a3 3 0 0 1 -2.824 2.995l-.176 .005h-12a3 3 0 0 1 -2.995 -2.824l-.005 -.176v-12a3 3 0 0 1 2.824 -2.995l.176 -.005h12zm0 2h-12a1 1 0 0 0 -.993 .883l-.007 .117v9h14v-9a1 1 0 0 0 -.883 -.993l-.117 -.007zm-5.387 3.21l.094 .083l2 2a1 1 0 0 1 -1.32 1.497l-.094 -.083l-1.293 -1.292l-1.293 1.292a1 1 0 0 1 -1.32 .083l-.094 -.083a1 1 0 0 1 -.083 -1.32l.083 -.094l2 -2a1 1 0 0 1 1.32 -.083z" stroke-width="0" fill="currentColor" />
</symbol>
	<symbol id="layout-bottombar-filled" class="icon icon-tabler icon-tabler-layout-bottombar-filled" viewBox="0 0 24 24" stroke-width="2" stroke="currentColor" fill="none" stroke-linecap="round" stroke-linejoin="round"><path stroke="none" d="M0 0h24v24H0z" fill="none"/><path d="M18 3a3 3 0 0 1 2.995 2.824l.005 .176v12a3 3 0 0 1 -2.824 2.995l-.176 .005h-12a3 3 0 0 1 -2.995 -2.824l-.005 -.176v-12a3 3 0 0 1 2.824 -2.995l.176 -.005h12zm0 2h-12a1 1 0 0 0 -.993 .883l-.007 .117v9h14v-9a1 1 0 0 0 -.883 -.993l-.117 -.007z" stroke-width="0" fill="currentColor" />
</symbol>
	<symbol id="layout-navbar-collapse-filled" class="icon icon-tabler icon-tabler-layout-navbar-collapse-filled" viewBox="0 0 24 24" stroke-width="2" stroke="currentColor" fill="none" stroke-linecap="round" stroke-linejoin="round"><path stroke="none" d="M0 0h24v24H0z" fill="none"/><path d="M18 3a3 3 0 0 1 2.995 2.824l.005 .176v12a3 3 0 0 1 -2.824 2.995l-.176 .005h-12a3 3 0 0 1 -2.995 -2.824l-.005 -.176v-12a3 3 0 0 1 2.824 -2.995l.176 -.005h12zm1 6h-14v9a1 1 0 0 0 .883 .993l.117 .007h12a1 1 0 0 0 .993 -.883l.007 -.117v-9zm-6.387 3.21l.094 .083l2 2a1 1 0 0 1 -1.32 1.497l-.094 -.083l-1.293 -1.292l-1.293 1.292a1 1 0 0 1 -1.32 .083l-.094 -.083a1 1 0 0 1 -.083 -1.32l.083 -.094l2 -2a1 1 0 0 1 1.32 -.083z" stroke-width="0" fill="currentColor" />
</symbol>
	<symbol id="layout-navbar-expand-filled" class="icon icon-tabler icon-tabler-layout-navbar-expand-filled" viewBox="0 0 24 24" stroke-width="2" stroke="currentColor" fill="none" stroke-linecap="round" stroke-linejoin="round"><path stroke="none" d="M0 0h24v24H0z" fill="none"/><path d="M18 3a3 3 0 0 1 2.995 2.824l.005 .176v12a3 3 0 0 1 -2.824 2.995l-.176 .005h-12a3 3 0 0 1 -2.995 -2.824l-.005 -.176v-12a3 3 0 0 1 2.824 -2.995l.176 -.005h12zm1 6h-14v9a1 1 0 0 0 .883 .993l.117 .007h12a1 1 0 0 0 .993 -.883l.007 -.117v-9zm-8.387 3.21l.094 .083l1.293 1.292l1.293 -1.292a1 1 0 0 1 1.32 -.083l.094 .083a1 1 0 0 1 .083 1.32l-.083 .094l-2 2a1 1 0 0 1 -1.32 .083l-.094 -.083l-2 -2a1 1 0 0 1 1.32 -1.497z" stroke-width="0" fill="currentColor" />
</symbol>
	<symbol id="layout-navbar-filled" class="icon icon-tabler icon-tabler-layout-navbar-filled" viewBox="0 0 24 24" stroke-width="2" stroke="currentColor" fill="none" stroke-linecap="round" stroke-linejoin="round"><path stroke="none" d="M0 0h24v24H0z" fill="none"/><path d="M18 3a3 3 0 0 1 2.995 2.824l.005 .176v12a3 3 0 0 1 -2.824 2.995l-.176 .005h-12a3 3 0 0 1 -2.995 -2.824l-.005 -.176v-12a3 3 0 0 1 2.824 -2.995l.176 -.005h12zm1 6h-14v9a1 1 0 0 0 .883 .993l.117 .007h12a1 1 0 0 0 .993 -.883l.007 -.117v-9z" stroke-width="0" fill="currentColor" />
</symbol>
	<symbol id="layout-sidebar-left-collapse-filled" class="icon icon-tabler icon-tabler-layout-sidebar-left-collapse-filled" viewBox="0 0 24 24" stroke-width="2" stroke="currentColor" fill="none" stroke-linecap="round" stroke-linejoin="round"><path stroke="none" d="M0 0h24v24H0z" fill="none"/><path d="M18 3a3 3 0 0 1 2.995 2.824l.005 .176v12a3 3 0 0 1 -2.824 2.995l-.176 .005h-12a3 3 0 0 1 -2.995 -2.824l-.005 -.176v-12a3 3 0 0 1 2.824 -2.995l.176 -.005h12zm0 2h-9v14h9a1 1 0 0 0 .993 -.883l.007 -.117v-12a1 1 0 0 0 -.883 -.993l-.117 -.007zm-2.293 4.293a1 1 0 0 1 .083 1.32l-.083 .094l-1.292 1.293l1.292 1.293a1 1 0 0 1 .083 1.32l-.083 .094a1 1 0 0 1 -1.32 .083l-.094 -.083l-2 -2a1 1 0 0 1 -.083 -1.32l.083 -.094l2 -2a1 1 0 0 1 1.414 0z" stroke-width="0" fill="currentColor" />
</symbol>
	<symbol id="layout-sidebar-left-expand-filled" class="icon icon-tabler icon-tabler-layout-sidebar-left-expand-filled" viewBox="0 0 24 24" stroke-width="2" stroke="currentColor" fill="none" stroke-linecap="round" stroke-linejoin="round"><path stroke="none" d="M0 0h24v24H0z" fill="none"/><path d="M18 3a3 3 0 0 1 2.995 2.824l.005 .176v12a3 3 0 0 1 -2.824 2.995l-.176 .005h-12a3 3 0 0 1 -2.995 -2.824l-.005 -.176v-12a3 3 0 0 1 2.824 -2.995l.176 -.005h12zm0 2h-9v14h9a1 1 0 0 0 .993 -.883l.007 -.117v-12a1 1 0 0 0 -.883 -.993l-.117 -.007zm-4.387 4.21l.094 .083l2 2a1 1 0 0 1 .083 1.32l-.083 .094l-2 2a1 1 0 0 1 -1.497 -1.32l.083 -.094l1.292 -1.293l-1.292 -1.293a1 1 0 0 1 -.083 -1.32l.083 -.094a1 1 0 0 1 1.32 -.083z" stroke-width="0" fill="currentColor" />
</symbol>
	<symbol id="layout-sidebar-right-collapse-filled" class="icon icon-tabler icon-tabler-layout-sidebar-right-collapse-filled" viewBox="0 0 24 24" stroke-width="2" stroke="currentColor" fill="none" stroke-linecap="round" stroke-linejoin="round"><path stroke="none" d="M0 0h24v24H0z" fill="none"/><path d="M18 3a3 3 0 0 1 2.995 2.824l.005 .176v12a3 3 0 0 1 -2.824 2.995l-.176 .005h-12a3 3 0 0 1 -2.995 -2.824l-.005 -.176v-12a3 3 0 0 1 2.824 -2.995l.176 -.005h12zm-3 2h-9a1 1 0 0 0 -.993 .883l-.007 .117v12a1 1 0 0 0 .883 .993l.117 .007h9v-14zm-5.387 4.21l.094 .083l2 2a1 1 0 0 1 .083 1.32l-.083 .094l-2 2a1 1 0 0 1 -1.497 -1.32l.083 -.094l1.292 -1.293l-1.292 -1.293a1 1 0 0 1 -.083 -1.32l.083 -.094a1 1 0 0 1 1.32 -.083z" stroke-width="0" fill="currentColor" />
</symbol>
	<symbol id="layout-sidebar-right-expand-filled" class="icon icon-tabler icon-tabler-layout-sidebar-right-expand-filled" viewBox="0 0 24 24" stroke-width="2" stroke="currentColor" fill="none" stroke-linecap="round" stroke-linejoin="round"><path stroke="none" d="M0 0h24v24H0z" fill="none"/><path d="M18 3a3 3 0 0 1 2.995 2.824l.005 .176v12a3 3 0 0 1 -2.824 2.995l-.176 .005h-12a3 3 0 0 1 -2.995 -2.824l-.005 -.176v-12a3 3 0 0 1 2.824 -2.995l.176 -.005h12zm-3 2h-9a1 1 0 0 0 -.993 .883l-.007 .117v12a1 1 0 0 0 .883 .993l.117 .007h9v-14zm-3.293 4.293a1 1 0 0 1 .083 1.32l-.083 .094l-1.292 1.293l1.292 1.293a1 1 0 0 1 .083 1.32l-.083 .094a1 1 0 0 1 -1.32 .083l-.094 -.083l-2 -2a1 1 0 0 1 -.083 -1.32l.083 -.094l2 -2a1 1 0 0 1 1.414 0z" stroke-width="0" fill="currentColor" />
</symbol>
	<symbol id="shopping-cart-filled" class="icon icon-tabler icon-tabler-shopping-cart-filled" viewBox="0 0 24 24" stroke-width="2" stroke="currentColor" fill="none" stroke-linecap="round" stroke-linejoin="round"><path stroke="none" d="M0 0h24v24H0z" fill="none"/><path d="M6 2a1 1 0 0 1 .993 .883l.007 .117v1.068l13.071 .935a1 1 0 0 1 .929 1.024l-.01 .114l-1 7a1 1 0 0 1 -.877 .853l-.113 .006h-12v2h10a3 3 0 1 1 -2.995 3.176l-.005 -.176l.005 -.176c.017 -.288 .074 -.564 .166 -.824h-5.342a3 3 0 1 1 -5.824 1.176l-.005 -.176l.005 -.176a3.002 3.002 0 0 1 1.995 -2.654v-12.17h-1a1 1 0 0 1 -.993 -.883l-.007 -.117a1 1 0 0 1 .883 -.993l.117 -.007h2zm0 16a1 1 0 1 0 0 2a1 1 0 0 0 0 -2zm11 0a1 1 0 1 0 0 2a1 1 0 0 0 0 -2z" stroke-width="0" fill="currentColor" />
</symbol>
	<symbol id="square-filled" class="icon icon-tabler icon-tabler-square-filled" viewBox="0 0 24 24" stroke-width="2" stroke="currentColor" fill="none" stroke-linecap="round" stroke-linejoin="round"><path stroke="none" d="M0 0h24v24H0z" fill="none"/><path d="M19 2h-14a3 3 0 0 0 -3 3v14a3 3 0 0 0 3 3h14a3 3 0 0 0 3 -3v-14a3 3 0 0 0 -3 -3z" stroke-width="0" fill="currentColor" />
</symbol>

	<use xlink:href="#brand-x-filled" x="24" y="24" width="24" height="24" />
	<use xlink:href="#brand-youtube-filled" x="68" y="24" width="24" height="24" />
	<use xlink:href="#candle-filled" x="112" y="24" width="24" height="24" />
	<use xlink:href="#capsule-filled" x="156" y="24" width="24" height="24" />
	<use xlink:href="#capsule-horizontal-filled" x="200" y="24" width="24" height="24" />
	<use xlink:href="#cards-filled" x="244" y="24" width="24" height="24" />
	<use xlink:href="#filter-filled" x="24" y="68" width="24" height="24" />
	<use xlink:href="#forbid-2-filled" x="68" y="68" width="24" height="24" />
	<use xlink:href="#forbid-filled" x="112" y="68" width="24" height="24" />
	<use xlink:href="#fountain-filled" x="156" y="68" width="24" height="24" />
	<use xlink:href="#function-filled" x="200" y="68" width="24" height="24" />
	<use xlink:href="#gauge-filled" x="244" y="68" width="24" height="24" />
	<use xlink:href="#gift-card-filled" x="24" y="112" width="24" height="24" />
	<use xlink:href="#glass-full-filled" x="68" y="112" width="24" height="24" />
	<use xlink:href="#globe-filled" x="112" y="112" width="24" height="24" />
	<use xlink:href="#keyframe-align-center-filled" x="156" y="112" width="24" height="24" />
	<use xlink:href="#keyframe-align-horizontal-filled" x="200" y="112" width="24" height="24" />
	<use xlink:href="#keyframe-align-vertical-filled" x="244" y="112" width="24" height="24" />
	<use xlink:href="#keyframe-filled" x="24" y="156" width="24" height="24" />
	<use xlink:href="#keyframes-filled" x="68" y="156" width="24" height="24" />
	<use xlink:href="#layout-bottombar-collapse-filled" x="112" y="156" width="24" height="24" />
	<use xlink:href="#layout-bottombar-expand-filled" x="156" y="156" width="24" height="24" />
	<use xlink:href="#layout-bottombar-filled" x="200" y="156" width="24" height="24" />
	<use xlink:href="#layout-navbar-collapse-filled" x="244" y="156" width="24" height="24" />
	<use xlink:href="#layout-navbar-expand-filled" x="24" y="200" width="24" height="24" />
	<use xlink:href="#layout-navbar-filled" x="68" y="200" width="24" height="24" />
	<use xlink:href="#layout-sidebar-left-collapse-filled" x="112" y="200" width="24" height="24" />
	<use xlink:href="#layout-sidebar-left-expand-filled" x="156" y="200" width="24" height="24" />
	<use xlink:href="#layout-sidebar-right-collapse-filled" x="200" y="200" width="24" height="24" />
	<use xlink:href="#layout-sidebar-right-expand-filled" x="244" y="200" width="24" height="24" />
	<use xlink:href="#shopping-cart-filled" x="24" y="244" width="24" height="24" />
	<use xlink:href="#square-filled" x="68" y="244" width="24" height="24" />

</svg>