<svg xmlns="http://www.w3.org/2000/svg" xmlns:xlink="http://www.w3.org/1999/xlink" viewBox="0 0 292 204" width="292" height="204" style="color: #354052"><rect x="0" y="0" width="292" height="204" fill="#fff"></rect>
	<symbol id="alarm-average" class="icon icon-tabler icon-tabler-alarm-average" viewBox="0 0 24 24" stroke-width="2" stroke="currentColor" fill="none" stroke-linecap="round" stroke-linejoin="round"><path stroke="none" d="M0 0h24v24H0z" fill="none"/><path d="M5 13a7 7 0 1 0 14 0a7 7 0 0 0 -14 0" /><path d="M7 4l-2.75 2" /><path d="M17 4l2.75 2" /><path d="M8 13h1l2 3l2 -6l2 3h1" />
</symbol>
	<symbol id="arrow-merge-alt-left" class="icon icon-tabler icon-tabler-arrow-merge-alt-left" viewBox="0 0 24 24" stroke-width="2" stroke="currentColor" fill="none" stroke-linecap="round" stroke-linejoin="round"><path stroke="none" d="M0 0h24v24H0z" fill="none"/><path d="M8 7l4 -4l4 4" /><path d="M18 21v.01" /><path d="M18 18.01v.01" /><path d="M17 15.02v.01" /><path d="M14 13.03v.01" /><path d="M12 3v5.394a6.737 6.737 0 0 1 -3 5.606a6.737 6.737 0 0 0 -3 5.606v1.394" />
</symbol>
	<symbol id="arrow-merge-alt-right" class="icon icon-tabler icon-tabler-arrow-merge-alt-right" viewBox="0 0 24 24" stroke-width="2" stroke="currentColor" fill="none" stroke-linecap="round" stroke-linejoin="round"><path stroke="none" d="M0 0h24v24H0z" fill="none"/><path d="M16 7l-4 -4l-4 4" /><path d="M6 21v.01" /><path d="M6 18.01v.01" /><path d="M7 15.02v.01" /><path d="M10 13.03v.01" /><path d="M12 3v5.394a6.737 6.737 0 0 0 3 5.606a6.737 6.737 0 0 1 3 5.606v1.394" />
</symbol>
	<symbol id="bed-flat" class="icon icon-tabler icon-tabler-bed-flat" viewBox="0 0 24 24" stroke-width="2" stroke="currentColor" fill="none" stroke-linecap="round" stroke-linejoin="round"><path stroke="none" d="M0 0h24v24H0z" fill="none"/><path d="M5 11m-2 0a2 2 0 1 0 4 0a2 2 0 1 0 -4 0" /><path d="M10 13h11v-2a3 3 0 0 0 -3 -3h-8v5z" /><path d="M3 16h18" />
</symbol>
	<symbol id="blender" class="icon icon-tabler icon-tabler-blender" viewBox="0 0 24 24" stroke-width="2" stroke="currentColor" fill="none" stroke-linecap="round" stroke-linejoin="round"><path stroke="none" d="M0 0h24v24H0z" fill="none"/><path d="M9 10h-3a1 1 0 0 1 -1 -1v-4a1 1 0 0 1 1 -1h10.802a1 1 0 0 1 .984 1.179l-1.786 9.821" /><path d="M8 4l2 11" /><path d="M11 15h4a3 3 0 0 1 3 3v2a1 1 0 0 1 -1 1h-8a1 1 0 0 1 -1 -1v-2a3 3 0 0 1 3 -3z" /><path d="M12 4v-1h2v1" /><path d="M13 18v.01" />
</symbol>
	<symbol id="body-scan" class="icon icon-tabler icon-tabler-body-scan" viewBox="0 0 24 24" stroke-width="2" stroke="currentColor" fill="none" stroke-linecap="round" stroke-linejoin="round"><path stroke="none" d="M0 0h24v24H0z" fill="none"/><path d="M4 8v-2a2 2 0 0 1 2 -2h2" /><path d="M4 16v2a2 2 0 0 0 2 2h2" /><path d="M16 4h2a2 2 0 0 1 2 2v2" /><path d="M16 20h2a2 2 0 0 0 2 -2v-2" /><path d="M12 8m-1 0a1 1 0 1 0 2 0a1 1 0 1 0 -2 0" /><path d="M10 17v-1a2 2 0 1 1 4 0v1" /><path d="M8 10c.666 .666 1.334 1 2 1h4c.666 0 1.334 -.334 2 -1" /><path d="M12 11v3" />
</symbol>
	<symbol id="grid-3x3" class="icon icon-tabler icon-tabler-grid-3x3" viewBox="0 0 24 24" stroke-width="2" stroke="currentColor" fill="none" stroke-linecap="round" stroke-linejoin="round"><path stroke="none" d="M0 0h24v24H0z" fill="none"/><path d="M3 8h18" /><path d="M3 16h18" /><path d="M8 3v18" /><path d="M16 3v18" />
</symbol>
	<symbol id="grid-4x4" class="icon icon-tabler icon-tabler-grid-4x4" viewBox="0 0 24 24" stroke-width="2" stroke="currentColor" fill="none" stroke-linecap="round" stroke-linejoin="round"><path stroke="none" d="M0 0h24v24H0z" fill="none"/><path d="M3 6h18" /><path d="M3 12h18" /><path d="M3 18h18" /><path d="M6 3v18" /><path d="M12 3v18" /><path d="M18 3v18" />
</symbol>
	<symbol id="grid-goldenratio" class="icon icon-tabler icon-tabler-grid-goldenratio" viewBox="0 0 24 24" stroke-width="2" stroke="currentColor" fill="none" stroke-linecap="round" stroke-linejoin="round"><path stroke="none" d="M0 0h24v24H0z" fill="none"/><path d="M3 10h18" /><path d="M3 14h18" /><path d="M10 3v18" /><path d="M14 3v18" />
</symbol>
	<symbol id="grid-scan" class="icon icon-tabler icon-tabler-grid-scan" viewBox="0 0 24 24" stroke-width="2" stroke="currentColor" fill="none" stroke-linecap="round" stroke-linejoin="round"><path stroke="none" d="M0 0h24v24H0z" fill="none"/><path d="M10 8v8" /><path d="M14 8v8" /><path d="M8 10h8" /><path d="M8 14h8" /><path d="M4 8v-2a2 2 0 0 1 2 -2h2" /><path d="M4 16v2a2 2 0 0 0 2 2h2" /><path d="M16 4h2a2 2 0 0 1 2 2v2" /><path d="M16 20h2a2 2 0 0 0 2 -2v-2" />
</symbol>
	<symbol id="photo-scan" class="icon icon-tabler icon-tabler-photo-scan" viewBox="0 0 24 24" stroke-width="2" stroke="currentColor" fill="none" stroke-linecap="round" stroke-linejoin="round"><path stroke="none" d="M0 0h24v24H0z" fill="none"/><path d="M15 8h.01" /><path d="M6 13l2.644 -2.644a1.21 1.21 0 0 1 1.712 0l3.644 3.644" /><path d="M13 13l1.644 -1.644a1.21 1.21 0 0 1 1.712 0l1.644 1.644" /><path d="M4 8v-2a2 2 0 0 1 2 -2h2" /><path d="M4 16v2a2 2 0 0 0 2 2h2" /><path d="M16 4h2a2 2 0 0 1 2 2v2" /><path d="M16 20h2a2 2 0 0 0 2 -2v-2" />
</symbol>
	<symbol id="route-alt-left" class="icon icon-tabler icon-tabler-route-alt-left" viewBox="0 0 24 24" stroke-width="2" stroke="currentColor" fill="none" stroke-linecap="round" stroke-linejoin="round"><path stroke="none" d="M0 0h24v24H0z" fill="none"/><path d="M8 3h-5v5" /><path d="M16 3h5v5" /><path d="M3 3l7.536 7.536a5 5 0 0 1 1.464 3.534v6.93" /><path d="M18 6.01v-.01" /><path d="M16 8.02v-.01" /><path d="M14 10v.01" />
</symbol>
	<symbol id="route-alt-right" class="icon icon-tabler icon-tabler-route-alt-right" viewBox="0 0 24 24" stroke-width="2" stroke="currentColor" fill="none" stroke-linecap="round" stroke-linejoin="round"><path stroke="none" d="M0 0h24v24H0z" fill="none"/><path d="M16 3h5v5" /><path d="M8 3h-5v5" /><path d="M21 3l-7.536 7.536a5 5 0 0 0 -1.464 3.534v6.93" /><path d="M6 6.01v-.01" /><path d="M8 8.02v-.01" /><path d="M10 10v.01" />
</symbol>
	<symbol id="route-square-2" class="icon icon-tabler icon-tabler-route-square-2" viewBox="0 0 24 24" stroke-width="2" stroke="currentColor" fill="none" stroke-linecap="round" stroke-linejoin="round"><path stroke="none" d="M0 0h24v24H0z" fill="none"/><path d="M14 5a2 2 0 0 0 -2 2v10a2 2 0 0 1 -2 2" /><path d="M3 17h4v4h-4z" /><path d="M17 3h4v4h-4z" />
</symbol>
	<symbol id="route-square" class="icon icon-tabler icon-tabler-route-square" viewBox="0 0 24 24" stroke-width="2" stroke="currentColor" fill="none" stroke-linecap="round" stroke-linejoin="round"><path stroke="none" d="M0 0h24v24H0z" fill="none"/><path d="M3 17h4v4h-4z" /><path d="M17 3h4v4h-4z" /><path d="M11 19h5.5a3.5 3.5 0 0 0 0 -7h-8a3.5 3.5 0 0 1 0 -7h4.5" />
</symbol>
	<symbol id="route-x-2" class="icon icon-tabler icon-tabler-route-x-2" viewBox="0 0 24 24" stroke-width="2" stroke="currentColor" fill="none" stroke-linecap="round" stroke-linejoin="round"><path stroke="none" d="M0 0h24v24H0z" fill="none"/><path d="M3 17l4 4" /><path d="M7 17l-4 4" /><path d="M17 3l4 4" /><path d="M21 3l-4 4" /><path d="M14 5a2 2 0 0 0 -2 2v10a2 2 0 0 1 -2 2" />
</symbol>
	<symbol id="route-x" class="icon icon-tabler icon-tabler-route-x" viewBox="0 0 24 24" stroke-width="2" stroke="currentColor" fill="none" stroke-linecap="round" stroke-linejoin="round"><path stroke="none" d="M0 0h24v24H0z" fill="none"/><path d="M3 17l4 4" /><path d="M7 17l-4 4" /><path d="M17 3l4 4" /><path d="M21 3l-4 4" /><path d="M11 19h5.5a3.5 3.5 0 0 0 0 -7h-8a3.5 3.5 0 0 1 0 -7h4.5" />
</symbol>
	<symbol id="user-scan" class="icon icon-tabler icon-tabler-user-scan" viewBox="0 0 24 24" stroke-width="2" stroke="currentColor" fill="none" stroke-linecap="round" stroke-linejoin="round"><path stroke="none" d="M0 0h24v24H0z" fill="none"/><path d="M10 9a2 2 0 1 0 4 0a2 2 0 0 0 -4 0" /><path d="M4 8v-2a2 2 0 0 1 2 -2h2" /><path d="M4 16v2a2 2 0 0 0 2 2h2" /><path d="M16 4h2a2 2 0 0 1 2 2v2" /><path d="M16 20h2a2 2 0 0 0 2 -2v-2" /><path d="M8 16a2 2 0 0 1 2 -2h4a2 2 0 0 1 2 2" />
</symbol>
	<symbol id="zoom-scan" class="icon icon-tabler icon-tabler-zoom-scan" viewBox="0 0 24 24" stroke-width="2" stroke="currentColor" fill="none" stroke-linecap="round" stroke-linejoin="round"><path stroke="none" d="M0 0h24v24H0z" fill="none"/><path d="M4 8v-2a2 2 0 0 1 2 -2h2" /><path d="M4 16v2a2 2 0 0 0 2 2h2" /><path d="M16 4h2a2 2 0 0 1 2 2v2" /><path d="M16 20h2a2 2 0 0 0 2 -2v-2" /><path d="M8 11a3 3 0 1 0 6 0a3 3 0 0 0 -6 0" /><path d="M16 16l-2.5 -2.5" />
</symbol>

	<use xlink:href="#alarm-average" x="24" y="24" width="24" height="24" />
	<use xlink:href="#arrow-merge-alt-left" x="68" y="24" width="24" height="24" />
	<use xlink:href="#arrow-merge-alt-right" x="112" y="24" width="24" height="24" />
	<use xlink:href="#bed-flat" x="156" y="24" width="24" height="24" />
	<use xlink:href="#blender" x="200" y="24" width="24" height="24" />
	<use xlink:href="#body-scan" x="244" y="24" width="24" height="24" />
	<use xlink:href="#grid-3x3" x="24" y="68" width="24" height="24" />
	<use xlink:href="#grid-4x4" x="68" y="68" width="24" height="24" />
	<use xlink:href="#grid-goldenratio" x="112" y="68" width="24" height="24" />
	<use xlink:href="#grid-scan" x="156" y="68" width="24" height="24" />
	<use xlink:href="#photo-scan" x="200" y="68" width="24" height="24" />
	<use xlink:href="#route-alt-left" x="244" y="68" width="24" height="24" />
	<use xlink:href="#route-alt-right" x="24" y="112" width="24" height="24" />
	<use xlink:href="#route-square-2" x="68" y="112" width="24" height="24" />
	<use xlink:href="#route-square" x="112" y="112" width="24" height="24" />
	<use xlink:href="#route-x-2" x="156" y="112" width="24" height="24" />
	<use xlink:href="#route-x" x="200" y="112" width="24" height="24" />
	<use xlink:href="#user-scan" x="244" y="112" width="24" height="24" />
	<use xlink:href="#zoom-scan" x="24" y="156" width="24" height="24" />

</svg>