<svg xmlns="http://www.w3.org/2000/svg" xmlns:xlink="http://www.w3.org/1999/xlink" viewBox="0 0 292 160" width="292" height="160" style="color: #354052"><rect x="0" y="0" width="292" height="160" fill="#fff"></rect>
	<symbol id="api-app" class="icon icon-tabler icon-tabler-api-app" viewBox="0 0 24 24" stroke-width="2" stroke="currentColor" fill="none" stroke-linecap="round" stroke-linejoin="round"><path stroke="none" d="M0 0h24v24H0z" fill="none"/><path d="M12 15h-6.5a2.5 2.5 0 1 1 0 -5h.5" /><path d="M15 12v6.5a2.5 2.5 0 1 1 -5 0v-.5" /><path d="M12 9h6.5a2.5 2.5 0 1 1 0 5h-.5" /><path d="M9 12v-6.5a2.5 2.5 0 0 1 5 0v.5" />
</symbol>
	<symbol id="api" class="icon icon-tabler icon-tabler-api" viewBox="0 0 24 24" stroke-width="2" stroke="currentColor" fill="none" stroke-linecap="round" stroke-linejoin="round"><path stroke="none" d="M0 0h24v24H0z" fill="none"/><path d="M4 13h5" /><path d="M12 16v-8h3a2 2 0 0 1 2 2v1a2 2 0 0 1 -2 2h-3" /><path d="M20 8v8" /><path d="M9 16v-5.5a2.5 2.5 0 0 0 -5 0v5.5" />
</symbol>
	<symbol id="arrows-cross" class="icon icon-tabler icon-tabler-arrows-cross" viewBox="0 0 24 24" stroke-width="2" stroke="currentColor" fill="none" stroke-linecap="round" stroke-linejoin="round"><path stroke="none" d="M0 0h24v24H0z" fill="none"/><path d="M16 4h4v4" /><path d="M15 9l5 -5" /><path d="M4 20l5 -5" /><path d="M16 20h4v-4" /><path d="M4 4l16 16" />
</symbol>
	<symbol id="arrows-shuffle-2" class="icon icon-tabler icon-tabler-arrows-shuffle-2" viewBox="0 0 24 24" stroke-width="2" stroke="currentColor" fill="none" stroke-linecap="round" stroke-linejoin="round"><path stroke="none" d="M0 0h24v24H0z" fill="none"/><path d="M18 4l3 3l-3 3" /><path d="M18 20l3 -3l-3 -3" /><path d="M3 7h3a5 5 0 0 1 5 5a5 5 0 0 0 5 5h5" /><path d="M3 17h3a5 5 0 0 0 5 -5a5 5 0 0 1 5 -5h5" />
</symbol>
	<symbol id="arrows-shuffle" class="icon icon-tabler icon-tabler-arrows-shuffle" viewBox="0 0 24 24" stroke-width="2" stroke="currentColor" fill="none" stroke-linecap="round" stroke-linejoin="round"><path stroke="none" d="M0 0h24v24H0z" fill="none"/><path d="M18 4l3 3l-3 3" /><path d="M18 20l3 -3l-3 -3" /><path d="M3 7h3a5 5 0 0 1 5 5a5 5 0 0 0 5 5h5" /><path d="M21 7h-5a4.978 4.978 0 0 0 -2.998 .998m-4.002 8.003a4.984 4.984 0 0 1 -3 .999h-3" />
</symbol>
	<symbol id="brand-lastfm" class="icon icon-tabler icon-tabler-brand-lastfm" viewBox="0 0 24 24" stroke-width="2" stroke="currentColor" fill="none" stroke-linecap="round" stroke-linejoin="round"><path stroke="none" d="M0 0h24v24H0z" fill="none"/><path d="M20 8c-.83 -1 -1.388 -1 -2 -1c-.612 0 -2 .271 -2 2s1.384 2.233 3 3c1.616 .767 2.125 1.812 2 3s-1 2 -3 2s-3 -1 -3.5 -2s-1.585 -4.78 -2.497 -5.997a5 5 0 1 0 -1.003 6.997" />
</symbol>
	<symbol id="brand-tripadvisor" class="icon icon-tabler icon-tabler-brand-tripadvisor" viewBox="0 0 24 24" stroke-width="2" stroke="currentColor" fill="none" stroke-linecap="round" stroke-linejoin="round"><path stroke="none" d="M0 0h24v24H0z" fill="none"/><circle cx="6.5" cy="13.5" r="1.5" /><circle cx="17.5" cy="13.5" r="1.5" /><path d="M17.5 9a4.5 4.5 0 1 0 3.5 1.671l1 -1.671h-4.5z" /><path d="M6.5 9a4.5 4.5 0 1 1 -3.5 1.671l-1 -1.671h4.5z" /><path d="M10.5 15.5l1.5 2l1.5 -2" /><path d="M9 6.75c2 -.667 4 -.667 6 0" />
</symbol>
	<symbol id="c-sharp" class="icon icon-tabler icon-tabler-c-sharp" viewBox="0 0 24 24" stroke-width="2" stroke="currentColor" fill="none" stroke-linecap="round" stroke-linejoin="round"><path stroke="none" d="M0 0h24v24H0z" fill="none"/><path d="M10 9a3 3 0 0 0 -3 -3h-.5a3.5 3.5 0 0 0 -3.5 3.5v5a3.5 3.5 0 0 0 3.5 3.5h.5a3 3 0 0 0 3 -3" /><path d="M16 7l-1 10" /><path d="M20 7l-1 10" /><path d="M14 10h7.5" /><path d="M21 14h-7.5" />
</symbol>
	<symbol id="layout-sidebar-left-collapse" class="icon icon-tabler icon-tabler-layout-sidebar-left-collapse" viewBox="0 0 24 24" stroke-width="2" stroke="currentColor" fill="none" stroke-linecap="round" stroke-linejoin="round"><path stroke="none" d="M0 0h24v24H0z" fill="none"/><rect x="4" y="4" width="16" height="16" rx="2" /><path d="M9 4v16" /><path d="M15 10l-2 2l2 2" />
</symbol>
	<symbol id="layout-sidebar-left-expand" class="icon icon-tabler icon-tabler-layout-sidebar-left-expand" viewBox="0 0 24 24" stroke-width="2" stroke="currentColor" fill="none" stroke-linecap="round" stroke-linejoin="round"><path stroke="none" d="M0 0h24v24H0z" fill="none"/><rect x="4" y="4" width="16" height="16" rx="2" /><path d="M9 4v16" /><path d="M14 10l2 2l-2 2" />
</symbol>
	<symbol id="layout-sidebar-right-collapse" class="icon icon-tabler icon-tabler-layout-sidebar-right-collapse" viewBox="0 0 24 24" stroke-width="2" stroke="currentColor" fill="none" stroke-linecap="round" stroke-linejoin="round"><path stroke="none" d="M0 0h24v24H0z" fill="none"/><rect x="4" y="4" width="16" height="16" rx="2" /><path d="M15 4v16" /><path d="M9 10l2 2l-2 2" />
</symbol>
	<symbol id="layout-sidebar-right-expand" class="icon icon-tabler icon-tabler-layout-sidebar-right-expand" viewBox="0 0 24 24" stroke-width="2" stroke="currentColor" fill="none" stroke-linecap="round" stroke-linejoin="round"><path stroke="none" d="M0 0h24v24H0z" fill="none"/><rect x="4" y="4" width="16" height="16" rx="2" /><path d="M15 4v16" /><path d="M10 10l-2 2l2 2" />
</symbol>
	<symbol id="playlist-add" class="icon icon-tabler icon-tabler-playlist-add" viewBox="0 0 24 24" stroke-width="2" stroke="currentColor" fill="none" stroke-linecap="round" stroke-linejoin="round"><path stroke="none" d="M0 0h24v24H0z" fill="none"/><path d="M19 8h-14" /><path d="M5 12h9" /><path d="M11 16h-6" /><path d="M15 16h6" /><path d="M18 13v6" />
</symbol>
	<symbol id="playlist-x" class="icon icon-tabler icon-tabler-playlist-x" viewBox="0 0 24 24" stroke-width="2" stroke="currentColor" fill="none" stroke-linecap="round" stroke-linejoin="round"><path stroke="none" d="M0 0h24v24H0z" fill="none"/><path d="M19 8h-14" /><path d="M5 12h7" /><path d="M12 16h-7" /><path d="M16 14l4 4" /><path d="M20 14l-4 4" />
</symbol>
	<symbol id="plug-connected" class="icon icon-tabler icon-tabler-plug-connected" viewBox="0 0 24 24" stroke-width="2" stroke="currentColor" fill="none" stroke-linecap="round" stroke-linejoin="round"><path stroke="none" d="M0 0h24v24H0z" fill="none"/><path d="M7 12l5 5l-1.5 1.5a3.536 3.536 0 1 1 -5 -5l1.5 -1.5z" /><path d="M17 12l-5 -5l1.5 -1.5a3.536 3.536 0 1 1 5 5l-1.5 1.5z" /><path d="M3 21l2.5 -2.5" /><path d="M18.5 5.5l2.5 -2.5" /><path d="M10 11l-2 2" /><path d="M13 14l-2 2" />
</symbol>
	<symbol id="robot" class="icon icon-tabler icon-tabler-robot" viewBox="0 0 24 24" stroke-width="2" stroke="currentColor" fill="none" stroke-linecap="round" stroke-linejoin="round"><path stroke="none" d="M0 0h24v24H0z" fill="none"/><path d="M7 7h10a2 2 0 0 1 2 2v1l1 1v3l-1 1v3a2 2 0 0 1 -2 2h-10a2 2 0 0 1 -2 -2v-3l-1 -1v-3l1 -1v-1a2 2 0 0 1 2 -2z" /><path d="M10 16h4" /><circle cx="8.5" cy="11.5" r=".5" fill="currentColor" /><circle cx="15.5" cy="11.5" r=".5" fill="currentColor" /><path d="M9 7l-1 -4" /><path d="M15 7l1 -4" />
</symbol>
	<symbol id="usb" class="icon icon-tabler icon-tabler-usb" viewBox="0 0 24 24" stroke-width="2" stroke="currentColor" fill="none" stroke-linecap="round" stroke-linejoin="round"><path stroke="none" d="M0 0h24v24H0z" fill="none"/><circle cx="12" cy="19" r="2" /><path d="M12 17v-11.5" /><path d="M7 10v3l5 3" /><path d="M12 14.5l5 -2v-2.5" /><path d="M16 10h2v-2h-2z" /><circle cx="7" cy="9" r="1" /><path d="M10 5.5h4l-2 -2.5z" />
</symbol>
	<symbol id="vinyl" class="icon icon-tabler icon-tabler-vinyl" viewBox="0 0 24 24" stroke-width="2" stroke="currentColor" fill="none" stroke-linecap="round" stroke-linejoin="round"><path stroke="none" d="M0 0h24v24H0z" fill="none"/><path d="M16.004 3.937a9 9 0 1 0 4.996 8.063" /><circle cx="12" cy="12" r="1" /><circle cx="20" cy="4" r="1" /><path d="M20 4l-3.5 10l-2.5 2" />
</symbol>

	<use xlink:href="#api-app" x="24" y="24" width="24" height="24" />
	<use xlink:href="#api" x="68" y="24" width="24" height="24" />
	<use xlink:href="#arrows-cross" x="112" y="24" width="24" height="24" />
	<use xlink:href="#arrows-shuffle-2" x="156" y="24" width="24" height="24" />
	<use xlink:href="#arrows-shuffle" x="200" y="24" width="24" height="24" />
	<use xlink:href="#brand-lastfm" x="244" y="24" width="24" height="24" />
	<use xlink:href="#brand-tripadvisor" x="24" y="68" width="24" height="24" />
	<use xlink:href="#c-sharp" x="68" y="68" width="24" height="24" />
	<use xlink:href="#layout-sidebar-left-collapse" x="112" y="68" width="24" height="24" />
	<use xlink:href="#layout-sidebar-left-expand" x="156" y="68" width="24" height="24" />
	<use xlink:href="#layout-sidebar-right-collapse" x="200" y="68" width="24" height="24" />
	<use xlink:href="#layout-sidebar-right-expand" x="244" y="68" width="24" height="24" />
	<use xlink:href="#playlist-add" x="24" y="112" width="24" height="24" />
	<use xlink:href="#playlist-x" x="68" y="112" width="24" height="24" />
	<use xlink:href="#plug-connected" x="112" y="112" width="24" height="24" />
	<use xlink:href="#robot" x="156" y="112" width="24" height="24" />
	<use xlink:href="#usb" x="200" y="112" width="24" height="24" />
	<use xlink:href="#vinyl" x="244" y="112" width="24" height="24" />

</svg>