<svg xmlns="http://www.w3.org/2000/svg" xmlns:xlink="http://www.w3.org/1999/xlink" viewBox="0 0 322 172" width="322" height="172" style="color: #354052"><rect x="0" y="0" width="322" height="172" fill="#fff"></rect>
	<symbol id="brand-debian" class="icon icon-tabler icon-tabler-brand-debian" viewBox="0 0 24 24" stroke-width="2" stroke="currentColor" fill="none" stroke-linecap="round" stroke-linejoin="round"><path stroke="none" d="M0 0h24v24H0z" fill="none"/><path d="M12 17c-2.397 -.943 -4 -3.153 -4 -5.635c0 -2.19 1.039 -3.14 1.604 -3.595c2.646 -2.133 6.396 -.27 6.396 3.23c0 2.5 -2.905 2.121 -3.5 1.5c-.595 -.621 -1 -1.5 -.5 -2.5" /><circle cx="12" cy="12" r="9" />
</symbol>
	<symbol id="brand-ubuntu" class="icon icon-tabler icon-tabler-brand-ubuntu" viewBox="0 0 24 24" stroke-width="2" stroke="currentColor" fill="none" stroke-linecap="round" stroke-linejoin="round"><path stroke="none" d="M0 0h24v24H0z" fill="none"/><circle cx="12" cy="5" r="2" /><path d="M17.723 7.41a7.992 7.992 0 0 0 -3.74 -2.162m-3.971 0a7.993 7.993 0 0 0 -3.789 2.216m-1.881 3.215a8 8 0 0 0 -.342 2.32c0 .738 .1 1.453 .287 2.132m1.96 3.428a7.993 7.993 0 0 0 3.759 2.19m3.998 -.003a7.993 7.993 0 0 0 3.747 -2.186m1.962 -3.43a8.008 8.008 0 0 0 .287 -2.131c0 -.764 -.107 -1.503 -.307 -2.203" /><circle cx="5" cy="17" r="2" /><circle cx="19" cy="17" r="2" />
</symbol>
	<symbol id="checkup-list" class="icon icon-tabler icon-tabler-checkup-list" viewBox="0 0 24 24" stroke-width="2" stroke="currentColor" fill="none" stroke-linecap="round" stroke-linejoin="round"><path stroke="none" d="M0 0h24v24H0z" fill="none"/><path d="M9 5h-2a2 2 0 0 0 -2 2v12a2 2 0 0 0 2 2h10a2 2 0 0 0 2 -2v-12a2 2 0 0 0 -2 -2h-2" /><rect x="9" y="3" width="6" height="4" rx="2" /><path d="M9 14h.01" /><path d="M9 17h.01" /><path d="M12 16l1 1l3 -3" />
</symbol>
	<symbol id="crutches" class="icon icon-tabler icon-tabler-crutches" viewBox="0 0 24 24" stroke-width="2" stroke="currentColor" fill="none" stroke-linecap="round" stroke-linejoin="round"><path stroke="none" d="M0 0h24v24H0z" fill="none"/><rect x="8" y="3" width="8" height="4" rx="2" /><path d="M11 21h2" /><path d="M12 21v-4.092a3 3 0 0 1 .504 -1.664l.992 -1.488a3 3 0 0 0 .504 -1.664v-5.092" /><path d="M12 21v-4.092a3 3 0 0 0 -.504 -1.664l-.992 -1.488a3 3 0 0 1 -.504 -1.664v-5.092" /><path d="M10 11h4" />
</symbol>
	<symbol id="dna-2" class="icon icon-tabler icon-tabler-dna-2" viewBox="0 0 24 24" stroke-width="2" stroke="currentColor" fill="none" stroke-linecap="round" stroke-linejoin="round"><path stroke="none" d="M0 0h24v24H0z" fill="none"/><path d="M17 3v1c-.01 3.352 -1.68 6.023 -5.008 8.014c-3.328 1.99 3.336 -2.005 .008 -.014c-3.328 1.99 -4.997 4.662 -5.008 8.014v1" /><path d="M17 21.014v-1c-.01 -3.352 -1.68 -6.023 -5.008 -8.014c-3.328 -1.99 3.336 2.005 .008 .014c-3.328 -1.991 -4.997 -4.662 -5.008 -8.014v-1" /><path d="M7 4h10" /><path d="M7 20h10" /><path d="M8 8h8" /><path d="M8 16h8" />
</symbol>
	<symbol id="emergency-bed" class="icon icon-tabler icon-tabler-emergency-bed" viewBox="0 0 24 24" stroke-width="2" stroke="currentColor" fill="none" stroke-linecap="round" stroke-linejoin="round"><path stroke="none" d="M0 0h24v24H0z" fill="none"/><circle cx="16" cy="18" r="2" /><circle cx="8" cy="18" r="2" /><path d="M4 8l2.1 2.8a3 3 0 0 0 2.4 1.2h11.5" /><path d="M10 6h4" /><path d="M12 4v4" /><path d="M12 12v2l-2.5 2.5" /><path d="M14.5 16.5l-2.5 -2.5" />
</symbol>
	<symbol id="eye-table" class="icon icon-tabler icon-tabler-eye-table" viewBox="0 0 24 24" stroke-width="2" stroke="currentColor" fill="none" stroke-linecap="round" stroke-linejoin="round"><path stroke="none" d="M0 0h24v24H0z" fill="none"/><path d="M8.003 18.003h-.011" /><path d="M12.003 18.002h-.011" /><path d="M16.003 18.002h-.011" /><path d="M4 3h16" /><path d="M5 3v17a1 1 0 0 0 1 1h12a1 1 0 0 0 1 -1v-17" /><path d="M14 7h-4" /><path d="M9 15h1" /><path d="M14 15h1" /><path d="M12 11v-4" />
</symbol>
	<symbol id="first-aid-kit" class="icon icon-tabler icon-tabler-first-aid-kit" viewBox="0 0 24 24" stroke-width="2" stroke="currentColor" fill="none" stroke-linecap="round" stroke-linejoin="round"><path stroke="none" d="M0 0h24v24H0z" fill="none"/><path d="M8 8v-2a2 2 0 0 1 2 -2h4a2 2 0 0 1 2 2v2" /><rect x="4" y="8" width="16" height="12" rx="2" /><path d="M10 14h4" /><path d="M12 12v4" />
</symbol>
	<symbol id="flask-2" class="icon icon-tabler icon-tabler-flask-2" viewBox="0 0 24 24" stroke-width="2" stroke="currentColor" fill="none" stroke-linecap="round" stroke-linejoin="round"><path stroke="none" d="M0 0h24v24H0z" fill="none"/><path d="M6.1 15h11.8" /><path d="M14 3v7.342a6.002 6.002 0 0 1 1.318 10.658h-6.635a6.002 6.002 0 0 1 1.317 -10.66v-7.34h4z" /><path d="M9 3h6" />
</symbol>
	<symbol id="heart-rate-monitor" class="icon icon-tabler icon-tabler-heart-rate-monitor" viewBox="0 0 24 24" stroke-width="2" stroke="currentColor" fill="none" stroke-linecap="round" stroke-linejoin="round"><path stroke="none" d="M0 0h24v24H0z" fill="none"/><rect x="3" y="4" width="18" height="12" rx="1" /><path d="M7 20h10" /><path d="M9 16v4" /><path d="M15 16v4" /><path d="M7 10h2l2 3l2 -6l1 3h3" />
</symbol>
	<symbol id="lungs" class="icon icon-tabler icon-tabler-lungs" viewBox="0 0 24 24" stroke-width="2" stroke="currentColor" fill="none" stroke-linecap="round" stroke-linejoin="round"><path stroke="none" d="M0 0h24v24H0z" fill="none"/><path d="M6.081 20c1.612 0 2.919 -1.335 2.919 -2.98v-9.763c0 -.694 -.552 -1.257 -1.232 -1.257c-.205 0 -.405 .052 -.584 .15l-.13 .083c-1.46 1.059 -2.432 2.647 -3.404 5.824c-.42 1.37 -.636 2.962 -.648 4.775c-.012 1.675 1.261 3.054 2.877 3.161l.203 .007z" /><path d="M17.92 20c-1.613 0 -2.92 -1.335 -2.92 -2.98v-9.763c0 -.694 .552 -1.257 1.233 -1.257c.204 0 .405 .052 .584 .15l.13 .083c1.46 1.059 2.432 2.647 3.405 5.824c.42 1.37 .636 2.962 .648 4.775c.012 1.675 -1.261 3.054 -2.878 3.161l-.202 .007z" /><path d="M9 12a3 3 0 0 0 3 -3a3 3 0 0 0 3 3" /><path d="M12 4v5" />
</symbol>
	<symbol id="medicine-syrup" class="icon icon-tabler icon-tabler-medicine-syrup" viewBox="0 0 24 24" stroke-width="2" stroke="currentColor" fill="none" stroke-linecap="round" stroke-linejoin="round"><path stroke="none" d="M0 0h24v24H0z" fill="none"/><path d="M8 21h8a1 1 0 0 0 1 -1v-10a3 3 0 0 0 -3 -3h-4a3 3 0 0 0 -3 3v10a1 1 0 0 0 1 1z" /><path d="M10 14h4" /><path d="M12 12v4" /><path d="M10 7v-3a1 1 0 0 1 1 -1h2a1 1 0 0 1 1 1v3" />
</symbol>
	<symbol id="microscope" class="icon icon-tabler icon-tabler-microscope" viewBox="0 0 24 24" stroke-width="2" stroke="currentColor" fill="none" stroke-linecap="round" stroke-linejoin="round"><path stroke="none" d="M0 0h24v24H0z" fill="none"/><path d="M5 21h14" /><path d="M6 18h2" /><path d="M7 18v3" /><path d="M9 11l3 3l6 -6l-3 -3z" /><path d="M10.5 12.5l-1.5 1.5" /><path d="M17 3l3 3" /><path d="M12 21a6 6 0 0 0 3.715 -10.712" />
</symbol>
	<symbol id="nurse" class="icon icon-tabler icon-tabler-nurse" viewBox="0 0 24 24" stroke-width="2" stroke="currentColor" fill="none" stroke-linecap="round" stroke-linejoin="round"><path stroke="none" d="M0 0h24v24H0z" fill="none"/><path d="M12 6c2.941 0 5.685 .847 8 2.31l-2 9.69h-12l-2 -9.691a14.93 14.93 0 0 1 8 -2.309z" /><path d="M10 12h4" /><path d="M12 10v4" />
</symbol>
	<symbol id="pills" class="icon icon-tabler icon-tabler-pills" viewBox="0 0 24 24" stroke-width="2" stroke="currentColor" fill="none" stroke-linecap="round" stroke-linejoin="round"><path stroke="none" d="M0 0h24v24H0z" fill="none"/><circle cx="8" cy="8" r="5" /><circle cx="17" cy="17" r="4" /><path d="M4.5 4.5l7 7" /><path d="M19.5 14.5l-5 5" />
</symbol>
	<symbol id="thermometer" class="icon icon-tabler icon-tabler-thermometer" viewBox="0 0 24 24" stroke-width="2" stroke="currentColor" fill="none" stroke-linecap="round" stroke-linejoin="round"><path stroke="none" d="M0 0h24v24H0z" fill="none"/><path d="M19 5a2.828 2.828 0 0 1 0 4l-8 8h-4v-4l8 -8a2.828 2.828 0 0 1 4 0z" /><path d="M16 7l-1.5 -1.5" /><path d="M13 10l-1.5 -1.5" /><path d="M10 13l-1.5 -1.5" /><path d="M7 17l-3 3" />
</symbol>
	<symbol id="user-circle" class="icon icon-tabler icon-tabler-user-circle" viewBox="0 0 24 24" stroke-width="2" stroke="currentColor" fill="none" stroke-linecap="round" stroke-linejoin="round"><path stroke="none" d="M0 0h24v24H0z" fill="none"/><circle cx="12" cy="12" r="9" /><circle cx="12" cy="10" r="3" /><path d="M6.168 18.849a4 4 0 0 1 3.832 -2.849h4a4 4 0 0 1 3.834 2.855" />
</symbol>
	<symbol id="vaccine-bottle" class="icon icon-tabler icon-tabler-vaccine-bottle" viewBox="0 0 24 24" stroke-width="2" stroke="currentColor" fill="none" stroke-linecap="round" stroke-linejoin="round"><path stroke="none" d="M0 0h24v24H0z" fill="none"/><rect x="9" y="3" width="6" height="3" rx="1" /><path d="M10 6v.98c0 .877 -.634 1.626 -1.5 1.77c-.866 .144 -1.5 .893 -1.5 1.77v8.48a2 2 0 0 0 2 2h6a2 2 0 0 0 2 -2v-8.48c0 -.877 -.634 -1.626 -1.5 -1.77a1.795 1.795 0 0 1 -1.5 -1.77v-.98" /><path d="M7 12h10" /><path d="M7 18h10" /><path d="M11 15h2" />
</symbol>

	<use xlink:href="#brand-debian" x="24" y="24" width="24" height="24" />
	<use xlink:href="#brand-ubuntu" x="74" y="24" width="24" height="24" />
	<use xlink:href="#checkup-list" x="124" y="24" width="24" height="24" />
	<use xlink:href="#crutches" x="174" y="24" width="24" height="24" />
	<use xlink:href="#dna-2" x="224" y="24" width="24" height="24" />
	<use xlink:href="#emergency-bed" x="274" y="24" width="24" height="24" />
	<use xlink:href="#eye-table" x="24" y="74" width="24" height="24" />
	<use xlink:href="#first-aid-kit" x="74" y="74" width="24" height="24" />
	<use xlink:href="#flask-2" x="124" y="74" width="24" height="24" />
	<use xlink:href="#heart-rate-monitor" x="174" y="74" width="24" height="24" />
	<use xlink:href="#lungs" x="224" y="74" width="24" height="24" />
	<use xlink:href="#medicine-syrup" x="274" y="74" width="24" height="24" />
	<use xlink:href="#microscope" x="24" y="124" width="24" height="24" />
	<use xlink:href="#nurse" x="74" y="124" width="24" height="24" />
	<use xlink:href="#pills" x="124" y="124" width="24" height="24" />
	<use xlink:href="#thermometer" x="174" y="124" width="24" height="24" />
	<use xlink:href="#user-circle" x="224" y="124" width="24" height="24" />
	<use xlink:href="#vaccine-bottle" x="274" y="124" width="24" height="24" />

</svg>