<svg xmlns="http://www.w3.org/2000/svg" xmlns:xlink="http://www.w3.org/1999/xlink" viewBox="0 0 322 122" width="322" height="122" style="color: #354052"><rect x="0" y="0" width="322" height="122" fill="#fff"></rect>
	<symbol id="brand-deviantart" class="icon icon-tabler icon-tabler-brand-deviantart" viewBox="0 0 24 24" stroke-width="2" stroke="currentColor" fill="none" stroke-linecap="round" stroke-linejoin="round"><path stroke="none" d="M0 0h24v24H0z" fill="none"/><path d="M18 3v4l-3.857 6h3.857v4h-6.429l-2.571 4h-3v-4l3.857 -6h-3.857v-4h6.429l2.571 -4z" />
</symbol>
	<symbol id="brand-edge" class="icon icon-tabler icon-tabler-brand-edge" viewBox="0 0 24 24" stroke-width="2" stroke="currentColor" fill="none" stroke-linecap="round" stroke-linejoin="round"><path stroke="none" d="M0 0h24v24H0z" fill="none"/><path d="M20.978 11.372a9 9 0 1 0 -1.593 5.773" /><path d="M20.978 11.372c.21 2.993-5.034 2.413-6.913 1.486 1.392-1.6.402-4.038-2.274-3.851-1.745.122-2.927 1.157-2.784 3.202.28 3.99 4.444 6.205 10.36 4.79" /><path d="M3.022 12.628c-.283 -4.043 8.717 -7.228 11.248 -2.688" /><path d="M12.628 20.978c-2.993.21-5.162-4.725-3.567-9.748" />
</symbol>
	<symbol id="brand-firefox" class="icon icon-tabler icon-tabler-brand-firefox" viewBox="0 0 24 24" stroke-width="2" stroke="currentColor" fill="none" stroke-linecap="round" stroke-linejoin="round"><path stroke="none" d="M0 0h24v24H0z" fill="none"/><path d="M4.028 7.82a9 9 0 1 0 7.972 -4.82c-.334 0 -.667 -.036 -1 0" /><path d="M4.914 9.485c-1.756-1.569-.805-5.38.109-6.17.086.896.585 1.208 1.111 1.685.88-.275 1.313-.282 1.867 0 .82-.91 2.074-2.261 3.007-2-1.081 1.741-.45 3.64.992 4.08-.17.975-1.484 1.913-2.76 2.686-1.296.938-.722 1.85 0 2.234.949.506 3.611-.995 4.545.354-1.698.102-1.536 3.107-3.983 2.727 2.523.957 4.345.462 5.458-.34 1.965-1.52 2.879-3.542 2.879-5.557-.014-1.398.194-2.695-1.26-4.75" />
</symbol>
	<symbol id="brand-flickr" class="icon icon-tabler icon-tabler-brand-flickr" viewBox="0 0 24 24" stroke-width="2" stroke="currentColor" fill="none" stroke-linecap="round" stroke-linejoin="round"><path stroke="none" d="M0 0h24v24H0z" fill="none"/><circle cx="7" cy="12" r="3" /><circle cx="17" cy="12" r="3" />
</symbol>
	<symbol id="brand-foursquare" class="icon icon-tabler icon-tabler-brand-foursquare" viewBox="0 0 24 24" stroke-width="2" stroke="currentColor" fill="none" stroke-linecap="round" stroke-linejoin="round"><path stroke="none" d="M0 0h24v24H0z" fill="none"/><path d="M7 3h10c.644 0 1.11 .696 .978 1.33l-1.984 9.859a1.014 1.014 0 0 1 -.994 .811h-2.254c-.308 0 -.6 .141 -.793 .382l-4.144 5.25c-.599 .752 -1.809 .331 -1.809 -.632v-16c0 -.564 .44 -1 1 -1z" /><line x1="12" y1="9" x2="17" y2="9" />
</symbol>
	<symbol id="brand-pocket" class="icon icon-tabler icon-tabler-brand-pocket" viewBox="0 0 24 24" stroke-width="2" stroke="currentColor" fill="none" stroke-linecap="round" stroke-linejoin="round"><path stroke="none" d="M0 0h24v24H0z" fill="none"/><path d="M5 4h14a2 2 0 0 1 2 2v6a9 9 0 0 1 -18 0v-6a2 2 0 0 1 2 -2" /><polyline points="8 11 12 15 16 11" />
</symbol>
	<symbol id="brand-python" class="icon icon-tabler icon-tabler-brand-python" viewBox="0 0 24 24" stroke-width="2" stroke="currentColor" fill="none" stroke-linecap="round" stroke-linejoin="round"><path stroke="none" d="M0 0h24v24H0z" fill="none"/><path d="M12 9h-7a2 2 0 0 0 -2 2v4a2 2 0 0 0 2 2h3" /><path d="M12 15h7a2 2 0 0 0 2 -2v-4a2 2 0 0 0 -2 -2h-3" /><path d="M8 9v-4a2 2 0 0 1 2 -2h4a2 2 0 0 1 2 2v5a2 2 0 0 1 -2 2h-4a2 2 0 0 0 -2 2v5a2 2 0 0 0 2 2h4a2 2 0 0 0 2 -2v-4" /><line x1="11" y1="6" x2="11" y2="6.01" /><line x1="13" y1="18" x2="13" y2="18.01" />
</symbol>
	<symbol id="brand-skype" class="icon icon-tabler icon-tabler-brand-skype" viewBox="0 0 24 24" stroke-width="2" stroke="currentColor" fill="none" stroke-linecap="round" stroke-linejoin="round"><path stroke="none" d="M0 0h24v24H0z" fill="none"/><path d="M12 3a9 9 0 0 1 8.603 11.65a4.5 4.5 0 0 1 -5.953 5.953a9 9 0 0 1 -11.253 -11.253a4.5 4.5 0 0 1 5.953 -5.954a8.987 8.987 0 0 1 2.65 -.396z" /><path d="M8 14.5c.5 2 2.358 2.5 4 2.5c2.905 0 4 -1.187 4 -2.5c0 -1.503 -1.927 -2.5 -4 -2.5s-4 -.997 -4 -2.5c0 -1.313 1.095 -2.5 4 -2.5c1.642 0 3.5 .5 4 2.5" />
</symbol>
	<symbol id="brand-spotify" class="icon icon-tabler icon-tabler-brand-spotify" viewBox="0 0 24 24" stroke-width="2" stroke="currentColor" fill="none" stroke-linecap="round" stroke-linejoin="round"><path stroke="none" d="M0 0h24v24H0z" fill="none"/><circle cx="12" cy="12" r="9" /><path d="M8 11.973c2.5-1.473 5.5-.973 7.5.527" /><path d="M9 15c1.5-1 4-1 5 .5" /><path d="M7 9c2-1 6-2 10 .5" />
</symbol>
	<symbol id="brand-tumblr" class="icon icon-tabler icon-tabler-brand-tumblr" viewBox="0 0 24 24" stroke-width="2" stroke="currentColor" fill="none" stroke-linecap="round" stroke-linejoin="round"><path stroke="none" d="M0 0h24v24H0z" fill="none"/><path d="M14 21h4v-4h-4v-6h4v-4h-4v-4h-4v1a3 3 0 0 1 -3 3h-1v4h4v6a4 4 0 0 0 4 4" />
</symbol>
	<symbol id="brand-twitch" class="icon icon-tabler icon-tabler-brand-twitch" viewBox="0 0 24 24" stroke-width="2" stroke="currentColor" fill="none" stroke-linecap="round" stroke-linejoin="round"><path stroke="none" d="M0 0h24v24H0z" fill="none"/><path d="M4 5v11a1 1 0 0 0 1 1h2v4l4 -4h5.584c.266 0 .52 -.105 .707 -.293l2.415 -2.414c.187 -.188 .293 -.442 .293 -.708v-8.585a1 1 0 0 0 -1 -1h-14a1 1 0 0 0 -1 1z" /><line x1="16" y1="8" x2="16" y2="12" /><line x1="12" y1="8" x2="12" y2="12" />
</symbol>
	<symbol id="brand-vimeo" class="icon icon-tabler icon-tabler-brand-vimeo" viewBox="0 0 24 24" stroke-width="2" stroke="currentColor" fill="none" stroke-linecap="round" stroke-linejoin="round"><path stroke="none" d="M0 0h24v24H0z" fill="none"/><path d="M3 8.5l1 1s1.5 -1.102 2 -.5c.509 .609 1.863 7.65 2.5 9c.556 1.184 1.978 2.89 4 1.5c2 -1.5 7.5 -5.5 8.5 -11.5c.444 -2.661 -1 -4 -2.5 -4c-2 0 -4.047 1.202 -4.5 4c2.05 -1.254 2.551 1.003 1.5 3c-1.052 2.005 -2 3 -2.5 3c-.49 0 -.924 -1.165 -1.5 -3.5c-.59 -2.42 -.5 -6.5 -3 -6.5s-5.5 4.5 -5.5 4.5z" />
</symbol>

	<use xlink:href="#brand-deviantart" x="24" y="24" width="24" height="24" />
	<use xlink:href="#brand-edge" x="74" y="24" width="24" height="24" />
	<use xlink:href="#brand-firefox" x="124" y="24" width="24" height="24" />
	<use xlink:href="#brand-flickr" x="174" y="24" width="24" height="24" />
	<use xlink:href="#brand-foursquare" x="224" y="24" width="24" height="24" />
	<use xlink:href="#brand-pocket" x="274" y="24" width="24" height="24" />
	<use xlink:href="#brand-python" x="24" y="74" width="24" height="24" />
	<use xlink:href="#brand-skype" x="74" y="74" width="24" height="24" />
	<use xlink:href="#brand-spotify" x="124" y="74" width="24" height="24" />
	<use xlink:href="#brand-tumblr" x="174" y="74" width="24" height="24" />
	<use xlink:href="#brand-twitch" x="224" y="74" width="24" height="24" />
	<use xlink:href="#brand-vimeo" x="274" y="74" width="24" height="24" />

</svg>