<svg xmlns="http://www.w3.org/2000/svg" xmlns:xlink="http://www.w3.org/1999/xlink" viewBox="0 0 292 160" width="292" height="160" style="color: #354052"><rect x="0" y="0" width="292" height="160" fill="#fff"></rect>
	<symbol id="brand-amigo" class="icon icon-tabler icon-tabler-brand-amigo" viewBox="0 0 24 24" stroke-width="2" stroke="currentColor" fill="none" stroke-linecap="round" stroke-linejoin="round"><path stroke="none" d="M0 0h24v24H0z" fill="none"/><circle cx="12" cy="12" r="2" /><path d="M9.591 3.635l-7.13 14.082c-1.712 3.38 1.759 5.45 3.69 3.573l1.86 -1.81c3.142 -3.054 4.959 -2.99 8.039 .11l1.329 1.337c2.372 2.387 5.865 .078 4.176 -3.225l-7.195 -14.067c-1.114 -2.18 -3.666 -2.18 -4.77 0z" />
</symbol>
	<symbol id="brand-bandlab" class="icon icon-tabler icon-tabler-brand-bandlab" viewBox="0 0 24 24" stroke-width="2" stroke="currentColor" fill="none" stroke-linecap="round" stroke-linejoin="round"><path stroke="none" d="M0 0h24v24H0z" fill="none"/><path d="M6.885 7l-2.536 4.907c-2.021 3.845 -2.499 8.775 3.821 9.093h6.808c4.86 -.207 7.989 -2.975 4.607 -9.093l-2.988 -4.907" /><path d="M15.078 4h-5.136l3.678 8.768c.547 1.14 .847 1.822 .162 2.676c-.053 .093 -1.332 1.907 -3.053 1.495c-.825 -.187 -1.384 -.926 -1.32 -1.74c.04 -.91 .62 -1.717 1.488 -2.074a4.463 4.463 0 0 1 2.723 -.358" />
</symbol>
	<symbol id="brand-bumble" class="icon icon-tabler icon-tabler-brand-bumble" viewBox="0 0 24 24" stroke-width="2" stroke="currentColor" fill="none" stroke-linecap="round" stroke-linejoin="round"><path stroke="none" d="M0 0h24v24H0z" fill="none"/><path d="M7 12h10" /><path d="M9 8h6" /><path d="M10 16h4" /><path d="M16.268 3h-8.536a1.46 1.46 0 0 0 -1.268 .748l-4.268 7.509a1.507 1.507 0 0 0 0 1.486l4.268 7.509c.26 .462 .744 .747 1.268 .748h8.536a1.46 1.46 0 0 0 1.268 -.748l4.268 -7.509a1.507 1.507 0 0 0 0 -1.486l-4.268 -7.509a1.46 1.46 0 0 0 -1.268 -.748z" />
</symbol>
	<symbol id="brand-citymapper" class="icon icon-tabler icon-tabler-brand-citymapper" viewBox="0 0 24 24" stroke-width="2" stroke="currentColor" fill="none" stroke-linecap="round" stroke-linejoin="round"><path stroke="none" d="M0 0h24v24H0z" fill="none"/><path d="M3 11a1 1 0 1 1 -1 1.013a1 1 0 0 1 1 -1v-.013z" /><path d="M21 11a1 1 0 1 1 -1 1.013a1 1 0 0 1 1 -1v-.013z" /><path d="M8 12h8" /><path d="M13 9l3 3l-3 3" />
</symbol>
	<symbol id="brand-coreos" class="icon icon-tabler icon-tabler-brand-coreos" viewBox="0 0 24 24" stroke-width="2" stroke="currentColor" fill="none" stroke-linecap="round" stroke-linejoin="round"><path stroke="none" d="M0 0h24v24H0z" fill="none"/><path d="M21 12a9 9 0 1 1 -18 0a9 9 0 0 1 18 0z" /><path d="M12 3c-3.263 3.212 -2.994 7.654 -3 12c4.59 .244 8.814 -.282 12 -3" /><path d="M9.5 9a4.494 4.494 0 0 1 5.5 5.5" />
</symbol>
	<symbol id="brand-cpp" class="icon icon-tabler icon-tabler-brand-cpp" viewBox="0 0 24 24" stroke-width="2" stroke="currentColor" fill="none" stroke-linecap="round" stroke-linejoin="round"><path stroke="none" d="M0 0h24v24H0z" fill="none"/><path d="M18 12h4" /><path d="M20 10v4" /><path d="M11 12h4" /><path d="M13 10v4" /><path d="M9 9a3 3 0 0 0 -3 -3h-.5a3.5 3.5 0 0 0 -3.5 3.5v5a3.5 3.5 0 0 0 3.5 3.5h.5a3 3 0 0 0 3 -3" />
</symbol>
	<symbol id="brand-douban" class="icon icon-tabler icon-tabler-brand-douban" viewBox="0 0 24 24" stroke-width="2" stroke="currentColor" fill="none" stroke-linecap="round" stroke-linejoin="round"><path stroke="none" d="M0 0h24v24H0z" fill="none"/><path d="M4 20h16" /><path d="M5 4h14" /><path d="M8 8h8a2 2 0 0 1 2 2v2a2 2 0 0 1 -2 2h-8a2 2 0 0 1 -2 -2v-2a2 2 0 0 1 2 -2z" /><path d="M16 14l-2 6" /><path d="M8 17l1 3" />
</symbol>
	<symbol id="brand-evernote" class="icon icon-tabler icon-tabler-brand-evernote" viewBox="0 0 24 24" stroke-width="2" stroke="currentColor" fill="none" stroke-linecap="round" stroke-linejoin="round"><path stroke="none" d="M0 0h24v24H0z" fill="none"/><path d="M4 8h5v-5" /><path d="M17.9 19c.6 -2.5 1.1 -5.471 1.1 -9c0 -4.5 -2 -5 -3 -5c-1.906 0 -3 -.5 -3.5 -1c-.354 -.354 -.5 -1 -1.5 -1h-2l-5 5c0 6 2.5 8 5 8c1 0 1.5 -.5 2 -1.5s1.414 -.326 2.5 0c1.044 .313 2.01 .255 2.5 .5c1 .5 2 1.5 2 3c0 .5 0 3 -3 3s-3 -3 -1 -3" /><path d="M15 10h1" />
</symbol>
	<symbol id="brand-google-home" class="icon icon-tabler icon-tabler-brand-google-home" viewBox="0 0 24 24" stroke-width="2" stroke="currentColor" fill="none" stroke-linecap="round" stroke-linejoin="round"><path stroke="none" d="M0 0h24v24H0z" fill="none"/><path d="M19.072 20.998h-14.144a1.928 1.928 0 0 1 -1.928 -1.928v-6.857c0 -.512 .203 -1.003 .566 -1.365l7.07 -7.063a1.928 1.928 0 0 1 2.727 0l7.071 7.063c.363 .362 .566 .853 .566 1.365v6.857a1.928 1.928 0 0 1 -1.928 1.928z" /><path d="M7 13v4h10v-4l-5 -5" /><path d="M14.8 5.2l-11.8 11.8" /><path d="M7 17v4" /><path d="M17 17v4" />
</symbol>
	<symbol id="brand-miniprogram" class="icon icon-tabler icon-tabler-brand-miniprogram" viewBox="0 0 24 24" stroke-width="2" stroke="currentColor" fill="none" stroke-linecap="round" stroke-linejoin="round"><path stroke="none" d="M0 0h24v24H0z" fill="none"/><path d="M21 12a9 9 0 1 1 -18 0a9 9 0 0 1 18 0z" /><path d="M7.996 11.503a2.5 2.5 0 1 0 4.004 1.997v-3a2.5 2.5 0 1 1 3.995 2.004" />
</symbol>
	<symbol id="brand-national-geographic" class="icon icon-tabler icon-tabler-brand-national-geographic" viewBox="0 0 24 24" stroke-width="2" stroke="currentColor" fill="none" stroke-linecap="round" stroke-linejoin="round"><path stroke="none" d="M0 0h24v24H0z" fill="none"/><path d="M6.375 3h11.25v18h-11.25z" />
</symbol>
	<symbol id="brand-netease-music" class="icon icon-tabler icon-tabler-brand-netease-music" viewBox="0 0 24 24" stroke-width="2" stroke="currentColor" fill="none" stroke-linecap="round" stroke-linejoin="round"><path stroke="none" d="M0 0h24v24H0z" fill="none"/><path d="M9 4c-2.93 1.346 -5 5.046 -5 8.492c0 4.508 4 7.508 8 7.508s8 -3 8 -7c0 -3.513 -3.5 -5.513 -6 -5.513s-5 1.513 -5 4.513c0 2 1.5 3 3 3s3 -.998 3 -3c0 -3.513 -2 -4.508 -2 -6.515c0 -3.504 3.5 -2.603 4 -1.502" />
</symbol>
	<symbol id="brand-onlyfans" class="icon icon-tabler icon-tabler-brand-onlyfans" viewBox="0 0 24 24" stroke-width="2" stroke="currentColor" fill="none" stroke-linecap="round" stroke-linejoin="round"><path stroke="none" d="M0 0h24v24H0z" fill="none"/><path d="M8.5 6a6.5 6.5 0 1 0 0 13a6.5 6.5 0 0 0 0 -13z" /><path d="M8.5 15a2.5 2.5 0 1 1 0 -5a2.5 2.5 0 0 1 0 5z" /><path d="M14 16c2.5 0 6.42 -1.467 7 -4h-6c3 -1 6.44 -3.533 7 -6h-4c-3.03 0 -3.764 -.196 -5 1.5" />
</symbol>
	<symbol id="brand-qq" class="icon icon-tabler icon-tabler-brand-qq" viewBox="0 0 24 24" stroke-width="2" stroke="currentColor" fill="none" stroke-linecap="round" stroke-linejoin="round"><path stroke="none" d="M0 0h24v24H0z" fill="none"/><path d="M14 7h.01" /><path d="M10 7h.01" /><path d="M6 11c4 4 8 4 12 0" /><path d="M9 13.5v2.5" /><path d="M10.5 10c.667 1.333 2.333 1.333 3 0h-3z" /><path d="M16 21c1.5 0 3.065 -1 1 -3c4.442 2 1.987 -4.5 1 -7c0 -4 -1.558 -8 -6 -8s-6 4 -6 8c-.987 2.5 -3.442 9 1 7c-2.065 2 -.5 3 1 3h8z" />
</symbol>
	<symbol id="brand-stackshare" class="icon icon-tabler icon-tabler-brand-stackshare" viewBox="0 0 24 24" stroke-width="2" stroke="currentColor" fill="none" stroke-linecap="round" stroke-linejoin="round"><path stroke="none" d="M0 0h24v24H0z" fill="none"/><circle cx="19" cy="6" r="2" /><circle cx="19" cy="18" r="2" /><circle cx="5" cy="12" r="2" /><path d="M7 12h3l3.5 6h3.5" /><path d="M17 6h-3.5l-3.5 6" />
</symbol>
	<symbol id="brand-storytel" class="icon icon-tabler icon-tabler-brand-storytel" viewBox="0 0 24 24" stroke-width="2" stroke="currentColor" fill="none" stroke-linecap="round" stroke-linejoin="round"><path stroke="none" d="M0 0h24v24H0z" fill="none"/><path d="M4.103 22c2.292 -2.933 16.825 -2.43 16.825 -11.538c0 -6.298 -4.974 -8.462 -8.451 -8.462c-3.477 0 -9.477 3.036 -9.477 11.241c0 6.374 1.103 8.759 1.103 8.759z" />
</symbol>
	<symbol id="brand-weibo" class="icon icon-tabler icon-tabler-brand-weibo" viewBox="0 0 24 24" stroke-width="2" stroke="currentColor" fill="none" stroke-linecap="round" stroke-linejoin="round"><path stroke="none" d="M0 0h24v24H0z" fill="none"/><path d="M19 14.127c0 3.073 -3.502 5.873 -8 5.873c-4.126 0 -8 -2.224 -8 -5.565c0 -1.78 .984 -3.737 2.7 -5.567c2.362 -2.51 5.193 -3.687 6.551 -2.238c.415 .44 .752 1.39 .749 2.062c2 -1.615 4.308 .387 3.5 2.693c1.26 .557 2.5 .538 2.5 2.742z" /><path d="M15 4h1a5 5 0 0 1 5 5v1" />
</symbol>
	<symbol id="brand-zhihu" class="icon icon-tabler icon-tabler-brand-zhihu" viewBox="0 0 24 24" stroke-width="2" stroke="currentColor" fill="none" stroke-linecap="round" stroke-linejoin="round"><path stroke="none" d="M0 0h24v24H0z" fill="none"/><path d="M14 6h6v12h-2l-2 2l-1 -2h-1z" /><path d="M4 12h6.5" /><path d="M10.5 6h-5" /><path d="M6 4c-.5 2.5 -1.5 3.5 -2.5 4.5" /><path d="M8 6v7c0 4.5 -2 5.5 -4 7" /><path d="M11 18l-3 -5" />
</symbol>

	<use xlink:href="#brand-amigo" x="24" y="24" width="24" height="24" />
	<use xlink:href="#brand-bandlab" x="68" y="24" width="24" height="24" />
	<use xlink:href="#brand-bumble" x="112" y="24" width="24" height="24" />
	<use xlink:href="#brand-citymapper" x="156" y="24" width="24" height="24" />
	<use xlink:href="#brand-coreos" x="200" y="24" width="24" height="24" />
	<use xlink:href="#brand-cpp" x="244" y="24" width="24" height="24" />
	<use xlink:href="#brand-douban" x="24" y="68" width="24" height="24" />
	<use xlink:href="#brand-evernote" x="68" y="68" width="24" height="24" />
	<use xlink:href="#brand-google-home" x="112" y="68" width="24" height="24" />
	<use xlink:href="#brand-miniprogram" x="156" y="68" width="24" height="24" />
	<use xlink:href="#brand-national-geographic" x="200" y="68" width="24" height="24" />
	<use xlink:href="#brand-netease-music" x="244" y="68" width="24" height="24" />
	<use xlink:href="#brand-onlyfans" x="24" y="112" width="24" height="24" />
	<use xlink:href="#brand-qq" x="68" y="112" width="24" height="24" />
	<use xlink:href="#brand-stackshare" x="112" y="112" width="24" height="24" />
	<use xlink:href="#brand-storytel" x="156" y="112" width="24" height="24" />
	<use xlink:href="#brand-weibo" x="200" y="112" width="24" height="24" />
	<use xlink:href="#brand-zhihu" x="244" y="112" width="24" height="24" />

</svg>