<svg xmlns="http://www.w3.org/2000/svg" xmlns:xlink="http://www.w3.org/1999/xlink" viewBox="0 0 292 160" width="292" height="160" style="color: #354052"><rect x="0" y="0" width="292" height="160" fill="#fff"></rect>
	<symbol id="square-arrow-down-filled" class="icon icon-tabler icon-tabler-square-arrow-down-filled" viewBox="0 0 24 24" stroke-width="2" stroke="currentColor" fill="none" stroke-linecap="round" stroke-linejoin="round"><path stroke="none" d="M0 0h24v24H0z" fill="none"/><path d="M19 2a3 3 0 0 1 3 3v14a3 3 0 0 1 -3 3h-14a3 3 0 0 1 -3 -3v-14a3 3 0 0 1 3 -3zm-7 5a1 1 0 0 0 -1 1v5.585l-2.293 -2.292l-.094 -.083a1 1 0 0 0 -1.32 1.497l4 4l.094 .083l.092 .064l.098 .052l.11 .044l.112 .03l.126 .017l.075 .003l.117 -.007l.149 -.029l.105 -.035l.113 -.054l.111 -.071a.939 .939 0 0 0 .112 -.097l4 -4l.083 -.094a1 1 0 0 0 -.083 -1.32l-.094 -.083a1 1 0 0 0 -1.32 .083l-2.293 2.292v-5.585l-.007 -.117a1 1 0 0 0 -.993 -.883z" stroke-width="0" fill="currentColor" />
</symbol>
	<symbol id="square-arrow-left-filled" class="icon icon-tabler icon-tabler-square-arrow-left-filled" viewBox="0 0 24 24" stroke-width="2" stroke="currentColor" fill="none" stroke-linecap="round" stroke-linejoin="round"><path stroke="none" d="M0 0h24v24H0z" fill="none"/><path d="M19 2a3 3 0 0 1 3 3v14a3 3 0 0 1 -3 3h-14a3 3 0 0 1 -3 -3v-14a3 3 0 0 1 3 -3zm-6.293 5.293a1 1 0 0 0 -1.414 0l-4 4l-.083 .094l-.064 .092l-.052 .098l-.044 .11l-.03 .112l-.017 .126l-.003 .075l.004 .09l.007 .058l.025 .118l.035 .105l.054 .113l.071 .111c.03 .04 .061 .077 .097 .112l4 4l.094 .083a1 1 0 0 0 1.32 -.083l.083 -.094a1 1 0 0 0 -.083 -1.32l-2.292 -2.293h5.585l.117 -.007a1 1 0 0 0 -.117 -1.993h-5.585l2.292 -2.293l.083 -.094a1 1 0 0 0 -.083 -1.32z" stroke-width="0" fill="currentColor" />
</symbol>
	<symbol id="square-arrow-right-filled" class="icon icon-tabler icon-tabler-square-arrow-right-filled" viewBox="0 0 24 24" stroke-width="2" stroke="currentColor" fill="none" stroke-linecap="round" stroke-linejoin="round"><path stroke="none" d="M0 0h24v24H0z" fill="none"/><path d="M19 2a3 3 0 0 1 3 3v14a3 3 0 0 1 -3 3h-14a3 3 0 0 1 -3 -3v-14a3 3 0 0 1 3 -3zm-6.387 5.21a1 1 0 0 0 -1.32 .083l-.083 .094a1 1 0 0 0 .083 1.32l2.292 2.293h-5.585l-.117 .007a1 1 0 0 0 .117 1.993h5.585l-2.292 2.293l-.083 .094a1 1 0 0 0 1.497 1.32l4 -4l.073 -.082l.074 -.104l.052 -.098l.044 -.11l.03 -.112l.017 -.126l.003 -.075l-.007 -.118l-.029 -.148l-.035 -.105l-.054 -.113l-.071 -.111a1.008 1.008 0 0 0 -.097 -.112l-4 -4z" stroke-width="0" fill="currentColor" />
</symbol>
	<symbol id="square-arrow-up-filled" class="icon icon-tabler icon-tabler-square-arrow-up-filled" viewBox="0 0 24 24" stroke-width="2" stroke="currentColor" fill="none" stroke-linecap="round" stroke-linejoin="round"><path stroke="none" d="M0 0h24v24H0z" fill="none"/><path d="M19 2a3 3 0 0 1 3 3v14a3 3 0 0 1 -3 3h-14a3 3 0 0 1 -3 -3v-14a3 3 0 0 1 3 -3zm-7 5l-.09 .004l-.058 .007l-.118 .025l-.105 .035l-.113 .054l-.111 .071a1.008 1.008 0 0 0 -.112 .097l-4 4l-.083 .094a1 1 0 0 0 .083 1.32l.094 .083a1 1 0 0 0 1.32 -.083l2.293 -2.292v5.585l.007 .117a1 1 0 0 0 1.993 -.117v-5.585l2.293 2.292l.094 .083a1 1 0 0 0 1.32 -1.497l-4 -4l-.082 -.073l-.104 -.074l-.098 -.052l-.11 -.044l-.112 -.03l-.126 -.017l-.075 -.003z" stroke-width="0" fill="currentColor" />
</symbol>
	<symbol id="square-asterisk-filled" class="icon icon-tabler icon-tabler-square-asterisk-filled" viewBox="0 0 24 24" stroke-width="2" stroke="currentColor" fill="none" stroke-linecap="round" stroke-linejoin="round"><path stroke="none" d="M0 0h24v24H0z" fill="none"/><path d="M19 2a3 3 0 0 1 3 3v14a3 3 0 0 1 -3 3h-14a3 3 0 0 1 -3 -3v-14a3 3 0 0 1 3 -3zm-7 5.5a1 1 0 0 0 -1 1v1.631l-1.445 -.963l-.101 -.06a1 1 0 0 0 -1.009 1.724l1.75 1.168l-1.75 1.169l-.093 .07a1 1 0 0 0 1.203 1.594l1.445 -.965v1.632l.007 .117a1 1 0 0 0 1.993 -.117v-1.631l1.445 .963l.101 .06a1 1 0 0 0 1.009 -1.724l-1.752 -1.169l1.752 -1.167l.093 -.07a1 1 0 0 0 -1.203 -1.594l-1.445 .962v-1.63l-.007 -.117a1 1 0 0 0 -.993 -.883z" stroke-width="0" fill="currentColor" />
</symbol>
	<symbol id="square-chevron-down-filled" class="icon icon-tabler icon-tabler-square-chevron-down-filled" viewBox="0 0 24 24" stroke-width="2" stroke="currentColor" fill="none" stroke-linecap="round" stroke-linejoin="round"><path stroke="none" d="M0 0h24v24H0z" fill="none"/><path d="M19 2a3 3 0 0 1 3 3v14a3 3 0 0 1 -3 3h-14a3 3 0 0 1 -3 -3v-14a3 3 0 0 1 3 -3zm-9.387 8.21a1 1 0 0 0 -1.32 1.497l3 3l.094 .083a1 1 0 0 0 1.32 -.083l3 -3l.083 -.094a1 1 0 0 0 -.083 -1.32l-.094 -.083a1 1 0 0 0 -1.32 .083l-2.293 2.292l-2.293 -2.292z" stroke-width="0" fill="currentColor" />
</symbol>
	<symbol id="square-chevron-left-filled" class="icon icon-tabler icon-tabler-square-chevron-left-filled" viewBox="0 0 24 24" stroke-width="2" stroke="currentColor" fill="none" stroke-linecap="round" stroke-linejoin="round"><path stroke="none" d="M0 0h24v24H0z" fill="none"/><path d="M19 2a3 3 0 0 1 3 3v14a3 3 0 0 1 -3 3h-14a3 3 0 0 1 -3 -3v-14a3 3 0 0 1 3 -3zm-5.293 6.293a1 1 0 0 0 -1.414 0l-3 3l-.083 .094a1 1 0 0 0 .083 1.32l3 3l.094 .083a1 1 0 0 0 1.32 -.083l.083 -.094a1 1 0 0 0 -.083 -1.32l-2.292 -2.293l2.292 -2.293l.083 -.094a1 1 0 0 0 -.083 -1.32z" stroke-width="0" fill="currentColor" />
</symbol>
	<symbol id="square-chevron-right-filled" class="icon icon-tabler icon-tabler-square-chevron-right-filled" viewBox="0 0 24 24" stroke-width="2" stroke="currentColor" fill="none" stroke-linecap="round" stroke-linejoin="round"><path stroke="none" d="M0 0h24v24H0z" fill="none"/><path d="M19 2a3 3 0 0 1 3 3v14a3 3 0 0 1 -3 3h-14a3 3 0 0 1 -3 -3v-14a3 3 0 0 1 3 -3zm-7.387 6.21a1 1 0 0 0 -1.32 .083l-.083 .094a1 1 0 0 0 .083 1.32l2.292 2.293l-2.292 2.293l-.083 .094a1 1 0 0 0 1.497 1.32l3 -3l.083 -.094a1 1 0 0 0 -.083 -1.32l-3 -3z" stroke-width="0" fill="currentColor" />
</symbol>
	<symbol id="square-chevron-up-filled" class="icon icon-tabler icon-tabler-square-chevron-up-filled" viewBox="0 0 24 24" stroke-width="2" stroke="currentColor" fill="none" stroke-linecap="round" stroke-linejoin="round"><path stroke="none" d="M0 0h24v24H0z" fill="none"/><path d="M19 2a3 3 0 0 1 3 3v14a3 3 0 0 1 -3 3h-14a3 3 0 0 1 -3 -3v-14a3 3 0 0 1 3 -3zm-6.387 7.21a1 1 0 0 0 -1.32 .083l-3 3l-.083 .094a1 1 0 0 0 .083 1.32l.094 .083a1 1 0 0 0 1.32 -.083l2.293 -2.292l2.293 2.292l.094 .083a1 1 0 0 0 1.32 -1.497l-3 -3z" stroke-width="0" fill="currentColor" />
</symbol>
	<symbol id="square-chevrons-down-filled" class="icon icon-tabler icon-tabler-square-chevrons-down-filled" viewBox="0 0 24 24" stroke-width="2" stroke="currentColor" fill="none" stroke-linecap="round" stroke-linejoin="round"><path stroke="none" d="M0 0h24v24H0z" fill="none"/><path d="M19 2a3 3 0 0 1 3 3v14a3 3 0 0 1 -3 3h-14a3 3 0 0 1 -3 -3v-14a3 3 0 0 1 3 -3zm-9.387 10.21a1 1 0 0 0 -1.32 1.497l3 3l.094 .083a1 1 0 0 0 1.32 -.083l3 -3l.083 -.094a1 1 0 0 0 -.083 -1.32l-.094 -.083a1 1 0 0 0 -1.32 .083l-2.293 2.292l-2.293 -2.292zm0 -5a1 1 0 0 0 -1.32 1.497l3 3l.094 .083a1 1 0 0 0 1.32 -.083l3 -3l.083 -.094a1 1 0 0 0 -.083 -1.32l-.094 -.083a1 1 0 0 0 -1.32 .083l-2.293 2.292l-2.293 -2.292z" stroke-width="0" fill="currentColor" />
</symbol>
	<symbol id="square-chevrons-left-filled" class="icon icon-tabler icon-tabler-square-chevrons-left-filled" viewBox="0 0 24 24" stroke-width="2" stroke="currentColor" fill="none" stroke-linecap="round" stroke-linejoin="round"><path stroke="none" d="M0 0h24v24H0z" fill="none"/><path d="M19 2a3 3 0 0 1 3 3v14a3 3 0 0 1 -3 3h-14a3 3 0 0 1 -3 -3v-14a3 3 0 0 1 3 -3zm-2.293 6.293a1 1 0 0 0 -1.414 0l-3 3l-.083 .094a1 1 0 0 0 .083 1.32l3 3l.094 .083a1 1 0 0 0 1.32 -.083l.083 -.094a1 1 0 0 0 -.083 -1.32l-2.292 -2.293l2.292 -2.293l.083 -.094a1 1 0 0 0 -.083 -1.32zm-5 0a1 1 0 0 0 -1.414 0l-3 3l-.083 .094a1 1 0 0 0 .083 1.32l3 3l.094 .083a1 1 0 0 0 1.32 -.083l.083 -.094a1 1 0 0 0 -.083 -1.32l-2.292 -2.293l2.292 -2.293l.083 -.094a1 1 0 0 0 -.083 -1.32z" stroke-width="0" fill="currentColor" />
</symbol>
	<symbol id="square-chevrons-right-filled" class="icon icon-tabler icon-tabler-square-chevrons-right-filled" viewBox="0 0 24 24" stroke-width="2" stroke="currentColor" fill="none" stroke-linecap="round" stroke-linejoin="round"><path stroke="none" d="M0 0h24v24H0z" fill="none"/><path d="M19 2a3 3 0 0 1 3 3v14a3 3 0 0 1 -3 3h-14a3 3 0 0 1 -3 -3v-14a3 3 0 0 1 3 -3zm-10.387 6.21a1 1 0 0 0 -1.32 .083l-.083 .094a1 1 0 0 0 .083 1.32l2.292 2.293l-2.292 2.293l-.083 .094a1 1 0 0 0 1.497 1.32l3 -3l.083 -.094a1 1 0 0 0 -.083 -1.32l-3 -3zm5 0a1 1 0 0 0 -1.32 .083l-.083 .094a1 1 0 0 0 .083 1.32l2.292 2.293l-2.292 2.293l-.083 .094a1 1 0 0 0 1.497 1.32l3 -3l.083 -.094a1 1 0 0 0 -.083 -1.32l-3 -3z" stroke-width="0" fill="currentColor" />
</symbol>
	<symbol id="square-chevrons-up-filled" class="icon icon-tabler icon-tabler-square-chevrons-up-filled" viewBox="0 0 24 24" stroke-width="2" stroke="currentColor" fill="none" stroke-linecap="round" stroke-linejoin="round"><path stroke="none" d="M0 0h24v24H0z" fill="none"/><path d="M19 2a3 3 0 0 1 3 3v14a3 3 0 0 1 -3 3h-14a3 3 0 0 1 -3 -3v-14a3 3 0 0 1 3 -3zm-6.387 10.21a1 1 0 0 0 -1.32 .083l-3 3l-.083 .094a1 1 0 0 0 .083 1.32l.094 .083a1 1 0 0 0 1.32 -.083l2.293 -2.292l2.293 2.292l.094 .083a1 1 0 0 0 1.32 -1.497l-3 -3zm0 -5a1 1 0 0 0 -1.32 .083l-3 3l-.083 .094a1 1 0 0 0 .083 1.32l.094 .083a1 1 0 0 0 1.32 -.083l2.293 -2.292l2.293 2.292l.094 .083a1 1 0 0 0 1.32 -1.497l-3 -3z" stroke-width="0" fill="currentColor" />
</symbol>
	<symbol id="square-dot-filled" class="icon icon-tabler icon-tabler-square-dot-filled" viewBox="0 0 24 24" stroke-width="2" stroke="currentColor" fill="none" stroke-linecap="round" stroke-linejoin="round"><path stroke="none" d="M0 0h24v24H0z" fill="none"/><path d="M19 2a3 3 0 0 1 3 3v14a3 3 0 0 1 -3 3h-14a3 3 0 0 1 -3 -3v-14a3 3 0 0 1 3 -3zm-7 8a2 2 0 0 0 -1.995 1.85l-.005 .15l.005 .15a2 2 0 1 0 1.995 -2.15z" stroke-width="0" fill="currentColor" />
</symbol>
	<symbol id="square-minus-filled" class="icon icon-tabler icon-tabler-square-minus-filled" viewBox="0 0 24 24" stroke-width="2" stroke="currentColor" fill="none" stroke-linecap="round" stroke-linejoin="round"><path stroke="none" d="M0 0h24v24H0z" fill="none"/><path d="M19 2a3 3 0 0 1 3 3v14a3 3 0 0 1 -3 3h-14a3 3 0 0 1 -3 -3v-14a3 3 0 0 1 3 -3zm-4 9h-6l-.117 .007a1 1 0 0 0 .117 1.993h6l.117 -.007a1 1 0 0 0 -.117 -1.993z" stroke-width="0" fill="currentColor" />
</symbol>
	<symbol id="square-rounded-minus-filled" class="icon icon-tabler icon-tabler-square-rounded-minus-filled" viewBox="0 0 24 24" stroke-width="2" stroke="currentColor" fill="none" stroke-linecap="round" stroke-linejoin="round"><path stroke="none" d="M0 0h24v24H0z" fill="none"/><path d="M12 2l.324 .001l.318 .004l.616 .017l.299 .013l.579 .034l.553 .046c4.785 .464 6.732 2.411 7.196 7.196l.046 .553l.034 .579c.005 .098 .01 .198 .013 .299l.017 .616l.005 .642l-.005 .642l-.017 .616l-.013 .299l-.034 .579l-.046 .553c-.464 4.785 -2.411 6.732 -7.196 7.196l-.553 .046l-.579 .034c-.098 .005 -.198 .01 -.299 .013l-.616 .017l-.642 .005l-.642 -.005l-.616 -.017l-.299 -.013l-.579 -.034l-.553 -.046c-4.785 -.464 -6.732 -2.411 -7.196 -7.196l-.046 -.553l-.034 -.579a28.058 28.058 0 0 1 -.013 -.299l-.017 -.616c-.003 -.21 -.005 -.424 -.005 -.642l.001 -.324l.004 -.318l.017 -.616l.013 -.299l.034 -.579l.046 -.553c.464 -4.785 2.411 -6.732 7.196 -7.196l.553 -.046l.579 -.034c.098 -.005 .198 -.01 .299 -.013l.616 -.017c.21 -.003 .424 -.005 .642 -.005zm3 9h-6l-.117 .007a1 1 0 0 0 .117 1.993h6l.117 -.007a1 1 0 0 0 -.117 -1.993z" stroke-width="0" fill="currentColor" />
</symbol>
	<symbol id="square-x-filled" class="icon icon-tabler icon-tabler-square-x-filled" viewBox="0 0 24 24" stroke-width="2" stroke="currentColor" fill="none" stroke-linecap="round" stroke-linejoin="round"><path stroke="none" d="M0 0h24v24H0z" fill="none"/><path d="M19 2h-14a3 3 0 0 0 -3 3v14a3 3 0 0 0 3 3h14a3 3 0 0 0 3 -3v-14a3 3 0 0 0 -3 -3zm-9.387 6.21l.094 .083l2.293 2.292l2.293 -2.292a1 1 0 0 1 1.497 1.32l-.083 .094l-2.292 2.293l2.292 2.293a1 1 0 0 1 -1.32 1.497l-.094 -.083l-2.293 -2.292l-2.293 2.292a1 1 0 0 1 -1.497 -1.32l.083 -.094l2.292 -2.293l-2.292 -2.293a1 1 0 0 1 1.32 -1.497z" stroke-width="0" fill="currentColor" />
</symbol>
	<symbol id="triangle-square-circle-filled" class="icon icon-tabler icon-tabler-triangle-square-circle-filled" viewBox="0 0 24 24" stroke-width="2" stroke="currentColor" fill="none" stroke-linecap="round" stroke-linejoin="round"><path stroke="none" d="M0 0h24v24H0z" fill="none"/><path d="M11.132 2.504l-4 7a1 1 0 0 0 .868 1.496h8a1 1 0 0 0 .868 -1.496l-4 -7a1 1 0 0 0 -1.736 0z" stroke-width="0" fill="currentColor" /><path d="M17 13a4 4 0 1 1 -3.995 4.2l-.005 -.2l.005 -.2a4 4 0 0 1 3.995 -3.8z" stroke-width="0" fill="currentColor" /><path d="M9 13h-4a2 2 0 0 0 -2 2v4a2 2 0 0 0 2 2h4a2 2 0 0 0 2 -2v-4a2 2 0 0 0 -2 -2z" stroke-width="0" fill="currentColor" />
</symbol>

	<use xlink:href="#square-arrow-down-filled" x="24" y="24" width="24" height="24" />
	<use xlink:href="#square-arrow-left-filled" x="68" y="24" width="24" height="24" />
	<use xlink:href="#square-arrow-right-filled" x="112" y="24" width="24" height="24" />
	<use xlink:href="#square-arrow-up-filled" x="156" y="24" width="24" height="24" />
	<use xlink:href="#square-asterisk-filled" x="200" y="24" width="24" height="24" />
	<use xlink:href="#square-chevron-down-filled" x="244" y="24" width="24" height="24" />
	<use xlink:href="#square-chevron-left-filled" x="24" y="68" width="24" height="24" />
	<use xlink:href="#square-chevron-right-filled" x="68" y="68" width="24" height="24" />
	<use xlink:href="#square-chevron-up-filled" x="112" y="68" width="24" height="24" />
	<use xlink:href="#square-chevrons-down-filled" x="156" y="68" width="24" height="24" />
	<use xlink:href="#square-chevrons-left-filled" x="200" y="68" width="24" height="24" />
	<use xlink:href="#square-chevrons-right-filled" x="244" y="68" width="24" height="24" />
	<use xlink:href="#square-chevrons-up-filled" x="24" y="112" width="24" height="24" />
	<use xlink:href="#square-dot-filled" x="68" y="112" width="24" height="24" />
	<use xlink:href="#square-minus-filled" x="112" y="112" width="24" height="24" />
	<use xlink:href="#square-rounded-minus-filled" x="156" y="112" width="24" height="24" />
	<use xlink:href="#square-x-filled" x="200" y="112" width="24" height="24" />
	<use xlink:href="#triangle-square-circle-filled" x="244" y="112" width="24" height="24" />

</svg>