<svg xmlns="http://www.w3.org/2000/svg" xmlns:xlink="http://www.w3.org/1999/xlink" viewBox="0 0 292 336" width="292" height="336" style="color: #354052"><rect x="0" y="0" width="292" height="336" fill="#fff"></rect>
	<symbol id="cone-plus" class="icon icon-tabler icon-tabler-cone-plus" viewBox="0 0 24 24" stroke-width="2" stroke="currentColor" fill="none" stroke-linecap="round" stroke-linejoin="round"><path stroke="none" d="M0 0h24v24H0z" fill="none"/><path d="M18.03 12.022l-5.16 -9.515a1 1 0 0 0 -1.74 0l-8.13 14.99v.5c0 1.66 4.03 3.003 9 3.003c.17 0 .34 -.002 .508 -.005" /><path d="M16 19h6" /><path d="M19 16v6" />
</symbol>
	<symbol id="cube-off" class="icon icon-tabler icon-tabler-cube-off" viewBox="0 0 24 24" stroke-width="2" stroke="currentColor" fill="none" stroke-linecap="round" stroke-linejoin="round"><path stroke="none" d="M0 0h24v24H0z" fill="none"/><path d="M20.83 16.809c.11 -.248 .17 -.52 .17 -.801v-8.018a1.98 1.98 0 0 0 -1 -1.717l-7 -4.008a2.016 2.016 0 0 0 -2 0l-3.012 1.725m-2.547 1.458l-1.441 .825c-.619 .355 -1 1.01 -1 1.718v8.018c0 .709 .381 1.363 1 1.717l7 4.008a2.016 2.016 0 0 0 2 0l5.544 -3.174" /><path d="M12 22v-10" /><path d="M14.532 10.538l6.198 -3.578" /><path d="M3.27 6.96l8.73 5.04" /><path d="M3 3l18 18" />
</symbol>
	<symbol id="cube-plus" class="icon icon-tabler icon-tabler-cube-plus" viewBox="0 0 24 24" stroke-width="2" stroke="currentColor" fill="none" stroke-linecap="round" stroke-linejoin="round"><path stroke="none" d="M0 0h24v24H0z" fill="none"/><path d="M21 12.5v-4.509a1.98 1.98 0 0 0 -1 -1.717l-7 -4.008a2.016 2.016 0 0 0 -2 0l-7 4.007c-.619 .355 -1 1.01 -1 1.718v8.018c0 .709 .381 1.363 1 1.717l7 4.008a2.016 2.016 0 0 0 2 0" /><path d="M12 22v-10" /><path d="M12 12l8.73 -5.04" /><path d="M3.27 6.96l8.73 5.04" /><path d="M16 19h6" /><path d="M19 16v6" />
</symbol>
	<symbol id="cube" class="icon icon-tabler icon-tabler-cube" viewBox="0 0 24 24" stroke-width="2" stroke="currentColor" fill="none" stroke-linecap="round" stroke-linejoin="round"><path stroke="none" d="M0 0h24v24H0z" fill="none"/><path d="M21 16.008v-8.018a1.98 1.98 0 0 0 -1 -1.717l-7 -4.008a2.016 2.016 0 0 0 -2 0l-7 4.008c-.619 .355 -1 1.01 -1 1.718v8.018c0 .709 .381 1.363 1 1.717l7 4.008a2.016 2.016 0 0 0 2 0l7 -4.008c.619 -.355 1 -1.01 1 -1.718z" /><path d="M12 22v-10" /><path d="M12 12l8.73 -5.04" /><path d="M3.27 6.96l8.73 5.04" />
</symbol>
	<symbol id="cylinder-off" class="icon icon-tabler icon-tabler-cylinder-off" viewBox="0 0 24 24" stroke-width="2" stroke="currentColor" fill="none" stroke-linecap="round" stroke-linejoin="round"><path stroke="none" d="M0 0h24v24H0z" fill="none"/><path d="M5.23 5.233c-.15 .245 -.23 .502 -.23 .767c0 1.131 1.461 2.117 3.62 2.628m3.38 .372c.332 0 .658 -.01 .977 -.029c3.404 -.204 6.023 -1.456 6.023 -2.971c0 -1.657 -3.134 -3 -7 -3c-1.645 0 -3.158 .243 -4.353 .65" /><path d="M5 6v12c0 1.657 3.134 3 7 3c3.245 0 5.974 -.946 6.767 -2.23m.233 -3.77v-9" /><path d="M3 3l18 18" />
</symbol>
	<symbol id="cylinder-plus" class="icon icon-tabler icon-tabler-cylinder-plus" viewBox="0 0 24 24" stroke-width="2" stroke="currentColor" fill="none" stroke-linecap="round" stroke-linejoin="round"><path stroke="none" d="M0 0h24v24H0z" fill="none"/><path d="M12 6m-7 0a7 3 0 1 0 14 0a7 3 0 1 0 -14 0" /><path d="M5 6v12c0 1.657 3.134 3 7 3c.173 0 .345 -.003 .515 -.008m6.485 -8.992v-6" /><path d="M16 19h6" /><path d="M19 16v6" />
</symbol>
	<symbol id="diabolo-off" class="icon icon-tabler icon-tabler-diabolo-off" viewBox="0 0 24 24" stroke-width="2" stroke="currentColor" fill="none" stroke-linecap="round" stroke-linejoin="round"><path stroke="none" d="M0 0h24v24H0z" fill="none"/><path d="M4.727 4.749c-.467 .38 -.727 .804 -.727 1.251c0 1.217 1.933 2.265 4.71 2.735m4.257 .243c3.962 -.178 7.033 -1.444 7.033 -2.978c0 -1.657 -3.582 -3 -8 -3c-1.66 0 -3.202 .19 -4.48 .514" /><path d="M4 6v.143a1 1 0 0 0 .048 .307l1.952 5.55l-1.964 5.67a1 1 0 0 0 -.036 .265v.065c0 1.657 3.582 3 8 3c3.218 0 5.992 -.712 7.262 -1.74m-.211 -4.227l-1.051 -3.033l1.952 -5.55a1 1 0 0 0 .048 -.307v-.143" /><path d="M6 12c0 1.105 2.686 2 6 2c.656 0 1.288 -.035 1.879 -.1m3.198 -.834c.585 -.308 .923 -.674 .923 -1.066" /><path d="M3 3l18 18" />
</symbol>
	<symbol id="diabolo-plus" class="icon icon-tabler icon-tabler-diabolo-plus" viewBox="0 0 24 24" stroke-width="2" stroke="currentColor" fill="none" stroke-linecap="round" stroke-linejoin="round"><path stroke="none" d="M0 0h24v24H0z" fill="none"/><path d="M12 6m-8 0a8 3 0 1 0 16 0a8 3 0 1 0 -16 0" /><path d="M4 6v.143a1 1 0 0 0 .048 .307l1.952 5.55l-1.964 5.67a1 1 0 0 0 -.036 .265v.065c0 1.657 3.582 3 8 3c.17 0 .34 -.002 .508 -.006m5.492 -8.994l1.952 -5.55a1 1 0 0 0 .048 -.307v-.143" /><path d="M6 12c0 1.105 2.686 2 6 2s6 -.895 6 -2" /><path d="M16 19h6" /><path d="M19 16v6" />
</symbol>
	<symbol id="diabolo" class="icon icon-tabler icon-tabler-diabolo" viewBox="0 0 24 24" stroke-width="2" stroke="currentColor" fill="none" stroke-linecap="round" stroke-linejoin="round"><path stroke="none" d="M0 0h24v24H0z" fill="none"/><path d="M12 6m-8 0a8 3 0 1 0 16 0a8 3 0 1 0 -16 0" /><path d="M4 6v.143a1 1 0 0 0 .048 .307l1.952 5.55l-1.964 5.67a1 1 0 0 0 -.036 .265v.065c0 1.657 3.582 3 8 3s8 -1.343 8 -3v-.065a1 1 0 0 0 -.036 -.265l-1.964 -5.67l1.952 -5.55a1 1 0 0 0 .048 -.307v-.143" /><path d="M6 12c0 1.105 2.686 2 6 2s6 -.895 6 -2" />
</symbol>
	<symbol id="frustum-off" class="icon icon-tabler icon-tabler-frustum-off" viewBox="0 0 24 24" stroke-width="2" stroke="currentColor" fill="none" stroke-linecap="round" stroke-linejoin="round"><path stroke="none" d="M0 0h24v24H0z" fill="none"/><path d="M7.72 3.728l3.484 -1.558a1.95 1.95 0 0 1 1.59 0l4.496 2.01c.554 .246 .963 .736 1.112 1.328l2.538 10.158c.103 .412 .07 .832 -.075 1.206m-2.299 1.699l-5.725 2.738a1.945 1.945 0 0 1 -1.682 0l-7.035 -3.365a1.99 1.99 0 0 1 -1.064 -2.278l2.52 -10.08" /><path d="M18 4.82l-5.198 2.324a1.963 1.963 0 0 1 -1.602 0" /><path d="M12 7.32v.68m0 4v9.5" /><path d="M3 3l18 18" />
</symbol>
	<symbol id="frustum-plus" class="icon icon-tabler icon-tabler-frustum-plus" viewBox="0 0 24 24" stroke-width="2" stroke="currentColor" fill="none" stroke-linecap="round" stroke-linejoin="round"><path stroke="none" d="M0 0h24v24H0z" fill="none"/><path d="M12.841 21.309a1.945 1.945 0 0 1 -1.682 0l-7.035 -3.365a1.99 1.99 0 0 1 -1.064 -2.278l2.538 -10.158a1.98 1.98 0 0 1 1.11 -1.328l4.496 -2.01a1.95 1.95 0 0 1 1.59 0l4.496 2.01c.554 .246 .963 .736 1.112 1.328l1.67 6.683" /><path d="M18 4.82l-5.198 2.324a1.963 1.963 0 0 1 -1.602 0l-5.2 -2.325" /><path d="M12 7.32v14.18" /><path d="M16 19h6" /><path d="M19 16v6" />
</symbol>
	<symbol id="frustum" class="icon icon-tabler icon-tabler-frustum" viewBox="0 0 24 24" stroke-width="2" stroke="currentColor" fill="none" stroke-linecap="round" stroke-linejoin="round"><path stroke="none" d="M0 0h24v24H0z" fill="none"/><path d="M18.402 5.508l2.538 10.158a1.99 1.99 0 0 1 -1.064 2.278l-7.036 3.366a1.945 1.945 0 0 1 -1.682 0l-7.035 -3.365a1.99 1.99 0 0 1 -1.064 -2.278l2.539 -10.159a1.98 1.98 0 0 1 1.11 -1.328l4.496 -2.01a1.95 1.95 0 0 1 1.59 0l4.496 2.01c.554 .246 .963 .736 1.112 1.328z" /><path d="M18 4.82l-5.198 2.324a1.963 1.963 0 0 1 -1.602 0l-5.2 -2.325" /><path d="M12 7.32v14.18" />
</symbol>
	<symbol id="hemisphere-off" class="icon icon-tabler icon-tabler-hemisphere-off" viewBox="0 0 24 24" stroke-width="2" stroke="currentColor" fill="none" stroke-linecap="round" stroke-linejoin="round"><path stroke="none" d="M0 0h24v24H0z" fill="none"/><path d="M6.588 6.603c-2.178 .547 -3.588 1.417 -3.588 2.397c0 1.657 4.03 3 9 3m3.72 -.267c3.114 -.473 5.28 -1.518 5.28 -2.733c0 -1.657 -4.03 -3 -9 -3c-.662 0 -1.308 .024 -1.93 .07" /><path d="M3 9a9 9 0 0 0 13.677 7.69m2.165 -1.843a8.965 8.965 0 0 0 2.158 -5.847" /><path d="M3 3l18 18" />
</symbol>
	<symbol id="hemisphere-plus" class="icon icon-tabler icon-tabler-hemisphere-plus" viewBox="0 0 24 24" stroke-width="2" stroke="currentColor" fill="none" stroke-linecap="round" stroke-linejoin="round"><path stroke="none" d="M0 0h24v24H0z" fill="none"/><path d="M12 9m-9 0a9 3 0 1 0 18 0a9 3 0 1 0 -18 0" /><path d="M3 9a9 9 0 0 0 9 9m8.396 -5.752a8.978 8.978 0 0 0 .604 -3.248" /><path d="M16 19h6" /><path d="M19 16v6" />
</symbol>
	<symbol id="hemisphere" class="icon icon-tabler icon-tabler-hemisphere" viewBox="0 0 24 24" stroke-width="2" stroke="currentColor" fill="none" stroke-linecap="round" stroke-linejoin="round"><path stroke="none" d="M0 0h24v24H0z" fill="none"/><path d="M12 9m-9 0a9 3 0 1 0 18 0a9 3 0 1 0 -18 0" /><path d="M3 9a9 9 0 0 0 18 0" />
</symbol>
	<symbol id="hexagonal-prism-off" class="icon icon-tabler icon-tabler-hexagonal-prism-off" viewBox="0 0 24 24" stroke-width="2" stroke="currentColor" fill="none" stroke-linecap="round" stroke-linejoin="round"><path stroke="none" d="M0 0h24v24H0z" fill="none"/><path d="M20.792 6.996l-3.775 2.643a2.005 2.005 0 0 1 -1.147 .361h-1.87m-4 0h-1.87c-.41 0 -.81 -.126 -1.146 -.362l-3.774 -2.641" /><path d="M8 10v11" /><path d="M16 10v2m0 4v5" /><path d="M20.972 16.968a2.01 2.01 0 0 0 .028 -.337v-9.262c0 -.655 -.318 -1.268 -.853 -1.643l-3.367 -2.363a2 2 0 0 0 -1.147 -.363h-7.266a1.99 1.99 0 0 0 -1.066 .309m-2.345 1.643l-1.103 .774a2.006 2.006 0 0 0 -.853 1.644v9.261c0 .655 .318 1.269 .853 1.644l3.367 2.363a2 2 0 0 0 1.147 .362h7.265c.41 0 .811 -.126 1.147 -.363l2.26 -1.587" /><path d="M3 3l18 18" />
</symbol>
	<symbol id="hexagonal-prism-plus" class="icon icon-tabler icon-tabler-hexagonal-prism-plus" viewBox="0 0 24 24" stroke-width="2" stroke="currentColor" fill="none" stroke-linecap="round" stroke-linejoin="round"><path stroke="none" d="M0 0h24v24H0z" fill="none"/><path d="M20.792 6.996l-3.775 2.643a2.005 2.005 0 0 1 -1.147 .361h-7.74c-.41 0 -.81 -.126 -1.146 -.362l-3.774 -2.641" /><path d="M8 10v11" /><path d="M16 10v3.5" /><path d="M21 12.5v-5.131c0 -.655 -.318 -1.268 -.853 -1.643l-3.367 -2.363a2 2 0 0 0 -1.147 -.363h-7.266c-.41 0 -.811 .126 -1.147 .363l-3.367 2.363a2.006 2.006 0 0 0 -.853 1.644v9.261c0 .655 .318 1.269 .853 1.644l3.367 2.363a2 2 0 0 0 1.147 .362h4.133" /><path d="M16 19h6" /><path d="M19 16v6" />
</symbol>
	<symbol id="hexagonal-prism" class="icon icon-tabler icon-tabler-hexagonal-prism" viewBox="0 0 24 24" stroke-width="2" stroke="currentColor" fill="none" stroke-linecap="round" stroke-linejoin="round"><path stroke="none" d="M0 0h24v24H0z" fill="none"/><path d="M20.792 6.996l-3.775 2.643a2.005 2.005 0 0 1 -1.147 .361h-7.74c-.41 0 -.81 -.126 -1.146 -.362l-3.774 -2.641" /><path d="M8 10v11" /><path d="M16 10v11" /><path d="M3.853 18.274l3.367 2.363a2 2 0 0 0 1.147 .363h7.265c.41 0 .811 -.126 1.147 -.363l3.367 -2.363c.536 -.375 .854 -.99 .854 -1.643v-9.262c0 -.655 -.318 -1.268 -.853 -1.643l-3.367 -2.363a2 2 0 0 0 -1.147 -.363h-7.266c-.41 0 -.811 .126 -1.147 .363l-3.367 2.363a2.006 2.006 0 0 0 -.853 1.644v9.261c0 .655 .318 1.269 .853 1.644z" />
</symbol>
	<symbol id="hexagonal-pyramid-off" class="icon icon-tabler icon-tabler-hexagonal-pyramid-off" viewBox="0 0 24 24" stroke-width="2" stroke="currentColor" fill="none" stroke-linecap="round" stroke-linejoin="round"><path stroke="none" d="M0 0h24v24H0z" fill="none"/><path d="M7.877 7.88l-4.56 7.53a1.988 1.988 0 0 0 .266 2.484l2.527 2.523c.374 .373 .88 .583 1.408 .583h8.964c.528 0 1.034 -.21 1.408 -.583l1.264 -1.263m1.792 -2.205a1.986 1.986 0 0 0 -.262 -1.538l-7.846 -12.954a.996 .996 0 0 0 -1.676 0l-1.772 2.926" /><path d="M12 2l-1.254 4.742m-.841 3.177l-2.905 10.981" /><path d="M12 2l2.153 8.14m1.444 5.457l1.403 5.303" /><path d="M3 3l18 18" />
</symbol>
	<symbol id="hexagonal-pyramid-plus" class="icon icon-tabler icon-tabler-hexagonal-pyramid-plus" viewBox="0 0 24 24" stroke-width="2" stroke="currentColor" fill="none" stroke-linecap="round" stroke-linejoin="round"><path stroke="none" d="M0 0h24v24H0z" fill="none"/><path d="M18.642 12.04l-5.804 -9.583a.996 .996 0 0 0 -1.676 0l-7.846 12.954a1.988 1.988 0 0 0 .267 2.483l2.527 2.523c.374 .373 .88 .583 1.408 .583h4.982" /><path d="M12 2l-5 18.9" /><path d="M12 2l3.304 12.489" /><path d="M16 19h6" /><path d="M19 16v6" />
</symbol>
	<symbol id="hexagonal-pyramid" class="icon icon-tabler icon-tabler-hexagonal-pyramid" viewBox="0 0 24 24" stroke-width="2" stroke="currentColor" fill="none" stroke-linecap="round" stroke-linejoin="round"><path stroke="none" d="M0 0h24v24H0z" fill="none"/><path d="M11.162 2.457l-7.846 12.954a1.988 1.988 0 0 0 .267 2.483l2.527 2.523c.374 .373 .88 .583 1.408 .583h8.964c.528 0 1.034 -.21 1.408 -.583l2.527 -2.523a1.988 1.988 0 0 0 .267 -2.483l-7.846 -12.954a.996 .996 0 0 0 -1.676 0z" /><path d="M12 2l-5 18.9" /><path d="M12 2l5 18.9" />
</symbol>
	<symbol id="irregular-polyhedron-off" class="icon icon-tabler icon-tabler-irregular-polyhedron-off" viewBox="0 0 24 24" stroke-width="2" stroke="currentColor" fill="none" stroke-linecap="round" stroke-linejoin="round"><path stroke="none" d="M0 0h24v24H0z" fill="none"/><path d="M4.706 4.73a1 1 0 0 0 -.458 1.14l1.752 6.13l-1.752 6.13a1 1 0 0 0 .592 1.205l6.282 2.503a2.46 2.46 0 0 0 1.756 0l6.282 -2.503c.04 -.016 .079 -.035 .116 -.055m-.474 -4.474l-.802 -2.806l1.752 -6.13a1 1 0 0 0 -.592 -1.205l-6.282 -2.503a2.46 2.46 0 0 0 -1.756 0l-3.544 1.412" /><path d="M4.5 5.5c.661 .214 1.161 .38 1.5 .5m6 2c.29 -.003 .603 -.06 .878 -.17l6.622 -2.33" /><path d="M6 12l5.21 1.862a2.34 2.34 0 0 0 1.58 0l.742 -.265m2.956 -1.057c.312 -.11 .816 -.291 1.512 -.54" /><path d="M12 22v-10" /><path d="M3 3l18 18" />
</symbol>
	<symbol id="irregular-polyhedron-plus" class="icon icon-tabler icon-tabler-irregular-polyhedron-plus" viewBox="0 0 24 24" stroke-width="2" stroke="currentColor" fill="none" stroke-linecap="round" stroke-linejoin="round"><path stroke="none" d="M0 0h24v24H0z" fill="none"/><path d="M18 12l1.752 -6.13a1 1 0 0 0 -.592 -1.205l-6.282 -2.503a2.46 2.46 0 0 0 -1.756 0l-6.282 2.503a1 1 0 0 0 -.592 1.204l1.752 6.131l-1.752 6.13a1 1 0 0 0 .592 1.205l6.282 2.503a2.46 2.46 0 0 0 1.756 0l.221 -.088" /><path d="M4.5 5.5l6.622 2.33a2.35 2.35 0 0 0 1.756 0l6.622 -2.33" /><path d="M6 12l5.21 1.862a2.34 2.34 0 0 0 1.58 0l5.21 -1.862" /><path d="M12 22v-14" /><path d="M16 19h6" /><path d="M19 16v6" />
</symbol>
	<symbol id="irregular-polyhedron" class="icon icon-tabler icon-tabler-irregular-polyhedron" viewBox="0 0 24 24" stroke-width="2" stroke="currentColor" fill="none" stroke-linecap="round" stroke-linejoin="round"><path stroke="none" d="M0 0h24v24H0z" fill="none"/><path d="M6 12l-1.752 6.13a1 1 0 0 0 .592 1.205l6.282 2.503a2.46 2.46 0 0 0 1.756 0l6.282 -2.503a1 1 0 0 0 .592 -1.204l-1.752 -6.131l1.752 -6.13a1 1 0 0 0 -.592 -1.205l-6.282 -2.503a2.46 2.46 0 0 0 -1.756 0l-6.282 2.503a1 1 0 0 0 -.592 1.204l1.752 6.131z" /><path d="M4.5 5.5l6.622 2.33a2.35 2.35 0 0 0 1.756 0l6.622 -2.33" /><path d="M6 12l5.21 1.862a2.34 2.34 0 0 0 1.58 0l5.21 -1.862" /><path d="M12 22v-14" />
</symbol>
	<symbol id="octahedron-off" class="icon icon-tabler icon-tabler-octahedron-off" viewBox="0 0 24 24" stroke-width="2" stroke="currentColor" fill="none" stroke-linecap="round" stroke-linejoin="round"><path stroke="none" d="M0 0h24v24H0z" fill="none"/><path d="M6.771 6.77l-4.475 4.527a.984 .984 0 0 0 0 1.407l8.845 8.949a1.234 1.234 0 0 0 1.718 -.001l4.36 -4.412m2.002 -2.025l2.483 -2.512a.984 .984 0 0 0 0 -1.407l-8.845 -8.948a1.233 1.233 0 0 0 -1.718 0l-2.375 2.403" /><path d="M2 12c.004 .086 .103 .178 .296 .246l8.845 2.632c.459 .163 1.259 .163 1.718 0l1.544 -.46m3.094 -.92l4.207 -1.252c.195 -.07 .294 -.156 .296 -.243" /><path d="M12 2.12v5.88m0 4v9.88" /><path d="M3 3l18 18" />
</symbol>
	<symbol id="octahedron-plus" class="icon icon-tabler icon-tabler-octahedron-plus" viewBox="0 0 24 24" stroke-width="2" stroke="currentColor" fill="none" stroke-linecap="round" stroke-linejoin="round"><path stroke="none" d="M0 0h24v24H0z" fill="none"/><path d="M21.498 12.911l.206 -.208a.984 .984 0 0 0 0 -1.407l-8.845 -8.948a1.233 1.233 0 0 0 -1.718 0l-8.845 8.949a.984 .984 0 0 0 0 1.407l8.845 8.949a1.234 1.234 0 0 0 1.718 -.001l.08 -.081" /><path d="M2 12c.004 .086 .103 .178 .296 .246l8.845 2.632c.459 .163 1.259 .163 1.718 0l2.634 -.784m5.41 -1.61l.801 -.238c.195 -.07 .294 -.156 .296 -.243" /><path d="M12 2.12v19.76" /><path d="M16 19h6" /><path d="M19 16v6" />
</symbol>
	<symbol id="octahedron" class="icon icon-tabler icon-tabler-octahedron" viewBox="0 0 24 24" stroke-width="2" stroke="currentColor" fill="none" stroke-linecap="round" stroke-linejoin="round"><path stroke="none" d="M0 0h24v24H0z" fill="none"/><path d="M12.859 21.652l8.845 -8.949a.984 .984 0 0 0 0 -1.407l-8.845 -8.948a1.233 1.233 0 0 0 -1.718 0l-8.845 8.949a.984 .984 0 0 0 0 1.407l8.845 8.949a1.234 1.234 0 0 0 1.718 -.001z" /><path d="M2 12c.004 .086 .103 .178 .296 .246l8.845 2.632c.459 .163 1.259 .163 1.718 0l8.845 -2.632c.195 -.07 .294 -.156 .296 -.243" /><path d="M12 2.12v19.76" />
</symbol>
	<symbol id="prism-off" class="icon icon-tabler icon-tabler-prism-off" viewBox="0 0 24 24" stroke-width="2" stroke="currentColor" fill="none" stroke-linecap="round" stroke-linejoin="round"><path stroke="none" d="M0 0h24v24H0z" fill="none"/><path d="M12 12v10" /><path d="M17.957 17.952l-4.937 3.703a1.7 1.7 0 0 1 -2.04 0l-5.98 -4.485a2.5 2.5 0 0 1 -1 -2v-11.17m3 -1h12a1 1 0 0 1 1 1v11.17c0 .25 -.037 .495 -.109 .729" /><path d="M12.688 8.7a1.7 1.7 0 0 0 .357 -.214l6.655 -5.186" /><path d="M3 3l18 18" />
</symbol>
	<symbol id="prism-plus" class="icon icon-tabler icon-tabler-prism-plus" viewBox="0 0 24 24" stroke-width="2" stroke="currentColor" fill="none" stroke-linecap="round" stroke-linejoin="round"><path stroke="none" d="M0 0h24v24H0z" fill="none"/><path d="M12 9v13" /><path d="M13.02 21.655a1.7 1.7 0 0 1 -2.04 0l-5.98 -4.485a2.5 2.5 0 0 1 -1 -2v-11.17a1 1 0 0 1 1 -1h14a1 1 0 0 1 1 1v8" /><path d="M4.3 3.3l6.655 5.186a1.7 1.7 0 0 0 2.09 0l6.655 -5.186" /><path d="M16 19h6" /><path d="M19 16v6" />
</symbol>
	<symbol id="prism" class="icon icon-tabler icon-tabler-prism" viewBox="0 0 24 24" stroke-width="2" stroke="currentColor" fill="none" stroke-linecap="round" stroke-linejoin="round"><path stroke="none" d="M0 0h24v24H0z" fill="none"/><path d="M12 9v13" /><path d="M19 17.17l-5.98 4.485a1.7 1.7 0 0 1 -2.04 0l-5.98 -4.485a2.5 2.5 0 0 1 -1 -2v-11.17a1 1 0 0 1 1 -1h14a1 1 0 0 1 1 1v11.17a2.5 2.5 0 0 1 -1 2z" /><path d="M4.3 3.3l6.655 5.186a1.7 1.7 0 0 0 2.09 0l6.655 -5.186" />
</symbol>
	<symbol id="pyramid-plus" class="icon icon-tabler icon-tabler-pyramid-plus" viewBox="0 0 24 24" stroke-width="2" stroke="currentColor" fill="none" stroke-linecap="round" stroke-linejoin="round"><path stroke="none" d="M0 0h24v24H0z" fill="none"/><path d="M18.719 11.985l-5.889 -9.539a.999 .999 0 0 0 -1.664 0l-8.54 13.836a1.005 1.005 0 0 0 .386 1.452l8.092 4.054a1.994 1.994 0 0 0 1.789 0l.149 -.074" /><path d="M12 2v20" /><path d="M16 19h6" /><path d="M19 16v6" />
</symbol>
	<symbol id="rectangular-prism-off" class="icon icon-tabler icon-tabler-rectangular-prism-off" viewBox="0 0 24 24" stroke-width="2" stroke="currentColor" fill="none" stroke-linecap="round" stroke-linejoin="round"><path stroke="none" d="M0 0h24v24H0z" fill="none"/><path d="M8.18 8.18l-4.18 2.093c-.619 .355 -1 1.01 -1 1.718v5.018c0 .709 .381 1.363 1 1.717l4 2.008a2.016 2.016 0 0 0 2 0l7.146 -3.578m2.67 -1.337l.184 -.093c.619 -.355 1 -1.01 1 -1.718v-5.018a1.98 1.98 0 0 0 -1 -1.717l-4 -2.008a2.016 2.016 0 0 0 -2 0l-3.146 1.575" /><path d="M9 21v-7.5" /><path d="M9 13.5l3.048 -1.458m2.71 -1.296l5.742 -2.746" /><path d="M3.5 11l5.5 2.5" /><path d="M3 3l18 18" />
</symbol>
	<symbol id="rectangular-prism-plus" class="icon icon-tabler icon-tabler-rectangular-prism-plus" viewBox="0 0 24 24" stroke-width="2" stroke="currentColor" fill="none" stroke-linecap="round" stroke-linejoin="round"><path stroke="none" d="M0 0h24v24H0z" fill="none"/><path d="M21 12.5v-3.509a1.98 1.98 0 0 0 -1 -1.717l-4 -2.008a2.016 2.016 0 0 0 -2 0l-10 5.007c-.619 .355 -1 1.01 -1 1.718v5.018c0 .709 .381 1.363 1 1.717l4 2.008a2.016 2.016 0 0 0 2 0l2.062 -1.032" /><path d="M9 21v-7.5" /><path d="M9 13.5l11.5 -5.5" /><path d="M3.5 11l5.5 2.5" /><path d="M16 19h6" /><path d="M19 16v6" />
</symbol>
	<symbol id="rectangular-prism" class="icon icon-tabler icon-tabler-rectangular-prism" viewBox="0 0 24 24" stroke-width="2" stroke="currentColor" fill="none" stroke-linecap="round" stroke-linejoin="round"><path stroke="none" d="M0 0h24v24H0z" fill="none"/><path d="M21 14.008v-5.018a1.98 1.98 0 0 0 -1 -1.717l-4 -2.008a2.016 2.016 0 0 0 -2 0l-10 5.008c-.619 .355 -1 1.01 -1 1.718v5.018c0 .709 .381 1.363 1 1.717l4 2.008a2.016 2.016 0 0 0 2 0l10 -5.008c.619 -.355 1 -1.01 1 -1.718z" /><path d="M9 21v-7.5" /><path d="M9 13.5l11.5 -5.5" /><path d="M3.5 11l5.5 2.5" />
</symbol>
	<symbol id="sphere-off" class="icon icon-tabler icon-tabler-sphere-off" viewBox="0 0 24 24" stroke-width="2" stroke="currentColor" fill="none" stroke-linecap="round" stroke-linejoin="round"><path stroke="none" d="M0 0h24v24H0z" fill="none"/><path d="M3 12c0 1.657 4.03 3 9 3c.987 0 1.936 -.053 2.825 -.15m3.357 -.67c1.735 -.547 2.818 -1.32 2.818 -2.18" /><path d="M20.051 16.027a9 9 0 0 0 -12.083 -12.075m-2.34 1.692a9 9 0 0 0 12.74 12.716" /><path d="M3 3l18 18" />
</symbol>
	<symbol id="sphere-plus" class="icon icon-tabler icon-tabler-sphere-plus" viewBox="0 0 24 24" stroke-width="2" stroke="currentColor" fill="none" stroke-linecap="round" stroke-linejoin="round"><path stroke="none" d="M0 0h24v24H0z" fill="none"/><path d="M3 12c0 1.657 4.03 3 9 3c1.116 0 2.185 -.068 3.172 -.192m5.724 -2.35a1.1 1.1 0 0 0 .104 -.458" /><path d="M20.984 12.546a9 9 0 1 0 -8.442 8.438" /><path d="M16 19h6" /><path d="M19 16v6" />
</symbol>
	<symbol id="sphere" class="icon icon-tabler icon-tabler-sphere" viewBox="0 0 24 24" stroke-width="2" stroke="currentColor" fill="none" stroke-linecap="round" stroke-linejoin="round"><path stroke="none" d="M0 0h24v24H0z" fill="none"/><path d="M3 12c0 1.657 4.03 3 9 3s9 -1.343 9 -3" /><path d="M12 12m-9 0a9 9 0 1 0 18 0a9 9 0 1 0 -18 0" />
</symbol>

	<use xlink:href="#cone-plus" x="24" y="24" width="24" height="24" />
	<use xlink:href="#cube-off" x="68" y="24" width="24" height="24" />
	<use xlink:href="#cube-plus" x="112" y="24" width="24" height="24" />
	<use xlink:href="#cube" x="156" y="24" width="24" height="24" />
	<use xlink:href="#cylinder-off" x="200" y="24" width="24" height="24" />
	<use xlink:href="#cylinder-plus" x="244" y="24" width="24" height="24" />
	<use xlink:href="#diabolo-off" x="24" y="68" width="24" height="24" />
	<use xlink:href="#diabolo-plus" x="68" y="68" width="24" height="24" />
	<use xlink:href="#diabolo" x="112" y="68" width="24" height="24" />
	<use xlink:href="#frustum-off" x="156" y="68" width="24" height="24" />
	<use xlink:href="#frustum-plus" x="200" y="68" width="24" height="24" />
	<use xlink:href="#frustum" x="244" y="68" width="24" height="24" />
	<use xlink:href="#hemisphere-off" x="24" y="112" width="24" height="24" />
	<use xlink:href="#hemisphere-plus" x="68" y="112" width="24" height="24" />
	<use xlink:href="#hemisphere" x="112" y="112" width="24" height="24" />
	<use xlink:href="#hexagonal-prism-off" x="156" y="112" width="24" height="24" />
	<use xlink:href="#hexagonal-prism-plus" x="200" y="112" width="24" height="24" />
	<use xlink:href="#hexagonal-prism" x="244" y="112" width="24" height="24" />
	<use xlink:href="#hexagonal-pyramid-off" x="24" y="156" width="24" height="24" />
	<use xlink:href="#hexagonal-pyramid-plus" x="68" y="156" width="24" height="24" />
	<use xlink:href="#hexagonal-pyramid" x="112" y="156" width="24" height="24" />
	<use xlink:href="#irregular-polyhedron-off" x="156" y="156" width="24" height="24" />
	<use xlink:href="#irregular-polyhedron-plus" x="200" y="156" width="24" height="24" />
	<use xlink:href="#irregular-polyhedron" x="244" y="156" width="24" height="24" />
	<use xlink:href="#octahedron-off" x="24" y="200" width="24" height="24" />
	<use xlink:href="#octahedron-plus" x="68" y="200" width="24" height="24" />
	<use xlink:href="#octahedron" x="112" y="200" width="24" height="24" />
	<use xlink:href="#prism-off" x="156" y="200" width="24" height="24" />
	<use xlink:href="#prism-plus" x="200" y="200" width="24" height="24" />
	<use xlink:href="#prism" x="244" y="200" width="24" height="24" />
	<use xlink:href="#pyramid-plus" x="24" y="244" width="24" height="24" />
	<use xlink:href="#rectangular-prism-off" x="68" y="244" width="24" height="24" />
	<use xlink:href="#rectangular-prism-plus" x="112" y="244" width="24" height="24" />
	<use xlink:href="#rectangular-prism" x="156" y="244" width="24" height="24" />
	<use xlink:href="#sphere-off" x="200" y="244" width="24" height="24" />
	<use xlink:href="#sphere-plus" x="244" y="244" width="24" height="24" />
	<use xlink:href="#sphere" x="24" y="288" width="24" height="24" />

</svg>