<svg xmlns="http://www.w3.org/2000/svg" xmlns:xlink="http://www.w3.org/1999/xlink" viewBox="0 0 332 176" width="332" height="176" style="color: #354052"><rect x="0" y="0" width="332" height="176" fill="#fff"></rect>
	<symbol id="apps" class="icon icon-tabler icon-tabler-apps" viewBox="0 0 24 24" stroke-width="2" stroke="currentColor" fill="none" stroke-linecap="round" stroke-linejoin="round"><path stroke="none" d="M0 0h24v24H0z"/><rect x="4" y="4" width="6" height="6" rx="1" /><rect x="4" y="14" width="6" height="6" rx="1" /><rect x="14" y="14" width="6" height="6" rx="1" /><line x1="14" y1="7" x2="20" y2="7" /><line x1="17" y1="4" x2="17" y2="10" />
</symbol>
	<symbol id="browser" class="icon icon-tabler icon-tabler-browser" viewBox="0 0 24 24" stroke-width="2" stroke="currentColor" fill="none" stroke-linecap="round" stroke-linejoin="round"><path stroke="none" d="M0 0h24v24H0z"/><rect x="4" y="4" width="16" height="16" rx="1" /><line x1="4" y1="8" x2="20" y2="8" /><line x1="8" y1="4" x2="8" y2="8" />
</symbol>
	<symbol id="brush" class="icon icon-tabler icon-tabler-brush" viewBox="0 0 24 24" stroke-width="2" stroke="currentColor" fill="none" stroke-linecap="round" stroke-linejoin="round"><path stroke="none" d="M0 0h24v24H0z"/><path d="M3 21v-4a4 4 0 1 1 4 4h-4" /><path d="M21 3a16 16 0 0 0 -12.8 10.2" /><path d="M21 3a16 16 0 0 1 -10.2 12.8" /><path d="M10.6 9a9 9 0 0 1 4.4 4.4" />
</symbol>
	<symbol id="calendar-minus" class="icon icon-tabler icon-tabler-calendar-minus" viewBox="0 0 24 24" stroke-width="2" stroke="currentColor" fill="none" stroke-linecap="round" stroke-linejoin="round"><path stroke="none" d="M0 0h24v24H0z"/><rect x="4" y="5" width="16" height="16" rx="2" /><line x1="16" y1="3" x2="16" y2="7" /><line x1="8" y1="3" x2="8" y2="7" /><line x1="4" y1="11" x2="20" y2="11" /><line x1="10" y1="16" x2="14" y2="16" />
</symbol>
	<symbol id="calendar-plus" class="icon icon-tabler icon-tabler-calendar-plus" viewBox="0 0 24 24" stroke-width="2" stroke="currentColor" fill="none" stroke-linecap="round" stroke-linejoin="round"><path stroke="none" d="M0 0h24v24H0z"/><rect x="4" y="5" width="16" height="16" rx="2" /><line x1="16" y1="3" x2="16" y2="7" /><line x1="8" y1="3" x2="8" y2="7" /><line x1="4" y1="11" x2="20" y2="11" /><line x1="10" y1="16" x2="14" y2="16" /><line x1="12" y1="14" x2="12" y2="18" />
</symbol>
	<symbol id="car" class="icon icon-tabler icon-tabler-car" viewBox="0 0 24 24" stroke-width="2" stroke="currentColor" fill="none" stroke-linecap="round" stroke-linejoin="round"><path stroke="none" d="M0 0h24v24H0z"/><circle cx="7" cy="17" r="2" /><circle cx="17" cy="17" r="2" /><path d="M5 17h-2v-6l2-5h9l4 5h1a2 2 0 0 1 2 2v4h-2m-4 0h-6m-6 -6h15m-6 0v-5" />
</symbol>
	<symbol id="click" class="icon icon-tabler icon-tabler-click" viewBox="0 0 24 24" stroke-width="2" stroke="currentColor" fill="none" stroke-linecap="round" stroke-linejoin="round"><path stroke="none" d="M0 0h24v24H0z"/><line x1="3" y1="12" x2="6" y2="12" /><line x1="12" y1="3" x2="12" y2="6" /><line x1="7.8" y1="7.8" x2="5.6" y2="5.6" /><line x1="16.2" y1="7.8" x2="18.4" y2="5.6" /><line x1="7.8" y1="16.2" x2="5.6" y2="18.4" /><path d="M12 12l10 4l-4 2l-2 4l-4 -10" />
</symbol>
	<symbol id="discount" class="icon icon-tabler icon-tabler-discount" viewBox="0 0 24 24" stroke-width="2" stroke="currentColor" fill="none" stroke-linecap="round" stroke-linejoin="round"><path stroke="none" d="M0 0h24v24H0z"/><line x1="9" y1="15" x2="15" y2="9" /><circle cx="9.5" cy="9.5" r=".5" /><circle cx="14.5" cy="14.5" r=".5" /><path d="M5 7.2a2.2 2.2 0 0 1 2.2 -2.2h1a2.2 2.2 0 0 0 1.55 -.64l.7 -.7a2.2 2.2 0 0 1 3.12 0l.7 .7a2.2 2.2 0 0 0 1.55 .64h1a2.2 2.2 0 0 1 2.2 2.2v1a2.2 2.2 0 0 0 .64 1.55l.7 .7a2.2 2.2 0 0 1 0 3.12l-.7 .7a2.2 2.2 0 0 0 -.64 1.55 v1a2.2 2.2 0 0 1 -2.2 2.2h-1a2.2 2.2 0 0 0 -1.55 .64l-.7 .7a2.2 2.2 0 0 1 -3.12 0l-.7 -.7a2.2 2.2 0 0 0 -1.55 -.64h-1a2.2 2.2 0 0 1 -2.2 -2.2v-1a2.2 2.2 0 0 0 -.64 -1.55l-.7 -.7a2.2 2.2 0 0 1 0 -3.12l.7 -.7a2.2 2.2 0 0 0 .64 -1.55 v-1" />
</symbol>
	<symbol id="language" class="icon icon-tabler icon-tabler-language" viewBox="0 0 24 24" stroke-width="2" stroke="currentColor" fill="none" stroke-linecap="round" stroke-linejoin="round"><path stroke="none" d="M0 0h24v24H0z"/><path d="M5 7h7m-2 -2v2a5 7 0 0 1 -5 8m1 -4a7 4 0 0 0 6.7 4" /><path d="M11 19l4 -9l4 9m-.9 -2h-6.2" />
</symbol>
	<symbol id="letter-case" class="icon icon-tabler icon-tabler-letter-case" viewBox="0 0 24 24" stroke-width="2" stroke="currentColor" fill="none" stroke-linecap="round" stroke-linejoin="round"><path stroke="none" d="M0 0h24v24H0z"/><circle cx="18" cy="16" r="3" /><line x1="21" y1="13" x2="21" y2="19" /><path d="M3 19l5 -13l5 13" /><line x1="5" y1="14" x2="11" y2="14" />
</symbol>
	<symbol id="license" class="icon icon-tabler icon-tabler-license" viewBox="0 0 24 24" stroke-width="2" stroke="currentColor" fill="none" stroke-linecap="round" stroke-linejoin="round"><path stroke="none" d="M0 0h24v24H0z"/><path d="M15 21h-9a3 3 0 0 1 -3 -3v-1h10v2a2 2 0 0 0 4 0v-14a2 2 0 1 1 2 2h-2m2 -4h-11a3 3 0 0 0 -3 3v11" /><line x1="9" y1="7" x2="13" y2="7" /><line x1="9" y1="11" x2="13" y2="11" />
</symbol>
	<symbol id="new-section" class="icon icon-tabler icon-tabler-new-section" viewBox="0 0 24 24" stroke-width="2" stroke="currentColor" fill="none" stroke-linecap="round" stroke-linejoin="round"><path stroke="none" d="M0 0h24v24H0z"/><line x1="9" y1="12" x2="15" y2="12" /><line x1="12" y1="9" x2="12" y2="15" /><path d="M4 6v-1a1 1 0 0 1 1 -1h1m5 0h2m5 0h1a1 1 0 0 1 1 1v1m0 5v2m0 5v1a1 1 0 0 1 -1 1h-1m-5 0h-2m-5 0h-1a1 1 0 0 1 -1 -1v-1m0 -5v-2m0 -5" />
</symbol>
	<symbol id="scale" class="icon icon-tabler icon-tabler-scale" viewBox="0 0 24 24" stroke-width="2" stroke="currentColor" fill="none" stroke-linecap="round" stroke-linejoin="round"><path stroke="none" d="M0 0h24v24H0z"/><line x1="12" y1="3" x2="12" y2="21" /><line x1="9" y1="21" x2="15" y2="21" /><polyline points="3 6 6 7 12 5 18 7 21 6" /><path d="M6 7l-3 9a5 5 0 0 0 6 0l-3 -9" /><path d="M18 7l-3 9a5 5 0 0 0 6 0l-3 -9" />
</symbol>
	<symbol id="tax" class="icon icon-tabler icon-tabler-tax" viewBox="0 0 24 24" stroke-width="2" stroke="currentColor" fill="none" stroke-linecap="round" stroke-linejoin="round"><path stroke="none" d="M0 0h24v24H0z"/><line x1="9" y1="14" x2="15" y2="8" /><circle cx="9.5" cy="8.5" r=".5" /><circle cx="14.5" cy="13.5" r=".5" /><path d="M5 21v-16a2 2 0 0 1 2 -2h10a2 2 0 0 1 2 2v16l-3 -2l-2 2l-2 -2l-2 2l-2 -2l-3 2" />
</symbol>
	<symbol id="truck" class="icon icon-tabler icon-tabler-truck" viewBox="0 0 24 24" stroke-width="2" stroke="currentColor" fill="none" stroke-linecap="round" stroke-linejoin="round"><path stroke="none" d="M0 0h24v24H0z"/><circle cx="7" cy="17" r="2" /><circle cx="17" cy="17" r="2" /><path d="M5 17h-2v-11a1 1 0 0 1 1 -1h9v12m-4 0h6m4 0h2v-6h-8m0 -5h5l3 5" />
</symbol>
	<symbol id="typography" class="icon icon-tabler icon-tabler-typography" viewBox="0 0 24 24" stroke-width="2" stroke="currentColor" fill="none" stroke-linecap="round" stroke-linejoin="round"><path stroke="none" d="M0 0h24v24H0z"/><line x1="4" y1="20" x2="7" y2="20" /><line x1="14" y1="20" x2="21" y2="20" /><line x1="6.9" y1="15" x2="13.8" y2="15" /><line x1="10.2" y1="6.3" x2="16" y2="20" /><polyline points="5 20 11 4 13 4 20 20" />
</symbol>

	<use xlink:href="#apps" x="24" y="24" width="24" height="24" />
	<use xlink:href="#browser" x="76" y="24" width="24" height="24" />
	<use xlink:href="#brush" x="128" y="24" width="24" height="24" />
	<use xlink:href="#calendar-minus" x="180" y="24" width="24" height="24" />
	<use xlink:href="#calendar-plus" x="232" y="24" width="24" height="24" />
	<use xlink:href="#car" x="284" y="24" width="24" height="24" />
	<use xlink:href="#click" x="24" y="76" width="24" height="24" />
	<use xlink:href="#discount" x="76" y="76" width="24" height="24" />
	<use xlink:href="#language" x="128" y="76" width="24" height="24" />
	<use xlink:href="#letter-case" x="180" y="76" width="24" height="24" />
	<use xlink:href="#license" x="232" y="76" width="24" height="24" />
	<use xlink:href="#new-section" x="284" y="76" width="24" height="24" />
	<use xlink:href="#scale" x="24" y="128" width="24" height="24" />
	<use xlink:href="#tax" x="76" y="128" width="24" height="24" />
	<use xlink:href="#truck" x="128" y="128" width="24" height="24" />
	<use xlink:href="#typography" x="180" y="128" width="24" height="24" />

</svg>