<svg xmlns="http://www.w3.org/2000/svg" xmlns:xlink="http://www.w3.org/1999/xlink" viewBox="0 0 292 160" width="292" height="160" style="color: #354052"><rect x="0" y="0" width="292" height="160" fill="#fff"></rect>
	<symbol id="outline-align-left-2" xmlns="http://www.w3.org/2000/svg" width="24" height="24" viewBox="0 0 24 24" fill="none" stroke="currentColor" stroke-width="2" stroke-linecap="round" stroke-linejoin="round"
> <path d="M4 4v16" /> <path d="M8 6h12" /> <path d="M8 12h6" /> <path d="M8 18h10" />
</symbol>
	<symbol id="outline-align-right-2" xmlns="http://www.w3.org/2000/svg" width="24" height="24" viewBox="0 0 24 24" fill="none" stroke="currentColor" stroke-width="2" stroke-linecap="round" stroke-linejoin="round"
> <path d="M20 4v16" /> <path d="M4 6h12" /> <path d="M10 12h6" /> <path d="M6 18h10" />
</symbol>
	<symbol id="outline-binoculars" xmlns="http://www.w3.org/2000/svg" width="24" height="24" viewBox="0 0 24 24" fill="none" stroke="currentColor" stroke-width="2" stroke-linecap="round" stroke-linejoin="round"
> <path d="M7 16m-3 0a3 3 0 1 0 6 0a3 3 0 1 0 -6 0" /> <path d="M17 16m-3 0a3 3 0 1 0 6 0a3 3 0 1 0 -6 0" /> <path d="M16.346 9.17l-.729 -1.261c-.16 -.248 -1.056 -.203 -1.117 .091l-.177 1.38" /> <path d="M19.761 14.813l-2.84 -5.133c-.189 -.31 -.592 -.68 -1.421 -.68c-.828 0 -1.5 .448 -1.5 1v6" /> <path d="M7.654 9.17l.729 -1.261c.16 -.249 1.056 -.203 1.117 .091l.177 1.38" /> <path d="M4.239 14.813l2.84 -5.133c.189 -.31 .592 -.68 1.421 -.68c.828 0 1.5 .448 1.5 1v6" /> <rect width="4" height="2" x="10" y="12" />
</symbol>
	<symbol id="outline-building-off" xmlns="http://www.w3.org/2000/svg" width="24" height="24" viewBox="0 0 24 24" fill="none" stroke="currentColor" stroke-width="2" stroke-linecap="round" stroke-linejoin="round"
> <path d="M3 21h18" /> <path d="M9 12h1" /> <path d="M9 16h1" /> <path d="M14 8h1" /> <path d="M14 16h1" /> <path d="M5 21v-16" /> <path d="M7 3h10c1 0 2 1 2 2v10" /> <path d="M19 19v2" /> <path d="M3 3l18 18" />
</symbol>
	<symbol id="outline-cliff-jumping" xmlns="http://www.w3.org/2000/svg" width="24" height="24" viewBox="0 0 24 24" fill="none" stroke="currentColor" stroke-width="2" stroke-linecap="round" stroke-linejoin="round"
> <path d="M14 7a1 1 0 1 0 2 0a1 1 0 1 0 -2 0" /> <path d="M10.5 18l2.5 2l2 -2" /> <path d="M18 21l3 -3l-4 -2l-1 -5" /> <path d="M10.5 7.5l2 3l3.5 .5l3 -2l.5 -3" /> <path d="M4 21v-1l2 -3l.5 -2.5l1.5 -2.5l-1 -5l1 -3l-1 -1l-2 .5l-2 -.5" />
</symbol>
	<symbol id="outline-contract" xmlns="http://www.w3.org/2000/svg" width="24" height="24" viewBox="0 0 24 24" fill="none" stroke="currentColor" stroke-width="2" stroke-linecap="round" stroke-linejoin="round"
> <path d="M8 21h-2a3 3 0 0 1 -3 -3v-1h5.5" /> <path d="M17 8.5v-3.5a2 2 0 1 1 2 2h-2" /> <path d="M19 3h-11a3 3 0 0 0 -3 3v11" /> <path d="M9 7h4" /> <path d="M9 11h4" /> <path d="M18.42 12.61a2.1 2.1 0 0 1 2.97 2.97l-6.39 6.42h-3v-3z" />
</symbol>
	<symbol id="outline-scuba-diving-tank" xmlns="http://www.w3.org/2000/svg" width="24" height="24" viewBox="0 0 24 24" fill="none" stroke="currentColor" stroke-width="2" stroke-linecap="round" stroke-linejoin="round"
> <path d="M8 11a4 4 0 1 1 8 0v5h-8z" /> <path d="M8 16v3a2 2 0 0 0 2 2h4a2 2 0 0 0 2 -2v-3" /> <path d="M9 4h6" /> <path d="M12 7v-3" /> <path d="M8 4m-1 0a1 1 0 1 0 2 0a1 1 0 1 0 -2 0" /> <circle cx="12" cy="4" r=".5" fill="currentColor" />
</symbol>
	<symbol id="filled-binoculars" xmlns="http://www.w3.org/2000/svg" width="24" height="24" viewBox="0 0 24 24" fill="currentColor"
> <path d="M8.887 6.748c-.163 0 -.337 .016 -.506 .057c-.172 .041 -.582 .165 -.838 .562l-.014 .02l-.607 1.05c-.307 .205 -.534 .46 -.693 .717l-.014 .02l-2.572 4.65a4.009 4.009 0 0 0 -.274 .494l-.006 .01a3.99 3.99 0 0 0 -.363 1.672a4 4 0 0 0 8 0v-1h2v1a4 4 0 1 0 7.635 -1.67l-.004 -.012a4.008 4.008 0 0 0 -.274 -.494l-2.572 -4.65l-.014 -.02a2.337 2.337 0 0 0 -.693 -.716l-.607 -1.051l-.014 -.02c-.256 -.397 -.667 -.52 -.838 -.562a2.225 2.225 0 0 0 -.664 -.051a2.06 2.06 0 0 0 -.68 .156c-.184 .081 -.638 .327 -.754 .889l-.007 .037l-.14 1.1c-.22 .283 -.374 .64 -.374 1.064v1h-2v-1c0 -.424 -.154 -.781 -.373 -1.064l-.14 -1.1l-.008 -.037c-.116 -.562 -.57 -.808 -.754 -.889a2.06 2.06 0 0 0 -.68 -.156a2.374 2.374 0 0 0 -.158 -.006zm-1.887 7.252a2 2 0 1 1 -1.838 1.209l.19 -.342c.36 -.523 .964 -.867 1.648 -.867zm10 0c.684 0 1.288 .344 1.648 .867l.19 .342a2 2 0 1 1 -1.838 -1.209z" />
</symbol>
	<symbol id="filled-mood-angry" xmlns="http://www.w3.org/2000/svg" width="24" height="24" viewBox="0 0 24 24" fill="currentColor"
> <path d="M12 2c5.523 0 10 4.477 10 10s-4.477 10 -10 10a10 10 0 1 1 0 -20m0 12a4.5 4.5 0 0 0 -3.214 1.35a1 1 0 1 0 1.428 1.4a2.5 2.5 0 0 1 3.572 0a1 1 0 0 0 1.428 -1.4a4.5 4.5 0 0 0 -3.214 -1.35m-3.553 -5.895a1 1 0 0 0 -.894 1.788l2 1a1 1 0 0 0 .894 -1.788zm8.447 .447a1 1 0 0 0 -1.341 -.447l-2 1a1 1 0 0 0 .894 1.788l2 -1a1 1 0 0 0 .447 -1.341" />
</symbol>
	<symbol id="filled-mood-crazy-happy" xmlns="http://www.w3.org/2000/svg" width="24" height="24" viewBox="0 0 24 24" fill="currentColor"
> <path d="M17 3.34a10 10 0 1 1 -15 8.66l.005 -.324a10 10 0 0 1 14.995 -8.336m-1.8 10.946a1 1 0 0 0 -1.414 .014a2.5 2.5 0 0 1 -3.572 0a1 1 0 0 0 -1.428 1.4a4.5 4.5 0 0 0 6.428 0a1 1 0 0 0 -.014 -1.414m-7.493 -6.493a1 1 0 0 0 -1.414 1.414l.792 .793l-.792 .793a1 1 0 0 0 1.414 1.414l.793 -.792l.793 .792a1 1 0 1 0 1.414 -1.414l-.792 -.793l.792 -.793a1 1 0 1 0 -1.414 -1.414l-.793 .792zm7 0a1 1 0 0 0 -1.414 1.414l.792 .793l-.792 .793a1 1 0 0 0 1.414 1.414l.793 -.792l.793 .792a1 1 0 0 0 1.414 -1.414l-.792 -.793l.792 -.793a1 1 0 1 0 -1.414 -1.414l-.793 .792z" />
</symbol>
	<symbol id="filled-mood-wrrr" xmlns="http://www.w3.org/2000/svg" width="24" height="24" viewBox="0 0 24 24" fill="currentColor"
> <path d="M12 2c5.523 0 10 4.477 10 10s-4.477 10 -10 10a10 10 0 1 1 0 -20m3.707 12.293a1 1 0 0 0 -1.262 -.125l-.945 .63l-.945 -.63l-.116 -.066a1 1 0 0 0 -.994 .066l-.945 .63l-.945 -.63a1 1 0 0 0 -1.262 .125l-1 1a1 1 0 0 0 0 1.414l.094 .083a1 1 0 0 0 1.32 -.083l.42 -.42l.818 .545l.116 .066a1 1 0 0 0 .994 -.066l.945 -.63l.945 .63l.116 .066a1 1 0 0 0 .994 -.066l.817 -.545l.42 .42a1 1 0 0 0 1.415 -1.414zm-6.5 -6.5a1 1 0 0 0 -1.414 0l-.083 .094a1 1 0 0 0 .083 1.32l.792 .793l-.792 .793a1 1 0 0 0 1.414 1.414l1.5 -1.5a1 1 0 0 0 0 -1.414zm7 0a1 1 0 0 0 -1.414 0l-1.5 1.5a1 1 0 0 0 0 1.414l1.5 1.5a1 1 0 0 0 1.414 0l.083 -.094a1 1 0 0 0 -.083 -1.32l-.792 -.793l.792 -.793a1 1 0 0 0 0 -1.414" />
</symbol>
	<symbol id="filled-pill" xmlns="http://www.w3.org/2000/svg" width="24" height="24" viewBox="0 0 24 24" fill="currentColor"
> <path d="M20.207 3.793a5.95 5.95 0 0 1 0 8.414l-8 8a5.95 5.95 0 0 1 -8.414 -8.414l8 -8a5.95 5.95 0 0 1 8.414 0m-7 1.414l-4.294 4.293l5.586 5.586l4.294 -4.292a3.95 3.95 0 1 0 -5.586 -5.586" />
</symbol>
	<symbol id="filled-receipt" xmlns="http://www.w3.org/2000/svg" width="24" height="24" viewBox="0 0 24 24" fill="currentColor"
> <path d="M17 2a3 3 0 0 1 3 3v16a1 1 0 0 1 -1.555 .832l-2.318 -1.545l-1.42 1.42a1 1 0 0 1 -1.32 .083l-.094 -.083l-1.293 -1.292l-1.293 1.292a1 1 0 0 1 -1.32 .083l-.094 -.083l-1.421 -1.42l-2.317 1.545l-.019 .012l-.054 .03l-.028 .017l-.054 .023l-.05 .023l-.049 .015l-.06 .019l-.052 .009l-.057 .011l-.084 .006l-.026 .003h-.022l-.049 -.003h-.039l-.013 -.003h-.016l-.041 -.008l-.038 -.005l-.015 -.005l-.018 -.002l-.034 -.011l-.04 -.01l-.019 -.007l-.015 -.004l-.029 -.013l-.04 -.015l-.021 -.011l-.013 -.005l-.028 -.016l-.036 -.018l-.014 -.01l-.018 -.01l-.038 -.027l-.022 -.014l-.01 -.009l-.02 -.014l-.045 -.041l-.012 -.008l-.024 -.024l-.035 -.039l-.02 -.02l-.007 -.011l-.011 -.012l-.032 -.045l-.02 -.025l-.012 -.019l-.03 -.054l-.017 -.028l-.023 -.054l-.023 -.05a1 1 0 0 1 -.034 -.108l-.01 -.057l-.01 -.053l-.009 -.132v-16a3 3 0 0 1 3 -3zm-2 12h-2a1 1 0 0 0 0 2h2a1 1 0 0 0 0 -2m0 -4h-6a1 1 0 0 0 0 2h6a1 1 0 0 0 0 -2m0 -4h-6a1 1 0 1 0 0 2h6a1 1 0 0 0 0 -2" />
</symbol>
	<symbol id="filled-rosette-discount" xmlns="http://www.w3.org/2000/svg" width="24" height="24" viewBox="0 0 24 24" fill="currentColor"
> <path d="M12.01 2.011c.852 0 1.668 .34 2.267 .942l.698 .698a1.2 1.2 0 0 0 .845 .349h1a3.2 3.2 0 0 1 3.2 3.2v1c0 .316 .126 .62 .347 .843l.698 .698a3.2 3.2 0 0 1 .002 4.536l-.698 .698a1.2 1.2 0 0 0 -.349 .845v1a3.2 3.2 0 0 1 -3.2 3.2h-1a1.2 1.2 0 0 0 -.843 .347l-.698 .698a3.2 3.2 0 0 1 -4.536 .002l-.698 -.698a1.2 1.2 0 0 0 -.845 -.349h-1a3.2 3.2 0 0 1 -3.2 -3.2v-1a1.2 1.2 0 0 0 -.347 -.843l-.698 -.698a3.2 3.2 0 0 1 -.002 -4.536l.698 -.698a1.2 1.2 0 0 0 .349 -.845v-1l.005 -.182a3.2 3.2 0 0 1 3.195 -3.018h1a1.2 1.2 0 0 0 .843 -.347l.698 -.698a3.2 3.2 0 0 1 2.269 -.944m2.49 10.989a1.5 1.5 0 1 0 0 3a1.5 1.5 0 0 0 0 -3m1.207 -4.707a1 1 0 0 0 -1.414 0l-6 6a1 1 0 0 0 1.414 1.414l6 -6a1 1 0 0 0 0 -1.414m-6.207 -.293a1.5 1.5 0 1 0 0 3a1.5 1.5 0 0 0 0 -3" />
</symbol>
	<symbol id="filled-scuba-diving-tank" xmlns="http://www.w3.org/2000/svg" width="24" height="24" viewBox="0 0 24 24" fill="currentColor"
> <path d="M17 17v2a3 3 0 0 1 -3 3h-4a3 3 0 0 1 -3 -3v-2z" /> <path d="M8 2a2 2 0 0 1 1.732 1h1.15a1.496 1.496 0 0 1 2.236 0h1.882a1 1 0 0 1 0 2l-1.883 .001a2 2 0 0 1 -.115 .116v.983a5 5 0 0 1 3.998 4.9v4h-10v-4a5 5 0 0 1 4 -4.9v-.983a2 2 0 0 1 -.117 -.116h-1.151a2 2 0 1 1 -1.732 -3.001" />
</symbol>
	<symbol id="filled-steering-wheel" xmlns="http://www.w3.org/2000/svg" width="24" height="24" viewBox="0 0 24 24" fill="currentColor"
> <path d="M17 3.34a10 10 0 1 1 -15 8.66l.005 -.324a10 10 0 0 1 14.995 -8.336m-13 8.66a8 8 0 0 0 7 7.937v-5.107a3 3 0 0 1 -1.898 -2.05l-5.07 -1.504q -.031 .36 -.032 .725m15.967 -.725l-5.069 1.503a3 3 0 0 1 -1.897 2.051v5.108a8 8 0 0 0 6.985 -8.422zm-11.967 -6.204a8 8 0 0 0 -3.536 4.244l4.812 1.426a3 3 0 0 1 5.448 0l4.812 -1.426a8 8 0 0 0 -11.536 -4.244" />
</symbol>
	<symbol id="filled-tag" xmlns="http://www.w3.org/2000/svg" width="24" height="24" viewBox="0 0 24 24" fill="currentColor"
> <path d="M11.172 2a3 3 0 0 1 2.121 .879l7.71 7.71a3.41 3.41 0 0 1 0 4.822l-5.592 5.592a3.41 3.41 0 0 1 -4.822 0l-7.71 -7.71a3 3 0 0 1 -.879 -2.121v-5.172a4 4 0 0 1 4 -4zm-3.672 3.5a2 2 0 0 0 -1.995 1.85l-.005 .15a2 2 0 1 0 2 -2" />
</symbol>
	<symbol id="filled-tags" xmlns="http://www.w3.org/2000/svg" width="24" height="24" viewBox="0 0 24 24" fill="currentColor"
> <path d="M9.172 5a3 3 0 0 1 2.121 .879l5.71 5.71a3.41 3.41 0 0 1 0 4.822l-3.592 3.592a3.41 3.41 0 0 1 -4.822 0l-5.71 -5.71a3 3 0 0 1 -.879 -2.121v-4.172a3 3 0 0 1 3 -3zm-2.172 4h-.01a1 1 0 1 0 .01 2a1 1 0 0 0 0 -2" /> <path d="M14.293 5.293a1 1 0 0 1 1.414 0l4.593 4.592a5.82 5.82 0 0 1 0 8.23l-1.592 1.592a1 1 0 0 1 -1.414 -1.414l1.592 -1.592a3.82 3.82 0 0 0 0 -5.402l-4.592 -4.592a1 1 0 0 1 0 -1.414" />
</symbol>

	<use xlink:href="#outline-align-left-2" x="24" y="24" width="24" height="24" />
	<use xlink:href="#outline-align-right-2" x="68" y="24" width="24" height="24" />
	<use xlink:href="#outline-binoculars" x="112" y="24" width="24" height="24" />
	<use xlink:href="#outline-building-off" x="156" y="24" width="24" height="24" />
	<use xlink:href="#outline-cliff-jumping" x="200" y="24" width="24" height="24" />
	<use xlink:href="#outline-contract" x="244" y="24" width="24" height="24" />
	<use xlink:href="#outline-scuba-diving-tank" x="24" y="68" width="24" height="24" />
	<use xlink:href="#filled-binoculars" x="68" y="68" width="24" height="24" />
	<use xlink:href="#filled-mood-angry" x="112" y="68" width="24" height="24" />
	<use xlink:href="#filled-mood-crazy-happy" x="156" y="68" width="24" height="24" />
	<use xlink:href="#filled-mood-wrrr" x="200" y="68" width="24" height="24" />
	<use xlink:href="#filled-pill" x="244" y="68" width="24" height="24" />
	<use xlink:href="#filled-receipt" x="24" y="112" width="24" height="24" />
	<use xlink:href="#filled-rosette-discount" x="68" y="112" width="24" height="24" />
	<use xlink:href="#filled-scuba-diving-tank" x="112" y="112" width="24" height="24" />
	<use xlink:href="#filled-steering-wheel" x="156" y="112" width="24" height="24" />
	<use xlink:href="#filled-tag" x="200" y="112" width="24" height="24" />
	<use xlink:href="#filled-tags" x="244" y="112" width="24" height="24" />

</svg>