<svg xmlns="http://www.w3.org/2000/svg" xmlns:xlink="http://www.w3.org/1999/xlink" viewBox="0 0 292 292" width="292" height="292" style="color: #354052"><rect x="0" y="0" width="292" height="292" fill="#fff"></rect>
	<symbol id="filled-adjustments-horizontal" xmlns="http://www.w3.org/2000/svg" width="24" height="24" viewBox="0 0 24 24" fill="currentColor"
> <path d="M17 15c1.306 0 2.418 .835 2.83 2h.17a1 1 0 0 1 0 2h-.171a3.001 3.001 0 0 1 -5.658 0h-10.171a1 1 0 0 1 0 -2h10.173c.41 -1.165 1.52 -2 2.827 -2m-9 -6c1.306 0 2.418 .835 2.83 2h9.17a1 1 0 0 1 0 2h-9.171a3.001 3.001 0 0 1 -5.658 0h-1.171a1 1 0 0 1 0 -2h1.173c.41 -1.165 1.52 -2 2.827 -2m6 -6c1.306 0 2.418 .835 2.83 2h3.17a1 1 0 0 1 0 2h-3.171a3.001 3.001 0 0 1 -5.658 0h-7.171a1 1 0 1 1 0 -2h7.173c.41 -1.165 1.52 -2 2.827 -2" />
</symbol>
	<symbol id="filled-check" xmlns="http://www.w3.org/2000/svg" width="24" height="24" viewBox="0 0 24 24" fill="currentColor"
> <path d="M20.707 6.293a1 1 0 0 1 0 1.414l-10 10a1 1 0 0 1 -1.414 0l-5 -5a1 1 0 0 1 1.414 -1.414l4.293 4.293l9.293 -9.293a1 1 0 0 1 1.414 0" />
</symbol>
	<symbol id="filled-chevron-down" xmlns="http://www.w3.org/2000/svg" width="24" height="24" viewBox="0 0 24 24" fill="currentColor"
> <path d="M18.707 8.293a1 1 0 0 1 0 1.414l-6 6a1 1 0 0 1 -1.414 0l-6 -6a1 1 0 0 1 1.414 -1.414l5.293 5.293l5.293 -5.293a1 1 0 0 1 1.414 0" />
</symbol>
	<symbol id="filled-chevron-right" xmlns="http://www.w3.org/2000/svg" width="24" height="24" viewBox="0 0 24 24" fill="currentColor"
> <path d="M9.707 5.293l6 6a1 1 0 0 1 0 1.414l-6 6a1 1 0 1 1 -1.414 -1.414l5.293 -5.293l-5.293 -5.293a1 1 0 0 1 1.414 -1.414" />
</symbol>
	<symbol id="filled-click" xmlns="http://www.w3.org/2000/svg" width="24" height="24" viewBox="0 0 24 24" fill="currentColor"
> <path d="M7 12a1 1 0 0 1 -1 1h-3a1 1 0 0 1 0 -2h3a1 1 0 0 1 1 1m6 -9v3a1 1 0 0 1 -2 0v-3a1 1 0 0 1 2 0m-6.693 1.893l2.2 2.2a1 1 0 0 1 -1.414 1.414l-2.2 -2.2a1 1 0 0 1 1.414 -1.414m12.8 0a1 1 0 0 1 0 1.414l-2.2 2.2a1 1 0 0 1 -1.414 -1.414l2.2 -2.2a1 1 0 0 1 1.414 0m-10.6 10.6a1 1 0 0 1 0 1.414l-2.2 2.2a1 1 0 1 1 -1.414 -1.414l2.2 -2.2a1 1 0 0 1 1.414 0m3.42 -4.49l.049 -.003l.098 .003l.097 .012l.097 .022l9.048 3.014c.845 .282 .928 1.445 .131 1.843l-3.702 1.851l-1.85 3.702c-.399 .797 -1.562 .714 -1.844 -.13l-3.003 -9.011l-.033 -.135l-.012 -.097v-.148l.012 -.097l.022 -.097l.03 -.094l.04 -.09l.05 -.084l.086 -.117l.067 -.07l.037 -.034l.076 -.06l.081 -.052l.087 -.043l.103 -.04l.135 -.033z" />
</symbol>
	<symbol id="filled-copy" xmlns="http://www.w3.org/2000/svg" width="24" height="24" viewBox="0 0 24 24" fill="currentColor"
> <path d="M20.926 7.074a3.67 3.67 0 0 1 1.074 2.593v8.666a3.667 3.667 0 0 1 -3.667 3.667h-8.666a3.667 3.667 0 0 1 -3.667 -3.667v-8.666q 0 -.053 .005 -.102a3.66 3.66 0 0 1 3.662 -3.565h8.666c.973 0 1.905 .386 2.593 1.074" /> <path d="M17.374 3.514a1 1 0 1 1 -1.748 .972c-.221 -.398 -.342 -.486 -.626 -.486h-10c-.548 0 -1 .452 -1 1v9.998c0 .36 .194 .692 .507 .87a1 1 0 1 1 -.99 1.738a3 3 0 0 1 -1.517 -2.606v-10c0 -1.652 1.348 -3 3 -3h10c1.094 0 1.828 .533 2.374 1.514" />
</symbol>
	<symbol id="filled-database" xmlns="http://www.w3.org/2000/svg" width="24" height="24" viewBox="0 0 24 24" fill="currentColor"
> <path d="M3 15.731c1.968 1.507 5.234 2.269 9 2.269c3.76 0 7.025 -.76 9 -2.252v2.252c0 2.425 -3.895 3.936 -8.693 3.998l-.307 .002c-4.938 0 -9 -1.523 -9 -4z" /> <path d="M3 9.731c1.968 1.507 5.234 2.269 9 2.269c3.76 0 7.025 -.76 9 -2.252v2.252c0 2.477 -4.062 4 -9 4c-4.798 0 -8.77 -1.438 -8.979 -3.795l-.016 -.101l-.005 -.104z" /> <path d="M12 2c1.041 0 2.044 .068 2.977 .198l.469 .071q .84 .14 1.586 .348l.44 .131l.075 .024a11 11 0 0 1 .805 .3l.199 .086q .535 .242 .967 .53q .165 .11 .313 .225a3.8 3.8 0 0 1 .669 .668l.091 .128q .07 .105 .129 .211l.07 .139q .163 .35 .2 .73l.01 .211c0 2.477 -4.062 4 -9 4c-4.798 0 -8.77 -1.438 -8.979 -3.795a1 1 0 0 1 -.021 -.205l.005 -.104l.016 -.1c.205 -2.306 4.01 -3.733 8.667 -3.794z" />
</symbol>
	<symbol id="filled-device-floppy" xmlns="http://www.w3.org/2000/svg" width="24" height="24" viewBox="0 0 24 24" fill="currentColor"
> <path d="M16 3a1 1 0 0 1 .707 .293l4 4a1 1 0 0 1 .293 .707v10a3 3 0 0 1 -3 3h-12a3 3 0 0 1 -3 -3v-12a3 3 0 0 1 3 -3h1v4a1 1 0 0 0 .883 .993l.117 .007h6a1 1 0 0 0 1 -1v-4zm-4 8a2.995 2.995 0 0 0 -2.995 2.898a1 1 0 0 0 -.005 .102a3 3 0 1 0 3 -3m1 -8v3h-4v-3z" />
</symbol>
	<symbol id="filled-device-gamepad-2" xmlns="http://www.w3.org/2000/svg" width="24" height="24" viewBox="0 0 24 24" fill="currentColor"
> <path d="M15.5 4a6 6 0 0 1 5.945 5.187l1.532 7.883a3.3 3.3 0 0 1 -5.632 2.903l-3.776 -3.974l-3.14 .001l-3.719 3.916a3.3 3.3 0 0 1 -5.629 -2.92l1.634 -8.173a6 6 0 0 1 5.885 -4.823zm-7.5 3a1 1 0 0 0 -1 1v1h-1a1 1 0 1 0 0 2h1v1a1 1 0 0 0 2 0v-1h1a1 1 0 0 0 0 -2h-1v-1a1 1 0 0 0 -1 -1m10 2h-4a1 1 0 0 0 0 2h4a1 1 0 0 0 0 -2" />
</symbol>
	<symbol id="filled-dots-vertical" xmlns="http://www.w3.org/2000/svg" width="24" height="24" viewBox="0 0 24 24" fill="currentColor"
> <path d="M14 12a2 2 0 1 1 -4 0q 0 -.053 .005 -.102a1.996 1.996 0 0 1 1.995 -1.898a2 2 0 0 1 2 2" /> <path d="M14 19a2 2 0 1 1 -4 0q 0 -.052 .005 -.102a1.996 1.996 0 0 1 1.995 -1.898a2 2 0 0 1 2 2" /> <path d="M14 5a2 2 0 1 1 -4 0q 0 -.053 .005 -.102a1.996 1.996 0 0 1 1.995 -1.898a2 2 0 0 1 2 2" />
</symbol>
	<symbol id="filled-dots" xmlns="http://www.w3.org/2000/svg" width="24" height="24" viewBox="0 0 24 24" fill="currentColor"
> <path d="M7 12a2 2 0 1 1 -4 0q 0 -.053 .005 -.102a1.996 1.996 0 0 1 1.995 -1.898a2 2 0 0 1 2 2" /> <path d="M14 12a2 2 0 1 1 -4 0q 0 -.053 .005 -.102a1.996 1.996 0 0 1 1.995 -1.898a2 2 0 0 1 2 2" /> <path d="M21 12a2 2 0 1 1 -4 0q 0 -.053 .005 -.102a1.996 1.996 0 0 1 1.995 -1.898a2 2 0 0 1 2 2" />
</symbol>
	<symbol id="filled-download" xmlns="http://www.w3.org/2000/svg" width="24" height="24" viewBox="0 0 24 24" fill="currentColor"
> <path d="M20 16a1 1 0 0 1 1 1v2a3 3 0 0 1 -3 3h-12a3 3 0 0 1 -3 -3v-2a1 1 0 0 1 2 0v2a1 1 0 0 0 1 1h12a1 1 0 0 0 1 -1v-2a1 1 0 0 1 1 -1m-8 -13a1 1 0 0 1 1 1v9.585l3.293 -3.292a1 1 0 0 1 1.414 1.414l-5 5a1 1 0 0 1 -.09 .08l.09 -.08a1 1 0 0 1 -.674 .292l-.033 .001h-.032l-.054 -.004l.086 .004a1 1 0 0 1 -.617 -.213a1 1 0 0 1 -.09 -.08l-5 -5a1 1 0 0 1 1.414 -1.414l3.293 3.292v-9.585a1 1 0 0 1 1 -1" />
</symbol>
	<symbol id="filled-edit" xmlns="http://www.w3.org/2000/svg" width="24" height="24" viewBox="0 0 24 24" fill="currentColor"
> <path d="M8 7a1 1 0 0 1 -1 1h-1a1 1 0 0 0 -1 1v9a1 1 0 0 0 1 1h9a1 1 0 0 0 1 -1v-1a1 1 0 0 1 2 0v1a3 3 0 0 1 -3 3h-9a3 3 0 0 1 -3 -3v-9a3 3 0 0 1 3 -3h1a1 1 0 0 1 1 1" /> <path d="M14.596 5.011l4.392 4.392l-6.28 6.303a1 1 0 0 1 -.708 .294h-3a1 1 0 0 1 -1 -1v-3a1 1 0 0 1 .294 -.708zm6.496 -2.103a3.097 3.097 0 0 1 .165 4.203l-.164 .18l-.693 .694l-4.387 -4.387l.695 -.69a3.1 3.1 0 0 1 4.384 0" />
</symbol>
	<symbol id="filled-external-link" xmlns="http://www.w3.org/2000/svg" width="24" height="24" viewBox="0 0 24 24" fill="currentColor"
> <path d="M12 5a1 1 0 0 1 0 2h-6a1 1 0 0 0 -1 1v10a1 1 0 0 0 1 1h10a1 1 0 0 0 1 -1v-6a1 1 0 0 1 2 0v6a3 3 0 0 1 -3 3h-10a3 3 0 0 1 -3 -3v-10a3 3 0 0 1 3 -3zm3 -2h5l.075 .003l.126 .017l.111 .03l.111 .044l.098 .052l.096 .067l.09 .08q .054 .053 .097 .112l.071 .11l.054 .114l.035 .105l.03 .148l.006 .118v5a1 1 0 0 1 -2 0v-2.586l-7.293 7.293a1 1 0 0 1 -1.414 -1.414l7.291 -7.293h-2.584a1 1 0 0 1 0 -2" />
</symbol>
	<symbol id="filled-headset" xmlns="http://www.w3.org/2000/svg" width="24" height="24" viewBox="0 0 24 24" fill="currentColor"
> <path d="M12 2a9 9 0 0 1 9 9v6a3 3 0 0 1 -2.152 2.879c-.678 1.901 -3.538 3.121 -6.848 3.121a1 1 0 0 1 0 -2c1.889 0 3.482 -.482 4.334 -1.075a3 3 0 0 1 -2.334 -2.925l.001 -3.051l.004 -.051a2.995 2.995 0 0 1 2.995 -2.898h1c.351 0 .688 .06 1 .171v-.171a7 7 0 0 0 -13.996 -.24l-.004 .41c.313 -.11 .65 -.17 1 -.17h1a3 3 0 0 1 3 3v3a3 3 0 0 1 -3 3h-1a3 3 0 0 1 -3 -3v-6a9 9 0 0 1 9 -9" />
</symbol>
	<symbol id="filled-help" xmlns="http://www.w3.org/2000/svg" width="24" height="24" viewBox="0 0 24 24" fill="currentColor"
> <path d="M17 3.34a10 10 0 1 1 -10 17.32a10 10 0 0 1 10 -17.32m-5 12.66a1 1 0 0 0 -.993 .883l-.007 .127a1 1 0 0 0 1.993 .117l.007 -.127a1 1 0 0 0 -1 -1m1.173 -9.856a3.6 3.6 0 0 0 -3.97 1.252a1 1 0 0 0 1.512 1.304l.082 -.096a1.6 1.6 0 1 1 1.846 2.462a2.49 2.49 0 0 0 -1.641 2.49a1 1 0 0 0 1.996 .004v-.117a.5 .5 0 0 1 .259 -.466l.075 -.034a3.61 3.61 0 0 0 2.338 -3.47a3.6 3.6 0 0 0 -2.497 -3.329" />
</symbol>
	<symbol id="filled-home-2" xmlns="http://www.w3.org/2000/svg" width="24" height="24" viewBox="0 0 24 24" fill="currentColor"
> <path d="M12.707 2.293l9 9c.63 .63 .184 1.707 -.707 1.707h-1v6a3 3 0 0 1 -3 3h-10a3 3 0 0 1 -3 -3v-6h-1c-.89 0 -1.337 -1.077 -.707 -1.707l9 -9a1 1 0 0 1 1.414 0m.793 8.707h-3a1.5 1.5 0 0 0 -1.5 1.5v3a1.5 1.5 0 0 0 1.5 1.5h3a1.5 1.5 0 0 0 1.5 -1.5v-3a1.5 1.5 0 0 0 -1.5 -1.5" />
</symbol>
	<symbol id="filled-id" xmlns="http://www.w3.org/2000/svg" width="24" height="24" viewBox="0 0 24 24" fill="currentColor"
> <path d="M18 3a4 4 0 0 1 4 4v10a4 4 0 0 1 -4 4h-12a4 4 0 0 1 -4 -4v-10q 0 -.053 .005 -.102a3.994 3.994 0 0 1 3.995 -3.898zm-1 12h-10a1 1 0 0 0 0 2h10a1 1 0 0 0 0 -2m-8 -8a2.995 2.995 0 0 0 -2.995 2.898a1 1 0 0 0 -.005 .102a3 3 0 1 0 3 -3m8 4h-2a1 1 0 0 0 0 2h2a1 1 0 0 0 0 -2m0 -4h-2a1 1 0 0 0 0 2h2a1 1 0 0 0 0 -2" />
</symbol>
	<symbol id="filled-link" xmlns="http://www.w3.org/2000/svg" width="24" height="24" viewBox="0 0 24 24" fill="currentColor"
> <path d="M15.707 8.293a1 1 0 0 1 0 1.414l-6 6a1 1 0 1 1 -1.414 -1.414l6 -6a1 1 0 0 1 1.414 0" /> <path d="M19.242 4.757c2.343 2.344 2.342 6.143 -.052 8.534l-.534 .464a1 1 0 1 1 -1.312 -1.51l.483 -.416a4 4 0 0 0 0 -5.657c-1.562 -1.563 -4.095 -1.563 -5.607 -.054l-.463 .536a1 1 0 1 1 -1.514 -1.308l.513 -.59a6 6 0 0 1 8.486 .001" /> <path d="M6.75 10.338a1 1 0 0 1 -.088 1.411l-.483 .425a3.97 3.97 0 0 0 0 5.649a4.064 4.064 0 0 0 5.678 .038l.34 -.458a1 1 0 1 1 1.606 1.194l-.397 .534l-.1 .114a6.07 6.07 0 0 1 -8.533 0a5.97 5.97 0 0 1 -1.773 -4.247c0 -1.595 .638 -3.124 1.814 -4.284l.524 -.463a1 1 0 0 1 1.411 .087" />
</symbol>
	<symbol id="filled-list-check" xmlns="http://www.w3.org/2000/svg" width="24" height="24" viewBox="0 0 24 24" fill="currentColor"
> <path d="M8.207 3.793a1 1 0 0 1 0 1.414l-2.5 2.5a1 1 0 0 1 -1.414 0l-1.5 -1.5a1 1 0 0 1 1.414 -1.414l.793 .793l1.793 -1.793a1 1 0 0 1 1.414 0" /> <path d="M8.207 9.793a1 1 0 0 1 0 1.414l-2.5 2.5a1 1 0 0 1 -1.414 0l-1.5 -1.5a1 1 0 0 1 1.414 -1.414l.793 .793l1.793 -1.793a1 1 0 0 1 1.414 0" /> <path d="M8.207 15.793a1 1 0 0 1 0 1.414l-2.5 2.5a1 1 0 0 1 -1.414 0l-1.5 -1.5a1 1 0 0 1 1.414 -1.414l.793 .793l1.793 -1.793a1 1 0 0 1 1.414 0" /> <path d="M21 6a1 1 0 0 1 -1 1h-9a1 1 0 0 1 0 -2h9a1 1 0 0 1 1 1" /> <path d="M21 12a1 1 0 0 1 -1 1h-9a1 1 0 0 1 0 -2h9a1 1 0 0 1 1 1" /> <path d="M21 18a1 1 0 0 1 -1 1h-9a1 1 0 0 1 0 -2h9a1 1 0 0 1 1 1" />
</symbol>
	<symbol id="filled-list-details" xmlns="http://www.w3.org/2000/svg" width="24" height="24" viewBox="0 0 24 24" fill="currentColor"
> <path d="M22 5a1 1 0 0 1 -1 1h-8a1 1 0 0 1 0 -2h8a1 1 0 0 1 1 1m-3 4a1 1 0 0 1 -1 1h-5a1 1 0 0 1 0 -2h5a1 1 0 0 1 1 1m3 6a1 1 0 0 1 -1 1h-8a1 1 0 0 1 0 -2h8a1 1 0 0 1 1 1m-3 4a1 1 0 0 1 -1 1h-5a1 1 0 0 1 0 -2h5a1 1 0 0 1 1 1m-11 -16a2 2 0 0 1 2 2v4a2 2 0 0 1 -2 2h-4a2 2 0 0 1 -2 -2l.001 -4.051l.004 -.051a1.996 1.996 0 0 1 1.995 -1.898zm0 10a2 2 0 0 1 2 2v4a2 2 0 0 1 -2 2h-4a2 2 0 0 1 -2 -2l.001 -4.051l.004 -.051a1.996 1.996 0 0 1 1.995 -1.898z" />
</symbol>
	<symbol id="filled-list" xmlns="http://www.w3.org/2000/svg" width="24" height="24" viewBox="0 0 24 24" fill="currentColor"
> <path d="M21 6a1 1 0 0 1 -1 1h-10a1 1 0 1 1 0 -2h10a1 1 0 0 1 1 1" /> <path d="M21 12a1 1 0 0 1 -1 1h-10a1 1 0 0 1 0 -2h10a1 1 0 0 1 1 1" /> <path d="M21 18a1 1 0 0 1 -1 1h-10a1 1 0 0 1 0 -2h10a1 1 0 0 1 1 1" /> <path d="M7 5.995v.02c0 1.099 -.895 1.99 -2 1.99s-2 -.891 -2 -1.99v-.02c0 -1.099 .895 -1.99 2 -1.99s2 .891 2 1.99" /> <path d="M7 11.995v.02c0 1.099 -.895 1.99 -2 1.99s-2 -.891 -2 -1.99v-.02c0 -1.099 .895 -1.99 2 -1.99s2 .891 2 1.99" /> <path d="M7 17.995v.02c0 1.099 -.895 1.99 -2 1.99s-2 -.891 -2 -1.99v-.02c0 -1.099 .895 -1.99 2 -1.99s2 .891 2 1.99" />
</symbol>
	<symbol id="filled-menu-2" xmlns="http://www.w3.org/2000/svg" width="24" height="24" viewBox="0 0 24 24" fill="currentColor"
> <path d="M21 6a1 1 0 0 1 -1 1h-16a1 1 0 1 1 0 -2h16a1 1 0 0 1 1 1" /> <path d="M21 12a1 1 0 0 1 -1 1h-16a1 1 0 0 1 0 -2h16a1 1 0 0 1 1 1" /> <path d="M21 18a1 1 0 0 1 -1 1h-16a1 1 0 0 1 0 -2h16a1 1 0 0 1 1 1" />
</symbol>
	<symbol id="filled-messages" xmlns="http://www.w3.org/2000/svg" width="24" height="24" viewBox="0 0 24 24" fill="currentColor"
> <path d="M20.901 14.995l-.044 -.006a.4 .4 0 0 1 -.102 -.02l-.045 -.012l-.048 -.017l-.045 -.016l-.043 -.02l-.045 -.022l-.04 -.024l-.044 -.026l-.043 -.032l-.036 -.027a1 1 0 0 1 -.073 -.066l-2.707 -2.707h-6.586a2 2 0 0 1 -2 -2v-6a2 2 0 0 1 2 -2h9a2 2 0 0 1 2 2v10a1 1 0 0 1 -.076 .383l-.02 .043l-.022 .045l-.024 .04l-.026 .044l-.032 .043l-.027 .036a1 1 0 0 1 -.578 .347l-.052 .008l-.044 .006a1 1 0 0 1 -.198 0" /> <path d="M7 8.999v1.001a4 4 0 0 0 4 4h4v3a2 2 0 0 1 -2 2h-6.586l-2.707 2.707c-.63 .63 -1.707 .184 -1.707 -.707v-10a2 2 0 0 1 2 -2z" />
</symbol>
	<symbol id="filled-pencil" xmlns="http://www.w3.org/2000/svg" width="24" height="24" viewBox="0 0 24 24" fill="currentColor"
> <path d="M12.085 6.5l5.415 5.415l-8.793 8.792a1 1 0 0 1 -.707 .293h-4a1 1 0 0 1 -1 -1v-4a1 1 0 0 1 .293 -.707zm5.406 -2.698a3.828 3.828 0 0 1 1.716 6.405l-.292 .293l-5.415 -5.415l.293 -.292a3.83 3.83 0 0 1 3.698 -.991" />
</symbol>
	<symbol id="filled-plus" xmlns="http://www.w3.org/2000/svg" width="24" height="24" viewBox="0 0 24 24" fill="currentColor"
> <path d="M12 4a1 1 0 0 1 1 1v6h6a1 1 0 0 1 0 2h-6v6a1 1 0 0 1 -2 0v-6h-6a1 1 0 0 1 0 -2h6v-6a1 1 0 0 1 1 -1" />
</symbol>
	<symbol id="filled-scale" xmlns="http://www.w3.org/2000/svg" width="24" height="24" viewBox="0 0 24 24" fill="currentColor"
> <path d="M12 2a1 1 0 0 1 1 1v1.152l5.159 .86a.98 .98 0 0 1 .636 .38l.041 .059l.058 .102l3.024 6.05l.035 .094l.025 .096l.016 .1l.005 .12l-.003 .061a3.996 3.996 0 0 1 -3.996 3.926a4 4 0 0 1 -4 -4a1 1 0 0 1 .106 -.447l2.393 -4.79l-3.499 -.583v12.82h4a1 1 0 0 1 0 2h-10a1 1 0 0 1 0 -2h4v-12.82l-3.5 .583l2.418 4.84l.035 .094l.025 .096l.016 .1l.005 .12l-.003 .061a3.996 3.996 0 0 1 -3.996 3.926a4 4 0 0 1 -4 -4a1 1 0 0 1 .106 -.447l3.034 -6.065l.039 -.061l.025 -.034a.98 .98 0 0 1 .636 -.38l5.16 -.862v-1.151a1 1 0 0 1 1 -1" />
</symbol>
	<symbol id="filled-school" xmlns="http://www.w3.org/2000/svg" width="24" height="24" viewBox="0 0 24 24" fill="currentColor"
> <path d="M19 13.431v2.569c0 2.398 -3.205 4 -7 4s-7 -1.602 -7 -4v-2.569l5.886 2.354a3 3 0 0 0 2.011 .078l.217 -.078zm2 -2.955l-8.629 3.452a1 1 0 0 1 -.742 0l-10 -4c-.839 -.335 -.839 -1.521 0 -1.856l10 -4a1 1 0 0 1 .245 -.064l.126 -.008l.126 .008a1 1 0 0 1 .245 .064l10.032 4.013l.108 .055l.099 .068l.088 .076l.075 .082l.035 .044l.073 .115l.052 .115l.034 .102l.025 .135l.006 .058l.002 6.065a1 1 0 0 1 -2 0z" />
</symbol>
	<symbol id="filled-search" xmlns="http://www.w3.org/2000/svg" width="24" height="24" viewBox="0 0 24 24" fill="currentColor"
> <path d="M14 3.072a8 8 0 0 1 2.32 11.834l5.387 5.387a1 1 0 0 1 -1.414 1.414l-5.388 -5.387a8 8 0 1 1 -.905 -13.249" />
</symbol>
	<symbol id="filled-send" xmlns="http://www.w3.org/2000/svg" width="24" height="24" viewBox="0 0 24 24" fill="currentColor"
> <path d="M21.864 3.549l-6.454 17.868a1.55 1.55 0 0 1 -1.41 .903a1.54 1.54 0 0 1 -1.394 -.874l-2.88 -5.759zm-1.414 -1.414l-12.139 12.138l-5.728 -2.864a1.55 1.55 0 0 1 -.903 -1.409c0 -.606 .353 -1.157 .981 -1.44z" />
</symbol>
	<symbol id="filled-ticket" xmlns="http://www.w3.org/2000/svg" width="24" height="24" viewBox="0 0 24 24" fill="currentColor"
> <path d="M14 4v2a1 1 0 0 0 2 0v-2h3a3 3 0 0 1 3 3v3a1 1 0 0 1 -.883 .993l-.117 .007a1 1 0 0 0 -.117 1.993l.117 .007a1 1 0 0 1 1 1v3a3 3 0 0 1 -3 3h-3v-2a1 1 0 0 0 -.883 -.993l-.117 -.007a1 1 0 0 0 -1 1v2h-9a3 3 0 0 1 -3 -3v-3a1 1 0 0 1 .883 -.993l.117 -.007a1 1 0 0 0 .117 -1.993l-.117 -.007a1 1 0 0 1 -1 -1v-3a2.995 2.995 0 0 1 2.727 -2.985l.222 -.014zm1 6a1 1 0 0 0 -1 1v2a1 1 0 0 0 2 0v-2a1 1 0 0 0 -1 -1" />
</symbol>
	<symbol id="filled-tools-kitchen-2" xmlns="http://www.w3.org/2000/svg" width="24" height="24" viewBox="0 0 24 24" fill="currentColor"
> <path d="M18.94 2.002l.1 -.001l.096 .008l.095 .018l.094 .027l.092 .037l.086 .045l.08 .052l.076 .06l.076 .074l.06 .072l.03 .04l.051 .084l.043 .088l.034 .091l.025 .094l.02 .15l.002 18.059a1 1 0 0 1 -1 1h-1a1 1 0 0 1 -1 -1v-3a1 1 0 0 1 1 -1v-1h-4a1 1 0 0 1 -1 -.994c-.033 -5.323 .97 -8.482 5.005 -12.434l.317 -.307l.072 -.06l.04 -.03l.084 -.051l.088 -.043l.091 -.034l.094 -.025zm-7.94 .998a1 1 0 0 1 1 1v3a4 4 0 0 1 -3 3.874v10.126a1 1 0 0 1 -2 0v-10.126a4 4 0 0 1 -3 -3.874v-3a1 1 0 1 1 2 0v3a2 2 0 0 0 1 1.732v-4.732a1 1 0 1 1 2 0l.001 4.732a2 2 0 0 0 .999 -1.732v-3a1 1 0 0 1 1 -1" />
</symbol>
	<symbol id="filled-world" xmlns="http://www.w3.org/2000/svg" width="24" height="24" viewBox="0 0 24 24" fill="currentColor"
> <path d="M21.165 16a10 10 0 0 1 -8.434 5.973a1 1 0 0 0 .617 -.444a18 18 0 0 0 2.28 -5.528z" /> <path d="M8.372 16a18 18 0 0 0 2.28 5.53a1 1 0 0 0 .616 .443a10 10 0 0 1 -8.433 -5.973z" /> <path d="M13.57 16a16 16 0 0 1 -1.57 3.884a16 16 0 0 1 -1.57 -3.884" /> <path d="M8.034 10a18 18 0 0 0 0 4h-5.832a10 10 0 0 1 -.002 -4z" /> <path d="M13.952 10a16 16 0 0 1 0 4h-3.904a16 16 0 0 1 0 -4z" /> <path d="M21.8 10a10.05 10.05 0 0 1 -.002 4h-5.832c.149 -1.329 .149 -2.67 0 -4z" /> <path d="M11.267 2.027a1 1 0 0 0 -.615 .444a18 18 0 0 0 -2.28 5.529h-5.54a10.01 10.01 0 0 1 8.334 -5.967z" /> <path d="M12 4.116a16 16 0 0 1 1.57 3.885h-3.14c.34 -1.317 .85 -2.6 1.53 -3.817z" /> <path d="M12.733 2.026a10.01 10.01 0 0 1 8.435 5.974h-5.54a18 18 0 0 0 -2.28 -5.53a1 1 0 0 0 -.517 -.414z" />
</symbol>
	<symbol id="filled-x" xmlns="http://www.w3.org/2000/svg" width="24" height="24" viewBox="0 0 24 24" fill="currentColor"
> <path d="M6.707 5.293l5.293 5.292l5.293 -5.292a1 1 0 0 1 1.414 1.414l-5.292 5.293l5.292 5.293a1 1 0 0 1 -1.414 1.414l-5.293 -5.292l-5.293 5.292a1 1 0 1 1 -1.414 -1.414l5.292 -5.293l-5.292 -5.293a1 1 0 0 1 1.414 -1.414" />
</symbol>

	<use xlink:href="#filled-adjustments-horizontal" x="24" y="24" width="24" height="24" />
	<use xlink:href="#filled-check" x="68" y="24" width="24" height="24" />
	<use xlink:href="#filled-chevron-down" x="112" y="24" width="24" height="24" />
	<use xlink:href="#filled-chevron-right" x="156" y="24" width="24" height="24" />
	<use xlink:href="#filled-click" x="200" y="24" width="24" height="24" />
	<use xlink:href="#filled-copy" x="244" y="24" width="24" height="24" />
	<use xlink:href="#filled-database" x="24" y="68" width="24" height="24" />
	<use xlink:href="#filled-device-floppy" x="68" y="68" width="24" height="24" />
	<use xlink:href="#filled-device-gamepad-2" x="112" y="68" width="24" height="24" />
	<use xlink:href="#filled-dots-vertical" x="156" y="68" width="24" height="24" />
	<use xlink:href="#filled-dots" x="200" y="68" width="24" height="24" />
	<use xlink:href="#filled-download" x="244" y="68" width="24" height="24" />
	<use xlink:href="#filled-edit" x="24" y="112" width="24" height="24" />
	<use xlink:href="#filled-external-link" x="68" y="112" width="24" height="24" />
	<use xlink:href="#filled-headset" x="112" y="112" width="24" height="24" />
	<use xlink:href="#filled-help" x="156" y="112" width="24" height="24" />
	<use xlink:href="#filled-home-2" x="200" y="112" width="24" height="24" />
	<use xlink:href="#filled-id" x="244" y="112" width="24" height="24" />
	<use xlink:href="#filled-link" x="24" y="156" width="24" height="24" />
	<use xlink:href="#filled-list-check" x="68" y="156" width="24" height="24" />
	<use xlink:href="#filled-list-details" x="112" y="156" width="24" height="24" />
	<use xlink:href="#filled-list" x="156" y="156" width="24" height="24" />
	<use xlink:href="#filled-menu-2" x="200" y="156" width="24" height="24" />
	<use xlink:href="#filled-messages" x="244" y="156" width="24" height="24" />
	<use xlink:href="#filled-pencil" x="24" y="200" width="24" height="24" />
	<use xlink:href="#filled-plus" x="68" y="200" width="24" height="24" />
	<use xlink:href="#filled-scale" x="112" y="200" width="24" height="24" />
	<use xlink:href="#filled-school" x="156" y="200" width="24" height="24" />
	<use xlink:href="#filled-search" x="200" y="200" width="24" height="24" />
	<use xlink:href="#filled-send" x="244" y="200" width="24" height="24" />
	<use xlink:href="#filled-ticket" x="24" y="244" width="24" height="24" />
	<use xlink:href="#filled-tools-kitchen-2" x="68" y="244" width="24" height="24" />
	<use xlink:href="#filled-world" x="112" y="244" width="24" height="24" />
	<use xlink:href="#filled-x" x="156" y="244" width="24" height="24" />

</svg>