<svg xmlns="http://www.w3.org/2000/svg" xmlns:xlink="http://www.w3.org/1999/xlink" viewBox="0 0 292 160" width="292" height="160" style="color: #354052"><rect x="0" y="0" width="292" height="160" fill="#fff"></rect>
	<symbol id="outline-cake-roll" xmlns="http://www.w3.org/2000/svg" width="24" height="24" viewBox="0 0 24 24" fill="none" stroke="currentColor" stroke-width="2" stroke-linecap="round" stroke-linejoin="round"
> <path d="M12 15c-4.97 0 -9 -2.462 -9 -5.5s4.03 -5.5 9 -5.5s9 2.462 9 5.5s-4.03 5.5 -9 5.5" /> <path d="M12 6.97c3 0 4 1.036 4 1.979c0 2.805 -8 2.969 -8 -.99c0 -2.11 1.5 -3.959 4 -3.959" /> <path d="M21 9.333v5.334c0 2.945 -4.03 5.333 -9 5.333s-9 -2.388 -9 -5.333v-5.334" />
</symbol>
	<symbol id="outline-matrix" xmlns="http://www.w3.org/2000/svg" width="24" height="24" viewBox="0 0 24 24" fill="none" stroke="currentColor" stroke-width="2" stroke-linecap="round" stroke-linejoin="round"
> <path d="M8 16h.013" /> <path d="M12.01 16h.005" /> <path d="M16.015 16h.005" /> <path d="M16.015 12h.005" /> <path d="M8.01 12h.005" /> <path d="M12.01 12h.005" /> <path d="M16.02 8h.005" /> <path d="M8.015 8h.005" /> <path d="M12.015 8h.005" /> <path d="M7 4h-1a2 2 0 0 0 -2 2v12a2 2 0 0 0 2 2h1" /> <path d="M17 4h1a2 2 0 0 1 2 2v12a2 2 0 0 1 -2 2h-1" />
</symbol>
	<symbol id="outline-square-dashed" xmlns="http://www.w3.org/2000/svg" width="24" height="24" viewBox="0 0 24 24" fill="none" stroke="currentColor" stroke-width="2" stroke-linecap="round" stroke-linejoin="round"
> <path d="M3 5a2 2 0 0 1 2 -2h14a2 2 0 0 1 2 2v14a2 2 0 0 1 -2 2h-14a2 2 0 0 1 -2 -2z" />
</symbol>
	<symbol id="outline-table-dashed" xmlns="http://www.w3.org/2000/svg" width="24" height="24" viewBox="0 0 24 24" fill="none" stroke="currentColor" stroke-width="2" stroke-linecap="round" stroke-linejoin="round"
> <path d="M3 5a2 2 0 0 1 2 -2h14a2 2 0 0 1 2 2v14a2 2 0 0 1 -2 2h-14a2 2 0 0 1 -2 -2z" /> <path d="M3 10h18" /> <path d="M10 3v18" />
</symbol>
	<symbol id="filled-brand-bitbucket" xmlns="http://www.w3.org/2000/svg" width="24" height="24" viewBox="0 0 24 24" fill="currentColor"
> <path d="M3.661 3l16.68 .007c.484 -.005 .946 .203 1.262 .57c.316 .368 .454 .856 .364 1.396l-3.338 14.651a1.64 1.64 0 0 1 -1.629 1.376h-10.01c-.906 -.009 -1.678 -.668 -1.82 -1.517l-3.148 -14.576a1.64 1.64 0 0 1 1.639 -1.907m11.339 5h-6a1 1 0 0 0 -.986 1.164l1 6a1 1 0 0 0 .986 .836h4a1 1 0 0 0 .986 -.836l1 -6a1 1 0 0 0 -.986 -1.164" />
</symbol>
	<symbol id="filled-direction-arrows" xmlns="http://www.w3.org/2000/svg" width="24" height="24" viewBox="0 0 24 24" fill="currentColor"
> <path d="M12 2c5.523 0 10 4.477 10 10a10 10 0 0 1 -20 0l.004 -.28c.148 -5.393 4.566 -9.72 9.996 -9.72m-.293 13.293a1 1 0 0 0 -1.414 1.414l1 1a1 1 0 0 0 1.414 0l1 -1a1 1 0 0 0 0 -1.414l-.094 -.083a1 1 0 0 0 -1.32 .083l-.293 .292zm-3 -5a1 1 0 0 0 -1.414 0l-1 1a1 1 0 0 0 0 1.414l1 1a1 1 0 0 0 1.414 0l.083 -.094a1 1 0 0 0 -.083 -1.32l-.292 -.293l.292 -.293a1 1 0 0 0 0 -1.414m8 0a1 1 0 0 0 -1.414 0l-.083 .094a1 1 0 0 0 .083 1.32l.292 .292l-.292 .294a1 1 0 0 0 1.414 1.414l1 -1a1 1 0 0 0 0 -1.414zm-4 -4a1 1 0 0 0 -1.414 0l-1 1a1 1 0 0 0 0 1.414l.094 .083a1 1 0 0 0 1.32 -.083l.293 -.292l.293 .292a1 1 0 0 0 1.414 -1.414z" />
</symbol>
	<symbol id="filled-droplets" xmlns="http://www.w3.org/2000/svg" width="24" height="24" viewBox="0 0 24 24" fill="currentColor"
> <path d="M6 12.003c.541 0 1.045 .273 1.342 .727l2.122 3.273a3.999 3.999 0 0 1 -6.035 5.063c-1.487 -1.248 -1.864 -3.382 -.867 -5.11l2.098 -3.226a1.6 1.6 0 0 1 1.34 -.727" /> <path d="M18 12.003c.541 0 1.045 .273 1.342 .727l2.122 3.273a3.999 3.999 0 0 1 -6.035 5.063c-1.487 -1.248 -1.864 -3.382 -.867 -5.11l2.098 -3.227a1.6 1.6 0 0 1 1.34 -.726" /> <path d="M12 2.003c.541 0 1.045 .273 1.342 .727l2.122 3.273a3.999 3.999 0 0 1 -6.035 5.063c-1.487 -1.248 -1.864 -3.382 -.867 -5.11l2.098 -3.226a1.6 1.6 0 0 1 1.34 -.727" />
</symbol>
	<symbol id="filled-eyeglass" xmlns="http://www.w3.org/2000/svg" width="24" height="24" viewBox="0 0 24 24" fill="currentColor"
> <path d="M6.5 21a4.5 4.5 0 0 1 -4.5 -4.5v-2.518l.004 -.071l.014 -.103l.018 -.076l3.006 -10.02a1 1 0 0 1 .958 -.712h2a1 1 0 1 1 0 2h-1.257l-2.4 8h5.657a1 1 0 0 1 1 1v1h2v-1a1 1 0 0 1 1 -1h5.656l-2.4 -8h-1.256a1 1 0 0 1 -.993 -.883l-.007 -.117a1 1 0 0 1 1 -1h2a1 1 0 0 1 .958 .713l3.01 10.036l.022 .112l.008 .08l.002 2.559a4.5 4.5 0 0 1 -8.972 .5h-2.056a4.5 4.5 0 0 1 -4.472 4" />
</symbol>
	<symbol id="filled-filters" xmlns="http://www.w3.org/2000/svg" width="24" height="24" viewBox="0 0 24 24" fill="currentColor"
> <path d="M19.396 11.056a6 6 0 0 1 -5.647 10.506q .206 -.21 .396 -.44a8 8 0 0 0 1.789 -6.155a8.02 8.02 0 0 0 3.462 -3.911" /> <path d="M4.609 11.051a7.99 7.99 0 0 0 9.386 4.698a6 6 0 1 1 -9.534 -4.594z" /> <path d="M12 2a6 6 0 1 1 -6 6l.004 -.225a6 6 0 0 1 5.996 -5.775" />
</symbol>
	<symbol id="filled-flame" xmlns="http://www.w3.org/2000/svg" width="24" height="24" viewBox="0 0 24 24" fill="currentColor"
> <path d="M10 2c0 -.88 1.056 -1.331 1.692 -.722c1.958 1.876 3.096 5.995 1.75 9.12l-.08 .174l.012 .003c.625 .133 1.203 -.43 2.303 -2.173l.14 -.224a1 1 0 0 1 1.582 -.153c1.334 1.435 2.601 4.377 2.601 6.27c0 4.265 -3.591 7.705 -8 7.705s-8 -3.44 -8 -7.706c0 -2.252 1.022 -4.716 2.632 -6.301l.605 -.589c.241 -.236 .434 -.43 .618 -.624c1.43 -1.512 2.145 -2.924 2.145 -4.78" />
</symbol>
	<symbol id="filled-flare" xmlns="http://www.w3.org/2000/svg" width="24" height="24" viewBox="0 0 24 24" fill="currentColor"
> <path d="M11.106 2.553a1 1 0 0 1 1.788 0l2.851 5.701l5.702 2.852a1 1 0 0 1 .11 1.725l-.11 .063l-5.702 2.851l-2.85 5.702a1 1 0 0 1 -1.726 .11l-.063 -.11l-2.852 -5.702l-5.701 -2.85a1 1 0 0 1 -.11 -1.726l.11 -.063l5.701 -2.852z" />
</symbol>
	<symbol id="filled-folders" xmlns="http://www.w3.org/2000/svg" width="24" height="24" viewBox="0 0 24 24" fill="currentColor"
> <path d="M12 2a1 1 0 0 1 .707 .293l1.708 1.707h4.585a3 3 0 0 1 2.995 2.824l.005 .176v7a3 3 0 0 1 -3 3h-1v1a3 3 0 0 1 -3 3h-10a3 3 0 0 1 -3 -3v-9a3 3 0 0 1 3 -3h1v-1a3 3 0 0 1 3 -3zm-6 6h-1a1 1 0 0 0 -1 1v9a1 1 0 0 0 1 1h10a1 1 0 0 0 1 -1v-1h-7a3 3 0 0 1 -3 -3z" />
</symbol>
	<symbol id="filled-garden-cart" xmlns="http://www.w3.org/2000/svg" width="24" height="24" viewBox="0 0 24 24" fill="currentColor"
> <path d="M3.324 3a2 2 0 0 1 1.855 1.258l1.097 2.742h14.724a1 1 0 0 1 .94 1.341l-.046 .106l-2.934 5.871a3.5 3.5 0 1 1 -4.96 3.182l.005 -.192a3.5 3.5 0 0 1 .499 -1.618l-2.446 -.258l-3.446 4.75a2 2 0 0 1 -2.08 .762l-.154 -.044a2 2 0 0 1 -1.378 -1.9v-9.804l-1.679 -4.196h-1.321a1 1 0 0 1 -.993 -.883l-.007 -.117a1 1 0 0 1 1 -1zm14.176 13a1.5 1.5 0 1 0 0 3a1.5 1.5 0 0 0 0 -3m-10.5 -2.498l-.002 5.498l2.783 -3.833a5 5 0 0 1 -2.614 -1.474z" />
</symbol>
	<symbol id="filled-grid-pattern" xmlns="http://www.w3.org/2000/svg" width="24" height="24" viewBox="0 0 24 24" fill="currentColor"
> <path d="M18 3a3 3 0 0 1 3 3v12a3 3 0 0 1 -3 3h-12a3 3 0 0 1 -3 -3v-12a3 3 0 0 1 3 -3zm-4 4a1 1 0 0 0 -1 1v1h-2v-1a1 1 0 0 0 -.883 -.993l-.117 -.007a1 1 0 0 0 -1 1v1h-1a1 1 0 0 0 -.993 .883l-.007 .117a1 1 0 0 0 1 1h1v2h-1a1 1 0 0 0 -.993 .883l-.007 .117a1 1 0 0 0 1 1h1v1a1 1 0 0 0 .883 .993l.117 .007a1 1 0 0 0 1 -1v-1h2v1a1 1 0 0 0 .883 .993l.117 .007a1 1 0 0 0 1 -1v-1h1a1 1 0 0 0 .993 -.883l.007 -.117a1 1 0 0 0 -1 -1h-1v-2h1a1 1 0 0 0 .993 -.883l.007 -.117a1 1 0 0 0 -1 -1h-1v-1a1 1 0 0 0 -.883 -.993zm-1 4v2h-2v-2z" />
</symbol>
	<symbol id="filled-helicopter-landing" xmlns="http://www.w3.org/2000/svg" width="24" height="24" viewBox="0 0 24 24" fill="currentColor"
> <path d="M19 2a3 3 0 0 1 3 3v14a3 3 0 0 1 -3 3h-14a3 3 0 0 1 -3 -3v-14a3 3 0 0 1 3 -3zm-4 5a1 1 0 0 0 -1 1v3h-4v-3a1 1 0 0 0 -.883 -.993l-.117 -.007a1 1 0 0 0 -1 1v8a1 1 0 0 0 2 0v-3h4v3a1 1 0 0 0 .883 .993l.117 .007a1 1 0 0 0 1 -1v-8a1 1 0 0 0 -1 -1" />
</symbol>
	<symbol id="filled-laurel-wreath" xmlns="http://www.w3.org/2000/svg" width="24" height="24" viewBox="0 0 24 24" fill="currentColor"
> <path d="M16.956 2.057c.355 .124 .829 .375 1.303 .796a3.77 3.77 0 0 1 1.246 2.204c.173 .989 -.047 1.894 -.519 2.683l-.123 .194q -.097 .147 -.196 .272q .066 .234 .117 .471q .26 -.178 .545 -.307c.851 -.389 1.727 -.442 2.527 -.306q .226 .04 .346 .076a1 1 0 0 1 .689 .712l.029 .13q .015 .08 .03 .18a4.45 4.45 0 0 1 -.324 2.496a3.94 3.94 0 0 1 -1.71 1.85l-.242 .12a4.23 4.23 0 0 1 -2.234 .349a9 9 0 0 1 -.443 1.023c.37 .016 .748 .093 1.128 .24c.732 .28 1.299 .758 1.711 1.367a3.95 3.95 0 0 1 .654 1.613a1 1 0 0 1 -.356 .917a3.8 3.8 0 0 1 -.716 .443c-.933 .455 -1.978 .588 -3.043 .179l-.032 -.015l-.205 -.086a3.6 3.6 0 0 1 -1.33 -1.069l-.143 -.197a4 4 0 0 1 -.26 -.433a6 6 0 0 1 -.927 .511q .18 .262 .337 .56a7.4 7.4 0 0 1 .66 1.747a1 1 0 0 1 -1.95 .444l-.028 -.11a6 6 0 0 0 -.449 -1.143c-.342 -.645 -.71 -.968 -1.048 -.968s-.706 .323 -1.048 .969a5.6 5.6 0 0 0 -.367 .874l-.082 .269l-.028 .11a1 1 0 0 1 -1.95 -.444a7.3 7.3 0 0 1 .66 -1.747q .158 -.298 .337 -.561a6.4 6.4 0 0 1 -.93 -.508a4 4 0 0 1 -.256 .43c-.366 .541 -.855 .98 -1.473 1.267l-.238 .1c-.994 .382 -1.97 .292 -2.855 -.091l-.188 -.087a3.8 3.8 0 0 1 -.716 -.443a1 1 0 0 1 -.356 -.917a3.95 3.95 0 0 1 .654 -1.613a3.6 3.6 0 0 1 1.71 -1.368c.38 -.146 .758 -.223 1.13 -.24a9 9 0 0 1 -.445 -1.023a4.23 4.23 0 0 1 -2.233 -.348a4 4 0 0 1 -.916 -.587l-.207 -.191a4 4 0 0 1 -.724 -.977l-.105 -.216a4.45 4.45 0 0 1 -.265 -2.806a1 1 0 0 1 .69 -.712q .119 -.036 .345 -.076c.801 -.135 1.678 -.082 2.53 .308q .283 .129 .545 .304q .048 -.235 .112 -.47a5 5 0 0 1 -.194 -.272c-.556 -.832 -.83 -1.806 -.642 -2.877l.05 -.242a3.75 3.75 0 0 1 1.027 -1.803l.169 -.159a4 4 0 0 1 1.303 -.796a1 1 0 0 1 .975 .178c.2 .168 .462 .446 .719 .83c.556 .833 .83 1.807 .642 2.878a3.77 3.77 0 0 1 -1.246 2.204c-.303 .27 -.607 .47 -.879 .61a7.5 7.5 0 0 0 -.255 1.971c0 3.502 2.285 6.272 5 6.272s5 -2.77 5 -6.276a7.6 7.6 0 0 0 -.253 -1.967a4.3 4.3 0 0 1 -.881 -.61a3.77 3.77 0 0 1 -1.246 -2.204c-.188 -1.07 .086 -2.045 .642 -2.877c.257 -.385 .52 -.663 .72 -.831a1 1 0 0 1 .974 -.178" />
</symbol>
	<symbol id="filled-lemon-2" xmlns="http://www.w3.org/2000/svg" width="24" height="24" viewBox="0 0 24 24" fill="currentColor"
> <path d="M18 3a3 3 0 0 1 2.443 4.742l-.06 .076l.037 .087c1.269 3.187 .428 7.084 -2.203 9.872l-.217 .223c-2.8 2.8 -6.823 3.723 -10.095 2.42l-.087 -.036l-.133 .098a3 3 0 0 1 -2.11 .488l-.205 -.036a3 3 0 0 1 -1.852 -4.62l.098 -.134l-.036 -.085c-1.269 -3.187 -.428 -7.084 2.203 -9.872l.217 -.223c2.8 -2.8 6.823 -3.723 10.095 -2.42l.085 .037l.124 -.091a3 3 0 0 1 1.493 -.52z" />
</symbol>
	<symbol id="filled-lifebuoy" xmlns="http://www.w3.org/2000/svg" width="24" height="24" viewBox="0 0 24 24" fill="currentColor"
> <path d="M14.757 16.172l3.571 3.571a10.004 10.004 0 0 1 -12.656 0l3.57 -3.571a5 5 0 0 0 2.758 .828c1.02 0 1.967 -.305 2.757 -.828m-10.5 -10.5l3.571 3.57a5 5 0 0 0 -.828 2.758c0 1.02 .305 1.967 .828 2.757l-3.57 3.572a10 10 0 0 1 -2.258 -6.329l.005 -.324a10 10 0 0 1 2.252 -6.005m17.743 6.329c0 2.343 -.82 4.57 -2.257 6.328l-3.571 -3.57a5 5 0 0 0 .828 -2.758c0 -1.02 -.305 -1.967 -.828 -2.757l3.571 -3.57a10 10 0 0 1 2.257 6.327m-5 -8.66q .707 .41 1.33 .918l-3.573 3.57a5 5 0 0 0 -2.757 -.828c-1.02 0 -1.967 .305 -2.757 .828l-3.573 -3.57a10 10 0 0 1 11.33 -.918" />
</symbol>

	<use xlink:href="#outline-cake-roll" x="24" y="24" width="24" height="24" />
	<use xlink:href="#outline-matrix" x="68" y="24" width="24" height="24" />
	<use xlink:href="#outline-square-dashed" x="112" y="24" width="24" height="24" />
	<use xlink:href="#outline-table-dashed" x="156" y="24" width="24" height="24" />
	<use xlink:href="#filled-brand-bitbucket" x="200" y="24" width="24" height="24" />
	<use xlink:href="#filled-direction-arrows" x="244" y="24" width="24" height="24" />
	<use xlink:href="#filled-droplets" x="24" y="68" width="24" height="24" />
	<use xlink:href="#filled-eyeglass" x="68" y="68" width="24" height="24" />
	<use xlink:href="#filled-filters" x="112" y="68" width="24" height="24" />
	<use xlink:href="#filled-flame" x="156" y="68" width="24" height="24" />
	<use xlink:href="#filled-flare" x="200" y="68" width="24" height="24" />
	<use xlink:href="#filled-folders" x="244" y="68" width="24" height="24" />
	<use xlink:href="#filled-garden-cart" x="24" y="112" width="24" height="24" />
	<use xlink:href="#filled-grid-pattern" x="68" y="112" width="24" height="24" />
	<use xlink:href="#filled-helicopter-landing" x="112" y="112" width="24" height="24" />
	<use xlink:href="#filled-laurel-wreath" x="156" y="112" width="24" height="24" />
	<use xlink:href="#filled-lemon-2" x="200" y="112" width="24" height="24" />
	<use xlink:href="#filled-lifebuoy" x="244" y="112" width="24" height="24" />

</svg>