<svg xmlns="http://www.w3.org/2000/svg" xmlns:xlink="http://www.w3.org/1999/xlink" viewBox="0 0 292 160" width="292" height="160" style="color: #354052"><rect x="0" y="0" width="292" height="160" fill="#fff"></rect>
	<symbol id="outline-joker" xmlns="http://www.w3.org/2000/svg" width="24" height="24" viewBox="0 0 24 24" fill="none" stroke="currentColor" stroke-width="2" stroke-linecap="round" stroke-linejoin="round"
> <path d="M5 16m0 1.5a1.5 1.5 0 0 1 1.5 -1.5h11a1.5 1.5 0 0 1 1.5 1.5v0a1.5 1.5 0 0 1 -1.5 1.5h-11a1.5 1.5 0 0 1 -1.5 -1.5z" /> <path d="M12 16q -2.5 -8 -6 -8q -2.5 0 -3 2c2.953 .31 3.308 3.33 4 6" /> <path d="M12 16q 2.5 -8 6 -8q 2.5 0 3 2c-2.953 .31 -3.308 3.33 -4 6" /> <path d="M9 9.5q 2 -3.5 3 -3.5t 3 3.5" />
</symbol>
	<symbol id="outline-number-10" xmlns="http://www.w3.org/2000/svg" width="24" height="24" viewBox="0 0 24 24" fill="none" stroke="currentColor" stroke-width="2" stroke-linecap="round" stroke-linejoin="round"
> <path d="M8 20v-16l-5 5" /> <path d="M16 20a4 4 0 0 0 4 -4v-8a4 4 0 1 0 -8 0v8a4 4 0 0 0 4 4" />
</symbol>
	<symbol id="outline-number-11" xmlns="http://www.w3.org/2000/svg" width="24" height="24" viewBox="0 0 24 24" fill="none" stroke="currentColor" stroke-width="2" stroke-linecap="round" stroke-linejoin="round"
> <path d="M8 20v-16l-5 5" /> <path d="M18 20v-16l-5 5" />
</symbol>
	<symbol id="outline-play-card-1" xmlns="http://www.w3.org/2000/svg" width="24" height="24" viewBox="0 0 24 24" fill="none" stroke="currentColor" stroke-width="2" stroke-linecap="round" stroke-linejoin="round"
> <path d="M19 5v14a2 2 0 0 1 -2 2h-10a2 2 0 0 1 -2 -2v-14a2 2 0 0 1 2 -2h10a2 2 0 0 1 2 2" /> <path d="M8 6h.01" /> <path d="M16 18h.01" /> <path d="M12 9v6" />
</symbol>
	<symbol id="outline-play-card-10" xmlns="http://www.w3.org/2000/svg" width="24" height="24" viewBox="0 0 24 24" fill="none" stroke="currentColor" stroke-width="2" stroke-linecap="round" stroke-linejoin="round"
> <path d="M19 5v14a2 2 0 0 1 -2 2h-10a2 2 0 0 1 -2 -2v-14a2 2 0 0 1 2 -2h10a2 2 0 0 1 2 2" /> <path d="M8 6h.01" /> <path d="M16 18h.01" /> <path d="M9 9v6" /> <path d="M12 13c0 1.105 .672 2 1.5 2s1.5 -.895 1.5 -2v-2c0 -1.105 -.672 -2 -1.5 -2s-1.5 .895 -1.5 2z" />
</symbol>
	<symbol id="outline-play-card-2" xmlns="http://www.w3.org/2000/svg" width="24" height="24" viewBox="0 0 24 24" fill="none" stroke="currentColor" stroke-width="2" stroke-linecap="round" stroke-linejoin="round"
> <path d="M19 5v14a2 2 0 0 1 -2 2h-10a2 2 0 0 1 -2 -2v-14a2 2 0 0 1 2 -2h10a2 2 0 0 1 2 2" /> <path d="M8 6h.01" /> <path d="M16 18h.01" /> <path d="M10 9h3a1 1 0 0 1 1 1v1a1 1 0 0 1 -1 1h-2a1 1 0 0 0 -1 1v1a1 1 0 0 0 1 1h3" />
</symbol>
	<symbol id="outline-play-card-3" xmlns="http://www.w3.org/2000/svg" width="24" height="24" viewBox="0 0 24 24" fill="none" stroke="currentColor" stroke-width="2" stroke-linecap="round" stroke-linejoin="round"
> <path d="M19 5v14a2 2 0 0 1 -2 2h-10a2 2 0 0 1 -2 -2v-14a2 2 0 0 1 2 -2h10a2 2 0 0 1 2 2" /> <path d="M8 6h.01" /> <path d="M16 18h.01" /> <path d="M10 9h2.5a1.5 1.5 0 0 1 0 3h-1.5h1.5a1.5 1.5 0 0 1 0 3h-2.5" />
</symbol>
	<symbol id="outline-play-card-4" xmlns="http://www.w3.org/2000/svg" width="24" height="24" viewBox="0 0 24 24" fill="none" stroke="currentColor" stroke-width="2" stroke-linecap="round" stroke-linejoin="round"
> <path d="M19 5v14a2 2 0 0 1 -2 2h-10a2 2 0 0 1 -2 -2v-14a2 2 0 0 1 2 -2h10a2 2 0 0 1 2 2" /> <path d="M8 6h.01" /> <path d="M16 18h.01" /> <path d="M10 9v2a1 1 0 0 0 1 1h3" /> <path d="M14 9v6" />
</symbol>
	<symbol id="outline-play-card-5" xmlns="http://www.w3.org/2000/svg" width="24" height="24" viewBox="0 0 24 24" fill="none" stroke="currentColor" stroke-width="2" stroke-linecap="round" stroke-linejoin="round"
> <path d="M19 5v14a2 2 0 0 1 -2 2h-10a2 2 0 0 1 -2 -2v-14a2 2 0 0 1 2 -2h10a2 2 0 0 1 2 2" /> <path d="M8 6h.01" /> <path d="M16 18h.01" /> <path d="M10 15h3a1 1 0 0 0 1 -1v-1a1 1 0 0 0 -1 -1h-3v-3h4" />
</symbol>
	<symbol id="outline-play-card-6" xmlns="http://www.w3.org/2000/svg" width="24" height="24" viewBox="0 0 24 24" fill="none" stroke="currentColor" stroke-width="2" stroke-linecap="round" stroke-linejoin="round"
> <path d="M19 5v14a2 2 0 0 1 -2 2h-10a2 2 0 0 1 -2 -2v-14a2 2 0 0 1 2 -2h10a2 2 0 0 1 2 2" /> <path d="M8 6h.01" /> <path d="M16 18h.01" /> <path d="M14 9h-3a1 1 0 0 0 -1 1v4a1 1 0 0 0 1 1h2a1 1 0 0 0 1 -1v-1a1 1 0 0 0 -1 -1h-3" />
</symbol>
	<symbol id="outline-play-card-7" xmlns="http://www.w3.org/2000/svg" width="24" height="24" viewBox="0 0 24 24" fill="none" stroke="currentColor" stroke-width="2" stroke-linecap="round" stroke-linejoin="round"
> <path d="M19 5v14a2 2 0 0 1 -2 2h-10a2 2 0 0 1 -2 -2v-14a2 2 0 0 1 2 -2h10a2 2 0 0 1 2 2" /> <path d="M10 9h4l-2 6" /> <path d="M8 6h.01" /> <path d="M16 18h.01" />
</symbol>
	<symbol id="outline-play-card-8" xmlns="http://www.w3.org/2000/svg" width="24" height="24" viewBox="0 0 24 24" fill="none" stroke="currentColor" stroke-width="2" stroke-linecap="round" stroke-linejoin="round"
> <path d="M19 5v14a2 2 0 0 1 -2 2h-10a2 2 0 0 1 -2 -2v-14a2 2 0 0 1 2 -2h10a2 2 0 0 1 2 2" /> <path d="M8 6h.01" /> <path d="M16 18h.01" /> <path d="M12 12h-1a1 1 0 0 1 -1 -1v-1a1 1 0 0 1 1 -1h2a1 1 0 0 1 1 1v1a1 1 0 0 1 -1 1z" /> <path d="M12 12h-1a1 1 0 0 0 -1 1v1a1 1 0 0 0 1 1h2a1 1 0 0 0 1 -1v-1a1 1 0 0 0 -1 -1" />
</symbol>
	<symbol id="outline-play-card-9" xmlns="http://www.w3.org/2000/svg" width="24" height="24" viewBox="0 0 24 24" fill="none" stroke="currentColor" stroke-width="2" stroke-linecap="round" stroke-linejoin="round"
> <path d="M19 5v14a2 2 0 0 1 -2 2h-10a2 2 0 0 1 -2 -2v-14a2 2 0 0 1 2 -2h10a2 2 0 0 1 2 2" /> <path d="M8 6h.01" /> <path d="M16 18h.01" /> <path d="M10 15h3a1 1 0 0 0 1 -1v-4a1 1 0 0 0 -1 -1h-2a1 1 0 0 0 -1 1v1a1 1 0 0 0 1 1h3" />
</symbol>
	<symbol id="outline-play-card-a" xmlns="http://www.w3.org/2000/svg" width="24" height="24" viewBox="0 0 24 24" fill="none" stroke="currentColor" stroke-width="2" stroke-linecap="round" stroke-linejoin="round"
> <path d="M19 5v14a2 2 0 0 1 -2 2h-10a2 2 0 0 1 -2 -2v-14a2 2 0 0 1 2 -2h10a2 2 0 0 1 2 2" /> <path d="M8 6h.01" /> <path d="M16 18h.01" /> <path d="M10 15v-4a2 2 0 1 1 4 0v4" /> <path d="M10 13h4" />
</symbol>
	<symbol id="outline-play-card-j" xmlns="http://www.w3.org/2000/svg" width="24" height="24" viewBox="0 0 24 24" fill="none" stroke="currentColor" stroke-width="2" stroke-linecap="round" stroke-linejoin="round"
> <path d="M19 5v14a2 2 0 0 1 -2 2h-10a2 2 0 0 1 -2 -2v-14a2 2 0 0 1 2 -2h10a2 2 0 0 1 2 2" /> <path d="M8 6h.01" /> <path d="M16 18h.01" /> <path d="M10 9h4v4a2 2 0 1 1 -4 0" />
</symbol>
	<symbol id="outline-play-card-k" xmlns="http://www.w3.org/2000/svg" width="24" height="24" viewBox="0 0 24 24" fill="none" stroke="currentColor" stroke-width="2" stroke-linecap="round" stroke-linejoin="round"
> <path d="M19 5v14a2 2 0 0 1 -2 2h-10a2 2 0 0 1 -2 -2v-14a2 2 0 0 1 2 -2h10a2 2 0 0 1 2 2" /> <path d="M8 6h.01" /> <path d="M16 18h.01" /> <path d="M10 9v6" /> <path d="M14 9l-3 3l3 3" /> <path d="M10 12h1" />
</symbol>
	<symbol id="outline-play-card-q" xmlns="http://www.w3.org/2000/svg" width="24" height="24" viewBox="0 0 24 24" fill="none" stroke="currentColor" stroke-width="2" stroke-linecap="round" stroke-linejoin="round"
> <path d="M19 5v14a2 2 0 0 1 -2 2h-10a2 2 0 0 1 -2 -2v-14a2 2 0 0 1 2 -2h10a2 2 0 0 1 2 2" /> <path d="M8 6h.01" /> <path d="M16 18h.01" /> <path d="M12 9a2 2 0 0 1 2 2v2a2 2 0 1 1 -4 0v-2a2 2 0 0 1 2 -2" /> <path d="M13 14l1.5 1.5" />
</symbol>
	<symbol id="outline-play-card-star" xmlns="http://www.w3.org/2000/svg" width="24" height="24" viewBox="0 0 24 24" fill="none" stroke="currentColor" stroke-width="2" stroke-linecap="round" stroke-linejoin="round"
> <path d="M19 5v14a2 2 0 0 1 -2 2h-10a2 2 0 0 1 -2 -2v-14a2 2 0 0 1 2 -2h10a2 2 0 0 1 2 2" /> <path d="M8 6h.01" /> <path d="M16 18h.01" /> <path d="M11.75 14.112l-1.63 .853a.294 .294 0 0 1 -.425 -.307l.31 -1.808l-1.317 -1.28a.292 .292 0 0 1 .163 -.499l1.82 -.264l.815 -1.644a.294 .294 0 0 1 .527 0l.814 1.644l1.82 .264a.292 .292 0 0 1 .164 .499l-1.318 1.28l.31 1.807a.292 .292 0 0 1 -.425 .308z" />
</symbol>

	<use xlink:href="#outline-joker" x="24" y="24" width="24" height="24" />
	<use xlink:href="#outline-number-10" x="68" y="24" width="24" height="24" />
	<use xlink:href="#outline-number-11" x="112" y="24" width="24" height="24" />
	<use xlink:href="#outline-play-card-1" x="156" y="24" width="24" height="24" />
	<use xlink:href="#outline-play-card-10" x="200" y="24" width="24" height="24" />
	<use xlink:href="#outline-play-card-2" x="244" y="24" width="24" height="24" />
	<use xlink:href="#outline-play-card-3" x="24" y="68" width="24" height="24" />
	<use xlink:href="#outline-play-card-4" x="68" y="68" width="24" height="24" />
	<use xlink:href="#outline-play-card-5" x="112" y="68" width="24" height="24" />
	<use xlink:href="#outline-play-card-6" x="156" y="68" width="24" height="24" />
	<use xlink:href="#outline-play-card-7" x="200" y="68" width="24" height="24" />
	<use xlink:href="#outline-play-card-8" x="244" y="68" width="24" height="24" />
	<use xlink:href="#outline-play-card-9" x="24" y="112" width="24" height="24" />
	<use xlink:href="#outline-play-card-a" x="68" y="112" width="24" height="24" />
	<use xlink:href="#outline-play-card-j" x="112" y="112" width="24" height="24" />
	<use xlink:href="#outline-play-card-k" x="156" y="112" width="24" height="24" />
	<use xlink:href="#outline-play-card-q" x="200" y="112" width="24" height="24" />
	<use xlink:href="#outline-play-card-star" x="244" y="112" width="24" height="24" />

</svg>