<svg xmlns="http://www.w3.org/2000/svg" xmlns:xlink="http://www.w3.org/1999/xlink" viewBox="0 0 292 204" width="292" height="204" style="color: #354052"><rect x="0" y="0" width="292" height="204" fill="#fff"></rect>
	<symbol id="filled-ball-bowling" xmlns="http://www.w3.org/2000/svg" width="24" height="24" viewBox="0 0 24 24" fill="currentColor"
> <path d="M17 3.34a10 10 0 1 1 -10 17.32a10 10 0 0 1 10 -17.32m-3 7.66a1 1 0 0 0 -1 1v.01a1 1 0 0 0 2 0v-.01a1 1 0 0 0 -1 -1m-3 -3a1 1 0 0 0 -1 1v.01a1 1 0 0 0 2 0v-.01a1 1 0 0 0 -1 -1m4 -1a1 1 0 0 0 -1 1v.01a1 1 0 0 0 2 0v-.01a1 1 0 0 0 -1 -1" />
</symbol>
	<symbol id="filled-crown" xmlns="http://www.w3.org/2000/svg" width="24" height="24" viewBox="0 0 24 24" fill="currentColor"
> <path d="M19 19h-14c-.5 0 -.9 -.3 -1 -.8l-2 -10c0 -.4 .1 -.8 .5 -1.1c.4 -.2 .8 -.2 1.1 0l4.1 3.3l3.4 -5.1c.4 -.6 1.3 -.6 1.7 0l3.4 5.1l4.1 -3.3c.3 -.3 .8 -.3 1.1 0c.4 .2 .5 .6 .5 1.1l-2 10c0 .5 -.5 .8 -1 .8z" />
</symbol>
	<symbol id="filled-folder-open" xmlns="http://www.w3.org/2000/svg" width="24" height="24" viewBox="0 0 24 24" fill="currentColor"
> <path d="M2 6c0 -.796 .316 -1.558 .879 -2.121c.563 -.563 1.325 -.879 2.121 -.879h4l.099 .005c.229 .023 .444 .124 .608 .288l2.707 2.707h6.586c.796 0 1.558 .316 2.121 .879c.319 .319 .559 .703 .707 1.121l-14.523 0c-.407 0 -.805 .125 -1.14 .356c-.292 .203 -.525 .48 -.674 .801l-.058 .141l-1.379 3.676c-.194 .517 .068 1.093 .585 1.287c.517 .194 1.094 -.068 1.288 -.585l1.134 -3.027c.146 -.39 .519 -.649 .937 -.649h13.002l.217 .012c.216 .024 .426 .082 .624 .173c.054 .025 .107 .053 .159 .083c.199 .115 .377 .263 .525 .439c.188 .222 .325 .482 .403 .762c.077 .28 .092 .573 .045 .859c-.001 .008 -.003 .016 -.005 .024l-.995 5.21c-.131 .686 -.497 1.304 -1.036 1.749c-.47 .389 -1.046 .624 -1.65 .677l-.261 .012h-14.026c-.796 0 -1.558 -.316 -2.121 -.879c-.563 -.563 -.879 -1.325 -.879 -2.121v-11z" />
</symbol>
	<symbol id="filled-leaf" xmlns="http://www.w3.org/2000/svg" width="24" height="24" viewBox="0 0 24 24" fill="currentColor"
> <path d="M3.055 14.328l-.018 -.168l-.004 -.043a11 11 0 0 1 -.047 -1.12c.018 -6.29 4.29 -9.997 13 -9.997h4.014a1 1 0 0 1 1 1l-.002 2.057c-.498 8.701 -4.74 12.943 -11.998 12.943h-2.631a16 16 0 0 0 -.375 2.11a1 1 0 1 1 -1.988 -.22q .174 -1.568 .58 -2.947l-.118 -.146l-.208 -.28l-.157 -.229l-.182 -.293l-.098 -.171l-.065 -.122a6 6 0 0 1 -.397 -.941l-.072 -.237l-.085 -.327l-.057 -.268l-.043 -.242zm8.539 -4.242c-2.845 1.265 -4.854 3.13 -6.108 5.583q .098 .2 .218 .4l.185 .281l.07 .097q .12 .164 .258 .329l.197 .224h.649c1.037 -2.271 2.777 -3.946 5.343 -5.086a1 1 0 0 0 -.812 -1.828" />
</symbol>
	<symbol id="filled-pacman" xmlns="http://www.w3.org/2000/svg" width="24" height="24" viewBox="0 0 24 24" fill="currentColor"
> <path d="M13.557 2.015a10 10 0 0 1 7.257 3.744a1 1 0 0 1 -.074 1.331l-4.912 4.91l4.912 4.91a1 1 0 0 1 .074 1.332a10 10 0 1 1 -15.112 -13.078l.235 -.242l.07 -.063a9.98 9.98 0 0 1 7.55 -2.844m-1.057 3.485c-1.02 0 -1.86 .762 -1.982 1.748l-.013 .15a1 1 0 0 0 -.005 .102a2 2 0 1 0 2 -2" />
</symbol>
	<symbol id="filled-phone-call" xmlns="http://www.w3.org/2000/svg" width="24" height="24" viewBox="0 0 24 24" fill="currentColor"
> <path d="M9.928 3.629l2 5a1 1 0 0 1 -.414 1.228l-1.67 1.003a9.9 9.9 0 0 0 3.296 3.297l1.003 -1.671a1 1 0 0 1 1.228 -.414l5 2a1 1 0 0 1 .629 .928v4c0 1.657 -1.343 3 -3.06 2.998c-8.579 -.521 -15.418 -7.36 -15.94 -15.998a3 3 0 0 1 3 -3h4a1 1 0 0 1 .928 .629" /> <path d="M18 9a1 1 0 0 1 -2 0a1 1 0 0 0 -1 -1a1 1 0 0 1 0 -2a3 3 0 0 1 3 3" /> <path d="M22 9a1 1 0 0 1 -2 0a5 5 0 0 0 -5 -5a1 1 0 0 1 0 -2a7 7 0 0 1 7 7" />
</symbol>
	<symbol id="filled-phone-calling" xmlns="http://www.w3.org/2000/svg" width="24" height="24" viewBox="0 0 24 24" fill="currentColor"
> <path d="M9.928 3.629l2 5a1 1 0 0 1 -.414 1.228l-1.67 1.003a9.9 9.9 0 0 0 3.296 3.297l1.003 -1.671a1 1 0 0 1 1.228 -.414l5 2a1 1 0 0 1 .629 .928v4c0 1.657 -1.343 3 -3.06 2.998c-8.579 -.521 -15.418 -7.36 -15.94 -15.998a3 3 0 0 1 3 -3h4a1 1 0 0 1 .928 .629" /> <path d="M16 7v.01a1 1 0 0 1 -2 0v-.01a1 1 0 0 1 2 0" /> <path d="M19 7v.01a1 1 0 0 1 -2 0v-.01a1 1 0 0 1 2 0" /> <path d="M22 7v.01a1 1 0 0 1 -2 0v-.01a1 1 0 0 1 2 0" />
</symbol>
	<symbol id="filled-phone-check" xmlns="http://www.w3.org/2000/svg" width="24" height="24" viewBox="0 0 24 24" fill="currentColor"
> <path d="M9.928 3.629l2 5a1 1 0 0 1 -.414 1.228l-1.67 1.003a9.9 9.9 0 0 0 3.296 3.297l1.003 -1.671a1 1 0 0 1 1.228 -.414l5 2a1 1 0 0 1 .629 .928v4c0 1.657 -1.343 3 -3.06 2.998c-8.579 -.521 -15.418 -7.36 -15.94 -15.998a3 3 0 0 1 3 -3h4a1 1 0 0 1 .928 .629" /> <path d="M21.707 3.293a1 1 0 0 1 0 1.414l-4 4a1 1 0 0 1 -1.414 0l-2 -2a1 1 0 1 1 1.414 -1.414l1.293 1.293l3.293 -3.293a1 1 0 0 1 1.414 0" />
</symbol>
	<symbol id="filled-phone-x" xmlns="http://www.w3.org/2000/svg" width="24" height="24" viewBox="0 0 24 24" fill="currentColor"
> <path d="M9.928 3.629l2 5a1 1 0 0 1 -.414 1.228l-1.67 1.003a9.9 9.9 0 0 0 3.296 3.297l1.003 -1.671a1 1 0 0 1 1.228 -.414l5 2a1 1 0 0 1 .629 .928v4c0 1.657 -1.343 3 -3.06 2.998c-8.579 -.521 -15.418 -7.36 -15.94 -15.998a3 3 0 0 1 3 -3h4a1 1 0 0 1 .928 .629" /> <path d="M20.707 3.293a1 1 0 0 1 0 1.414l-1.293 1.293l1.293 1.293a1 1 0 1 1 -1.414 1.414l-1.293 -1.293l-1.293 1.293a1 1 0 0 1 -1.414 -1.414l1.293 -1.293l-1.293 -1.293a1 1 0 1 1 1.414 -1.414l1.293 1.293l1.293 -1.293a1 1 0 0 1 1.414 0" />
</symbol>
	<symbol id="filled-plane-arrival" xmlns="http://www.w3.org/2000/svg" width="24" height="24" viewBox="0 0 24 24" fill="currentColor"
> <path d="M10.466 2.271l2.898 .777a1 1 0 0 1 .708 .711l1.904 7.235l4.255 1.141a3 3 0 1 1 -1.539 5.799l-14.489 -3.882a1 1 0 0 1 -.72 -.765l-1.347 -6.572a1 1 0 0 1 1.239 -1.167l2.898 .776a1 1 0 0 1 .607 .466l1.207 2.091l1.217 .326l-.098 -5.954a1 1 0 0 1 1.259 -.982" /> <path d="M22 21a1 1 0 0 1 -1 1h-18a1 1 0 0 1 0 -2h18a1 1 0 0 1 1 1" />
</symbol>
	<symbol id="filled-plane-departure" xmlns="http://www.w3.org/2000/svg" width="24" height="24" viewBox="0 0 24 24" fill="currentColor"
> <path d="M9.674 3.827l5.267 5.315l4.25 -1.139a3 3 0 1 1 1.572 5.79l-14.49 3.883a1 1 0 0 1 -1.006 -.303l-4.45 -5.02a1 1 0 0 1 .49 -1.629l2.896 -.776a1 1 0 0 1 .759 .1l2.091 1.207l1.217 -.326l-3.062 -5.107a1 1 0 0 1 .599 -1.48l2.898 -.777a1 1 0 0 1 .97 .262" /> <path d="M22 21a1 1 0 0 1 -1 1h-18a1 1 0 0 1 0 -2h18a1 1 0 0 1 1 1" />
</symbol>
	<symbol id="filled-plane-tilt" xmlns="http://www.w3.org/2000/svg" width="24" height="24" viewBox="0 0 24 24" fill="currentColor"
> <path d="M21.107 2.893a3.047 3.047 0 0 1 .012 4.302l-2.479 2.564l2.309 6.925a1 1 0 0 1 -.235 1.016l-2.5 2.55a1 1 0 0 1 -1.596 -.229l-2.864 -5.36l-1.754 1.753v2.586a1 1 0 0 1 -.293 .707l-2 2a1 1 0 0 1 -1.656 -.39l-1.341 -4.027l-4.025 -1.342a1 1 0 0 1 -.391 -1.656l2 -2a1 1 0 0 1 .706 -.292h2.586l1.757 -1.757l-5.317 -2.863a1 1 0 0 1 -.233 -1.587l2.5 -2.5a1 1 0 0 1 1.023 -.242l6.925 2.309l2.552 -2.467a3.05 3.05 0 0 1 4.314 0" />
</symbol>
	<symbol id="filled-plane" xmlns="http://www.w3.org/2000/svg" width="24" height="24" viewBox="0 0 24 24" fill="currentColor"
> <path d="M12.868 2.504l3.712 6.496h3.42a3 3 0 0 1 0 6h-3.42l-3.712 6.496a1 1 0 0 1 -.868 .504h-3a1 1 0 0 1 -.962 -1.275l1.636 -5.725h-2.26l-1.707 1.707a1 1 0 0 1 -.707 .293h-3a1 1 0 0 1 -.894 -1.447l1.776 -3.553l-1.776 -3.553a1 1 0 0 1 .894 -1.447h3a1 1 0 0 1 .707 .293l1.707 1.707h2.26l-1.636 -5.725a1 1 0 0 1 .962 -1.275h3a1 1 0 0 1 .868 .504" />
</symbol>
	<symbol id="filled-play-card" xmlns="http://www.w3.org/2000/svg" width="24" height="24" viewBox="0 0 24 24" fill="currentColor"
> <path d="M17 2a2.995 2.995 0 0 1 2.995 2.898q .005 .05 .005 .102v14a3 3 0 0 1 -3 3h-10a3 3 0 0 1 -3 -3v-14a3 3 0 0 1 3 -3zm-.99 15h-.01a1 1 0 0 0 0 2h.01a1 1 0 0 0 0 -2m-3.21 -9.6a1 1 0 0 0 -1.6 0l-3 4a1 1 0 0 0 0 1.2l2.988 3.984l.012 .016q .007 .01 .017 .02a.5 .5 0 0 0 .077 .086l.016 .018l.018 .016q .025 .024 .052 .043l.025 .02a.5 .5 0 0 0 .084 .056l.056 .03q .016 .01 .033 .018l.043 .017a.4 .4 0 0 0 .074 .028a.9 .9 0 0 0 .305 .047h.047a1 1 0 0 0 .095 -.01a1 1 0 0 0 .163 -.037l.025 -.008l.049 -.02a.3 .3 0 0 0 .076 -.034a.5 .5 0 0 0 .08 -.046a1 1 0 0 0 .085 -.06a.5 .5 0 0 0 .086 -.078l.018 -.016l.016 -.018l.043 -.052l.017 -.02l.009 -.012l2.991 -3.988a1 1 0 0 0 0 -1.2zm-4.79 -2.4h-.01a1 1 0 1 0 0 2h.01a1 1 0 1 0 0 -2" />
</symbol>
	<symbol id="filled-playlist" xmlns="http://www.w3.org/2000/svg" width="24" height="24" viewBox="0 0 24 24" fill="currentColor"
> <path d="M21 3a1 1 0 0 1 0 2h-3v12a4 4 0 1 1 -2.001 -3.465l.001 -9.535a1 1 0 0 1 1 -1z" /> <path d="M14 5a1 1 0 0 1 -1 1h-10a1 1 0 1 1 0 -2h10a1 1 0 0 1 1 1" /> <path d="M14 9a1 1 0 0 1 -1 1h-10a1 1 0 1 1 0 -2h10a1 1 0 0 1 1 1" /> <path d="M10 13a1 1 0 0 1 -1 1h-6a1 1 0 0 1 0 -2h6a1 1 0 0 1 1 1" />
</symbol>
	<symbol id="filled-report-analytics" xmlns="http://www.w3.org/2000/svg" width="24" height="24" viewBox="0 0 24 24" fill="currentColor"
> <path d="M17.997 4.17a3 3 0 0 1 2.003 2.83v12a3 3 0 0 1 -3 3h-10a3 3 0 0 1 -3 -3v-12a3 3 0 0 1 2.003 -2.83a4 4 0 0 0 3.997 3.83h4a4 4 0 0 0 3.98 -3.597zm-8.997 6.83a1 1 0 0 0 -1 1v5a1 1 0 0 0 2 0v-5a1 1 0 0 0 -1 -1m3 4a1 1 0 0 0 -1 1v1a1 1 0 0 0 2 0v-1a1 1 0 0 0 -1 -1m3 -2a1 1 0 0 0 -1 1v3a1 1 0 0 0 2 0v-3a1 1 0 0 0 -1 -1m-1 -11a2 2 0 1 1 0 4h-4a2 2 0 1 1 0 -4z" />
</symbol>
	<symbol id="filled-report-money" xmlns="http://www.w3.org/2000/svg" width="24" height="24" viewBox="0 0 24 24" fill="currentColor"
> <path d="M17.997 4.17a3 3 0 0 1 2.003 2.83v12a3 3 0 0 1 -3 3h-10a3 3 0 0 1 -3 -3v-12a3 3 0 0 1 2.003 -2.83a4 4 0 0 0 3.997 3.83h4a4 4 0 0 0 3.98 -3.597zm-5.997 5.83a1 1 0 0 0 -1 1v.05a2.5 2.5 0 0 0 .5 4.95h1a.5 .5 0 1 1 0 1h-2.5a1 1 0 0 0 0 2h1a1 1 0 0 0 2 0v-.05a2.5 2.5 0 0 0 -.5 -4.95h-1a.5 .5 0 1 1 0 -1h2.5a1 1 0 0 0 0 -2h-1a1 1 0 0 0 -1 -1m2 -8a2 2 0 1 1 0 4h-4a2 2 0 1 1 0 -4z" />
</symbol>
	<symbol id="filled-satellite" xmlns="http://www.w3.org/2000/svg" width="24" height="24" viewBox="0 0 24 24" fill="currentColor"
> <path d="M21 14a1 1 0 0 1 1 1a7 7 0 0 1 -7 7a1 1 0 0 1 0 -2a5 5 0 0 0 5 -5a1 1 0 0 1 1 -1m-4 -.5a1 1 0 0 1 1 1a3.5 3.5 0 0 1 -3.5 3.5a1 1 0 0 1 -.117 -1.993l.117 -.007a1.5 1.5 0 0 0 1.493 -1.356l.007 -.144a1 1 0 0 1 1 -1m-13.829 -2.087l4 4.001q .212 .212 .445 .384l-.909 .91a1 1 0 0 1 -1.414 0l-3 -3a1 1 0 0 1 0 -1.415zm5.243 -8.413l5.586 5.586a2 2 0 0 1 0 2.828l-.586 .585l.793 .794a1 1 0 0 1 -1.414 1.414l-.793 -.794l-.586 .587a2 2 0 0 1 -2.828 0l-5.586 -5.586a2 2 0 0 1 -.18 -2.618l.127 -.152l.053 -.058l2.586 -2.586a2 2 0 0 1 2.828 0m5.293 -.707l3 3a1 1 0 0 1 0 1.414l-.908 .91a4 4 0 0 0 -.384 -.445l-4.001 -4l.879 -.88a1 1 0 0 1 1.414 0" />
</symbol>
	<symbol id="filled-sparkles-2" xmlns="http://www.w3.org/2000/svg" width="24" height="24" viewBox="0 0 24 24" fill="currentColor"
> <path d="M17.964 2.733c.156 .563 .312 1 .484 1.353c.342 .71 .758 1.125 1.47 1.467c.353 .17 .79 .326 1.352 .484c.98 .276 .97 1.668 -.013 1.93a8.3 8.3 0 0 0 -1.34 .481c-.71 .342 -1.127 .757 -1.463 1.453a8 8 0 0 0 -.486 1.352c-.258 .988 -1.658 1 -1.932 .015c-.156 -.565 -.312 -1.002 -.484 -1.354c-.342 -.71 -.758 -1.124 -1.458 -1.46a8 8 0 0 0 -1.374 -.495a.4 .4 0 0 1 -.06 -.02l-.044 -.017l-.045 -.02l-.049 -.025l-.035 -.02a.4 .4 0 0 1 -.049 -.03l-.032 -.023l-.043 -.034l-.033 -.028l-.036 -.035l-.034 -.035l-.028 -.033l-.035 -.043l-.022 -.032a.4 .4 0 0 1 -.032 -.049l-.02 -.035l-.025 -.05l-.02 -.044l-.017 -.043a.4 .4 0 0 1 -.02 -.06l-.01 -.034a.5 .5 0 0 1 -.02 -.098l-.006 -.065l-.005 -.035v-.05a.4 .4 0 0 1 .003 -.085a.5 .5 0 0 1 .013 -.093a.5 .5 0 0 1 .024 -.103a.4 .4 0 0 1 .02 -.06l.017 -.044l.02 -.045l.025 -.049l.02 -.035a.4 .4 0 0 1 .03 -.049l.023 -.032l.034 -.043l.028 -.033l.035 -.036l.035 -.034q .015 -.015 .033 -.028l.043 -.035l.032 -.022a.4 .4 0 0 1 .049 -.032l.035 -.02l.05 -.025l.044 -.02l.043 -.017a.4 .4 0 0 1 .06 -.02l.027 -.008a8.3 8.3 0 0 0 1.339 -.48c.71 -.342 1.127 -.757 1.47 -1.466c.17 -.354 .327 -.792 .483 -1.355c.272 -.976 1.657 -.976 1.928 0" /> <path d="M10.965 6.737q .219 .801 .503 1.574c.856 2.28 1.945 3.363 4.23 4.22q .708 .265 1.571 .506c.976 .272 .974 1.656 -.002 1.927q -.798 .221 -1.568 .504c-2.288 .858 -3.376 1.94 -4.229 4.216a19 19 0 0 0 -.505 1.579c-.268 .983 -1.662 .983 -1.93 0a19 19 0 0 0 -.503 -1.574c-.856 -2.281 -1.944 -3.363 -4.226 -4.219a20 20 0 0 0 -1.594 -.513a.4 .4 0 0 1 -.054 -.018l-.044 -.017l-.043 -.02a.3 .3 0 0 1 -.048 -.024l-.036 -.02a.4 .4 0 0 1 -.048 -.03l-.032 -.024l-.044 -.034l-.033 -.029l-.037 -.034l-.034 -.037l-.03 -.033l-.033 -.044l-.023 -.032a.4 .4 0 0 1 -.03 -.048l-.021 -.036a.3 .3 0 0 1 -.024 -.048l-.02 -.043l-.017 -.044a.4 .4 0 0 1 -.018 -.054a.2 .2 0 0 1 -.01 -.039a.4 .4 0 0 1 -.014 -.059l-.007 -.04l-.007 -.056l-.003 -.044l-.002 -.05v-.05q 0 -.023 .004 -.044q .001 -.03 .007 -.057l.007 -.04a.4 .4 0 0 1 .017 -.076l.007 -.021a.4 .4 0 0 1 .018 -.054l.017 -.044l.02 -.043a.3 .3 0 0 1 .024 -.048l.02 -.036a.4 .4 0 0 1 .03 -.048l.024 -.032l.034 -.044l.029 -.033l.034 -.037l.037 -.034l.033 -.03l.044 -.033l.032 -.023a.4 .4 0 0 1 .048 -.03l.036 -.021a.3 .3 0 0 1 .048 -.024l.043 -.02l.044 -.017a.4 .4 0 0 1 .054 -.018l.021 -.007a20 20 0 0 0 1.568 -.504c2.287 -.858 3.375 -1.94 4.229 -4.216a19 19 0 0 0 .505 -1.579c.268 -.983 1.662 -.983 1.93 0" />
</symbol>
	<symbol id="filled-sparkles" xmlns="http://www.w3.org/2000/svg" width="24" height="24" viewBox="0 0 24 24" fill="currentColor"
> <path d="M16 19a1 1 0 0 1 0 -2a1 1 0 0 0 1 -1c0 -1.333 2 -1.333 2 0a1 1 0 0 0 1 1c1.333 0 1.333 2 0 2a1 1 0 0 0 -1 1c0 1.333 -2 1.333 -2 0a1 1 0 0 0 -1 -1" /> <path d="M3 11a5 5 0 0 0 5 -5c0 -1.333 2 -1.333 2 0a5 5 0 0 0 5 5c1.333 0 1.333 2 0 2a5 5 0 0 0 -5 5a1 1 0 0 1 -2 0a5 5 0 0 0 -5 -5c-1.333 0 -1.333 -2 0 -2" /> <path d="M16 7a1 1 0 0 1 0 -2a1 1 0 0 0 1 -1c0 -1.333 2 -1.333 2 0a1 1 0 0 0 1 1c1.333 0 1.333 2 0 2a1 1 0 0 0 -1 1c0 1.333 -2 1.333 -2 0a1 1 0 0 0 -1 -1" />
</symbol>

	<use xlink:href="#filled-ball-bowling" x="24" y="24" width="24" height="24" />
	<use xlink:href="#filled-crown" x="68" y="24" width="24" height="24" />
	<use xlink:href="#filled-folder-open" x="112" y="24" width="24" height="24" />
	<use xlink:href="#filled-leaf" x="156" y="24" width="24" height="24" />
	<use xlink:href="#filled-pacman" x="200" y="24" width="24" height="24" />
	<use xlink:href="#filled-phone-call" x="244" y="24" width="24" height="24" />
	<use xlink:href="#filled-phone-calling" x="24" y="68" width="24" height="24" />
	<use xlink:href="#filled-phone-check" x="68" y="68" width="24" height="24" />
	<use xlink:href="#filled-phone-x" x="112" y="68" width="24" height="24" />
	<use xlink:href="#filled-plane-arrival" x="156" y="68" width="24" height="24" />
	<use xlink:href="#filled-plane-departure" x="200" y="68" width="24" height="24" />
	<use xlink:href="#filled-plane-tilt" x="244" y="68" width="24" height="24" />
	<use xlink:href="#filled-plane" x="24" y="112" width="24" height="24" />
	<use xlink:href="#filled-play-card" x="68" y="112" width="24" height="24" />
	<use xlink:href="#filled-playlist" x="112" y="112" width="24" height="24" />
	<use xlink:href="#filled-report-analytics" x="156" y="112" width="24" height="24" />
	<use xlink:href="#filled-report-money" x="200" y="112" width="24" height="24" />
	<use xlink:href="#filled-satellite" x="244" y="112" width="24" height="24" />
	<use xlink:href="#filled-sparkles-2" x="24" y="156" width="24" height="24" />
	<use xlink:href="#filled-sparkles" x="68" y="156" width="24" height="24" />

</svg>