<svg xmlns="http://www.w3.org/2000/svg" xmlns:xlink="http://www.w3.org/1999/xlink" viewBox="0 0 292 160" width="292" height="160" style="color: #354052"><rect x="0" y="0" width="292" height="160" fill="#fff"></rect>
	<symbol id="car-garage" class="icon icon-tabler icon-tabler-car-garage" viewBox="0 0 24 24" stroke-width="2" stroke="currentColor" fill="none" stroke-linecap="round" stroke-linejoin="round"><path stroke="none" d="M0 0h24v24H0z" fill="none"/><path d="M5 20a2 2 0 1 0 4 0a2 2 0 0 0 -4 0" /><path d="M15 20a2 2 0 1 0 4 0a2 2 0 0 0 -4 0" /><path d="M5 20h-2v-6l2 -5h9l4 5h1a2 2 0 0 1 2 2v4h-2m-4 0h-6m-6 -6h15m-6 0v-5" /><path d="M3 6l9 -4l9 4" />
</symbol>
	<symbol id="cloud-network" class="icon icon-tabler icon-tabler-cloud-network" viewBox="0 0 24 24" stroke-width="2" stroke="currentColor" fill="none" stroke-linecap="round" stroke-linejoin="round"><path stroke="none" d="M0 0h24v24H0z" fill="none"/><path d="M3 20h7" /><path d="M14 20h7" /><path d="M10 20a2 2 0 1 0 4 0a2 2 0 0 0 -4 0" /><path d="M12 16v2" /><path d="M8 16.004h-1.343c-2.572 -.004 -4.657 -2.011 -4.657 -4.487c0 -2.475 2.085 -4.482 4.657 -4.482c.393 -1.762 1.794 -3.2 3.675 -3.773c1.88 -.572 3.956 -.193 5.444 1c1.488 1.19 2.162 3.007 1.77 4.769h.99c1.913 0 3.464 1.56 3.464 3.486c0 1.927 -1.551 3.487 -3.465 3.487h-2.535" />
</symbol>
	<symbol id="map-route" class="icon icon-tabler icon-tabler-map-route" viewBox="0 0 24 24" stroke-width="2" stroke="currentColor" fill="none" stroke-linecap="round" stroke-linejoin="round"><path stroke="none" d="M0 0h24v24H0z" fill="none"/><path d="M3 7l6 -3l6 3l6 -3v13l-6 3l-6 -3l-6 3v-13" /><path d="M9 12v.01" /><path d="M6 13v.01" /><path d="M17 15l-4 -4" /><path d="M13 15l4 -4" />
</symbol>
	<symbol id="melon" class="icon icon-tabler icon-tabler-melon" viewBox="0 0 24 24" stroke-width="2" stroke="currentColor" fill="none" stroke-linecap="round" stroke-linejoin="round"><path stroke="none" d="M0 0h24v24H0z" fill="none"/><path d="M20 10c0 5.523 -4.477 10 -10 10a9.967 9.967 0 0 1 -6.984 -2.842l4.343 -4.153a4 4 0 0 0 5.76 -5.51l4.342 -4.153a9.963 9.963 0 0 1 2.539 6.658z" />
</symbol>
	<symbol id="password-fingerprint" class="icon icon-tabler icon-tabler-password-fingerprint" viewBox="0 0 24 24" stroke-width="2" stroke="currentColor" fill="none" stroke-linecap="round" stroke-linejoin="round"><path stroke="none" d="M0 0h24v24H0z" fill="none"/><path d="M17 8c.788 1 1 2 1 3v1" /><path d="M9 11c0 -1.578 1.343 -3 3 -3s3 1.422 3 3v2" /><path d="M12 11v2" /><path d="M6 12v-1.397c-.006 -1.999 1.136 -3.849 2.993 -4.85a6.385 6.385 0 0 1 6.007 -.005" /><path d="M12 17v4" /><path d="M10 20l4 -2" /><path d="M10 18l4 2" /><path d="M5 17v4" /><path d="M3 20l4 -2" /><path d="M3 18l4 2" /><path d="M19 17v4" /><path d="M17 20l4 -2" /><path d="M17 18l4 2" />
</symbol>
	<symbol id="password-mobile-phone" class="icon icon-tabler icon-tabler-password-mobile-phone" viewBox="0 0 24 24" stroke-width="2" stroke="currentColor" fill="none" stroke-linecap="round" stroke-linejoin="round"><path stroke="none" d="M0 0h24v24H0z" fill="none"/><path d="M12 17v4" /><path d="M10 20l4 -2" /><path d="M10 18l4 2" /><path d="M5 17v4" /><path d="M3 20l4 -2" /><path d="M3 18l4 2" /><path d="M19 17v4" /><path d="M17 20l4 -2" /><path d="M17 18l4 2" /><path d="M7 14v-8a2 2 0 0 1 2 -2h6a2 2 0 0 1 2 2v8" /><path d="M11 5h2" /><path d="M12 17v.01" />
</symbol>
	<symbol id="password-user" class="icon icon-tabler icon-tabler-password-user" viewBox="0 0 24 24" stroke-width="2" stroke="currentColor" fill="none" stroke-linecap="round" stroke-linejoin="round"><path stroke="none" d="M0 0h24v24H0z" fill="none"/><path d="M12 17v4" /><path d="M10 20l4 -2" /><path d="M10 18l4 2" /><path d="M5 17v4" /><path d="M3 20l4 -2" /><path d="M3 18l4 2" /><path d="M19 17v4" /><path d="M17 20l4 -2" /><path d="M17 18l4 2" /><path d="M9 6a3 3 0 1 0 6 0a3 3 0 0 0 -6 0" /><path d="M7 14a2 2 0 0 1 2 -2h6a2 2 0 0 1 2 2" />
</symbol>
	<symbol id="pentagon-number-0" class="icon icon-tabler icon-tabler-pentagon-number-0" viewBox="0 0 24 24" stroke-width="2" stroke="currentColor" fill="none" stroke-linecap="round" stroke-linejoin="round"><path stroke="none" d="M0 0h24v24H0z" fill="none"/><path d="M13.163 2.168l8.021 5.828c.694 .504 .984 1.397 .719 2.212l-3.064 9.43a1.978 1.978 0 0 1 -1.881 1.367h-9.916a1.978 1.978 0 0 1 -1.881 -1.367l-3.064 -9.43a1.978 1.978 0 0 1 .719 -2.212l8.021 -5.828a1.978 1.978 0 0 1 2.326 0z" /><path d="M10 10v4a2 2 0 1 0 4 0v-4a2 2 0 1 0 -4 0z" />
</symbol>
	<symbol id="pentagon-number-1" class="icon icon-tabler icon-tabler-pentagon-number-1" viewBox="0 0 24 24" stroke-width="2" stroke="currentColor" fill="none" stroke-linecap="round" stroke-linejoin="round"><path stroke="none" d="M0 0h24v24H0z" fill="none"/><path d="M13.163 2.168l8.021 5.828c.694 .504 .984 1.397 .719 2.212l-3.064 9.43a1.978 1.978 0 0 1 -1.881 1.367h-9.916a1.978 1.978 0 0 1 -1.881 -1.367l-3.064 -9.43a1.978 1.978 0 0 1 .719 -2.212l8.021 -5.828a1.978 1.978 0 0 1 2.326 0z" /><path d="M10 10l2 -2v8" />
</symbol>
	<symbol id="pentagon-number-2" class="icon icon-tabler icon-tabler-pentagon-number-2" viewBox="0 0 24 24" stroke-width="2" stroke="currentColor" fill="none" stroke-linecap="round" stroke-linejoin="round"><path stroke="none" d="M0 0h24v24H0z" fill="none"/><path d="M13.163 2.168l8.021 5.828c.694 .504 .984 1.397 .719 2.212l-3.064 9.43a1.978 1.978 0 0 1 -1.881 1.367h-9.916a1.978 1.978 0 0 1 -1.881 -1.367l-3.064 -9.43a1.978 1.978 0 0 1 .719 -2.212l8.021 -5.828a1.978 1.978 0 0 1 2.326 0z" /><path d="M10 8h3a1 1 0 0 1 1 1v2a1 1 0 0 1 -1 1h-2a1 1 0 0 0 -1 1v2a1 1 0 0 0 1 1h3" />
</symbol>
	<symbol id="pentagon-number-3" class="icon icon-tabler icon-tabler-pentagon-number-3" viewBox="0 0 24 24" stroke-width="2" stroke="currentColor" fill="none" stroke-linecap="round" stroke-linejoin="round"><path stroke="none" d="M0 0h24v24H0z" fill="none"/><path d="M13.163 2.168l8.021 5.828c.694 .504 .984 1.397 .719 2.212l-3.064 9.43a1.978 1.978 0 0 1 -1.881 1.367h-9.916a1.978 1.978 0 0 1 -1.881 -1.367l-3.064 -9.43a1.978 1.978 0 0 1 .719 -2.212l8.021 -5.828a1.978 1.978 0 0 1 2.326 0z" /><path d="M10 8h2.5a1.5 1.5 0 0 1 1.5 1.5v1a1.5 1.5 0 0 1 -1.5 1.5h-1.5h1.5a1.5 1.5 0 0 1 1.5 1.5v1a1.5 1.5 0 0 1 -1.5 1.5h-2.5" />
</symbol>
	<symbol id="pentagon-number-4" class="icon icon-tabler icon-tabler-pentagon-number-4" viewBox="0 0 24 24" stroke-width="2" stroke="currentColor" fill="none" stroke-linecap="round" stroke-linejoin="round"><path stroke="none" d="M0 0h24v24H0z" fill="none"/><path d="M13.163 2.168l8.021 5.828c.694 .504 .984 1.397 .719 2.212l-3.064 9.43a1.978 1.978 0 0 1 -1.881 1.367h-9.916a1.978 1.978 0 0 1 -1.881 -1.367l-3.064 -9.43a1.978 1.978 0 0 1 .719 -2.212l8.021 -5.828a1.978 1.978 0 0 1 2.326 0z" /><path d="M10 8v3a1 1 0 0 0 1 1h3" /><path d="M14 8v8" />
</symbol>
	<symbol id="pentagon-number-5" class="icon icon-tabler icon-tabler-pentagon-number-5" viewBox="0 0 24 24" stroke-width="2" stroke="currentColor" fill="none" stroke-linecap="round" stroke-linejoin="round"><path stroke="none" d="M0 0h24v24H0z" fill="none"/><path d="M13.163 2.168l8.021 5.828c.694 .504 .984 1.397 .719 2.212l-3.064 9.43a1.978 1.978 0 0 1 -1.881 1.367h-9.916a1.978 1.978 0 0 1 -1.881 -1.367l-3.064 -9.43a1.978 1.978 0 0 1 .719 -2.212l8.021 -5.828a1.978 1.978 0 0 1 2.326 0z" /><path d="M10 15a1 1 0 0 0 1 1h2a1 1 0 0 0 1 -1v-2a1 1 0 0 0 -1 -1h-3v-4h4" />
</symbol>
	<symbol id="pentagon-number-6" class="icon icon-tabler icon-tabler-pentagon-number-6" viewBox="0 0 24 24" stroke-width="2" stroke="currentColor" fill="none" stroke-linecap="round" stroke-linejoin="round"><path stroke="none" d="M0 0h24v24H0z" fill="none"/><path d="M13.163 2.168l8.021 5.828c.694 .504 .984 1.397 .719 2.212l-3.064 9.43a1.978 1.978 0 0 1 -1.881 1.367h-9.916a1.978 1.978 0 0 1 -1.881 -1.367l-3.064 -9.43a1.978 1.978 0 0 1 .719 -2.212l8.021 -5.828a1.978 1.978 0 0 1 2.326 0z" /><path d="M14 9a1 1 0 0 0 -1 -1h-2a1 1 0 0 0 -1 1v6a1 1 0 0 0 1 1h2a1 1 0 0 0 1 -1v-2a1 1 0 0 0 -1 -1h-3" />
</symbol>
	<symbol id="pentagon-number-7" class="icon icon-tabler icon-tabler-pentagon-number-7" viewBox="0 0 24 24" stroke-width="2" stroke="currentColor" fill="none" stroke-linecap="round" stroke-linejoin="round"><path stroke="none" d="M0 0h24v24H0z" fill="none"/><path d="M13.163 2.168l8.021 5.828c.694 .504 .984 1.397 .719 2.212l-3.064 9.43a1.978 1.978 0 0 1 -1.881 1.367h-9.916a1.978 1.978 0 0 1 -1.881 -1.367l-3.064 -9.43a1.978 1.978 0 0 1 .719 -2.212l8.021 -5.828a1.978 1.978 0 0 1 2.326 0z" /><path d="M10 8h4l-2 8" />
</symbol>
	<symbol id="pentagon-number-8" class="icon icon-tabler icon-tabler-pentagon-number-8" viewBox="0 0 24 24" stroke-width="2" stroke="currentColor" fill="none" stroke-linecap="round" stroke-linejoin="round"><path stroke="none" d="M0 0h24v24H0z" fill="none"/><path d="M13.163 2.168l8.021 5.828c.694 .504 .984 1.397 .719 2.212l-3.064 9.43a1.978 1.978 0 0 1 -1.881 1.367h-9.916a1.978 1.978 0 0 1 -1.881 -1.367l-3.064 -9.43a1.978 1.978 0 0 1 .719 -2.212l8.021 -5.828a1.978 1.978 0 0 1 2.326 0z" /><path d="M12 12h-1a1 1 0 0 1 -1 -1v-2a1 1 0 0 1 1 -1h2a1 1 0 0 1 1 1v2a1 1 0 0 1 -1 1h-2a1 1 0 0 0 -1 1v2a1 1 0 0 0 1 1h2a1 1 0 0 0 1 -1v-2a1 1 0 0 0 -1 -1" />
</symbol>
	<symbol id="pentagon-number-9" class="icon icon-tabler icon-tabler-pentagon-number-9" viewBox="0 0 24 24" stroke-width="2" stroke="currentColor" fill="none" stroke-linecap="round" stroke-linejoin="round"><path stroke="none" d="M0 0h24v24H0z" fill="none"/><path d="M13.163 2.168l8.021 5.828c.694 .504 .984 1.397 .719 2.212l-3.064 9.43a1.978 1.978 0 0 1 -1.881 1.367h-9.916a1.978 1.978 0 0 1 -1.881 -1.367l-3.064 -9.43a1.978 1.978 0 0 1 .719 -2.212l8.021 -5.828a1.978 1.978 0 0 1 2.326 0z" /><path d="M10 15a1 1 0 0 0 1 1h2a1 1 0 0 0 1 -1v-6a1 1 0 0 0 -1 -1h-2a1 1 0 0 0 -1 1v2a1 1 0 0 0 1 1h3" />
</symbol>
	<symbol id="pentagon-x" class="icon icon-tabler icon-tabler-pentagon-x" viewBox="0 0 24 24" stroke-width="2" stroke="currentColor" fill="none" stroke-linecap="round" stroke-linejoin="round"><path stroke="none" d="M0 0h24v24H0z" fill="none"/><path d="M13.163 2.168l8.021 5.828c.694 .504 .984 1.397 .719 2.212l-3.064 9.43a1.978 1.978 0 0 1 -1.881 1.367h-9.916a1.978 1.978 0 0 1 -1.881 -1.367l-3.064 -9.43a1.978 1.978 0 0 1 .719 -2.212l8.021 -5.828a1.978 1.978 0 0 1 2.326 0z" /><path d="M14 14l-4 -4" /><path d="M10 14l4 -4" />
</symbol>

	<use xlink:href="#car-garage" x="24" y="24" width="24" height="24" />
	<use xlink:href="#cloud-network" x="68" y="24" width="24" height="24" />
	<use xlink:href="#map-route" x="112" y="24" width="24" height="24" />
	<use xlink:href="#melon" x="156" y="24" width="24" height="24" />
	<use xlink:href="#password-fingerprint" x="200" y="24" width="24" height="24" />
	<use xlink:href="#password-mobile-phone" x="244" y="24" width="24" height="24" />
	<use xlink:href="#password-user" x="24" y="68" width="24" height="24" />
	<use xlink:href="#pentagon-number-0" x="68" y="68" width="24" height="24" />
	<use xlink:href="#pentagon-number-1" x="112" y="68" width="24" height="24" />
	<use xlink:href="#pentagon-number-2" x="156" y="68" width="24" height="24" />
	<use xlink:href="#pentagon-number-3" x="200" y="68" width="24" height="24" />
	<use xlink:href="#pentagon-number-4" x="244" y="68" width="24" height="24" />
	<use xlink:href="#pentagon-number-5" x="24" y="112" width="24" height="24" />
	<use xlink:href="#pentagon-number-6" x="68" y="112" width="24" height="24" />
	<use xlink:href="#pentagon-number-7" x="112" y="112" width="24" height="24" />
	<use xlink:href="#pentagon-number-8" x="156" y="112" width="24" height="24" />
	<use xlink:href="#pentagon-number-9" x="200" y="112" width="24" height="24" />
	<use xlink:href="#pentagon-x" x="244" y="112" width="24" height="24" />

</svg>