<svg xmlns="http://www.w3.org/2000/svg" xmlns:xlink="http://www.w3.org/1999/xlink" viewBox="0 0 292 204" width="292" height="204" style="color: #354052"><rect x="0" y="0" width="292" height="204" fill="#fff"></rect>
	<symbol id="automatic-gearbox" class="icon icon-tabler icon-tabler-automatic-gearbox" viewBox="0 0 24 24" stroke-width="2" stroke="currentColor" fill="none" stroke-linecap="round" stroke-linejoin="round"><path stroke="none" d="M0 0h24v24H0z" fill="none"/><path d="M17 17v4h1a2 2 0 1 0 0 -4h-1z" /><path d="M17 11h1.5a1.5 1.5 0 0 0 0 -3h-1.5v5" /><path d="M5 5m-2 0a2 2 0 1 0 4 0a2 2 0 1 0 -4 0" /><path d="M5 7v3a1 1 0 0 0 1 1h3v7a1 1 0 0 0 1 1h3" /><path d="M9 11h4" />
</symbol>
	<symbol id="bookmark-ai" class="icon icon-tabler icon-tabler-bookmark-ai" viewBox="0 0 24 24" stroke-width="2" stroke="currentColor" fill="none" stroke-linecap="round" stroke-linejoin="round"><path stroke="none" d="M0 0h24v24H0z" fill="none"/><path d="M10.02 18.32l-4.02 2.68v-14a4 4 0 0 1 4 -4h4a4 4 0 0 1 4 4v4.5" /><path d="M14 21v-4a2 2 0 1 1 4 0v4" /><path d="M14 19h4" /><path d="M21 15v6" />
</symbol>
	<symbol id="car-suv" class="icon icon-tabler icon-tabler-car-suv" viewBox="0 0 24 24" stroke-width="2" stroke="currentColor" fill="none" stroke-linecap="round" stroke-linejoin="round"><path stroke="none" d="M0 0h24v24H0z" fill="none"/><path d="M5 17a2 2 0 1 0 4 0a2 2 0 0 0 -4 0" /><path d="M16 17a2 2 0 1 0 4 0a2 2 0 0 0 -4 0" /><path d="M5 9l2 -4h7.438a2 2 0 0 1 1.94 1.515l.622 2.485h3a2 2 0 0 1 2 2v3" /><path d="M10 9v-4" /><path d="M2 7v4" /><path d="M22.001 14.001a4.992 4.992 0 0 0 -4.001 -2.001a4.992 4.992 0 0 0 -4 2h-3a4.998 4.998 0 0 0 -8.003 .003" /><path d="M5 12v-3h13" />
</symbol>
	<symbol id="circle-minus-2" class="icon icon-tabler icon-tabler-circle-minus-2" viewBox="0 0 24 24" stroke-width="2" stroke="currentColor" fill="none" stroke-linecap="round" stroke-linejoin="round"><path stroke="none" d="M0 0h24v24H0z" fill="none"/><path d="M20.475 15.029a9 9 0 1 0 -7.962 5.957" /><path d="M16 19h6" />
</symbol>
	<symbol id="circle-plus-2" class="icon icon-tabler icon-tabler-circle-plus-2" viewBox="0 0 24 24" stroke-width="2" stroke="currentColor" fill="none" stroke-linecap="round" stroke-linejoin="round"><path stroke="none" d="M0 0h24v24H0z" fill="none"/><path d="M20.985 12.522a9 9 0 1 0 -8.475 8.464" /><path d="M16 19h6" /><path d="M19 16v6" />
</symbol>
	<symbol id="hexagon-minus-2" class="icon icon-tabler icon-tabler-hexagon-minus-2" viewBox="0 0 24 24" stroke-width="2" stroke="currentColor" fill="none" stroke-linecap="round" stroke-linejoin="round"><path stroke="none" d="M0 0h24v24H0z" fill="none"/><path d="M13.092 21.72a2.269 2.269 0 0 1 -2.184 0l-6.75 -4.27a2.225 2.225 0 0 1 -1.158 -1.948v-7.285c0 -.809 .443 -1.554 1.158 -1.947l6.75 -3.98a2.33 2.33 0 0 1 2.25 0l6.75 3.98h-.033c.7 .398 1.13 1.143 1.125 1.948v6.782" /><path d="M16 19h6" />
</symbol>
	<symbol id="hexagon-minus" class="icon icon-tabler icon-tabler-hexagon-minus" viewBox="0 0 24 24" stroke-width="2" stroke="currentColor" fill="none" stroke-linecap="round" stroke-linejoin="round"><path stroke="none" d="M0 0h24v24H0z" fill="none"/><path d="M19.875 6.27c.7 .398 1.13 1.143 1.125 1.948v7.284c0 .809 -.443 1.555 -1.158 1.948l-6.75 4.27a2.269 2.269 0 0 1 -2.184 0l-6.75 -4.27a2.225 2.225 0 0 1 -1.158 -1.948v-7.285c0 -.809 .443 -1.554 1.158 -1.947l6.75 -3.98a2.33 2.33 0 0 1 2.25 0l6.75 3.98h-.033z" /><path d="M9 12h6" />
</symbol>
	<symbol id="hexagon-plus-2" class="icon icon-tabler icon-tabler-hexagon-plus-2" viewBox="0 0 24 24" stroke-width="2" stroke="currentColor" fill="none" stroke-linecap="round" stroke-linejoin="round"><path stroke="none" d="M0 0h24v24H0z" fill="none"/><path d="M13.092 21.72a2.269 2.269 0 0 1 -2.184 0l-6.75 -4.27a2.225 2.225 0 0 1 -1.158 -1.948v-7.285c0 -.809 .443 -1.554 1.158 -1.947l6.75 -3.98a2.33 2.33 0 0 1 2.25 0l6.75 3.98h-.033c.7 .398 1.13 1.143 1.125 1.948v4.282" /><path d="M16 19h6" /><path d="M19 16v6" />
</symbol>
	<symbol id="octagon-minus-2" class="icon icon-tabler icon-tabler-octagon-minus-2" viewBox="0 0 24 24" stroke-width="2" stroke="currentColor" fill="none" stroke-linecap="round" stroke-linejoin="round"><path stroke="none" d="M0 0h24v24H0z" fill="none"/><path d="M13.039 21.734l-.237 .101c-.512 .22 -1.092 .22 -1.604 0l-5.575 -2.389a2.036 2.036 0 0 1 -1.07 -1.07l-2.388 -5.574a2.036 2.036 0 0 1 0 -1.604l2.389 -5.575c.206 -.48 .589 -.863 1.07 -1.07l5.574 -2.388a2.036 2.036 0 0 1 1.604 0l5.575 2.389c.48 .206 .863 .589 1.07 1.07l2.388 5.574c.22 .512 .22 1.092 0 1.604l-.94 2.196" /><path d="M16 19h6" />
</symbol>
	<symbol id="octagon-minus" class="icon icon-tabler icon-tabler-octagon-minus" viewBox="0 0 24 24" stroke-width="2" stroke="currentColor" fill="none" stroke-linecap="round" stroke-linejoin="round"><path stroke="none" d="M0 0h24v24H0z" fill="none"/><path d="M12.802 2.165l5.575 2.389c.48 .206 .863 .589 1.07 1.07l2.388 5.574c.22 .512 .22 1.092 0 1.604l-2.389 5.575c-.206 .48 -.589 .863 -1.07 1.07l-5.574 2.388c-.512 .22 -1.092 .22 -1.604 0l-5.575 -2.389a2.036 2.036 0 0 1 -1.07 -1.07l-2.388 -5.574a2.036 2.036 0 0 1 0 -1.604l2.389 -5.575c.206 -.48 .589 -.863 1.07 -1.07l5.574 -2.388a2.036 2.036 0 0 1 1.604 0z" /><path d="M9 12h6" />
</symbol>
	<symbol id="octagon-plus-2" class="icon icon-tabler icon-tabler-octagon-plus-2" viewBox="0 0 24 24" stroke-width="2" stroke="currentColor" fill="none" stroke-linecap="round" stroke-linejoin="round"><path stroke="none" d="M0 0h24v24H0z" fill="none"/><path d="M13.023 21.74l-.221 .095c-.512 .22 -1.092 .22 -1.604 0l-5.575 -2.389a2.036 2.036 0 0 1 -1.07 -1.07l-2.388 -5.574a2.036 2.036 0 0 1 0 -1.604l2.389 -5.575c.206 -.48 .589 -.863 1.07 -1.07l5.574 -2.388a2.036 2.036 0 0 1 1.604 0l5.575 2.389c.48 .206 .863 .589 1.07 1.07l2.388 5.574c.22 .512 .22 1.092 0 1.604l-.081 .19" /><path d="M16 19h6" /><path d="M19 16v6" />
</symbol>
	<symbol id="octagon-plus" class="icon icon-tabler icon-tabler-octagon-plus" viewBox="0 0 24 24" stroke-width="2" stroke="currentColor" fill="none" stroke-linecap="round" stroke-linejoin="round"><path stroke="none" d="M0 0h24v24H0z" fill="none"/><path d="M12.802 2.165l5.575 2.389c.48 .206 .863 .589 1.07 1.07l2.388 5.574c.22 .512 .22 1.092 0 1.604l-2.389 5.575c-.206 .48 -.589 .863 -1.07 1.07l-5.574 2.388c-.512 .22 -1.092 .22 -1.604 0l-5.575 -2.389a2.036 2.036 0 0 1 -1.07 -1.07l-2.388 -5.574a2.036 2.036 0 0 1 0 -1.604l2.389 -5.575c.206 -.48 .589 -.863 1.07 -1.07l5.574 -2.388a2.036 2.036 0 0 1 1.604 0z" /><path d="M9 12h6" /><path d="M12 9v6" />
</symbol>
	<symbol id="photo-video" class="icon icon-tabler icon-tabler-photo-video" viewBox="0 0 24 24" stroke-width="2" stroke="currentColor" fill="none" stroke-linecap="round" stroke-linejoin="round"><path stroke="none" d="M0 0h24v24H0z" fill="none"/><path d="M9 15h-3a3 3 0 0 1 -3 -3v-6a3 3 0 0 1 3 -3h6a3 3 0 0 1 3 3v3" /><path d="M9 9m0 3a3 3 0 0 1 3 -3h6a3 3 0 0 1 3 3v6a3 3 0 0 1 -3 3h-6a3 3 0 0 1 -3 -3z" /><path d="M3 12l2.296 -2.296a2.41 2.41 0 0 1 3.408 0l.296 .296" /><path d="M14 13.5v3l2.5 -1.5z" /><path d="M7 6v.01" />
</symbol>
	<symbol id="square-plus-2" class="icon icon-tabler icon-tabler-square-plus-2" viewBox="0 0 24 24" stroke-width="2" stroke="currentColor" fill="none" stroke-linecap="round" stroke-linejoin="round"><path stroke="none" d="M0 0h24v24H0z" fill="none"/><path d="M12.5 21h-7.5a2 2 0 0 1 -2 -2v-14a2 2 0 0 1 2 -2h14a2 2 0 0 1 2 2v7.5" /><path d="M16 19h6" /><path d="M19 16v6" />
</symbol>
	<symbol id="square-rounded-minus-2" class="icon icon-tabler icon-tabler-square-rounded-minus-2" viewBox="0 0 24 24" stroke-width="2" stroke="currentColor" fill="none" stroke-linecap="round" stroke-linejoin="round"><path stroke="none" d="M0 0h24v24H0z" fill="none"/><path d="M12.5 21c-.18 .002 -.314 0 -.5 0c-7.2 0 -9 -1.8 -9 -9s1.8 -9 9 -9s9 1.8 9 9c0 1.136 -.046 2.138 -.152 3.02" /><path d="M16 19h6" />
</symbol>
	<symbol id="square-rounded-plus-2" class="icon icon-tabler icon-tabler-square-rounded-plus-2" viewBox="0 0 24 24" stroke-width="2" stroke="currentColor" fill="none" stroke-linecap="round" stroke-linejoin="round"><path stroke="none" d="M0 0h24v24H0z" fill="none"/><path d="M12.54 20.996c-.176 .004 -.356 .004 -.54 .004c-7.2 0 -9 -1.8 -9 -9s1.8 -9 9 -9s9 1.8 9 9c0 .185 -.001 .366 -.004 .544" /><path d="M16 19h6" /><path d="M19 16v6" />
</symbol>
	<symbol id="tag-starred" class="icon icon-tabler icon-tabler-tag-starred" viewBox="0 0 24 24" stroke-width="2" stroke="currentColor" fill="none" stroke-linecap="round" stroke-linejoin="round"><path stroke="none" d="M0 0h24v24H0z" fill="none"/><path d="M7.5 7.5m-1 0a1 1 0 1 0 2 0a1 1 0 1 0 -2 0" /><path d="M3 6v5.172a2 2 0 0 0 .586 1.414l7.71 7.71a2.41 2.41 0 0 0 3.408 0l5.592 -5.592a2.41 2.41 0 0 0 0 -3.408l-7.71 -7.71a2 2 0 0 0 -1.414 -.586h-5.172a3 3 0 0 0 -3 3z" /><path d="M12.5 13.847l-1.5 1.153l.532 -1.857l-1.532 -1.143h1.902l.598 -1.8l.598 1.8h1.902l-1.532 1.143l.532 1.857z" />
</symbol>
	<symbol id="triangle-minus-2" class="icon icon-tabler icon-tabler-triangle-minus-2" viewBox="0 0 24 24" stroke-width="2" stroke="currentColor" fill="none" stroke-linecap="round" stroke-linejoin="round"><path stroke="none" d="M0 0h24v24H0z" fill="none"/><path d="M20.48 15.016l-6.843 -11.426a1.914 1.914 0 0 0 -3.274 0l-8.106 13.535a1.914 1.914 0 0 0 1.636 2.871h8.107" /><path d="M16 19h6" />
</symbol>
	<symbol id="triangle-minus" class="icon icon-tabler icon-tabler-triangle-minus" viewBox="0 0 24 24" stroke-width="2" stroke="currentColor" fill="none" stroke-linecap="round" stroke-linejoin="round"><path stroke="none" d="M0 0h24v24H0z" fill="none"/><path d="M10.363 3.591l-8.106 13.534a1.914 1.914 0 0 0 1.636 2.871h16.214a1.914 1.914 0 0 0 1.636 -2.87l-8.106 -13.536a1.914 1.914 0 0 0 -3.274 0v.001z" /><path d="M9 13h6" />
</symbol>
	<symbol id="triangle-plus-2" class="icon icon-tabler icon-tabler-triangle-plus-2" viewBox="0 0 24 24" stroke-width="2" stroke="currentColor" fill="none" stroke-linecap="round" stroke-linejoin="round"><path stroke="none" d="M0 0h24v24H0z" fill="none"/><path d="M18.69 12.027l-5.054 -8.437a1.914 1.914 0 0 0 -3.274 0l-8.105 13.535a1.914 1.914 0 0 0 1.636 2.871h8.107" /><path d="M16 19h6" /><path d="M19 16v6" />
</symbol>
	<symbol id="triangle-plus" class="icon icon-tabler icon-tabler-triangle-plus" viewBox="0 0 24 24" stroke-width="2" stroke="currentColor" fill="none" stroke-linecap="round" stroke-linejoin="round"><path stroke="none" d="M0 0h24v24H0z" fill="none"/><path d="M10.363 3.591l-8.106 13.534a1.914 1.914 0 0 0 1.636 2.871h16.214a1.914 1.914 0 0 0 1.636 -2.87l-8.106 -13.536a1.914 1.914 0 0 0 -3.274 0v.001z" /><path d="M9 13h6" /><path d="M12 10v6" />
</symbol>

	<use xlink:href="#automatic-gearbox" x="24" y="24" width="24" height="24" />
	<use xlink:href="#bookmark-ai" x="68" y="24" width="24" height="24" />
	<use xlink:href="#car-suv" x="112" y="24" width="24" height="24" />
	<use xlink:href="#circle-minus-2" x="156" y="24" width="24" height="24" />
	<use xlink:href="#circle-plus-2" x="200" y="24" width="24" height="24" />
	<use xlink:href="#hexagon-minus-2" x="244" y="24" width="24" height="24" />
	<use xlink:href="#hexagon-minus" x="24" y="68" width="24" height="24" />
	<use xlink:href="#hexagon-plus-2" x="68" y="68" width="24" height="24" />
	<use xlink:href="#octagon-minus-2" x="112" y="68" width="24" height="24" />
	<use xlink:href="#octagon-minus" x="156" y="68" width="24" height="24" />
	<use xlink:href="#octagon-plus-2" x="200" y="68" width="24" height="24" />
	<use xlink:href="#octagon-plus" x="244" y="68" width="24" height="24" />
	<use xlink:href="#photo-video" x="24" y="112" width="24" height="24" />
	<use xlink:href="#square-plus-2" x="68" y="112" width="24" height="24" />
	<use xlink:href="#square-rounded-minus-2" x="112" y="112" width="24" height="24" />
	<use xlink:href="#square-rounded-plus-2" x="156" y="112" width="24" height="24" />
	<use xlink:href="#tag-starred" x="200" y="112" width="24" height="24" />
	<use xlink:href="#triangle-minus-2" x="244" y="112" width="24" height="24" />
	<use xlink:href="#triangle-minus" x="24" y="156" width="24" height="24" />
	<use xlink:href="#triangle-plus-2" x="68" y="156" width="24" height="24" />
	<use xlink:href="#triangle-plus" x="112" y="156" width="24" height="24" />

</svg>