<svg xmlns="http://www.w3.org/2000/svg" xmlns:xlink="http://www.w3.org/1999/xlink" viewBox="0 0 322 222" width="322" height="222" style="color: #354052"><rect x="0" y="0" width="322" height="222" fill="#fff"></rect>
	<symbol id="bell-ringing" class="icon icon-tabler icon-tabler-bell-ringing" viewBox="0 0 24 24" stroke-width="2" stroke="currentColor" fill="none" stroke-linecap="round" stroke-linejoin="round"><path stroke="none" d="M0 0h24v24H0z" fill="none"/><path d="M10 5a2 2 0 0 1 4 0a7 7 0 0 1 4 6v3a4 4 0 0 0 2 3h-16a4 4 0 0 0 2 -3v-3a7 7 0 0 1 4 -6" /><path d="M9 17v1a3 3 0 0 0 6 0v-1" /><path d="M21 6.727a11.05 11.05 0 0 0 -2.794 -3.727" /><path d="M3 6.727a11.05 11.05 0 0 1 2.792 -3.727" />
</symbol>
	<symbol id="bookmarks" class="icon icon-tabler icon-tabler-bookmarks" viewBox="0 0 24 24" stroke-width="2" stroke="currentColor" fill="none" stroke-linecap="round" stroke-linejoin="round"><path stroke="none" d="M0 0h24v24H0z" fill="none"/><path d="M13 7a2 2 0 0 1 2 2v12l-5 -3l-5 3v-12a2 2 0 0 1 2 -2h6z" /><path d="M9.265 4a2 2 0 0 1 1.735 -1h6a2 2 0 0 1 2 2v12l-1 -.6" />
</symbol>
	<symbol id="chevron-down-left" class="icon icon-tabler icon-tabler-chevron-down-left" viewBox="0 0 24 24" stroke-width="2" stroke="currentColor" fill="none" stroke-linecap="round" stroke-linejoin="round"><path stroke="none" d="M0 0h24v24H0z" fill="none"/><path d="M8 8v8h8" />
</symbol>
	<symbol id="chevron-down-right" class="icon icon-tabler icon-tabler-chevron-down-right" viewBox="0 0 24 24" stroke-width="2" stroke="currentColor" fill="none" stroke-linecap="round" stroke-linejoin="round"><path stroke="none" d="M0 0h24v24H0z" fill="none"/><path d="M16 8v8h-8" />
</symbol>
	<symbol id="chevron-up-left" class="icon icon-tabler icon-tabler-chevron-up-left" viewBox="0 0 24 24" stroke-width="2" stroke="currentColor" fill="none" stroke-linecap="round" stroke-linejoin="round"><path stroke="none" d="M0 0h24v24H0z" fill="none"/><path d="M8 16v-8h8" />
</symbol>
	<symbol id="chevron-up-right" class="icon icon-tabler icon-tabler-chevron-up-right" viewBox="0 0 24 24" stroke-width="2" stroke="currentColor" fill="none" stroke-linecap="round" stroke-linejoin="round"><path stroke="none" d="M0 0h24v24H0z" fill="none"/><path d="M8 8h8v8" />
</symbol>
	<symbol id="chevrons-down-left" class="icon icon-tabler icon-tabler-chevrons-down-left" viewBox="0 0 24 24" stroke-width="2" stroke="currentColor" fill="none" stroke-linecap="round" stroke-linejoin="round"><path stroke="none" d="M0 0h24v24H0z" fill="none"/><path d="M11 5v8h8" /><path d="M7 9v8h8" />
</symbol>
	<symbol id="chevrons-down-right" class="icon icon-tabler icon-tabler-chevrons-down-right" viewBox="0 0 24 24" stroke-width="2" stroke="currentColor" fill="none" stroke-linecap="round" stroke-linejoin="round"><path stroke="none" d="M0 0h24v24H0z" fill="none"/><path d="M13 5v8h-8" /><path d="M17 9v8h-8" />
</symbol>
	<symbol id="chevrons-up-left" class="icon icon-tabler icon-tabler-chevrons-up-left" viewBox="0 0 24 24" stroke-width="2" stroke="currentColor" fill="none" stroke-linecap="round" stroke-linejoin="round"><path stroke="none" d="M0 0h24v24H0z" fill="none"/><path d="M7 15v-8h8" /><path d="M11 19v-8h8" />
</symbol>
	<symbol id="chevrons-up-right" class="icon icon-tabler icon-tabler-chevrons-up-right" viewBox="0 0 24 24" stroke-width="2" stroke="currentColor" fill="none" stroke-linecap="round" stroke-linejoin="round"><path stroke="none" d="M0 0h24v24H0z" fill="none"/><path d="M9 7h8v8" /><path d="M5 11h8v8" />
</symbol>
	<symbol id="credit-card-off" class="icon icon-tabler icon-tabler-credit-card-off" viewBox="0 0 24 24" stroke-width="2" stroke="currentColor" fill="none" stroke-linecap="round" stroke-linejoin="round"><path stroke="none" d="M0 0h24v24H0z" fill="none"/><line x1="3" y1="3" x2="21" y2="21" /><path d="M9 5h9a3 3 0 0 1 3 3v8a3 3 0 0 1 -.128.87 1" /><path d="M18.87 18.872a3 3 0 0 1 -.87 .128h-12a3 3 0 0 1 -3 -3v-8c0 -1.352 .894 -2.495 2.124 -2.87" /><line x1="3" y1="11" x2="11" y2="11" /><line x1="15" y1="11" x2="21" y2="11" /><line x1="7" y1="15" x2="7.01" y2="15" /><line x1="11" y1="15" x2="13" y2="15" />
</symbol>
	<symbol id="crown" class="icon icon-tabler icon-tabler-crown" viewBox="0 0 24 24" stroke-width="2" stroke="currentColor" fill="none" stroke-linecap="round" stroke-linejoin="round"><path stroke="none" d="M0 0h24v24H0z" fill="none"/><path d="M12 6l4 6l5 -4l-2 10h-14l-2 -10l5 4z" />
</symbol>
	<symbol id="float-none" class="icon icon-tabler icon-tabler-float-none" viewBox="0 0 24 24" stroke-width="2" stroke="currentColor" fill="none" stroke-linecap="round" stroke-linejoin="round"><path stroke="none" d="M0 0h24v24H0z" fill="none"/><rect width="6" height="6" x="4" y="5" rx="1" /><line x1="4" y1="15" x2="20" y2="15" /><line x1="4" y1="19" x2="20" y2="19" />
</symbol>
	<symbol id="folder-off" class="icon icon-tabler icon-tabler-folder-off" viewBox="0 0 24 24" stroke-width="2" stroke="currentColor" fill="none" stroke-linecap="round" stroke-linejoin="round"><path stroke="none" d="M0 0h24v24H0z" fill="none"/><line x1="3" y1="3" x2="21" y2="21" /><path d="M19 19h-14a2 2 0 0 1 -2 -2v-11a2 2 0 0 1 1.172 -1.821m3.828 -.179h1l3 3h7a2 2 0 0 1 2 2v8" />
</symbol>
	<symbol id="hand-off" class="icon icon-tabler icon-tabler-hand-off" viewBox="0 0 24 24" stroke-width="2" stroke="currentColor" fill="none" stroke-linecap="round" stroke-linejoin="round"><path stroke="none" d="M0 0h24v24H0z" fill="none"/><line x1="3" y1="3" x2="21" y2="21" /><path d="M8 13.5v-5.5m.44 -3.562a1.5 1.5 0 0 1 2.56 1.062v1.5m0 4.008v.992m0 -6.5v-2a1.5 1.5 0 1 1 3 0v6.5m0 -4.5a1.5 1.5 0 0 1 3 0v6.5m0 -4.5a1.5 1.5 0 0 1 3 0v8.5a6 6 0 0 1 -6 6h-2c-2.114 -.292 -3.956 -1.397 -5 -3l-2.7 -5.25a1.7 1.7 0 0 1 2.75 -2l.9 1.75" />
</symbol>
	<symbol id="microphone-off" class="icon icon-tabler icon-tabler-microphone-off" viewBox="0 0 24 24" stroke-width="2" stroke="currentColor" fill="none" stroke-linecap="round" stroke-linejoin="round"><path stroke="none" d="M0 0h24v24H0z" fill="none"/><line x1="3" y1="3" x2="21" y2="21" /><path d="M9 5a3 3 0 0 1 6 0v5a3 3 0 0 1 -.13 .874m-2 2a3 3 0 0 1 -3.87 -2.872v-1" /><path d="M5 10a7 7 0 0 0 10.846 5.85m2.002 -2a6.967 6.967 0 0 0 1.152 -3.85" /><line x1="8" y1="21" x2="16" y2="21" /><line x1="12" y1="17" x2="12" y2="21" />
</symbol>
	<symbol id="screen-share-off" class="icon icon-tabler icon-tabler-screen-share-off" viewBox="0 0 24 24" stroke-width="2" stroke="currentColor" fill="none" stroke-linecap="round" stroke-linejoin="round"><path stroke="none" d="M0 0h24v24H0z" fill="none"/><path d="M21 12v3a1 1 0 0 1 -1 1h-16a1 1 0 0 1 -1 -1v-10a1 1 0 0 1 1 -1h9" /><line x1="7" y1="20" x2="17" y2="20" /><line x1="9" y1="16" x2="9" y2="20" /><line x1="15" y1="16" x2="15" y2="20" /><path d="M17 8l4 -4m-4 0l4 4" />
</symbol>
	<symbol id="screen-share" class="icon icon-tabler icon-tabler-screen-share" viewBox="0 0 24 24" stroke-width="2" stroke="currentColor" fill="none" stroke-linecap="round" stroke-linejoin="round"><path stroke="none" d="M0 0h24v24H0z" fill="none"/><path d="M21 12v3a1 1 0 0 1 -1 1h-16a1 1 0 0 1 -1 -1v-10a1 1 0 0 1 1 -1h9" /><line x1="7" y1="20" x2="17" y2="20" /><line x1="9" y1="16" x2="9" y2="20" /><line x1="15" y1="16" x2="15" y2="20" /><path d="M17 4h4v4" /><path d="M16 9l5-5" />
</symbol>
	<symbol id="star-half" class="icon icon-tabler icon-tabler-star-half" viewBox="0 0 24 24" stroke-width="2" stroke="currentColor" fill="none" stroke-linecap="round" stroke-linejoin="round"><path stroke="none" d="M0 0h24v24H0z" fill="none"/><path d="M12 17.75l-6.172 3.245l1.179 -6.873l-5 -4.867l6.9 -1l3.086 -6.253z" />
</symbol>

	<use xlink:href="#bell-ringing" x="24" y="24" width="24" height="24" />
	<use xlink:href="#bookmarks" x="74" y="24" width="24" height="24" />
	<use xlink:href="#chevron-down-left" x="124" y="24" width="24" height="24" />
	<use xlink:href="#chevron-down-right" x="174" y="24" width="24" height="24" />
	<use xlink:href="#chevron-up-left" x="224" y="24" width="24" height="24" />
	<use xlink:href="#chevron-up-right" x="274" y="24" width="24" height="24" />
	<use xlink:href="#chevrons-down-left" x="24" y="74" width="24" height="24" />
	<use xlink:href="#chevrons-down-right" x="74" y="74" width="24" height="24" />
	<use xlink:href="#chevrons-up-left" x="124" y="74" width="24" height="24" />
	<use xlink:href="#chevrons-up-right" x="174" y="74" width="24" height="24" />
	<use xlink:href="#credit-card-off" x="224" y="74" width="24" height="24" />
	<use xlink:href="#crown" x="274" y="74" width="24" height="24" />
	<use xlink:href="#float-none" x="24" y="124" width="24" height="24" />
	<use xlink:href="#folder-off" x="74" y="124" width="24" height="24" />
	<use xlink:href="#hand-off" x="124" y="124" width="24" height="24" />
	<use xlink:href="#microphone-off" x="174" y="124" width="24" height="24" />
	<use xlink:href="#screen-share-off" x="224" y="124" width="24" height="24" />
	<use xlink:href="#screen-share" x="274" y="124" width="24" height="24" />
	<use xlink:href="#star-half" x="24" y="174" width="24" height="24" />

</svg>