<svg xmlns="http://www.w3.org/2000/svg" xmlns:xlink="http://www.w3.org/1999/xlink" viewBox="0 0 292 160" width="292" height="160" style="color: #354052"><rect x="0" y="0" width="292" height="160" fill="#fff"></rect>
	<symbol id="outline-automation" xmlns="http://www.w3.org/2000/svg" width="24" height="24" viewBox="0 0 24 24" fill="none" stroke="currentColor" stroke-width="2" stroke-linecap="round" stroke-linejoin="round"
> <path d="M13 20.693c-.905 .628 -2.36 .292 -2.675 -1.01a1.724 1.724 0 0 0 -2.573 -1.066c-1.543 .94 -3.31 -.826 -2.37 -2.37a1.724 1.724 0 0 0 -1.065 -2.572c-1.756 -.426 -1.756 -2.924 0 -3.35a1.724 1.724 0 0 0 1.066 -2.573c-.94 -1.543 .826 -3.31 2.37 -2.37c1 .608 2.296 .07 2.572 -1.065c.426 -1.756 2.924 -1.756 3.35 0a1.724 1.724 0 0 0 2.573 1.066c1.543 -.94 3.31 .826 2.37 2.37a1.724 1.724 0 0 0 1.065 2.572c1.492 .362 1.716 2.219 .674 3.03" /> <path d="M9 12a3 3 0 1 0 6 0a3 3 0 0 0 -6 0" /> <path d="M17 22l5 -3l-5 -3z" />
</symbol>
	<symbol id="outline-chart-bar-popular" xmlns="http://www.w3.org/2000/svg" width="24" height="24" viewBox="0 0 24 24" fill="none" stroke="currentColor" stroke-width="2" stroke-linecap="round" stroke-linejoin="round"
> <path d="M3 13a1 1 0 0 1 1 -1h4a1 1 0 0 1 1 1v6a1 1 0 0 1 -1 1h-4a1 1 0 0 1 -1 -1z" /> <path d="M9 9a1 1 0 0 1 1 -1h4a1 1 0 0 1 1 1v10a1 1 0 0 1 -1 1h-4a1 1 0 0 1 -1 -1z" /> <path d="M15 5a1 1 0 0 1 1 -1h4a1 1 0 0 1 1 1v14a1 1 0 0 1 -1 1h-4a1 1 0 0 1 -1 -1z" /> <path d="M4 20h14" />
</symbol>
	<symbol id="outline-chart-cohort" xmlns="http://www.w3.org/2000/svg" width="24" height="24" viewBox="0 0 24 24" fill="none" stroke="currentColor" stroke-width="2" stroke-linecap="round" stroke-linejoin="round"
> <path d="M3 9h18v-6h-18v18h6v-18" /> <path d="M3 15h12v-12" />
</symbol>
	<symbol id="outline-chart-funnel" xmlns="http://www.w3.org/2000/svg" width="24" height="24" viewBox="0 0 24 24" fill="none" stroke="currentColor" stroke-width="2" stroke-linecap="round" stroke-linejoin="round"
> <path d="M4.387 3h15.226a1 1 0 0 1 .948 1.316l-5.105 15.316a2 2 0 0 1 -1.898 1.368h-3.116a2 2 0 0 1 -1.898 -1.368l-5.104 -15.316a1 1 0 0 1 .947 -1.316" /> <path d="M5 9h14" /> <path d="M7 15h10" />
</symbol>
	<symbol id="outline-device-unknown" xmlns="http://www.w3.org/2000/svg" width="24" height="24" viewBox="0 0 24 24" fill="none" stroke="currentColor" stroke-width="2" stroke-linecap="round" stroke-linejoin="round"
> <path d="M5 5a2 2 0 0 1 2 -2h10a2 2 0 0 1 2 2v14a2 2 0 0 1 -2 2h-10a2 2 0 0 1 -2 -2z" /> <path d="M12 16v.01" /> <path d="M12 13a2 2 0 0 0 .914 -3.782a1.98 1.98 0 0 0 -2.414 .483" />
</symbol>
	<symbol id="outline-file-excel" xmlns="http://www.w3.org/2000/svg" width="24" height="24" viewBox="0 0 24 24" fill="none" stroke="currentColor" stroke-width="2" stroke-linecap="round" stroke-linejoin="round"
> <path d="M14 3v4a1 1 0 0 0 1 1h4" /> <path d="M17 21h-10a2 2 0 0 1 -2 -2v-14a2 2 0 0 1 2 -2h7l5 5v11a2 2 0 0 1 -2 2" /> <path d="M10 12l4 5" /> <path d="M10 17l4 -5" />
</symbol>
	<symbol id="outline-file-word" xmlns="http://www.w3.org/2000/svg" width="24" height="24" viewBox="0 0 24 24" fill="none" stroke="currentColor" stroke-width="2" stroke-linecap="round" stroke-linejoin="round"
> <path d="M14 3v4a1 1 0 0 0 1 1h4" /> <path d="M17 21h-10a2 2 0 0 1 -2 -2v-14a2 2 0 0 1 2 -2h7l5 5v11a2 2 0 0 1 -2 2" /> <path d="M9 12l1.333 5l1.667 -4l1.667 4l1.333 -5" />
</symbol>
	<symbol id="outline-object-scan" xmlns="http://www.w3.org/2000/svg" width="24" height="24" viewBox="0 0 24 24" fill="none" stroke="currentColor" stroke-width="2" stroke-linecap="round" stroke-linejoin="round"
> <path d="M4 8v-2a2 2 0 0 1 2 -2h2" /> <path d="M4 16v2a2 2 0 0 0 2 2h2" /> <path d="M16 4h2a2 2 0 0 1 2 2v2" /> <path d="M16 20h2a2 2 0 0 0 2 -2v-2" /> <path d="M8 8m0 2a2 2 0 0 1 2 -2h4a2 2 0 0 1 2 2v4a2 2 0 0 1 -2 2h-4a2 2 0 0 1 -2 -2z" />
</symbol>
	<symbol id="outline-tax-euro" xmlns="http://www.w3.org/2000/svg" width="24" height="24" viewBox="0 0 24 24" fill="none" stroke="currentColor" stroke-width="2" stroke-linecap="round" stroke-linejoin="round"
> <path d="M8.487 21h7.026a4 4 0 0 0 3.808 -5.224l-1.706 -5.306a5 5 0 0 0 -4.76 -3.47h-1.71a5 5 0 0 0 -4.76 3.47l-1.706 5.306a4 4 0 0 0 3.808 5.224" /> <path d="M15 3q -1 4 -3 4t -3 -4z" /> <path d="M12 14h-3" /> <path d="M14 11.172a3 3 0 1 0 0 5.656" />
</symbol>
	<symbol id="outline-tax-pound" xmlns="http://www.w3.org/2000/svg" width="24" height="24" viewBox="0 0 24 24" fill="none" stroke="currentColor" stroke-width="2" stroke-linecap="round" stroke-linejoin="round"
> <path d="M8.487 21h7.026a4 4 0 0 0 3.808 -5.224l-1.706 -5.306a5 5 0 0 0 -4.76 -3.47h-1.71a5 5 0 0 0 -4.76 3.47l-1.706 5.306a4 4 0 0 0 3.808 5.224" /> <path d="M15 3q -1 4 -3 4t -3 -4z" /> <path d="M14 11h-1a2 2 0 0 0 -2 2v2c0 1.105 -.395 2 -1.5 2h4.5" /> <path d="M10 14h3" />
</symbol>
	<symbol id="outline-tax" xmlns="http://www.w3.org/2000/svg" width="24" height="24" viewBox="0 0 24 24" fill="none" stroke="currentColor" stroke-width="2" stroke-linecap="round" stroke-linejoin="round"
> <path d="M8.487 21h7.026a4 4 0 0 0 3.808 -5.224l-1.706 -5.306a5 5 0 0 0 -4.76 -3.47h-1.71a5 5 0 0 0 -4.76 3.47l-1.706 5.306a4 4 0 0 0 3.808 5.224" /> <path d="M15 3q -1 4 -3 4t -3 -4z" /> <path d="M14 11h-2.5a1.5 1.5 0 0 0 0 3h1a1.5 1.5 0 0 1 0 3h-2.5" /> <path d="M12 10v1" /> <path d="M12 17v1" />
</symbol>
	<symbol id="outline-timezone" xmlns="http://www.w3.org/2000/svg" width="24" height="24" viewBox="0 0 24 24" fill="none" stroke="currentColor" stroke-width="2" stroke-linecap="round" stroke-linejoin="round"
> <path d="M20.884 10.554a9 9 0 1 0 -10.337 10.328" /> <path d="M3.6 9h16.8" /> <path d="M3.6 15h6.9" /> <path d="M11.5 3a17 17 0 0 0 -1.502 14.954" /> <path d="M12.5 3a17 17 0 0 1 2.52 7.603" /> <path d="M18 18m-4 0a4 4 0 1 0 8 0a4 4 0 1 0 -8 0" /> <path d="M18 16.5v1.5l.5 .5" />
</symbol>
	<symbol id="outline-tip-jar-euro" xmlns="http://www.w3.org/2000/svg" width="24" height="24" viewBox="0 0 24 24" fill="none" stroke="currentColor" stroke-width="2" stroke-linecap="round" stroke-linejoin="round"
> <path d="M17 4v1.882c0 .685 .387 1.312 1 1.618s1 .933 1 1.618v8.882a3 3 0 0 1 -3 3h-8a3 3 0 0 1 -3 -3v-8.882c0 -.685 .387 -1.312 1 -1.618s1 -.933 1 -1.618v-1.882" /> <path d="M6 4h12z" /> <path d="M12 13h-3" /> <path d="M14 10.172a3 3 0 1 0 0 5.656" />
</symbol>
	<symbol id="outline-tip-jar-pound" xmlns="http://www.w3.org/2000/svg" width="24" height="24" viewBox="0 0 24 24" fill="none" stroke="currentColor" stroke-width="2" stroke-linecap="round" stroke-linejoin="round"
> <path d="M17 4v1.882c0 .685 .387 1.312 1 1.618s1 .933 1 1.618v8.882a3 3 0 0 1 -3 3h-8a3 3 0 0 1 -3 -3v-8.882c0 -.685 .387 -1.312 1 -1.618s1 -.933 1 -1.618v-1.882" /> <path d="M6 4h12z" /> <path d="M14 10h-1a2 2 0 0 0 -2 2v2c0 1.105 -.395 2 -1.5 2h4.5" /> <path d="M10 13h3" />
</symbol>
	<symbol id="outline-tip-jar" xmlns="http://www.w3.org/2000/svg" width="24" height="24" viewBox="0 0 24 24" fill="none" stroke="currentColor" stroke-width="2" stroke-linecap="round" stroke-linejoin="round"
> <path d="M14 10h-2.5a1.5 1.5 0 0 0 0 3h1a1.5 1.5 0 0 1 0 3h-2.5" /> <path d="M12 9v1" /> <path d="M12 16v1" /> <path d="M17 4v1.882c0 .685 .387 1.312 1 1.618s1 .933 1 1.618v8.882a3 3 0 0 1 -3 3h-8a3 3 0 0 1 -3 -3v-8.882c0 -.685 .387 -1.312 1 -1.618s1 -.933 1 -1.618v-1.882" /> <path d="M6 4h12z" />
</symbol>
	<symbol id="outline-viewport-short" xmlns="http://www.w3.org/2000/svg" width="24" height="24" viewBox="0 0 24 24" fill="none" stroke="currentColor" stroke-width="2" stroke-linecap="round" stroke-linejoin="round"
> <path d="M12 3v7l3 -3" /> <path d="M9 7l3 3" /> <path d="M12 21v-7l3 3" /> <path d="M9 17l3 -3" /> <path d="M18 9h1a2 2 0 0 1 2 2v2a2 2 0 0 1 -2 2h-1" /> <path d="M6 9h-1a2 2 0 0 0 -2 2v2a2 2 0 0 0 2 2h1" />
</symbol>
	<symbol id="outline-viewport-tall" xmlns="http://www.w3.org/2000/svg" width="24" height="24" viewBox="0 0 24 24" fill="none" stroke="currentColor" stroke-width="2" stroke-linecap="round" stroke-linejoin="round"
> <path d="M12 10v-7l3 3" /> <path d="M9 6l3 -3" /> <path d="M12 14v7l3 -3" /> <path d="M9 18l3 3" /> <path d="M18 3h1a2 2 0 0 1 2 2v14a2 2 0 0 1 -2 2h-1" /> <path d="M6 3h-1a2 2 0 0 0 -2 2v14a2 2 0 0 0 2 2h1" />
</symbol>
	<symbol id="filled-circle-plus" xmlns="http://www.w3.org/2000/svg" width="24" height="24" viewBox="0 0 24 24" fill="currentColor"
> <path fill-rule="evenodd" d="M4.929 4.929A10 10 0 1 1 19.07 19.07 10 10 0 0 1 4.93 4.93ZM13 9a1 1 0 1 0 -2 0v2H9a1 1 0 1 0 0 2h2v2a1 1 0 1 0 2 0v-2h2a1 1 0 1 0 0 -2h-2V9Z" clip-rule="evenodd" />
</symbol>

	<use xlink:href="#outline-automation" x="24" y="24" width="24" height="24" />
	<use xlink:href="#outline-chart-bar-popular" x="68" y="24" width="24" height="24" />
	<use xlink:href="#outline-chart-cohort" x="112" y="24" width="24" height="24" />
	<use xlink:href="#outline-chart-funnel" x="156" y="24" width="24" height="24" />
	<use xlink:href="#outline-device-unknown" x="200" y="24" width="24" height="24" />
	<use xlink:href="#outline-file-excel" x="244" y="24" width="24" height="24" />
	<use xlink:href="#outline-file-word" x="24" y="68" width="24" height="24" />
	<use xlink:href="#outline-object-scan" x="68" y="68" width="24" height="24" />
	<use xlink:href="#outline-tax-euro" x="112" y="68" width="24" height="24" />
	<use xlink:href="#outline-tax-pound" x="156" y="68" width="24" height="24" />
	<use xlink:href="#outline-tax" x="200" y="68" width="24" height="24" />
	<use xlink:href="#outline-timezone" x="244" y="68" width="24" height="24" />
	<use xlink:href="#outline-tip-jar-euro" x="24" y="112" width="24" height="24" />
	<use xlink:href="#outline-tip-jar-pound" x="68" y="112" width="24" height="24" />
	<use xlink:href="#outline-tip-jar" x="112" y="112" width="24" height="24" />
	<use xlink:href="#outline-viewport-short" x="156" y="112" width="24" height="24" />
	<use xlink:href="#outline-viewport-tall" x="200" y="112" width="24" height="24" />
	<use xlink:href="#filled-circle-plus" x="244" y="112" width="24" height="24" />

</svg>