<svg xmlns="http://www.w3.org/2000/svg" xmlns:xlink="http://www.w3.org/1999/xlink" viewBox="0 0 292 160" width="292" height="160" style="color: #354052"><rect x="0" y="0" width="292" height="160" fill="#fff"></rect>
	<symbol id="badge" class="icon icon-tabler icon-tabler-badge" viewBox="0 0 24 24" stroke-width="2" stroke="currentColor" fill="none" stroke-linecap="round" stroke-linejoin="round"><path stroke="none" d="M0 0h24v24H0z" fill="none"/><path d="M17 17v-13l-5 3l-5 -3v13l5 3z" />
</symbol>
	<symbol id="badges" class="icon icon-tabler icon-tabler-badges" viewBox="0 0 24 24" stroke-width="2" stroke="currentColor" fill="none" stroke-linecap="round" stroke-linejoin="round"><path stroke="none" d="M0 0h24v24H0z" fill="none"/><path d="M17 17v-4l-5 3l-5 -3v4l5 3z" /><path d="M17 8v-4l-5 3l-5 -3v4l5 3z" />
</symbol>
	<symbol id="bible" class="icon icon-tabler icon-tabler-bible" viewBox="0 0 24 24" stroke-width="2" stroke="currentColor" fill="none" stroke-linecap="round" stroke-linejoin="round"><path stroke="none" d="M0 0h24v24H0z" fill="none"/><path d="M19 4v16h-12a2 2 0 0 1 -2 -2v-12a2 2 0 0 1 2 -2h12z" /><path d="M19 16h-12a2 2 0 0 0 -2 2" /><path d="M12 7v6" /><path d="M10 9h4" />
</symbol>
	<symbol id="book-2" class="icon icon-tabler icon-tabler-book-2" viewBox="0 0 24 24" stroke-width="2" stroke="currentColor" fill="none" stroke-linecap="round" stroke-linejoin="round"><path stroke="none" d="M0 0h24v24H0z" fill="none"/><path d="M19 4v16h-12a2 2 0 0 1 -2 -2v-12a2 2 0 0 1 2 -2h12z" /><path d="M19 16h-12a2 2 0 0 0 -2 2" /><path d="M9 8h6" />
</symbol>
	<symbol id="candle" class="icon icon-tabler icon-tabler-candle" viewBox="0 0 24 24" stroke-width="2" stroke="currentColor" fill="none" stroke-linecap="round" stroke-linejoin="round"><path stroke="none" d="M0 0h24v24H0z" fill="none"/><path d="M9 21h6v-9a1 1 0 0 0 -1 -1h-4a1 1 0 0 0 -1 1v9z" /><path d="M12 3l1.465 1.638a2 2 0 1 1 -3.015 .099l1.55 -1.737z" />
</symbol>
	<symbol id="contrast-2" class="icon icon-tabler icon-tabler-contrast-2" viewBox="0 0 24 24" stroke-width="2" stroke="currentColor" fill="none" stroke-linecap="round" stroke-linejoin="round"><path stroke="none" d="M0 0h24v24H0z" fill="none"/><rect x="4" y="4" width="16" height="16" rx="2" /><path d="M4 18h2a6 6 0 0 0 6 -6a6 6 0 0 1 6 -6h2" />
</symbol>
	<symbol id="curling" class="icon icon-tabler icon-tabler-curling" viewBox="0 0 24 24" stroke-width="2" stroke="currentColor" fill="none" stroke-linecap="round" stroke-linejoin="round"><path stroke="none" d="M0 0h24v24H0z" fill="none"/><rect x="4" y="9" width="16" height="10" rx="4" /><path d="M4 14h16" /><path d="M8 5h6a2 2 0 0 1 2 2v2" />
</symbol>
	<symbol id="grid-pattern" class="icon icon-tabler icon-tabler-grid-pattern" viewBox="0 0 24 24" stroke-width="2" stroke="currentColor" fill="none" stroke-linecap="round" stroke-linejoin="round"><path stroke="none" d="M0 0h24v24H0z" fill="none"/><rect x="4" y="4" width="16" height="16" rx="2" /><path d="M10 8v8" /><path d="M14 8v8" /><path d="M8 10h8" /><path d="M8 14h8" />
</symbol>
	<symbol id="helmet" class="icon icon-tabler icon-tabler-helmet" viewBox="0 0 24 24" stroke-width="2" stroke="currentColor" fill="none" stroke-linecap="round" stroke-linejoin="round"><path stroke="none" d="M0 0h24v24H0z" fill="none"/><path d="M12 4a9 9 0 0 1 5.656 16h-11.312a9 9 0 0 1 5.656 -16z" /><path d="M20 9h-8.8a1 1 0 0 0 -.968 1.246c.507 2 1.596 3.418 3.268 4.254c2 1 4.333 1.5 7 1.5" />
</symbol>
	<symbol id="ice-skating" class="icon icon-tabler icon-tabler-ice-skating" viewBox="0 0 24 24" stroke-width="2" stroke="currentColor" fill="none" stroke-linecap="round" stroke-linejoin="round"><path stroke="none" d="M0 0h24v24H0z" fill="none"/><path d="M5.905 5h3.418a1 1 0 0 1 .928 .629l1.143 2.856a3 3 0 0 0 2.207 1.83l4.717 .926a2.084 2.084 0 0 1 1.682 2.045v.714a1 1 0 0 1 -1 1h-13.895a1 1 0 0 1 -.995 -1.1l.8 -8a1 1 0 0 1 .995 -.9z" /><path d="M3 19h17a1 1 0 0 0 1 -1" /><path d="M9 15v4" /><path d="M15 15v4" />
</symbol>
	<symbol id="lollipop" class="icon icon-tabler icon-tabler-lollipop" viewBox="0 0 24 24" stroke-width="2" stroke="currentColor" fill="none" stroke-linecap="round" stroke-linejoin="round"><path stroke="none" d="M0 0h24v24H0z" fill="none"/><circle cx="14" cy="10" r="7" /><path d="M21 10a3.5 3.5 0 0 0 -7 0" /><path d="M14 10a3.5 3.5 0 0 1 -7 0" /><path d="M14 17a3.5 3.5 0 0 0 0 -7" /><path d="M14 3a3.5 3.5 0 0 0 0 7" /><path d="M3 21l6 -6" />
</symbol>
	<symbol id="medal-2" class="icon icon-tabler icon-tabler-medal-2" viewBox="0 0 24 24" stroke-width="2" stroke="currentColor" fill="none" stroke-linecap="round" stroke-linejoin="round"><path stroke="none" d="M0 0h24v24H0z" fill="none"/><path d="M9 3h6l3 7l-6 2l-6 -2z" /><path d="M12 12l-3 -9" /><path d="M15 11l-3 -8" /><path d="M12 19.5l-3 1.5l.5 -3.5l-2 -2l3 -.5l1.5 -3l1.5 3l3 .5l-2 2l.5 3.5z" />
</symbol>
	<symbol id="miliraty-award" class="icon icon-tabler icon-tabler-miliraty-award" viewBox="0 0 24 24" stroke-width="2" stroke="currentColor" fill="none" stroke-linecap="round" stroke-linejoin="round"><path stroke="none" d="M0 0h24v24H0z" fill="none"/><circle cx="12" cy="13" r="4" /><path d="M9 10l-1 -2h-5l2.48 5.788a2 2 0 0 0 1.84 1.212h1.18" /><path d="M15 10l1 -2h5l-2.48 5.788a2 2 0 0 1 -1.84 1.212h-1.18" />
</symbol>
	<symbol id="military-rank" class="icon icon-tabler icon-tabler-military-rank" viewBox="0 0 24 24" stroke-width="2" stroke="currentColor" fill="none" stroke-linecap="round" stroke-linejoin="round"><path stroke="none" d="M0 0h24v24H0z" fill="none"/><path d="M17 7v13h-10v-13l5 -3z" /><path d="M10 13l2 -1l2 1" /><path d="M10 17l2 -1l2 1" /><path d="M10 9l2 -1l2 1" />
</symbol>
	<symbol id="polygon" class="icon icon-tabler icon-tabler-polygon" viewBox="0 0 24 24" stroke-width="2" stroke="currentColor" fill="none" stroke-linecap="round" stroke-linejoin="round"><path stroke="none" d="M0 0h24v24H0z" fill="none"/><circle cx="12" cy="5" r="2" /><circle cx="19" cy="8" r="2" /><circle cx="5" cy="11" r="2" /><circle cx="15" cy="19" r="2" /><path d="M6.5 9.5l3.5 -3" /><path d="M14 5.5l3 1.5" /><path d="M18.5 10l-2.5 7" /><path d="M13.5 17.5l-7 -5" />
</symbol>
	<symbol id="roller-skating" class="icon icon-tabler icon-tabler-roller-skating" viewBox="0 0 24 24" stroke-width="2" stroke="currentColor" fill="none" stroke-linecap="round" stroke-linejoin="round"><path stroke="none" d="M0 0h24v24H0z" fill="none"/><path d="M5.905 5h3.418a1 1 0 0 1 .928 .629l1.143 2.856a3 3 0 0 0 2.207 1.83l4.717 .926a2.084 2.084 0 0 1 1.682 2.045v.714a1 1 0 0 1 -1 1h-13.895a1 1 0 0 1 -.995 -1.1l.8 -8a1 1 0 0 1 .995 -.9z" /><circle cx="8" cy="17" r="2" /><circle cx="16" cy="17" r="2" />
</symbol>
	<symbol id="shoe" class="icon icon-tabler icon-tabler-shoe" viewBox="0 0 24 24" stroke-width="2" stroke="currentColor" fill="none" stroke-linecap="round" stroke-linejoin="round"><path stroke="none" d="M0 0h24v24H0z" fill="none"/><path d="M4 6h5.426a1 1 0 0 1 .863 .496l1.064 1.823a3 3 0 0 0 1.896 1.407l4.677 1.114a4 4 0 0 1 3.074 3.89v2.27a1 1 0 0 1 -1 1h-16a1 1 0 0 1 -1 -1v-10a1 1 0 0 1 1 -1z" /><path d="M14 13l1 -2" /><path d="M8 18v-1a4 4 0 0 0 -4 -4h-1" /><path d="M10 12l1.5 -3" />
</symbol>
	<symbol id="toilet-paper" class="icon icon-tabler icon-tabler-toilet-paper" viewBox="0 0 24 24" stroke-width="2" stroke="currentColor" fill="none" stroke-linecap="round" stroke-linejoin="round"><path stroke="none" d="M0 0h24v24H0z" fill="none"/><ellipse cx="6" cy="10" rx="3" ry="7" /><path d="M21 10c0 -3.866 -1.343 -7 -3 -7" /><path d="M6 3h12" /><path d="M21 10v10l-3 -1l-3 2l-3 -3l-3 2v-10" /><path d="M6 10h.01" />
</symbol>

	<use xlink:href="#badge" x="24" y="24" width="24" height="24" />
	<use xlink:href="#badges" x="68" y="24" width="24" height="24" />
	<use xlink:href="#bible" x="112" y="24" width="24" height="24" />
	<use xlink:href="#book-2" x="156" y="24" width="24" height="24" />
	<use xlink:href="#candle" x="200" y="24" width="24" height="24" />
	<use xlink:href="#contrast-2" x="244" y="24" width="24" height="24" />
	<use xlink:href="#curling" x="24" y="68" width="24" height="24" />
	<use xlink:href="#grid-pattern" x="68" y="68" width="24" height="24" />
	<use xlink:href="#helmet" x="112" y="68" width="24" height="24" />
	<use xlink:href="#ice-skating" x="156" y="68" width="24" height="24" />
	<use xlink:href="#lollipop" x="200" y="68" width="24" height="24" />
	<use xlink:href="#medal-2" x="244" y="68" width="24" height="24" />
	<use xlink:href="#miliraty-award" x="24" y="112" width="24" height="24" />
	<use xlink:href="#military-rank" x="68" y="112" width="24" height="24" />
	<use xlink:href="#polygon" x="112" y="112" width="24" height="24" />
	<use xlink:href="#roller-skating" x="156" y="112" width="24" height="24" />
	<use xlink:href="#shoe" x="200" y="112" width="24" height="24" />
	<use xlink:href="#toilet-paper" x="244" y="112" width="24" height="24" />

</svg>