<svg xmlns="http://www.w3.org/2000/svg" xmlns:xlink="http://www.w3.org/1999/xlink" viewBox="0 0 292 160" width="292" height="160" style="color: #354052"><rect x="0" y="0" width="292" height="160" fill="#fff"></rect>
	<symbol id="brand-google-filled" class="icon icon-tabler icon-tabler-brand-google-filled" viewBox="0 0 24 24" stroke-width="2" stroke="currentColor" fill="none" stroke-linecap="round" stroke-linejoin="round"><path stroke="none" d="M0 0h24v24H0z" fill="none"/><path d="M12 2a9.96 9.96 0 0 1 6.29 2.226a1 1 0 0 1 .04 1.52l-1.51 1.362a1 1 0 0 1 -1.265 .06a6 6 0 1 0 2.103 6.836l.001 -.004h-3.66a1 1 0 0 1 -.992 -.883l-.007 -.117v-2a1 1 0 0 1 1 -1h6.945a1 1 0 0 1 .994 .89c.04 .367 .061 .737 .061 1.11c0 5.523 -4.477 10 -10 10s-10 -4.477 -10 -10s4.477 -10 10 -10z" stroke-width="0" fill="currentColor" />
</symbol>
	<symbol id="brand-printables" class="icon icon-tabler icon-tabler-brand-printables" viewBox="0 0 24 24" stroke-width="2" stroke="currentColor" fill="none" stroke-linecap="round" stroke-linejoin="round"><path stroke="none" d="M0 0h24v24H0z" fill="none"/><path d="M6 21l12 -7v-7.5l-6 -3.5l-6 3.5l6 3.5v7.5l-6 -3.5z" />
</symbol>
	<symbol id="brand-thingiverse" class="icon icon-tabler icon-tabler-brand-thingiverse" viewBox="0 0 24 24" stroke-width="2" stroke="currentColor" fill="none" stroke-linecap="round" stroke-linejoin="round"><path stroke="none" d="M0 0h24v24H0z" fill="none"/><path d="M12 12m-9 0a9 9 0 1 0 18 0a9 9 0 1 0 -18 0" /><path d="M8 9h8m-4 0v8" />
</symbol>
	<symbol id="calendar-sad" class="icon icon-tabler icon-tabler-calendar-sad" viewBox="0 0 24 24" stroke-width="2" stroke="currentColor" fill="none" stroke-linecap="round" stroke-linejoin="round"><path stroke="none" d="M0 0h24v24H0z" fill="none"/><path d="M4 7a2 2 0 0 1 2 -2h12a2 2 0 0 1 2 2v12a2 2 0 0 1 -2 2h-12a2 2 0 0 1 -2 -2v-12zm12 -4v4m-8 -4v4m-4 4h16m-9.995 3h.01m3.99 0h.01" /><path d="M10 18a3.5 3.5 0 0 1 4 0" />
</symbol>
	<symbol id="calendar-smile" class="icon icon-tabler icon-tabler-calendar-smile" viewBox="0 0 24 24" stroke-width="2" stroke="currentColor" fill="none" stroke-linecap="round" stroke-linejoin="round"><path stroke="none" d="M0 0h24v24H0z" fill="none"/><path d="M4 7a2 2 0 0 1 2 -2h12a2 2 0 0 1 2 2v12a2 2 0 0 1 -2 2h-12a2 2 0 0 1 -2 -2v-12zm12 -4v4m-8 -4v4m-4 4h16m-9.995 3h.01m3.99 0h.01" /><path d="M10.005 17a3.5 3.5 0 0 0 4 0" />
</symbol>
	<symbol id="calendar-user" class="icon icon-tabler icon-tabler-calendar-user" viewBox="0 0 24 24" stroke-width="2" stroke="currentColor" fill="none" stroke-linecap="round" stroke-linejoin="round"><path stroke="none" d="M0 0h24v24H0z" fill="none"/><path d="M12 21h-6a2 2 0 0 1 -2 -2v-12a2 2 0 0 1 2 -2h12a2 2 0 0 1 2 2v4.5" /><path d="M16 3v4" /><path d="M8 3v4" /><path d="M4 11h16" /><path d="M19 17m-2 0a2 2 0 1 0 4 0a2 2 0 1 0 -4 0" /><path d="M22 22a2 2 0 0 0 -2 -2h-2a2 2 0 0 0 -2 2" />
</symbol>
	<symbol id="category-minus" class="icon icon-tabler icon-tabler-category-minus" viewBox="0 0 24 24" stroke-width="2" stroke="currentColor" fill="none" stroke-linecap="round" stroke-linejoin="round"><path stroke="none" d="M0 0h24v24H0z" fill="none"/><path d="M4 4h6v6h-6zm10 0h6v6h-6zm-10 10h6v6h-6zm10 3h6" />
</symbol>
	<symbol id="category-plus" class="icon icon-tabler icon-tabler-category-plus" viewBox="0 0 24 24" stroke-width="2" stroke="currentColor" fill="none" stroke-linecap="round" stroke-linejoin="round"><path stroke="none" d="M0 0h24v24H0z" fill="none"/><path d="M4 4h6v6h-6zm10 0h6v6h-6zm-10 10h6v6h-6zm10 3h6m-3 -3v6" />
</symbol>
	<symbol id="file-neutral" class="icon icon-tabler icon-tabler-file-neutral" viewBox="0 0 24 24" stroke-width="2" stroke="currentColor" fill="none" stroke-linecap="round" stroke-linejoin="round"><path stroke="none" d="M0 0h24v24H0z" fill="none"/><path d="M14 3v4a1 1 0 0 0 1 1h4" /><path d="M17 21h-10a2 2 0 0 1 -2 -2v-14a2 2 0 0 1 2 -2h7l5 5v11a2 2 0 0 1 -2 2zm-7 -7h.01m3.99 0h.01m-4.01 3h4" />
</symbol>
	<symbol id="file-sad" class="icon icon-tabler icon-tabler-file-sad" viewBox="0 0 24 24" stroke-width="2" stroke="currentColor" fill="none" stroke-linecap="round" stroke-linejoin="round"><path stroke="none" d="M0 0h24v24H0z" fill="none"/><path d="M14 3v4a1 1 0 0 0 1 1h4" /><path d="M17 21h-10a2 2 0 0 1 -2 -2v-14a2 2 0 0 1 2 -2h7l5 5v11a2 2 0 0 1 -2 2zm-7 -7h.01m3.99 0h.01" /><path d="M10 18a3.5 3.5 0 0 1 4 0" />
</symbol>
	<symbol id="file-smile" class="icon icon-tabler icon-tabler-file-smile" viewBox="0 0 24 24" stroke-width="2" stroke="currentColor" fill="none" stroke-linecap="round" stroke-linejoin="round"><path stroke="none" d="M0 0h24v24H0z" fill="none"/><path d="M14 3v4a1 1 0 0 0 1 1h4" /><path d="M17 21h-10a2 2 0 0 1 -2 -2v-14a2 2 0 0 1 2 -2h7l5 5v11a2 2 0 0 1 -2 2zm-7 -7h.01m3.99 0h.01" /><path d="M10 17a3.5 3.5 0 0 0 4 0" />
</symbol>
	<symbol id="metronome" class="icon icon-tabler icon-tabler-metronome" viewBox="0 0 24 24" stroke-width="2" stroke="currentColor" fill="none" stroke-linecap="round" stroke-linejoin="round"><path stroke="none" d="M0 0h24v24H0z" fill="none"/><path d="M14.153 8.188l-.72 -3.236a2.493 2.493 0 0 0 -4.867 0l-3.025 13.614a2 2 0 0 0 1.952 2.434h7.014a2 2 0 0 0 1.952 -2.434l-.524 -2.357m-4.935 1.791l9 -13" /><path d="M20 5m-1 0a1 1 0 1 0 2 0a1 1 0 1 0 -2 0" />
</symbol>
	<symbol id="stack-back" class="icon icon-tabler icon-tabler-stack-back" viewBox="0 0 24 24" stroke-width="2" stroke="currentColor" fill="none" stroke-linecap="round" stroke-linejoin="round"><path stroke="none" d="M0 0h24v24H0z" fill="none"/><path d="M4 8l8 4l8 -4l-8 -4z" /><path d="M12 16l-4 -2l-4 2l8 4l8 -4l-4 -2l-4 2z" fill="currentColor" /><path d="M8 10l-4 2l4 2m8 0l4 -2l-4 -2" />
</symbol>
	<symbol id="stack-backward" class="icon icon-tabler icon-tabler-stack-backward" viewBox="0 0 24 24" stroke-width="2" stroke="currentColor" fill="none" stroke-linecap="round" stroke-linejoin="round"><path stroke="none" d="M0 0h24v24H0z" fill="none"/><path d="M14 12l6 -3l-8 -4l-8 4l6 3" /><path d="M10 12l-6 3l8 4l8 -4l-6 -3l-2 1z" fill="currentColor" />
</symbol>
	<symbol id="stack-forward" class="icon icon-tabler icon-tabler-stack-forward" viewBox="0 0 24 24" stroke-width="2" stroke="currentColor" fill="none" stroke-linecap="round" stroke-linejoin="round"><path stroke="none" d="M0 0h24v24H0z" fill="none"/><path d="M12 5l-8 4l8 4l8 -4l-8 -4" fill="currentColor" /><path d="M10 12l-6 3l8 4l8 -4l-6 -3" />
</symbol>
	<symbol id="stack-front" class="icon icon-tabler icon-tabler-stack-front" viewBox="0 0 24 24" stroke-width="2" stroke="currentColor" fill="none" stroke-linecap="round" stroke-linejoin="round"><path stroke="none" d="M0 0h24v24H0z" fill="none"/><path d="M12 4l-8 4l8 4l8 -4l-8 -4" fill="currentColor" /><path d="M8 14l-4 2l8 4l8 -4l-4 -2" /><path d="M8 10l-4 2l8 4l8 -4l-4 -2" />
</symbol>
	<symbol id="stack-middle" class="icon icon-tabler icon-tabler-stack-middle" viewBox="0 0 24 24" stroke-width="2" stroke="currentColor" fill="none" stroke-linecap="round" stroke-linejoin="round"><path stroke="none" d="M0 0h24v24H0z" fill="none"/><path d="M16 10l4 -2l-8 -4l-8 4l4 2" /><path d="M12 12l-4 -2l-4 2l8 4l8 -4l-4 -2l-4 2z" fill="currentColor" /><path d="M8 14l-4 2l8 4l8 -4l-4 -2" />
</symbol>
	<symbol id="tools-kitchen-3" class="icon icon-tabler icon-tabler-tools-kitchen-3" viewBox="0 0 24 24" stroke-width="2" stroke="currentColor" fill="none" stroke-linecap="round" stroke-linejoin="round"><path stroke="none" d="M0 0h24v24H0z" fill="none"/><path d="M7 4v17m-3 -17v3a3 3 0 1 0 6 0v-3" /><path d="M17 8m-3 0a3 4 0 1 0 6 0a3 4 0 1 0 -6 0" /><path d="M17 12v9" />
</symbol>

	<use xlink:href="#brand-google-filled" x="24" y="24" width="24" height="24" />
	<use xlink:href="#brand-printables" x="68" y="24" width="24" height="24" />
	<use xlink:href="#brand-thingiverse" x="112" y="24" width="24" height="24" />
	<use xlink:href="#calendar-sad" x="156" y="24" width="24" height="24" />
	<use xlink:href="#calendar-smile" x="200" y="24" width="24" height="24" />
	<use xlink:href="#calendar-user" x="244" y="24" width="24" height="24" />
	<use xlink:href="#category-minus" x="24" y="68" width="24" height="24" />
	<use xlink:href="#category-plus" x="68" y="68" width="24" height="24" />
	<use xlink:href="#file-neutral" x="112" y="68" width="24" height="24" />
	<use xlink:href="#file-sad" x="156" y="68" width="24" height="24" />
	<use xlink:href="#file-smile" x="200" y="68" width="24" height="24" />
	<use xlink:href="#metronome" x="244" y="68" width="24" height="24" />
	<use xlink:href="#stack-back" x="24" y="112" width="24" height="24" />
	<use xlink:href="#stack-backward" x="68" y="112" width="24" height="24" />
	<use xlink:href="#stack-forward" x="112" y="112" width="24" height="24" />
	<use xlink:href="#stack-front" x="156" y="112" width="24" height="24" />
	<use xlink:href="#stack-middle" x="200" y="112" width="24" height="24" />
	<use xlink:href="#tools-kitchen-3" x="244" y="112" width="24" height="24" />

</svg>