<svg xmlns="http://www.w3.org/2000/svg" xmlns:xlink="http://www.w3.org/1999/xlink" viewBox="0 0 292 160" width="292" height="160" style="color: #354052"><rect x="0" y="0" width="292" height="160" fill="#fff"></rect>
	<symbol id="align-box-center-bottom" class="icon icon-tabler icon-tabler-align-box-center-bottom" viewBox="0 0 24 24" stroke-width="2" stroke="currentColor" fill="none" stroke-linecap="round" stroke-linejoin="round"><path stroke="none" d="M0 0h24v24H0z" fill="none"/><path d="M3 19v-14a2 2 0 0 1 2 -2h14a2 2 0 0 1 2 2v14a2 2 0 0 1 -2 2h-14a2 2 0 0 1 -2 -2z" /><path d="M11 17h2" /><path d="M9 14h6" /><path d="M10 11h4" />
</symbol>
	<symbol id="align-box-center-stretch" class="icon icon-tabler icon-tabler-align-box-center-stretch" viewBox="0 0 24 24" stroke-width="2" stroke="currentColor" fill="none" stroke-linecap="round" stroke-linejoin="round"><path stroke="none" d="M0 0h24v24H0z" fill="none"/><path d="M3 19v-14a2 2 0 0 1 2 -2h14a2 2 0 0 1 2 2v14a2 2 0 0 1 -2 2h-14a2 2 0 0 1 -2 -2z" /><path d="M11 17h2" /><path d="M9 12h6" /><path d="M10 7h4" />
</symbol>
	<symbol id="align-box-center-top" class="icon icon-tabler icon-tabler-align-box-center-top" viewBox="0 0 24 24" stroke-width="2" stroke="currentColor" fill="none" stroke-linecap="round" stroke-linejoin="round"><path stroke="none" d="M0 0h24v24H0z" fill="none"/><path d="M3 19v-14a2 2 0 0 1 2 -2h14a2 2 0 0 1 2 2v14a2 2 0 0 1 -2 2h-14a2 2 0 0 1 -2 -2z" /><path d="M11 13h2" /><path d="M9 10h6" /><path d="M10 7h4" />
</symbol>
	<symbol id="align-box-left-stretch" class="icon icon-tabler icon-tabler-align-box-left-stretch" viewBox="0 0 24 24" stroke-width="2" stroke="currentColor" fill="none" stroke-linecap="round" stroke-linejoin="round"><path stroke="none" d="M0 0h24v24H0z" fill="none"/><path d="M3 5a2 2 0 0 1 2 -2h14a2 2 0 0 1 2 2v14a2 2 0 0 1 -2 2h-14a2 2 0 0 1 -2 -2v-14z" /><path d="M9 17h-2" /><path d="M13 12h-6" /><path d="M11 7h-4" />
</symbol>
	<symbol id="align-box-right-stretch" class="icon icon-tabler icon-tabler-align-box-right-stretch" viewBox="0 0 24 24" stroke-width="2" stroke="currentColor" fill="none" stroke-linecap="round" stroke-linejoin="round"><path stroke="none" d="M0 0h24v24H0z" fill="none"/><path d="M15 17h2" /><path d="M3 5a2 2 0 0 1 2 -2h14a2 2 0 0 1 2 2v14a2 2 0 0 1 -2 2h-14a2 2 0 0 1 -2 -2v-14z" /><path d="M11 12h6" /><path d="M13 7h4" />
</symbol>
	<symbol id="brand-kbin" class="icon icon-tabler icon-tabler-brand-kbin" viewBox="0 0 24 24" stroke-width="2" stroke="currentColor" fill="none" stroke-linecap="round" stroke-linejoin="round"><path stroke="none" d="M0 0h24v24H0z" fill="none"/><g stroke-width="1.838"><path d="M10.586 9.506h-2.43c-.434 -.932 -.7 -1.506 -1.596 -1.506l-2.404 .019c-.662 0 -1.353 .592 -1.103 1.487l2.216 9.436c.486 1.743 .811 2.058 1.145 2.058h.64" /><path d="M14.275 3h5.645c.84 0 1.24 .714 1.02 1.287l-4.687 15.109c-.42 1.133 -1.159 1.603 -2.354 1.603h-7.485c.39 0 .76 -.618 1.296 -2.061l4.457 -14.49c.326 -.83 .76 -1.448 2.108 -1.448z" /></g>
</symbol>
	<symbol id="brand-rumble" class="icon icon-tabler icon-tabler-brand-rumble" viewBox="0 0 24 24" stroke-width="2" stroke="currentColor" fill="none" stroke-linecap="round" stroke-linejoin="round"><path stroke="none" d="M0 0h24v24H0z" fill="none"/><path d="M19.993 9.108c.383 .4 .687 .863 .893 1.368a4.195 4.195 0 0 1 .006 3.166a4.37 4.37 0 0 1 -.887 1.372a20.233 20.233 0 0 1 -2.208 2a20.615 20.615 0 0 1 -2.495 1.669a21.322 21.322 0 0 1 -5.622 2.202a4.213 4.213 0 0 1 -3.002 -.404a3.98 3.98 0 0 1 -1.163 -.967a3.796 3.796 0 0 1 -.695 -1.312c-1.199 -3.902 -1.022 -8.312 .134 -12.23c.609 -2.057 2.643 -3.349 4.737 -2.874c3.88 .88 7.52 3.147 10.302 6.01z" /><path d="M14.044 13.034c.67 -.505 .67 -1.489 0 -2.01a14.824 14.824 0 0 0 -1.498 -1.044a15.783 15.783 0 0 0 -1.62 -.865c-.77 -.35 -1.63 .139 -1.753 .973a15.385 15.385 0 0 0 -.1 3.786a1.232 1.232 0 0 0 1.715 1.027a14.783 14.783 0 0 0 1.694 -.827a14.46 14.46 0 0 0 1.562 -1.035v-.005z" />
</symbol>
	<symbol id="calendar-repeat" class="icon icon-tabler icon-tabler-calendar-repeat" viewBox="0 0 24 24" stroke-width="2" stroke="currentColor" fill="none" stroke-linecap="round" stroke-linejoin="round"><path stroke="none" d="M0 0h24v24H0z" fill="none"/><path d="M12.5 21h-6.5a2 2 0 0 1 -2 -2v-12a2 2 0 0 1 2 -2h12a2 2 0 0 1 2 2v3" /><path d="M16 3v4" /><path d="M8 3v4" /><path d="M4 11h12" /><path d="M20 14l2 2h-3" /><path d="M20 18l2 -2" /><path d="M19 16a3 3 0 1 0 2 5.236" />
</symbol>
	<symbol id="piano" class="icon icon-tabler icon-tabler-piano" viewBox="0 0 24 24" stroke-width="2" stroke="currentColor" fill="none" stroke-linecap="round" stroke-linejoin="round"><path stroke="none" d="M0 0h24v24H0z" fill="none"/><path d="M3 5m0 2a2 2 0 0 1 2 -2h14a2 2 0 0 1 2 2v10a2 2 0 0 1 -2 2h-14a2 2 0 0 1 -2 -2z" /><path d="M9 19v-5" /><path d="M8 5v8h2v-8" /><path d="M15 19v-5" /><path d="M14 6v7h2v-7" />
</symbol>
	<symbol id="time-duration-0" class="icon icon-tabler icon-tabler-time-duration-0" viewBox="0 0 24 24" stroke-width="2" stroke="currentColor" fill="none" stroke-linecap="round" stroke-linejoin="round"><path stroke="none" d="M0 0h24v24H0z" fill="none"/><path d="M3 12v.01" /><path d="M21 12v.01" /><path d="M12 21v.01" /><path d="M12 3v.01" /><path d="M7.5 4.2v.01" /><path d="M16.5 4.2v.01" /><path d="M16.5 19.8v.01" /><path d="M7.5 19.8v.01" /><path d="M4.2 16.5v.01" /><path d="M19.8 16.5v.01" /><path d="M19.8 7.5v.01" /><path d="M4.2 7.5v.01" /><path d="M10 11v2a2 2 0 1 0 4 0v-2a2 2 0 1 0 -4 0z" />
</symbol>
	<symbol id="time-duration-10" class="icon icon-tabler icon-tabler-time-duration-10" viewBox="0 0 24 24" stroke-width="2" stroke="currentColor" fill="none" stroke-linecap="round" stroke-linejoin="round"><path stroke="none" d="M0 0h24v24H0z" fill="none"/><path d="M9 9v6" /><path d="M12 11v2a2 2 0 1 0 4 0v-2a2 2 0 1 0 -4 0z" /><path d="M3 12v.01" /><path d="M21 12v.01" /><path d="M12 21v.01" /><path d="M7.5 4.2v.01" /><path d="M16.5 19.8v.01" /><path d="M7.5 19.8v.01" /><path d="M4.2 16.5v.01" /><path d="M19.8 16.5v.01" /><path d="M4.2 7.5v.01" /><path d="M19.81 7.527a8.994 8.994 0 0 0 -7.81 -4.527" />
</symbol>
	<symbol id="time-duration-15" class="icon icon-tabler icon-tabler-time-duration-15" viewBox="0 0 24 24" stroke-width="2" stroke="currentColor" fill="none" stroke-linecap="round" stroke-linejoin="round"><path stroke="none" d="M0 0h24v24H0z" fill="none"/><path d="M12 15h2a1 1 0 0 0 1 -1v-1a1 1 0 0 0 -1 -1h-2v-3h3" /><path d="M9 9v6" /><path d="M3 12v.01" /><path d="M12 21v.01" /><path d="M7.5 4.2v.01" /><path d="M16.5 19.8v.01" /><path d="M7.5 19.8v.01" /><path d="M4.2 16.5v.01" /><path d="M19.8 16.5v.01" /><path d="M4.2 7.5v.01" /><path d="M21 12a9 9 0 0 0 -9 -9" />
</symbol>
	<symbol id="time-duration-30" class="icon icon-tabler icon-tabler-time-duration-30" viewBox="0 0 24 24" stroke-width="2" stroke="currentColor" fill="none" stroke-linecap="round" stroke-linejoin="round"><path stroke="none" d="M0 0h24v24H0z" fill="none"/><path d="M14 10.5v3a1.5 1.5 0 0 0 3 0v-3a1.5 1.5 0 0 0 -3 0z" /><path d="M8 9h1.5a1.5 1.5 0 0 1 0 3h-.5h.5a1.5 1.5 0 0 1 0 3h-1.5" /><path d="M3 12v.01" /><path d="M7.5 4.2v.01" /><path d="M7.5 19.8v.01" /><path d="M4.2 16.5v.01" /><path d="M4.2 7.5v.01" /><path d="M12 21a9 9 0 0 0 0 -18" />
</symbol>
	<symbol id="time-duration-45" class="icon icon-tabler icon-tabler-time-duration-45" viewBox="0 0 24 24" stroke-width="2" stroke="currentColor" fill="none" stroke-linecap="round" stroke-linejoin="round"><path stroke="none" d="M0 0h24v24H0z" fill="none"/><path d="M13 15h2a1 1 0 0 0 1 -1v-1a1 1 0 0 0 -1 -1h-2v-3h3" /><path d="M7 9v2a1 1 0 0 0 1 1h1" /><path d="M10 9v6" /><path d="M7.5 4.2v.01" /><path d="M4.2 7.5v.01" /><path d="M3 12a9 9 0 1 0 9 -9" />
</symbol>
	<symbol id="time-duration-5" class="icon icon-tabler icon-tabler-time-duration-5" viewBox="0 0 24 24" stroke-width="2" stroke="currentColor" fill="none" stroke-linecap="round" stroke-linejoin="round"><path stroke="none" d="M0 0h24v24H0z" fill="none"/><path d="M10 15h2a1.5 1.5 0 0 0 0 -3h-2v-3h3.5" /><path d="M3 12v.01" /><path d="M21 12v.01" /><path d="M12 21v.01" /><path d="M7.5 4.2v.01" /><path d="M16.5 19.8v.01" /><path d="M7.5 19.8v.01" /><path d="M4.2 16.5v.01" /><path d="M19.8 16.5v.01" /><path d="M19.8 7.5v.01" /><path d="M4.2 7.5v.01" /><path d="M16.5 4.206a9.042 9.042 0 0 0 -4.5 -1.206" />
</symbol>
	<symbol id="time-duration-60" class="icon icon-tabler icon-tabler-time-duration-60" viewBox="0 0 24 24" stroke-width="2" stroke="currentColor" fill="none" stroke-linecap="round" stroke-linejoin="round"><path stroke="none" d="M0 0h24v24H0z" fill="none"/><path d="M14 10.5v3a1.5 1.5 0 0 0 3 0v-3a1.5 1.5 0 0 0 -3 0z" /><path d="M11 9h-2a1 1 0 0 0 -1 1v4a1 1 0 0 0 1 1h1a1 1 0 0 0 1 -1v-1a1 1 0 0 0 -1 -1h-2" /><path d="M3 12a9 9 0 1 0 18 0a9 9 0 0 0 -18 0" />
</symbol>
	<symbol id="time-duration-90" class="icon icon-tabler icon-tabler-time-duration-90" viewBox="0 0 24 24" stroke-width="2" stroke="currentColor" fill="none" stroke-linecap="round" stroke-linejoin="round"><path stroke="none" d="M0 0h24v24H0z" fill="none"/><path d="M8 14.25c0 .414 .336 .75 .75 .75h1.5a.75 .75 0 0 0 .75 -.75v-4.5a.75 .75 0 0 0 -.75 -.75h-1.5a.75 .75 0 0 0 -.75 .75v1.5c0 .414 .336 .75 .75 .75h2.25" /><path d="M14 10.5v3a1.5 1.5 0 0 0 3 0v-3a1.5 1.5 0 0 0 -3 0z" /><path d="M3 12a9 9 0 1 0 18 0a9 9 0 0 0 -18 0" />
</symbol>
	<symbol id="time-duration-off" class="icon icon-tabler icon-tabler-time-duration-off" viewBox="0 0 24 24" stroke-width="2" stroke="currentColor" fill="none" stroke-linecap="round" stroke-linejoin="round"><path stroke="none" d="M0 0h24v24H0z" fill="none"/><path d="M3 12v.01" /><path d="M7.5 19.8v.01" /><path d="M4.2 16.5v.01" /><path d="M4.2 7.5v.01" /><path d="M12 21a8.994 8.994 0 0 0 6.362 -2.634m1.685 -2.336a9 9 0 0 0 -8.047 -13.03" /><path d="M3 3l18 18" />
</symbol>

	<use xlink:href="#align-box-center-bottom" x="24" y="24" width="24" height="24" />
	<use xlink:href="#align-box-center-stretch" x="68" y="24" width="24" height="24" />
	<use xlink:href="#align-box-center-top" x="112" y="24" width="24" height="24" />
	<use xlink:href="#align-box-left-stretch" x="156" y="24" width="24" height="24" />
	<use xlink:href="#align-box-right-stretch" x="200" y="24" width="24" height="24" />
	<use xlink:href="#brand-kbin" x="244" y="24" width="24" height="24" />
	<use xlink:href="#brand-rumble" x="24" y="68" width="24" height="24" />
	<use xlink:href="#calendar-repeat" x="68" y="68" width="24" height="24" />
	<use xlink:href="#piano" x="112" y="68" width="24" height="24" />
	<use xlink:href="#time-duration-0" x="156" y="68" width="24" height="24" />
	<use xlink:href="#time-duration-10" x="200" y="68" width="24" height="24" />
	<use xlink:href="#time-duration-15" x="244" y="68" width="24" height="24" />
	<use xlink:href="#time-duration-30" x="24" y="112" width="24" height="24" />
	<use xlink:href="#time-duration-45" x="68" y="112" width="24" height="24" />
	<use xlink:href="#time-duration-5" x="112" y="112" width="24" height="24" />
	<use xlink:href="#time-duration-60" x="156" y="112" width="24" height="24" />
	<use xlink:href="#time-duration-90" x="200" y="112" width="24" height="24" />
	<use xlink:href="#time-duration-off" x="244" y="112" width="24" height="24" />

</svg>