<svg xmlns="http://www.w3.org/2000/svg" xmlns:xlink="http://www.w3.org/1999/xlink" viewBox="0 0 292 600" width="292" height="600" style="color: #354052"><rect x="0" y="0" width="292" height="600" fill="#fff"></rect>
	<symbol id="badge-filled" class="icon icon-tabler icon-tabler-badge-filled" viewBox="0 0 24 24" stroke-width="2" stroke="currentColor" fill="none" stroke-linecap="round" stroke-linejoin="round"><path stroke="none" d="M0 0h24v24H0z" fill="none"/><path d="M17 17v-13l-5 3l-5 -3v13l5 3z" fill="currentColor" />
</symbol>
	<symbol id="battery-filled" class="icon icon-tabler icon-tabler-battery-filled" viewBox="0 0 24 24" stroke-width="2" stroke="currentColor" fill="none" stroke-linecap="round" stroke-linejoin="round"><path stroke="none" d="M0 0h24v24H0z" fill="none"/><path d="M6 7h11a2 2 0 0 1 2 2v.5a0.5 .5 0 0 0 .5 .5a0.5 .5 0 0 1 .5 .5v3a0.5 .5 0 0 1 -.5 .5a0.5 .5 0 0 0 -.5 .5v.5a2 2 0 0 1 -2 2h-11a2 2 0 0 1 -2 -2v-6a2 2 0 0 1 2 -2" fill="currentColor" />
</symbol>
	<symbol id="bell-filled" class="icon icon-tabler icon-tabler-bell-filled" viewBox="0 0 24 24" stroke-width="2" stroke="currentColor" fill="none" stroke-linecap="round" stroke-linejoin="round"><path stroke="none" d="M0 0h24v24H0z" fill="none"/><path d="M10 5a2 2 0 0 1 4 0a7 7 0 0 1 4 6v3a4 4 0 0 0 2 3h-16a4 4 0 0 0 2 -3v-3a7 7 0 0 1 4 -6" fill="currentColor" /><path d="M9 17v1a3 3 0 0 0 6 0v-1" />
</symbol>
	<symbol id="bulb-filled" class="icon icon-tabler icon-tabler-bulb-filled" viewBox="0 0 24 24" stroke-width="2" stroke="currentColor" fill="none" stroke-linecap="round" stroke-linejoin="round"><path stroke="none" d="M0 0h24v24H0z" fill="none"/><path d="M3 12h1m8 -9v1m8 8h1m-15.4 -6.4l.7 .7m12.1 -.7l-.7 .7m-3.405 10.7a3.5 3.5 0 0 0 -.295 2a2 2 0 1 1 -4 0a3.5 3.5 0 0 0 -.295 -2m2.295 -10a5 5 0 0 1 3 9a3.498 3.498 0 0 0 -.706 1h-4.588a3.498 3.498 0 0 0 -.706 -1a5 5 0 0 1 3 -9z" fill="currentColor" />
</symbol>
	<symbol id="chart-area-filled" class="icon icon-tabler icon-tabler-chart-area-filled" viewBox="0 0 24 24" stroke-width="2" stroke="currentColor" fill="none" stroke-linecap="round" stroke-linejoin="round"><path stroke="none" d="M0 0h24v24H0z" fill="none"/><path d="M4 19l16 0" /><polyline points="4 15 8 9 12 11 16 6 20 10 20 15 4 15" fill="currentColor" />
</symbol>
	<symbol id="chart-area-line-filled" class="icon icon-tabler icon-tabler-chart-area-line-filled" viewBox="0 0 24 24" stroke-width="2" stroke="currentColor" fill="none" stroke-linecap="round" stroke-linejoin="round"><path stroke="none" d="M0 0h24v24H0z" fill="none"/><polyline points="4 19 8 13 12 15 16 10 20 14 20 19 4 19" fill="currentColor" /><path d="M4 12l3 -4l4 2l5 -6l4 4" />
</symbol>
	<symbol id="chart-bubble-filled" class="icon icon-tabler icon-tabler-chart-bubble-filled" viewBox="0 0 24 24" stroke-width="2" stroke="currentColor" fill="none" stroke-linecap="round" stroke-linejoin="round"><path stroke="none" d="M0 0h24v24H0z" fill="none"/><path d="M6 16m-3 0a3 3 0 1 0 6 0a3 3 0 1 0 -6 0m13 3m-2 0a2 2 0 1 0 4 0a2 2 0 1 0 -4 0m.5 -11.5m-4.5 0a4.5 4.5 0 1 0 9 0a4.5 4.5 0 1 0 -9 0" fill="currentColor" />
</symbol>
	<symbol id="chart-candle-filled" class="icon icon-tabler icon-tabler-chart-candle-filled" viewBox="0 0 24 24" stroke-width="2" stroke="currentColor" fill="none" stroke-linecap="round" stroke-linejoin="round"><path stroke="none" d="M0 0h24v24H0z" fill="none"/><rect x="4" y="6" width="4" height="5" rx="1" fill="currentColor" /><path d="M6 4l0 2m0 5l0 9" /><rect x="10" y="14" width="4" height="5" rx="1" fill="currentColor" /><path d="M12 4l0 10m0 5l0 1" /><rect x="16" y="5" width="4" height="6" rx="1" fill="currentColor" /><path d="M18 4l0 1m0 6l0 9" />
</symbol>
	<symbol id="chart-donut-filled" class="icon icon-tabler icon-tabler-chart-donut-filled" viewBox="0 0 24 24" stroke-width="2" stroke="currentColor" fill="none" stroke-linecap="round" stroke-linejoin="round"><path stroke="none" d="M0 0h24v24H0z" fill="none"/><path d="M10 3.2a9 9 0 1 0 10.8 10.8a1 1 0 0 0 -1 -1h-3.8a4.1 4.1 0 1 1 -5 -5v-4a0.9 .9 0 0 0 -1 -.8" fill="currentColor" /><path d="M15 3.5a9 9 0 0 1 5.5 5.5h-4.5a9 9 0 0 0 -1 -1v-4.5" fill="currentColor" />
</symbol>
	<symbol id="chart-pie-filled" class="icon icon-tabler icon-tabler-chart-pie-filled" viewBox="0 0 24 24" stroke-width="2" stroke="currentColor" fill="none" stroke-linecap="round" stroke-linejoin="round"><path stroke="none" d="M0 0h24v24H0z" fill="none"/><path d="M10 3.2a9 9 0 1 0 10.8 10.8a1 1 0 0 0 -1 -1h-6.8a2 2 0 0 1 -2 -2v-7a0.9 .9 0 0 0 -1 -.8" fill="currentColor" /><path d="M15 3.5a9 9 0 0 1 5.5 5.5h-4.5a1 1 0 0 1 -1 -1v-4.5" fill="currentColor" />
</symbol>
	<symbol id="circle-filled" class="icon icon-tabler icon-tabler-circle-filled" viewBox="0 0 24 24" stroke-width="2" stroke="currentColor" fill="none" stroke-linecap="round" stroke-linejoin="round"><path stroke="none" d="M0 0h24v24H0z" fill="none"/><path d="M12 12m-9 0a9 9 0 1 0 18 0a9 9 0 1 0 -18 0" fill="currentColor" />
</symbol>
	<symbol id="circles-filled" class="icon icon-tabler icon-tabler-circles-filled" viewBox="0 0 24 24" stroke-width="2" stroke="currentColor" fill="none" stroke-linecap="round" stroke-linejoin="round"><path stroke="none" d="M0 0h24v24H0z" fill="none"/><path d="M12 7m-4 0a4 4 0 1 0 8 0a4 4 0 1 0 -8 0m-1.5 10m-4 0a4 4 0 1 0 8 0a4 4 0 1 0 -8 0m15 0m-4 0a4 4 0 1 0 8 0a4 4 0 1 0 -8 0" fill="currentColor" />
</symbol>
	<symbol id="cloud-filled" class="icon icon-tabler icon-tabler-cloud-filled" viewBox="0 0 24 24" stroke-width="2" stroke="currentColor" fill="none" stroke-linecap="round" stroke-linejoin="round"><path stroke="none" d="M0 0h24v24H0z" fill="none"/><path d="M6.657 18c-2.572 0 -4.657 -2.007 -4.657 -4.483c0 -2.475 2.085 -4.482 4.657 -4.482c.393 -1.762 1.794 -3.2 3.675 -3.773c1.88 -.572 3.956 -.193 5.444 1c1.488 1.19 2.162 3.007 1.77 4.769h.99c1.913 0 3.464 1.56 3.464 3.486c0 1.927 -1.551 3.487 -3.465 3.487h-11.878" fill="currentColor" />
</symbol>
	<symbol id="clubs-filled" class="icon icon-tabler icon-tabler-clubs-filled" viewBox="0 0 24 24" stroke-width="2" stroke="currentColor" fill="none" stroke-linecap="round" stroke-linejoin="round"><path stroke="none" d="M0 0h24v24H0z" fill="none"/><path d="M12 3a4 4 0 0 1 3.164 6.447a4 4 0 1 1 -1.164 6.198v1.355l1 4h-6l1 -4l0 -1.355a4 4 0 1 1 -1.164 -6.199a4 4 0 0 1 3.163 -6.446z" fill="currentColor" />
</symbol>
	<symbol id="cross-filled" class="icon icon-tabler icon-tabler-cross-filled" viewBox="0 0 24 24" stroke-width="2" stroke="currentColor" fill="none" stroke-linecap="round" stroke-linejoin="round"><path stroke="none" d="M0 0h24v24H0z" fill="none"/><path d="M10 21h4v-9h5v-4h-5v-5h-4v5h-5v4h5z" fill="currentColor" />
</symbol>
	<symbol id="diamonds-filled" class="icon icon-tabler icon-tabler-diamonds-filled" viewBox="0 0 24 24" stroke-width="2" stroke="currentColor" fill="none" stroke-linecap="round" stroke-linejoin="round"><path stroke="none" d="M0 0h24v24H0z" fill="none"/><path d="M10.831 20.413l-5.375 -6.91c-.608 -.783 -.608 -2.223 0 -3l5.375 -6.911a1.457 1.457 0 0 1 2.338 0l5.375 6.91c.608 .783 .608 2.223 0 3l-5.375 6.911a1.457 1.457 0 0 1 -2.338 0z" fill="currentColor" />
</symbol>
	<symbol id="droplet-filled" class="icon icon-tabler icon-tabler-droplet-filled" viewBox="0 0 24 24" stroke-width="2" stroke="currentColor" fill="none" stroke-linecap="round" stroke-linejoin="round"><path stroke="none" d="M0 0h24v24H0z" fill="none"/><path d="M6.8 11a6 6 0 1 0 10.396 0l-5.197 -8l-5.2 8z" fill="currentColor" />
</symbol>
	<symbol id="egg-filled" class="icon icon-tabler icon-tabler-egg-filled" viewBox="0 0 24 24" stroke-width="2" stroke="currentColor" fill="none" stroke-linecap="round" stroke-linejoin="round"><path stroke="none" d="M0 0h24v24H0z" fill="none"/><path d="M19 14.083c0 4.154 -2.966 6.74 -7 6.917c-4.2 0 -7 -2.763 -7 -6.917c0 -5.538 3.5 -11.09 7 -11.083c3.5 .007 7 5.545 7 11.083z" fill="currentColor" />
</symbol>
	<symbol id="eye-filled" class="icon icon-tabler icon-tabler-eye-filled" viewBox="0 0 24 24" stroke-width="2" stroke="currentColor" fill="none" stroke-linecap="round" stroke-linejoin="round"><path stroke="none" d="M0 0h24v24H0z" fill="none"/><path d="M22 12c-2.667 4.667 -6 7 -10 7s-7.333 -2.333 -10 -7c2.667 -4.667 6 -7 10 -7s7.333 2.333 10 7m-13 0a3 3 0 0 0 6 0a3 3 0 0 0 -6 0" fill="currentColor" />
</symbol>
	<symbol id="flag-filled" class="icon icon-tabler icon-tabler-flag-filled" viewBox="0 0 24 24" stroke-width="2" stroke="currentColor" fill="none" stroke-linecap="round" stroke-linejoin="round"><path stroke="none" d="M0 0h24v24H0z" fill="none"/><path d="M5 21v-16a5 5 0 0 1 7 0a5 5 0 0 0 7 0v9a5 5 0 0 1 -7 0a5 5 0 0 0 -7 0" fill="currentColor" />
</symbol>
	<symbol id="guitar-pick-filled" class="icon icon-tabler icon-tabler-guitar-pick-filled" viewBox="0 0 24 24" stroke-width="2" stroke="currentColor" fill="none" stroke-linecap="round" stroke-linejoin="round"><path stroke="none" d="M0 0h24v24H0z" fill="none"/><path d="M16 18.5c2 -2.5 4 -6.5 4 -10.5c0 -2.946 -2.084 -4.157 -4.204 -4.654c-.864 -.23 -2.13 -.346 -3.796 -.346c-1.667 0 -2.932 .115 -3.796 .346c-2.12 .497 -4.204 1.708 -4.204 4.654c0 3.312 2 8 4 10.5c.297 .37 .618 .731 .963 1.081l.354 .347a3.9 3.9 0 0 0 5.364 0a14.05 14.05 0 0 0 1.319 -1.428z" fill="currentColor" />
</symbol>
	<symbol id="heart-filled" class="icon icon-tabler icon-tabler-heart-filled" viewBox="0 0 24 24" stroke-width="2" stroke="currentColor" fill="none" stroke-linecap="round" stroke-linejoin="round"><path stroke="none" d="M0 0h24v24H0z" fill="none"/><path d="M19.5 12.572l-7.5 7.428l-7.5 -7.428a5 5 0 1 1 7.5 -6.566a5 5 0 1 1 7.5 6.572" fill="currentColor" />
</symbol>
	<symbol id="hexagon-filled" class="icon icon-tabler icon-tabler-hexagon-filled" viewBox="0 0 24 24" stroke-width="2" stroke="currentColor" fill="none" stroke-linecap="round" stroke-linejoin="round"><path stroke="none" d="M0 0h24v24H0z" fill="none"/><path d="M19 6.873a2 2 0 0 1 1 1.747v6.536a2 2 0 0 1 -1.029 1.748l-6 3.833a2 2 0 0 1 -1.942 0l-6 -3.833a2 2 0 0 1 -1.029 -1.747v-6.537a2 2 0 0 1 1.029 -1.748l6 -3.572a2.056 2.056 0 0 1 2 0l6 3.573h-.029z" fill="currentColor" />
</symbol>
	<symbol id="jewish-star-filled" class="icon icon-tabler icon-tabler-jewish-star-filled" viewBox="0 0 24 24" stroke-width="2" stroke="currentColor" fill="none" stroke-linecap="round" stroke-linejoin="round"><path stroke="none" d="M0 0h24v24H0z" fill="none"/><path d="M12 2l3 5h6l-3 5l3 5h-6l-3 5l-3 -5h-6l3 -5l-3 -5h6z" fill="currentColor" />
</symbol>
	<symbol id="location-filled" class="icon icon-tabler icon-tabler-location-filled" viewBox="0 0 24 24" stroke-width="2" stroke="currentColor" fill="none" stroke-linecap="round" stroke-linejoin="round"><path stroke="none" d="M0 0h24v24H0z" fill="none"/><path d="M21 3l-6.5 18a0.55 .55 0 0 1 -1 0l-3.5 -7l-7 -3.5a0.55 .55 0 0 1 0 -1l18 -6.5" fill="currentColor" />
</symbol>
	<symbol id="map-pin-filled" class="icon icon-tabler icon-tabler-map-pin-filled" viewBox="0 0 24 24" stroke-width="2" stroke="currentColor" fill="none" stroke-linecap="round" stroke-linejoin="round"><path stroke="none" d="M0 0h24v24H0z" fill="none"/><path d="M17.657 16.657l-4.243 4.243a2 2 0 0 1 -2.827 0l-4.244 -4.243a8 8 0 1 1 11.314 0m-8.657 -5.657a3 3 0 0 0 6 0a3 3 0 0 0 -6 0" fill="currentColor" />
</symbol>
	<symbol id="medical-cross-filled" class="icon icon-tabler icon-tabler-medical-cross-filled" viewBox="0 0 24 24" stroke-width="2" stroke="currentColor" fill="none" stroke-linecap="round" stroke-linejoin="round"><path stroke="none" d="M0 0h24v24H0z" fill="none"/><path d="M13 3a1 1 0 0 1 1 1v4.535l3.928 -2.267a1 1 0 0 1 1.366 .366l1 1.732a1 1 0 0 1 -.366 1.366l-3.927 2.268l3.927 2.269a1 1 0 0 1 .366 1.366l-1 1.732a1 1 0 0 1 -1.366 .366l-3.928 -2.269v4.536a1 1 0 0 1 -1 1h-2a1 1 0 0 1 -1 -1v-4.536l-3.928 2.268a1 1 0 0 1 -1.366 -.366l-1 -1.732a1 1 0 0 1 .366 -1.366l3.927 -2.268l-3.927 -2.268a1 1 0 0 1 -.366 -1.366l1 -1.732a1 1 0 0 1 1.366 -.366l3.928 2.267v-4.535a1 1 0 0 1 1 -1h2z" fill="currentColor" />
</symbol>
	<symbol id="message-circle-2-filled" class="icon icon-tabler icon-tabler-message-circle-2-filled" viewBox="0 0 24 24" stroke-width="2" stroke="currentColor" fill="none" stroke-linecap="round" stroke-linejoin="round"><path stroke="none" d="M0 0h24v24H0z" fill="none"/><path d="M3 20l1.3 -3.9a9 8 0 1 1 3.4 2.9l-4.7 1" fill="currentColor" />
</symbol>
	<symbol id="mickey-filled" class="icon icon-tabler icon-tabler-mickey-filled" viewBox="0 0 24 24" stroke-width="2" stroke="currentColor" fill="none" stroke-linecap="round" stroke-linejoin="round"><path stroke="none" d="M0 0h24v24H0z" fill="none"/><path d="M5.5 3a3.5 3.5 0 0 1 3.25 4.8a7.017 7.017 0 0 0 -2.424 2.1a3.5 3.5 0 1 1 -.826 -6.9zm13 0a3.5 3.5 0 1 1 -.826 6.902a7.013 7.013 0 0 0 -2.424 -2.103a3.5 3.5 0 0 1 3.25 -4.799zm-6.5 11m-7 0a7 7 0 1 0 14 0a7 7 0 1 0 -14 0" fill="currentColor" />
</symbol>
	<symbol id="moon-filled" class="icon icon-tabler icon-tabler-moon-filled" viewBox="0 0 24 24" stroke-width="2" stroke="currentColor" fill="none" stroke-linecap="round" stroke-linejoin="round"><path stroke="none" d="M0 0h24v24H0z" fill="none"/><path d="M12 3c.132 0 .263 0 .393 0a7.5 7.5 0 0 0 7.92 12.446a9 9 0 1 1 -8.313 -12.454z" fill="currentColor" />
</symbol>
	<symbol id="navigation-filled" class="icon icon-tabler icon-tabler-navigation-filled" viewBox="0 0 24 24" stroke-width="2" stroke="currentColor" fill="none" stroke-linecap="round" stroke-linejoin="round"><path stroke="none" d="M0 0h24v24H0z" fill="none"/><path d="M12 18.5l7.265 2.463a0.535 .535 0 0 0 .57 -.116a0.548 .548 0 0 0 .134 -.572l-7.969 -17.275l-7.97 17.275a0.547 .547 0 0 0 .135 .572a0.535 .535 0 0 0 .57 .116l7.265 -2.463" fill="currentColor" />
</symbol>
	<symbol id="octagon-filled" class="icon icon-tabler icon-tabler-octagon-filled" viewBox="0 0 24 24" stroke-width="2" stroke="currentColor" fill="none" stroke-linecap="round" stroke-linejoin="round"><path stroke="none" d="M0 0h24v24H0z" fill="none"/><path d="M8.7 3h6.6c.3 0 .5 .1 .7 .3l4.7 4.7c.2 .2 .3 .4 .3 .7v6.6c0 .3 -.1 .5 -.3 .7l-4.7 4.7c-.2 .2 -.4 .3 -.7 .3h-6.6c-.3 0 -.5 -.1 -.7 -.3l-4.7 -4.7c-.2 -.2 -.3 -.4 -.3 -.7v-6.6c0 -.3 .1 -.5 .3 -.7l4.7 -4.7c.2 -.2 .4 -.3 .7 -.3z" fill="currentColor" />
</symbol>
	<symbol id="oval-filled" class="icon icon-tabler icon-tabler-oval-filled" viewBox="0 0 24 24" stroke-width="2" stroke="currentColor" fill="none" stroke-linecap="round" stroke-linejoin="round"><path stroke="none" d="M0 0h24v24H0z" fill="none"/><ellipse cx="12" cy="12" rx="6" ry="9" fill="currentColor" />
</symbol>
	<symbol id="oval-vertical-filled" class="icon icon-tabler icon-tabler-oval-vertical-filled" viewBox="0 0 24 24" stroke-width="2" stroke="currentColor" fill="none" stroke-linecap="round" stroke-linejoin="round"><path stroke="none" d="M0 0h24v24H0z" fill="none"/><path d="M3 12c0 -3.314 4.03 -6 9 -6s9 2.686 9 6s-4.03 6 -9 6s-9 -2.686 -9 -6z" fill="currentColor" />
</symbol>
	<symbol id="paw-filled" class="icon icon-tabler icon-tabler-paw-filled" viewBox="0 0 24 24" stroke-width="2" stroke="currentColor" fill="none" stroke-linecap="round" stroke-linejoin="round"><path stroke="none" d="M0 0h24v24H0z" fill="none"/><path d="M14.7 13.5c-1.1 -2 -1.441 -2.5 -2.7 -2.5c-1.259 0 -1.736 .755 -2.836 2.747c-.942 1.703 -2.846 1.845 -3.321 3.291c-.097 .265 -.145 .677 -.143 .962c0 1.176 .787 2 1.8 2c1.259 0 3 -1 4.5 -1s3.241 1 4.5 1c1.013 0 1.8 -.823 1.8 -2c0 -.285 -.049 -.697 -.146 -.962c-.475 -1.451 -2.512 -1.835 -3.454 -3.538z" fill="currentColor" /><path d="M20.188 8.082a1.039 1.039 0 0 0 -.406 -.082h-.015c-.735 .012 -1.56 .75 -1.993 1.866c-.519 1.335 -.28 2.7 .538 3.052c.129 .055 .267 .082 .406 .082c.739 0 1.575 -.742 2.011 -1.866c.516 -1.335 .273 -2.7 -.54 -3.052z" fill="currentColor" /><path d="M9.474 9c.055 0 .109 0 .163 -.011c.944 -.128 1.533 -1.346 1.32 -2.722c-.203 -1.297 -1.047 -2.267 -1.932 -2.267c-.055 0 -.109 0 -.163 .011c-.944 .128 -1.533 1.346 -1.32 2.722c.204 1.293 1.048 2.267 1.933 2.267z" fill="currentColor" /><path d="M16.456 6.733c.214 -1.376 -.375 -2.594 -1.32 -2.722a1.164 1.164 0 0 0 -.162 -.011c-.885 0 -1.728 .97 -1.93 2.267c-.214 1.376 .375 2.594 1.32 2.722c.054 .007 .108 .011 .162 .011c.885 0 1.73 -.974 1.93 -2.267z" fill="currentColor" /><path d="M5.69 12.918c.816 -.352 1.054 -1.719 .536 -3.052c-.436 -1.124 -1.271 -1.866 -2.009 -1.866c-.14 0 -.277 .027 -.407 .082c-.816 .352 -1.054 1.719 -.536 3.052c.436 1.124 1.271 1.866 2.009 1.866c.14 0 .277 -.027 .407 -.082z" fill="currentColor" />
</symbol>
	<symbol id="pennant-2-filled" class="icon icon-tabler icon-tabler-pennant-2-filled" viewBox="0 0 24 24" stroke-width="2" stroke="currentColor" fill="none" stroke-linecap="round" stroke-linejoin="round"><path stroke="none" d="M0 0h24v24H0z" fill="none"/><path d="M16 21h-4m2 0v-18m0 1l-9 4l9 4" fill="currentColor" />
</symbol>
	<symbol id="pennant-filled" class="icon icon-tabler icon-tabler-pennant-filled" viewBox="0 0 24 24" stroke-width="2" stroke="currentColor" fill="none" stroke-linecap="round" stroke-linejoin="round"><path stroke="none" d="M0 0h24v24H0z" fill="none"/><path d="M8 21l4 0m-2 0l0 -18m0 1l9 4l-9 4" fill="currentColor" />
</symbol>
	<symbol id="pentagon-filled" class="icon icon-tabler icon-tabler-pentagon-filled" viewBox="0 0 24 24" stroke-width="2" stroke="currentColor" fill="none" stroke-linecap="round" stroke-linejoin="round"><path stroke="none" d="M0 0h24v24H0z" fill="none"/><path d="M13.2 3.394l7.033 5.237a2 2 0 0 1 .7 2.247l-2.973 8.764a2 2 0 0 1 -1.894 1.358h-8.12a2 2 0 0 1 -1.9 -1.373l-2.896 -8.765a2 2 0 0 1 .696 -2.225l6.958 -5.237a2 2 0 0 1 2.397 0h0z" fill="currentColor" />
</symbol>
	<symbol id="pin-filled" class="icon icon-tabler icon-tabler-pin-filled" viewBox="0 0 24 24" stroke-width="2" stroke="currentColor" fill="none" stroke-linecap="round" stroke-linejoin="round"><path stroke="none" d="M0 0h24v24H0z" fill="none"/><path d="M15 4.5l-4 4l-4 1.5l-1.5 1.5l7 7l1.5 -1.5l1.5 -4l4 -4" fill="currentColor" /><path d="M9 15l-4.5 4.5m10 -15.5l5.5 5.5" />
</symbol>
	<symbol id="pinned-filled" class="icon icon-tabler icon-tabler-pinned-filled" viewBox="0 0 24 24" stroke-width="2" stroke="currentColor" fill="none" stroke-linecap="round" stroke-linejoin="round"><path stroke="none" d="M0 0h24v24H0z" fill="none"/><path d="M9 4v6l-2 4v2h10v-2l-2 -4v-6" fill="currentColor" /><path d="M12 16l0 5m-4 -17l8 0" />
</symbol>
	<symbol id="player-eject-filled" class="icon icon-tabler icon-tabler-player-eject-filled" viewBox="0 0 24 24" stroke-width="2" stroke="currentColor" fill="none" stroke-linecap="round" stroke-linejoin="round"><path stroke="none" d="M0 0h24v24H0z" fill="none"/><path d="M5 12h14l-7 -8z" fill="currentColor" /><rect x="5" y="16" width="14" height="4" rx="1" fill="currentColor" />
</symbol>
	<symbol id="player-pause-filled" class="icon icon-tabler icon-tabler-player-pause-filled" viewBox="0 0 24 24" stroke-width="2" stroke="currentColor" fill="none" stroke-linecap="round" stroke-linejoin="round"><path stroke="none" d="M0 0h24v24H0z" fill="none"/><rect x="6" y="5" width="4" height="14" rx="1" fill="currentColor" /><rect x="14" y="5" width="4" height="14" rx="1" fill="currentColor" />
</symbol>
	<symbol id="player-play-filled" class="icon icon-tabler icon-tabler-player-play-filled" viewBox="0 0 24 24" stroke-width="2" stroke="currentColor" fill="none" stroke-linecap="round" stroke-linejoin="round"><path stroke="none" d="M0 0h24v24H0z" fill="none"/><path d="M7 4v16l13 -8z" fill="currentColor" />
</symbol>
	<symbol id="player-record-filled" class="icon icon-tabler icon-tabler-player-record-filled" viewBox="0 0 24 24" stroke-width="2" stroke="currentColor" fill="none" stroke-linecap="round" stroke-linejoin="round"><path stroke="none" d="M0 0h24v24H0z" fill="none"/><path d="M12 12m-7 0a7 7 0 1 0 14 0a7 7 0 1 0 -14 0" fill="currentColor" />
</symbol>
	<symbol id="player-skip-back-filled" class="icon icon-tabler icon-tabler-player-skip-back-filled" viewBox="0 0 24 24" stroke-width="2" stroke="currentColor" fill="none" stroke-linecap="round" stroke-linejoin="round"><path stroke="none" d="M0 0h24v24H0z" fill="none"/><path d="M20 5v14l-12 -7z" fill="currentColor" /><path d="M4 5l0 14" />
</symbol>
	<symbol id="player-skip-forward-filled" class="icon icon-tabler icon-tabler-player-skip-forward-filled" viewBox="0 0 24 24" stroke-width="2" stroke="currentColor" fill="none" stroke-linecap="round" stroke-linejoin="round"><path stroke="none" d="M0 0h24v24H0z" fill="none"/><path d="M4 5v14l12 -7z" fill="currentColor" /><path d="M20 5l0 14" />
</symbol>
	<symbol id="player-stop-filled" class="icon icon-tabler icon-tabler-player-stop-filled" viewBox="0 0 24 24" stroke-width="2" stroke="currentColor" fill="none" stroke-linecap="round" stroke-linejoin="round"><path stroke="none" d="M0 0h24v24H0z" fill="none"/><rect x="5" y="5" width="14" height="14" rx="2" fill="currentColor" />
</symbol>
	<symbol id="player-track-next-filled" class="icon icon-tabler icon-tabler-player-track-next-filled" viewBox="0 0 24 24" stroke-width="2" stroke="currentColor" fill="none" stroke-linecap="round" stroke-linejoin="round"><path stroke="none" d="M0 0h24v24H0z" fill="none"/><path d="M3 5v14l8 -7z" fill="currentColor" /><path d="M14 5v14l8 -7z" fill="currentColor" />
</symbol>
	<symbol id="player-track-prev-filled" class="icon icon-tabler icon-tabler-player-track-prev-filled" viewBox="0 0 24 24" stroke-width="2" stroke="currentColor" fill="none" stroke-linecap="round" stroke-linejoin="round"><path stroke="none" d="M0 0h24v24H0z" fill="none"/><path d="M21 5v14l-8 -7z" fill="currentColor" /><path d="M10 5v14l-8 -7z" fill="currentColor" />
</symbol>
	<symbol id="point-filled" class="icon icon-tabler icon-tabler-point-filled" viewBox="0 0 24 24" stroke-width="2" stroke="currentColor" fill="none" stroke-linecap="round" stroke-linejoin="round"><path stroke="none" d="M0 0h24v24H0z" fill="none"/><path d="M12 12m-4 0a4 4 0 1 0 8 0a4 4 0 1 0 -8 0" fill="currentColor" />
</symbol>
	<symbol id="puzzle-filled" class="icon icon-tabler icon-tabler-puzzle-filled" viewBox="0 0 24 24" stroke-width="2" stroke="currentColor" fill="none" stroke-linecap="round" stroke-linejoin="round"><path stroke="none" d="M0 0h24v24H0z" fill="none"/><path d="M4 7h3a1 1 0 0 0 1 -1v-1a2 2 0 1 1 4 0v1a1 1 0 0 0 1 1h3a1 1 0 0 1 1 1v3a1 1 0 0 0 1 1h1a2 2 0 1 1 0 4h-1a1 1 0 0 0 -1 1v3a1 1 0 0 1 -1 1h-3a1 1 0 0 1 -1 -1v-1a2 2 0 1 0 -4 0v1a1 1 0 0 1 -1 1h-3a1 1 0 0 1 -1 -1v-3a1 1 0 0 1 1 -1h1a2 2 0 1 0 0 -4h-1a1 1 0 0 1 -1 -1v-3a1 1 0 0 1 1 -1" fill="currentColor" />
</symbol>
	<symbol id="rectangle-filled" class="icon icon-tabler icon-tabler-rectangle-filled" viewBox="0 0 24 24" stroke-width="2" stroke="currentColor" fill="none" stroke-linecap="round" stroke-linejoin="round"><path stroke="none" d="M0 0h24v24H0z" fill="none"/><rect x="3" y="5" width="18" height="14" rx="2" fill="currentColor" />
</symbol>
	<symbol id="rectangle-vertical-filled" class="icon icon-tabler icon-tabler-rectangle-vertical-filled" viewBox="0 0 24 24" stroke-width="2" stroke="currentColor" fill="none" stroke-linecap="round" stroke-linejoin="round"><path stroke="none" d="M0 0h24v24H0z" fill="none"/><path d="M5 3m0 2a2 2 0 0 1 2 -2h10a2 2 0 0 1 2 2v14a2 2 0 0 1 -2 2h-10a2 2 0 0 1 -2 -2z" fill="currentColor" />
</symbol>
	<symbol id="replace-filled" class="icon icon-tabler icon-tabler-replace-filled" viewBox="0 0 24 24" stroke-width="2" stroke="currentColor" fill="none" stroke-linecap="round" stroke-linejoin="round"><path stroke="none" d="M0 0h24v24H0z" fill="none"/><rect x="3" y="3" width="6" height="6" rx="1" fill="currentColor" /><rect x="15" y="15" width="6" height="6" rx="1" fill="currentColor" /><path d="M21 11v-3a2 2 0 0 0 -2 -2h-6l3 3m0 -6l-3 3m-10 7v3a2 2 0 0 0 2 2h6l-3 -3m0 6l3 -3" />
</symbol>
	<symbol id="rosette-filled" class="icon icon-tabler icon-tabler-rosette-filled" viewBox="0 0 24 24" stroke-width="2" stroke="currentColor" fill="none" stroke-linecap="round" stroke-linejoin="round"><path stroke="none" d="M0 0h24v24H0z" fill="none"/><path d="M5 7.2a2.2 2.2 0 0 1 2.2 -2.2h1a2.2 2.2 0 0 0 1.55 -.64l.7 -.7a2.2 2.2 0 0 1 3.12 0l.7 .7c.412 .41 .97 .64 1.55 .64h1a2.2 2.2 0 0 1 2.2 2.2v1c0 .58 .23 1.138 .64 1.55l.7 .7a2.2 2.2 0 0 1 0 3.12l-.7 .7a2.2 2.2 0 0 0 -.64 1.55v1a2.2 2.2 0 0 1 -2.2 2.2h-1a2.2 2.2 0 0 0 -1.55 .64l-.7 .7a2.2 2.2 0 0 1 -3.12 0l-.7 -.7a2.2 2.2 0 0 0 -1.55 -.64h-1a2.2 2.2 0 0 1 -2.2 -2.2v-1a2.2 2.2 0 0 0 -.64 -1.55l-.7 -.7a2.2 2.2 0 0 1 0 -3.12l.7 -.7a2.2 2.2 0 0 0 .64 -1.55v-1" fill="currentColor" />
</symbol>
	<symbol id="settings-filled" class="icon icon-tabler icon-tabler-settings-filled" viewBox="0 0 24 24" stroke-width="2" stroke="currentColor" fill="none" stroke-linecap="round" stroke-linejoin="round"><path stroke="none" d="M0 0h24v24H0z" fill="none"/><path d="M13.675 4.317a1.724 1.724 0 0 0 2.573 1.066c1.543 -.94 3.31 .826 2.37 2.37a1.724 1.724 0 0 0 1.065 2.572c1.756 .426 1.756 2.924 0 3.35a1.724 1.724 0 0 0 -1.066 2.573c.94 1.543 -.826 3.31 -2.37 2.37a1.724 1.724 0 0 0 -2.572 1.065c-.426 1.756 -2.924 1.756 -3.35 0a1.724 1.724 0 0 0 -2.573 -1.066c-1.543 .94 -3.31 -.826 -2.37 -2.37a1.724 1.724 0 0 0 -1.065 -2.572c-1.756 -.426 -1.756 -2.924 0 -3.35a1.724 1.724 0 0 0 1.066 -2.573c-.94 -1.543 .826 -3.31 2.37 -2.37c1 .608 2.296 .07 2.572 -1.065c.426 -1.756 2.924 -1.756 3.35 0m-4.675 7.683a3 3 0 0 0 6 0a3 3 0 0 0 -6 0" fill="currentColor" />
</symbol>
	<symbol id="shield-filled" class="icon icon-tabler icon-tabler-shield-filled" viewBox="0 0 24 24" stroke-width="2" stroke="currentColor" fill="none" stroke-linecap="round" stroke-linejoin="round"><path stroke="none" d="M0 0h24v24H0z" fill="none"/><path d="M12 3a12 12 0 0 0 8.5 3a12 12 0 0 1 -8.5 15a12 12 0 0 1 -8.5 -15a12 12 0 0 0 8.5 -3" fill="currentColor" />
</symbol>
	<symbol id="shirt-filled" class="icon icon-tabler icon-tabler-shirt-filled" viewBox="0 0 24 24" stroke-width="2" stroke="currentColor" fill="none" stroke-linecap="round" stroke-linejoin="round"><path stroke="none" d="M0 0h24v24H0z" fill="none"/><path d="M15 4l6 2v5h-3v8a1 1 0 0 1 -1 1h-10a1 1 0 0 1 -1 -1v-8h-3v-5l6 -2a3 3 0 0 0 6 0" fill="currentColor" />
</symbol>
	<symbol id="sign-left-filled" class="icon icon-tabler icon-tabler-sign-left-filled" viewBox="0 0 24 24" stroke-width="2" stroke="currentColor" fill="none" stroke-linecap="round" stroke-linejoin="round"><path stroke="none" d="M0 0h24v24H0z" fill="none"/><path d="M16 21h-4m2 0v-10m0 -5v-3m4 3h-10l-2 2.5l2 2.5h10z" fill="currentColor" />
</symbol>
	<symbol id="sign-right-filled" class="icon icon-tabler icon-tabler-sign-right-filled" viewBox="0 0 24 24" stroke-width="2" stroke="currentColor" fill="none" stroke-linecap="round" stroke-linejoin="round"><path stroke="none" d="M0 0h24v24H0z" fill="none"/><path d="M8 21h4m-2 0v-10m0 -5v-3m-4 3h10l2 2.5l-2 2.5h-10z" fill="currentColor" />
</symbol>
	<symbol id="spade-filled" class="icon icon-tabler icon-tabler-spade-filled" viewBox="0 0 24 24" stroke-width="2" stroke="currentColor" fill="none" stroke-linecap="round" stroke-linejoin="round"><path stroke="none" d="M0 0h24v24H0z" fill="none"/><path d="M12 3l4.919 4.5c.61 .587 1.177 1.177 1.703 1.771a5.527 5.527 0 0 1 .264 6.979c-1.18 1.56 -3.338 1.92 -4.886 .75v1l1 3h-6l1 -3v-1c-1.54 1.07 -3.735 .772 -4.886 -.75a5.527 5.527 0 0 1 .264 -6.979a30.883 30.883 0 0 1 1.703 -1.771a1394.07 1394.07 0 0 1 4.919 -4.5z" fill="currentColor" />
</symbol>
	<symbol id="square-rotated-filled" class="icon icon-tabler icon-tabler-square-rotated-filled" viewBox="0 0 24 24" stroke-width="2" stroke="currentColor" fill="none" stroke-linecap="round" stroke-linejoin="round"><path stroke="none" d="M0 0h24v24H0z" fill="none"/><path d="M10.5 20.4l-6.9 -6.9c-.781 -.781 -.781 -2.219 0 -3l6.9 -6.9c.781 -.781 2.219 -.781 3 0l6.9 6.9c.781 .781 .781 2.219 0 3l-6.9 6.9c-.781 .781 -2.219 .781 -3 0z" fill="currentColor" />
</symbol>
	<symbol id="square-rounded-filled" class="icon icon-tabler icon-tabler-square-rounded-filled" viewBox="0 0 24 24" stroke-width="2" stroke="currentColor" fill="none" stroke-linecap="round" stroke-linejoin="round"><path stroke="none" d="M0 0h24v24H0z" fill="none"/><path d="M12 3c7.2 0 9 1.8 9 9s-1.8 9 -9 9s-9 -1.8 -9 -9s1.8 -9 9 -9z" fill="currentColor" />
</symbol>
	<symbol id="star-filled" class="icon icon-tabler icon-tabler-star-filled" viewBox="0 0 24 24" stroke-width="2" stroke="currentColor" fill="none" stroke-linecap="round" stroke-linejoin="round"><path stroke="none" d="M0 0h24v24H0z" fill="none"/><path d="M12 17.75l-6.172 3.245l1.179 -6.873l-5 -4.867l6.9 -1l3.086 -6.253l3.086 6.253l6.9 1l-5 4.867l1.179 6.873z" fill="currentColor" />
</symbol>
	<symbol id="star-half-filled" class="icon icon-tabler icon-tabler-star-half-filled" viewBox="0 0 24 24" stroke-width="2" stroke="currentColor" fill="none" stroke-linecap="round" stroke-linejoin="round"><path stroke="none" d="M0 0h24v24H0z" fill="none"/><path d="M12 17.75l-6.172 3.245l1.179 -6.873l-5 -4.867l6.9 -1l3.086 -6.253z" fill="currentColor" />
</symbol>
	<symbol id="stars-filled" class="icon icon-tabler icon-tabler-stars-filled" viewBox="0 0 24 24" stroke-width="2" stroke="currentColor" fill="none" stroke-linecap="round" stroke-linejoin="round"><path stroke="none" d="M0 0h24v24H0z" fill="none"/><path d="M17.8 19.817l-2.172 1.138a0.392 .392 0 0 1 -.568 -.41l.415 -2.411l-1.757 -1.707a0.389 .389 0 0 1 .217 -.665l2.428 -.352l1.086 -2.193a0.392 .392 0 0 1 .702 0l1.086 2.193l2.428 .352a0.39 .39 0 0 1 .217 .665l-1.757 1.707l.414 2.41a0.39 .39 0 0 1 -.567 .411l-2.172 -1.138zm-11.6 0l-2.172 1.138a0.392 .392 0 0 1 -.568 -.41l.415 -2.411l-1.757 -1.707a0.389 .389 0 0 1 .217 -.665l2.428 -.352l1.086 -2.193a0.392 .392 0 0 1 .702 0l1.086 2.193l2.428 .352a0.39 .39 0 0 1 .217 .665l-1.757 1.707l.414 2.41a0.39 .39 0 0 1 -.567 .411l-2.172 -1.138zm5.8 -10l-2.172 1.138a0.392 .392 0 0 1 -.568 -.41l.415 -2.411l-1.757 -1.707a0.389 .389 0 0 1 .217 -.665l2.428 -.352l1.086 -2.193a0.392 .392 0 0 1 .702 0l1.086 2.193l2.428 .352a0.39 .39 0 0 1 .217 .665l-1.757 1.707l.414 2.41a0.39 .39 0 0 1 -.567 .411l-2.172 -1.138z" fill="currentColor" />
</symbol>
	<symbol id="sun-filled" class="icon icon-tabler icon-tabler-sun-filled" viewBox="0 0 24 24" stroke-width="2" stroke="currentColor" fill="none" stroke-linecap="round" stroke-linejoin="round"><path stroke="none" d="M0 0h24v24H0z" fill="none"/><path d="M3 12h1m8 -9v1m8 8h1m-9 8v1m-6.4 -15.4l.7 .7m12.1 -.7l-.7 .7m0 11.4l.7 .7m-12.1 -.7l-.7 .7" /><path d="M12 12m-4 0a4 4 0 1 0 8 0a4 4 0 1 0 -8 0" fill="currentColor" />
</symbol>
	<symbol id="thumb-down-filled" class="icon icon-tabler icon-tabler-thumb-down-filled" viewBox="0 0 24 24" stroke-width="2" stroke="currentColor" fill="none" stroke-linecap="round" stroke-linejoin="round"><path stroke="none" d="M0 0h24v24H0z" fill="none"/><path d="M7 13v-8a1 1 0 0 0 -1 -1h-2a1 1 0 0 0 -1 1v7a1 1 0 0 0 1 1h3a4 4 0 0 1 4 4v1a2 2 0 0 0 4 0v-5h3a2 2 0 0 0 2 -2l-1 -5a2 3 0 0 0 -2 -2h-7a3 3 0 0 0 -3 3" fill="currentColor" />
</symbol>
	<symbol id="thumb-up-filled" class="icon icon-tabler icon-tabler-thumb-up-filled" viewBox="0 0 24 24" stroke-width="2" stroke="currentColor" fill="none" stroke-linecap="round" stroke-linejoin="round"><path stroke="none" d="M0 0h24v24H0z" fill="none"/><path d="M7 11v8a1 1 0 0 1 -1 1h-2a1 1 0 0 1 -1 -1v-7a1 1 0 0 1 1 -1h3a4 4 0 0 0 4 -4v-1a2 2 0 0 1 4 0v5h3a2 2 0 0 1 2 2l-1 5a2 3 0 0 1 -2 2h-7a3 3 0 0 1 -3 -3" fill="currentColor" />
</symbol>
	<symbol id="transform-filled" class="icon icon-tabler icon-tabler-transform-filled" viewBox="0 0 24 24" stroke-width="2" stroke="currentColor" fill="none" stroke-linecap="round" stroke-linejoin="round"><path stroke="none" d="M0 0h24v24H0z" fill="none"/><path d="M5 13v.875c0 3.383 2.686 6.125 6 6.125m-5 -14m12 12m-2 -9l2 2l2 -2m-2 1v-.875c0 -3.383 -2.686 -6.125 -6 -6.125m-9 12l2 -2l2 2" /><path d="M3 6a3 3 0 1 0 6 0a3 3 0 1 0 -6 0m12 12a3 3 0 1 0 6 0a3 3 0 1 0 -6 0" fill="currentColor" />
</symbol>
	<symbol id="triangle-filled" class="icon icon-tabler icon-tabler-triangle-filled" viewBox="0 0 24 24" stroke-width="2" stroke="currentColor" fill="none" stroke-linecap="round" stroke-linejoin="round"><path stroke="none" d="M0 0h24v24H0z" fill="none"/><path d="M5 19h14a2 2 0 0 0 1.84 -2.75l-7.1 -12.25a2 2 0 0 0 -3.5 0l-7.1 12.25a2 2 0 0 0 1.75 2.75" fill="currentColor" />
</symbol>
	<symbol id="triangle-inverted-filled" class="icon icon-tabler icon-tabler-triangle-inverted-filled" viewBox="0 0 24 24" stroke-width="2" stroke="currentColor" fill="none" stroke-linecap="round" stroke-linejoin="round"><path stroke="none" d="M0 0h24v24H0z" fill="none"/><path d="M5 4h14a2 2 0 0 1 1.84 2.75l-7.1 12.25a2 2 0 0 1 -3.5 0l-7.1 -12.25a2 2 0 0 1 1.75 -2.75" fill="currentColor" />
</symbol>
	<symbol id="trophy-filled" class="icon icon-tabler icon-tabler-trophy-filled" viewBox="0 0 24 24" stroke-width="2" stroke="currentColor" fill="none" stroke-linecap="round" stroke-linejoin="round"><path stroke="none" d="M0 0h24v24H0z" fill="none"/><path d="M8 21l8 0m-4 -4l0 4m-5 -17l10 0v8a5 5 0 0 1 -10 0v-8" fill="currentColor" /><path d="M5 9m-2 0a2 2 0 1 0 4 0a2 2 0 1 0 -4 0m16 0m-2 0a2 2 0 1 0 4 0a2 2 0 1 0 -4 0" />
</symbol>
	<symbol id="umbrella-filled" class="icon icon-tabler icon-tabler-umbrella-filled" viewBox="0 0 24 24" stroke-width="2" stroke="currentColor" fill="none" stroke-linecap="round" stroke-linejoin="round"><path stroke="none" d="M0 0h24v24H0z" fill="none"/><path d="M4 12a8 8 0 0 1 16 0z" fill="currentColor" /><path d="M12 12v6a2 2 0 0 0 4 0" />
</symbol>
	<symbol id="versions-filled" class="icon icon-tabler icon-tabler-versions-filled" viewBox="0 0 24 24" stroke-width="2" stroke="currentColor" fill="none" stroke-linecap="round" stroke-linejoin="round"><path stroke="none" d="M0 0h24v24H0z" fill="none"/><path d="M10 5m0 2a2 2 0 0 1 2 -2h6a2 2 0 0 1 2 2v10a2 2 0 0 1 -2 2h-6a2 2 0 0 1 -2 -2z" fill="currentColor" /><path d="M7 7l0 10m-3 -9l0 8" />
</symbol>
	<symbol id="windmill-filled" class="icon icon-tabler icon-tabler-windmill-filled" viewBox="0 0 24 24" stroke-width="2" stroke="currentColor" fill="none" stroke-linecap="round" stroke-linejoin="round"><path stroke="none" d="M0 0h24v24H0z" fill="none"/><path d="M12 12c2.76 0 5 -2.01 5 -4.5s-2.24 -4.5 -5 -4.5v9zc0 2.76 2.01 5 4.5 5s4.5 -2.24 4.5 -5h-9zc-2.76 0 -5 2.01 -5 4.5s2.24 4.5 5 4.5v-9zc0 -2.76 -2.01 -5 -4.5 -5s-4.5 2.24 -4.5 5h9z" fill="currentColor" />
</symbol>

	<use xlink:href="#badge-filled" x="24" y="24" width="24" height="24" />
	<use xlink:href="#battery-filled" x="68" y="24" width="24" height="24" />
	<use xlink:href="#bell-filled" x="112" y="24" width="24" height="24" />
	<use xlink:href="#bulb-filled" x="156" y="24" width="24" height="24" />
	<use xlink:href="#chart-area-filled" x="200" y="24" width="24" height="24" />
	<use xlink:href="#chart-area-line-filled" x="244" y="24" width="24" height="24" />
	<use xlink:href="#chart-bubble-filled" x="24" y="68" width="24" height="24" />
	<use xlink:href="#chart-candle-filled" x="68" y="68" width="24" height="24" />
	<use xlink:href="#chart-donut-filled" x="112" y="68" width="24" height="24" />
	<use xlink:href="#chart-pie-filled" x="156" y="68" width="24" height="24" />
	<use xlink:href="#circle-filled" x="200" y="68" width="24" height="24" />
	<use xlink:href="#circles-filled" x="244" y="68" width="24" height="24" />
	<use xlink:href="#cloud-filled" x="24" y="112" width="24" height="24" />
	<use xlink:href="#clubs-filled" x="68" y="112" width="24" height="24" />
	<use xlink:href="#cross-filled" x="112" y="112" width="24" height="24" />
	<use xlink:href="#diamonds-filled" x="156" y="112" width="24" height="24" />
	<use xlink:href="#droplet-filled" x="200" y="112" width="24" height="24" />
	<use xlink:href="#egg-filled" x="244" y="112" width="24" height="24" />
	<use xlink:href="#eye-filled" x="24" y="156" width="24" height="24" />
	<use xlink:href="#flag-filled" x="68" y="156" width="24" height="24" />
	<use xlink:href="#guitar-pick-filled" x="112" y="156" width="24" height="24" />
	<use xlink:href="#heart-filled" x="156" y="156" width="24" height="24" />
	<use xlink:href="#hexagon-filled" x="200" y="156" width="24" height="24" />
	<use xlink:href="#jewish-star-filled" x="244" y="156" width="24" height="24" />
	<use xlink:href="#location-filled" x="24" y="200" width="24" height="24" />
	<use xlink:href="#map-pin-filled" x="68" y="200" width="24" height="24" />
	<use xlink:href="#medical-cross-filled" x="112" y="200" width="24" height="24" />
	<use xlink:href="#message-circle-2-filled" x="156" y="200" width="24" height="24" />
	<use xlink:href="#mickey-filled" x="200" y="200" width="24" height="24" />
	<use xlink:href="#moon-filled" x="244" y="200" width="24" height="24" />
	<use xlink:href="#navigation-filled" x="24" y="244" width="24" height="24" />
	<use xlink:href="#octagon-filled" x="68" y="244" width="24" height="24" />
	<use xlink:href="#oval-filled" x="112" y="244" width="24" height="24" />
	<use xlink:href="#oval-vertical-filled" x="156" y="244" width="24" height="24" />
	<use xlink:href="#paw-filled" x="200" y="244" width="24" height="24" />
	<use xlink:href="#pennant-2-filled" x="244" y="244" width="24" height="24" />
	<use xlink:href="#pennant-filled" x="24" y="288" width="24" height="24" />
	<use xlink:href="#pentagon-filled" x="68" y="288" width="24" height="24" />
	<use xlink:href="#pin-filled" x="112" y="288" width="24" height="24" />
	<use xlink:href="#pinned-filled" x="156" y="288" width="24" height="24" />
	<use xlink:href="#player-eject-filled" x="200" y="288" width="24" height="24" />
	<use xlink:href="#player-pause-filled" x="244" y="288" width="24" height="24" />
	<use xlink:href="#player-play-filled" x="24" y="332" width="24" height="24" />
	<use xlink:href="#player-record-filled" x="68" y="332" width="24" height="24" />
	<use xlink:href="#player-skip-back-filled" x="112" y="332" width="24" height="24" />
	<use xlink:href="#player-skip-forward-filled" x="156" y="332" width="24" height="24" />
	<use xlink:href="#player-stop-filled" x="200" y="332" width="24" height="24" />
	<use xlink:href="#player-track-next-filled" x="244" y="332" width="24" height="24" />
	<use xlink:href="#player-track-prev-filled" x="24" y="376" width="24" height="24" />
	<use xlink:href="#point-filled" x="68" y="376" width="24" height="24" />
	<use xlink:href="#puzzle-filled" x="112" y="376" width="24" height="24" />
	<use xlink:href="#rectangle-filled" x="156" y="376" width="24" height="24" />
	<use xlink:href="#rectangle-vertical-filled" x="200" y="376" width="24" height="24" />
	<use xlink:href="#replace-filled" x="244" y="376" width="24" height="24" />
	<use xlink:href="#rosette-filled" x="24" y="420" width="24" height="24" />
	<use xlink:href="#settings-filled" x="68" y="420" width="24" height="24" />
	<use xlink:href="#shield-filled" x="112" y="420" width="24" height="24" />
	<use xlink:href="#shirt-filled" x="156" y="420" width="24" height="24" />
	<use xlink:href="#sign-left-filled" x="200" y="420" width="24" height="24" />
	<use xlink:href="#sign-right-filled" x="244" y="420" width="24" height="24" />
	<use xlink:href="#spade-filled" x="24" y="464" width="24" height="24" />
	<use xlink:href="#square-rotated-filled" x="68" y="464" width="24" height="24" />
	<use xlink:href="#square-rounded-filled" x="112" y="464" width="24" height="24" />
	<use xlink:href="#star-filled" x="156" y="464" width="24" height="24" />
	<use xlink:href="#star-half-filled" x="200" y="464" width="24" height="24" />
	<use xlink:href="#stars-filled" x="244" y="464" width="24" height="24" />
	<use xlink:href="#sun-filled" x="24" y="508" width="24" height="24" />
	<use xlink:href="#thumb-down-filled" x="68" y="508" width="24" height="24" />
	<use xlink:href="#thumb-up-filled" x="112" y="508" width="24" height="24" />
	<use xlink:href="#transform-filled" x="156" y="508" width="24" height="24" />
	<use xlink:href="#triangle-filled" x="200" y="508" width="24" height="24" />
	<use xlink:href="#triangle-inverted-filled" x="244" y="508" width="24" height="24" />
	<use xlink:href="#trophy-filled" x="24" y="552" width="24" height="24" />
	<use xlink:href="#umbrella-filled" x="68" y="552" width="24" height="24" />
	<use xlink:href="#versions-filled" x="112" y="552" width="24" height="24" />
	<use xlink:href="#windmill-filled" x="156" y="552" width="24" height="24" />

</svg>