<svg xmlns="http://www.w3.org/2000/svg" xmlns:xlink="http://www.w3.org/1999/xlink" viewBox="0 0 322 172" width="322" height="172" style="color: #354052"><rect x="0" y="0" width="322" height="172" fill="#fff"></rect>
	<symbol id="arrow-big-down" class="icon icon-tabler icon-tabler-arrow-big-down" viewBox="0 0 24 24" stroke-width="2" stroke="currentColor" fill="none" stroke-linecap="round" stroke-linejoin="round"><path stroke="none" d="M0 0h24v24H0z" fill="none"/><path d="M15 4v8h3.586a1 1 0 0 1 .707 1.707l-6.586 6.586a1 1 0 0 1 -1.414 0l-6.586 -6.586a1 1 0 0 1 .707 -1.707h3.586v-8a1 1 0 0 1 1 -1h4a1 1 0 0 1 1 1z" />
</symbol>
	<symbol id="arrow-big-left" class="icon icon-tabler icon-tabler-arrow-big-left" viewBox="0 0 24 24" stroke-width="2" stroke="currentColor" fill="none" stroke-linecap="round" stroke-linejoin="round"><path stroke="none" d="M0 0h24v24H0z" fill="none"/><path d="M20 15h-8v3.586a1 1 0 0 1 -1.707 .707l-6.586 -6.586a1 1 0 0 1 0 -1.414l6.586 -6.586a1 1 0 0 1 1.707 .707v3.586h8a1 1 0 0 1 1 1v4a1 1 0 0 1 -1 1z" />
</symbol>
	<symbol id="arrow-big-right" class="icon icon-tabler icon-tabler-arrow-big-right" viewBox="0 0 24 24" stroke-width="2" stroke="currentColor" fill="none" stroke-linecap="round" stroke-linejoin="round"><path stroke="none" d="M0 0h24v24H0z" fill="none"/><path d="M4 9h8v-3.586a1 1 0 0 1 1.707 -.707l6.586 6.586a1 1 0 0 1 0 1.414l-6.586 6.586a1 1 0 0 1 -1.707 -.707v-3.586h-8a1 1 0 0 1 -1 -1v-4a1 1 0 0 1 1 -1z" />
</symbol>
	<symbol id="arrow-big-top" class="icon icon-tabler icon-tabler-arrow-big-top" viewBox="0 0 24 24" stroke-width="2" stroke="currentColor" fill="none" stroke-linecap="round" stroke-linejoin="round"><path stroke="none" d="M0 0h24v24H0z" fill="none"/><path d="M9 20v-8h-3.586a1 1 0 0 1 -.707 -1.707l6.586 -6.586a1 1 0 0 1 1.414 0l6.586 6.586a1 1 0 0 1 -.707 1.707h-3.586v8a1 1 0 0 1 -1 1h-4a1 1 0 0 1 -1 -1z" />
</symbol>
	<symbol id="arrows-double-ne-sw" class="icon icon-tabler icon-tabler-arrows-double-ne-sw" viewBox="0 0 24 24" stroke-width="2" stroke="currentColor" fill="none" stroke-linecap="round" stroke-linejoin="round"><path stroke="none" d="M0 0h24v24H0z" fill="none"/><path d="M3 14l11 -11" /><path d="M10 3h4v4" /><path d="M10 17v4h4" /><path d="M21 10l-11 11" />
</symbol>
	<symbol id="arrows-double-nw-se" class="icon icon-tabler icon-tabler-arrows-double-nw-se" viewBox="0 0 24 24" stroke-width="2" stroke="currentColor" fill="none" stroke-linecap="round" stroke-linejoin="round"><path stroke="none" d="M0 0h24v24H0z" fill="none"/><path d="M14 21l-11 -11" /><path d="M3 14v-4h4" /><path d="M17 14h4v-4" /><line x1="10" y1="3" x2="21" y2="14" />
</symbol>
	<symbol id="arrows-double-se-nw" class="icon icon-tabler icon-tabler-arrows-double-se-nw" viewBox="0 0 24 24" stroke-width="2" stroke="currentColor" fill="none" stroke-linecap="round" stroke-linejoin="round"><path stroke="none" d="M0 0h24v24H0z" fill="none"/><line x1="3" y1="10" x2="14" y2="21" /><path d="M14 17v4h-4" /><path d="M14 3h-4v4" /><path d="M21 14l-11 -11" />
</symbol>
	<symbol id="arrows-double-sw-ne" class="icon icon-tabler icon-tabler-arrows-double-sw-ne" viewBox="0 0 24 24" stroke-width="2" stroke="currentColor" fill="none" stroke-linecap="round" stroke-linejoin="round"><path stroke="none" d="M0 0h24v24H0z" fill="none"/><path d="M14 3l-11 11" /><path d="M3 10v4h4" /><path d="M17 10h4v4" /><path d="M10 21l11 -11" />
</symbol>
	<symbol id="bell-minus" class="icon icon-tabler icon-tabler-bell-minus" viewBox="0 0 24 24" stroke-width="2" stroke="currentColor" fill="none" stroke-linecap="round" stroke-linejoin="round"><path stroke="none" d="M0 0h24v24H0z" fill="none"/><path d="M10 5a2 2 0 1 1 4 0a7 7 0 0 1 4 6v3a4 4 0 0 0 2 3h-16a4 4 0 0 0 2 -3v-3a7 7 0 0 1 4 -6" /><path d="M9 17v1a3 3 0 0 0 6 0v-1" /><line x1="10" y1="11" x2="14" y2="11" />
</symbol>
	<symbol id="bell-plus" class="icon icon-tabler icon-tabler-bell-plus" viewBox="0 0 24 24" stroke-width="2" stroke="currentColor" fill="none" stroke-linecap="round" stroke-linejoin="round"><path stroke="none" d="M0 0h24v24H0z" fill="none"/><path d="M10 5a2 2 0 1 1 4 0a7 7 0 0 1 4 6v3a4 4 0 0 0 2 3h-16a4 4 0 0 0 2 -3v-3a7 7 0 0 1 4 -6" /><path d="M9 17v1a3 3 0 0 0 6 0v-1" /><line x1="10" y1="11" x2="14" y2="11" /><line x1="12" y1="9" x2="12" y2="13" />
</symbol>
	<symbol id="bell-ringing-2" class="icon icon-tabler icon-tabler-bell-ringing-2" viewBox="0 0 24 24" stroke-width="2" stroke="currentColor" fill="none" stroke-linecap="round" stroke-linejoin="round"><path stroke="none" d="M0 0h24v24H0z" fill="none"/><path d="M19.364 4.636a2 2 0 0 1 0 2.828a7 7 0 0 1 -1.414 7.072l-2.122 2.12a4 4 0 0 0 -.707 3.536l-11.313 -11.312a4 4 0 0 0 3.535 -.707l2.121 -2.123a7 7 0 0 1 7.072 -1.414a2 2 0 0 1 2.828 0z" /><path d="M7.343 12.414l-.707 .707a3 3 0 0 0 4.243 4.243l.707 -.707" />
</symbol>
	<symbol id="bell-x" class="icon icon-tabler icon-tabler-bell-x" viewBox="0 0 24 24" stroke-width="2" stroke="currentColor" fill="none" stroke-linecap="round" stroke-linejoin="round"><path stroke="none" d="M0 0h24v24H0z" fill="none"/><path d="M10 5a2 2 0 1 1 4 0a7 7 0 0 1 4 6v3a4 4 0 0 0 2 3h-16a4 4 0 0 0 2 -3v-3a7 7 0 0 1 4 -6" /><path d="M9 17v1a3 3 0 0 0 6 0v-1" /><path d="M10.5 9.5l3 3m0 -3l-3 3" />
</symbol>
	<symbol id="file-alert" class="icon icon-tabler icon-tabler-file-alert" viewBox="0 0 24 24" stroke-width="2" stroke="currentColor" fill="none" stroke-linecap="round" stroke-linejoin="round"><path stroke="none" d="M0 0h24v24H0z" fill="none"/><path d="M14 3v4a1 1 0 0 0 1 1h4" /><path d="M17 21h-10a2 2 0 0 1 -2 -2v-14a2 2 0 0 1 2 -2h7l5 5v11a2 2 0 0 1 -2 2z" /><line x1="12" y1="17" x2="12.01" y2="17" /><line x1="12" y1="11" x2="12" y2="14" />
</symbol>
	<symbol id="file-analytics" class="icon icon-tabler icon-tabler-file-analytics" viewBox="0 0 24 24" stroke-width="2" stroke="currentColor" fill="none" stroke-linecap="round" stroke-linejoin="round"><path stroke="none" d="M0 0h24v24H0z" fill="none"/><path d="M14 3v4a1 1 0 0 0 1 1h4" /><path d="M17 21h-10a2 2 0 0 1 -2 -2v-14a2 2 0 0 1 2 -2h7l5 5v11a2 2 0 0 1 -2 2z" /><line x1="9" y1="17" x2="9" y2="12" /><line x1="12" y1="17" x2="12" y2="16" /><line x1="15" y1="17" x2="15" y2="14" />
</symbol>
	<symbol id="file-code-2" class="icon icon-tabler icon-tabler-file-code-2" viewBox="0 0 24 24" stroke-width="2" stroke="currentColor" fill="none" stroke-linecap="round" stroke-linejoin="round"><path stroke="none" d="M0 0h24v24H0z" fill="none"/><path d="M10 12h-1v5h1" /><path d="M14 12h1v5h-1" /><path d="M14 3v4a1 1 0 0 0 1 1h4" /><path d="M17 21h-10a2 2 0 0 1 -2 -2v-14a2 2 0 0 1 2 -2h7l5 5v11a2 2 0 0 1 -2 2z" />
</symbol>
	<symbol id="file-export" class="icon icon-tabler icon-tabler-file-export" viewBox="0 0 24 24" stroke-width="2" stroke="currentColor" fill="none" stroke-linecap="round" stroke-linejoin="round"><path stroke="none" d="M0 0h24v24H0z" fill="none"/><path d="M14 3v4a1 1 0 0 0 1 1h4" /><path d="M11.5 21h-4.5a2 2 0 0 1 -2 -2v-14a2 2 0 0 1 2 -2h7l5 5v5m-5 6h7m-3 -3l3 3l-3 3" />
</symbol>
	<symbol id="file-import" class="icon icon-tabler icon-tabler-file-import" viewBox="0 0 24 24" stroke-width="2" stroke="currentColor" fill="none" stroke-linecap="round" stroke-linejoin="round"><path stroke="none" d="M0 0h24v24H0z" fill="none"/><path d="M14 3v4a1 1 0 0 0 1 1h4" /><path d="M5 13v-8a2 2 0 0 1 2 -2h7l5 5v11a2 2 0 0 1 -2 2h-5.5m-9.5 -2h7m-3 -3l3 3l-3 3" />
</symbol>
	<symbol id="zoom-question" class="icon icon-tabler icon-tabler-zoom-question" viewBox="0 0 24 24" stroke-width="2" stroke="currentColor" fill="none" stroke-linecap="round" stroke-linejoin="round"><path stroke="none" d="M0 0h24v24H0z" fill="none"/><circle cx="10" cy="10" r="7" /><path d="M21 21l-6 -6" /><line x1="10" y1="13" x2="10" y2="13.01" /><path d="M10 10a1.5 1.5 0 1 0 -1.14 -2.474" />
</symbol>

	<use xlink:href="#arrow-big-down" x="24" y="24" width="24" height="24" />
	<use xlink:href="#arrow-big-left" x="74" y="24" width="24" height="24" />
	<use xlink:href="#arrow-big-right" x="124" y="24" width="24" height="24" />
	<use xlink:href="#arrow-big-top" x="174" y="24" width="24" height="24" />
	<use xlink:href="#arrows-double-ne-sw" x="224" y="24" width="24" height="24" />
	<use xlink:href="#arrows-double-nw-se" x="274" y="24" width="24" height="24" />
	<use xlink:href="#arrows-double-se-nw" x="24" y="74" width="24" height="24" />
	<use xlink:href="#arrows-double-sw-ne" x="74" y="74" width="24" height="24" />
	<use xlink:href="#bell-minus" x="124" y="74" width="24" height="24" />
	<use xlink:href="#bell-plus" x="174" y="74" width="24" height="24" />
	<use xlink:href="#bell-ringing-2" x="224" y="74" width="24" height="24" />
	<use xlink:href="#bell-x" x="274" y="74" width="24" height="24" />
	<use xlink:href="#file-alert" x="24" y="124" width="24" height="24" />
	<use xlink:href="#file-analytics" x="74" y="124" width="24" height="24" />
	<use xlink:href="#file-code-2" x="124" y="124" width="24" height="24" />
	<use xlink:href="#file-export" x="174" y="124" width="24" height="24" />
	<use xlink:href="#file-import" x="224" y="124" width="24" height="24" />
	<use xlink:href="#zoom-question" x="274" y="124" width="24" height="24" />

</svg>