<svg xmlns="http://www.w3.org/2000/svg" xmlns:xlink="http://www.w3.org/1999/xlink" viewBox="0 0 292 292" width="292" height="292" style="color: #354052"><rect x="0" y="0" width="292" height="292" fill="#fff"></rect>
	<symbol id="outline-bubble-tea-2" xmlns="http://www.w3.org/2000/svg" width="24" height="24" viewBox="0 0 24 24" fill="none" stroke="currentColor" stroke-width="2" stroke-linecap="round" stroke-linejoin="round"
> <path d="M17.95 9l-1.478 8.69c-.25 1.463 -.374 2.195 -.936 2.631c-1.2 .931 -6.039 .88 -7.172 0c-.562 -.436 -.687 -1.168 -.936 -2.632l-1.478 -8.689" /> <path d="M6 9l.514 -1.286a5.908 5.908 0 0 1 10.972 0l.514 1.286" /> <path d="M5 9h14" /> <path d="M12 9l4 -7" /> <path d="M7 14c.593 .642 1.484 1.017 2.5 1c1.016 .017 1.907 -.358 2.5 -1s1.484 -1.017 2.5 -1c1.016 -.017 1.907 .358 2.5 1" />
</symbol>
	<symbol id="outline-bubble-tea" xmlns="http://www.w3.org/2000/svg" width="24" height="24" viewBox="0 0 24 24" fill="none" stroke="currentColor" stroke-width="2" stroke-linecap="round" stroke-linejoin="round"
> <path d="M17.95 9l-1.478 8.69c-.25 1.463 -.374 2.195 -.936 2.631c-1.2 .931 -6.039 .88 -7.172 0c-.562 -.436 -.687 -1.168 -.936 -2.632l-1.478 -8.689" /> <path d="M6 9l.514 -1.286a5.908 5.908 0 0 1 10.972 0l.514 1.286" /> <path d="M5 9h14" /> <path d="M12 9l4 -7" /> <path d="M10.01 14h.01" /> <path d="M11.02 18h.01" /> <path d="M13.02 16h.01" />
</symbol>
	<symbol id="outline-building-burj-al-arab" xmlns="http://www.w3.org/2000/svg" width="24" height="24" viewBox="0 0 24 24" fill="none" stroke="currentColor" stroke-width="2" stroke-linecap="round" stroke-linejoin="round"
> <path d="M3 21h18" /> <path d="M7 21v-18" /> <path d="M7 4c5.675 .908 10 5.613 10 11.28a11 11 0 0 1 -1.605 5.72" /> <path d="M5 9h12" /> <path d="M7 13h4" /> <path d="M7 17h4" />
</symbol>
	<symbol id="outline-hand-finger-down" xmlns="http://www.w3.org/2000/svg" width="24" height="24" viewBox="0 0 24 24" fill="none" stroke="currentColor" stroke-width="2" stroke-linecap="round" stroke-linejoin="round"
> <path d="M8 12v8.5a1.5 1.5 0 0 0 3 0v-7.5" /> <path d="M11 13.5v2a1.5 1.5 0 0 0 3 0v-2.5" /> <path d="M14 14.5a1.5 1.5 0 0 0 3 0v-1.5" /> <path d="M17 13.5a1.5 1.5 0 0 0 3 0v-4.5a6 6 0 0 0 -6 -6h-2h.208a6 6 0 0 0 -5.012 2.7l-.196 .3q -.468 .718 -3.286 5.728a1.5 1.5 0 0 0 .536 2.022c.734 .44 1.674 .325 2.28 -.28l1.47 -1.47" />
</symbol>
	<symbol id="outline-hand-finger-left" xmlns="http://www.w3.org/2000/svg" width="24" height="24" viewBox="0 0 24 24" fill="none" stroke="currentColor" stroke-width="2" stroke-linecap="round" stroke-linejoin="round"
> <path d="M12 8h-8.5a1.5 1.5 0 0 0 0 3h7.5" /> <path d="M10.5 11h-2a1.5 1.5 0 1 0 0 3h2.5" /> <path d="M9.5 14a1.5 1.5 0 0 0 0 3h1.5" /> <path d="M10.5 17a1.5 1.5 0 0 0 0 3h4.5a6 6 0 0 0 6 -6v-2v.208a6 6 0 0 0 -2.7 -5.012l-.3 -.196q -.718 -.468 -5.728 -3.286a1.5 1.5 0 0 0 -2.022 .536a1.87 1.87 0 0 0 .28 2.28l1.47 1.47" />
</symbol>
	<symbol id="outline-hand-finger-right" xmlns="http://www.w3.org/2000/svg" width="24" height="24" viewBox="0 0 24 24" fill="none" stroke="currentColor" stroke-width="2" stroke-linecap="round" stroke-linejoin="round"
> <path d="M12 8h8.5a1.5 1.5 0 0 1 0 3h-7.5" /> <path d="M13.5 11h2a1.5 1.5 0 0 1 0 3h-2.5" /> <path d="M14.5 14a1.5 1.5 0 0 1 0 3h-1.5" /> <path d="M13.5 17a1.5 1.5 0 1 1 0 3h-4.5a6 6 0 0 1 -6 -6v-2v.208a6 6 0 0 1 2.7 -5.012l.3 -.196q .718 -.468 5.728 -3.286a1.5 1.5 0 0 1 2.022 .536c.44 .734 .325 1.674 -.28 2.28l-1.47 1.47" />
</symbol>
	<symbol id="outline-join-bevel" xmlns="http://www.w3.org/2000/svg" width="24" height="24" viewBox="0 0 24 24" fill="none" stroke="currentColor" stroke-width="2" stroke-linecap="round" stroke-linejoin="round"
> <path d="M6 4h3a2 2 0 0 1 2 2v6a1 1 0 0 0 1 1h6a2 2 0 0 1 2 2v3a2 2 0 0 1 -2 2h-6.586a1 1 0 0 1 -.707 -.293l-6.414 -6.414a1 1 0 0 1 -.293 -.707v-6.586a2 2 0 0 1 2 -2" />
</symbol>
	<symbol id="outline-join-round" xmlns="http://www.w3.org/2000/svg" width="24" height="24" viewBox="0 0 24 24" fill="none" stroke="currentColor" stroke-width="2" stroke-linecap="round" stroke-linejoin="round"
> <path d="M6 4h3a2 2 0 0 1 2 2v6a1 1 0 0 0 1 1h6a2 2 0 0 1 2 2v3a2 2 0 0 1 -2 2h-6a8 8 0 0 1 -8 -8v-6a2 2 0 0 1 2 -2" />
</symbol>
	<symbol id="outline-join-straight" xmlns="http://www.w3.org/2000/svg" width="24" height="24" viewBox="0 0 24 24" fill="none" stroke="currentColor" stroke-width="2" stroke-linecap="round" stroke-linejoin="round"
> <path d="M6 4h3a2 2 0 0 1 2 2v6a1 1 0 0 0 1 1h6a2 2 0 0 1 2 2v3a2 2 0 0 1 -2 2h-12a2 2 0 0 1 -2 -2v-12a2 2 0 0 1 2 -2" />
</symbol>
	<symbol id="outline-label-important" xmlns="http://www.w3.org/2000/svg" width="24" height="24" viewBox="0 0 24 24" fill="none" stroke="currentColor" stroke-width="2" stroke-linecap="round" stroke-linejoin="round"
> <path d="M16.52 7h-12.52l4 5l-4 5h12.52a1 1 0 0 0 .78 -.375l3.7 -4.625l-3.7 -4.625a1 1 0 0 0 -.78 -.375" />
</symbol>
	<symbol id="outline-laurel-wreath-1" xmlns="http://www.w3.org/2000/svg" width="24" height="24" viewBox="0 0 24 24" fill="none" stroke="currentColor" stroke-width="2" stroke-linecap="round" stroke-linejoin="round"
> <path d="M6.436 8a8.6 8.6 0 0 0 -.436 2.727c0 4.017 2.686 7.273 6 7.273s6 -3.256 6 -7.273a8.6 8.6 0 0 0 -.436 -2.727" /> <path d="M14.5 21s-.682 -3 -2.5 -3s-2.5 3 -2.5 3" /> <path d="M18.52 5.23c.292 1.666 -1.02 2.77 -1.02 2.77s-1.603 -.563 -1.895 -2.23c-.292 -1.666 1.02 -2.77 1.02 -2.77s1.603 .563 1.895 2.23" /> <path d="M21.094 12.14c-1.281 1.266 -3.016 .76 -3.016 .76s-.454 -1.772 .828 -3.04c1.28 -1.266 3.016 -.76 3.016 -.76s.454 1.772 -.828 3.04" /> <path d="M17.734 18.826c-1.5 -.575 -1.734 -2.19 -1.734 -2.19s1.267 -1.038 2.767 -.462c1.5 .575 1.733 2.19 1.733 2.19s-1.267 1.038 -2.767 .462" /> <path d="M6.267 18.826c1.5 -.575 1.733 -2.19 1.733 -2.19s-1.267 -1.038 -2.767 -.462c-1.5 .575 -1.733 2.19 -1.733 2.19s1.267 1.038 2.767 .462" /> <path d="M2.906 12.14c1.281 1.266 3.016 .76 3.016 .76s.454 -1.772 -.828 -3.04c-1.281 -1.265 -3.016 -.76 -3.016 -.76s-.454 1.772 .828 3.04" /> <path d="M5.48 5.23c-.292 1.666 1.02 2.77 1.02 2.77s1.603 -.563 1.895 -2.23c.292 -1.666 -1.02 -2.77 -1.02 -2.77s-1.603 .563 -1.895 2.23" /> <path d="M11 9l1 -1v6" />
</symbol>
	<symbol id="outline-laurel-wreath-2" xmlns="http://www.w3.org/2000/svg" width="24" height="24" viewBox="0 0 24 24" fill="none" stroke="currentColor" stroke-width="2" stroke-linecap="round" stroke-linejoin="round"
> <path d="M6.436 8a8.6 8.6 0 0 0 -.436 2.727c0 4.017 2.686 7.273 6 7.273s6 -3.256 6 -7.273a8.6 8.6 0 0 0 -.436 -2.727" /> <path d="M14.5 21s-.682 -3 -2.5 -3s-2.5 3 -2.5 3" /> <path d="M18.52 5.23c.292 1.666 -1.02 2.77 -1.02 2.77s-1.603 -.563 -1.895 -2.23c-.292 -1.666 1.02 -2.77 1.02 -2.77s1.603 .563 1.895 2.23" /> <path d="M21.094 12.14c-1.281 1.266 -3.016 .76 -3.016 .76s-.454 -1.772 .828 -3.04c1.28 -1.266 3.016 -.76 3.016 -.76s.454 1.772 -.828 3.04" /> <path d="M17.734 18.826c-1.5 -.575 -1.734 -2.19 -1.734 -2.19s1.267 -1.038 2.767 -.462c1.5 .575 1.733 2.19 1.733 2.19s-1.267 1.038 -2.767 .462" /> <path d="M6.267 18.826c1.5 -.575 1.733 -2.19 1.733 -2.19s-1.267 -1.038 -2.767 -.462c-1.5 .575 -1.733 2.19 -1.733 2.19s1.267 1.038 2.767 .462" /> <path d="M2.906 12.14c1.281 1.266 3.016 .76 3.016 .76s.454 -1.772 -.828 -3.04c-1.281 -1.265 -3.016 -.76 -3.016 -.76s-.454 1.772 .828 3.04" /> <path d="M5.48 5.23c-.292 1.666 1.02 2.77 1.02 2.77s1.603 -.563 1.895 -2.23c.292 -1.666 -1.02 -2.77 -1.02 -2.77s-1.603 .563 -1.895 2.23" /> <path d="M10.6 8h2a1 1 0 0 1 1 1v1a1 1 0 0 1 -1 1h-1a1 1 0 0 0 -1 1v1a1 1 0 0 0 1 1h2" />
</symbol>
	<symbol id="outline-laurel-wreath-3" xmlns="http://www.w3.org/2000/svg" width="24" height="24" viewBox="0 0 24 24" fill="none" stroke="currentColor" stroke-width="2" stroke-linecap="round" stroke-linejoin="round"
> <path d="M6.436 8a8.6 8.6 0 0 0 -.436 2.727c0 4.017 2.686 7.273 6 7.273s6 -3.256 6 -7.273a8.6 8.6 0 0 0 -.436 -2.727" /> <path d="M14.5 21s-.682 -3 -2.5 -3s-2.5 3 -2.5 3" /> <path d="M18.52 5.23c.292 1.666 -1.02 2.77 -1.02 2.77s-1.603 -.563 -1.895 -2.23c-.292 -1.666 1.02 -2.77 1.02 -2.77s1.603 .563 1.895 2.23" /> <path d="M21.094 12.14c-1.281 1.266 -3.016 .76 -3.016 .76s-.454 -1.772 .828 -3.04c1.28 -1.266 3.016 -.76 3.016 -.76s.454 1.772 -.828 3.04" /> <path d="M17.734 18.826c-1.5 -.575 -1.734 -2.19 -1.734 -2.19s1.267 -1.038 2.767 -.462c1.5 .575 1.733 2.19 1.733 2.19s-1.267 1.038 -2.767 .462" /> <path d="M6.267 18.826c1.5 -.575 1.733 -2.19 1.733 -2.19s-1.267 -1.038 -2.767 -.462c-1.5 .575 -1.733 2.19 -1.733 2.19s1.267 1.038 2.767 .462" /> <path d="M2.906 12.14c1.281 1.266 3.016 .76 3.016 .76s.454 -1.772 -.828 -3.04c-1.281 -1.265 -3.016 -.76 -3.016 -.76s-.454 1.772 .828 3.04" /> <path d="M5.48 5.23c-.292 1.666 1.02 2.77 1.02 2.77s1.603 -.563 1.895 -2.23c.292 -1.666 -1.02 -2.77 -1.02 -2.77s-1.603 .563 -1.895 2.23" /> <path d="M10.5 8h1.5a1.5 1.5 0 0 1 0 3h-1h1a1.5 1.5 0 0 1 0 3h-1.5" />
</symbol>
	<symbol id="outline-laurel-wreath" xmlns="http://www.w3.org/2000/svg" width="24" height="24" viewBox="0 0 24 24" fill="none" stroke="currentColor" stroke-width="2" stroke-linecap="round" stroke-linejoin="round"
> <path d="M6.436 8a8.6 8.6 0 0 0 -.436 2.727c0 4.017 2.686 7.273 6 7.273s6 -3.256 6 -7.273a8.6 8.6 0 0 0 -.436 -2.727" /> <path d="M14.5 21s-.682 -3 -2.5 -3s-2.5 3 -2.5 3" /> <path d="M18.52 5.23c.292 1.666 -1.02 2.77 -1.02 2.77s-1.603 -.563 -1.895 -2.23c-.292 -1.666 1.02 -2.77 1.02 -2.77s1.603 .563 1.895 2.23" /> <path d="M21.094 12.14c-1.281 1.266 -3.016 .76 -3.016 .76s-.454 -1.772 .828 -3.04c1.28 -1.266 3.016 -.76 3.016 -.76s.454 1.772 -.828 3.04" /> <path d="M17.734 18.826c-1.5 -.575 -1.734 -2.19 -1.734 -2.19s1.267 -1.038 2.767 -.462c1.5 .575 1.733 2.19 1.733 2.19s-1.267 1.038 -2.767 .462" /> <path d="M6.267 18.826c1.5 -.575 1.733 -2.19 1.733 -2.19s-1.267 -1.038 -2.767 -.462c-1.5 .575 -1.733 2.19 -1.733 2.19s1.267 1.038 2.767 .462" /> <path d="M2.906 12.14c1.281 1.266 3.016 .76 3.016 .76s.454 -1.772 -.828 -3.04c-1.281 -1.265 -3.016 -.76 -3.016 -.76s-.454 1.772 .828 3.04" /> <path d="M5.48 5.23c-.292 1.666 1.02 2.77 1.02 2.77s1.603 -.563 1.895 -2.23c.292 -1.666 -1.02 -2.77 -1.02 -2.77s-1.603 .563 -1.895 2.23" />
</symbol>
	<symbol id="outline-leaf-2" xmlns="http://www.w3.org/2000/svg" width="24" height="24" viewBox="0 0 24 24" fill="none" stroke="currentColor" stroke-width="2" stroke-linecap="round" stroke-linejoin="round"
> <path d="M5 21c.5 -4.5 2.5 -8 7 -10" /> <path d="M7.5 15q -3.5 0 -4.5 -6a8.4 8.4 0 0 1 3.438 .402a12 12 0 0 1 -.052 -.793c0 -3.606 3.204 -5.609 3.204 -5.609s2.003 1.252 2.842 3.557q 2.568 -1.557 6.568 -1.557q .396 3.775 -1.557 6.568c2.305 .839 3.557 2.842 3.557 2.842s-3 2.59 -7 2.59c0 1 0 1 .5 3q -6 0 -7 -5" />
</symbol>
	<symbol id="outline-menu-3" xmlns="http://www.w3.org/2000/svg" width="24" height="24" viewBox="0 0 24 24" fill="none" stroke="currentColor" stroke-width="2" stroke-linecap="round" stroke-linejoin="round"
> <path d="M10 6h10" /> <path d="M4 12h16" /> <path d="M7 12h13" /> <path d="M4 18h10" />
</symbol>
	<symbol id="outline-menu-4" xmlns="http://www.w3.org/2000/svg" width="24" height="24" viewBox="0 0 24 24" fill="none" stroke="currentColor" stroke-width="2" stroke-linecap="round" stroke-linejoin="round"
> <path d="M7 6h10" /> <path d="M4 12h16" /> <path d="M7 12h13" /> <path d="M7 18h10" />
</symbol>
	<symbol id="filled-binary-tree-2" xmlns="http://www.w3.org/2000/svg" width="24" height="24" viewBox="0 0 24 24" fill="currentColor"
> <path d="M12 3a3 3 0 0 1 2.616 4.47l3.274 3.742a3 3 0 1 1 -1.505 1.318l-3.275 -3.743l-.11 .042v6.342a3.001 3.001 0 1 1 -2 0v-6.342l-.111 -.041l-3.274 3.742a3 3 0 1 1 -1.505 -1.318l3.273 -3.742a3 3 0 0 1 2.617 -4.47" />
</symbol>
	<symbol id="filled-binary-tree" xmlns="http://www.w3.org/2000/svg" width="24" height="24" viewBox="0 0 24 24" fill="currentColor"
> <path d="M14 1a3 3 0 0 1 2.348 4.868l2 3.203q .317 -.071 .652 -.071a3 3 0 1 1 -2.347 1.132l-2 -3.203a3 3 0 0 1 -1.304 0l-2.001 3.203c.408 .513 .652 1.162 .652 1.868s-.244 1.356 -.653 1.868l2.002 3.203q .315 -.071 .651 -.071a3 3 0 1 1 -2.347 1.132l-2.003 -3.203a3 3 0 0 1 -1.302 0l-2.002 3.203a3 3 0 1 1 -1.696 -1.06l2.002 -3.204a3 3 0 0 1 2.998 -4.798l2.002 -3.202a3 3 0 0 1 2.348 -4.868" />
</symbol>
	<symbol id="filled-circle-rectangle" xmlns="http://www.w3.org/2000/svg" width="24" height="24" viewBox="0 0 24 24" fill="currentColor"
> <path d="M17 3.34a10 10 0 1 1 -15 8.66l.005 -.324a10 10 0 0 1 14.995 -8.336m0 5.66h-10a1 1 0 0 0 -1 1v4a1 1 0 0 0 1 1h10a1 1 0 0 0 1 -1v-4a1 1 0 0 0 -1 -1" />
</symbol>
	<symbol id="filled-exclamation-circle" xmlns="http://www.w3.org/2000/svg" width="24" height="24" viewBox="0 0 24 24" fill="currentColor"
> <path d="M17 3.34a10 10 0 1 1 -15 8.66l.005 -.324a10 10 0 0 1 14.995 -8.336m-5 11.66a1 1 0 0 0 -1 1v.01a1 1 0 0 0 2 0v-.01a1 1 0 0 0 -1 -1m0 -7a1 1 0 0 0 -1 1v4a1 1 0 0 0 2 0v-4a1 1 0 0 0 -1 -1" />
</symbol>
	<symbol id="filled-hanger-2" xmlns="http://www.w3.org/2000/svg" width="24" height="24" viewBox="0 0 24 24" fill="currentColor"
> <path d="M12 2a3 3 0 0 1 3 3a1 1 0 0 1 -1.993 .117l-.007 -.117a1 1 0 0 0 -2 -.004c.006 1.516 .495 2.579 1.486 3.13l7.97 4.428a3 3 0 0 1 1.544 2.623v.823a3 3 0 0 1 -2.824 2.995l-.176 .005a3 3 0 0 1 -3 3h-8a3 3 0 0 1 -3 -3a3 3 0 0 1 -3 -3v-.823a3 3 0 0 1 1.543 -2.623l6.695 -3.72c-.832 -.976 -1.232 -2.296 -1.238 -3.834a3 3 0 0 1 3 -3m0 8.144l-7.486 4.158a1 1 0 0 0 -.514 .875v.823a1 1 0 0 0 1 1h.17a3 3 0 0 1 2.83 -2h8c1.306 0 2.418 .835 2.83 2h.17a1 1 0 0 0 1 -1v-.823a1 1 0 0 0 -.515 -.875z" />
</symbol>
	<symbol id="filled-label-important" xmlns="http://www.w3.org/2000/svg" width="24" height="24" viewBox="0 0 24 24" fill="currentColor"
> <path d="M16.52 6a2 2 0 0 1 1.561 .75l3.7 4.625a1 1 0 0 1 0 1.25l-3.7 4.624a2 2 0 0 1 -1.561 .751h-12.52a1 1 0 0 1 -.78 -1.625l3.5 -4.375l-3.5 -4.375a1 1 0 0 1 .668 -1.62l.112 -.005z" />
</symbol>
	<symbol id="filled-lasso-polygon" xmlns="http://www.w3.org/2000/svg" width="24" height="24" viewBox="0 0 24 24" fill="currentColor"
> <path d="M5.581 2.186l6.566 4.69l7.502 -2.812a1 1 0 0 1 1.326 .714l.019 .112l1 9a1 1 0 0 1 -.678 1.059l-9 3a1 1 0 0 1 -.553 .023l-4.434 -1.082a3 3 0 0 1 -1.287 .923c.095 .986 .374 1.9 .826 2.69a1 1 0 0 1 -1.736 .993c-.624 -1.09 -.99 -2.335 -1.098 -3.656a3 3 0 0 1 -2.034 -2.84l.005 -.176a3 3 0 0 1 .86 -1.932l-.818 -2.59a1 1 0 0 1 -.009 -.577l2 -7a1 1 0 0 1 1.543 -.539m-.009 2.451l-1.528 5.348l.642 2.031q .155 -.016 .314 -.016a3 3 0 0 1 3 2.995l3.957 .965l7.96 -2.654l-.769 -6.919l-6.797 2.55a1 1 0 0 1 -.827 -.058l-.105 -.065z" />
</symbol>
	<symbol id="filled-military-rank" xmlns="http://www.w3.org/2000/svg" width="24" height="24" viewBox="0 0 24 24" fill="currentColor"
> <path d="M12.555 2.168l6 4a1 1 0 0 1 .445 .832v12a3 3 0 0 1 -3 3h-8a3 3 0 0 1 -3 -3v-12a1 1 0 0 1 .445 -.832l6 -4a1 1 0 0 1 1.11 0m-.108 12.938a1 1 0 0 0 -.894 0l-2 1a1 1 0 0 0 -.447 1.341l.058 .102a1 1 0 0 0 1.283 .345l1.553 -.776l1.553 .776a1 1 0 0 0 .894 -1.788zm0 -4a1 1 0 0 0 -.894 0l-2 1a1 1 0 0 0 -.447 1.341l.058 .102a1 1 0 0 0 1.283 .345l1.553 -.776l1.553 .776a1 1 0 0 0 .894 -1.788zm0 -4a1 1 0 0 0 -.894 0l-2 1a1 1 0 0 0 -.447 1.341l.058 .102a1 1 0 0 0 1.283 .345l1.553 -.776l1.553 .776a1 1 0 0 0 .894 -1.788z" />
</symbol>
	<symbol id="filled-presentation-analytics" xmlns="http://www.w3.org/2000/svg" width="24" height="24" viewBox="0 0 24 24" fill="currentColor"
> <path d="M21 3a1 1 0 0 1 0 2v9a3 3 0 0 1 -3 3h-5v2h2a1 1 0 0 1 0 2h-6a1 1 0 0 1 0 -2h2v-2h-5a3 3 0 0 1 -3 -3v-9a1 1 0 1 1 0 -2zm-12 4a1 1 0 0 0 -1 1v4a1 1 0 0 0 2 0v-4a1 1 0 0 0 -1 -1m6 2a1 1 0 0 0 -1 1v2a1 1 0 0 0 2 0v-2a1 1 0 0 0 -1 -1m-3 1a1 1 0 0 0 -1 1v1a1 1 0 0 0 2 0v-1a1 1 0 0 0 -1 -1" />
</symbol>
	<symbol id="filled-presentation" xmlns="http://www.w3.org/2000/svg" width="24" height="24" viewBox="0 0 24 24" fill="currentColor"
> <path d="M21 3a1 1 0 0 1 0 2v9a3 3 0 0 1 -3 3h-5v2h2a1 1 0 0 1 0 2h-6a1 1 0 0 1 0 -2h2v-2h-5a3 3 0 0 1 -3 -3v-9a1 1 0 1 1 0 -2zm-4.293 4.293a1 1 0 0 0 -1.414 0l-2.293 2.292l-1.293 -1.292a1 1 0 0 0 -1.414 0l-3 3a1 1 0 0 0 0 1.414l.094 .083a1 1 0 0 0 1.32 -.083l2.293 -2.292l1.293 1.292a1 1 0 0 0 1.414 0l3 -3a1 1 0 0 0 0 -1.414" />
</symbol>
	<symbol id="filled-sort-ascending-2" xmlns="http://www.w3.org/2000/svg" width="24" height="24" viewBox="0 0 24 24" fill="currentColor"
> <path d="M16.852 5.011l.058 -.007l.09 -.004l.075 .003l.126 .017l.111 .03l.111 .044l.098 .052l.104 .074l.082 .073l3 3a1 1 0 1 1 -1.414 1.414l-1.293 -1.292v9.585a1 1 0 0 1 -2 0v-9.585l-1.293 1.292a1 1 0 0 1 -1.32 .083l-.094 -.083a1 1 0 0 1 0 -1.414l3 -3q .053 -.054 .112 -.097l.11 -.071l.114 -.054l.105 -.035z" /> <path d="M9.5 4a1.5 1.5 0 0 1 1.5 1.5v4a1.5 1.5 0 0 1 -1.5 1.5h-4a1.5 1.5 0 0 1 -1.5 -1.5v-4a1.5 1.5 0 0 1 1.5 -1.5z" /> <path d="M9.5 13a1.5 1.5 0 0 1 1.5 1.5v4a1.5 1.5 0 0 1 -1.5 1.5h-4a1.5 1.5 0 0 1 -1.5 -1.5v-4a1.5 1.5 0 0 1 1.5 -1.5z" />
</symbol>
	<symbol id="filled-sort-ascending-shapes" xmlns="http://www.w3.org/2000/svg" width="24" height="24" viewBox="0 0 24 24" fill="currentColor"
> <path d="M7 5a1 1 0 0 1 1 1v9.584l1.293 -1.291a1 1 0 0 1 1.32 -.083l.094 .083a1 1 0 0 1 0 1.414l-3 3a1 1 0 0 1 -.112 .097l-.11 .071l-.114 .054l-.105 .035l-.149 .03l-.117 .006l-.075 -.003l-.126 -.017l-.111 -.03l-.111 -.044l-.098 -.052l-.096 -.067l-.09 -.08l-3 -3a1 1 0 0 1 1.414 -1.414l1.293 1.293v-9.586a1 1 0 0 1 1 -1m12 -2a2 2 0 0 1 2 2v4a2 2 0 0 1 -2 2h-4a2 2 0 0 1 -2 -2v-4a2 2 0 0 1 2 -2zm-1.136 10.496l3.5 6a1 1 0 0 1 -.864 1.504h-7a1 1 0 0 1 -.864 -1.504l3.5 -6a1 1 0 0 1 1.728 0" />
</symbol>
	<symbol id="filled-sort-descending-2" xmlns="http://www.w3.org/2000/svg" width="24" height="24" viewBox="0 0 24 24" fill="currentColor"
> <path d="M9.5 4a1.5 1.5 0 0 1 1.5 1.5v4a1.5 1.5 0 0 1 -1.5 1.5h-4a1.5 1.5 0 0 1 -1.5 -1.5v-4a1.5 1.5 0 0 1 1.5 -1.5z" /> <path d="M9.5 13a1.5 1.5 0 0 1 1.5 1.5v4a1.5 1.5 0 0 1 -1.5 1.5h-4a1.5 1.5 0 0 1 -1.5 -1.5v-4a1.5 1.5 0 0 1 1.5 -1.5z" /> <path d="M17 5a1 1 0 0 1 1 1v9.584l1.293 -1.291a1 1 0 0 1 1.32 -.083l.094 .083a1 1 0 0 1 0 1.414l-3 3a1 1 0 0 1 -.112 .097l-.11 .071l-.114 .054l-.105 .035l-.149 .03l-.117 .006l-.075 -.003l-.126 -.017l-.111 -.03l-.111 -.044l-.098 -.052l-.096 -.067l-.09 -.08l-3 -3a1 1 0 0 1 1.414 -1.414l1.293 1.293v-9.586a1 1 0 0 1 1 -1" />
</symbol>
	<symbol id="filled-sort-descending-shapes" xmlns="http://www.w3.org/2000/svg" width="24" height="24" viewBox="0 0 24 24" fill="currentColor"
> <path d="M7 5a1 1 0 0 1 1 1v9.584l1.293 -1.291a1 1 0 0 1 1.32 -.083l.094 .083a1 1 0 0 1 0 1.414l-3 3a1 1 0 0 1 -.112 .097l-.11 .071l-.114 .054l-.105 .035l-.149 .03l-.117 .006l-.075 -.003l-.126 -.017l-.111 -.03l-.111 -.044l-.098 -.052l-.096 -.067l-.09 -.08l-3 -3a1 1 0 0 1 1.414 -1.414l1.293 1.293v-9.586a1 1 0 0 1 1 -1m12 8a2 2 0 0 1 2 2v4a2 2 0 0 1 -2 2h-4a2 2 0 0 1 -2 -2v-4a2 2 0 0 1 2 -2zm-1.136 -9.504l3.5 6a1 1 0 0 1 -.864 1.504h-7a1 1 0 0 1 -.864 -1.504l3.5 -6a1 1 0 0 1 1.728 0" />
</symbol>
	<symbol id="filled-swipe-down" xmlns="http://www.w3.org/2000/svg" width="24" height="24" viewBox="0 0 24 24" fill="currentColor"
> <path d="M12 3a5 5 0 0 1 1.001 9.9l-.001 4.684l1.293 -1.291a1 1 0 0 1 1.32 -.083l.094 .083a1 1 0 0 1 0 1.414l-3 3a1 1 0 0 1 -.112 .097l-.11 .071l-.114 .054l-.105 .035l-.149 .03l-.117 .006l-.075 -.003l-.126 -.017l-.111 -.03l-.111 -.044l-.098 -.052l-.096 -.067l-.09 -.08l-3 -3a1 1 0 0 1 1.414 -1.414l1.293 1.292v-4.685a5.002 5.002 0 0 1 1 -9.9" />
</symbol>
	<symbol id="filled-swipe-left" xmlns="http://www.w3.org/2000/svg" width="24" height="24" viewBox="0 0 24 24" fill="currentColor"
> <path d="M16 7a5 5 0 1 1 -4.9 6.001l-4.685 -.001l1.292 1.293a1 1 0 0 1 .083 1.32l-.083 .094a1 1 0 0 1 -1.414 0l-3 -3a1 1 0 0 1 -.097 -.112l-.071 -.11l-.054 -.114l-.035 -.105l-.025 -.118l-.007 -.058l-.004 -.09l.003 -.075l.017 -.126l.03 -.111l.044 -.111l.052 -.098l.067 -.096l.08 -.09l3 -3a1 1 0 0 1 1.414 1.414l-1.292 1.293h4.685a5 5 0 0 1 4.9 -4" />
</symbol>
	<symbol id="filled-swipe-right" xmlns="http://www.w3.org/2000/svg" width="24" height="24" viewBox="0 0 24 24" fill="currentColor"
> <path d="M8 7a5 5 0 0 1 4.9 4h4.685l-1.292 -1.293a1 1 0 0 1 -.083 -1.32l.083 -.094a1 1 0 0 1 1.414 0l3 3q .054 .053 .097 .112l.071 .11l.054 .114l.035 .105l.03 .148l.006 .118l-.003 .075l-.017 .126l-.03 .111l-.044 .111l-.052 .098l-.074 .104l-.073 .082l-3 3a1 1 0 0 1 -1.414 -1.414l1.291 -1.293l-4.684 .001a5.002 5.002 0 0 1 -9.9 -1.001a5 5 0 0 1 5 -5" />
</symbol>
	<symbol id="filled-swipe-up" xmlns="http://www.w3.org/2000/svg" width="24" height="24" viewBox="0 0 24 24" fill="currentColor"
> <path d="M11.852 3.011l.058 -.007l.09 -.004l.075 .003l.126 .017l.111 .03l.111 .044l.098 .052l.104 .074l.082 .073l3 3a1 1 0 1 1 -1.414 1.414l-1.293 -1.292l.001 4.685a5.002 5.002 0 0 1 -1.001 9.9a5 5 0 0 1 -5 -5l.005 -.217a5 5 0 0 1 3.995 -4.683v-4.685l-1.293 1.292a1 1 0 0 1 -1.32 .083l-.094 -.083a1 1 0 0 1 0 -1.414l3 -3q .053 -.054 .112 -.097l.11 -.071l.114 -.054l.105 -.035z" />
</symbol>
	<symbol id="filled-test-pipe-2" xmlns="http://www.w3.org/2000/svg" width="24" height="24" viewBox="0 0 24 24" fill="currentColor"
> <path d="M16 2a1 1 0 0 1 0 2v14a4 4 0 1 1 -8 0v-14a1 1 0 1 1 0 -2zm-2 2h-4v7h4z" />
</symbol>

	<use xlink:href="#outline-bubble-tea-2" x="24" y="24" width="24" height="24" />
	<use xlink:href="#outline-bubble-tea" x="68" y="24" width="24" height="24" />
	<use xlink:href="#outline-building-burj-al-arab" x="112" y="24" width="24" height="24" />
	<use xlink:href="#outline-hand-finger-down" x="156" y="24" width="24" height="24" />
	<use xlink:href="#outline-hand-finger-left" x="200" y="24" width="24" height="24" />
	<use xlink:href="#outline-hand-finger-right" x="244" y="24" width="24" height="24" />
	<use xlink:href="#outline-join-bevel" x="24" y="68" width="24" height="24" />
	<use xlink:href="#outline-join-round" x="68" y="68" width="24" height="24" />
	<use xlink:href="#outline-join-straight" x="112" y="68" width="24" height="24" />
	<use xlink:href="#outline-label-important" x="156" y="68" width="24" height="24" />
	<use xlink:href="#outline-laurel-wreath-1" x="200" y="68" width="24" height="24" />
	<use xlink:href="#outline-laurel-wreath-2" x="244" y="68" width="24" height="24" />
	<use xlink:href="#outline-laurel-wreath-3" x="24" y="112" width="24" height="24" />
	<use xlink:href="#outline-laurel-wreath" x="68" y="112" width="24" height="24" />
	<use xlink:href="#outline-leaf-2" x="112" y="112" width="24" height="24" />
	<use xlink:href="#outline-menu-3" x="156" y="112" width="24" height="24" />
	<use xlink:href="#outline-menu-4" x="200" y="112" width="24" height="24" />
	<use xlink:href="#filled-binary-tree-2" x="244" y="112" width="24" height="24" />
	<use xlink:href="#filled-binary-tree" x="24" y="156" width="24" height="24" />
	<use xlink:href="#filled-circle-rectangle" x="68" y="156" width="24" height="24" />
	<use xlink:href="#filled-exclamation-circle" x="112" y="156" width="24" height="24" />
	<use xlink:href="#filled-hanger-2" x="156" y="156" width="24" height="24" />
	<use xlink:href="#filled-label-important" x="200" y="156" width="24" height="24" />
	<use xlink:href="#filled-lasso-polygon" x="244" y="156" width="24" height="24" />
	<use xlink:href="#filled-military-rank" x="24" y="200" width="24" height="24" />
	<use xlink:href="#filled-presentation-analytics" x="68" y="200" width="24" height="24" />
	<use xlink:href="#filled-presentation" x="112" y="200" width="24" height="24" />
	<use xlink:href="#filled-sort-ascending-2" x="156" y="200" width="24" height="24" />
	<use xlink:href="#filled-sort-ascending-shapes" x="200" y="200" width="24" height="24" />
	<use xlink:href="#filled-sort-descending-2" x="244" y="200" width="24" height="24" />
	<use xlink:href="#filled-sort-descending-shapes" x="24" y="244" width="24" height="24" />
	<use xlink:href="#filled-swipe-down" x="68" y="244" width="24" height="24" />
	<use xlink:href="#filled-swipe-left" x="112" y="244" width="24" height="24" />
	<use xlink:href="#filled-swipe-right" x="156" y="244" width="24" height="24" />
	<use xlink:href="#filled-swipe-up" x="200" y="244" width="24" height="24" />
	<use xlink:href="#filled-test-pipe-2" x="244" y="244" width="24" height="24" />

</svg>