<svg xmlns="http://www.w3.org/2000/svg" xmlns:xlink="http://www.w3.org/1999/xlink" viewBox="0 0 292 424" width="292" height="424" style="color: #354052"><rect x="0" y="0" width="292" height="424" fill="#fff"></rect>
	<symbol id="outline-circle-dashed-letter-a" xmlns="http://www.w3.org/2000/svg" width="24" height="24" viewBox="0 0 24 24" fill="none" stroke="currentColor" stroke-width="2" stroke-linecap="round" stroke-linejoin="round"
> <path d="M10 16v-6a2 2 0 1 1 4 0v6" /> <path d="M10 13h4" /> <path d="M8.56 3.69a9 9 0 0 0 -2.92 1.95" /> <path d="M3.69 8.56a9 9 0 0 0 -.69 3.44" /> <path d="M3.69 15.44a9 9 0 0 0 1.95 2.92" /> <path d="M8.56 20.31a9 9 0 0 0 3.44 .69" /> <path d="M15.44 20.31a9 9 0 0 0 2.92 -1.95" /> <path d="M20.31 15.44a9 9 0 0 0 .69 -3.44" /> <path d="M20.31 8.56a9 9 0 0 0 -1.95 -2.92" /> <path d="M15.44 3.69a9 9 0 0 0 -3.44 -.69" />
</symbol>
	<symbol id="outline-circle-dashed-letter-b" xmlns="http://www.w3.org/2000/svg" width="24" height="24" viewBox="0 0 24 24" fill="none" stroke="currentColor" stroke-width="2" stroke-linecap="round" stroke-linejoin="round"
> <path d="M10 16h2a2 2 0 1 0 0 -4h-2h2a2 2 0 1 0 0 -4h-2z" /> <path d="M8.56 3.69a9 9 0 0 0 -2.92 1.95" /> <path d="M3.69 8.56a9 9 0 0 0 -.69 3.44" /> <path d="M3.69 15.44a9 9 0 0 0 1.95 2.92" /> <path d="M8.56 20.31a9 9 0 0 0 3.44 .69" /> <path d="M15.44 20.31a9 9 0 0 0 2.92 -1.95" /> <path d="M20.31 15.44a9 9 0 0 0 .69 -3.44" /> <path d="M20.31 8.56a9 9 0 0 0 -1.95 -2.92" /> <path d="M15.44 3.69a9 9 0 0 0 -3.44 -.69" />
</symbol>
	<symbol id="outline-circle-dashed-letter-c" xmlns="http://www.w3.org/2000/svg" width="24" height="24" viewBox="0 0 24 24" fill="none" stroke="currentColor" stroke-width="2" stroke-linecap="round" stroke-linejoin="round"
> <path d="M14 10a2 2 0 1 0 -4 0v4a2 2 0 1 0 4 0" /> <path d="M8.56 3.69a9 9 0 0 0 -2.92 1.95" /> <path d="M3.69 8.56a9 9 0 0 0 -.69 3.44" /> <path d="M3.69 15.44a9 9 0 0 0 1.95 2.92" /> <path d="M8.56 20.31a9 9 0 0 0 3.44 .69" /> <path d="M15.44 20.31a9 9 0 0 0 2.92 -1.95" /> <path d="M20.31 15.44a9 9 0 0 0 .69 -3.44" /> <path d="M20.31 8.56a9 9 0 0 0 -1.95 -2.92" /> <path d="M15.44 3.69a9 9 0 0 0 -3.44 -.69" />
</symbol>
	<symbol id="outline-circle-dashed-letter-d" xmlns="http://www.w3.org/2000/svg" width="24" height="24" viewBox="0 0 24 24" fill="none" stroke="currentColor" stroke-width="2" stroke-linecap="round" stroke-linejoin="round"
> <path d="M10 8v8h2a2 2 0 0 0 2 -2v-4a2 2 0 0 0 -2 -2z" /> <path d="M8.56 3.69a9 9 0 0 0 -2.92 1.95" /> <path d="M3.69 8.56a9 9 0 0 0 -.69 3.44" /> <path d="M3.69 15.44a9 9 0 0 0 1.95 2.92" /> <path d="M8.56 20.31a9 9 0 0 0 3.44 .69" /> <path d="M15.44 20.31a9 9 0 0 0 2.92 -1.95" /> <path d="M20.31 15.44a9 9 0 0 0 .69 -3.44" /> <path d="M20.31 8.56a9 9 0 0 0 -1.95 -2.92" /> <path d="M15.44 3.69a9 9 0 0 0 -3.44 -.69" />
</symbol>
	<symbol id="outline-circle-dashed-letter-e" xmlns="http://www.w3.org/2000/svg" width="24" height="24" viewBox="0 0 24 24" fill="none" stroke="currentColor" stroke-width="2" stroke-linecap="round" stroke-linejoin="round"
> <path d="M14 8h-4v8h4" /> <path d="M10 12h2.5" /> <path d="M8.56 3.69a9 9 0 0 0 -2.92 1.95" /> <path d="M3.69 8.56a9 9 0 0 0 -.69 3.44" /> <path d="M3.69 15.44a9 9 0 0 0 1.95 2.92" /> <path d="M8.56 20.31a9 9 0 0 0 3.44 .69" /> <path d="M15.44 20.31a9 9 0 0 0 2.92 -1.95" /> <path d="M20.31 15.44a9 9 0 0 0 .69 -3.44" /> <path d="M20.31 8.56a9 9 0 0 0 -1.95 -2.92" /> <path d="M15.44 3.69a9 9 0 0 0 -3.44 -.69" />
</symbol>
	<symbol id="outline-circle-dashed-letter-f" xmlns="http://www.w3.org/2000/svg" width="24" height="24" viewBox="0 0 24 24" fill="none" stroke="currentColor" stroke-width="2" stroke-linecap="round" stroke-linejoin="round"
> <path d="M10 12h3" /> <path d="M14 8h-4v8" /> <path d="M8.56 3.69a9 9 0 0 0 -2.92 1.95" /> <path d="M3.69 8.56a9 9 0 0 0 -.69 3.44" /> <path d="M3.69 15.44a9 9 0 0 0 1.95 2.92" /> <path d="M8.56 20.31a9 9 0 0 0 3.44 .69" /> <path d="M15.44 20.31a9 9 0 0 0 2.92 -1.95" /> <path d="M20.31 15.44a9 9 0 0 0 .69 -3.44" /> <path d="M20.31 8.56a9 9 0 0 0 -1.95 -2.92" /> <path d="M15.44 3.69a9 9 0 0 0 -3.44 -.69" />
</symbol>
	<symbol id="outline-circle-dashed-letter-g" xmlns="http://www.w3.org/2000/svg" width="24" height="24" viewBox="0 0 24 24" fill="none" stroke="currentColor" stroke-width="2" stroke-linecap="round" stroke-linejoin="round"
> <path d="M14 8h-2a2 2 0 0 0 -2 2v4a2 2 0 0 0 2 2h2v-4h-1" /> <path d="M8.56 3.69a9 9 0 0 0 -2.92 1.95" /> <path d="M3.69 8.56a9 9 0 0 0 -.69 3.44" /> <path d="M3.69 15.44a9 9 0 0 0 1.95 2.92" /> <path d="M8.56 20.31a9 9 0 0 0 3.44 .69" /> <path d="M15.44 20.31a9 9 0 0 0 2.92 -1.95" /> <path d="M20.31 15.44a9 9 0 0 0 .69 -3.44" /> <path d="M20.31 8.56a9 9 0 0 0 -1.95 -2.92" /> <path d="M15.44 3.69a9 9 0 0 0 -3.44 -.69" />
</symbol>
	<symbol id="outline-circle-dashed-letter-h" xmlns="http://www.w3.org/2000/svg" width="24" height="24" viewBox="0 0 24 24" fill="none" stroke="currentColor" stroke-width="2" stroke-linecap="round" stroke-linejoin="round"
> <path d="M10 16v-8m4 0v8" /> <path d="M10 12h4" /> <path d="M8.56 3.69a9 9 0 0 0 -2.92 1.95" /> <path d="M3.69 8.56a9 9 0 0 0 -.69 3.44" /> <path d="M3.69 15.44a9 9 0 0 0 1.95 2.92" /> <path d="M8.56 20.31a9 9 0 0 0 3.44 .69" /> <path d="M15.44 20.31a9 9 0 0 0 2.92 -1.95" /> <path d="M20.31 15.44a9 9 0 0 0 .69 -3.44" /> <path d="M20.31 8.56a9 9 0 0 0 -1.95 -2.92" /> <path d="M15.44 3.69a9 9 0 0 0 -3.44 -.69" />
</symbol>
	<symbol id="outline-circle-dashed-letter-i" xmlns="http://www.w3.org/2000/svg" width="24" height="24" viewBox="0 0 24 24" fill="none" stroke="currentColor" stroke-width="2" stroke-linecap="round" stroke-linejoin="round"
> <path d="M12 8v8" /> <path d="M8.56 3.69a9 9 0 0 0 -2.92 1.95" /> <path d="M3.69 8.56a9 9 0 0 0 -.69 3.44" /> <path d="M3.69 15.44a9 9 0 0 0 1.95 2.92" /> <path d="M8.56 20.31a9 9 0 0 0 3.44 .69" /> <path d="M15.44 20.31a9 9 0 0 0 2.92 -1.95" /> <path d="M20.31 15.44a9 9 0 0 0 .69 -3.44" /> <path d="M20.31 8.56a9 9 0 0 0 -1.95 -2.92" /> <path d="M15.44 3.69a9 9 0 0 0 -3.44 -.69" />
</symbol>
	<symbol id="outline-circle-dashed-letter-j" xmlns="http://www.w3.org/2000/svg" width="24" height="24" viewBox="0 0 24 24" fill="none" stroke="currentColor" stroke-width="2" stroke-linecap="round" stroke-linejoin="round"
> <path d="M10 8h4v6a2 2 0 1 1 -4 0" /> <path d="M8.56 3.69a9 9 0 0 0 -2.92 1.95" /> <path d="M3.69 8.56a9 9 0 0 0 -.69 3.44" /> <path d="M3.69 15.44a9 9 0 0 0 1.95 2.92" /> <path d="M8.56 20.31a9 9 0 0 0 3.44 .69" /> <path d="M15.44 20.31a9 9 0 0 0 2.92 -1.95" /> <path d="M20.31 15.44a9 9 0 0 0 .69 -3.44" /> <path d="M20.31 8.56a9 9 0 0 0 -1.95 -2.92" /> <path d="M15.44 3.69a9 9 0 0 0 -3.44 -.69" />
</symbol>
	<symbol id="outline-circle-dashed-letter-k" xmlns="http://www.w3.org/2000/svg" width="24" height="24" viewBox="0 0 24 24" fill="none" stroke="currentColor" stroke-width="2" stroke-linecap="round" stroke-linejoin="round"
> <path d="M10 8v8" /> <path d="M14 8l-2.5 4l2.5 4" /> <path d="M10 12h1.5" /> <path d="M8.56 3.69a9 9 0 0 0 -2.92 1.95" /> <path d="M3.69 8.56a9 9 0 0 0 -.69 3.44" /> <path d="M3.69 15.44a9 9 0 0 0 1.95 2.92" /> <path d="M8.56 20.31a9 9 0 0 0 3.44 .69" /> <path d="M15.44 20.31a9 9 0 0 0 2.92 -1.95" /> <path d="M20.31 15.44a9 9 0 0 0 .69 -3.44" /> <path d="M20.31 8.56a9 9 0 0 0 -1.95 -2.92" /> <path d="M15.44 3.69a9 9 0 0 0 -3.44 -.69" />
</symbol>
	<symbol id="outline-circle-dashed-letter-l" xmlns="http://www.w3.org/2000/svg" width="24" height="24" viewBox="0 0 24 24" fill="none" stroke="currentColor" stroke-width="2" stroke-linecap="round" stroke-linejoin="round"
> <path d="M10 8v8h4" /> <path d="M8.56 3.69a9 9 0 0 0 -2.92 1.95" /> <path d="M3.69 8.56a9 9 0 0 0 -.69 3.44" /> <path d="M3.69 15.44a9 9 0 0 0 1.95 2.92" /> <path d="M8.56 20.31a9 9 0 0 0 3.44 .69" /> <path d="M15.44 20.31a9 9 0 0 0 2.92 -1.95" /> <path d="M20.31 15.44a9 9 0 0 0 .69 -3.44" /> <path d="M20.31 8.56a9 9 0 0 0 -1.95 -2.92" /> <path d="M15.44 3.69a9 9 0 0 0 -3.44 -.69" />
</symbol>
	<symbol id="outline-circle-dashed-letter-letter-v" xmlns="http://www.w3.org/2000/svg" width="24" height="24" viewBox="0 0 24 24" fill="none" stroke="currentColor" stroke-width="2" stroke-linecap="round" stroke-linejoin="round"
> <path d="M10 8l2 8l2 -8" /> <path d="M8.56 3.69a9 9 0 0 0 -2.92 1.95" /> <path d="M3.69 8.56a9 9 0 0 0 -.69 3.44" /> <path d="M3.69 15.44a9 9 0 0 0 1.95 2.92" /> <path d="M8.56 20.31a9 9 0 0 0 3.44 .69" /> <path d="M15.44 20.31a9 9 0 0 0 2.92 -1.95" /> <path d="M20.31 15.44a9 9 0 0 0 .69 -3.44" /> <path d="M20.31 8.56a9 9 0 0 0 -1.95 -2.92" /> <path d="M15.44 3.69a9 9 0 0 0 -3.44 -.69" />
</symbol>
	<symbol id="outline-circle-dashed-letter-m" xmlns="http://www.w3.org/2000/svg" width="24" height="24" viewBox="0 0 24 24" fill="none" stroke="currentColor" stroke-width="2" stroke-linecap="round" stroke-linejoin="round"
> <path d="M9 16v-8l3 5l3 -5v8" /> <path d="M8.56 3.69a9 9 0 0 0 -2.92 1.95" /> <path d="M3.69 8.56a9 9 0 0 0 -.69 3.44" /> <path d="M3.69 15.44a9 9 0 0 0 1.95 2.92" /> <path d="M8.56 20.31a9 9 0 0 0 3.44 .69" /> <path d="M15.44 20.31a9 9 0 0 0 2.92 -1.95" /> <path d="M20.31 15.44a9 9 0 0 0 .69 -3.44" /> <path d="M20.31 8.56a9 9 0 0 0 -1.95 -2.92" /> <path d="M15.44 3.69a9 9 0 0 0 -3.44 -.69" />
</symbol>
	<symbol id="outline-circle-dashed-letter-n" xmlns="http://www.w3.org/2000/svg" width="24" height="24" viewBox="0 0 24 24" fill="none" stroke="currentColor" stroke-width="2" stroke-linecap="round" stroke-linejoin="round"
> <path d="M10 16v-8l4 8v-8" /> <path d="M8.56 3.69a9 9 0 0 0 -2.92 1.95" /> <path d="M3.69 8.56a9 9 0 0 0 -.69 3.44" /> <path d="M3.69 15.44a9 9 0 0 0 1.95 2.92" /> <path d="M8.56 20.31a9 9 0 0 0 3.44 .69" /> <path d="M15.44 20.31a9 9 0 0 0 2.92 -1.95" /> <path d="M20.31 15.44a9 9 0 0 0 .69 -3.44" /> <path d="M20.31 8.56a9 9 0 0 0 -1.95 -2.92" /> <path d="M15.44 3.69a9 9 0 0 0 -3.44 -.69" />
</symbol>
	<symbol id="outline-circle-dashed-letter-o" xmlns="http://www.w3.org/2000/svg" width="24" height="24" viewBox="0 0 24 24" fill="none" stroke="currentColor" stroke-width="2" stroke-linecap="round" stroke-linejoin="round"
> <path d="M12 8a2 2 0 0 1 2 2v4a2 2 0 1 1 -4 0v-4a2 2 0 0 1 2 -2" /> <path d="M8.56 3.69a9 9 0 0 0 -2.92 1.95" /> <path d="M3.69 8.56a9 9 0 0 0 -.69 3.44" /> <path d="M3.69 15.44a9 9 0 0 0 1.95 2.92" /> <path d="M8.56 20.31a9 9 0 0 0 3.44 .69" /> <path d="M15.44 20.31a9 9 0 0 0 2.92 -1.95" /> <path d="M20.31 15.44a9 9 0 0 0 .69 -3.44" /> <path d="M20.31 8.56a9 9 0 0 0 -1.95 -2.92" /> <path d="M15.44 3.69a9 9 0 0 0 -3.44 -.69" />
</symbol>
	<symbol id="outline-circle-dashed-letter-p" xmlns="http://www.w3.org/2000/svg" width="24" height="24" viewBox="0 0 24 24" fill="none" stroke="currentColor" stroke-width="2" stroke-linecap="round" stroke-linejoin="round"
> <path d="M10 12h2a2 2 0 1 0 0 -4h-2v8" /> <path d="M8.56 3.69a9 9 0 0 0 -2.92 1.95" /> <path d="M3.69 8.56a9 9 0 0 0 -.69 3.44" /> <path d="M3.69 15.44a9 9 0 0 0 1.95 2.92" /> <path d="M8.56 20.31a9 9 0 0 0 3.44 .69" /> <path d="M15.44 20.31a9 9 0 0 0 2.92 -1.95" /> <path d="M20.31 15.44a9 9 0 0 0 .69 -3.44" /> <path d="M20.31 8.56a9 9 0 0 0 -1.95 -2.92" /> <path d="M15.44 3.69a9 9 0 0 0 -3.44 -.69" />
</symbol>
	<symbol id="outline-circle-dashed-letter-q" xmlns="http://www.w3.org/2000/svg" width="24" height="24" viewBox="0 0 24 24" fill="none" stroke="currentColor" stroke-width="2" stroke-linecap="round" stroke-linejoin="round"
> <path d="M12 8a2 2 0 0 1 2 2v4a2 2 0 1 1 -4 0v-4a2 2 0 0 1 2 -2" /> <path d="M13 15l1 1" /> <path d="M8.56 3.69a9 9 0 0 0 -2.92 1.95" /> <path d="M3.69 8.56a9 9 0 0 0 -.69 3.44" /> <path d="M3.69 15.44a9 9 0 0 0 1.95 2.92" /> <path d="M8.56 20.31a9 9 0 0 0 3.44 .69" /> <path d="M15.44 20.31a9 9 0 0 0 2.92 -1.95" /> <path d="M20.31 15.44a9 9 0 0 0 .69 -3.44" /> <path d="M20.31 8.56a9 9 0 0 0 -1.95 -2.92" /> <path d="M15.44 3.69a9 9 0 0 0 -3.44 -.69" />
</symbol>
	<symbol id="outline-circle-dashed-letter-r" xmlns="http://www.w3.org/2000/svg" width="24" height="24" viewBox="0 0 24 24" fill="none" stroke="currentColor" stroke-width="2" stroke-linecap="round" stroke-linejoin="round"
> <path d="M10 12h2a2 2 0 1 0 0 -4h-2v8m4 0l-3 -4" /> <path d="M8.56 3.69a9 9 0 0 0 -2.92 1.95" /> <path d="M3.69 8.56a9 9 0 0 0 -.69 3.44" /> <path d="M3.69 15.44a9 9 0 0 0 1.95 2.92" /> <path d="M8.56 20.31a9 9 0 0 0 3.44 .69" /> <path d="M15.44 20.31a9 9 0 0 0 2.92 -1.95" /> <path d="M20.31 15.44a9 9 0 0 0 .69 -3.44" /> <path d="M20.31 8.56a9 9 0 0 0 -1.95 -2.92" /> <path d="M15.44 3.69a9 9 0 0 0 -3.44 -.69" />
</symbol>
	<symbol id="outline-circle-dashed-letter-s" xmlns="http://www.w3.org/2000/svg" width="24" height="24" viewBox="0 0 24 24" fill="none" stroke="currentColor" stroke-width="2" stroke-linecap="round" stroke-linejoin="round"
> <path d="M10 15a1 1 0 0 0 1 1h2a1 1 0 0 0 1 -1v-2a1 1 0 0 0 -1 -1h-2a1 1 0 0 1 -1 -1v-2a1 1 0 0 1 1 -1h2a1 1 0 0 1 1 1" /> <path d="M8.56 3.69a9 9 0 0 0 -2.92 1.95" /> <path d="M3.69 8.56a9 9 0 0 0 -.69 3.44" /> <path d="M3.69 15.44a9 9 0 0 0 1.95 2.92" /> <path d="M8.56 20.31a9 9 0 0 0 3.44 .69" /> <path d="M15.44 20.31a9 9 0 0 0 2.92 -1.95" /> <path d="M20.31 15.44a9 9 0 0 0 .69 -3.44" /> <path d="M20.31 8.56a9 9 0 0 0 -1.95 -2.92" /> <path d="M15.44 3.69a9 9 0 0 0 -3.44 -.69" />
</symbol>
	<symbol id="outline-circle-dashed-letter-t" xmlns="http://www.w3.org/2000/svg" width="24" height="24" viewBox="0 0 24 24" fill="none" stroke="currentColor" stroke-width="2" stroke-linecap="round" stroke-linejoin="round"
> <path d="M10 8h4" /> <path d="M12 8v8" /> <path d="M8.56 3.69a9 9 0 0 0 -2.92 1.95" /> <path d="M3.69 8.56a9 9 0 0 0 -.69 3.44" /> <path d="M3.69 15.44a9 9 0 0 0 1.95 2.92" /> <path d="M8.56 20.31a9 9 0 0 0 3.44 .69" /> <path d="M15.44 20.31a9 9 0 0 0 2.92 -1.95" /> <path d="M20.31 15.44a9 9 0 0 0 .69 -3.44" /> <path d="M20.31 8.56a9 9 0 0 0 -1.95 -2.92" /> <path d="M15.44 3.69a9 9 0 0 0 -3.44 -.69" />
</symbol>
	<symbol id="outline-circle-dashed-letter-u" xmlns="http://www.w3.org/2000/svg" width="24" height="24" viewBox="0 0 24 24" fill="none" stroke="currentColor" stroke-width="2" stroke-linecap="round" stroke-linejoin="round"
> <path d="M10 8v6a2 2 0 1 0 4 0v-6" /> <path d="M8.56 3.69a9 9 0 0 0 -2.92 1.95" /> <path d="M3.69 8.56a9 9 0 0 0 -.69 3.44" /> <path d="M3.69 15.44a9 9 0 0 0 1.95 2.92" /> <path d="M8.56 20.31a9 9 0 0 0 3.44 .69" /> <path d="M15.44 20.31a9 9 0 0 0 2.92 -1.95" /> <path d="M20.31 15.44a9 9 0 0 0 .69 -3.44" /> <path d="M20.31 8.56a9 9 0 0 0 -1.95 -2.92" /> <path d="M15.44 3.69a9 9 0 0 0 -3.44 -.69" />
</symbol>
	<symbol id="outline-circle-dashed-letter-v" xmlns="http://www.w3.org/2000/svg" width="24" height="24" viewBox="0 0 24 24" fill="none" stroke="currentColor" stroke-width="2" stroke-linecap="round" stroke-linejoin="round"
> <path d="M10 8l2 8l2 -8" /> <path d="M8.56 3.69a9 9 0 0 0 -2.92 1.95" /> <path d="M3.69 8.56a9 9 0 0 0 -.69 3.44" /> <path d="M3.69 15.44a9 9 0 0 0 1.95 2.92" /> <path d="M8.56 20.31a9 9 0 0 0 3.44 .69" /> <path d="M15.44 20.31a9 9 0 0 0 2.92 -1.95" /> <path d="M20.31 15.44a9 9 0 0 0 .69 -3.44" /> <path d="M20.31 8.56a9 9 0 0 0 -1.95 -2.92" /> <path d="M15.44 3.69a9 9 0 0 0 -3.44 -.69" />
</symbol>
	<symbol id="outline-circle-dashed-letter-w" xmlns="http://www.w3.org/2000/svg" width="24" height="24" viewBox="0 0 24 24" fill="none" stroke="currentColor" stroke-width="2" stroke-linecap="round" stroke-linejoin="round"
> <path d="M9 8l1 8l2 -5l2 5l1 -8" /> <path d="M8.56 3.69a9 9 0 0 0 -2.92 1.95" /> <path d="M3.69 8.56a9 9 0 0 0 -.69 3.44" /> <path d="M3.69 15.44a9 9 0 0 0 1.95 2.92" /> <path d="M8.56 20.31a9 9 0 0 0 3.44 .69" /> <path d="M15.44 20.31a9 9 0 0 0 2.92 -1.95" /> <path d="M20.31 15.44a9 9 0 0 0 .69 -3.44" /> <path d="M20.31 8.56a9 9 0 0 0 -1.95 -2.92" /> <path d="M15.44 3.69a9 9 0 0 0 -3.44 -.69" />
</symbol>
	<symbol id="outline-circle-dashed-letter-x" xmlns="http://www.w3.org/2000/svg" width="24" height="24" viewBox="0 0 24 24" fill="none" stroke="currentColor" stroke-width="2" stroke-linecap="round" stroke-linejoin="round"
> <path d="M10 8l4 8" /> <path d="M10 16l4 -8" /> <path d="M8.56 3.69a9 9 0 0 0 -2.92 1.95" /> <path d="M3.69 8.56a9 9 0 0 0 -.69 3.44" /> <path d="M3.69 15.44a9 9 0 0 0 1.95 2.92" /> <path d="M8.56 20.31a9 9 0 0 0 3.44 .69" /> <path d="M15.44 20.31a9 9 0 0 0 2.92 -1.95" /> <path d="M20.31 15.44a9 9 0 0 0 .69 -3.44" /> <path d="M20.31 8.56a9 9 0 0 0 -1.95 -2.92" /> <path d="M15.44 3.69a9 9 0 0 0 -3.44 -.69" />
</symbol>
	<symbol id="outline-circle-dashed-letter-y" xmlns="http://www.w3.org/2000/svg" width="24" height="24" viewBox="0 0 24 24" fill="none" stroke="currentColor" stroke-width="2" stroke-linecap="round" stroke-linejoin="round"
> <path d="M10 8l2 5l2 -5" /> <path d="M12 16v-3" /> <path d="M8.56 3.69a9 9 0 0 0 -2.92 1.95" /> <path d="M3.69 8.56a9 9 0 0 0 -.69 3.44" /> <path d="M3.69 15.44a9 9 0 0 0 1.95 2.92" /> <path d="M8.56 20.31a9 9 0 0 0 3.44 .69" /> <path d="M15.44 20.31a9 9 0 0 0 2.92 -1.95" /> <path d="M20.31 15.44a9 9 0 0 0 .69 -3.44" /> <path d="M20.31 8.56a9 9 0 0 0 -1.95 -2.92" /> <path d="M15.44 3.69a9 9 0 0 0 -3.44 -.69" />
</symbol>
	<symbol id="outline-circle-dashed-letter-z" xmlns="http://www.w3.org/2000/svg" width="24" height="24" viewBox="0 0 24 24" fill="none" stroke="currentColor" stroke-width="2" stroke-linecap="round" stroke-linejoin="round"
> <path d="M10 8h4l-4 8h4" /> <path d="M8.56 3.69a9 9 0 0 0 -2.92 1.95" /> <path d="M3.69 8.56a9 9 0 0 0 -.69 3.44" /> <path d="M3.69 15.44a9 9 0 0 0 1.95 2.92" /> <path d="M8.56 20.31a9 9 0 0 0 3.44 .69" /> <path d="M15.44 20.31a9 9 0 0 0 2.92 -1.95" /> <path d="M20.31 15.44a9 9 0 0 0 .69 -3.44" /> <path d="M20.31 8.56a9 9 0 0 0 -1.95 -2.92" /> <path d="M15.44 3.69a9 9 0 0 0 -3.44 -.69" />
</symbol>
	<symbol id="outline-circle-dotted-letter-a" xmlns="http://www.w3.org/2000/svg" width="24" height="24" viewBox="0 0 24 24" fill="none" stroke="currentColor" stroke-width="2" stroke-linecap="round" stroke-linejoin="round"
> <path d="M10 16v-6a2 2 0 1 1 4 0v6" /> <path d="M10 13h4" /> <path d="M7.5 4.21v.01" /> <path d="M4.21 7.5v.01" /> <path d="M3 12v.01" /> <path d="M4.21 16.5v.01" /> <path d="M7.5 19.79v.01" /> <path d="M12 21v.01" /> <path d="M16.5 19.79v.01" /> <path d="M19.79 16.5v.01" /> <path d="M21 12v.01" /> <path d="M19.79 7.5v.01" /> <path d="M16.5 4.21v.01" /> <path d="M12 3v.01" />
</symbol>
	<symbol id="outline-circle-dotted-letter-b" xmlns="http://www.w3.org/2000/svg" width="24" height="24" viewBox="0 0 24 24" fill="none" stroke="currentColor" stroke-width="2" stroke-linecap="round" stroke-linejoin="round"
> <path d="M10 16h2a2 2 0 1 0 0 -4h-2h2a2 2 0 1 0 0 -4h-2z" /> <path d="M7.5 4.21v.01" /> <path d="M4.21 7.5v.01" /> <path d="M3 12v.01" /> <path d="M4.21 16.5v.01" /> <path d="M7.5 19.79v.01" /> <path d="M12 21v.01" /> <path d="M16.5 19.79v.01" /> <path d="M19.79 16.5v.01" /> <path d="M21 12v.01" /> <path d="M19.79 7.5v.01" /> <path d="M16.5 4.21v.01" /> <path d="M12 3v.01" />
</symbol>
	<symbol id="outline-circle-dotted-letter-c" xmlns="http://www.w3.org/2000/svg" width="24" height="24" viewBox="0 0 24 24" fill="none" stroke="currentColor" stroke-width="2" stroke-linecap="round" stroke-linejoin="round"
> <path d="M14 10a2 2 0 1 0 -4 0v4a2 2 0 1 0 4 0" /> <path d="M7.5 4.21v.01" /> <path d="M4.21 7.5v.01" /> <path d="M3 12v.01" /> <path d="M4.21 16.5v.01" /> <path d="M7.5 19.79v.01" /> <path d="M12 21v.01" /> <path d="M16.5 19.79v.01" /> <path d="M19.79 16.5v.01" /> <path d="M21 12v.01" /> <path d="M19.79 7.5v.01" /> <path d="M16.5 4.21v.01" /> <path d="M12 3v.01" />
</symbol>
	<symbol id="outline-circle-dotted-letter-d" xmlns="http://www.w3.org/2000/svg" width="24" height="24" viewBox="0 0 24 24" fill="none" stroke="currentColor" stroke-width="2" stroke-linecap="round" stroke-linejoin="round"
> <path d="M10 8v8h2a2 2 0 0 0 2 -2v-4a2 2 0 0 0 -2 -2z" /> <path d="M7.5 4.21v.01" /> <path d="M4.21 7.5v.01" /> <path d="M3 12v.01" /> <path d="M4.21 16.5v.01" /> <path d="M7.5 19.79v.01" /> <path d="M12 21v.01" /> <path d="M16.5 19.79v.01" /> <path d="M19.79 16.5v.01" /> <path d="M21 12v.01" /> <path d="M19.79 7.5v.01" /> <path d="M16.5 4.21v.01" /> <path d="M12 3v.01" />
</symbol>
	<symbol id="outline-circle-dotted-letter-e" xmlns="http://www.w3.org/2000/svg" width="24" height="24" viewBox="0 0 24 24" fill="none" stroke="currentColor" stroke-width="2" stroke-linecap="round" stroke-linejoin="round"
> <path d="M14 8h-4v8h4" /> <path d="M10 12h2.5" /> <path d="M7.5 4.21v.01" /> <path d="M4.21 7.5v.01" /> <path d="M3 12v.01" /> <path d="M4.21 16.5v.01" /> <path d="M7.5 19.79v.01" /> <path d="M12 21v.01" /> <path d="M16.5 19.79v.01" /> <path d="M19.79 16.5v.01" /> <path d="M21 12v.01" /> <path d="M19.79 7.5v.01" /> <path d="M16.5 4.21v.01" /> <path d="M12 3v.01" />
</symbol>
	<symbol id="outline-circle-dotted-letter-f" xmlns="http://www.w3.org/2000/svg" width="24" height="24" viewBox="0 0 24 24" fill="none" stroke="currentColor" stroke-width="2" stroke-linecap="round" stroke-linejoin="round"
> <path d="M10 12h3" /> <path d="M14 8h-4v8" /> <path d="M7.5 4.21v.01" /> <path d="M4.21 7.5v.01" /> <path d="M3 12v.01" /> <path d="M4.21 16.5v.01" /> <path d="M7.5 19.79v.01" /> <path d="M12 21v.01" /> <path d="M16.5 19.79v.01" /> <path d="M19.79 16.5v.01" /> <path d="M21 12v.01" /> <path d="M19.79 7.5v.01" /> <path d="M16.5 4.21v.01" /> <path d="M12 3v.01" />
</symbol>
	<symbol id="outline-circle-dotted-letter-g" xmlns="http://www.w3.org/2000/svg" width="24" height="24" viewBox="0 0 24 24" fill="none" stroke="currentColor" stroke-width="2" stroke-linecap="round" stroke-linejoin="round"
> <path d="M14 8h-2a2 2 0 0 0 -2 2v4a2 2 0 0 0 2 2h2v-4h-1" /> <path d="M7.5 4.21v.01" /> <path d="M4.21 7.5v.01" /> <path d="M3 12v.01" /> <path d="M4.21 16.5v.01" /> <path d="M7.5 19.79v.01" /> <path d="M12 21v.01" /> <path d="M16.5 19.79v.01" /> <path d="M19.79 16.5v.01" /> <path d="M21 12v.01" /> <path d="M19.79 7.5v.01" /> <path d="M16.5 4.21v.01" /> <path d="M12 3v.01" />
</symbol>
	<symbol id="outline-circle-dotted-letter-h" xmlns="http://www.w3.org/2000/svg" width="24" height="24" viewBox="0 0 24 24" fill="none" stroke="currentColor" stroke-width="2" stroke-linecap="round" stroke-linejoin="round"
> <path d="M10 16v-8m4 0v8" /> <path d="M10 12h4" /> <path d="M7.5 4.21v.01" /> <path d="M4.21 7.5v.01" /> <path d="M3 12v.01" /> <path d="M4.21 16.5v.01" /> <path d="M7.5 19.79v.01" /> <path d="M12 21v.01" /> <path d="M16.5 19.79v.01" /> <path d="M19.79 16.5v.01" /> <path d="M21 12v.01" /> <path d="M19.79 7.5v.01" /> <path d="M16.5 4.21v.01" /> <path d="M12 3v.01" />
</symbol>
	<symbol id="outline-circle-dotted-letter-i" xmlns="http://www.w3.org/2000/svg" width="24" height="24" viewBox="0 0 24 24" fill="none" stroke="currentColor" stroke-width="2" stroke-linecap="round" stroke-linejoin="round"
> <path d="M12 8v8" /> <path d="M7.5 4.21v.01" /> <path d="M4.21 7.5v.01" /> <path d="M3 12v.01" /> <path d="M4.21 16.5v.01" /> <path d="M7.5 19.79v.01" /> <path d="M12 21v.01" /> <path d="M16.5 19.79v.01" /> <path d="M19.79 16.5v.01" /> <path d="M21 12v.01" /> <path d="M19.79 7.5v.01" /> <path d="M16.5 4.21v.01" /> <path d="M12 3v.01" />
</symbol>
	<symbol id="outline-circle-dotted-letter-j" xmlns="http://www.w3.org/2000/svg" width="24" height="24" viewBox="0 0 24 24" fill="none" stroke="currentColor" stroke-width="2" stroke-linecap="round" stroke-linejoin="round"
> <path d="M10 8h4v6a2 2 0 1 1 -4 0" /> <path d="M7.5 4.21v.01" /> <path d="M4.21 7.5v.01" /> <path d="M3 12v.01" /> <path d="M4.21 16.5v.01" /> <path d="M7.5 19.79v.01" /> <path d="M12 21v.01" /> <path d="M16.5 19.79v.01" /> <path d="M19.79 16.5v.01" /> <path d="M21 12v.01" /> <path d="M19.79 7.5v.01" /> <path d="M16.5 4.21v.01" /> <path d="M12 3v.01" />
</symbol>
	<symbol id="outline-circle-dotted-letter-k" xmlns="http://www.w3.org/2000/svg" width="24" height="24" viewBox="0 0 24 24" fill="none" stroke="currentColor" stroke-width="2" stroke-linecap="round" stroke-linejoin="round"
> <path d="M10 8v8" /> <path d="M14 8l-2.5 4l2.5 4" /> <path d="M10 12h1.5" /> <path d="M7.5 4.21v.01" /> <path d="M4.21 7.5v.01" /> <path d="M3 12v.01" /> <path d="M4.21 16.5v.01" /> <path d="M7.5 19.79v.01" /> <path d="M12 21v.01" /> <path d="M16.5 19.79v.01" /> <path d="M19.79 16.5v.01" /> <path d="M21 12v.01" /> <path d="M19.79 7.5v.01" /> <path d="M16.5 4.21v.01" /> <path d="M12 3v.01" />
</symbol>
	<symbol id="outline-circle-dotted-letter-l" xmlns="http://www.w3.org/2000/svg" width="24" height="24" viewBox="0 0 24 24" fill="none" stroke="currentColor" stroke-width="2" stroke-linecap="round" stroke-linejoin="round"
> <path d="M10 8v8h4" /> <path d="M7.5 4.21v.01" /> <path d="M4.21 7.5v.01" /> <path d="M3 12v.01" /> <path d="M4.21 16.5v.01" /> <path d="M7.5 19.79v.01" /> <path d="M12 21v.01" /> <path d="M16.5 19.79v.01" /> <path d="M19.79 16.5v.01" /> <path d="M21 12v.01" /> <path d="M19.79 7.5v.01" /> <path d="M16.5 4.21v.01" /> <path d="M12 3v.01" />
</symbol>
	<symbol id="outline-circle-dotted-letter-m" xmlns="http://www.w3.org/2000/svg" width="24" height="24" viewBox="0 0 24 24" fill="none" stroke="currentColor" stroke-width="2" stroke-linecap="round" stroke-linejoin="round"
> <path d="M9 16v-8l3 5l3 -5v8" /> <path d="M7.5 4.21v.01" /> <path d="M4.21 7.5v.01" /> <path d="M3 12v.01" /> <path d="M4.21 16.5v.01" /> <path d="M7.5 19.79v.01" /> <path d="M12 21v.01" /> <path d="M16.5 19.79v.01" /> <path d="M19.79 16.5v.01" /> <path d="M21 12v.01" /> <path d="M19.79 7.5v.01" /> <path d="M16.5 4.21v.01" /> <path d="M12 3v.01" />
</symbol>
	<symbol id="outline-circle-dotted-letter-n" xmlns="http://www.w3.org/2000/svg" width="24" height="24" viewBox="0 0 24 24" fill="none" stroke="currentColor" stroke-width="2" stroke-linecap="round" stroke-linejoin="round"
> <path d="M10 16v-8l4 8v-8" /> <path d="M7.5 4.21v.01" /> <path d="M4.21 7.5v.01" /> <path d="M3 12v.01" /> <path d="M4.21 16.5v.01" /> <path d="M7.5 19.79v.01" /> <path d="M12 21v.01" /> <path d="M16.5 19.79v.01" /> <path d="M19.79 16.5v.01" /> <path d="M21 12v.01" /> <path d="M19.79 7.5v.01" /> <path d="M16.5 4.21v.01" /> <path d="M12 3v.01" />
</symbol>
	<symbol id="outline-circle-dotted-letter-o" xmlns="http://www.w3.org/2000/svg" width="24" height="24" viewBox="0 0 24 24" fill="none" stroke="currentColor" stroke-width="2" stroke-linecap="round" stroke-linejoin="round"
> <path d="M12 8a2 2 0 0 1 2 2v4a2 2 0 1 1 -4 0v-4a2 2 0 0 1 2 -2" /> <path d="M7.5 4.21v.01" /> <path d="M4.21 7.5v.01" /> <path d="M3 12v.01" /> <path d="M4.21 16.5v.01" /> <path d="M7.5 19.79v.01" /> <path d="M12 21v.01" /> <path d="M16.5 19.79v.01" /> <path d="M19.79 16.5v.01" /> <path d="M21 12v.01" /> <path d="M19.79 7.5v.01" /> <path d="M16.5 4.21v.01" /> <path d="M12 3v.01" />
</symbol>
	<symbol id="outline-circle-dotted-letter-p" xmlns="http://www.w3.org/2000/svg" width="24" height="24" viewBox="0 0 24 24" fill="none" stroke="currentColor" stroke-width="2" stroke-linecap="round" stroke-linejoin="round"
> <path d="M10 12h2a2 2 0 1 0 0 -4h-2v8" /> <path d="M7.5 4.21v.01" /> <path d="M4.21 7.5v.01" /> <path d="M3 12v.01" /> <path d="M4.21 16.5v.01" /> <path d="M7.5 19.79v.01" /> <path d="M12 21v.01" /> <path d="M16.5 19.79v.01" /> <path d="M19.79 16.5v.01" /> <path d="M21 12v.01" /> <path d="M19.79 7.5v.01" /> <path d="M16.5 4.21v.01" /> <path d="M12 3v.01" />
</symbol>
	<symbol id="outline-circle-dotted-letter-q" xmlns="http://www.w3.org/2000/svg" width="24" height="24" viewBox="0 0 24 24" fill="none" stroke="currentColor" stroke-width="2" stroke-linecap="round" stroke-linejoin="round"
> <path d="M12 8a2 2 0 0 1 2 2v4a2 2 0 1 1 -4 0v-4a2 2 0 0 1 2 -2" /> <path d="M13 15l1 1" /> <path d="M7.5 4.21v.01" /> <path d="M4.21 7.5v.01" /> <path d="M3 12v.01" /> <path d="M4.21 16.5v.01" /> <path d="M7.5 19.79v.01" /> <path d="M12 21v.01" /> <path d="M16.5 19.79v.01" /> <path d="M19.79 16.5v.01" /> <path d="M21 12v.01" /> <path d="M19.79 7.5v.01" /> <path d="M16.5 4.21v.01" /> <path d="M12 3v.01" />
</symbol>
	<symbol id="outline-circle-dotted-letter-r" xmlns="http://www.w3.org/2000/svg" width="24" height="24" viewBox="0 0 24 24" fill="none" stroke="currentColor" stroke-width="2" stroke-linecap="round" stroke-linejoin="round"
> <path d="M10 12h2a2 2 0 1 0 0 -4h-2v8m4 0l-3 -4" /> <path d="M7.5 4.21v.01" /> <path d="M4.21 7.5v.01" /> <path d="M3 12v.01" /> <path d="M4.21 16.5v.01" /> <path d="M7.5 19.79v.01" /> <path d="M12 21v.01" /> <path d="M16.5 19.79v.01" /> <path d="M19.79 16.5v.01" /> <path d="M21 12v.01" /> <path d="M19.79 7.5v.01" /> <path d="M16.5 4.21v.01" /> <path d="M12 3v.01" />
</symbol>
	<symbol id="outline-circle-dotted-letter-s" xmlns="http://www.w3.org/2000/svg" width="24" height="24" viewBox="0 0 24 24" fill="none" stroke="currentColor" stroke-width="2" stroke-linecap="round" stroke-linejoin="round"
> <path d="M10 15a1 1 0 0 0 1 1h2a1 1 0 0 0 1 -1v-2a1 1 0 0 0 -1 -1h-2a1 1 0 0 1 -1 -1v-2a1 1 0 0 1 1 -1h2a1 1 0 0 1 1 1" /> <path d="M7.5 4.21v.01" /> <path d="M4.21 7.5v.01" /> <path d="M3 12v.01" /> <path d="M4.21 16.5v.01" /> <path d="M7.5 19.79v.01" /> <path d="M12 21v.01" /> <path d="M16.5 19.79v.01" /> <path d="M19.79 16.5v.01" /> <path d="M21 12v.01" /> <path d="M19.79 7.5v.01" /> <path d="M16.5 4.21v.01" /> <path d="M12 3v.01" />
</symbol>
	<symbol id="outline-circle-dotted-letter-t" xmlns="http://www.w3.org/2000/svg" width="24" height="24" viewBox="0 0 24 24" fill="none" stroke="currentColor" stroke-width="2" stroke-linecap="round" stroke-linejoin="round"
> <path d="M10 8h4" /> <path d="M12 8v8" /> <path d="M7.5 4.21v.01" /> <path d="M4.21 7.5v.01" /> <path d="M3 12v.01" /> <path d="M4.21 16.5v.01" /> <path d="M7.5 19.79v.01" /> <path d="M12 21v.01" /> <path d="M16.5 19.79v.01" /> <path d="M19.79 16.5v.01" /> <path d="M21 12v.01" /> <path d="M19.79 7.5v.01" /> <path d="M16.5 4.21v.01" /> <path d="M12 3v.01" />
</symbol>
	<symbol id="outline-circle-dotted-letter-u" xmlns="http://www.w3.org/2000/svg" width="24" height="24" viewBox="0 0 24 24" fill="none" stroke="currentColor" stroke-width="2" stroke-linecap="round" stroke-linejoin="round"
> <path d="M10 8v6a2 2 0 1 0 4 0v-6" /> <path d="M7.5 4.21v.01" /> <path d="M4.21 7.5v.01" /> <path d="M3 12v.01" /> <path d="M4.21 16.5v.01" /> <path d="M7.5 19.79v.01" /> <path d="M12 21v.01" /> <path d="M16.5 19.79v.01" /> <path d="M19.79 16.5v.01" /> <path d="M21 12v.01" /> <path d="M19.79 7.5v.01" /> <path d="M16.5 4.21v.01" /> <path d="M12 3v.01" />
</symbol>
	<symbol id="outline-circle-dotted-letter-v" xmlns="http://www.w3.org/2000/svg" width="24" height="24" viewBox="0 0 24 24" fill="none" stroke="currentColor" stroke-width="2" stroke-linecap="round" stroke-linejoin="round"
> <path d="M10 8l2 8l2 -8" /> <path d="M7.5 4.21v.01" /> <path d="M4.21 7.5v.01" /> <path d="M3 12v.01" /> <path d="M4.21 16.5v.01" /> <path d="M7.5 19.79v.01" /> <path d="M12 21v.01" /> <path d="M16.5 19.79v.01" /> <path d="M19.79 16.5v.01" /> <path d="M21 12v.01" /> <path d="M19.79 7.5v.01" /> <path d="M16.5 4.21v.01" /> <path d="M12 3v.01" />
</symbol>
	<symbol id="outline-circle-dotted-letter-w" xmlns="http://www.w3.org/2000/svg" width="24" height="24" viewBox="0 0 24 24" fill="none" stroke="currentColor" stroke-width="2" stroke-linecap="round" stroke-linejoin="round"
> <path d="M9 8l1 8l2 -5l2 5l1 -8" /> <path d="M7.5 4.21v.01" /> <path d="M4.21 7.5v.01" /> <path d="M3 12v.01" /> <path d="M4.21 16.5v.01" /> <path d="M7.5 19.79v.01" /> <path d="M12 21v.01" /> <path d="M16.5 19.79v.01" /> <path d="M19.79 16.5v.01" /> <path d="M21 12v.01" /> <path d="M19.79 7.5v.01" /> <path d="M16.5 4.21v.01" /> <path d="M12 3v.01" />
</symbol>
	<symbol id="outline-circle-dotted-letter-x" xmlns="http://www.w3.org/2000/svg" width="24" height="24" viewBox="0 0 24 24" fill="none" stroke="currentColor" stroke-width="2" stroke-linecap="round" stroke-linejoin="round"
> <path d="M10 8l4 8" /> <path d="M10 16l4 -8" /> <path d="M7.5 4.21v.01" /> <path d="M4.21 7.5v.01" /> <path d="M3 12v.01" /> <path d="M4.21 16.5v.01" /> <path d="M7.5 19.79v.01" /> <path d="M12 21v.01" /> <path d="M16.5 19.79v.01" /> <path d="M19.79 16.5v.01" /> <path d="M21 12v.01" /> <path d="M19.79 7.5v.01" /> <path d="M16.5 4.21v.01" /> <path d="M12 3v.01" />
</symbol>
	<symbol id="outline-circle-dotted-letter-y" xmlns="http://www.w3.org/2000/svg" width="24" height="24" viewBox="0 0 24 24" fill="none" stroke="currentColor" stroke-width="2" stroke-linecap="round" stroke-linejoin="round"
> <path d="M10 8l2 5l2 -5" /> <path d="M12 16v-3" /> <path d="M7.5 4.21v.01" /> <path d="M4.21 7.5v.01" /> <path d="M3 12v.01" /> <path d="M4.21 16.5v.01" /> <path d="M7.5 19.79v.01" /> <path d="M12 21v.01" /> <path d="M16.5 19.79v.01" /> <path d="M19.79 16.5v.01" /> <path d="M21 12v.01" /> <path d="M19.79 7.5v.01" /> <path d="M16.5 4.21v.01" /> <path d="M12 3v.01" />
</symbol>
	<symbol id="outline-circle-dotted-letter-z" xmlns="http://www.w3.org/2000/svg" width="24" height="24" viewBox="0 0 24 24" fill="none" stroke="currentColor" stroke-width="2" stroke-linecap="round" stroke-linejoin="round"
> <path d="M10 8h4l-4 8h4" /> <path d="M7.5 4.21v.01" /> <path d="M4.21 7.5v.01" /> <path d="M3 12v.01" /> <path d="M4.21 16.5v.01" /> <path d="M7.5 19.79v.01" /> <path d="M12 21v.01" /> <path d="M16.5 19.79v.01" /> <path d="M19.79 16.5v.01" /> <path d="M21 12v.01" /> <path d="M19.79 7.5v.01" /> <path d="M16.5 4.21v.01" /> <path d="M12 3v.01" />
</symbol>

	<use xlink:href="#outline-circle-dashed-letter-a" x="24" y="24" width="24" height="24" />
	<use xlink:href="#outline-circle-dashed-letter-b" x="68" y="24" width="24" height="24" />
	<use xlink:href="#outline-circle-dashed-letter-c" x="112" y="24" width="24" height="24" />
	<use xlink:href="#outline-circle-dashed-letter-d" x="156" y="24" width="24" height="24" />
	<use xlink:href="#outline-circle-dashed-letter-e" x="200" y="24" width="24" height="24" />
	<use xlink:href="#outline-circle-dashed-letter-f" x="244" y="24" width="24" height="24" />
	<use xlink:href="#outline-circle-dashed-letter-g" x="24" y="68" width="24" height="24" />
	<use xlink:href="#outline-circle-dashed-letter-h" x="68" y="68" width="24" height="24" />
	<use xlink:href="#outline-circle-dashed-letter-i" x="112" y="68" width="24" height="24" />
	<use xlink:href="#outline-circle-dashed-letter-j" x="156" y="68" width="24" height="24" />
	<use xlink:href="#outline-circle-dashed-letter-k" x="200" y="68" width="24" height="24" />
	<use xlink:href="#outline-circle-dashed-letter-l" x="244" y="68" width="24" height="24" />
	<use xlink:href="#outline-circle-dashed-letter-letter-v" x="24" y="112" width="24" height="24" />
	<use xlink:href="#outline-circle-dashed-letter-m" x="68" y="112" width="24" height="24" />
	<use xlink:href="#outline-circle-dashed-letter-n" x="112" y="112" width="24" height="24" />
	<use xlink:href="#outline-circle-dashed-letter-o" x="156" y="112" width="24" height="24" />
	<use xlink:href="#outline-circle-dashed-letter-p" x="200" y="112" width="24" height="24" />
	<use xlink:href="#outline-circle-dashed-letter-q" x="244" y="112" width="24" height="24" />
	<use xlink:href="#outline-circle-dashed-letter-r" x="24" y="156" width="24" height="24" />
	<use xlink:href="#outline-circle-dashed-letter-s" x="68" y="156" width="24" height="24" />
	<use xlink:href="#outline-circle-dashed-letter-t" x="112" y="156" width="24" height="24" />
	<use xlink:href="#outline-circle-dashed-letter-u" x="156" y="156" width="24" height="24" />
	<use xlink:href="#outline-circle-dashed-letter-v" x="200" y="156" width="24" height="24" />
	<use xlink:href="#outline-circle-dashed-letter-w" x="244" y="156" width="24" height="24" />
	<use xlink:href="#outline-circle-dashed-letter-x" x="24" y="200" width="24" height="24" />
	<use xlink:href="#outline-circle-dashed-letter-y" x="68" y="200" width="24" height="24" />
	<use xlink:href="#outline-circle-dashed-letter-z" x="112" y="200" width="24" height="24" />
	<use xlink:href="#outline-circle-dotted-letter-a" x="156" y="200" width="24" height="24" />
	<use xlink:href="#outline-circle-dotted-letter-b" x="200" y="200" width="24" height="24" />
	<use xlink:href="#outline-circle-dotted-letter-c" x="244" y="200" width="24" height="24" />
	<use xlink:href="#outline-circle-dotted-letter-d" x="24" y="244" width="24" height="24" />
	<use xlink:href="#outline-circle-dotted-letter-e" x="68" y="244" width="24" height="24" />
	<use xlink:href="#outline-circle-dotted-letter-f" x="112" y="244" width="24" height="24" />
	<use xlink:href="#outline-circle-dotted-letter-g" x="156" y="244" width="24" height="24" />
	<use xlink:href="#outline-circle-dotted-letter-h" x="200" y="244" width="24" height="24" />
	<use xlink:href="#outline-circle-dotted-letter-i" x="244" y="244" width="24" height="24" />
	<use xlink:href="#outline-circle-dotted-letter-j" x="24" y="288" width="24" height="24" />
	<use xlink:href="#outline-circle-dotted-letter-k" x="68" y="288" width="24" height="24" />
	<use xlink:href="#outline-circle-dotted-letter-l" x="112" y="288" width="24" height="24" />
	<use xlink:href="#outline-circle-dotted-letter-m" x="156" y="288" width="24" height="24" />
	<use xlink:href="#outline-circle-dotted-letter-n" x="200" y="288" width="24" height="24" />
	<use xlink:href="#outline-circle-dotted-letter-o" x="244" y="288" width="24" height="24" />
	<use xlink:href="#outline-circle-dotted-letter-p" x="24" y="332" width="24" height="24" />
	<use xlink:href="#outline-circle-dotted-letter-q" x="68" y="332" width="24" height="24" />
	<use xlink:href="#outline-circle-dotted-letter-r" x="112" y="332" width="24" height="24" />
	<use xlink:href="#outline-circle-dotted-letter-s" x="156" y="332" width="24" height="24" />
	<use xlink:href="#outline-circle-dotted-letter-t" x="200" y="332" width="24" height="24" />
	<use xlink:href="#outline-circle-dotted-letter-u" x="244" y="332" width="24" height="24" />
	<use xlink:href="#outline-circle-dotted-letter-v" x="24" y="376" width="24" height="24" />
	<use xlink:href="#outline-circle-dotted-letter-w" x="68" y="376" width="24" height="24" />
	<use xlink:href="#outline-circle-dotted-letter-x" x="112" y="376" width="24" height="24" />
	<use xlink:href="#outline-circle-dotted-letter-y" x="156" y="376" width="24" height="24" />
	<use xlink:href="#outline-circle-dotted-letter-z" x="200" y="376" width="24" height="24" />

</svg>