<svg xmlns="http://www.w3.org/2000/svg" xmlns:xlink="http://www.w3.org/1999/xlink" viewBox="0 0 292 204" width="292" height="204" style="color: #354052"><rect x="0" y="0" width="292" height="204" fill="#fff"></rect>
	<symbol id="filled-building-bridge-2" xmlns="http://www.w3.org/2000/svg" width="24" height="24" viewBox="0 0 24 24" fill="currentColor"
> <path d="M18 6a3 3 0 0 1 3 3v9a2 2 0 0 1 -2 2h-2a2 2 0 0 1 -2 -2v-2a3 3 0 0 0 -6 0v2a2 2 0 0 1 -2 2h-2a2 2 0 0 1 -2 -2v-9a3 3 0 0 1 3 -3z" />
</symbol>
	<symbol id="filled-columns-1" xmlns="http://www.w3.org/2000/svg" width="24" height="24" viewBox="0 0 24 24" fill="currentColor"
> <path d="M18 2a2 2 0 0 1 2 2v16a2 2 0 0 1 -2 2h-12a2 2 0 0 1 -2 -2v-16a2 2 0 0 1 2 -2z" />
</symbol>
	<symbol id="filled-columns-2" xmlns="http://www.w3.org/2000/svg" width="24" height="24" viewBox="0 0 24 24" fill="currentColor"
> <path d="M4 2h6a1 1 0 0 1 1 1v18a1 1 0 0 1 -1 1h-6a2 2 0 0 1 -2 -2v-16a2 2 0 0 1 2 -2" /> <path d="M14 2h6a2 2 0 0 1 2 2v16a2 2 0 0 1 -2 2h-6a1 1 0 0 1 -1 -1v-18a1 1 0 0 1 1 -1" />
</symbol>
	<symbol id="filled-columns-3" xmlns="http://www.w3.org/2000/svg" width="24" height="24" viewBox="0 0 24 24" fill="currentColor"
> <path d="M4 2h2a1 1 0 0 1 1 1v18a1 1 0 0 1 -1 1h-2a2 2 0 0 1 -2 -2v-16a2 2 0 0 1 2 -2" /> <path d="M9 2m0 1a1 1 0 0 1 1 -1h4a1 1 0 0 1 1 1v18a1 1 0 0 1 -1 1h-4a1 1 0 0 1 -1 -1z" /> <path d="M18 2h2a2 2 0 0 1 2 2v16a2 2 0 0 1 -2 2h-2a1 1 0 0 1 -1 -1v-18a1 1 0 0 1 1 -1" />
</symbol>
	<symbol id="filled-confetti" xmlns="http://www.w3.org/2000/svg" width="24" height="24" viewBox="0 0 24 24" fill="currentColor"
> <path d="M3 5a1 1 0 0 1 1 -1a1 1 0 0 1 1.993 -.117l.007 .117a1 1 0 0 1 .117 1.993l-.117 .007a1 1 0 1 1 -2 0a1 1 0 0 1 -1 -1m7.53 -1.243a1 1 0 1 1 1.94 .486l-.5 2a1 1 0 1 1 -1.94 -.486zm6.47 1.243a1 1 0 0 1 1 -1a1 1 0 0 1 1.993 -.117l.007 .117a1 1 0 0 1 .117 1.993l-.117 .007a1 1 0 0 1 -2 0a1 1 0 0 1 -1 -1m-8.81 4.293l6.517 6.518a1 1 0 0 1 -.29 1.617l-9.573 4.387a2 2 0 0 1 -2.661 -2.652l4.39 -9.58a1 1 0 0 1 1.616 -.29m7.517 -1a1 1 0 0 1 0 1.414l-1 1a1 1 0 0 1 -1.414 -1.414l1 -1a1 1 0 0 1 1.414 0m4.05 3.237a1 1 0 0 1 .486 1.94l-2 .5a1 1 0 0 1 -.486 -1.94zm-2.756 7.47a1 1 0 0 1 1 -1a1 1 0 0 1 1.993 -.117l.007 .117a1 1 0 0 1 .117 1.993l-.117 .007a1 1 0 0 1 -2 0a1 1 0 0 1 -1 -1" />
</symbol>
	<symbol id="filled-container" xmlns="http://www.w3.org/2000/svg" width="24" height="24" viewBox="0 0 24 24" fill="currentColor"
> <path d="M20 3a1 1 0 0 1 1 1v.01a1 1 0 0 1 -2 0v-.01a1 1 0 0 1 1 -1" /> <path d="M20 19a1 1 0 0 1 1 1v.01a1 1 0 0 1 -2 0v-.01a1 1 0 0 1 1 -1" /> <path d="M20 15a1 1 0 0 1 1 1v.01a1 1 0 0 1 -2 0v-.01a1 1 0 0 1 1 -1" /> <path d="M20 11a1 1 0 0 1 1 1v.01a1 1 0 0 1 -2 0v-.01a1 1 0 0 1 1 -1" /> <path d="M20 7a1 1 0 0 1 1 1v.01a1 1 0 0 1 -2 0v-.01a1 1 0 0 1 1 -1" /> <path d="M15 3a2 2 0 0 1 2 2v14a2 2 0 0 1 -2 2h-6a2 2 0 0 1 -2 -2v-14a2 2 0 0 1 2 -2z" /> <path d="M4 3a1 1 0 0 1 1 1v.01a1 1 0 1 1 -2 0v-.01a1 1 0 0 1 1 -1" /> <path d="M4 19a1 1 0 0 1 1 1v.01a1 1 0 0 1 -2 0v-.01a1 1 0 0 1 1 -1" /> <path d="M4 15a1 1 0 0 1 1 1v.01a1 1 0 0 1 -2 0v-.01a1 1 0 0 1 1 -1" /> <path d="M4 11a1 1 0 0 1 1 1v.01a1 1 0 0 1 -2 0v-.01a1 1 0 0 1 1 -1" /> <path d="M4 7a1 1 0 0 1 1 1v.01a1 1 0 1 1 -2 0v-.01a1 1 0 0 1 1 -1" />
</symbol>
	<symbol id="filled-layout-board-split" xmlns="http://www.w3.org/2000/svg" width="24" height="24" viewBox="0 0 24 24" fill="currentColor"
> <path d="M5 3h5a1 1 0 0 1 1 1v6a1 1 0 0 1 -1 1h-6a1 1 0 0 1 -1 -1v-5a2 2 0 0 1 2 -2" /> <path d="M14 3h5a2 2 0 0 1 2 2v2a1 1 0 0 1 -1 1h-6a1 1 0 0 1 -1 -1v-3a1 1 0 0 1 1 -1" /> <path d="M13 10m0 1a1 1 0 0 1 1 -1h6a1 1 0 0 1 1 1v2a1 1 0 0 1 -1 1h-6a1 1 0 0 1 -1 -1z" /> <path d="M14 16h6a1 1 0 0 1 1 1v2a2 2 0 0 1 -2 2h-5a1 1 0 0 1 -1 -1v-3a1 1 0 0 1 1 -1" /> <path d="M4 13h6a1 1 0 0 1 1 1v6a1 1 0 0 1 -1 1h-5a2 2 0 0 1 -2 -2v-5a1 1 0 0 1 1 -1" />
</symbol>
	<symbol id="filled-layout-board" xmlns="http://www.w3.org/2000/svg" width="24" height="24" viewBox="0 0 24 24" fill="currentColor"
> <path d="M5 3h5a1 1 0 0 1 1 1v3a1 1 0 0 1 -1 1h-6a1 1 0 0 1 -1 -1v-2a2 2 0 0 1 2 -2" /> <path d="M14 3h5a2 2 0 0 1 2 2v8a1 1 0 0 1 -1 1h-6a1 1 0 0 1 -1 -1v-9a1 1 0 0 1 1 -1" /> <path d="M14 16h6a1 1 0 0 1 1 1v2a2 2 0 0 1 -2 2h-5a1 1 0 0 1 -1 -1v-3a1 1 0 0 1 1 -1" /> <path d="M4 10h6a1 1 0 0 1 1 1v9a1 1 0 0 1 -1 1h-5a2 2 0 0 1 -2 -2v-8a1 1 0 0 1 1 -1" />
</symbol>
	<symbol id="filled-library-plus" xmlns="http://www.w3.org/2000/svg" width="24" height="24" viewBox="0 0 24 24" fill="currentColor"
> <path d="M18.333 2a3.667 3.667 0 0 1 3.667 3.667v8.666a3.667 3.667 0 0 1 -3.667 3.667h-8.666a3.667 3.667 0 0 1 -3.667 -3.667v-8.666a3.667 3.667 0 0 1 3.667 -3.667zm-4.333 4a1 1 0 0 0 -1 1v2h-2a1 1 0 0 0 0 2h2v2a1 1 0 0 0 2 0v-2h2a1 1 0 0 0 0 -2h-2v-2a1 1 0 0 0 -1 -1" /> <path d="M3.517 6.391a1 1 0 0 1 .99 1.738c-.313 .178 -.506 .51 -.507 .868v10c0 .548 .452 1 1 1h10c.284 0 .405 -.088 .626 -.486a1 1 0 0 1 1.748 .972c-.546 .98 -1.28 1.514 -2.374 1.514h-10c-1.652 0 -3 -1.348 -3 -3v-10.002a3 3 0 0 1 1.517 -2.605" />
</symbol>
	<symbol id="filled-library" xmlns="http://www.w3.org/2000/svg" width="24" height="24" viewBox="0 0 24 24" fill="currentColor"
> <path d="M18.333 2a3.667 3.667 0 0 1 3.667 3.667v8.666a3.667 3.667 0 0 1 -3.667 3.667h-8.666a3.667 3.667 0 0 1 -3.667 -3.667v-8.666a3.667 3.667 0 0 1 3.667 -3.667zm-4.333 10h-3a1 1 0 0 0 0 2h3a1 1 0 0 0 0 -2m3 -3h-6a1 1 0 0 0 0 2h6a1 1 0 0 0 0 -2m-1 -3h-5a1 1 0 0 0 0 2h5a1 1 0 0 0 0 -2" /> <path d="M3.517 6.391a1 1 0 0 1 .99 1.738c-.313 .178 -.506 .51 -.507 .868v10c0 .548 .452 1 1 1h10c.284 0 .405 -.088 .626 -.486a1 1 0 0 1 1.748 .972c-.546 .98 -1.28 1.514 -2.374 1.514h-10c-1.652 0 -3 -1.348 -3 -3v-10.002a3 3 0 0 1 1.517 -2.605" />
</symbol>
	<symbol id="filled-octagon-minus" xmlns="http://www.w3.org/2000/svg" width="24" height="24" viewBox="0 0 24 24" fill="currentColor"
> <path d="M13.196 1.246l5.575 2.39a3.04 3.04 0 0 1 1.595 1.594l2.388 5.573c.328 .764 .328 1.63 0 2.393l-2.39 5.575a3.04 3.04 0 0 1 -1.594 1.595l-5.573 2.388a3.03 3.03 0 0 1 -2.393 0l-5.574 -2.389a3.04 3.04 0 0 1 -1.595 -1.595l-2.388 -5.574a3.04 3.04 0 0 1 0 -2.392l2.39 -5.575a3.04 3.04 0 0 1 1.593 -1.595l5.574 -2.388a3.04 3.04 0 0 1 2.392 0m1.804 9.754h-6a1 1 0 0 0 0 2h6a1 1 0 0 0 0 -2" />
</symbol>
	<symbol id="filled-octagon-plus" xmlns="http://www.w3.org/2000/svg" width="24" height="24" viewBox="0 0 24 24" fill="currentColor"
> <path d="M13.196 1.246l5.575 2.39a3.04 3.04 0 0 1 1.595 1.594l2.388 5.573c.328 .764 .328 1.63 0 2.393l-2.39 5.575a3.04 3.04 0 0 1 -1.594 1.595l-5.573 2.388a3.03 3.03 0 0 1 -2.393 0l-5.574 -2.389a3.04 3.04 0 0 1 -1.595 -1.595l-2.388 -5.574a3.04 3.04 0 0 1 0 -2.392l2.39 -5.575a3.04 3.04 0 0 1 1.593 -1.595l5.574 -2.388a3.04 3.04 0 0 1 2.392 0m-1.196 6.754a1 1 0 0 0 -1 1v2h-2a1 1 0 0 0 0 2h2v2a1 1 0 0 0 2 0v-2h2a1 1 0 0 0 0 -2h-2v-2a1 1 0 0 0 -1 -1" />
</symbol>
	<symbol id="filled-receipt-dollar" xmlns="http://www.w3.org/2000/svg" width="24" height="24" viewBox="0 0 24 24" fill="currentColor"
> <path d="M17 2a3 3 0 0 1 3 3v16a1 1 0 0 1 -1.555 .832l-2.318 -1.545l-1.42 1.42a1 1 0 0 1 -1.32 .083l-.094 -.083l-1.293 -1.292l-1.293 1.292a1 1 0 0 1 -1.32 .083l-.094 -.083l-1.421 -1.42l-2.317 1.545l-.019 .012l-.054 .03l-.028 .017l-.054 .023l-.05 .023l-.049 .015l-.06 .019l-.052 .009l-.057 .011l-.084 .006l-.026 .003h-.022l-.049 -.003h-.039l-.013 -.003h-.016l-.041 -.008l-.038 -.005l-.015 -.005l-.018 -.002l-.034 -.011l-.04 -.01l-.019 -.007l-.015 -.004l-.029 -.013l-.04 -.015l-.021 -.011l-.013 -.005l-.028 -.016l-.036 -.018l-.014 -.01l-.018 -.01l-.038 -.027l-.022 -.014l-.01 -.009l-.02 -.014l-.045 -.041l-.012 -.008l-.024 -.024l-.035 -.039l-.02 -.02l-.007 -.011l-.011 -.012l-.032 -.045l-.02 -.025l-.012 -.019l-.03 -.054l-.017 -.028l-.023 -.054l-.023 -.05a1 1 0 0 1 -.034 -.108l-.01 -.057l-.01 -.053l-.009 -.132v-16a3 3 0 0 1 3 -3zm-5 3a1 1 0 0 0 -1 1a3 3 0 1 0 0 6v2c-.403 .013 -.75 -.18 -.934 -.5a1 1 0 0 0 -1.732 1a3 3 0 0 0 2.505 1.5l.161 -.001a1 1 0 1 0 2 .001l.176 -.005a3 3 0 0 0 -.176 -5.995v-2c.403 -.013 .75 .18 .934 .5a1 1 0 0 0 1.732 -1a3 3 0 0 0 -2.505 -1.5h-.161a1 1 0 0 0 -1 -1m1 7a1 1 0 0 1 0 2zm-2 -4v2a1 1 0 0 1 0 -2" />
</symbol>
	<symbol id="filled-receipt-euro" xmlns="http://www.w3.org/2000/svg" width="24" height="24" viewBox="0 0 24 24" fill="currentColor"
> <path d="M17 2a3 3 0 0 1 3 3v16a1 1 0 0 1 -1.555 .832l-2.318 -1.545l-1.42 1.42a1 1 0 0 1 -1.32 .083l-.094 -.083l-1.293 -1.292l-1.293 1.292a1 1 0 0 1 -1.32 .083l-.094 -.083l-1.421 -1.42l-2.317 1.545a1 1 0 0 1 -1.55 -.72l-.005 -.112v-16a3 3 0 0 1 3 -3zm-3.875 4c-2.046 0 -3.668 1.746 -4.043 4h-.082a1 1 0 0 0 0 2h.082c.376 2.254 1.997 4 4.043 4c1.106 0 2.053 -.465 2.707 -1.445a1 1 0 1 0 -1.664 -1.11c-.267 .401 -.58 .555 -1.043 .555c-.882 0 -1.7 -.814 -2.002 -1.999l1.877 -.001a1 1 0 0 0 0 -2h-1.877c.301 -1.186 1.12 -2 2.002 -2c.462 0 .776 .154 1.043 .555a1 1 0 0 0 1.664 -1.11c-.654 -.98 -1.6 -1.445 -2.707 -1.445" />
</symbol>
	<symbol id="filled-receipt-pound" xmlns="http://www.w3.org/2000/svg" width="24" height="24" viewBox="0 0 24 24" fill="currentColor"
> <path d="M17 2a3 3 0 0 1 3 3v16a1 1 0 0 1 -1.555 .832l-2.318 -1.545l-1.42 1.42a1 1 0 0 1 -1.32 .083l-.094 -.083l-1.293 -1.292l-1.293 1.292a1 1 0 0 1 -1.32 .083l-.094 -.083l-1.421 -1.42l-2.317 1.545l-.019 .012l-.054 .03l-.028 .017l-.054 .023l-.05 .023l-.049 .015l-.06 .019l-.052 .009l-.057 .011l-.084 .006l-.026 .003h-.022l-.049 -.003h-.039l-.013 -.003h-.016l-.041 -.008l-.038 -.005l-.015 -.005l-.018 -.002l-.034 -.011l-.04 -.01l-.019 -.007l-.015 -.004l-.029 -.013l-.04 -.015l-.021 -.011l-.013 -.005l-.028 -.016l-.036 -.018l-.014 -.01l-.018 -.01l-.038 -.027l-.022 -.014l-.01 -.009l-.02 -.014l-.045 -.041l-.012 -.008l-.024 -.024l-.035 -.039l-.02 -.02l-.007 -.011l-.011 -.012l-.032 -.045l-.02 -.025l-.012 -.019l-.03 -.054l-.017 -.028l-.023 -.054l-.023 -.05a1 1 0 0 1 -.034 -.108l-.01 -.057l-.01 -.053l-.009 -.132v-16a3 3 0 0 1 3 -3zm-4 4a3 3 0 0 0 -3 3v2h-1a1 1 0 0 0 0 2h1a1 1 0 0 1 -.883 .993l-.117 .007c-1.287 0 -1.332 1.864 -.133 1.993l.133 .007h6a1 1 0 0 0 1 -1l-.007 -.117a1 1 0 0 0 -.993 -.883h-3.171l.048 -.148a3 3 0 0 0 .123 -.852h1a1 1 0 0 0 0 -2h-1v-2a1 1 0 0 1 2 0a1 1 0 0 0 2 0a3 3 0 0 0 -3 -3" />
</symbol>
	<symbol id="filled-receipt-rupee" xmlns="http://www.w3.org/2000/svg" width="24" height="24" viewBox="0 0 24 24" fill="currentColor"
> <path d="M17 2a3 3 0 0 1 3 3v16a1 1 0 0 1 -1.555 .832l-2.318 -1.545l-1.42 1.42a1 1 0 0 1 -1.32 .083l-.094 -.083l-1.293 -1.292l-1.293 1.292a1 1 0 0 1 -1.32 .083l-.094 -.083l-1.421 -1.42l-2.317 1.545l-.019 .012l-.054 .03l-.028 .017l-.054 .023l-.05 .023l-.049 .015l-.06 .019l-.052 .009l-.057 .011l-.084 .006l-.026 .003h-.022l-.049 -.003h-.039l-.013 -.003h-.016l-.041 -.008l-.038 -.005l-.015 -.005l-.018 -.002l-.034 -.011l-.04 -.01l-.019 -.007l-.015 -.004l-.029 -.013l-.04 -.015l-.021 -.011l-.013 -.005l-.028 -.016l-.036 -.018l-.014 -.01l-.018 -.01l-.038 -.027l-.022 -.014l-.01 -.009l-.02 -.014l-.045 -.041l-.012 -.008l-.024 -.024l-.035 -.039l-.02 -.02l-.007 -.011l-.011 -.012l-.032 -.045l-.02 -.025l-.012 -.019l-.03 -.054l-.017 -.028l-.023 -.054l-.023 -.05a1 1 0 0 1 -.034 -.108l-.01 -.057l-.01 -.053l-.009 -.132v-16a3 3 0 0 1 3 -3zm-2 4h-6c-1.287 0 -1.332 1.864 -.133 1.993l.133 .007h1a2 2 0 0 1 1.732 1h-2.732a1 1 0 1 0 0 2l2.732 .001a2 2 0 0 1 -1.732 .999h-1c-.89 0 -1.337 1.077 -.707 1.707l3 3a1 1 0 0 0 1.414 0l.083 -.094a1 1 0 0 0 -.083 -1.32l-1.484 -1.485l.113 -.037a4.01 4.01 0 0 0 2.538 -2.77l1.126 -.001a1 1 0 0 0 0 -2h-1.126a4 4 0 0 0 -.33 -.855l-.079 -.145h1.535a1 1 0 0 0 1 -1l-.007 -.117a1 1 0 0 0 -.993 -.883" />
</symbol>
	<symbol id="filled-receipt-yen" xmlns="http://www.w3.org/2000/svg" width="24" height="24" viewBox="0 0 24 24" fill="currentColor"
> <path d="M17 2a3 3 0 0 1 3 3v16a1 1 0 0 1 -1.555 .832l-2.318 -1.545l-1.42 1.42a1 1 0 0 1 -1.32 .083l-.094 -.083l-1.293 -1.292l-1.293 1.292a1 1 0 0 1 -1.32 .083l-.094 -.083l-1.421 -1.42l-2.317 1.545l-.019 .012l-.054 .03l-.028 .017l-.054 .023l-.05 .023l-.049 .015l-.06 .019l-.052 .009l-.057 .011l-.084 .006l-.026 .003h-.022l-.049 -.003h-.039l-.013 -.003h-.016l-.041 -.008l-.038 -.005l-.015 -.005l-.018 -.002l-.034 -.011l-.04 -.01l-.019 -.007l-.015 -.004l-.029 -.013l-.04 -.015l-.021 -.011l-.013 -.005l-.028 -.016l-.036 -.018l-.014 -.01l-.018 -.01l-.038 -.027l-.022 -.014l-.01 -.009l-.02 -.014l-.045 -.041l-.012 -.008l-.024 -.024l-.035 -.039l-.02 -.02l-.007 -.011l-.011 -.012l-.032 -.045l-.02 -.025l-.012 -.019l-.03 -.054l-.017 -.028l-.023 -.054l-.023 -.05a1 1 0 0 1 -.034 -.108l-.01 -.057l-.01 -.053l-.009 -.132v-16a3 3 0 0 1 3 -3zm-1.445 4.168a1 1 0 0 0 -1.387 .277l-2.168 3.252l-2.168 -3.252a1 1 0 0 0 -1.664 1.11l1.63 2.445h-.798a1 1 0 0 0 0 2h2v1h-2a1 1 0 0 0 0 2h2v1a1 1 0 0 0 1 1l.117 -.007a1 1 0 0 0 .883 -.993v-1h2a1 1 0 0 0 0 -2h-2v-1h2a1 1 0 0 0 0 -2h-.8l1.632 -2.445a1 1 0 0 0 -.277 -1.387" />
</symbol>
	<symbol id="filled-receipt-yuan" xmlns="http://www.w3.org/2000/svg" width="24" height="24" viewBox="0 0 24 24" fill="currentColor"
> <path d="M17 2a3 3 0 0 1 3 3v16a1 1 0 0 1 -1.555 .832l-2.318 -1.545l-1.42 1.42a1 1 0 0 1 -1.32 .083l-.094 -.083l-1.293 -1.292l-1.293 1.292a1 1 0 0 1 -1.32 .083l-.094 -.083l-1.421 -1.42l-2.317 1.545l-.019 .012l-.054 .03l-.028 .017l-.054 .023l-.05 .023l-.049 .015l-.06 .019l-.052 .009l-.057 .011l-.084 .006l-.026 .003h-.022l-.049 -.003h-.039l-.013 -.003h-.016l-.041 -.008l-.038 -.005l-.015 -.005l-.018 -.002l-.034 -.011l-.04 -.01l-.019 -.007l-.015 -.004l-.029 -.013l-.04 -.015l-.021 -.011l-.013 -.005l-.028 -.016l-.036 -.018l-.014 -.01l-.018 -.01l-.038 -.027l-.022 -.014l-.01 -.009l-.02 -.014l-.045 -.041l-.012 -.008l-.024 -.024l-.035 -.039l-.02 -.02l-.007 -.011l-.011 -.012l-.032 -.045l-.02 -.025l-.012 -.019l-.03 -.054l-.017 -.028l-.023 -.054l-.023 -.05a1 1 0 0 1 -.034 -.108l-.01 -.057l-.01 -.053l-.009 -.132v-16a3 3 0 0 1 3 -3zm-1.445 4.168a1 1 0 0 0 -1.387 .277l-2.168 3.252l-2.168 -3.252a1 1 0 0 0 -1.664 1.11l2.297 3.445h-1.465a1 1 0 0 0 0 2h2v3a1 1 0 0 0 1 1l.117 -.007a1 1 0 0 0 .883 -.993v-3h2a1 1 0 0 0 0 -2h-1.465l2.297 -3.445a1 1 0 0 0 -.277 -1.387" />
</symbol>
	<symbol id="filled-template" xmlns="http://www.w3.org/2000/svg" width="24" height="24" viewBox="0 0 24 24" fill="currentColor"
> <path d="M19 3a2 2 0 0 1 2 2v2a2 2 0 0 1 -2 2h-14a2 2 0 0 1 -2 -2v-2a2 2 0 0 1 2 -2z" /> <path d="M9 11a2 2 0 0 1 2 2v6a2 2 0 0 1 -2 2h-4a2 2 0 0 1 -2 -2v-6a2 2 0 0 1 2 -2z" /> <path d="M20 11a1 1 0 0 1 0 2h-6a1 1 0 0 1 0 -2z" /> <path d="M20 15a1 1 0 0 1 0 2h-6a1 1 0 0 1 0 -2z" /> <path d="M20 19a1 1 0 0 1 0 2h-6a1 1 0 0 1 0 -2z" />
</symbol>

	<use xlink:href="#filled-building-bridge-2" x="24" y="24" width="24" height="24" />
	<use xlink:href="#filled-columns-1" x="68" y="24" width="24" height="24" />
	<use xlink:href="#filled-columns-2" x="112" y="24" width="24" height="24" />
	<use xlink:href="#filled-columns-3" x="156" y="24" width="24" height="24" />
	<use xlink:href="#filled-confetti" x="200" y="24" width="24" height="24" />
	<use xlink:href="#filled-container" x="244" y="24" width="24" height="24" />
	<use xlink:href="#filled-layout-board-split" x="24" y="68" width="24" height="24" />
	<use xlink:href="#filled-layout-board" x="68" y="68" width="24" height="24" />
	<use xlink:href="#filled-library-plus" x="112" y="68" width="24" height="24" />
	<use xlink:href="#filled-library" x="156" y="68" width="24" height="24" />
	<use xlink:href="#filled-octagon-minus" x="200" y="68" width="24" height="24" />
	<use xlink:href="#filled-octagon-plus" x="244" y="68" width="24" height="24" />
	<use xlink:href="#filled-receipt-dollar" x="24" y="112" width="24" height="24" />
	<use xlink:href="#filled-receipt-euro" x="68" y="112" width="24" height="24" />
	<use xlink:href="#filled-receipt-pound" x="112" y="112" width="24" height="24" />
	<use xlink:href="#filled-receipt-rupee" x="156" y="112" width="24" height="24" />
	<use xlink:href="#filled-receipt-yen" x="200" y="112" width="24" height="24" />
	<use xlink:href="#filled-receipt-yuan" x="244" y="112" width="24" height="24" />
	<use xlink:href="#filled-template" x="24" y="156" width="24" height="24" />

</svg>