<svg xmlns="http://www.w3.org/2000/svg" xmlns:xlink="http://www.w3.org/1999/xlink" viewBox="0 0 292 292" width="292" height="292" style="color: #354052"><rect x="0" y="0" width="292" height="292" fill="#fff"></rect>
	<symbol id="square-rounded-letter-a" class="icon icon-tabler icon-tabler-square-rounded-letter-a" viewBox="0 0 24 24" stroke-width="2" stroke="currentColor" fill="none" stroke-linecap="round" stroke-linejoin="round"><path stroke="none" d="M0 0h24v24H0z" fill="none"/><path d="M10 16v-6a2 2 0 1 1 4 0v6" /><path d="M10 13h4" /><path d="M12 3c7.2 0 9 1.8 9 9s-1.8 9 -9 9s-9 -1.8 -9 -9s1.8 -9 9 -9z" />
</symbol>
	<symbol id="square-rounded-letter-b" class="icon icon-tabler icon-tabler-square-rounded-letter-b" viewBox="0 0 24 24" stroke-width="2" stroke="currentColor" fill="none" stroke-linecap="round" stroke-linejoin="round"><path stroke="none" d="M0 0h24v24H0z" fill="none"/><path d="M10 16h2a2 2 0 1 0 0 -4h-2h2a2 2 0 1 0 0 -4h-2v8z" /><path d="M12 3c7.2 0 9 1.8 9 9s-1.8 9 -9 9s-9 -1.8 -9 -9s1.8 -9 9 -9z" />
</symbol>
	<symbol id="square-rounded-letter-c" class="icon icon-tabler icon-tabler-square-rounded-letter-c" viewBox="0 0 24 24" stroke-width="2" stroke="currentColor" fill="none" stroke-linecap="round" stroke-linejoin="round"><path stroke="none" d="M0 0h24v24H0z" fill="none"/><path d="M14 10a2 2 0 1 0 -4 0v4a2 2 0 1 0 4 0" /><path d="M12 3c7.2 0 9 1.8 9 9s-1.8 9 -9 9s-9 -1.8 -9 -9s1.8 -9 9 -9z" />
</symbol>
	<symbol id="square-rounded-letter-d" class="icon icon-tabler icon-tabler-square-rounded-letter-d" viewBox="0 0 24 24" stroke-width="2" stroke="currentColor" fill="none" stroke-linecap="round" stroke-linejoin="round"><path stroke="none" d="M0 0h24v24H0z" fill="none"/><path d="M10 8v8h2a2 2 0 0 0 2 -2v-4a2 2 0 0 0 -2 -2h-2z" /><path d="M12 3c7.2 0 9 1.8 9 9s-1.8 9 -9 9s-9 -1.8 -9 -9s1.8 -9 9 -9z" />
</symbol>
	<symbol id="square-rounded-letter-e" class="icon icon-tabler icon-tabler-square-rounded-letter-e" viewBox="0 0 24 24" stroke-width="2" stroke="currentColor" fill="none" stroke-linecap="round" stroke-linejoin="round"><path stroke="none" d="M0 0h24v24H0z" fill="none"/><path d="M14 8h-4v8h4" /><path d="M10 12h2.5" /><path d="M12 3c7.2 0 9 1.8 9 9s-1.8 9 -9 9s-9 -1.8 -9 -9s1.8 -9 9 -9z" />
</symbol>
	<symbol id="square-rounded-letter-f" class="icon icon-tabler icon-tabler-square-rounded-letter-f" viewBox="0 0 24 24" stroke-width="2" stroke="currentColor" fill="none" stroke-linecap="round" stroke-linejoin="round"><path stroke="none" d="M0 0h24v24H0z" fill="none"/><path d="M10 12h3" /><path d="M14 8h-4v8" /><path d="M12 3c7.2 0 9 1.8 9 9s-1.8 9 -9 9s-9 -1.8 -9 -9s1.8 -9 9 -9z" />
</symbol>
	<symbol id="square-rounded-letter-g" class="icon icon-tabler icon-tabler-square-rounded-letter-g" viewBox="0 0 24 24" stroke-width="2" stroke="currentColor" fill="none" stroke-linecap="round" stroke-linejoin="round"><path stroke="none" d="M0 0h24v24H0z" fill="none"/><path d="M14 8h-2a2 2 0 0 0 -2 2v4a2 2 0 0 0 2 2h2v-4h-1" /><path d="M12 3c7.2 0 9 1.8 9 9s-1.8 9 -9 9s-9 -1.8 -9 -9s1.8 -9 9 -9z" />
</symbol>
	<symbol id="square-rounded-letter-h" class="icon icon-tabler icon-tabler-square-rounded-letter-h" viewBox="0 0 24 24" stroke-width="2" stroke="currentColor" fill="none" stroke-linecap="round" stroke-linejoin="round"><path stroke="none" d="M0 0h24v24H0z" fill="none"/><path d="M10 16v-8m4 0v8" /><path d="M10 12h4" /><path d="M12 3c7.2 0 9 1.8 9 9s-1.8 9 -9 9s-9 -1.8 -9 -9s1.8 -9 9 -9z" />
</symbol>
	<symbol id="square-rounded-letter-i" class="icon icon-tabler icon-tabler-square-rounded-letter-i" viewBox="0 0 24 24" stroke-width="2" stroke="currentColor" fill="none" stroke-linecap="round" stroke-linejoin="round"><path stroke="none" d="M0 0h24v24H0z" fill="none"/><path d="M12 8v8" /><path d="M12 3c7.2 0 9 1.8 9 9s-1.8 9 -9 9s-9 -1.8 -9 -9s1.8 -9 9 -9z" />
</symbol>
	<symbol id="square-rounded-letter-j" class="icon icon-tabler icon-tabler-square-rounded-letter-j" viewBox="0 0 24 24" stroke-width="2" stroke="currentColor" fill="none" stroke-linecap="round" stroke-linejoin="round"><path stroke="none" d="M0 0h24v24H0z" fill="none"/><path d="M10 8h4v6a2 2 0 1 1 -4 0" /><path d="M12 3c7.2 0 9 1.8 9 9s-1.8 9 -9 9s-9 -1.8 -9 -9s1.8 -9 9 -9z" />
</symbol>
	<symbol id="square-rounded-letter-k" class="icon icon-tabler icon-tabler-square-rounded-letter-k" viewBox="0 0 24 24" stroke-width="2" stroke="currentColor" fill="none" stroke-linecap="round" stroke-linejoin="round"><path stroke="none" d="M0 0h24v24H0z" fill="none"/><path d="M10 8v8" /><path d="M14 8l-2.5 4l2.5 4" /><path d="M10 12h1.5" /><path d="M12 3c7.2 0 9 1.8 9 9s-1.8 9 -9 9s-9 -1.8 -9 -9s1.8 -9 9 -9z" />
</symbol>
	<symbol id="square-rounded-letter-l" class="icon icon-tabler icon-tabler-square-rounded-letter-l" viewBox="0 0 24 24" stroke-width="2" stroke="currentColor" fill="none" stroke-linecap="round" stroke-linejoin="round"><path stroke="none" d="M0 0h24v24H0z" fill="none"/><path d="M10 8v8h4" /><path d="M12 3c7.2 0 9 1.8 9 9s-1.8 9 -9 9s-9 -1.8 -9 -9s1.8 -9 9 -9z" />
</symbol>
	<symbol id="square-rounded-letter-m" class="icon icon-tabler icon-tabler-square-rounded-letter-m" viewBox="0 0 24 24" stroke-width="2" stroke="currentColor" fill="none" stroke-linecap="round" stroke-linejoin="round"><path stroke="none" d="M0 0h24v24H0z" fill="none"/><path d="M9 16v-8l3 5l3 -5v8" /><path d="M12 3c7.2 0 9 1.8 9 9s-1.8 9 -9 9s-9 -1.8 -9 -9s1.8 -9 9 -9z" />
</symbol>
	<symbol id="square-rounded-letter-n" class="icon icon-tabler icon-tabler-square-rounded-letter-n" viewBox="0 0 24 24" stroke-width="2" stroke="currentColor" fill="none" stroke-linecap="round" stroke-linejoin="round"><path stroke="none" d="M0 0h24v24H0z" fill="none"/><path d="M10 16v-8l4 8v-8" /><path d="M12 3c7.2 0 9 1.8 9 9s-1.8 9 -9 9s-9 -1.8 -9 -9s1.8 -9 9 -9z" />
</symbol>
	<symbol id="square-rounded-letter-o" class="icon icon-tabler icon-tabler-square-rounded-letter-o" viewBox="0 0 24 24" stroke-width="2" stroke="currentColor" fill="none" stroke-linecap="round" stroke-linejoin="round"><path stroke="none" d="M0 0h24v24H0z" fill="none"/><path d="M12 8a2 2 0 0 1 2 2v4a2 2 0 1 1 -4 0v-4a2 2 0 0 1 2 -2z" /><path d="M12 3c7.2 0 9 1.8 9 9s-1.8 9 -9 9s-9 -1.8 -9 -9s1.8 -9 9 -9z" />
</symbol>
	<symbol id="square-rounded-letter-p" class="icon icon-tabler icon-tabler-square-rounded-letter-p" viewBox="0 0 24 24" stroke-width="2" stroke="currentColor" fill="none" stroke-linecap="round" stroke-linejoin="round"><path stroke="none" d="M0 0h24v24H0z" fill="none"/><path d="M10 12h2a2 2 0 1 0 0 -4h-2v8" /><path d="M12 3c7.2 0 9 1.8 9 9s-1.8 9 -9 9s-9 -1.8 -9 -9s1.8 -9 9 -9z" />
</symbol>
	<symbol id="square-rounded-letter-q" class="icon icon-tabler icon-tabler-square-rounded-letter-q" viewBox="0 0 24 24" stroke-width="2" stroke="currentColor" fill="none" stroke-linecap="round" stroke-linejoin="round"><path stroke="none" d="M0 0h24v24H0z" fill="none"/><path d="M12 8a2 2 0 0 1 2 2v4a2 2 0 1 1 -4 0v-4a2 2 0 0 1 2 -2z" /><path d="M13 15l1 1" /><path d="M12 3c7.2 0 9 1.8 9 9s-1.8 9 -9 9s-9 -1.8 -9 -9s1.8 -9 9 -9z" />
</symbol>
	<symbol id="square-rounded-letter-r" class="icon icon-tabler icon-tabler-square-rounded-letter-r" viewBox="0 0 24 24" stroke-width="2" stroke="currentColor" fill="none" stroke-linecap="round" stroke-linejoin="round"><path stroke="none" d="M0 0h24v24H0z" fill="none"/><path d="M10 12h2a2 2 0 1 0 0 -4h-2v8m4 0l-3 -4" /><path d="M12 3c7.2 0 9 1.8 9 9s-1.8 9 -9 9s-9 -1.8 -9 -9s1.8 -9 9 -9z" />
</symbol>
	<symbol id="square-rounded-letter-s" class="icon icon-tabler icon-tabler-square-rounded-letter-s" viewBox="0 0 24 24" stroke-width="2" stroke="currentColor" fill="none" stroke-linecap="round" stroke-linejoin="round"><path stroke="none" d="M0 0h24v24H0z" fill="none"/><path d="M10 15a1 1 0 0 0 1 1h2a1 1 0 0 0 1 -1v-2a1 1 0 0 0 -1 -1h-2a1 1 0 0 1 -1 -1v-2a1 1 0 0 1 1 -1h2a1 1 0 0 1 1 1" /><path d="M12 3c7.2 0 9 1.8 9 9s-1.8 9 -9 9s-9 -1.8 -9 -9s1.8 -9 9 -9z" />
</symbol>
	<symbol id="square-rounded-letter-t" class="icon icon-tabler icon-tabler-square-rounded-letter-t" viewBox="0 0 24 24" stroke-width="2" stroke="currentColor" fill="none" stroke-linecap="round" stroke-linejoin="round"><path stroke="none" d="M0 0h24v24H0z" fill="none"/><path d="M10 8h4" /><path d="M12 8v8" /><path d="M12 3c7.2 0 9 1.8 9 9s-1.8 9 -9 9s-9 -1.8 -9 -9s1.8 -9 9 -9z" />
</symbol>
	<symbol id="square-rounded-letter-u" class="icon icon-tabler icon-tabler-square-rounded-letter-u" viewBox="0 0 24 24" stroke-width="2" stroke="currentColor" fill="none" stroke-linecap="round" stroke-linejoin="round"><path stroke="none" d="M0 0h24v24H0z" fill="none"/><path d="M10 8v6a2 2 0 1 0 4 0v-6" /><path d="M12 3c7.2 0 9 1.8 9 9s-1.8 9 -9 9s-9 -1.8 -9 -9s1.8 -9 9 -9z" />
</symbol>
	<symbol id="square-rounded-letter-v" class="icon icon-tabler icon-tabler-square-rounded-letter-v" viewBox="0 0 24 24" stroke-width="2" stroke="currentColor" fill="none" stroke-linecap="round" stroke-linejoin="round"><path stroke="none" d="M0 0h24v24H0z" fill="none"/><path d="M10 8l2 8l2 -8" /><path d="M12 3c7.2 0 9 1.8 9 9s-1.8 9 -9 9s-9 -1.8 -9 -9s1.8 -9 9 -9z" />
</symbol>
	<symbol id="square-rounded-letter-w" class="icon icon-tabler icon-tabler-square-rounded-letter-w" viewBox="0 0 24 24" stroke-width="2" stroke="currentColor" fill="none" stroke-linecap="round" stroke-linejoin="round"><path stroke="none" d="M0 0h24v24H0z" fill="none"/><path d="M9 8l1 8l2 -5l2 5l1 -8" /><path d="M12 3c7.2 0 9 1.8 9 9s-1.8 9 -9 9s-9 -1.8 -9 -9s1.8 -9 9 -9z" />
</symbol>
	<symbol id="square-rounded-letter-x" class="icon icon-tabler icon-tabler-square-rounded-letter-x" viewBox="0 0 24 24" stroke-width="2" stroke="currentColor" fill="none" stroke-linecap="round" stroke-linejoin="round"><path stroke="none" d="M0 0h24v24H0z" fill="none"/><path d="M10 8l4 8" /><path d="M10 16l4 -8" /><path d="M12 3c7.2 0 9 1.8 9 9s-1.8 9 -9 9s-9 -1.8 -9 -9s1.8 -9 9 -9z" />
</symbol>
	<symbol id="square-rounded-letter-y" class="icon icon-tabler icon-tabler-square-rounded-letter-y" viewBox="0 0 24 24" stroke-width="2" stroke="currentColor" fill="none" stroke-linecap="round" stroke-linejoin="round"><path stroke="none" d="M0 0h24v24H0z" fill="none"/><path d="M10 8l2 5l2 -5" /><path d="M12 16v-3" /><path d="M12 3c7.2 0 9 1.8 9 9s-1.8 9 -9 9s-9 -1.8 -9 -9s1.8 -9 9 -9z" />
</symbol>
	<symbol id="square-rounded-letter-z" class="icon icon-tabler icon-tabler-square-rounded-letter-z" viewBox="0 0 24 24" stroke-width="2" stroke="currentColor" fill="none" stroke-linecap="round" stroke-linejoin="round"><path stroke="none" d="M0 0h24v24H0z" fill="none"/><path d="M10 8h4l-4 8h4" /><path d="M12 3c7.2 0 9 1.8 9 9s-1.8 9 -9 9s-9 -1.8 -9 -9s1.8 -9 9 -9z" />
</symbol>
	<symbol id="square-rounded-number-0" class="icon icon-tabler icon-tabler-square-rounded-number-0" viewBox="0 0 24 24" stroke-width="2" stroke="currentColor" fill="none" stroke-linecap="round" stroke-linejoin="round"><path stroke="none" d="M0 0h24v24H0z" fill="none"/><path d="M10 10v4a2 2 0 1 0 4 0v-4a2 2 0 1 0 -4 0z" /><path d="M12 3c7.2 0 9 1.8 9 9s-1.8 9 -9 9s-9 -1.8 -9 -9s1.8 -9 9 -9z" />
</symbol>
	<symbol id="square-rounded-number-1" class="icon icon-tabler icon-tabler-square-rounded-number-1" viewBox="0 0 24 24" stroke-width="2" stroke="currentColor" fill="none" stroke-linecap="round" stroke-linejoin="round"><path stroke="none" d="M0 0h24v24H0z" fill="none"/><path d="M10 10l2 -2v8" /><path d="M12 3c7.2 0 9 1.8 9 9s-1.8 9 -9 9s-9 -1.8 -9 -9s1.8 -9 9 -9z" />
</symbol>
	<symbol id="square-rounded-number-2" class="icon icon-tabler icon-tabler-square-rounded-number-2" viewBox="0 0 24 24" stroke-width="2" stroke="currentColor" fill="none" stroke-linecap="round" stroke-linejoin="round"><path stroke="none" d="M0 0h24v24H0z" fill="none"/><path d="M10 8h3a1 1 0 0 1 1 1v2a1 1 0 0 1 -1 1h-2a1 1 0 0 0 -1 1v2a1 1 0 0 0 1 1h3" /><path d="M12 3c7.2 0 9 1.8 9 9s-1.8 9 -9 9s-9 -1.8 -9 -9s1.8 -9 9 -9z" />
</symbol>
	<symbol id="square-rounded-number-3" class="icon icon-tabler icon-tabler-square-rounded-number-3" viewBox="0 0 24 24" stroke-width="2" stroke="currentColor" fill="none" stroke-linecap="round" stroke-linejoin="round"><path stroke="none" d="M0 0h24v24H0z" fill="none"/><path d="M10 9a1 1 0 0 1 1 -1h2a1 1 0 0 1 1 1v2a1 1 0 0 1 -1 1h-2h2a1 1 0 0 1 1 1v2a1 1 0 0 1 -1 1h-2a1 1 0 0 1 -1 -1" /><path d="M12 3c7.2 0 9 1.8 9 9s-1.8 9 -9 9s-9 -1.8 -9 -9s1.8 -9 9 -9z" />
</symbol>
	<symbol id="square-rounded-number-4" class="icon icon-tabler icon-tabler-square-rounded-number-4" viewBox="0 0 24 24" stroke-width="2" stroke="currentColor" fill="none" stroke-linecap="round" stroke-linejoin="round"><path stroke="none" d="M0 0h24v24H0z" fill="none"/><path d="M10 8v3a1 1 0 0 0 1 1h3" /><path d="M14 8v8" /><path d="M12 3c7.2 0 9 1.8 9 9s-1.8 9 -9 9s-9 -1.8 -9 -9s1.8 -9 9 -9z" />
</symbol>
	<symbol id="square-rounded-number-5" class="icon icon-tabler icon-tabler-square-rounded-number-5" viewBox="0 0 24 24" stroke-width="2" stroke="currentColor" fill="none" stroke-linecap="round" stroke-linejoin="round"><path stroke="none" d="M0 0h24v24H0z" fill="none"/><path d="M10 15a1 1 0 0 0 1 1h2a1 1 0 0 0 1 -1v-2a1 1 0 0 0 -1 -1h-3v-4h4" /><path d="M12 3c7.2 0 9 1.8 9 9s-1.8 9 -9 9s-9 -1.8 -9 -9s1.8 -9 9 -9z" />
</symbol>
	<symbol id="square-rounded-number-6" class="icon icon-tabler icon-tabler-square-rounded-number-6" viewBox="0 0 24 24" stroke-width="2" stroke="currentColor" fill="none" stroke-linecap="round" stroke-linejoin="round"><path stroke="none" d="M0 0h24v24H0z" fill="none"/><path d="M14 9a1 1 0 0 0 -1 -1h-2a1 1 0 0 0 -1 1v6a1 1 0 0 0 1 1h2a1 1 0 0 0 1 -1v-2a1 1 0 0 0 -1 -1h-3" /><path d="M12 3c7.2 0 9 1.8 9 9s-1.8 9 -9 9s-9 -1.8 -9 -9s1.8 -9 9 -9z" />
</symbol>
	<symbol id="square-rounded-number-7" class="icon icon-tabler icon-tabler-square-rounded-number-7" viewBox="0 0 24 24" stroke-width="2" stroke="currentColor" fill="none" stroke-linecap="round" stroke-linejoin="round"><path stroke="none" d="M0 0h24v24H0z" fill="none"/><path d="M10 8h4l-2 8" /><path d="M12 3c7.2 0 9 1.8 9 9s-1.8 9 -9 9s-9 -1.8 -9 -9s1.8 -9 9 -9z" />
</symbol>
	<symbol id="square-rounded-number-8" class="icon icon-tabler icon-tabler-square-rounded-number-8" viewBox="0 0 24 24" stroke-width="2" stroke="currentColor" fill="none" stroke-linecap="round" stroke-linejoin="round"><path stroke="none" d="M0 0h24v24H0z" fill="none"/><path d="M12 12h-1a1 1 0 0 1 -1 -1v-2a1 1 0 0 1 1 -1h2a1 1 0 0 1 1 1v2a1 1 0 0 1 -1 1h-2a1 1 0 0 0 -1 1v2a1 1 0 0 0 1 1h2a1 1 0 0 0 1 -1v-2a1 1 0 0 0 -1 -1" /><path d="M12 3c7.2 0 9 1.8 9 9s-1.8 9 -9 9s-9 -1.8 -9 -9s1.8 -9 9 -9z" />
</symbol>
	<symbol id="square-rounded-number-9" class="icon icon-tabler icon-tabler-square-rounded-number-9" viewBox="0 0 24 24" stroke-width="2" stroke="currentColor" fill="none" stroke-linecap="round" stroke-linejoin="round"><path stroke="none" d="M0 0h24v24H0z" fill="none"/><path d="M10 15a1 1 0 0 0 1 1h2a1 1 0 0 0 1 -1v-6a1 1 0 0 0 -1 -1h-2a1 1 0 0 0 -1 1v2a1 1 0 0 0 1 1h3" /><path d="M12 3c7.2 0 9 1.8 9 9s-1.8 9 -9 9s-9 -1.8 -9 -9s1.8 -9 9 -9z" />
</symbol>

	<use xlink:href="#square-rounded-letter-a" x="24" y="24" width="24" height="24" />
	<use xlink:href="#square-rounded-letter-b" x="68" y="24" width="24" height="24" />
	<use xlink:href="#square-rounded-letter-c" x="112" y="24" width="24" height="24" />
	<use xlink:href="#square-rounded-letter-d" x="156" y="24" width="24" height="24" />
	<use xlink:href="#square-rounded-letter-e" x="200" y="24" width="24" height="24" />
	<use xlink:href="#square-rounded-letter-f" x="244" y="24" width="24" height="24" />
	<use xlink:href="#square-rounded-letter-g" x="24" y="68" width="24" height="24" />
	<use xlink:href="#square-rounded-letter-h" x="68" y="68" width="24" height="24" />
	<use xlink:href="#square-rounded-letter-i" x="112" y="68" width="24" height="24" />
	<use xlink:href="#square-rounded-letter-j" x="156" y="68" width="24" height="24" />
	<use xlink:href="#square-rounded-letter-k" x="200" y="68" width="24" height="24" />
	<use xlink:href="#square-rounded-letter-l" x="244" y="68" width="24" height="24" />
	<use xlink:href="#square-rounded-letter-m" x="24" y="112" width="24" height="24" />
	<use xlink:href="#square-rounded-letter-n" x="68" y="112" width="24" height="24" />
	<use xlink:href="#square-rounded-letter-o" x="112" y="112" width="24" height="24" />
	<use xlink:href="#square-rounded-letter-p" x="156" y="112" width="24" height="24" />
	<use xlink:href="#square-rounded-letter-q" x="200" y="112" width="24" height="24" />
	<use xlink:href="#square-rounded-letter-r" x="244" y="112" width="24" height="24" />
	<use xlink:href="#square-rounded-letter-s" x="24" y="156" width="24" height="24" />
	<use xlink:href="#square-rounded-letter-t" x="68" y="156" width="24" height="24" />
	<use xlink:href="#square-rounded-letter-u" x="112" y="156" width="24" height="24" />
	<use xlink:href="#square-rounded-letter-v" x="156" y="156" width="24" height="24" />
	<use xlink:href="#square-rounded-letter-w" x="200" y="156" width="24" height="24" />
	<use xlink:href="#square-rounded-letter-x" x="244" y="156" width="24" height="24" />
	<use xlink:href="#square-rounded-letter-y" x="24" y="200" width="24" height="24" />
	<use xlink:href="#square-rounded-letter-z" x="68" y="200" width="24" height="24" />
	<use xlink:href="#square-rounded-number-0" x="112" y="200" width="24" height="24" />
	<use xlink:href="#square-rounded-number-1" x="156" y="200" width="24" height="24" />
	<use xlink:href="#square-rounded-number-2" x="200" y="200" width="24" height="24" />
	<use xlink:href="#square-rounded-number-3" x="244" y="200" width="24" height="24" />
	<use xlink:href="#square-rounded-number-4" x="24" y="244" width="24" height="24" />
	<use xlink:href="#square-rounded-number-5" x="68" y="244" width="24" height="24" />
	<use xlink:href="#square-rounded-number-6" x="112" y="244" width="24" height="24" />
	<use xlink:href="#square-rounded-number-7" x="156" y="244" width="24" height="24" />
	<use xlink:href="#square-rounded-number-8" x="200" y="244" width="24" height="24" />
	<use xlink:href="#square-rounded-number-9" x="244" y="244" width="24" height="24" />

</svg>