<svg xmlns="http://www.w3.org/2000/svg" xmlns:xlink="http://www.w3.org/1999/xlink" viewBox="0 0 322 122" width="322" height="122" style="color: #354052"><rect x="0" y="0" width="322" height="122" fill="#fff"></rect>
	<symbol id="caravan" class="icon icon-tabler icon-tabler-caravan" viewBox="0 0 24 24" stroke-width="2" stroke="currentColor" fill="none" stroke-linecap="round" stroke-linejoin="round"><path stroke="none" d="M0 0h24v24H0z"/><circle cx="11" cy="17" r="2" /><path d="M21 17h-8" /><path d="M9 17h-5a1 1 0 0 1 -1 -1v-9a2 2 0 0 1 2 -2h10l4 4v8" /><rect x="6" y="8" width="6" height="4" rx="1" />
</symbol>
	<symbol id="gas-station" class="icon icon-tabler icon-tabler-gas-station" viewBox="0 0 24 24" stroke-width="2" stroke="currentColor" fill="none" stroke-linecap="round" stroke-linejoin="round"><path stroke="none" d="M0 0h24v24H0z"/><path d="M13 11h1a2 2 0 0 1 2 2v3a1.5 1.5 0 0 0 3 0v-7l-3 -3" /><line x1="4" y1="19" x2="14" y2="19" /><line x1="5" y1="11" x2="13" y2="11" /><path d="M5 19v-12a2 2 0 0 1 2 -2h4a2 2 0 0 1 2 2v12" /><path d="M17 7v1a1 1 0 0 0 1 1h1" />
</symbol>
	<symbol id="keyboard-hide" class="icon icon-tabler icon-tabler-keyboard-hide" viewBox="0 0 24 24" stroke-width="2" stroke="currentColor" fill="none" stroke-linecap="round" stroke-linejoin="round"><path stroke="none" d="M0 0h24v24H0z"/><rect x="2" y="3" width="20" height="12" rx="2" /><line x1="6" y1="7" x2="6" y2="7" /><line x1="10" y1="7" x2="10" y2="7" /><line x1="14" y1="7" x2="14" y2="7" /><line x1="18" y1="7" x2="18" y2="7" /><line x1="6" y1="11" x2="6" y2="11.01" /><line x1="18" y1="11" x2="18" y2="11.01" /><line x1="10" y1="11" x2="14" y2="11" /><path d="M10 21l2 -2l2 2" />
</symbol>
	<symbol id="keyboard-show" class="icon icon-tabler icon-tabler-keyboard-show" viewBox="0 0 24 24" stroke-width="2" stroke="currentColor" fill="none" stroke-linecap="round" stroke-linejoin="round"><path stroke="none" d="M0 0h24v24H0z"/><rect x="2" y="3" width="20" height="12" rx="2" /><line x1="6" y1="7" x2="6" y2="7" /><line x1="10" y1="7" x2="10" y2="7" /><line x1="14" y1="7" x2="14" y2="7" /><line x1="18" y1="7" x2="18" y2="7" /><line x1="6" y1="11" x2="6" y2="11.01" /><line x1="18" y1="11" x2="18" y2="11.01" /><line x1="10" y1="11" x2="14" y2="11" /><path d="M10 19l2 2l2 -2" />
</symbol>
	<symbol id="mars" class="icon icon-tabler icon-tabler-mars" viewBox="0 0 24 24" stroke-width="2" stroke="currentColor" fill="none" stroke-linecap="round" stroke-linejoin="round"><path stroke="none" d="M0 0h24v24H0z"/><circle cx="10" cy="14" r="5" /><line x1="19" y1="5" x2="13.6" y2="10.4" /><path d="M19 5h-5" /><line x1="19" y1="5" x2="19" y2="10" />
</symbol>
	<symbol id="page-break" class="icon icon-tabler icon-tabler-page-break" viewBox="0 0 24 24" stroke-width="2" stroke="currentColor" fill="none" stroke-linecap="round" stroke-linejoin="round"><path stroke="none" d="M0 0h24v24H0z"/><path d="M14 3v4a1 1 0 0 0 1 1h4" /><path d="M19 18v1a2 2 0 0 1 -2 2h-10a2 2 0 0 1 -2 -2v-1" /><path d="M3 14h3m4.5 0h3m4.5 0h3" /><path d="M5 10v-5a2 2 0 0 1 2 -2h7l5 5v2" />
</symbol>
	<symbol id="run" class="icon icon-tabler icon-tabler-run" viewBox="0 0 24 24" stroke-width="2" stroke="currentColor" fill="none" stroke-linecap="round" stroke-linejoin="round"><path stroke="none" d="M0 0h24v24H0z"/><circle cx="13" cy="4" r="1" /><path d="M4 17l5 1l.75 -1.5" /><path d="M15 21l0 -4l-4 -3l1 -6" /><path d="M7 12l0 -3l5 -1l3 3l3 1" />
</symbol>
	<symbol id="sailboat" class="icon icon-tabler icon-tabler-sailboat" viewBox="0 0 24 24" stroke-width="2" stroke="currentColor" fill="none" stroke-linecap="round" stroke-linejoin="round"><path stroke="none" d="M0 0h24v24H0z"/><path d="M2 20a2.4 2.4 0 0 0 2 1a2.4 2.4 0 0 0 2 -1a2.4 2.4 0 0 1 2 -1a2.4 2.4 0 0 1 2 1a2.4 2.4 0 0 0 2 1a2.4 2.4 0 0 0 2 -1a2.4 2.4 0 0 1 2 -1a2.4 2.4 0 0 1 2 1a2.4 2.4 0 0 0 2 1a2.4 2.4 0 0 0 2 -1" /><path d="M4 18l-1 -3h18l-1 3" /><path d="M11 12h7l-7 -9v9" /><line x1="8" y1="7" x2="6" y2="12" />
</symbol>
	<symbol id="ship" class="icon icon-tabler icon-tabler-ship" viewBox="0 0 24 24" stroke-width="2" stroke="currentColor" fill="none" stroke-linecap="round" stroke-linejoin="round"><path stroke="none" d="M0 0h24v24H0z"/><path d="M2 20a2.4 2.4 0 0 0 2 1a2.4 2.4 0 0 0 2 -1a2.4 2.4 0 0 1 2 -1a2.4 2.4 0 0 1 2 1a2.4 2.4 0 0 0 2 1a2.4 2.4 0 0 0 2 -1a2.4 2.4 0 0 1 2 -1a2.4 2.4 0 0 1 2 1a2.4 2.4 0 0 0 2 1a2.4 2.4 0 0 0 2 -1" /><path d="M4 18l-1 -5h18l-2 4" /><path d="M5 13v-6h8l4 6" /><path d="M7 7v-4h-1" />
</symbol>
	<symbol id="swiming" class="icon icon-tabler icon-tabler-swiming" viewBox="0 0 24 24" stroke-width="2" stroke="currentColor" fill="none" stroke-linecap="round" stroke-linejoin="round"><path stroke="none" d="M0 0h24v24H0z"/><circle cx="16" cy="9" r="1" /><path d="M6 11l4 -2l3.5 3l-1.5 2" /><path d="M3 16.75a2.4 2.4 0 0 0 1 .25a2.4 2.4 0 0 0 2 -1a2.4 2.4 0 0 1 2 -1a2.4 2.4 0 0 1 2 1a2.4 2.4 0 0 0 2 1a2.4 2.4 0 0 0 2 -1a2.4 2.4 0 0 1 2 -1a2.4 2.4 0 0 1 2 1a2.4 2.4 0 0 0 2 1a2.4 2.4 0 0 0 1 -.25" />
</symbol>
	<symbol id="venus" class="icon icon-tabler icon-tabler-venus" viewBox="0 0 24 24" stroke-width="2" stroke="currentColor" fill="none" stroke-linecap="round" stroke-linejoin="round"><path stroke="none" d="M0 0h24v24H0z"/><circle cx="12" cy="9" r="5" /><line x1="12" y1="14" x2="12" y2="21" /><line x1="9" y1="18" x2="15" y2="18" />
</symbol>
	<symbol id="walk" class="icon icon-tabler icon-tabler-walk" viewBox="0 0 24 24" stroke-width="2" stroke="currentColor" fill="none" stroke-linecap="round" stroke-linejoin="round"><path stroke="none" d="M0 0h24v24H0z"/><circle cx="13" cy="4" r="1" /><line x1="7" y1="21" x2="10" y2="17" /><path d="M16 21l-2 -4l-3 -3l1 -6" /><path d="M6 12l2 -3l4 -1l3 3l3 1" />
</symbol>

	<use xlink:href="#caravan" x="24" y="24" width="24" height="24" />
	<use xlink:href="#gas-station" x="74" y="24" width="24" height="24" />
	<use xlink:href="#keyboard-hide" x="124" y="24" width="24" height="24" />
	<use xlink:href="#keyboard-show" x="174" y="24" width="24" height="24" />
	<use xlink:href="#mars" x="224" y="24" width="24" height="24" />
	<use xlink:href="#page-break" x="274" y="24" width="24" height="24" />
	<use xlink:href="#run" x="24" y="74" width="24" height="24" />
	<use xlink:href="#sailboat" x="74" y="74" width="24" height="24" />
	<use xlink:href="#ship" x="124" y="74" width="24" height="24" />
	<use xlink:href="#swiming" x="174" y="74" width="24" height="24" />
	<use xlink:href="#venus" x="224" y="74" width="24" height="24" />
	<use xlink:href="#walk" x="274" y="74" width="24" height="24" />

</svg>