<svg xmlns="http://www.w3.org/2000/svg" xmlns:xlink="http://www.w3.org/1999/xlink" viewBox="0 0 292 248" width="292" height="248" style="color: #354052"><rect x="0" y="0" width="292" height="248" fill="#fff"></rect>
	<symbol id="outline-arrow-bar-to-down-dashed" xmlns="http://www.w3.org/2000/svg" width="24" height="24" viewBox="0 0 24 24" fill="none" stroke="currentColor" stroke-width="2" stroke-linecap="round" stroke-linejoin="round"
> <path d="M12 14v-10" /> <path d="M12 14l4 -4" /> <path d="M12 14l-4 -4" /> <path d="M4 20h3m13 0h-3m-3.5 0h-3" />
</symbol>
	<symbol id="outline-arrow-bar-to-left-dashed" xmlns="http://www.w3.org/2000/svg" width="24" height="24" viewBox="0 0 24 24" fill="none" stroke="currentColor" stroke-width="2" stroke-linecap="round" stroke-linejoin="round"
> <path d="M10 12l10 0" /> <path d="M10 12l4 -4" /> <path d="M10 12l4 4" /> <path d="M4 20l0 -3m0 -13l0 3m0 3.5l0 3" />
</symbol>
	<symbol id="outline-arrow-bar-to-right-dashed" xmlns="http://www.w3.org/2000/svg" width="24" height="24" viewBox="0 0 24 24" fill="none" stroke="currentColor" stroke-width="2" stroke-linecap="round" stroke-linejoin="round"
> <path d="M14 12l-10 0" /> <path d="M14 12l-4 4" /> <path d="M14 12l-4 -4" /> <path d="M20 4l0 3m0 13l0 -3m0 -3.5l0 -3" />
</symbol>
	<symbol id="outline-arrow-bar-to-up-dashed" xmlns="http://www.w3.org/2000/svg" width="24" height="24" viewBox="0 0 24 24" fill="none" stroke="currentColor" stroke-width="2" stroke-linecap="round" stroke-linejoin="round"
> <path d="M12 10v10" /> <path d="M12 10l4 4" /> <path d="M12 10l-4 4" /> <path d="M4 4h3m13 0h-3m-3.5 0h-3" />
</symbol>
	<symbol id="outline-chalkboard-teacher" xmlns="http://www.w3.org/2000/svg" width="24" height="24" viewBox="0 0 24 24" fill="none" stroke="currentColor" stroke-width="2" stroke-linecap="round" stroke-linejoin="round"
> <path d="M8 19h-3a2 2 0 0 1 -2 -2v-10a2 2 0 0 1 2 -2h14a2 2 0 0 1 2 2v11a1 1 0 0 1 -1 1" /> <path d="M12 14a2 2 0 1 0 4.001 -.001a2 2 0 0 0 -4.001 .001" /> <path d="M17 19a2 2 0 0 0 -2 -2h-2a2 2 0 0 0 -2 2" />
</symbol>
	<symbol id="outline-filter-2-bolt" xmlns="http://www.w3.org/2000/svg" width="24" height="24" viewBox="0 0 24 24" fill="none" stroke="currentColor" stroke-width="2" stroke-linecap="round" stroke-linejoin="round"
> <path d="M4 6h16" /> <path d="M6 12h12" /> <path d="M9 18h4" /> <path d="M19 16l-2 3h4l-2 3" />
</symbol>
	<symbol id="outline-filter-2-cancel" xmlns="http://www.w3.org/2000/svg" width="24" height="24" viewBox="0 0 24 24" fill="none" stroke="currentColor" stroke-width="2" stroke-linecap="round" stroke-linejoin="round"
> <path d="M4 6h16" /> <path d="M6 12h12" /> <path d="M9 18h3" /> <path d="M17 21l4 -4m-5 2c0 .796 .316 1.559 .879 2.121c.563 .563 1.326 .879 2.121 .879c.796 0 1.559 -.316 2.121 -.879c.563 -.563 .879 -1.326 .879 -2.121c0 -.796 -.316 -1.559 -.879 -2.121c-.563 -.563 -1.326 -.879 -2.121 -.879c-.796 0 -1.559 .316 -2.121 .879c-.563 .563 -.879 1.326 -.879 2.121z" />
</symbol>
	<symbol id="outline-filter-2-check" xmlns="http://www.w3.org/2000/svg" width="24" height="24" viewBox="0 0 24 24" fill="none" stroke="currentColor" stroke-width="2" stroke-linecap="round" stroke-linejoin="round"
> <path d="M4 6h16" /> <path d="M6 12h12" /> <path d="M9 18h2" /> <path d="M15 18l2 2l4 -4" />
</symbol>
	<symbol id="outline-filter-2-code" xmlns="http://www.w3.org/2000/svg" width="24" height="24" viewBox="0 0 24 24" fill="none" stroke="currentColor" stroke-width="2" stroke-linecap="round" stroke-linejoin="round"
> <path d="M4 6h16" /> <path d="M6 12h12" /> <path d="M9 18h2" /> <path d="M17 17l-2 2l2 2" /> <path d="M20 21l2 -2l-2 -2" />
</symbol>
	<symbol id="outline-filter-2-cog" xmlns="http://www.w3.org/2000/svg" width="24" height="24" viewBox="0 0 24 24" fill="none" stroke="currentColor" stroke-width="2" stroke-linecap="round" stroke-linejoin="round"
> <path d="M4 6h16" /> <path d="M6 12h12" /> <path d="M9 18h3" /> <path d="M19.001 21c-.53 0 -1.039 -.211 -1.414 -.586c-.375 -.375 -.586 -.884 -.586 -1.414c0 -.53 .211 -1.039 .586 -1.414c.375 -.375 .884 -.586 1.414 -.586m0 4c.53 0 1.039 -.211 1.414 -.586c.375 -.375 .586 -.884 .586 -1.414c0 -.53 -.211 -1.039 -.586 -1.414c-.375 -.375 -.884 -.586 -1.414 -.586m0 4v1.5m0 -5.5v-1.5m3.031 1.75l-1.299 .75m-3.463 2l-1.3 .75m0 -3.5l1.3 .75m3.463 2l1.3 .75" />
</symbol>
	<symbol id="outline-filter-2-discount" xmlns="http://www.w3.org/2000/svg" width="24" height="24" viewBox="0 0 24 24" fill="none" stroke="currentColor" stroke-width="2" stroke-linecap="round" stroke-linejoin="round"
> <path d="M4 6h16" /> <path d="M6 12h12" /> <path d="M9 18h3" /> <path d="M16 16v.01" /> <path d="M16 21l5 -5" /> <path d="M21 21v.01" />
</symbol>
	<symbol id="outline-filter-2-dollar" xmlns="http://www.w3.org/2000/svg" width="24" height="24" viewBox="0 0 24 24" fill="none" stroke="currentColor" stroke-width="2" stroke-linecap="round" stroke-linejoin="round"
> <path d="M4 6h16" /> <path d="M6 12h10" /> <path d="M9 18h4" /> <path d="M21 15h-2m-2 6h2m0 0v1m0 -1h.5c.398 0 .779 -.158 1.061 -.439c.281 -.281 .439 -.663 .439 -1.061c0 -.398 -.158 -.779 -.439 -1.061c-.281 -.281 -.663 -.439 -1.061 -.439h-1c-.398 0 -.779 -.158 -1.061 -.439c-.281 -.281 -.439 -.663 -.439 -1.061c0 -.398 .158 -.779 .439 -1.061c.281 -.281 .663 -.439 1.061 -.439h.5m0 -1v1" />
</symbol>
	<symbol id="outline-filter-2-down" xmlns="http://www.w3.org/2000/svg" width="24" height="24" viewBox="0 0 24 24" fill="none" stroke="currentColor" stroke-width="2" stroke-linecap="round" stroke-linejoin="round"
> <path d="M4 6h16" /> <path d="M6 12h12" /> <path d="M9 18h3" /> <path d="M19 16v6" /> <path d="M19 22l3 -3" /> <path d="M19 22l-3 -3" />
</symbol>
	<symbol id="outline-filter-2-edit" xmlns="http://www.w3.org/2000/svg" width="24" height="24" viewBox="0 0 24 24" fill="none" stroke="currentColor" stroke-width="2" stroke-linecap="round" stroke-linejoin="round"
> <path d="M4 6h16" /> <path d="M6 12h11" /> <path d="M9 18h2" /> <path d="M18.42 15.61c.195 -.195 .426 -.35 .681 -.455c.255 -.106 .528 -.16 .804 -.16c.276 0 .549 .054 .804 .16c.255 .106 .486 .26 .681 .455c.195 .195 .35 .427 .455 .681c.106 .255 .16 .528 .16 .804c0 .276 -.054 .549 -.16 .804c-.105 .255 -.26 .486 -.455 .681l-3.39 3.42h-3v-3l3.42 -3.39z" />
</symbol>
	<symbol id="outline-filter-2-exclamation" xmlns="http://www.w3.org/2000/svg" width="24" height="24" viewBox="0 0 24 24" fill="none" stroke="currentColor" stroke-width="2" stroke-linecap="round" stroke-linejoin="round"
> <path d="M4 6h16" /> <path d="M6 12h12" /> <path d="M9 18h6" /> <path d="M19 16v3m0 3v.01" />
</symbol>
	<symbol id="outline-filter-2-minus" xmlns="http://www.w3.org/2000/svg" width="24" height="24" viewBox="0 0 24 24" fill="none" stroke="currentColor" stroke-width="2" stroke-linecap="round" stroke-linejoin="round"
> <path d="M4 6h16" /> <path d="M6 12h12" /> <path d="M9 18h3" /> <path d="M16 19h6" />
</symbol>
	<symbol id="outline-filter-2-pause" xmlns="http://www.w3.org/2000/svg" width="24" height="24" viewBox="0 0 24 24" fill="none" stroke="currentColor" stroke-width="2" stroke-linecap="round" stroke-linejoin="round"
> <path d="M4 6h16" /> <path d="M6 12h12" /> <path d="M9 18h4" /> <path d="M17 17v5" /> <path d="M21 17v5" />
</symbol>
	<symbol id="outline-filter-2-pin" xmlns="http://www.w3.org/2000/svg" width="24" height="24" viewBox="0 0 24 24" fill="none" stroke="currentColor" stroke-width="2" stroke-linecap="round" stroke-linejoin="round"
> <path d="M4 6h16" /> <path d="M6 12h10" /> <path d="M9 18h3" /> <path d="M19 18v.01m2.121 2.111c.42 -.419 .706 -.954 .821 -1.536c.116 -.582 .056 -1.185 -.17 -1.733c-.227 -.548 -.611 -1.017 -1.105 -1.347c-.493 -.33 -1.073 -.506 -1.667 -.506c-.593 0 -1.173 .176 -1.667 .506c-.493 .33 -.878 .798 -1.105 1.347c-.227 .548 -.286 1.151 -.17 1.733c.116 .582 .402 1.116 .821 1.536c.418 .419 1.125 1.045 2.121 1.879c1.051 -.89 1.759 -1.516 2.121 -1.879z" />
</symbol>
	<symbol id="outline-filter-2-plus" xmlns="http://www.w3.org/2000/svg" width="24" height="24" viewBox="0 0 24 24" fill="none" stroke="currentColor" stroke-width="2" stroke-linecap="round" stroke-linejoin="round"
> <path d="M4 6h16" /> <path d="M6 12h10" /> <path d="M9 18h3" /> <path d="M19 15v6" /> <path d="M16 18h6" />
</symbol>
	<symbol id="outline-filter-2-question" xmlns="http://www.w3.org/2000/svg" width="24" height="24" viewBox="0 0 24 24" fill="none" stroke="currentColor" stroke-width="2" stroke-linecap="round" stroke-linejoin="round"
> <path d="M4 6h16" /> <path d="M6 12h10.5" /> <path d="M9 18h5" /> <path d="M19 22v.01" /> <path d="M19 19c.448 -.001 .883 -.153 1.235 -.431c.352 -.278 .6 -.666 .706 -1.101c.105 -.436 .061 -.894 -.125 -1.302c-.186 -.408 -.504 -.742 -.902 -.948c-.398 -.204 -.853 -.267 -1.291 -.179c-.438 .088 -.834 .321 -1.123 .662" />
</symbol>
	<symbol id="outline-filter-2-search" xmlns="http://www.w3.org/2000/svg" width="24" height="24" viewBox="0 0 24 24" fill="none" stroke="currentColor" stroke-width="2" stroke-linecap="round" stroke-linejoin="round"
> <path d="M4 6h16" /> <path d="M6 12h8.5" /> <path d="M9 18h2" /> <path d="M15 18c0 .796 .316 1.559 .879 2.121c.563 .563 1.326 .879 2.121 .879c.796 0 1.559 -.316 2.121 -.879c.563 -.563 .879 -1.326 .879 -2.121c0 -.796 -.316 -1.559 -.879 -2.121c-.563 -.563 -1.326 -.879 -2.121 -.879c-.796 0 -1.559 .316 -2.121 .879c-.563 .563 -.879 1.326 -.879 2.121z" /> <path d="M20.2 20.2l1.8 1.8" />
</symbol>
	<symbol id="outline-filter-2-share" xmlns="http://www.w3.org/2000/svg" width="24" height="24" viewBox="0 0 24 24" fill="none" stroke="currentColor" stroke-width="2" stroke-linecap="round" stroke-linejoin="round"
> <path d="M4 6h16" /> <path d="M6 12h12" /> <path d="M9 18h3.5" /> <path d="M16 22l5 -5" /> <path d="M21 17v4.5" /> <path d="M21 17h-4.5" />
</symbol>
	<symbol id="outline-filter-2-spark" xmlns="http://www.w3.org/2000/svg" width="24" height="24" viewBox="0 0 24 24" fill="none" stroke="currentColor" stroke-width="2" stroke-linecap="round" stroke-linejoin="round"
> <path d="M4 6h16" /> <path d="M6 12h9.5" /> <path d="M9 18h2.5" /> <path d="M19 21.5c.205 -.849 .641 -1.625 1.258 -2.242c.617 -.617 1.393 -1.053 2.242 -1.258c-.849 -.205 -1.625 -.641 -2.242 -1.258c-.617 -.617 -1.053 -1.393 -1.258 -2.242c-.205 .849 -.641 1.625 -1.258 2.242c-.617 .617 -1.393 1.053 -2.242 1.258c.849 .205 1.625 .641 2.242 1.258c.617 .617 1.053 1.393 1.258 2.242z" />
</symbol>
	<symbol id="outline-filter-2-up" xmlns="http://www.w3.org/2000/svg" width="24" height="24" viewBox="0 0 24 24" fill="none" stroke="currentColor" stroke-width="2" stroke-linecap="round" stroke-linejoin="round"
> <path d="M4 6h16" /> <path d="M6 12h12" /> <path d="M9 18h3" /> <path d="M19 22v-6m0 0l3 3m-3 -3l-3 3" />
</symbol>
	<symbol id="outline-filter-2-x" xmlns="http://www.w3.org/2000/svg" width="24" height="24" viewBox="0 0 24 24" fill="none" stroke="currentColor" stroke-width="2" stroke-linecap="round" stroke-linejoin="round"
> <path d="M4 6h16" /> <path d="M6 12h12" /> <path d="M9 18h4" /> <path d="M22 22l-5 -5m0 5l5 -5" />
</symbol>
	<symbol id="outline-filter-2" xmlns="http://www.w3.org/2000/svg" width="24" height="24" viewBox="0 0 24 24" fill="none" stroke="currentColor" stroke-width="2" stroke-linecap="round" stroke-linejoin="round"
> <path d="M4 6h16" /> <path d="M6 12h12" /> <path d="M9 18h6" />
</symbol>
	<symbol id="outline-filter-spark" xmlns="http://www.w3.org/2000/svg" width="24" height="24" viewBox="0 0 24 24" fill="none" stroke="currentColor" stroke-width="2" stroke-linecap="round" stroke-linejoin="round"
> <path d="M15 12.5v-.5l4.414 -4.414a2 2 0 0 0 .586 -1.414v-2.172h-16v2.227c0 .497 .185 .977 .52 1.345l4.48 4.928v8.5l2 -.667" /> <path d="M18.5 22a4.75 4.75 0 0 1 3.5 -3.5a4.75 4.75 0 0 1 -3.5 -3.5a4.75 4.75 0 0 1 -3.5 3.5a4.75 4.75 0 0 1 3.5 3.5" />
</symbol>

	<use xlink:href="#outline-arrow-bar-to-down-dashed" x="24" y="24" width="24" height="24" />
	<use xlink:href="#outline-arrow-bar-to-left-dashed" x="68" y="24" width="24" height="24" />
	<use xlink:href="#outline-arrow-bar-to-right-dashed" x="112" y="24" width="24" height="24" />
	<use xlink:href="#outline-arrow-bar-to-up-dashed" x="156" y="24" width="24" height="24" />
	<use xlink:href="#outline-chalkboard-teacher" x="200" y="24" width="24" height="24" />
	<use xlink:href="#outline-filter-2-bolt" x="244" y="24" width="24" height="24" />
	<use xlink:href="#outline-filter-2-cancel" x="24" y="68" width="24" height="24" />
	<use xlink:href="#outline-filter-2-check" x="68" y="68" width="24" height="24" />
	<use xlink:href="#outline-filter-2-code" x="112" y="68" width="24" height="24" />
	<use xlink:href="#outline-filter-2-cog" x="156" y="68" width="24" height="24" />
	<use xlink:href="#outline-filter-2-discount" x="200" y="68" width="24" height="24" />
	<use xlink:href="#outline-filter-2-dollar" x="244" y="68" width="24" height="24" />
	<use xlink:href="#outline-filter-2-down" x="24" y="112" width="24" height="24" />
	<use xlink:href="#outline-filter-2-edit" x="68" y="112" width="24" height="24" />
	<use xlink:href="#outline-filter-2-exclamation" x="112" y="112" width="24" height="24" />
	<use xlink:href="#outline-filter-2-minus" x="156" y="112" width="24" height="24" />
	<use xlink:href="#outline-filter-2-pause" x="200" y="112" width="24" height="24" />
	<use xlink:href="#outline-filter-2-pin" x="244" y="112" width="24" height="24" />
	<use xlink:href="#outline-filter-2-plus" x="24" y="156" width="24" height="24" />
	<use xlink:href="#outline-filter-2-question" x="68" y="156" width="24" height="24" />
	<use xlink:href="#outline-filter-2-search" x="112" y="156" width="24" height="24" />
	<use xlink:href="#outline-filter-2-share" x="156" y="156" width="24" height="24" />
	<use xlink:href="#outline-filter-2-spark" x="200" y="156" width="24" height="24" />
	<use xlink:href="#outline-filter-2-up" x="244" y="156" width="24" height="24" />
	<use xlink:href="#outline-filter-2-x" x="24" y="200" width="24" height="24" />
	<use xlink:href="#outline-filter-2" x="68" y="200" width="24" height="24" />
	<use xlink:href="#outline-filter-spark" x="112" y="200" width="24" height="24" />

</svg>