<svg xmlns="http://www.w3.org/2000/svg" xmlns:xlink="http://www.w3.org/1999/xlink" viewBox="0 0 292 160" width="292" height="160" style="color: #354052"><rect x="0" y="0" width="292" height="160" fill="#fff"></rect>
	<symbol id="abacus" class="icon icon-tabler icon-tabler-abacus" viewBox="0 0 24 24" stroke-width="2" stroke="currentColor" fill="none" stroke-linecap="round" stroke-linejoin="round"><path stroke="none" d="M0 0h24v24H0z" fill="none"/><path d="M5 3v18" /><path d="M19 21v-18" /><path d="M5 7h14" /><path d="M5 15h14" /><path d="M8 13v4" /><path d="M11 13v4" /><path d="M16 13v4" /><path d="M14 5v4" /><path d="M11 5v4" /><path d="M8 5v4" /><path d="M3 21h18" />
</symbol>
	<symbol id="baby-carriage" class="icon icon-tabler icon-tabler-baby-carriage" viewBox="0 0 24 24" stroke-width="2" stroke="currentColor" fill="none" stroke-linecap="round" stroke-linejoin="round"><path stroke="none" d="M0 0h24v24H0z" fill="none"/><circle cx="8" cy="19" r="2" /><circle cx="18" cy="19" r="2" /><path d="M2 5h2.5l1.632 4.897a6 6 0 0 0 5.693 4.103h2.675a5.5 5.5 0 0 0 0 -11h-.5v6" /><path d="M6 9h14" /><path d="M9 17l1 -3" /><path d="M16 14l1 3" />
</symbol>
	<symbol id="bell-school" class="icon icon-tabler icon-tabler-bell-school" viewBox="0 0 24 24" stroke-width="2" stroke="currentColor" fill="none" stroke-linecap="round" stroke-linejoin="round"><path stroke="none" d="M0 0h24v24H0z" fill="none"/><circle cx="10" cy="10" r="6" /><path d="M13.5 15h.5a2 2 0 0 1 2 2v1a2 2 0 0 1 -2 2h-8a2 2 0 0 1 -2 -2v-1a2 2 0 0 1 2 -2h.5" /><path d="M16 17a5.698 5.698 0 0 0 4.467 -7.932l-.467 -1.068" /><path d="M10 10v.01" /><circle cx="20" cy="8" r="1" />
</symbol>
	<symbol id="cell" class="icon icon-tabler icon-tabler-cell" viewBox="0 0 24 24" stroke-width="2" stroke="currentColor" fill="none" stroke-linecap="round" stroke-linejoin="round"><path stroke="none" d="M0 0h24v24H0z" fill="none"/><path d="M8 4l-4 2v5l4 2l4 -2v-5z" /><path d="M12 11l4 2l4 -2v-5l-4 -2l-4 2" /><path d="M8 13v5l4 2l4 -2v-5" />
</symbol>
	<symbol id="device-heart-monitor" class="icon icon-tabler icon-tabler-device-heart-monitor" viewBox="0 0 24 24" stroke-width="2" stroke="currentColor" fill="none" stroke-linecap="round" stroke-linejoin="round"><path stroke="none" d="M0 0h24v24H0z" fill="none"/><rect x="4" y="4" width="16" height="16" rx="2" /><path d="M4 9h6l1 -2l2 4l1 -2h6" /><path d="M4 14h16" /><path d="M14 17v.01" /><path d="M17 17v.01" />
</symbol>
	<symbol id="device-laptop-off" class="icon icon-tabler icon-tabler-device-laptop-off" viewBox="0 0 24 24" stroke-width="2" stroke="currentColor" fill="none" stroke-linecap="round" stroke-linejoin="round"><path stroke="none" d="M0 0h24v24H0z" fill="none"/><path d="M3 19h16" /><path d="M10 6h8a1 1 0 0 1 1 1v8m-3 1h-10a1 1 0 0 1 -1 -1v-8a1 1 0 0 1 1 -1" /><path d="M3 3l18 18" />
</symbol>
	<symbol id="device-mobile-off" class="icon icon-tabler icon-tabler-device-mobile-off" viewBox="0 0 24 24" stroke-width="2" stroke="currentColor" fill="none" stroke-linecap="round" stroke-linejoin="round"><path stroke="none" d="M0 0h24v24H0z" fill="none"/><path d="M7.174 3.178c.252 -.114 .531 -.178 .826 -.178h8a2 2 0 0 1 2 2v9m0 4v1a2 2 0 0 1 -2 2h-8a2 2 0 0 1 -2 -2v-13" /><path d="M11 4h2" /><path d="M12 17v.01" /><path d="M3 3l18 18" />
</symbol>
	<symbol id="device-tablet-off" class="icon icon-tabler icon-tabler-device-tablet-off" viewBox="0 0 24 24" stroke-width="2" stroke="currentColor" fill="none" stroke-linecap="round" stroke-linejoin="round"><path stroke="none" d="M0 0h24v24H0z" fill="none"/><path d="M7 3h11a1 1 0 0 1 1 1v11m0 4v1a1 1 0 0 1 -1 1h-12a1 1 0 0 1 -1 -1v-15" /><circle cx="12" cy="17" r="1" /><path d="M3 3l18 18" />
</symbol>
	<symbol id="device-tv-off" class="icon icon-tabler icon-tabler-device-tv-off" viewBox="0 0 24 24" stroke-width="2" stroke="currentColor" fill="none" stroke-linecap="round" stroke-linejoin="round"><path stroke="none" d="M0 0h24v24H0z" fill="none"/><path d="M11 7h8a2 2 0 0 1 2 2v8m-1.178 2.824c-.25 .113 -.529 .176 -.822 .176h-14a2 2 0 0 1 -2 -2v-9a2 2 0 0 1 2 -2h2" /><path d="M16 3l-4 4l-4 -4" /><path d="M3 3l18 18" />
</symbol>
	<symbol id="device-watch-off" class="icon icon-tabler icon-tabler-device-watch-off" viewBox="0 0 24 24" stroke-width="2" stroke="currentColor" fill="none" stroke-linecap="round" stroke-linejoin="round"><path stroke="none" d="M0 0h24v24H0z" fill="none"/><path d="M10 6h5a3 3 0 0 1 3 3v5m-.882 3.125a2.99 2.99 0 0 1 -2.118 .875h-6a3 3 0 0 1 -3 -3v-6c0 -.828 .336 -1.578 .878 -2.121" /><path d="M9 18v3h6v-3" /><path d="M9 5v-2h6v3" /><path d="M3 3l18 18" />
</symbol>
	<symbol id="devices-off" class="icon icon-tabler icon-tabler-devices-off" viewBox="0 0 24 24" stroke-width="2" stroke="currentColor" fill="none" stroke-linecap="round" stroke-linejoin="round"><path stroke="none" d="M0 0h24v24H0z" fill="none"/><path d="M13 9a1 1 0 0 1 1 -1h6a1 1 0 0 1 1 1v8m-1 3h-6a1 1 0 0 1 -1 -1v-6" /><path d="M18 8v-3a1 1 0 0 0 -1 -1h-9m-4 0a1 1 0 0 0 -1 1v12a1 1 0 0 0 1 1h9" /><path d="M16 9h2" /><path d="M3 3l18 18" />
</symbol>
	<symbol id="dialpad" class="icon icon-tabler icon-tabler-dialpad" viewBox="0 0 24 24" stroke-width="2" stroke="currentColor" fill="none" stroke-linecap="round" stroke-linejoin="round"><path stroke="none" d="M0 0h24v24H0z" fill="none"/><path d="M3 3h4v4h-4z" /><path d="M17 3h4v4h-4z" /><path d="M10 3h4v4h-4z" /><path d="M3 10h4v4h-4z" /><path d="M17 10h4v4h-4z" /><path d="M10 10h4v4h-4z" /><path d="M10 17h4v4h-4z" />
</symbol>
	<symbol id="fidget-spinner" class="icon icon-tabler icon-tabler-fidget-spinner" viewBox="0 0 24 24" stroke-width="2" stroke="currentColor" fill="none" stroke-linecap="round" stroke-linejoin="round"><path stroke="none" d="M0 0h24v24H0z" fill="none"/><path d="M10 17a3 3 0 1 1 -1.543 -2.623l2.087 -3.754a3 3 0 0 1 1.456 -5.623a3 3 0 0 1 1.457 5.623l2.087 3.754a3 3 0 1 1 -1.538 2.8l-.006 -.177h-4z" /><path d="M17 17v.01" /><path d="M7 17v.01" /><path d="M12 8v.01" />
</symbol>
	<symbol id="mail-fast" class="icon icon-tabler icon-tabler-mail-fast" viewBox="0 0 24 24" stroke-width="2" stroke="currentColor" fill="none" stroke-linecap="round" stroke-linejoin="round"><path stroke="none" d="M0 0h24v24H0z" fill="none"/><path d="M3 7h3" /><path d="M3 11h2" /><path d="M9.02 8.801l-.6 6a2 2 0 0 0 1.99 2.199h7.98a2 2 0 0 0 1.99 -1.801l.6 -6a2 2 0 0 0 -1.99 -2.199h-7.98a2 2 0 0 0 -1.99 1.801z" /><path d="M9.8 7.5l2.982 3.28a3 3 0 0 0 4.238 .202l3.28 -2.982" />
</symbol>
	<symbol id="pennant-2" class="icon icon-tabler icon-tabler-pennant-2" viewBox="0 0 24 24" stroke-width="2" stroke="currentColor" fill="none" stroke-linecap="round" stroke-linejoin="round"><path stroke="none" d="M0 0h24v24H0z" fill="none"/><path d="M16 21h-4" /><path d="M14 21v-18" /><path d="M14 4l-9 4l9 4" />
</symbol>
	<symbol id="sign-left" class="icon icon-tabler icon-tabler-sign-left" viewBox="0 0 24 24" stroke-width="2" stroke="currentColor" fill="none" stroke-linecap="round" stroke-linejoin="round"><path stroke="none" d="M0 0h24v24H0z" fill="none"/><path d="M16 21h-4" /><path d="M14 21v-10" /><path d="M14 6v-3" /><path d="M18 6h-10l-2 2.5l2 2.5h10z" />
</symbol>
	<symbol id="sign-right" class="icon icon-tabler icon-tabler-sign-right" viewBox="0 0 24 24" stroke-width="2" stroke="currentColor" fill="none" stroke-linecap="round" stroke-linejoin="round"><path stroke="none" d="M0 0h24v24H0z" fill="none"/><path d="M8 21h4" /><path d="M10 21v-10" /><path d="M10 6v-3" /><path d="M6 6h10l2 2.5l-2 2.5h-10z" />
</symbol>
	<symbol id="windsock" class="icon icon-tabler icon-tabler-windsock" viewBox="0 0 24 24" stroke-width="2" stroke="currentColor" fill="none" stroke-linecap="round" stroke-linejoin="round"><path stroke="none" d="M0 0h24v24H0z" fill="none"/><path d="M6 3v18" /><path d="M6 11l12 -1v-4l-12 -1" /><path d="M10 5.5v5" /><path d="M14 6v4" /><path d="M4 21h4" />
</symbol>

	<use xlink:href="#abacus" x="24" y="24" width="24" height="24" />
	<use xlink:href="#baby-carriage" x="68" y="24" width="24" height="24" />
	<use xlink:href="#bell-school" x="112" y="24" width="24" height="24" />
	<use xlink:href="#cell" x="156" y="24" width="24" height="24" />
	<use xlink:href="#device-heart-monitor" x="200" y="24" width="24" height="24" />
	<use xlink:href="#device-laptop-off" x="244" y="24" width="24" height="24" />
	<use xlink:href="#device-mobile-off" x="24" y="68" width="24" height="24" />
	<use xlink:href="#device-tablet-off" x="68" y="68" width="24" height="24" />
	<use xlink:href="#device-tv-off" x="112" y="68" width="24" height="24" />
	<use xlink:href="#device-watch-off" x="156" y="68" width="24" height="24" />
	<use xlink:href="#devices-off" x="200" y="68" width="24" height="24" />
	<use xlink:href="#dialpad" x="244" y="68" width="24" height="24" />
	<use xlink:href="#fidget-spinner" x="24" y="112" width="24" height="24" />
	<use xlink:href="#mail-fast" x="68" y="112" width="24" height="24" />
	<use xlink:href="#pennant-2" x="112" y="112" width="24" height="24" />
	<use xlink:href="#sign-left" x="156" y="112" width="24" height="24" />
	<use xlink:href="#sign-right" x="200" y="112" width="24" height="24" />
	<use xlink:href="#windsock" x="244" y="112" width="24" height="24" />

</svg>