<svg xmlns="http://www.w3.org/2000/svg" xmlns:xlink="http://www.w3.org/1999/xlink" viewBox="0 0 292 160" width="292" height="160" style="color: #354052"><rect x="0" y="0" width="292" height="160" fill="#fff"></rect>
	<symbol id="brand-databricks" class="icon icon-tabler icon-tabler-brand-databricks" viewBox="0 0 24 24" stroke-width="2" stroke="currentColor" fill="none" stroke-linecap="round" stroke-linejoin="round"><path stroke="none" d="M0 0h24v24H0z" fill="none"/><path d="M3 17l9 5l9 -5v-3l-9 5l-9 -5v-3l9 5l9 -5v-3l-9 5l-9 -5l9 -5l5.418 3.01" />
</symbol>
	<symbol id="brand-parsinta" class="icon icon-tabler icon-tabler-brand-parsinta" viewBox="0 0 24 24" stroke-width="2" stroke="currentColor" fill="none" stroke-linecap="round" stroke-linejoin="round"><path stroke="none" d="M0 0h24v24H0z" fill="none"/><path d="M12 3a9 9 0 1 0 9 9" /><path d="M21 12a9 9 0 0 0 -9 -9" opacity=".5" /><path d="M10 9v6l5 -3z" />
</symbol>
	<symbol id="caret-left-right" class="icon icon-tabler icon-tabler-caret-left-right" viewBox="0 0 24 24" stroke-width="2" stroke="currentColor" fill="none" stroke-linecap="round" stroke-linejoin="round"><path stroke="none" d="M0 0h24v24H0z" fill="none"/><path d="M14 18l6 -6l-6 -6v12" /><path d="M10 18l-6 -6l6 -6v12" />
</symbol>
	<symbol id="caret-up-down" class="icon icon-tabler icon-tabler-caret-up-down" viewBox="0 0 24 24" stroke-width="2" stroke="currentColor" fill="none" stroke-linecap="round" stroke-linejoin="round"><path stroke="none" d="M0 0h24v24H0z" fill="none"/><path d="M18 10l-6 -6l-6 6h12" /><path d="M18 14l-6 6l-6 -6h12" />
</symbol>
	<symbol id="hexagon-plus" class="icon icon-tabler icon-tabler-hexagon-plus" viewBox="0 0 24 24" stroke-width="2" stroke="currentColor" fill="none" stroke-linecap="round" stroke-linejoin="round"><path stroke="none" d="M0 0h24v24H0z" fill="none"/><path d="M13.092 21.72a2.269 2.269 0 0 1 -2.184 0l-6.75 -4.27a2.225 2.225 0 0 1 -1.158 -1.948v-7.285c0 -.809 .443 -1.554 1.158 -1.947l6.75 -3.98a2.33 2.33 0 0 1 2.25 0l6.75 3.98h-.033c.7 .398 1.13 1.143 1.125 1.948v4.282" /><path d="M16 19h6" /><path d="M19 16v6" />
</symbol>
	<symbol id="horse" class="icon icon-tabler icon-tabler-horse" viewBox="0 0 24 24" stroke-width="2" stroke="currentColor" fill="none" stroke-linecap="round" stroke-linejoin="round"><path stroke="none" d="M0 0h24v24H0z" fill="none"/><path d="M7 10l-.85 8.507a1.357 1.357 0 0 0 1.35 1.493h.146a2 2 0 0 0 1.857 -1.257l.994 -2.486a2 2 0 0 1 1.857 -1.257h1.292a2 2 0 0 1 1.857 1.257l.994 2.486a2 2 0 0 0 1.857 1.257h.146a1.37 1.37 0 0 0 1.364 -1.494l-.864 -9.506h-8c0 -3 -3 -5 -6 -5l-3 6l2 2l3 -2z" /><path d="M22 14v-2a3 3 0 0 0 -3 -3" />
</symbol>
	<symbol id="list-letters" class="icon icon-tabler icon-tabler-list-letters" viewBox="0 0 24 24" stroke-width="2" stroke="currentColor" fill="none" stroke-linecap="round" stroke-linejoin="round"><path stroke="none" d="M0 0h24v24H0z" fill="none"/><path d="M11 6h9" /><path d="M11 12h9" /><path d="M11 18h9" /><path d="M4 10v-4.5a1.5 1.5 0 0 1 3 0v4.5" /><path d="M4 8h3" /><path d="M4 20h1.5a1.5 1.5 0 0 0 0 -3h-1.5h1.5a1.5 1.5 0 0 0 0 -3h-1.5v6z" />
</symbol>
	<symbol id="map-pin-2" class="icon icon-tabler icon-tabler-map-pin-2" viewBox="0 0 24 24" stroke-width="2" stroke="currentColor" fill="none" stroke-linecap="round" stroke-linejoin="round"><path stroke="none" d="M0 0h24v24H0z" fill="none"/><path d="M12 18.5l-3 -1.5l-6 3v-13l6 -3l6 3l6 -3v7" /><path d="M9 4v13" /><path d="M15 7v5" /><path d="M21.121 20.121a3 3 0 1 0 -4.242 0c.418 .419 1.125 1.045 2.121 1.879c1.051 -.89 1.759 -1.516 2.121 -1.879z" /><path d="M19 18v.01" />
</symbol>
	<symbol id="pentagon-plus" class="icon icon-tabler icon-tabler-pentagon-plus" viewBox="0 0 24 24" stroke-width="2" stroke="currentColor" fill="none" stroke-linecap="round" stroke-linejoin="round"><path stroke="none" d="M0 0h24v24H0z" fill="none"/><path d="M12.5 21.005h-5.458a1.978 1.978 0 0 1 -1.881 -1.367l-3.064 -9.43a1.978 1.978 0 0 1 .719 -2.212l8.021 -5.828a1.978 1.978 0 0 1 2.326 0l8.021 5.828c.694 .504 .984 1.397 .719 2.212l-.78 2.401" /><path d="M16 19h6" /><path d="M19 16v6" />
</symbol>
	<symbol id="photo-circle" class="icon icon-tabler icon-tabler-photo-circle" viewBox="0 0 24 24" stroke-width="2" stroke="currentColor" fill="none" stroke-linecap="round" stroke-linejoin="round"><path stroke="none" d="M0 0h24v24H0z" fill="none"/><path d="M15 8h.01" /><path d="M3 16l5 -5c.928 -.893 2.072 -.893 3 0l5 5" /><path d="M14 14l1 -1c.928 -.893 2.072 -.893 3 0l3 3" /><path d="M2 12c0 5.523 4.477 10 10 10s10 -4.477 10 -10s-4.477 -10 -10 -10s-10 4.477 -10 10" />
</symbol>
	<symbol id="photo-hexagon" class="icon icon-tabler icon-tabler-photo-hexagon" viewBox="0 0 24 24" stroke-width="2" stroke="currentColor" fill="none" stroke-linecap="round" stroke-linejoin="round"><path stroke="none" d="M0 0h24v24H0z" fill="none"/><path d="M15 8h.01" /><path d="M19.875 6.27c.7 .398 1.13 1.143 1.125 1.948v7.284c0 .809 -.443 1.555 -1.158 1.948l-6.75 4.27a2.269 2.269 0 0 1 -2.184 0l-6.75 -4.27a2.225 2.225 0 0 1 -1.158 -1.948v-7.285c0 -.809 .443 -1.554 1.158 -1.947l6.75 -3.98a2.33 2.33 0 0 1 2.25 0l6.75 3.98h-.033z" /><path d="M3.5 15.5l4.5 -4.5c.928 -.893 2.072 -.893 3 0l5 5" /><path d="M14 14l1 -1c.928 -.893 2.072 -.893 3 0l2.5 2.5" />
</symbol>
	<symbol id="photo-pentagon" class="icon icon-tabler icon-tabler-photo-pentagon" viewBox="0 0 24 24" stroke-width="2" stroke="currentColor" fill="none" stroke-linecap="round" stroke-linejoin="round"><path stroke="none" d="M0 0h24v24H0z" fill="none"/><path d="M13.163 2.168l8.021 5.828c.694 .504 .984 1.397 .719 2.212l-3.064 9.43a1.978 1.978 0 0 1 -1.881 1.367h-9.916a1.978 1.978 0 0 1 -1.881 -1.367l-3.064 -9.43a1.978 1.978 0 0 1 .719 -2.212l8.021 -5.828a1.978 1.978 0 0 1 2.326 0z" /><path d="M15 8h.01" /><path d="M4 15l4 -4c.928 -.893 2.072 -.893 3 0l5 5" /><path d="M14 14l1 -1c.928 -.893 2.072 -.893 3 0l2 2" />
</symbol>
	<symbol id="photo-square-rounded" class="icon icon-tabler icon-tabler-photo-square-rounded" viewBox="0 0 24 24" stroke-width="2" stroke="currentColor" fill="none" stroke-linecap="round" stroke-linejoin="round"><path stroke="none" d="M0 0h24v24H0z" fill="none"/><path d="M15 8h.01" /><path d="M12 3c7.2 0 9 1.8 9 9s-1.8 9 -9 9s-9 -1.8 -9 -9s1.8 -9 9 -9z" /><path d="M3.5 15.5l4.5 -4.5c.928 -.893 2.072 -.893 3 0l5 5" /><path d="M14 14l1 -1c.928 -.893 2.072 -.893 3 0l2.5 2.5" />
</symbol>
	<symbol id="user-hexagon" class="icon icon-tabler icon-tabler-user-hexagon" viewBox="0 0 24 24" stroke-width="2" stroke="currentColor" fill="none" stroke-linecap="round" stroke-linejoin="round"><path stroke="none" d="M0 0h24v24H0z" fill="none"/><path d="M12 13a3 3 0 1 0 0 -6a3 3 0 0 0 0 6z" /><path d="M6.201 18.744a4 4 0 0 1 3.799 -2.744h4a4 4 0 0 1 3.798 2.741" /><path d="M19.875 6.27c.7 .398 1.13 1.143 1.125 1.948v7.284c0 .809 -.443 1.555 -1.158 1.948l-6.75 4.27a2.269 2.269 0 0 1 -2.184 0l-6.75 -4.27a2.225 2.225 0 0 1 -1.158 -1.948v-7.285c0 -.809 .443 -1.554 1.158 -1.947l6.75 -3.98a2.33 2.33 0 0 1 2.25 0l6.75 3.98h-.033z" />
</symbol>
	<symbol id="user-pentagon" class="icon icon-tabler icon-tabler-user-pentagon" viewBox="0 0 24 24" stroke-width="2" stroke="currentColor" fill="none" stroke-linecap="round" stroke-linejoin="round"><path stroke="none" d="M0 0h24v24H0z" fill="none"/><path d="M13.163 2.168l8.021 5.828c.694 .504 .984 1.397 .719 2.212l-3.064 9.43a1.978 1.978 0 0 1 -1.881 1.367h-9.916a1.978 1.978 0 0 1 -1.881 -1.367l-3.064 -9.43a1.978 1.978 0 0 1 .719 -2.212l8.021 -5.828a1.978 1.978 0 0 1 2.326 0z" /><path d="M12 13a3 3 0 1 0 0 -6a3 3 0 0 0 0 6z" /><path d="M6 20.703v-.703a4 4 0 0 1 4 -4h4a4 4 0 0 1 4 4v.707" />
</symbol>
	<symbol id="user-square-rounded" class="icon icon-tabler icon-tabler-user-square-rounded" viewBox="0 0 24 24" stroke-width="2" stroke="currentColor" fill="none" stroke-linecap="round" stroke-linejoin="round"><path stroke="none" d="M0 0h24v24H0z" fill="none"/><path d="M12 13a3 3 0 1 0 0 -6a3 3 0 0 0 0 6z" /><path d="M12 3c7.2 0 9 1.8 9 9s-1.8 9 -9 9s-9 -1.8 -9 -9s1.8 -9 9 -9z" /><path d="M6 20.05v-.05a4 4 0 0 1 4 -4h4a4 4 0 0 1 4 4v.05" />
</symbol>
	<symbol id="user-square" class="icon icon-tabler icon-tabler-user-square" viewBox="0 0 24 24" stroke-width="2" stroke="currentColor" fill="none" stroke-linecap="round" stroke-linejoin="round"><path stroke="none" d="M0 0h24v24H0z" fill="none"/><path d="M9 10a3 3 0 1 0 6 0a3 3 0 0 0 -6 0" /><path d="M6 21v-1a4 4 0 0 1 4 -4h4a4 4 0 0 1 4 4v1" /><path d="M3 5a2 2 0 0 1 2 -2h14a2 2 0 0 1 2 2v14a2 2 0 0 1 -2 2h-14a2 2 0 0 1 -2 -2v-14z" />
</symbol>
	<symbol id="vs" class="icon icon-tabler icon-tabler-vs" viewBox="0 0 24 24" stroke-width="2" stroke="currentColor" fill="none" stroke-linecap="round" stroke-linejoin="round"><path stroke="none" d="M0 0h24v24H0z" fill="none"/><path d="M2 12c0 5.523 4.477 10 10 10s10 -4.477 10 -10s-4.477 -10 -10 -10s-10 4.477 -10 10" /><path d="M14 14.25c0 .414 .336 .75 .75 .75h1.25a1 1 0 0 0 1 -1v-1a1 1 0 0 0 -1 -1h-1a1 1 0 0 1 -1 -1v-1a1 1 0 0 1 1 -1h1.25a.75 .75 0 0 1 .75 .75" /><path d="M7 9l2 6l2 -6" />
</symbol>

	<use xlink:href="#brand-databricks" x="24" y="24" width="24" height="24" />
	<use xlink:href="#brand-parsinta" x="68" y="24" width="24" height="24" />
	<use xlink:href="#caret-left-right" x="112" y="24" width="24" height="24" />
	<use xlink:href="#caret-up-down" x="156" y="24" width="24" height="24" />
	<use xlink:href="#hexagon-plus" x="200" y="24" width="24" height="24" />
	<use xlink:href="#horse" x="244" y="24" width="24" height="24" />
	<use xlink:href="#list-letters" x="24" y="68" width="24" height="24" />
	<use xlink:href="#map-pin-2" x="68" y="68" width="24" height="24" />
	<use xlink:href="#pentagon-plus" x="112" y="68" width="24" height="24" />
	<use xlink:href="#photo-circle" x="156" y="68" width="24" height="24" />
	<use xlink:href="#photo-hexagon" x="200" y="68" width="24" height="24" />
	<use xlink:href="#photo-pentagon" x="244" y="68" width="24" height="24" />
	<use xlink:href="#photo-square-rounded" x="24" y="112" width="24" height="24" />
	<use xlink:href="#user-hexagon" x="68" y="112" width="24" height="24" />
	<use xlink:href="#user-pentagon" x="112" y="112" width="24" height="24" />
	<use xlink:href="#user-square-rounded" x="156" y="112" width="24" height="24" />
	<use xlink:href="#user-square" x="200" y="112" width="24" height="24" />
	<use xlink:href="#vs" x="244" y="112" width="24" height="24" />

</svg>