<svg xmlns="http://www.w3.org/2000/svg" xmlns:xlink="http://www.w3.org/1999/xlink" viewBox="0 0 292 160" width="292" height="160" style="color: #354052"><rect x="0" y="0" width="292" height="160" fill="#fff"></rect>
	<symbol id="calendar-dot" class="icon icon-tabler icon-tabler-calendar-dot" viewBox="0 0 24 24" stroke-width="2" stroke="currentColor" fill="none" stroke-linecap="round" stroke-linejoin="round"><path stroke="none" d="M0 0h24v24H0z" fill="none"/><path d="M12.5 21h-6.5a2 2 0 0 1 -2 -2v-12a2 2 0 0 1 2 -2h12a2 2 0 0 1 2 2v5" /><path d="M16 3v4" /><path d="M8 3v4" /><path d="M4 11h16" /><path d="M19 19m-3 0a3 3 0 1 0 6 0a3 3 0 1 0 -6 0" />
</symbol>
	<symbol id="copy-check" class="icon icon-tabler icon-tabler-copy-check" viewBox="0 0 24 24" stroke-width="2" stroke="currentColor" fill="none" stroke-linecap="round" stroke-linejoin="round"><path stroke="none" d="M0 0h24v24H0z" fill="none"/><path d="M7 7m0 2.667a2.667 2.667 0 0 1 2.667 -2.667h8.666a2.667 2.667 0 0 1 2.667 2.667v8.666a2.667 2.667 0 0 1 -2.667 2.667h-8.666a2.667 2.667 0 0 1 -2.667 -2.667z" /><path d="M4.012 16.737a2.005 2.005 0 0 1 -1.012 -1.737v-10c0 -1.1 .9 -2 2 -2h10c.75 0 1.158 .385 1.5 1" /><path d="M11 14l2 2l4 -4" />
</symbol>
	<symbol id="copy-minus" class="icon icon-tabler icon-tabler-copy-minus" viewBox="0 0 24 24" stroke-width="2" stroke="currentColor" fill="none" stroke-linecap="round" stroke-linejoin="round"><path stroke="none" d="M0 0h24v24H0z" fill="none"/><path d="M7 7m0 2.667a2.667 2.667 0 0 1 2.667 -2.667h8.666a2.667 2.667 0 0 1 2.667 2.667v8.666a2.667 2.667 0 0 1 -2.667 2.667h-8.666a2.667 2.667 0 0 1 -2.667 -2.667z" /><path d="M4.012 16.737a2.005 2.005 0 0 1 -1.012 -1.737v-10c0 -1.1 .9 -2 2 -2h10c.75 0 1.158 .385 1.5 1" /><path d="M11 14h6" />
</symbol>
	<symbol id="copy-plus" class="icon icon-tabler icon-tabler-copy-plus" viewBox="0 0 24 24" stroke-width="2" stroke="currentColor" fill="none" stroke-linecap="round" stroke-linejoin="round"><path stroke="none" d="M0 0h24v24H0z" fill="none"/><path d="M7 7m0 2.667a2.667 2.667 0 0 1 2.667 -2.667h8.666a2.667 2.667 0 0 1 2.667 2.667v8.666a2.667 2.667 0 0 1 -2.667 2.667h-8.666a2.667 2.667 0 0 1 -2.667 -2.667z" /><path d="M4.012 16.737a2.005 2.005 0 0 1 -1.012 -1.737v-10c0 -1.1 .9 -2 2 -2h10c.75 0 1.158 .385 1.5 1" /><path d="M11 14h6" /><path d="M14 11v6" />
</symbol>
	<symbol id="copy-x" class="icon icon-tabler icon-tabler-copy-x" viewBox="0 0 24 24" stroke-width="2" stroke="currentColor" fill="none" stroke-linecap="round" stroke-linejoin="round"><path stroke="none" d="M0 0h24v24H0z" fill="none"/><path d="M7 7m0 2.667a2.667 2.667 0 0 1 2.667 -2.667h8.666a2.667 2.667 0 0 1 2.667 2.667v8.666a2.667 2.667 0 0 1 -2.667 2.667h-8.666a2.667 2.667 0 0 1 -2.667 -2.667z" /><path d="M4.012 16.737a2.005 2.005 0 0 1 -1.012 -1.737v-10c0 -1.1 .9 -2 2 -2h10c.75 0 1.158 .385 1.5 1" /><path d="M11.5 11.5l4.9 5" /><path d="M16.5 11.5l-5.1 5" />
</symbol>
	<symbol id="folder-root" class="icon icon-tabler icon-tabler-folder-root" viewBox="0 0 24 24" stroke-width="2" stroke="currentColor" fill="none" stroke-linecap="round" stroke-linejoin="round"><path stroke="none" d="M0 0h24v24H0z" fill="none"/><path d="M12 13m-2 0a2 2 0 1 0 4 0a2 2 0 1 0 -4 0" /><path d="M12 15v4" /><path d="M5 4h4l3 3h7a2 2 0 0 1 2 2v8a2 2 0 0 1 -2 2h-14a2 2 0 0 1 -2 -2v-11a2 2 0 0 1 2 -2" />
</symbol>
	<symbol id="gymnastics" class="icon icon-tabler icon-tabler-gymnastics" viewBox="0 0 24 24" stroke-width="2" stroke="currentColor" fill="none" stroke-linecap="round" stroke-linejoin="round"><path stroke="none" d="M0 0h24v24H0z" fill="none"/><path d="M7 7a1 1 0 1 0 2 0a1 1 0 0 0 -2 0" /><path d="M13 21l1 -9l7 -6" /><path d="M3 11h6l5 1" /><path d="M11.5 8.5l4.5 -3.5" />
</symbol>
	<symbol id="layout-bottombar-inactive" class="icon icon-tabler icon-tabler-layout-bottombar-inactive" viewBox="0 0 24 24" stroke-width="2" stroke="currentColor" fill="none" stroke-linecap="round" stroke-linejoin="round"><path stroke="none" d="M0 0h24v24H0z" fill="none"/><path d="M4 6a2 2 0 0 1 2 -2h12a2 2 0 0 1 2 2v12a2 2 0 0 1 -2 2h-12a2 2 0 0 1 -2 -2v-12z" /><path d="M4 15h1" /><path d="M19 15h1" /><path d="M9 15h1" /><path d="M14 15h1" />
</symbol>
	<symbol id="layout-navbar-inactive" class="icon icon-tabler icon-tabler-layout-navbar-inactive" viewBox="0 0 24 24" stroke-width="2" stroke="currentColor" fill="none" stroke-linecap="round" stroke-linejoin="round"><path stroke="none" d="M0 0h24v24H0z" fill="none"/><path d="M4 6a2 2 0 0 1 2 -2h12a2 2 0 0 1 2 2v12a2 2 0 0 1 -2 2h-12a2 2 0 0 1 -2 -2v-12z" /><path d="M4 9h1" /><path d="M19 9h1" /><path d="M9 9h1" /><path d="M14 9h1" />
</symbol>
	<symbol id="layout-sidebar-inactive" class="icon icon-tabler icon-tabler-layout-sidebar-inactive" viewBox="0 0 24 24" stroke-width="2" stroke="currentColor" fill="none" stroke-linecap="round" stroke-linejoin="round"><path stroke="none" d="M0 0h24v24H0z" fill="none"/><path d="M4 6a2 2 0 0 1 2 -2h12a2 2 0 0 1 2 2v12a2 2 0 0 1 -2 2h-12a2 2 0 0 1 -2 -2v-12z" /><path d="M9 4v1" /><path d="M9 9v1" /><path d="M9 14v1" /><path d="M9 19v1" />
</symbol>
	<symbol id="layout-sidebar-right-inactive" class="icon icon-tabler icon-tabler-layout-sidebar-right-inactive" viewBox="0 0 24 24" stroke-width="2" stroke="currentColor" fill="none" stroke-linecap="round" stroke-linejoin="round"><path stroke="none" d="M0 0h24v24H0z" fill="none"/><path d="M4 6a2 2 0 0 1 2 -2h12a2 2 0 0 1 2 2v12a2 2 0 0 1 -2 2h-12a2 2 0 0 1 -2 -2v-12z" /><path d="M15 4v1" /><path d="M15 9v1" /><path d="M15 14v1" /><path d="M15 19v1" />
</symbol>
	<symbol id="library-minus" class="icon icon-tabler icon-tabler-library-minus" viewBox="0 0 24 24" stroke-width="2" stroke="currentColor" fill="none" stroke-linecap="round" stroke-linejoin="round"><path stroke="none" d="M0 0h24v24H0z" fill="none"/><path d="M7 3m0 2.667a2.667 2.667 0 0 1 2.667 -2.667h8.666a2.667 2.667 0 0 1 2.667 2.667v8.666a2.667 2.667 0 0 1 -2.667 2.667h-8.666a2.667 2.667 0 0 1 -2.667 -2.667z" /><path d="M4.012 7.26a2.005 2.005 0 0 0 -1.012 1.737v10c0 1.1 .9 2 2 2h10c.75 0 1.158 -.385 1.5 -1" /><path d="M11 10h6" />
</symbol>
	<symbol id="library-photo" class="icon icon-tabler icon-tabler-library-photo" viewBox="0 0 24 24" stroke-width="2" stroke="currentColor" fill="none" stroke-linecap="round" stroke-linejoin="round"><path stroke="none" d="M0 0h24v24H0z" fill="none"/><path d="M7 3m0 2.667a2.667 2.667 0 0 1 2.667 -2.667h8.666a2.667 2.667 0 0 1 2.667 2.667v8.666a2.667 2.667 0 0 1 -2.667 2.667h-8.666a2.667 2.667 0 0 1 -2.667 -2.667z" /><path d="M4.012 7.26a2.005 2.005 0 0 0 -1.012 1.737v10c0 1.1 .9 2 2 2h10c.75 0 1.158 -.385 1.5 -1" /><path d="M17 7h.01" /><path d="M7 13l3.644 -3.644a1.21 1.21 0 0 1 1.712 0l3.644 3.644" /><path d="M15 12l1.644 -1.644a1.21 1.21 0 0 1 1.712 0l2.644 2.644" />
</symbol>
	<symbol id="library-plus" class="icon icon-tabler icon-tabler-library-plus" viewBox="0 0 24 24" stroke-width="2" stroke="currentColor" fill="none" stroke-linecap="round" stroke-linejoin="round"><path stroke="none" d="M0 0h24v24H0z" fill="none"/><path d="M7 3m0 2.667a2.667 2.667 0 0 1 2.667 -2.667h8.666a2.667 2.667 0 0 1 2.667 2.667v8.666a2.667 2.667 0 0 1 -2.667 2.667h-8.666a2.667 2.667 0 0 1 -2.667 -2.667z" /><path d="M4.012 7.26a2.005 2.005 0 0 0 -1.012 1.737v10c0 1.1 .9 2 2 2h10c.75 0 1.158 -.385 1.5 -1" /><path d="M11 10h6" /><path d="M14 7v6" />
</symbol>
	<symbol id="library" class="icon icon-tabler icon-tabler-library" viewBox="0 0 24 24" stroke-width="2" stroke="currentColor" fill="none" stroke-linecap="round" stroke-linejoin="round"><path stroke="none" d="M0 0h24v24H0z" fill="none"/><path d="M7 3m0 2.667a2.667 2.667 0 0 1 2.667 -2.667h8.666a2.667 2.667 0 0 1 2.667 2.667v8.666a2.667 2.667 0 0 1 -2.667 2.667h-8.666a2.667 2.667 0 0 1 -2.667 -2.667z" /><path d="M4.012 7.26a2.005 2.005 0 0 0 -1.012 1.737v10c0 1.1 .9 2 2 2h10c.75 0 1.158 -.385 1.5 -1" /><path d="M11 7h5" /><path d="M11 10h6" /><path d="M11 13h3" />
</symbol>
	<symbol id="message-reply" class="icon icon-tabler icon-tabler-message-reply" viewBox="0 0 24 24" stroke-width="2" stroke="currentColor" fill="none" stroke-linecap="round" stroke-linejoin="round"><path stroke="none" d="M0 0h24v24H0z" fill="none"/><path d="M18 4a3 3 0 0 1 3 3v8a3 3 0 0 1 -3 3h-5l-5 3v-3h-2a3 3 0 0 1 -3 -3v-8a3 3 0 0 1 3 -3h12z" /><path d="M11 8l-3 3l3 3" /><path d="M16 11h-8" />
</symbol>
	<symbol id="scuba-diving" class="icon icon-tabler icon-tabler-scuba-diving" viewBox="0 0 24 24" stroke-width="2" stroke="currentColor" fill="none" stroke-linecap="round" stroke-linejoin="round"><path stroke="none" d="M0 0h24v24H0z" fill="none"/><path d="M19 12a1 1 0 1 0 2 0a1 1 0 0 0 -2 0" /><path d="M2 2l3 3l1.5 4l3.5 2l6 2l1 4l2.5 3" /><path d="M11 8l4.5 1.5" />
</symbol>
	<symbol id="snowboarding" class="icon icon-tabler icon-tabler-snowboarding" viewBox="0 0 24 24" stroke-width="2" stroke="currentColor" fill="none" stroke-linecap="round" stroke-linejoin="round"><path stroke="none" d="M0 0h24v24H0z" fill="none"/><path d="M15 3a1 1 0 1 0 2 0a1 1 0 0 0 -2 0" /><path d="M7 19l4 -2.5l-.5 -1.5" /><path d="M16 21l-1 -6l-4.5 -3l3.5 -6" /><path d="M7 9l1.5 -3h5.5l2 4l3 1" /><path d="M3 17c.399 1.154 .899 1.805 1.5 1.951c6 1.464 10.772 2.262 13.5 2.927c1.333 .325 2.333 0 3 -.976" />
</symbol>

	<use xlink:href="#calendar-dot" x="24" y="24" width="24" height="24" />
	<use xlink:href="#copy-check" x="68" y="24" width="24" height="24" />
	<use xlink:href="#copy-minus" x="112" y="24" width="24" height="24" />
	<use xlink:href="#copy-plus" x="156" y="24" width="24" height="24" />
	<use xlink:href="#copy-x" x="200" y="24" width="24" height="24" />
	<use xlink:href="#folder-root" x="244" y="24" width="24" height="24" />
	<use xlink:href="#gymnastics" x="24" y="68" width="24" height="24" />
	<use xlink:href="#layout-bottombar-inactive" x="68" y="68" width="24" height="24" />
	<use xlink:href="#layout-navbar-inactive" x="112" y="68" width="24" height="24" />
	<use xlink:href="#layout-sidebar-inactive" x="156" y="68" width="24" height="24" />
	<use xlink:href="#layout-sidebar-right-inactive" x="200" y="68" width="24" height="24" />
	<use xlink:href="#library-minus" x="244" y="68" width="24" height="24" />
	<use xlink:href="#library-photo" x="24" y="112" width="24" height="24" />
	<use xlink:href="#library-plus" x="68" y="112" width="24" height="24" />
	<use xlink:href="#library" x="112" y="112" width="24" height="24" />
	<use xlink:href="#message-reply" x="156" y="112" width="24" height="24" />
	<use xlink:href="#scuba-diving" x="200" y="112" width="24" height="24" />
	<use xlink:href="#snowboarding" x="244" y="112" width="24" height="24" />

</svg>