<svg xmlns="http://www.w3.org/2000/svg" xmlns:xlink="http://www.w3.org/1999/xlink" viewBox="0 0 292 160" width="292" height="160" style="color: #354052"><rect x="0" y="0" width="292" height="160" fill="#fff"></rect>
	<symbol id="air-conditioning-disabled" class="icon icon-tabler icon-tabler-air-conditioning-disabled" viewBox="0 0 24 24" stroke-width="2" stroke="currentColor" fill="none" stroke-linecap="round" stroke-linejoin="round"><path stroke="none" d="M0 0h24v24H0z" fill="none"/><rect x="3" y="8" width="18" height="8" rx="2" /><path d="M7 16v-3a1 1 0 0 1 1 -1h8a1 1 0 0 1 1 1v3" />
</symbol>
	<symbol id="alpha" class="icon icon-tabler icon-tabler-alpha" viewBox="0 0 24 24" stroke-width="2" stroke="currentColor" fill="none" stroke-linecap="round" stroke-linejoin="round"><path stroke="none" d="M0 0h24v24H0z" fill="none"/><path d="M18.1 6c-1.1 2.913 -1.9 4.913 -2.4 6c-1.879 4.088 -3.713 6 -6 6c-2.4 0 -4.8 -2.4 -4.8 -6s2.4 -6 4.8 -6c2.267 0 4.135 1.986 6 6c.512 1.102 1.312 3.102 2.4 6" />
</symbol>
	<symbol id="beta" class="icon icon-tabler icon-tabler-beta" viewBox="0 0 24 24" stroke-width="2" stroke="currentColor" fill="none" stroke-linecap="round" stroke-linejoin="round"><path stroke="none" d="M0 0h24v24H0z" fill="none"/><path d="M8 22v-14a4 4 0 0 1 4 -4h.5a3.5 3.5 0 0 1 0 7h-.5h.5a4.5 4.5 0 1 1 -4.5 4.5v-.5" />
</symbol>
	<symbol id="braile" class="icon icon-tabler icon-tabler-braile" viewBox="0 0 24 24" stroke-width="2" stroke="currentColor" fill="none" stroke-linecap="round" stroke-linejoin="round"><path stroke="none" d="M0 0h24v24H0z" fill="none"/><path d="M15 5a1 1 0 1 0 2 0a1 1 0 0 0 -2 0z" /><path d="M7 5a1 1 0 1 0 2 0a1 1 0 0 0 -2 0z" /><path d="M7 19a1 1 0 1 0 2 0a1 1 0 0 0 -2 0z" /><path d="M16 12h.01" /><path d="M8 12h.01" /><path d="M16 19h.01" />
</symbol>
	<symbol id="clock-cancel" class="icon icon-tabler icon-tabler-clock-cancel" viewBox="0 0 24 24" stroke-width="2" stroke="currentColor" fill="none" stroke-linecap="round" stroke-linejoin="round"><path stroke="none" d="M0 0h24v24H0z" fill="none"/><circle cx="19" cy="19" r="3" /><path d="M17 21l4 -4" /><path d="M20.995 12.3a9 9 0 1 0 -8.683 8.694" /><path d="M12 7v5l2 2" />
</symbol>
	<symbol id="clock-edit" class="icon icon-tabler icon-tabler-clock-edit" viewBox="0 0 24 24" stroke-width="2" stroke="currentColor" fill="none" stroke-linecap="round" stroke-linejoin="round"><path stroke="none" d="M0 0h24v24H0z" fill="none"/><path d="M21 12a9.001 9.001 0 1 0 -9.972 8.948c.32 .034 .644 .052 .972 .052" /><path d="M12 7v5l2 2" /><path d="M18.42 15.61a2.1 2.1 0 0 1 2.97 2.97l-3.39 3.42h-3v-3l3.42 -3.39z" />
</symbol>
	<symbol id="clock-pause" class="icon icon-tabler icon-tabler-clock-pause" viewBox="0 0 24 24" stroke-width="2" stroke="currentColor" fill="none" stroke-linecap="round" stroke-linejoin="round"><path stroke="none" d="M0 0h24v24H0z" fill="none"/><path d="M13 20.94a8.916 8.916 0 0 1 -7.364 -2.576a9 9 0 1 1 15.306 -5.342" /><path d="M12 7v5l2 2" /><path d="M17 17v5" /><path d="M21 17v5" />
</symbol>
	<symbol id="clock-play" class="icon icon-tabler icon-tabler-clock-play" viewBox="0 0 24 24" stroke-width="2" stroke="currentColor" fill="none" stroke-linecap="round" stroke-linejoin="round"><path stroke="none" d="M0 0h24v24H0z" fill="none"/><path d="M12 7v5l2 2" /><path d="M17 22l5 -3l-5 -3z" /><path d="M13.017 20.943a9 9 0 1 1 7.831 -7.292" />
</symbol>
	<symbol id="clock-record" class="icon icon-tabler icon-tabler-clock-record" viewBox="0 0 24 24" stroke-width="2" stroke="currentColor" fill="none" stroke-linecap="round" stroke-linejoin="round"><path stroke="none" d="M0 0h24v24H0z" fill="none"/><path d="M20.995 12.3a9 9 0 1 0 -8.683 8.694" /><path d="M12 7v5l2 2" /><circle cx="19" cy="19" r="3" />
</symbol>
	<symbol id="clock-stop" class="icon icon-tabler icon-tabler-clock-stop" viewBox="0 0 24 24" stroke-width="2" stroke="currentColor" fill="none" stroke-linecap="round" stroke-linejoin="round"><path stroke="none" d="M0 0h24v24H0z" fill="none"/><path d="M21 12a9 9 0 1 0 -9 9" /><path d="M12 7v5l1 1" /><path d="M16 16h6v6h-6z" />
</symbol>
	<symbol id="cylinder" class="icon icon-tabler icon-tabler-cylinder" viewBox="0 0 24 24" stroke-width="2" stroke="currentColor" fill="none" stroke-linecap="round" stroke-linejoin="round"><path stroke="none" d="M0 0h24v24H0z" fill="none"/><ellipse cx="12" cy="6" rx="5" ry="3" /><path d="M7 6v12c0 1.657 2.239 3 5 3s5 -1.343 5 -3v-12" />
</symbol>
	<symbol id="sort-0-9" class="icon icon-tabler icon-tabler-sort-0-9" viewBox="0 0 24 24" stroke-width="2" stroke="currentColor" fill="none" stroke-linecap="round" stroke-linejoin="round"><path stroke="none" d="M0 0h24v24H0z" fill="none"/><path d="M11 12h2" /><path d="M4 10v4a2 2 0 1 0 4 0v-4a2 2 0 1 0 -4 0z" /><path d="M16 15a1 1 0 0 0 1 1h2a1 1 0 0 0 1 -1v-6a1 1 0 0 0 -1 -1h-2a1 1 0 0 0 -1 1v2a1 1 0 0 0 1 1h3" />
</symbol>
	<symbol id="sort-9-0" class="icon icon-tabler icon-tabler-sort-9-0" viewBox="0 0 24 24" stroke-width="2" stroke="currentColor" fill="none" stroke-linecap="round" stroke-linejoin="round"><path stroke="none" d="M0 0h24v24H0z" fill="none"/><path d="M4 15a1 1 0 0 0 1 1h2a1 1 0 0 0 1 -1v-6a1 1 0 0 0 -1 -1h-2a1 1 0 0 0 -1 1v2a1 1 0 0 0 1 1h3" /><path d="M16 10v4a2 2 0 1 0 4 0v-4a2 2 0 1 0 -4 0z" /><path d="M11 12h2" />
</symbol>
	<symbol id="sort-a-z" class="icon icon-tabler icon-tabler-sort-a-z" viewBox="0 0 24 24" stroke-width="2" stroke="currentColor" fill="none" stroke-linecap="round" stroke-linejoin="round"><path stroke="none" d="M0 0h24v24H0z" fill="none"/><path d="M16 8h4l-4 8h4" /><path d="M4 16v-6a2 2 0 1 1 4 0v6" /><path d="M4 13h4" /><path d="M11 12h2" />
</symbol>
	<symbol id="sort-z-a" class="icon icon-tabler icon-tabler-sort-z-a" viewBox="0 0 24 24" stroke-width="2" stroke="currentColor" fill="none" stroke-linecap="round" stroke-linejoin="round"><path stroke="none" d="M0 0h24v24H0z" fill="none"/><path d="M4 8h4l-4 8h4" /><path d="M16 16v-6a2 2 0 1 1 4 0v6" /><path d="M16 13h4" /><path d="M11 12h2" />
</symbol>
	<symbol id="swipe" class="icon icon-tabler icon-tabler-swipe" viewBox="0 0 24 24" stroke-width="2" stroke="currentColor" fill="none" stroke-linecap="round" stroke-linejoin="round"><path stroke="none" d="M0 0h24v24H0z" fill="none"/><g fill="#FFF"><path d="M15 16.572v2.42a2.01 2.01 0 0 1 -2.009 2.008h-7.981a2.01 2.01 0 0 1 -2.01 -2.009v-7.981a2.01 2.01 0 0 1 2.009 -2.01h2.954" /><path d="M9.167 4.511a2.04 2.04 0 0 1 2.496 -1.441l7.826 2.097a2.04 2.04 0 0 1 1.441 2.496l-2.097 7.826a2.04 2.04 0 0 1 -2.496 1.441l-7.827 -2.097a2.04 2.04 0 0 1 -1.441 -2.496l2.098 -7.827z" /></g>
</symbol>
	<symbol id="teapot" class="icon icon-tabler icon-tabler-teapot" viewBox="0 0 24 24" stroke-width="2" stroke="currentColor" fill="none" stroke-linecap="round" stroke-linejoin="round"><path stroke="none" d="M0 0h24v24H0z" fill="none"/><path d="M10.29 3h3.42a2 2 0 0 1 1.988 1.78l1.555 14a2 2 0 0 1 -1.988 2.22h-6.53a2 2 0 0 1 -1.988 -2.22l1.555 -14a2 2 0 0 1 1.988 -1.78z" /><path d="M7.47 12.5l-4.257 -5.019a0.899 .899 0 0 1 .69 -1.481h13.09a3.004 3.004 0 0 1 3.007 3v3c0 1.657 -1.346 3 -3.007 3" /><path d="M7 17h10" />
</symbol>
	<symbol id="timeline-event" class="icon icon-tabler icon-tabler-timeline-event" viewBox="0 0 24 24" stroke-width="2" stroke="currentColor" fill="none" stroke-linecap="round" stroke-linejoin="round"><path stroke="none" d="M0 0h24v24H0z" fill="none"/><circle cx="12" cy="18" r="2" /><path d="M10 18h-6" /><path d="M14 18h6" /><path d="M12 13l-2 -2h-3a1 1 0 0 1 -1 -1v-5a1 1 0 0 1 1 -1h10a1 1 0 0 1 1 1v5a1 1 0 0 1 -1 1h-3l-2 2z" />
</symbol>

	<use xlink:href="#air-conditioning-disabled" x="24" y="24" width="24" height="24" />
	<use xlink:href="#alpha" x="68" y="24" width="24" height="24" />
	<use xlink:href="#beta" x="112" y="24" width="24" height="24" />
	<use xlink:href="#braile" x="156" y="24" width="24" height="24" />
	<use xlink:href="#clock-cancel" x="200" y="24" width="24" height="24" />
	<use xlink:href="#clock-edit" x="244" y="24" width="24" height="24" />
	<use xlink:href="#clock-pause" x="24" y="68" width="24" height="24" />
	<use xlink:href="#clock-play" x="68" y="68" width="24" height="24" />
	<use xlink:href="#clock-record" x="112" y="68" width="24" height="24" />
	<use xlink:href="#clock-stop" x="156" y="68" width="24" height="24" />
	<use xlink:href="#cylinder" x="200" y="68" width="24" height="24" />
	<use xlink:href="#sort-0-9" x="244" y="68" width="24" height="24" />
	<use xlink:href="#sort-9-0" x="24" y="112" width="24" height="24" />
	<use xlink:href="#sort-a-z" x="68" y="112" width="24" height="24" />
	<use xlink:href="#sort-z-a" x="112" y="112" width="24" height="24" />
	<use xlink:href="#swipe" x="156" y="112" width="24" height="24" />
	<use xlink:href="#teapot" x="200" y="112" width="24" height="24" />
	<use xlink:href="#timeline-event" x="244" y="112" width="24" height="24" />

</svg>