<svg xmlns="http://www.w3.org/2000/svg" xmlns:xlink="http://www.w3.org/1999/xlink" viewBox="0 0 292 160" width="292" height="160" style="color: #354052"><rect x="0" y="0" width="292" height="160" fill="#fff"></rect>
	<symbol id="info-circle-filled" class="icon icon-tabler icon-tabler-info-circle-filled" viewBox="0 0 24 24" stroke-width="2" stroke="currentColor" fill="none" stroke-linecap="round" stroke-linejoin="round"><path stroke="none" d="M0 0h24v24H0z" fill="none"/><path d="M17 3.34a10 10 0 1 1 -14.995 8.984l-.005 -.324l.005 -.324a10 10 0 0 1 14.995 -8.336zm-5 7.66h-1l-.117 .007a1 1 0 0 0 .117 1.993v3l.007 .117a1 1 0 0 0 .993 .883h1l.117 -.007a1 1 0 0 0 .883 -.993l-.007 -.117a1 1 0 0 0 -.876 -.876l-.117 -.007v-3l-.007 -.117a1 1 0 0 0 -.993 -.883zm.01 -4l-.127 .007a1 1 0 0 0 .117 1.993l.127 -.007a1 1 0 0 0 -.117 -1.993z" fill="currentColor" stroke-width="0" />
</symbol>
	<symbol id="info-square-rounded-filled" class="icon icon-tabler icon-tabler-info-square-rounded-filled" viewBox="0 0 24 24" stroke-width="2" stroke="currentColor" fill="none" stroke-linecap="round" stroke-linejoin="round"><path stroke="none" d="M0 0h24v24H0z" fill="none"/><path d="M12 2c-.218 0 -.432 .002 -.642 .005l-.616 .017l-.299 .013l-.579 .034l-.553 .046c-4.785 .464 -6.732 2.411 -7.196 7.196l-.046 .553l-.034 .579c-.005 .098 -.01 .198 -.013 .299l-.017 .616l-.004 .318l-.001 .324c0 .218 .002 .432 .005 .642l.017 .616l.013 .299l.034 .579l.046 .553c.464 4.785 2.411 6.732 7.196 7.196l.553 .046l.579 .034c.098 .005 .198 .01 .299 .013l.616 .017l.642 .005l.642 -.005l.616 -.017l.299 -.013l.579 -.034l.553 -.046c4.785 -.464 6.732 -2.411 7.196 -7.196l.046 -.553l.034 -.579c.005 -.098 .01 -.198 .013 -.299l.017 -.616l.005 -.642l-.005 -.642l-.017 -.616l-.013 -.299l-.034 -.579l-.046 -.553c-.464 -4.785 -2.411 -6.732 -7.196 -7.196l-.553 -.046l-.579 -.034a28.058 28.058 0 0 0 -.299 -.013l-.616 -.017l-.318 -.004l-.324 -.001zm.01 5a1 1 0 0 1 .117 1.993l-.127 .007a1 1 0 0 1 -.117 -1.993l.127 -.007zm-.01 4a1 1 0 0 1 .993 .883l.007 .117v3l.117 .007a1 1 0 0 1 .876 .876l.007 .117a1 1 0 0 1 -.883 .993l-.117 .007h-1a1 1 0 0 1 -.993 -.883l-.007 -.117v-3a1 1 0 0 1 -.117 -1.993l.117 -.007h1z" fill="currentColor" stroke-width="0" />
</symbol>
	<symbol id="lock-square-rounded-filled" class="icon icon-tabler icon-tabler-lock-square-rounded-filled" viewBox="0 0 24 24" stroke-width="2" stroke="currentColor" fill="none" stroke-linecap="round" stroke-linejoin="round"><path stroke="none" d="M0 0h24v24H0z" fill="none"/><path d="M12 2c-.218 0 -.432 .002 -.642 .005l-.616 .017l-.299 .013l-.579 .034l-.553 .046c-4.785 .464 -6.732 2.411 -7.196 7.196l-.046 .553l-.034 .579c-.005 .098 -.01 .198 -.013 .299l-.017 .616l-.004 .318l-.001 .324c0 .218 .002 .432 .005 .642l.017 .616l.013 .299l.034 .579l.046 .553c.464 4.785 2.411 6.732 7.196 7.196l.553 .046l.579 .034c.098 .005 .198 .01 .299 .013l.616 .017l.642 .005l.642 -.005l.616 -.017l.299 -.013l.579 -.034l.553 -.046c4.785 -.464 6.732 -2.411 7.196 -7.196l.046 -.553l.034 -.579c.005 -.098 .01 -.198 .013 -.299l.017 -.616l.005 -.642l-.005 -.642l-.017 -.616l-.013 -.299l-.034 -.579l-.046 -.553c-.464 -4.785 -2.411 -6.732 -7.196 -7.196l-.553 -.046l-.579 -.034a28.058 28.058 0 0 0 -.299 -.013l-.616 -.017l-.318 -.004l-.324 -.001zm0 4a3 3 0 0 1 2.995 2.824l.005 .176v1a2 2 0 0 1 1.995 1.85l.005 .15v3a2 2 0 0 1 -1.85 1.995l-.15 .005h-6a2 2 0 0 1 -1.995 -1.85l-.005 -.15v-3a2 2 0 0 1 1.85 -1.995l.15 -.005v-1a3 3 0 0 1 3 -3zm3 6h-6v3h6v-3zm-3 -4a1 1 0 0 0 -.993 .883l-.007 .117v1h2v-1a1 1 0 0 0 -1 -1z" fill="currentColor" stroke-width="0" />
</symbol>
	<symbol id="square-rounded-arrow-down-filled" class="icon icon-tabler icon-tabler-square-rounded-arrow-down-filled" viewBox="0 0 24 24" stroke-width="2" stroke="currentColor" fill="none" stroke-linecap="round" stroke-linejoin="round"><path stroke="none" d="M0 0h24v24H0z" fill="none"/><path d="M12 2c-.218 0 -.432 .002 -.642 .005l-.616 .017l-.299 .013l-.579 .034l-.553 .046c-4.785 .464 -6.732 2.411 -7.196 7.196l-.046 .553l-.034 .579c-.005 .098 -.01 .198 -.013 .299l-.017 .616l-.004 .318l-.001 .324c0 .218 .002 .432 .005 .642l.017 .616l.013 .299l.034 .579l.046 .553c.464 4.785 2.411 6.732 7.196 7.196l.553 .046l.579 .034c.098 .005 .198 .01 .299 .013l.616 .017l.642 .005l.642 -.005l.616 -.017l.299 -.013l.579 -.034l.553 -.046c4.785 -.464 6.732 -2.411 7.196 -7.196l.046 -.553l.034 -.579c.005 -.098 .01 -.198 .013 -.299l.017 -.616l.005 -.642l-.005 -.642l-.017 -.616l-.013 -.299l-.034 -.579l-.046 -.553c-.464 -4.785 -2.411 -6.732 -7.196 -7.196l-.553 -.046l-.579 -.034a28.058 28.058 0 0 0 -.299 -.013l-.616 -.017l-.318 -.004l-.324 -.001zm0 5a1 1 0 0 1 .993 .883l.007 .117v5.585l2.293 -2.292a1 1 0 0 1 1.32 -.083l.094 .083a1 1 0 0 1 .083 1.32l-.083 .094l-4 4a1.008 1.008 0 0 1 -.112 .097l-.11 .071l-.114 .054l-.105 .035l-.149 .03l-.117 .006l-.075 -.003l-.126 -.017l-.111 -.03l-.111 -.044l-.098 -.052l-.092 -.064l-.094 -.083l-4 -4a1 1 0 0 1 1.32 -1.497l.094 .083l2.293 2.292v-5.585a1 1 0 0 1 1 -1z" fill="currentColor" stroke-width="0" />
</symbol>
	<symbol id="square-rounded-arrow-left-filled" class="icon icon-tabler icon-tabler-square-rounded-arrow-left-filled" viewBox="0 0 24 24" stroke-width="2" stroke="currentColor" fill="none" stroke-linecap="round" stroke-linejoin="round"><path stroke="none" d="M0 0h24v24H0z" fill="none"/><path d="M12 2l.324 .001l.318 .004l.616 .017l.299 .013l.579 .034l.553 .046c4.785 .464 6.732 2.411 7.196 7.196l.046 .553l.034 .579c.005 .098 .01 .198 .013 .299l.017 .616l.005 .642l-.005 .642l-.017 .616l-.013 .299l-.034 .579l-.046 .553c-.464 4.785 -2.411 6.732 -7.196 7.196l-.553 .046l-.579 .034c-.098 .005 -.198 .01 -.299 .013l-.616 .017l-.642 .005l-.642 -.005l-.616 -.017l-.299 -.013l-.579 -.034l-.553 -.046c-4.785 -.464 -6.732 -2.411 -7.196 -7.196l-.046 -.553l-.034 -.579a28.058 28.058 0 0 1 -.013 -.299l-.017 -.616c-.003 -.21 -.005 -.424 -.005 -.642l.001 -.324l.004 -.318l.017 -.616l.013 -.299l.034 -.579l.046 -.553c.464 -4.785 2.411 -6.732 7.196 -7.196l.553 -.046l.579 -.034c.098 -.005 .198 -.01 .299 -.013l.616 -.017c.21 -.003 .424 -.005 .642 -.005zm.707 5.293a1 1 0 0 0 -1.414 0l-4 4a1.037 1.037 0 0 0 -.2 .284l-.022 .052a.95 .95 0 0 0 -.06 .222l-.008 .067l-.002 .063v-.035v.073a1.034 1.034 0 0 0 .07 .352l.023 .052l.03 .061l.022 .037a1.2 1.2 0 0 0 .05 .074l.024 .03l.073 .082l4 4l.094 .083a1 1 0 0 0 1.32 -.083l.083 -.094a1 1 0 0 0 -.083 -1.32l-2.292 -2.293h5.585l.117 -.007a1 1 0 0 0 -.117 -1.993h-5.585l2.292 -2.293l.083 -.094a1 1 0 0 0 -.083 -1.32z" fill="currentColor" stroke-width="0" />
</symbol>
	<symbol id="square-rounded-arrow-right-filled" class="icon icon-tabler icon-tabler-square-rounded-arrow-right-filled" viewBox="0 0 24 24" stroke-width="2" stroke="currentColor" fill="none" stroke-linecap="round" stroke-linejoin="round"><path stroke="none" d="M0 0h24v24H0z" fill="none"/><path d="M12 2c-.218 0 -.432 .002 -.642 .005l-.616 .017l-.299 .013l-.579 .034l-.553 .046c-4.785 .464 -6.732 2.411 -7.196 7.196l-.046 .553l-.034 .579c-.005 .098 -.01 .198 -.013 .299l-.017 .616l-.004 .318l-.001 .324c0 .218 .002 .432 .005 .642l.017 .616l.013 .299l.034 .579l.046 .553c.464 4.785 2.411 6.732 7.196 7.196l.553 .046l.579 .034c.098 .005 .198 .01 .299 .013l.616 .017l.642 .005l.642 -.005l.616 -.017l.299 -.013l.579 -.034l.553 -.046c4.785 -.464 6.732 -2.411 7.196 -7.196l.046 -.553l.034 -.579c.005 -.098 .01 -.198 .013 -.299l.017 -.616l.005 -.642l-.005 -.642l-.017 -.616l-.013 -.299l-.034 -.579l-.046 -.553c-.464 -4.785 -2.411 -6.732 -7.196 -7.196l-.553 -.046l-.579 -.034a28.058 28.058 0 0 0 -.299 -.013l-.616 -.017l-.318 -.004l-.324 -.001zm.613 5.21l.094 .083l4 4a.927 .927 0 0 1 .097 .112l.071 .11l.054 .114l.035 .105l.03 .148l.006 .118l-.003 .075l-.017 .126l-.03 .111l-.044 .111l-.052 .098l-.074 .104l-.073 .082l-4 4a1 1 0 0 1 -1.497 -1.32l.083 -.094l2.292 -2.293h-5.585a1 1 0 0 1 -.117 -1.993l.117 -.007h5.585l-2.292 -2.293a1 1 0 0 1 -.083 -1.32l.083 -.094a1 1 0 0 1 1.32 -.083z" fill="currentColor" stroke-width="0" />
</symbol>
	<symbol id="square-rounded-arrow-up-filled" class="icon icon-tabler icon-tabler-square-rounded-arrow-up-filled" viewBox="0 0 24 24" stroke-width="2" stroke="currentColor" fill="none" stroke-linecap="round" stroke-linejoin="round"><path stroke="none" d="M0 0h24v24H0z" fill="none"/><path d="M12 2c-.218 0 -.432 .002 -.642 .005l-.616 .017l-.299 .013l-.579 .034l-.553 .046c-4.785 .464 -6.732 2.411 -7.196 7.196l-.046 .553l-.034 .579c-.005 .098 -.01 .198 -.013 .299l-.017 .616l-.004 .318l-.001 .324c0 .218 .002 .432 .005 .642l.017 .616l.013 .299l.034 .579l.046 .553c.464 4.785 2.411 6.732 7.196 7.196l.553 .046l.579 .034c.098 .005 .198 .01 .299 .013l.616 .017l.642 .005l.642 -.005l.616 -.017l.299 -.013l.579 -.034l.553 -.046c4.785 -.464 6.732 -2.411 7.196 -7.196l.046 -.553l.034 -.579c.005 -.098 .01 -.198 .013 -.299l.017 -.616l.005 -.642l-.005 -.642l-.017 -.616l-.013 -.299l-.034 -.579l-.046 -.553c-.464 -4.785 -2.411 -6.732 -7.196 -7.196l-.553 -.046l-.579 -.034a28.058 28.058 0 0 0 -.299 -.013l-.616 -.017l-.318 -.004l-.324 -.001zm-.148 5.011l.058 -.007l.09 -.004l.075 .003l.126 .017l.111 .03l.111 .044l.098 .052l.104 .074l.082 .073l4 4a1 1 0 0 1 -1.32 1.497l-.094 -.083l-2.293 -2.292v5.585a1 1 0 0 1 -1.993 .117l-.007 -.117v-5.585l-2.293 2.292a1 1 0 0 1 -1.32 .083l-.094 -.083a1 1 0 0 1 -.083 -1.32l.083 -.094l4 -4a.927 .927 0 0 1 .112 -.097l.11 -.071l.114 -.054l.105 -.035l.118 -.025z" fill="currentColor" stroke-width="0" />
</symbol>
	<symbol id="square-rounded-check-filled" class="icon icon-tabler icon-tabler-square-rounded-check-filled" viewBox="0 0 24 24" stroke-width="2" stroke="currentColor" fill="none" stroke-linecap="round" stroke-linejoin="round"><path stroke="none" d="M0 0h24v24H0z" fill="none"/><path d="M12 2c-.218 0 -.432 .002 -.642 .005l-.616 .017l-.299 .013l-.579 .034l-.553 .046c-4.785 .464 -6.732 2.411 -7.196 7.196l-.046 .553l-.034 .579c-.005 .098 -.01 .198 -.013 .299l-.017 .616l-.004 .318l-.001 .324c0 .218 .002 .432 .005 .642l.017 .616l.013 .299l.034 .579l.046 .553c.464 4.785 2.411 6.732 7.196 7.196l.553 .046l.579 .034c.098 .005 .198 .01 .299 .013l.616 .017l.642 .005l.642 -.005l.616 -.017l.299 -.013l.579 -.034l.553 -.046c4.785 -.464 6.732 -2.411 7.196 -7.196l.046 -.553l.034 -.579c.005 -.098 .01 -.198 .013 -.299l.017 -.616l.005 -.642l-.005 -.642l-.017 -.616l-.013 -.299l-.034 -.579l-.046 -.553c-.464 -4.785 -2.411 -6.732 -7.196 -7.196l-.553 -.046l-.579 -.034a28.058 28.058 0 0 0 -.299 -.013l-.616 -.017l-.318 -.004l-.324 -.001zm2.293 7.293a1 1 0 0 1 1.497 1.32l-.083 .094l-4 4a1 1 0 0 1 -1.32 .083l-.094 -.083l-2 -2a1 1 0 0 1 1.32 -1.497l.094 .083l1.293 1.292l3.293 -3.292z" fill="currentColor" stroke-width="0" />
</symbol>
	<symbol id="square-rounded-chevron-down-filled" class="icon icon-tabler icon-tabler-square-rounded-chevron-down-filled" viewBox="0 0 24 24" stroke-width="2" stroke="currentColor" fill="none" stroke-linecap="round" stroke-linejoin="round"><path stroke="none" d="M0 0h24v24H0z" fill="none"/><path d="M12 2c-.218 0 -.432 .002 -.642 .005l-.616 .017l-.299 .013l-.579 .034l-.553 .046c-4.785 .464 -6.732 2.411 -7.196 7.196l-.046 .553l-.034 .579c-.005 .098 -.01 .198 -.013 .299l-.017 .616l-.004 .318l-.001 .324c0 .218 .002 .432 .005 .642l.017 .616l.013 .299l.034 .579l.046 .553c.464 4.785 2.411 6.732 7.196 7.196l.553 .046l.579 .034c.098 .005 .198 .01 .299 .013l.616 .017l.642 .005l.642 -.005l.616 -.017l.299 -.013l.579 -.034l.553 -.046c4.785 -.464 6.732 -2.411 7.196 -7.196l.046 -.553l.034 -.579c.005 -.098 .01 -.198 .013 -.299l.017 -.616l.005 -.642l-.005 -.642l-.017 -.616l-.013 -.299l-.034 -.579l-.046 -.553c-.464 -4.785 -2.411 -6.732 -7.196 -7.196l-.553 -.046l-.579 -.034a28.058 28.058 0 0 0 -.299 -.013l-.616 -.017l-.318 -.004l-.324 -.001zm-3.707 8.293a1 1 0 0 1 1.32 -.083l.094 .083l2.293 2.292l2.293 -2.292a1 1 0 0 1 1.32 -.083l.094 .083a1 1 0 0 1 .083 1.32l-.083 .094l-3 3a1 1 0 0 1 -1.32 .083l-.094 -.083l-3 -3a1 1 0 0 1 0 -1.414z" fill="currentColor" stroke-width="0" />
</symbol>
	<symbol id="square-rounded-chevron-left-filled" class="icon icon-tabler icon-tabler-square-rounded-chevron-left-filled" viewBox="0 0 24 24" stroke-width="2" stroke="currentColor" fill="none" stroke-linecap="round" stroke-linejoin="round"><path stroke="none" d="M0 0h24v24H0z" fill="none"/><path d="M12 2l.324 .001l.318 .004l.616 .017l.299 .013l.579 .034l.553 .046c4.785 .464 6.732 2.411 7.196 7.196l.046 .553l.034 .579c.005 .098 .01 .198 .013 .299l.017 .616l.005 .642l-.005 .642l-.017 .616l-.013 .299l-.034 .579l-.046 .553c-.464 4.785 -2.411 6.732 -7.196 7.196l-.553 .046l-.579 .034c-.098 .005 -.198 .01 -.299 .013l-.616 .017l-.642 .005l-.642 -.005l-.616 -.017l-.299 -.013l-.579 -.034l-.553 -.046c-4.785 -.464 -6.732 -2.411 -7.196 -7.196l-.046 -.553l-.034 -.579a28.058 28.058 0 0 1 -.013 -.299l-.017 -.616c-.003 -.21 -.005 -.424 -.005 -.642l.001 -.324l.004 -.318l.017 -.616l.013 -.299l.034 -.579l.046 -.553c.464 -4.785 2.411 -6.732 7.196 -7.196l.553 -.046l.579 -.034c.098 -.005 .198 -.01 .299 -.013l.616 -.017c.21 -.003 .424 -.005 .642 -.005zm1.707 6.293a1 1 0 0 0 -1.414 0l-3 3l-.083 .094a1 1 0 0 0 .083 1.32l3 3l.094 .083a1 1 0 0 0 1.32 -.083l.083 -.094a1 1 0 0 0 -.083 -1.32l-2.292 -2.293l2.292 -2.293l.083 -.094a1 1 0 0 0 -.083 -1.32z" fill="currentColor" stroke-width="0" />
</symbol>
	<symbol id="square-rounded-chevron-right-filled" class="icon icon-tabler icon-tabler-square-rounded-chevron-right-filled" viewBox="0 0 24 24" stroke-width="2" stroke="currentColor" fill="none" stroke-linecap="round" stroke-linejoin="round"><path stroke="none" d="M0 0h24v24H0z" fill="none"/><path d="M12 2c-.218 0 -.432 .002 -.642 .005l-.616 .017l-.299 .013l-.579 .034l-.553 .046c-4.785 .464 -6.732 2.411 -7.196 7.196l-.046 .553l-.034 .579c-.005 .098 -.01 .198 -.013 .299l-.017 .616l-.004 .318l-.001 .324c0 .218 .002 .432 .005 .642l.017 .616l.013 .299l.034 .579l.046 .553c.464 4.785 2.411 6.732 7.196 7.196l.553 .046l.579 .034c.098 .005 .198 .01 .299 .013l.616 .017l.642 .005l.642 -.005l.616 -.017l.299 -.013l.579 -.034l.553 -.046c4.785 -.464 6.732 -2.411 7.196 -7.196l.046 -.553l.034 -.579c.005 -.098 .01 -.198 .013 -.299l.017 -.616l.005 -.642l-.005 -.642l-.017 -.616l-.013 -.299l-.034 -.579l-.046 -.553c-.464 -4.785 -2.411 -6.732 -7.196 -7.196l-.553 -.046l-.579 -.034a28.058 28.058 0 0 0 -.299 -.013l-.616 -.017l-.318 -.004l-.324 -.001zm-1.707 6.293a1 1 0 0 1 1.32 -.083l.094 .083l3 3a1 1 0 0 1 .083 1.32l-.083 .094l-3 3a1 1 0 0 1 -1.497 -1.32l.083 -.094l2.292 -2.293l-2.292 -2.293a1 1 0 0 1 -.083 -1.32l.083 -.094z" fill="currentColor" stroke-width="0" />
</symbol>
	<symbol id="square-rounded-chevron-up-filled" class="icon icon-tabler icon-tabler-square-rounded-chevron-up-filled" viewBox="0 0 24 24" stroke-width="2" stroke="currentColor" fill="none" stroke-linecap="round" stroke-linejoin="round"><path stroke="none" d="M0 0h24v24H0z" fill="none"/><path d="M12 2c-.218 0 -.432 .002 -.642 .005l-.616 .017l-.299 .013l-.579 .034l-.553 .046c-4.785 .464 -6.732 2.411 -7.196 7.196l-.046 .553l-.034 .579c-.005 .098 -.01 .198 -.013 .299l-.017 .616l-.004 .318l-.001 .324c0 .218 .002 .432 .005 .642l.017 .616l.013 .299l.034 .579l.046 .553c.464 4.785 2.411 6.732 7.196 7.196l.553 .046l.579 .034c.098 .005 .198 .01 .299 .013l.616 .017l.642 .005l.642 -.005l.616 -.017l.299 -.013l.579 -.034l.553 -.046c4.785 -.464 6.732 -2.411 7.196 -7.196l.046 -.553l.034 -.579c.005 -.098 .01 -.198 .013 -.299l.017 -.616l.005 -.642l-.005 -.642l-.017 -.616l-.013 -.299l-.034 -.579l-.046 -.553c-.464 -4.785 -2.411 -6.732 -7.196 -7.196l-.553 -.046l-.579 -.034a28.058 28.058 0 0 0 -.299 -.013l-.616 -.017l-.318 -.004l-.324 -.001zm-.707 7.293a1 1 0 0 1 1.32 -.083l.094 .083l3 3a1 1 0 0 1 -1.32 1.497l-.094 -.083l-2.293 -2.292l-2.293 2.292a1 1 0 0 1 -1.32 .083l-.094 -.083a1 1 0 0 1 -.083 -1.32l.083 -.094l3 -3z" fill="currentColor" stroke-width="0" />
</symbol>
	<symbol id="square-rounded-chevrons-down-filled" class="icon icon-tabler icon-tabler-square-rounded-chevrons-down-filled" viewBox="0 0 24 24" stroke-width="2" stroke="currentColor" fill="none" stroke-linecap="round" stroke-linejoin="round"><path stroke="none" d="M0 0h24v24H0z" fill="none"/><path d="M12 2c-.218 0 -.432 .002 -.642 .005l-.616 .017l-.299 .013l-.579 .034l-.553 .046c-4.785 .464 -6.732 2.411 -7.196 7.196l-.046 .553l-.034 .579c-.005 .098 -.01 .198 -.013 .299l-.017 .616l-.004 .318l-.001 .324c0 .218 .002 .432 .005 .642l.017 .616l.013 .299l.034 .579l.046 .553c.464 4.785 2.411 6.732 7.196 7.196l.553 .046l.579 .034c.098 .005 .198 .01 .299 .013l.616 .017l.642 .005l.642 -.005l.616 -.017l.299 -.013l.579 -.034l.553 -.046c4.785 -.464 6.732 -2.411 7.196 -7.196l.046 -.553l.034 -.579c.005 -.098 .01 -.198 .013 -.299l.017 -.616l.005 -.642l-.005 -.642l-.017 -.616l-.013 -.299l-.034 -.579l-.046 -.553c-.464 -4.785 -2.411 -6.732 -7.196 -7.196l-.553 -.046l-.579 -.034a28.058 28.058 0 0 0 -.299 -.013l-.616 -.017l-.318 -.004l-.324 -.001zm-3.707 6.293a1 1 0 0 1 1.32 -.083l.094 .083l2.293 2.292l2.293 -2.292a1 1 0 0 1 1.32 -.083l.094 .083a1 1 0 0 1 .083 1.32l-.083 .094l-3 3a1 1 0 0 1 -1.32 .083l-.094 -.083l-3 -3a1 1 0 0 1 0 -1.414zm0 4a1 1 0 0 1 1.32 -.083l.094 .083l2.293 2.292l2.293 -2.292a1 1 0 0 1 1.32 -.083l.094 .083a1 1 0 0 1 .083 1.32l-.083 .094l-3 3a1 1 0 0 1 -1.32 .083l-.094 -.083l-3 -3a1 1 0 0 1 0 -1.414z" fill="currentColor" stroke-width="0" />
</symbol>
	<symbol id="square-rounded-chevrons-left-filled" class="icon icon-tabler icon-tabler-square-rounded-chevrons-left-filled" viewBox="0 0 24 24" stroke-width="2" stroke="currentColor" fill="none" stroke-linecap="round" stroke-linejoin="round"><path stroke="none" d="M0 0h24v24H0z" fill="none"/><path d="M12 2c-.218 0 -.432 .002 -.642 .005l-.616 .017l-.299 .013l-.579 .034l-.553 .046c-4.785 .464 -6.732 2.411 -7.196 7.196l-.046 .553l-.034 .579c-.005 .098 -.01 .198 -.013 .299l-.017 .616l-.004 .318l-.001 .324c0 .218 .002 .432 .005 .642l.017 .616l.013 .299l.034 .579l.046 .553c.464 4.785 2.411 6.732 7.196 7.196l.553 .046l.579 .034c.098 .005 .198 .01 .299 .013l.616 .017l.642 .005l.642 -.005l.616 -.017l.299 -.013l.579 -.034l.553 -.046c4.785 -.464 6.732 -2.411 7.196 -7.196l.046 -.553l.034 -.579c.005 -.098 .01 -.198 .013 -.299l.017 -.616l.005 -.642l-.005 -.642l-.017 -.616l-.013 -.299l-.034 -.579l-.046 -.553c-.464 -4.785 -2.411 -6.732 -7.196 -7.196l-.553 -.046l-.579 -.034a28.058 28.058 0 0 0 -.299 -.013l-.616 -.017l-.318 -.004l-.324 -.001zm2.293 6.293a1 1 0 0 1 1.497 1.32l-.083 .094l-2.292 2.293l2.292 2.293a1 1 0 0 1 .083 1.32l-.083 .094a1 1 0 0 1 -1.32 .083l-.094 -.083l-3 -3a1 1 0 0 1 -.083 -1.32l.083 -.094l3 -3zm-4 0a1 1 0 0 1 1.497 1.32l-.083 .094l-2.292 2.293l2.292 2.293a1 1 0 0 1 .083 1.32l-.083 .094a1 1 0 0 1 -1.32 .083l-.094 -.083l-3 -3a1 1 0 0 1 -.083 -1.32l.083 -.094l3 -3z" fill="currentColor" stroke-width="0" />
</symbol>
	<symbol id="square-rounded-chevrons-right-filled" class="icon icon-tabler icon-tabler-square-rounded-chevrons-right-filled" viewBox="0 0 24 24" stroke-width="2" stroke="currentColor" fill="none" stroke-linecap="round" stroke-linejoin="round"><path stroke="none" d="M0 0h24v24H0z" fill="none"/><path d="M12 2c-.218 0 -.432 .002 -.642 .005l-.616 .017l-.299 .013l-.579 .034l-.553 .046c-4.785 .464 -6.732 2.411 -7.196 7.196l-.046 .553l-.034 .579c-.005 .098 -.01 .198 -.013 .299l-.017 .616l-.004 .318l-.001 .324c0 .218 .002 .432 .005 .642l.017 .616l.013 .299l.034 .579l.046 .553c.464 4.785 2.411 6.732 7.196 7.196l.553 .046l.579 .034c.098 .005 .198 .01 .299 .013l.616 .017l.642 .005l.642 -.005l.616 -.017l.299 -.013l.579 -.034l.553 -.046c4.785 -.464 6.732 -2.411 7.196 -7.196l.046 -.553l.034 -.579c.005 -.098 .01 -.198 .013 -.299l.017 -.616l.005 -.642l-.005 -.642l-.017 -.616l-.013 -.299l-.034 -.579l-.046 -.553c-.464 -4.785 -2.411 -6.732 -7.196 -7.196l-.553 -.046l-.579 -.034a28.058 28.058 0 0 0 -.299 -.013l-.616 -.017l-.318 -.004l-.324 -.001zm-3.707 6.293a1 1 0 0 1 1.32 -.083l.094 .083l3 3a1 1 0 0 1 .083 1.32l-.083 .094l-3 3a1 1 0 0 1 -1.497 -1.32l.083 -.094l2.292 -2.293l-2.292 -2.293a1 1 0 0 1 -.083 -1.32l.083 -.094zm4 0a1 1 0 0 1 1.32 -.083l.094 .083l3 3a1 1 0 0 1 .083 1.32l-.083 .094l-3 3a1 1 0 0 1 -1.497 -1.32l.083 -.094l2.292 -2.293l-2.292 -2.293a1 1 0 0 1 -.083 -1.32l.083 -.094z" fill="currentColor" stroke-width="0" />
</symbol>
	<symbol id="square-rounded-chevrons-up-filled" class="icon icon-tabler icon-tabler-square-rounded-chevrons-up-filled" viewBox="0 0 24 24" stroke-width="2" stroke="currentColor" fill="none" stroke-linecap="round" stroke-linejoin="round"><path stroke="none" d="M0 0h24v24H0z" fill="none"/><path d="M12 2c-.218 0 -.432 .002 -.642 .005l-.616 .017l-.299 .013l-.579 .034l-.553 .046c-4.785 .464 -6.732 2.411 -7.196 7.196l-.046 .553l-.034 .579c-.005 .098 -.01 .198 -.013 .299l-.017 .616l-.004 .318l-.001 .324c0 .218 .002 .432 .005 .642l.017 .616l.013 .299l.034 .579l.046 .553c.464 4.785 2.411 6.732 7.196 7.196l.553 .046l.579 .034c.098 .005 .198 .01 .299 .013l.616 .017l.642 .005l.642 -.005l.616 -.017l.299 -.013l.579 -.034l.553 -.046c4.785 -.464 6.732 -2.411 7.196 -7.196l.046 -.553l.034 -.579c.005 -.098 .01 -.198 .013 -.299l.017 -.616l.005 -.642l-.005 -.642l-.017 -.616l-.013 -.299l-.034 -.579l-.046 -.553c-.464 -4.785 -2.411 -6.732 -7.196 -7.196l-.553 -.046l-.579 -.034a28.058 28.058 0 0 0 -.299 -.013l-.616 -.017l-.318 -.004l-.324 -.001zm-.707 9.293a1 1 0 0 1 1.32 -.083l.094 .083l3 3a1 1 0 0 1 -1.32 1.497l-.094 -.083l-2.293 -2.292l-2.293 2.292a1 1 0 0 1 -1.32 .083l-.094 -.083a1 1 0 0 1 -.083 -1.32l.083 -.094l3 -3zm0 -4a1 1 0 0 1 1.32 -.083l.094 .083l3 3a1 1 0 0 1 -1.32 1.497l-.094 -.083l-2.293 -2.292l-2.293 2.292a1 1 0 0 1 -1.32 .083l-.094 -.083a1 1 0 0 1 -.083 -1.32l.083 -.094l3 -3z" fill="currentColor" stroke-width="0" />
</symbol>
	<symbol id="square-rounded-plus-filled" class="icon icon-tabler icon-tabler-square-rounded-plus-filled" viewBox="0 0 24 24" stroke-width="2" stroke="currentColor" fill="none" stroke-linecap="round" stroke-linejoin="round"><path stroke="none" d="M0 0h24v24H0z" fill="none"/><path d="M12 2l.324 .001l.318 .004l.616 .017l.299 .013l.579 .034l.553 .046c4.785 .464 6.732 2.411 7.196 7.196l.046 .553l.034 .579c.005 .098 .01 .198 .013 .299l.017 .616l.005 .642l-.005 .642l-.017 .616l-.013 .299l-.034 .579l-.046 .553c-.464 4.785 -2.411 6.732 -7.196 7.196l-.553 .046l-.579 .034c-.098 .005 -.198 .01 -.299 .013l-.616 .017l-.642 .005l-.642 -.005l-.616 -.017l-.299 -.013l-.579 -.034l-.553 -.046c-4.785 -.464 -6.732 -2.411 -7.196 -7.196l-.046 -.553l-.034 -.579a28.058 28.058 0 0 1 -.013 -.299l-.017 -.616c-.003 -.21 -.005 -.424 -.005 -.642l.001 -.324l.004 -.318l.017 -.616l.013 -.299l.034 -.579l.046 -.553c.464 -4.785 2.411 -6.732 7.196 -7.196l.553 -.046l.579 -.034c.098 -.005 .198 -.01 .299 -.013l.616 -.017c.21 -.003 .424 -.005 .642 -.005zm0 6a1 1 0 0 0 -1 1v2h-2l-.117 .007a1 1 0 0 0 .117 1.993h2v2l.007 .117a1 1 0 0 0 1.993 -.117v-2h2l.117 -.007a1 1 0 0 0 -.117 -1.993h-2v-2l-.007 -.117a1 1 0 0 0 -.993 -.883z" fill="currentColor" stroke-width="0" />
</symbol>
	<symbol id="square-rounded-x-filled" class="icon icon-tabler icon-tabler-square-rounded-x-filled" viewBox="0 0 24 24" stroke-width="2" stroke="currentColor" fill="none" stroke-linecap="round" stroke-linejoin="round"><path stroke="none" d="M0 0h24v24H0z" fill="none"/><path d="M12 2l.324 .001l.318 .004l.616 .017l.299 .013l.579 .034l.553 .046c4.785 .464 6.732 2.411 7.196 7.196l.046 .553l.034 .579c.005 .098 .01 .198 .013 .299l.017 .616l.005 .642l-.005 .642l-.017 .616l-.013 .299l-.034 .579l-.046 .553c-.464 4.785 -2.411 6.732 -7.196 7.196l-.553 .046l-.579 .034c-.098 .005 -.198 .01 -.299 .013l-.616 .017l-.642 .005l-.642 -.005l-.616 -.017l-.299 -.013l-.579 -.034l-.553 -.046c-4.785 -.464 -6.732 -2.411 -7.196 -7.196l-.046 -.553l-.034 -.579a28.058 28.058 0 0 1 -.013 -.299l-.017 -.616c-.003 -.21 -.005 -.424 -.005 -.642l.001 -.324l.004 -.318l.017 -.616l.013 -.299l.034 -.579l.046 -.553c.464 -4.785 2.411 -6.732 7.196 -7.196l.553 -.046l.579 -.034c.098 -.005 .198 -.01 .299 -.013l.616 -.017c.21 -.003 .424 -.005 .642 -.005zm-1.489 7.14a1 1 0 0 0 -1.218 1.567l1.292 1.293l-1.292 1.293l-.083 .094a1 1 0 0 0 1.497 1.32l1.293 -1.292l1.293 1.292l.094 .083a1 1 0 0 0 1.32 -1.497l-1.292 -1.293l1.292 -1.293l.083 -.094a1 1 0 0 0 -1.497 -1.32l-1.293 1.292l-1.293 -1.292l-.094 -.083z" fill="currentColor" stroke-width="0" />
</symbol>

	<use xlink:href="#info-circle-filled" x="24" y="24" width="24" height="24" />
	<use xlink:href="#info-square-rounded-filled" x="68" y="24" width="24" height="24" />
	<use xlink:href="#lock-square-rounded-filled" x="112" y="24" width="24" height="24" />
	<use xlink:href="#square-rounded-arrow-down-filled" x="156" y="24" width="24" height="24" />
	<use xlink:href="#square-rounded-arrow-left-filled" x="200" y="24" width="24" height="24" />
	<use xlink:href="#square-rounded-arrow-right-filled" x="244" y="24" width="24" height="24" />
	<use xlink:href="#square-rounded-arrow-up-filled" x="24" y="68" width="24" height="24" />
	<use xlink:href="#square-rounded-check-filled" x="68" y="68" width="24" height="24" />
	<use xlink:href="#square-rounded-chevron-down-filled" x="112" y="68" width="24" height="24" />
	<use xlink:href="#square-rounded-chevron-left-filled" x="156" y="68" width="24" height="24" />
	<use xlink:href="#square-rounded-chevron-right-filled" x="200" y="68" width="24" height="24" />
	<use xlink:href="#square-rounded-chevron-up-filled" x="244" y="68" width="24" height="24" />
	<use xlink:href="#square-rounded-chevrons-down-filled" x="24" y="112" width="24" height="24" />
	<use xlink:href="#square-rounded-chevrons-left-filled" x="68" y="112" width="24" height="24" />
	<use xlink:href="#square-rounded-chevrons-right-filled" x="112" y="112" width="24" height="24" />
	<use xlink:href="#square-rounded-chevrons-up-filled" x="156" y="112" width="24" height="24" />
	<use xlink:href="#square-rounded-plus-filled" x="200" y="112" width="24" height="24" />
	<use xlink:href="#square-rounded-x-filled" x="244" y="112" width="24" height="24" />

</svg>