<svg xmlns="http://www.w3.org/2000/svg" xmlns:xlink="http://www.w3.org/1999/xlink" viewBox="0 0 292 160" width="292" height="160" style="color: #354052"><rect x="0" y="0" width="292" height="160" fill="#fff"></rect>
	<symbol id="outline-bubble-minus" xmlns="http://www.w3.org/2000/svg" width="24" height="24" viewBox="0 0 24 24" fill="none" stroke="currentColor" stroke-width="2" stroke-linecap="round" stroke-linejoin="round"
> <path d="M12.4 19a4.2 4.2 0 0 1 -1.57 -.298l-3.83 2.298v-3.134a2.668 2.668 0 0 1 -1.795 -3.773a4.8 4.8 0 0 1 2.908 -8.933a5.335 5.335 0 0 1 9.194 1.078a5.333 5.333 0 0 1 3.404 8.771" /> <path d="M16 19h6" />
</symbol>
	<symbol id="outline-bubble-plus" xmlns="http://www.w3.org/2000/svg" width="24" height="24" viewBox="0 0 24 24" fill="none" stroke="currentColor" stroke-width="2" stroke-linecap="round" stroke-linejoin="round"
> <path d="M12.4 19a4.2 4.2 0 0 1 -1.57 -.298l-3.83 2.298v-3.134a2.668 2.668 0 0 1 -1.795 -3.773a4.8 4.8 0 0 1 2.908 -8.933a5.335 5.335 0 0 1 9.194 1.078a5.333 5.333 0 0 1 4.45 6.89" /> <path d="M16 19h6" /> <path d="M19 16v6" />
</symbol>
	<symbol id="outline-bubble-text" xmlns="http://www.w3.org/2000/svg" width="24" height="24" viewBox="0 0 24 24" fill="none" stroke="currentColor" stroke-width="2" stroke-linecap="round" stroke-linejoin="round"
> <path d="M7 10h10" /> <path d="M9 14h5" /> <path d="M12.4 3a5.34 5.34 0 0 1 4.906 3.239a5.333 5.333 0 0 1 -1.195 10.6a4.26 4.26 0 0 1 -5.28 1.863l-3.831 2.298v-3.134a2.668 2.668 0 0 1 -1.795 -3.773a4.8 4.8 0 0 1 2.908 -8.933a5.33 5.33 0 0 1 4.287 -2.16" />
</symbol>
	<symbol id="outline-bubble-x" xmlns="http://www.w3.org/2000/svg" width="24" height="24" viewBox="0 0 24 24" fill="none" stroke="currentColor" stroke-width="2" stroke-linecap="round" stroke-linejoin="round"
> <path d="M13.5 18.75c-.345 .09 -.727 .25 -1.1 .25a4.3 4.3 0 0 1 -1.57 -.298l-3.83 2.298v-3.134a2.668 2.668 0 0 1 -1.795 -3.773a4.8 4.8 0 0 1 2.908 -8.933a5.335 5.335 0 0 1 9.194 1.078a5.333 5.333 0 0 1 4.484 6.778" /> <path d="M22 22l-5 -5" /> <path d="M17 22l5 -5" />
</symbol>
	<symbol id="outline-bubble" xmlns="http://www.w3.org/2000/svg" width="24" height="24" viewBox="0 0 24 24" fill="none" stroke="currentColor" stroke-width="2" stroke-linecap="round" stroke-linejoin="round"
> <path d="M12.4 3a5.34 5.34 0 0 1 4.906 3.239a5.333 5.333 0 0 1 -1.195 10.6a4.26 4.26 0 0 1 -5.28 1.863l-3.831 2.298v-3.134a2.668 2.668 0 0 1 -1.795 -3.773a4.8 4.8 0 0 1 2.908 -8.933a5.33 5.33 0 0 1 4.287 -2.16" />
</symbol>
	<symbol id="outline-carambola" xmlns="http://www.w3.org/2000/svg" width="24" height="24" viewBox="0 0 24 24" fill="none" stroke="currentColor" stroke-width="2" stroke-linecap="round" stroke-linejoin="round"
> <path d="M17.286 21.09q -1.69 .001 -5.288 -2.615q -3.596 2.617 -5.288 2.616q -2.726 0 -.495 -6.8q -9.389 -6.775 2.135 -6.775h.076q 1.785 -5.516 3.574 -5.516q 1.785 0 3.574 5.516h.076q 11.525 0 2.133 6.774q 2.23 6.802 -.497 6.8" />
</symbol>
	<symbol id="outline-circle-dashed-check" xmlns="http://www.w3.org/2000/svg" width="24" height="24" viewBox="0 0 24 24" fill="none" stroke="currentColor" stroke-width="2" stroke-linecap="round" stroke-linejoin="round"
> <path d="M8.56 3.69a9 9 0 0 0 -2.92 1.95" /> <path d="M3.69 8.56a9 9 0 0 0 -.69 3.44" /> <path d="M3.69 15.44a9 9 0 0 0 1.95 2.92" /> <path d="M8.56 20.31a9 9 0 0 0 3.44 .69" /> <path d="M15.44 20.31a9 9 0 0 0 2.92 -1.95" /> <path d="M20.31 15.44a9 9 0 0 0 .69 -3.44" /> <path d="M20.31 8.56a9 9 0 0 0 -1.95 -2.92" /> <path d="M15.44 3.69a9 9 0 0 0 -3.44 -.69" /> <path d="M9 12l2 2l4 -4" />
</symbol>
	<symbol id="outline-circle-dashed-minus" xmlns="http://www.w3.org/2000/svg" width="24" height="24" viewBox="0 0 24 24" fill="none" stroke="currentColor" stroke-width="2" stroke-linecap="round" stroke-linejoin="round"
> <path d="M8.56 3.69a9 9 0 0 0 -2.92 1.95" /> <path d="M3.69 8.56a9 9 0 0 0 -.69 3.44" /> <path d="M3.69 15.44a9 9 0 0 0 1.95 2.92" /> <path d="M8.56 20.31a9 9 0 0 0 3.44 .69" /> <path d="M15.44 20.31a9 9 0 0 0 2.92 -1.95" /> <path d="M20.31 15.44a9 9 0 0 0 .69 -3.44" /> <path d="M20.31 8.56a9 9 0 0 0 -1.95 -2.92" /> <path d="M15.44 3.69a9 9 0 0 0 -3.44 -.69" /> <path d="M9 12h6" />
</symbol>
	<symbol id="outline-circle-dashed-plus" xmlns="http://www.w3.org/2000/svg" width="24" height="24" viewBox="0 0 24 24" fill="none" stroke="currentColor" stroke-width="2" stroke-linecap="round" stroke-linejoin="round"
> <path d="M8.56 3.69a9 9 0 0 0 -2.92 1.95" /> <path d="M3.69 8.56a9 9 0 0 0 -.69 3.44" /> <path d="M3.69 15.44a9 9 0 0 0 1.95 2.92" /> <path d="M8.56 20.31a9 9 0 0 0 3.44 .69" /> <path d="M15.44 20.31a9 9 0 0 0 2.92 -1.95" /> <path d="M20.31 15.44a9 9 0 0 0 .69 -3.44" /> <path d="M20.31 8.56a9 9 0 0 0 -1.95 -2.92" /> <path d="M15.44 3.69a9 9 0 0 0 -3.44 -.69" /> <path d="M9 12h6" /> <path d="M12 9v6" />
</symbol>
	<symbol id="outline-dumpling" xmlns="http://www.w3.org/2000/svg" width="24" height="24" viewBox="0 0 24 24" fill="none" stroke="currentColor" stroke-width="2" stroke-linecap="round" stroke-linejoin="round"
> <path d="M5.532 5.532a2.53 2.53 0 0 1 2.56 -.623a2.532 2.532 0 0 1 4.604 -.717q .146 -.24 .356 -.45a2.532 2.532 0 0 1 4.318 1.637a2.53 2.53 0 0 1 2.844 .511l.358 .358c1.384 1.385 -.7 5.713 -4.655 9.669c-3.956 3.955 -8.284 6.04 -9.669 4.655l-.358 -.358l-.114 -.122a2.53 2.53 0 0 1 -.398 -2.724a2.532 2.532 0 0 1 -1.186 -4.675a2.532 2.532 0 0 1 .718 -4.603a2.53 2.53 0 0 1 .622 -2.558" />
</symbol>
	<symbol id="outline-monkeybar" xmlns="http://www.w3.org/2000/svg" width="24" height="24" viewBox="0 0 24 24" fill="none" stroke="currentColor" stroke-width="2" stroke-linecap="round" stroke-linejoin="round"
> <path d="M3 21v-15l5 -3l5 3v15" /> <path d="M8 21v-7" /> <path d="M3 14h10" /> <path d="M6 10a2 2 0 1 1 4 0" /> <path d="M13 13c6 0 3 8 8 8" />
</symbol>
	<symbol id="outline-pentagon-minus" xmlns="http://www.w3.org/2000/svg" width="24" height="24" viewBox="0 0 24 24" fill="none" stroke="currentColor" stroke-width="2" stroke-linecap="round" stroke-linejoin="round"
> <path d="M12.5 21q -1.82 0 -5.458 .005a1.98 1.98 0 0 1 -1.881 -1.367l-3.064 -9.43a1.98 1.98 0 0 1 .719 -2.212l8.021 -5.828a1.98 1.98 0 0 1 2.326 0l8.021 5.828c.694 .504 .984 1.397 .719 2.212l-1.559 4.792" /> <path d="M16 19h6" />
</symbol>
	<symbol id="outline-text-wrap-column" xmlns="http://www.w3.org/2000/svg" width="24" height="24" viewBox="0 0 24 24" fill="none" stroke="currentColor" stroke-width="2" stroke-linecap="round" stroke-linejoin="round"
> <path d="M7 9h7a3 3 0 0 1 0 6h-4l2 -2" /> <path d="M12 17l-2 -2" /> <path d="M3 3v18" /> <path d="M21 3v18" />
</symbol>
	<symbol id="filled-bubble" xmlns="http://www.w3.org/2000/svg" width="24" height="24" viewBox="0 0 24 24" fill="currentColor"
> <path d="M12.4 2a6.33 6.33 0 0 1 5.491 3.176l.09 .162l.126 .027a6.335 6.335 0 0 1 4.889 5.934l.004 .234a6.333 6.333 0 0 1 -6.333 6.334l-.035 -.002l-.035 .05a5.26 5.26 0 0 1 -3.958 2.08l-.239 .005q -.722 0 -1.404 -.19l-.047 -.014l-3.434 2.061a1 1 0 0 1 -1.509 -.743l-.006 -.114v-2.434l-.121 -.06a3.67 3.67 0 0 1 -1.94 -3.042l-.006 -.197q 0 -.365 .07 -.717l.013 -.058l-.113 -.09a5.8 5.8 0 0 1 -2.098 -4.218l-.005 -.25a5.8 5.8 0 0 1 5.8 -5.8l.058 .001l.15 -.163a6.32 6.32 0 0 1 4.328 -1.967z" />
</symbol>
	<symbol id="filled-picture-in-picture-top" xmlns="http://www.w3.org/2000/svg" width="24" height="24" viewBox="0 0 24 24" fill="currentColor"
> <path d="M11 4a1 1 0 0 1 0 2h-6a1 1 0 0 0 -1 1v10a1 1 0 0 0 1 1h14a1 1 0 0 0 1 -1v-4a1 1 0 0 1 2 0v4a3 3 0 0 1 -3 3h-14a3 3 0 0 1 -3 -3v-10a3 3 0 0 1 3 -3z" /> <path d="M20 4a2 2 0 0 1 2 2v3a2 2 0 0 1 -2 2h-5a2 2 0 0 1 -2 -2v-3a2 2 0 0 1 2 -2z" />
</symbol>
	<symbol id="filled-picture-in-picture" xmlns="http://www.w3.org/2000/svg" width="24" height="24" viewBox="0 0 24 24" fill="currentColor"
> <path d="M19 4a3 3 0 0 1 3 3v4a1 1 0 0 1 -2 0v-4a1 1 0 0 0 -1 -1h-14a1 1 0 0 0 -1 1v10a1 1 0 0 0 1 1h6a1 1 0 0 1 0 2h-6a3 3 0 0 1 -3 -3v-10a3 3 0 0 1 3 -3z" /> <path d="M20 13a2 2 0 0 1 2 2v3a2 2 0 0 1 -2 2h-5a2 2 0 0 1 -2 -2v-3a2 2 0 0 1 2 -2z" />
</symbol>
	<symbol id="filled-toggle-left" xmlns="http://www.w3.org/2000/svg" width="24" height="24" viewBox="0 0 24 24" fill="currentColor"
> <path d="M8 9a3 3 0 1 1 -3 3l.005 -.176a3 3 0 0 1 2.995 -2.824" /> <path d="M16 5a7 7 0 0 1 0 14h-8a7 7 0 0 1 0 -14zm0 2h-8a5 5 0 1 0 0 10h8a5 5 0 0 0 0 -10" />
</symbol>
	<symbol id="filled-toggle-right" xmlns="http://www.w3.org/2000/svg" width="24" height="24" viewBox="0 0 24 24" fill="currentColor"
> <path d="M16 9a3 3 0 1 1 -3 3l.005 -.176a3 3 0 0 1 2.995 -2.824" /> <path d="M16 5a7 7 0 0 1 0 14h-8a7 7 0 0 1 0 -14zm0 2h-8a5 5 0 1 0 0 10h8a5 5 0 0 0 0 -10" />
</symbol>

	<use xlink:href="#outline-bubble-minus" x="24" y="24" width="24" height="24" />
	<use xlink:href="#outline-bubble-plus" x="68" y="24" width="24" height="24" />
	<use xlink:href="#outline-bubble-text" x="112" y="24" width="24" height="24" />
	<use xlink:href="#outline-bubble-x" x="156" y="24" width="24" height="24" />
	<use xlink:href="#outline-bubble" x="200" y="24" width="24" height="24" />
	<use xlink:href="#outline-carambola" x="244" y="24" width="24" height="24" />
	<use xlink:href="#outline-circle-dashed-check" x="24" y="68" width="24" height="24" />
	<use xlink:href="#outline-circle-dashed-minus" x="68" y="68" width="24" height="24" />
	<use xlink:href="#outline-circle-dashed-plus" x="112" y="68" width="24" height="24" />
	<use xlink:href="#outline-dumpling" x="156" y="68" width="24" height="24" />
	<use xlink:href="#outline-monkeybar" x="200" y="68" width="24" height="24" />
	<use xlink:href="#outline-pentagon-minus" x="244" y="68" width="24" height="24" />
	<use xlink:href="#outline-text-wrap-column" x="24" y="112" width="24" height="24" />
	<use xlink:href="#filled-bubble" x="68" y="112" width="24" height="24" />
	<use xlink:href="#filled-picture-in-picture-top" x="112" y="112" width="24" height="24" />
	<use xlink:href="#filled-picture-in-picture" x="156" y="112" width="24" height="24" />
	<use xlink:href="#filled-toggle-left" x="200" y="112" width="24" height="24" />
	<use xlink:href="#filled-toggle-right" x="244" y="112" width="24" height="24" />

</svg>