<svg xmlns="http://www.w3.org/2000/svg" xmlns:xlink="http://www.w3.org/1999/xlink" viewBox="0 0 292 160" width="292" height="160" style="color: #354052"><rect x="0" y="0" width="292" height="160" fill="#fff"></rect>
	<symbol id="archive-filled" class="icon icon-tabler icon-tabler-archive-filled" viewBox="0 0 24 24" stroke-width="2" stroke="currentColor" fill="none" stroke-linecap="round" stroke-linejoin="round"><path stroke="none" d="M0 0h24v24H0z" fill="none"/><rect x="2" y="3" width="20" height="4" rx="2" stroke-width="0" fill="currentColor" /><path d="M19 9c.513 0 .936 .463 .993 1.06l.007 .14v7.2c0 1.917 -1.249 3.484 -2.824 3.594l-.176 .006h-10c-1.598 0 -2.904 -1.499 -2.995 -3.388l-.005 -.212v-7.2c0 -.663 .448 -1.2 1 -1.2h14zm-5 2h-4l-.117 .007a1 1 0 0 0 0 1.986l.117 .007h4l.117 -.007a1 1 0 0 0 0 -1.986l-.117 -.007z" stroke-width="0" fill="currentColor" />
</symbol>
	<symbol id="artboard-filled" class="icon icon-tabler icon-tabler-artboard-filled" viewBox="0 0 24 24" stroke-width="2" stroke="currentColor" fill="none" stroke-linecap="round" stroke-linejoin="round"><path stroke="none" d="M0 0h24v24H0z" fill="none"/><path d="M15 7h-6a2 2 0 0 0 -2 2v6a2 2 0 0 0 2 2h6a2 2 0 0 0 2 -2v-6a2 2 0 0 0 -2 -2z" stroke-width="0" fill="currentColor" /><path d="M4 7a1 1 0 0 1 .117 1.993l-.117 .007h-1a1 1 0 0 1 -.117 -1.993l.117 -.007h1z" stroke-width="0" fill="currentColor" /><path d="M4 15a1 1 0 0 1 .117 1.993l-.117 .007h-1a1 1 0 0 1 -.117 -1.993l.117 -.007h1z" stroke-width="0" fill="currentColor" /><path d="M8 2a1 1 0 0 1 .993 .883l.007 .117v1a1 1 0 0 1 -1.993 .117l-.007 -.117v-1a1 1 0 0 1 1 -1z" stroke-width="0" fill="currentColor" /><path d="M16 2a1 1 0 0 1 .993 .883l.007 .117v1a1 1 0 0 1 -1.993 .117l-.007 -.117v-1a1 1 0 0 1 1 -1z" stroke-width="0" fill="currentColor" /><path d="M21 7a1 1 0 0 1 .117 1.993l-.117 .007h-1a1 1 0 0 1 -.117 -1.993l.117 -.007h1z" stroke-width="0" fill="currentColor" /><path d="M21 15a1 1 0 0 1 .117 1.993l-.117 .007h-1a1 1 0 0 1 -.117 -1.993l.117 -.007h1z" stroke-width="0" fill="currentColor" /><path d="M8 19a1 1 0 0 1 .993 .883l.007 .117v1a1 1 0 0 1 -1.993 .117l-.007 -.117v-1a1 1 0 0 1 1 -1z" stroke-width="0" fill="currentColor" /><path d="M16 19a1 1 0 0 1 .993 .883l.007 .117v1a1 1 0 0 1 -1.993 .117l-.007 -.117v-1a1 1 0 0 1 1 -1z" stroke-width="0" fill="currentColor" />
</symbol>
	<symbol id="balloon-filled" class="icon icon-tabler icon-tabler-balloon-filled" viewBox="0 0 24 24" stroke-width="2" stroke="currentColor" fill="none" stroke-linecap="round" stroke-linejoin="round"><path stroke="none" d="M0 0h24v24H0z" fill="none"/><path d="M12 1a7 7 0 0 1 7 7c0 5.457 -3.028 10 -7 10c-3.9 0 -6.89 -4.379 -6.997 -9.703l-.003 -.297l.004 -.24a7 7 0 0 1 6.996 -6.76zm0 4a1 1 0 0 0 0 2l.117 .007a1 1 0 0 1 .883 .993l.007 .117a1 1 0 0 0 1.993 -.117a3 3 0 0 0 -3 -3z" stroke-width="0" fill="currentColor" /><path d="M12 16a1 1 0 0 1 .993 .883l.007 .117v1a3 3 0 0 1 -2.824 2.995l-.176 .005h-3a1 1 0 0 0 -.993 .883l-.007 .117a1 1 0 0 1 -2 0a3 3 0 0 1 2.824 -2.995l.176 -.005h3a1 1 0 0 0 .993 -.883l.007 -.117v-1a1 1 0 0 1 1 -1z" stroke-width="0" fill="currentColor" />
</symbol>
	<symbol id="ballpen-filled" class="icon icon-tabler icon-tabler-ballpen-filled" viewBox="0 0 24 24" stroke-width="2" stroke="currentColor" fill="none" stroke-linecap="round" stroke-linejoin="round"><path stroke="none" d="M0 0h24v24H0z" fill="none"/><path d="M17.828 2a3 3 0 0 1 1.977 .743l.145 .136l1.171 1.17a3 3 0 0 1 .136 4.1l-.136 .144l-1.706 1.707l2.292 2.293a1 1 0 0 1 .083 1.32l-.083 .094l-4 4a1 1 0 0 1 -1.497 -1.32l.083 -.094l3.292 -3.293l-1.586 -1.585l-7.464 7.464a3.828 3.828 0 0 1 -2.474 1.114l-.233 .008c-.674 0 -1.33 -.178 -1.905 -.508l-1.216 1.214a1 1 0 0 1 -1.497 -1.32l.083 -.094l1.214 -1.216a3.828 3.828 0 0 1 .454 -4.442l.16 -.17l10.586 -10.586a3 3 0 0 1 1.923 -.873l.198 -.006zm0 2a1 1 0 0 0 -.608 .206l-.099 .087l-1.707 1.707l2.586 2.585l1.707 -1.706a1 1 0 0 0 .284 -.576l.01 -.131a1 1 0 0 0 -.207 -.609l-.087 -.099l-1.171 -1.171a1 1 0 0 0 -.708 -.293z" stroke-width="0" fill="currentColor" />
</symbol>
	<symbol id="bomb-filled" class="icon icon-tabler icon-tabler-bomb-filled" viewBox="0 0 24 24" stroke-width="2" stroke="currentColor" fill="none" stroke-linecap="round" stroke-linejoin="round"><path stroke="none" d="M0 0h24v24H0z" fill="none"/><path d="M14.499 3.996a2.2 2.2 0 0 1 1.556 .645l3.302 3.301a2.2 2.2 0 0 1 0 3.113l-.567 .567l.043 .192a8.5 8.5 0 0 1 -3.732 8.83l-.23 .144a8.5 8.5 0 1 1 -2.687 -15.623l.192 .042l.567 -.566a2.2 2.2 0 0 1 1.362 -.636zm-4.499 5.004a4 4 0 0 0 -4 4a1 1 0 0 0 2 0a2 2 0 0 1 2 -2a1 1 0 0 0 0 -2z" stroke-width="0" fill="currentColor" /><path d="M21 2a1 1 0 0 1 .117 1.993l-.117 .007h-1c0 .83 -.302 1.629 -.846 2.25l-.154 .163l-1.293 1.293a1 1 0 0 1 -1.497 -1.32l.083 -.094l1.293 -1.292c.232 -.232 .375 -.537 .407 -.86l.007 -.14a2 2 0 0 1 1.85 -1.995l.15 -.005h1z" stroke-width="0" fill="currentColor" />
</symbol>
	<symbol id="book-filled" class="icon icon-tabler icon-tabler-book-filled" viewBox="0 0 24 24" stroke-width="2" stroke="currentColor" fill="none" stroke-linecap="round" stroke-linejoin="round"><path stroke="none" d="M0 0h24v24H0z" fill="none"/><path d="M12.088 4.82a10 10 0 0 1 9.412 .314a1 1 0 0 1 .493 .748l.007 .118v13a1 1 0 0 1 -1.5 .866a8 8 0 0 0 -8 0a1 1 0 0 1 -1 0a8 8 0 0 0 -7.733 -.148l-.327 .18l-.103 .044l-.049 .016l-.11 .026l-.061 .01l-.117 .006h-.042l-.11 -.012l-.077 -.014l-.108 -.032l-.126 -.056l-.095 -.056l-.089 -.067l-.06 -.056l-.073 -.082l-.064 -.089l-.022 -.036l-.032 -.06l-.044 -.103l-.016 -.049l-.026 -.11l-.01 -.061l-.004 -.049l-.002 -.068v-13a1 1 0 0 1 .5 -.866a10 10 0 0 1 9.412 -.314l.088 .044l.088 -.044z" stroke-width="0" fill="currentColor" />
</symbol>
	<symbol id="bookmark-filled" class="icon icon-tabler icon-tabler-bookmark-filled" viewBox="0 0 24 24" stroke-width="2" stroke="currentColor" fill="none" stroke-linecap="round" stroke-linejoin="round"><path stroke="none" d="M0 0h24v24H0z" fill="none"/><path d="M15 3a3 3 0 0 1 2.995 2.824l.005 .176v14a1 1 0 0 1 -1.413 .911l-.101 -.054l-4.487 -2.691l-4.485 2.691a1 1 0 0 1 -1.508 -.743l-.006 -.114v-14a3 3 0 0 1 2.824 -2.995l.176 -.005h6z" stroke-width="0" fill="currentColor" />
</symbol>
	<symbol id="bottle-filled" class="icon icon-tabler icon-tabler-bottle-filled" viewBox="0 0 24 24" stroke-width="2" stroke="currentColor" fill="none" stroke-linecap="round" stroke-linejoin="round"><path stroke="none" d="M0 0h24v24H0z" fill="none"/><path d="M13 1a2 2 0 0 1 1.995 1.85l.005 .15v.5c0 1.317 .381 2.604 1.094 3.705l.17 .25l.05 .072a9.093 9.093 0 0 1 1.68 4.92l.006 .354v6.199a3 3 0 0 1 -2.824 2.995l-.176 .005h-6a3 3 0 0 1 -2.995 -2.824l-.005 -.176v-6.2a9.1 9.1 0 0 1 1.486 -4.982l.2 -.292l.05 -.069a6.823 6.823 0 0 0 1.264 -3.957v-.5a2 2 0 0 1 1.85 -1.995l.15 -.005h2zm.362 5h-2.724a8.827 8.827 0 0 1 -1.08 2.334l-.194 .284l-.05 .069a7.091 7.091 0 0 0 -1.307 3.798l-.003 .125a3.33 3.33 0 0 1 1.975 -.61a3.4 3.4 0 0 1 2.833 1.417c.27 .375 .706 .593 1.209 .583a1.4 1.4 0 0 0 1.166 -.583a3.4 3.4 0 0 1 .81 -.8l.003 .183c0 -1.37 -.396 -2.707 -1.137 -3.852l-.228 -.332a8.827 8.827 0 0 1 -1.273 -2.616z" stroke-width="0" fill="currentColor" />
</symbol>
	<symbol id="box-align-bottom-filled" class="icon icon-tabler icon-tabler-box-align-bottom-filled" viewBox="0 0 24 24" stroke-width="2" stroke="currentColor" fill="none" stroke-linecap="round" stroke-linejoin="round"><path stroke="none" d="M0 0h24v24H0z" fill="none"/><path d="M20 13h-16a1 1 0 0 0 -1 1v5a2 2 0 0 0 2 2h14a2 2 0 0 0 2 -2v-5a1 1 0 0 0 -1 -1z" stroke-width="0" fill="currentColor" /><path d="M4 8a1 1 0 0 1 .993 .883l.007 .127a1 1 0 0 1 -1.993 .117l-.007 -.127a1 1 0 0 1 1 -1z" stroke-width="0" fill="currentColor" /><path d="M4 3a1 1 0 0 1 .993 .883l.007 .127a1 1 0 0 1 -1.993 .117l-.007 -.127a1 1 0 0 1 1 -1z" stroke-width="0" fill="currentColor" /><path d="M9 3a1 1 0 0 1 .993 .883l.007 .127a1 1 0 0 1 -1.993 .117l-.007 -.127a1 1 0 0 1 1 -1z" stroke-width="0" fill="currentColor" /><path d="M15 3a1 1 0 0 1 .993 .883l.007 .127a1 1 0 0 1 -1.993 .117l-.007 -.127a1 1 0 0 1 1 -1z" stroke-width="0" fill="currentColor" /><path d="M20 3a1 1 0 0 1 .993 .883l.007 .127a1 1 0 0 1 -1.993 .117l-.007 -.127a1 1 0 0 1 1 -1z" stroke-width="0" fill="currentColor" /><path d="M20 8a1 1 0 0 1 .993 .883l.007 .127a1 1 0 0 1 -1.993 .117l-.007 -.127a1 1 0 0 1 1 -1z" stroke-width="0" fill="currentColor" />
</symbol>
	<symbol id="box-align-bottom-left-filled" class="icon icon-tabler icon-tabler-box-align-bottom-left-filled" viewBox="0 0 24 24" stroke-width="2" stroke="currentColor" fill="none" stroke-linecap="round" stroke-linejoin="round"><path stroke="none" d="M0 0h24v24H0z" fill="none"/><path d="M10 12h-5a2 2 0 0 0 -2 2v5a2 2 0 0 0 2 2h5a2 2 0 0 0 2 -2v-5a2 2 0 0 0 -2 -2z" stroke-width="0" fill="currentColor" /><path d="M4 8a1 1 0 0 1 .993 .883l.007 .127a1 1 0 0 1 -1.993 .117l-.007 -.127a1 1 0 0 1 1 -1z" stroke-width="0" fill="currentColor" /><path d="M4 3a1 1 0 0 1 .993 .883l.007 .127a1 1 0 0 1 -1.993 .117l-.007 -.127a1 1 0 0 1 1 -1z" stroke-width="0" fill="currentColor" /><path d="M9 3a1 1 0 0 1 .993 .883l.007 .127a1 1 0 0 1 -1.993 .117l-.007 -.127a1 1 0 0 1 1 -1z" stroke-width="0" fill="currentColor" /><path d="M15 3a1 1 0 0 1 .993 .883l.007 .127a1 1 0 0 1 -1.993 .117l-.007 -.127a1 1 0 0 1 1 -1z" stroke-width="0" fill="currentColor" /><path d="M15 19a1 1 0 0 1 .993 .883l.007 .127a1 1 0 0 1 -1.993 .117l-.007 -.127a1 1 0 0 1 1 -1z" stroke-width="0" fill="currentColor" /><path d="M20 3a1 1 0 0 1 .993 .883l.007 .127a1 1 0 0 1 -1.993 .117l-.007 -.127a1 1 0 0 1 1 -1z" stroke-width="0" fill="currentColor" /><path d="M20 8a1 1 0 0 1 .993 .883l.007 .127a1 1 0 0 1 -1.993 .117l-.007 -.127a1 1 0 0 1 1 -1z" stroke-width="0" fill="currentColor" /><path d="M20 14a1 1 0 0 1 .993 .883l.007 .127a1 1 0 0 1 -1.993 .117l-.007 -.127a1 1 0 0 1 1 -1z" stroke-width="0" fill="currentColor" /><path d="M20 19a1 1 0 0 1 .993 .883l.007 .127a1 1 0 0 1 -1.993 .117l-.007 -.127a1 1 0 0 1 1 -1z" stroke-width="0" fill="currentColor" />
</symbol>
	<symbol id="box-align-bottom-right-filled" class="icon icon-tabler icon-tabler-box-align-bottom-right-filled" viewBox="0 0 24 24" stroke-width="2" stroke="currentColor" fill="none" stroke-linecap="round" stroke-linejoin="round"><path stroke="none" d="M0 0h24v24H0z" fill="none"/><path d="M19 12h-5a2 2 0 0 0 -2 2v5a2 2 0 0 0 2 2h5a2 2 0 0 0 2 -2v-5a2 2 0 0 0 -2 -2z" stroke-width="0" fill="currentColor" /><path d="M20 8a1 1 0 0 1 .993 .883l.007 .127a1 1 0 0 1 -1.993 .117l-.007 -.127a1 1 0 0 1 1 -1z" stroke-width="0" fill="currentColor" /><path d="M20 3a1 1 0 0 1 .993 .883l.007 .127a1 1 0 0 1 -1.993 .117l-.007 -.127a1 1 0 0 1 1 -1z" stroke-width="0" fill="currentColor" /><path d="M15 3a1 1 0 0 1 .993 .883l.007 .127a1 1 0 0 1 -1.993 .117l-.007 -.127a1 1 0 0 1 1 -1z" stroke-width="0" fill="currentColor" /><path d="M9 3a1 1 0 0 1 .993 .883l.007 .127a1 1 0 0 1 -1.993 .117l-.007 -.127a1 1 0 0 1 1 -1z" stroke-width="0" fill="currentColor" /><path d="M9 19a1 1 0 0 1 .993 .883l.007 .127a1 1 0 0 1 -1.993 .117l-.007 -.127a1 1 0 0 1 1 -1z" stroke-width="0" fill="currentColor" /><path d="M4 3a1 1 0 0 1 .993 .883l.007 .127a1 1 0 0 1 -1.993 .117l-.007 -.127a1 1 0 0 1 1 -1z" stroke-width="0" fill="currentColor" /><path d="M4 8a1 1 0 0 1 .993 .883l.007 .127a1 1 0 0 1 -1.993 .117l-.007 -.127a1 1 0 0 1 1 -1z" stroke-width="0" fill="currentColor" /><path d="M4 14a1 1 0 0 1 .993 .883l.007 .127a1 1 0 0 1 -1.993 .117l-.007 -.127a1 1 0 0 1 1 -1z" stroke-width="0" fill="currentColor" /><path d="M4 19a1 1 0 0 1 .993 .883l.007 .127a1 1 0 0 1 -1.993 .117l-.007 -.127a1 1 0 0 1 1 -1z" stroke-width="0" fill="currentColor" />
</symbol>
	<symbol id="box-align-left-filled" class="icon icon-tabler icon-tabler-box-align-left-filled" viewBox="0 0 24 24" stroke-width="2" stroke="currentColor" fill="none" stroke-linecap="round" stroke-linejoin="round"><path stroke="none" d="M0 0h24v24H0z" fill="none"/><path d="M10.002 3.003h-5a2 2 0 0 0 -2 2v14a2 2 0 0 0 2 2h5a1 1 0 0 0 1 -1v-16a1 1 0 0 0 -1 -1z" stroke-width="0" fill="currentColor" /><path d="M15.002 19.003a1 1 0 0 1 .117 1.993l-.127 .007a1 1 0 0 1 -.117 -1.993l.127 -.007z" stroke-width="0" fill="currentColor" /><path d="M20.003 19.003a1 1 0 0 1 .117 1.993l-.128 .007a1 1 0 0 1 -.117 -1.993l.128 -.007z" stroke-width="0" fill="currentColor" /><path d="M20.003 14.002a1 1 0 0 1 .117 1.993l-.128 .007a1 1 0 0 1 -.117 -1.993l.128 -.007z" stroke-width="0" fill="currentColor" /><path d="M20.003 8.002a1 1 0 0 1 .117 1.993l-.128 .007a1 1 0 0 1 -.117 -1.993l.128 -.007z" stroke-width="0" fill="currentColor" /><path d="M20.003 3.002a1 1 0 0 1 .117 1.993l-.128 .007a1 1 0 0 1 -.117 -1.993l.128 -.007z" stroke-width="0" fill="currentColor" /><path d="M15.002 3.002a1 1 0 0 1 .117 1.993l-.127 .007a1 1 0 0 1 -.117 -1.993l.127 -.007z" stroke-width="0" fill="currentColor" />
</symbol>
	<symbol id="box-align-right-filled" class="icon icon-tabler icon-tabler-box-align-right-filled" viewBox="0 0 24 24" stroke-width="2" stroke="currentColor" fill="none" stroke-linecap="round" stroke-linejoin="round"><path stroke="none" d="M0 0h24v24H0z" fill="none"/><path d="M18.998 3.003h-5a1 1 0 0 0 -1 1v16a1 1 0 0 0 1 1h5a2 2 0 0 0 2 -2v-14a2 2 0 0 0 -2 -2z" stroke-width="0" fill="currentColor" /><path d="M9.008 19.003a1 1 0 0 1 .117 1.993l-.127 .007a1 1 0 0 1 -.117 -1.993l.127 -.007z" stroke-width="0" fill="currentColor" /><path d="M4.008 19.003a1 1 0 0 1 .117 1.993l-.128 .007a1 1 0 0 1 -.117 -1.993l.128 -.007z" stroke-width="0" fill="currentColor" /><path d="M4.008 14.002a1 1 0 0 1 .117 1.993l-.128 .007a1 1 0 0 1 -.117 -1.993l.128 -.007z" stroke-width="0" fill="currentColor" /><path d="M4.008 8.002a1 1 0 0 1 .117 1.993l-.128 .007a1 1 0 0 1 -.117 -1.993l.128 -.007z" stroke-width="0" fill="currentColor" /><path d="M4.008 3.002a1 1 0 0 1 .117 1.993l-.128 .007a1 1 0 0 1 -.117 -1.993l.128 -.007z" stroke-width="0" fill="currentColor" /><path d="M9.008 3.002a1 1 0 0 1 .117 1.993l-.127 .007a1 1 0 0 1 -.117 -1.993l.127 -.007z" stroke-width="0" fill="currentColor" />
</symbol>
	<symbol id="box-align-top-filled" class="icon icon-tabler icon-tabler-box-align-top-filled" viewBox="0 0 24 24" stroke-width="2" stroke="currentColor" fill="none" stroke-linecap="round" stroke-linejoin="round"><path stroke="none" d="M0 0h24v24H0z" fill="none"/><path d="M19 3.005h-14a2 2 0 0 0 -2 2v5a1 1 0 0 0 1 1h16a1 1 0 0 0 1 -1v-5a2 2 0 0 0 -2 -2z" stroke-width="0" fill="currentColor" /><path d="M4 13.995a1 1 0 0 1 .993 .883l.007 .127a1 1 0 0 1 -1.993 .117l-.007 -.127a1 1 0 0 1 1 -1z" stroke-width="0" fill="currentColor" /><path d="M4 18.995a1 1 0 0 1 .993 .883l.007 .127a1 1 0 0 1 -1.993 .117l-.007 -.127a1 1 0 0 1 1 -1z" stroke-width="0" fill="currentColor" /><path d="M9 18.995a1 1 0 0 1 .993 .883l.007 .127a1 1 0 0 1 -1.993 .117l-.007 -.127a1 1 0 0 1 1 -1z" stroke-width="0" fill="currentColor" /><path d="M15 18.995a1 1 0 0 1 .993 .883l.007 .127a1 1 0 0 1 -1.993 .117l-.007 -.127a1 1 0 0 1 1 -1z" stroke-width="0" fill="currentColor" /><path d="M20 18.995a1 1 0 0 1 .993 .883l.007 .127a1 1 0 0 1 -1.993 .117l-.007 -.127a1 1 0 0 1 1 -1z" stroke-width="0" fill="currentColor" /><path d="M20 13.995a1 1 0 0 1 .993 .883l.007 .127a1 1 0 0 1 -1.993 .117l-.007 -.127a1 1 0 0 1 1 -1z" stroke-width="0" fill="currentColor" />
</symbol>
	<symbol id="box-align-top-left-filled" class="icon icon-tabler icon-tabler-box-align-top-left-filled" viewBox="0 0 24 24" stroke-width="2" stroke="currentColor" fill="none" stroke-linecap="round" stroke-linejoin="round"><path stroke="none" d="M0 0h24v24H0z" fill="none"/><path d="M10 3h-5a2 2 0 0 0 -2 2v5a2 2 0 0 0 2 2h5a2 2 0 0 0 2 -2v-5a2 2 0 0 0 -2 -2z" stroke-width="0" fill="currentColor" /><path d="M15 3a1 1 0 0 1 .117 1.993l-.127 .007a1 1 0 0 1 -.117 -1.993l.127 -.007z" stroke-width="0" fill="currentColor" /><path d="M20 3a1 1 0 0 1 .117 1.993l-.127 .007a1 1 0 0 1 -.117 -1.993l.127 -.007z" stroke-width="0" fill="currentColor" /><path d="M20 8a1 1 0 0 1 .117 1.993l-.127 .007a1 1 0 0 1 -.117 -1.993l.127 -.007z" stroke-width="0" fill="currentColor" /><path d="M20 14a1 1 0 0 1 .117 1.993l-.127 .007a1 1 0 0 1 -.117 -1.993l.127 -.007z" stroke-width="0" fill="currentColor" /><path d="M4 14a1 1 0 0 1 .117 1.993l-.127 .007a1 1 0 0 1 -.117 -1.993l.127 -.007z" stroke-width="0" fill="currentColor" /><path d="M20 19a1 1 0 0 1 .117 1.993l-.127 .007a1 1 0 0 1 -.117 -1.993l.127 -.007z" stroke-width="0" fill="currentColor" /><path d="M15 19a1 1 0 0 1 .117 1.993l-.127 .007a1 1 0 0 1 -.117 -1.993l.127 -.007z" stroke-width="0" fill="currentColor" /><path d="M9 19a1 1 0 0 1 .117 1.993l-.127 .007a1 1 0 0 1 -.117 -1.993l.127 -.007z" stroke-width="0" fill="currentColor" /><path d="M4 19a1 1 0 0 1 .117 1.993l-.127 .007a1 1 0 0 1 -.117 -1.993l.127 -.007z" stroke-width="0" fill="currentColor" />
</symbol>
	<symbol id="box-align-top-right-filled" class="icon icon-tabler icon-tabler-box-align-top-right-filled" viewBox="0 0 24 24" stroke-width="2" stroke="currentColor" fill="none" stroke-linecap="round" stroke-linejoin="round"><path stroke="none" d="M0 0h24v24H0z" fill="none"/><path d="M19 3.01h-5a2 2 0 0 0 -2 2v5a2 2 0 0 0 2 2h5a2 2 0 0 0 2 -2v-5a2 2 0 0 0 -2 -2z" stroke-width="0" fill="currentColor" /><path d="M20 14a1 1 0 0 1 .993 .883l.007 .127a1 1 0 0 1 -1.993 .117l-.007 -.127a1 1 0 0 1 1 -1z" stroke-width="0" fill="currentColor" /><path d="M20 19a1 1 0 0 1 .993 .883l.007 .127a1 1 0 0 1 -1.993 .117l-.007 -.127a1 1 0 0 1 1 -1z" stroke-width="0" fill="currentColor" /><path d="M15 19a1 1 0 0 1 .993 .883l.007 .127a1 1 0 0 1 -1.993 .117l-.007 -.127a1 1 0 0 1 1 -1z" stroke-width="0" fill="currentColor" /><path d="M9 19a1 1 0 0 1 .993 .883l.007 .127a1 1 0 0 1 -1.993 .117l-.007 -.127a1 1 0 0 1 1 -1z" stroke-width="0" fill="currentColor" /><path d="M9 3a1 1 0 0 1 .993 .883l.007 .127a1 1 0 0 1 -1.993 .117l-.007 -.127a1 1 0 0 1 1 -1z" stroke-width="0" fill="currentColor" /><path d="M4 19a1 1 0 0 1 .993 .883l.007 .127a1 1 0 0 1 -1.993 .117l-.007 -.127a1 1 0 0 1 1 -1z" stroke-width="0" fill="currentColor" /><path d="M4 14a1 1 0 0 1 .993 .883l.007 .127a1 1 0 0 1 -1.993 .117l-.007 -.127a1 1 0 0 1 1 -1z" stroke-width="0" fill="currentColor" /><path d="M4 8a1 1 0 0 1 .993 .883l.007 .127a1 1 0 0 1 -1.993 .117l-.007 -.127a1 1 0 0 1 1 -1z" stroke-width="0" fill="currentColor" /><path d="M4 3a1 1 0 0 1 .993 .883l.007 .127a1 1 0 0 1 -1.993 .117l-.007 -.127a1 1 0 0 1 1 -1z" stroke-width="0" fill="currentColor" />
</symbol>
	<symbol id="carousel-horizontal-filled" class="icon icon-tabler icon-tabler-carousel-horizontal-filled" viewBox="0 0 24 24" stroke-width="2" stroke="currentColor" fill="none" stroke-linecap="round" stroke-linejoin="round"><path stroke="none" d="M0 0h24v24H0z" fill="none"/><path d="M16 4h-8a2 2 0 0 0 -2 2v12a2 2 0 0 0 2 2h8a2 2 0 0 0 2 -2v-12a2 2 0 0 0 -2 -2z" stroke-width="0" fill="currentColor" /><path d="M22 6a1 1 0 0 1 .117 1.993l-.117 .007h-1v8h1a1 1 0 0 1 .117 1.993l-.117 .007h-1a2 2 0 0 1 -1.995 -1.85l-.005 -.15v-8a2 2 0 0 1 1.85 -1.995l.15 -.005h1z" stroke-width="0" fill="currentColor" /><path d="M3 6a2 2 0 0 1 1.995 1.85l.005 .15v8a2 2 0 0 1 -1.85 1.995l-.15 .005h-1a1 1 0 0 1 -.117 -1.993l.117 -.007h1v-8h-1a1 1 0 0 1 -.117 -1.993l.117 -.007h1z" stroke-width="0" fill="currentColor" />
</symbol>
	<symbol id="carousel-vertical-filled" class="icon icon-tabler icon-tabler-carousel-vertical-filled" viewBox="0 0 24 24" stroke-width="2" stroke="currentColor" fill="none" stroke-linecap="round" stroke-linejoin="round"><path stroke="none" d="M0 0h24v24H0z" fill="none"/><path d="M18 6h-12a2 2 0 0 0 -2 2v8a2 2 0 0 0 2 2h12a2 2 0 0 0 2 -2v-8a2 2 0 0 0 -2 -2z" stroke-width="0" fill="currentColor" /><path d="M16 19a2 2 0 0 1 1.995 1.85l.005 .15v1a1 1 0 0 1 -1.993 .117l-.007 -.117v-1h-8v1a1 1 0 0 1 -1.993 .117l-.007 -.117v-1a2 2 0 0 1 1.85 -1.995l.15 -.005h8z" stroke-width="0" fill="currentColor" /><path d="M17 1a1 1 0 0 1 .993 .883l.007 .117v1a2 2 0 0 1 -1.85 1.995l-.15 .005h-8a2 2 0 0 1 -1.995 -1.85l-.005 -.15v-1a1 1 0 0 1 1.993 -.117l.007 .117v1h8v-1a1 1 0 0 1 1 -1z" stroke-width="0" fill="currentColor" />
</symbol>

	<use xlink:href="#archive-filled" x="24" y="24" width="24" height="24" />
	<use xlink:href="#artboard-filled" x="68" y="24" width="24" height="24" />
	<use xlink:href="#balloon-filled" x="112" y="24" width="24" height="24" />
	<use xlink:href="#ballpen-filled" x="156" y="24" width="24" height="24" />
	<use xlink:href="#bomb-filled" x="200" y="24" width="24" height="24" />
	<use xlink:href="#book-filled" x="244" y="24" width="24" height="24" />
	<use xlink:href="#bookmark-filled" x="24" y="68" width="24" height="24" />
	<use xlink:href="#bottle-filled" x="68" y="68" width="24" height="24" />
	<use xlink:href="#box-align-bottom-filled" x="112" y="68" width="24" height="24" />
	<use xlink:href="#box-align-bottom-left-filled" x="156" y="68" width="24" height="24" />
	<use xlink:href="#box-align-bottom-right-filled" x="200" y="68" width="24" height="24" />
	<use xlink:href="#box-align-left-filled" x="244" y="68" width="24" height="24" />
	<use xlink:href="#box-align-right-filled" x="24" y="112" width="24" height="24" />
	<use xlink:href="#box-align-top-filled" x="68" y="112" width="24" height="24" />
	<use xlink:href="#box-align-top-left-filled" x="112" y="112" width="24" height="24" />
	<use xlink:href="#box-align-top-right-filled" x="156" y="112" width="24" height="24" />
	<use xlink:href="#carousel-horizontal-filled" x="200" y="112" width="24" height="24" />
	<use xlink:href="#carousel-vertical-filled" x="244" y="112" width="24" height="24" />

</svg>