<svg xmlns="http://www.w3.org/2000/svg" xmlns:xlink="http://www.w3.org/1999/xlink" viewBox="0 0 292 160" width="292" height="160" style="color: #354052"><rect x="0" y="0" width="292" height="160" fill="#fff"></rect>
	<symbol id="clock-check" class="icon icon-tabler icon-tabler-clock-check" viewBox="0 0 24 24" stroke-width="2" stroke="currentColor" fill="none" stroke-linecap="round" stroke-linejoin="round"><path stroke="none" d="M0 0h24v24H0z" fill="none"/><path d="M20.94 13.046a9 9 0 1 0 -8.893 7.954" /><path d="M12 7v5l3 3" /><path d="M15 19l2 2l4 -4" />
</symbol>
	<symbol id="clock-cog" class="icon icon-tabler icon-tabler-clock-cog" viewBox="0 0 24 24" stroke-width="2" stroke="currentColor" fill="none" stroke-linecap="round" stroke-linejoin="round"><path stroke="none" d="M0 0h24v24H0z" fill="none"/><path d="M21 12a9 9 0 1 0 -9 9" /><path d="M12 7v5l1 1" /><path d="M19.001 19m-2 0a2 2 0 1 0 4 0a2 2 0 1 0 -4 0" /><path d="M19.001 15.5v1.5" /><path d="M19.001 21v1.5" /><path d="M22.032 17.25l-1.299 .75" /><path d="M17.27 20l-1.3 .75" /><path d="M15.97 17.25l1.3 .75" /><path d="M20.733 20l1.3 .75" />
</symbol>
	<symbol id="clock-down" class="icon icon-tabler icon-tabler-clock-down" viewBox="0 0 24 24" stroke-width="2" stroke="currentColor" fill="none" stroke-linecap="round" stroke-linejoin="round"><path stroke="none" d="M0 0h24v24H0z" fill="none"/><path d="M21 12a9 9 0 1 0 -9 9" /><path d="M12 7v5l1 1" /><path d="M19 16v6" /><path d="M22 19l-3 3l-3 -3" />
</symbol>
	<symbol id="clock-heart" class="icon icon-tabler icon-tabler-clock-heart" viewBox="0 0 24 24" stroke-width="2" stroke="currentColor" fill="none" stroke-linecap="round" stroke-linejoin="round"><path stroke="none" d="M0 0h24v24H0z" fill="none"/><path d="M20.974 11.316a9 9 0 1 0 -8.962 9.684" /><path d="M12 7v5l.5 .5" /><path d="M18 22l3.35 -3.284a2.143 2.143 0 0 0 .005 -3.071a2.242 2.242 0 0 0 -3.129 -.006l-.224 .22l-.223 -.22a2.242 2.242 0 0 0 -3.128 -.006a2.143 2.143 0 0 0 -.006 3.071l3.355 3.296z" />
</symbol>
	<symbol id="clock-plus" class="icon icon-tabler icon-tabler-clock-plus" viewBox="0 0 24 24" stroke-width="2" stroke="currentColor" fill="none" stroke-linecap="round" stroke-linejoin="round"><path stroke="none" d="M0 0h24v24H0z" fill="none"/><path d="M20.98 12.61a9 9 0 1 0 -8.505 8.378" /><path d="M12 7v5l3 3" /><path d="M16 19h6" /><path d="M19 16v6" />
</symbol>
	<symbol id="clock-question" class="icon icon-tabler icon-tabler-clock-question" viewBox="0 0 24 24" stroke-width="2" stroke="currentColor" fill="none" stroke-linecap="round" stroke-linejoin="round"><path stroke="none" d="M0 0h24v24H0z" fill="none"/><path d="M21 12a9 9 0 1 0 -5.736 8.388" /><path d="M12 7v5l2 2" /><path d="M19 22v.01" /><path d="M19 19a2.003 2.003 0 0 0 .914 -3.782a1.98 1.98 0 0 0 -2.414 .483" />
</symbol>
	<symbol id="clock-search" class="icon icon-tabler icon-tabler-clock-search" viewBox="0 0 24 24" stroke-width="2" stroke="currentColor" fill="none" stroke-linecap="round" stroke-linejoin="round"><path stroke="none" d="M0 0h24v24H0z" fill="none"/><path d="M21 12a9 9 0 1 0 -9.004 9" /><path d="M12 7v5l1 1" /><path d="M18 18m-3 0a3 3 0 1 0 6 0a3 3 0 1 0 -6 0" /><path d="M20.2 20.2l1.8 1.8" />
</symbol>
	<symbol id="clock-shield" class="icon icon-tabler icon-tabler-clock-shield" viewBox="0 0 24 24" stroke-width="2" stroke="currentColor" fill="none" stroke-linecap="round" stroke-linejoin="round"><path stroke="none" d="M0 0h24v24H0z" fill="none"/><path d="M21 12a9 9 0 1 0 -8.98 9" /><path d="M12 7v5l1 1" /><path d="M22 16c0 4 -2.5 6 -3.5 6s-3.5 -2 -3.5 -6c1 0 2.5 -.5 3.5 -1.5c1 1 2.5 1.5 3.5 1.5z" />
</symbol>
	<symbol id="clock-star" class="icon icon-tabler icon-tabler-clock-star" viewBox="0 0 24 24" stroke-width="2" stroke="currentColor" fill="none" stroke-linecap="round" stroke-linejoin="round"><path stroke="none" d="M0 0h24v24H0z" fill="none"/><path d="M21 12a9 9 0 1 0 -9.958 8.95" /><path d="M12 7v5l1 1" /><path d="M17.8 20.817l-2.172 1.138a.392 .392 0 0 1 -.568 -.41l.415 -2.411l-1.757 -1.707a.389 .389 0 0 1 .217 -.665l2.428 -.352l1.086 -2.193a.392 .392 0 0 1 .702 0l1.086 2.193l2.428 .352a.39 .39 0 0 1 .217 .665l-1.757 1.707l.414 2.41a.39 .39 0 0 1 -.567 .411l-2.172 -1.138z" />
</symbol>
	<symbol id="clock-up" class="icon icon-tabler icon-tabler-clock-up" viewBox="0 0 24 24" stroke-width="2" stroke="currentColor" fill="none" stroke-linecap="round" stroke-linejoin="round"><path stroke="none" d="M0 0h24v24H0z" fill="none"/><path d="M20.983 12.548a9 9 0 1 0 -8.47 8.438" /><path d="M12 7v5l3 3" /><path d="M19 22v-6" /><path d="M22 19l-3 -3l-3 3" />
</symbol>
	<symbol id="clock-x" class="icon icon-tabler icon-tabler-clock-x" viewBox="0 0 24 24" stroke-width="2" stroke="currentColor" fill="none" stroke-linecap="round" stroke-linejoin="round"><path stroke="none" d="M0 0h24v24H0z" fill="none"/><path d="M20.98 12.61a9 9 0 1 0 -8.485 8.377" /><path d="M12 7v5l2 2" /><path d="M21.5 21.5l-5 -5" /><path d="M16.5 21.5l5 -5" />
</symbol>
	<symbol id="user-edit" class="icon icon-tabler icon-tabler-user-edit" viewBox="0 0 24 24" stroke-width="2" stroke="currentColor" fill="none" stroke-linecap="round" stroke-linejoin="round"><path stroke="none" d="M0 0h24v24H0z" fill="none"/><path d="M8 7a4 4 0 1 0 8 0a4 4 0 0 0 -8 0" /><path d="M6 21v-2a4 4 0 0 1 4 -4h3.5" /><path d="M18.42 15.61a2.1 2.1 0 0 1 2.97 2.97l-3.39 3.42h-3v-3l3.42 -3.39z" />
</symbol>
	<symbol id="user-heart" class="icon icon-tabler icon-tabler-user-heart" viewBox="0 0 24 24" stroke-width="2" stroke="currentColor" fill="none" stroke-linecap="round" stroke-linejoin="round"><path stroke="none" d="M0 0h24v24H0z" fill="none"/><path d="M6 21v-2a4 4 0 0 1 4 -4h.5" /><path d="M18 22l3.35 -3.284a2.143 2.143 0 0 0 .005 -3.071a2.242 2.242 0 0 0 -3.129 -.006l-.224 .22l-.223 -.22a2.242 2.242 0 0 0 -3.128 -.006a2.143 2.143 0 0 0 -.006 3.071l3.355 3.296z" /><path d="M8 7a4 4 0 1 0 8 0a4 4 0 0 0 -8 0" />
</symbol>
	<symbol id="user-pin" class="icon icon-tabler icon-tabler-user-pin" viewBox="0 0 24 24" stroke-width="2" stroke="currentColor" fill="none" stroke-linecap="round" stroke-linejoin="round"><path stroke="none" d="M0 0h24v24H0z" fill="none"/><path d="M6 21v-2a4 4 0 0 1 4 -4h3" /><path d="M8 7a4 4 0 1 0 8 0a4 4 0 0 0 -8 0" /><path d="M21.121 20.121a3 3 0 1 0 -4.242 0c.418 .419 1.125 1.045 2.121 1.879c1.051 -.89 1.759 -1.516 2.121 -1.879z" /><path d="M19 18v.01" />
</symbol>
	<symbol id="user-question" class="icon icon-tabler icon-tabler-user-question" viewBox="0 0 24 24" stroke-width="2" stroke="currentColor" fill="none" stroke-linecap="round" stroke-linejoin="round"><path stroke="none" d="M0 0h24v24H0z" fill="none"/><path d="M6 21v-2a4 4 0 0 1 4 -4h3.5" /><path d="M19 22v.01" /><path d="M19 19a2.003 2.003 0 0 0 .914 -3.782a1.98 1.98 0 0 0 -2.414 .483" /><path d="M8 7a4 4 0 1 0 8 0a4 4 0 0 0 -8 0" />
</symbol>
	<symbol id="user-shield" class="icon icon-tabler icon-tabler-user-shield" viewBox="0 0 24 24" stroke-width="2" stroke="currentColor" fill="none" stroke-linecap="round" stroke-linejoin="round"><path stroke="none" d="M0 0h24v24H0z" fill="none"/><path d="M6 21v-2a4 4 0 0 1 4 -4h2" /><path d="M22 16c0 4 -2.5 6 -3.5 6s-3.5 -2 -3.5 -6c1 0 2.5 -.5 3.5 -1.5c1 1 2.5 1.5 3.5 1.5z" /><path d="M8 7a4 4 0 1 0 8 0a4 4 0 0 0 -8 0" />
</symbol>
	<symbol id="user-star" class="icon icon-tabler icon-tabler-user-star" viewBox="0 0 24 24" stroke-width="2" stroke="currentColor" fill="none" stroke-linecap="round" stroke-linejoin="round"><path stroke="none" d="M0 0h24v24H0z" fill="none"/><path d="M6 21v-2a4 4 0 0 1 4 -4h1" /><path d="M17.8 20.817l-2.172 1.138a.392 .392 0 0 1 -.568 -.41l.415 -2.411l-1.757 -1.707a.389 .389 0 0 1 .217 -.665l2.428 -.352l1.086 -2.193a.392 .392 0 0 1 .702 0l1.086 2.193l2.428 .352a.39 .39 0 0 1 .217 .665l-1.757 1.707l.414 2.41a.39 .39 0 0 1 -.567 .411l-2.172 -1.138z" /><path d="M8 7a4 4 0 1 0 8 0a4 4 0 0 0 -8 0" />
</symbol>
	<symbol id="user-up" class="icon icon-tabler icon-tabler-user-up" viewBox="0 0 24 24" stroke-width="2" stroke="currentColor" fill="none" stroke-linecap="round" stroke-linejoin="round"><path stroke="none" d="M0 0h24v24H0z" fill="none"/><path d="M6 21v-2a4 4 0 0 1 4 -4h4c.348 0 .686 .044 1.007 .128" /><path d="M19 22v-6" /><path d="M22 19l-3 -3l-3 3" /><path d="M8 7a4 4 0 1 0 8 0a4 4 0 0 0 -8 0" />
</symbol>

	<use xlink:href="#clock-check" x="24" y="24" width="24" height="24" />
	<use xlink:href="#clock-cog" x="68" y="24" width="24" height="24" />
	<use xlink:href="#clock-down" x="112" y="24" width="24" height="24" />
	<use xlink:href="#clock-heart" x="156" y="24" width="24" height="24" />
	<use xlink:href="#clock-plus" x="200" y="24" width="24" height="24" />
	<use xlink:href="#clock-question" x="244" y="24" width="24" height="24" />
	<use xlink:href="#clock-search" x="24" y="68" width="24" height="24" />
	<use xlink:href="#clock-shield" x="68" y="68" width="24" height="24" />
	<use xlink:href="#clock-star" x="112" y="68" width="24" height="24" />
	<use xlink:href="#clock-up" x="156" y="68" width="24" height="24" />
	<use xlink:href="#clock-x" x="200" y="68" width="24" height="24" />
	<use xlink:href="#user-edit" x="244" y="68" width="24" height="24" />
	<use xlink:href="#user-heart" x="24" y="112" width="24" height="24" />
	<use xlink:href="#user-pin" x="68" y="112" width="24" height="24" />
	<use xlink:href="#user-question" x="112" y="112" width="24" height="24" />
	<use xlink:href="#user-shield" x="156" y="112" width="24" height="24" />
	<use xlink:href="#user-star" x="200" y="112" width="24" height="24" />
	<use xlink:href="#user-up" x="244" y="112" width="24" height="24" />

</svg>