<svg xmlns="http://www.w3.org/2000/svg" xmlns:xlink="http://www.w3.org/1999/xlink" viewBox="0 0 292 160" width="292" height="160" style="color: #354052"><rect x="0" y="0" width="292" height="160" fill="#fff"></rect>
	<symbol id="ballpen" class="icon icon-tabler icon-tabler-ballpen" viewBox="0 0 24 24" stroke-width="2" stroke="currentColor" fill="none" stroke-linecap="round" stroke-linejoin="round"><path stroke="none" d="M0 0h24v24H0z" fill="none"/><path d="M14 6l7 7l-4 4" /><path d="M5.828 18.172a2.828 2.828 0 0 0 4 0l10.586 -10.586a2 2 0 0 0 0 -2.829l-1.171 -1.171a2 2 0 0 0 -2.829 0l-10.586 10.586a2.828 2.828 0 0 0 0 4z" /><path d="M4 20l1.768 -1.768" />
</symbol>
	<symbol id="barell" class="icon icon-tabler icon-tabler-barell" viewBox="0 0 24 24" stroke-width="2" stroke="currentColor" fill="none" stroke-linecap="round" stroke-linejoin="round"><path stroke="none" d="M0 0h24v24H0z" fill="none"/><path d="M6.222 4h11.556c1.481 2.37 2.222 5.037 2.222 8s-.74 5.63 -2.222 8h-11.556c-1.481 -2.37 -2.222 -5.037 -2.222 -8s.74 -5.63 2.222 -8z" /><path d="M15 4c.667 2.667 1 5.333 1 8s-.333 5.333 -1 8" /><path d="M9 4c-.667 2.667 -1 5.333 -1 8s.333 5.333 1 8" /><path d="M4.5 16h15" /><path d="M19.5 8h-15" />
</symbol>
	<symbol id="book-download" class="icon icon-tabler icon-tabler-book-download" viewBox="0 0 24 24" stroke-width="2" stroke="currentColor" fill="none" stroke-linecap="round" stroke-linejoin="round"><path stroke="none" d="M0 0h24v24H0z" fill="none"/><path d="M12 20h-6a2 2 0 0 1 -2 -2v-12a2 2 0 0 1 2 -2h12v5" /><path d="M13 16h-7a2 2 0 0 0 -2 2" /><path d="M15 19l3 3l3 -3" /><path d="M18 22v-9" />
</symbol>
	<symbol id="book-upload" class="icon icon-tabler icon-tabler-book-upload" viewBox="0 0 24 24" stroke-width="2" stroke="currentColor" fill="none" stroke-linecap="round" stroke-linejoin="round"><path stroke="none" d="M0 0h24v24H0z" fill="none"/><path d="M14 20h-8a2 2 0 0 1 -2 -2v-12a2 2 0 0 1 2 -2h12v5" /><path d="M11 16h-5a2 2 0 0 0 -2 2" /><path d="M15 16l3 -3l3 3" /><path d="M18 13v9" />
</symbol>
	<symbol id="brand-mercedes" class="icon icon-tabler icon-tabler-brand-mercedes" viewBox="0 0 24 24" stroke-width="2" stroke="currentColor" fill="none" stroke-linecap="round" stroke-linejoin="round"><path stroke="none" d="M0 0h24v24H0z" fill="none"/><circle cx="12" cy="12" r="9" /><path d="M12 3v9" /><path d="M12 12l7 5" /><path d="M12 12l-7 5" />
</symbol>
	<symbol id="certificate-2" class="icon icon-tabler icon-tabler-certificate-2" viewBox="0 0 24 24" stroke-width="2" stroke="currentColor" fill="none" stroke-linecap="round" stroke-linejoin="round"><path stroke="none" d="M0 0h24v24H0z" fill="none"/><circle cx="12" cy="15" r="3" /><path d="M10 7h4" /><path d="M10 18v4l2 -1l2 1v-4" /><path d="M10 19h-2a2 2 0 0 1 -2 -2v-12a2 2 0 0 1 2 -2h8a2 2 0 0 1 2 2v12a2 2 0 0 1 -2 2h-2" />
</symbol>
	<symbol id="checklist" class="icon icon-tabler icon-tabler-checklist" viewBox="0 0 24 24" stroke-width="2" stroke="currentColor" fill="none" stroke-linecap="round" stroke-linejoin="round"><path stroke="none" d="M0 0h24v24H0z" fill="none"/><path d="M9.615 20h-2.615a2 2 0 0 1 -2 -2v-12a2 2 0 0 1 2 -2h8a2 2 0 0 1 2 2v8" /><path d="M14 19l2 2l4 -4" /><path d="M9 8h4" /><path d="M9 12h2" />
</symbol>
	<symbol id="cpu-2" class="icon icon-tabler icon-tabler-cpu-2" viewBox="0 0 24 24" stroke-width="2" stroke="currentColor" fill="none" stroke-linecap="round" stroke-linejoin="round"><path stroke="none" d="M0 0h24v24H0z" fill="none"/><rect x="5" y="5" width="14" height="14" rx="1" /><path d="M8 10v-2h2m6 6v2h-2m-4 0h-2v-2m8 -4v-2h-2" /><path d="M3 10h2" /><path d="M3 14h2" /><path d="M10 3v2" /><path d="M14 3v2" /><path d="M21 10h-2" /><path d="M21 14h-2" /><path d="M14 21v-2" /><path d="M10 21v-2" />
</symbol>
	<symbol id="id-badge-2" class="icon icon-tabler icon-tabler-id-badge-2" viewBox="0 0 24 24" stroke-width="2" stroke="currentColor" fill="none" stroke-linecap="round" stroke-linejoin="round"><path stroke="none" d="M0 0h24v24H0z" fill="none"/><path d="M7 12h3v4h-3z" /><path d="M10 6h-6a1 1 0 0 0 -1 1v12a1 1 0 0 0 1 1h16a1 1 0 0 0 1 -1v-12a1 1 0 0 0 -1 -1h-6" /><rect x="10" y="3" width="4" height="5" rx="1" /><path d="M14 16h2" /><path d="M14 12h4" />
</symbol>
	<symbol id="message-2-share" class="icon icon-tabler icon-tabler-message-2-share" viewBox="0 0 24 24" stroke-width="2" stroke="currentColor" fill="none" stroke-linecap="round" stroke-linejoin="round"><path stroke="none" d="M0 0h24v24H0z" fill="none"/><path d="M17 4h4v4" /><path d="M20 11v3a3 3 0 0 1 -3 3h-2l-3 3l-3 -3h-2a3 3 0 0 1 -3 -3v-6a3 3 0 0 1 3 -3h7" /><path d="M16 9l5 -5" />
</symbol>
	<symbol id="message-share" class="icon icon-tabler icon-tabler-message-share" viewBox="0 0 24 24" stroke-width="2" stroke="currentColor" fill="none" stroke-linecap="round" stroke-linejoin="round"><path stroke="none" d="M0 0h24v24H0z" fill="none"/><path d="M20 11v3a3 3 0 0 1 -3 3h-9l-4 4v-13a3 3 0 0 1 3 -3h7" /><path d="M17 4h4v4" /><path d="M16 9l5 -5" />
</symbol>
	<symbol id="packge-export" class="icon icon-tabler icon-tabler-packge-export" viewBox="0 0 24 24" stroke-width="2" stroke="currentColor" fill="none" stroke-linecap="round" stroke-linejoin="round"><path stroke="none" d="M0 0h24v24H0z" fill="none"/><path d="M12 21l-8 -4.5v-9l8 -4.5l8 4.5v4.5" /><path d="M12 12l8 -4.5" /><path d="M12 12v9" /><path d="M12 12l-8 -4.5" /><path d="M15 18h7" /><path d="M19 15l3 3l-3 3" />
</symbol>
	<symbol id="packge-import" class="icon icon-tabler icon-tabler-packge-import" viewBox="0 0 24 24" stroke-width="2" stroke="currentColor" fill="none" stroke-linecap="round" stroke-linejoin="round"><path stroke="none" d="M0 0h24v24H0z" fill="none"/><path d="M12 21l-8 -4.5v-9l8 -4.5l8 4.5v4.5" /><path d="M12 12l8 -4.5" /><path d="M12 12v9" /><path d="M12 12l-8 -4.5" /><path d="M22 18h-7" /><path d="M18 15l-3 3l3 3" />
</symbol>
	<symbol id="server-2" class="icon icon-tabler icon-tabler-server-2" viewBox="0 0 24 24" stroke-width="2" stroke="currentColor" fill="none" stroke-linecap="round" stroke-linejoin="round"><path stroke="none" d="M0 0h24v24H0z" fill="none"/><rect x="3" y="4" width="18" height="8" rx="3" /><rect x="3" y="12" width="18" height="8" rx="3" /><line x1="7" y1="8" x2="7" y2="8.01" /><line x1="7" y1="16" x2="7" y2="16.01" /><path d="M11 8h6" /><path d="M11 16h6" />
</symbol>
	<symbol id="telescope" class="icon icon-tabler icon-tabler-telescope" viewBox="0 0 24 24" stroke-width="2" stroke="currentColor" fill="none" stroke-linecap="round" stroke-linejoin="round"><path stroke="none" d="M0 0h24v24H0z" fill="none"/><path d="M6 21l6 -5l6 5" /><path d="M12 13v8" /><path d="M3.294 13.678l.166 .281c.52 .88 1.624 1.265 2.605 .91l14.242 -5.165a1.023 1.023 0 0 0 .565 -1.456l-2.62 -4.705a1.087 1.087 0 0 0 -1.447 -.42l-.056 .032l-12.694 7.618c-1.02 .613 -1.357 1.897 -.76 2.905z" /><path d="M14 5l3 5.5" />
</symbol>
	<symbol id="tie" class="icon icon-tabler icon-tabler-tie" viewBox="0 0 24 24" stroke-width="2" stroke="currentColor" fill="none" stroke-linecap="round" stroke-linejoin="round"><path stroke="none" d="M0 0h24v24H0z" fill="none"/><path d="M12 22l4 -4l-2.5 -11l.993 -2.649a1 1 0 0 0 -.936 -1.351h-3.114a1 1 0 0 0 -.936 1.351l.993 2.649l-2.5 11l4 4z" /><path d="M10.5 7h3l5 5.5" />
</symbol>
	<symbol id="zoom-code" class="icon icon-tabler icon-tabler-zoom-code" viewBox="0 0 24 24" stroke-width="2" stroke="currentColor" fill="none" stroke-linecap="round" stroke-linejoin="round"><path stroke="none" d="M0 0h24v24H0z" fill="none"/><circle cx="10" cy="10" r="7" /><path d="M21 21l-6 -6" /><path d="M8 8l-2 2l2 2" /><path d="M12 8l2 2l-2 2" />
</symbol>
	<symbol id="zoom-exclamation" class="icon icon-tabler icon-tabler-zoom-exclamation" viewBox="0 0 24 24" stroke-width="2" stroke="currentColor" fill="none" stroke-linecap="round" stroke-linejoin="round"><path stroke="none" d="M0 0h24v24H0z" fill="none"/><circle cx="10" cy="10" r="7" /><path d="M21 21l-6 -6" /><path d="M10 13v.01" /><path d="M10 7v3" />
</symbol>

	<use xlink:href="#ballpen" x="24" y="24" width="24" height="24" />
	<use xlink:href="#barell" x="68" y="24" width="24" height="24" />
	<use xlink:href="#book-download" x="112" y="24" width="24" height="24" />
	<use xlink:href="#book-upload" x="156" y="24" width="24" height="24" />
	<use xlink:href="#brand-mercedes" x="200" y="24" width="24" height="24" />
	<use xlink:href="#certificate-2" x="244" y="24" width="24" height="24" />
	<use xlink:href="#checklist" x="24" y="68" width="24" height="24" />
	<use xlink:href="#cpu-2" x="68" y="68" width="24" height="24" />
	<use xlink:href="#id-badge-2" x="112" y="68" width="24" height="24" />
	<use xlink:href="#message-2-share" x="156" y="68" width="24" height="24" />
	<use xlink:href="#message-share" x="200" y="68" width="24" height="24" />
	<use xlink:href="#packge-export" x="244" y="68" width="24" height="24" />
	<use xlink:href="#packge-import" x="24" y="112" width="24" height="24" />
	<use xlink:href="#server-2" x="68" y="112" width="24" height="24" />
	<use xlink:href="#telescope" x="112" y="112" width="24" height="24" />
	<use xlink:href="#tie" x="156" y="112" width="24" height="24" />
	<use xlink:href="#zoom-code" x="200" y="112" width="24" height="24" />
	<use xlink:href="#zoom-exclamation" x="244" y="112" width="24" height="24" />

</svg>