<svg xmlns="http://www.w3.org/2000/svg" xmlns:xlink="http://www.w3.org/1999/xlink" viewBox="0 0 292 160" width="292" height="160" style="color: #354052"><rect x="0" y="0" width="292" height="160" fill="#fff"></rect>
	<symbol id="brand-carbon" class="icon icon-tabler icon-tabler-brand-carbon" viewBox="0 0 24 24" stroke-width="2" stroke="currentColor" fill="none" stroke-linecap="round" stroke-linejoin="round"><path stroke="none" d="M0 0h24v24H0z" fill="none"/><path d="M14 10v-.2a1.8 1.8 0 0 0 -1.8 -1.8h-.4a1.8 1.8 0 0 0 -1.8 1.8v4.4a1.8 1.8 0 0 0 1.8 1.8h.4a1.8 1.8 0 0 0 1.8 -1.8v-.2" /><rect x="3" y="3" width="18" height="18" rx="3" />
</symbol>
	<symbol id="brand-django" class="icon icon-tabler icon-tabler-brand-django" viewBox="0 0 24 24" stroke-width="2" stroke="currentColor" fill="none" stroke-linecap="round" stroke-linejoin="round"><path stroke="none" d="M0 0h24v24H0z" fill="none"/><rect x="3" y="3" width="18" height="18" rx="3" /><path d="M12 7v8.5l-2.015 .201a2.715 2.715 0 1 1 0 -5.402l2.015 .201" /><path d="M15 7v.01" /><path d="M15 10v5.586c0 .905 -.36 1.774 -1 2.414" />
</symbol>
	<symbol id="brand-inertia" class="icon icon-tabler icon-tabler-brand-inertia" viewBox="0 0 24 24" stroke-width="2" stroke="currentColor" fill="none" stroke-linecap="round" stroke-linejoin="round"><path stroke="none" d="M0 0h24v24H0z" fill="none"/><path d="M12.5 8l4 4l-4 4h4.5l4 -4l-4 -4z" /><path d="M3.5 8l4 4l-4 4h4.5l4 -4l-4 -4z" />
</symbol>
	<symbol id="brand-laravel" class="icon icon-tabler icon-tabler-brand-laravel" viewBox="0 0 24 24" stroke-width="2" stroke="currentColor" fill="none" stroke-linecap="round" stroke-linejoin="round"><path stroke="none" d="M0 0h24v24H0z" fill="none"/><path d="M3 17l8 5l7 -4v-8l-4 -2.5l4 -2.5l4 2.5v4l-11 6.5l-4 -2.5v-7.5l-4 -2.5z" /><path d="M11 18v4" /><path d="M7 15.5l7 -4" /><path d="M14 7.5v4" /><path d="M14 11.5l4 2.5" /><path d="M11 13v-7.5l-4 -2.5l-4 2.5" /><path d="M7 8l4 -2.5" /><path d="M18 10l4 -2.5" />
</symbol>
	<symbol id="brand-react" class="icon icon-tabler icon-tabler-brand-react" viewBox="0 0 24 24" stroke-width="2" stroke="currentColor" fill="none" stroke-linecap="round" stroke-linejoin="round"><path stroke="none" d="M0 0h24v24H0z" fill="none"/><ellipse cx="12" cy="12" rx="4" ry="10" /><ellipse transform="rotate(60 12 12)" cx="12" cy="12" rx="4" ry="10" /><ellipse transform="rotate(-60 12 12)" cx="12" cy="12" rx="4" ry="10" /><circle fill="#D8D8D8" cx="12" cy="12" r="1" />
</symbol>
	<symbol id="chalkboard" class="icon icon-tabler icon-tabler-chalkboard" viewBox="0 0 24 24" stroke-width="2" stroke="currentColor" fill="none" stroke-linecap="round" stroke-linejoin="round"><path stroke="none" d="M0 0h24v24H0z" fill="none"/><path d="M8 19h-3a2 2 0 0 1 -2 -2v-10a2 2 0 0 1 2 -2h14a2 2 0 0 1 2 2v11a1 1 0 0 1 -1 1" /><rect x="11" y="16" width="6" height="3" rx="1" />
</symbol>
	<symbol id="clipboard-heart" class="icon icon-tabler icon-tabler-clipboard-heart" viewBox="0 0 24 24" stroke-width="2" stroke="currentColor" fill="none" stroke-linecap="round" stroke-linejoin="round"><path stroke="none" d="M0 0h24v24H0z" fill="none"/><path d="M9 5h-2a2 2 0 0 0 -2 2v12a2 2 0 0 0 2 2h10a2 2 0 0 0 2 -2v-12a2 2 0 0 0 -2 -2h-2" /><rect x="9" y="3" width="6" height="4" rx="2" /><path d="M11.993 16.75l2.747 -2.815a1.9 1.9 0 0 0 .005 -2.632a1.775 1.775 0 0 0 -2.56 -.005l-.183 .188l-.183 -.189a1.775 1.775 0 0 0 -2.56 -.004a1.899 1.899 0 0 0 -.004 2.632l2.738 2.825z" />
</symbol>
	<symbol id="clipboard-typography" class="icon icon-tabler icon-tabler-clipboard-typography" viewBox="0 0 24 24" stroke-width="2" stroke="currentColor" fill="none" stroke-linecap="round" stroke-linejoin="round"><path stroke="none" d="M0 0h24v24H0z" fill="none"/><path d="M9 5h-2a2 2 0 0 0 -2 2v12a2 2 0 0 0 2 2h10a2 2 0 0 0 2 -2v-12a2 2 0 0 0 -2 -2h-2" /><rect x="9" y="3" width="6" height="4" rx="2" /><path d="M9 12v-1h6v1" /><path d="M12 11v6" /><path d="M11 17h2" />
</symbol>
	<symbol id="home-cancel" class="icon icon-tabler icon-tabler-home-cancel" viewBox="0 0 24 24" stroke-width="2" stroke="currentColor" fill="none" stroke-linecap="round" stroke-linejoin="round"><path stroke="none" d="M0 0h24v24H0z" fill="none"/><path d="M19.001 10.001l-7.001 -7.001l-9 9h2v7a2 2 0 0 0 2 2h3.5" /><path d="M9 21v-6a2 2 0 0 1 2 -2h.5" /><path d="M15.2 20.8l5.6 -5.6" /><circle cx="18" cy="18" r="4" />
</symbol>
	<symbol id="home-eco" class="icon icon-tabler icon-tabler-home-eco" viewBox="0 0 24 24" stroke-width="2" stroke="currentColor" fill="none" stroke-linecap="round" stroke-linejoin="round"><path stroke="none" d="M0 0h24v24H0z" fill="none"/><path d="M20.002 11.002l-8.002 -8.002l-9 9h2v7a2 2 0 0 0 2 2h5" /><path d="M9 21v-6a2 2 0 0 1 2 -2h2c.325 0 .631 .077 .902 .215" /><path d="M16 22s0 -2 3 -4" /><path d="M19 21a3 3 0 0 1 0 -6h3v3a3 3 0 0 1 -3 3z" />
</symbol>
	<symbol id="home-edit" class="icon icon-tabler icon-tabler-home-edit" viewBox="0 0 24 24" stroke-width="2" stroke="currentColor" fill="none" stroke-linecap="round" stroke-linejoin="round"><path stroke="none" d="M0 0h24v24H0z" fill="none"/><path d="M9 21v-6a2 2 0 0 1 2 -2h2c.645 0 1.218 .305 1.584 .78" /><path d="M20.004 11.004l-8.004 -8.004l-9 9h2v7a2 2 0 0 0 2 2h4" /><path d="M18.42 15.61a2.1 2.1 0 0 1 2.97 2.97l-3.39 3.42h-3v-3l3.42 -3.39z" />
</symbol>
	<symbol id="home-heart" class="icon icon-tabler icon-tabler-home-heart" viewBox="0 0 24 24" stroke-width="2" stroke="currentColor" fill="none" stroke-linecap="round" stroke-linejoin="round"><path stroke="none" d="M0 0h24v24H0z" fill="none"/><path d="M21 12l-9 -9l-9 9h2v7a2 2 0 0 0 2 2h6" /><path d="M9 21v-6a2 2 0 0 1 2 -2h2c.39 0 .754 .112 1.061 .304" /><path d="M18.994 21.5l2.518 -2.58a1.74 1.74 0 0 0 .004 -2.413a1.627 1.627 0 0 0 -2.346 -.005l-.168 .172l-.168 -.172a1.627 1.627 0 0 0 -2.346 -.004a1.74 1.74 0 0 0 -.004 2.412l2.51 2.59z" />
</symbol>
	<symbol id="home-link" class="icon icon-tabler icon-tabler-home-link" viewBox="0 0 24 24" stroke-width="2" stroke="currentColor" fill="none" stroke-linecap="round" stroke-linejoin="round"><path stroke="none" d="M0 0h24v24H0z" fill="none"/><path d="M20.085 11.085l-8.085 -8.085l-9 9h2v7a2 2 0 0 0 2 2h4.5" /><path d="M9 21v-6a2 2 0 0 1 2 -2h2a2 2 0 0 1 1.807 1.143" /><circle cx="21" cy="21" r="1" /><circle cx="21" cy="16" r="1" /><circle cx="16" cy="19" r="1" /><path d="M21 16l-5 3l5 2" />
</symbol>
	<symbol id="home-ribbon" class="icon icon-tabler icon-tabler-home-ribbon" viewBox="0 0 24 24" stroke-width="2" stroke="currentColor" fill="none" stroke-linecap="round" stroke-linejoin="round"><path stroke="none" d="M0 0h24v24H0z" fill="none"/><path d="M16 15h5v7l-2.5 -1.5l-2.5 1.5z" /><path d="M20 11l-8 -8l-9 9h2v7a2 2 0 0 0 2 2h5" /><path d="M9 21v-6a2 2 0 0 1 2 -2h1.5" />
</symbol>
	<symbol id="home-signal" class="icon icon-tabler icon-tabler-home-signal" viewBox="0 0 24 24" stroke-width="2" stroke="currentColor" fill="none" stroke-linecap="round" stroke-linejoin="round"><path stroke="none" d="M0 0h24v24H0z" fill="none"/><path d="M15 22v-2" /><path d="M18 22v-4" /><path d="M21 22v-6" /><path d="M19 12.494v-.494h2l-9 -9l-9 9h2v7a2 2 0 0 0 2 2h4" /><path d="M9 21v-6a2 2 0 0 1 2 -2h2a2 2 0 0 1 2 2v.5" />
</symbol>
	<symbol id="shield-half-filled" class="icon icon-tabler icon-tabler-shield-half-filled" viewBox="0 0 24 24" stroke-width="2" stroke="currentColor" fill="none" stroke-linecap="round" stroke-linejoin="round"><path stroke="none" d="M0 0h24v24H0z" fill="none"/><path d="M12 3a12 12 0 0 0 8.5 3a12 12 0 0 1 -8.5 15a12 12 0 0 1 -8.5 -15a12 12 0 0 0 8.5 -3" /><path d="M12 3v18" /><path d="M12 11h8.9" /><path d="M12 8h8.9" /><path d="M12 5h3.1" /><path d="M12 17h6.2" /><path d="M12 14h8" />
</symbol>
	<symbol id="shield-half" class="icon icon-tabler icon-tabler-shield-half" viewBox="0 0 24 24" stroke-width="2" stroke="currentColor" fill="none" stroke-linecap="round" stroke-linejoin="round"><path stroke="none" d="M0 0h24v24H0z" fill="none"/><path d="M12 3a12 12 0 0 0 8.5 3a12 12 0 0 1 -8.5 15a12 12 0 0 1 -8.5 -15a12 12 0 0 0 8.5 -3" /><path d="M12 3v18" />
</symbol>
	<symbol id="wood" class="icon icon-tabler icon-tabler-wood" viewBox="0 0 24 24" stroke-width="2" stroke="currentColor" fill="none" stroke-linecap="round" stroke-linejoin="round"><path stroke="none" d="M0 0h24v24H0z" fill="none"/><ellipse cx="12" cy="5.5" rx="6" ry="2.5" /><path d="M18 5.5v4.626a1.415 1.415 0 0 1 1.683 2.18l-.097 .108l-1.586 1.586v4c0 1.61 -2.54 2.925 -5.725 2.997l-.275 .003c-3.314 0 -6 -1.343 -6 -3v-2l-1.586 -1.586a1.414 1.414 0 0 1 1.586 -2.287v-6.627" /><path d="M10 12.5v1.5" /><path d="M14 16v1" />
</symbol>

	<use xlink:href="#brand-carbon" x="24" y="24" width="24" height="24" />
	<use xlink:href="#brand-django" x="68" y="24" width="24" height="24" />
	<use xlink:href="#brand-inertia" x="112" y="24" width="24" height="24" />
	<use xlink:href="#brand-laravel" x="156" y="24" width="24" height="24" />
	<use xlink:href="#brand-react" x="200" y="24" width="24" height="24" />
	<use xlink:href="#chalkboard" x="244" y="24" width="24" height="24" />
	<use xlink:href="#clipboard-heart" x="24" y="68" width="24" height="24" />
	<use xlink:href="#clipboard-typography" x="68" y="68" width="24" height="24" />
	<use xlink:href="#home-cancel" x="112" y="68" width="24" height="24" />
	<use xlink:href="#home-eco" x="156" y="68" width="24" height="24" />
	<use xlink:href="#home-edit" x="200" y="68" width="24" height="24" />
	<use xlink:href="#home-heart" x="244" y="68" width="24" height="24" />
	<use xlink:href="#home-link" x="24" y="112" width="24" height="24" />
	<use xlink:href="#home-ribbon" x="68" y="112" width="24" height="24" />
	<use xlink:href="#home-signal" x="112" y="112" width="24" height="24" />
	<use xlink:href="#shield-half-filled" x="156" y="112" width="24" height="24" />
	<use xlink:href="#shield-half" x="200" y="112" width="24" height="24" />
	<use xlink:href="#wood" x="244" y="112" width="24" height="24" />

</svg>