<svg xmlns="http://www.w3.org/2000/svg" xmlns:xlink="http://www.w3.org/1999/xlink" viewBox="0 0 292 160" width="292" height="160" style="color: #354052"><rect x="0" y="0" width="292" height="160" fill="#fff"></rect>
	<symbol id="air-conditioning" class="icon icon-tabler icon-tabler-air-conditioning" viewBox="0 0 24 24" stroke-width="2" stroke="currentColor" fill="none" stroke-linecap="round" stroke-linejoin="round"><path stroke="none" d="M0 0h24v24H0z" fill="none"/><path d="M8 16a3 3 0 0 1 -3 3" /><path d="M16 16a3 3 0 0 0 3 3" /><path d="M12 16v4" /><rect x="3" y="5" width="18" height="8" rx="2" /><path d="M7 13v-3a1 1 0 0 1 1 -1h8a1 1 0 0 1 1 1v3" />
</symbol>
	<symbol id="analyze" class="icon icon-tabler icon-tabler-analyze" viewBox="0 0 24 24" stroke-width="2" stroke="currentColor" fill="none" stroke-linecap="round" stroke-linejoin="round"><path stroke="none" d="M0 0h24v24H0z" fill="none"/><path d="M20 11a8.1 8.1 0 0 0 -6.986 -6.918a8.095 8.095 0 0 0 -8.019 3.918" /><path d="M4 13a8.1 8.1 0 0 0 15.001 2.998" /><circle cx="19" cy="16" r="1" /><circle cx="5" cy="8" r="1" /><circle cx="12" cy="12" r="3" />
</symbol>
	<symbol id="arrow-bounce" class="icon icon-tabler icon-tabler-arrow-bounce" viewBox="0 0 24 24" stroke-width="2" stroke="currentColor" fill="none" stroke-linecap="round" stroke-linejoin="round"><path stroke="none" d="M0 0h24v24H0z" fill="none"/><path d="M10 18h4" /><path d="M3 8a9 9 0 0 1 9 9v1l1.428 -4.285a12 12 0 0 1 6.018 -6.938l.554 -.277" /><path d="M15 6h5v5" />
</symbol>
	<symbol id="baguette" class="icon icon-tabler icon-tabler-baguette" viewBox="0 0 24 24" stroke-width="2" stroke="currentColor" fill="none" stroke-linecap="round" stroke-linejoin="round"><path stroke="none" d="M0 0h24v24H0z" fill="none"/><path d="M5.628 11.283l5.644 -5.637c2.665 -2.663 5.924 -3.747 8.663 -1.205l.188 .181a2.987 2.987 0 0 1 0 4.228l-11.287 11.274a2.996 2.996 0 0 1 -4.089 .135l-.143 -.135c-2.728 -2.724 -1.704 -6.117 1.024 -8.841z" /><path d="M9.5 7.5l1.5 3.5" /><path d="M6.5 10.5l1.5 3.5" /><path d="M12.5 4.5l1.5 3.5" />
</symbol>
	<symbol id="bmp" class="icon icon-tabler icon-tabler-bmp" viewBox="0 0 24 24" stroke-width="2" stroke="currentColor" fill="none" stroke-linecap="round" stroke-linejoin="round"><path stroke="none" d="M0 0h24v24H0z" fill="none"/><path d="M18 16v-8h2a2 2 0 1 1 0 4h-2" /><path d="M6 14a2 2 0 0 1 -2 2h-2v-8h2a2 2 0 1 1 0 4h-2h2a2 2 0 0 1 2 2z" /><path d="M9 16v-8l3 6l3 -6v8" />
</symbol>
	<symbol id="bong" class="icon icon-tabler icon-tabler-bong" viewBox="0 0 24 24" stroke-width="2" stroke="currentColor" fill="none" stroke-linecap="round" stroke-linejoin="round"><path stroke="none" d="M0 0h24v24H0z" fill="none"/><path d="M13 3v8.416c.134 .059 .265 .123 .393 .193l3.607 -3.609l2 2l-3.608 3.608a5 5 0 1 1 -6.392 -2.192v-8.416h4z" /><path d="M8 3h6" /><path d="M6.1 17h9.8" />
</symbol>
	<symbol id="fire-hydrant" class="icon icon-tabler icon-tabler-fire-hydrant" viewBox="0 0 24 24" stroke-width="2" stroke="currentColor" fill="none" stroke-linecap="round" stroke-linejoin="round"><path stroke="none" d="M0 0h24v24H0z" fill="none"/><path d="M5 21h14" /><path d="M17 21v-5h1a1 1 0 0 0 1 -1v-2a1 1 0 0 0 -1 -1h-1v-4a5 5 0 0 0 -10 0v4h-1a1 1 0 0 0 -1 1v2a1 1 0 0 0 1 1h1v5" /><circle cx="12" cy="14" r="2" /><path d="M6 8h12" />
</symbol>
	<symbol id="gift-card" class="icon icon-tabler icon-tabler-gift-card" viewBox="0 0 24 24" stroke-width="2" stroke="currentColor" fill="none" stroke-linecap="round" stroke-linejoin="round"><path stroke="none" d="M0 0h24v24H0z" fill="none"/><rect x="3" y="5" width="18" height="14" rx="3" /><path d="M7 16l3 -3l3 3" /><path d="M8 13c-.789 0 -2 -.672 -2 -1.5s.711 -1.5 1.5 -1.5c1.128 -.02 2.077 1.17 2.5 3c.423 -1.83 1.372 -3.02 2.5 -3c.789 0 1.5 .672 1.5 1.5s-1.211 1.5 -2 1.5h-4z" />
</symbol>
	<symbol id="gradienter" class="icon icon-tabler icon-tabler-gradienter" viewBox="0 0 24 24" stroke-width="2" stroke="currentColor" fill="none" stroke-linecap="round" stroke-linejoin="round"><path stroke="none" d="M0 0h24v24H0z" fill="none"/><path d="M3.227 14c.917 3.999 4.497 7 8.773 7c4.277 0 7.858 -3 8.773 -7" /><path d="M20.78 10a8.994 8.994 0 0 0 -8.78 -7a8.985 8.985 0 0 0 -8.782 7" /><circle cx="12" cy="12" r="2" />
</symbol>
	<symbol id="jpg" class="icon icon-tabler icon-tabler-jpg" viewBox="0 0 24 24" stroke-width="2" stroke="currentColor" fill="none" stroke-linecap="round" stroke-linejoin="round"><path stroke="none" d="M0 0h24v24H0z" fill="none"/><path d="M21 8h-2a2 2 0 0 0 -2 2v4a2 2 0 0 0 2 2h2v-4h-1" /><path d="M10 16v-8h2a2 2 0 1 1 0 4h-2" /><path d="M3 8h4v6a2 2 0 0 1 -2 2h-1.5a0.5 .5 0 0 1 -.5 -.5v-.5" />
</symbol>
	<symbol id="png" class="icon icon-tabler icon-tabler-png" viewBox="0 0 24 24" stroke-width="2" stroke="currentColor" fill="none" stroke-linecap="round" stroke-linejoin="round"><path stroke="none" d="M0 0h24v24H0z" fill="none"/><path d="M21 8h-2a2 2 0 0 0 -2 2v4a2 2 0 0 0 2 2h2v-4h-1" /><path d="M3 16v-8h2a2 2 0 1 1 0 4h-2" /><path d="M10 16v-8l4 8v-8" />
</symbol>
	<symbol id="reload" class="icon icon-tabler icon-tabler-reload" viewBox="0 0 24 24" stroke-width="2" stroke="currentColor" fill="none" stroke-linecap="round" stroke-linejoin="round"><path stroke="none" d="M0 0h24v24H0z" fill="none"/><path d="M19.933 13.041a8 8 0 1 1 -9.925 -8.788c3.899 -1.002 7.935 1.007 9.425 4.747" /><path d="M20 4v5h-5" />
</symbol>
	<symbol id="sdk" class="icon icon-tabler icon-tabler-sdk" viewBox="0 0 24 24" stroke-width="2" stroke="currentColor" fill="none" stroke-linecap="round" stroke-linejoin="round"><path stroke="none" d="M0 0h24v24H0z" fill="none"/><path d="M7 8h-3a1 1 0 0 0 -1 1v2a1 1 0 0 0 1 1h2a1 1 0 0 1 1 1v2a1 1 0 0 1 -1 1h-3" /><path d="M17 8v8" /><path d="M21 8l-3 4l3 4" /><path d="M17 12h1" /><path d="M10 8v8h2a2 2 0 0 0 2 -2v-4a2 2 0 0 0 -2 -2h-2z" />
</symbol>
	<symbol id="status-change" class="icon icon-tabler icon-tabler-status-change" viewBox="0 0 24 24" stroke-width="2" stroke="currentColor" fill="none" stroke-linecap="round" stroke-linejoin="round"><path stroke="none" d="M0 0h24v24H0z" fill="none"/><circle cx="6" cy="18" r="2" /><circle cx="18" cy="18" r="2" /><path d="M6 12v-2a6 6 0 1 1 12 0v2" /><path d="M15 9l3 3l3 -3" />
</symbol>
	<symbol id="txt" class="icon icon-tabler icon-tabler-txt" viewBox="0 0 24 24" stroke-width="2" stroke="currentColor" fill="none" stroke-linecap="round" stroke-linejoin="round"><path stroke="none" d="M0 0h24v24H0z" fill="none"/><path d="M3 8h4" /><path d="M5 8v8" /><path d="M17 8h4" /><path d="M19 8v8" /><path d="M10 8l4 8" /><path d="M10 16l4 -8" />
</symbol>
	<symbol id="uv-index" class="icon icon-tabler icon-tabler-uv-index" viewBox="0 0 24 24" stroke-width="2" stroke="currentColor" fill="none" stroke-linecap="round" stroke-linejoin="round"><path stroke="none" d="M0 0h24v24H0z" fill="none"/><path d="M3 12h1m16 0h1m-15.4 -6.4l.7 .7m12.1 -.7l-.7 .7m-9.7 5.7a4 4 0 1 1 8 0" /><path d="M12 4v-1" /><path d="M13 16l2 5h1l2 -5" /><path d="M6 16v3a2 2 0 1 0 4 0v-3" />
</symbol>
	<symbol id="vip" class="icon icon-tabler icon-tabler-vip" viewBox="0 0 24 24" stroke-width="2" stroke="currentColor" fill="none" stroke-linecap="round" stroke-linejoin="round"><path stroke="none" d="M0 0h24v24H0z" fill="none"/><path d="M3 5h18" /><path d="M3 19h18" /><path d="M4 9l2 6h1l2 -6" /><path d="M12 9v6" /><path d="M16 15v-6h2a2 2 0 1 1 0 4h-2" />
</symbol>
	<symbol id="zip" class="icon icon-tabler icon-tabler-zip" viewBox="0 0 24 24" stroke-width="2" stroke="currentColor" fill="none" stroke-linecap="round" stroke-linejoin="round"><path stroke="none" d="M0 0h24v24H0z" fill="none"/><path d="M16 16v-8h2a2 2 0 1 1 0 4h-2" /><path d="M12 8v8" /><path d="M4 8h4l-4 8h4" />
</symbol>

	<use xlink:href="#air-conditioning" x="24" y="24" width="24" height="24" />
	<use xlink:href="#analyze" x="68" y="24" width="24" height="24" />
	<use xlink:href="#arrow-bounce" x="112" y="24" width="24" height="24" />
	<use xlink:href="#baguette" x="156" y="24" width="24" height="24" />
	<use xlink:href="#bmp" x="200" y="24" width="24" height="24" />
	<use xlink:href="#bong" x="244" y="24" width="24" height="24" />
	<use xlink:href="#fire-hydrant" x="24" y="68" width="24" height="24" />
	<use xlink:href="#gift-card" x="68" y="68" width="24" height="24" />
	<use xlink:href="#gradienter" x="112" y="68" width="24" height="24" />
	<use xlink:href="#jpg" x="156" y="68" width="24" height="24" />
	<use xlink:href="#png" x="200" y="68" width="24" height="24" />
	<use xlink:href="#reload" x="244" y="68" width="24" height="24" />
	<use xlink:href="#sdk" x="24" y="112" width="24" height="24" />
	<use xlink:href="#status-change" x="68" y="112" width="24" height="24" />
	<use xlink:href="#txt" x="112" y="112" width="24" height="24" />
	<use xlink:href="#uv-index" x="156" y="112" width="24" height="24" />
	<use xlink:href="#vip" x="200" y="112" width="24" height="24" />
	<use xlink:href="#zip" x="244" y="112" width="24" height="24" />

</svg>