<svg xmlns="http://www.w3.org/2000/svg" xmlns:xlink="http://www.w3.org/1999/xlink" viewBox="0 0 292 160" width="292" height="160" style="color: #354052"><rect x="0" y="0" width="292" height="160" fill="#fff"></rect>
	<symbol id="123" class="icon icon-tabler icon-tabler-123" viewBox="0 0 24 24" stroke-width="2" stroke="currentColor" fill="none" stroke-linecap="round" stroke-linejoin="round"><path stroke="none" d="M0 0h24v24H0z" fill="none"/><path d="M3 10l2 -2v8" /><path d="M9 8h3a1 1 0 0 1 1 1v2a1 1 0 0 1 -1 1h-2a1 1 0 0 0 -1 1v2a1 1 0 0 0 1 1h3" /><path d="M17 8h2.5a1.5 1.5 0 0 1 1.5 1.5v1a1.5 1.5 0 0 1 -1.5 1.5h-1.5h1.5a1.5 1.5 0 0 1 1.5 1.5v1a1.5 1.5 0 0 1 -1.5 1.5h-2.5" />
</symbol>
	<symbol id="badge-3d" class="icon icon-tabler icon-tabler-badge-3d" viewBox="0 0 24 24" stroke-width="2" stroke="currentColor" fill="none" stroke-linecap="round" stroke-linejoin="round"><path stroke="none" d="M0 0h24v24H0z" fill="none"/><rect x="3" y="5" width="18" height="14" rx="2" /><path d="M7 9.5a0.5 .5 0 0 1 .5 -.5h1a1.5 1.5 0 0 1 0 3h-.5h.5a1.5 1.5 0 0 1 0 3h-1a0.5 .5 0 0 1 -.5 -.5" /><path d="M14 9v6h1a2 2 0 0 0 2 -2v-2a2 2 0 0 0 -2 -2h-1z" />
</symbol>
	<symbol id="badge-4k" class="icon icon-tabler icon-tabler-badge-4k" viewBox="0 0 24 24" stroke-width="2" stroke="currentColor" fill="none" stroke-linecap="round" stroke-linejoin="round"><path stroke="none" d="M0 0h24v24H0z" fill="none"/><rect x="3" y="5" width="18" height="14" rx="2" /><path d="M7 9v2a1 1 0 0 0 1 1h1" /><path d="M10 9v6" /><path d="M14 9v6" /><path d="M17 9l-2 3l2 3" /><path d="M15 12h-1" />
</symbol>
	<symbol id="badge-8k" class="icon icon-tabler icon-tabler-badge-8k" viewBox="0 0 24 24" stroke-width="2" stroke="currentColor" fill="none" stroke-linecap="round" stroke-linejoin="round"><path stroke="none" d="M0 0h24v24H0z" fill="none"/><rect x="3" y="5" width="18" height="14" rx="2" /><path d="M14 9v6" /><path d="M17 9l-2 3l2 3" /><path d="M15 12h-1" /><path d="M8.5 12h-.5a1 1 0 0 1 -1 -1v-1a1 1 0 0 1 1 -1h1a1 1 0 0 1 1 1v1a1 1 0 0 1 -1 1h-1a1 1 0 0 0 -1 1v1a1 1 0 0 0 1 1h1a1 1 0 0 0 1 -1v-1a1 1 0 0 0 -1 -1" />
</symbol>
	<symbol id="badge-ad" class="icon icon-tabler icon-tabler-badge-ad" viewBox="0 0 24 24" stroke-width="2" stroke="currentColor" fill="none" stroke-linecap="round" stroke-linejoin="round"><path stroke="none" d="M0 0h24v24H0z" fill="none"/><rect x="3" y="5" width="18" height="14" rx="2" /><path d="M14 9v6h1a2 2 0 0 0 2 -2v-2a2 2 0 0 0 -2 -2h-1z" /><path d="M7 15v-4.5a1.5 1.5 0 0 1 3 0v4.5" /><path d="M7 13h3" />
</symbol>
	<symbol id="badge-ar" class="icon icon-tabler icon-tabler-badge-ar" viewBox="0 0 24 24" stroke-width="2" stroke="currentColor" fill="none" stroke-linecap="round" stroke-linejoin="round"><path stroke="none" d="M0 0h24v24H0z" fill="none"/><rect x="3" y="5" width="18" height="14" rx="2" /><path d="M7 15v-4.5a1.5 1.5 0 0 1 3 0v4.5" /><path d="M7 13h3" /><path d="M14 12h1.5a1.5 1.5 0 0 0 0 -3h-1.5v6m3 0l-2 -3" />
</symbol>
	<symbol id="badge-cc" class="icon icon-tabler icon-tabler-badge-cc" viewBox="0 0 24 24" stroke-width="2" stroke="currentColor" fill="none" stroke-linecap="round" stroke-linejoin="round"><path stroke="none" d="M0 0h24v24H0z" fill="none"/><rect x="3" y="5" width="18" height="14" rx="2" /><path d="M10 10.5a1.5 1.5 0 0 0 -3 0v3a1.5 1.5 0 0 0 3 0" /><path d="M17 10.5a1.5 1.5 0 0 0 -3 0v3a1.5 1.5 0 0 0 3 0" />
</symbol>
	<symbol id="badge-hd" class="icon icon-tabler icon-tabler-badge-hd" viewBox="0 0 24 24" stroke-width="2" stroke="currentColor" fill="none" stroke-linecap="round" stroke-linejoin="round"><path stroke="none" d="M0 0h24v24H0z" fill="none"/><rect x="3" y="5" width="18" height="14" rx="2" /><path d="M14 9v6h1a2 2 0 0 0 2 -2v-2a2 2 0 0 0 -2 -2h-1z" /><path d="M7 15v-6" /><path d="M10 15v-6" /><path d="M7 12h3" />
</symbol>
	<symbol id="badge-sd" class="icon icon-tabler icon-tabler-badge-sd" viewBox="0 0 24 24" stroke-width="2" stroke="currentColor" fill="none" stroke-linecap="round" stroke-linejoin="round"><path stroke="none" d="M0 0h24v24H0z" fill="none"/><rect x="3" y="5" width="18" height="14" rx="2" /><path d="M14 9v6h1a2 2 0 0 0 2 -2v-2a2 2 0 0 0 -2 -2h-1z" /><path d="M7 14.25c0 .414 .336 .75 .75 .75h1.25a1 1 0 0 0 1 -1v-1a1 1 0 0 0 -1 -1h-1a1 1 0 0 1 -1 -1v-1a1 1 0 0 1 1 -1h1.25a0.75 .75 0 0 1 .75 .75" />
</symbol>
	<symbol id="badge-tm" class="icon icon-tabler icon-tabler-badge-tm" viewBox="0 0 24 24" stroke-width="2" stroke="currentColor" fill="none" stroke-linecap="round" stroke-linejoin="round"><path stroke="none" d="M0 0h24v24H0z" fill="none"/><rect x="3" y="5" width="18" height="14" rx="2" /><path d="M6 9h4" /><path d="M8 9v6" /><path d="M13 15v-6l2 3l2 -3v6" />
</symbol>
	<symbol id="badge-vo" class="icon icon-tabler icon-tabler-badge-vo" viewBox="0 0 24 24" stroke-width="2" stroke="currentColor" fill="none" stroke-linecap="round" stroke-linejoin="round"><path stroke="none" d="M0 0h24v24H0z" fill="none"/><rect x="3" y="5" width="18" height="14" rx="2" /><path d="M7 9l2 6l2 -6" /><path d="M15.5 9a1.5 1.5 0 0 1 1.5 1.5v3a1.5 1.5 0 0 1 -3 0v-3a1.5 1.5 0 0 1 1.5 -1.5z" />
</symbol>
	<symbol id="badge-vr" class="icon icon-tabler icon-tabler-badge-vr" viewBox="0 0 24 24" stroke-width="2" stroke="currentColor" fill="none" stroke-linecap="round" stroke-linejoin="round"><path stroke="none" d="M0 0h24v24H0z" fill="none"/><rect x="3" y="5" width="18" height="14" rx="2" /><path d="M14 12h1.5a1.5 1.5 0 0 0 0 -3h-1.5v6m3 0l-2 -3" /><path d="M7 9l2 6l2 -6" />
</symbol>
	<symbol id="badge-wc" class="icon icon-tabler icon-tabler-badge-wc" viewBox="0 0 24 24" stroke-width="2" stroke="currentColor" fill="none" stroke-linecap="round" stroke-linejoin="round"><path stroke="none" d="M0 0h24v24H0z" fill="none"/><rect x="3" y="5" width="18" height="14" rx="2" /><path d="M6.5 9l.5 6l2 -4l2 4l.5 -6" /><path d="M17 10.5a1.5 1.5 0 0 0 -3 0v3a1.5 1.5 0 0 0 3 0" />
</symbol>
	<symbol id="box-seam" class="icon icon-tabler icon-tabler-box-seam" viewBox="0 0 24 24" stroke-width="2" stroke="currentColor" fill="none" stroke-linecap="round" stroke-linejoin="round"><path stroke="none" d="M0 0h24v24H0z" fill="none"/><path d="M12 3l8 4.5v9l-8 4.5l-8 -4.5v-9l8 -4.5" /><path d="M12 12l8 -4.5" /><path d="M8.2 9.8l7.6 -4.6" /><path d="M12 12v9" /><path d="M12 12l-8 -4.5" />
</symbol>
	<symbol id="brand-linqpad" class="icon icon-tabler icon-tabler-brand-linqpad" viewBox="0 0 24 24" stroke-width="2" stroke="currentColor" fill="none" stroke-linecap="round" stroke-linejoin="round"><path stroke="none" d="M0 0h24v24H0z" fill="none"/><path d="M5 21h3.5l2.5 -6l2.5 -1l2.5 7h4l1 -4.5l-2 -1l-7 -12l-6 -.5l1.5 4l2.5 .5l1 2.5l-7 8z" />
</symbol>
	<symbol id="clipboard-data" class="icon icon-tabler icon-tabler-clipboard-data" viewBox="0 0 24 24" stroke-width="2" stroke="currentColor" fill="none" stroke-linecap="round" stroke-linejoin="round"><path stroke="none" d="M0 0h24v24H0z" fill="none"/><path d="M9 5h-2a2 2 0 0 0 -2 2v12a2 2 0 0 0 2 2h10a2 2 0 0 0 2 -2v-12a2 2 0 0 0 -2 -2h-2" /><rect x="9" y="3" width="6" height="4" rx="2" /><path d="M9 17v-4" /><path d="M12 17v-1" /><path d="M15 17v-2" /><path d="M12 17v-1" />
</symbol>
	<symbol id="flip-flops" class="icon icon-tabler icon-tabler-flip-flops" viewBox="0 0 24 24" stroke-width="2" stroke="currentColor" fill="none" stroke-linecap="round" stroke-linejoin="round"><path stroke="none" d="M0 0h24v24H0z" fill="none"/><path d="M18 4c2.21 0 4 1.682 4 3.758c0 .078 -.003 .156 -.008 .234l-.6 9.014c-.11 1.683 -1.596 2.994 -3.392 2.994s-3.28 -1.311 -3.392 -2.994l-.6 -9.014c-.138 -2.071 1.538 -3.855 3.743 -3.985a4.15 4.15 0 0 1 .25 -.007z" /><path d="M14.5 14c1 -3.333 2.167 -5 3.5 -5c1.333 0 2.5 1.667 3.5 5" /><path d="M18 16v1" /><path d="M6 4c2.21 0 4 1.682 4 3.758c0 .078 -.003 .156 -.008 .234l-.6 9.014c-.11 1.683 -1.596 2.994 -3.392 2.994s-3.28 -1.311 -3.392 -2.994l-.6 -9.014c-.138 -2.071 1.538 -3.855 3.742 -3.985c.084 -.005 .167 -.007 .25 -.007z" /><path d="M2.5 14c1 -3.333 2.167 -5 3.5 -5c1.333 0 2.5 1.667 3.5 5" /><path d="M6 16v1" />
</symbol>
	<symbol id="vector-spline" class="icon icon-tabler icon-tabler-vector-spline" viewBox="0 0 24 24" stroke-width="2" stroke="currentColor" fill="none" stroke-linecap="round" stroke-linejoin="round"><path stroke="none" d="M0 0h24v24H0z" fill="none"/><rect x="17" y="3" width="4" height="4" rx="1" /><rect x="3" y="17" width="4" height="4" rx="1" /><path d="M17 5c-6.627 0 -12 5.373 -12 12" />
</symbol>

	<use xlink:href="#123" x="24" y="24" width="24" height="24" />
	<use xlink:href="#badge-3d" x="68" y="24" width="24" height="24" />
	<use xlink:href="#badge-4k" x="112" y="24" width="24" height="24" />
	<use xlink:href="#badge-8k" x="156" y="24" width="24" height="24" />
	<use xlink:href="#badge-ad" x="200" y="24" width="24" height="24" />
	<use xlink:href="#badge-ar" x="244" y="24" width="24" height="24" />
	<use xlink:href="#badge-cc" x="24" y="68" width="24" height="24" />
	<use xlink:href="#badge-hd" x="68" y="68" width="24" height="24" />
	<use xlink:href="#badge-sd" x="112" y="68" width="24" height="24" />
	<use xlink:href="#badge-tm" x="156" y="68" width="24" height="24" />
	<use xlink:href="#badge-vo" x="200" y="68" width="24" height="24" />
	<use xlink:href="#badge-vr" x="244" y="68" width="24" height="24" />
	<use xlink:href="#badge-wc" x="24" y="112" width="24" height="24" />
	<use xlink:href="#box-seam" x="68" y="112" width="24" height="24" />
	<use xlink:href="#brand-linqpad" x="112" y="112" width="24" height="24" />
	<use xlink:href="#clipboard-data" x="156" y="112" width="24" height="24" />
	<use xlink:href="#flip-flops" x="200" y="112" width="24" height="24" />
	<use xlink:href="#vector-spline" x="244" y="112" width="24" height="24" />

</svg>