<svg xmlns="http://www.w3.org/2000/svg" xmlns:xlink="http://www.w3.org/1999/xlink" viewBox="0 0 292 336" width="292" height="336" style="color: #354052"><rect x="0" y="0" width="292" height="336" fill="#fff"></rect>
	<symbol id="ad-circle-filled" class="icon icon-tabler icon-tabler-ad-circle-filled" viewBox="0 0 24 24" stroke-width="2" stroke="currentColor" fill="none" stroke-linecap="round" stroke-linejoin="round"><path stroke="none" d="M0 0h24v24H0z" fill="none"/><path d="M12 2c5.523 0 10 4.477 10 10s-4.477 10 -10 10c-5.43 0 -9.848 -4.327 -9.996 -9.72l-.004 -.28l.004 -.28c.148 -5.393 4.566 -9.72 9.996 -9.72zm-3.5 6a2.5 2.5 0 0 0 -2.495 2.336l-.005 .164v4.5l.007 .117a1 1 0 0 0 1.986 0l.007 -.117v-1h1v1l.007 .117a1 1 0 0 0 1.986 0l.007 -.117v-4.5l-.005 -.164a2.5 2.5 0 0 0 -2.495 -2.336zm6.5 0h-1a1 1 0 0 0 -1 1v6a1 1 0 0 0 1 1h1a3 3 0 0 0 3 -3v-2a3 3 0 0 0 -3 -3zm0 2a1 1 0 0 1 1 1v2a1 1 0 0 1 -.883 .993l-.117 .007v-4zm-6.5 0a.5 .5 0 0 1 .492 .41l.008 .09v1.5h-1v-1.5l.008 -.09a.5 .5 0 0 1 .492 -.41z" stroke-width="0" fill="currentColor" />
</symbol>
	<symbol id="align-box-center-middle-filled" class="icon icon-tabler icon-tabler-align-box-center-middle-filled" viewBox="0 0 24 24" stroke-width="2" stroke="currentColor" fill="none" stroke-linecap="round" stroke-linejoin="round"><path stroke="none" d="M0 0h24v24H0z" fill="none"/><path d="M19 2a3 3 0 0 1 2.995 2.824l.005 .176v14a3 3 0 0 1 -2.824 2.995l-.176 .005h-14a3 3 0 0 1 -2.993 -2.802l-.007 -.198v-14a3 3 0 0 1 2.824 -2.995l.176 -.005h14zm-6 12h-2l-.117 .007a1 1 0 0 0 0 1.986l.117 .007h2l.117 -.007a1 1 0 0 0 0 -1.986l-.117 -.007zm2 -3h-6l-.117 .007a1 1 0 0 0 0 1.986l.117 .007h6l.117 -.007a1 1 0 0 0 0 -1.986l-.117 -.007zm-1 -3h-4l-.117 .007a1 1 0 0 0 0 1.986l.117 .007h4l.117 -.007a1 1 0 0 0 0 -1.986l-.117 -.007z" stroke-width="0" fill="currentColor" />
</symbol>
	<symbol id="align-box-right-middle-filled" class="icon icon-tabler icon-tabler-align-box-right-middle-filled" viewBox="0 0 24 24" stroke-width="2" stroke="currentColor" fill="none" stroke-linecap="round" stroke-linejoin="round"><path stroke="none" d="M0 0h24v24H0z" fill="none"/><path d="M18.333 2c1.96 0 3.56 1.537 3.662 3.472l.005 .195v12.666c0 1.96 -1.537 3.56 -3.472 3.662l-.195 .005h-12.666a3.667 3.667 0 0 1 -3.662 -3.472l-.005 -.195v-12.666c0 -1.96 1.537 -3.56 3.472 -3.662l.195 -.005h12.666zm-.333 12h-2l-.117 .007a1 1 0 0 0 0 1.986l.117 .007h2l.117 -.007a1 1 0 0 0 0 -1.986l-.117 -.007zm0 -3h-6l-.117 .007a1 1 0 0 0 0 1.986l.117 .007h6l.117 -.007a1 1 0 0 0 0 -1.986l-.117 -.007zm0 -3h-4l-.117 .007a1 1 0 0 0 0 1.986l.117 .007h4l.117 -.007a1 1 0 0 0 0 -1.986l-.117 -.007z" stroke-width="0" fill="currentColor" />
</symbol>
	<symbol id="arrow-badge-down-filled" class="icon icon-tabler icon-tabler-arrow-badge-down-filled" viewBox="0 0 24 24" stroke-width="2" stroke="currentColor" fill="none" stroke-linecap="round" stroke-linejoin="round"><path stroke="none" d="M0 0h24v24H0z" fill="none"/><path d="M16.375 6.22l-4.375 3.498l-4.375 -3.5a1 1 0 0 0 -1.625 .782v6a1 1 0 0 0 .375 .78l5 4a1 1 0 0 0 1.25 0l5 -4a1 1 0 0 0 .375 -.78v-6a1 1 0 0 0 -1.625 -.78z" stroke-width="0" fill="currentColor" />
</symbol>
	<symbol id="arrow-badge-left-filled" class="icon icon-tabler icon-tabler-arrow-badge-left-filled" viewBox="0 0 24 24" stroke-width="2" stroke="currentColor" fill="none" stroke-linecap="round" stroke-linejoin="round"><path stroke="none" d="M0 0h24v24H0z" fill="none"/><path d="M17 6h-6a1 1 0 0 0 -.78 .375l-4 5a1 1 0 0 0 0 1.25l4 5a1 1 0 0 0 .78 .375h6l.112 -.006a1 1 0 0 0 .669 -1.619l-3.501 -4.375l3.5 -4.375a1 1 0 0 0 -.78 -1.625z" stroke-width="0" fill="currentColor" />
</symbol>
	<symbol id="arrow-badge-right-filled" class="icon icon-tabler icon-tabler-arrow-badge-right-filled" viewBox="0 0 24 24" stroke-width="2" stroke="currentColor" fill="none" stroke-linecap="round" stroke-linejoin="round"><path stroke="none" d="M0 0h24v24H0z" fill="none"/><path d="M7 6l-.112 .006a1 1 0 0 0 -.669 1.619l3.501 4.375l-3.5 4.375a1 1 0 0 0 .78 1.625h6a1 1 0 0 0 .78 -.375l4 -5a1 1 0 0 0 0 -1.25l-4 -5a1 1 0 0 0 -.78 -.375h-6z" stroke-width="0" fill="currentColor" />
</symbol>
	<symbol id="arrow-badge-up-filled" class="icon icon-tabler icon-tabler-arrow-badge-up-filled" viewBox="0 0 24 24" stroke-width="2" stroke="currentColor" fill="none" stroke-linecap="round" stroke-linejoin="round"><path stroke="none" d="M0 0h24v24H0z" fill="none"/><path d="M11.375 6.22l-5 4a1 1 0 0 0 -.375 .78v6l.006 .112a1 1 0 0 0 1.619 .669l4.375 -3.501l4.375 3.5a1 1 0 0 0 1.625 -.78v-6a1 1 0 0 0 -.375 -.78l-5 -4a1 1 0 0 0 -1.25 0z" stroke-width="0" fill="currentColor" />
</symbol>
	<symbol id="article-filled-filled" class="icon icon-tabler icon-tabler-article-filled-filled" viewBox="0 0 24 24" stroke-width="2" stroke="currentColor" fill="none" stroke-linecap="round" stroke-linejoin="round"><path stroke="none" d="M0 0h24v24H0z" fill="none"/><path d="M19 3a3 3 0 0 1 2.995 2.824l.005 .176v12a3 3 0 0 1 -2.824 2.995l-.176 .005h-14a3 3 0 0 1 -2.995 -2.824l-.005 -.176v-12a3 3 0 0 1 2.824 -2.995l.176 -.005h14zm-2 12h-10l-.117 .007a1 1 0 0 0 0 1.986l.117 .007h10l.117 -.007a1 1 0 0 0 0 -1.986l-.117 -.007zm0 -4h-10l-.117 .007a1 1 0 0 0 0 1.986l.117 .007h10l.117 -.007a1 1 0 0 0 0 -1.986l-.117 -.007zm0 -4h-10l-.117 .007a1 1 0 0 0 0 1.986l.117 .007h10l.117 -.007a1 1 0 0 0 0 -1.986l-.117 -.007z" stroke-width="0" fill="currentColor" />
</symbol>
	<symbol id="aspect-ratio-filled" class="icon icon-tabler icon-tabler-aspect-ratio-filled" viewBox="0 0 24 24" stroke-width="2" stroke="currentColor" fill="none" stroke-linecap="round" stroke-linejoin="round"><path stroke="none" d="M0 0h24v24H0z" fill="none"/><path d="M19 4h-14a3 3 0 0 0 -3 3v10a3 3 0 0 0 3 3h14a3 3 0 0 0 3 -3v-10a3 3 0 0 0 -3 -3zm-10 3a1 1 0 0 1 .117 1.993l-.117 .007h-2v2a1 1 0 0 1 -.883 .993l-.117 .007a1 1 0 0 1 -.993 -.883l-.007 -.117v-3a1 1 0 0 1 .883 -.993l.117 -.007h3zm9 5a1 1 0 0 1 .993 .883l.007 .117v3a1 1 0 0 1 -.883 .993l-.117 .007h-3a1 1 0 0 1 -.117 -1.993l.117 -.007h2v-2a1 1 0 0 1 .883 -.993l.117 -.007z" stroke-width="0" fill="currentColor" />
</symbol>
	<symbol id="backspace-filled" class="icon icon-tabler icon-tabler-backspace-filled" viewBox="0 0 24 24" stroke-width="2" stroke="currentColor" fill="none" stroke-linecap="round" stroke-linejoin="round"><path stroke="none" d="M0 0h24v24H0z" fill="none"/><path d="M20 5a2 2 0 0 1 1.995 1.85l.005 .15v10a2 2 0 0 1 -1.85 1.995l-.15 .005h-11a1 1 0 0 1 -.608 -.206l-.1 -.087l-5.037 -5.04c-.809 -.904 -.847 -2.25 -.083 -3.23l.12 -.144l5 -5a1 1 0 0 1 .577 -.284l.131 -.009h11zm-7.489 4.14a1 1 0 0 0 -1.301 1.473l.083 .094l1.292 1.293l-1.292 1.293l-.083 .094a1 1 0 0 0 1.403 1.403l.094 -.083l1.293 -1.292l1.293 1.292l.094 .083a1 1 0 0 0 1.403 -1.403l-.083 -.094l-1.292 -1.293l1.292 -1.293l.083 -.094a1 1 0 0 0 -1.403 -1.403l-.094 .083l-1.293 1.292l-1.293 -1.292l-.094 -.083l-.102 -.07z" stroke-width="0" fill="currentColor" />
</symbol>
	<symbol id="badges-filled" class="icon icon-tabler icon-tabler-badges-filled" viewBox="0 0 24 24" stroke-width="2" stroke="currentColor" fill="none" stroke-linecap="round" stroke-linejoin="round"><path stroke="none" d="M0 0h24v24H0z" fill="none"/><path d="M16.486 12.143l-4.486 2.69l-4.486 -2.69a1 1 0 0 0 -1.514 .857v4a1 1 0 0 0 .486 .857l5 3a1 1 0 0 0 1.028 0l5 -3a1 1 0 0 0 .486 -.857v-4a1 1 0 0 0 -1.514 -.857z" stroke-width="0" fill="currentColor" /><path d="M16.486 3.143l-4.486 2.69l-4.486 -2.69a1 1 0 0 0 -1.514 .857v4a1 1 0 0 0 .486 .857l5 3a1 1 0 0 0 1.028 0l5 -3a1 1 0 0 0 .486 -.857v-4a1 1 0 0 0 -1.514 -.857z" stroke-width="0" fill="currentColor" />
</symbol>
	<symbol id="bandage-filled" class="icon icon-tabler icon-tabler-bandage-filled" viewBox="0 0 24 24" stroke-width="2" stroke="currentColor" fill="none" stroke-linecap="round" stroke-linejoin="round"><path stroke="none" d="M0 0h24v24H0z" fill="none"/><path d="M20.207 3.793a5.95 5.95 0 0 1 .179 8.228l-.179 .186l-8 8a5.95 5.95 0 0 1 -8.593 -8.228l.179 -.186l8 -8a5.95 5.95 0 0 1 8.414 0zm-8.207 9.207a1 1 0 0 0 -1 1l.007 .127a1 1 0 0 0 1.993 -.117l-.007 -.127a1 1 0 0 0 -.993 -.883zm2 -2a1 1 0 0 0 -1 1l.007 .127a1 1 0 0 0 1.993 -.117l-.007 -.127a1 1 0 0 0 -.993 -.883zm-4 0a1 1 0 0 0 -1 1l.007 .127a1 1 0 0 0 1.993 -.117l-.007 -.127a1 1 0 0 0 -.993 -.883zm2 -2a1 1 0 0 0 -1 1l.007 .127a1 1 0 0 0 1.993 -.117l-.007 -.127a1 1 0 0 0 -.993 -.883z" stroke-width="0" fill="currentColor" />
</symbol>
	<symbol id="basket-filled" class="icon icon-tabler icon-tabler-basket-filled" viewBox="0 0 24 24" stroke-width="2" stroke="currentColor" fill="none" stroke-linecap="round" stroke-linejoin="round"><path stroke="none" d="M0 0h24v24H0z" fill="none"/><path d="M12.684 3.27l.084 .09l4.7 5.64h3.532a1 1 0 0 1 .991 1.131l-.02 .112l-1.984 7.918c-.258 1.578 -1.41 2.781 -2.817 2.838l-.17 .001l-10.148 -.002c-1.37 -.053 -2.484 -1.157 -2.787 -2.57l-.035 -.185l-2 -8a1 1 0 0 1 .857 -1.237l.113 -.006h3.53l4.702 -5.64a1 1 0 0 1 1.452 -.09zm-.684 8.73a3 3 0 0 0 -2.98 2.65l-.015 .174l-.005 .176l.005 .176a3 3 0 1 0 2.995 -3.176zm0 -6.438l-2.865 3.438h5.73l-2.865 -3.438z" stroke-width="0" fill="currentColor" />
</symbol>
	<symbol id="bed-filled" class="icon icon-tabler icon-tabler-bed-filled" viewBox="0 0 24 24" stroke-width="2" stroke="currentColor" fill="none" stroke-linecap="round" stroke-linejoin="round"><path stroke="none" d="M0 0h24v24H0z" fill="none"/><path d="M3 6a1 1 0 0 1 .993 .883l.007 .117v6h6v-5a1 1 0 0 1 .883 -.993l.117 -.007h8a3 3 0 0 1 2.995 2.824l.005 .176v8a1 1 0 0 1 -1.993 .117l-.007 -.117v-3h-16v3a1 1 0 0 1 -1.993 .117l-.007 -.117v-11a1 1 0 0 1 1 -1z" stroke-width="0" fill="currentColor" /><path d="M7 8a2 2 0 1 1 -1.995 2.15l-.005 -.15l.005 -.15a2 2 0 0 1 1.995 -1.85z" stroke-width="0" fill="currentColor" />
</symbol>
	<symbol id="beer-filled" class="icon icon-tabler icon-tabler-beer-filled" viewBox="0 0 24 24" stroke-width="2" stroke="currentColor" fill="none" stroke-linecap="round" stroke-linejoin="round"><path stroke="none" d="M0 0h24v24H0z" fill="none"/><path d="M17 2a2 2 0 0 1 1.995 1.85l.005 .15v4c0 1.335 -.229 2.386 -.774 3.692l-.157 .363l-.31 .701a8.902 8.902 0 0 0 -.751 3.242l-.008 .377v3.625a2 2 0 0 1 -1.85 1.995l-.15 .005h-6a2 2 0 0 1 -1.995 -1.85l-.005 -.15v-3.625c0 -1.132 -.21 -2.25 -.617 -3.28l-.142 -.34l-.31 -.699c-.604 -1.358 -.883 -2.41 -.925 -3.698l-.006 -.358v-4a2 2 0 0 1 1.85 -1.995l.15 -.005h10zm0 2h-10v3h10v-3z" stroke-width="0" fill="currentColor" />
</symbol>
	<symbol id="blade-filled" class="icon icon-tabler icon-tabler-blade-filled" viewBox="0 0 24 24" stroke-width="2" stroke="currentColor" fill="none" stroke-linecap="round" stroke-linejoin="round"><path stroke="none" d="M0 0h24v24H0z" fill="none"/><path d="M11.586 3a2 2 0 0 1 2.828 0l.586 .585l.586 -.585a2 2 0 0 1 2.7 -.117l.128 .117l2.586 2.586a2 2 0 0 1 0 2.828l-.586 .586l.586 .586a2 2 0 0 1 0 2.828l-8.586 8.586a2 2 0 0 1 -2.828 0l-.586 -.586l-.586 .586a2 2 0 0 1 -2.828 0l-2.586 -2.586a2 2 0 0 1 0 -2.828l.585 -.587l-.585 -.585a2 2 0 0 1 -.117 -2.7l.117 -.129zm3.027 4.21a1 1 0 0 0 -1.32 1.497l.292 .293l-1.068 1.067a2.003 2.003 0 0 0 -2.512 1.784l-.005 .149l.005 .15c.01 .125 .03 .248 .062 .367l-1.067 1.068l-.293 -.292l-.094 -.083a1 1 0 0 0 -1.32 1.497l.292 .293l-.292 .293l-.083 .094a1 1 0 0 0 1.497 1.32l.293 -.292l.293 .292l.094 .083a1 1 0 0 0 1.32 -1.497l-.292 -.293l1.069 -1.067a2.003 2.003 0 0 0 2.449 -2.45l1.067 -1.068l.293 .292l.094 .083a1 1 0 0 0 1.32 -1.497l-.292 -.293l.292 -.293l.083 -.094a1 1 0 0 0 -1.497 -1.32l-.293 .292l-.293 -.292z" stroke-width="0" fill="currentColor" />
</symbol>
	<symbol id="brand-crunchbase" class="icon icon-tabler icon-tabler-brand-crunchbase" viewBox="0 0 24 24" stroke-width="2" stroke="currentColor" fill="none" stroke-linecap="round" stroke-linejoin="round"><path stroke="none" d="M0 0h24v24H0z" fill="none"/><path d="M3 19v-14a2 2 0 0 1 2 -2h14a2 2 0 0 1 2 2v14a2 2 0 0 1 -2 2h-14a2 2 0 0 1 -2 -2z" /><path d="M10.414 11.586a2 2 0 1 0 0 2.828" /><path d="M15 13m-2 0a2 2 0 1 0 4 0a2 2 0 1 0 -4 0" /><path d="M13 7v6" />
</symbol>
	<symbol id="brand-discord-filled" class="icon icon-tabler icon-tabler-brand-discord-filled" viewBox="0 0 24 24" stroke-width="2" stroke="currentColor" fill="none" stroke-linecap="round" stroke-linejoin="round"><path stroke="none" d="M0 0h24v24H0z" fill="none"/><path d="M14.983 3l.123 .006c2.014 .214 3.527 .672 4.966 1.673a1 1 0 0 1 .371 .488c1.876 5.315 2.373 9.987 1.451 12.28c-1.003 2.005 -2.606 3.553 -4.394 3.553c-.94 0 -2.257 -1.596 -2.777 -2.969l-.02 .005c.838 -.131 1.69 -.323 2.572 -.574a1 1 0 1 0 -.55 -1.924c-3.32 .95 -6.13 .95 -9.45 0a1 1 0 0 0 -.55 1.924c.725 .207 1.431 .373 2.126 .499l.444 .074c-.477 1.37 -1.695 2.965 -2.627 2.965c-1.743 0 -3.276 -1.555 -4.267 -3.644c-.841 -2.206 -.369 -6.868 1.414 -12.174a1 1 0 0 1 .358 -.49c1.392 -1.016 2.807 -1.475 4.717 -1.685a1 1 0 0 1 .938 .435l.063 .107l.652 1.288l.16 -.019c.877 -.09 1.718 -.09 2.595 0l.158 .019l.65 -1.287a1 1 0 0 1 .754 -.54l.123 -.01zm-5.983 6a2 2 0 0 0 -1.977 1.697l-.018 .154l-.005 .149l.005 .15a2 2 0 1 0 1.995 -2.15zm6 0a2 2 0 0 0 -1.977 1.697l-.018 .154l-.005 .149l.005 .15a2 2 0 1 0 1.995 -2.15z" stroke-width="0" fill="currentColor" />
</symbol>
	<symbol id="brand-dribbble-filled" class="icon icon-tabler icon-tabler-brand-dribbble-filled" viewBox="0 0 24 24" stroke-width="2" stroke="currentColor" fill="none" stroke-linecap="round" stroke-linejoin="round"><path stroke="none" d="M0 0h24v24H0z" fill="none"/><path d="M14.384 14.38a22.877 22.877 0 0 1 1.056 4.863l.064 .644l.126 1.431a10 10 0 0 1 -9.15 -.98l2.08 -2.087l.246 -.24c1.793 -1.728 3.41 -2.875 5.387 -3.566l.191 -.065zm6.09 -.783l.414 .003l.981 .014a9.997 9.997 0 0 1 -4.319 6.704l-.054 -.605c-.18 -2.057 -.55 -3.958 -1.163 -5.814c1.044 -.182 2.203 -.278 3.529 -.298l.611 -.004zm-7.869 -3.181a24.91 24.91 0 0 1 1.052 2.098c-2.276 .77 -4.142 2.053 -6.144 3.967l-.355 .344l-2.236 2.24a10 10 0 0 1 -2.917 -6.741l-.005 -.324l.004 -.25h1.096l.467 -.002c3.547 -.026 6.356 -.367 8.938 -1.295l.1 -.037zm9.388 1.202l-1.515 -.02c-1.86 -.003 -3.45 .124 -4.865 .402a26.112 26.112 0 0 0 -1.163 -2.38c1.393 -.695 2.757 -1.597 4.179 -2.75l.428 -.354l.816 -.682a10 10 0 0 1 2.098 5.409l.022 .375zm-14.663 -8.46l1.266 1.522c1.145 1.398 2.121 2.713 2.949 3.985c-2.26 .766 -4.739 1.052 -7.883 1.081l-.562 .004h-.844a10 10 0 0 1 5.074 -6.593zm9.67 .182c.53 .306 1.026 .657 1.483 1.046l-1.025 .857c-1.379 1.128 -2.688 1.993 -4.034 2.649c-.89 -1.398 -1.943 -2.836 -3.182 -4.358l-.474 -.574l-.485 -.584a10 10 0 0 1 7.717 .964z" stroke-width="0" fill="currentColor" />
</symbol>
	<symbol id="brand-facebook-filled" class="icon icon-tabler icon-tabler-brand-facebook-filled" viewBox="0 0 24 24" stroke-width="2" stroke="currentColor" fill="none" stroke-linecap="round" stroke-linejoin="round"><path stroke="none" d="M0 0h24v24H0z" fill="none"/><path d="M18 2a1 1 0 0 1 .993 .883l.007 .117v4a1 1 0 0 1 -.883 .993l-.117 .007h-3v1h3a1 1 0 0 1 .991 1.131l-.02 .112l-1 4a1 1 0 0 1 -.858 .75l-.113 .007h-2v6a1 1 0 0 1 -.883 .993l-.117 .007h-4a1 1 0 0 1 -.993 -.883l-.007 -.117v-6h-2a1 1 0 0 1 -.993 -.883l-.007 -.117v-4a1 1 0 0 1 .883 -.993l.117 -.007h2v-1a6 6 0 0 1 5.775 -5.996l.225 -.004h3z" stroke-width="0" fill="currentColor" />
</symbol>
	<symbol id="brand-github-filled" class="icon icon-tabler icon-tabler-brand-github-filled" viewBox="0 0 24 24" stroke-width="2" stroke="currentColor" fill="none" stroke-linecap="round" stroke-linejoin="round"><path stroke="none" d="M0 0h24v24H0z" fill="none"/><path d="M5.315 2.1c.791 -.113 1.9 .145 3.333 .966l.272 .161l.16 .1l.397 -.083a13.3 13.3 0 0 1 4.59 -.08l.456 .08l.396 .083l.161 -.1c1.385 -.84 2.487 -1.17 3.322 -1.148l.164 .008l.147 .017l.076 .014l.05 .011l.144 .047a1 1 0 0 1 .53 .514a5.2 5.2 0 0 1 .397 2.91l-.047 .267l-.046 .196l.123 .163c.574 .795 .93 1.728 1.03 2.707l.023 .295l.007 .272c0 3.855 -1.659 5.883 -4.644 6.68l-.245 .061l-.132 .029l.014 .161l.008 .157l.004 .365l-.002 .213l-.003 3.834a1 1 0 0 1 -.883 .993l-.117 .007h-6a1 1 0 0 1 -.993 -.883l-.007 -.117v-.734c-1.818 .26 -3.03 -.424 -4.11 -1.878l-.535 -.766c-.28 -.396 -.455 -.579 -.589 -.644l-.048 -.019a1 1 0 0 1 .564 -1.918c.642 .188 1.074 .568 1.57 1.239l.538 .769c.76 1.079 1.36 1.459 2.609 1.191l.001 -.678l-.018 -.168a5.03 5.03 0 0 1 -.021 -.824l.017 -.185l.019 -.12l-.108 -.024c-2.976 -.71 -4.703 -2.573 -4.875 -6.139l-.01 -.31l-.004 -.292a5.6 5.6 0 0 1 .908 -3.051l.152 -.222l.122 -.163l-.045 -.196a5.2 5.2 0 0 1 .145 -2.642l.1 -.282l.106 -.253a1 1 0 0 1 .529 -.514l.144 -.047l.154 -.03z" stroke-width="0" fill="currentColor" />
</symbol>
	<symbol id="brand-line" class="icon icon-tabler icon-tabler-brand-line" viewBox="0 0 24 24" stroke-width="2" stroke="currentColor" fill="none" stroke-linecap="round" stroke-linejoin="round"><path stroke="none" d="M0 0h24v24H0z" fill="none"/><path d="M21 10.663c0 -4.224 -4.041 -7.663 -9 -7.663s-9 3.439 -9 7.663c0 3.783 3.201 6.958 7.527 7.56c1.053 .239 .932 .644 .696 2.133c-.039 .238 -.184 .932 .777 .512c.96 -.42 5.18 -3.201 7.073 -5.48c1.304 -1.504 1.927 -3.029 1.927 -4.715v-.01z" />
</symbol>
	<symbol id="brand-paypal-filled" class="icon icon-tabler icon-tabler-brand-paypal-filled" viewBox="0 0 24 24" stroke-width="2" stroke="currentColor" fill="none" stroke-linecap="round" stroke-linejoin="round"><path stroke="none" d="M0 0h24v24H0z" fill="none"/><path d="M12.5 2c3.113 0 5.309 1.785 5.863 4.565c1.725 1.185 2.637 3.152 2.637 5.435c0 2.933 -2.748 5.384 -5.783 5.496l-.217 .004h-1.754l-.466 2.8a1.998 1.998 0 0 1 -1.823 1.597l-.157 .003h-2.68a1.5 1.5 0 0 1 -1.182 -.54a1.495 1.495 0 0 1 -.348 -1.07l.042 -.29h-1.632c-1.004 0 -1.914 -.864 -1.994 -1.857l-.006 -.143l.01 -.141l1.993 -13.954l.003 -.048c.072 -.894 .815 -1.682 1.695 -1.832l.156 -.02l.143 -.005h5.5zm5.812 7.35l-.024 .087c-.706 2.403 -3.072 4.436 -5.555 4.557l-.233 .006h-2.503v.05l-.025 .183l-1.2 5a1.007 1.007 0 0 1 -.019 .07l-.088 .597h2.154l.595 -3.564a1 1 0 0 1 .865 -.829l.121 -.007h2.6c2.073 0 4 -1.67 4 -3.5c0 -1.022 -.236 -1.924 -.688 -2.65z" stroke-width="0" fill="currentColor" />
</symbol>
	<symbol id="brand-tikto-filled" class="icon icon-tabler icon-tabler-brand-tikto-filled" viewBox="0 0 24 24" stroke-width="2" stroke="currentColor" fill="none" stroke-linecap="round" stroke-linejoin="round"><path stroke="none" d="M0 0h24v24H0z" fill="none"/><path d="M16.083 2h-4.083a1 1 0 0 0 -1 1v11.5a1.5 1.5 0 1 1 -2.519 -1.1l.12 -.1a1 1 0 0 0 .399 -.8v-4.326a1 1 0 0 0 -1.23 -.974a7.5 7.5 0 0 0 1.73 14.8l.243 -.005a7.5 7.5 0 0 0 7.257 -7.495v-2.7l.311 .153c1.122 .53 2.333 .868 3.59 .993a1 1 0 0 0 1.099 -.996v-4.033a1 1 0 0 0 -.834 -.986a5.005 5.005 0 0 1 -4.097 -4.096a1 1 0 0 0 -.986 -.835z" stroke-width="0" fill="currentColor" />
</symbol>
	<symbol id="brand-twitter-filled" class="icon icon-tabler icon-tabler-brand-twitter-filled" viewBox="0 0 24 24" stroke-width="2" stroke="currentColor" fill="none" stroke-linecap="round" stroke-linejoin="round"><path stroke="none" d="M0 0h24v24H0z" fill="none"/><path d="M14.058 3.41c-1.807 .767 -2.995 2.453 -3.056 4.38l-.002 .182l-.243 -.023c-2.392 -.269 -4.498 -1.512 -5.944 -3.531a1 1 0 0 0 -1.685 .092l-.097 .186l-.049 .099c-.719 1.485 -1.19 3.29 -1.017 5.203l.03 .273c.283 2.263 1.5 4.215 3.779 5.679l.173 .107l-.081 .043c-1.315 .663 -2.518 .952 -3.827 .9c-1.056 -.04 -1.446 1.372 -.518 1.878c3.598 1.961 7.461 2.566 10.792 1.6c4.06 -1.18 7.152 -4.223 8.335 -8.433l.127 -.495c.238 -.993 .372 -2.006 .401 -3.024l.003 -.332l.393 -.779l.44 -.862l.214 -.434l.118 -.247c.265 -.565 .456 -1.033 .574 -1.43l.014 -.056l.008 -.018c.22 -.593 -.166 -1.358 -.941 -1.358l-.122 .007a.997 .997 0 0 0 -.231 .057l-.086 .038a7.46 7.46 0 0 1 -.88 .36l-.356 .115l-.271 .08l-.772 .214c-1.336 -1.118 -3.144 -1.254 -5.012 -.554l-.211 .084z" stroke-width="0" fill="currentColor" />
</symbol>
	<symbol id="eye-closed" class="icon icon-tabler icon-tabler-eye-closed" viewBox="0 0 24 24" stroke-width="2" stroke="currentColor" fill="none" stroke-linecap="round" stroke-linejoin="round"><path stroke="none" d="M0 0h24v24H0z" fill="none"/><path d="M21 9c-2.4 2.667 -5.4 4 -9 4c-3.6 0 -6.6 -1.333 -9 -4" /><path d="M3 15l2.5 -3.8" /><path d="M21 14.976l-2.492 -3.776" /><path d="M9 17l.5 -4" /><path d="M15 17l-.5 -4" />
</symbol>
	<symbol id="eye-cog" class="icon icon-tabler icon-tabler-eye-cog" viewBox="0 0 24 24" stroke-width="2" stroke="currentColor" fill="none" stroke-linecap="round" stroke-linejoin="round"><path stroke="none" d="M0 0h24v24H0z" fill="none"/><path d="M10 12a2 2 0 1 0 4 0a2 2 0 0 0 -4 0" /><path d="M12 18c-3.6 0 -6.6 -2 -9 -6c2.4 -4 5.4 -6 9 -6c3.6 0 6.6 2 9 6" /><path d="M19.001 19m-2 0a2 2 0 1 0 4 0a2 2 0 1 0 -4 0" /><path d="M19.001 15.5v1.5" /><path d="M19.001 21v1.5" /><path d="M22.032 17.25l-1.299 .75" /><path d="M17.27 20l-1.3 .75" /><path d="M15.97 17.25l1.3 .75" /><path d="M20.733 20l1.3 .75" />
</symbol>
	<symbol id="eye-edit" class="icon icon-tabler icon-tabler-eye-edit" viewBox="0 0 24 24" stroke-width="2" stroke="currentColor" fill="none" stroke-linecap="round" stroke-linejoin="round"><path stroke="none" d="M0 0h24v24H0z" fill="none"/><path d="M10 12a2 2 0 1 0 4 0a2 2 0 0 0 -4 0" /><path d="M11.192 17.966c-3.242 -.28 -5.972 -2.269 -8.192 -5.966c2.4 -4 5.4 -6 9 -6c3.326 0 6.14 1.707 8.442 5.122" /><path d="M18.42 15.61a2.1 2.1 0 0 1 2.97 2.97l-3.39 3.42h-3v-3l3.42 -3.39z" />
</symbol>
	<symbol id="eye-exclamation" class="icon icon-tabler icon-tabler-eye-exclamation" viewBox="0 0 24 24" stroke-width="2" stroke="currentColor" fill="none" stroke-linecap="round" stroke-linejoin="round"><path stroke="none" d="M0 0h24v24H0z" fill="none"/><path d="M10 12a2 2 0 1 0 4 0a2 2 0 0 0 -4 0" /><path d="M14.473 17.659a8.897 8.897 0 0 1 -2.473 .341c-3.6 0 -6.6 -2 -9 -6c2.4 -4 5.4 -6 9 -6c3.6 0 6.6 2 9 6" /><path d="M19 16v3" /><path d="M19 22v.01" />
</symbol>
	<symbol id="eye-heart" class="icon icon-tabler icon-tabler-eye-heart" viewBox="0 0 24 24" stroke-width="2" stroke="currentColor" fill="none" stroke-linecap="round" stroke-linejoin="round"><path stroke="none" d="M0 0h24v24H0z" fill="none"/><path d="M13.923 11.45a2 2 0 1 0 -2.87 2.312" /><path d="M10 17.78c-2.726 -.618 -5.059 -2.545 -7 -5.78c2.4 -4 5.4 -6 9 -6c3.325 0 6.137 1.705 8.438 5.117" /><path d="M18 22l3.35 -3.284a2.143 2.143 0 0 0 .005 -3.071a2.242 2.242 0 0 0 -3.129 -.006l-.224 .22l-.223 -.22a2.242 2.242 0 0 0 -3.128 -.006a2.143 2.143 0 0 0 -.006 3.071l3.355 3.296z" />
</symbol>
	<symbol id="eye-x" class="icon icon-tabler icon-tabler-eye-x" viewBox="0 0 24 24" stroke-width="2" stroke="currentColor" fill="none" stroke-linecap="round" stroke-linejoin="round"><path stroke="none" d="M0 0h24v24H0z" fill="none"/><path d="M10 12a2 2 0 1 0 4 0a2 2 0 0 0 -4 0" /><path d="M13.117 17.933a9.275 9.275 0 0 1 -1.117 .067c-3.6 0 -6.6 -2 -9 -6c2.4 -4 5.4 -6 9 -6c3.6 0 6.6 2 9 6a18.728 18.728 0 0 1 -1.009 1.516" /><path d="M22 22l-5 -5" /><path d="M17 22l5 -5" />
</symbol>
	<symbol id="mood-confuzed-filled" class="icon icon-tabler icon-tabler-mood-confuzed-filled" viewBox="0 0 24 24" stroke-width="2" stroke="currentColor" fill="none" stroke-linecap="round" stroke-linejoin="round"><path stroke="none" d="M0 0h24v24H0z" fill="none"/><path d="M17 3.34a10 10 0 1 1 -14.995 8.984l-.005 -.324l.005 -.324a10 10 0 0 1 14.995 -8.336zm-1.43 10.162a11 11 0 0 0 -6.6 1.65a1 1 0 0 0 1.06 1.696a9 9 0 0 1 5.4 -1.35a1 1 0 0 0 .14 -1.996zm-6.56 -4.502l-.127 .007a1 1 0 0 0 0 1.986l.117 .007l.127 -.007a1 1 0 0 0 0 -1.986l-.117 -.007zm6 0l-.127 .007a1 1 0 0 0 0 1.986l.117 .007l.127 -.007a1 1 0 0 0 0 -1.986l-.117 -.007z" stroke-width="0" fill="currentColor" />
</symbol>
	<symbol id="mood-empty-filled" class="icon icon-tabler icon-tabler-mood-empty-filled" viewBox="0 0 24 24" stroke-width="2" stroke="currentColor" fill="none" stroke-linecap="round" stroke-linejoin="round"><path stroke="none" d="M0 0h24v24H0z" fill="none"/><path d="M17 3.34a10 10 0 1 1 -14.995 8.984l-.005 -.324l.005 -.324a10 10 0 0 1 14.995 -8.336zm-2 10.66h-6l-.117 .007a1 1 0 0 0 0 1.986l.117 .007h6l.117 -.007a1 1 0 0 0 0 -1.986l-.117 -.007zm-5.99 -5l-.127 .007a1 1 0 0 0 0 1.986l.117 .007l.127 -.007a1 1 0 0 0 0 -1.986l-.117 -.007zm6 0l-.127 .007a1 1 0 0 0 0 1.986l.117 .007l.127 -.007a1 1 0 0 0 0 -1.986l-.117 -.007z" stroke-width="0" fill="currentColor" />
</symbol>
	<symbol id="mood-happy-filled" class="icon icon-tabler icon-tabler-mood-happy-filled" viewBox="0 0 24 24" stroke-width="2" stroke="currentColor" fill="none" stroke-linecap="round" stroke-linejoin="round"><path stroke="none" d="M0 0h24v24H0z" fill="none"/><path d="M17 3.34a10 10 0 1 1 -14.995 8.984l-.005 -.324l.005 -.324a10 10 0 0 1 14.995 -8.336zm-2 9.66h-6a1 1 0 0 0 -1 1v.05a3.975 3.975 0 0 0 3.777 3.97l.227 .005a4.026 4.026 0 0 0 3.99 -3.79l.006 -.206a1 1 0 0 0 -1 -1.029zm-5.99 -5l-.127 .007a1 1 0 0 0 .117 1.993l.127 -.007a1 1 0 0 0 -.117 -1.993zm6 0l-.127 .007a1 1 0 0 0 .117 1.993l.127 -.007a1 1 0 0 0 -.117 -1.993z" stroke-width="0" fill="currentColor" />
</symbol>
	<symbol id="mood-kid-filled" class="icon icon-tabler icon-tabler-mood-kid-filled" viewBox="0 0 24 24" stroke-width="2" stroke="currentColor" fill="none" stroke-linecap="round" stroke-linejoin="round"><path stroke="none" d="M0 0h24v24H0z" fill="none"/><path d="M17 3.34a10 10 0 1 1 -14.995 8.984l-.005 -.324l.005 -.324a10 10 0 0 1 7.046 -9.232a3 3 0 0 0 2.949 3.556a1 1 0 0 0 0 -2l-.117 -.007a1 1 0 0 1 .117 -1.993c1.726 0 3.453 .447 5 1.34zm-1.8 10.946a1 1 0 0 0 -1.414 .014a2.5 2.5 0 0 1 -3.572 0a1 1 0 0 0 -1.428 1.4a4.5 4.5 0 0 0 6.428 0a1 1 0 0 0 -.014 -1.414zm-6.19 -5.286l-.127 .007a1 1 0 0 0 .117 1.993l.127 -.007a1 1 0 0 0 -.117 -1.993zm6 0l-.127 .007a1 1 0 0 0 .117 1.993l.127 -.007a1 1 0 0 0 -.117 -1.993z" stroke-width="0" fill="currentColor" />
</symbol>
	<symbol id="mood-neutral-filled" class="icon icon-tabler icon-tabler-mood-neutral-filled" viewBox="0 0 24 24" stroke-width="2" stroke="currentColor" fill="none" stroke-linecap="round" stroke-linejoin="round"><path stroke="none" d="M0 0h24v24H0z" fill="none"/><path d="M17 3.34a10 10 0 1 1 -14.995 8.984l-.005 -.324l.005 -.324a10 10 0 0 1 14.995 -8.336zm-7.99 5.66l-.127 .007a1 1 0 0 0 0 1.986l.117 .007l.127 -.007a1 1 0 0 0 0 -1.986l-.117 -.007zm6 0l-.127 .007a1 1 0 0 0 0 1.986l.117 .007l.127 -.007a1 1 0 0 0 0 -1.986l-.117 -.007z" stroke-width="0" fill="currentColor" />
</symbol>
	<symbol id="mood-sad-filled" class="icon icon-tabler icon-tabler-mood-sad-filled" viewBox="0 0 24 24" stroke-width="2" stroke="currentColor" fill="none" stroke-linecap="round" stroke-linejoin="round"><path stroke="none" d="M0 0h24v24H0z" fill="none"/><path d="M17 3.34a10 10 0 1 1 -14.995 8.984l-.005 -.324l.005 -.324a10 10 0 0 1 14.995 -8.336zm-5 9.86a4.5 4.5 0 0 0 -3.214 1.35a1 1 0 1 0 1.428 1.4a2.5 2.5 0 0 1 3.572 0a1 1 0 0 0 1.428 -1.4a4.5 4.5 0 0 0 -3.214 -1.35zm-2.99 -4.2l-.127 .007a1 1 0 0 0 0 1.986l.117 .007l.127 -.007a1 1 0 0 0 0 -1.986l-.117 -.007zm6 0l-.127 .007a1 1 0 0 0 0 1.986l.117 .007l.127 -.007a1 1 0 0 0 0 -1.986l-.117 -.007z" stroke-width="0" fill="currentColor" />
</symbol>
	<symbol id="mood-smile-filled" class="icon icon-tabler icon-tabler-mood-smile-filled" viewBox="0 0 24 24" stroke-width="2" stroke="currentColor" fill="none" stroke-linecap="round" stroke-linejoin="round"><path stroke="none" d="M0 0h24v24H0z" fill="none"/><path d="M17 3.34a10 10 0 1 1 -14.995 8.984l-.005 -.324l.005 -.324a10 10 0 0 1 14.995 -8.336zm-1.8 10.946a1 1 0 0 0 -1.414 .014a2.5 2.5 0 0 1 -3.572 0a1 1 0 0 0 -1.428 1.4a4.5 4.5 0 0 0 6.428 0a1 1 0 0 0 -.014 -1.414zm-6.19 -5.286l-.127 .007a1 1 0 0 0 .117 1.993l.127 -.007a1 1 0 0 0 -.117 -1.993zm6 0l-.127 .007a1 1 0 0 0 .117 1.993l.127 -.007a1 1 0 0 0 -.117 -1.993z" stroke-width="0" fill="currentColor" />
</symbol>
	<symbol id="mushroom-filled" class="icon icon-tabler icon-tabler-mushroom-filled" viewBox="0 0 24 24" stroke-width="2" stroke="currentColor" fill="none" stroke-linecap="round" stroke-linejoin="round"><path stroke="none" d="M0 0h24v24H0z" fill="none"/><path d="M15 15v4a3 3 0 0 1 -5.995 .176l-.005 -.176v-4h6zm-10.1 -2a1.9 1.9 0 0 1 -1.894 -1.752l-.006 -.148c0 -5.023 4.027 -9.1 9 -9.1s9 4.077 9 9.1a1.9 1.9 0 0 1 -1.752 1.894l-.148 .006h-14.2z" stroke-width="0" fill="currentColor" />
</symbol>
	<symbol id="square-2-filled" class="icon icon-tabler icon-tabler-square-2-filled" viewBox="0 0 24 24" stroke-width="2" stroke="currentColor" fill="none" stroke-linecap="round" stroke-linejoin="round"><path stroke="none" d="M0 0h24v24H0z" fill="none"/><path d="M18.333 2c1.96 0 3.56 1.537 3.662 3.472l.005 .195v12.666c0 1.96 -1.537 3.56 -3.472 3.662l-.195 .005h-12.666a3.667 3.667 0 0 1 -3.662 -3.472l-.005 -.195v-12.666c0 -1.96 1.537 -3.56 3.472 -3.662l.195 -.005h12.666zm-5.333 5h-3l-.117 .007a1 1 0 0 0 0 1.986l.117 .007h3v2h-2l-.15 .005a2 2 0 0 0 -1.844 1.838l-.006 .157v2l.005 .15a2 2 0 0 0 1.838 1.844l.157 .006h3l.117 -.007a1 1 0 0 0 0 -1.986l-.117 -.007h-3v-2h2l.15 -.005a2 2 0 0 0 1.844 -1.838l.006 -.157v-2l-.005 -.15a2 2 0 0 0 -1.838 -1.844l-.157 -.006z" stroke-width="0" fill="currentColor" />
</symbol>

	<use xlink:href="#ad-circle-filled" x="24" y="24" width="24" height="24" />
	<use xlink:href="#align-box-center-middle-filled" x="68" y="24" width="24" height="24" />
	<use xlink:href="#align-box-right-middle-filled" x="112" y="24" width="24" height="24" />
	<use xlink:href="#arrow-badge-down-filled" x="156" y="24" width="24" height="24" />
	<use xlink:href="#arrow-badge-left-filled" x="200" y="24" width="24" height="24" />
	<use xlink:href="#arrow-badge-right-filled" x="244" y="24" width="24" height="24" />
	<use xlink:href="#arrow-badge-up-filled" x="24" y="68" width="24" height="24" />
	<use xlink:href="#article-filled-filled" x="68" y="68" width="24" height="24" />
	<use xlink:href="#aspect-ratio-filled" x="112" y="68" width="24" height="24" />
	<use xlink:href="#backspace-filled" x="156" y="68" width="24" height="24" />
	<use xlink:href="#badges-filled" x="200" y="68" width="24" height="24" />
	<use xlink:href="#bandage-filled" x="244" y="68" width="24" height="24" />
	<use xlink:href="#basket-filled" x="24" y="112" width="24" height="24" />
	<use xlink:href="#bed-filled" x="68" y="112" width="24" height="24" />
	<use xlink:href="#beer-filled" x="112" y="112" width="24" height="24" />
	<use xlink:href="#blade-filled" x="156" y="112" width="24" height="24" />
	<use xlink:href="#brand-crunchbase" x="200" y="112" width="24" height="24" />
	<use xlink:href="#brand-discord-filled" x="244" y="112" width="24" height="24" />
	<use xlink:href="#brand-dribbble-filled" x="24" y="156" width="24" height="24" />
	<use xlink:href="#brand-facebook-filled" x="68" y="156" width="24" height="24" />
	<use xlink:href="#brand-github-filled" x="112" y="156" width="24" height="24" />
	<use xlink:href="#brand-line" x="156" y="156" width="24" height="24" />
	<use xlink:href="#brand-paypal-filled" x="200" y="156" width="24" height="24" />
	<use xlink:href="#brand-tikto-filled" x="244" y="156" width="24" height="24" />
	<use xlink:href="#brand-twitter-filled" x="24" y="200" width="24" height="24" />
	<use xlink:href="#eye-closed" x="68" y="200" width="24" height="24" />
	<use xlink:href="#eye-cog" x="112" y="200" width="24" height="24" />
	<use xlink:href="#eye-edit" x="156" y="200" width="24" height="24" />
	<use xlink:href="#eye-exclamation" x="200" y="200" width="24" height="24" />
	<use xlink:href="#eye-heart" x="244" y="200" width="24" height="24" />
	<use xlink:href="#eye-x" x="24" y="244" width="24" height="24" />
	<use xlink:href="#mood-confuzed-filled" x="68" y="244" width="24" height="24" />
	<use xlink:href="#mood-empty-filled" x="112" y="244" width="24" height="24" />
	<use xlink:href="#mood-happy-filled" x="156" y="244" width="24" height="24" />
	<use xlink:href="#mood-kid-filled" x="200" y="244" width="24" height="24" />
	<use xlink:href="#mood-neutral-filled" x="244" y="244" width="24" height="24" />
	<use xlink:href="#mood-sad-filled" x="24" y="288" width="24" height="24" />
	<use xlink:href="#mood-smile-filled" x="68" y="288" width="24" height="24" />
	<use xlink:href="#mushroom-filled" x="112" y="288" width="24" height="24" />
	<use xlink:href="#square-2-filled" x="156" y="288" width="24" height="24" />

</svg>