<svg xmlns="http://www.w3.org/2000/svg" xmlns:xlink="http://www.w3.org/1999/xlink" viewBox="0 0 292 160" width="292" height="160" style="color: #354052"><rect x="0" y="0" width="292" height="160" fill="#fff"></rect>
	<symbol id="bluetooth-x" class="icon icon-tabler icon-tabler-bluetooth-x" viewBox="0 0 24 24" stroke-width="2" stroke="currentColor" fill="none" stroke-linecap="round" stroke-linejoin="round"><path stroke="none" d="M0 0h24v24H0z" fill="none"/><path d="M7 8l10 8l-5 4v-16l1.003 .802m0 6.396l-6.003 4.802" /><path d="M16 6l4 4" /><path d="M20 6l-4 4" />
</symbol>
	<symbol id="building-factory-2" class="icon icon-tabler icon-tabler-building-factory-2" viewBox="0 0 24 24" stroke-width="2" stroke="currentColor" fill="none" stroke-linecap="round" stroke-linejoin="round"><path stroke="none" d="M0 0h24v24H0z" fill="none"/><path d="M3 21h18" /><path d="M5 21v-12l5 4v-4l5 4h4" /><path d="M19 21v-8l-1.436 -9.574a0.5 .5 0 0 0 -.495 -.426h-1.145a0.5 .5 0 0 0 -.494 .418l-1.43 8.582" /><path d="M9 17h1" /><path d="M14 17h1" />
</symbol>
	<symbol id="cell-signal-1" class="icon icon-tabler icon-tabler-cell-signal-1" viewBox="0 0 24 24" stroke-width="2" stroke="currentColor" fill="none" stroke-linecap="round" stroke-linejoin="round"><path stroke="none" d="M0 0h24v24H0z" fill="none"/><path d="M20 20h-15.269a0.731 .731 0 0 1 -.517 -1.249l14.537 -14.537a0.731 .731 0 0 1 1.249 .517v15.269z" />
</symbol>
	<symbol id="cell-signal-2" class="icon icon-tabler icon-tabler-cell-signal-2" viewBox="0 0 24 24" stroke-width="2" stroke="currentColor" fill="none" stroke-linecap="round" stroke-linejoin="round"><path stroke="none" d="M0 0h24v24H0z" fill="none"/><path d="M20 20h-15.269a0.731 .731 0 0 1 -.517 -1.249l14.537 -14.537a0.731 .731 0 0 1 1.249 .517v15.269z" /><path d="M8 20v-5" />
</symbol>
	<symbol id="cell-signal-3" class="icon icon-tabler icon-tabler-cell-signal-3" viewBox="0 0 24 24" stroke-width="2" stroke="currentColor" fill="none" stroke-linecap="round" stroke-linejoin="round"><path stroke="none" d="M0 0h24v24H0z" fill="none"/><path d="M20 20h-15.269a0.731 .731 0 0 1 -.517 -1.249l14.537 -14.537a0.731 .731 0 0 1 1.249 .517v15.269z" /><path d="M12 20v-9" />
</symbol>
	<symbol id="cell-signal-4" class="icon icon-tabler icon-tabler-cell-signal-4" viewBox="0 0 24 24" stroke-width="2" stroke="currentColor" fill="none" stroke-linecap="round" stroke-linejoin="round"><path stroke="none" d="M0 0h24v24H0z" fill="none"/><path d="M20 20h-15.269a0.731 .731 0 0 1 -.517 -1.249l14.537 -14.537a0.731 .731 0 0 1 1.249 .517v15.269z" /><path d="M16 7v13" />
</symbol>
	<symbol id="cell-signal-5" class="icon icon-tabler icon-tabler-cell-signal-5" viewBox="0 0 24 24" stroke-width="2" stroke="currentColor" fill="none" stroke-linecap="round" stroke-linejoin="round"><path stroke="none" d="M0 0h24v24H0z" fill="none"/><path d="M20 20h-15.269a0.731 .731 0 0 1 -.517 -1.249l14.537 -14.537a0.731 .731 0 0 1 1.249 .517v15.269z" /><path d="M16 7v13" /><path d="M12 20v-9" /><path d="M8 20v-5" />
</symbol>
	<symbol id="cell-signal-off" class="icon icon-tabler icon-tabler-cell-signal-off" viewBox="0 0 24 24" stroke-width="2" stroke="currentColor" fill="none" stroke-linecap="round" stroke-linejoin="round"><path stroke="none" d="M0 0h24v24H0z" fill="none"/><path d="M20 20h-15.269a0.731 .731 0 0 1 -.517 -1.249l7.265 -7.264m2 -2.001l5.272 -5.272a0.731 .731 0 0 1 1.249 .517v11.269" /><path d="M3 3l18 18" />
</symbol>
	<symbol id="clipboard-text" class="icon icon-tabler icon-tabler-clipboard-text" viewBox="0 0 24 24" stroke-width="2" stroke="currentColor" fill="none" stroke-linecap="round" stroke-linejoin="round"><path stroke="none" d="M0 0h24v24H0z" fill="none"/><path d="M9 5h-2a2 2 0 0 0 -2 2v12a2 2 0 0 0 2 2h10a2 2 0 0 0 2 -2v-12a2 2 0 0 0 -2 -2h-2" /><rect x="9" y="3" width="6" height="4" rx="2" /><path d="M9 12h6" /><path d="M9 16h6" />
</symbol>
	<symbol id="dice-1" class="icon icon-tabler icon-tabler-dice-1" viewBox="0 0 24 24" stroke-width="2" stroke="currentColor" fill="none" stroke-linecap="round" stroke-linejoin="round"><path stroke="none" d="M0 0h24v24H0z" fill="none"/><rect x="4" y="4" width="16" height="16" rx="2" /><circle cx="12" cy="12" r=".5" fill="currentColor" />
</symbol>
	<symbol id="dice-2" class="icon icon-tabler icon-tabler-dice-2" viewBox="0 0 24 24" stroke-width="2" stroke="currentColor" fill="none" stroke-linecap="round" stroke-linejoin="round"><path stroke="none" d="M0 0h24v24H0z" fill="none"/><rect x="4" y="4" width="16" height="16" rx="2" /><circle cx="9.5" cy="9.5" r=".5" fill="currentColor" /><circle cx="14.5" cy="14.5" r=".5" fill="currentColor" />
</symbol>
	<symbol id="dice-3" class="icon icon-tabler icon-tabler-dice-3" viewBox="0 0 24 24" stroke-width="2" stroke="currentColor" fill="none" stroke-linecap="round" stroke-linejoin="round"><path stroke="none" d="M0 0h24v24H0z" fill="none"/><rect x="4" y="4" width="16" height="16" rx="2" /><circle cx="8.5" cy="8.5" r=".5" fill="currentColor" /><circle cx="15.5" cy="15.5" r=".5" fill="currentColor" /><circle cx="12" cy="12" r=".5" fill="currentColor" />
</symbol>
	<symbol id="dice-4" class="icon icon-tabler icon-tabler-dice-4" viewBox="0 0 24 24" stroke-width="2" stroke="currentColor" fill="none" stroke-linecap="round" stroke-linejoin="round"><path stroke="none" d="M0 0h24v24H0z" fill="none"/><rect x="4" y="4" width="16" height="16" rx="2" /><circle cx="8.5" cy="8.5" r=".5" fill="currentColor" /><circle cx="15.5" cy="8.5" r=".5" fill="currentColor" /><circle cx="15.5" cy="15.5" r=".5" fill="currentColor" /><circle cx="8.5" cy="15.5" r=".5" fill="currentColor" />
</symbol>
	<symbol id="dice-5" class="icon icon-tabler icon-tabler-dice-5" viewBox="0 0 24 24" stroke-width="2" stroke="currentColor" fill="none" stroke-linecap="round" stroke-linejoin="round"><path stroke="none" d="M0 0h24v24H0z" fill="none"/><rect x="4" y="4" width="16" height="16" rx="2" /><circle cx="8.5" cy="8.5" r=".5" fill="currentColor" /><circle cx="15.5" cy="8.5" r=".5" fill="currentColor" /><circle cx="15.5" cy="15.5" r=".5" fill="currentColor" /><circle cx="8.5" cy="15.5" r=".5" fill="currentColor" /><circle cx="12" cy="12" r=".5" fill="currentColor" />
</symbol>
	<symbol id="dice-6" class="icon icon-tabler icon-tabler-dice-6" viewBox="0 0 24 24" stroke-width="2" stroke="currentColor" fill="none" stroke-linecap="round" stroke-linejoin="round"><path stroke="none" d="M0 0h24v24H0z" fill="none"/><rect x="4" y="4" width="16" height="16" rx="2" /><circle cx="8.5" cy="7.5" r=".5" fill="currentColor" /><circle cx="15.5" cy="7.5" r=".5" fill="currentColor" /><circle cx="8.5" cy="12" r=".5" fill="currentColor" /><circle cx="15.5" cy="12" r=".5" fill="currentColor" /><circle cx="15.5" cy="16.5" r=".5" fill="currentColor" /><circle cx="8.5" cy="16.5" r=".5" fill="currentColor" />
</symbol>
	<symbol id="hand-grab" class="icon icon-tabler icon-tabler-hand-grab" viewBox="0 0 24 24" stroke-width="2" stroke="currentColor" fill="none" stroke-linecap="round" stroke-linejoin="round"><path stroke="none" d="M0 0h24v24H0z" fill="none"/><path d="M8 11v-3.5a1.5 1.5 0 0 1 3 0v2.5" /><path d="M11 9.5v-3a1.5 1.5 0 0 1 3 0v3.5" /><path d="M14 7.5a1.5 1.5 0 0 1 3 0v2.5" /><path d="M17 9.5a1.5 1.5 0 0 1 3 0v4.5a6 6 0 0 1 -6 6h-2h.208a6 6 0 0 1 -5.012 -2.7l-.196 -.3c-.312 -.479 -1.407 -2.388 -3.286 -5.728a1.5 1.5 0 0 1 .536 -2.022a1.867 1.867 0 0 1 2.28 .28l1.47 1.47" />
</symbol>
	<symbol id="hourglass-high" class="icon icon-tabler icon-tabler-hourglass-high" viewBox="0 0 24 24" stroke-width="2" stroke="currentColor" fill="none" stroke-linecap="round" stroke-linejoin="round"><path stroke="none" d="M0 0h24v24H0z" fill="none"/><path d="M6.5 7h11" /><path d="M6 20v-2a6 6 0 1 1 12 0v2a1 1 0 0 1 -1 1h-10a1 1 0 0 1 -1 -1z" /><path d="M6 4v2a6 6 0 1 0 12 0v-2a1 1 0 0 0 -1 -1h-10a1 1 0 0 0 -1 1z" />
</symbol>
	<symbol id="hourglass-low" class="icon icon-tabler icon-tabler-hourglass-low" viewBox="0 0 24 24" stroke-width="2" stroke="currentColor" fill="none" stroke-linecap="round" stroke-linejoin="round"><path stroke="none" d="M0 0h24v24H0z" fill="none"/><path d="M6.5 17h11" /><path d="M6 20v-2a6 6 0 1 1 12 0v2a1 1 0 0 1 -1 1h-10a1 1 0 0 1 -1 -1z" /><path d="M6 4v2a6 6 0 1 0 12 0v-2a1 1 0 0 0 -1 -1h-10a1 1 0 0 0 -1 1z" />
</symbol>

	<use xlink:href="#bluetooth-x" x="24" y="24" width="24" height="24" />
	<use xlink:href="#building-factory-2" x="68" y="24" width="24" height="24" />
	<use xlink:href="#cell-signal-1" x="112" y="24" width="24" height="24" />
	<use xlink:href="#cell-signal-2" x="156" y="24" width="24" height="24" />
	<use xlink:href="#cell-signal-3" x="200" y="24" width="24" height="24" />
	<use xlink:href="#cell-signal-4" x="244" y="24" width="24" height="24" />
	<use xlink:href="#cell-signal-5" x="24" y="68" width="24" height="24" />
	<use xlink:href="#cell-signal-off" x="68" y="68" width="24" height="24" />
	<use xlink:href="#clipboard-text" x="112" y="68" width="24" height="24" />
	<use xlink:href="#dice-1" x="156" y="68" width="24" height="24" />
	<use xlink:href="#dice-2" x="200" y="68" width="24" height="24" />
	<use xlink:href="#dice-3" x="244" y="68" width="24" height="24" />
	<use xlink:href="#dice-4" x="24" y="112" width="24" height="24" />
	<use xlink:href="#dice-5" x="68" y="112" width="24" height="24" />
	<use xlink:href="#dice-6" x="112" y="112" width="24" height="24" />
	<use xlink:href="#hand-grab" x="156" y="112" width="24" height="24" />
	<use xlink:href="#hourglass-high" x="200" y="112" width="24" height="24" />
	<use xlink:href="#hourglass-low" x="244" y="112" width="24" height="24" />

</svg>