<svg xmlns="http://www.w3.org/2000/svg" xmlns:xlink="http://www.w3.org/1999/xlink" viewBox="0 0 292 160" width="292" height="160" style="color: #354052"><rect x="0" y="0" width="292" height="160" fill="#fff"></rect>
	<symbol id="arrow-down-rhombus" class="icon icon-tabler icon-tabler-arrow-down-rhombus" viewBox="0 0 24 24" stroke-width="2" stroke="currentColor" fill="none" stroke-linecap="round" stroke-linejoin="round"><path stroke="none" d="M0 0h24v24H0z" fill="none"/><path d="M12 8v13" /><path d="M15 18l-3 3l-3 -3" /><path d="M14.5 5.5l-2.5 -2.5l-2.5 2.5l2.5 2.5z" />
</symbol>
	<symbol id="arrow-left-rhombus" class="icon icon-tabler icon-tabler-arrow-left-rhombus" viewBox="0 0 24 24" stroke-width="2" stroke="currentColor" fill="none" stroke-linecap="round" stroke-linejoin="round"><path stroke="none" d="M0 0h24v24H0z" fill="none"/><path d="M16 12h-13" /><path d="M6 9l-3 3l3 3" /><path d="M18.5 9.5l2.5 2.5l-2.5 2.5l-2.5 -2.5z" />
</symbol>
	<symbol id="arrow-right-rhombus" class="icon icon-tabler icon-tabler-arrow-right-rhombus" viewBox="0 0 24 24" stroke-width="2" stroke="currentColor" fill="none" stroke-linecap="round" stroke-linejoin="round"><path stroke="none" d="M0 0h24v24H0z" fill="none"/><path d="M8 12h13" /><path d="M18 9l3 3l-3 3" /><path d="M5.5 9.5l-2.5 2.5l2.5 2.5l2.5 -2.5z" />
</symbol>
	<symbol id="arrow-up-rhombus" class="icon icon-tabler icon-tabler-arrow-up-rhombus" viewBox="0 0 24 24" stroke-width="2" stroke="currentColor" fill="none" stroke-linecap="round" stroke-linejoin="round"><path stroke="none" d="M0 0h24v24H0z" fill="none"/><path d="M12 16v-13" /><path d="M15 6l-3 -3l-3 3" /><path d="M14.5 18.5l-2.5 2.5l-2.5 -2.5l2.5 -2.5z" />
</symbol>
	<symbol id="calendar-due" class="icon icon-tabler icon-tabler-calendar-due" viewBox="0 0 24 24" stroke-width="2" stroke="currentColor" fill="none" stroke-linecap="round" stroke-linejoin="round"><path stroke="none" d="M0 0h24v24H0z" fill="none"/><rect x="4" y="5" width="16" height="16" rx="2" /><path d="M16 3v4" /><path d="M8 3v4" /><path d="M4 11h16" /><circle cx="12" cy="16" r="1" />
</symbol>
	<symbol id="circle-chevron-down" class="icon icon-tabler icon-tabler-circle-chevron-down" viewBox="0 0 24 24" stroke-width="2" stroke="currentColor" fill="none" stroke-linecap="round" stroke-linejoin="round"><path stroke="none" d="M0 0h24v24H0z" fill="none"/><path d="M15 11l-3 3l-3 -3" /><path d="M12 3a9 9 0 1 0 0 18a9 9 0 0 0 0 -18z" />
</symbol>
	<symbol id="circle-chevron-left" class="icon icon-tabler icon-tabler-circle-chevron-left" viewBox="0 0 24 24" stroke-width="2" stroke="currentColor" fill="none" stroke-linecap="round" stroke-linejoin="round"><path stroke="none" d="M0 0h24v24H0z" fill="none"/><path d="M13 15l-3 -3l3 -3" /><path d="M21 12a9 9 0 1 0 -18 0a9 9 0 0 0 18 0z" />
</symbol>
	<symbol id="circle-chevron-right" class="icon icon-tabler icon-tabler-circle-chevron-right" viewBox="0 0 24 24" stroke-width="2" stroke="currentColor" fill="none" stroke-linecap="round" stroke-linejoin="round"><path stroke="none" d="M0 0h24v24H0z" fill="none"/><path d="M11 9l3 3l-3 3" /><path d="M3 12a9 9 0 1 0 18 0a9 9 0 0 0 -18 0z" />
</symbol>
	<symbol id="circle-chevron-up" class="icon icon-tabler icon-tabler-circle-chevron-up" viewBox="0 0 24 24" stroke-width="2" stroke="currentColor" fill="none" stroke-linecap="round" stroke-linejoin="round"><path stroke="none" d="M0 0h24v24H0z" fill="none"/><path d="M9 13l3 -3l3 3" /><circle cx="12" cy="12" r="9" />
</symbol>
	<symbol id="placeholder" class="icon icon-tabler icon-tabler-placeholder" viewBox="0 0 24 24" stroke-width="2" stroke="currentColor" fill="none" stroke-linecap="round" stroke-linejoin="round"><path stroke="none" d="M0 0h24v24H0z" fill="none"/><path d="M10 20.415a8 8 0 1 0 3 -15.415h-3" /><path d="M13 8l-3 -3l3 -3" /><path d="M7 17l4 -4l-4 -4l-4 4z" />
</symbol>
	<symbol id="square-chevron-down" class="icon icon-tabler icon-tabler-square-chevron-down" viewBox="0 0 24 24" stroke-width="2" stroke="currentColor" fill="none" stroke-linecap="round" stroke-linejoin="round"><path stroke="none" d="M0 0h24v24H0z" fill="none"/><path d="M15 11l-3 3l-3 -3" /><path d="M20 6.667v10.666a2.667 2.667 0 0 1 -2.667 2.667h-10.666a2.667 2.667 0 0 1 -2.667 -2.667v-10.666a2.667 2.667 0 0 1 2.667 -2.667h10.666a2.667 2.667 0 0 1 2.667 2.667z" />
</symbol>
	<symbol id="square-chevron-left" class="icon icon-tabler icon-tabler-square-chevron-left" viewBox="0 0 24 24" stroke-width="2" stroke="currentColor" fill="none" stroke-linecap="round" stroke-linejoin="round"><path stroke="none" d="M0 0h24v24H0z" fill="none"/><path d="M13 15l-3 -3l3 -3" /><path d="M20 6.667v10.666a2.667 2.667 0 0 1 -2.667 2.667h-10.666a2.667 2.667 0 0 1 -2.667 -2.667v-10.666a2.667 2.667 0 0 1 2.667 -2.667h10.666a2.667 2.667 0 0 1 2.667 2.667z" />
</symbol>
	<symbol id="square-chevron-right" class="icon icon-tabler icon-tabler-square-chevron-right" viewBox="0 0 24 24" stroke-width="2" stroke="currentColor" fill="none" stroke-linecap="round" stroke-linejoin="round"><path stroke="none" d="M0 0h24v24H0z" fill="none"/><path d="M11 9l3 3l-3 3" /><path d="M20 6.667v10.666a2.667 2.667 0 0 1 -2.667 2.667h-10.666a2.667 2.667 0 0 1 -2.667 -2.667v-10.666a2.667 2.667 0 0 1 2.667 -2.667h10.666a2.667 2.667 0 0 1 2.667 2.667z" />
</symbol>
	<symbol id="square-chevron-up" class="icon icon-tabler icon-tabler-square-chevron-up" viewBox="0 0 24 24" stroke-width="2" stroke="currentColor" fill="none" stroke-linecap="round" stroke-linejoin="round"><path stroke="none" d="M0 0h24v24H0z" fill="none"/><path d="M20 6.667v10.666a2.667 2.667 0 0 1 -2.667 2.667h-10.666a2.667 2.667 0 0 1 -2.667 -2.667v-10.666a2.667 2.667 0 0 1 2.667 -2.667h10.666a2.667 2.667 0 0 1 2.667 2.667z" /><path d="M9 13l3 -3l3 3" />
</symbol>
	<symbol id="square-rounded-chevron-down" class="icon icon-tabler icon-tabler-square-rounded-chevron-down" viewBox="0 0 24 24" stroke-width="2" stroke="currentColor" fill="none" stroke-linecap="round" stroke-linejoin="round"><path stroke="none" d="M0 0h24v24H0z" fill="none"/><path d="M15 11l-3 3l-3 -3" /><path d="M12 3c7.2 0 9 1.8 9 9s-1.8 9 -9 9s-9 -1.8 -9 -9s1.8 -9 9 -9z" />
</symbol>
	<symbol id="square-rounded-chevron-left" class="icon icon-tabler icon-tabler-square-rounded-chevron-left" viewBox="0 0 24 24" stroke-width="2" stroke="currentColor" fill="none" stroke-linecap="round" stroke-linejoin="round"><path stroke="none" d="M0 0h24v24H0z" fill="none"/><path d="M13 15l-3 -3l3 -3" /><path d="M12 3c7.2 0 9 1.8 9 9s-1.8 9 -9 9s-9 -1.8 -9 -9s1.8 -9 9 -9z" />
</symbol>
	<symbol id="square-rounded-chevron-right" class="icon icon-tabler icon-tabler-square-rounded-chevron-right" viewBox="0 0 24 24" stroke-width="2" stroke="currentColor" fill="none" stroke-linecap="round" stroke-linejoin="round"><path stroke="none" d="M0 0h24v24H0z" fill="none"/><path d="M11 9l3 3l-3 3" /><path d="M12 3c7.2 0 9 1.8 9 9s-1.8 9 -9 9s-9 -1.8 -9 -9s1.8 -9 9 -9z" />
</symbol>
	<symbol id="square-rounded-chevron-up" class="icon icon-tabler icon-tabler-square-rounded-chevron-up" viewBox="0 0 24 24" stroke-width="2" stroke="currentColor" fill="none" stroke-linecap="round" stroke-linejoin="round"><path stroke="none" d="M0 0h24v24H0z" fill="none"/><path d="M9 13l3 -3l3 3" /><path d="M12 3c7.2 0 9 1.8 9 9s-1.8 9 -9 9s-9 -1.8 -9 -9s1.8 -9 9 -9z" />
</symbol>

	<use xlink:href="#arrow-down-rhombus" x="24" y="24" width="24" height="24" />
	<use xlink:href="#arrow-left-rhombus" x="68" y="24" width="24" height="24" />
	<use xlink:href="#arrow-right-rhombus" x="112" y="24" width="24" height="24" />
	<use xlink:href="#arrow-up-rhombus" x="156" y="24" width="24" height="24" />
	<use xlink:href="#calendar-due" x="200" y="24" width="24" height="24" />
	<use xlink:href="#circle-chevron-down" x="244" y="24" width="24" height="24" />
	<use xlink:href="#circle-chevron-left" x="24" y="68" width="24" height="24" />
	<use xlink:href="#circle-chevron-right" x="68" y="68" width="24" height="24" />
	<use xlink:href="#circle-chevron-up" x="112" y="68" width="24" height="24" />
	<use xlink:href="#placeholder" x="156" y="68" width="24" height="24" />
	<use xlink:href="#square-chevron-down" x="200" y="68" width="24" height="24" />
	<use xlink:href="#square-chevron-left" x="244" y="68" width="24" height="24" />
	<use xlink:href="#square-chevron-right" x="24" y="112" width="24" height="24" />
	<use xlink:href="#square-chevron-up" x="68" y="112" width="24" height="24" />
	<use xlink:href="#square-rounded-chevron-down" x="112" y="112" width="24" height="24" />
	<use xlink:href="#square-rounded-chevron-left" x="156" y="112" width="24" height="24" />
	<use xlink:href="#square-rounded-chevron-right" x="200" y="112" width="24" height="24" />
	<use xlink:href="#square-rounded-chevron-up" x="244" y="112" width="24" height="24" />

</svg>