<svg xmlns="http://www.w3.org/2000/svg" xmlns:xlink="http://www.w3.org/1999/xlink" viewBox="0 0 332 436" width="332" height="436" style="color: #354052"><rect x="0" y="0" width="332" height="436" fill="#fff"></rect>
	<symbol id="anchor" class="icon icon-tabler icon-tabler-anchor" viewBox="0 0 24 24" stroke-width="2" stroke="currentColor" fill="none" stroke-linecap="round" stroke-linejoin="round"><path stroke="none" d="M0 0h24v24H0z"/><path d="M12 9v12m-8 -8a8 8 0 0 0 16 0m1 0h-2m-14 0h-2" /><circle cx="12" cy="6" r="3" />
</symbol>
	<symbol id="arrow-back-up" class="icon icon-tabler icon-tabler-arrow-back-up" viewBox="0 0 24 24" stroke-width="2" stroke="currentColor" fill="none" stroke-linecap="round" stroke-linejoin="round"><path stroke="none" d="M0 0h24v24H0z"/><path d="M9 13l-4 -4l4 -4m-4 4h11a4 4 0 0 1 0 8h-1" />
</symbol>
	<symbol id="arrow-forward-up" class="icon icon-tabler icon-tabler-arrow-forward-up" viewBox="0 0 24 24" stroke-width="2" stroke="currentColor" fill="none" stroke-linecap="round" stroke-linejoin="round"><path stroke="none" d="M0 0h24v24H0z"/><path d="M15 13l4 -4l-4 -4m4 4h-11a4 4 0 0 0 0 8h1" />
</symbol>
	<symbol id="atom" class="icon icon-tabler icon-tabler-atom" viewBox="0 0 24 24" stroke-width="2" stroke="currentColor" fill="none" stroke-linecap="round" stroke-linejoin="round"><path stroke="none" d="M0 0h24v24H0z"/><line x1="12" y1="12" x2="12" y2="12.01" /><path d="M12 2a4 10 0 0 0 -4 10a4 10 0 0 0 4 10a4 10 0 0 0 4 -10a4 10 0 0 0 -4 -10" transform="rotate(45 12 12)" /><path d="M12 2a4 10 0 0 0 -4 10a4 10 0 0 0 4 10a4 10 0 0 0 4 -10a4 10 0 0 0 -4 -10" transform="rotate(-45 12 12)" />
</symbol>
	<symbol id="bandage" class="icon icon-tabler icon-tabler-bandage" viewBox="0 0 24 24" stroke-width="2" stroke="currentColor" fill="none" stroke-linecap="round" stroke-linejoin="round"><path stroke="none" d="M0 0h24v24H0z"/><line x1="14" y1="12" x2="14" y2="12.01" /><line x1="10" y1="12" x2="10" y2="12.01" /><line x1="12" y1="10" x2="12" y2="10.01" /><line x1="12" y1="14" x2="12" y2="14.01" /><path d="M4.5 12.5l8 -8a4.94 4.94 0 0 1 7 7l-8 8a4.94 4.94 0 0 1 -7 -7" />
</symbol>
	<symbol id="bold" class="icon icon-tabler icon-tabler-bold" viewBox="0 0 24 24" stroke-width="2" stroke="currentColor" fill="none" stroke-linecap="round" stroke-linejoin="round"><path stroke="none" d="M0 0h24v24H0z"/><path d="M7 5h6a3.5 3.5 0 0 1 0 7h-6z" /><path d="M13 12h1a3.5 3.5 0 0 1 0 7h-7v-7" />
</symbol>
	<symbol id="border-radius" class="icon icon-tabler icon-tabler-border-radius" viewBox="0 0 24 24" stroke-width="2" stroke="currentColor" fill="none" stroke-linecap="round" stroke-linejoin="round"><path stroke="none" d="M0 0h24v24H0z"/><path d="M16.01 4h4v16h-16v-4.01" stroke-dasharray=".001 4" /><path d="M4 12v-4a4 4 0 0 1 4 -4h4" />
</symbol>
	<symbol id="brightness-down" class="icon icon-tabler icon-tabler-brightness-down" viewBox="0 0 24 24" stroke-width="2" stroke="currentColor" fill="none" stroke-linecap="round" stroke-linejoin="round"><path stroke="none" d="M0 0h24v24H0z"/><circle cx="12" cy="12" r="3" /><line x1="12" y1="5" x2="12" y2="5.01" /><line x1="17" y1="7" x2="17" y2="7.01" /><line x1="19" y1="12" x2="19" y2="12.01" /><line x1="17" y1="17" x2="17" y2="17.01" /><line x1="12" y1="19" x2="12" y2="19.01" /><line x1="7" y1="17" x2="7" y2="17.01" /><line x1="5" y1="12" x2="5" y2="12.01" /><line x1="7" y1="7" x2="7" y2="7.01" />
</symbol>
	<symbol id="brightness-up" class="icon icon-tabler icon-tabler-brightness-up" viewBox="0 0 24 24" stroke-width="2" stroke="currentColor" fill="none" stroke-linecap="round" stroke-linejoin="round"><path stroke="none" d="M0 0h24v24H0z"/><circle cx="12" cy="12" r="3" /><line x1="12" y1="5" x2="12" y2="3" /><line x1="17" y1="7" x2="18.4" y2="5.6" /><line x1="19" y1="12" x2="21" y2="12" /><line x1="17" y1="17" x2="18.4" y2="18.4" /><line x1="12" y1="19" x2="12" y2="21" /><line x1="7" y1="17" x2="5.6" y2="18.4" /><line x1="6" y1="12" x2="4" y2="12" /><line x1="7" y1="7" x2="5.6" y2="5.6" />
</symbol>
	<symbol id="brightness" class="icon icon-tabler icon-tabler-brightness" viewBox="0 0 24 24" stroke-width="2" stroke="currentColor" fill="none" stroke-linecap="round" stroke-linejoin="round"><path stroke="none" d="M0 0h24v24H0z"/><circle cx="12" cy="12" r="9" /><line x1="12" y1="3" x2="12" y2="21" /><path d="M12 9l4.65 -4.65" /><path d="M12 14.3l7.37 -7.37" /><path d="M12 19.6l8.85 -8.85" />
</symbol>
	<symbol id="calculator" class="icon icon-tabler icon-tabler-calculator" viewBox="0 0 24 24" stroke-width="2" stroke="currentColor" fill="none" stroke-linecap="round" stroke-linejoin="round"><path stroke="none" d="M0 0h24v24H0z"/><rect x="4" y="3" width="16" height="18" rx="2" /><rect x="8" y="7" width="8" height="3" rx="1" /><line x1="8" y1="14" x2="8" y2="14.01" /><line x1="12" y1="14" x2="12" y2="14.01" /><line x1="16" y1="14" x2="16" y2="14.01" /><line x1="8" y1="17" x2="8" y2="17.01" /><line x1="12" y1="17" x2="12" y2="17.01" /><line x1="16" y1="17" x2="16" y2="17.01" />
</symbol>
	<symbol id="chrome" class="icon icon-tabler icon-tabler-chrome" viewBox="0 0 24 24" stroke-width="2" stroke="currentColor" fill="none" stroke-linecap="round" stroke-linejoin="round"><path stroke="none" d="M0 0h24v24H0z"/><circle cx="12" cy="12" r="9" /><circle cx="12" cy="12" r="3" /><line x1="12" y1="9" x2="20.5" y2="9" /><line x1="12" y1="9" x2="20.5" y2="9" transform="rotate(120 12 12)" /><line x1="12" y1="9" x2="20.5" y2="9" transform="rotate(240 12 12)" />
</symbol>
	<symbol id="coin" class="icon icon-tabler icon-tabler-coin" viewBox="0 0 24 24" stroke-width="2" stroke="currentColor" fill="none" stroke-linecap="round" stroke-linejoin="round"><path stroke="none" d="M0 0h24v24H0z"/><circle cx="12" cy="12" r="9" /><path d="M14.8 9a2 2 0 0 0 -1.8 -1h-2a2 2 0 0 0 0 4h2a2 2 0 0 1 0 4h-2a2 2 0 0 1 -1.8 -1" /><path d="M12 6v2m0 8v2" />
</symbol>
	<symbol id="columns" class="icon icon-tabler icon-tabler-columns" viewBox="0 0 24 24" stroke-width="2" stroke="currentColor" fill="none" stroke-linecap="round" stroke-linejoin="round"><path stroke="none" d="M0 0h24v24H0z"/><line x1="4" y1="6" x2="9.5" y2="6" /><line x1="4" y1="10" x2="9.5" y2="10" /><line x1="4" y1="14" x2="9.5" y2="14" /><line x1="4" y1="18" x2="9.5" y2="18" /><line x1="14.5" y1="6" x2="20" y2="6" /><line x1="14.5" y1="10" x2="20" y2="10" /><line x1="14.5" y1="14" x2="20" y2="14" /><line x1="14.5" y1="18" x2="20" y2="18" />
</symbol>
	<symbol id="currency-dollar" class="icon icon-tabler icon-tabler-currency-dollar" viewBox="0 0 24 24" stroke-width="2" stroke="currentColor" fill="none" stroke-linecap="round" stroke-linejoin="round"><path stroke="none" d="M0 0h24v24H0z"/><path d="M16.7 8a3 3 0 0 0 -2.7 -2h-4a3 3 0 0 0 0 6h4a3 3 0 0 1 0 6h-4a3 3 0 0 1 -2.7 -2" /><path d="M12 3v3m0 12v3" />
</symbol>
	<symbol id="currency-euro" class="icon icon-tabler icon-tabler-currency-euro" viewBox="0 0 24 24" stroke-width="2" stroke="currentColor" fill="none" stroke-linecap="round" stroke-linejoin="round"><path stroke="none" d="M0 0h24v24H0z"/><path d="M17.2 7a6 7 0 1 0 0 10" /><path d="M13 10h-8m0 4h8" />
</symbol>
	<symbol id="device-mobile-vibration" class="icon icon-tabler icon-tabler-device-mobile-vibration" viewBox="0 0 24 24" stroke-width="2" stroke="currentColor" fill="none" stroke-linecap="round" stroke-linejoin="round"><path stroke="none" d="M0 0h24v24H0z"/><g transform="rotate(15 12 12)"><rect x="7" y="4" width="10" height="16" rx="1" /><line x1="11" y1="5" x2="13" y2="5" /><line x1="12" y1="17" x2="12" y2="17.01" /><path d="M21 8l1 2l-1 2l1 2l-1 2" /><path d="M3 8l-1 2l1 2l-1 2l1 2" /></g>
</symbol>
	<symbol id="devices" class="icon icon-tabler icon-tabler-devices" viewBox="0 0 24 24" stroke-width="2" stroke="currentColor" fill="none" stroke-linecap="round" stroke-linejoin="round"><path stroke="none" d="M0 0h24v24H0z"/><rect x="13" y="8" width="8" height="12" rx="1" /><path d="M18 8v-3a1 1 0 0 0 -1 -1h-13a1 1 0 0 0 -1 1v12a1 1 0 0 0 1 1h9" /><line x1="16" y1="9" x2="18" y2="9" />
</symbol>
	<symbol id="drag-drop-2" class="icon icon-tabler icon-tabler-drag-drop-2" viewBox="0 0 24 24" stroke-width="2" stroke="currentColor" fill="none" stroke-linecap="round" stroke-linejoin="round"><path stroke="none" d="M0 0h24v24H0z"/><path d="M16 8v-4h-12v12.01h4" stroke-dasharray=".001 4" /><rect x="8" y="8" width="12" height="12" rx="2" />
</symbol>
	<symbol id="drag-drop" class="icon icon-tabler icon-tabler-drag-drop" viewBox="0 0 24 24" stroke-width="2" stroke="currentColor" fill="none" stroke-linecap="round" stroke-linejoin="round"><path stroke="none" d="M0 0h24v24H0z"/><path d="M16 8v-4h-12v12.01h4" stroke-dasharray=".001 4" /><path d="M20 12v-2a2 2 0 0 0 -2 -2h-8a2 2 0 0 0 -2 2v8a2 2 0 0 0 2 2h2" /><path d="M22 19l-6 -4v7.2l2.6 -2.6l3.4-.6" />
</symbol>
	<symbol id="egg" class="icon icon-tabler icon-tabler-egg" viewBox="0 0 24 24" stroke-width="2" stroke="currentColor" fill="none" stroke-linecap="round" stroke-linejoin="round"><path stroke="none" d="M0 0h24v24H0z"/><path d="M6 14a6 6 0 0 0 12 0a12 12 0 0 0 -3 -8.5a3.7 3.7 0 0 0 -6 0a12 12 0 0 0 -3 8.5" />
</symbol>
	<symbol id="eraser" class="icon icon-tabler icon-tabler-eraser" viewBox="0 0 24 24" stroke-width="2" stroke="currentColor" fill="none" stroke-linecap="round" stroke-linejoin="round"><path stroke="none" d="M0 0h24v24H0z"/><path d="M19 19h-11l-4 -4a1 1 0 0 1 0 -1.41l10 -10a1 1 0 0 1 1.41 0l5 5a1 1 0 0 1 0 1.41l-9 9" /><path d="M18 12.3l-6.3 -6.3" />
</symbol>
	<symbol id="exposure" class="icon icon-tabler icon-tabler-exposure" viewBox="0 0 24 24" stroke-width="2" stroke="currentColor" fill="none" stroke-linecap="round" stroke-linejoin="round"><path stroke="none" d="M0 0h24v24H0z"/><rect x="4" y="4" width="16" height="16" rx="2" /><line x1="4.6" y1="19.4" x2="19.4" y2="4.6" /><path d="M7 9h4m-2 -2v4" /><path d="M13 16h4" />
</symbol>
	<symbol id="focus" class="icon icon-tabler icon-tabler-focus" viewBox="0 0 24 24" stroke-width="2" stroke="currentColor" fill="none" stroke-linecap="round" stroke-linejoin="round"><path stroke="none" d="M0 0h24v24H0z"/><circle cx="12" cy="12" r=".5" /><circle cx="12" cy="12" r="9" />
</symbol>
	<symbol id="ghost" class="icon icon-tabler icon-tabler-ghost" viewBox="0 0 24 24" stroke-width="2" stroke="currentColor" fill="none" stroke-linecap="round" stroke-linejoin="round"><path stroke="none" d="M0 0h24v24H0z"/><path d="M5 11a7 7 0 0 1 14 0v7a1.78 1.78 0 0 1 -3.1 1.4a1.65 1.65 0 0 0 -2.6 0a1.65 1.65 0 0 1 -2.6 0a1.65 1.65 0 0 0 -2.6 0a1.78 1.78 0 0 1 -3.1 -1.4v-7" /><line x1="10" y1="10" x2="10.01" y2="10" /><line x1="14" y1="10" x2="14.01" y2="10" /><path d="M10 14a3.5 3.5 0 0 0 4 0" />
</symbol>
	<symbol id="git-fork" class="icon icon-tabler icon-tabler-git-fork" viewBox="0 0 24 24" stroke-width="2" stroke="currentColor" fill="none" stroke-linecap="round" stroke-linejoin="round"><path stroke="none" d="M0 0h24v24H0z"/><circle cx="12" cy="18" r="2" /><circle cx="7" cy="6" r="2" /><circle cx="17" cy="6" r="2" /><path d="M7 8v2a2 2 0 0 0 2 2h6a2 2 0 0 0 2 -2v-2" /><line x1="12" y1="12" x2="12" y2="16" />
</symbol>
	<symbol id="headset" class="icon icon-tabler icon-tabler-headset" viewBox="0 0 24 24" stroke-width="2" stroke="currentColor" fill="none" stroke-linecap="round" stroke-linejoin="round"><path stroke="none" d="M0 0h24v24H0z"/><rect x="4" y="13" rx="2" width="4" height="6" /><rect x="16" y="13" rx="2" width="4" height="6" /><path d="M4 15v-3a8 8 0 0 1 16 0v3" /><path d="M18 19a6 3 0 0 1 -6 3" />
</symbol>
	<symbol id="indent-decrease" class="icon icon-tabler icon-tabler-indent-decrease" viewBox="0 0 24 24" stroke-width="2" stroke="currentColor" fill="none" stroke-linecap="round" stroke-linejoin="round"><path stroke="none" d="M0 0h24v24H0z"/><line x1="20" y1="6" x2="13" y2="6" /><line x1="20" y1="12" x2="11" y2="12" /><line x1="20" y1="18" x2="13" y2="18" /><path d="M8 8l-4 4l4 4" />
</symbol>
	<symbol id="indent-increase" class="icon icon-tabler icon-tabler-indent-increase" viewBox="0 0 24 24" stroke-width="2" stroke="currentColor" fill="none" stroke-linecap="round" stroke-linejoin="round"><path stroke="none" d="M0 0h24v24H0z"/><line x1="20" y1="6" x2="9" y2="6" /><line x1="20" y1="12" x2="13" y2="12" /><line x1="20" y1="18" x2="9" y2="18" /><path d="M4 8l4 4l-4 4" />
</symbol>
	<symbol id="italic" class="icon icon-tabler icon-tabler-italic" viewBox="0 0 24 24" stroke-width="2" stroke="currentColor" fill="none" stroke-linecap="round" stroke-linejoin="round"><path stroke="none" d="M0 0h24v24H0z"/><line x1="11" y1="5" x2="17" y2="5" /><line x1="7" y1="19" x2="13" y2="19" /><line x1="14" y1="5" x2="10" y2="19" />
</symbol>
	<symbol id="line-height" class="icon icon-tabler icon-tabler-line-height" viewBox="0 0 24 24" stroke-width="2" stroke="currentColor" fill="none" stroke-linecap="round" stroke-linejoin="round"><path stroke="none" d="M0 0h24v24H0z"/><polyline points="3 8 6 5 9 8" /><polyline points="3 16 6 19 9 16" /><line x1="6" y1="5" x2="6" y2="19" /><line x1="13" y1="6" x2="20" y2="6" /><line x1="13" y1="12" x2="20" y2="12" /><line x1="13" y1="18" x2="20" y2="18" />
</symbol>
	<symbol id="mood-tongue" class="icon icon-tabler icon-tabler-mood-tongue" viewBox="0 0 24 24" stroke-width="2" stroke="currentColor" fill="none" stroke-linecap="round" stroke-linejoin="round"><path stroke="none" d="M0 0h24v24H0z"/><circle cx="12" cy="12" r="9" /><line x1="9" y1="10" x2="9.01" y2="10" /><line x1="15" y1="10" x2="15.01" y2="10" /><path d="M10 14v2a2 2 0 0 0 4 0v-2m1 0h-6" />
</symbol>
	<symbol id="notebook" class="icon icon-tabler icon-tabler-notebook" viewBox="0 0 24 24" stroke-width="2" stroke="currentColor" fill="none" stroke-linecap="round" stroke-linejoin="round"><path stroke="none" d="M0 0h24v24H0z"/><path d="M6 4h11a2 2 0 0 1 2 2v12a2 2 0 0 1 -2 2h-11a1 1 0 0 1 -1 -1v-14a1 1 0 0 1 1 -1m3 0v18" /><line x1="13" y1="8" x2="15" y2="8" /><line x1="13" y1="12" x2="15" y2="12" />
</symbol>
	<symbol id="omega" class="icon icon-tabler icon-tabler-omega" viewBox="0 0 24 24" stroke-width="2" stroke="currentColor" fill="none" stroke-linecap="round" stroke-linejoin="round"><path stroke="none" d="M0 0h24v24H0z"/><path d="M4 19h5v-1a7.35 7.35 0 1 1 6 0v1h5" />
</symbol>
	<symbol id="pillow" class="icon icon-tabler icon-tabler-pillow" viewBox="0 0 24 24" stroke-width="2" stroke="currentColor" fill="none" stroke-linecap="round" stroke-linejoin="round"><path stroke="none" d="M0 0h24v24H0z"/><path d="M4.5 12.5l8 -8a4.94 4.94 0 0 1 7 7l-8 8a4.94 4.94 0 0 1 -7 -7" /><path d="M8.5 8.5l7 7" />
</symbol>
	<symbol id="plane-arrival" class="icon icon-tabler icon-tabler-plane-arrival" viewBox="0 0 24 24" stroke-width="2" stroke="currentColor" fill="none" stroke-linecap="round" stroke-linejoin="round"><path stroke="none" d="M0 0h24v24H0z"/><path d="M15 12h5a2 2 0 0 1 0 4h-15l-3 -6h3l2 2h3l-2 -7h3z" transform="rotate(15 12 12) translate(0 -1)" /><line x1="3" y1="21" x2="21" y2="21" />
</symbol>
	<symbol id="plane-departure" class="icon icon-tabler icon-tabler-plane-departure" viewBox="0 0 24 24" stroke-width="2" stroke="currentColor" fill="none" stroke-linecap="round" stroke-linejoin="round"><path stroke="none" d="M0 0h24v24H0z"/><path d="M15 12h5a2 2 0 0 1 0 4h-15l-3 -6h3l2 2h3l-2 -7h3z" transform="rotate(-15 12 12) translate(0 -1)" /><line x1="3" y1="21" x2="21" y2="21" />
</symbol>
	<symbol id="recycle" class="icon icon-tabler icon-tabler-recycle" viewBox="0 0 24 24" stroke-width="2" stroke="currentColor" fill="none" stroke-linecap="round" stroke-linejoin="round"><path stroke="none" d="M0 0h24v24H0z"/><path d="M12 17l-2 2l2 2m-2 -2h9a2 2 0 0 0 1.75 -2.75l-.55 -1" /><path d="M12 17l-2 2l2 2m-2 -2h9a2 2 0 0 0 1.75 -2.75l-.55 -1" transform="rotate(120 12 13)" /><path d="M12 17l-2 2l2 2m-2 -2h9a2 2 0 0 0 1.75 -2.75l-.55 -1" transform="rotate(240 12 13)" />
</symbol>
	<symbol id="shape" class="icon icon-tabler icon-tabler-shape" viewBox="0 0 24 24" stroke-width="2" stroke="currentColor" fill="none" stroke-linecap="round" stroke-linejoin="round"><path stroke="none" d="M0 0h24v24H0z"/><circle cx="6" cy="6" r="2" /><circle cx="18" cy="6" r="2" /><circle cx="6" cy="18" r="2" /><circle cx="18" cy="18" r="2" /><line x1="6" y1="8" x2="6" y2="16" /><line x1="8" y1="6" x2="16" y2="6" /><line x1="8" y1="18" x2="16" y2="18" /><line x1="18" y1="8" x2="18" y2="16" />
</symbol>
	<symbol id="sitemap" class="icon icon-tabler icon-tabler-sitemap" viewBox="0 0 24 24" stroke-width="2" stroke="currentColor" fill="none" stroke-linecap="round" stroke-linejoin="round"><path stroke="none" d="M0 0h24v24H0z"/><rect x="3" y="15" width="6" height="6" rx="2" /><rect x="15" y="15" width="6" height="6" rx="2" /><rect x="9" y="3" width="6" height="6" rx="2" /><path d="M6 15v-1a2 2 0 0 1 2 -2h8a2 2 0 0 1 2 2v1" /><line x1="12" y1="9" x2="12" y2="12" />
</symbol>
	<symbol id="strikethrough" class="icon icon-tabler icon-tabler-strikethrough" viewBox="0 0 24 24" stroke-width="2" stroke="currentColor" fill="none" stroke-linecap="round" stroke-linejoin="round"><path stroke="none" d="M0 0h24v24H0z"/><line x1="5" y1="12" x2="19" y2="12" /><path d="M16 6.5a4 2 0 0 0 -4 -1.5h-1a3.5 3.5 0 0 0 0 7" /><path d="M16.5 16a3.5 3.5 0 0 1 -3.5 3h-1.5a4 2 0 0 1 -4 -1.5" />
</symbol>
	<symbol id="subscript" class="icon icon-tabler icon-tabler-subscript" viewBox="0 0 24 24" stroke-width="2" stroke="currentColor" fill="none" stroke-linecap="round" stroke-linejoin="round"><path stroke="none" d="M0 0h24v24H0z"/><path d="M5 7l8 10m-8 0l8 -10" /><path d="M21 20h-4l3.5 -4a1.73 1.73 0 0 0 -3.5 -2" />
</symbol>
	<symbol id="superscript" class="icon icon-tabler icon-tabler-superscript" viewBox="0 0 24 24" stroke-width="2" stroke="currentColor" fill="none" stroke-linecap="round" stroke-linejoin="round"><path stroke="none" d="M0 0h24v24H0z"/><path d="M5 7l8 10m-8 0l8 -10" /><path d="M21 11h-4l3.5 -4a1.73 1.73 0 0 0 -3.5 -2" />
</symbol>
	<symbol id="table" class="icon icon-tabler icon-tabler-table" viewBox="0 0 24 24" stroke-width="2" stroke="currentColor" fill="none" stroke-linecap="round" stroke-linejoin="round"><path stroke="none" d="M0 0h24v24H0z"/><rect x="4" y="4" width="16" height="16" rx="2" /><line x1="4" y1="10" x2="20" y2="10" /><line x1="10" y1="4" x2="10" y2="20" />
</symbol>
	<symbol id="underline" class="icon icon-tabler icon-tabler-underline" viewBox="0 0 24 24" stroke-width="2" stroke="currentColor" fill="none" stroke-linecap="round" stroke-linejoin="round"><path stroke="none" d="M0 0h24v24H0z"/><line x1="7" y1="19" x2="17" y2="19" /><path d="M8 5v6a4 4 0 0 0 8 0v-6" />
</symbol>
	<symbol id="wifi-0" class="icon icon-tabler icon-tabler-wifi-0" viewBox="0 0 24 24" stroke-width="2" stroke="currentColor" fill="none" stroke-linecap="round" stroke-linejoin="round"><path stroke="none" d="M0 0h24v24H0z"/><line x1="12" y1="18" x2="12.01" y2="18" />
</symbol>
	<symbol id="wifi-1" class="icon icon-tabler icon-tabler-wifi-1" viewBox="0 0 24 24" stroke-width="2" stroke="currentColor" fill="none" stroke-linecap="round" stroke-linejoin="round"><path stroke="none" d="M0 0h24v24H0z"/><g transform="rotate(-45 12 18)"><line x1="12" y1="18" x2="12.01" y2="18" /><path d="M12 14a4 4 0 0 1 4 4" /></g>
</symbol>
	<symbol id="wifi-2" class="icon icon-tabler icon-tabler-wifi-2" viewBox="0 0 24 24" stroke-width="2" stroke="currentColor" fill="none" stroke-linecap="round" stroke-linejoin="round"><path stroke="none" d="M0 0h24v24H0z"/><g transform="rotate(-45 12 18)"><line x1="12" y1="18" x2="12.01" y2="18" /><path d="M12 14a4 4 0 0 1 4 4" /><path d="M12 10a8 8 0 0 1 8 8" /></g>
</symbol>

	<use xlink:href="#anchor" x="24" y="24" width="24" height="24" />
	<use xlink:href="#arrow-back-up" x="76" y="24" width="24" height="24" />
	<use xlink:href="#arrow-forward-up" x="128" y="24" width="24" height="24" />
	<use xlink:href="#atom" x="180" y="24" width="24" height="24" />
	<use xlink:href="#bandage" x="232" y="24" width="24" height="24" />
	<use xlink:href="#bold" x="284" y="24" width="24" height="24" />
	<use xlink:href="#border-radius" x="24" y="76" width="24" height="24" />
	<use xlink:href="#brightness-down" x="76" y="76" width="24" height="24" />
	<use xlink:href="#brightness-up" x="128" y="76" width="24" height="24" />
	<use xlink:href="#brightness" x="180" y="76" width="24" height="24" />
	<use xlink:href="#calculator" x="232" y="76" width="24" height="24" />
	<use xlink:href="#chrome" x="284" y="76" width="24" height="24" />
	<use xlink:href="#coin" x="24" y="128" width="24" height="24" />
	<use xlink:href="#columns" x="76" y="128" width="24" height="24" />
	<use xlink:href="#currency-dollar" x="128" y="128" width="24" height="24" />
	<use xlink:href="#currency-euro" x="180" y="128" width="24" height="24" />
	<use xlink:href="#device-mobile-vibration" x="232" y="128" width="24" height="24" />
	<use xlink:href="#devices" x="284" y="128" width="24" height="24" />
	<use xlink:href="#drag-drop-2" x="24" y="180" width="24" height="24" />
	<use xlink:href="#drag-drop" x="76" y="180" width="24" height="24" />
	<use xlink:href="#egg" x="128" y="180" width="24" height="24" />
	<use xlink:href="#eraser" x="180" y="180" width="24" height="24" />
	<use xlink:href="#exposure" x="232" y="180" width="24" height="24" />
	<use xlink:href="#focus" x="284" y="180" width="24" height="24" />
	<use xlink:href="#ghost" x="24" y="232" width="24" height="24" />
	<use xlink:href="#git-fork" x="76" y="232" width="24" height="24" />
	<use xlink:href="#headset" x="128" y="232" width="24" height="24" />
	<use xlink:href="#indent-decrease" x="180" y="232" width="24" height="24" />
	<use xlink:href="#indent-increase" x="232" y="232" width="24" height="24" />
	<use xlink:href="#italic" x="284" y="232" width="24" height="24" />
	<use xlink:href="#line-height" x="24" y="284" width="24" height="24" />
	<use xlink:href="#mood-tongue" x="76" y="284" width="24" height="24" />
	<use xlink:href="#notebook" x="128" y="284" width="24" height="24" />
	<use xlink:href="#omega" x="180" y="284" width="24" height="24" />
	<use xlink:href="#pillow" x="232" y="284" width="24" height="24" />
	<use xlink:href="#plane-arrival" x="284" y="284" width="24" height="24" />
	<use xlink:href="#plane-departure" x="24" y="336" width="24" height="24" />
	<use xlink:href="#recycle" x="76" y="336" width="24" height="24" />
	<use xlink:href="#shape" x="128" y="336" width="24" height="24" />
	<use xlink:href="#sitemap" x="180" y="336" width="24" height="24" />
	<use xlink:href="#strikethrough" x="232" y="336" width="24" height="24" />
	<use xlink:href="#subscript" x="284" y="336" width="24" height="24" />
	<use xlink:href="#superscript" x="24" y="388" width="24" height="24" />
	<use xlink:href="#table" x="76" y="388" width="24" height="24" />
	<use xlink:href="#underline" x="128" y="388" width="24" height="24" />
	<use xlink:href="#wifi-0" x="180" y="388" width="24" height="24" />
	<use xlink:href="#wifi-1" x="232" y="388" width="24" height="24" />
	<use xlink:href="#wifi-2" x="284" y="388" width="24" height="24" />

</svg>