<svg xmlns="http://www.w3.org/2000/svg" xmlns:xlink="http://www.w3.org/1999/xlink" viewBox="0 0 292 160" width="292" height="160" style="color: #354052"><rect x="0" y="0" width="292" height="160" fill="#fff"></rect>
	<symbol id="outline-ai-agent" xmlns="http://www.w3.org/2000/svg" width="24" height="24" viewBox="0 0 24 24" fill="none" stroke="currentColor" stroke-width="2" stroke-linecap="round" stroke-linejoin="round"
> <path d="M11 14a1 1 0 1 0 2 0a1 1 0 1 0 -2 0" /> <path d="M6 14a1 1 0 1 0 2 0a1 1 0 1 0 -2 0" /> <path d="M16 14a1 1 0 1 0 2 0a1 1 0 1 0 -2 0" /> <path d="M11 5a1 1 0 1 0 2 0a1 1 0 1 0 -2 0" /> <path d="M13.5 9.5a1 1 0 1 0 2 0a1 1 0 1 0 -2 0" /> <path d="M8.5 9.5a1 1 0 1 0 2 0a1 1 0 1 0 -2 0" /> <path d="M13.5 18.5a1 1 0 1 0 2 0a1 1 0 1 0 -2 0" /> <path d="M8.5 18.5a1 1 0 1 0 2 0a1 1 0 1 0 -2 0" /> <path d="M3.5 18.5a1 1 0 1 0 2 0a1 1 0 1 0 -2 0" /> <path d="M18.5 18.5a1 1 0 1 0 2 0a1 1 0 1 0 -2 0" />
</symbol>
	<symbol id="outline-ai-agents" xmlns="http://www.w3.org/2000/svg" width="24" height="24" viewBox="0 0 24 24" fill="none" stroke="currentColor" stroke-width="2" stroke-linecap="round" stroke-linejoin="round"
> <path d="M17 19a2 2 0 1 0 4 0a2 2 0 1 0 -4 0" /> <path d="M3 19a2 2 0 1 0 4 0a2 2 0 1 0 -4 0" /> <path d="M10 5a2 2 0 1 0 4 0a2 2 0 1 0 -4 0" /> <path d="M6 5a1 1 0 1 0 -2 0a1 1 0 0 0 2 0" /> <path d="M18 5a1 1 0 1 0 2 0a1 1 0 0 0 -2 0" /> <path d="M4 12a1 1 0 1 0 2 0a1 1 0 0 0 -2 0" /> <path d="M11 12a1 1 0 1 0 2 0a1 1 0 0 0 -2 0" /> <path d="M18 12a1 1 0 1 0 2 0a1 1 0 0 0 -2 0" /> <path d="M11 19a1 1 0 1 0 2 0a1 1 0 0 0 -2 0" />
</symbol>
	<symbol id="outline-ai-gateway" xmlns="http://www.w3.org/2000/svg" width="24" height="24" viewBox="0 0 24 24" fill="none" stroke="currentColor" stroke-width="2" stroke-linecap="round" stroke-linejoin="round"
> <path d="M4 6.5a2.5 2.5 0 1 0 5 0a2.5 2.5 0 1 0 -5 0" /> <path d="M15 6.5a2.5 2.5 0 1 0 5 0a2.5 2.5 0 1 0 -5 0" /> <path d="M15 17.5a2.5 2.5 0 1 0 5 0a2.5 2.5 0 1 0 -5 0" /> <path d="M4 17.5a2.5 2.5 0 1 0 5 0a2.5 2.5 0 1 0 -5 0" /> <path d="M8.5 15.5l7 -7" />
</symbol>
	<symbol id="outline-bot-id" xmlns="http://www.w3.org/2000/svg" width="24" height="24" viewBox="0 0 24 24" fill="none" stroke="currentColor" stroke-width="2" stroke-linecap="round" stroke-linejoin="round"
> <path d="M7 10.5c0 -.828 .746 -1.5 1.667 -1.5h6.666c.92 0 1.667 .672 1.667 1.5v3c0 .828 -.746 1.5 -1.667 1.5h-6.666c-.92 0 -1.667 -.672 -1.667 -1.5v-3" /> <path d="M12 7v2" /> <path d="M10 12v.01" /> <path d="M14 12v.01" /> <path d="M4 8v-2a2 2 0 0 1 2 -2h2" /> <path d="M4 16v2a2 2 0 0 0 2 2h2" /> <path d="M16 4h2a2 2 0 0 1 2 2v2" /> <path d="M16 20h2a2 2 0 0 0 2 -2v-2" />
</symbol>
	<symbol id="outline-canary" xmlns="http://www.w3.org/2000/svg" width="24" height="24" viewBox="0 0 24 24" fill="none" stroke="currentColor" stroke-width="2" stroke-linecap="round" stroke-linejoin="round"
> <path d="M12 20v-2" /> <path d="M15 8.01v.01" /> <path d="M3 17l8 -8v-1a4 4 0 1 1 8 0h2l-2 2v1a7 7 0 0 1 -13.215 3.223" />
</symbol>
	<symbol id="outline-codeblock" xmlns="http://www.w3.org/2000/svg" width="24" height="24" viewBox="0 0 24 24" fill="none" stroke="currentColor" stroke-width="2" stroke-linecap="round" stroke-linejoin="round"
> <path d="M5 4l-2 2l2 2" /> <path d="M12 4l2 2l-2 2" /> <path d="M8 8l1 -4" /> <path d="M17 6a2 2 0 0 1 2 2v10a2 2 0 0 1 -2 2h-10a2 2 0 0 1 -2 -2v-7" />
</symbol>
	<symbol id="outline-connection" xmlns="http://www.w3.org/2000/svg" width="24" height="24" viewBox="0 0 24 24" fill="none" stroke="currentColor" stroke-width="2" stroke-linecap="round" stroke-linejoin="round"
> <path d="M15 6.5a2.5 2.5 0 1 0 5 0a2.5 2.5 0 1 0 -5 0" /> <path d="M4 17.5a2.5 2.5 0 1 0 5 0a2.5 2.5 0 1 0 -5 0" /> <path d="M8.5 15.5l7 -7" />
</symbol>
	<symbol id="outline-credits" xmlns="http://www.w3.org/2000/svg" width="24" height="24" viewBox="0 0 24 24" fill="none" stroke="currentColor" stroke-width="2" stroke-linecap="round" stroke-linejoin="round"
> <path d="M3 14a6 2 0 1 0 12 0a6 2 0 1 0 -12 0"  /> <path d="M3 14v5c0 1.105 2.686 2 6 2s6 -.895 6 -2v-5" /> <path d="M9 5a6 2 0 1 0 12 0a6 2 0 1 0 -12 0"  /> <path d="M9 5v3" /> <path d="M18.365 11.656c1.59 -.36 2.635 -.966 2.635 -1.656v-5" />
</symbol>
	<symbol id="outline-firewall-check" xmlns="http://www.w3.org/2000/svg" width="24" height="24" viewBox="0 0 24 24" fill="none" stroke="currentColor" stroke-width="2" stroke-linecap="round" stroke-linejoin="round"
> <path d="M9 3v18" /> <path d="M3 9h18" /> <path d="M3 15h10" /> <path d="M15 3v10" /> <path d="M11 21h-6a2 2 0 0 1 -2 -2v-14a2 2 0 0 1 2 -2h14a2 2 0 0 1 2 2v8" /> <path d="M15 19l2 2l4 -4" />
</symbol>
	<symbol id="outline-firewall-flame" xmlns="http://www.w3.org/2000/svg" width="24" height="24" viewBox="0 0 24 24" fill="none" stroke="currentColor" stroke-width="2" stroke-linecap="round" stroke-linejoin="round"
> <path d="M15.5 16q 2.5 1.5 2.5 -1v-2s4 1.06 4 5c0 1.664 -.649 3.338 -2 4v-.25c0 -.957 -1.053 -1.75 -2 -1.75s-2 .793 -2 1.75v.25c-1.351 -.662 -2 -2 -2 -3.5s1.5 -2.5 1.5 -2.5" /> <path d="M9 3v13" /> <path d="M3 9h18" /> <path d="M6 21h-1a2 2 0 0 1 -2 -2v-14a2 2 0 0 1 2 -2h14a2 2 0 0 1 2 2v4" /> <path d="M3 15h7" /> <path d="M15 3v7" />
</symbol>
	<symbol id="outline-image-generation" xmlns="http://www.w3.org/2000/svg" width="24" height="24" viewBox="0 0 24 24" fill="none" stroke="currentColor" stroke-width="2" stroke-linecap="round" stroke-linejoin="round"
> <path d="M3 21v-4a4 4 0 1 1 4 4h-4" /> <path d="M21 3a16 16 0 0 0 -12.8 10.2" /> <path d="M21 3a16 16 0 0 1 -10.2 12.8" /> <path d="M10.6 9a9 9 0 0 1 4.4 4.4" /> <path d="M17 19a2 2 0 0 1 2 2a2 2 0 0 1 2 -2a2 2 0 0 1 -2 -2a2 2 0 0 1 -2 2" /> <path d="M3 5a2 2 0 0 1 2 2a2 2 0 0 1 2 -2a2 2 0 0 1 -2 -2a2 2 0 0 1 -2 2" />
</symbol>
	<symbol id="outline-microfrontends" xmlns="http://www.w3.org/2000/svg" width="24" height="24" viewBox="0 0 24 24" fill="none" stroke="currentColor" stroke-width="2" stroke-linecap="round" stroke-linejoin="round"
> <path d="M7.5 7.5l4.5 4.5l4.5 -4.5" /> <path d="M6 16v-4" /> <path d="M18 16v-4" /> <path d="M16 6a2 2 0 1 0 4 0a2 2 0 1 0 -4 0" /> <path d="M16 18a2 2 0 1 0 4 0a2 2 0 1 0 -4 0" /> <path d="M4 6a2 2 0 1 0 4 0a2 2 0 1 0 -4 0" /> <path d="M4 18a2 2 0 1 0 4 0a2 2 0 1 0 -4 0" />
</symbol>
	<symbol id="outline-middleware" xmlns="http://www.w3.org/2000/svg" width="24" height="24" viewBox="0 0 24 24" fill="none" stroke="currentColor" stroke-width="2" stroke-linecap="round" stroke-linejoin="round"
> <path d="M4 20l2.25 -2.25" /> <path d="M20 20l-2.25 -2.25" /> <path d="M20 4l-2.25 2.25" /> <path d="M4 4l2.25 2.25" /> <path d="M10 19.748a8.01 8.01 0 0 1 -5.747 -5.748" /> <path d="M19.748 14a8.01 8.01 0 0 1 -5.748 5.748" /> <path d="M4.252 10a8.02 8.02 0 0 1 5.478 -5.672l.27 -.075" /> <path d="M14 4.252a8.01 8.01 0 0 1 5.748 5.749" /> <path d="M11 12a1 1 0 1 0 2 0a1 1 0 0 0 -2 0" />
</symbol>
	<symbol id="outline-scan-traces" xmlns="http://www.w3.org/2000/svg" width="24" height="24" viewBox="0 0 24 24" fill="none" stroke="currentColor" stroke-width="2" stroke-linecap="round" stroke-linejoin="round"
> <path d="M4 8v-2a2 2 0 0 1 2 -2h2" /> <path d="M4 16v2a2 2 0 0 0 2 2h2" /> <path d="M16 4h2a2 2 0 0 1 2 2v2" /> <path d="M16 20h2a2 2 0 0 0 2 -2v-2" /> <path d="M11 12h6" /> <path d="M8 8h5" /> <path d="M9 16h5" />
</symbol>
	<symbol id="outline-serverless" xmlns="http://www.w3.org/2000/svg" width="24" height="24" viewBox="0 0 24 24" fill="none" stroke="currentColor" stroke-width="2" stroke-linecap="round" stroke-linejoin="round"
> <path d="M8 19l3.03 1.748a2 2 0 0 0 1.94 0l6 -3.843a2 2 0 0 0 1.03 -1.753v-6.152l-8 3l-8 3v-6.405c0 -.728 .394 -1.399 1.03 -1.752l6 -3.582a2.05 2.05 0 0 1 2 0l2.97 1.739" />
</symbol>
	<symbol id="outline-user-key" xmlns="http://www.w3.org/2000/svg" width="24" height="24" viewBox="0 0 24 24" fill="none" stroke="currentColor" stroke-width="2" stroke-linecap="round" stroke-linejoin="round"
> <path d="M8 7a4 4 0 1 0 8 0a4 4 0 0 0 -8 0" /> <path d="M6 21v-2a4 4 0 0 1 4 -4h5" /> <path d="M18.5 18.5l-3.5 3.5l-1.5 -1.5" /> <path d="M18.554 18.414a2 2 0 1 1 2.828 -2.828a2 2 0 0 1 -2.828 2.828" /> <path d="M16 19l1 1" />
</symbol>
	<symbol id="outline-world-map" xmlns="http://www.w3.org/2000/svg" width="24" height="24" viewBox="0 0 24 24" fill="none" stroke="currentColor" stroke-width="2" stroke-linecap="round" stroke-linejoin="round"
> <path d="M20 8h-2a2 2 0 0 0 -2 2a2 2 0 1 1 -4 0v-1a2 2 0 0 0 -2 -2h-1a2 2 0 0 1 -2 -2v-.5" /> <path d="M3 12h3a2 2 0 0 1 2 2v.5a1.5 1.5 0 0 0 1.5 1.5a1.5 1.5 0 0 1 1.5 1.5v3.25" /> <path d="M15 20.5v-3.5a2 2 0 0 1 2 -2h3.5" /> <path d="M3 12a9 9 0 1 0 18 0a9 9 0 1 0 -18 0" />
</symbol>
	<symbol id="outline-zero-config" xmlns="http://www.w3.org/2000/svg" width="24" height="24" viewBox="0 0 24 24" fill="none" stroke="currentColor" stroke-width="2" stroke-linecap="round" stroke-linejoin="round"
> <path d="M4 12a8 8 0 1 0 16 0a8 8 0 1 0 -16 0" /> <path d="M3 21l18 -18" />
</symbol>

	<use xlink:href="#outline-ai-agent" x="24" y="24" width="24" height="24" />
	<use xlink:href="#outline-ai-agents" x="68" y="24" width="24" height="24" />
	<use xlink:href="#outline-ai-gateway" x="112" y="24" width="24" height="24" />
	<use xlink:href="#outline-bot-id" x="156" y="24" width="24" height="24" />
	<use xlink:href="#outline-canary" x="200" y="24" width="24" height="24" />
	<use xlink:href="#outline-codeblock" x="244" y="24" width="24" height="24" />
	<use xlink:href="#outline-connection" x="24" y="68" width="24" height="24" />
	<use xlink:href="#outline-credits" x="68" y="68" width="24" height="24" />
	<use xlink:href="#outline-firewall-check" x="112" y="68" width="24" height="24" />
	<use xlink:href="#outline-firewall-flame" x="156" y="68" width="24" height="24" />
	<use xlink:href="#outline-image-generation" x="200" y="68" width="24" height="24" />
	<use xlink:href="#outline-microfrontends" x="244" y="68" width="24" height="24" />
	<use xlink:href="#outline-middleware" x="24" y="112" width="24" height="24" />
	<use xlink:href="#outline-scan-traces" x="68" y="112" width="24" height="24" />
	<use xlink:href="#outline-serverless" x="112" y="112" width="24" height="24" />
	<use xlink:href="#outline-user-key" x="156" y="112" width="24" height="24" />
	<use xlink:href="#outline-world-map" x="200" y="112" width="24" height="24" />
	<use xlink:href="#outline-zero-config" x="244" y="112" width="24" height="24" />

</svg>