<svg xmlns="http://www.w3.org/2000/svg" xmlns:xlink="http://www.w3.org/1999/xlink" viewBox="0 0 292 204" width="292" height="204" style="color: #354052"><rect x="0" y="0" width="292" height="204" fill="#fff"></rect>
	<symbol id="app-window" class="icon icon-tabler icon-tabler-app-window" viewBox="0 0 24 24" stroke-width="2" stroke="currentColor" fill="none" stroke-linecap="round" stroke-linejoin="round"><path stroke="none" d="M0 0h24v24H0z" fill="none"/><rect x="3" y="5" width="18" height="14" rx="2" /><path d="M6 8h.01" /><path d="M9 8h.01" />
</symbol>
	<symbol id="armchair-2" class="icon icon-tabler icon-tabler-armchair-2" viewBox="0 0 24 24" stroke-width="2" stroke="currentColor" fill="none" stroke-linecap="round" stroke-linejoin="round"><path stroke="none" d="M0 0h24v24H0z" fill="none"/><path d="M5 10v-4a3 3 0 0 1 3 -3h8a3 3 0 0 1 3 3v4" /><path d="M16 15v-2a3 3 0 1 1 3 3v3h-14v-3a3 3 0 1 1 3 -3v2" /><path d="M8 12h8" /><path d="M7 19v2" /><path d="M17 19v2" />
</symbol>
	<symbol id="arrow-big-down-line" class="icon icon-tabler icon-tabler-arrow-big-down-line" viewBox="0 0 24 24" stroke-width="2" stroke="currentColor" fill="none" stroke-linecap="round" stroke-linejoin="round"><path stroke="none" d="M0 0h24v24H0z" fill="none"/><path d="M15 12h3.586a1 1 0 0 1 .707 1.707l-6.586 6.586a1 1 0 0 1 -1.414 0l-6.586 -6.586a1 1 0 0 1 .707 -1.707h3.586v-6h6v6z" /><path d="M15 3h-6" />
</symbol>
	<symbol id="arrow-big-down-lines" class="icon icon-tabler icon-tabler-arrow-big-down-lines" viewBox="0 0 24 24" stroke-width="2" stroke="currentColor" fill="none" stroke-linecap="round" stroke-linejoin="round"><path stroke="none" d="M0 0h24v24H0z" fill="none"/><path d="M15 12h3.586a1 1 0 0 1 .707 1.707l-6.586 6.586a1 1 0 0 1 -1.414 0l-6.586 -6.586a1 1 0 0 1 .707 -1.707h3.586v-3h6v3z" /><path d="M15 3h-6" /><path d="M15 6h-6" />
</symbol>
	<symbol id="arrow-big-left-line" class="icon icon-tabler icon-tabler-arrow-big-left-line" viewBox="0 0 24 24" stroke-width="2" stroke="currentColor" fill="none" stroke-linecap="round" stroke-linejoin="round"><path stroke="none" d="M0 0h24v24H0z" fill="none"/><path d="M12 15v3.586a1 1 0 0 1 -1.707 .707l-6.586 -6.586a1 1 0 0 1 0 -1.414l6.586 -6.586a1 1 0 0 1 1.707 .707v3.586h6v6h-6z" /><path d="M21 15v-6" />
</symbol>
	<symbol id="arrow-big-left-lines" class="icon icon-tabler icon-tabler-arrow-big-left-lines" viewBox="0 0 24 24" stroke-width="2" stroke="currentColor" fill="none" stroke-linecap="round" stroke-linejoin="round"><path stroke="none" d="M0 0h24v24H0z" fill="none"/><path d="M12 15v3.586a1 1 0 0 1 -1.707 .707l-6.586 -6.586a1 1 0 0 1 0 -1.414l6.586 -6.586a1 1 0 0 1 1.707 .707v3.586h3v6h-3z" /><path d="M21 15v-6" /><path d="M18 15v-6" />
</symbol>
	<symbol id="arrow-big-right-line" class="icon icon-tabler icon-tabler-arrow-big-right-line" viewBox="0 0 24 24" stroke-width="2" stroke="currentColor" fill="none" stroke-linecap="round" stroke-linejoin="round"><path stroke="none" d="M0 0h24v24H0z" fill="none"/><path d="M12 9v-3.586a1 1 0 0 1 1.707 -.707l6.586 6.586a1 1 0 0 1 0 1.414l-6.586 6.586a1 1 0 0 1 -1.707 -.707v-3.586h-6v-6h6z" /><path d="M3 9v6" />
</symbol>
	<symbol id="arrow-big-right-lines" class="icon icon-tabler icon-tabler-arrow-big-right-lines" viewBox="0 0 24 24" stroke-width="2" stroke="currentColor" fill="none" stroke-linecap="round" stroke-linejoin="round"><path stroke="none" d="M0 0h24v24H0z" fill="none"/><path d="M12 9v-3.586a1 1 0 0 1 1.707 -.707l6.586 6.586a1 1 0 0 1 0 1.414l-6.586 6.586a1 1 0 0 1 -1.707 -.707v-3.586h-3v-6h3z" /><path d="M3 9v6" /><path d="M6 9v6" />
</symbol>
	<symbol id="arrow-big-up-line" class="icon icon-tabler icon-tabler-arrow-big-up-line" viewBox="0 0 24 24" stroke-width="2" stroke="currentColor" fill="none" stroke-linecap="round" stroke-linejoin="round"><path stroke="none" d="M0 0h24v24H0z" fill="none"/><path d="M9 12h-3.586a1 1 0 0 1 -.707 -1.707l6.586 -6.586a1 1 0 0 1 1.414 0l6.586 6.586a1 1 0 0 1 -.707 1.707h-3.586v6h-6v-6z" /><path d="M9 21h6" />
</symbol>
	<symbol id="arrow-big-up-lines" class="icon icon-tabler icon-tabler-arrow-big-up-lines" viewBox="0 0 24 24" stroke-width="2" stroke="currentColor" fill="none" stroke-linecap="round" stroke-linejoin="round"><path stroke="none" d="M0 0h24v24H0z" fill="none"/><path d="M9 12h-3.586a1 1 0 0 1 -.707 -1.707l6.586 -6.586a1 1 0 0 1 1.414 0l6.586 6.586a1 1 0 0 1 -.707 1.707h-3.586v3h-6v-3z" /><path d="M9 21h6" /><path d="M9 18h6" />
</symbol>
	<symbol id="barbell" class="icon icon-tabler icon-tabler-barbell" viewBox="0 0 24 24" stroke-width="2" stroke="currentColor" fill="none" stroke-linecap="round" stroke-linejoin="round"><path stroke="none" d="M0 0h24v24H0z" fill="none"/><path d="M2 12h1" /><path d="M6 8h-2a1 1 0 0 0 -1 1v6a1 1 0 0 0 1 1h2" /><path d="M6 7v10a1 1 0 0 0 1 1h1a1 1 0 0 0 1 -1v-10a1 1 0 0 0 -1 -1h-1a1 1 0 0 0 -1 1z" /><path d="M9 12h6" /><path d="M15 7v10a1 1 0 0 0 1 1h1a1 1 0 0 0 1 -1v-10a1 1 0 0 0 -1 -1h-1a1 1 0 0 0 -1 1z" /><path d="M18 8h2a1 1 0 0 1 1 1v6a1 1 0 0 1 -1 1h-2" /><path d="M22 12h-1" />
</symbol>
	<symbol id="bell-z" class="icon icon-tabler icon-tabler-bell-z" viewBox="0 0 24 24" stroke-width="2" stroke="currentColor" fill="none" stroke-linecap="round" stroke-linejoin="round"><path stroke="none" d="M0 0h24v24H0z" fill="none"/><path d="M10 5a2 2 0 1 1 4 0a7 7 0 0 1 4 6v3a4 4 0 0 0 2 3h-16a4 4 0 0 0 2 -3v-3a7 7 0 0 1 4 -6" /><path d="M9 17v1a3 3 0 0 0 6 0v-1" /><path d="M10 9h4l-4 4h4" />
</symbol>
	<symbol id="books" class="icon icon-tabler icon-tabler-books" viewBox="0 0 24 24" stroke-width="2" stroke="currentColor" fill="none" stroke-linecap="round" stroke-linejoin="round"><path stroke="none" d="M0 0h24v24H0z" fill="none"/><rect x="5" y="4" width="4" height="16" rx="1" /><rect x="9" y="4" width="4" height="16" rx="1" /><path d="M5 8h4" /><path d="M9 16h4" /><g transform="rotate(-13 27.054 -55.827)"><rect width="4" height="16" rx="1" /><path d="M0 4h4" /><path d="M0 12h4" /></g>
</symbol>
	<symbol id="circle-half-2" class="icon icon-tabler icon-tabler-circle-half-2" viewBox="0 0 24 24" stroke-width="2" stroke="currentColor" fill="none" stroke-linecap="round" stroke-linejoin="round"><path stroke="none" d="M0 0h24v24H0z" fill="none"/><circle cx="12" cy="12" r="9" /><path d="M12 3v18" /><path d="M12 14l7 -7" /><path d="M12 19l8.5 -8.5" /><path d="M12 9l4.5 -4.5" />
</symbol>
	<symbol id="clubs" class="icon icon-tabler icon-tabler-clubs" viewBox="0 0 24 24" stroke-width="2" stroke="currentColor" fill="none" stroke-linecap="round" stroke-linejoin="round"><path stroke="none" d="M0 0h24v24H0z" fill="none"/><path d="M12 3a4 4 0 0 1 3.164 6.447a4 4 0 1 1 -1.164 6.198v1.355l1 4h-6l1 -4l.001 -1.355a4 4 0 1 1 -1.164 -6.199a4 4 0 0 1 3.163 -6.446z" />
</symbol>
	<symbol id="diamonds" class="icon icon-tabler icon-tabler-diamonds" viewBox="0 0 24 24" stroke-width="2" stroke="currentColor" fill="none" stroke-linecap="round" stroke-linejoin="round"><path stroke="none" d="M0 0h24v24H0z" fill="none"/><path d="M10.831 20.413l-5.375 -6.91c-.608 -.783 -.608 -2.223 0 -3.005l5.375 -6.911a1.457 1.457 0 0 1 2.338 0l5.375 6.91c.608 .783 .608 2.223 0 3.005l-5.375 6.911a1.457 1.457 0 0 1 -2.338 0z" />
</symbol>
	<symbol id="flower" class="icon icon-tabler icon-tabler-flower" viewBox="0 0 24 24" stroke-width="2" stroke="currentColor" fill="none" stroke-linecap="round" stroke-linejoin="round"><path stroke="none" d="M0 0h24v24H0z" fill="none"/><circle cx="12" cy="12" r="3" /><path d="M12 2a3 3 0 0 1 3 3c0 .562 -.259 1.442 -.776 2.64l-.724 1.36l1.76 -1.893c.499 -.6 .922 -1.002 1.27 -1.205a2.968 2.968 0 0 1 4.07 1.099a3.011 3.011 0 0 1 -1.09 4.098c-.374 .217 -.99 .396 -1.846 .535l-2.664 .366l2.4 .326c.995 .145 1.698 .337 2.11 .576a3.011 3.011 0 0 1 1.09 4.098a2.968 2.968 0 0 1 -4.07 1.098c-.348 -.202 -.771 -.604 -1.27 -1.205l-1.76 -1.893l.724 1.36c.516 1.199 .776 2.079 .776 2.64a3 3 0 0 1 -6 0c0 -.562 .259 -1.442 .776 -2.64l.724 -1.36l-1.76 1.893c-.499 .601 -.922 1.003 -1.27 1.205a2.968 2.968 0 0 1 -4.07 -1.098a3.011 3.011 0 0 1 1.09 -4.098c.374 -.218 .99 -.396 1.846 -.536l2.664 -.366l-2.4 -.325c-.995 -.145 -1.698 -.337 -2.11 -.576a3.011 3.011 0 0 1 -1.09 -4.099a2.968 2.968 0 0 1 4.07 -1.099c.348 .203 .771 .604 1.27 1.205l1.76 1.894c-1 -2.292 -1.5 -3.625 -1.5 -4a3 3 0 0 1 3 -3z" />
</symbol>
	<symbol id="id-badge" class="icon icon-tabler icon-tabler-id-badge" viewBox="0 0 24 24" stroke-width="2" stroke="currentColor" fill="none" stroke-linecap="round" stroke-linejoin="round"><path stroke="none" d="M0 0h24v24H0z" fill="none"/><rect x="5" y="3" width="14" height="18" rx="3" /><circle cx="12" cy="13" r="2" /><path d="M10 6h4" /><path d="M9 18h6" />
</symbol>
	<symbol id="layers-intersect-2" class="icon icon-tabler icon-tabler-layers-intersect-2" viewBox="0 0 24 24" stroke-width="2" stroke="currentColor" fill="none" stroke-linecap="round" stroke-linejoin="round"><path stroke="none" d="M0 0h24v24H0z" fill="none"/><rect x="8" y="4" width="12" height="12" rx="2" /><rect x="4" y="8" width="12" height="12" rx="2" /><path d="M9 15l6 -6" />
</symbol>
	<symbol id="paw" class="icon icon-tabler icon-tabler-paw" viewBox="0 0 24 24" stroke-width="2" stroke="currentColor" fill="none" stroke-linecap="round" stroke-linejoin="round"><path stroke="none" d="M0 0h24v24H0z" fill="none"/><path d="M14.7 13.5c-1.1 -1.996 -1.441 -2.5 -2.7 -2.5c-1.259 0 -1.736 .755 -2.836 2.747c-.942 1.703 -2.846 1.845 -3.321 3.291c-.097 .265 -.145 .677 -.143 .962c0 1.176 .787 2 1.8 2c1.259 0 3.004 -1 4.5 -1s3.241 1 4.5 1c1.013 0 1.8 -.823 1.8 -2c0 -.285 -.049 -.697 -.146 -.962c-.475 -1.451 -2.512 -1.835 -3.454 -3.538z" /><path d="M20.188 8.082a1.039 1.039 0 0 0 -.406 -.082h-.015c-.735 .012 -1.56 .75 -1.993 1.866c-.519 1.335 -.28 2.7 .538 3.052c.129 .055 .267 .082 .406 .082c.739 0 1.575 -.742 2.011 -1.866c.516 -1.335 .273 -2.7 -.54 -3.052z" /><path d="M9.474 9c.055 0 .109 -.004 .163 -.011c.944 -.128 1.533 -1.346 1.32 -2.722c-.203 -1.297 -1.047 -2.267 -1.932 -2.267c-.055 0 -.109 .004 -.163 .011c-.944 .128 -1.533 1.346 -1.32 2.722c.204 1.293 1.048 2.267 1.933 2.267z" /><path d="M16.456 6.733c.214 -1.376 -.375 -2.594 -1.32 -2.722a1.164 1.164 0 0 0 -.162 -.011c-.885 0 -1.728 .97 -1.93 2.267c-.214 1.376 .375 2.594 1.32 2.722c.054 .007 .108 .011 .162 .011c.885 0 1.73 -.974 1.93 -2.267z" /><path d="M5.69 12.918c.816 -.352 1.054 -1.719 .536 -3.052c-.436 -1.124 -1.271 -1.866 -2.009 -1.866c-.14 0 -.277 .027 -.407 .082c-.816 .352 -1.054 1.719 -.536 3.052c.436 1.124 1.271 1.866 2.009 1.866c.14 0 .277 -.027 .407 -.082z" />
</symbol>
	<symbol id="spade" class="icon icon-tabler icon-tabler-spade" viewBox="0 0 24 24" stroke-width="2" stroke="currentColor" fill="none" stroke-linecap="round" stroke-linejoin="round"><path stroke="none" d="M0 0h24v24H0z" fill="none"/><path d="M12 3l4.919 4.5c.61 .587 1.177 1.177 1.703 1.771a5.527 5.527 0 0 1 .264 6.979c-1.18 1.56 -3.338 1.92 -4.886 .75v1l1 3h-6l1 -3v-1c-1.54 1.07 -3.735 .772 -4.886 -.75a5.527 5.527 0 0 1 .264 -6.979a30.883 30.883 0 0 1 1.703 -1.771a1541.72 1541.72 0 0 1 4.919 -4.5z" />
</symbol>
	<symbol id="square-half" class="icon icon-tabler icon-tabler-square-half" viewBox="0 0 24 24" stroke-width="2" stroke="currentColor" fill="none" stroke-linecap="round" stroke-linejoin="round"><path stroke="none" d="M0 0h24v24H0z" fill="none"/><path d="M12 4v16" /><rect x="4" y="4" width="16" height="16" rx="2" /><path d="M12 13l7.5 -7.5" /><path d="M12 18l8 -8" /><path d="M15 20l5 -5" /><path d="M12 8l4 -4" />
</symbol>

	<use xlink:href="#app-window" x="24" y="24" width="24" height="24" />
	<use xlink:href="#armchair-2" x="68" y="24" width="24" height="24" />
	<use xlink:href="#arrow-big-down-line" x="112" y="24" width="24" height="24" />
	<use xlink:href="#arrow-big-down-lines" x="156" y="24" width="24" height="24" />
	<use xlink:href="#arrow-big-left-line" x="200" y="24" width="24" height="24" />
	<use xlink:href="#arrow-big-left-lines" x="244" y="24" width="24" height="24" />
	<use xlink:href="#arrow-big-right-line" x="24" y="68" width="24" height="24" />
	<use xlink:href="#arrow-big-right-lines" x="68" y="68" width="24" height="24" />
	<use xlink:href="#arrow-big-up-line" x="112" y="68" width="24" height="24" />
	<use xlink:href="#arrow-big-up-lines" x="156" y="68" width="24" height="24" />
	<use xlink:href="#barbell" x="200" y="68" width="24" height="24" />
	<use xlink:href="#bell-z" x="244" y="68" width="24" height="24" />
	<use xlink:href="#books" x="24" y="112" width="24" height="24" />
	<use xlink:href="#circle-half-2" x="68" y="112" width="24" height="24" />
	<use xlink:href="#clubs" x="112" y="112" width="24" height="24" />
	<use xlink:href="#diamonds" x="156" y="112" width="24" height="24" />
	<use xlink:href="#flower" x="200" y="112" width="24" height="24" />
	<use xlink:href="#id-badge" x="244" y="112" width="24" height="24" />
	<use xlink:href="#layers-intersect-2" x="24" y="156" width="24" height="24" />
	<use xlink:href="#paw" x="68" y="156" width="24" height="24" />
	<use xlink:href="#spade" x="112" y="156" width="24" height="24" />
	<use xlink:href="#square-half" x="156" y="156" width="24" height="24" />

</svg>