<svg xmlns="http://www.w3.org/2000/svg" xmlns:xlink="http://www.w3.org/1999/xlink" viewBox="0 0 292 160" width="292" height="160" style="color: #354052"><rect x="0" y="0" width="292" height="160" fill="#fff"></rect>
	<symbol id="brand-amongus" class="icon icon-tabler icon-tabler-brand-amongus" viewBox="0 0 24 24" stroke-width="2" stroke="currentColor" fill="none" stroke-linecap="round" stroke-linejoin="round"><path stroke="none" d="M0 0h24v24H0z" fill="none"/><path d="M10.646 12.774c-1.939 .396 -4.467 .317 -6.234 -.601c-2.454 -1.263 -1.537 -4.66 1.423 -4.982c2.254 -.224 3.814 -.354 5.65 .214c.835 .256 1.93 .569 1.355 3.281c-.191 1.067 -1.07 1.904 -2.194 2.088z" /><path d="M5.84 7.132c.083 -.564 .214 -1.12 .392 -1.661c.456 -.936 1.095 -2.068 3.985 -2.456a22.464 22.464 0 0 1 2.867 .08c1.776 .14 2.643 1.234 3.287 3.368c.339 1.157 .46 2.342 .629 3.537v11l-12.704 -.019c-.552 -2.386 -.262 -5.894 .204 -8.481" /><path d="M17 10c.991 .163 2.105 .383 3.069 .67c.255 .13 .52 .275 .534 .505c.264 3.434 .57 7.448 .278 9.825h-3.881" />
</symbol>
	<symbol id="brand-badoo" class="icon icon-tabler icon-tabler-brand-badoo" viewBox="0 0 24 24" stroke-width="2" stroke="currentColor" fill="none" stroke-linecap="round" stroke-linejoin="round"><path stroke="none" d="M0 0h24v24H0z" fill="none"/><path d="M22 9.43c0 5.838 -4.477 10.57 -10 10.57s-10 -4.662 -10 -10.5c-.004 -2.667 1.83 -5.01 4.322 -5.429c2.492 -.418 4.9 1.392 5.678 3.929c.768 -2.54 3.177 -4.354 5.668 -3.931c2.495 .417 4.332 2.69 4.332 5.36z" /><path d="M7.5 10c0 2.761 2.015 5 4.5 5s4.5 -2.239 4.5 -5" />
</symbol>
	<symbol id="brand-bandcamp" class="icon icon-tabler icon-tabler-brand-bandcamp" viewBox="0 0 24 24" stroke-width="2" stroke="currentColor" fill="none" stroke-linecap="round" stroke-linejoin="round"><path stroke="none" d="M0 0h24v24H0z" fill="none"/><path d="M8.5 6h13.5l-7 12h-13z" />
</symbol>
	<symbol id="brand-beats" class="icon icon-tabler icon-tabler-brand-beats" viewBox="0 0 24 24" stroke-width="2" stroke="currentColor" fill="none" stroke-linecap="round" stroke-linejoin="round"><path stroke="none" d="M0 0h24v24H0z" fill="none"/><circle cx="12" cy="12" r="9" /><circle cx="12.5" cy="12.5" r="3.5" /><path d="M9 12v-8" />
</symbol>
	<symbol id="brand-coinbase" class="icon icon-tabler icon-tabler-brand-coinbase" viewBox="0 0 24 24" stroke-width="2" stroke="currentColor" fill="none" stroke-linecap="round" stroke-linejoin="round"><path stroke="none" d="M0 0h24v24H0z" fill="none"/><path d="M12.95 22c-4.503 .001 -8.445 -3.04 -9.61 -7.413c-1.165 -4.373 .737 -8.988 4.638 -11.25a9.906 9.906 0 0 1 12.008 1.598l-3.335 3.367a5.185 5.185 0 0 0 -7.354 .013a5.252 5.252 0 0 0 0 7.393a5.185 5.185 0 0 0 7.354 .013l3.349 3.367a9.887 9.887 0 0 1 -7.05 2.912z" />
</symbol>
	<symbol id="brand-disney" class="icon icon-tabler icon-tabler-brand-disney" viewBox="0 0 24 24" stroke-width="2" stroke="currentColor" fill="none" stroke-linecap="round" stroke-linejoin="round"><path stroke="none" d="M0 0h24v24H0z" fill="none"/><path d="M3.22 5.838c-1.307 -.15 -1.22 -.578 -1.22 -.794c0 -.216 .424 -1.044 4.34 -1.044c4.694 0 14.66 3.645 14.66 10.042s-8.71 4.931 -10.435 4.52c-1.724 -.412 -5.565 -2.256 -5.565 -4.174c0 -1.395 3.08 -2.388 6.715 -2.388c3.634 0 5.285 1.041 5.285 2c0 .5 -.074 1.229 -1 1.5" /><path d="M10.02 8a505.153 505.153 0 0 0 0 13" />
</symbol>
	<symbol id="brand-flipboard" class="icon icon-tabler icon-tabler-brand-flipboard" viewBox="0 0 24 24" stroke-width="2" stroke="currentColor" fill="none" stroke-linecap="round" stroke-linejoin="round"><path stroke="none" d="M0 0h24v24H0z" fill="none"/><path d="M3.973 3h16.054c.537 0 .973 .436 .973 .973v4.052a0.973 .973 0 0 1 -.973 .973h-5.025v4.831c0 .648 -.525 1.173 -1.173 1.173h-4.829v5.025a0.973 .973 0 0 1 -.974 .973h-4.053a0.973 .973 0 0 1 -.973 -.973v-16.054c0 -.537 .436 -.973 .973 -.973z" />
</symbol>
	<symbol id="brand-google-photos" class="icon icon-tabler icon-tabler-brand-google-photos" viewBox="0 0 24 24" stroke-width="2" stroke="currentColor" fill="none" stroke-linecap="round" stroke-linejoin="round"><path stroke="none" d="M0 0h24v24H0z" fill="none"/><path d="M7.5 7c2.485 0 4.5 1.974 4.5 4.409v.591h-8.397a0.61 .61 0 0 1 -.426 -.173a0.585 .585 0 0 1 -.177 -.418c0 -2.435 2.015 -4.409 4.5 -4.409z" /><path d="M16.5 17c-2.485 0 -4.5 -1.974 -4.5 -4.409v-.591h8.397c.333 0 .603 .265 .603 .591c0 2.435 -2.015 4.409 -4.5 4.409z" /><path d="M7 16.5c0 -2.485 1.972 -4.5 4.405 -4.5h.595v8.392a0.61 .61 0 0 1 -.173 .431a0.584 .584 0 0 1 -.422 .177c-2.433 0 -4.405 -2.015 -4.405 -4.5z" /><path d="M17 7.5c0 2.485 -1.972 4.5 -4.405 4.5h-.595v-8.397a0.61 .61 0 0 1 .175 -.428a0.584 .584 0 0 1 .42 -.175c2.433 0 4.405 2.015 4.405 4.5z" />
</symbol>
	<symbol id="brand-grindr" class="icon icon-tabler icon-tabler-brand-grindr" viewBox="0 0 24 24" stroke-width="2" stroke="currentColor" fill="none" stroke-linecap="round" stroke-linejoin="round"><path stroke="none" d="M0 0h24v24H0z" fill="none"/><path d="M13 13.282c0 .492 .784 1.718 2.102 1.718c1.318 0 2.898 -.966 2.898 -2.062c0 -.817 -.932 -.938 -1.409 -.938c-.228 0 -3.591 .111 -3.591 1.282z" /><path d="M12 21c-2.984 0 -6.471 -2.721 -6.63 -2.982c-2.13 -3.49 -2.37 -13.703 -2.37 -13.703l1.446 -1.315c2.499 .39 5.023 .617 7.554 .68a58.626 58.626 0 0 0 7.554 -.68l1.446 1.315s-.24 10.213 -2.37 13.704c-.16 .26 -3.646 2.981 -6.63 2.981z" /><path d="M11 13.282c0 .492 -.784 1.718 -2.102 1.718c-1.318 0 -2.898 -.966 -2.898 -2.062c0 -.817 .932 -.938 1.409 -.938c.228 0 3.591 .111 3.591 1.282z" />
</symbol>
	<symbol id="brand-pushover" class="icon icon-tabler icon-tabler-brand-pushover" viewBox="0 0 24 24" stroke-width="2" stroke="currentColor" fill="none" stroke-linecap="round" stroke-linejoin="round"><path stroke="none" d="M0 0h24v24H0z" fill="none"/><path d="M6.16 10.985c-.83 -1.935 1.53 -7.985 8.195 -7.985c3.333 0 4.645 1.382 4.645 3.9c0 2.597 -2.612 6.1 -9 6.1" /><path d="M12.5 6l-5.5 15" />
</symbol>
	<symbol id="brand-vinted" class="icon icon-tabler icon-tabler-brand-vinted" viewBox="0 0 24 24" stroke-width="2" stroke="currentColor" fill="none" stroke-linecap="round" stroke-linejoin="round"><path stroke="none" d="M0 0h24v24H0z" fill="none"/><path d="M11.028 6c0 7.695 -.292 11.728 0 12c2.046 -5.002 4.246 -12.642 5.252 -14.099c.343 -.497 .768 -.93 1.257 -1.277c.603 -.39 1.292 -.76 1.463 -.575c-.07 2.319 -4.023 15.822 -4.209 16.314a6.135 6.135 0 0 1 -3.465 3.386c-3.213 .78 -3.429 -.446 -3.836 -1.134c-.95 -2.103 -1.682 -14.26 -1.445 -15.615c.05 -.523 .143 -1.851 2.491 -2c2.359 -.354 2.547 1.404 2.492 3z" />
</symbol>
	<symbol id="brand-vivaldi" class="icon icon-tabler icon-tabler-brand-vivaldi" viewBox="0 0 24 24" stroke-width="2" stroke="currentColor" fill="none" stroke-linecap="round" stroke-linejoin="round"><path stroke="none" d="M0 0h24v24H0z" fill="none"/><path d="M21.648 6.808c-2.468 4.28 -4.937 8.56 -7.408 12.836c-.397 .777 -1.366 1.301 -2.24 1.356c-.962 .102 -1.7 -.402 -2.154 -1.254c-1.563 -2.684 -3.106 -5.374 -4.66 -8.064c-.943 -1.633 -1.891 -3.266 -2.83 -4.905a2.47 2.47 0 0 1 -.06 -2.45a2.493 2.493 0 0 1 2.085 -1.307c.951 -.065 1.85 .438 2.287 1.281c.697 1.19 2.043 3.83 2.55 4.682a3.919 3.919 0 0 0 3.282 2.017c2.126 .133 3.974 -.95 4.21 -3.058c0 -.164 .228 -3.178 .846 -3.962c.619 -.784 1.64 -1.155 2.606 -.893a2.484 2.484 0 0 1 1.814 2.062c.08 .581 -.041 1.171 -.343 1.674" />
</symbol>
	<symbol id="brand-walmart" class="icon icon-tabler icon-tabler-brand-walmart" viewBox="0 0 24 24" stroke-width="2" stroke="currentColor" fill="none" stroke-linecap="round" stroke-linejoin="round"><path stroke="none" d="M0 0h24v24H0z" fill="none"/><path d="M12 8.04v-5.04" /><path d="M15.5 10l4.5 -2.5" /><path d="M15.5 14l4.5 2.5" /><path d="M12 15.96v5.04" /><path d="M8.5 14l-4.5 2.5" /><path d="M8.5 10l-4.5 -2.505" />
</symbol>
	<symbol id="brand-wish" class="icon icon-tabler icon-tabler-brand-wish" viewBox="0 0 24 24" stroke-width="2" stroke="currentColor" fill="none" stroke-linecap="round" stroke-linejoin="round"><path stroke="none" d="M0 0h24v24H0z" fill="none"/><path d="M2 6l5.981 2.392l-.639 6.037c-.18 .893 .06 1.819 .65 2.514a3 3 0 0 0 2.381 1.057a4.328 4.328 0 0 0 4.132 -3.57c-.18 .893 .06 1.819 .65 2.514a3 3 0 0 0 2.38 1.056a4.328 4.328 0 0 0 4.132 -3.57l.333 -4.633" /><path d="M14.504 14.429l.334 -2.999" />
</symbol>
	<symbol id="brand-yatse" class="icon icon-tabler icon-tabler-brand-yatse" viewBox="0 0 24 24" stroke-width="2" stroke="currentColor" fill="none" stroke-linecap="round" stroke-linejoin="round"><path stroke="none" d="M0 0h24v24H0z" fill="none"/><path d="M7.002 3l4.998 2.876v5.088l4.197 -2.73l4.803 2.731l-9.281 5.478l-2.383 1.41l-2.334 1.377l-3.002 1.77v-5.565l3.002 -1.771z" />
</symbol>
	<symbol id="brand-youtube-kids" class="icon icon-tabler icon-tabler-brand-youtube-kids" viewBox="0 0 24 24" stroke-width="2" stroke="currentColor" fill="none" stroke-linecap="round" stroke-linejoin="round"><path stroke="none" d="M0 0h24v24H0z" fill="none"/><path d="M17.782 17.03l-3.413 .235l-.023 .002c-1.117 .09 -2.214 .335 -3.257 .725l-2.197 .794a3.597 3.597 0 0 1 -2.876 -.189a3.342 3.342 0 0 1 -1.732 -2.211l-1.204 -5.293a3.21 3.21 0 0 1 .469 -2.503a3.468 3.468 0 0 1 2.177 -1.452l9.843 -2.06c1.87 -.392 3.716 .744 4.124 2.537l1.227 5.392a3.217 3.217 0 0 1 -.61 2.7a3.506 3.506 0 0 1 -2.528 1.323z" /><path d="M10 10l.972 4l4.028 -3z" />
</symbol>
	<symbol id="brand-zoom" class="icon icon-tabler icon-tabler-brand-zoom" viewBox="0 0 24 24" stroke-width="2" stroke="currentColor" fill="none" stroke-linecap="round" stroke-linejoin="round"><path stroke="none" d="M0 0h24v24H0z" fill="none"/><path d="M17.011 9.385v5.128l3.989 3.487v-12z" /><path d="M3.887 6h10.08c1.468 0 3.033 1.203 3.033 2.803v8.196a0.991 .991 0 0 1 -.975 1.001h-10.373c-1.667 0 -2.652 -1.5 -2.652 -3l.01 -8.002a0.882 .882 0 0 1 .208 -.71a0.841 .841 0 0 1 .67 -.287z" />
</symbol>
	<symbol id="brand-zwift" class="icon icon-tabler icon-tabler-brand-zwift" viewBox="0 0 24 24" stroke-width="2" stroke="currentColor" fill="none" stroke-linecap="round" stroke-linejoin="round"><path stroke="none" d="M0 0h24v24H0z" fill="none"/><path d="M5.5 4c-1.465 0 -2.5 1.101 -2.5 2.5s1.035 2.5 2.5 2.5h2.5l-4.637 7.19a2.434 2.434 0 0 0 -.011 2.538c.473 .787 1.35 1.272 2.3 1.272h10.848c1.465 0 2.5 -1.101 2.5 -2.5s-1.035 -2.5 -2.5 -2.5h-2.5l7 -11h-15.5z" />
</symbol>

	<use xlink:href="#brand-amongus" x="24" y="24" width="24" height="24" />
	<use xlink:href="#brand-badoo" x="68" y="24" width="24" height="24" />
	<use xlink:href="#brand-bandcamp" x="112" y="24" width="24" height="24" />
	<use xlink:href="#brand-beats" x="156" y="24" width="24" height="24" />
	<use xlink:href="#brand-coinbase" x="200" y="24" width="24" height="24" />
	<use xlink:href="#brand-disney" x="244" y="24" width="24" height="24" />
	<use xlink:href="#brand-flipboard" x="24" y="68" width="24" height="24" />
	<use xlink:href="#brand-google-photos" x="68" y="68" width="24" height="24" />
	<use xlink:href="#brand-grindr" x="112" y="68" width="24" height="24" />
	<use xlink:href="#brand-pushover" x="156" y="68" width="24" height="24" />
	<use xlink:href="#brand-vinted" x="200" y="68" width="24" height="24" />
	<use xlink:href="#brand-vivaldi" x="244" y="68" width="24" height="24" />
	<use xlink:href="#brand-walmart" x="24" y="112" width="24" height="24" />
	<use xlink:href="#brand-wish" x="68" y="112" width="24" height="24" />
	<use xlink:href="#brand-yatse" x="112" y="112" width="24" height="24" />
	<use xlink:href="#brand-youtube-kids" x="156" y="112" width="24" height="24" />
	<use xlink:href="#brand-zoom" x="200" y="112" width="24" height="24" />
	<use xlink:href="#brand-zwift" x="244" y="112" width="24" height="24" />

</svg>