<svg xmlns="http://www.w3.org/2000/svg" xmlns:xlink="http://www.w3.org/1999/xlink" viewBox="0 0 322 172" width="322" height="172" style="color: #354052"><rect x="0" y="0" width="322" height="172" fill="#fff"></rect>
	<symbol id="alert-octagon" class="icon icon-tabler icon-tabler-alert-octagon" viewBox="0 0 24 24" stroke-width="2" stroke="currentColor" fill="none" stroke-linecap="round" stroke-linejoin="round"><path stroke="none" d="M0 0h24v24H0z"/><path d="M8.7 3 h 6.6 c0.3 0 .5 .1 .7 .3 l4.7 4.7 c0.2 .2 .3 .4 .3 .7 v6.6 c0 .3 -.1 .5 -.3 .7 l-4.7 4.7 c-0.2 .2 -.4 .3 -.7 .3h-6.6 c-0.3 0 -.5 -.1 -.7 -.3 l-4.7 -4.7 c-0.2 -.2 -.3 -.4 -.3 -.7 v-6.6 c0 -.3 .1 -.5 .3 -.7l4.7 -4.7 c0.2 -.2 .4 -.3 .7 -.3z" /><line x1="12" y1="8" x2="12" y2="12" /><line x1="12" y1="16" x2="12.01" y2="16" />
</symbol>
	<symbol id="antenna-bars-1" class="icon icon-tabler icon-tabler-antenna-bars-1" viewBox="0 0 24 24" stroke-width="2" stroke="currentColor" fill="none" stroke-linecap="round" stroke-linejoin="round"><path stroke="none" d="M0 0h24v24H0z"/><path d="M6 18v-.01" /><path d="M10 18v-.01" /><path d="M14 18v-.01" /><path d="M18 18v-.01" />
</symbol>
	<symbol id="antenna-bars-2" class="icon icon-tabler icon-tabler-antenna-bars-2" viewBox="0 0 24 24" stroke-width="2" stroke="currentColor" fill="none" stroke-linecap="round" stroke-linejoin="round"><path stroke="none" d="M0 0h24v24H0z"/><path d="M6 18v-3" /><path d="M10 18v-.01" /><path d="M14 18v-.01" /><path d="M18 18v-.01" />
</symbol>
	<symbol id="antenna-bars-3" class="icon icon-tabler icon-tabler-antenna-bars-3" viewBox="0 0 24 24" stroke-width="2" stroke="currentColor" fill="none" stroke-linecap="round" stroke-linejoin="round"><path stroke="none" d="M0 0h24v24H0z"/><path d="M6 18v-3" /><path d="M10 18v-6" /><path d="M14 18v-.01" /><path d="M18 18v-.01" />
</symbol>
	<symbol id="antenna-bars-4" class="icon icon-tabler icon-tabler-antenna-bars-4" viewBox="0 0 24 24" stroke-width="2" stroke="currentColor" fill="none" stroke-linecap="round" stroke-linejoin="round"><path stroke="none" d="M0 0h24v24H0z"/><path d="M6 18v-3" /><path d="M10 18v-6" /><path d="M14 18v-9" /><path d="M18 18v-.01" />
</symbol>
	<symbol id="antenna-bars-5" class="icon icon-tabler icon-tabler-antenna-bars-5" viewBox="0 0 24 24" stroke-width="2" stroke="currentColor" fill="none" stroke-linecap="round" stroke-linejoin="round"><path stroke="none" d="M0 0h24v24H0z"/><path d="M6 18v-3" /><path d="M10 18v-6" /><path d="M14 18v-9" /><path d="M18 18v-12" />
</symbol>
	<symbol id="pause" class="icon icon-tabler icon-tabler-pause" viewBox="0 0 24 24" stroke-width="2" stroke="currentColor" fill="none" stroke-linecap="round" stroke-linejoin="round"><path stroke="none" d="M0 0h24v24H0z"/><rect x="4" y="4" width="6" height="16" rx="2" /><rect x="14" y="4" width="6" height="16" rx="2" />
</symbol>
	<symbol id="play" class="icon icon-tabler icon-tabler-play" viewBox="0 0 24 24" stroke-width="2" stroke="currentColor" fill="none" stroke-linecap="round" stroke-linejoin="round"><path stroke="none" d="M0 0h24v24H0z"/><path d="M5 5 v14 a2 2 0 0 0 2.75 1.84 l12.25 -7.1 a2 2 0 0 0 0 -3.5 l-12.25 -7.1 a2 2 0 0 0 -2.75 1.75" />
</symbol>
	<symbol id="skip-back" class="icon icon-tabler icon-tabler-skip-back" viewBox="0 0 24 24" stroke-width="2" stroke="currentColor" fill="none" stroke-linecap="round" stroke-linejoin="round"><path stroke="none" d="M0 0h24v24H0z"/><path d="M20 18v-12a2 2 0 0 0 -2.75 -1.84l-8.25 6.1a2 2 0 0 0 0 3.5l8.25 6.1a2 2 0 0 0 2.75 -1.75" /><path d="M4 20v-16" />
</symbol>
	<symbol id="skip-forward" class="icon icon-tabler icon-tabler-skip-forward" viewBox="0 0 24 24" stroke-width="2" stroke="currentColor" fill="none" stroke-linecap="round" stroke-linejoin="round"><path stroke="none" d="M0 0h24v24H0z"/><path d="M4 6v12 a2 2 0 0 0 2.75 1.84 l8.25 -6.1 a2 2 0 0 0 0 -3.5 l-8.25 -6.1 a2 2 0 0 0 -2.75 1.75" /><line x1="20" y1="4" x2="20" y2="20" />
</symbol>
	<symbol id="tournament" class="icon icon-tabler icon-tabler-tournament" viewBox="0 0 24 24" stroke-width="2" stroke="currentColor" fill="none" stroke-linecap="round" stroke-linejoin="round"><path stroke="none" d="M0 0h24v24H0z"/><path d="M5 6h3a1 1 0 0 1 1 1v2a1 1 0 0 1 -1 1h-3" /><path d="M5 14h3a1 1 0 0 1 1 1v2a1 1 0 0 1 -1 1h-3" /><path d="M9 8h4a1 1 0 0 1 1 1v6a1 1 0 0 1 -1 1h-4" /><line x1="14" y1="12" x2="19" y2="12" />
</symbol>
	<symbol id="track-next" class="icon icon-tabler icon-tabler-track-next" viewBox="0 0 24 24" stroke-width="2" stroke="currentColor" fill="none" stroke-linecap="round" stroke-linejoin="round"><path stroke="none" d="M0 0h24v24H0z"/><path d="M13.69 4.198 l 6.56 6.25 c 1 0.798 1 2.306 0 3.105 l -6.564 6.252 c -0.67 0.48 -1.686 0.008 -1.686 -0.805 v -4 l -5.394 4.808 c -0.669 0.478 -1.606 0.003 -1.606 -0.808 v -14 c 0 -0.812 0.936 -1.285 1.602 -0.809 l 5.398 4.809 v -4 c 0 -0.816 1.02 -1.28 1.69 -0.802 z" />
</symbol>
	<symbol id="track-prev" class="icon icon-tabler icon-tabler-track-prev" viewBox="0 0 24 24" stroke-width="2" stroke="currentColor" fill="none" stroke-linecap="round" stroke-linejoin="round"><path stroke="none" d="M0 0h24v24H0z"/><path d="M10.31 19.802 l -6.56 -6.249 c -1 -0.799 -1 -2.307 0 -3.106 l 6.564 -6.252 c 0.67 -0.48 1.686 -0.008 1.686 0.805 v 4 l 5.394 -4.808 c 0.669 -0.478 1.606 -0.003 1.606 0.808 v 14 c 0 0.812 -0.936 1.285 -1.602 0.809 l -5.398 -4.809 v 4 c 0 0.816 -1.02 1.281 -1.69 0.802 z" />
</symbol>
	<symbol id="wave-saw-tool" class="icon icon-tabler icon-tabler-wave-saw-tool" viewBox="0 0 24 24" stroke-width="2" stroke="currentColor" fill="none" stroke-linecap="round" stroke-linejoin="round"><path stroke="none" d="M0 0h24v24H0z"/><path d="M3 12 h5 l4 8 v-16 l4 8h5" />
</symbol>
	<symbol id="wave-sine" class="icon icon-tabler icon-tabler-wave-sine" viewBox="0 0 24 24" stroke-width="2" stroke="currentColor" fill="none" stroke-linecap="round" stroke-linejoin="round"><path stroke="none" d="M0 0h24v24H0z"/><path d="M21 12 h -2 c -0.894 0 -1.662 -0.857 -1.761 -2 c -0.296 -3.45 -0.749 -6 -2.749 -6 s -2.5 3.582 -2.5 8 s -0.5 8 -2.5 8 s -2.452 -2.547 -2.749 -6 c -0.1 -1.147 -0.867 -2 -1.763 -2 h -2" />
</symbol>
	<symbol id="wave-square" class="icon icon-tabler icon-tabler-wave-square" viewBox="0 0 24 24" stroke-width="2" stroke="currentColor" fill="none" stroke-linecap="round" stroke-linejoin="round"><path stroke="none" d="M0 0h24v24H0z"/><path d="M3 12 h5 v8 h4 v-16 h4 v8 h5" />
</symbol>

	<use xlink:href="#alert-octagon" x="24" y="24" width="24" height="24" />
	<use xlink:href="#antenna-bars-1" x="74" y="24" width="24" height="24" />
	<use xlink:href="#antenna-bars-2" x="124" y="24" width="24" height="24" />
	<use xlink:href="#antenna-bars-3" x="174" y="24" width="24" height="24" />
	<use xlink:href="#antenna-bars-4" x="224" y="24" width="24" height="24" />
	<use xlink:href="#antenna-bars-5" x="274" y="24" width="24" height="24" />
	<use xlink:href="#pause" x="24" y="74" width="24" height="24" />
	<use xlink:href="#play" x="74" y="74" width="24" height="24" />
	<use xlink:href="#skip-back" x="124" y="74" width="24" height="24" />
	<use xlink:href="#skip-forward" x="174" y="74" width="24" height="24" />
	<use xlink:href="#tournament" x="224" y="74" width="24" height="24" />
	<use xlink:href="#track-next" x="274" y="74" width="24" height="24" />
	<use xlink:href="#track-prev" x="24" y="124" width="24" height="24" />
	<use xlink:href="#wave-saw-tool" x="74" y="124" width="24" height="24" />
	<use xlink:href="#wave-sine" x="124" y="124" width="24" height="24" />
	<use xlink:href="#wave-square" x="174" y="124" width="24" height="24" />

</svg>