<svg xmlns="http://www.w3.org/2000/svg" xmlns:xlink="http://www.w3.org/1999/xlink" viewBox="0 0 292 160" width="292" height="160" style="color: #354052"><rect x="0" y="0" width="292" height="160" fill="#fff"></rect>
	<symbol id="filled-clipboard-plus" xmlns="http://www.w3.org/2000/svg" width="24" height="24" viewBox="0 0 24 24" fill="currentColor"
> <path d="M17.997 4.17a3 3 0 0 1 2.003 2.83v12a3 3 0 0 1 -3 3h-10a3 3 0 0 1 -3 -3v-12a3 3 0 0 1 2.003 -2.83a4 4 0 0 0 3.997 3.83h4a4 4 0 0 0 3.98 -3.597zm-5.997 6.83a1 1 0 0 0 -1 1v1h-1a1 1 0 0 0 0 2h1v1a1 1 0 0 0 2 0v-1h1a1 1 0 0 0 0 -2h-1v-1a1 1 0 0 0 -1 -1m2 -9a2 2 0 1 1 0 4h-4a2 2 0 1 1 0 -4z" />
</symbol>
	<symbol id="filled-clipboard-smile" xmlns="http://www.w3.org/2000/svg" width="24" height="24" viewBox="0 0 24 24" fill="currentColor"
> <path d="M17.997 4.17a3 3 0 0 1 2.003 2.83v12a3 3 0 0 1 -3 3h-10a3 3 0 0 1 -3 -3v-12a3 3 0 0 1 2.003 -2.83a4 4 0 0 0 3.997 3.83h4a4 4 0 0 0 3.98 -3.597zm-3.176 11.259a1 1 0 0 0 -1.392 -.25a2.5 2.5 0 0 1 -2.858 0a1 1 0 0 0 -1.142 1.642a4.5 4.5 0 0 0 5.142 0a1 1 0 0 0 .25 -1.392m-4.811 -3.429h-.01a1 1 0 0 0 -.117 1.993l.127 .007a1 1 0 0 0 0 -2m4 0h-.01a1 1 0 0 0 -.117 1.993l.127 .007a1 1 0 0 0 0 -2m-.01 -10a2 2 0 1 1 0 4h-4a2 2 0 1 1 0 -4z" />
</symbol>
	<symbol id="filled-ease-in-control-point" xmlns="http://www.w3.org/2000/svg" width="24" height="24" viewBox="0 0 24 24" fill="currentColor"
> <path d="M19 16a3 3 0 1 1 -2.829 4h-1.171a1 1 0 0 1 0 -2h1.17a3 3 0 0 1 2.83 -2m2.53 -13.848a1 1 0 0 1 .318 1.378l-.286 .445l-.173 .264a73 73 0 0 1 -1.26 1.839a70 70 0 0 1 -4.376 5.58c-2.795 3.195 -5.544 5.638 -8.171 7.04c-1.593 .848 -3.123 1.302 -4.582 1.302a1 1 0 0 1 0 -2c1.097 0 2.317 -.361 3.64 -1.068c2.373 -1.265 4.958 -3.562 7.607 -6.59a68 68 0 0 0 4.25 -5.42a69 69 0 0 0 1.003 -1.456l.455 -.69q .133 -.204 .196 -.306a1 1 0 0 1 1.378 -.318m-9.529 15.848a1 1 0 0 1 0 2h-2a1 1 0 0 1 0 -2z" />
</symbol>
	<symbol id="filled-ease-in-out-control-points" xmlns="http://www.w3.org/2000/svg" width="24" height="24" viewBox="0 0 24 24" fill="currentColor"
> <path d="M19 17a3 3 0 1 1 -2.829 4h-1.171a1 1 0 0 1 0 -2h1.17a3 3 0 0 1 2.83 -2m-14 -16c1.306 0 2.418 .835 2.83 2h1.17a1 1 0 1 1 0 2h-1.171a3.001 3.001 0 1 1 -2.829 -4m9 2a1 1 0 0 1 0 2h-2a1 1 0 0 1 0 -2zm-2 16a1 1 0 0 1 0 2h-2a1 1 0 0 1 0 -2z" /> <path d="M21 3a1 1 0 0 1 0 2c-2.83 0 -4.6 1.845 -8.152 7.53c-3.947 6.315 -6.012 8.47 -9.848 8.47a1 1 0 0 1 0 -2c2.83 0 4.6 -1.845 8.152 -7.53c3.947 -6.315 6.012 -8.47 9.848 -8.47" />
</symbol>
	<symbol id="filled-ease-out-control-point" xmlns="http://www.w3.org/2000/svg" width="24" height="24" viewBox="0 0 24 24" fill="currentColor"
> <path d="M21 4a1 1 0 0 1 0 2c-1.097 0 -2.317 .361 -3.64 1.068c-2.373 1.265 -4.958 3.562 -7.607 6.59a68 68 0 0 0 -4.25 5.42a69 69 0 0 0 -1.003 1.456l-.455 .69q -.132 .204 -.196 .306a1 1 0 1 1 -1.696 -1.06l.286 -.445l.173 -.264a73 73 0 0 1 1.26 -1.839a70 70 0 0 1 4.376 -5.58c2.795 -3.195 5.544 -5.638 8.171 -7.04c1.592 -.848 3.122 -1.302 4.581 -1.302m-16 -2c1.306 0 2.418 .835 2.83 2h1.17a1 1 0 1 1 0 2h-1.171a3.001 3.001 0 1 1 -2.829 -4" /> <path d="M14 4a1 1 0 0 1 0 2h-2a1 1 0 0 1 0 -2z" />
</symbol>
	<symbol id="filled-file-analytics" xmlns="http://www.w3.org/2000/svg" width="24" height="24" viewBox="0 0 24 24" fill="currentColor"
> <path d="M12 2l.117 .007a1 1 0 0 1 .876 .876l.007 .117v4l.005 .15a2 2 0 0 0 1.838 1.844l.157 .006h4l.117 .007a1 1 0 0 1 .876 .876l.007 .117v9a3 3 0 0 1 -2.824 2.995l-.176 .005h-10a3 3 0 0 1 -2.995 -2.824l-.005 -.176v-14a3 3 0 0 1 2.824 -2.995l.176 -.005zm-3 10a1 1 0 0 0 -1 1v5a1 1 0 0 0 2 0v-5a1 1 0 0 0 -1 -1m3 4a1 1 0 0 0 -1 1v1a1 1 0 0 0 2 0v-1a1 1 0 0 0 -1 -1m3 -2a1 1 0 0 0 -1 1v3a1 1 0 0 0 2 0v-3a1 1 0 0 0 -1 -1" /> <path d="M19 7h-4l-.001 -4.001z" />
</symbol>
	<symbol id="filled-file-code" xmlns="http://www.w3.org/2000/svg" width="24" height="24" viewBox="0 0 24 24" fill="currentColor"
> <path d="M12 2l.117 .007a1 1 0 0 1 .876 .876l.007 .117v4l.005 .15a2 2 0 0 0 1.838 1.844l.157 .006h4l.117 .007a1 1 0 0 1 .876 .876l.007 .117v9a3 3 0 0 1 -2.824 2.995l-.176 .005h-10a3 3 0 0 1 -2.995 -2.824l-.005 -.176v-14a3 3 0 0 1 2.824 -2.995l.176 -.005zm-1.553 11.106a1 1 0 0 0 -1.341 .447l-1 2a1 1 0 0 0 0 .894l1 2a1 1 0 0 0 1.341 .447l.102 -.058a1 1 0 0 0 .345 -1.283l-.776 -1.553l.776 -1.553a1 1 0 0 0 -.447 -1.341m4.447 .447a1 1 0 0 0 -1.341 -.447l-.102 .058a1 1 0 0 0 -.345 1.283l.774 1.553l-.775 1.553a1 1 0 0 0 1.788 .894l1 -2a1 1 0 0 0 0 -.894z" /> <path d="M19 7h-4l-.001 -4.001z" />
</symbol>
	<symbol id="filled-file-diff" xmlns="http://www.w3.org/2000/svg" width="24" height="24" viewBox="0 0 24 24" fill="currentColor"
> <path d="M12 2l.117 .007a1 1 0 0 1 .876 .876l.007 .117v4l.005 .15a2 2 0 0 0 1.838 1.844l.157 .006h4l.117 .007a1 1 0 0 1 .876 .876l.007 .117v9a3 3 0 0 1 -2.824 2.995l-.176 .005h-10a3 3 0 0 1 -2.995 -2.824l-.005 -.176v-14a3 3 0 0 1 2.824 -2.995l.176 -.005zm2 15h-4a1 1 0 0 0 0 2h4a1 1 0 0 0 0 -2m-2 -7a1 1 0 0 0 -1 1v1h-1a1 1 0 0 0 0 2h1v1a1 1 0 0 0 2 0v-1h1a1 1 0 0 0 0 -2h-1v-1a1 1 0 0 0 -1 -1" /> <path d="M19 7h-4l-.001 -4.001z" />
</symbol>
	<symbol id="filled-file-dots" xmlns="http://www.w3.org/2000/svg" width="24" height="24" viewBox="0 0 24 24" fill="currentColor"
> <path d="M12 2l.117 .007a1 1 0 0 1 .876 .876l.007 .117v4l.005 .15a2 2 0 0 0 1.838 1.844l.157 .006h4l.117 .007a1 1 0 0 1 .876 .876l.007 .117v9a3 3 0 0 1 -2.824 2.995l-.176 .005h-10a3 3 0 0 1 -2.995 -2.824l-.005 -.176v-14a3 3 0 0 1 2.824 -2.995l.176 -.005zm-3 12a1 1 0 0 0 -.993 .883l-.007 .127a1 1 0 0 0 1.993 .117l.007 -.127a1 1 0 0 0 -1 -1m3 0a1 1 0 0 0 -.993 .883l-.007 .127a1 1 0 0 0 1.993 .117l.007 -.127a1 1 0 0 0 -1 -1m3 0a1 1 0 0 0 -.993 .883l-.007 .127a1 1 0 0 0 1.993 .117l.007 -.127a1 1 0 0 0 -1 -1" /> <path d="M19 7h-4l-.001 -4.001z" />
</symbol>
	<symbol id="filled-file-function" xmlns="http://www.w3.org/2000/svg" width="24" height="24" viewBox="0 0 24 24" fill="currentColor"
> <path d="M12 2l.117 .007a1 1 0 0 1 .876 .876l.007 .117v4l.005 .15a2 2 0 0 0 1.838 1.844l.157 .006h4l.117 .007a1 1 0 0 1 .876 .876l.007 .117v9a3 3 0 0 1 -2.824 2.995l-.176 .005h-10a3 3 0 0 1 -2.995 -2.824l-.005 -.176v-14a3 3 0 0 1 2.824 -2.995l.176 -.005zm1.5 9h-.333l-.16 .006c-.895 .07 -1.65 .732 -1.75 1.63l-.152 1.364h-.605a1 1 0 0 0 0 2h.382l-.111 1h-.271a1 1 0 0 0 0 2h.333l.16 -.006c.896 -.071 1.652 -.733 1.75 -1.632l.151 -1.362h.606a1 1 0 0 0 0 -2h-.383l.111 -1h.272a1 1 0 0 0 0 -2" /> <path d="M19 7h-4l-.001 -4.001z" />
</symbol>
	<symbol id="filled-file-info" xmlns="http://www.w3.org/2000/svg" width="24" height="24" viewBox="0 0 24 24" fill="currentColor"
> <path d="M12 2l.117 .007a1 1 0 0 1 .876 .876l.007 .117v4l.005 .15a2 2 0 0 0 1.838 1.844l.157 .006h4l.117 .007a1 1 0 0 1 .876 .876l.007 .117v9a3 3 0 0 1 -2.824 2.995l-.176 .005h-10a3 3 0 0 1 -2.995 -2.824l-.005 -.176v-14a3 3 0 0 1 2.824 -2.995l.176 -.005zm0 12h-1a1 1 0 0 0 0 2v3a1 1 0 0 0 1 1h1a1 1 0 0 0 1 -1l-.007 -.117a1 1 0 0 0 -.876 -.876l-.117 -.007v-3a1 1 0 0 0 -1 -1m.01 -3h-.01a1 1 0 0 0 -.117 1.993l.127 .007a1 1 0 0 0 0 -2" /> <path d="M19 7h-4l-.001 -4.001z" />
</symbol>
	<symbol id="filled-file-typography" xmlns="http://www.w3.org/2000/svg" width="24" height="24" viewBox="0 0 24 24" fill="currentColor"
> <path d="M12 2l.117 .007a1 1 0 0 1 .876 .876l.007 .117v4l.005 .15a2 2 0 0 0 1.838 1.844l.157 .006h4l.117 .007a1 1 0 0 1 .876 .876l.007 .117v9a3 3 0 0 1 -2.824 2.995l-.176 .005h-10a3 3 0 0 1 -2.995 -2.824l-.005 -.176v-14a3 3 0 0 1 2.824 -2.995l.176 -.005zm3 9h-6a1 1 0 0 0 -1 1v1a1 1 0 0 0 2 0h1v5a1 1 0 0 0 0 2h2a1 1 0 0 0 0 -2v-5h1a1 1 0 0 0 2 0v-1a1 1 0 0 0 -1 -1" /> <path d="M19 7h-4l-.001 -4.001z" />
</symbol>
	<symbol id="filled-heart-broken" xmlns="http://www.w3.org/2000/svg" width="24" height="24" viewBox="0 0 24 24" fill="currentColor"
> <path d="M11.001 3.8l-.001 1.963l-1.894 3.79l-.047 .11a1 1 0 0 0 .341 1.137l3.332 2.499l-1.626 3.254a1 1 0 0 0 -.106 .447v3.417l-7.197 -7.127a6 6 0 0 1 6.956 -9.621zm5.77 -.739l.246 .037a6 6 0 0 1 3.184 10.193l-.044 .037l-7.157 7.088v-3.181l1.894 -3.788l.047 -.11a1 1 0 0 0 -.341 -1.137l-3.333 -2.5l1.627 -3.253a1 1 0 0 0 .106 -.447v-2.187a6 6 0 0 1 3.77 -.752" />
</symbol>
	<symbol id="filled-laurel-wreath-1" xmlns="http://www.w3.org/2000/svg" width="24" height="24" viewBox="0 0 24 24" fill="currentColor"
> <path d="M16.956 2.057c.355 .124 .829 .375 1.303 .796a3.77 3.77 0 0 1 1.246 2.204c.173 .989 -.047 1.894 -.519 2.683l-.123 .194q -.097 .147 -.196 .272q .066 .234 .117 .471q .26 -.178 .545 -.307c.851 -.389 1.727 -.442 2.527 -.306q .226 .04 .346 .076a1 1 0 0 1 .689 .712l.029 .13q .015 .08 .03 .18a4.45 4.45 0 0 1 -.324 2.496a3.94 3.94 0 0 1 -1.71 1.85l-.242 .12a4.23 4.23 0 0 1 -2.234 .349a9 9 0 0 1 -.443 1.023c.37 .016 .748 .093 1.128 .24c.732 .28 1.299 .758 1.711 1.367a3.95 3.95 0 0 1 .654 1.613a1 1 0 0 1 -.356 .917a3.8 3.8 0 0 1 -.716 .443c-.933 .455 -1.978 .588 -3.043 .179l-.032 -.015l-.205 -.086a3.6 3.6 0 0 1 -1.33 -1.069l-.143 -.197a4 4 0 0 1 -.26 -.433a6 6 0 0 1 -.927 .511q .18 .262 .337 .56a7.4 7.4 0 0 1 .66 1.747a1 1 0 0 1 -1.95 .444l-.028 -.11a6 6 0 0 0 -.449 -1.143c-.342 -.645 -.71 -.968 -1.048 -.968s-.706 .323 -1.048 .969a5.6 5.6 0 0 0 -.367 .874l-.082 .269l-.028 .11a1 1 0 0 1 -1.95 -.444a7.3 7.3 0 0 1 .66 -1.747q .158 -.298 .337 -.561a6.4 6.4 0 0 1 -.93 -.508a4 4 0 0 1 -.256 .43c-.366 .541 -.855 .98 -1.473 1.267l-.238 .1c-.994 .382 -1.97 .292 -2.855 -.091l-.188 -.087a3.8 3.8 0 0 1 -.716 -.443a1 1 0 0 1 -.356 -.917a3.95 3.95 0 0 1 .654 -1.613a3.6 3.6 0 0 1 1.71 -1.368c.38 -.146 .758 -.223 1.13 -.24a9 9 0 0 1 -.445 -1.023a4.23 4.23 0 0 1 -2.233 -.348a4 4 0 0 1 -.916 -.587l-.207 -.191a4 4 0 0 1 -.724 -.977l-.105 -.216a4.45 4.45 0 0 1 -.265 -2.806a1 1 0 0 1 .69 -.712q .119 -.036 .345 -.076c.801 -.135 1.678 -.082 2.53 .308q .283 .129 .545 .304q .048 -.235 .112 -.47a5 5 0 0 1 -.194 -.272c-.556 -.832 -.83 -1.806 -.642 -2.877l.05 -.242a3.75 3.75 0 0 1 1.027 -1.803l.169 -.159a4 4 0 0 1 1.303 -.796a1 1 0 0 1 .975 .178c.2 .168 .462 .446 .719 .83c.556 .833 .83 1.807 .642 2.878a3.77 3.77 0 0 1 -1.246 2.204c-.303 .27 -.607 .47 -.879 .61a7.5 7.5 0 0 0 -.255 1.971c0 3.502 2.285 6.272 5 6.272s5 -2.77 5 -6.276a7.6 7.6 0 0 0 -.253 -1.967a4.3 4.3 0 0 1 -.881 -.61a3.77 3.77 0 0 1 -1.246 -2.204c-.188 -1.07 .086 -2.045 .642 -2.877c.257 -.385 .52 -.663 .72 -.831a1 1 0 0 1 .974 -.178m-3.956 5.943v6a1 1 0 0 1 -2 0v-4.002h-.059a1 1 0 0 1 -.554 -.208l-.094 -.083a1 1 0 0 1 0 -1.414l1 -1c.63 -.63 1.707 -.184 1.707 .707" />
</symbol>
	<symbol id="filled-laurel-wreath-2" xmlns="http://www.w3.org/2000/svg" width="24" height="24" viewBox="0 0 24 24" fill="currentColor"
> <path d="M16.956 2.057c.355 .124 .829 .375 1.303 .796a3.77 3.77 0 0 1 1.246 2.204c.173 .989 -.047 1.894 -.519 2.683l-.123 .194q -.097 .147 -.196 .272q .066 .234 .117 .471q .26 -.178 .545 -.307c.851 -.389 1.727 -.442 2.527 -.306q .226 .04 .346 .076a1 1 0 0 1 .689 .712l.029 .13q .015 .08 .03 .18a4.45 4.45 0 0 1 -.324 2.496a3.94 3.94 0 0 1 -1.71 1.85l-.242 .12a4.23 4.23 0 0 1 -2.234 .349a9 9 0 0 1 -.443 1.023c.37 .016 .748 .093 1.128 .24c.732 .28 1.299 .758 1.711 1.367a3.95 3.95 0 0 1 .654 1.613a1 1 0 0 1 -.356 .917a3.8 3.8 0 0 1 -.716 .443c-.933 .455 -1.978 .588 -3.043 .179l-.032 -.015l-.205 -.086a3.6 3.6 0 0 1 -1.33 -1.069l-.143 -.197a4 4 0 0 1 -.26 -.433a6 6 0 0 1 -.927 .511q .18 .262 .337 .56a7.4 7.4 0 0 1 .66 1.747a1 1 0 0 1 -1.95 .444l-.028 -.11a6 6 0 0 0 -.449 -1.143c-.342 -.645 -.71 -.968 -1.048 -.968s-.706 .323 -1.048 .969a5.6 5.6 0 0 0 -.367 .874l-.082 .269l-.028 .11a1 1 0 0 1 -1.95 -.444a7.3 7.3 0 0 1 .66 -1.747q .158 -.298 .337 -.561a6.4 6.4 0 0 1 -.93 -.508a4 4 0 0 1 -.256 .43c-.366 .541 -.855 .98 -1.473 1.267l-.238 .1c-.994 .382 -1.97 .292 -2.855 -.091l-.188 -.087a3.8 3.8 0 0 1 -.716 -.443a1 1 0 0 1 -.356 -.917a3.95 3.95 0 0 1 .654 -1.613a3.6 3.6 0 0 1 1.71 -1.368c.38 -.146 .758 -.223 1.13 -.24a9 9 0 0 1 -.445 -1.023a4.23 4.23 0 0 1 -2.233 -.348a4 4 0 0 1 -.916 -.587l-.207 -.191a4 4 0 0 1 -.724 -.977l-.105 -.216a4.45 4.45 0 0 1 -.265 -2.806a1 1 0 0 1 .69 -.712q .119 -.036 .345 -.076c.801 -.135 1.678 -.082 2.53 .308q .283 .129 .545 .304q .048 -.235 .112 -.47a5 5 0 0 1 -.194 -.272c-.556 -.832 -.83 -1.806 -.642 -2.877l.05 -.242a3.75 3.75 0 0 1 1.027 -1.803l.169 -.159a4 4 0 0 1 1.303 -.796a1 1 0 0 1 .975 .178c.2 .168 .462 .446 .719 .83c.556 .833 .83 1.807 .642 2.878a3.77 3.77 0 0 1 -1.246 2.204c-.303 .27 -.607 .47 -.879 .61a7.5 7.5 0 0 0 -.255 1.971c0 3.502 2.285 6.272 5 6.272s5 -2.77 5 -6.276a7.6 7.6 0 0 0 -.253 -1.967a4.3 4.3 0 0 1 -.881 -.61a3.77 3.77 0 0 1 -1.246 -2.204c-.188 -1.07 .086 -2.045 .642 -2.877c.257 -.385 .52 -.663 .72 -.831a1 1 0 0 1 .974 -.178m-4.356 4.943a2 2 0 0 1 2 2v1a2 2 0 0 1 -2 2h-1v1h2a1 1 0 0 1 0 2h-2a2 2 0 0 1 -2 -2v-1a2 2 0 0 1 2 -2h1v-1h-2a1 1 0 0 1 0 -2z" />
</symbol>
	<symbol id="filled-laurel-wreath-3" xmlns="http://www.w3.org/2000/svg" width="24" height="24" viewBox="0 0 24 24" fill="currentColor"
> <path d="M16.956 2.057c.355 .124 .829 .375 1.303 .796a3.77 3.77 0 0 1 1.246 2.204c.173 .989 -.047 1.894 -.519 2.683l-.123 .194q -.097 .147 -.196 .272q .066 .234 .117 .471q .26 -.178 .545 -.307c.851 -.389 1.727 -.442 2.527 -.306q .226 .04 .346 .076a1 1 0 0 1 .689 .712l.029 .13q .015 .08 .03 .18a4.45 4.45 0 0 1 -.324 2.496a3.94 3.94 0 0 1 -1.71 1.85l-.242 .12a4.23 4.23 0 0 1 -2.234 .349a9 9 0 0 1 -.443 1.023c.37 .016 .748 .093 1.128 .24c.732 .28 1.299 .758 1.711 1.367a3.95 3.95 0 0 1 .654 1.613a1 1 0 0 1 -.356 .917a3.8 3.8 0 0 1 -.716 .443c-.933 .455 -1.978 .588 -3.043 .179l-.032 -.015l-.205 -.086a3.6 3.6 0 0 1 -1.33 -1.069l-.143 -.197a4 4 0 0 1 -.26 -.433a6 6 0 0 1 -.927 .511q .18 .262 .337 .56a7.4 7.4 0 0 1 .66 1.747a1 1 0 0 1 -1.95 .444l-.028 -.11a6 6 0 0 0 -.449 -1.143c-.342 -.645 -.71 -.968 -1.048 -.968s-.706 .323 -1.048 .969a5.6 5.6 0 0 0 -.367 .874l-.082 .269l-.028 .11a1 1 0 0 1 -1.95 -.444a7.3 7.3 0 0 1 .66 -1.747q .158 -.298 .337 -.561a6.4 6.4 0 0 1 -.93 -.508a4 4 0 0 1 -.256 .43c-.366 .541 -.855 .98 -1.473 1.267l-.238 .1c-.994 .382 -1.97 .292 -2.855 -.091l-.188 -.087a3.8 3.8 0 0 1 -.716 -.443a1 1 0 0 1 -.356 -.917a3.95 3.95 0 0 1 .654 -1.613a3.6 3.6 0 0 1 1.71 -1.368c.38 -.146 .758 -.223 1.13 -.24a9 9 0 0 1 -.445 -1.023a4.23 4.23 0 0 1 -2.233 -.348a4 4 0 0 1 -.916 -.587l-.207 -.191a4 4 0 0 1 -.724 -.977l-.105 -.216a4.45 4.45 0 0 1 -.265 -2.806a1 1 0 0 1 .69 -.712q .119 -.036 .345 -.076c.801 -.135 1.678 -.082 2.53 .308q .283 .129 .545 .304q .048 -.235 .112 -.47a5 5 0 0 1 -.194 -.272c-.556 -.832 -.83 -1.806 -.642 -2.877l.05 -.242a3.75 3.75 0 0 1 1.027 -1.803l.169 -.159a4 4 0 0 1 1.303 -.796a1 1 0 0 1 .975 .178c.2 .168 .462 .446 .719 .83c.556 .833 .83 1.807 .642 2.878a3.77 3.77 0 0 1 -1.246 2.204c-.303 .27 -.607 .47 -.879 .61a7.5 7.5 0 0 0 -.255 1.971c0 3.502 2.285 6.272 5 6.272s5 -2.77 5 -6.276a7.6 7.6 0 0 0 -.253 -1.967a4.3 4.3 0 0 1 -.881 -.61a3.77 3.77 0 0 1 -1.246 -2.204c-.188 -1.07 .086 -2.045 .642 -2.877c.257 -.385 .52 -.663 .72 -.831a1 1 0 0 1 .974 -.178m-4.956 4.943a2.5 2.5 0 0 1 2.125 3.817l-.125 .183l.019 .024c.273 .372 .445 .823 .477 1.312l.005 .164a2.5 2.5 0 0 1 -2.501 2.5h-1.5a1 1 0 0 1 0 -2h1.5a.5 .5 0 1 0 0 -1h-1l-.133 -.007c-1.199 -.129 -1.154 -1.993 .133 -1.993h1l.09 -.008a.5 .5 0 0 0 -.09 -.992h-1.5a1 1 0 1 1 0 -2z" />
</symbol>
	<symbol id="filled-microscope" xmlns="http://www.w3.org/2000/svg" width="24" height="24" viewBox="0 0 24 24" fill="currentColor"
> <path d="M15.707 4.293l3 3a1 1 0 0 1 0 1.414l-1.553 1.555a7 7 0 0 1 -.256 9.74l2.102 -.002a1 1 0 0 1 0 2h-14a1 1 0 0 1 0 -2h1v-1a1 1 0 0 1 0 -2h2a1 1 0 0 1 0 2v1h4a5 5 0 0 0 3.737 -8.323l-3.03 3.03a1 1 0 0 1 -1.414 0l-.793 -.792l-.793 .792a1 1 0 1 1 -1.414 -1.414l.792 -.793l-.792 -.793a1 1 0 0 1 0 -1.414l6 -6a1 1 0 0 1 1.414 0m2 -2l3 3a1 1 0 1 1 -1.414 1.414l-3 -3a1 1 0 1 1 1.414 -1.414" />
</symbol>
	<symbol id="filled-ufo" xmlns="http://www.w3.org/2000/svg" width="24" height="24" viewBox="0 0 24 24" fill="currentColor"
> <path d="M12 3c3.067 0 5.6 2.29 5.957 5.246c3.067 .903 5.043 2.476 5.043 4.478c0 2.3 -2.653 4.053 -6.427 4.833l1.26 1.888a1 1 0 1 1 -1.665 1.11l-1.78 -2.67c-.77 .076 -1.57 .115 -2.388 .115c-.966 0 -1.905 -.055 -2.801 -.16l-1.305 2.607a1 1 0 0 1 -1.788 -.894l1.028 -2.06c-3.618 -.807 -6.134 -2.529 -6.134 -4.768c0 -1.999 1.981 -3.58 5.044 -4.483c.36 -2.955 2.89 -5.242 5.956 -5.242m.01 10l-.127 .007a1 1 0 0 0 .117 1.993l.127 -.007a1 1 0 0 0 -.117 -1.993m-5 -1l-.127 .007a1 1 0 0 0 .117 1.993l.127 -.007a1 1 0 0 0 -.117 -1.993m10 0l-.127 .007a1 1 0 0 0 .117 1.993l.127 -.007a1 1 0 0 0 -.117 -1.993m-5.01 -7c-2.11 0 -3.835 1.618 -3.989 3.667a1 1 0 0 1 .057 .4c.104 .087 .348 .251 .768 .419c.806 .322 1.94 .514 3.164 .514s2.358 -.192 3.164 -.514c.445 -.178 .693 -.352 .789 -.435l-.003 -.051q 0 -.113 .029 -.229l.014 -.046c-.125 -2.076 -1.864 -3.725 -3.993 -3.725" />
</symbol>

	<use xlink:href="#filled-clipboard-plus" x="24" y="24" width="24" height="24" />
	<use xlink:href="#filled-clipboard-smile" x="68" y="24" width="24" height="24" />
	<use xlink:href="#filled-ease-in-control-point" x="112" y="24" width="24" height="24" />
	<use xlink:href="#filled-ease-in-out-control-points" x="156" y="24" width="24" height="24" />
	<use xlink:href="#filled-ease-out-control-point" x="200" y="24" width="24" height="24" />
	<use xlink:href="#filled-file-analytics" x="244" y="24" width="24" height="24" />
	<use xlink:href="#filled-file-code" x="24" y="68" width="24" height="24" />
	<use xlink:href="#filled-file-diff" x="68" y="68" width="24" height="24" />
	<use xlink:href="#filled-file-dots" x="112" y="68" width="24" height="24" />
	<use xlink:href="#filled-file-function" x="156" y="68" width="24" height="24" />
	<use xlink:href="#filled-file-info" x="200" y="68" width="24" height="24" />
	<use xlink:href="#filled-file-typography" x="244" y="68" width="24" height="24" />
	<use xlink:href="#filled-heart-broken" x="24" y="112" width="24" height="24" />
	<use xlink:href="#filled-laurel-wreath-1" x="68" y="112" width="24" height="24" />
	<use xlink:href="#filled-laurel-wreath-2" x="112" y="112" width="24" height="24" />
	<use xlink:href="#filled-laurel-wreath-3" x="156" y="112" width="24" height="24" />
	<use xlink:href="#filled-microscope" x="200" y="112" width="24" height="24" />
	<use xlink:href="#filled-ufo" x="244" y="112" width="24" height="24" />

</svg>