<svg xmlns="http://www.w3.org/2000/svg" xmlns:xlink="http://www.w3.org/1999/xlink" viewBox="0 0 292 160" width="292" height="160" style="color: #354052"><rect x="0" y="0" width="292" height="160" fill="#fff"></rect>
	<symbol id="arrow-badge-down" class="icon icon-tabler icon-tabler-arrow-badge-down" viewBox="0 0 24 24" stroke-width="2" stroke="currentColor" fill="none" stroke-linecap="round" stroke-linejoin="round"><path stroke="none" d="M0 0h24v24H0z" fill="none"/><path d="M17 13v-6l-5 4l-5 -4v6l5 4z" />
</symbol>
	<symbol id="arrow-badge-left" class="icon icon-tabler icon-tabler-arrow-badge-left" viewBox="0 0 24 24" stroke-width="2" stroke="currentColor" fill="none" stroke-linecap="round" stroke-linejoin="round"><path stroke="none" d="M0 0h24v24H0z" fill="none"/><path d="M11 17h6l-4 -5l4 -5h-6l-4 5z" />
</symbol>
	<symbol id="arrow-badge-right" class="icon icon-tabler icon-tabler-arrow-badge-right" viewBox="0 0 24 24" stroke-width="2" stroke="currentColor" fill="none" stroke-linecap="round" stroke-linejoin="round"><path stroke="none" d="M0 0h24v24H0z" fill="none"/><path d="M13 7h-6l4 5l-4 5h6l4 -5z" />
</symbol>
	<symbol id="arrow-badge-up" class="icon icon-tabler icon-tabler-arrow-badge-up" viewBox="0 0 24 24" stroke-width="2" stroke="currentColor" fill="none" stroke-linecap="round" stroke-linejoin="round"><path stroke="none" d="M0 0h24v24H0z" fill="none"/><path d="M17 11v6l-5 -4l-5 4v-6l5 -4z" />
</symbol>
	<symbol id="brand-couchdb" class="icon icon-tabler icon-tabler-brand-couchdb" viewBox="0 0 24 24" stroke-width="2" stroke="currentColor" fill="none" stroke-linecap="round" stroke-linejoin="round"><path stroke="none" d="M0 0h24v24H0z" fill="none"/><path d="M6 12h12v-2a2 2 0 0 1 2 -2a2 2 0 0 0 -2 -2h-12a2 2 0 0 0 -2 2a2 2 0 0 1 2 2v2z" /><path d="M6 15h12" /><path d="M6 18h12" /><path d="M21 11v7" /><path d="M3 11v7" />
</symbol>
	<symbol id="brand-denodo" class="icon icon-tabler icon-tabler-brand-denodo" viewBox="0 0 24 24" stroke-width="2" stroke="currentColor" fill="none" stroke-linecap="round" stroke-linejoin="round"><path stroke="none" d="M0 0h24v24H0z" fill="none"/><path d="M11 11h2v2h-2z" /><path d="M3.634 15.634l1.732 -1l1 1.732l-1.732 1z" /><path d="M11 19h2v2h-2z" /><path d="M18.634 14.634l1.732 1l-1 1.732l-1.732 -1z" /><path d="M17.634 7.634l1.732 -1l1 1.732l-1.732 1z" /><path d="M11 3h2v2h-2z" /><path d="M3.634 8.366l1 -1.732l1.732 1l-1 1.732z" />
</symbol>
	<symbol id="brand-elastic" class="icon icon-tabler icon-tabler-brand-elastic" viewBox="0 0 24 24" stroke-width="2" stroke="currentColor" fill="none" stroke-linecap="round" stroke-linejoin="round"><path stroke="none" d="M0 0h24v24H0z" fill="none"/><path d="M14 2a5 5 0 0 1 5 5c0 .712 -.232 1.387 -.5 2c1.894 .042 3.5 1.595 3.5 3.5c0 1.869 -1.656 3.4 -3.5 3.5c.333 .625 .5 1.125 .5 1.5a2.5 2.5 0 0 1 -2.5 2.5c-.787 0 -1.542 -.432 -2 -1c-.786 1.73 -2.476 3 -4.5 3a5 5 0 0 1 -4.583 -7.003a3.5 3.5 0 0 1 -.11 -6.992l.195 -.005a2.5 2.5 0 0 1 1.998 -4c.787 0 1.542 .432 2 1c.786 -1.73 2.476 -3 4.5 -3z" /><path d="M8.5 9l-2.999 -1" /><path d="M9.5 5l-1 4l1 2l5 2l4 -4" /><path d="M18.499 16l-2.999 -.5l-1 -2.5" /><path d="M14.5 19l1 -3.5" /><path d="M5.417 14.997l4.083 -3.997" />
</symbol>
	<symbol id="brand-google-big-query" class="icon icon-tabler icon-tabler-brand-google-big-query" viewBox="0 0 24 24" stroke-width="2" stroke="currentColor" fill="none" stroke-linecap="round" stroke-linejoin="round"><path stroke="none" d="M0 0h24v24H0z" fill="none"/><path d="M17.73 19.875a2.225 2.225 0 0 1 -1.948 1.125h-7.283a2.222 2.222 0 0 1 -1.947 -1.158l-4.272 -6.75a2.269 2.269 0 0 1 0 -2.184l4.272 -6.75a2.225 2.225 0 0 1 1.946 -1.158h7.285c.809 0 1.554 .443 1.947 1.158l3.98 6.75a2.33 2.33 0 0 1 0 2.25l-3.98 6.75v-.033z" /><circle cx="11.5" cy="11.5" r="3.5" /><path d="M14 14l2 2" />
</symbol>
	<symbol id="brand-mongodb" class="icon icon-tabler icon-tabler-brand-mongodb" viewBox="0 0 24 24" stroke-width="2" stroke="currentColor" fill="none" stroke-linecap="round" stroke-linejoin="round"><path stroke="none" d="M0 0h24v24H0z" fill="none"/><path d="M12 3v19" /><path d="M18 11.227c0 3.273 -1.812 4.77 -6 9.273c-4.188 -4.503 -6 -6 -6 -9.273c0 -4.454 3.071 -6.927 6 -9.227c2.929 2.3 6 4.773 6 9.227z" />
</symbol>
	<symbol id="brand-mysql" class="icon icon-tabler icon-tabler-brand-mysql" viewBox="0 0 24 24" stroke-width="2" stroke="currentColor" fill="none" stroke-linecap="round" stroke-linejoin="round"><path stroke="none" d="M0 0h24v24H0z" fill="none"/><path d="M13 21c-1.427 -1.026 -3.59 -3.854 -4 -6c-.486 .77 -1.501 2 -2 2c-1.499 -.888 -.574 -3.973 0 -6c-1.596 -1.433 -2.468 -2.458 -2.5 -4c-3.35 -3.44 -.444 -5.27 2.5 -3h1c8.482 .5 6.421 8.07 9 11.5c2.295 .522 3.665 2.254 5 3.5c-2.086 -.2 -2.784 -.344 -3.5 0c.478 1.64 2.123 2.2 3.5 3" /><path d="M9 7h.01" />
</symbol>
	<symbol id="brand-snowflake" class="icon icon-tabler icon-tabler-brand-snowflake" viewBox="0 0 24 24" stroke-width="2" stroke="currentColor" fill="none" stroke-linecap="round" stroke-linejoin="round"><path stroke="none" d="M0 0h24v24H0z" fill="none"/><path d="M14 21v-5.5l4.5 2.5" /><path d="M10 21v-5.5l-4.5 2.5" /><path d="M3.5 14.5l4.5 -2.5l-4.5 -2.5" /><path d="M20.5 9.5l-4.5 2.5l4.5 2.5" /><path d="M10 3v5.5l-4.5 -2.5" /><path d="M14 3v5.5l4.5 -2.5" /><path d="M12 11l1 1l-1 1l-1 -1z" />
</symbol>
	<symbol id="brand-symfony" class="icon icon-tabler icon-tabler-brand-symfony" viewBox="0 0 24 24" stroke-width="2" stroke="currentColor" fill="none" stroke-linecap="round" stroke-linejoin="round"><path stroke="none" d="M0 0h24v24H0z" fill="none"/><path d="M6 13c.458 .667 1.125 1 2 1c1.313 0 2 -.875 2 -1.5c0 -1.5 -2 -1 -2 -2c0 -.625 .516 -1.5 1.5 -1.5c2.5 0 1.563 2 5.5 2c.667 0 1 -.333 1 -1" /><path d="M9 17c-.095 .667 .238 1 1 1c1.714 0 2.714 -2 3 -6c.286 -4 1.571 -6 3 -6c.571 0 .905 .333 1 1" /><path d="M22 12c0 5.523 -4.477 10 -10 10s-10 -4.477 -10 -10s4.477 -10 10 -10a10 10 0 0 1 10 10z" />
</symbol>
	<symbol id="brand-twilio" class="icon icon-tabler icon-tabler-brand-twilio" viewBox="0 0 24 24" stroke-width="2" stroke="currentColor" fill="none" stroke-linecap="round" stroke-linejoin="round"><path stroke="none" d="M0 0h24v24H0z" fill="none"/><path d="M21 12a9 9 0 1 1 -18 0a9 9 0 0 1 18 0z" /><circle cx="9" cy="9" r="1" /><circle cx="15" cy="9" r="1" /><circle cx="15" cy="15" r="1" /><circle cx="9" cy="15" r="1" />
</symbol>
	<symbol id="chart-ppf" class="icon icon-tabler icon-tabler-chart-ppf" viewBox="0 0 24 24" stroke-width="2" stroke="currentColor" fill="none" stroke-linecap="round" stroke-linejoin="round"><path stroke="none" d="M0 0h24v24H0z" fill="none"/><path d="M19 17c0 -6.075 -5.373 -11 -12 -11" /><path d="M3 3v18h18" />
</symbol>
	<symbol id="chart-sankey" class="icon icon-tabler icon-tabler-chart-sankey" viewBox="0 0 24 24" stroke-width="2" stroke="currentColor" fill="none" stroke-linecap="round" stroke-linejoin="round"><path stroke="none" d="M0 0h24v24H0z" fill="none"/><path d="M3 3v18h18" /><path d="M3 6h18" /><path d="M3 8c10 0 8 9 18 9" />
</symbol>
	<symbol id="code-dots" class="icon icon-tabler icon-tabler-code-dots" viewBox="0 0 24 24" stroke-width="2" stroke="currentColor" fill="none" stroke-linecap="round" stroke-linejoin="round"><path stroke="none" d="M0 0h24v24H0z" fill="none"/><path d="M15 12h.01" /><path d="M12 12h.01" /><path d="M9 12h.01" /><path d="M6 19a2 2 0 0 1 -2 -2v-4l-1 -1l1 -1v-4a2 2 0 0 1 2 -2" /><path d="M18 19a2 2 0 0 0 2 -2v-4l1 -1l-1 -1v-4a2 2 0 0 0 -2 -2" />
</symbol>
	<symbol id="cube-send" class="icon icon-tabler icon-tabler-cube-send" viewBox="0 0 24 24" stroke-width="2" stroke="currentColor" fill="none" stroke-linecap="round" stroke-linejoin="round"><path stroke="none" d="M0 0h24v24H0z" fill="none"/><path d="M16 12.5l-5 -3l5 -3l5 3v5.5l-5 3z" /><path d="M11 9.5v5.5l5 3" /><path d="M16 12.545l5 -3.03" /><path d="M7 9h-5" /><path d="M7 12h-3" /><path d="M7 15h-1" />
</symbol>
	<symbol id="cube-unfolded" class="icon icon-tabler icon-tabler-cube-unfolded" viewBox="0 0 24 24" stroke-width="2" stroke="currentColor" fill="none" stroke-linecap="round" stroke-linejoin="round"><path stroke="none" d="M0 0h24v24H0z" fill="none"/><path d="M2 15h10v5h5v-5h5v-5h-10v-5h-5v5h-5z" /><path d="M7 15v-5h5v5h5v-5" />
</symbol>

	<use xlink:href="#arrow-badge-down" x="24" y="24" width="24" height="24" />
	<use xlink:href="#arrow-badge-left" x="68" y="24" width="24" height="24" />
	<use xlink:href="#arrow-badge-right" x="112" y="24" width="24" height="24" />
	<use xlink:href="#arrow-badge-up" x="156" y="24" width="24" height="24" />
	<use xlink:href="#brand-couchdb" x="200" y="24" width="24" height="24" />
	<use xlink:href="#brand-denodo" x="244" y="24" width="24" height="24" />
	<use xlink:href="#brand-elastic" x="24" y="68" width="24" height="24" />
	<use xlink:href="#brand-google-big-query" x="68" y="68" width="24" height="24" />
	<use xlink:href="#brand-mongodb" x="112" y="68" width="24" height="24" />
	<use xlink:href="#brand-mysql" x="156" y="68" width="24" height="24" />
	<use xlink:href="#brand-snowflake" x="200" y="68" width="24" height="24" />
	<use xlink:href="#brand-symfony" x="244" y="68" width="24" height="24" />
	<use xlink:href="#brand-twilio" x="24" y="112" width="24" height="24" />
	<use xlink:href="#chart-ppf" x="68" y="112" width="24" height="24" />
	<use xlink:href="#chart-sankey" x="112" y="112" width="24" height="24" />
	<use xlink:href="#code-dots" x="156" y="112" width="24" height="24" />
	<use xlink:href="#cube-send" x="200" y="112" width="24" height="24" />
	<use xlink:href="#cube-unfolded" x="244" y="112" width="24" height="24" />

</svg>