<svg xmlns="http://www.w3.org/2000/svg" xmlns:xlink="http://www.w3.org/1999/xlink" viewBox="0 0 292 160" width="292" height="160" style="color: #354052"><rect x="0" y="0" width="292" height="160" fill="#fff"></rect>
	<symbol id="brand-superhuman" class="icon icon-tabler icon-tabler-brand-superhuman" viewBox="0 0 24 24" stroke-width="2" stroke="currentColor" fill="none" stroke-linecap="round" stroke-linejoin="round"><path stroke="none" d="M0 0h24v24H0z" fill="none"/><path d="M16 12l4 3l-8 7l-8 -7l4 -3" /><path d="M12 3l-8 6l8 6l8 -6z" /><path d="M12 15h8" />
</symbol>
	<symbol id="brand-topbuzz" class="icon icon-tabler icon-tabler-brand-topbuzz" viewBox="0 0 24 24" stroke-width="2" stroke="currentColor" fill="none" stroke-linecap="round" stroke-linejoin="round"><path stroke="none" d="M0 0h24v24H0z" fill="none"/><path d="M4.417 8.655a0.524 .524 0 0 1 -.405 -.622l.986 -4.617a0.524 .524 0 0 1 .626 -.404l14.958 3.162c.285 .06 .467 .339 .406 .622l-.987 4.618a0.524 .524 0 0 1 -.625 .404l-4.345 -.92c-.198 -.04 -.315 .024 -.353 .197l-2.028 9.49a0.527 .527 0 0 1 -.625 .404l-4.642 -.982a0.527 .527 0 0 1 -.406 -.622l2.028 -9.493c.037 -.17 -.031 -.274 -.204 -.31l-4.384 -.927z" />
</symbol>
	<symbol id="brand-volkswagen" class="icon icon-tabler icon-tabler-brand-volkswagen" viewBox="0 0 24 24" stroke-width="2" stroke="currentColor" fill="none" stroke-linecap="round" stroke-linejoin="round"><path stroke="none" d="M0 0h24v24H0z" fill="none"/><path d="M12 21a9 9 0 0 0 9 -9a9 9 0 0 0 -9 -9a9 9 0 0 0 -9 9a9 9 0 0 0 9 9z" /><path d="M5 7l4.5 11l1.5 -5h2l1.5 5l4.5 -11" /><path d="M9 4l2 6h2l2 -6" />
</symbol>
	<symbol id="cane" class="icon icon-tabler icon-tabler-cane" viewBox="0 0 24 24" stroke-width="2" stroke="currentColor" fill="none" stroke-linecap="round" stroke-linejoin="round"><path stroke="none" d="M0 0h24v24H0z" fill="none"/><path d="M9 21l6.324 -11.69c.54 -.974 1.756 -4.104 -1.499 -5.762c-3.255 -1.657 -5.175 .863 -5.825 2.032" />
</symbol>
	<symbol id="cards" class="icon icon-tabler icon-tabler-cards" viewBox="0 0 24 24" stroke-width="2" stroke="currentColor" fill="none" stroke-linecap="round" stroke-linejoin="round"><path stroke="none" d="M0 0h24v24H0z" fill="none"/><path d="M3.604 7.197l7.138 -3.109a0.96 .96 0 0 1 1.27 .527l4.924 11.902a1.004 1.004 0 0 1 -.514 1.304l-7.137 3.109a0.96 .96 0 0 1 -1.271 -.527l-4.924 -11.903a1.005 1.005 0 0 1 .514 -1.304z" /><path d="M15 4h1a1 1 0 0 1 1 1v3.5" /><path d="M20 6c.264 .112 .52 .217 .768 .315a1 1 0 0 1 .53 1.311l-2.298 5.374" />
</symbol>
	<symbol id="cherry" class="icon icon-tabler icon-tabler-cherry" viewBox="0 0 24 24" stroke-width="2" stroke="currentColor" fill="none" stroke-linecap="round" stroke-linejoin="round"><path stroke="none" d="M0 0h24v24H0z" fill="none"/><circle cx="7.5" cy="16.5" r="3.5" /><circle cx="17" cy="18" r="3" /><path d="M9 13c.366 -2.006 1.866 -3.873 4.5 -5.6" /><path d="M17 15c-1.333 -2.333 -2.333 -5.333 -1 -9" /><path d="M5 6c3.667 -2.667 7.333 -2.667 11 0c-3.667 2.667 -7.333 2.667 -11 0" />
</symbol>
	<symbol id="go-game" class="icon icon-tabler icon-tabler-go-game" viewBox="0 0 24 24" stroke-width="2" stroke="currentColor" fill="none" stroke-linecap="round" stroke-linejoin="round"><path stroke="none" d="M0 0h24v24H0z" fill="none"/><circle cx="6" cy="6" r="2" /><circle cx="12" cy="12" r="2" /><circle cx="6" cy="18" r="2" /><circle cx="18" cy="18" r="2" /><path d="M3 12h7m4 0h7" /><path d="M3 6h1m4 0h13" /><path d="M3 18h1m4 0h8m4 0h1" /><path d="M6 3v1m0 4v8m0 4v1" /><path d="M12 3v7m0 4v7" /><path d="M18 3v13m0 4v1" />
</symbol>
	<symbol id="loader-3" class="icon icon-tabler icon-tabler-loader-3" viewBox="0 0 24 24" stroke-width="2" stroke="currentColor" fill="none" stroke-linecap="round" stroke-linejoin="round"><path stroke="none" d="M0 0h24v24H0z" fill="none"/><path d="M3 12a9 9 0 0 0 9 9a9 9 0 0 0 9 -9a9 9 0 0 0 -9 -9" /><path d="M17 12a5 5 0 1 0 -5 5" />
</symbol>
	<symbol id="meeple" class="icon icon-tabler icon-tabler-meeple" viewBox="0 0 24 24" stroke-width="2" stroke="currentColor" fill="none" stroke-linecap="round" stroke-linejoin="round"><path stroke="none" d="M0 0h24v24H0z" fill="none"/><path d="M9 20h-5a1 1 0 0 1 -1 -1c0 -2 3.378 -4.907 4 -6c-1 0 -4 -.5 -4 -2c0 -2 4 -3.5 6 -4c0 -1.5 .5 -4 3 -4s3 2.5 3 4c2 .5 6 2 6 4c0 1.5 -3 2 -4 2c.622 1.093 4 4 4 6a1 1 0 0 1 -1 1h-5c-1 0 -2 -4 -3 -4s-2 4 -3 4z" />
</symbol>
	<symbol id="poker-chip" class="icon icon-tabler icon-tabler-poker-chip" viewBox="0 0 24 24" stroke-width="2" stroke="currentColor" fill="none" stroke-linecap="round" stroke-linejoin="round"><path stroke="none" d="M0 0h24v24H0z" fill="none"/><circle cx="12" cy="12" r="9" /><circle cx="12" cy="12" r="5" /><path d="M12 3v4" /><path d="M12 17v4" /><path d="M3 12h4" /><path d="M17 12h4" /><path d="M18.364 5.636l-2.828 2.828" /><path d="M8.464 15.536l-2.828 2.828" /><path d="M5.636 5.636l2.828 2.828" /><path d="M15.536 15.536l2.828 2.828" />
</symbol>
	<symbol id="s-turn-down" class="icon icon-tabler icon-tabler-s-turn-down" viewBox="0 0 24 24" stroke-width="2" stroke="currentColor" fill="none" stroke-linecap="round" stroke-linejoin="round"><path stroke="none" d="M0 0h24v24H0z" fill="none"/><path d="M6.5 5.5a2 2 0 1 1 -4 0a2 2 0 0 1 4 0z" /><path d="M4.5 7.5v9.5a3.5 3.5 0 0 0 7 0v-9a3.5 3.5 0 0 1 7 0v13.5" /><path d="M15.5 18.5l3 3l3 -3" />
</symbol>
	<symbol id="s-turn-left" class="icon icon-tabler icon-tabler-s-turn-left" viewBox="0 0 24 24" stroke-width="2" stroke="currentColor" fill="none" stroke-linecap="round" stroke-linejoin="round"><path stroke="none" d="M0 0h24v24H0z" fill="none"/><path d="M19 7a2 2 0 1 1 0 -4a2 2 0 0 1 0 4z" /><path d="M17 5h-9.5a3.5 3.5 0 0 0 0 7h9a3.5 3.5 0 0 1 0 7h-13.5" /><path d="M6 16l-3 3l3 3" />
</symbol>
	<symbol id="s-turn-right" class="icon icon-tabler icon-tabler-s-turn-right" viewBox="0 0 24 24" stroke-width="2" stroke="currentColor" fill="none" stroke-linecap="round" stroke-linejoin="round"><path stroke="none" d="M0 0h24v24H0z" fill="none"/><circle cx="5" cy="5" r="2" /><path d="M7 5h9.5a3.5 3.5 0 0 1 0 7h-9a3.5 3.5 0 0 0 0 7h13.5" /><path d="M18 16l3 3l-3 3" />
</symbol>
	<symbol id="s-turn-up" class="icon icon-tabler icon-tabler-s-turn-up" viewBox="0 0 24 24" stroke-width="2" stroke="currentColor" fill="none" stroke-linecap="round" stroke-linejoin="round"><path stroke="none" d="M0 0h24v24H0z" fill="none"/><path d="M6.5 19.5a2 2 0 1 0 -4 0a2 2 0 0 0 4 0z" /><path d="M4.5 17.5v-9.5a3.5 3.5 0 0 1 7 0v9a3.5 3.5 0 0 0 7 0v-13.5" /><path d="M15.5 6.5l3 -3l3 3" />
</symbol>
	<symbol id="target-arrow" class="icon icon-tabler icon-tabler-target-arrow" viewBox="0 0 24 24" stroke-width="2" stroke="currentColor" fill="none" stroke-linecap="round" stroke-linejoin="round"><path stroke="none" d="M0 0h24v24H0z" fill="none"/><circle cx="12" cy="12" r="1" /><path d="M12 7a5 5 0 1 0 5 5" /><path d="M13.004 3.055a9 9 0 1 0 7.941 7.945" /><path d="M15 6v3h3l3 -3h-3v-3z" /><path d="M15 9l-3 3" />
</symbol>
	<symbol id="texture" class="icon icon-tabler icon-tabler-texture" viewBox="0 0 24 24" stroke-width="2" stroke="currentColor" fill="none" stroke-linecap="round" stroke-linejoin="round"><path stroke="none" d="M0 0h24v24H0z" fill="none"/><path d="M6 3l-3 3" /><path d="M21 18l-3 3" /><path d="M11 3l-8 8" /><path d="M16 3l-13 13" /><path d="M21 3l-18 18" /><path d="M21 8l-13 13" /><path d="M21 13l-8 8" />
</symbol>
	<symbol id="tic-tac" class="icon icon-tabler icon-tabler-tic-tac" viewBox="0 0 24 24" stroke-width="2" stroke="currentColor" fill="none" stroke-linecap="round" stroke-linejoin="round"><path stroke="none" d="M0 0h24v24H0z" fill="none"/><circle cx="6" cy="6" r="2" /><path d="M3 12h18" /><path d="M12 3v18" /><path d="M4 16l4 4" /><path d="M4 20l4 -4" /><path d="M16 4l4 4" /><path d="M16 8l4 -4" /><circle cx="18" cy="18" r="2" />
</symbol>
	<symbol id="whirl" class="icon icon-tabler icon-tabler-whirl" viewBox="0 0 24 24" stroke-width="2" stroke="currentColor" fill="none" stroke-linecap="round" stroke-linejoin="round"><path stroke="none" d="M0 0h24v24H0z" fill="none"/><path d="M14 12a2 2 0 1 0 -4 0a2 2 0 0 0 4 0z" /><path d="M12 21c-3.314 0 -6 -2.462 -6 -5.5s2.686 -5.5 6 -5.5" /><path d="M21 12c0 3.314 -2.462 6 -5.5 6s-5.5 -2.686 -5.5 -6" /><path d="M12 14c3.314 0 6 -2.462 6 -5.5s-2.686 -5.5 -6 -5.5" /><path d="M14 12c0 -3.314 -2.462 -6 -5.5 -6s-5.5 2.686 -5.5 6" />
</symbol>

	<use xlink:href="#brand-superhuman" x="24" y="24" width="24" height="24" />
	<use xlink:href="#brand-topbuzz" x="68" y="24" width="24" height="24" />
	<use xlink:href="#brand-volkswagen" x="112" y="24" width="24" height="24" />
	<use xlink:href="#cane" x="156" y="24" width="24" height="24" />
	<use xlink:href="#cards" x="200" y="24" width="24" height="24" />
	<use xlink:href="#cherry" x="244" y="24" width="24" height="24" />
	<use xlink:href="#go-game" x="24" y="68" width="24" height="24" />
	<use xlink:href="#loader-3" x="68" y="68" width="24" height="24" />
	<use xlink:href="#meeple" x="112" y="68" width="24" height="24" />
	<use xlink:href="#poker-chip" x="156" y="68" width="24" height="24" />
	<use xlink:href="#s-turn-down" x="200" y="68" width="24" height="24" />
	<use xlink:href="#s-turn-left" x="244" y="68" width="24" height="24" />
	<use xlink:href="#s-turn-right" x="24" y="112" width="24" height="24" />
	<use xlink:href="#s-turn-up" x="68" y="112" width="24" height="24" />
	<use xlink:href="#target-arrow" x="112" y="112" width="24" height="24" />
	<use xlink:href="#texture" x="156" y="112" width="24" height="24" />
	<use xlink:href="#tic-tac" x="200" y="112" width="24" height="24" />
	<use xlink:href="#whirl" x="244" y="112" width="24" height="24" />

</svg>