<svg xmlns="http://www.w3.org/2000/svg" xmlns:xlink="http://www.w3.org/1999/xlink" viewBox="0 0 292 160" width="292" height="160" style="color: #354052"><rect x="0" y="0" width="292" height="160" fill="#fff"></rect>
	<symbol id="arrow-down-from-arc" class="icon icon-tabler icon-tabler-arrow-down-from-arc" viewBox="0 0 24 24" stroke-width="2" stroke="currentColor" fill="none" stroke-linecap="round" stroke-linejoin="round"><path stroke="none" d="M0 0h24v24H0z" fill="none"/><path d="M12 15v-12" /><path d="M16 7l-4 -4l-4 4" /><path d="M3 12a9 9 0 0 0 18 0" />
</symbol>
	<symbol id="arrow-down-to-arc" class="icon icon-tabler icon-tabler-arrow-down-to-arc" viewBox="0 0 24 24" stroke-width="2" stroke="currentColor" fill="none" stroke-linecap="round" stroke-linejoin="round"><path stroke="none" d="M0 0h24v24H0z" fill="none"/><path d="M12 3v12" /><path d="M16 11l-4 4l-4 -4" /><path d="M3 12a9 9 0 0 0 18 0" />
</symbol>
	<symbol id="arrow-left-from-arc" class="icon icon-tabler icon-tabler-arrow-left-from-arc" viewBox="0 0 24 24" stroke-width="2" stroke="currentColor" fill="none" stroke-linecap="round" stroke-linejoin="round"><path stroke="none" d="M0 0h24v24H0z" fill="none"/><path d="M9 12h12" /><path d="M17 16l4 -4l-4 -4" /><path d="M12 3a9 9 0 1 0 0 18" />
</symbol>
	<symbol id="arrow-left-to-arc" class="icon icon-tabler icon-tabler-arrow-left-to-arc" viewBox="0 0 24 24" stroke-width="2" stroke="currentColor" fill="none" stroke-linecap="round" stroke-linejoin="round"><path stroke="none" d="M0 0h24v24H0z" fill="none"/><path d="M21 12h-12" /><path d="M13 16l-4 -4l4 -4" /><path d="M12 3a9 9 0 1 0 0 18" />
</symbol>
	<symbol id="arrow-right-from-arc" class="icon icon-tabler icon-tabler-arrow-right-from-arc" viewBox="0 0 24 24" stroke-width="2" stroke="currentColor" fill="none" stroke-linecap="round" stroke-linejoin="round"><path stroke="none" d="M0 0h24v24H0z" fill="none"/><path d="M15 12h-12" /><path d="M7 8l-4 4l4 4" /><path d="M12 21a9 9 0 0 0 0 -18" />
</symbol>
	<symbol id="arrow-right-to-arc" class="icon icon-tabler icon-tabler-arrow-right-to-arc" viewBox="0 0 24 24" stroke-width="2" stroke="currentColor" fill="none" stroke-linecap="round" stroke-linejoin="round"><path stroke="none" d="M0 0h24v24H0z" fill="none"/><path d="M3 12h12" /><path d="M11 8l4 4l-4 4" /><path d="M12 21a9 9 0 0 0 0 -18" />
</symbol>
	<symbol id="arrow-up-from-arc" class="icon icon-tabler icon-tabler-arrow-up-from-arc" viewBox="0 0 24 24" stroke-width="2" stroke="currentColor" fill="none" stroke-linecap="round" stroke-linejoin="round"><path stroke="none" d="M0 0h24v24H0z" fill="none"/><path d="M12 9v12" /><path d="M8 17l4 4l4 -4" /><path d="M21 12a9 9 0 0 0 -18 0" />
</symbol>
	<symbol id="arrow-up-to-arc" class="icon icon-tabler icon-tabler-arrow-up-to-arc" viewBox="0 0 24 24" stroke-width="2" stroke="currentColor" fill="none" stroke-linecap="round" stroke-linejoin="round"><path stroke="none" d="M0 0h24v24H0z" fill="none"/><path d="M12 21v-12" /><path d="M8 13l4 -4l4 4" /><path d="M21 12a9 9 0 0 0 -18 0" />
</symbol>
	<symbol id="avocado" class="icon icon-tabler icon-tabler-avocado" viewBox="0 0 24 24" stroke-width="2" stroke="currentColor" fill="none" stroke-linecap="round" stroke-linejoin="round"><path stroke="none" d="M0 0h24v24H0z" fill="none"/><path d="M17.8 14.04a3.905 3.905 0 0 1 1.337 -2.075c1.195 -.985 1.816 -2.285 1.863 -3.902c-.047 -1.43 -.54 -2.626 -1.477 -3.586c-.96 -.938 -2.156 -1.43 -3.585 -1.477c-1.618 .047 -2.918 .668 -3.903 1.863c-.562 .68 -1.254 1.125 -2.074 1.336c-.938 .188 -1.828 .48 -2.672 .88c-.844 .398 -1.559 .878 -2.144 1.44c-1.43 1.501 -2.145 3.224 -2.145 5.169c0 1.946 .715 3.668 2.145 5.168c1.5 1.429 3.222 2.144 5.168 2.144c1.945 0 3.667 -.715 5.167 -2.145c.563 -.585 1.055 -1.3 1.477 -2.144c.398 -.844 .68 -1.723 .844 -2.637v-.035z" /><path d="M10.87 10.036c-.942 .112 -1.794 .538 -2.556 1.278c-.74 .762 -1.166 1.614 -1.278 2.556c-.135 .92 .112 1.704 .74 2.354c.65 .628 1.435 .875 2.354 .74c.942 -.112 1.794 -.538 2.556 -1.278c.74 -.762 1.166 -1.614 1.278 -2.556c.135 -.92 -.112 -1.704 -.74 -2.354c-.65 -.628 -1.435 -.875 -2.354 -.74z" />
</symbol>
	<symbol id="badge-ad-off" class="icon icon-tabler icon-tabler-badge-ad-off" viewBox="0 0 24 24" stroke-width="2" stroke="currentColor" fill="none" stroke-linecap="round" stroke-linejoin="round"><path stroke="none" d="M0 0h24v24H0z" fill="none"/><path d="M9 5h10a2 2 0 0 1 2 2v10m-2 2h-14a2 2 0 0 1 -2 -2v-10a2 2 0 0 1 2 -2" /><path d="M14 14v1h1m2 -2v-2a2 2 0 0 0 -2 -2h-1v1" /><path d="M7 15v-4.5a1.5 1.5 0 0 1 2.077 -1.385m.788 .762c.087 .19 .135 .4 .135 .623v4.5" /><path d="M7 13h3" /><path d="M3 3l18 18" />
</symbol>
	<symbol id="bowl-chopsticks" class="icon icon-tabler icon-tabler-bowl-chopsticks" viewBox="0 0 24 24" stroke-width="2" stroke="currentColor" fill="none" stroke-linecap="round" stroke-linejoin="round"><path stroke="none" d="M0 0h24v24H0z" fill="none"/><path d="M4 11h16a1 1 0 0 1 1 1v.5c0 1.5 -2.517 5.573 -4 6.5v1a1 1 0 0 1 -1 1h-8a1 1 0 0 1 -1 -1v-1c-1.687 -1.054 -4 -5 -4 -6.5v-.5a1 1 0 0 1 1 -1z" /><path d="M19 7l-14 1" /><path d="M19 2l-14 3" />
</symbol>
	<symbol id="bowl-spoon" class="icon icon-tabler icon-tabler-bowl-spoon" viewBox="0 0 24 24" stroke-width="2" stroke="currentColor" fill="none" stroke-linecap="round" stroke-linejoin="round"><path stroke="none" d="M0 0h24v24H0z" fill="none"/><path d="M4 11h16a1 1 0 0 1 1 1v.5c0 1.5 -2.517 5.573 -4 6.5v1a1 1 0 0 1 -1 1h-8a1 1 0 0 1 -1 -1v-1c-1.687 -1.054 -4 -5 -4 -6.5v-.5a1 1 0 0 1 1 -1z" /><path d="M8 7c1.657 0 3 -.895 3 -2s-1.343 -2 -3 -2s-3 .895 -3 2s1.343 2 3 2" /><path d="M11 5h9" />
</symbol>
	<symbol id="chart-scatter-3d" class="icon icon-tabler icon-tabler-chart-scatter-3d" viewBox="0 0 24 24" stroke-width="2" stroke="currentColor" fill="none" stroke-linecap="round" stroke-linejoin="round"><path stroke="none" d="M0 0h24v24H0z" fill="none"/><path d="M3 20l9 -7" /><path d="M12 3v10l9 7" /><path d="M17 12v.015" /><path d="M17 4.015v.015" /><path d="M21 8.015v.015" /><path d="M12 19.015v.015" /><path d="M3 12.015v.015" /><path d="M7 8.015v.015" /><path d="M3 4.015v.015" />
</symbol>
	<symbol id="chart-scatter" class="icon icon-tabler icon-tabler-chart-scatter" viewBox="0 0 24 24" stroke-width="2" stroke="currentColor" fill="none" stroke-linecap="round" stroke-linejoin="round"><path stroke="none" d="M0 0h24v24H0z" fill="none"/><path d="M3 3v18h18" /><path d="M8 15.015v.015" /><path d="M16 16.015v.015" /><path d="M8 7.03v.015" /><path d="M12 11.03v.015" /><path d="M19 11.03v.015" />
</symbol>
	<symbol id="sort-ascending-shapes" class="icon icon-tabler icon-tabler-sort-ascending-shapes" viewBox="0 0 24 24" stroke-width="2" stroke="currentColor" fill="none" stroke-linecap="round" stroke-linejoin="round"><path stroke="none" d="M0 0h24v24H0z" fill="none"/><path d="M4 15l3 3l3 -3" /><path d="M7 6v12" /><path d="M14 5a1 1 0 0 1 1 -1h4a1 1 0 0 1 1 1v4a1 1 0 0 1 -1 1h-4a1 1 0 0 1 -1 -1v-4z" /><path d="M17 14l-3.5 6h7z" />
</symbol>
	<symbol id="sort-ascending-small-big" class="icon icon-tabler icon-tabler-sort-ascending-small-big" viewBox="0 0 24 24" stroke-width="2" stroke="currentColor" fill="none" stroke-linecap="round" stroke-linejoin="round"><path stroke="none" d="M0 0h24v24H0z" fill="none"/><path d="M4 15l3 3l3 -3" /><path d="M7 6v12" /><path d="M14 5.667c0 -.369 .298 -.667 .667 -.667h2.666c.369 0 .667 .298 .667 .667v2.666a.667 .667 0 0 1 -.667 .667h-2.666a.667 .667 0 0 1 -.667 -.667v-2.666z" /><path d="M14 13.167c0 -.645 .522 -1.167 1.167 -1.167h4.666c.645 0 1.167 .522 1.167 1.167v4.666c0 .645 -.522 1.167 -1.167 1.167h-4.666a1.167 1.167 0 0 1 -1.167 -1.167v-4.666z" />
</symbol>
	<symbol id="sort-deacending-small-big" class="icon icon-tabler icon-tabler-sort-deacending-small-big" viewBox="0 0 24 24" stroke-width="2" stroke="currentColor" fill="none" stroke-linecap="round" stroke-linejoin="round"><path stroke="none" d="M0 0h24v24H0z" fill="none"/><path d="M10 15l-3 3l-3 -3" /><path d="M7 6v12" /><path d="M14 18.333c0 .369 .298 .667 .667 .667h2.666a.667 .667 0 0 0 .667 -.667v-2.666a.667 .667 0 0 0 -.667 -.667h-2.666a.667 .667 0 0 0 -.667 .667v2.666z" /><path d="M14 10.833c0 .645 .522 1.167 1.167 1.167h4.666c.645 0 1.167 -.522 1.167 -1.167v-4.666c0 -.645 -.522 -1.167 -1.167 -1.167h-4.666c-.645 0 -1.167 .522 -1.167 1.167v4.666z" />
</symbol>
	<symbol id="sort-descending-shapes" class="icon icon-tabler icon-tabler-sort-descending-shapes" viewBox="0 0 24 24" stroke-width="2" stroke="currentColor" fill="none" stroke-linecap="round" stroke-linejoin="round"><path stroke="none" d="M0 0h24v24H0z" fill="none"/><path d="M4 15l3 3l3 -3" /><path d="M7 6v12" /><path d="M14 15a1 1 0 0 1 1 -1h4a1 1 0 0 1 1 1v4a1 1 0 0 1 -1 1h-4a1 1 0 0 1 -1 -1v-4z" /><path d="M17 4l-3.5 6h7z" />
</symbol>

	<use xlink:href="#arrow-down-from-arc" x="24" y="24" width="24" height="24" />
	<use xlink:href="#arrow-down-to-arc" x="68" y="24" width="24" height="24" />
	<use xlink:href="#arrow-left-from-arc" x="112" y="24" width="24" height="24" />
	<use xlink:href="#arrow-left-to-arc" x="156" y="24" width="24" height="24" />
	<use xlink:href="#arrow-right-from-arc" x="200" y="24" width="24" height="24" />
	<use xlink:href="#arrow-right-to-arc" x="244" y="24" width="24" height="24" />
	<use xlink:href="#arrow-up-from-arc" x="24" y="68" width="24" height="24" />
	<use xlink:href="#arrow-up-to-arc" x="68" y="68" width="24" height="24" />
	<use xlink:href="#avocado" x="112" y="68" width="24" height="24" />
	<use xlink:href="#badge-ad-off" x="156" y="68" width="24" height="24" />
	<use xlink:href="#bowl-chopsticks" x="200" y="68" width="24" height="24" />
	<use xlink:href="#bowl-spoon" x="244" y="68" width="24" height="24" />
	<use xlink:href="#chart-scatter-3d" x="24" y="112" width="24" height="24" />
	<use xlink:href="#chart-scatter" x="68" y="112" width="24" height="24" />
	<use xlink:href="#sort-ascending-shapes" x="112" y="112" width="24" height="24" />
	<use xlink:href="#sort-ascending-small-big" x="156" y="112" width="24" height="24" />
	<use xlink:href="#sort-deacending-small-big" x="200" y="112" width="24" height="24" />
	<use xlink:href="#sort-descending-shapes" x="244" y="112" width="24" height="24" />

</svg>