<svg xmlns="http://www.w3.org/2000/svg" xmlns:xlink="http://www.w3.org/1999/xlink" viewBox="0 0 292 160" width="292" height="160" style="color: #354052"><rect x="0" y="0" width="292" height="160" fill="#fff"></rect>
	<symbol id="brand-comedy-central" class="icon icon-tabler icon-tabler-brand-comedy-central" viewBox="0 0 24 24" stroke-width="2" stroke="currentColor" fill="none" stroke-linecap="round" stroke-linejoin="round"><path stroke="none" d="M0 0h24v24H0z" fill="none"/><path d="M5.343 17.657a8 8 0 1 0 0 -11.314" /><path d="M13.828 9.172a4 4 0 1 0 0 5.656" />
</symbol>
	<symbol id="brand-finder" class="icon icon-tabler icon-tabler-brand-finder" viewBox="0 0 24 24" stroke-width="2" stroke="currentColor" fill="none" stroke-linecap="round" stroke-linejoin="round"><path stroke="none" d="M0 0h24v24H0z" fill="none"/><rect x="3" y="4" width="18" height="16" rx="1" /><path d="M7 8v1" /><path d="M17 8v1" /><path d="M12.5 4c-.654 1.486 -1.26 3.443 -1.5 9h2.5c-.19 2.867 .094 5.024 .5 7" /><path d="M7 15.5c3.667 2 6.333 2 10 0" />
</symbol>
	<symbol id="brand-monday" class="icon icon-tabler icon-tabler-brand-monday" viewBox="0 0 24 24" stroke-width="2" stroke="currentColor" fill="none" stroke-linecap="round" stroke-linejoin="round"><path stroke="none" d="M0 0h24v24H0z" fill="none"/><circle fill="#D8D8D8" cx="19.5" cy="15.5" r="1.5" /><path d="M9.5 7a1.5 1.5 0 0 1 1.339 2.177l-4.034 7.074c-.264 .447 -.75 .749 -1.305 .749a1.5 1.5 0 0 1 -1.271 -2.297l3.906 -6.827a1.5 1.5 0 0 1 1.365 -.876z" /><path d="M16.5 7a1.5 1.5 0 0 1 1.339 2.177l-4.034 7.074c-.264 .447 -.75 .749 -1.305 .749a1.5 1.5 0 0 1 -1.271 -2.297l3.906 -6.827a1.5 1.5 0 0 1 1.365 -.876z" />
</symbol>
	<symbol id="brand-xing" class="icon icon-tabler icon-tabler-brand-xing" viewBox="0 0 24 24" stroke-width="2" stroke="currentColor" fill="none" stroke-linecap="round" stroke-linejoin="round"><path stroke="none" d="M0 0h24v24H0z" fill="none"/><path d="M16 21l-4 -7l6.5 -11" /><path d="M7 7l2 3.5l-3 4.5" />
</symbol>
	<symbol id="cactus" class="icon icon-tabler icon-tabler-cactus" viewBox="0 0 24 24" stroke-width="2" stroke="currentColor" fill="none" stroke-linecap="round" stroke-linejoin="round"><path stroke="none" d="M0 0h24v24H0z" fill="none"/><path d="M6 9v1a3 3 0 0 0 3 3h1" /><path d="M18 8v5a3 3 0 0 1 -3 3h-1" /><path d="M10 21v-16a2 2 0 1 1 4 0v16" /><path d="M7 21h10" />
</symbol>
	<symbol id="carrot" class="icon icon-tabler icon-tabler-carrot" viewBox="0 0 24 24" stroke-width="2" stroke="currentColor" fill="none" stroke-linecap="round" stroke-linejoin="round"><path stroke="none" d="M0 0h24v24H0z" fill="none"/><path d="M3 21s9.834 -3.489 12.684 -6.34a4.487 4.487 0 0 0 .005 -6.344a4.483 4.483 0 0 0 -6.342 -.005c-2.86 2.861 -6.347 12.689 -6.347 12.689z" /><path d="M9 13l-1.5 -1.5" /><path d="M16 14l-2 -2" /><path d="M22 8s-1.14 -2 -3 -2c-1.406 0 -3 2 -3 2s1.14 2 3 2s3 -2 3 -2z" /><path d="M16 2s-2 1.14 -2 3s2 3 2 3s2 -1.577 2 -3c0 -1.86 -2 -3 -2 -3z" />
</symbol>
	<symbol id="chef-hat" class="icon icon-tabler icon-tabler-chef-hat" viewBox="0 0 24 24" stroke-width="2" stroke="currentColor" fill="none" stroke-linecap="round" stroke-linejoin="round"><path stroke="none" d="M0 0h24v24H0z" fill="none"/><path d="M12 3c1.918 0 3.52 1.35 3.91 3.151a4 4 0 0 1 2.09 7.723l0 7.126h-12v-7.126a4.002 4.002 0 1 1 2.092 -7.723a3.999 3.999 0 0 1 3.908 -3.151z" /><path d="M6.161 17.009l11.839 -.009" />
</symbol>
	<symbol id="clover-2" class="icon icon-tabler icon-tabler-clover-2" viewBox="0 0 24 24" stroke-width="2" stroke="currentColor" fill="none" stroke-linecap="round" stroke-linejoin="round"><path stroke="none" d="M0 0h24v24H0z" fill="none"/><path d="M11 11l-3.397 -3.44a2.104 2.104 0 0 1 0 -2.95a2.04 2.04 0 0 1 2.912 0l.485 .39l.485 -.39a2.04 2.04 0 0 1 2.912 0a2.104 2.104 0 0 1 0 2.95l-3.397 3.44z" /><path d="M11 11l-3.397 3.44a2.104 2.104 0 0 0 0 2.95a2.04 2.04 0 0 0 2.912 0l.485 -.39l.485 .39a2.04 2.04 0 0 0 2.912 0a2.104 2.104 0 0 0 0 -2.95l-3.397 -3.44z" /><path d="M14.44 7.603a2.104 2.104 0 0 1 2.95 0a2.04 2.04 0 0 1 0 2.912l-.39 .485l.39 .485a2.04 2.04 0 0 1 0 2.912a2.104 2.104 0 0 1 -2.95 0" /><path d="M7.56 7.603a2.104 2.104 0 0 0 -2.95 0a2.04 2.04 0 0 0 0 2.912l.39 .485l-.39 .485a2.04 2.04 0 0 0 0 2.912a2.104 2.104 0 0 0 2.95 0" /><path d="M15 15l6 6" />
</symbol>
	<symbol id="creative-commons-by" class="icon icon-tabler icon-tabler-creative-commons-by" viewBox="0 0 24 24" stroke-width="2" stroke="currentColor" fill="none" stroke-linecap="round" stroke-linejoin="round"><path stroke="none" d="M0 0h24v24H0z" fill="none"/><circle cx="12" cy="12" r="9" /><circle cx="12" cy="7" r="1" /><path d="M9 13v-1a1 1 0 0 1 1 -1h4a1 1 0 0 1 1 1v1a1 1 0 0 1 -1 1h-.5l-.5 4h-2l-.5 -4h-.5a1 1 0 0 1 -1 -1z" />
</symbol>
	<symbol id="creative-commons-nc" class="icon icon-tabler icon-tabler-creative-commons-nc" viewBox="0 0 24 24" stroke-width="2" stroke="currentColor" fill="none" stroke-linecap="round" stroke-linejoin="round"><path stroke="none" d="M0 0h24v24H0z" fill="none"/><circle cx="12" cy="12" r="9" /><path d="M15 9h-4.5a1.5 1.5 0 0 0 0 3h3a1.5 1.5 0 0 1 0 3h-4.5" /><path d="M12 7v2" /><path d="M12 15v2" /><path d="M6 6l3 3" /><path d="M15 15l3 3" />
</symbol>
	<symbol id="creative-commons-nd" class="icon icon-tabler icon-tabler-creative-commons-nd" viewBox="0 0 24 24" stroke-width="2" stroke="currentColor" fill="none" stroke-linecap="round" stroke-linejoin="round"><path stroke="none" d="M0 0h24v24H0z" fill="none"/><circle cx="12" cy="12" r="9" /><path d="M9 10h6" /><path d="M9 14h6" />
</symbol>
	<symbol id="creative-commons-sa" class="icon icon-tabler icon-tabler-creative-commons-sa" viewBox="0 0 24 24" stroke-width="2" stroke="currentColor" fill="none" stroke-linecap="round" stroke-linejoin="round"><path stroke="none" d="M0 0h24v24H0z" fill="none"/><circle cx="12" cy="12" r="9" /><path d="M12 16a4 4 0 1 0 -4 -4v1" /><path d="M6 12l2 2l2 -2" />
</symbol>
	<symbol id="creative-commons-zero" class="icon icon-tabler icon-tabler-creative-commons-zero" viewBox="0 0 24 24" stroke-width="2" stroke="currentColor" fill="none" stroke-linecap="round" stroke-linejoin="round"><path stroke="none" d="M0 0h24v24H0z" fill="none"/><circle cx="12" cy="12" r="9" /><ellipse cx="12" cy="12" rx="3" ry="4" /><path d="M14 9l-4 6" />
</symbol>
	<symbol id="device-mobile-charging" class="icon icon-tabler icon-tabler-device-mobile-charging" viewBox="0 0 24 24" stroke-width="2" stroke="currentColor" fill="none" stroke-linecap="round" stroke-linejoin="round"><path stroke="none" d="M0 0h24v24H0z" fill="none"/><rect x="6" y="3" width="12" height="18" rx="2" /><path d="M11 4h2" /><path d="M12 9.5l-1 2.5h2l-1 2.5" />
</symbol>
	<symbol id="function" class="icon icon-tabler icon-tabler-function" viewBox="0 0 24 24" stroke-width="2" stroke="currentColor" fill="none" stroke-linecap="round" stroke-linejoin="round"><path stroke="none" d="M0 0h24v24H0z" fill="none"/><rect x="4" y="4" width="16" height="16" rx="2.667" /><path d="M9 15.5v.25c0 .69 .56 1.25 1.25 1.25c.71 0 1.304 -.538 1.374 -1.244l.752 -7.512a1.381 1.381 0 0 1 1.374 -1.244c.69 0 1.25 .56 1.25 1.25v.25" /><path d="M9 12h6" />
</symbol>
	<symbol id="loader-2" class="icon icon-tabler icon-tabler-loader-2" viewBox="0 0 24 24" stroke-width="2" stroke="currentColor" fill="none" stroke-linecap="round" stroke-linejoin="round"><path stroke="none" d="M0 0h24v24H0z" fill="none"/><path d="M12 3a9 9 0 1 0 9 9" />
</symbol>
	<symbol id="spy" class="icon icon-tabler icon-tabler-spy" viewBox="0 0 24 24" stroke-width="2" stroke="currentColor" fill="none" stroke-linecap="round" stroke-linejoin="round"><path stroke="none" d="M0 0h24v24H0z" fill="none"/><path d="M3 11h18" /><path d="M5 11v-4a3 3 0 0 1 3 -3h8a3 3 0 0 1 3 3v4" /><circle cx="7" cy="17" r="3" /><circle cx="17" cy="17" r="3" /><path d="M10 17h4" />
</symbol>
	<symbol id="zzz" class="icon icon-tabler icon-tabler-zzz" viewBox="0 0 24 24" stroke-width="2" stroke="currentColor" fill="none" stroke-linecap="round" stroke-linejoin="round"><path stroke="none" d="M0 0h24v24H0z" fill="none"/><path d="M4 12h6l-6 8h6" /><path d="M14 4h6l-6 8h6" />
</symbol>

	<use xlink:href="#brand-comedy-central" x="24" y="24" width="24" height="24" />
	<use xlink:href="#brand-finder" x="68" y="24" width="24" height="24" />
	<use xlink:href="#brand-monday" x="112" y="24" width="24" height="24" />
	<use xlink:href="#brand-xing" x="156" y="24" width="24" height="24" />
	<use xlink:href="#cactus" x="200" y="24" width="24" height="24" />
	<use xlink:href="#carrot" x="244" y="24" width="24" height="24" />
	<use xlink:href="#chef-hat" x="24" y="68" width="24" height="24" />
	<use xlink:href="#clover-2" x="68" y="68" width="24" height="24" />
	<use xlink:href="#creative-commons-by" x="112" y="68" width="24" height="24" />
	<use xlink:href="#creative-commons-nc" x="156" y="68" width="24" height="24" />
	<use xlink:href="#creative-commons-nd" x="200" y="68" width="24" height="24" />
	<use xlink:href="#creative-commons-sa" x="244" y="68" width="24" height="24" />
	<use xlink:href="#creative-commons-zero" x="24" y="112" width="24" height="24" />
	<use xlink:href="#device-mobile-charging" x="68" y="112" width="24" height="24" />
	<use xlink:href="#function" x="112" y="112" width="24" height="24" />
	<use xlink:href="#loader-2" x="156" y="112" width="24" height="24" />
	<use xlink:href="#spy" x="200" y="112" width="24" height="24" />
	<use xlink:href="#zzz" x="244" y="112" width="24" height="24" />

</svg>