<svg xmlns="http://www.w3.org/2000/svg" xmlns:xlink="http://www.w3.org/1999/xlink" viewBox="0 0 332 72" width="332" height="72" style="color: #354052"><rect x="0" y="0" width="332" height="72" fill="#fff"></rect>
	<symbol id="checkbox" class="icon icon-tabler icon-tabler-checkbox" viewBox="0 0 24 24" stroke-width="2" stroke="currentColor" fill="none" stroke-linecap="round" stroke-linejoin="round"><path stroke="none" d="M0 0h24v24H0z"/><polyline points="9 11 12 14 20 6" /><path d="M20 12v6a2 2 0 0 1 -2 2h-12a2 2 0 0 1 -2 -2v-12a2 2 0 0 1 2 -2h9" />
</symbol>
	<symbol id="login" class="icon icon-tabler icon-tabler-login" viewBox="0 0 24 24" stroke-width="2" stroke="currentColor" fill="none" stroke-linecap="round" stroke-linejoin="round"><path stroke="none" d="M0 0h24v24H0z"/><path d="M14 8v-2a2 2 0 0 0 -2 -2h-7a2 2 0 0 0 -2 2v12a2 2 0 0 0 2 2h7a2 2 0 0 0 2 -2v-2" /><path d="M20 12h-13l3 -3m0 6l-3 -3" />
</symbol>
	<symbol id="logout" class="icon icon-tabler icon-tabler-logout" viewBox="0 0 24 24" stroke-width="2" stroke="currentColor" fill="none" stroke-linecap="round" stroke-linejoin="round"><path stroke="none" d="M0 0h24v24H0z"/><path d="M14 8v-2a2 2 0 0 0 -2 -2h-7a2 2 0 0 0 -2 2v12a2 2 0 0 0 2 2h7a2 2 0 0 0 2 -2v-2" /><path d="M7 12h14l-3 -3m0 6l3 -3" />
</symbol>

	<use xlink:href="#checkbox" x="24" y="24" width="24" height="24" />
	<use xlink:href="#login" x="76" y="24" width="24" height="24" />
	<use xlink:href="#logout" x="128" y="24" width="24" height="24" />

</svg>