<svg xmlns="http://www.w3.org/2000/svg" xmlns:xlink="http://www.w3.org/1999/xlink" viewBox="0 0 292 160" width="292" height="160" style="color: #354052"><rect x="0" y="0" width="292" height="160" fill="#fff"></rect>
	<symbol id="outline-alarm-smoke" xmlns="http://www.w3.org/2000/svg" width="24" height="24" viewBox="0 0 24 24" fill="none" stroke="currentColor" stroke-width="2" stroke-linecap="round" stroke-linejoin="round"
> <path d="M18 8l-.8 3a1.25 1.25 0 0 1 -1.2 1h-8a1.25 1.25 0 0 1 -1.2 -1l-.8 -3" /> <path d="M3 4m0 1a1 1 0 0 1 1 -1h16a1 1 0 0 1 1 1v2a1 1 0 0 1 -1 1h-16a1 1 0 0 1 -1 -1z" /> <path d="M12 16c.643 .288 1.017 .756 1 1.25c.017 .494 -.357 .962 -1 1.25s-1.017 .756 -1 1.25c-.017 .494 .357 .962 1 1.25" /> <path d="M7 16c.643 .288 1.017 .756 1 1.25c.017 .494 -.357 .962 -1 1.25s-1.017 .756 -1 1.25c-.017 .494 .357 .962 1 1.25" /> <path d="M17 16c.643 .288 1.017 .756 1 1.25c.017 .494 -.357 .962 -1 1.25s-1.017 .756 -1 1.25c-.017 .494 .357 .962 1 1.25" />
</symbol>
	<symbol id="outline-badge-2k" xmlns="http://www.w3.org/2000/svg" width="24" height="24" viewBox="0 0 24 24" fill="none" stroke="currentColor" stroke-width="2" stroke-linecap="round" stroke-linejoin="round"
> <path d="M3 7a2 2 0 0 1 2 -2h14a2 2 0 0 1 2 2v10a2 2 0 0 1 -2 2h-14a2 2 0 0 1 -2 -2z" /> <path d="M14 9v6" /> <path d="M17 9l-2 3l2 3" /> <path d="M15 12h-1" /> <path d="M7 9h2a1 1 0 0 1 1 1v1a1 1 0 0 1 -1 1h-1a1 1 0 0 0 -1 1v1a1 1 0 0 0 1 1h2" />
</symbol>
	<symbol id="outline-badge-3k" xmlns="http://www.w3.org/2000/svg" width="24" height="24" viewBox="0 0 24 24" fill="none" stroke="currentColor" stroke-width="2" stroke-linecap="round" stroke-linejoin="round"
> <path d="M3 7a2 2 0 0 1 2 -2h14a2 2 0 0 1 2 2v10a2 2 0 0 1 -2 2h-14a2 2 0 0 1 -2 -2z" /> <path d="M14 9v6" /> <path d="M17 9l-2 3l2 3" /> <path d="M15 12h-1" /> <path d="M7 9.5a.5 .5 0 0 1 .5 -.5h1a1.5 1.5 0 0 1 0 3h-.5h.5a1.5 1.5 0 0 1 0 3h-1a.5 .5 0 0 1 -.5 -.5" />
</symbol>
	<symbol id="outline-badge-5k" xmlns="http://www.w3.org/2000/svg" width="24" height="24" viewBox="0 0 24 24" fill="none" stroke="currentColor" stroke-width="2" stroke-linecap="round" stroke-linejoin="round"
> <path d="M3 7a2 2 0 0 1 2 -2h14a2 2 0 0 1 2 2v10a2 2 0 0 1 -2 2h-14a2 2 0 0 1 -2 -2z" /> <path d="M14 9v6" /> <path d="M17 9l-2 3l2 3" /> <path d="M15 12h-1" /> <path d="M7 15h2a1 1 0 0 0 1 -1v-1a1 1 0 0 0 -1 -1h-2v-3h3" />
</symbol>
	<symbol id="outline-blocks" xmlns="http://www.w3.org/2000/svg" width="24" height="24" viewBox="0 0 24 24" fill="none" stroke="currentColor" stroke-width="2" stroke-linecap="round" stroke-linejoin="round"
> <path d="M14 4a1 1 0 0 1 1 -1h5a1 1 0 0 1 1 1v5a1 1 0 0 1 -1 1h-5a1 1 0 0 1 -1 -1z" /> <path d="M3 14h12a2 2 0 0 1 2 2v3a2 2 0 0 1 -2 2h-10a2 2 0 0 1 -2 -2v-10a2 2 0 0 1 2 -2h3a2 2 0 0 1 2 2v12" />
</symbol>
	<symbol id="outline-bowling" xmlns="http://www.w3.org/2000/svg" width="24" height="24" viewBox="0 0 24 24" fill="none" stroke="currentColor" stroke-width="2" stroke-linecap="round" stroke-linejoin="round"
> <path d="M7 11v.01" /> <path d="M11 10v.01" /> <path d="M10 14v.01" /> <path d="M11.059 6.07a8 8 0 1 0 .32 15.81" /> <path d="M15.969 9h4" /> <path d="M14.969 5c0 1.5 1 2 1 4c0 2.5 -2 4.5 -2 7c0 2.6 1.9 6 1.9 6h4.1s2 -3.4 2 -6c0 -2.5 -2 -4.5 -2 -7c0 -2 1 -2.5 1 -4a3 3 0 1 0 -6 0" />
</symbol>
	<symbol id="outline-browser-maximize" xmlns="http://www.w3.org/2000/svg" width="24" height="24" viewBox="0 0 24 24" fill="none" stroke="currentColor" stroke-width="2" stroke-linecap="round" stroke-linejoin="round"
> <path d="M4 8h8" /> <path d="M20 11.5v6.5a2 2 0 0 1 -2 2h-12a2 2 0 0 1 -2 -2v-12a2 2 0 0 1 2 -2h6.5" /> <path d="M8 4v4" /> <path d="M16 8l5 -5" /> <path d="M21 7.5v-4.5h-4.5" />
</symbol>
	<symbol id="outline-browser-minus" xmlns="http://www.w3.org/2000/svg" width="24" height="24" viewBox="0 0 24 24" fill="none" stroke="currentColor" stroke-width="2" stroke-linecap="round" stroke-linejoin="round"
> <path d="M4 8h16" /> <path d="M12 20h-6a2 2 0 0 1 -2 -2v-12a2 2 0 0 1 2 -2h12a2 2 0 0 1 2 2v9" /> <path d="M8 4v4" /> <path d="M16 19h6" />
</symbol>
	<symbol id="outline-browser-share" xmlns="http://www.w3.org/2000/svg" width="24" height="24" viewBox="0 0 24 24" fill="none" stroke="currentColor" stroke-width="2" stroke-linecap="round" stroke-linejoin="round"
> <path d="M4 8h16" /> <path d="M12.5 20h-6.5a2 2 0 0 1 -2 -2v-12a2 2 0 0 1 2 -2h12a2 2 0 0 1 2 2v7" /> <path d="M8 4v4" /> <path d="M16 22l5 -5" /> <path d="M21 21.5v-4.5h-4.5" />
</symbol>
	<symbol id="outline-code-variable-minus" xmlns="http://www.w3.org/2000/svg" width="24" height="24" viewBox="0 0 24 24" fill="none" stroke="currentColor" stroke-width="2" stroke-linecap="round" stroke-linejoin="round"
> <path d="M12.5 16h-6.5a2 2 0 0 1 -2 -2v-4a2 2 0 0 1 2 -2h12a2 2 0 0 1 2 2v4" /> <path d="M16 18h6" />
</symbol>
	<symbol id="outline-code-variable-plus" xmlns="http://www.w3.org/2000/svg" width="24" height="24" viewBox="0 0 24 24" fill="none" stroke="currentColor" stroke-width="2" stroke-linecap="round" stroke-linejoin="round"
> <path d="M13 16h-7a2 2 0 0 1 -2 -2v-4a2 2 0 0 1 2 -2h12a2 2 0 0 1 2 2v1" /> <path d="M16 18h6" /> <path d="M19 15v6" />
</symbol>
	<symbol id="outline-code-variable" xmlns="http://www.w3.org/2000/svg" width="24" height="24" viewBox="0 0 24 24" fill="none" stroke="currentColor" stroke-width="2" stroke-linecap="round" stroke-linejoin="round"
> <path d="M4 8m0 2a2 2 0 0 1 2 -2h12a2 2 0 0 1 2 2v4a2 2 0 0 1 -2 2h-12a2 2 0 0 1 -2 -2z" />
</symbol>
	<symbol id="outline-uhd" xmlns="http://www.w3.org/2000/svg" width="24" height="24" viewBox="0 0 24 24" fill="none" stroke="currentColor" stroke-width="2" stroke-linecap="round" stroke-linejoin="round"
> <path d="M10 16v-8" /> <path d="M10 12h4" /> <path d="M14 8v8" /> <path d="M17 8v8h2a2 2 0 0 0 2 -2v-4a2 2 0 0 0 -2 -2z" /> <path d="M3 8v6a2 2 0 1 0 4 0v-6" />
</symbol>
	<symbol id="outline-wheat-off" xmlns="http://www.w3.org/2000/svg" width="24" height="24" viewBox="0 0 24 24" fill="none" stroke="currentColor" stroke-width="2" stroke-linecap="round" stroke-linejoin="round"
> <path d="M3 3l18 18" /> <path d="M12 21.5v-3.75" /> <path d="M5.916 9.49l-.43 1.604c-.712 2.659 .866 5.392 3.524 6.104c.997 .268 1.994 .535 2.99 .802v-3.44c-.164 -2.105 -1.637 -3.879 -3.677 -4.426l-2.407 -.644z" /> <path d="M10.249 4.251c.007 -.007 .014 -.014 .021 -.021l1.73 -1.73" /> <path d="M10.27 11.15c-.589 -.589 -1.017 -1.318 -1.246 -2.118" /> <path d="M14.988 8.988c.229 -.834 .234 -1.713 .013 -2.549c-.221 -.836 -.659 -1.598 -1.271 -2.209l-1.73 -1.73" /> <path d="M16.038 10.037l2.046 -.547l.431 1.604c.142 .53 .193 1.063 .162 1.583" /> <path d="M16.506 16.505c-.45 .307 -.959 .544 -1.516 .694c-.997 .268 -1.994 .535 -2.99 .801v-3.44c.055 -.708 .259 -1.379 .582 -1.978" />
</symbol>
	<symbol id="outline-wheat" xmlns="http://www.w3.org/2000/svg" width="24" height="24" viewBox="0 0 24 24" fill="none" stroke="currentColor" stroke-width="2" stroke-linecap="round" stroke-linejoin="round"
> <path d="M12.014 21.514v-3.75" /> <path d="M5.93 9.504l-.43 1.604c-.712 2.659 .866 5.391 3.524 6.105c.997 .268 1.993 .535 2.99 .801v-3.44c-.164 -2.105 -1.637 -3.879 -3.676 -4.426l-2.408 -.644z" /> <path d="M13.744 11.164c.454 -.454 .815 -.994 1.061 -1.587c.246 -.594 .372 -1.23 .372 -1.873c0 -.643 -.126 -1.279 -.372 -1.872c-.246 -.594 -.606 -1.133 -1.061 -1.588l-1.73 -1.73l-1.73 1.73c-.454 .454 -.815 .994 -1.06 1.588c-.246 .594 -.372 1.23 -.373 1.872c0 .643 .127 1.279 .373 1.873c.246 .594 .606 1.133 1.06 1.587" /> <path d="M18.099 9.504l.43 1.604c.712 2.659 -.866 5.391 -3.525 6.105c-.997 .268 -1.994 .535 -2.99 .801v-3.44c.164 -2.105 1.637 -3.879 3.677 -4.426l2.408 -.644z" />
</symbol>
	<symbol id="filled-calendar-event" xmlns="http://www.w3.org/2000/svg" width="24" height="24" viewBox="0 0 24 24" fill="currentColor"
> <path d="M16 2a1 1 0 0 1 .993 .883l.007 .117v1h1a3 3 0 0 1 2.995 2.824l.005 .176v12a3 3 0 0 1 -2.824 2.995l-.176 .005h-12a3 3 0 0 1 -2.995 -2.824l-.005 -.176v-12a3 3 0 0 1 2.824 -2.995l.176 -.005h1v-1a1 1 0 0 1 1.993 -.117l.007 .117v1h6v-1a1 1 0 0 1 1 -1m3 7h-14v9.625c0 .705 .386 1.286 .883 1.366l.117 .009h12c.513 0 .936 -.53 .993 -1.215l.007 -.16z" /> <path d="M8 14h2v2h-2z" />
</symbol>
	<symbol id="filled-calendar-month" xmlns="http://www.w3.org/2000/svg" width="24" height="24" viewBox="0 0 24 24" fill="currentColor"
> <path d="M16 2c.183 0 .355 .05 .502 .135l.033 .02c.28 .177 .465 .49 .465 .845v1h1a3 3 0 0 1 2.995 2.824l.005 .176v12a3 3 0 0 1 -2.824 2.995l-.176 .005h-12a3 3 0 0 1 -2.995 -2.824l-.005 -.176v-12a3 3 0 0 1 2.824 -2.995l.176 -.005h1v-1a1 1 0 0 1 .514 -.874l.093 -.046l.066 -.025l.1 -.029l.107 -.019l.12 -.007q .083 0 .161 .013l.122 .029l.04 .012l.06 .023c.328 .135 .568 .44 .61 .806l.007 .117v1h6v-1a1 1 0 0 1 1 -1m3 7h-14v9.625c0 .705 .386 1.286 .883 1.366l.117 .009h12c.513 0 .936 -.53 .993 -1.215l.007 -.16z" /> <path d="M9.015 13a1 1 0 0 1 -1 1a1.001 1.001 0 1 1 -.005 -2c.557 0 1.005 .448 1.005 1" /> <path d="M13.015 13a1 1 0 0 1 -1 1a1.001 1.001 0 1 1 -.005 -2c.557 0 1.005 .448 1.005 1" /> <path d="M17.02 13a1 1 0 0 1 -1 1a1.001 1.001 0 1 1 -.005 -2c.557 0 1.005 .448 1.005 1" /> <path d="M12.02 15a1 1 0 0 1 0 2a1.001 1.001 0 1 1 -.005 -2z" /> <path d="M9.015 16a1 1 0 0 1 -1 1a1.001 1.001 0 1 1 -.005 -2c.557 0 1.005 .448 1.005 1" />
</symbol>
	<symbol id="filled-calendar-week" xmlns="http://www.w3.org/2000/svg" width="24" height="24" viewBox="0 0 24 24" fill="currentColor"
> <path d="M8 12a1 1 0 0 1 1 1v4a1 1 0 0 1 -2 0v-4a1 1 0 0 1 1 -1" /> <path d="M12 12a1 1 0 0 1 1 1v4a1 1 0 0 1 -2 0v-4a1 1 0 0 1 1 -1" /> <path d="M16 12a1 1 0 0 1 1 1v4a1 1 0 0 1 -2 0v-4a1 1 0 0 1 1 -1" /> <path d="M16 2a1 1 0 0 1 .993 .883l.007 .117v1h1a3 3 0 0 1 2.995 2.824l.005 .176v12a3 3 0 0 1 -2.824 2.995l-.176 .005h-12a3 3 0 0 1 -2.995 -2.824l-.005 -.176v-12a3 3 0 0 1 2.824 -2.995l.176 -.005h1v-1a1 1 0 0 1 1.993 -.117l.007 .117v1h6v-1a1 1 0 0 1 1 -1m3 7h-14v9.625c0 .705 .386 1.286 .883 1.366l.117 .009h12c.513 0 .936 -.53 .993 -1.215l.007 -.16z" />
</symbol>

	<use xlink:href="#outline-alarm-smoke" x="24" y="24" width="24" height="24" />
	<use xlink:href="#outline-badge-2k" x="68" y="24" width="24" height="24" />
	<use xlink:href="#outline-badge-3k" x="112" y="24" width="24" height="24" />
	<use xlink:href="#outline-badge-5k" x="156" y="24" width="24" height="24" />
	<use xlink:href="#outline-blocks" x="200" y="24" width="24" height="24" />
	<use xlink:href="#outline-bowling" x="244" y="24" width="24" height="24" />
	<use xlink:href="#outline-browser-maximize" x="24" y="68" width="24" height="24" />
	<use xlink:href="#outline-browser-minus" x="68" y="68" width="24" height="24" />
	<use xlink:href="#outline-browser-share" x="112" y="68" width="24" height="24" />
	<use xlink:href="#outline-code-variable-minus" x="156" y="68" width="24" height="24" />
	<use xlink:href="#outline-code-variable-plus" x="200" y="68" width="24" height="24" />
	<use xlink:href="#outline-code-variable" x="244" y="68" width="24" height="24" />
	<use xlink:href="#outline-uhd" x="24" y="112" width="24" height="24" />
	<use xlink:href="#outline-wheat-off" x="68" y="112" width="24" height="24" />
	<use xlink:href="#outline-wheat" x="112" y="112" width="24" height="24" />
	<use xlink:href="#filled-calendar-event" x="156" y="112" width="24" height="24" />
	<use xlink:href="#filled-calendar-month" x="200" y="112" width="24" height="24" />
	<use xlink:href="#filled-calendar-week" x="244" y="112" width="24" height="24" />

</svg>