<svg xmlns="http://www.w3.org/2000/svg" xmlns:xlink="http://www.w3.org/1999/xlink" viewBox="0 0 292 248" width="292" height="248" style="color: #354052"><rect x="0" y="0" width="292" height="248" fill="#fff"></rect>
	<symbol id="equal-double" class="icon icon-tabler icon-tabler-equal-double" viewBox="0 0 24 24" stroke-width="2" stroke="currentColor" fill="none" stroke-linecap="round" stroke-linejoin="round"><path stroke="none" d="M0 0h24v24H0z" fill="none"/><path d="M3 10h7" /><path d="M3 14h7" /><path d="M14 10h7" /><path d="M14 14h7" />
</symbol>
	<symbol id="math-1-divide-2" class="icon icon-tabler icon-tabler-math-1-divide-2" viewBox="0 0 24 24" stroke-width="2" stroke="currentColor" fill="none" stroke-linecap="round" stroke-linejoin="round"><path stroke="none" d="M0 0h24v24H0z" fill="none"/><path d="M5 12h14" /><path d="M10 15h3a1 1 0 0 1 1 1v1a1 1 0 0 1 -1 1h-2a1 1 0 0 0 -1 1v1a1 1 0 0 0 1 1h3" /><path d="M10 5l2 -2v6" />
</symbol>
	<symbol id="math-1-divide-3" class="icon icon-tabler icon-tabler-math-1-divide-3" viewBox="0 0 24 24" stroke-width="2" stroke="currentColor" fill="none" stroke-linecap="round" stroke-linejoin="round"><path stroke="none" d="M0 0h24v24H0z" fill="none"/><path d="M10 15.5a0.5 .5 0 0 1 .5 -.5h2a1.5 1.5 0 0 1 0 3h-1.167h1.167a1.5 1.5 0 0 1 0 3h-2a0.5 .5 0 0 1 -.5 -.5" /><path d="M5 12h14" /><path d="M10 5l2 -2v6" />
</symbol>
	<symbol id="math-equal-greater" class="icon icon-tabler icon-tabler-math-equal-greater" viewBox="0 0 24 24" stroke-width="2" stroke="currentColor" fill="none" stroke-linecap="round" stroke-linejoin="round"><path stroke="none" d="M0 0h24v24H0z" fill="none"/><path d="M5 18l14 -4" /><path d="M5 14l14 -4l-14 -4" />
</symbol>
	<symbol id="math-equal-lower" class="icon icon-tabler icon-tabler-math-equal-lower" viewBox="0 0 24 24" stroke-width="2" stroke="currentColor" fill="none" stroke-linecap="round" stroke-linejoin="round"><path stroke="none" d="M0 0h24v24H0z" fill="none"/><path d="M19 18l-14 -4" /><path d="M19 14l-14 -4l14 -4" />
</symbol>
	<symbol id="math-function-y" class="icon icon-tabler icon-tabler-math-function-y" viewBox="0 0 24 24" stroke-width="2" stroke="currentColor" fill="none" stroke-linecap="round" stroke-linejoin="round"><path stroke="none" d="M0 0h24v24H0z" fill="none"/><path d="M3 19a2 2 0 0 0 2 2c2 0 2 -4 3 -9s1 -9 3 -9a2 2 0 0 1 2 2" /><path d="M5 12h6" /><path d="M15 12l3 5.063" /><path d="M21 12l-4.8 9" />
</symbol>
	<symbol id="math-greater" class="icon icon-tabler icon-tabler-math-greater" viewBox="0 0 24 24" stroke-width="2" stroke="currentColor" fill="none" stroke-linecap="round" stroke-linejoin="round"><path stroke="none" d="M0 0h24v24H0z" fill="none"/><path d="M5 18l14 -6l-14 -6" />
</symbol>
	<symbol id="math-integral-x" class="icon icon-tabler icon-tabler-math-integral-x" viewBox="0 0 24 24" stroke-width="2" stroke="currentColor" fill="none" stroke-linecap="round" stroke-linejoin="round"><path stroke="none" d="M0 0h24v24H0z" fill="none"/><path d="M3 19a2 2 0 0 0 2 2c2 0 2 -4 3 -9s1 -9 3 -9a2 2 0 0 1 2 2" /><path d="M14 12l6 6" /><path d="M14 18l6 -6" />
</symbol>
	<symbol id="math-integral" class="icon icon-tabler icon-tabler-math-integral" viewBox="0 0 24 24" stroke-width="2" stroke="currentColor" fill="none" stroke-linecap="round" stroke-linejoin="round"><path stroke="none" d="M0 0h24v24H0z" fill="none"/><path d="M7 19a2 2 0 0 0 2 2c2 0 2 -4 3 -9s1 -9 3 -9a2 2 0 0 1 2 2" />
</symbol>
	<symbol id="math-integrals" class="icon icon-tabler icon-tabler-math-integrals" viewBox="0 0 24 24" stroke-width="2" stroke="currentColor" fill="none" stroke-linecap="round" stroke-linejoin="round"><path stroke="none" d="M0 0h24v24H0z" fill="none"/><path d="M3 19a2 2 0 0 0 2 2c2 0 2 -4 3 -9s1 -9 3 -9a2 2 0 0 1 2 2" /><path d="M11 19a2 2 0 0 0 2 2c2 0 2 -4 3 -9s1 -9 3 -9a2 2 0 0 1 2 2" />
</symbol>
	<symbol id="math-lower" class="icon icon-tabler icon-tabler-math-lower" viewBox="0 0 24 24" stroke-width="2" stroke="currentColor" fill="none" stroke-linecap="round" stroke-linejoin="round"><path stroke="none" d="M0 0h24v24H0z" fill="none"/><path d="M19 18l-14 -6l14 -6" />
</symbol>
	<symbol id="math-not" class="icon icon-tabler icon-tabler-math-not" viewBox="0 0 24 24" stroke-width="2" stroke="currentColor" fill="none" stroke-linecap="round" stroke-linejoin="round"><path stroke="none" d="M0 0h24v24H0z" fill="none"/><path d="M5 12h14v4" />
</symbol>
	<symbol id="math-pi-divide-2" class="icon icon-tabler icon-tabler-math-pi-divide-2" viewBox="0 0 24 24" stroke-width="2" stroke="currentColor" fill="none" stroke-linecap="round" stroke-linejoin="round"><path stroke="none" d="M0 0h24v24H0z" fill="none"/><path d="M10 15h3a1 1 0 0 1 1 1v1a1 1 0 0 1 -1 1h-2a1 1 0 0 0 -1 1v1a1 1 0 0 0 1 1h3" /><path d="M5 12h14" /><path d="M10 9v-6" /><path d="M14 3v6" /><path d="M15 3h-6" />
</symbol>
	<symbol id="math-pi" class="icon icon-tabler icon-tabler-math-pi" viewBox="0 0 24 24" stroke-width="2" stroke="currentColor" fill="none" stroke-linecap="round" stroke-linejoin="round"><path stroke="none" d="M0 0h24v24H0z" fill="none"/><path d="M7 20v-16" /><path d="M17 4v16" /><path d="M20 4h-16" />
</symbol>
	<symbol id="math-x-divide-2" class="icon icon-tabler icon-tabler-math-x-divide-2" viewBox="0 0 24 24" stroke-width="2" stroke="currentColor" fill="none" stroke-linecap="round" stroke-linejoin="round"><path stroke="none" d="M0 0h24v24H0z" fill="none"/><path d="M10 15h3a1 1 0 0 1 1 1v1a1 1 0 0 1 -1 1h-2a1 1 0 0 0 -1 1v1a1 1 0 0 0 1 1h3" /><path d="M5 12h14" /><path d="M9 3l6 6" /><path d="M9 9l6 -6" />
</symbol>
	<symbol id="math-x-divide-y-2" class="icon icon-tabler icon-tabler-math-x-divide-y-2" viewBox="0 0 24 24" stroke-width="2" stroke="currentColor" fill="none" stroke-linecap="round" stroke-linejoin="round"><path stroke="none" d="M0 0h24v24H0z" fill="none"/><path d="M3 21l18 -18" /><path d="M15 14l3 4.5" /><path d="M21 14l-4.5 7" /><path d="M3 4l6 6" /><path d="M3 10l6 -6" />
</symbol>
	<symbol id="math-x-divide-y" class="icon icon-tabler icon-tabler-math-x-divide-y" viewBox="0 0 24 24" stroke-width="2" stroke="currentColor" fill="none" stroke-linecap="round" stroke-linejoin="round"><path stroke="none" d="M0 0h24v24H0z" fill="none"/><path d="M9 3l6 6" /><path d="M9 9l6 -6" /><path d="M9 15l3 4.5" /><path d="M15 15l-4.5 7" /><path d="M5 12h14" />
</symbol>
	<symbol id="math-x-minus-x" class="icon icon-tabler icon-tabler-math-x-minus-x" viewBox="0 0 24 24" stroke-width="2" stroke="currentColor" fill="none" stroke-linecap="round" stroke-linejoin="round"><path stroke="none" d="M0 0h24v24H0z" fill="none"/><path d="M2 9l6 6" /><path d="M2 15l6 -6" /><path d="M16 9l6 6" /><path d="M16 15l6 -6" /><path d="M10 12h4" />
</symbol>
	<symbol id="math-x-minus-y" class="icon icon-tabler icon-tabler-math-x-minus-y" viewBox="0 0 24 24" stroke-width="2" stroke="currentColor" fill="none" stroke-linecap="round" stroke-linejoin="round"><path stroke="none" d="M0 0h24v24H0z" fill="none"/><path d="M2 9l6 6" /><path d="M2 15l6 -6" /><path d="M16 9l3 5.063" /><path d="M22 9l-4.8 9" /><path d="M10 12h4" />
</symbol>
	<symbol id="math-x-plus-x" class="icon icon-tabler icon-tabler-math-x-plus-x" viewBox="0 0 24 24" stroke-width="2" stroke="currentColor" fill="none" stroke-linecap="round" stroke-linejoin="round"><path stroke="none" d="M0 0h24v24H0z" fill="none"/><path d="M2 9l6 6" /><path d="M2 15l6 -6" /><path d="M16 9l6 6" /><path d="M16 15l6 -6" /><path d="M10 12h4" /><path d="M12 10v4" />
</symbol>
	<symbol id="math-x-plus-y" class="icon icon-tabler icon-tabler-math-x-plus-y" viewBox="0 0 24 24" stroke-width="2" stroke="currentColor" fill="none" stroke-linecap="round" stroke-linejoin="round"><path stroke="none" d="M0 0h24v24H0z" fill="none"/><path d="M16 9l3 5.063" /><path d="M2 9l6 6" /><path d="M2 15l6 -6" /><path d="M22 9l-4.8 9" /><path d="M10 12h4" /><path d="M12 10v4" />
</symbol>
	<symbol id="math-xy" class="icon icon-tabler icon-tabler-math-xy" viewBox="0 0 24 24" stroke-width="2" stroke="currentColor" fill="none" stroke-linecap="round" stroke-linejoin="round"><path stroke="none" d="M0 0h24v24H0z" fill="none"/><path d="M14 9l3 5.063" /><path d="M4 9l6 6" /><path d="M4 15l6 -6" /><path d="M20 9l-4.8 9" />
</symbol>
	<symbol id="math-y-minus-y" class="icon icon-tabler icon-tabler-math-y-minus-y" viewBox="0 0 24 24" stroke-width="2" stroke="currentColor" fill="none" stroke-linecap="round" stroke-linejoin="round"><path stroke="none" d="M0 0h24v24H0z" fill="none"/><path d="M2 9l3 5.063" /><path d="M8 9l-4.8 9" /><path d="M16 9l3 5.063" /><path d="M22 9l-4.8 9" /><path d="M10 12h4" />
</symbol>
	<symbol id="math-y-plus-y" class="icon icon-tabler icon-tabler-math-y-plus-y" viewBox="0 0 24 24" stroke-width="2" stroke="currentColor" fill="none" stroke-linecap="round" stroke-linejoin="round"><path stroke="none" d="M0 0h24v24H0z" fill="none"/><path d="M2 9l3 5.063" /><path d="M8 9l-4.8 9" /><path d="M16 9l3 5.063" /><path d="M22 9l-4.8 9" /><path d="M10 12h4" /><path d="M12 10v4" />
</symbol>
	<symbol id="slash" class="icon icon-tabler icon-tabler-slash" viewBox="0 0 24 24" stroke-width="2" stroke="currentColor" fill="none" stroke-linecap="round" stroke-linejoin="round"><path stroke="none" d="M0 0h24v24H0z" fill="none"/><path d="M3 21l18 -18" />
</symbol>

	<use xlink:href="#equal-double" x="24" y="24" width="24" height="24" />
	<use xlink:href="#math-1-divide-2" x="68" y="24" width="24" height="24" />
	<use xlink:href="#math-1-divide-3" x="112" y="24" width="24" height="24" />
	<use xlink:href="#math-equal-greater" x="156" y="24" width="24" height="24" />
	<use xlink:href="#math-equal-lower" x="200" y="24" width="24" height="24" />
	<use xlink:href="#math-function-y" x="244" y="24" width="24" height="24" />
	<use xlink:href="#math-greater" x="24" y="68" width="24" height="24" />
	<use xlink:href="#math-integral-x" x="68" y="68" width="24" height="24" />
	<use xlink:href="#math-integral" x="112" y="68" width="24" height="24" />
	<use xlink:href="#math-integrals" x="156" y="68" width="24" height="24" />
	<use xlink:href="#math-lower" x="200" y="68" width="24" height="24" />
	<use xlink:href="#math-not" x="244" y="68" width="24" height="24" />
	<use xlink:href="#math-pi-divide-2" x="24" y="112" width="24" height="24" />
	<use xlink:href="#math-pi" x="68" y="112" width="24" height="24" />
	<use xlink:href="#math-x-divide-2" x="112" y="112" width="24" height="24" />
	<use xlink:href="#math-x-divide-y-2" x="156" y="112" width="24" height="24" />
	<use xlink:href="#math-x-divide-y" x="200" y="112" width="24" height="24" />
	<use xlink:href="#math-x-minus-x" x="244" y="112" width="24" height="24" />
	<use xlink:href="#math-x-minus-y" x="24" y="156" width="24" height="24" />
	<use xlink:href="#math-x-plus-x" x="68" y="156" width="24" height="24" />
	<use xlink:href="#math-x-plus-y" x="112" y="156" width="24" height="24" />
	<use xlink:href="#math-xy" x="156" y="156" width="24" height="24" />
	<use xlink:href="#math-y-minus-y" x="200" y="156" width="24" height="24" />
	<use xlink:href="#math-y-plus-y" x="244" y="156" width="24" height="24" />
	<use xlink:href="#slash" x="24" y="200" width="24" height="24" />

</svg>