<svg xmlns="http://www.w3.org/2000/svg" xmlns:xlink="http://www.w3.org/1999/xlink" viewBox="0 0 292 160" width="292" height="160" style="color: #354052"><rect x="0" y="0" width="292" height="160" fill="#fff"></rect>
	<symbol id="outline-ferry" xmlns="http://www.w3.org/2000/svg" width="24" height="24" viewBox="0 0 24 24" fill="none" stroke="currentColor" stroke-width="2" stroke-linecap="round" stroke-linejoin="round"
> <path d="M3 17h14.08a3 3 0 0 0 2.5 -1.34l2.141 -2.66h-17.221z" /> <path d="M14.556 7.959l-.382 -1.415" /> <path d="M6.107 12.675l1.384 -4.675h8l2.675 4.598" />
</symbol>
	<symbol id="outline-math-x-floor-divide-y" xmlns="http://www.w3.org/2000/svg" width="24" height="24" viewBox="0 0 24 24" fill="none" stroke="currentColor" stroke-width="2" stroke-linecap="round" stroke-linejoin="round"
> <path d="M1.5 19l18 -18" /> <path d="M4.5 22l18 -18" /> <path d="M18 15l3 4" /> <path d="M23 15l-4.5 8" /> <path d="M1 1l6 6" /> <path d="M1 7l6 -6" />
</symbol>
	<symbol id="outline-x-power-y" xmlns="http://www.w3.org/2000/svg" width="24" height="24" viewBox="0 0 24 24" fill="none" stroke="currentColor" stroke-width="2" stroke-linecap="round" stroke-linejoin="round"
> <path d="M15 3l3 5.063" /> <path d="M5 12l6 6" /> <path d="M5 18l6 -6" /> <path d="M21 3l-4.8 9" />
</symbol>
	<symbol id="filled-play-card-1" xmlns="http://www.w3.org/2000/svg" width="24" height="24" viewBox="0 0 24 24" fill="currentColor"
> <path d="M17 2a3 3 0 0 1 3 3v14a3 3 0 0 1 -3 3h-10a3 3 0 0 1 -3 -3v-14a3 3 0 0 1 3 -3zm.01 16h-.01a1 1 0 0 0 -.117 1.993l.127 .007a1 1 0 0 0 0 -2m-5.01 -10a1 1 0 0 0 -1 1v6a1 1 0 0 0 2 0v-6a1 1 0 0 0 -1 -1m-4.99 -4h-.01a1 1 0 0 0 -.117 1.993l.127 .007a1 1 0 1 0 0 -2" />
</symbol>
	<symbol id="filled-play-card-10" xmlns="http://www.w3.org/2000/svg" width="24" height="24" viewBox="0 0 24 24" fill="currentColor"
> <path d="M17 2a3 3 0 0 1 3 3v14a3 3 0 0 1 -3 3h-10a3 3 0 0 1 -3 -3v-14a3 3 0 0 1 3 -3zm.01 16h-.01a1 1 0 0 0 -.117 1.993l.127 .007a1 1 0 0 0 0 -2m-8.01 -10a1 1 0 0 0 -1 1v6a1 1 0 0 0 2 0v-6a1 1 0 0 0 -1 -1m4.5 0c-1.453 0 -2.5 1.395 -2.5 3v2c0 1.605 1.047 3 2.5 3s2.5 -1.395 2.5 -3v-2c0 -1.605 -1.047 -3 -2.5 -3m0 2c.203 0 .5 .395 .5 1v2c0 .605 -.297 1 -.5 1s-.5 -.395 -.5 -1v-2c0 -.605 .297 -1 .5 -1m-6.49 -6h-.01a1 1 0 0 0 -.117 1.993l.127 .007a1 1 0 1 0 0 -2" />
</symbol>
	<symbol id="filled-play-card-2" xmlns="http://www.w3.org/2000/svg" width="24" height="24" viewBox="0 0 24 24" fill="currentColor"
> <path d="M17 2a3 3 0 0 1 3 3v14a3 3 0 0 1 -3 3h-10a3 3 0 0 1 -3 -3v-14a3 3 0 0 1 3 -3zm.01 16h-.01a1 1 0 0 0 0 2h.01a1 1 0 0 0 0 -2m-4.01 -10h-3a1 1 0 1 0 0 2h3v1h-2a2 2 0 0 0 -2 2v1a2 2 0 0 0 2 2h3a1 1 0 0 0 0 -2h-3v-1h2a2 2 0 0 0 2 -2v-1a2 2 0 0 0 -2 -2m-5.99 -4h-.01a1 1 0 1 0 0 2h.01a1 1 0 1 0 0 -2" />
</symbol>
	<symbol id="filled-play-card-3" xmlns="http://www.w3.org/2000/svg" width="24" height="24" viewBox="0 0 24 24" fill="currentColor"
> <path d="M17 2a3 3 0 0 1 3 3v14a3 3 0 0 1 -3 3h-10a3 3 0 0 1 -3 -3v-14a3 3 0 0 1 3 -3zm.01 16h-.01a1 1 0 0 0 -.117 1.993l.127 .007a1 1 0 0 0 0 -2m-4.51 -10h-2.5a1 1 0 1 0 0 2h2.5a.5 .5 0 0 1 .09 .992l-.09 .008h-1.5c-1.287 0 -1.332 1.864 -.133 1.993l.133 .007h1.5a.5 .5 0 1 1 0 1h-2.5a1 1 0 0 0 0 2h2.5a2.5 2.5 0 0 0 2.5 -2.5l-.005 -.164a2.5 2.5 0 0 0 -.477 -1.312l-.019 -.024l.019 -.024a2.5 2.5 0 0 0 -2.018 -3.976m-5.49 -4h-.01a1 1 0 0 0 -.117 1.993l.127 .007a1 1 0 1 0 0 -2" />
</symbol>
	<symbol id="filled-play-card-4" xmlns="http://www.w3.org/2000/svg" width="24" height="24" viewBox="0 0 24 24" fill="currentColor"
> <path d="M17 2a3 3 0 0 1 3 3v14a3 3 0 0 1 -3 3h-10a3 3 0 0 1 -3 -3v-14a3 3 0 0 1 3 -3zm.01 16h-.01a1 1 0 0 0 -.117 1.993l.127 .007a1 1 0 0 0 0 -2m-3.01 -10a1 1 0 0 0 -1 1v2h-2v-2a1 1 0 0 0 -2 0v2a2 2 0 0 0 2 2h2v2a1 1 0 0 0 .883 .993l.117 .007a1 1 0 0 0 1 -1v-6a1 1 0 0 0 -1 -1m-6.99 -4h-.01a1 1 0 0 0 -.117 1.993l.127 .007a1 1 0 1 0 0 -2" />
</symbol>
	<symbol id="filled-play-card-5" xmlns="http://www.w3.org/2000/svg" width="24" height="24" viewBox="0 0 24 24" fill="currentColor"
> <path d="M17 2a3 3 0 0 1 3 3v14a3 3 0 0 1 -3 3h-10a3 3 0 0 1 -3 -3v-14a3 3 0 0 1 3 -3zm.01 16h-.01a1 1 0 0 0 0 2h.01a1 1 0 0 0 0 -2m-3.01 -10h-4a1 1 0 0 0 -1 1v3a1 1 0 0 0 1 1h3v1h-3a1 1 0 0 0 0 2h3a2 2 0 0 0 2 -2v-1l-.005 -.15a2 2 0 0 0 -1.995 -1.85h-2v-1h3a1 1 0 0 0 0 -2m-6.99 -4h-.01a1 1 0 1 0 0 2h.01a1 1 0 1 0 0 -2" />
</symbol>
	<symbol id="filled-play-card-6" xmlns="http://www.w3.org/2000/svg" width="24" height="24" viewBox="0 0 24 24" fill="currentColor"
> <path d="M17 2a3 3 0 0 1 3 3v14a3 3 0 0 1 -3 3h-10a3 3 0 0 1 -3 -3v-14a3 3 0 0 1 3 -3zm.01 16h-.01a1 1 0 0 0 -.117 1.993l.127 .007a1 1 0 0 0 0 -2m-3.01 -10h-3a2 2 0 0 0 -2 2v4a2 2 0 0 0 2 2h2a2 2 0 0 0 2 -2v-1l-.005 -.15a2 2 0 0 0 -1.995 -1.85h-2v-1h3a1 1 0 0 0 0 -2m-1 5v1h-2v-1zm-5.99 -9h-.01a1 1 0 0 0 -.117 1.993l.127 .007a1 1 0 1 0 0 -2" />
</symbol>
	<symbol id="filled-play-card-7" xmlns="http://www.w3.org/2000/svg" width="24" height="24" viewBox="0 0 24 24" fill="currentColor"
> <path d="M17 2a3 3 0 0 1 3 3v14a3 3 0 0 1 -3 3h-10a3 3 0 0 1 -3 -3v-14a3 3 0 0 1 3 -3zm.01 16h-.01a1 1 0 0 0 0 2h.01a1 1 0 0 0 0 -2m-3.01 -10h-4a1 1 0 0 0 -1 1l.007 .117a1 1 0 0 0 .993 .883h2.612l-1.56 4.684a1 1 0 1 0 1.897 .632l2 -6a1 1 0 0 0 -.949 -1.316m-6.99 -4h-.01a1 1 0 1 0 0 2h.01a1 1 0 1 0 0 -2" />
</symbol>
	<symbol id="filled-play-card-8" xmlns="http://www.w3.org/2000/svg" width="24" height="24" viewBox="0 0 24 24" fill="currentColor"
> <path d="M17 2a3 3 0 0 1 3 3v14a3 3 0 0 1 -3 3h-10a3 3 0 0 1 -3 -3v-14a3 3 0 0 1 3 -3zm.01 16h-.01a1 1 0 0 0 -.117 1.993l.127 .007a1 1 0 0 0 0 -2m-4.01 -10h-2a2 2 0 0 0 -2 2v1c0 .365 .098 .707 .268 1.001c-.17 .293 -.268 .635 -.268 .999v1a2 2 0 0 0 2 2h2a2 2 0 0 0 2 -2v-1a2 2 0 0 0 -.268 -1c.17 -.293 .268 -.635 .268 -1v-1a2 2 0 0 0 -2 -2m0 5v1h-2v-1zm0 -3v1h-2v-1zm-5.99 -6h-.01a1 1 0 0 0 -.117 1.993l.127 .007a1 1 0 1 0 0 -2" />
</symbol>
	<symbol id="filled-play-card-9" xmlns="http://www.w3.org/2000/svg" width="24" height="24" viewBox="0 0 24 24" fill="currentColor"
> <path d="M17 2a3 3 0 0 1 3 3v14a3 3 0 0 1 -3 3h-10a3 3 0 0 1 -3 -3v-14a3 3 0 0 1 3 -3zm.01 16h-.01a1 1 0 0 0 0 2h.01a1 1 0 0 0 0 -2m-4.01 -10h-2a2 2 0 0 0 -2 2v1l.005 .15a2 2 0 0 0 1.995 1.85h2v1h-3a1 1 0 0 0 0 2h3a2 2 0 0 0 2 -2v-4a2 2 0 0 0 -2 -2m0 2v1h-2v-1zm-5.99 -6h-.01a1 1 0 1 0 0 2h.01a1 1 0 1 0 0 -2" />
</symbol>
	<symbol id="filled-play-card-a" xmlns="http://www.w3.org/2000/svg" width="24" height="24" viewBox="0 0 24 24" fill="currentColor"
> <path d="M17 2a3 3 0 0 1 3 3v14a3 3 0 0 1 -3 3h-10a3 3 0 0 1 -3 -3v-14a3 3 0 0 1 3 -3zm.01 16h-.01a1 1 0 0 0 -.117 1.993l.127 .007a1 1 0 0 0 0 -2m-5.01 -10a3 3 0 0 0 -3 3v4a1 1 0 0 0 2 0v-1h2v1a1 1 0 0 0 .883 .993l.117 .007a1 1 0 0 0 1 -1v-4a3 3 0 0 0 -3 -3m0 2a1 1 0 0 1 1 1v1h-2v-1a1 1 0 0 1 .883 -.993zm-4.99 -6h-.01a1 1 0 0 0 -.117 1.993l.127 .007a1 1 0 1 0 0 -2" />
</symbol>
	<symbol id="filled-play-card-j" xmlns="http://www.w3.org/2000/svg" width="24" height="24" viewBox="0 0 24 24" fill="currentColor"
> <path d="M17 2a3 3 0 0 1 3 3v14a3 3 0 0 1 -3 3h-10a3 3 0 0 1 -3 -3v-14a3 3 0 0 1 3 -3zm.01 16h-.01a1 1 0 0 0 0 2h.01a1 1 0 0 0 0 -2m-3.01 -10h-4a1 1 0 0 0 -1 1l.007 .117a1 1 0 0 0 .993 .883h3v3a1 1 0 0 1 -2 0a1 1 0 0 0 -2 0a3 3 0 0 0 6 0v-4a1 1 0 0 0 -1 -1m-6.99 -4h-.01a1 1 0 1 0 0 2h.01a1 1 0 1 0 0 -2" />
</symbol>
	<symbol id="filled-play-card-k" xmlns="http://www.w3.org/2000/svg" width="24" height="24" viewBox="0 0 24 24" fill="currentColor"
> <path d="M17 2a3 3 0 0 1 3 3v14a3 3 0 0 1 -3 3h-10a3 3 0 0 1 -3 -3v-14a3 3 0 0 1 3 -3zm.01 16h-.01a1 1 0 0 0 -.117 1.993l.127 .007a1 1 0 0 0 0 -2m-7.01 -10a1 1 0 0 0 -1 1v6a1 1 0 0 0 2 0v-1.585l2.293 2.292a1 1 0 0 0 1.32 .083l.094 -.083l.083 -.094a1 1 0 0 0 -.083 -1.32l-2.292 -2.293l2.292 -2.293a1 1 0 1 0 -1.414 -1.414l-2.293 2.291v-1.584a1 1 0 0 0 -.883 -.993zm-2.99 -4h-.01a1 1 0 0 0 -.117 1.993l.127 .007a1 1 0 1 0 0 -2" />
</symbol>
	<symbol id="filled-play-card-q" xmlns="http://www.w3.org/2000/svg" width="24" height="24" viewBox="0 0 24 24" fill="currentColor"
> <path d="M17 2a3 3 0 0 1 3 3v14a3 3 0 0 1 -3 3h-10a3 3 0 0 1 -3 -3v-14a3 3 0 0 1 3 -3zm.01 16h-.01a1 1 0 0 0 -.117 1.993l.127 .007a1 1 0 0 0 0 -2m-5.01 -10a3 3 0 0 0 -3 3v2a3 3 0 0 0 4.293 2.708l.5 .5a1 1 0 0 0 1.414 -1.415l-.499 -.5c.187 -.392 .292 -.83 .292 -1.293v-2a3 3 0 0 0 -3 -3m0 2a1 1 0 0 1 1 1v2a1 1 0 0 1 -2 0v-2a1 1 0 0 1 1 -1m-4.99 -6h-.01a1 1 0 0 0 -.117 1.993l.127 .007a1 1 0 1 0 0 -2" />
</symbol>
	<symbol id="filled-play-card-star" xmlns="http://www.w3.org/2000/svg" width="24" height="24" viewBox="0 0 24 24" fill="currentColor"
> <path d="M17 2a3 3 0 0 1 3 3v14a3 3 0 0 1 -3 3h-10a3 3 0 0 1 -3 -3v-14a3 3 0 0 1 3 -3zm.01 16h-.01a1 1 0 0 0 -.117 1.993l.127 .007a1 1 0 0 0 0 -2m-4.98 -9.5l-.115 .005c-.384 .04 -.724 .273 -.898 .623l-.51 1.027l-1.138 .166c-.423 .059 -.78 .357 -.914 .768l-.033 .125a1.13 1.13 0 0 0 .322 1.039l.82 .797l-.194 1.127c-.07 .432 .107 .857 .454 1.108l.107 .068a1.13 1.13 0 0 0 1.078 .018l1.022 -.536l1.019 .535c.377 .2 .84 .168 1.19 -.086l.1 -.08c.281 -.259 .416 -.645 .35 -1.028l-.194 -1.126l.823 -.799c.31 -.302 .42 -.752 .287 -1.161l-.042 -.11a1.13 1.13 0 0 0 -.873 -.659l-1.138 -.166l-.508 -1.026a1.13 1.13 0 0 0 -1.014 -.63m-5.021 -4.499h-.01a1 1 0 0 0 -.117 1.993l.127 .007a1 1 0 1 0 0 -2" />
</symbol>

	<use xlink:href="#outline-ferry" x="24" y="24" width="24" height="24" />
	<use xlink:href="#outline-math-x-floor-divide-y" x="68" y="24" width="24" height="24" />
	<use xlink:href="#outline-x-power-y" x="112" y="24" width="24" height="24" />
	<use xlink:href="#filled-play-card-1" x="156" y="24" width="24" height="24" />
	<use xlink:href="#filled-play-card-10" x="200" y="24" width="24" height="24" />
	<use xlink:href="#filled-play-card-2" x="244" y="24" width="24" height="24" />
	<use xlink:href="#filled-play-card-3" x="24" y="68" width="24" height="24" />
	<use xlink:href="#filled-play-card-4" x="68" y="68" width="24" height="24" />
	<use xlink:href="#filled-play-card-5" x="112" y="68" width="24" height="24" />
	<use xlink:href="#filled-play-card-6" x="156" y="68" width="24" height="24" />
	<use xlink:href="#filled-play-card-7" x="200" y="68" width="24" height="24" />
	<use xlink:href="#filled-play-card-8" x="244" y="68" width="24" height="24" />
	<use xlink:href="#filled-play-card-9" x="24" y="112" width="24" height="24" />
	<use xlink:href="#filled-play-card-a" x="68" y="112" width="24" height="24" />
	<use xlink:href="#filled-play-card-j" x="112" y="112" width="24" height="24" />
	<use xlink:href="#filled-play-card-k" x="156" y="112" width="24" height="24" />
	<use xlink:href="#filled-play-card-q" x="200" y="112" width="24" height="24" />
	<use xlink:href="#filled-play-card-star" x="244" y="112" width="24" height="24" />

</svg>