<svg xmlns="http://www.w3.org/2000/svg" xmlns:xlink="http://www.w3.org/1999/xlink" viewBox="0 0 292 160" width="292" height="160" style="color: #354052"><rect x="0" y="0" width="292" height="160" fill="#fff"></rect>
	<symbol id="filled-device-gamepad" xmlns="http://www.w3.org/2000/svg" width="24" height="24" viewBox="0 0 24 24" fill="currentColor"
> <path d="M20 5a3 3 0 0 1 3 3v8a3 3 0 0 1 -3 3h-16a3 3 0 0 1 -3 -3v-8a3 3 0 0 1 3 -3zm-12 4l-.117 .007a1 1 0 0 0 -.883 .993v1h-1a1 1 0 0 0 -1 1l.007 .117a1 1 0 0 0 .993 .883h1v1a1 1 0 0 0 1 1l.117 -.007a1 1 0 0 0 .883 -.993v-1h1a1 1 0 0 0 1 -1l-.007 -.117a1 1 0 0 0 -.993 -.883h-1v-1a1 1 0 0 0 -1 -1m10 3a1 1 0 0 0 -1 1v.01a1 1 0 0 0 2 0v-.01a1 1 0 0 0 -1 -1m-3 -2a1 1 0 0 0 -1 1v.01a1 1 0 0 0 2 0v-.01a1 1 0 0 0 -1 -1" />
</symbol>
	<symbol id="filled-file-dollar" xmlns="http://www.w3.org/2000/svg" width="24" height="24" viewBox="0 0 24 24" fill="currentColor"
> <path d="M12 2l.117 .007a1 1 0 0 1 .876 .876l.007 .117v4l.005 .15a2 2 0 0 0 1.838 1.844l.157 .006h4l.117 .007a1 1 0 0 1 .876 .876l.007 .117v9a3 3 0 0 1 -2.824 2.995l-.176 .005h-10a3 3 0 0 1 -2.995 -2.824l-.005 -.176v-14a3 3 0 0 1 2.824 -2.995l.176 -.005zm0 8a1 1 0 0 0 -1 1v.05a2.5 2.5 0 0 0 .5 4.95h1a.5 .5 0 1 1 0 1h-2.5a1 1 0 0 0 0 2h1a1 1 0 0 0 2 0v-.05a2.5 2.5 0 0 0 -.5 -4.95h-1a.5 .5 0 1 1 0 -1h2.5a1 1 0 0 0 0 -2h-1a1 1 0 0 0 -1 -1" /> <path d="M19 7h-4l-.001 -4.001z" />
</symbol>
	<symbol id="filled-file-euro" xmlns="http://www.w3.org/2000/svg" width="24" height="24" viewBox="0 0 24 24" fill="currentColor"
> <path d="M12 2l.117 .007a1 1 0 0 1 .876 .876l.007 .117v4l.005 .15a2 2 0 0 0 1.838 1.844l.157 .006h4l.117 .007a1 1 0 0 1 .876 .876l.007 .117v9a3 3 0 0 1 -2.824 2.995l-.176 .005h-10a3 3 0 0 1 -2.995 -2.824l-.005 -.176v-14a3 3 0 0 1 2.824 -2.995l.176 -.005zm2.334 9.23a4 4 0 0 0 -5.208 2.77h-.126a1 1 0 0 0 0 2h.126a4 4 0 0 0 5.208 2.77a1 1 0 0 0 -.668 -1.885l-.156 .049a2 2 0 0 1 -2.243 -.934h.733a1 1 0 0 0 0 -2h-.733q .056 -.097 .124 -.19a2 2 0 0 1 2.275 -.695l.112 .032a1 1 0 0 0 .556 -1.918" /> <path d="M19 7h-4l-.001 -4.001z" />
</symbol>
	<symbol id="filled-file-music" xmlns="http://www.w3.org/2000/svg" width="24" height="24" viewBox="0 0 24 24" fill="currentColor"
> <path d="M12 2l.117 .007a1 1 0 0 1 .876 .876l.007 .117v4l.005 .15a2 2 0 0 0 1.838 1.844l.157 .006h4l.117 .007a1 1 0 0 1 .876 .876l.007 .117v9a3 3 0 0 1 -2.824 2.995l-.176 .005h-10a3 3 0 0 1 -2.995 -2.824l-.005 -.176v-14a3 3 0 0 1 2.824 -2.995l.176 -.005zm.447 9.106a1 1 0 0 0 -1.447 .894v3a2 2 0 0 0 -1.995 1.85l-.005 .15a2 2 0 1 0 4 0v-3.382l.553 .276a1 1 0 0 0 .894 -1.788z" /> <path d="M19 7h-4l-.001 -4.001z" />
</symbol>
	<symbol id="filled-file-pencil" xmlns="http://www.w3.org/2000/svg" width="24" height="24" viewBox="0 0 24 24" fill="currentColor"
> <path d="M12 2l.117 .007a1 1 0 0 1 .876 .876l.007 .117v4l.005 .15a2 2 0 0 0 1.838 1.844l.157 .006h4l.117 .007a1 1 0 0 1 .876 .876l.007 .117v9a3 3 0 0 1 -2.824 2.995l-.176 .005h-10a3 3 0 0 1 -2.995 -2.824l-.005 -.176v-14a3 3 0 0 1 2.824 -2.995l.176 -.005zm1 10l-5 5v2h2l5 -5a1.414 1.414 0 0 0 -2 -2" /> <path d="M19 7h-4l-.001 -4.001z" />
</symbol>
	<symbol id="filled-file-scissors" xmlns="http://www.w3.org/2000/svg" width="24" height="24" viewBox="0 0 24 24" fill="currentColor"
> <path d="M12 2l.117 .007a1 1 0 0 1 .876 .876l.007 .117v4l.005 .15a2 2 0 0 0 1.838 1.844l.157 .006h4l.117 .007a1 1 0 0 1 .876 .876l.007 .117v9a3 3 0 0 1 -2.824 2.995l-.176 .005h-10a3 3 0 0 1 -2.995 -2.824l-.005 -.176v-14a3 3 0 0 1 2.824 -2.995l.176 -.005zm-2.293 9.293a1 1 0 1 0 -1.414 1.414l2.292 2.293l-1.068 1.067a2.003 2.003 0 0 0 -2.512 1.784l-.005 .149a2 2 0 1 0 3.933 -.516l1.067 -1.069l1.067 1.068a2 2 0 0 0 -.062 .368l-.005 .149a2 2 0 1 0 1.484 -1.933l-1.069 -1.067l2.292 -2.293a1 1 0 0 0 -1.414 -1.414l-2.293 2.292z" /> <path d="M19 7h-4l-.001 -4.001z" />
</symbol>
	<symbol id="filled-file-settings" xmlns="http://www.w3.org/2000/svg" width="24" height="24" viewBox="0 0 24 24" fill="currentColor"
> <path d="M12 2l.117 .007a1 1 0 0 1 .876 .876l.007 .117v4l.005 .15a2 2 0 0 0 1.838 1.844l.157 .006h4l.117 .007a1 1 0 0 1 .876 .876l.007 .117v9a3 3 0 0 1 -2.824 2.995l-.176 .005h-10a3 3 0 0 1 -2.995 -2.824l-.005 -.176v-14a3 3 0 0 1 2.824 -2.995l.176 -.005zm0 8.5a1 1 0 0 0 -1 1v.67a3 3 0 0 0 -.909 .516l-.576 -.346a1 1 0 0 0 -1.03 1.714l.575 .346q -.043 .207 -.055 .424l-.005 .176q 0 .28 .05 .548l-.582 .336a1 1 0 0 0 1 1.732l.583 -.336c.277 .238 .598 .425 .95 .55l-.001 .67a1 1 0 0 0 2 0v-.671c.335 -.118 .641 -.294 .909 -.514l.576 .345a1 1 0 0 0 1.03 -1.714l-.575 -.346a3 3 0 0 0 .01 -1.148l.581 -.336a1 1 0 0 0 -1 -1.732l-.582 .335a3 3 0 0 0 -.948 -.548l-.001 -.671a1 1 0 0 0 -1 -1m0 3.5a1 1 0 1 1 0 2a1 1 0 0 1 0 -2" /> <path d="M19 7h-4l-.001 -4.001z" />
</symbol>
	<symbol id="filled-file-signal" xmlns="http://www.w3.org/2000/svg" width="24" height="24" viewBox="0 0 24 24" fill="currentColor"
> <path d="M12 2l.117 .007a1 1 0 0 1 .876 .876l.007 .117v4l.005 .15a2 2 0 0 0 1.838 1.844l.157 .006h4l.117 .007a1 1 0 0 1 .876 .876l.007 .117v9a3 3 0 0 1 -2.824 2.995l-.176 .005h-10a3 3 0 0 1 -2.995 -2.824l-.005 -.176v-14a3 3 0 0 1 2.824 -2.995l.176 -.005zm-1.768 9.818a1 1 0 0 0 -1.414 0a4.5 4.5 0 0 0 0 6.364a1 1 0 0 0 1.414 -1.414a2.5 2.5 0 0 1 0 -3.536a1 1 0 0 0 0 -1.414m4.95 0a1 1 0 0 0 -1.414 1.414a2.5 2.5 0 0 1 0 3.536a1 1 0 0 0 1.414 1.414a4.5 4.5 0 0 0 0 -6.364m-3.182 2.182a1 1 0 0 0 -1 1l.007 .127a1 1 0 0 0 1.993 -.117l-.007 -.127a1 1 0 0 0 -.993 -.883" /> <path d="M19 7h-4l-.001 -4.001z" />
</symbol>
	<symbol id="filled-file-time" xmlns="http://www.w3.org/2000/svg" width="24" height="24" viewBox="0 0 24 24" fill="currentColor"
> <path d="M12 2l.117 .007a1 1 0 0 1 .876 .876l.007 .117v4l.005 .15a2 2 0 0 0 1.838 1.844l.157 .006h4l.117 .007a1 1 0 0 1 .876 .876l.007 .117v9a3 3 0 0 1 -2.824 2.995l-.176 .005h-10a3 3 0 0 1 -2.995 -2.824l-.005 -.176v-14a3 3 0 0 1 2.824 -2.995l.176 -.005zm0 8a5 5 0 0 0 -4.995 4.783l-.005 .217a5 5 0 1 0 5 -5m0 2a3 3 0 1 1 0 6a3 3 0 0 1 0 -6m0 .496a1 1 0 0 0 -1 1v1.504a1 1 0 0 0 .293 .707l1 1a1 1 0 0 0 1.414 0l.083 -.094a1 1 0 0 0 -.083 -1.32l-.707 -.708v-1.089a1 1 0 0 0 -1 -1" /> <path d="M19 7h-4l-.001 -4.001z" />
</symbol>
	<symbol id="filled-file-unknown" xmlns="http://www.w3.org/2000/svg" width="24" height="24" viewBox="0 0 24 24" fill="currentColor"
> <path d="M12 2l.117 .007a1 1 0 0 1 .876 .876l.007 .117v4l.005 .15a2 2 0 0 0 1.838 1.844l.157 .006h4l.117 .007a1 1 0 0 1 .876 .876l.007 .117v9a3 3 0 0 1 -2.824 2.995l-.176 .005h-10a3 3 0 0 1 -2.995 -2.824l-.005 -.176v-14a3 3 0 0 1 2.824 -2.995l.176 -.005zm0 15a1 1 0 0 0 -.993 .883l-.007 .127a1 1 0 0 0 1.993 .117l.007 -.127a1 1 0 0 0 -1 -1m1.136 -5.727a2.5 2.5 0 0 0 -3.037 .604a1 1 0 0 0 1.434 1.389l.088 -.09a.5 .5 0 1 1 .379 .824a1 1 0 0 0 -.002 2a2.5 2.5 0 0 0 1.137 -4.727" /> <path d="M19 7h-4l-.001 -4.001z" />
</symbol>
	<symbol id="filled-file-upload" xmlns="http://www.w3.org/2000/svg" width="24" height="24" viewBox="0 0 24 24" fill="currentColor"
> <path d="M12 2l.117 .007a1 1 0 0 1 .876 .876l.007 .117v4l.005 .15a2 2 0 0 0 1.838 1.844l.157 .006h4l.117 .007a1 1 0 0 1 .876 .876l.007 .117v9a3 3 0 0 1 -2.824 2.995l-.176 .005h-10a3 3 0 0 1 -2.995 -2.824l-.005 -.176v-14a3 3 0 0 1 2.824 -2.995l.176 -.005zm0 9l-.09 .004l-.058 .007l-.118 .025l-.105 .035l-.113 .054l-.111 .071a1 1 0 0 0 -.112 .097l-2.5 2.5a1 1 0 0 0 0 1.414l.094 .083a1 1 0 0 0 1.32 -.083l.793 -.793v3.586a1 1 0 0 0 2 0v-3.585l.793 .792a1 1 0 0 0 1.414 -1.414l-2.5 -2.5l-.082 -.073l-.104 -.074l-.098 -.052l-.11 -.044l-.112 -.03l-.126 -.017z" /> <path d="M19 7h-4l-.001 -4.001z" />
</symbol>
	<symbol id="filled-file-vector" xmlns="http://www.w3.org/2000/svg" width="24" height="24" viewBox="0 0 24 24" fill="currentColor"
> <path d="M12 2l.117 .007a1 1 0 0 1 .876 .876l.007 .117v4l.005 .15a2 2 0 0 0 1.838 1.844l.157 .006h4l.117 .007a1 1 0 0 1 .876 .876l.007 .117v9a3 3 0 0 1 -2.824 2.995l-.176 .005h-10a3 3 0 0 1 -2.995 -2.824l-.005 -.176v-14a3 3 0 0 1 2.824 -2.995l.176 -.005zm2.5 9a2.5 2.5 0 0 0 -2.292 1.5h-.208a3.5 3.5 0 0 0 -3.399 2.666a2.5 2.5 0 0 0 -1.596 2.17l-.005 .164a2.5 2.5 0 1 0 3.676 -2.206a1.5 1.5 0 0 1 1.324 -.794h.208a2.5 2.5 0 1 0 2.292 -3.5m-5 6a.5 .5 0 1 1 0 1a.5 .5 0 0 1 0 -1m5 -4a.5 .5 0 1 1 0 1a.5 .5 0 0 1 0 -1" /> <path d="M19 7h-4l-.001 -4.001z" />
</symbol>
	<symbol id="filled-files" xmlns="http://www.w3.org/2000/svg" width="24" height="24" viewBox="0 0 24 24" fill="currentColor"
> <path d="M11 2l3 .001v5.999a1 1 0 0 0 .883 .993l.117 .007h6v6a3 3 0 0 1 -3 3h-1v1a3 3 0 0 1 -3 3h-7a3 3 0 0 1 -3 -3v-10a3 3 0 0 1 3 -3h1v-1a3 3 0 0 1 3 -3m-3 6h-1a1 1 0 0 0 -1 1v10a1 1 0 0 0 1 1h7a1 1 0 0 0 1 -1v-1h-4a3 3 0 0 1 -3 -3zm12.415 -1h-4.415v-4.415z" />
</symbol>
	<symbol id="filled-registered" xmlns="http://www.w3.org/2000/svg" width="24" height="24" viewBox="0 0 24 24" fill="currentColor"
> <path d="M17 3.34a10 10 0 1 1 -15 8.66l.005 -.324a10 10 0 0 1 14.995 -8.336m-5 4.66h-2a1 1 0 0 0 -1 1v6a1 1 0 0 0 1 1l.117 -.007a1 1 0 0 0 .883 -.993v-1h.585l1.708 1.707a1 1 0 0 0 1.414 -1.414l-.9 -.899a3 3 0 0 0 -1.807 -5.394m0 2a1 1 0 0 1 0 2h-1v-2z" />
</symbol>
	<symbol id="filled-video-minus" xmlns="http://www.w3.org/2000/svg" width="24" height="24" viewBox="0 0 24 24" fill="currentColor"
> <path d="M13 5a3 3 0 0 1 3 3v.381l3.106 -1.552a2 2 0 0 1 2.894 1.789v6.765a2 2 0 0 1 -2.894 1.787l-3.106 -1.552v.382a3 3 0 0 1 -3 3h-8a3 3 0 0 1 -3 -3v-8a3 3 0 0 1 3 -3zm-2 6h-4a1 1 0 0 0 0 2h4a1 1 0 0 0 0 -2" />
</symbol>
	<symbol id="filled-video-plus" xmlns="http://www.w3.org/2000/svg" width="24" height="24" viewBox="0 0 24 24" fill="currentColor"
> <path d="M13 5a3 3 0 0 1 3 3v.381l3.106 -1.552a2 2 0 0 1 2.894 1.789v6.765a2 2 0 0 1 -2.894 1.787l-3.106 -1.552v.382a3 3 0 0 1 -3 3h-8a3 3 0 0 1 -3 -3v-8a3 3 0 0 1 3 -3zm-4 4a1 1 0 0 0 -1 1v1h-1a1 1 0 0 0 0 2h1v1a1 1 0 0 0 2 0v-1h1a1 1 0 0 0 0 -2h-1v-1a1 1 0 0 0 -1 -1" />
</symbol>
	<symbol id="filled-writing-sign" xmlns="http://www.w3.org/2000/svg" width="24" height="24" viewBox="0 0 24 24" fill="currentColor"
> <path d="M6 11c-.483 0 -1.021 .725 -1 1.983c.013 .783 .29 1.3 1.035 2.07l.107 .107l.101 -.134c.466 -.643 .714 -1.266 .752 -1.864l.005 -.162l-.003 -.563c-.017 -1.284 -.13 -1.422 -.807 -1.436zm12 -9c1.673 0 3 1.327 3 3v1h-6v-1c0 -1.673 1.327 -3 3 -3m2.707 15.707l-2 2l-.08 .071l-.043 .034l-.084 .054l-.103 .052l-.084 .032l-.08 .023l-.143 .023l-.071 .004h-2.519c-1.616 0 -2.954 -.83 -4.004 -2.393l-.026 -.04l-.273 .431l-.365 .557c-1.356 2.034 -2.942 1.691 -4.7 -.41l-.064 -.076l-.176 .147q -.897 .727 -2.045 1.438l-.332 .203a1 1 0 1 1 -1.03 -1.714a19 19 0 0 0 2.17 -1.498l.078 -.065l-.147 -.15c-.998 -1.033 -1.498 -1.904 -1.576 -3.157l-.01 -.256c-.038 -2.273 1.257 -4.017 3 -4.017c2.052 0 3 .948 3 4c0 1.218 -.47 2.392 -1.392 3.532l-.11 .13l.28 .36c.784 .985 .994 .992 1.343 .492l.047 -.069q .97 -1.456 1.437 -2.392a1 1 0 0 1 1.814 .053c.858 2.002 1.878 2.894 3.081 2.894l.085 -.001l-.292 -.292a1 1 0 0 1 -.293 -.707v-9h6v9a1 1 0 0 1 -.293 .707" />
</symbol>
	<symbol id="filled-writing" xmlns="http://www.w3.org/2000/svg" width="24" height="24" viewBox="0 0 24 24" fill="currentColor"
> <path d="M21 8v9a1 1 0 0 1 -.293 .707l-2 2a1 1 0 0 1 -.112 .097l-.11 .071l-.114 .054l-.105 .035l-.149 .03l-.117 .006h-13a3 3 0 0 1 0 -6h4a1 1 0 0 0 0 -2h-3a1 1 0 0 1 0 -2h3a3 3 0 0 1 0 6h-4a1 1 0 0 0 0 2h10.585l-.292 -.293a1 1 0 0 1 -.293 -.707v-9zm-3 -6c1.673 0 3 1.327 3 3v1h-6v-1c0 -1.673 1.327 -3 3 -3" />
</symbol>

	<use xlink:href="#filled-device-gamepad" x="24" y="24" width="24" height="24" />
	<use xlink:href="#filled-file-dollar" x="68" y="24" width="24" height="24" />
	<use xlink:href="#filled-file-euro" x="112" y="24" width="24" height="24" />
	<use xlink:href="#filled-file-music" x="156" y="24" width="24" height="24" />
	<use xlink:href="#filled-file-pencil" x="200" y="24" width="24" height="24" />
	<use xlink:href="#filled-file-scissors" x="244" y="24" width="24" height="24" />
	<use xlink:href="#filled-file-settings" x="24" y="68" width="24" height="24" />
	<use xlink:href="#filled-file-signal" x="68" y="68" width="24" height="24" />
	<use xlink:href="#filled-file-time" x="112" y="68" width="24" height="24" />
	<use xlink:href="#filled-file-unknown" x="156" y="68" width="24" height="24" />
	<use xlink:href="#filled-file-upload" x="200" y="68" width="24" height="24" />
	<use xlink:href="#filled-file-vector" x="244" y="68" width="24" height="24" />
	<use xlink:href="#filled-files" x="24" y="112" width="24" height="24" />
	<use xlink:href="#filled-registered" x="68" y="112" width="24" height="24" />
	<use xlink:href="#filled-video-minus" x="112" y="112" width="24" height="24" />
	<use xlink:href="#filled-video-plus" x="156" y="112" width="24" height="24" />
	<use xlink:href="#filled-writing-sign" x="200" y="112" width="24" height="24" />
	<use xlink:href="#filled-writing" x="244" y="112" width="24" height="24" />

</svg>