<svg xmlns="http://www.w3.org/2000/svg" xmlns:xlink="http://www.w3.org/1999/xlink" viewBox="0 0 322 172" width="322" height="172" style="color: #354052"><rect x="0" y="0" width="322" height="172" fill="#fff"></rect>
	<symbol id="cardboards" class="icon icon-tabler icon-tabler-cardboards" viewBox="0 0 24 24" stroke-width="2" stroke="currentColor" fill="none" stroke-linecap="round" stroke-linejoin="round"><path stroke="none" d="M0 0h24v24H0z" fill="none"/><path d="M3 7v8.5a2.5 2.5 0 0 0 2.5 2.5h1.06a3 3 0 0 0 2.34 -1.13l1.54 -1.92a2 2 0 0 1 3.12 0l1.54 1.92a3 3 0 0 0 2.34 1.13h1.06a2.5 2.5 0 0 0 2.5 -2.5v-8.5a2 2 0 0 0 -2 -2h-14a2 2 0 0 0 -2 2z" /><circle cx="8" cy="11" r="1" /><circle cx="16" cy="11" r="1" />
</symbol>
	<symbol id="ce" class="icon icon-tabler icon-tabler-ce" viewBox="0 0 24 24" stroke-width="2" stroke="currentColor" fill="none" stroke-linecap="round" stroke-linejoin="round"><path stroke="none" d="M0 0h24v24H0z" fill="none"/><path d="M11 4a8 8 0 1 0 0 16" /><path d="M20 4a8 8 0 1 0 0 16" /><line x1="12" y1="12" x2="20" y2="12" />
</symbol>
	<symbol id="certificate" class="icon icon-tabler icon-tabler-certificate" viewBox="0 0 24 24" stroke-width="2" stroke="currentColor" fill="none" stroke-linecap="round" stroke-linejoin="round"><path stroke="none" d="M0 0h24v24H0z" fill="none"/><circle cx="15" cy="15" r="3" /><path d="M13 17.5v4.5l2 -1.5l2 1.5v-4.5" /><path d="M10 19h-5a2 2 0 0 1 -2 -2v-10c0 -1.1 .9 -2 2 -2h14a2 2 0 0 1 2 2v10a2 2 0 0 1 -1 1.73" /><line x1="6" y1="9" x2="18" y2="9" /><line x1="6" y1="12" x2="9" y2="12" /><line x1="6" y1="15" x2="8" y2="15" />
</symbol>
	<symbol id="chart-radar" class="icon icon-tabler icon-tabler-chart-radar" viewBox="0 0 24 24" stroke-width="2" stroke="currentColor" fill="none" stroke-linecap="round" stroke-linejoin="round"><path stroke="none" d="M0 0h24v24H0z" fill="none"/><path d="M12 3l9.5 7l-3.5 11h-12l-3.5 -11z" /><path d="M12 7.5l5.5 4l-2.5 5.5h-6.5l-2 -5.5z" /><path d="M2.5 10l9.5 3 9.5-3" /><path d="M12 3v10l6 8" /><path d="M6 21l6-8" />
</symbol>
	<symbol id="christmas-tree" class="icon icon-tabler icon-tabler-christmas-tree" viewBox="0 0 24 24" stroke-width="2" stroke="currentColor" fill="none" stroke-linecap="round" stroke-linejoin="round"><path stroke="none" d="M0 0h24v24H0z" fill="none"/><path d="M12 3l4 4l-2 1l4 4l-3 1l4 4h-14l4 -4l-3 -1l4 -4l-2 -1z" /><path d="M14 17v3a1 1 0 0 1 -1 1h-2a1 1 0 0 1 -1 -1v-3" />
</symbol>
	<symbol id="drone" class="icon icon-tabler icon-tabler-drone" viewBox="0 0 24 24" stroke-width="2" stroke="currentColor" fill="none" stroke-linecap="round" stroke-linejoin="round"><path stroke="none" d="M0 0h24v24H0z" fill="none"/><path d="M10 10h4v4h-4z" /><line x1="10" y1="10" x2="6.5" y2="6.5" /><path d="M9.96 6a3.5 3.5 0 1 0 -3.96 3.96" /><path d="M14 10l3.5-3.5" /><path d="M18 9.96a3.5 3.5 0 1 0 -3.96 -3.96" /><line x1="14" y1="14" x2="17.5" y2="17.5" /><path d="M14.04 18a3.5 3.5 0 1 0 3.96 -3.96" /><line x1="10" y1="14" x2="6.5" y2="17.5" /><path d="M6 14.04a3.5 3.5 0 1 0 3.96 3.96" />
</symbol>
	<symbol id="gps" class="icon icon-tabler icon-tabler-gps" viewBox="0 0 24 24" stroke-width="2" stroke="currentColor" fill="none" stroke-linecap="round" stroke-linejoin="round"><path stroke="none" d="M0 0h24v24H0z" fill="none"/><circle cx="12" cy="12" r="8" /><path d="M12 8l-3 7.5 3-1.5 3 1.5z" />
</symbol>
	<symbol id="manual-gearbox" class="icon icon-tabler icon-tabler-manual-gearbox" viewBox="0 0 24 24" stroke-width="2" stroke="currentColor" fill="none" stroke-linecap="round" stroke-linejoin="round"><path stroke="none" d="M0 0h24v24H0z" fill="none"/><circle cx="5" cy="6" r="2" /><circle cx="12" cy="6" r="2" /><circle cx="19" cy="6" r="2" /><circle cx="5" cy="18" r="2" /><circle cx="12" cy="18" r="2" /><line x1="5" y1="8" x2="5" y2="16" /><line x1="12" y1="8" x2="12" y2="16" /><path d="M19 8v2a2 2 0 0 1 -2 2h-12" />
</symbol>
	<symbol id="parachute" class="icon icon-tabler icon-tabler-parachute" viewBox="0 0 24 24" stroke-width="2" stroke="currentColor" fill="none" stroke-linecap="round" stroke-linejoin="round"><path stroke="none" d="M0 0h24v24H0z" fill="none"/><path d="M22 12a10 10 0 1 0 -20 0" /><path d="M22 12c0 -1.66 -1.46 -3 -3.25 -3c-1.8 0 -3.25 1.34 -3.25 3c0 -1.66 -1.57 -3 -3.5 -3s-3.5 1.34 -3.5 3c0 -1.66 -1.46 -3 -3.25 -3c-1.8 0 -3.25 1.34 -3.25 3" /><path d="M2 12l10 10l-3.5 -10" /><path d="M15.5 12l-3.5 10l10 -10" />
</symbol>
	<symbol id="pennant" class="icon icon-tabler icon-tabler-pennant" viewBox="0 0 24 24" stroke-width="2" stroke="currentColor" fill="none" stroke-linecap="round" stroke-linejoin="round"><path stroke="none" d="M0 0h24v24H0z" fill="none"/><line x1="8" y1="21" x2="12" y2="21" /><line x1="10" y1="21" x2="10" y2="3" /><path d="M10 4l9 4-9 4" />
</symbol>
	<symbol id="plant-2" class="icon icon-tabler icon-tabler-plant-2" viewBox="0 0 24 24" stroke-width="2" stroke="currentColor" fill="none" stroke-linecap="round" stroke-linejoin="round"><path stroke="none" d="M0 0h24v24H0z" fill="none"/><path d="M2 9a10 10 0 1 0 20 0" /><path d="M12 19a10 10 0 0 1 10 -10" /><path d="M2 9a10 10 0 0 1 10 10" /><path d="M12 4a9.7 9.7 0 0 1 2.99 7.5" /><path d="M9.01 11.5a9.7 9.7 0 0 1 2.99 -7.5" />
</symbol>
	<symbol id="relation-many-to-many" class="icon icon-tabler icon-tabler-relation-many-to-many" viewBox="0 0 24 24" stroke-width="2" stroke="currentColor" fill="none" stroke-linecap="round" stroke-linejoin="round"><path stroke="none" d="M0 0h24v24H0z" fill="none"/><rect x="3" y="5" width="18" height="14" rx="2" /><path d="M15 14v-4l3 4v-4" /><path d="M6 14v-4l3 4v-4" /><line x1="12" y1="10.5" x2="12" y2="10.51" /><line x1="12" y1="13.5" x2="12" y2="13.51" />
</symbol>
	<symbol id="relation-one-to-many" class="icon icon-tabler icon-tabler-relation-one-to-many" viewBox="0 0 24 24" stroke-width="2" stroke="currentColor" fill="none" stroke-linecap="round" stroke-linejoin="round"><path stroke="none" d="M0 0h24v24H0z" fill="none"/><rect x="3" y="5" width="18" height="14" rx="2" /><path d="M7 10h1v4" /><path d="M14 14v-4l3 4v-4" /><line x1="11" y1="10.5" x2="11" y2="10.51" /><line x1="11" y1="13.5" x2="11" y2="13.51" />
</symbol>
	<symbol id="relation-one-to-one" class="icon icon-tabler icon-tabler-relation-one-to-one" viewBox="0 0 24 24" stroke-width="2" stroke="currentColor" fill="none" stroke-linecap="round" stroke-linejoin="round"><path stroke="none" d="M0 0h24v24H0z" fill="none"/><rect x="3" y="5" width="18" height="14" rx="2" /><path d="M8 10h1v4" /><path d="M15 10h1v4" /><line x1="12" y1="10.5" x2="12" y2="10.51" /><line x1="12" y1="13.5" x2="12" y2="13.51" />
</symbol>
	<symbol id="ripple" class="icon icon-tabler icon-tabler-ripple" viewBox="0 0 24 24" stroke-width="2" stroke="currentColor" fill="none" stroke-linecap="round" stroke-linejoin="round"><path stroke="none" d="M0 0h24v24H0z" fill="none"/><path d="M3 7c3-2 6-2 9 0s6 2 9 0" /><path d="M3 17c3-2 6-2 9 0s6 2 9 0" /><path d="M3 12c3-2 6-2 9 0s6 2 9 0" />
</symbol>
	<symbol id="sthetoscope" class="icon icon-tabler icon-tabler-sthetoscope" viewBox="0 0 24 24" stroke-width="2" stroke="currentColor" fill="none" stroke-linecap="round" stroke-linejoin="round"><path stroke="none" d="M0 0h24v24H0z" fill="none"/><path d="M6 4h-1a2 2 0 0 0 -2 2v3.5h0a5.5 5.5 0 0 0 11 0v-3.5a2 2 0 0 0 -2 -2h-1h0" /><path d="M8 15a6 6 0 1 0 12 0v-3" /><path  d="M11 3v2" /><path  d="M6 3v2" /><circle cx="20" cy="10" r="2" />
</symbol>
	<symbol id="view-360" class="icon icon-tabler icon-tabler-view-360" viewBox="0 0 24 24" stroke-width="2" stroke="currentColor" fill="none" stroke-linecap="round" stroke-linejoin="round"><path stroke="none" d="M0 0h24v24H0z" fill="none"/><circle cx="12" cy="12" r="9" /><ellipse cx="12" cy="12" rx="4" ry="9" /><ellipse cx="12" cy="12" rx="4" ry="9" transform="rotate(90 12 12)" />
</symbol>
	<symbol id="windmill" class="icon icon-tabler icon-tabler-windmill" viewBox="0 0 24 24" stroke-width="2" stroke="currentColor" fill="none" stroke-linecap="round" stroke-linejoin="round"><path stroke="none" d="M0 0h24v24H0z" fill="none"/><path d="M12 12c2.76 0 5-2.01 5-4.5S14.76 3 12 3v9z" /><path d="M12 12c0 2.76 2.01 5 4.5 5s4.5-2.24 4.5-5h-9z" /><path d="M12 12c-2.76 0-5 2.01-5 4.5S9.24 21 12 21v-9z" /><path d="M12 12c0-2.76-2.01-5-4.5-5S3 9.24 3 12h9z" />
</symbol>

	<use xlink:href="#cardboards" x="24" y="24" width="24" height="24" />
	<use xlink:href="#ce" x="74" y="24" width="24" height="24" />
	<use xlink:href="#certificate" x="124" y="24" width="24" height="24" />
	<use xlink:href="#chart-radar" x="174" y="24" width="24" height="24" />
	<use xlink:href="#christmas-tree" x="224" y="24" width="24" height="24" />
	<use xlink:href="#drone" x="274" y="24" width="24" height="24" />
	<use xlink:href="#gps" x="24" y="74" width="24" height="24" />
	<use xlink:href="#manual-gearbox" x="74" y="74" width="24" height="24" />
	<use xlink:href="#parachute" x="124" y="74" width="24" height="24" />
	<use xlink:href="#pennant" x="174" y="74" width="24" height="24" />
	<use xlink:href="#plant-2" x="224" y="74" width="24" height="24" />
	<use xlink:href="#relation-many-to-many" x="274" y="74" width="24" height="24" />
	<use xlink:href="#relation-one-to-many" x="24" y="124" width="24" height="24" />
	<use xlink:href="#relation-one-to-one" x="74" y="124" width="24" height="24" />
	<use xlink:href="#ripple" x="124" y="124" width="24" height="24" />
	<use xlink:href="#sthetoscope" x="174" y="124" width="24" height="24" />
	<use xlink:href="#view-360" x="224" y="124" width="24" height="24" />
	<use xlink:href="#windmill" x="274" y="124" width="24" height="24" />

</svg>