<svg xmlns="http://www.w3.org/2000/svg" xmlns:xlink="http://www.w3.org/1999/xlink" viewBox="0 0 292 160" width="292" height="160" style="color: #354052"><rect x="0" y="0" width="292" height="160" fill="#fff"></rect>
	<symbol id="filter-cog" class="icon icon-tabler icon-tabler-filter-cog" viewBox="0 0 24 24" stroke-width="2" stroke="currentColor" fill="none" stroke-linecap="round" stroke-linejoin="round"><path stroke="none" d="M0 0h24v24H0z" fill="none"/><path d="M12 20l-3 1v-8.5l-4.48 -4.928a2 2 0 0 1 -.52 -1.345v-2.227h16v2.172a2 2 0 0 1 -.586 1.414l-4.414 4.414v1.5" /><path d="M19.001 19m-2 0a2 2 0 1 0 4 0a2 2 0 1 0 -4 0" /><path d="M19.001 15.5v1.5" /><path d="M19.001 21v1.5" /><path d="M22.032 17.25l-1.299 .75" /><path d="M17.27 20l-1.3 .75" /><path d="M15.97 17.25l1.3 .75" /><path d="M20.733 20l1.3 .75" />
</symbol>
	<symbol id="filter-dollar" class="icon icon-tabler icon-tabler-filter-dollar" viewBox="0 0 24 24" stroke-width="2" stroke="currentColor" fill="none" stroke-linecap="round" stroke-linejoin="round"><path stroke="none" d="M0 0h24v24H0z" fill="none"/><path d="M13.02 19.66l-4.02 1.34v-8.5l-4.48 -4.928a2 2 0 0 1 -.52 -1.345v-2.227h16v2.172a2 2 0 0 1 -.586 1.414l-4.414 4.414" /><path d="M21 15h-2.5a1.5 1.5 0 0 0 0 3h1a1.5 1.5 0 0 1 0 3h-2.5" /><path d="M19 21v1m0 -8v1" />
</symbol>
	<symbol id="filter-edit" class="icon icon-tabler icon-tabler-filter-edit" viewBox="0 0 24 24" stroke-width="2" stroke="currentColor" fill="none" stroke-linecap="round" stroke-linejoin="round"><path stroke="none" d="M0 0h24v24H0z" fill="none"/><path d="M10.97 20.344l-1.97 .656v-8.5l-4.48 -4.928a2 2 0 0 1 -.52 -1.345v-2.227h16v2.172a2 2 0 0 1 -.586 1.414l-4.414 4.414v1.5" /><path d="M18.42 15.61a2.1 2.1 0 0 1 2.97 2.97l-3.39 3.42h-3v-3l3.42 -3.39z" />
</symbol>
	<symbol id="filter-minus" class="icon icon-tabler icon-tabler-filter-minus" viewBox="0 0 24 24" stroke-width="2" stroke="currentColor" fill="none" stroke-linecap="round" stroke-linejoin="round"><path stroke="none" d="M0 0h24v24H0z" fill="none"/><path d="M12 20l-3 1v-8.5l-4.48 -4.928a2 2 0 0 1 -.52 -1.345v-2.227h16v2.172a2 2 0 0 1 -.586 1.414l-4.414 4.414v3" /><path d="M16 19h6" />
</symbol>
	<symbol id="filter-plus" class="icon icon-tabler icon-tabler-filter-plus" viewBox="0 0 24 24" stroke-width="2" stroke="currentColor" fill="none" stroke-linecap="round" stroke-linejoin="round"><path stroke="none" d="M0 0h24v24H0z" fill="none"/><path d="M12 20l-3 1v-8.5l-4.48 -4.928a2 2 0 0 1 -.52 -1.345v-2.227h16v2.172a2 2 0 0 1 -.586 1.414l-4.414 4.414v3" /><path d="M16 19h6" /><path d="M19 16v6" />
</symbol>
	<symbol id="filter-star" class="icon icon-tabler icon-tabler-filter-star" viewBox="0 0 24 24" stroke-width="2" stroke="currentColor" fill="none" stroke-linecap="round" stroke-linejoin="round"><path stroke="none" d="M0 0h24v24H0z" fill="none"/><path d="M10.971 20.343l-1.971 .657v-8.5l-4.48 -4.928a2 2 0 0 1 -.52 -1.345v-2.227h16v2.172a2 2 0 0 1 -.586 1.414" /><path d="M17.8 20.817l-2.172 1.138a.392 .392 0 0 1 -.568 -.41l.415 -2.411l-1.757 -1.707a.389 .389 0 0 1 .217 -.665l2.428 -.352l1.086 -2.193a.392 .392 0 0 1 .702 0l1.086 2.193l2.428 .352a.39 .39 0 0 1 .217 .665l-1.757 1.707l.414 2.41a.39 .39 0 0 1 -.567 .411l-2.172 -1.138z" />
</symbol>
	<symbol id="filter-x" class="icon icon-tabler icon-tabler-filter-x" viewBox="0 0 24 24" stroke-width="2" stroke="currentColor" fill="none" stroke-linecap="round" stroke-linejoin="round"><path stroke="none" d="M0 0h24v24H0z" fill="none"/><path d="M13.785 19.405l-4.785 1.595v-8.5l-4.48 -4.928a2 2 0 0 1 -.52 -1.345v-2.227h16v2.172a2 2 0 0 1 -.586 1.414l-4.414 4.414" /><path d="M22 22l-5 -5" /><path d="M17 22l5 -5" />
</symbol>
	<symbol id="mood-edit" class="icon icon-tabler icon-tabler-mood-edit" viewBox="0 0 24 24" stroke-width="2" stroke="currentColor" fill="none" stroke-linecap="round" stroke-linejoin="round"><path stroke="none" d="M0 0h24v24H0z" fill="none"/><path d="M20.955 11.104a9 9 0 1 0 -9.895 9.847" /><path d="M9 10h.01" /><path d="M15 10h.01" /><path d="M9.5 15c.658 .672 1.56 1 2.5 1c.126 0 .251 -.006 .376 -.018" /><path d="M18.42 15.61a2.1 2.1 0 0 1 2.97 2.97l-3.39 3.42h-3v-3l3.42 -3.39z" />
</symbol>
	<symbol id="mood-share" class="icon icon-tabler icon-tabler-mood-share" viewBox="0 0 24 24" stroke-width="2" stroke="currentColor" fill="none" stroke-linecap="round" stroke-linejoin="round"><path stroke="none" d="M0 0h24v24H0z" fill="none"/><path d="M20.942 13.018a9 9 0 1 0 -8.942 7.982" /><path d="M9 10h.01" /><path d="M15 10h.01" /><path d="M9.5 15c.658 .672 1.56 1 2.5 1c.213 0 .424 -.017 .63 -.05" /><path d="M16 22l5 -5" /><path d="M21 21.5v-4.5h-4.5" />
</symbol>
	<symbol id="progress-alert" class="icon icon-tabler icon-tabler-progress-alert" viewBox="0 0 24 24" stroke-width="2" stroke="currentColor" fill="none" stroke-linecap="round" stroke-linejoin="round"><path stroke="none" d="M0 0h24v24H0z" fill="none"/><path d="M10 20.777a8.942 8.942 0 0 1 -2.48 -.969" /><path d="M14 3.223a9.003 9.003 0 0 1 0 17.554" /><path d="M4.579 17.093a8.961 8.961 0 0 1 -1.227 -2.592" /><path d="M3.124 10.5c.16 -.95 .468 -1.85 .9 -2.675l.169 -.305" /><path d="M6.907 4.579a8.954 8.954 0 0 1 3.093 -1.356" /><path d="M12 8v4" /><path d="M12 16v.01" />
</symbol>
	<symbol id="progress-bolt" class="icon icon-tabler icon-tabler-progress-bolt" viewBox="0 0 24 24" stroke-width="2" stroke="currentColor" fill="none" stroke-linecap="round" stroke-linejoin="round"><path stroke="none" d="M0 0h24v24H0z" fill="none"/><path d="M10 20.777a8.942 8.942 0 0 1 -2.48 -.969" /><path d="M14 3.223a9.003 9.003 0 0 1 0 17.554" /><path d="M4.579 17.093a8.961 8.961 0 0 1 -1.227 -2.592" /><path d="M3.124 10.5c.16 -.95 .468 -1.85 .9 -2.675l.169 -.305" /><path d="M6.907 4.579a8.954 8.954 0 0 1 3.093 -1.356" /><path d="M12 9l-2 3h4l-2 3" />
</symbol>
	<symbol id="progress-check" class="icon icon-tabler icon-tabler-progress-check" viewBox="0 0 24 24" stroke-width="2" stroke="currentColor" fill="none" stroke-linecap="round" stroke-linejoin="round"><path stroke="none" d="M0 0h24v24H0z" fill="none"/><path d="M10 20.777a8.942 8.942 0 0 1 -2.48 -.969" /><path d="M14 3.223a9.003 9.003 0 0 1 0 17.554" /><path d="M4.579 17.093a8.961 8.961 0 0 1 -1.227 -2.592" /><path d="M3.124 10.5c.16 -.95 .468 -1.85 .9 -2.675l.169 -.305" /><path d="M6.907 4.579a8.954 8.954 0 0 1 3.093 -1.356" /><path d="M9 12l2 2l4 -4" />
</symbol>
	<symbol id="progress-down" class="icon icon-tabler icon-tabler-progress-down" viewBox="0 0 24 24" stroke-width="2" stroke="currentColor" fill="none" stroke-linecap="round" stroke-linejoin="round"><path stroke="none" d="M0 0h24v24H0z" fill="none"/><path d="M10 20.777a8.942 8.942 0 0 1 -2.48 -.969" /><path d="M14 3.223a9.003 9.003 0 0 1 0 17.554" /><path d="M4.579 17.093a8.961 8.961 0 0 1 -1.227 -2.592" /><path d="M3.124 10.5c.16 -.95 .468 -1.85 .9 -2.675l.169 -.305" /><path d="M6.907 4.579a8.954 8.954 0 0 1 3.093 -1.356" /><path d="M12 9v6" /><path d="M15 12l-3 3l-3 -3" />
</symbol>
	<symbol id="progress-help" class="icon icon-tabler icon-tabler-progress-help" viewBox="0 0 24 24" stroke-width="2" stroke="currentColor" fill="none" stroke-linecap="round" stroke-linejoin="round"><path stroke="none" d="M0 0h24v24H0z" fill="none"/><path d="M12 16v.01" /><path d="M12 13a2 2 0 0 0 .914 -3.782a1.98 1.98 0 0 0 -2.414 .483" /><path d="M10 20.777a8.942 8.942 0 0 1 -2.48 -.969" /><path d="M14 3.223a9.003 9.003 0 0 1 0 17.554" /><path d="M4.579 17.093a8.961 8.961 0 0 1 -1.227 -2.592" /><path d="M3.124 10.5c.16 -.95 .468 -1.85 .9 -2.675l.169 -.305" /><path d="M6.907 4.579a8.954 8.954 0 0 1 3.093 -1.356" />
</symbol>
	<symbol id="progress-x" class="icon icon-tabler icon-tabler-progress-x" viewBox="0 0 24 24" stroke-width="2" stroke="currentColor" fill="none" stroke-linecap="round" stroke-linejoin="round"><path stroke="none" d="M0 0h24v24H0z" fill="none"/><path d="M10 20.777a8.942 8.942 0 0 1 -2.48 -.969" /><path d="M14 3.223a9.003 9.003 0 0 1 0 17.554" /><path d="M4.579 17.093a8.961 8.961 0 0 1 -1.227 -2.592" /><path d="M3.124 10.5c.16 -.95 .468 -1.85 .9 -2.675l.169 -.305" /><path d="M6.907 4.579a8.954 8.954 0 0 1 3.093 -1.356" /><path d="M14 14l-4 -4" /><path d="M10 14l4 -4" />
</symbol>
	<symbol id="progress" class="icon icon-tabler icon-tabler-progress" viewBox="0 0 24 24" stroke-width="2" stroke="currentColor" fill="none" stroke-linecap="round" stroke-linejoin="round"><path stroke="none" d="M0 0h24v24H0z" fill="none"/><path d="M10 20.777a8.942 8.942 0 0 1 -2.48 -.969" /><path d="M14 3.223a9.003 9.003 0 0 1 0 17.554" /><path d="M4.579 17.093a8.961 8.961 0 0 1 -1.227 -2.592" /><path d="M3.124 10.5c.16 -.95 .468 -1.85 .9 -2.675l.169 -.305" /><path d="M6.907 4.579a8.954 8.954 0 0 1 3.093 -1.356" />
</symbol>
	<symbol id="users-minus" class="icon icon-tabler icon-tabler-users-minus" viewBox="0 0 24 24" stroke-width="2" stroke="currentColor" fill="none" stroke-linecap="round" stroke-linejoin="round"><path stroke="none" d="M0 0h24v24H0z" fill="none"/><path d="M5 7a4 4 0 1 0 8 0a4 4 0 0 0 -8 0" /><path d="M3 21v-2a4 4 0 0 1 4 -4h4c.948 0 1.818 .33 2.504 .88" /><path d="M16 3.13a4 4 0 0 1 0 7.75" /><path d="M16 19h6" />
</symbol>
	<symbol id="users-plus" class="icon icon-tabler icon-tabler-users-plus" viewBox="0 0 24 24" stroke-width="2" stroke="currentColor" fill="none" stroke-linecap="round" stroke-linejoin="round"><path stroke="none" d="M0 0h24v24H0z" fill="none"/><path d="M5 7a4 4 0 1 0 8 0a4 4 0 0 0 -8 0" /><path d="M3 21v-2a4 4 0 0 1 4 -4h4c.96 0 1.84 .338 2.53 .901" /><path d="M16 3.13a4 4 0 0 1 0 7.75" /><path d="M16 19h6" /><path d="M19 16v6" />
</symbol>

	<use xlink:href="#filter-cog" x="24" y="24" width="24" height="24" />
	<use xlink:href="#filter-dollar" x="68" y="24" width="24" height="24" />
	<use xlink:href="#filter-edit" x="112" y="24" width="24" height="24" />
	<use xlink:href="#filter-minus" x="156" y="24" width="24" height="24" />
	<use xlink:href="#filter-plus" x="200" y="24" width="24" height="24" />
	<use xlink:href="#filter-star" x="244" y="24" width="24" height="24" />
	<use xlink:href="#filter-x" x="24" y="68" width="24" height="24" />
	<use xlink:href="#mood-edit" x="68" y="68" width="24" height="24" />
	<use xlink:href="#mood-share" x="112" y="68" width="24" height="24" />
	<use xlink:href="#progress-alert" x="156" y="68" width="24" height="24" />
	<use xlink:href="#progress-bolt" x="200" y="68" width="24" height="24" />
	<use xlink:href="#progress-check" x="244" y="68" width="24" height="24" />
	<use xlink:href="#progress-down" x="24" y="112" width="24" height="24" />
	<use xlink:href="#progress-help" x="68" y="112" width="24" height="24" />
	<use xlink:href="#progress-x" x="112" y="112" width="24" height="24" />
	<use xlink:href="#progress" x="156" y="112" width="24" height="24" />
	<use xlink:href="#users-minus" x="200" y="112" width="24" height="24" />
	<use xlink:href="#users-plus" x="244" y="112" width="24" height="24" />

</svg>