<svg xmlns="http://www.w3.org/2000/svg" xmlns:xlink="http://www.w3.org/1999/xlink" viewBox="0 0 292 160" width="292" height="160" style="color: #354052"><rect x="0" y="0" width="292" height="160" fill="#fff"></rect>
	<symbol id="filled-chart-dots-2" xmlns="http://www.w3.org/2000/svg" width="24" height="24" viewBox="0 0 24 24" fill="currentColor"
> <path d="M3 2a1 1 0 0 1 1 1v17h17a1 1 0 0 1 .993 .883l.007 .117a1 1 0 0 1 -1 1h-18a1 1 0 0 1 -1 -1v-18a1 1 0 0 1 1 -1m18.97 .757a1 1 0 0 1 -.727 1.213l-5.256 1.314a3 3 0 0 1 -.55 1.465l1.768 2.358a3.003 3.003 0 0 1 3.795 2.893a3 3 0 0 1 -5.436 1.751l-3.57 1.428a3 3 0 0 1 -5.994 -.179l.005 -.176a3 3 0 0 1 5.43 -1.576l3.57 -1.428l.015 -.17c.06 -.518 .253 -.996 .542 -1.4l-1.767 -2.357a3.003 3.003 0 0 1 -3.795 -2.893l.005 -.176a3 3 0 0 1 5.497 -1.48l5.255 -1.314a1 1 0 0 1 1.213 .727" />
</symbol>
	<symbol id="filled-chart-dots-3" xmlns="http://www.w3.org/2000/svg" width="24" height="24" viewBox="0 0 24 24" fill="currentColor"
> <path d="M18 2a4 4 0 1 1 -3.843 5.114l-6.295 .786a3 3 0 0 1 -.094 .257l6.446 4.431a3 3 0 1 1 -.695 4.099l-3.527 1.058q .008 .127 .008 .255a4 4 0 1 1 -8 0l.005 -.2a4 4 0 0 1 7.366 -1.954l3.64 -1.094l.01 -.102q .023 -.204 .074 -.4l-6.688 -4.6a3 3 0 0 1 -4.407 -2.65l.005 -.176a3 3 0 0 1 5.784 -.931l6.312 -.79a4 4 0 0 1 3.899 -3.103" />
</symbol>
	<symbol id="filled-chart-funnel" xmlns="http://www.w3.org/2000/svg" width="24" height="24" viewBox="0 0 24 24" fill="currentColor"
> <path d="M17.72 16l-1.315 3.948a3 3 0 0 1 -2.847 2.052h-3.116a3 3 0 0 1 -2.847 -2.052l-1.315 -3.948zm2 -6l-1.333 4h-12.774l-1.333 -4zm-.106 -8a2 2 0 0 1 1.896 2.632l-1.123 3.368h-16.774l-1.123 -3.368a2 2 0 0 1 1.72 -2.624l.177 -.008z" />
</symbol>
	<symbol id="filled-chart-pie-2" xmlns="http://www.w3.org/2000/svg" width="24" height="24" viewBox="0 0 24 24" fill="currentColor"
> <path d="M11 2.05v9.95a1 1 0 0 0 1 1h9.95a10 10 0 0 1 -19.95 -1l.005 -.324a10 10 0 0 1 8.995 -9.626m6 1.29a10 10 0 0 1 4.95 7.66h-8.95v-8.95a10 10 0 0 1 4 1.29" />
</symbol>
	<symbol id="filled-chart-pie-3" xmlns="http://www.w3.org/2000/svg" width="24" height="24" viewBox="0 0 24 24" fill="currentColor"
> <path d="M17 20.66a10 10 0 0 1 -11.328 -.917l6.742 -6.743h9.536a10 10 0 0 1 -4.95 7.66m-6 -18.61v9.534l-6.743 6.744a10 10 0 0 1 -2.257 -6.328l.005 -.324a10 10 0 0 1 8.995 -9.626m6 1.29a10 10 0 0 1 4.95 7.66h-8.95v-8.95a10 10 0 0 1 4 1.29" />
</symbol>
	<symbol id="filled-chart-pie-4" xmlns="http://www.w3.org/2000/svg" width="24" height="24" viewBox="0 0 24 24" fill="currentColor"
> <path d="M11.844 13.57l4.843 7.264a10 10 0 0 1 -11.015 -1.09zm6.507 6.154l-4.481 -6.724h8.081a10 10 0 0 1 -3.348 6.511zm-7.35 -17.674v9.534l-6.744 6.744a10 10 0 0 1 -2.257 -6.328l.005 -.324a10 10 0 0 1 8.995 -9.626m6 1.29a10 10 0 0 1 4.95 7.66h-8.95v-8.95a10 10 0 0 1 4 1.29" />
</symbol>
	<symbol id="filled-chef-hat" xmlns="http://www.w3.org/2000/svg" width="24" height="24" viewBox="0 0 24 24" fill="currentColor"
> <path d="M19 19.002v1.998a1 1 0 0 1 -.883 .993l-.117 .007h-12a1 1 0 0 1 -1 -1v-1.994a1 1 0 0 1 1 -1l12 -.004a1 1 0 0 1 1 1" /> <path d="M12 2a5 5 0 0 1 4.533 2.888l.06 .137l.136 -.009a5 5 0 0 1 4.99 3.477l.063 .213a5 5 0 0 1 -2.696 5.831l-.087 .037v1.428a1 1 0 0 1 -1 1l-12 .004a1 1 0 0 1 -.993 -.883l-.007 -.117v-1.433l-.123 -.055a5 5 0 0 1 -2.6 -3.001l-.064 -.223a5 5 0 0 1 5.193 -6.27l.066 -.142a5 5 0 0 1 4.302 -2.877z" />
</symbol>
	<symbol id="filled-circle-caret-down" xmlns="http://www.w3.org/2000/svg" width="24" height="24" viewBox="0 0 24 24" fill="currentColor"
> <path d="M17 3.34a10 10 0 1 1 -15 8.66l.005 -.324a10 10 0 0 1 14.995 -8.336m-2 6.66h-6a1 1 0 0 0 -.708 1.707l3 3a1 1 0 0 0 1.415 0l3 -3a1 1 0 0 0 0 -1.414l-.094 -.083a1 1 0 0 0 -.613 -.21" />
</symbol>
	<symbol id="filled-circle-caret-left" xmlns="http://www.w3.org/2000/svg" width="24" height="24" viewBox="0 0 24 24" fill="currentColor"
> <path d="M12 2c5.523 0 10 4.477 10 10s-4.477 10 -10 10a10 10 0 1 1 0 -20m2 13v-6a1 1 0 0 0 -1.707 -.708l-3 3a1 1 0 0 0 0 1.415l3 3a1 1 0 0 0 1.414 0l.083 -.094c.14 -.18 .21 -.396 .21 -.613" />
</symbol>
	<symbol id="filled-circle-caret-right" xmlns="http://www.w3.org/2000/svg" width="24" height="24" viewBox="0 0 24 24" fill="currentColor"
> <path d="M17 3.34a10 10 0 1 1 -15 8.66l.005 -.324a10 10 0 0 1 14.995 -8.336m-5.293 4.953a1 1 0 0 0 -1.707 .707v6c0 .217 .07 .433 .21 .613l.083 .094a1 1 0 0 0 1.414 0l3 -3a1 1 0 0 0 0 -1.414z" />
</symbol>
	<symbol id="filled-circle-caret-up" xmlns="http://www.w3.org/2000/svg" width="24" height="24" viewBox="0 0 24 24" fill="currentColor"
> <path d="M17 3.34a10 10 0 1 1 -15 8.66l.005 -.324a10 10 0 0 1 14.995 -8.336m-4.293 5.953a1 1 0 0 0 -1.414 0l-3 3a1 1 0 0 0 .707 1.707h6c.217 0 .433 -.07 .613 -.21l.094 -.083a1 1 0 0 0 0 -1.414z" />
</symbol>
	<symbol id="filled-circle-chevron-down" xmlns="http://www.w3.org/2000/svg" width="24" height="24" viewBox="0 0 24 24" fill="currentColor"
> <path d="M12 2c5.523 0 10 4.477 10 10s-4.477 10 -10 10a10 10 0 1 1 0 -20m-2.293 8.293a1 1 0 0 0 -1.414 1.414l3 3a1 1 0 0 0 1.414 0l3 -3a1 1 0 0 0 0 -1.414l-.094 -.083a1 1 0 0 0 -1.32 .083l-2.294 2.292z" />
</symbol>
	<symbol id="filled-circle-chevron-left" xmlns="http://www.w3.org/2000/svg" width="24" height="24" viewBox="0 0 24 24" fill="currentColor"
> <path d="M17 3.34a10 10 0 0 1 5 8.66c0 5.523 -4.477 10 -10 10s-10 -4.477 -10 -10a10 10 0 0 1 15 -8.66m-3.293 4.953a1 1 0 0 0 -1.414 0l-3 3a1 1 0 0 0 0 1.414l3 3a1 1 0 0 0 1.414 0l.083 -.094a1 1 0 0 0 -.083 -1.32l-2.292 -2.293l2.292 -2.293a1 1 0 0 0 0 -1.414" />
</symbol>
	<symbol id="filled-circle-chevron-right" xmlns="http://www.w3.org/2000/svg" width="24" height="24" viewBox="0 0 24 24" fill="currentColor"
> <path d="M12 2c5.523 0 10 4.477 10 10a10 10 0 0 1 -20 0c0 -5.523 4.477 -10 10 -10m-.293 6.293a1 1 0 0 0 -1.414 0l-.083 .094a1 1 0 0 0 .083 1.32l2.292 2.293l-2.292 2.293a1 1 0 0 0 1.414 1.414l3 -3a1 1 0 0 0 0 -1.414z" />
</symbol>
	<symbol id="filled-circle-chevron-up" xmlns="http://www.w3.org/2000/svg" width="24" height="24" viewBox="0 0 24 24" fill="currentColor"
> <path d="M17 3.34a10 10 0 1 1 -15 8.66l.005 -.324a10 10 0 0 1 14.995 -8.336m-4.293 5.953a1 1 0 0 0 -1.414 0l-3 3a1 1 0 0 0 0 1.414l.094 .083a1 1 0 0 0 1.32 -.083l2.293 -2.292l2.293 2.292a1 1 0 0 0 1.414 -1.414z" />
</symbol>
	<symbol id="filled-clipboard-check" xmlns="http://www.w3.org/2000/svg" width="24" height="24" viewBox="0 0 24 24" fill="currentColor"
> <path d="M17.997 4.17a3 3 0 0 1 2.003 2.83v12a3 3 0 0 1 -3 3h-10a3 3 0 0 1 -3 -3v-12a3 3 0 0 1 2.003 -2.83a4 4 0 0 0 3.997 3.83h4a4 4 0 0 0 3.98 -3.597zm-3.704 7.123l-3.293 3.292l-1.293 -1.292a1 1 0 1 0 -1.414 1.414l2 2a1 1 0 0 0 1.414 0l4 -4a1 1 0 0 0 -1.414 -1.414m-.293 -9.293a2 2 0 1 1 0 4h-4a2 2 0 1 1 0 -4z" />
</symbol>
	<symbol id="filled-clipboard-x" xmlns="http://www.w3.org/2000/svg" width="24" height="24" viewBox="0 0 24 24" fill="currentColor"
> <path d="M17.997 4.17a3 3 0 0 1 2.003 2.83v12a3 3 0 0 1 -3 3h-10a3 3 0 0 1 -3 -3v-12a3 3 0 0 1 2.003 -2.83a4 4 0 0 0 3.997 3.83h4a4 4 0 0 0 3.98 -3.597zm-7.29 7.123a1 1 0 0 0 -1.414 0l-.083 .094a1 1 0 0 0 .083 1.32l1.292 1.293l-1.292 1.293a1 1 0 0 0 0 1.414l.094 .083a1 1 0 0 0 1.32 -.083l1.293 -1.293l1.293 1.293a1 1 0 0 0 1.414 0l.083 -.094a1 1 0 0 0 -.083 -1.32l-1.293 -1.293l1.293 -1.293a1 1 0 0 0 0 -1.414l-.094 -.083a1 1 0 0 0 -1.32 .083l-1.293 1.292zm3.293 -9.293a2 2 0 1 1 0 4h-4a2 2 0 1 1 0 -4z" />
</symbol>
	<symbol id="filled-clipboard" xmlns="http://www.w3.org/2000/svg" width="24" height="24" viewBox="0 0 24 24" fill="currentColor"
> <path d="M17.997 4.17a3 3 0 0 1 2.003 2.83v12a3 3 0 0 1 -3 3h-10a3 3 0 0 1 -3 -3v-12a3 3 0 0 1 2.003 -2.83a4 4 0 0 0 3.997 3.83h4a4 4 0 0 0 3.98 -3.597zm-3.997 -2.17a2 2 0 1 1 0 4h-4a2 2 0 1 1 0 -4z" />
</symbol>

	<use xlink:href="#filled-chart-dots-2" x="24" y="24" width="24" height="24" />
	<use xlink:href="#filled-chart-dots-3" x="68" y="24" width="24" height="24" />
	<use xlink:href="#filled-chart-funnel" x="112" y="24" width="24" height="24" />
	<use xlink:href="#filled-chart-pie-2" x="156" y="24" width="24" height="24" />
	<use xlink:href="#filled-chart-pie-3" x="200" y="24" width="24" height="24" />
	<use xlink:href="#filled-chart-pie-4" x="244" y="24" width="24" height="24" />
	<use xlink:href="#filled-chef-hat" x="24" y="68" width="24" height="24" />
	<use xlink:href="#filled-circle-caret-down" x="68" y="68" width="24" height="24" />
	<use xlink:href="#filled-circle-caret-left" x="112" y="68" width="24" height="24" />
	<use xlink:href="#filled-circle-caret-right" x="156" y="68" width="24" height="24" />
	<use xlink:href="#filled-circle-caret-up" x="200" y="68" width="24" height="24" />
	<use xlink:href="#filled-circle-chevron-down" x="244" y="68" width="24" height="24" />
	<use xlink:href="#filled-circle-chevron-left" x="24" y="112" width="24" height="24" />
	<use xlink:href="#filled-circle-chevron-right" x="68" y="112" width="24" height="24" />
	<use xlink:href="#filled-circle-chevron-up" x="112" y="112" width="24" height="24" />
	<use xlink:href="#filled-clipboard-check" x="156" y="112" width="24" height="24" />
	<use xlink:href="#filled-clipboard-x" x="200" y="112" width="24" height="24" />
	<use xlink:href="#filled-clipboard" x="244" y="112" width="24" height="24" />

</svg>