<svg xmlns="http://www.w3.org/2000/svg" xmlns:xlink="http://www.w3.org/1999/xlink" viewBox="0 0 292 160" width="292" height="160" style="color: #354052"><rect x="0" y="0" width="292" height="160" fill="#fff"></rect>
	<symbol id="outline-buildings" xmlns="http://www.w3.org/2000/svg" width="24" height="24" viewBox="0 0 24 24" fill="none" stroke="currentColor" stroke-width="2" stroke-linecap="round" stroke-linejoin="round"
> <path d="M4 21v-15c0 -1 1 -2 2 -2h5c1 0 2 1 2 2v15" /> <path d="M16 8h2c1 0 2 1 2 2v11" /> <path d="M3 21h18" /> <path d="M10 12v0" /> <path d="M10 16v0" /> <path d="M10 8v0" /> <path d="M7 12v0" /> <path d="M7 16v0" /> <path d="M7 8v0" /> <path d="M17 12v0" /> <path d="M17 16v0" />
</symbol>
	<symbol id="outline-clock-bitcoin" xmlns="http://www.w3.org/2000/svg" width="24" height="24" viewBox="0 0 24 24" fill="none" stroke="currentColor" stroke-width="2" stroke-linecap="round" stroke-linejoin="round"
> <path d="M17 21v-6m2 0v-1.5m0 9v-1.5m-2 -3h3m-1 0h.5a1.5 1.5 0 0 1 0 3h-3.5m3 -3h.5a1.5 1.5 0 0 0 0 -3h-3.5" /> <path d="M20.866 10.45a9 9 0 1 0 -7.815 10.488" /> <path d="M12 7v5l1.5 1.5" />
</symbol>
	<symbol id="outline-cloud-bitcoin" xmlns="http://www.w3.org/2000/svg" width="24" height="24" viewBox="0 0 24 24" fill="none" stroke="currentColor" stroke-width="2" stroke-linecap="round" stroke-linejoin="round"
> <path d="M17 21v-6m2 0v-1.5m0 9v-1.5m-2 -3h3m-1 0h.5a1.5 1.5 0 0 1 0 3h-3.5m3 -3h.5a1.5 1.5 0 0 0 0 -3h-3.5" /> <path d="M13.5 18.004h-6.843c-2.572 -.004 -4.657 -2.011 -4.657 -4.487s2.085 -4.482 4.657 -4.482c.393 -1.762 1.794 -3.2 3.675 -3.773c1.88 -.572 3.956 -.193 5.444 1c1.28 1.023 1.957 2.51 1.873 4.027" />
</symbol>
	<symbol id="outline-eye-bitcoin" xmlns="http://www.w3.org/2000/svg" width="24" height="24" viewBox="0 0 24 24" fill="none" stroke="currentColor" stroke-width="2" stroke-linecap="round" stroke-linejoin="round"
> <path d="M10 12a2 2 0 1 0 4 0a2 2 0 0 0 -4 0" /> <path d="M13.193 17.924q -.585 .075 -1.193 .076q -5.4 0 -9 -6q 3.6 -6 9 -6q 4.508 0 7.761 4.181" /> <path d="M17 21v-6m2 0v-1.5m0 9v-1.5m-2 -3h3m-1 0h.5a1.5 1.5 0 0 1 0 3h-3.5m3 -3h.5a1.5 1.5 0 0 0 0 -3h-3.5" />
</symbol>
	<symbol id="outline-flag-bitcoin" xmlns="http://www.w3.org/2000/svg" width="24" height="24" viewBox="0 0 24 24" fill="none" stroke="currentColor" stroke-width="2" stroke-linecap="round" stroke-linejoin="round"
> <path d="M17 21v-6m2 0v-1.5m0 9v-1.5m-2 -3h3m-1 0h.5a1.5 1.5 0 0 1 0 3h-3.5m3 -3h.5a1.5 1.5 0 0 0 0 -3h-3.5" /> <path d="M13.222 14.882a5 5 0 0 1 -1.222 -.882a5 5 0 0 0 -7 0v-9a5 5 0 0 1 7 0a5 5 0 0 0 7 0v5" /> <path d="M5 21v-7" />
</symbol>
	<symbol id="outline-heart-bitcoin" xmlns="http://www.w3.org/2000/svg" width="24" height="24" viewBox="0 0 24 24" fill="none" stroke="currentColor" stroke-width="2" stroke-linecap="round" stroke-linejoin="round"
> <path d="M17 21v-6m2 0v-1.5m0 9v-1.5m-2 -3h3m-1 0h.5a1.5 1.5 0 0 1 0 3h-3.5m3 -3h.5a1.5 1.5 0 0 0 0 -3h-3.5" /> <path d="M13 19l-1 1l-7.5 -7.428a5 5 0 1 1 7.5 -6.566a5 5 0 0 1 8.785 4.444" />
</symbol>
	<symbol id="outline-home-bitcoin" xmlns="http://www.w3.org/2000/svg" width="24" height="24" viewBox="0 0 24 24" fill="none" stroke="currentColor" stroke-width="2" stroke-linecap="round" stroke-linejoin="round"
> <path d="M17 21v-6m2 0v-1.5m0 9v-1.5m-2 -3h3m-1 0h.5a1.5 1.5 0 0 1 0 3h-3.5m3 -3h.5a1.5 1.5 0 0 0 0 -3h-3.5" /> <path d="M19.5 10.5l-7.5 -7.5l-9 9h2v7a2 2 0 0 0 2 2h6" /> <path d="M9 21v-6a2 2 0 0 1 2 -2h2c.387 0 .748 .11 1.054 .3" /> <path d="M21 15h-2.5a1.5 1.5 0 0 0 0 3h1a1.5 1.5 0 0 1 0 3h-2.5" />
</symbol>
	<symbol id="outline-label-off" xmlns="http://www.w3.org/2000/svg" width="24" height="24" viewBox="0 0 24 24" fill="none" stroke="currentColor" stroke-width="2" stroke-linecap="round" stroke-linejoin="round"
> <path d="M7 7h-1a2 2 0 0 0 -2 2v6a2 2 0 0 0 2 2h10.52a1 1 0 0 0 .394 -.081m1.86 -2.137l2.226 -2.782l-3.7 -4.625a1 1 0 0 0 -.78 -.375h-5.52" /> <path d="M3 3l18 18" />
</symbol>
	<symbol id="outline-label" xmlns="http://www.w3.org/2000/svg" width="24" height="24" viewBox="0 0 24 24" fill="none" stroke="currentColor" stroke-width="2" stroke-linecap="round" stroke-linejoin="round"
> <path d="M16.52 7h-10.52a2 2 0 0 0 -2 2v6a2 2 0 0 0 2 2h10.52a1 1 0 0 0 .78 -.375l3.7 -4.625l-3.7 -4.625a1 1 0 0 0 -.78 -.375" />
</symbol>
	<symbol id="outline-lock-bitcoin" xmlns="http://www.w3.org/2000/svg" width="24" height="24" viewBox="0 0 24 24" fill="none" stroke="currentColor" stroke-width="2" stroke-linecap="round" stroke-linejoin="round"
> <path d="M17 21v-6m2 0v-1.5m0 9v-1.5m-2 -3h3m-1 0h.5a1.5 1.5 0 0 1 0 3h-3.5m3 -3h.5a1.5 1.5 0 0 0 0 -3h-3.5" /> <path d="M13 21h-6a2 2 0 0 1 -2 -2v-6a2 2 0 0 1 2 -2h10" /> <path d="M11 16a1 1 0 1 0 2 0a1 1 0 0 0 -2 0" /> <path d="M8 11v-4a4 4 0 1 1 8 0v4" />
</symbol>
	<symbol id="outline-mail-bitcoin" xmlns="http://www.w3.org/2000/svg" width="24" height="24" viewBox="0 0 24 24" fill="none" stroke="currentColor" stroke-width="2" stroke-linecap="round" stroke-linejoin="round"
> <path d="M17 21v-6m2 0v-1.5m0 9v-1.5m-2 -3h3m-1 0h.5a1.5 1.5 0 0 1 0 3h-3.5m3 -3h.5a1.5 1.5 0 0 0 0 -3h-3.5" /> <path d="M13.5 19h-8.5a2 2 0 0 1 -2 -2v-10a2 2 0 0 1 2 -2h14a2 2 0 0 1 2 2v4" /> <path d="M3 7l9 6l9 -6" />
</symbol>
	<symbol id="outline-math-ctg" xmlns="http://www.w3.org/2000/svg" width="24" height="24" viewBox="0 0 24 24" fill="none" stroke="currentColor" stroke-width="2" stroke-linecap="round" stroke-linejoin="round"
> <path d="M10 8h4" /> <path d="M21 8h-2a2 2 0 0 0 -2 2v4a2 2 0 0 0 2 2h2v-4h-1" /> <path d="M12 8v8" /> <path d="M7 10a2 2 0 1 0 -4 0v4a2 2 0 1 0 4 0" />
</symbol>
	<symbol id="outline-math-sec" xmlns="http://www.w3.org/2000/svg" width="24" height="24" viewBox="0 0 24 24" fill="none" stroke="currentColor" stroke-width="2" stroke-linecap="round" stroke-linejoin="round"
> <path d="M3 15c.345 .6 1.258 1 2 1a2 2 0 1 0 0 -4a2 2 0 1 1 0 -4c.746 0 1.656 .394 2 1" /> <path d="M21 10a2 2 0 1 0 -4 0v4a2 2 0 1 0 4 0" /> <path d="M14 8h-4v8h4" /> <path d="M10 12h2.5" />
</symbol>
	<symbol id="outline-math-tg" xmlns="http://www.w3.org/2000/svg" width="24" height="24" viewBox="0 0 24 24" fill="none" stroke="currentColor" stroke-width="2" stroke-linecap="round" stroke-linejoin="round"
> <path d="M7 8h4" /> <path d="M9 8v8" /> <path d="M18 8h-2a2 2 0 0 0 -2 2v4a2 2 0 0 0 2 2h2v-4h-1" />
</symbol>
	<symbol id="outline-mood-bitcoin" xmlns="http://www.w3.org/2000/svg" width="24" height="24" viewBox="0 0 24 24" fill="none" stroke="currentColor" stroke-width="2" stroke-linecap="round" stroke-linejoin="round"
> <path d="M17 21v-6m2 0v-1.5m0 9v-1.5m-2 -3h3m-1 0h.5a1.5 1.5 0 0 1 0 3h-3.5m3 -3h.5a1.5 1.5 0 0 0 0 -3h-3.5" /> <path d="M20.87 10.48a9 9 0 1 0 -7.876 10.465" /> <path d="M9 10h.01" /> <path d="M15 10h.01" /> <path d="M9.5 15c.658 .64 1.56 1 2.5 1c.357 0 .709 -.052 1.043 -.151" />
</symbol>
	<symbol id="outline-photo-bitcoin" xmlns="http://www.w3.org/2000/svg" width="24" height="24" viewBox="0 0 24 24" fill="none" stroke="currentColor" stroke-width="2" stroke-linecap="round" stroke-linejoin="round"
> <path d="M17 21v-6m2 0v-1.5m0 9v-1.5m-2 -3h3m-1 0h.5a1.5 1.5 0 0 1 0 3h-3.5m3 -3h.5a1.5 1.5 0 0 0 0 -3h-3.5" /> <path d="M15 8h.01" /> <path d="M13 21h-7a3 3 0 0 1 -3 -3v-12a3 3 0 0 1 3 -3h12a3 3 0 0 1 3 3v5" /> <path d="M3 16l5 -5c.928 -.893 2.072 -.893 3 0l2.5 2.5" />
</symbol>
	<symbol id="outline-user-bitcoin" xmlns="http://www.w3.org/2000/svg" width="24" height="24" viewBox="0 0 24 24" fill="none" stroke="currentColor" stroke-width="2" stroke-linecap="round" stroke-linejoin="round"
> <path d="M17 21v-6m2 0v-1.5m0 9v-1.5m-2 -3h3m-1 0h.5a1.5 1.5 0 0 1 0 3h-3.5m3 -3h.5a1.5 1.5 0 0 0 0 -3h-3.5" /> <path d="M8 7a4 4 0 1 0 8 0a4 4 0 0 0 -8 0" /> <path d="M6 21v-2a4 4 0 0 1 4 -4h3" />
</symbol>
	<symbol id="filled-label" xmlns="http://www.w3.org/2000/svg" width="24" height="24" viewBox="0 0 24 24" fill="currentColor"
> <path d="M16.52 6a2 2 0 0 1 1.561 .75l3.7 4.625a1 1 0 0 1 0 1.25l-3.7 4.624a2 2 0 0 1 -1.561 .751h-10.52a3 3 0 0 1 -3 -3v-6a3 3 0 0 1 3 -3z" />
</symbol>

	<use xlink:href="#outline-buildings" x="24" y="24" width="24" height="24" />
	<use xlink:href="#outline-clock-bitcoin" x="68" y="24" width="24" height="24" />
	<use xlink:href="#outline-cloud-bitcoin" x="112" y="24" width="24" height="24" />
	<use xlink:href="#outline-eye-bitcoin" x="156" y="24" width="24" height="24" />
	<use xlink:href="#outline-flag-bitcoin" x="200" y="24" width="24" height="24" />
	<use xlink:href="#outline-heart-bitcoin" x="244" y="24" width="24" height="24" />
	<use xlink:href="#outline-home-bitcoin" x="24" y="68" width="24" height="24" />
	<use xlink:href="#outline-label-off" x="68" y="68" width="24" height="24" />
	<use xlink:href="#outline-label" x="112" y="68" width="24" height="24" />
	<use xlink:href="#outline-lock-bitcoin" x="156" y="68" width="24" height="24" />
	<use xlink:href="#outline-mail-bitcoin" x="200" y="68" width="24" height="24" />
	<use xlink:href="#outline-math-ctg" x="244" y="68" width="24" height="24" />
	<use xlink:href="#outline-math-sec" x="24" y="112" width="24" height="24" />
	<use xlink:href="#outline-math-tg" x="68" y="112" width="24" height="24" />
	<use xlink:href="#outline-mood-bitcoin" x="112" y="112" width="24" height="24" />
	<use xlink:href="#outline-photo-bitcoin" x="156" y="112" width="24" height="24" />
	<use xlink:href="#outline-user-bitcoin" x="200" y="112" width="24" height="24" />
	<use xlink:href="#filled-label" x="244" y="112" width="24" height="24" />

</svg>