<svg xmlns="http://www.w3.org/2000/svg" xmlns:xlink="http://www.w3.org/1999/xlink" viewBox="0 0 322 122" width="322" height="122" style="color: #354052"><rect x="0" y="0" width="322" height="122" fill="#fff"></rect>
	<symbol id="brand-appstore" class="icon icon-tabler icon-tabler-brand-appstore" viewBox="0 0 24 24" stroke-width="2" stroke="currentColor" fill="none" stroke-linecap="round" stroke-linejoin="round"><path stroke="none" d="M0 0h24v24H0z" fill="none"/><circle cx="12" cy="12" r="9" /><path d="M8 16l1.106 -1.99m1.4 -2.522l2.494 -4.488" /><path d="M7 14h5m2.9 0h2.1" /><path d="M16 16l-2.51 -4.518m-1.487 -2.677l-1.003 -1.805" />
</symbol>
	<symbol id="brand-google-play" class="icon icon-tabler icon-tabler-brand-google-play" viewBox="0 0 24 24" stroke-width="2" stroke="currentColor" fill="none" stroke-linecap="round" stroke-linejoin="round"><path stroke="none" d="M0 0h24v24H0z" fill="none"/><path d="M4 3.71v16.58a0.7 .7 0 0 0 1.05 .606l14.622 -8.42a0.55 .55 0 0 0 0 -.953l-14.622 -8.419a0.7 .7 0 0 0 -1.05 .607z" /><line x1="15" y1="9" x2="4.5" y2="20.5" /><line x1="4.5" y1="3.5" x2="15" y2="15" />
</symbol>
	<symbol id="building-monument" class="icon icon-tabler icon-tabler-building-monument" viewBox="0 0 24 24" stroke-width="2" stroke="currentColor" fill="none" stroke-linecap="round" stroke-linejoin="round"><path stroke="none" d="M0 0h24v24H0z" fill="none"/><path d="M8 18l2 -13l2 -2l2 2l2 13" /><path d="M5 21v-3h14v3" /><line x1="3" y1="21" x2="21" y2="21" />
</symbol>
	<symbol id="circle-dashed" class="icon icon-tabler icon-tabler-circle-dashed" viewBox="0 0 24 24" stroke-width="2" stroke="currentColor" fill="none" stroke-linecap="round" stroke-linejoin="round"><path stroke="none" d="M0 0h24v24H0z" fill="none"/><path d="M8.56 3.69a9 9 0 0 0 -2.92 1.95" /><path d="M3.69 8.56a9 9 0 0 0 -.69 3.44" /><path d="M3.69 15.44a9 9 0 0 0 1.95 2.92" /><path d="M8.56 20.31a9 9 0 0 0 3.44 .69" /><path d="M15.44 20.31a9 9 0 0 0 2.92 -1.95" /><path d="M20.31 15.44a9 9 0 0 0 .69 -3.44" /><path d="M20.31 8.56a9 9 0 0 0 -1.95 -2.92" /><path d="M15.44 3.69a9 9 0 0 0 -3.44 -.69" />
</symbol>
	<symbol id="circle-dotted" class="icon icon-tabler icon-tabler-circle-dotted" viewBox="0 0 24 24" stroke-width="2" stroke="currentColor" fill="none" stroke-linecap="round" stroke-linejoin="round"><path stroke="none" d="M0 0h24v24H0z" fill="none"/><line x1="7.5" y1="4.21" x2="7.5" y2="4.22" /><line x1="4.21" y1="7.5" x2="4.21" y2="7.51" /><line x1="3" y1="12" x2="3" y2="12.01" /><line x1="4.21" y1="16.5" x2="4.21" y2="16.51" /><line x1="7.5" y1="19.79" x2="7.5" y2="19.8" /><line x1="12" y1="21" x2="12" y2="21.01" /><line x1="16.5" y1="19.79" x2="16.5" y2="19.8" /><line x1="19.79" y1="16.5" x2="19.79" y2="16.51" /><line x1="21" y1="12" x2="21" y2="12.01" /><line x1="19.79" y1="7.5" x2="19.79" y2="7.51" /><line x1="16.5" y1="4.21" x2="16.5" y2="4.22" /><line x1="12" y1="3" x2="12" y2="3.01" />
</symbol>
	<symbol id="devices-2" class="icon icon-tabler icon-tabler-devices-2" viewBox="0 0 24 24" stroke-width="2" stroke="currentColor" fill="none" stroke-linecap="round" stroke-linejoin="round"><path stroke="none" d="M0 0h24v24H0z" fill="none"/><path d="M10 15h-6a1 1 0 0 1 -1 -1v-8a1 1 0 0 1 1 -1h6" /><rect x="13" y="4" width="8" height="16" rx="1" /><line x1="7" y1="19" x2="10" y2="19" /><line x1="17" y1="8" x2="17" y2="8.01" /><circle cx="17" cy="16" r="1" /><line x1="9" y1="15" x2="9" y2="19" />
</symbol>
	<symbol id="file-dislike" class="icon icon-tabler icon-tabler-file-dislike" viewBox="0 0 24 24" stroke-width="2" stroke="currentColor" fill="none" stroke-linecap="round" stroke-linejoin="round"><path stroke="none" d="M0 0h24v24H0z" fill="none"/><rect x="4" y="14" width="3" height="5" rx="1" /><path d="M7 15a1 1 0 0 1 1 -1h3.756a1 1 0 0 1 .958 .713l1.2 3c.09 .303 .133 .63 -.056 .884c-.188 .254 -.542 .403 -.858 .403h-2v2.467a1.1 1.1 0 0 1 -2.015 .61l-1.985 -3.077v-4z" /><path d="M15 3v4a1 1 0 0 0 1 1h4" /><path d="M6 11v-6a2 2 0 0 1 2 -2h7l5 5v11a2 2 0 0 1 -2 2h-2.5" />
</symbol>
	<symbol id="file-like" class="icon icon-tabler icon-tabler-file-like" viewBox="0 0 24 24" stroke-width="2" stroke="currentColor" fill="none" stroke-linecap="round" stroke-linejoin="round"><path stroke="none" d="M0 0h24v24H0z" fill="none"/><rect x="4" y="16" width="3" height="5" rx="1" /><path d="M7 20a1 1 0 0 0 1 1h3.756a1 1 0 0 0 .958 -.713l1.2 -3c.09 -.303 .133 -.63 -.056 -.884c-.188 -.254 -.542 -.403 -.858 -.403h-2v-2.467a1.1 1.1 0 0 0 -2.015 -.61l-1.985 3.077v4z" /><path d="M15 3v4a1 1 0 0 0 1 1h4" /><path d="M6 12.1v-7.1a2 2 0 0 1 2 -2h7l5 5v11a2 2 0 0 1 -2 2h-2.3" />
</symbol>
	<symbol id="filter-off" class="icon icon-tabler icon-tabler-filter-off" viewBox="0 0 24 24" stroke-width="2" stroke="currentColor" fill="none" stroke-linecap="round" stroke-linejoin="round"><path stroke="none" d="M0 0h24v24H0z" fill="none"/><line x1="3" y1="3" x2="21" y2="21" /><path d="M9 5h9.5a1 1 0 0 1 .5 1.5l-4.049 4.454m-.951 3.046v5l-4 -3v-4l-5 -5.5a1 1 0 0 1 .18 -1.316" />
</symbol>
	<symbol id="mood-boy" class="icon icon-tabler icon-tabler-mood-boy" viewBox="0 0 24 24" stroke-width="2" stroke="currentColor" fill="none" stroke-linecap="round" stroke-linejoin="round"><path stroke="none" d="M0 0h24v24H0z" fill="none"/><path d="M17 4.5a9 9 0 0 1 3.864 5.89a2.5 2.5 0 0 1 -.29 4.36a9 9 0 0 1 -17.137 0a2.5 2.5 0 0 1 -.29 -4.36a9 9 0 0 1 3.746 -5.81" /><path d="M9.5 16a3.5 3.5 0 0 0 5 0" /><path d="M8.5 2c1.5 1 2.5 3.5 2.5 5" /><path d="M12.5 2c1.5 2 2 3.5 2 5" /><line x1="9" y1="12" x2="9.01" y2="12" /><line x1="15" y1="12" x2="15.01" y2="12" />
</symbol>
	<symbol id="world-latitude" class="icon icon-tabler icon-tabler-world-latitude" viewBox="0 0 24 24" stroke-width="2" stroke="currentColor" fill="none" stroke-linecap="round" stroke-linejoin="round"><path stroke="none" d="M0 0h24v24H0z" fill="none"/><circle cx="12" cy="12" r="9" /><line x1="4.6" y1="7" x2="19.4" y2="7" /><line x1="3" y1="12" x2="21" y2="12" /><line x1="4.6" y1="17" x2="19.4" y2="17" />
</symbol>
	<symbol id="world-longitude" class="icon icon-tabler icon-tabler-world-longitude" viewBox="0 0 24 24" stroke-width="2" stroke="currentColor" fill="none" stroke-linecap="round" stroke-linejoin="round"><path stroke="none" d="M0 0h24v24H0z" fill="none"/><circle cx="12" cy="12" r="9" /><path d="M11.5 3a11.2 11.2 0 0 0 0 18" /><path d="M12.5 3a11.2 11.2 0 0 1 0 18" /><line x1="12" y1="3" x2="12" y2="21" />
</symbol>

	<use xlink:href="#brand-appstore" x="24" y="24" width="24" height="24" />
	<use xlink:href="#brand-google-play" x="74" y="24" width="24" height="24" />
	<use xlink:href="#building-monument" x="124" y="24" width="24" height="24" />
	<use xlink:href="#circle-dashed" x="174" y="24" width="24" height="24" />
	<use xlink:href="#circle-dotted" x="224" y="24" width="24" height="24" />
	<use xlink:href="#devices-2" x="274" y="24" width="24" height="24" />
	<use xlink:href="#file-dislike" x="24" y="74" width="24" height="24" />
	<use xlink:href="#file-like" x="74" y="74" width="24" height="24" />
	<use xlink:href="#filter-off" x="124" y="74" width="24" height="24" />
	<use xlink:href="#mood-boy" x="174" y="74" width="24" height="24" />
	<use xlink:href="#world-latitude" x="224" y="74" width="24" height="24" />
	<use xlink:href="#world-longitude" x="274" y="74" width="24" height="24" />

</svg>