<svg xmlns="http://www.w3.org/2000/svg" xmlns:xlink="http://www.w3.org/1999/xlink" viewBox="0 0 292 160" width="292" height="160" style="color: #354052"><rect x="0" y="0" width="292" height="160" fill="#fff"></rect>
	<symbol id="360-view" class="icon icon-tabler icon-tabler-360-view" viewBox="0 0 24 24" stroke-width="2" stroke="currentColor" fill="none" stroke-linecap="round" stroke-linejoin="round"><path stroke="none" d="M0 0h24v24H0z" fill="none"/><path d="M14 6a1 1 0 0 0 -1 -1h-2a1 1 0 0 0 -1 1v6a1 1 0 0 0 1 1h2a1 1 0 0 0 1 -1v-2a1 1 0 0 0 -1 -1h-3" /><path d="M3 5h2.5a1.5 1.5 0 0 1 1.5 1.5v1a1.5 1.5 0 0 1 -1.5 1.5h-1.5h1.5a1.5 1.5 0 0 1 1.5 1.5v1a1.5 1.5 0 0 1 -1.5 1.5h-2.5" /><path d="M17 7v4a2 2 0 1 0 4 0v-4a2 2 0 1 0 -4 0z" /><path d="M3 16c0 1.657 4.03 3 9 3s9 -1.343 9 -3" />
</symbol>
	<symbol id="abc" class="icon icon-tabler icon-tabler-abc" viewBox="0 0 24 24" stroke-width="2" stroke="currentColor" fill="none" stroke-linecap="round" stroke-linejoin="round"><path stroke="none" d="M0 0h24v24H0z" fill="none"/><path d="M3 16v-6a2 2 0 1 1 4 0v6" /><path d="M3 13h4" /><path d="M10 8v6a2 2 0 1 0 4 0v-1a2 2 0 1 0 -4 0v1" /><path d="M20.732 12a2 2 0 0 0 -3.732 1v1a2 2 0 0 0 3.726 1.01" />
</symbol>
	<symbol id="brand-blackbery" class="icon icon-tabler icon-tabler-brand-blackbery" viewBox="0 0 24 24" stroke-width="2" stroke="currentColor" fill="none" stroke-linecap="round" stroke-linejoin="round"><path stroke="none" d="M0 0h24v24H0z" fill="none"/><path d="M7 6a1 1 0 0 0 -1 -1h-2l-.5 2h2.5a1 1 0 0 0 1 -1z" /><path d="M6 12a1 1 0 0 0 -1 -1h-2l-.5 2h2.5a1 1 0 0 0 1 -1z" /><path d="M13 12a1 1 0 0 0 -1 -1h-2l-.5 2h2.5a1 1 0 0 0 1 -1z" /><path d="M14 6a1 1 0 0 0 -1 -1h-2l-.5 2h2.5a1 1 0 0 0 1 -1z" /><path d="M12 18a1 1 0 0 0 -1 -1h-2l-.5 2h2.5a1 1 0 0 0 1 -1z" /><path d="M20 15a1 1 0 0 0 -1 -1h-2l-.5 2h2.5a1 1 0 0 0 1 -1z" /><path d="M21 9a1 1 0 0 0 -1 -1h-2l-.5 2h2.5a1 1 0 0 0 1 -1z" />
</symbol>
	<symbol id="brand-npm" class="icon icon-tabler icon-tabler-brand-npm" viewBox="0 0 24 24" stroke-width="2" stroke="currentColor" fill="none" stroke-linecap="round" stroke-linejoin="round"><path stroke="none" d="M0 0h24v24H0z" fill="none"/><path d="M1 8h22v7h-12v2h-4v-2h-6z" /><path d="M7 8v7" /><path d="M14 8v7" /><path d="M17 11v4" /><path d="M4 11v4" /><path d="M11 11v1" /><path d="M20 11v4" />
</symbol>
	<symbol id="bucket-droplet" class="icon icon-tabler icon-tabler-bucket-droplet" viewBox="0 0 24 24" stroke-width="2" stroke="currentColor" fill="none" stroke-linecap="round" stroke-linejoin="round"><path stroke="none" d="M0 0h24v24H0z" fill="none"/><path d="M7.3 9.728l6.945 7.048c.392 .393 2.413 .52 4.73 -1.797c2.316 -2.317 2.2 -4.326 1.795 -4.732l-6.97 -6.847" /><path d="M11.948 7.948c1.76 -1.76 2.537 -3.834 1.738 -4.634c-.8 -.8 -2.875 -.021 -4.634 1.738c-1.532 1.532 -2.32 3.304 -1.97 4.264c.052 .142 .13 .266 .232 .37c.8 .8 2.875 .021 4.634 -1.738z" /><path d="M6 15l1.465 1.638a2 2 0 1 1 -3.015 .099l1.55 -1.737z" />
</symbol>
	<symbol id="chess-bishop" class="icon icon-tabler icon-tabler-chess-bishop" viewBox="0 0 24 24" stroke-width="2" stroke="currentColor" fill="none" stroke-linecap="round" stroke-linejoin="round"><path stroke="none" d="M0 0h24v24H0z" fill="none"/><path d="M8 16l-1.447 .724a1 1 0 0 0 -.553 .894v2.382h12v-2.382a1 1 0 0 0 -.553 -.894l-1.447 -.724h-8z" /><circle cx="12" cy="4" r="1" /><path d="M9.5 16c-1.667 0 -2.5 -1.669 -2.5 -3c0 -3.667 1.667 -6 5 -7c3.333 1 5 3.427 5 7c0 1.284 -.775 2.881 -2.325 2.994l-.175 .006h-5z" /><path d="M15 8l-3 3" /><path d="M12 5v1" />
</symbol>
	<symbol id="chess-king" class="icon icon-tabler icon-tabler-chess-king" viewBox="0 0 24 24" stroke-width="2" stroke="currentColor" fill="none" stroke-linecap="round" stroke-linejoin="round"><path stroke="none" d="M0 0h24v24H0z" fill="none"/><path d="M8 16l-1.447 .724a1 1 0 0 0 -.553 .894v2.382h12v-2.382a1 1 0 0 0 -.553 -.894l-1.447 -.724h-8z" /><path d="M8.5 16a3.5 3.5 0 1 1 3.163 -5h.674a3.5 3.5 0 1 1 3.163 5z" /><path d="M9 6h6" /><path d="M12 3v8" />
</symbol>
	<symbol id="chess-knight" class="icon icon-tabler icon-tabler-chess-knight" viewBox="0 0 24 24" stroke-width="2" stroke="currentColor" fill="none" stroke-linecap="round" stroke-linejoin="round"><path stroke="none" d="M0 0h24v24H0z" fill="none"/><path d="M8 16l-1.447 .724a1 1 0 0 0 -.553 .894v2.382h12v-2.382a1 1 0 0 0 -.553 -.894l-1.447 -.724h-8z" /><path d="M9 3l1 3l-3.491 2.148a1 1 0 0 0 .524 1.852h2.967l-2.073 6h7.961l.112 -5c0 -3 -1.09 -5.983 -4 -7c-1.94 -.678 -2.94 -1.011 -3 -1z" />
</symbol>
	<symbol id="chess-queen" class="icon icon-tabler icon-tabler-chess-queen" viewBox="0 0 24 24" stroke-width="2" stroke="currentColor" fill="none" stroke-linecap="round" stroke-linejoin="round"><path stroke="none" d="M0 0h24v24H0z" fill="none"/><path d="M16 16l2 -11l-4 4l-2 -5l-2 5l-4 -4l2 11" /><path d="M8 16l-1.447 .724a1 1 0 0 0 -.553 .894v2.382h12v-2.382a1 1 0 0 0 -.553 -.894l-1.447 -.724h-8z" /><circle cx="12" cy="4" r="1" /><circle cx="6" cy="5" r="1" /><circle cx="18" cy="5" r="1" />
</symbol>
	<symbol id="chess-rook" class="icon icon-tabler icon-tabler-chess-rook" viewBox="0 0 24 24" stroke-width="2" stroke="currentColor" fill="none" stroke-linecap="round" stroke-linejoin="round"><path stroke="none" d="M0 0h24v24H0z" fill="none"/><path d="M8 16l-1.447 .724a1 1 0 0 0 -.553 .894v2.382h12v-2.382a1 1 0 0 0 -.553 -.894l-1.447 -.724h-8z" /><path d="M8 16l1 -9h6l1 9" /><path d="M6 4l.5 3h11l.5 -3" /><path d="M10 4v3" /><path d="M14 4v3" />
</symbol>
	<symbol id="ease-in-control-point" class="icon icon-tabler icon-tabler-ease-in-control-point" viewBox="0 0 24 24" stroke-width="2" stroke="currentColor" fill="none" stroke-linecap="round" stroke-linejoin="round"><path stroke="none" d="M0 0h24v24H0z" fill="none"/><path d="M3 19c8 0 18 -16 18 -16" /><path d="M17 19a2 2 0 1 0 4 0a2 2 0 0 0 -4 0z" /><path d="M17 19h-2" /><path d="M12 19h-2" />
</symbol>
	<symbol id="ease-in-out-control-points" class="icon icon-tabler icon-tabler-ease-in-out-control-points" viewBox="0 0 24 24" stroke-width="2" stroke="currentColor" fill="none" stroke-linecap="round" stroke-linejoin="round"><path stroke="none" d="M0 0h24v24H0z" fill="none"/><path d="M17 20a2 2 0 1 0 4 0a2 2 0 0 0 -4 0z" /><path d="M17 20h-2" /><path d="M7 4a2 2 0 1 1 -4 0a2 2 0 0 1 4 0z" /><path d="M7 4h2" /><path d="M14 4h-2" /><path d="M12 20h-2" /><path d="M3 20c8 0 10 -16 18 -16" />
</symbol>
	<symbol id="ease-in-out" class="icon icon-tabler icon-tabler-ease-in-out" viewBox="0 0 24 24" stroke-width="2" stroke="currentColor" fill="none" stroke-linecap="round" stroke-linejoin="round"><path stroke="none" d="M0 0h24v24H0z" fill="none"/><path d="M3 20c8 0 10 -16 18 -16" />
</symbol>
	<symbol id="ease-in" class="icon icon-tabler icon-tabler-ease-in" viewBox="0 0 24 24" stroke-width="2" stroke="currentColor" fill="none" stroke-linecap="round" stroke-linejoin="round"><path stroke="none" d="M0 0h24v24H0z" fill="none"/><path d="M3 20c8 0 18 -16 18 -16" />
</symbol>
	<symbol id="ease-out-control-point" class="icon icon-tabler icon-tabler-ease-out-control-point" viewBox="0 0 24 24" stroke-width="2" stroke="currentColor" fill="none" stroke-linecap="round" stroke-linejoin="round"><path stroke="none" d="M0 0h24v24H0z" fill="none"/><path d="M3 21s10 -16 18 -16" /><path d="M7 5a2 2 0 1 1 -4 0a2 2 0 0 1 4 0z" /><path d="M7 5h2" /><path d="M14 5h-2" />
</symbol>
	<symbol id="ease-out" class="icon icon-tabler icon-tabler-ease-out" viewBox="0 0 24 24" stroke-width="2" stroke="currentColor" fill="none" stroke-linecap="round" stroke-linejoin="round"><path stroke="none" d="M0 0h24v24H0z" fill="none"/><path d="M3 20s10 -16 18 -16" />
</symbol>
	<symbol id="keyframe" class="icon icon-tabler icon-tabler-keyframe" viewBox="0 0 24 24" stroke-width="2" stroke="currentColor" fill="none" stroke-linecap="round" stroke-linejoin="round"><path stroke="none" d="M0 0h24v24H0z" fill="none"/><path d="M13.225 18.412a1.595 1.595 0 0 1 -1.225 .588c-.468 0 -.914 -.214 -1.225 -.588l-4.361 -5.248a1.844 1.844 0 0 1 0 -2.328l4.361 -5.248a1.595 1.595 0 0 1 1.225 -.588c.468 0 .914 .214 1.225 .588l4.361 5.248a1.844 1.844 0 0 1 0 2.328l-4.361 5.248z" />
</symbol>
	<symbol id="matchstick" class="icon icon-tabler icon-tabler-matchstick" viewBox="0 0 24 24" stroke-width="2" stroke="currentColor" fill="none" stroke-linecap="round" stroke-linejoin="round"><path stroke="none" d="M0 0h24v24H0z" fill="none"/><path d="M3 21l14 -9" /><circle cx="17" cy="12" r="1" /><path d="M17 3l3.62 7.29a4.007 4.007 0 0 1 -.764 4.51a4 4 0 0 1 -6.493 -4.464l3.637 -7.336z" />
</symbol>

	<use xlink:href="#360-view" x="24" y="24" width="24" height="24" />
	<use xlink:href="#abc" x="68" y="24" width="24" height="24" />
	<use xlink:href="#brand-blackbery" x="112" y="24" width="24" height="24" />
	<use xlink:href="#brand-npm" x="156" y="24" width="24" height="24" />
	<use xlink:href="#bucket-droplet" x="200" y="24" width="24" height="24" />
	<use xlink:href="#chess-bishop" x="244" y="24" width="24" height="24" />
	<use xlink:href="#chess-king" x="24" y="68" width="24" height="24" />
	<use xlink:href="#chess-knight" x="68" y="68" width="24" height="24" />
	<use xlink:href="#chess-queen" x="112" y="68" width="24" height="24" />
	<use xlink:href="#chess-rook" x="156" y="68" width="24" height="24" />
	<use xlink:href="#ease-in-control-point" x="200" y="68" width="24" height="24" />
	<use xlink:href="#ease-in-out-control-points" x="244" y="68" width="24" height="24" />
	<use xlink:href="#ease-in-out" x="24" y="112" width="24" height="24" />
	<use xlink:href="#ease-in" x="68" y="112" width="24" height="24" />
	<use xlink:href="#ease-out-control-point" x="112" y="112" width="24" height="24" />
	<use xlink:href="#ease-out" x="156" y="112" width="24" height="24" />
	<use xlink:href="#keyframe" x="200" y="112" width="24" height="24" />
	<use xlink:href="#matchstick" x="244" y="112" width="24" height="24" />

</svg>