<svg xmlns="http://www.w3.org/2000/svg" xmlns:xlink="http://www.w3.org/1999/xlink" viewBox="0 0 332 176" width="332" height="176" style="color: #354052"><rect x="0" y="0" width="332" height="176" fill="#fff"></rect>
	<symbol id="accessible" class="icon icon-tabler icon-tabler-accessible" viewBox="0 0 24 24" stroke-width="2" stroke="currentColor" fill="none" stroke-linecap="round" stroke-linejoin="round"><path stroke="none" d="M0 0h24v24H0z"/><circle cx="12" cy="12" r="9" /><path d="M10 16.5l2 -3l2 3m-2 -3v-2l3 -1m-6 0l3 1" /><circle cx="12" cy="7.5" r=".5" />
</symbol>
	<symbol id="checkbox" class="icon icon-tabler icon-tabler-checkbox" viewBox="0 0 24 24" stroke-width="2" stroke="currentColor" fill="none" stroke-linecap="round" stroke-linejoin="round"><path stroke="none" d="M0 0h24v24H0z"/><polyline points="9 11 12 14 20 6" /><path d="M20 12v6a2 2 0 0 1 -2 2h-12a2 2 0 0 1 -2 -2v-12a2 2 0 0 1 2 -2h9" />
</symbol>
	<symbol id="checks" class="icon icon-tabler icon-tabler-checks" viewBox="0 0 24 24" stroke-width="2" stroke="currentColor" fill="none" stroke-linecap="round" stroke-linejoin="round"><path stroke="none" d="M0 0h24v24H0z"/><path d="M7 12l5 5l10 -10" /><path d="M2 12l5 5m5 -5l5 -5" />
</symbol>
	<symbol id="currency-bitcoin" class="icon icon-tabler icon-tabler-currency-bitcoin" viewBox="0 0 24 24" stroke-width="2" stroke="currentColor" fill="none" stroke-linecap="round" stroke-linejoin="round"><path stroke="none" d="M0 0h24v24H0z"/><path d="M6 6h8a3 3 0 0 1 0 6a3 3 0 0 1 0 6h-8" /><line x1="8" y1="6" x2="8" y2="18" /><line x1="8" y1="12" x2="14" y2="12" /><line x1="9" y1="3" x2="9" y2="6" /><line x1="13" y1="3" x2="13" y2="6" /><line x1="9" y1="18" x2="9" y2="21" /><line x1="13" y1="18" x2="13" y2="21" />
</symbol>
	<symbol id="currency-pound" class="icon icon-tabler icon-tabler-currency-pound" viewBox="0 0 24 24" stroke-width="2" stroke="currentColor" fill="none" stroke-linecap="round" stroke-linejoin="round"><path stroke="none" d="M0 0h24v24H0z"/><path d="M17 18.5a6 6 0 0 1 -5 0a6 6 0 0 0 -5 .5a3 3 0 0 0 2 -2.5v-7.5a4 4 0 0 1 7.45 -2m-2.55 6h-7" />
</symbol>
	<symbol id="currency-rupee" class="icon icon-tabler icon-tabler-currency-rupee" viewBox="0 0 24 24" stroke-width="2" stroke="currentColor" fill="none" stroke-linecap="round" stroke-linejoin="round"><path stroke="none" d="M0 0h24v24H0z"/><path d="M18 6h-11h3a4 4 0 0 1 0 8h-3l6 6" /><line x1="7" y1="10" x2="18" y2="10" />
</symbol>
	<symbol id="currency-yen" class="icon icon-tabler icon-tabler-currency-yen" viewBox="0 0 24 24" stroke-width="2" stroke="currentColor" fill="none" stroke-linecap="round" stroke-linejoin="round"><path stroke="none" d="M0 0h24v24H0z"/><path d="M12 19v-7l-5 -7m10 0l-5 7" /><line x1="8" y1="17" x2="16" y2="17" /><line x1="8" y1="13" x2="16" y2="13" />
</symbol>
	<symbol id="disabled-2" class="icon icon-tabler icon-tabler-disabled-2" viewBox="0 0 24 24" stroke-width="2" stroke="currentColor" fill="none" stroke-linecap="round" stroke-linejoin="round"><path stroke="none" d="M0 0h24v24H0z"/><circle cx="17" cy="6" r="2" /><path d="M9 11a4.97 4.97 0 1 0 3.95 7.95" /><path d="M19 20l-4 -5h-4l3 -5l-4 -3l-4 1" />
</symbol>
	<symbol id="file-horizontal" class="icon icon-tabler icon-tabler-file-horizontal" viewBox="0 0 24 24" stroke-width="2" stroke="currentColor" fill="none" stroke-linecap="round" stroke-linejoin="round"><path stroke="none" d="M0 0h24v24H0z"/><polyline points="16 5 16 10 21 10" /><path d="M3 7v10a2 2 0 0 0 2 2h14a2 2 0 0 0 2 -2v-7l-5 -5h-11a2 2 0 0 0 -2 2z" />
</symbol>
	<symbol id="float-center" class="icon icon-tabler icon-tabler-float-center" viewBox="0 0 24 24" stroke-width="2" stroke="currentColor" fill="none" stroke-linecap="round" stroke-linejoin="round"><path stroke="none" d="M0 0h24v24H0z"/><rect width="6" height="6" x="9" y="5" rx="1" /><line x1="4" y1="7" x2="5" y2="7" /><line x1="4" y1="11" x2="5" y2="11" /><line x1="19" y1="7" x2="20" y2="7" /><line x1="19" y1="11" x2="20" y2="11" /><line x1="4" y1="15" x2="20" y2="15" /><line x1="4" y1="19" x2="20" y2="19" />
</symbol>
	<symbol id="float-left" class="icon icon-tabler icon-tabler-float-left" viewBox="0 0 24 24" stroke-width="2" stroke="currentColor" fill="none" stroke-linecap="round" stroke-linejoin="round"><path stroke="none" d="M0 0h24v24H0z"/><rect width="6" height="6" x="4" y="5" rx="1" /><line x1="14" y1="7" x2="20" y2="7" /><line x1="14" y1="11" x2="20" y2="11" /><line x1="4" y1="15" x2="20" y2="15" /><line x1="4" y1="19" x2="20" y2="19" />
</symbol>
	<symbol id="float-right" class="icon icon-tabler icon-tabler-float-right" viewBox="0 0 24 24" stroke-width="2" stroke="currentColor" fill="none" stroke-linecap="round" stroke-linejoin="round"><path stroke="none" d="M0 0h24v24H0z"/><rect width="6" height="6" x="14" y="5" rx="1" /><line x1="4" y1="7" x2="10" y2="7" /><line x1="4" y1="11" x2="10" y2="11" /><line x1="4" y1="15" x2="20" y2="15" /><line x1="4" y1="19" x2="20" y2="19" />
</symbol>
	<symbol id="login" class="icon icon-tabler icon-tabler-login" viewBox="0 0 24 24" stroke-width="2" stroke="currentColor" fill="none" stroke-linecap="round" stroke-linejoin="round"><path stroke="none" d="M0 0h24v24H0z"/><path d="M14 8v-2a2 2 0 0 0 -2 -2h-7a2 2 0 0 0 -2 2v12a2 2 0 0 0 2 2h7a2 2 0 0 0 2 -2v-2" /><path d="M20 12h-13l3 -3m0 6l-3 -3" />
</symbol>
	<symbol id="logout" class="icon icon-tabler icon-tabler-logout" viewBox="0 0 24 24" stroke-width="2" stroke="currentColor" fill="none" stroke-linecap="round" stroke-linejoin="round"><path stroke="none" d="M0 0h24v24H0z"/><path d="M14 8v-2a2 2 0 0 0 -2 -2h-7a2 2 0 0 0 -2 2v12a2 2 0 0 0 2 2h7a2 2 0 0 0 2 -2v-2" /><path d="M7 12h14l-3 -3m0 6l3 -3" />
</symbol>
	<symbol id="rotate-2" class="icon icon-tabler icon-tabler-rotate-2" viewBox="0 0 24 24" stroke-width="2" stroke="currentColor" fill="none" stroke-linecap="round" stroke-linejoin="round"><path stroke="none" d="M0 0h24v24H0z"/><path d="M12 4a8 8 0 0 0 -3 15.45m0 -4.45v5h-5" /><path d="M13 19.95a8 8 0 0 0 2 -15.35" stroke-dasharray=".001 4" />
</symbol>
	<symbol id="rotate-clockwise-2" class="icon icon-tabler icon-tabler-rotate-clockwise-2" viewBox="0 0 24 24" stroke-width="2" stroke="currentColor" fill="none" stroke-linecap="round" stroke-linejoin="round"><path stroke="none" d="M0 0h24v24H0z"/><path d="M12 4a8 8 0 0 1 3 15.45m0 -4.45v5h5" /><path d="M11 19.95a8 8 0 0 1 -2 -15.35" stroke-dasharray=".001 4" />
</symbol>

	<use xlink:href="#accessible" x="24" y="24" width="24" height="24" />
	<use xlink:href="#checkbox" x="76" y="24" width="24" height="24" />
	<use xlink:href="#checks" x="128" y="24" width="24" height="24" />
	<use xlink:href="#currency-bitcoin" x="180" y="24" width="24" height="24" />
	<use xlink:href="#currency-pound" x="232" y="24" width="24" height="24" />
	<use xlink:href="#currency-rupee" x="284" y="24" width="24" height="24" />
	<use xlink:href="#currency-yen" x="24" y="76" width="24" height="24" />
	<use xlink:href="#disabled-2" x="76" y="76" width="24" height="24" />
	<use xlink:href="#file-horizontal" x="128" y="76" width="24" height="24" />
	<use xlink:href="#float-center" x="180" y="76" width="24" height="24" />
	<use xlink:href="#float-left" x="232" y="76" width="24" height="24" />
	<use xlink:href="#float-right" x="284" y="76" width="24" height="24" />
	<use xlink:href="#login" x="24" y="128" width="24" height="24" />
	<use xlink:href="#logout" x="76" y="128" width="24" height="24" />
	<use xlink:href="#rotate-2" x="128" y="128" width="24" height="24" />
	<use xlink:href="#rotate-clockwise-2" x="180" y="128" width="24" height="24" />

</svg>