<svg xmlns="http://www.w3.org/2000/svg" xmlns:xlink="http://www.w3.org/1999/xlink" viewBox="0 0 332 176" width="332" height="176" style="color: #354052"><rect x="0" y="0" width="332" height="176" fill="#fff"></rect>
	<symbol id="brand-android" class="icon icon-tabler icon-tabler-brand-android" viewBox="0 0 24 24" stroke-width="2" stroke="currentColor" fill="none" stroke-linecap="round" stroke-linejoin="round"><path stroke="none" d="M0 0h24v24H0z"/><line x1="3" y1="10" x2="3" y2="16" /><line x1="21" y1="10" x2="21" y2="16" /><path d="M7 9h10v8a1 1 0 0 1 -1 1h-8a1 1 0 0 1 -1 -1v-8a5 5 0 0 1 10 0" /><line x1="8" y1="3" x2="9" y2="5" /><line x1="16" y1="3" x2="15" y2="5" /><line x1="9" y1="18" x2="9" y2="21" /><line x1="15" y1="18" x2="15" y2="21" />
</symbol>
	<symbol id="brand-apple" class="icon icon-tabler icon-tabler-brand-apple" viewBox="0 0 24 24" stroke-width="2" stroke="currentColor" fill="none" stroke-linecap="round" stroke-linejoin="round"><path stroke="none" d="M0 0h24v24H0z"/><path d="M9 7c-3 0-4 3-4 5.5 0 3 2 7.5 4 7.5 1.088-.046 1.679-.5 3-.5 1.312 0 1.5.5 3 .5s4-3 4-5c-.028-.01-2.472-.403-2.5-3-.019-2.17 2.416-2.954 2.5-3-1.023-1.492-2.951-1.963-3.5-2-1.433-.111-2.83 1-3.5 1-.68 0-1.9-1-3-1z" /><path d="M12 4a2 2 0 0 0 2 -2a2 2 0 0 0 -2 2" />
</symbol>
	<symbol id="brand-chrome" class="icon icon-tabler icon-tabler-brand-chrome" viewBox="0 0 24 24" stroke-width="2" stroke="currentColor" fill="none" stroke-linecap="round" stroke-linejoin="round"><path stroke="none" d="M0 0h24v24H0z"/><circle cx="12" cy="12" r="9" /><circle cx="12" cy="12" r="3" /><line x1="12" y1="9" x2="20.4" y2="9" /><line x1="12" y1="9" x2="20.4" y2="9" transform="rotate(120 12 12)" /><line x1="12" y1="9" x2="20.4" y2="9" transform="rotate(240 12 12)" />
</symbol>
	<symbol id="brand-framer" class="icon icon-tabler icon-tabler-brand-framer" viewBox="0 0 24 24" stroke-width="2" stroke="currentColor" fill="none" stroke-linecap="round" stroke-linejoin="round"><path stroke="none" d="M0 0h24v24H0z"/><path d="M6 15h12l-12 -12h12v6h-12v6l6 6v-6" />
</symbol>
	<symbol id="brand-gitlab" class="icon icon-tabler icon-tabler-brand-gitlab" viewBox="0 0 24 24" stroke-width="2" stroke="currentColor" fill="none" stroke-linecap="round" stroke-linejoin="round"><path stroke="none" d="M0 0h24v24H0z"/><path d="M21 14l-9 7-9-7L6 3l3 7h6l3-7z" />
</symbol>
	<symbol id="brand-google-drive" class="icon icon-tabler icon-tabler-brand-google-drive" viewBox="0 0 24 24" stroke-width="2" stroke="currentColor" fill="none" stroke-linecap="round" stroke-linejoin="round"><path stroke="none" d="M0 0h24v24H0z"/><path d="M12 10L6 20l-3-5L9 5z" /><path d="M9 15h12l-3 5h-12" /><path d="M15 15L9 5h6l6 10z" />
</symbol>
	<symbol id="brand-instagram" class="icon icon-tabler icon-tabler-brand-instagram" viewBox="0 0 24 24" stroke-width="2" stroke="currentColor" fill="none" stroke-linecap="round" stroke-linejoin="round"><path stroke="none" d="M0 0h24v24H0z"/><rect x="4" y="4" width="16" height="16" rx="4" /><circle cx="12" cy="12" r="3" /><line x1="16.5" y1="7.5" x2="16.5" y2="7.501" />
</symbol>
	<symbol id="brand-opera" class="icon icon-tabler icon-tabler-brand-opera" viewBox="0 0 24 24" stroke-width="2" stroke="currentColor" fill="none" stroke-linecap="round" stroke-linejoin="round"><path stroke="none" d="M0 0h24v24H0z"/><circle cx="12" cy="12" r="9" /><ellipse cx="12" cy="12" rx="3" ry="5" />
</symbol>
	<symbol id="brand-paypal" class="icon icon-tabler icon-tabler-brand-paypal" viewBox="0 0 24 24" stroke-width="2" stroke="currentColor" fill="none" stroke-linecap="round" stroke-linejoin="round"><path stroke="none" d="M0 0h24v24H0z"/><path d="M10 13l2.538-.003c2.46 0 4.962-2.497 4.962-4.997 0-3-1.89-5-4.962-5H7c-.5 0-1 .5-1 1L4 18c0 .5.5 1 1 1h2.846L9 14c.089-.564.43-1 1-1zm7.467-5.837C19.204 8.153 20 10 20 12c0 2.467-2.54 4.505-5 4.505h.021-2.629l-.576 3.65a.998.998 0 01-.988.844l-2.712-.002a.5.5 0 01-.494-.578L7.846 19" />
</symbol>
	<symbol id="brand-safari" class="icon icon-tabler icon-tabler-brand-safari" viewBox="0 0 24 24" stroke-width="2" stroke="currentColor" fill="none" stroke-linecap="round" stroke-linejoin="round"><path stroke="none" d="M0 0h24v24H0z"/><polyline points="8 16 10 10 16 8 14 14 8 16" /><circle cx="12" cy="12" r="9" />
</symbol>
	<symbol id="brand-sketch" class="icon icon-tabler icon-tabler-brand-sketch" viewBox="0 0 24 24" stroke-width="2" stroke="currentColor" fill="none" stroke-linecap="round" stroke-linejoin="round"><path stroke="none" d="M0 0h24v24H0z"/><path d="M3.262 10.878l7.991 8.789c.4.44 1.091.44 1.491 0l7.993-8.79c.313-.344.349-.859.087-1.243L17.287 4.44a.996.996 0 00-.823-.436H7.538a.996.996 0 00-.823.436 2713782426.663 2713782426.663 0 01-3.54 5.192c-.263.385-.227.901.087 1.246z" />
</symbol>
	<symbol id="brand-snapchat" class="icon icon-tabler icon-tabler-brand-snapchat" viewBox="0 0 24 24" stroke-width="2" stroke="currentColor" fill="none" stroke-linecap="round" stroke-linejoin="round"><path stroke="none" d="M0 0h24v24H0z"/><path d="M16.882 7.842a4.882 4.882 0 0 0 -9.764 0c0 4.273-.213 6.409-4.118 8.118 2 .882 2 .882 3 3 3 0 4 2 6 2s3-2 6-2c1-2.118 1-2.118 3-3-3.906-1.709-4.118-3.845-4.118-8.118h0zM3 15.961c4-2.118 4-4.118 1-7.118m17 7.118c-4-2.118-4-4.118-1-7.118" />
</symbol>
	<symbol id="brand-telegram" class="icon icon-tabler icon-tabler-brand-telegram" viewBox="0 0 24 24" stroke-width="2" stroke="currentColor" fill="none" stroke-linecap="round" stroke-linejoin="round"><path stroke="none" d="M0 0h24v24H0z"/><path d="M15 10l-4 4l6 6l4 -16l-18 7l4 2l2 6l3 -4" />
</symbol>

	<use xlink:href="#brand-android" x="24" y="24" width="24" height="24" />
	<use xlink:href="#brand-apple" x="76" y="24" width="24" height="24" />
	<use xlink:href="#brand-chrome" x="128" y="24" width="24" height="24" />
	<use xlink:href="#brand-framer" x="180" y="24" width="24" height="24" />
	<use xlink:href="#brand-gitlab" x="232" y="24" width="24" height="24" />
	<use xlink:href="#brand-google-drive" x="284" y="24" width="24" height="24" />
	<use xlink:href="#brand-instagram" x="24" y="76" width="24" height="24" />
	<use xlink:href="#brand-opera" x="76" y="76" width="24" height="24" />
	<use xlink:href="#brand-paypal" x="128" y="76" width="24" height="24" />
	<use xlink:href="#brand-safari" x="180" y="76" width="24" height="24" />
	<use xlink:href="#brand-sketch" x="232" y="76" width="24" height="24" />
	<use xlink:href="#brand-snapchat" x="284" y="76" width="24" height="24" />
	<use xlink:href="#brand-telegram" x="24" y="128" width="24" height="24" />

</svg>