<svg xmlns="http://www.w3.org/2000/svg" xmlns:xlink="http://www.w3.org/1999/xlink" viewBox="0 0 292 160" width="292" height="160" style="color: #354052"><rect x="0" y="0" width="292" height="160" fill="#fff"></rect>
	<symbol id="background" class="icon icon-tabler icon-tabler-background" viewBox="0 0 24 24" stroke-width="2" stroke="currentColor" fill="none" stroke-linecap="round" stroke-linejoin="round"><path stroke="none" d="M0 0h24v24H0z" fill="none"/><path d="M4 8l4 -4" /><path d="M14 4l-10 10" /><path d="M4 20l16 -16" /><path d="M20 10l-10 10" /><path d="M20 16l-4 4" />
</symbol>
	<symbol id="brand-kako-talk" class="icon icon-tabler icon-tabler-brand-kako-talk" viewBox="0 0 24 24" stroke-width="2" stroke="currentColor" fill="none" stroke-linecap="round" stroke-linejoin="round"><path stroke="none" d="M0 0h24v24H0z" fill="none"/><path d="M10 8v7" /><path d="M14 10l-2 2.5l2 2.5" /><path d="M12 4c4.97 0 9 3.358 9 7.5c0 4.142 -4.03 7.5 -9 7.5c-.67 0 -1.323 -.061 -1.95 -.177l-3.05 2.177l.592 -2.962c-2.741 -1.284 -4.592 -3.73 -4.592 -6.538c0 -4.142 4.03 -7.5 9 -7.5z" />
</symbol>
	<symbol id="calendar-clock" class="icon icon-tabler icon-tabler-calendar-clock" viewBox="0 0 24 24" stroke-width="2" stroke="currentColor" fill="none" stroke-linecap="round" stroke-linejoin="round"><path stroke="none" d="M0 0h24v24H0z" fill="none"/><path d="M10.5 21h-4.5a2 2 0 0 1 -2 -2v-12a2 2 0 0 1 2 -2h12a2 2 0 0 1 2 2v3" /><path d="M16 3v4" /><path d="M8 3v4" /><path d="M4 11h10" /><path d="M18 18m-4 0a4 4 0 1 0 8 0a4 4 0 1 0 -8 0" /><path d="M18 16.5v1.5l.5 .5" />
</symbol>
	<symbol id="calendar-month" class="icon icon-tabler icon-tabler-calendar-month" viewBox="0 0 24 24" stroke-width="2" stroke="currentColor" fill="none" stroke-linecap="round" stroke-linejoin="round"><path stroke="none" d="M0 0h24v24H0z" fill="none"/><path d="M4 7a2 2 0 0 1 2 -2h12a2 2 0 0 1 2 2v12a2 2 0 0 1 -2 2h-12a2 2 0 0 1 -2 -2v-12z" /><path d="M16 3v4" /><path d="M8 3v4" /><path d="M4 11h16" /><path d="M7 14h.013" /><path d="M10.01 14h.005" /><path d="M13.01 14h.005" /><path d="M16.015 14h.005" /><path d="M13.015 17h.005" /><path d="M7.01 17h.005" /><path d="M10.01 17h.005" />
</symbol>
	<symbol id="calendar-week" class="icon icon-tabler icon-tabler-calendar-week" viewBox="0 0 24 24" stroke-width="2" stroke="currentColor" fill="none" stroke-linecap="round" stroke-linejoin="round"><path stroke="none" d="M0 0h24v24H0z" fill="none"/><path d="M4 7a2 2 0 0 1 2 -2h12a2 2 0 0 1 2 2v12a2 2 0 0 1 -2 2h-12a2 2 0 0 1 -2 -2v-12z" /><path d="M16 3v4" /><path d="M8 3v4" /><path d="M4 11h16" /><path d="M8 14v4" /><path d="M12 14v4" /><path d="M16 14v4" />
</symbol>
	<symbol id="christmas-ball" class="icon icon-tabler icon-tabler-christmas-ball" viewBox="0 0 24 24" stroke-width="2" stroke="currentColor" fill="none" stroke-linecap="round" stroke-linejoin="round"><path stroke="none" d="M0 0h24v24H0z" fill="none"/><path d="M12 13m-8 0a8 8 0 1 0 16 0a8 8 0 1 0 -16 0" /><path d="M11 5l1 -2l1 2" /><path d="M4.512 10.161c2.496 -1.105 4.992 -.825 7.488 .839c2.627 1.752 5.255 1.97 7.882 .653" /><path d="M4.315 15.252c2.561 -1.21 5.123 -.96 7.685 .748c2.293 1.528 4.585 1.889 6.878 1.081" />
</symbol>
	<symbol id="credit-card-pay" class="icon icon-tabler icon-tabler-credit-card-pay" viewBox="0 0 24 24" stroke-width="2" stroke="currentColor" fill="none" stroke-linecap="round" stroke-linejoin="round"><path stroke="none" d="M0 0h24v24H0z" fill="none"/><path d="M12 19h-6a3 3 0 0 1 -3 -3v-8a3 3 0 0 1 3 -3h12a3 3 0 0 1 3 3v4.5" /><path d="M3 10h18" /><path d="M16 19h6" /><path d="M19 16l3 3l-3 3" /><path d="M7.005 15h.005" /><path d="M11 15h2" />
</symbol>
	<symbol id="credit-card-refund" class="icon icon-tabler icon-tabler-credit-card-refund" viewBox="0 0 24 24" stroke-width="2" stroke="currentColor" fill="none" stroke-linecap="round" stroke-linejoin="round"><path stroke="none" d="M0 0h24v24H0z" fill="none"/><path d="M12 19h-6a3 3 0 0 1 -3 -3v-8a3 3 0 0 1 3 -3h12a3 3 0 0 1 3 3v4.5" /><path d="M3 10h18" /><path d="M7 15h.01" /><path d="M11 15h2" /><path d="M16 19h6" /><path d="M19 16l-3 3l3 3" />
</symbol>
	<symbol id="currency-xrp" class="icon icon-tabler icon-tabler-currency-xrp" viewBox="0 0 24 24" stroke-width="2" stroke="currentColor" fill="none" stroke-linecap="round" stroke-linejoin="round"><path stroke="none" d="M0 0h24v24H0z" fill="none"/><path d="M5 5l3.585 3.585a4.83 4.83 0 0 0 6.83 0l3.585 -3.585" /><path d="M5 19l3.585 -3.585a4.83 4.83 0 0 1 6.83 0l3.585 3.584" />
</symbol>
	<symbol id="desk" class="icon icon-tabler icon-tabler-desk" viewBox="0 0 24 24" stroke-width="2" stroke="currentColor" fill="none" stroke-linecap="round" stroke-linejoin="round"><path stroke="none" d="M0 0h24v24H0z" fill="none"/><path d="M3 6h18" /><path d="M4 6v13" /><path d="M20 19v-13" /><path d="M4 10h16" /><path d="M15 6v8a2 2 0 0 0 2 2h3" />
</symbol>
	<symbol id="direction-arrows" class="icon icon-tabler icon-tabler-direction-arrows" viewBox="0 0 24 24" stroke-width="2" stroke="currentColor" fill="none" stroke-linecap="round" stroke-linejoin="round"><path stroke="none" d="M0 0h24v24H0z" fill="none"/><path d="M3 12a9 9 0 1 0 18 0a9 9 0 0 0 -18 0" /><path d="M8 11l-1 1l1 1" /><path d="M11 8l1 -1l1 1" /><path d="M16 11l1 1l-1 1" /><path d="M11 16l1 1l1 -1" />
</symbol>
	<symbol id="mood-look-down" class="icon icon-tabler icon-tabler-mood-look-down" viewBox="0 0 24 24" stroke-width="2" stroke="currentColor" fill="none" stroke-linecap="round" stroke-linejoin="round"><path stroke="none" d="M0 0h24v24H0z" fill="none"/><path d="M3 12a9 9 0 1 0 18 0a9 9 0 0 0 -18 0" /><path d="M9 13h.01" /><path d="M15 13h.01" /><path d="M11 17h2" />
</symbol>
	<symbol id="mood-look-up" class="icon icon-tabler icon-tabler-mood-look-up" viewBox="0 0 24 24" stroke-width="2" stroke="currentColor" fill="none" stroke-linecap="round" stroke-linejoin="round"><path stroke="none" d="M0 0h24v24H0z" fill="none"/><path d="M3 12a9 9 0 1 0 18 0a9 9 0 0 0 -18 0" /><path d="M9 8h.01" /><path d="M15 8h.01" /><path d="M11 12h2" />
</symbol>
	<symbol id="mood-puzzled" class="icon icon-tabler icon-tabler-mood-puzzled" viewBox="0 0 24 24" stroke-width="2" stroke="currentColor" fill="none" stroke-linecap="round" stroke-linejoin="round"><path stroke="none" d="M0 0h24v24H0z" fill="none"/><path d="M14.986 3.51a9 9 0 1 0 1.514 16.284c2.489 -1.437 4.181 -3.978 4.5 -6.794" /><path d="M10 10h.01" /><path d="M14 8h.01" /><path d="M12 15c1 -1.333 2 -2 3 -2" /><path d="M20 9v.01" /><path d="M20 6a2.003 2.003 0 0 0 .914 -3.782a1.98 1.98 0 0 0 -2.414 .483" />
</symbol>
	<symbol id="shovel-pitchforks" class="icon icon-tabler icon-tabler-shovel-pitchforks" viewBox="0 0 24 24" stroke-width="2" stroke="currentColor" fill="none" stroke-linecap="round" stroke-linejoin="round"><path stroke="none" d="M0 0h24v24H0z" fill="none"/><path d="M5 3h4" /><path d="M7 3v12" /><path d="M4 15h6v3a3 3 0 0 1 -6 0v-3z" /><path d="M14 21v-3a3 3 0 0 1 6 0v3" /><path d="M17 21v-18" />
</symbol>
	<symbol id="skew-x" class="icon icon-tabler icon-tabler-skew-x" viewBox="0 0 24 24" stroke-width="2" stroke="currentColor" fill="none" stroke-linecap="round" stroke-linejoin="round"><path stroke="none" d="M0 0h24v24H0z" fill="none"/><path d="M4 5.205v13.59a1 1 0 0 0 1.184 .983l14 -2.625a1 1 0 0 0 .816 -.983v-8.34a1 1 0 0 0 -.816 -.983l-14 -2.625a1 1 0 0 0 -1.184 .983z" />
</symbol>
	<symbol id="skew-y" class="icon icon-tabler icon-tabler-skew-y" viewBox="0 0 24 24" stroke-width="2" stroke="currentColor" fill="none" stroke-linecap="round" stroke-linejoin="round"><path stroke="none" d="M0 0h24v24H0z" fill="none"/><path d="M4.326 19h15.348a1 1 0 0 0 .962 -1.275l-3.429 -12a1 1 0 0 0 -.961 -.725h-8.492a1 1 0 0 0 -.961 .725l-3.429 12a1 1 0 0 0 .962 1.275z" />
</symbol>
	<symbol id="sticker-2" class="icon icon-tabler icon-tabler-sticker-2" viewBox="0 0 24 24" stroke-width="2" stroke="currentColor" fill="none" stroke-linecap="round" stroke-linejoin="round"><path stroke="none" d="M0 0h24v24H0z" fill="none"/><path d="M6 4h12a2 2 0 0 1 2 2v7h-5a2 2 0 0 0 -2 2v5h-7a2 2 0 0 1 -2 -2v-12a2 2 0 0 1 2 -2z" /><path d="M20 13v.172a2 2 0 0 1 -.586 1.414l-4.828 4.828a2 2 0 0 1 -1.414 .586h-.172" />
</symbol>

	<use xlink:href="#background" x="24" y="24" width="24" height="24" />
	<use xlink:href="#brand-kako-talk" x="68" y="24" width="24" height="24" />
	<use xlink:href="#calendar-clock" x="112" y="24" width="24" height="24" />
	<use xlink:href="#calendar-month" x="156" y="24" width="24" height="24" />
	<use xlink:href="#calendar-week" x="200" y="24" width="24" height="24" />
	<use xlink:href="#christmas-ball" x="244" y="24" width="24" height="24" />
	<use xlink:href="#credit-card-pay" x="24" y="68" width="24" height="24" />
	<use xlink:href="#credit-card-refund" x="68" y="68" width="24" height="24" />
	<use xlink:href="#currency-xrp" x="112" y="68" width="24" height="24" />
	<use xlink:href="#desk" x="156" y="68" width="24" height="24" />
	<use xlink:href="#direction-arrows" x="200" y="68" width="24" height="24" />
	<use xlink:href="#mood-look-down" x="244" y="68" width="24" height="24" />
	<use xlink:href="#mood-look-up" x="24" y="112" width="24" height="24" />
	<use xlink:href="#mood-puzzled" x="68" y="112" width="24" height="24" />
	<use xlink:href="#shovel-pitchforks" x="112" y="112" width="24" height="24" />
	<use xlink:href="#skew-x" x="156" y="112" width="24" height="24" />
	<use xlink:href="#skew-y" x="200" y="112" width="24" height="24" />
	<use xlink:href="#sticker-2" x="244" y="112" width="24" height="24" />

</svg>