<svg xmlns="http://www.w3.org/2000/svg" xmlns:xlink="http://www.w3.org/1999/xlink" viewBox="0 0 332 124" width="332" height="124" style="color: #354052"><rect x="0" y="0" width="332" height="124" fill="#fff"></rect>
	<symbol id="ball-bowling" class="icon icon-tabler icon-tabler-ball-bowling" viewBox="0 0 24 24" stroke-width="2" stroke="currentColor" fill="none" stroke-linecap="round" stroke-linejoin="round"><path stroke="none" d="M0 0h24v24H0z"/><circle cx="12" cy="12" r="9" /><line x1="11" y1="9" x2="11" y2="9.01" /><line x1="15" y1="8" x2="15" y2="8.01" /><line x1="14" y1="12" x2="14" y2="12.01" />
</symbol>
	<symbol id="ball-tennis" class="icon icon-tabler icon-tabler-ball-tennis" viewBox="0 0 24 24" stroke-width="2" stroke="currentColor" fill="none" stroke-linecap="round" stroke-linejoin="round"><path stroke="none" d="M0 0h24v24H0z"/><circle cx="12" cy="12" r="9" /><path d="M6 5.3a9 9 0 0 1 0 13.4" /><path d="M6 5.3a9 9 0 0 1 0 13.4" transform="rotate(180 12 12)" /></symbol>
	<symbol id="ball-volleyball" class="icon icon-tabler icon-tabler-ball-volleyball" viewBox="0 0 24 24" stroke-width="2" stroke="currentColor" fill="none" stroke-linecap="round" stroke-linejoin="round"><path stroke="none" d="M0 0h24v24H0z"/><circle cx="12" cy="12" r="9" /><path d="M12 12a8 8 0 0 0 8 4M7.5 13.5a12 12 0 0 0 8.5 6.5" /><path d="M12 12a8 8 0 0 0 8 4M7.5 13.5a12 12 0 0 0 8.5 6.5" transform="rotate(120 12 12)" /><path d="M12 12a8 8 0 0 0 8 4M7.5 13.5a12 12 0 0 0 8.5 6.5" transform="rotate(240 12 12)" /></symbol>
	<symbol id="flame" class="icon icon-tabler icon-tabler-flame" viewBox="0 0 24 24" stroke-width="2" stroke="currentColor" fill="none" stroke-linecap="round" stroke-linejoin="round"><path stroke="none" d="M0 0h24v24H0z"/><path d="M18 15a6 6 0 1 1 -10.853 -3.529c1.926-2.338 4.763-3.327 3.848-8.47 2.355 1.761 5.84 5.38 2.022 9.406-1.136 1.091-.244 2.767 1.221 2.593.882-.105 2.023-.966 3.23-2.3.532.68.532 1.717.532 2.3z" />
</symbol>
	<symbol id="hand-middle-finger" class="icon icon-tabler icon-tabler-hand-middle-finger" viewBox="0 0 24 24" stroke-width="2" stroke="currentColor" fill="none" stroke-linecap="round" stroke-linejoin="round"><path stroke="none" d="M0 0h24v24H0z"/><path d="M8 13.5v-4a1.5 1.5 0 0 1 3 0v2.5m0 -2.5v-6a1.5 1.5 0 0 1 3 0v8.5m0 -2.5a1.5 1.5 0 0 1 3 0v2.5m0 -1.5a1.5 1.5 0 0 1 3 0v5.5a6 6 0 0 1 -6 6h-2a7 6 0 0 1 -5 -3l-2.7 -5.25a1.4 1.4 0 0 1 2.75 -2l.9 1.75" />
</symbol>
	<symbol id="hand-stop" class="icon icon-tabler icon-tabler-hand-stop" viewBox="0 0 24 24" stroke-width="2" stroke="currentColor" fill="none" stroke-linecap="round" stroke-linejoin="round"><path stroke="none" d="M0 0h24v24H0z"/><path d="M8 13.5v-8a1.5 1.5 0 0 1 3 0v6.5m0 -6.5v-2a1.5 1.5 0 0 1 3 0v8.5m0 -6.5a1.5 1.5 0 0 1 3 0v6.5m0 -4.5a1.5 1.5 0 0 1 3 0v8.5a6 6 0 0 1 -6 6h-2a7 6 0 0 1 -5 -3l-2.7 -5.25a1.4 1.4 0 0 1 2.75 -2l.9 1.75" />
</symbol>
	<symbol id="medical-cross" class="icon icon-tabler icon-tabler-medical-cross" viewBox="0 0 24 24" stroke-width="2" stroke="currentColor" fill="none" stroke-linecap="round" stroke-linejoin="round"><path stroke="none" d="M0 0h24v24H0z"/><path d="M13 3a1 1 0 0 1 1 1v4.535l3.928 -2.267a1 1 0 0 1 1.366 .366l1 1.732a1 1 0 0 1 -.366 1.366L16.001 12l3.927 2.269a1 1 0 0 1 .366 1.366l-1 1.732a1 1 0 0 1 -1.366 .366L14 15.464V20a1 1 0 0 1 -1 1h-2a1 1 0 0 1 -1 -1v-4.536l-3.928 2.268a1 1 0 0 1 -1.366 -.366l-1-1.732a1 1 0 0 1 .366 -1.366L7.999 12 4.072 9.732a1 1 0 0 1 -.366 -1.366l1-1.732a1 1 0 0 1 1.366 -.366L10 8.535V4a1 1 0 0 1 1 -1h2z" />
</symbol>
	<symbol id="mist" class="icon icon-tabler icon-tabler-mist" viewBox="0 0 24 24" stroke-width="2" stroke="currentColor" fill="none" stroke-linecap="round" stroke-linejoin="round"><path stroke="none" d="M0 0h24v24H0z"/><path d="M5 5h3m4 0h9" /><path d="M3 10h11m4 0h1" /><path d="M5 15h5m4 0h7" /><path d="M3 20h9m4 0h3" />
</symbol>
	<symbol id="sunset" class="icon icon-tabler icon-tabler-sunset" viewBox="0 0 24 24" stroke-width="2" stroke="currentColor" fill="none" stroke-linecap="round" stroke-linejoin="round"><path stroke="none" d="M0 0h24v24H0z"/><path d="M3 17h1m16 0h1M5.6 10.6l.7.7m12.1-.7l-.7.7M8 17a4 4 0 0 1 8 0" /><line x1="3" y1="21" x2="21" y2="21" /><path d="M12 9v-6l3 3m-6 0l3 -3" />
</symbol>
	<symbol id="sunshine" class="icon icon-tabler icon-tabler-sunshine" viewBox="0 0 24 24" stroke-width="2" stroke="currentColor" fill="none" stroke-linecap="round" stroke-linejoin="round"><path stroke="none" d="M0 0h24v24H0z"/><path d="M3 17h1m16 0h1M5.6 10.6l.7.7m12.1-.7l-.7.7M8 17a4 4 0 0 1 8 0" /><line x1="3" y1="21" x2="21" y2="21" /><path d="M12 3v6l3 -3m-6 0l3 3" />
</symbol>
	<symbol id="wind" class="icon icon-tabler icon-tabler-wind" viewBox="0 0 24 24" stroke-width="2" stroke="currentColor" fill="none" stroke-linecap="round" stroke-linejoin="round"><path stroke="none" d="M0 0h24v24H0z"/><path d="M5 8h8.5a2.5 2.5 0 1 0 -2.34 -3.24" /><path d="M3 12h15.5a2.5 2.5 0 1 1 -2.34 3.24" /><path d="M4 16h5.5a2.5 2.5 0 1 1 -2.34 3.24" />
</symbol>
	<symbol id="yin-yang" class="icon icon-tabler icon-tabler-yin-yang" viewBox="0 0 24 24" stroke-width="2" stroke="currentColor" fill="none" stroke-linecap="round" stroke-linejoin="round"><path stroke="none" d="M0 0h24v24H0z"/><circle cx="12" cy="12" r="9" /><path d="M12 3a4.5 4.5 0 0 0 0 9a4.5 4.5 0 0 1 0 9" /><circle cx="12" cy="7.5" r=".5" fill="currentColor" /><circle cx="12" cy="16.5" r=".5" fill="currentColor" />
</symbol>

	<use xlink:href="#ball-bowling" x="24" y="24" width="24" height="24" />
	<use xlink:href="#ball-tennis" x="76" y="24" width="24" height="24" />
	<use xlink:href="#ball-volleyball" x="128" y="24" width="24" height="24" />
	<use xlink:href="#flame" x="180" y="24" width="24" height="24" />
	<use xlink:href="#hand-middle-finger" x="232" y="24" width="24" height="24" />
	<use xlink:href="#hand-stop" x="284" y="24" width="24" height="24" />
	<use xlink:href="#medical-cross" x="24" y="76" width="24" height="24" />
	<use xlink:href="#mist" x="76" y="76" width="24" height="24" />
	<use xlink:href="#sunset" x="128" y="76" width="24" height="24" />
	<use xlink:href="#sunshine" x="180" y="76" width="24" height="24" />
	<use xlink:href="#wind" x="232" y="76" width="24" height="24" />
	<use xlink:href="#yin-yang" x="284" y="76" width="24" height="24" />

</svg>