<svg xmlns="http://www.w3.org/2000/svg" xmlns:xlink="http://www.w3.org/1999/xlink" viewBox="0 0 322 172" width="322" height="172" style="color: #354052"><rect x="0" y="0" width="322" height="172" fill="#fff"></rect>
	<symbol id="bell-off" class="icon icon-tabler icon-tabler-bell-off" viewBox="0 0 24 24" stroke-width="2" stroke="currentColor" fill="none" stroke-linecap="round" stroke-linejoin="round"><path stroke="none" d="M0 0h24v24H0z" fill="none"/><line x1="3" y1="3" x2="21" y2="21" /><path d="M17 17h-13a4 4 0 0 0 2 -3v-3a7 7 0 0 1 1.279 -3.716m2.072 -1.934c.209 -.127 .425 -.244 .649 -.35a2 2 0 1 1 4 0a7 7 0 0 1 4 6v3" /><path d="M9 17v1a3 3 0 0 0 6 0v-1" />
</symbol>
	<symbol id="bluetooth-connected" class="icon icon-tabler icon-tabler-bluetooth-connected" viewBox="0 0 24 24" stroke-width="2" stroke="currentColor" fill="none" stroke-linecap="round" stroke-linejoin="round"><path stroke="none" d="M0 0h24v24H0z" fill="none"/><polyline points="7 8 17 16 12 20 12 4 17 8 7 16" /><line x1="4" y1="12" x2="5" y2="12" /><line x1="18" y1="12" x2="19" y2="12" />
</symbol>
	<symbol id="bluetooth-off" class="icon icon-tabler icon-tabler-bluetooth-off" viewBox="0 0 24 24" stroke-width="2" stroke="currentColor" fill="none" stroke-linecap="round" stroke-linejoin="round"><path stroke="none" d="M0 0h24v24H0z" fill="none"/><line x1="3" y1="3" x2="21" y2="21" /><path d="M16.438 16.45l-4.438 3.55v-8m0 -4v-4l5 4l-2.776 2.22m-2.222 1.779l-5 4" />
</symbol>
	<symbol id="bolt-off" class="icon icon-tabler icon-tabler-bolt-off" viewBox="0 0 24 24" stroke-width="2" stroke="currentColor" fill="none" stroke-linecap="round" stroke-linejoin="round"><path stroke="none" d="M0 0h24v24H0z" fill="none"/><line x1="3" y1="3" x2="21" y2="21" /><path d="M15.212 15.21l-4.212 5.79v-7h-6l3.79 -5.21m1.685 -2.32l2.525 -3.47v6m1 1h5l-2.104 2.893" />
</symbol>
	<symbol id="bookmark-off" class="icon icon-tabler icon-tabler-bookmark-off" viewBox="0 0 24 24" stroke-width="2" stroke="currentColor" fill="none" stroke-linecap="round" stroke-linejoin="round"><path stroke="none" d="M0 0h24v24H0z" fill="none"/><line x1="3" y1="3" x2="21" y2="21" /><path d="M17 17v3l-5 -3l-5 3v-13m1.178 -2.818c.252 -.113 .53 -.176 .822 -.176h6a2 2 0 0 1 2 2v7" />
</symbol>
	<symbol id="camera-off" class="icon icon-tabler icon-tabler-camera-off" viewBox="0 0 24 24" stroke-width="2" stroke="currentColor" fill="none" stroke-linecap="round" stroke-linejoin="round"><path stroke="none" d="M0 0h24v24H0z" fill="none"/><path d="M8.29 4.296a0.997 .997 0 0 1 .71 -.296h6a1 1 0 0 1 1 1a2 2 0 0 0 2 2h1a2 2 0 0 1 2 2v8m-1.179 2.824c-.25 .113 -.528 .176 -.821 .176h-14a2 2 0 0 1 -2 -2v-9a2 2 0 0 1 2 -2h1c.292 0 .568 -.062 .818 -.175" /><path d="M10.436 10.44a3 3 0 1 0 4.126 4.122" /><line x1="3" y1="3" x2="21" y2="21" />
</symbol>
	<symbol id="current-location" class="icon icon-tabler icon-tabler-current-location" viewBox="0 0 24 24" stroke-width="2" stroke="currentColor" fill="none" stroke-linecap="round" stroke-linejoin="round"><path stroke="none" d="M0 0h24v24H0z" fill="none"/><circle cx="12" cy="12" r="3" /><circle cx="12" cy="12" r="8" /><line x1="12" y1="2" x2="12" y2="4" /><line x1="12" y1="20" x2="12" y2="22" /><line x1="20" y1="12" x2="22" y2="12" /><line x1="2" y1="12" x2="4" y2="12" />
</symbol>
	<symbol id="eye-off" class="icon icon-tabler icon-tabler-eye-off" viewBox="0 0 24 24" stroke-width="2" stroke="currentColor" fill="none" stroke-linecap="round" stroke-linejoin="round"><path stroke="none" d="M0 0h24v24H0z" fill="none"/><line x1="3" y1="3" x2="21" y2="21" /><path d="M10.584 10.587a2 2 0 0 0 2.828 2.83" /><path d="M9.363 5.365a9.466 9.466 0 0 1 2.637 -.365c4 0 7.333 2.333 10 7c-.778 1.361 -1.612 2.524 -2.503 3.488m-2.14 1.861c-1.631 1.1 -3.415 1.651 -5.357 1.651c-4 0 -7.333 -2.333 -10 -7c1.369 -2.395 2.913 -4.175 4.632 -5.341" />
</symbol>
	<symbol id="file-diff" class="icon icon-tabler icon-tabler-file-diff" viewBox="0 0 24 24" stroke-width="2" stroke="currentColor" fill="none" stroke-linecap="round" stroke-linejoin="round"><path stroke="none" d="M0 0h24v24H0z" fill="none"/><path d="M14 3v4a1 1 0 0 0 1 1h4" /><path d="M17 21h-10a2 2 0 0 1 -2 -2v-14a2 2 0 0 1 2 -2h7l5 5v11a2 2 0 0 1 -2 2z" /><line x1="12" y1="10" x2="12" y2="14" /><line x1="10" y1="12" x2="14" y2="12" /><line x1="10" y1="17" x2="14" y2="17" />
</symbol>
	<symbol id="file-off" class="icon icon-tabler icon-tabler-file-off" viewBox="0 0 24 24" stroke-width="2" stroke="currentColor" fill="none" stroke-linecap="round" stroke-linejoin="round"><path stroke="none" d="M0 0h24v24H0z" fill="none"/><line x1="3" y1="3" x2="21" y2="21" /><path d="M7 3h7l5 5v7m0 4a2 2 0 0 1 -2 2h-10a2 2 0 0 1 -2 -2v-14" />
</symbol>
	<symbol id="map-pin-off" class="icon icon-tabler icon-tabler-map-pin-off" viewBox="0 0 24 24" stroke-width="2" stroke="currentColor" fill="none" stroke-linecap="round" stroke-linejoin="round"><path stroke="none" d="M0 0h24v24H0z" fill="none"/><line x1="3" y1="3" x2="21" y2="21" /><path d="M9.44 9.435a3 3 0 0 0 4.126 4.124m1.434 -2.559a3 3 0 0 0 -3 -3" /><path d="M8.048 4.042a8.003 8.003 0 0 1 10.912 10.908m-1.801 2.206l-3.745 3.744a1.998 1.998 0 0 1 -2.827 0l-4.244 -4.243a8 8 0 0 1 -.48 -10.79" />
</symbol>
	<symbol id="percentage" class="icon icon-tabler icon-tabler-percentage" viewBox="0 0 24 24" stroke-width="2" stroke="currentColor" fill="none" stroke-linecap="round" stroke-linejoin="round"><path stroke="none" d="M0 0h24v24H0z" fill="none"/><circle cx="17" cy="17" r="1" /><circle cx="7" cy="7" r="1" /><line x1="6" y1="18" x2="18" y2="6" />
</symbol>
	<symbol id="phone-off" class="icon icon-tabler icon-tabler-phone-off" viewBox="0 0 24 24" stroke-width="2" stroke="currentColor" fill="none" stroke-linecap="round" stroke-linejoin="round"><path stroke="none" d="M0 0h24v24H0z" fill="none"/><line x1="3" y1="21" x2="21" y2="3" /><path d="M5.831 14.161a15.946 15.946 0 0 1 -2.831 -8.161a2 2 0 0 1 2 -2h4l2 5l-2.5 1.5c.108 .22 .223 .435 .345 .645m1.751 2.277c.843 .84 1.822 1.544 2.904 2.078l1.5 -2.5l5 2v4a2 2 0 0 1 -2 2a15.963 15.963 0 0 1 -10.344 -4.657" />
</symbol>
	<symbol id="photo-off" class="icon icon-tabler icon-tabler-photo-off" viewBox="0 0 24 24" stroke-width="2" stroke="currentColor" fill="none" stroke-linecap="round" stroke-linejoin="round"><path stroke="none" d="M0 0h24v24H0z" fill="none"/><line x1="3" y1="3" x2="21" y2="21" /><line x1="15" y1="8" x2="15.01" y2="8" /><path d="M19.121 19.122a2.99 2.99 0 0 1 -2.121 .878h-10a3 3 0 0 1 -3 -3v-10c0 -.833 .34 -1.587 .888 -2.131m3.112 -.869h9a3 3 0 0 1 3 3v9" /><path d="M4 15l4 -4c.928 -.893 2.072 -.893 3 0l5 5" /><path d="M16.32 12.34c.577 -.059 1.162 .162 1.68 .66l2 2" />
</symbol>
	<symbol id="school" class="icon icon-tabler icon-tabler-school" viewBox="0 0 24 24" stroke-width="2" stroke="currentColor" fill="none" stroke-linecap="round" stroke-linejoin="round"><path stroke="none" d="M0 0h24v24H0z" fill="none"/><path d="M22 9l-10 -4l-10 4l10 4l10 -4v6" /><path d="M6 10.6v5.4a6 3 0 0 0 12 0v-5.4" />
</symbol>
	<symbol id="shield-off" class="icon icon-tabler icon-tabler-shield-off" viewBox="0 0 24 24" stroke-width="2" stroke="currentColor" fill="none" stroke-linecap="round" stroke-linejoin="round"><path stroke="none" d="M0 0h24v24H0z" fill="none"/><line x1="3" y1="3" x2="21" y2="21" /><path d="M17.669 17.669a12 12 0 0 1 -5.669 3.331a12 12 0 0 1 -8.5 -15c.797 .036 1.589 -.007 2.366 -.126m3.092 -.912a12 12 0 0 0 3.042 -1.962a12 12 0 0 0 8.5 3a12 12 0 0 1 -1.117 9.379" />
</symbol>
	<symbol id="user-off" class="icon icon-tabler icon-tabler-user-off" viewBox="0 0 24 24" stroke-width="2" stroke="currentColor" fill="none" stroke-linecap="round" stroke-linejoin="round"><path stroke="none" d="M0 0h24v24H0z" fill="none"/><path d="M14.274 10.291a4 4 0 1 0 -5.554 -5.58m-.548 3.453a4.01 4.01 0 0 0 2.62 2.65" /><path d="M6 21v-2a4 4 0 0 1 4 -4h4a4 4 0 0 1 1.147 .167m2.685 2.681a4 4 0 0 1 .168 1.152v2" /><line x1="3" y1="3" x2="21" y2="21" />
</symbol>
	<symbol id="wifi-off" class="icon icon-tabler icon-tabler-wifi-off" viewBox="0 0 24 24" stroke-width="2" stroke="currentColor" fill="none" stroke-linecap="round" stroke-linejoin="round"><path stroke="none" d="M0 0h24v24H0z" fill="none"/><line x1="12" y1="18" x2="12.01" y2="18" /><path d="M9.172 15.172a4 4 0 0 1 5.656 0" /><path d="M6.343 12.343a7.963 7.963 0 0 1 3.864 -2.14m4.163.155a7.965 7.965 0 0 1 3.287 1.985" /><path d="M3.515 9.515A11.973 11.973 0 0 1 7.059 7.06m3.101-.92a11.983 11.983 0 0 1 10.325 3.374" /><line x1="3" y1="3" x2="21" y2="21" />
</symbol>

	<use xlink:href="#bell-off" x="24" y="24" width="24" height="24" />
	<use xlink:href="#bluetooth-connected" x="74" y="24" width="24" height="24" />
	<use xlink:href="#bluetooth-off" x="124" y="24" width="24" height="24" />
	<use xlink:href="#bolt-off" x="174" y="24" width="24" height="24" />
	<use xlink:href="#bookmark-off" x="224" y="24" width="24" height="24" />
	<use xlink:href="#camera-off" x="274" y="24" width="24" height="24" />
	<use xlink:href="#current-location" x="24" y="74" width="24" height="24" />
	<use xlink:href="#eye-off" x="74" y="74" width="24" height="24" />
	<use xlink:href="#file-diff" x="124" y="74" width="24" height="24" />
	<use xlink:href="#file-off" x="174" y="74" width="24" height="24" />
	<use xlink:href="#map-pin-off" x="224" y="74" width="24" height="24" />
	<use xlink:href="#percentage" x="274" y="74" width="24" height="24" />
	<use xlink:href="#phone-off" x="24" y="124" width="24" height="24" />
	<use xlink:href="#photo-off" x="74" y="124" width="24" height="24" />
	<use xlink:href="#school" x="124" y="124" width="24" height="24" />
	<use xlink:href="#shield-off" x="174" y="124" width="24" height="24" />
	<use xlink:href="#user-off" x="224" y="124" width="24" height="24" />
	<use xlink:href="#wifi-off" x="274" y="124" width="24" height="24" />

</svg>