<svg xmlns="http://www.w3.org/2000/svg" xmlns:xlink="http://www.w3.org/1999/xlink" viewBox="0 0 322 72" width="322" height="72" style="color: #354052"><rect x="0" y="0" width="322" height="72" fill="#fff"></rect>
	<symbol id="file-certificate" class="icon icon-tabler icon-tabler-file-certificate" viewBox="0 0 24 24" stroke-width="2" stroke="currentColor" fill="none" stroke-linecap="round" stroke-linejoin="round"><path stroke="none" d="M0 0h24v24H0z" fill="none"/><path d="M15 3v4a1 1 0 0 0 1 1h4" /><path d="M6 8v-3a2 2 0 0 1 2 -2h7l5 5v11a2 2 0 0 1 -2 2h-5" /><circle cx="7" cy="14" r="3" /><path d="M5.5 17l-1.5 5l3 -1.5l3 1.5l-1.5 -5" />
</symbol>
	<symbol id="file-zip" class="icon icon-tabler icon-tabler-file-zip" viewBox="0 0 24 24" stroke-width="2" stroke="currentColor" fill="none" stroke-linecap="round" stroke-linejoin="round"><path stroke="none" d="M0 0h24v24H0z" fill="none"/><path d="M6 20.735a2 2 0 0 1 -1 -1.735v-14a2 2 0 0 1 2 -2h7l5 5v11a2 2 0 0 1 -2 2h-1" /><path d="M11 17a2 2 0 0 1 2 2v2a1 1 0 0 1 -1 1h-2a1 1 0 0 1 -1 -1v-2a2 2 0 0 1 2 -2z" /><line x1="11" y1="5" x2="10" y2="5" /><line x1="13" y1="7" x2="12" y2="7" /><line x1="11" y1="9" x2="10" y2="9" /><line x1="13" y1="11" x2="12" y2="11" /><line x1="11" y1="13" x2="10" y2="13" /><line x1="13" y1="15" x2="12" y2="15" />
</symbol>
	<symbol id="leaf" class="icon icon-tabler icon-tabler-leaf" viewBox="0 0 24 24" stroke-width="2" stroke="currentColor" fill="none" stroke-linecap="round" stroke-linejoin="round"><path stroke="none" d="M0 0h24v24H0z" fill="none"/><path d="M5 21c.5 -4.5 2.5 -8 7 -10" /><path d="M9 18c6.218 0 10.5 -3.288 11 -12v-2h-4.014c-9 0 -11.986 4 -12 9c0 1 0 3 2 5h3z" />
</symbol>
	<symbol id="plant" class="icon icon-tabler icon-tabler-plant" viewBox="0 0 24 24" stroke-width="2" stroke="currentColor" fill="none" stroke-linecap="round" stroke-linejoin="round"><path stroke="none" d="M0 0h24v24H0z" fill="none"/><path d="M7 15h10v4a2 2 0 0 1 -2 2h-6a2 2 0 0 1 -2 -2v-4z" /><path d="M12 9a6 6 0 0 0 -6 -6h-3v2a6 6 0 0 0 6 6h3" /><path d="M12 11a6 6 0 0 1 6 -6h3v1a6 6 0 0 1 -6 6h-3" /><line x1="12" y1="15" x2="12" y2="9" />
</symbol>
	<symbol id="seeding" class="icon icon-tabler icon-tabler-seeding" viewBox="0 0 24 24" stroke-width="2" stroke="currentColor" fill="none" stroke-linecap="round" stroke-linejoin="round"><path stroke="none" d="M0 0h24v24H0z" fill="none"/><path d="M12 10a6 6 0 0 0 -6 -6h-3v2a6 6 0 0 0 6 6h3" /><path d="M12 14a6 6 0 0 1 6 -6h3v1a6 6 0 0 1 -6 6h-3" /><line x1="12" y1="20" x2="12" y2="10" />
</symbol>
	<symbol id="versions" class="icon icon-tabler icon-tabler-versions" viewBox="0 0 24 24" stroke-width="2" stroke="currentColor" fill="none" stroke-linecap="round" stroke-linejoin="round"><path stroke="none" d="M0 0h24v24H0z" fill="none"/><rect x="10" y="5" width="10" height="14" rx="2" /><line x1="7" y1="7" x2="7" y2="17" /><line x1="4" y1="8" x2="4" y2="16" />
</symbol>

	<use xlink:href="#file-certificate" x="24" y="24" width="24" height="24" />
	<use xlink:href="#file-zip" x="74" y="24" width="24" height="24" />
	<use xlink:href="#leaf" x="124" y="24" width="24" height="24" />
	<use xlink:href="#plant" x="174" y="24" width="24" height="24" />
	<use xlink:href="#seeding" x="224" y="24" width="24" height="24" />
	<use xlink:href="#versions" x="274" y="24" width="24" height="24" />

</svg>