<svg xmlns="http://www.w3.org/2000/svg" xmlns:xlink="http://www.w3.org/1999/xlink" viewBox="0 0 292 160" width="292" height="160" style="color: #354052"><rect x="0" y="0" width="292" height="160" fill="#fff"></rect>
	<symbol id="outline-blend-mode" xmlns="http://www.w3.org/2000/svg" width="24" height="24" viewBox="0 0 24 24" fill="none" stroke="currentColor" stroke-width="2" stroke-linecap="round" stroke-linejoin="round"
> <path d="M14.5 9.5m-6.5 0a6.5 6.5 0 1 0 13 0a6.5 6.5 0 1 0 -13 0" /> <path d="M9.5 14.5m-6.5 0a6.5 6.5 0 1 0 13 0a6.5 6.5 0 1 0 -13 0" />
</symbol>
	<symbol id="outline-blob" xmlns="http://www.w3.org/2000/svg" width="24" height="24" viewBox="0 0 24 24" fill="none" stroke="currentColor" stroke-width="2" stroke-linecap="round" stroke-linejoin="round"
> <path d="M5.897 20.188c1.67 .752 3.896 .812 6.103 .812s4.434 -.059 6.104 -.812c.868 -.392 1.614 -.982 2.133 -1.856c.514 -.865 .763 -1.94 .763 -3.234c0 -2.577 -.983 -5.315 -2.557 -7.416c-1.57 -2.094 -3.833 -3.682 -6.443 -3.682s-4.873 1.588 -6.443 3.682c-1.574 2.101 -2.557 4.84 -2.557 7.416c0 1.295 .249 2.369 .763 3.234c.519 .874 1.265 1.464 2.134 1.856" />
</symbol>
	<symbol id="outline-brand-arc" xmlns="http://www.w3.org/2000/svg" width="24" height="24" viewBox="0 0 24 24" fill="none" stroke="currentColor" stroke-width="2" stroke-linecap="round" stroke-linejoin="round"
> <path d="M4.687 14.694l-.987 2.103c-.502 1.07 -.125 2.387 .908 2.945c1.096 .59 2.444 .13 2.972 -.995l.9 -1.92" /> <path d="M18.317 14.576c1.818 -1.6 3.16 -3.78 3.64 -6.217c.235 -1.194 -.525 -2.351 -1.695 -2.586a2.14 2.14 0 0 0 -1.625 .326c-.478 .323 -.81 .826 -.922 1.398c-.208 1.054 -.695 2.037 -1.366 2.872" /> <path d="M12.68 12.759a5.4 5.4 0 0 1 -1.283 .157c-.336 0 -.683 -.04 -1.03 -.115c-1.44 -.31 -2.89 -1.215 -3.709 -2.315a3.7 3.7 0 0 1 -.487 -.853a2.157 2.157 0 0 0 -2.818 -1.213c-1.107 .455 -1.641 1.736 -1.196 2.86c.508 1.278 1.404 2.45 2.53 3.415a11.2 11.2 0 0 0 3.791 2.133c.953 .31 1.942 .483 2.916 .483a9.8 9.8 0 0 0 3.162 -.537" /> <path d="M10.37 12.801l.943 -2.013c.09 -.19 .357 -.19 .446 0l.923 1.97h.006h-.006l1.88 4.015l.923 1.971a2.16 2.16 0 0 0 1.957 1.254q .29 0 .576 -.081c1.303 -.365 1.92 -1.887 1.339 -3.129l-1.04 -2.218l-1.968 -4.204l-.003 .003l.003 -.003l-2.862 -6.112a2.16 2.16 0 0 0 -1.954 -1.254c-.833 0 -1.593 .488 -1.953 1.254l-2.92 6.232" />
</symbol>
	<symbol id="outline-eye-dotted" xmlns="http://www.w3.org/2000/svg" width="24" height="24" viewBox="0 0 24 24" fill="none" stroke="currentColor" stroke-width="2" stroke-linecap="round" stroke-linejoin="round"
> <path d="M10 12a2 2 0 1 0 4 0a2 2 0 0 0 -4 0" /> <path d="M21 12h.01" /> <path d="M3 12h.01" /> <path d="M5 15h.01" /> <path d="M5 9h.01" /> <path d="M19 15h.01" /> <path d="M12 18h.01" /> <path d="M12 6h.01" /> <path d="M8 17h.01" /> <path d="M8 7h.01" /> <path d="M16 17h.01" /> <path d="M16 7h.01" /> <path d="M19 9h.01" />
</symbol>
	<symbol id="outline-file-isr" xmlns="http://www.w3.org/2000/svg" width="24" height="24" viewBox="0 0 24 24" fill="none" stroke="currentColor" stroke-width="2" stroke-linecap="round" stroke-linejoin="round"
> <path d="M15 3v4a1 1 0 0 0 1 1h4" /> <path d="M15 3v4a1 1 0 0 0 1 1h4" /> <path d="M6 8v-3a2 2 0 0 1 2 -2h7l5 5v11a2 2 0 0 1 -2 2h-10a2 2 0 0 1 -2 -2v-7" /> <path d="M3 15l3 -3l3 3" />
</symbol>
	<symbol id="outline-invoice" xmlns="http://www.w3.org/2000/svg" width="24" height="24" viewBox="0 0 24 24" fill="none" stroke="currentColor" stroke-width="2" stroke-linecap="round" stroke-linejoin="round"
> <path d="M14 3v4a1 1 0 0 0 1 1h4" /> <path d="M19 12v7a1.78 1.78 0 0 1 -3.1 1.4a1.65 1.65 0 0 0 -2.6 0a1.65 1.65 0 0 1 -2.6 0a1.65 1.65 0 0 0 -2.6 0a1.78 1.78 0 0 1 -3.1 -1.4v-14a2 2 0 0 1 2 -2h7l5 5v4.25" />
</symbol>
	<symbol id="outline-layers-selected-bottom" xmlns="http://www.w3.org/2000/svg" width="24" height="24" viewBox="0 0 24 24" fill="none" stroke="currentColor" stroke-width="2" stroke-linecap="round" stroke-linejoin="round"
> <path d="M4 14.5l4 -4" /> <path d="M9.496 20l4.004 -4z" /> <path d="M4.586 19.414l3.914 -3.914" /> <path d="M8 6a2 2 0 0 1 2 -2h8a2 2 0 0 1 2 2v8a2 2 0 0 1 -2 2h-8a2 2 0 0 1 -2 -2z" /> <path d="M16 16v2a2 2 0 0 1 -2 2h-8a2 2 0 0 1 -2 -2v-8a2 2 0 0 1 2 -2h2" />
</symbol>
	<symbol id="outline-layers-selected" xmlns="http://www.w3.org/2000/svg" width="24" height="24" viewBox="0 0 24 24" fill="none" stroke="currentColor" stroke-width="2" stroke-linecap="round" stroke-linejoin="round"
> <path d="M8 10.5l6.492 -6.492" /> <path d="M13.496 16l6.504 -6.504z" /> <path d="M8.586 15.414l10.827 -10.827" /> <path d="M8 6a2 2 0 0 1 2 -2h8a2 2 0 0 1 2 2v8a2 2 0 0 1 -2 2h-8a2 2 0 0 1 -2 -2z" /> <path d="M16 16v2a2 2 0 0 1 -2 2h-8a2 2 0 0 1 -2 -2v-8a2 2 0 0 1 2 -2h2" />
</symbol>
	<symbol id="outline-lock-open-2" xmlns="http://www.w3.org/2000/svg" width="24" height="24" viewBox="0 0 24 24" fill="none" stroke="currentColor" stroke-width="2" stroke-linecap="round" stroke-linejoin="round"
> <path d="M3 13a2 2 0 0 1 2 -2h10a2 2 0 0 1 2 2v6a2 2 0 0 1 -2 2h-10a2 2 0 0 1 -2 -2z" /> <path d="M9 16a1 1 0 1 0 2 0a1 1 0 0 0 -2 0" /> <path d="M13 11v-4a4 4 0 1 1 8 0v4" />
</symbol>
	<symbol id="outline-logs" xmlns="http://www.w3.org/2000/svg" width="24" height="24" viewBox="0 0 24 24" fill="none" stroke="currentColor" stroke-width="2" stroke-linecap="round" stroke-linejoin="round"
> <path d="M4 12h.01" /> <path d="M4 6h.01" /> <path d="M4 18h.01" /> <path d="M8 18h2" /> <path d="M8 12h2" /> <path d="M8 6h2" /> <path d="M14 6h6" /> <path d="M14 12h6" /> <path d="M14 18h6" />
</symbol>
	<symbol id="outline-prism-light" xmlns="http://www.w3.org/2000/svg" width="24" height="24" viewBox="0 0 24 24" fill="none" stroke="currentColor" stroke-width="2" stroke-linecap="round" stroke-linejoin="round"
> <path d="M4.731 19h11.539a1 1 0 0 0 .866 -1.5l-5.769 -10a1 1 0 0 0 -1.732 0l-5.769 10a1 1 0 0 0 .865 1.5" /> <path d="M2 13h4.45" /> <path d="M18 5l-4.5 6" /> <path d="M22 9l-7.75 3.25" /> <path d="M22 15l-7 -1.5" />
</symbol>
	<symbol id="outline-shareplay" xmlns="http://www.w3.org/2000/svg" width="24" height="24" viewBox="0 0 24 24" fill="none" stroke="currentColor" stroke-width="2" stroke-linecap="round" stroke-linejoin="round"
> <path d="M18 18a3 3 0 0 0 3 -3v-8a3 3 0 0 0 -3 -3h-12a3 3 0 0 0 -3 3v8a3 3 0 0 0 3 3" /> <path d="M9 20h6l-3 -5z" />
</symbol>
	<symbol id="outline-spaces" xmlns="http://www.w3.org/2000/svg" width="24" height="24" viewBox="0 0 24 24" fill="none" stroke="currentColor" stroke-width="2" stroke-linecap="round" stroke-linejoin="round"
> <path d="M6.045 9.777a6 6 0 1 0 5.951 .023" /> <path d="M11.997 20.196a6 6 0 1 0 -2.948 -5.97" /> <path d="M17.95 9.785q .05 -.386 .05 -.785a6 6 0 1 0 -3.056 5.23" />
</symbol>
	<symbol id="outline-squares-selected" xmlns="http://www.w3.org/2000/svg" width="24" height="24" viewBox="0 0 24 24" fill="none" stroke="currentColor" stroke-width="2" stroke-linecap="round" stroke-linejoin="round"
> <path d="M8 10a2 2 0 0 1 2 -2h8a2 2 0 0 1 2 2v8a2 2 0 0 1 -2 2h-8a2 2 0 0 1 -2 -2z" /> <path d="M8 14.5l6.492 -6.492" /> <path d="M13.496 20l6.504 -6.504z" /> <path d="M8.586 19.414l10.827 -10.827" /> <path d="M16 8v-2a2 2 0 0 0 -2 -2h-8a2 2 0 0 0 -2 2v8a2 2 0 0 0 2 2h2" />
</symbol>
	<symbol id="outline-u-turn-left" xmlns="http://www.w3.org/2000/svg" width="24" height="24" viewBox="0 0 24 24" fill="none" stroke="currentColor" stroke-width="2" stroke-linecap="round" stroke-linejoin="round"
> <path d="M17 20v-11.5a4.5 4.5 0 1 0 -9 0v8.5" /> <path d="M11 14l-3 3l-3 -3" />
</symbol>
	<symbol id="outline-u-turn-right" xmlns="http://www.w3.org/2000/svg" width="24" height="24" viewBox="0 0 24 24" fill="none" stroke="currentColor" stroke-width="2" stroke-linecap="round" stroke-linejoin="round"
> <path d="M7 20v-11.5a4.5 4.5 0 0 1 9 0v8.5" /> <path d="M13 14l3 3l3 -3" />
</symbol>
	<symbol id="outline-user-screen" xmlns="http://www.w3.org/2000/svg" width="24" height="24" viewBox="0 0 24 24" fill="none" stroke="currentColor" stroke-width="2" stroke-linecap="round" stroke-linejoin="round"
> <path d="M19.03 17.818a3 3 0 0 0 1.97 -2.818v-8a3 3 0 0 0 -3 -3h-12a3 3 0 0 0 -3 3v8c0 1.317 .85 2.436 2.03 2.84" /> <path d="M10 14a2 2 0 1 0 4 0a2 2 0 0 0 -4 0" /> <path d="M8 21a2 2 0 0 1 2 -2h4a2 2 0 0 1 2 2" />
</symbol>
	<symbol id="filled-blob" xmlns="http://www.w3.org/2000/svg" width="24" height="24" viewBox="0 0 24 24" fill="currentColor"
> <path d="M12 3c2.78 0 5.349 1.556 7.243 4.083c1.727 2.305 2.757 5.257 2.757 8.015c0 1.47 -.293 2.717 -.903 3.745c-.602 1.014 -1.479 1.758 -2.582 2.256c-1.593 .719 -3.333 .901 -6.515 .901s-4.922 -.182 -6.515 -.9c-1.103 -.499 -1.98 -1.243 -2.582 -2.257c-.61 -1.028 -.903 -2.274 -.903 -3.745c0 -2.758 1.03 -5.71 2.757 -8.015c1.894 -2.527 4.463 -4.083 7.243 -4.083" />
</symbol>

	<use xlink:href="#outline-blend-mode" x="24" y="24" width="24" height="24" />
	<use xlink:href="#outline-blob" x="68" y="24" width="24" height="24" />
	<use xlink:href="#outline-brand-arc" x="112" y="24" width="24" height="24" />
	<use xlink:href="#outline-eye-dotted" x="156" y="24" width="24" height="24" />
	<use xlink:href="#outline-file-isr" x="200" y="24" width="24" height="24" />
	<use xlink:href="#outline-invoice" x="244" y="24" width="24" height="24" />
	<use xlink:href="#outline-layers-selected-bottom" x="24" y="68" width="24" height="24" />
	<use xlink:href="#outline-layers-selected" x="68" y="68" width="24" height="24" />
	<use xlink:href="#outline-lock-open-2" x="112" y="68" width="24" height="24" />
	<use xlink:href="#outline-logs" x="156" y="68" width="24" height="24" />
	<use xlink:href="#outline-prism-light" x="200" y="68" width="24" height="24" />
	<use xlink:href="#outline-shareplay" x="244" y="68" width="24" height="24" />
	<use xlink:href="#outline-spaces" x="24" y="112" width="24" height="24" />
	<use xlink:href="#outline-squares-selected" x="68" y="112" width="24" height="24" />
	<use xlink:href="#outline-u-turn-left" x="112" y="112" width="24" height="24" />
	<use xlink:href="#outline-u-turn-right" x="156" y="112" width="24" height="24" />
	<use xlink:href="#outline-user-screen" x="200" y="112" width="24" height="24" />
	<use xlink:href="#filled-blob" x="244" y="112" width="24" height="24" />

</svg>