<svg xmlns="http://www.w3.org/2000/svg" xmlns:xlink="http://www.w3.org/1999/xlink" viewBox="0 0 292 160" width="292" height="160" style="color: #354052"><rect x="0" y="0" width="292" height="160" fill="#fff"></rect>
	<symbol id="brand-blogger" class="icon icon-tabler icon-tabler-brand-blogger" viewBox="0 0 24 24" stroke-width="2" stroke="currentColor" fill="none" stroke-linecap="round" stroke-linejoin="round"><path stroke="none" d="M0 0h24v24H0z" fill="none"/><path d="M8 21h8a5 5 0 0 0 5 -5v-3a3 3 0 0 0 -3 -3h-1v-2a5 5 0 0 0 -5 -5h-4a5 5 0 0 0 -5 5v8a5 5 0 0 0 5 5z" /><rect x="7" y="7" width="6" height="3" rx="1.5" /><rect x="7" y="14" width="10" height="3" rx="1.5" />
</symbol>
	<symbol id="grill-fork" class="icon icon-tabler icon-tabler-grill-fork" viewBox="0 0 24 24" stroke-width="2" stroke="currentColor" fill="none" stroke-linecap="round" stroke-linejoin="round"><path stroke="none" d="M0 0h24v24H0z" fill="none"/><path d="M5 5l11.5 11.5" /><path d="M19.347 16.575l1.08 1.079a1.96 1.96 0 0 1 -2.773 2.772l-1.08 -1.079a1.96 1.96 0 0 1 2.773 -2.772z" /><path d="M3 7l3.05 3.15a2.9 2.9 0 0 0 4.1 -4.1l-3.15 -3.05" />
</symbol>
	<symbol id="grill-spatula" class="icon icon-tabler icon-tabler-grill-spatula" viewBox="0 0 24 24" stroke-width="2" stroke="currentColor" fill="none" stroke-linecap="round" stroke-linejoin="round"><path stroke="none" d="M0 0h24v24H0z" fill="none"/><path d="M10.2 10.2l6.3 6.3" /><path d="M19.347 16.575l1.08 1.079a1.96 1.96 0 0 1 -2.773 2.772l-1.08 -1.079a1.96 1.96 0 0 1 2.773 -2.772z" /><path d="M3 7l3.05 3.15a2.9 2.9 0 0 0 4.1 -4.1l-3.15 -3.05l-4 4z" />
</symbol>
	<symbol id="photo-cancel" class="icon icon-tabler icon-tabler-photo-cancel" viewBox="0 0 24 24" stroke-width="2" stroke="currentColor" fill="none" stroke-linecap="round" stroke-linejoin="round"><path stroke="none" d="M0 0h24v24H0z" fill="none"/><path d="M15 8h.01" /><path d="M12 20h-5a3 3 0 0 1 -3 -3v-10a3 3 0 0 1 3 -3h10a3 3 0 0 1 3 3v5" /><path d="M4 15l4 -4c.928 -.893 2.072 -.893 3 0l3 3" /><path d="M14 14l1 -1c.553 -.532 1.182 -.747 1.796 -.645" /><circle cx="19" cy="19" r="3" /><path d="M17 21l4 -4" />
</symbol>
	<symbol id="photo-check" class="icon icon-tabler icon-tabler-photo-check" viewBox="0 0 24 24" stroke-width="2" stroke="currentColor" fill="none" stroke-linecap="round" stroke-linejoin="round"><path stroke="none" d="M0 0h24v24H0z" fill="none"/><path d="M15 8h.01" /><path d="M11 20h-4a3 3 0 0 1 -3 -3v-10a3 3 0 0 1 3 -3h10a3 3 0 0 1 3 3v6" /><path d="M4 15l4 -4c.928 -.893 2.072 -.893 3 0l4 4" /><path d="M14 14l1 -1c.928 -.893 2.072 -.893 3 0" /><path d="M15 19l2 2l4 -4" />
</symbol>
	<symbol id="photo-down" class="icon icon-tabler icon-tabler-photo-down" viewBox="0 0 24 24" stroke-width="2" stroke="currentColor" fill="none" stroke-linecap="round" stroke-linejoin="round"><path stroke="none" d="M0 0h24v24H0z" fill="none"/><path d="M15 8h.01" /><path d="M12 20h-5a3 3 0 0 1 -3 -3v-10a3 3 0 0 1 3 -3h10a3 3 0 0 1 3 3v5" /><path d="M4 15l4 -4c.928 -.893 2.072 -.893 3 0l4 4" /><path d="M14 14l1 -1c.617 -.593 1.328 -.793 2.009 -.598" /><path d="M19 16v6" /><path d="M22 19l-3 3l-3 -3" />
</symbol>
	<symbol id="photo-edit" class="icon icon-tabler icon-tabler-photo-edit" viewBox="0 0 24 24" stroke-width="2" stroke="currentColor" fill="none" stroke-linecap="round" stroke-linejoin="round"><path stroke="none" d="M0 0h24v24H0z" fill="none"/><path d="M15 8h.01" /><path d="M11 20h-4a3 3 0 0 1 -3 -3v-10a3 3 0 0 1 3 -3h10a3 3 0 0 1 3 3v4" /><path d="M4 15l4 -4c.928 -.893 2.072 -.893 3 0l3 3" /><path d="M14 14l1 -1c.31 -.298 .644 -.497 .987 -.596" /><path d="M18.42 15.61a2.1 2.1 0 0 1 2.97 2.97l-3.39 3.42h-3v-3l3.42 -3.39z" />
</symbol>
	<symbol id="photo-heart" class="icon icon-tabler icon-tabler-photo-heart" viewBox="0 0 24 24" stroke-width="2" stroke="currentColor" fill="none" stroke-linecap="round" stroke-linejoin="round"><path stroke="none" d="M0 0h24v24H0z" fill="none"/><path d="M15 8h.01" /><path d="M12.5 20h-5.5a3 3 0 0 1 -3 -3v-10a3 3 0 0 1 3 -3h10a3 3 0 0 1 3 3v5" /><path d="M4 15l4 -4c.928 -.893 2.072 -.893 3 0l2.5 2.5" /><path d="M18.994 21.5l2.518 -2.58a1.74 1.74 0 0 0 .004 -2.413a1.627 1.627 0 0 0 -2.346 -.005l-.168 .172l-.168 -.172a1.627 1.627 0 0 0 -2.346 -.004a1.74 1.74 0 0 0 -.004 2.412l2.51 2.59z" />
</symbol>
	<symbol id="photo-minus" class="icon icon-tabler icon-tabler-photo-minus" viewBox="0 0 24 24" stroke-width="2" stroke="currentColor" fill="none" stroke-linecap="round" stroke-linejoin="round"><path stroke="none" d="M0 0h24v24H0z" fill="none"/><path d="M15 8h.01" /><path d="M12 20h-5a3 3 0 0 1 -3 -3v-10a3 3 0 0 1 3 -3h10a3 3 0 0 1 3 3v8" /><path d="M4 15l4 -4c.928 -.893 2.072 -.893 3 0l4 4" /><path d="M14 14l1 -1c.928 -.893 2.072 -.893 3 0l2 2" /><path d="M16 19h6" />
</symbol>
	<symbol id="photo-plus" class="icon icon-tabler icon-tabler-photo-plus" viewBox="0 0 24 24" stroke-width="2" stroke="currentColor" fill="none" stroke-linecap="round" stroke-linejoin="round"><path stroke="none" d="M0 0h24v24H0z" fill="none"/><path d="M15 8h.01" /><path d="M12 20h-5a3 3 0 0 1 -3 -3v-10a3 3 0 0 1 3 -3h10a3 3 0 0 1 3 3v5" /><path d="M4 15l4 -4c.928 -.893 2.072 -.893 3 0l4 4" /><path d="M14 14l1 -1c.617 -.593 1.328 -.793 2.009 -.598" /><path d="M16 19h6" /><path d="M19 16v6" />
</symbol>
	<symbol id="photo-search" class="icon icon-tabler icon-tabler-photo-search" viewBox="0 0 24 24" stroke-width="2" stroke="currentColor" fill="none" stroke-linecap="round" stroke-linejoin="round"><path stroke="none" d="M0 0h24v24H0z" fill="none"/><path d="M15 8h.01" /><path d="M12 20h-5a3 3 0 0 1 -3 -3v-10a3 3 0 0 1 3 -3h10a3 3 0 0 1 3 3v4.5" /><path d="M4 15l4 -4c.928 -.893 2.072 -.893 3 0l2 2" /><circle cx="18" cy="18" r="3" /><path d="M20.2 20.2l1.8 1.8" />
</symbol>
	<symbol id="photo-shield" class="icon icon-tabler icon-tabler-photo-shield" viewBox="0 0 24 24" stroke-width="2" stroke="currentColor" fill="none" stroke-linecap="round" stroke-linejoin="round"><path stroke="none" d="M0 0h24v24H0z" fill="none"/><path d="M15 8h.01" /><path d="M11.5 20h-4.5a3 3 0 0 1 -3 -3v-10a3 3 0 0 1 3 -3h10a3 3 0 0 1 3 3v4" /><path d="M4 15l4 -4c.928 -.893 2.072 -.893 3 0l1.5 1.5" /><path d="M22 16c0 4 -2.5 6 -3.5 6s-3.5 -2 -3.5 -6c1 0 2.5 -.5 3.5 -1.5c1 1 2.5 1.5 3.5 1.5z" />
</symbol>
	<symbol id="photo-star" class="icon icon-tabler icon-tabler-photo-star" viewBox="0 0 24 24" stroke-width="2" stroke="currentColor" fill="none" stroke-linecap="round" stroke-linejoin="round"><path stroke="none" d="M0 0h24v24H0z" fill="none"/><path d="M15 8h.01" /><path d="M11 20h-4a3 3 0 0 1 -3 -3v-10a3 3 0 0 1 3 -3h10a3 3 0 0 1 3 3v3.5" /><path d="M4 15l4 -4c.928 -.893 2.072 -.893 3 0l2 2" /><path d="M17.8 20.817l-2.172 1.138a0.392 .392 0 0 1 -.568 -.41l.415 -2.411l-1.757 -1.707a0.389 .389 0 0 1 .217 -.665l2.428 -.352l1.086 -2.193a0.392 .392 0 0 1 .702 0l1.086 2.193l2.428 .352a0.39 .39 0 0 1 .217 .665l-1.757 1.707l.414 2.41a0.39 .39 0 0 1 -.567 .411l-2.172 -1.138z" />
</symbol>
	<symbol id="photo-x" class="icon icon-tabler icon-tabler-photo-x" viewBox="0 0 24 24" stroke-width="2" stroke="currentColor" fill="none" stroke-linecap="round" stroke-linejoin="round"><path stroke="none" d="M0 0h24v24H0z" fill="none"/><path d="M15 8h.01" /><path d="M13 20h-6a3 3 0 0 1 -3 -3v-10a3 3 0 0 1 3 -3h10a3 3 0 0 1 3 3v6" /><path d="M4 15l4 -4c.928 -.893 2.072 -.893 3 0l2.5 2.5" /><path d="M21.5 21.5l-5 -5" /><path d="M16.5 21.5l5 -5" />
</symbol>
	<symbol id="trowel" class="icon icon-tabler icon-tabler-trowel" viewBox="0 0 24 24" stroke-width="2" stroke="currentColor" fill="none" stroke-linecap="round" stroke-linejoin="round"><path stroke="none" d="M0 0h24v24H0z" fill="none"/><path d="M14.42 9.058l-5.362 5.363a1.978 1.978 0 0 1 -3.275 -.773l-2.682 -8.044a1.978 1.978 0 0 1 2.502 -2.502l8.045 2.682a1.978 1.978 0 0 1 .773 3.274z" /><path d="M10 10l6.5 6.5" /><path d="M19.347 16.575l1.08 1.079a1.96 1.96 0 0 1 -2.773 2.772l-1.08 -1.079a1.96 1.96 0 0 1 2.773 -2.772z" />
</symbol>
	<symbol id="ux-circle" class="icon icon-tabler icon-tabler-ux-circle" viewBox="0 0 24 24" stroke-width="2" stroke="currentColor" fill="none" stroke-linecap="round" stroke-linejoin="round"><path stroke="none" d="M0 0h24v24H0z" fill="none"/><circle cx="12" cy="12" r="9" /><path d="M7 10v2a2 2 0 1 0 4 0v-2" /><path d="M14 10l3 4" /><path d="M14 14l3 -4" />
</symbol>
	<symbol id="variable-minus" class="icon icon-tabler icon-tabler-variable-minus" viewBox="0 0 24 24" stroke-width="2" stroke="currentColor" fill="none" stroke-linecap="round" stroke-linejoin="round"><path stroke="none" d="M0 0h24v24H0z" fill="none"/><path d="M8 16c1.5 0 3 -2 4 -3.5s2.5 -3.5 4 -3.5" /><path d="M5 4c-2.5 5 -2.5 10 0 16m14 -16c1.775 3.55 2.29 7.102 1.544 11.01m-11.544 -6.01h1c1 0 1 1 2.016 3.527c.782 1.966 .943 3 1.478 3.343" /><path d="M8 16c1.5 0 3 -2 4 -3.5s2.5 -3.5 4 -3.5" /><path d="M16 19h6" />
</symbol>
	<symbol id="variable-plus" class="icon icon-tabler icon-tabler-variable-plus" viewBox="0 0 24 24" stroke-width="2" stroke="currentColor" fill="none" stroke-linecap="round" stroke-linejoin="round"><path stroke="none" d="M0 0h24v24H0z" fill="none"/><path d="M5 4c-2.5 5 -2.5 10 0 16m14 -16c1.38 2.76 1.998 5.52 1.855 8.448m-11.855 -3.448h1c1 0 1 1 2.016 3.527c.785 1.972 .944 3.008 1.483 3.346" /><path d="M8 16c1.5 0 3 -2 4 -3.5s2.5 -3.5 4 -3.5" /><path d="M16 19h6" /><path d="M19 16v6" />
</symbol>

	<use xlink:href="#brand-blogger" x="24" y="24" width="24" height="24" />
	<use xlink:href="#grill-fork" x="68" y="24" width="24" height="24" />
	<use xlink:href="#grill-spatula" x="112" y="24" width="24" height="24" />
	<use xlink:href="#photo-cancel" x="156" y="24" width="24" height="24" />
	<use xlink:href="#photo-check" x="200" y="24" width="24" height="24" />
	<use xlink:href="#photo-down" x="244" y="24" width="24" height="24" />
	<use xlink:href="#photo-edit" x="24" y="68" width="24" height="24" />
	<use xlink:href="#photo-heart" x="68" y="68" width="24" height="24" />
	<use xlink:href="#photo-minus" x="112" y="68" width="24" height="24" />
	<use xlink:href="#photo-plus" x="156" y="68" width="24" height="24" />
	<use xlink:href="#photo-search" x="200" y="68" width="24" height="24" />
	<use xlink:href="#photo-shield" x="244" y="68" width="24" height="24" />
	<use xlink:href="#photo-star" x="24" y="112" width="24" height="24" />
	<use xlink:href="#photo-x" x="68" y="112" width="24" height="24" />
	<use xlink:href="#trowel" x="112" y="112" width="24" height="24" />
	<use xlink:href="#ux-circle" x="156" y="112" width="24" height="24" />
	<use xlink:href="#variable-minus" x="200" y="112" width="24" height="24" />
	<use xlink:href="#variable-plus" x="244" y="112" width="24" height="24" />

</svg>