<svg xmlns="http://www.w3.org/2000/svg" xmlns:xlink="http://www.w3.org/1999/xlink" viewBox="0 0 292 160" width="292" height="160" style="color: #354052"><rect x="0" y="0" width="292" height="160" fill="#fff"></rect>
	<symbol id="filled-current-location" xmlns="http://www.w3.org/2000/svg" width="24" height="24" viewBox="0 0 24 24" fill="currentColor"
> <path d="M12 1a1 1 0 0 1 1 1v1.055a9.004 9.004 0 0 1 7.946 7.945h1.054a1 1 0 0 1 0 2h-1.055a9.004 9.004 0 0 1 -7.944 7.945l-.001 1.055a1 1 0 0 1 -2 0v-1.055a9.004 9.004 0 0 1 -7.945 -7.944l-1.055 -.001a1 1 0 0 1 0 -2h1.055a9.004 9.004 0 0 1 7.945 -7.945v-1.055a1 1 0 0 1 1 -1m0 4a7 7 0 1 0 0 14a7 7 0 0 0 0 -14m0 3a4 4 0 1 1 -4 4l.005 -.2a4 4 0 0 1 3.995 -3.8" />
</symbol>
	<symbol id="filled-exposure" xmlns="http://www.w3.org/2000/svg" width="24" height="24" viewBox="0 0 24 24" fill="currentColor"
> <path d="M19 2a3 3 0 0 1 3 3v14a3 3 0 0 1 -3 3h-14a3 3 0 0 1 -3 -3v-14a3 3 0 0 1 3 -3zm0 2h-14a1 1 0 0 0 -1 1v14c0 .29 .123 .55 .321 .732l1.61 -1.584a973 973 0 0 0 6.69 -6.675l7.094 -7.173a1 1 0 0 0 -.715 -.3m-1 11h-4a1 1 0 0 0 0 2h4a1 1 0 0 0 0 -2m-10 -10a1 1 0 0 1 1 1v1h1a1 1 0 0 1 .993 .883l.007 .117a1 1 0 0 1 -1 1h-1v1a1 1 0 0 1 -.883 .993l-.117 .007a1 1 0 0 1 -1 -1v-1h-1a1 1 0 0 1 -.993 -.883l-.007 -.117a1 1 0 0 1 1 -1h1v-1a1 1 0 0 1 .883 -.993z" />
</symbol>
	<symbol id="filled-eye-table" xmlns="http://www.w3.org/2000/svg" width="24" height="24" viewBox="0 0 24 24" fill="currentColor"
> <path d="M20 2a1 1 0 0 1 0 2v16a2 2 0 0 1 -2 2h-12a2 2 0 0 1 -2 -2v-16a1 1 0 1 1 0 -2zm-12 15l-.128 .007a1 1 0 0 0 .118 1.993l.128 -.007a1 1 0 0 0 -.118 -1.993m4 0l-.128 .007a1 1 0 0 0 .118 1.993l.128 -.007a1 1 0 0 0 -.118 -1.993m4 0l-.128 .007a1 1 0 0 0 .118 1.993l.128 -.007a1 1 0 0 0 -.118 -1.993m-6 -3h-1a1 1 0 0 0 0 2h1a1 1 0 0 0 0 -2m5 0h-1a1 1 0 0 0 0 2h1a1 1 0 0 0 0 -2m-1 -8h-4a1 1 0 1 0 0 2h1v3a1 1 0 0 0 2 0v-3h1a1 1 0 0 0 0 -2" />
</symbol>
	<symbol id="filled-eyeglass-2" xmlns="http://www.w3.org/2000/svg" width="24" height="24" viewBox="0 0 24 24" fill="currentColor"
> <path d="M8 3a1 1 0 1 1 0 2h-1.257l-2.24 7.467a4.5 4.5 0 0 1 6.24 2.533h2.513a4.502 4.502 0 0 1 6.241 -2.534l-2.241 -7.466h-1.256a1 1 0 0 1 -.993 -.883l-.007 -.117a1 1 0 0 1 1 -1h2a1 1 0 0 1 .958 .713l3 10a1 1 0 0 1 .042 .287v2.5a4.5 4.5 0 0 1 -8.972 .5h-2.056a4.5 4.5 0 0 1 -8.972 -.5v-2.5a1 1 0 0 1 .042 -.287l3 -10a1 1 0 0 1 .958 -.713z" />
</symbol>
	<symbol id="filled-face-mask" xmlns="http://www.w3.org/2000/svg" width="24" height="24" viewBox="0 0 24 24" fill="currentColor"
> <path d="M12.825 4.196l5 1.43a3 3 0 0 1 2.175 2.884v.065c1.7 .33 3 1.72 3 3.425s-1.3 3.095 -3 3.425v.066a3 3 0 0 1 -2.175 2.885l-5 1.428a3 3 0 0 1 -1.65 0l-5 -1.429a3 3 0 0 1 -2.17 -2.702l-.005 -.247c-1.7 -.33 -3 -1.72 -3 -3.426c0 -1.705 1.3 -3.096 3 -3.426v-.064a3 3 0 0 1 2.175 -2.884l5 -1.428a3 3 0 0 1 1.65 0m2.175 8.802h-6a1 1 0 0 0 0 2h6a1 1 0 0 0 0 -2m-11 -2.349c-.6 .248 -1 .77 -1 1.349c0 .578 .4 1.101 1 1.349zm16.001 0v2.697c.599 -.248 .999 -.77 .999 -1.348s-.4 -1.1 -.999 -1.348m-5.001 -1.652h-6a1 1 0 1 0 0 2h6a1 1 0 0 0 0 -2" />
</symbol>
	<symbol id="filled-fence" xmlns="http://www.w3.org/2000/svg" width="24" height="24" viewBox="0 0 24 24" fill="currentColor"
> <path d="M19 17v3a1 1 0 0 1 -1 1h-4a1 1 0 0 1 -1 -1v-3z" /> <path d="M11 17v3a1 1 0 0 1 -1 1h-4a1 1 0 0 1 -1 -1v-3z" /> <path d="M20 12a1 1 0 0 1 1 1v2a1 1 0 0 1 -1 1h-16a1 1 0 0 1 -1 -1v-2a1 1 0 0 1 1 -1z" /> <path d="M8.707 3.293l2 2a1 1 0 0 1 .293 .707v5h-6v-5a1 1 0 0 1 .293 -.707l2 -2a1 1 0 0 1 1.414 0" /> <path d="M16.707 3.293l2 2a1 1 0 0 1 .293 .707v5h-6v-5a1 1 0 0 1 .293 -.707l2 -2a1 1 0 0 1 1.414 0" />
</symbol>
	<symbol id="filled-fidget-spinner" xmlns="http://www.w3.org/2000/svg" width="24" height="24" viewBox="0 0 24 24" fill="currentColor"
> <path d="M12 0a5 5 0 0 1 3.584 8.488l-.012 .012a5 5 0 0 1 1.33 2.517l.018 .101l.251 -.048q .15 -.025 .3 -.041l.304 -.024l.225 -.005a5 5 0 1 1 -4.89 6.046l-.032 -.164l-.24 .048a5 5 0 0 1 -.556 .062l-.282 .008q -.427 0 -.84 -.07l-.239 -.048l-.004 .025a5 5 0 0 1 -3.331 3.834l-.22 .068a5 5 0 1 1 -.461 -9.728l.173 .036l.019 -.102c.19 -.95 .653 -1.824 1.331 -2.516l-.05 -.052a5.02 5.02 0 0 1 -1.355 -2.978l-.018 -.244l-.005 -.225a5 5 0 0 1 5 -5m6 15a1 1 0 0 0 -1 1v.01a1 1 0 0 0 2 0v-.01a1 1 0 0 0 -1 -1m-12 0a1 1 0 0 0 -1 1v.01a1 1 0 0 0 2 0v-.01a1 1 0 0 0 -1 -1m6 -4.995c-1.1 0 -1.99 .891 -1.99 1.99v.02a1.99 1.99 0 0 0 3.98 0v-.02a1.99 1.99 0 0 0 -1.99 -1.99m0 -6.005a1 1 0 0 0 -1 1v.01a1 1 0 0 0 2 0v-.01a1 1 0 0 0 -1 -1" />
</symbol>
	<symbol id="filled-file-description" xmlns="http://www.w3.org/2000/svg" width="24" height="24" viewBox="0 0 24 24" fill="currentColor"
> <path d="M12 2l.117 .007a1 1 0 0 1 .876 .876l.007 .117v4l.005 .15a2 2 0 0 0 1.838 1.844l.157 .006h4l.117 .007a1 1 0 0 1 .876 .876l.007 .117v9a3 3 0 0 1 -2.824 2.995l-.176 .005h-10a3 3 0 0 1 -2.995 -2.824l-.005 -.176v-14a3 3 0 0 1 2.824 -2.995l.176 -.005zm3 14h-6a1 1 0 0 0 0 2h6a1 1 0 0 0 0 -2m0 -4h-6a1 1 0 0 0 0 2h6a1 1 0 0 0 0 -2" /> <path d="M19 7h-4l-.001 -4.001z" />
</symbol>
	<symbol id="filled-file-digit" xmlns="http://www.w3.org/2000/svg" width="24" height="24" viewBox="0 0 24 24" fill="currentColor"
> <path d="M12 2l.117 .007a1 1 0 0 1 .876 .876l.007 .117v4l.005 .15a2 2 0 0 0 1.838 1.844l.157 .006h4l.117 .007a1 1 0 0 1 .876 .876l.007 .117v9a3 3 0 0 1 -2.824 2.995l-.176 .005h-10a3 3 0 0 1 -2.995 -2.824l-.005 -.176v-14a3 3 0 0 1 2.824 -2.995l.176 -.005zm-1 9h-1a2 2 0 0 0 -2 2v3a2 2 0 0 0 2 2h1a2 2 0 0 0 2 -2v-3a2 2 0 0 0 -2 -2m4 0a1 1 0 0 0 -1 1v5a1 1 0 0 0 2 0v-5a1 1 0 0 0 -1 -1m-4 2v3h-1v-3z" /> <path d="M19 7h-4l-.001 -4.001z" />
</symbol>
	<symbol id="filled-file-horizontal" xmlns="http://www.w3.org/2000/svg" width="24" height="24" viewBox="0 0 24 24" fill="currentColor"
> <path d="M22 12l-.007 -.117a1 1 0 0 0 -.876 -.876l-.117 -.007h-4l-.15 -.005a2 2 0 0 1 -1.844 -1.838l-.006 -.157v-4l-.007 -.117a1 1 0 0 0 -.876 -.876l-.117 -.007h-9a3 3 0 0 0 -2.995 2.824l-.005 .176v10a3 3 0 0 0 2.824 2.995l.176 .005h14a3 3 0 0 0 2.995 -2.824l.005 -.176z" /> <path d="M17 5v4l4.001 .001z" />
</symbol>
	<symbol id="filled-file-invoice" xmlns="http://www.w3.org/2000/svg" width="24" height="24" viewBox="0 0 24 24" fill="currentColor"
> <path d="M12 2l.117 .007a1 1 0 0 1 .876 .876l.007 .117v4l.005 .15a2 2 0 0 0 1.838 1.844l.157 .006h4l.117 .007a1 1 0 0 1 .876 .876l.007 .117v9a3 3 0 0 1 -2.824 2.995l-.176 .005h-10a3 3 0 0 1 -2.995 -2.824l-.005 -.176v-14a3 3 0 0 1 2.824 -2.995l.176 -.005zm4 15h-2a1 1 0 0 0 0 2h2a1 1 0 0 0 0 -2m0 -4h-8a1 1 0 0 0 0 2h8a1 1 0 0 0 0 -2m-7 -7h-1a1 1 0 1 0 0 2h1a1 1 0 1 0 0 -2" /> <path d="M19 7h-4l-.001 -4.001z" />
</symbol>
	<symbol id="filled-file-minus" xmlns="http://www.w3.org/2000/svg" width="24" height="24" viewBox="0 0 24 24" fill="currentColor"
> <path d="M12 2l.117 .007a1 1 0 0 1 .876 .876l.007 .117v4l.005 .15a2 2 0 0 0 1.838 1.844l.157 .006h4l.117 .007a1 1 0 0 1 .876 .876l.007 .117v9a3 3 0 0 1 -2.824 2.995l-.176 .005h-10a3 3 0 0 1 -2.995 -2.824l-.005 -.176v-14a3 3 0 0 1 2.824 -2.995l.176 -.005zm3 11h-6a1 1 0 0 0 0 2h6a1 1 0 0 0 0 -2" /> <path d="M19 7h-4l-.001 -4.001z" />
</symbol>
	<symbol id="filled-file-neutral" xmlns="http://www.w3.org/2000/svg" width="24" height="24" viewBox="0 0 24 24" fill="currentColor"
> <path d="M12 2l.117 .007a1 1 0 0 1 .876 .876l.007 .117v4l.005 .15a2 2 0 0 0 1.838 1.844l.157 .006h4l.117 .007a1 1 0 0 1 .876 .876l.007 .117v9a3 3 0 0 1 -2.824 2.995l-.176 .005h-10a3 3 0 0 1 -2.995 -2.824l-.005 -.176v-14a3 3 0 0 1 2.824 -2.995l.176 -.005zm2 14h-4a1 1 0 0 0 0 2h4a1 1 0 0 0 0 -2m-3.995 -4h-.01a1 1 0 0 0 0 2h.01a1 1 0 0 0 0 -2m4 0h-.01a1 1 0 0 0 0 2h.01a1 1 0 0 0 0 -2" /> <path d="M19 7h-4l-.001 -4.001z" />
</symbol>
	<symbol id="filled-file-power" xmlns="http://www.w3.org/2000/svg" width="24" height="24" viewBox="0 0 24 24" fill="currentColor"
> <path d="M12 2l.117 .007a1 1 0 0 1 .876 .876l.007 .117v4l.005 .15a2 2 0 0 0 1.838 1.844l.157 .006h4l.117 .007a1 1 0 0 1 .876 .876l.007 .117v9a3 3 0 0 1 -2.824 2.995l-.176 .005h-10a3 3 0 0 1 -2.995 -2.824l-.005 -.176v-14a3 3 0 0 1 2.824 -2.995l.176 -.005zm.555 9.168a1 1 0 0 0 -1.387 .277l-2 3l-.057 .097a1 1 0 0 0 .889 1.458h2.13l-.962 1.445a1 1 0 1 0 1.664 1.11l2 -3l.057 -.097a1 1 0 0 0 -.889 -1.458h-2.132l.964 -1.445a1 1 0 0 0 -.277 -1.387" /> <path d="M19 7h-4l-.001 -4.001z" />
</symbol>
	<symbol id="filled-file-sad" xmlns="http://www.w3.org/2000/svg" width="24" height="24" viewBox="0 0 24 24" fill="currentColor"
> <path d="M12 2l.117 .007a1 1 0 0 1 .876 .876l.007 .117v4l.005 .15a2 2 0 0 0 1.838 1.844l.157 .006h4l.117 .007a1 1 0 0 1 .876 .876l.007 .117v9a3 3 0 0 1 -2.824 2.995l-.176 .005h-10a3 3 0 0 1 -2.995 -2.824l-.005 -.176v-14a3 3 0 0 1 2.824 -2.995l.176 -.005zm2.571 15.18a4.5 4.5 0 0 0 -5.142 0a1 1 0 1 0 1.142 1.64a2.5 2.5 0 0 1 2.858 0a1 1 0 0 0 1.142 -1.64m-4.565 -5.18h-.011a1 1 0 0 0 0 2h.01a1 1 0 0 0 0 -2m4 0h-.011a1 1 0 0 0 0 2h.01a1 1 0 0 0 0 -2" /> <path d="M19 7h-4l-.001 -4.001z" />
</symbol>
	<symbol id="filled-file-smile" xmlns="http://www.w3.org/2000/svg" width="24" height="24" viewBox="0 0 24 24" fill="currentColor"
> <path d="M12 2l.117 .007a1 1 0 0 1 .876 .876l.007 .117v4l.005 .15a2 2 0 0 0 1.838 1.844l.157 .006h4l.117 .007a1 1 0 0 1 .876 .876l.007 .117v9a3 3 0 0 1 -2.824 2.995l-.176 .005h-10a3 3 0 0 1 -2.995 -2.824l-.005 -.176v-14a3 3 0 0 1 2.824 -2.995l.176 -.005zm2.82 14.429a1 1 0 0 0 -1.391 -.25a2.5 2.5 0 0 1 -2.858 0a1 1 0 0 0 -1.142 1.642a4.5 4.5 0 0 0 5.142 0a1 1 0 0 0 .25 -1.392m-4.815 -4.429h-.01a1 1 0 0 0 0 2h.01a1 1 0 0 0 0 -2m4 0h-.01a1 1 0 0 0 0 2h.01a1 1 0 0 0 0 -2" /> <path d="M19 7h-4l-.001 -4.001z" />
</symbol>
	<symbol id="filled-file-star" xmlns="http://www.w3.org/2000/svg" width="24" height="24" viewBox="0 0 24 24" fill="currentColor"
> <path d="M12 2l.117 .007a1 1 0 0 1 .876 .876l.007 .117v4l.005 .15a2 2 0 0 0 1.838 1.844l.157 .006h4l.117 .007a1 1 0 0 1 .876 .876l.007 .117v9a3 3 0 0 1 -2.824 2.995l-.176 .005h-10a3 3 0 0 1 -2.995 -2.824l-.005 -.176v-14a3 3 0 0 1 2.824 -2.995l.176 -.005zm-.2 9a.39 .39 0 0 0 -.351 .217l-1.086 2.193l-2.428 .352a.389 .389 0 0 0 -.217 .665l1.757 1.707l-.415 2.411a.392 .392 0 0 0 .568 .41l2.172 -1.138l2.172 1.138a.39 .39 0 0 0 .567 -.411l-.414 -2.41l1.757 -1.707a.39 .39 0 0 0 -.217 -.665l-2.428 -.352l-1.086 -2.193a.39 .39 0 0 0 -.351 -.217" /> <path d="M19 7h-4l-.001 -4.001z" />
</symbol>
	<symbol id="filled-file-text" xmlns="http://www.w3.org/2000/svg" width="24" height="24" viewBox="0 0 24 24" fill="currentColor"
> <path d="M12 2l.117 .007a1 1 0 0 1 .876 .876l.007 .117v4l.005 .15a2 2 0 0 0 1.838 1.844l.157 .006h4l.117 .007a1 1 0 0 1 .876 .876l.007 .117v9a3 3 0 0 1 -2.824 2.995l-.176 .005h-10a3 3 0 0 1 -2.995 -2.824l-.005 -.176v-14a3 3 0 0 1 2.824 -2.995l.176 -.005zm3 14h-6a1 1 0 0 0 0 2h6a1 1 0 0 0 0 -2m0 -4h-6a1 1 0 0 0 0 2h6a1 1 0 0 0 0 -2m-5 -4h-1a1 1 0 1 0 0 2h1a1 1 0 0 0 0 -2" /> <path d="M19 7h-4l-.001 -4.001z" />
</symbol>

	<use xlink:href="#filled-current-location" x="24" y="24" width="24" height="24" />
	<use xlink:href="#filled-exposure" x="68" y="24" width="24" height="24" />
	<use xlink:href="#filled-eye-table" x="112" y="24" width="24" height="24" />
	<use xlink:href="#filled-eyeglass-2" x="156" y="24" width="24" height="24" />
	<use xlink:href="#filled-face-mask" x="200" y="24" width="24" height="24" />
	<use xlink:href="#filled-fence" x="244" y="24" width="24" height="24" />
	<use xlink:href="#filled-fidget-spinner" x="24" y="68" width="24" height="24" />
	<use xlink:href="#filled-file-description" x="68" y="68" width="24" height="24" />
	<use xlink:href="#filled-file-digit" x="112" y="68" width="24" height="24" />
	<use xlink:href="#filled-file-horizontal" x="156" y="68" width="24" height="24" />
	<use xlink:href="#filled-file-invoice" x="200" y="68" width="24" height="24" />
	<use xlink:href="#filled-file-minus" x="244" y="68" width="24" height="24" />
	<use xlink:href="#filled-file-neutral" x="24" y="112" width="24" height="24" />
	<use xlink:href="#filled-file-power" x="68" y="112" width="24" height="24" />
	<use xlink:href="#filled-file-sad" x="112" y="112" width="24" height="24" />
	<use xlink:href="#filled-file-smile" x="156" y="112" width="24" height="24" />
	<use xlink:href="#filled-file-star" x="200" y="112" width="24" height="24" />
	<use xlink:href="#filled-file-text" x="244" y="112" width="24" height="24" />

</svg>