<svg xmlns="http://www.w3.org/2000/svg" xmlns:xlink="http://www.w3.org/1999/xlink" viewBox="0 0 292 160" width="292" height="160" style="color: #354052"><rect x="0" y="0" width="292" height="160" fill="#fff"></rect>
	<symbol id="outline-arrows-transfer-up-down" xmlns="http://www.w3.org/2000/svg" width="24" height="24" viewBox="0 0 24 24" fill="none" stroke="currentColor" stroke-width="2" stroke-linecap="round" stroke-linejoin="round"
> <path d="M7 21v-6" /> <path d="M20 6l-3 -3l-3 3" /> <path d="M10 18l-3 3l-3 -3" /> <path d="M7 3v2" /> <path d="M7 9v2" /> <path d="M17 3v6" /> <path d="M17 21v-2" /> <path d="M17 15v-2" />
</symbol>
	<symbol id="outline-brand-amie" xmlns="http://www.w3.org/2000/svg" width="24" height="24" viewBox="0 0 24 24" fill="none" stroke="currentColor" stroke-width="2" stroke-linecap="round" stroke-linejoin="round"
> <path d="M3 8.5c0 1.33 .472 2.55 1.257 3.5a5.5 5.5 0 0 0 7.743 7.743a5.5 5.5 0 0 0 7.743 -7.743a5.5 5.5 0 0 0 -7.743 -7.743a5.5 5.5 0 0 0 -9 4.243" /> <path d="M10 9.5c0 -.828 .895 -1.5 2 -1.5s2 .672 2 1.5v5c0 .828 -.895 1.5 -2 1.5s-2 -.672 -2 -1.5z" />
</symbol>
	<symbol id="outline-brand-bebo" xmlns="http://www.w3.org/2000/svg" width="24" height="24" viewBox="0 0 24 24" fill="none" stroke="currentColor" stroke-width="2" stroke-linecap="round" stroke-linejoin="round"
> <path d="M12 17.5a3.5 3.5 0 0 0 3.5 -3.5c0 -1.838 -1.159 -3.002 -3.005 -3.372c-.746 -.15 -1.37 -.745 -1.37 -1.506c0 -1.142 .934 -2.095 2.058 -1.894c3.61 .645 5.817 3.058 5.817 6.772a7 7 0 1 1 -14 0v-9.25a1.75 1.75 0 1 1 3.5 0v9.25a3.5 3.5 0 0 0 3.5 3.5" />
</symbol>
	<symbol id="outline-building-airport" xmlns="http://www.w3.org/2000/svg" width="24" height="24" viewBox="0 0 24 24" fill="none" stroke="currentColor" stroke-width="2" stroke-linecap="round" stroke-linejoin="round"
> <path d="M3.59 7h8.82a1 1 0 0 1 .902 1.433l-1.44 3a1 1 0 0 1 -.901 .567h-5.942a1 1 0 0 1 -.901 -.567l-1.44 -3a1 1 0 0 1 .901 -1.433" /> <path d="M6 7l-.78 -2.342a.5 .5 0 0 1 .473 -.658h4.612a.5 .5 0 0 1 .475 .658l-.78 2.342" /> <path d="M8 2v2" /> <path d="M6 12v9h4v-9" /> <path d="M3 21h18" /> <path d="M22 5h-6l-1 -1" /> <path d="M18 3l2 2l-2 2" /> <path d="M10 17h7a2 2 0 0 1 2 2v2" />
</symbol>
	<symbol id="outline-camera-ai" xmlns="http://www.w3.org/2000/svg" width="24" height="24" viewBox="0 0 24 24" fill="none" stroke="currentColor" stroke-width="2" stroke-linecap="round" stroke-linejoin="round"
> <path d="M10 20h-5a2 2 0 0 1 -2 -2v-9a2 2 0 0 1 2 -2h1a2 2 0 0 0 2 -2a1 1 0 0 1 1 -1h6a1 1 0 0 1 1 1a2 2 0 0 0 2 2h1a2 2 0 0 1 2 2v2" /> <path d="M14.362 11.15a3 3 0 1 0 -4.144 4.263" /> <path d="M14 21v-4a2 2 0 1 1 4 0v4" /> <path d="M14 19h4" /> <path d="M21 15v6" />
</symbol>
	<symbol id="outline-camera-bitcoin" xmlns="http://www.w3.org/2000/svg" width="24" height="24" viewBox="0 0 24 24" fill="none" stroke="currentColor" stroke-width="2" stroke-linecap="round" stroke-linejoin="round"
> <path d="M12 20h-7a2 2 0 0 1 -2 -2v-9a2 2 0 0 1 2 -2h1a2 2 0 0 0 2 -2a1 1 0 0 1 1 -1h6a1 1 0 0 1 1 1a2 2 0 0 0 2 2h1a2 2 0 0 1 2 2v1" /> <path d="M14.477 11.307a3 3 0 1 0 -2.477 4.693" /> <path d="M17 21v-6" /> <path d="M19 15v-1.5" /> <path d="M19 22.5v-1.5" /> <path d="M17 18h3" /> <path d="M19 18h.5a1.5 1.5 0 0 1 0 3h-3.5" /> <path d="M19 18h.5a1.5 1.5 0 0 0 0 -3h-3.5" />
</symbol>
	<symbol id="outline-camera-moon" xmlns="http://www.w3.org/2000/svg" width="24" height="24" viewBox="0 0 24 24" fill="none" stroke="currentColor" stroke-width="2" stroke-linecap="round" stroke-linejoin="round"
> <path d="M11.5 20h-6.5a2 2 0 0 1 -2 -2v-9a2 2 0 0 1 2 -2h1a2 2 0 0 0 2 -2a1 1 0 0 1 1 -1h6a1 1 0 0 1 1 1a2 2 0 0 0 2 2h1a2 2 0 0 1 2 2v3.5" /> <path d="M14.815 11.96a3.001 3.001 0 1 0 -3.398 3.983" /> <path d="M18.62 22c-2 0 -3.62 -1.58 -3.62 -3.53c0 -1.727 1.273 -3.165 2.954 -3.47a3.4 3.4 0 0 0 -.24 1.264c0 1.95 1.621 3.53 3.62 3.53q .342 0 .666 -.06c-.521 1.326 -1.838 2.266 -3.38 2.266" />
</symbol>
	<symbol id="outline-chart-column" xmlns="http://www.w3.org/2000/svg" width="24" height="24" viewBox="0 0 24 24" fill="none" stroke="currentColor" stroke-width="2" stroke-linecap="round" stroke-linejoin="round"
> <path d="M4 20h3" /> <path d="M17 20h3" /> <path d="M10.5 20h3" /> <path d="M4 16h3" /> <path d="M17 16h3" /> <path d="M10.5 16h3" /> <path d="M4 12h3" /> <path d="M17 12h3" /> <path d="M10.5 12h3" /> <path d="M4 8h3" /> <path d="M17 8h3" /> <path d="M4 4h3" />
</symbol>
	<symbol id="outline-chart-covariate" xmlns="http://www.w3.org/2000/svg" width="24" height="24" viewBox="0 0 24 24" fill="none" stroke="currentColor" stroke-width="2" stroke-linecap="round" stroke-linejoin="round"
> <path d="M18 11h.009" /> <path d="M14 15h.009" /> <path d="M12 6h.009" /> <path d="M8 10h.009" /> <path d="M3 21l17 -17" /> <path d="M3 3v18h18" />
</symbol>
	<symbol id="outline-congruent-to" xmlns="http://www.w3.org/2000/svg" width="24" height="24" viewBox="0 0 24 24" fill="none" stroke="currentColor" stroke-width="2" stroke-linecap="round" stroke-linejoin="round"
> <path d="M5 13h14" /> <path d="M5 17h14" /> <path d="M5 7.686c2.333 -2.624 4.667 -1.856 7 .064s4.667 2.688 7 .064" />
</symbol>
	<symbol id="outline-diaper" xmlns="http://www.w3.org/2000/svg" width="24" height="24" viewBox="0 0 24 24" fill="none" stroke="currentColor" stroke-width="2" stroke-linecap="round" stroke-linejoin="round"
> <path d="M3 8.323c0 -.579 0 -.868 .044 -1.11a2.7 2.7 0 0 1 2.17 -2.169c.239 -.044 .529 -.044 1.109 -.044h11.353c.579 0 .868 0 1.11 .044a2.7 2.7 0 0 1 2.169 2.17c.044 .24 .044 .53 .044 1.11v2.676a9 9 0 0 1 -18 0z" /> <path d="M17 9h4" /> <path d="M3 9h4" /> <path d="M14.25 19.7v-1.4a6.3 6.3 0 0 1 6.3 -6.3" /> <path d="M9.75 19.7v-1.4a6.3 6.3 0 0 0 -6.3 -6.3" />
</symbol>
	<symbol id="outline-file-ai" xmlns="http://www.w3.org/2000/svg" width="24" height="24" viewBox="0 0 24 24" fill="none" stroke="currentColor" stroke-width="2" stroke-linecap="round" stroke-linejoin="round"
> <path d="M14 3v4a1 1 0 0 0 1 1h4" /> <path d="M10 21h-3a2 2 0 0 1 -2 -2v-14a2 2 0 0 1 2 -2h7l5 5v4" /> <path d="M14 21v-4a2 2 0 1 1 4 0v4" /> <path d="M14 19h4" /> <path d="M21 15v6" />
</symbol>
	<symbol id="outline-file-bitcoin" xmlns="http://www.w3.org/2000/svg" width="24" height="24" viewBox="0 0 24 24" fill="none" stroke="currentColor" stroke-width="2" stroke-linecap="round" stroke-linejoin="round"
> <path d="M14 3v4a1 1 0 0 0 1 1h4" /> <path d="M12 21h-5a2 2 0 0 1 -2 -2v-14a2 2 0 0 1 2 -2h7l5 5v2" /> <path d="M17 21v-6m2 0v-1.5m0 9v-1.5m-2 -3h3m-1 0h.5a1.5 1.5 0 0 1 0 3h-3.5m3 -3h.5a1.5 1.5 0 0 0 0 -3h-3.5" />
</symbol>
	<symbol id="outline-lock-password" xmlns="http://www.w3.org/2000/svg" width="24" height="24" viewBox="0 0 24 24" fill="none" stroke="currentColor" stroke-width="2" stroke-linecap="round" stroke-linejoin="round"
> <path d="M5 13a2 2 0 0 1 2 -2h10a2 2 0 0 1 2 2v6a2 2 0 0 1 -2 2h-10a2 2 0 0 1 -2 -2z" /> <path d="M8 11v-4a4 4 0 1 1 8 0v4" /> <path d="M15 16h.01" /> <path d="M12.01 16h.01" /> <path d="M9.02 16h.01" />
</symbol>
	<symbol id="outline-phone-done" xmlns="http://www.w3.org/2000/svg" width="24" height="24" viewBox="0 0 24 24" fill="none" stroke="currentColor" stroke-width="2" stroke-linecap="round" stroke-linejoin="round"
> <path d="M5 4h4l2 5l-2.5 1.5a11 11 0 0 0 5 5l1.5 -2.5l5 2v4a2 2 0 0 1 -2 2c-8.072 -.49 -14.51 -6.928 -15 -15a2 2 0 0 1 2 -2" /> <path d="M15 5l2 2l4 -4" />
</symbol>
	<symbol id="outline-phone-end" xmlns="http://www.w3.org/2000/svg" width="24" height="24" viewBox="0 0 24 24" fill="none" stroke="currentColor" stroke-width="2" stroke-linecap="round" stroke-linejoin="round"
> <path d="M5 4h4l2 5l-2.5 1.5a11 11 0 0 0 5 5l1.5 -2.5l5 2v4a2 2 0 0 1 -2 2c-8.072 -.49 -14.51 -6.928 -15 -15a2 2 0 0 1 2 -2" /> <path d="M17 3l4 4" /> <path d="M21 3l-4 4" />
</symbol>
	<symbol id="outline-phone-ringing" xmlns="http://www.w3.org/2000/svg" width="24" height="24" viewBox="0 0 24 24" fill="none" stroke="currentColor" stroke-width="2" stroke-linecap="round" stroke-linejoin="round"
> <path d="M20 4l-2 2" /> <path d="M22 10.5l-2.5 -.5" /> <path d="M13.5 2l.5 2.5" /> <path d="M5 4h4l2 5l-2.5 1.5a11 11 0 0 0 5 5l1.5 -2.5l5 2v4a2 2 0 0 1 -2 2c-8.072 -.49 -14.51 -6.928 -15 -15a2 2 0 0 1 2 -2" />
</symbol>
	<symbol id="outline-stopwatch" xmlns="http://www.w3.org/2000/svg" width="24" height="24" viewBox="0 0 24 24" fill="none" stroke="currentColor" stroke-width="2" stroke-linecap="round" stroke-linejoin="round"
> <path d="M5 13a7 7 0 1 0 14 0a7 7 0 0 0 -14 0z" /> <path d="M14.5 10.5l-2.5 2.5" /> <path d="M17 8l1 -1" /> <path d="M14 3h-4" />
</symbol>

	<use xlink:href="#outline-arrows-transfer-up-down" x="24" y="24" width="24" height="24" />
	<use xlink:href="#outline-brand-amie" x="68" y="24" width="24" height="24" />
	<use xlink:href="#outline-brand-bebo" x="112" y="24" width="24" height="24" />
	<use xlink:href="#outline-building-airport" x="156" y="24" width="24" height="24" />
	<use xlink:href="#outline-camera-ai" x="200" y="24" width="24" height="24" />
	<use xlink:href="#outline-camera-bitcoin" x="244" y="24" width="24" height="24" />
	<use xlink:href="#outline-camera-moon" x="24" y="68" width="24" height="24" />
	<use xlink:href="#outline-chart-column" x="68" y="68" width="24" height="24" />
	<use xlink:href="#outline-chart-covariate" x="112" y="68" width="24" height="24" />
	<use xlink:href="#outline-congruent-to" x="156" y="68" width="24" height="24" />
	<use xlink:href="#outline-diaper" x="200" y="68" width="24" height="24" />
	<use xlink:href="#outline-file-ai" x="244" y="68" width="24" height="24" />
	<use xlink:href="#outline-file-bitcoin" x="24" y="112" width="24" height="24" />
	<use xlink:href="#outline-lock-password" x="68" y="112" width="24" height="24" />
	<use xlink:href="#outline-phone-done" x="112" y="112" width="24" height="24" />
	<use xlink:href="#outline-phone-end" x="156" y="112" width="24" height="24" />
	<use xlink:href="#outline-phone-ringing" x="200" y="112" width="24" height="24" />
	<use xlink:href="#outline-stopwatch" x="244" y="112" width="24" height="24" />

</svg>