<svg xmlns="http://www.w3.org/2000/svg" xmlns:xlink="http://www.w3.org/1999/xlink" viewBox="0 0 292 160" width="292" height="160" style="color: #354052"><rect x="0" y="0" width="292" height="160" fill="#fff"></rect>
	<symbol id="bookmark-edit" class="icon icon-tabler icon-tabler-bookmark-edit" viewBox="0 0 24 24" stroke-width="2" stroke="currentColor" fill="none" stroke-linecap="round" stroke-linejoin="round"><path stroke="none" d="M0 0h24v24H0z" fill="none"/><path d="M11.35 17.39l-4.35 2.61v-14a2 2 0 0 1 2 -2h6a2 2 0 0 1 2 2v6" /><path d="M18.42 15.61a2.1 2.1 0 0 1 2.97 2.97l-3.39 3.42h-3v-3l3.42 -3.39z" />
</symbol>
	<symbol id="bookmark-minus" class="icon icon-tabler icon-tabler-bookmark-minus" viewBox="0 0 24 24" stroke-width="2" stroke="currentColor" fill="none" stroke-linecap="round" stroke-linejoin="round"><path stroke="none" d="M0 0h24v24H0z" fill="none"/><path d="M12.427 17.256l-.427 -.256l-5 3v-14a2 2 0 0 1 2 -2h6a2 2 0 0 1 2 2v9" /><path d="M16 19h6" />
</symbol>
	<symbol id="bookmark-plus" class="icon icon-tabler icon-tabler-bookmark-plus" viewBox="0 0 24 24" stroke-width="2" stroke="currentColor" fill="none" stroke-linecap="round" stroke-linejoin="round"><path stroke="none" d="M0 0h24v24H0z" fill="none"/><path d="M12.357 17.214l-.357 -.214l-5 3v-14a2 2 0 0 1 2 -2h6a2 2 0 0 1 2 2v6.5" /><path d="M16 19h6" /><path d="M19 16v6" />
</symbol>
	<symbol id="bookmark-question" class="icon icon-tabler icon-tabler-bookmark-question" viewBox="0 0 24 24" stroke-width="2" stroke="currentColor" fill="none" stroke-linecap="round" stroke-linejoin="round"><path stroke="none" d="M0 0h24v24H0z" fill="none"/><path d="M15.006 18.804l-3.006 -1.804l-5 3v-14a2 2 0 0 1 2 -2h6a2 2 0 0 1 2 2v5.5" /><path d="M19 22v.01" /><path d="M19 19a2.003 2.003 0 0 0 .914 -3.782a1.98 1.98 0 0 0 -2.414 .483" />
</symbol>
	<symbol id="focus-auto" class="icon icon-tabler icon-tabler-focus-auto" viewBox="0 0 24 24" stroke-width="2" stroke="currentColor" fill="none" stroke-linecap="round" stroke-linejoin="round"><path stroke="none" d="M0 0h24v24H0z" fill="none"/><path d="M4 8v-2a2 2 0 0 1 2 -2h2" /><path d="M4 16v2a2 2 0 0 0 2 2h2" /><path d="M16 4h2a2 2 0 0 1 2 2v2" /><path d="M16 20h2a2 2 0 0 0 2 -2v-2" /><path d="M10 15v-4a2 2 0 1 1 4 0v4" /><path d="M10 13h4" />
</symbol>
	<symbol id="freeze-column" class="icon icon-tabler icon-tabler-freeze-column" viewBox="0 0 24 24" stroke-width="2" stroke="currentColor" fill="none" stroke-linecap="round" stroke-linejoin="round"><path stroke="none" d="M0 0h24v24H0z" fill="none"/><path d="M9 9.5l-6 6" /><path d="M9 4l-6 6" /><path d="M9 15l-5 5" /><path d="M9 3v18" /><path d="M3 5a2 2 0 0 1 2 -2h14a2 2 0 0 1 2 2v14a2 2 0 0 1 -2 2h-14a2 2 0 0 1 -2 -2v-14z" />
</symbol>
	<symbol id="freeze-row-column" class="icon icon-tabler icon-tabler-freeze-row-column" viewBox="0 0 24 24" stroke-width="2" stroke="currentColor" fill="none" stroke-linecap="round" stroke-linejoin="round"><path stroke="none" d="M0 0h24v24H0z" fill="none"/><path d="M3 5a2 2 0 0 1 2 -2h14a2 2 0 0 1 2 2v14a2 2 0 0 1 -2 2h-14a2 2 0 0 1 -2 -2v-14z" /><path d="M15 3l-12 12" /><path d="M9.5 3l-6 6" /><path d="M20 3.5l-5.5 5.5" /><path d="M9 15l-5 5" /><path d="M21 9h-12v12" />
</symbol>
	<symbol id="freeze-row" class="icon icon-tabler icon-tabler-freeze-row" viewBox="0 0 24 24" stroke-width="2" stroke="currentColor" fill="none" stroke-linecap="round" stroke-linejoin="round"><path stroke="none" d="M0 0h24v24H0z" fill="none"/><path d="M3 5a2 2 0 0 1 2 -2h14a2 2 0 0 1 2 2v14a2 2 0 0 1 -2 2h-14a2 2 0 0 1 -2 -2v-14z" /><path d="M21 9h-18" /><path d="M15 3l-6 6" /><path d="M9.5 3l-6 6" /><path d="M20 3.5l-5.5 5.5" />
</symbol>
	<symbol id="play-basketball" class="icon icon-tabler icon-tabler-play-basketball" viewBox="0 0 24 24" stroke-width="2" stroke="currentColor" fill="none" stroke-linecap="round" stroke-linejoin="round"><path stroke="none" d="M0 0h24v24H0z" fill="none"/><path d="M10 4a1 1 0 1 0 2 0a1 1 0 0 0 -2 0" /><path d="M5 21l3 -3l.75 -1.5" /><path d="M14 21v-4l-4 -3l.5 -6" /><path d="M5 12l1 -3l4.5 -1l3.5 3l4 1" /><path d="M18.5 16a.5 .5 0 1 0 0 -1a.5 .5 0 0 0 0 1z" fill="currentColor" />
</symbol>
	<symbol id="play-football" class="icon icon-tabler icon-tabler-play-football" viewBox="0 0 24 24" stroke-width="2" stroke="currentColor" fill="none" stroke-linecap="round" stroke-linejoin="round"><path stroke="none" d="M0 0h24v24H0z" fill="none"/><path d="M11 4a1 1 0 1 0 2 0a1 1 0 0 0 -2 0" /><path d="M3 17l5 1l.75 -1.5" /><path d="M14 21v-4l-4 -3l1 -6" /><path d="M6 12v-3l5 -1l3 3l3 1" /><path d="M19.5 20a.5 .5 0 1 0 0 -1a.5 .5 0 0 0 0 1z" fill="currentColor" />
</symbol>
	<symbol id="play-handball" class="icon icon-tabler icon-tabler-play-handball" viewBox="0 0 24 24" stroke-width="2" stroke="currentColor" fill="none" stroke-linecap="round" stroke-linejoin="round"><path stroke="none" d="M0 0h24v24H0z" fill="none"/><path d="M13 21l3.5 -2l-4.5 -4l2 -4.5" /><path d="M7 6l2 4l5 .5l4 2.5l2.5 3" /><path d="M4 20l5 -1l1.5 -2" /><path d="M15 7a1 1 0 1 0 2 0a1 1 0 0 0 -2 0" /><path d="M9.5 5a.5 .5 0 1 0 0 -1a.5 .5 0 0 0 0 1z" fill="currentColor" />
</symbol>
	<symbol id="play-volleyball" class="icon icon-tabler icon-tabler-play-volleyball" viewBox="0 0 24 24" stroke-width="2" stroke="currentColor" fill="none" stroke-linecap="round" stroke-linejoin="round"><path stroke="none" d="M0 0h24v24H0z" fill="none"/><path d="M13 21l3.5 -2l-4.5 -4l2 -4.5" /><path d="M7 6l2 4l5 .5l4 2.5l2.5 3" /><path d="M4 20l5 -1l1.5 -2" /><path d="M15 7a1 1 0 1 0 2 0a1 1 0 0 0 -2 0" /><path d="M9.5 5a.5 .5 0 1 0 0 -1a.5 .5 0 0 0 0 1z" fill="currentColor" />
</symbol>
	<symbol id="rings" class="icon icon-tabler icon-tabler-rings" viewBox="0 0 24 24" stroke-width="2" stroke="currentColor" fill="none" stroke-linecap="round" stroke-linejoin="round"><path stroke="none" d="M0 0h24v24H0z" fill="none"/><path d="M7 17m-3 0a3 3 0 1 0 6 0a3 3 0 1 0 -6 0" /><path d="M17 17m-3 0a3 3 0 1 0 6 0a3 3 0 1 0 -6 0" /><path d="M7 15v-11" /><path d="M17 15v-11" /><path d="M3 4h18" />
</symbol>
	<symbol id="scoreboard" class="icon icon-tabler icon-tabler-scoreboard" viewBox="0 0 24 24" stroke-width="2" stroke="currentColor" fill="none" stroke-linecap="round" stroke-linejoin="round"><path stroke="none" d="M0 0h24v24H0z" fill="none"/><path d="M3 5m0 2a2 2 0 0 1 2 -2h14a2 2 0 0 1 2 2v10a2 2 0 0 1 -2 2h-14a2 2 0 0 1 -2 -2z" /><path d="M12 5v2" /><path d="M12 10v1" /><path d="M12 14v1" /><path d="M12 18v1" /><path d="M7 3v2" /><path d="M17 3v2" /><path d="M15 10.5v3a1.5 1.5 0 0 0 3 0v-3a1.5 1.5 0 0 0 -3 0z" /><path d="M6 9h1.5a1.5 1.5 0 0 1 0 3h-.5h.5a1.5 1.5 0 0 1 0 3h-1.5" />
</symbol>
	<symbol id="shi-jumping" class="icon icon-tabler icon-tabler-shi-jumping" viewBox="0 0 24 24" stroke-width="2" stroke="currentColor" fill="none" stroke-linecap="round" stroke-linejoin="round"><path stroke="none" d="M0 0h24v24H0z" fill="none"/><path d="M11 3a1 1 0 1 0 2 0a1 1 0 0 0 -2 0" /><path d="M17 17.5l-5 -4.5v-6l5 4" /><path d="M7 17.5l5 -4.5" /><path d="M15.103 21.58l6.762 -14.502a2 2 0 0 0 -.968 -2.657" /><path d="M8.897 21.58l-6.762 -14.503a2 2 0 0 1 .968 -2.657" /><path d="M7 11l5 -4" />
</symbol>
	<symbol id="stretching-2" class="icon icon-tabler icon-tabler-stretching-2" viewBox="0 0 24 24" stroke-width="2" stroke="currentColor" fill="none" stroke-linecap="round" stroke-linejoin="round"><path stroke="none" d="M0 0h24v24H0z" fill="none"/><path d="M11 4a1 1 0 1 0 2 0a1 1 0 0 0 -2 0" /><path d="M6.5 21l3.5 -5" /><path d="M5 11l7 -2" /><path d="M16 21l-4 -7v-5l7 -4" />
</symbol>
	<symbol id="treadmill" class="icon icon-tabler icon-tabler-treadmill" viewBox="0 0 24 24" stroke-width="2" stroke="currentColor" fill="none" stroke-linecap="round" stroke-linejoin="round"><path stroke="none" d="M0 0h24v24H0z" fill="none"/><path d="M10 3a1 1 0 1 0 2 0a1 1 0 0 0 -2 0" /><path d="M3 14l4 1l.5 -.5" /><path d="M12 18v-3l-3 -2.923l.75 -5.077" /><path d="M6 10v-2l4 -1l2.5 2.5l2.5 .5" /><path d="M21 22a1 1 0 0 0 -1 -1h-16a1 1 0 0 0 -1 1" /><path d="M18 21l1 -11l2 -1" />
</symbol>
	<symbol id="waterpolo" class="icon icon-tabler icon-tabler-waterpolo" viewBox="0 0 24 24" stroke-width="2" stroke="currentColor" fill="none" stroke-linecap="round" stroke-linejoin="round"><path stroke="none" d="M0 0h24v24H0z" fill="none"/><path d="M12 9a1 1 0 1 0 2 0a1 1 0 0 0 -2 0" /><path d="M5 8l3 4l4.5 1l7.5 -1" /><path d="M3 18.75a2.4 2.4 0 0 0 1 .25a2.4 2.4 0 0 0 2 -1a2.4 2.4 0 0 1 2 -1a2.4 2.4 0 0 1 2 1a2.4 2.4 0 0 0 2 1a2.4 2.4 0 0 0 2 -1a2.4 2.4 0 0 1 2 -1a2.4 2.4 0 0 1 2 1a2.4 2.4 0 0 0 2 1a2.4 2.4 0 0 0 1 -.25" /><path d="M12 16l.5 -3" /><path d="M6.5 5a.5 .5 0 1 0 0 -1a.5 .5 0 0 0 0 1z" fill="currentColor" />
</symbol>

	<use xlink:href="#bookmark-edit" x="24" y="24" width="24" height="24" />
	<use xlink:href="#bookmark-minus" x="68" y="24" width="24" height="24" />
	<use xlink:href="#bookmark-plus" x="112" y="24" width="24" height="24" />
	<use xlink:href="#bookmark-question" x="156" y="24" width="24" height="24" />
	<use xlink:href="#focus-auto" x="200" y="24" width="24" height="24" />
	<use xlink:href="#freeze-column" x="244" y="24" width="24" height="24" />
	<use xlink:href="#freeze-row-column" x="24" y="68" width="24" height="24" />
	<use xlink:href="#freeze-row" x="68" y="68" width="24" height="24" />
	<use xlink:href="#play-basketball" x="112" y="68" width="24" height="24" />
	<use xlink:href="#play-football" x="156" y="68" width="24" height="24" />
	<use xlink:href="#play-handball" x="200" y="68" width="24" height="24" />
	<use xlink:href="#play-volleyball" x="244" y="68" width="24" height="24" />
	<use xlink:href="#rings" x="24" y="112" width="24" height="24" />
	<use xlink:href="#scoreboard" x="68" y="112" width="24" height="24" />
	<use xlink:href="#shi-jumping" x="112" y="112" width="24" height="24" />
	<use xlink:href="#stretching-2" x="156" y="112" width="24" height="24" />
	<use xlink:href="#treadmill" x="200" y="112" width="24" height="24" />
	<use xlink:href="#waterpolo" x="244" y="112" width="24" height="24" />

</svg>