<svg xmlns="http://www.w3.org/2000/svg" xmlns:xlink="http://www.w3.org/1999/xlink" viewBox="0 0 332 280" width="332" height="280" style="color: #354052"><rect x="0" y="0" width="332" height="280" fill="#fff"></rect>
	<symbol id="ambulance" class="icon icon-tabler icon-tabler-ambulance" viewBox="0 0 24 24" stroke-width="2" stroke="currentColor" fill="none" stroke-linecap="round" stroke-linejoin="round"><path stroke="none" d="M0 0h24v24H0z"/><circle cx="7" cy="17" r="2" /><circle cx="17" cy="17" r="2" /><path d="M5 17h-2v-11a1 1 0 0 1 1 -1h9v12m-4 0h6m4 0h2v-6h-8m0 -5h5l3 5" /><path d="M6 10h4m-2 -2v4" />
</symbol>
	<symbol id="building-community" class="icon icon-tabler icon-tabler-building-community" viewBox="0 0 24 24" stroke-width="2" stroke="currentColor" fill="none" stroke-linecap="round" stroke-linejoin="round"><path stroke="none" d="M0 0h24v24H0z"/><path d="M8 9l5 5v7h-5v-4m0 4h-5v-7l5 -5m1 1v-6a1 1 0 0 1 1 -1h10a1 1 0 0 1 1 1v17h-8" /><line x1="13" y1="7" x2="13" y2="7.01" /><line x1="17" y1="7" x2="17" y2="7.01" /><line x1="17" y1="11" x2="17" y2="11.01" /><line x1="17" y1="15" x2="17" y2="15.01" />
</symbol>
	<symbol id="building-pavilon" class="icon icon-tabler icon-tabler-building-pavilon" viewBox="0 0 24 24" stroke-width="2" stroke="currentColor" fill="none" stroke-linecap="round" stroke-linejoin="round"><path stroke="none" d="M0 0h24v24H0z"/><path d="M3 21h7v-3a2 2 0 0 1 4 0v3h7" /><line x1="6" y1="21" x2="6" y2="12" /><line x1="18" y1="21" x2="18" y2="12" /><path d="M6 12h12a3 3 0 0 0 3 -3a9 8 0 0 1 -9 -6a9 8 0 0 1 -9 6a3 3 0 0 0 3 3" />
</symbol>
	<symbol id="building-skyscrappers" class="icon icon-tabler icon-tabler-building-skyscrappers" viewBox="0 0 24 24" stroke-width="2" stroke="currentColor" fill="none" stroke-linecap="round" stroke-linejoin="round"><path stroke="none" d="M0 0h24v24H0z"/><line x1="3" y1="21" x2="21" y2="21" /><path d="M5 21v-14l8 -4v18" /><path d="M19 21v-10l-6 -4" /><line x1="9" y1="9" x2="9" y2="9.01" /><line x1="9" y1="12" x2="9" y2="12.01" /><line x1="9" y1="15" x2="9" y2="15.01" /><line x1="9" y1="18" x2="9" y2="18.01" />
</symbol>
	<symbol id="device-watch" class="icon icon-tabler icon-tabler-device-watch" viewBox="0 0 24 24" stroke-width="2" stroke="currentColor" fill="none" stroke-linecap="round" stroke-linejoin="round"><path stroke="none" d="M0 0h24v24H0z"/><rect x="6" y="6" width="12" height="12" rx="3" /><path d="M9 18v3h6v-3" /><path d="M9 6v-3h6v3" />
</symbol>
	<symbol id="direction-horizontal" class="icon icon-tabler icon-tabler-direction-horizontal" viewBox="0 0 24 24" stroke-width="2" stroke="currentColor" fill="none" stroke-linecap="round" stroke-linejoin="round"><path stroke="none" d="M0 0h24v24H0z"/><path d="M10 9l-3 3l3 3" /><path d="M14 9l3 3l-3 3" />
</symbol>
	<symbol id="direction" class="icon icon-tabler icon-tabler-direction" viewBox="0 0 24 24" stroke-width="2" stroke="currentColor" fill="none" stroke-linecap="round" stroke-linejoin="round"><path stroke="none" d="M0 0h24v24H0z"/><path d="M9 10l3 -3l3 3" /><path d="M9 14l3 3l3 -3" />
</symbol>
	<symbol id="dribbble" class="icon icon-tabler icon-tabler-dribbble" viewBox="0 0 24 24" stroke-width="2" stroke="currentColor" fill="none" stroke-linecap="round" stroke-linejoin="round"><path stroke="none" d="M0 0h24v24H0z"/><circle cx="12" cy="12" r="9" /><path d="M9 3.6c5 6 7 10.5 7.5 16.2" /><path d="M6.4 19c3.5-3.5 6-6.5 14.5-6.4" /><path d="M3.1 10.75c5 0 9.814-.38 15.314-5" />
</symbol>
	<symbol id="facebook" class="icon icon-tabler icon-tabler-facebook" viewBox="0 0 24 24" stroke-width="2" stroke="currentColor" fill="none" stroke-linecap="round" stroke-linejoin="round"><path stroke="none" d="M0 0h24v24H0z"/><path d="M7 10v4h3v7h4v-7h3l1 -4h-4v-2a1 1 0 0 1 1 -1h3v-4h-3a5 5 0 0 0 -5 5v2h-3" />
</symbol>
	<symbol id="github" class="icon icon-tabler icon-tabler-github" viewBox="0 0 24 24" stroke-width="2" stroke="currentColor" fill="none" stroke-linecap="round" stroke-linejoin="round"><path stroke="none" d="M0 0h24v24H0z"/><path d="M9 19c-4.286 1.35-4.286-2.55-6-3m12 5v-3.5c0-1 .099-1.405-.5-2 2.791-.3 5.5-1.366 5.5-6.04a4.567 4.567 0 0 0 -1.333 -3.21 4.192 4.192 0 00-.08-3.227s-1.05-.3-3.476 1.267a12.334 12.334 0 0 0 -6.222 0C6.462 2.723 5.413 3.023 5.413 3.023a4.192 4.192 0 0 0 -.08 3.227A4.566 4.566 0 004 9.486c0 4.64 2.709 5.68 5.5 6.014-.591.589-.56 1.183-.5 2V21" />
</symbol>
	<symbol id="google" class="icon icon-tabler icon-tabler-google" viewBox="0 0 24 24" stroke-width="2" stroke="currentColor" fill="none" stroke-linecap="round" stroke-linejoin="round"><path stroke="none" d="M0 0h24v24H0z"/><path d="M17.788 5.108A9 9 0 1021 12h-8" />
</symbol>
	<symbol id="grip-horizontal" class="icon icon-tabler icon-tabler-grip-horizontal" viewBox="0 0 24 24" stroke-width="2" stroke="currentColor" fill="none" stroke-linecap="round" stroke-linejoin="round"><path stroke="none" d="M0 0h24v24H0z"/><circle cx="5" cy="9" r="1" /><circle cx="5" cy="15" r="1" /><circle cx="12" cy="9" r="1" /><circle cx="12" cy="15" r="1" /><circle cx="19" cy="9" r="1" /><circle cx="19" cy="15" r="1" />
</symbol>
	<symbol id="grip-vertical" class="icon icon-tabler icon-tabler-grip-vertical" viewBox="0 0 24 24" stroke-width="2" stroke="currentColor" fill="none" stroke-linecap="round" stroke-linejoin="round"><path stroke="none" d="M0 0h24v24H0z"/><circle cx="9" cy="5" r="1" /><circle cx="9" cy="12" r="1" /><circle cx="9" cy="19" r="1" /><circle cx="15" cy="5" r="1" /><circle cx="15" cy="12" r="1" /><circle cx="15" cy="19" r="1" />
</symbol>
	<symbol id="hexagon" class="icon icon-tabler icon-tabler-hexagon" viewBox="0 0 24 24" stroke-width="2" stroke="currentColor" fill="none" stroke-linecap="round" stroke-linejoin="round"><path stroke="none" d="M0 0h24v24H0z"/><path d="M12.971 3.54l6 3.333A2 2 0 0120 8.62v6.536a2 2 0 0 1 -1.029 1.748l-6 3.333a2 2 0 0 1 -1.942 0l-6-3.333A2 2 0 014 15.157V8.62a2 2 0 0 1 1.029 -1.748l6-3.333a2 2 0 0 1 1.942 0z" />
</symbol>
	<symbol id="mood-kid" class="icon icon-tabler icon-tabler-mood-kid" viewBox="0 0 24 24" stroke-width="2" stroke="currentColor" fill="none" stroke-linecap="round" stroke-linejoin="round"><path stroke="none" d="M0 0h24v24H0z"/><circle cx="12" cy="12" r="9" /><line x1="9" y1="10" x2="9.01" y2="10" /><line x1="15" y1="10" x2="15.01" y2="10" /><path d="M9.5 15a3.5 3.5 0 0 0 5 0" /><path d="M12 3a2 2 0 0 0 0 4" />
</symbol>
	<symbol id="mood-suprised" class="icon icon-tabler icon-tabler-mood-suprised" viewBox="0 0 24 24" stroke-width="2" stroke="currentColor" fill="none" stroke-linecap="round" stroke-linejoin="round"><path stroke="none" d="M0 0h24v24H0z"/><circle cx="12" cy="12" r="9" /><line x1="9" y1="9" x2="9.01" y2="9" /><line x1="15" y1="9" x2="15.01" y2="9" /><circle cx="12" cy="15" r="2" />
</symbol>
	<symbol id="phone-check" class="icon icon-tabler icon-tabler-phone-check" viewBox="0 0 24 24" stroke-width="2" stroke="currentColor" fill="none" stroke-linecap="round" stroke-linejoin="round"><path stroke="none" d="M0 0h24v24H0z"/><path d="M5 4h4l2 5l-2.5 1.5a11 11 0 0 0 5 5l1.5 -2.5l5 2v4a2 2 0 0 1 -2 2a16 16 0 0 1 -15 -15a2 2 0 0 1 2 -2" /><path d="M15 6l2 2l4 -4" />
</symbol>
	<symbol id="phone-plus" class="icon icon-tabler icon-tabler-phone-plus" viewBox="0 0 24 24" stroke-width="2" stroke="currentColor" fill="none" stroke-linecap="round" stroke-linejoin="round"><path stroke="none" d="M0 0h24v24H0z"/><path d="M5 4h4l2 5l-2.5 1.5a11 11 0 0 0 5 5l1.5 -2.5l5 2v4a2 2 0 0 1 -2 2a16 16 0 0 1 -15 -15a2 2 0 0 1 2 -2" /><path d="M15 6h6m-3 -3v6" />
</symbol>
	<symbol id="phone-x" class="icon icon-tabler icon-tabler-phone-x" viewBox="0 0 24 24" stroke-width="2" stroke="currentColor" fill="none" stroke-linecap="round" stroke-linejoin="round"><path stroke="none" d="M0 0h24v24H0z"/><path d="M5 4h4l2 5l-2.5 1.5a11 11 0 0 0 5 5l1.5 -2.5l5 2v4a2 2 0 0 1 -2 2a16 16 0 0 1 -15 -15a2 2 0 0 1 2 -2" /><path d="M16 4l4 4m0 -4l-4 4" />
</symbol>
	<symbol id="planet" class="icon icon-tabler icon-tabler-planet" viewBox="0 0 24 24" stroke-width="2" stroke="currentColor" fill="none" stroke-linecap="round" stroke-linejoin="round"><path stroke="none" d="M0 0h24v24H0z"/><path d="M17.905 13.057c2.208 1.756 3.436 3.308 3.012 4.035-.67 1.146-5.204-.204-10.129-3.016-4.924-2.812-8.374-6.022-7.705-7.168.418-.716 2.347-.458 4.936.524" /><circle cx="12" cy="12" r="6" />
</symbol>
	<symbol id="servicemark" class="icon icon-tabler icon-tabler-servicemark" viewBox="0 0 24 24" stroke-width="2" stroke="currentColor" fill="none" stroke-linecap="round" stroke-linejoin="round"><path stroke="none" d="M0 0h24v24H0z"/><path d="M9 9h-2.5a1.5 1.5 0 0 0 0 3h1a1.5 1.5 0 0 1 0 3h-2.5" /><path d="M13 15v-6l3 4l3 -4v6" />
</symbol>
	<symbol id="shirt" class="icon icon-tabler icon-tabler-shirt" viewBox="0 0 24 24" stroke-width="2" stroke="currentColor" fill="none" stroke-linecap="round" stroke-linejoin="round"><path stroke="none" d="M0 0h24v24H0z"/><path d="M15 4l6 2v5h-3v8a1 1 0 0 1 -1 1h-10a1 1 0 0 1 -1 -1v-8h-3v-5l6 -2a3 3 0 0 0 6 0" />
</symbol>
	<symbol id="snowflake" class="icon icon-tabler icon-tabler-snowflake" viewBox="0 0 24 24" stroke-width="2" stroke="currentColor" fill="none" stroke-linecap="round" stroke-linejoin="round"><path stroke="none" d="M0 0h24v24H0z"/><path d="M10 4l2 1l2 -1m-2 -2v6.5l3 1.72" /><path d="M10 4l2 1l2 -1m-2 -2v6.5l3 1.72" transform="rotate(60 12 12)" /><path d="M10 4l2 1l2 -1m-2 -2v6.5l3 1.72" transform="rotate(120 12 12)" /><path d="M10 4l2 1l2 -1m-2 -2v6.5l3 1.72" transform="rotate(180 12 12)" /><path d="M10 4l2 1l2 -1m-2 -2v6.5l3 1.72" transform="rotate(240 12 12)" /><path d="M10 4l2 1l2 -1m-2 -2v6.5l3 1.72" transform="rotate(300 12 12)" /></symbol>
	<symbol id="space" class="icon icon-tabler icon-tabler-space" viewBox="0 0 24 24" stroke-width="2" stroke="currentColor" fill="none" stroke-linecap="round" stroke-linejoin="round"><path stroke="none" d="M0 0h24v24H0z"/><path d="M4 10v3a1 1 0 0 0 1 1h14a1 1 0 0 0 1 -1v-3" />
</symbol>
	<symbol id="tractor" class="icon icon-tabler icon-tabler-tractor" viewBox="0 0 24 24" stroke-width="2" stroke="currentColor" fill="none" stroke-linecap="round" stroke-linejoin="round"><path stroke="none" d="M0 0h24v24H0z"/><circle cx="7" cy="15" r="4" /><line x1="7" y1="15" x2="7" y2="15.01" /><circle cx="19" cy="17" r="2" /><path d="M10.5 17h6.5" /><path d="M20 15.2v-4.2a1 1 0 0 0 -1 -1h-6l-2 -5h-6v6.5" /><path d="M18 5h-1a1 1 0 0 0 -1 1v4" />
</symbol>
	<symbol id="trademark" class="icon icon-tabler icon-tabler-trademark" viewBox="0 0 24 24" stroke-width="2" stroke="currentColor" fill="none" stroke-linecap="round" stroke-linejoin="round"><path stroke="none" d="M0 0h24v24H0z"/><path d="M4.5 9 h5m-2.5 0v6" /><path d="M13 15v-6l3 4l3 -4v6" />
</symbol>
	<symbol id="traffic-cone" class="icon icon-tabler icon-tabler-traffic-cone" viewBox="0 0 24 24" stroke-width="2" stroke="currentColor" fill="none" stroke-linecap="round" stroke-linejoin="round"><path stroke="none" d="M0 0h24v24H0z"/><line x1="4" y1="20" x2="20" y2="20" /><line x1="9.4" y1="10" x2="14.6" y2="10" /><line x1="7.8" y1="15" x2="16.2" y2="15" /><path d="M6 20l5 -15h2l5 15" />
</symbol>
	<symbol id="trees" class="icon icon-tabler icon-tabler-trees" viewBox="0 0 24 24" stroke-width="2" stroke="currentColor" fill="none" stroke-linecap="round" stroke-linejoin="round"><path stroke="none" d="M0 0h24v24H0z"/><rect x="4" y="3" width="8" height="14" rx="4" /><rect x="12" y="7" width="8" height="10" rx="3" /><line x1="8" y1="21" x2="8" y2="13" /><line x1="16" y1="21" x2="16" y2="14" />
</symbol>
	<symbol id="twitter" class="icon icon-tabler icon-tabler-twitter" viewBox="0 0 24 24" stroke-width="2" stroke="currentColor" fill="none" stroke-linecap="round" stroke-linejoin="round"><path stroke="none" d="M0 0h24v24H0z"/><path d="M22 4.01c-1 .49-1.98.689-3 .99-1.121-1.265-2.783-1.335-4.38-.737S11.977 6.323 12 8v1c-3.245.083-6.135-1.395-8-4 0 0-4.182 7.433 4 11-1.872 1.247-3.739 2.088-6 2 3.308 1.803 6.913 2.423 10.034 1.517 3.58-1.04 6.522-3.723 7.651-7.742a13.84 13.84 0 0 0 .497 -3.753C20.18 7.773 21.692 5.25 22 4.009z" />
</symbol>
	<symbol id="user-exclamation" class="icon icon-tabler icon-tabler-user-exclamation" viewBox="0 0 24 24" stroke-width="2" stroke="currentColor" fill="none" stroke-linecap="round" stroke-linejoin="round"><path stroke="none" d="M0 0h24v24H0z"/><circle cx="9" cy="7" r="4" /><path d="M3 21v-2a4 4 0 0 1 4 -4h4a4 4 0 0 1 4 4v2" /><line x1="19" y1="7" x2="19" y2="10" /><line x1="19" y1="14" x2="19" y2="14.01" />
</symbol>

	<use xlink:href="#ambulance" x="24" y="24" width="24" height="24" />
	<use xlink:href="#building-community" x="76" y="24" width="24" height="24" />
	<use xlink:href="#building-pavilon" x="128" y="24" width="24" height="24" />
	<use xlink:href="#building-skyscrappers" x="180" y="24" width="24" height="24" />
	<use xlink:href="#device-watch" x="232" y="24" width="24" height="24" />
	<use xlink:href="#direction-horizontal" x="284" y="24" width="24" height="24" />
	<use xlink:href="#direction" x="24" y="76" width="24" height="24" />
	<use xlink:href="#dribbble" x="76" y="76" width="24" height="24" />
	<use xlink:href="#facebook" x="128" y="76" width="24" height="24" />
	<use xlink:href="#github" x="180" y="76" width="24" height="24" />
	<use xlink:href="#google" x="232" y="76" width="24" height="24" />
	<use xlink:href="#grip-horizontal" x="284" y="76" width="24" height="24" />
	<use xlink:href="#grip-vertical" x="24" y="128" width="24" height="24" />
	<use xlink:href="#hexagon" x="76" y="128" width="24" height="24" />
	<use xlink:href="#mood-kid" x="128" y="128" width="24" height="24" />
	<use xlink:href="#mood-suprised" x="180" y="128" width="24" height="24" />
	<use xlink:href="#phone-check" x="232" y="128" width="24" height="24" />
	<use xlink:href="#phone-plus" x="284" y="128" width="24" height="24" />
	<use xlink:href="#phone-x" x="24" y="180" width="24" height="24" />
	<use xlink:href="#planet" x="76" y="180" width="24" height="24" />
	<use xlink:href="#servicemark" x="128" y="180" width="24" height="24" />
	<use xlink:href="#shirt" x="180" y="180" width="24" height="24" />
	<use xlink:href="#snowflake" x="232" y="180" width="24" height="24" />
	<use xlink:href="#space" x="284" y="180" width="24" height="24" />
	<use xlink:href="#tractor" x="24" y="232" width="24" height="24" />
	<use xlink:href="#trademark" x="76" y="232" width="24" height="24" />
	<use xlink:href="#traffic-cone" x="128" y="232" width="24" height="24" />
	<use xlink:href="#trees" x="180" y="232" width="24" height="24" />
	<use xlink:href="#twitter" x="232" y="232" width="24" height="24" />
	<use xlink:href="#user-exclamation" x="284" y="232" width="24" height="24" />

</svg>