<svg xmlns="http://www.w3.org/2000/svg" xmlns:xlink="http://www.w3.org/1999/xlink" viewBox="0 0 292 160" width="292" height="160" style="color: #354052"><rect x="0" y="0" width="292" height="160" fill="#fff"></rect>
	<symbol id="outline-api-book" xmlns="http://www.w3.org/2000/svg" width="24" height="24" viewBox="0 0 24 24" fill="none" stroke="currentColor" stroke-width="2" stroke-linecap="round" stroke-linejoin="round"
> <path d="M3 19a9 9 0 0 1 9 0a9 9 0 0 1 1.006 -.5" /> <path d="M3 6a9 9 0 0 1 9 0a9 9 0 0 1 9 0" /> <path d="M3 6v13" /> <path d="M12 6v13" /> <path d="M21 6v6" /> <path d="M17.001 19a2 2 0 1 0 4 0a2 2 0 1 0 -4 0" /> <path d="M19.001 15.5v1.5" /> <path d="M19.001 21v1.5" /> <path d="M22.032 17.25l-1.299 .75" /> <path d="M17.27 20l-1.3 .75" /> <path d="M15.97 17.25l1.3 .75" /> <path d="M20.733 20l1.3 .75" />
</symbol>
	<symbol id="outline-brand-infakt" xmlns="http://www.w3.org/2000/svg" width="24" height="24" viewBox="0 0 24 24" fill="none" stroke="currentColor" stroke-width="2" stroke-linecap="round" stroke-linejoin="round"
> <path d="M14.936 6.063a3 3 0 1 0 6 0a3 3 0 1 0 -6 0" /> <path d="M5.52 5c.002 -.033 -1.69 1.568 1.02 3.733c-1.092 2.015 .853 2.992 .853 2.992c-.972 1.879 1.39 2.805 1.39 2.805c-1 2.39 -2 4.68 -3.555 6.454c1.495 .09 2.04 -.196 2.9 -.844c3.386 -2.552 4.937 -6.471 5.765 -8.62c.385 -1.001 -.323 -2.47 -1.247 -2.964c-2.52 -1.35 -7.178 -3.526 -7.127 -3.555" />
</symbol>
	<symbol id="outline-circle-open-arrow-down" xmlns="http://www.w3.org/2000/svg" width="24" height="24" viewBox="0 0 24 24" fill="none" stroke="currentColor" stroke-width="2" stroke-linecap="round" stroke-linejoin="round"
> <path d="M15.998 3.934a9 9 0 1 1 -3.998 -.934v13" /> <path d="M16 12l-4 4l-4 -4" />
</symbol>
	<symbol id="outline-circle-open-arrow-left" xmlns="http://www.w3.org/2000/svg" width="24" height="24" viewBox="0 0 24 24" fill="none" stroke="currentColor" stroke-width="2" stroke-linecap="round" stroke-linejoin="round"
> <path d="M20.066 8.002a9 9 0 1 0 .934 3.998h-13" /> <path d="M12 8l-4 4l4 4" />
</symbol>
	<symbol id="outline-circle-open-arrow-right" xmlns="http://www.w3.org/2000/svg" width="24" height="24" viewBox="0 0 24 24" fill="none" stroke="currentColor" stroke-width="2" stroke-linecap="round" stroke-linejoin="round"
> <path d="M3.934 8.002a9 9 0 1 1 -.934 3.998h13" /> <path d="M12 8l4 4l-4 4" />
</symbol>
	<symbol id="outline-circle-open-arrow-up" xmlns="http://www.w3.org/2000/svg" width="24" height="24" viewBox="0 0 24 24" fill="none" stroke="currentColor" stroke-width="2" stroke-linecap="round" stroke-linejoin="round"
> <path d="M15.998 20.066a9 9 0 1 0 -3.998 .934v-13" /> <path d="M16 12l-4 -4l-4 4" />
</symbol>
	<symbol id="outline-circle-plus-minus" xmlns="http://www.w3.org/2000/svg" width="24" height="24" viewBox="0 0 24 24" fill="none" stroke="currentColor" stroke-width="2" stroke-linecap="round" stroke-linejoin="round"
> <path d="M3 12a9 9 0 1 0 18 0a9 9 0 0 0 -18 0" /> <path d="M9 10h6" /> <path d="M9 16h6" /> <path d="M12 7v6" />
</symbol>
	<symbol id="outline-home-lock" xmlns="http://www.w3.org/2000/svg" width="24" height="24" viewBox="0 0 24 24" fill="none" stroke="currentColor" stroke-width="2" stroke-linecap="round" stroke-linejoin="round"
> <path d="M5 12h-2l9 -9l8 8" /> <path d="M5 12v7a2 2 0 0 0 2 2h6" /> <path d="M9 21v-6a2 2 0 0 1 2 -2h2c.688 0 1.294 .347 1.654 .875" /> <path d="M17 19a1 1 0 0 1 1 -1h3a1 1 0 0 1 1 1v2a1 1 0 0 1 -1 1h-3a1 1 0 0 1 -1 -1v-2"  /> <path d="M18 18v-1.5a1.5 1.5 0 1 1 3 0v1.5" />
</symbol>
	<symbol id="outline-map-lock" xmlns="http://www.w3.org/2000/svg" width="24" height="24" viewBox="0 0 24 24" fill="none" stroke="currentColor" stroke-width="2" stroke-linecap="round" stroke-linejoin="round"
> <path d="M9 11a3 3 0 1 0 6 0a3 3 0 0 0 -6 0" /> <path d="M13.004 21.216a2 2 0 0 1 -2.417 -.316l-4.244 -4.243a8 8 0 0 1 11.314 -11.314a7.93 7.93 0 0 1 2.343 5.657" /> <path d="M17 19a1 1 0 0 1 1 -1h3a1 1 0 0 1 1 1v2a1 1 0 0 1 -1 1h-3a1 1 0 0 1 -1 -1v-2"  /> <path d="M18 18v-1.5a1.5 1.5 0 1 1 3 0v1.5" />
</symbol>
	<symbol id="outline-map-shield" xmlns="http://www.w3.org/2000/svg" width="24" height="24" viewBox="0 0 24 24" fill="none" stroke="currentColor" stroke-width="2" stroke-linecap="round" stroke-linejoin="round"
> <path d="M15 11a3 3 0 1 0 -3 3" /> <path d="M12.249 21.47a2 2 0 0 1 -1.662 -.57l-4.244 -4.243a8 8 0 1 1 13.655 -5.828" /> <path d="M22 16c0 4 -2.5 6 -3.5 6s-3.5 -2 -3.5 -6c1 0 2.5 -.5 3.5 -1.5c1 1 2.5 1.5 3.5 1.5" />
</symbol>
	<symbol id="outline-mesh" xmlns="http://www.w3.org/2000/svg" width="24" height="24" viewBox="0 0 24 24" fill="none" stroke="currentColor" stroke-width="2" stroke-linecap="round" stroke-linejoin="round"
> <path d="M3 9h18" /> <path d="M3 15h18" /> <path d="M8 4c.485 .445 3.5 3.312 3.5 8c0 .663 -.07 4.848 -3.5 8" /> <path d="M15 4a17 17 0 0 1 2.004 8c0 1.51 -.201 4.628 -2.004 8" /> <path d="M18.778 20h-13.556a2.22 2.22 0 0 1 -2.222 -2.222v-11.556c0 -1.227 .995 -2.222 2.222 -2.222h13.556c1.227 0 2.222 .995 2.222 2.222v11.556a2.22 2.22 0 0 1 -2.222 2.222" />
</symbol>
	<symbol id="outline-queue-pop-in" xmlns="http://www.w3.org/2000/svg" width="24" height="24" viewBox="0 0 24 24" fill="none" stroke="currentColor" stroke-width="2" stroke-linecap="round" stroke-linejoin="round"
> <path d="M8 6h-3a2 2 0 0 0 -2 2v11a2 2 0 0 0 2 2h11a2 2 0 0 0 2 -2v-3.357" /> <path d="M13 5a2 2 0 0 1 2 -2h4a2 2 0 0 1 2 2v4a2 2 0 0 1 -2 2h-4a2 2 0 0 1 -2 -2v-4"  /> <path d="M13.5 10.5l-5.5 5.5" /> <path d="M8 11v5h5" />
</symbol>
	<symbol id="outline-queue-pop-out" xmlns="http://www.w3.org/2000/svg" width="24" height="24" viewBox="0 0 24 24" fill="none" stroke="currentColor" stroke-width="2" stroke-linecap="round" stroke-linejoin="round"
> <path d="M11 5h-6a2 2 0 0 0 -2 2v12a2 2 0 0 0 2 2h12a2 2 0 0 0 2 -2v-6" /> <path d="M3 13h6a2 2 0 0 1 2 2v6" /> <path d="M16 3h5v5" /> <path d="M21 3l-6 6" />
</symbol>
	<symbol id="outline-stroke-curved" xmlns="http://www.w3.org/2000/svg" width="24" height="24" viewBox="0 0 24 24" fill="none" stroke="currentColor" stroke-width="2" stroke-linecap="round" stroke-linejoin="round"
> <path d="M4 19h1.341a7 7 0 0 0 6.845 -5.533l.628 -2.934a7 7 0 0 1 6.846 -5.533h1.34" />
</symbol>
	<symbol id="outline-stroke-dynamic" xmlns="http://www.w3.org/2000/svg" width="24" height="24" viewBox="0 0 24 24" fill="none" stroke="currentColor" stroke-width="2" stroke-linecap="round" stroke-linejoin="round"
> <path d="M4 19h6a2 2 0 0 0 2 -2v-10a2 2 0 0 1 2 -2h7" />
</symbol>
	<symbol id="outline-stroke-straight" xmlns="http://www.w3.org/2000/svg" width="24" height="24" viewBox="0 0 24 24" fill="none" stroke="currentColor" stroke-width="2" stroke-linecap="round" stroke-linejoin="round"
> <path d="M4 19l16 -14" />
</symbol>
	<symbol id="outline-trending-up-down" xmlns="http://www.w3.org/2000/svg" width="24" height="24" viewBox="0 0 24 24" fill="none" stroke="currentColor" stroke-width="2" stroke-linecap="round" stroke-linejoin="round"
> <path d="M2 14l6 -6l4 4l9 -9" /> <path d="M15 3h6v6" /> <path d="M15 21h6v-6" /> <path d="M21 21l-6 -6" />
</symbol>
	<symbol id="outline-vip-2" xmlns="http://www.w3.org/2000/svg" width="24" height="24" viewBox="0 0 24 24" fill="none" stroke="currentColor" stroke-width="2" stroke-linecap="round" stroke-linejoin="round"
> <path d="M3 5h4" /> <path d="M17 5h4" /> <path d="M3 19h18" /> <path d="M4 9l2 6h1l2 -6" /> <path d="M12 10v5" /> <path d="M16 15v-6h2a2 2 0 1 1 0 4h-2" /> <path d="M10 5a2 2 0 0 1 2 2a2 2 0 0 1 2 -2a2 2 0 0 1 -2 -2a2 2 0 0 1 -2 2" />
</symbol>

	<use xlink:href="#outline-api-book" x="24" y="24" width="24" height="24" />
	<use xlink:href="#outline-brand-infakt" x="68" y="24" width="24" height="24" />
	<use xlink:href="#outline-circle-open-arrow-down" x="112" y="24" width="24" height="24" />
	<use xlink:href="#outline-circle-open-arrow-left" x="156" y="24" width="24" height="24" />
	<use xlink:href="#outline-circle-open-arrow-right" x="200" y="24" width="24" height="24" />
	<use xlink:href="#outline-circle-open-arrow-up" x="244" y="24" width="24" height="24" />
	<use xlink:href="#outline-circle-plus-minus" x="24" y="68" width="24" height="24" />
	<use xlink:href="#outline-home-lock" x="68" y="68" width="24" height="24" />
	<use xlink:href="#outline-map-lock" x="112" y="68" width="24" height="24" />
	<use xlink:href="#outline-map-shield" x="156" y="68" width="24" height="24" />
	<use xlink:href="#outline-mesh" x="200" y="68" width="24" height="24" />
	<use xlink:href="#outline-queue-pop-in" x="244" y="68" width="24" height="24" />
	<use xlink:href="#outline-queue-pop-out" x="24" y="112" width="24" height="24" />
	<use xlink:href="#outline-stroke-curved" x="68" y="112" width="24" height="24" />
	<use xlink:href="#outline-stroke-dynamic" x="112" y="112" width="24" height="24" />
	<use xlink:href="#outline-stroke-straight" x="156" y="112" width="24" height="24" />
	<use xlink:href="#outline-trending-up-down" x="200" y="112" width="24" height="24" />
	<use xlink:href="#outline-vip-2" x="244" y="112" width="24" height="24" />

</svg>