<svg xmlns="http://www.w3.org/2000/svg" xmlns:xlink="http://www.w3.org/1999/xlink" viewBox="0 0 322 172" width="322" height="172" style="color: #354052"><rect x="0" y="0" width="322" height="172" fill="#fff"></rect>
	<symbol id="brand-figma" class="icon icon-tabler icon-tabler-brand-figma" viewBox="0 0 24 24" stroke-width="2" stroke="currentColor" fill="none" stroke-linecap="round" stroke-linejoin="round"><path stroke="none" d="M0 0h24v24H0z"/><circle cx="15" cy="12" r="3" /><rect x="6" y="3" width="12" height="6" rx="3" /><path d="M9 9a3 3 0 0 0 0 6h3m-3 0a3 3 0 1 0 3 3v-15" />
</symbol>
	<symbol id="h-1" class="icon icon-tabler icon-tabler-h-1" viewBox="0 0 24 24" stroke-width="2" stroke="currentColor" fill="none" stroke-linecap="round" stroke-linejoin="round"><path stroke="none" d="M0 0h24v24H0z"/><line x1="3" y1="5" x2="3" y2="19" /><line x1="3" y1="12" x2="12" y2="12" /><line x1="12" y1="5" x2="12" y2="19" /><path d="M20 19v-10l-3 3" />
</symbol>
	<symbol id="h-2" class="icon icon-tabler icon-tabler-h-2" viewBox="0 0 24 24" stroke-width="2" stroke="currentColor" fill="none" stroke-linecap="round" stroke-linejoin="round"><path stroke="none" d="M0 0h24v24H0z"/><line x1="3" y1="5" x2="3" y2="19" /><line x1="3" y1="12" x2="12" y2="12" /><line x1="12" y1="5" x2="12" y2="19" /><path d="M21 19h-5 l 4.47 -5.96 a2.5 2.5 0 1 0 -4.47 -1.54" />
</symbol>
	<symbol id="h-3" class="icon icon-tabler icon-tabler-h-3" viewBox="0 0 24 24" stroke-width="2" stroke="currentColor" fill="none" stroke-linecap="round" stroke-linejoin="round"><path stroke="none" d="M0 0h24v24H0z"/><line x1="3" y1="5" x2="3" y2="19" /><line x1="3" y1="12" x2="12" y2="12" /><line x1="12" y1="5" x2="12" y2="19" /><path d="M16 11.5a2.5 2.5 0 1 1 2.5 2.5a2.5 2.5 0 1 1 -2.5 2.5" />
</symbol>
	<symbol id="h-4" class="icon icon-tabler icon-tabler-h-4" viewBox="0 0 24 24" stroke-width="2" stroke="currentColor" fill="none" stroke-linecap="round" stroke-linejoin="round"><path stroke="none" d="M0 0h24v24H0z"/><line x1="3" y1="5" x2="3" y2="19" /><line x1="3" y1="12" x2="12" y2="12" /><line x1="12" y1="5" x2="12" y2="19" /><path d="M20 19v-10l-5 8h7" />
</symbol>
	<symbol id="h-5" class="icon icon-tabler icon-tabler-h-5" viewBox="0 0 24 24" stroke-width="2" stroke="currentColor" fill="none" stroke-linecap="round" stroke-linejoin="round"><path stroke="none" d="M0 0h24v24H0z"/><line x1="3" y1="5" x2="3" y2="19" /><line x1="3" y1="12" x2="12" y2="12" /><line x1="12" y1="5" x2="12" y2="19" /><path d="M16 18.27 a3 3 0 1 0 0 -4.537 l0 -4.733 h 5" />
</symbol>
	<symbol id="h-6" class="icon icon-tabler icon-tabler-h-6" viewBox="0 0 24 24" stroke-width="2" stroke="currentColor" fill="none" stroke-linecap="round" stroke-linejoin="round"><path stroke="none" d="M0 0h24v24H0z"/><line x1="3" y1="5" x2="3" y2="19" /><line x1="3" y1="12" x2="12" y2="12" /><line x1="12" y1="5" x2="12" y2="19" /><circle cx="18.5" cy="16.5" r="2.5" /><line x1="20" y1="9" x2="16.5" y2="15" />
</symbol>
	<symbol id="message-plus" class="icon icon-tabler icon-tabler-message-plus" viewBox="0 0 24 24" stroke-width="2" stroke="currentColor" fill="none" stroke-linecap="round" stroke-linejoin="round"><path stroke="none" d="M0 0h24v24H0z"/><path d="M4 21v-13a3 3 0 0 1 3 -3h10a3 3 0 0 1 3 3v6a3 3 0 0 1 -3 3h-9l-4 4" /><line x1="10" y1="11" x2="14" y2="11" /><line x1="12" y1="9" x2="12" y2="13" />
</symbol>
	<symbol id="message-report" class="icon icon-tabler icon-tabler-message-report" viewBox="0 0 24 24" stroke-width="2" stroke="currentColor" fill="none" stroke-linecap="round" stroke-linejoin="round"><path stroke="none" d="M0 0h24v24H0z"/><path d="M4 21v-13a3 3 0 0 1 3 -3h10a3 3 0 0 1 3 3v6a3 3 0 0 1 -3 3h-9l-4 4" /><line x1="12" y1="8" x2="12" y2="11" /><line x1="12" y1="14" x2="12" y2="14.01" />
</symbol>
	<symbol id="pin" class="icon icon-tabler icon-tabler-pin" viewBox="0 0 24 24" stroke-width="2" stroke="currentColor" fill="none" stroke-linecap="round" stroke-linejoin="round"><path stroke="none" d="M0 0h24v24H0z"/><line x1="4" y1="20" x2="9.5" y2="14.5" /><path d="M6 11l7 7l1 -1l1 -4l4 -4m-4 -4l-4 4l-4 1l-1 1" /><line x1="14" y1="4" x2="20" y2="10" />
</symbol>
	<symbol id="question-mark" class="icon icon-tabler icon-tabler-question-mark" viewBox="0 0 24 24" stroke-width="2" stroke="currentColor" fill="none" stroke-linecap="round" stroke-linejoin="round"><path stroke="none" d="M0 0h24v24H0z"/><path d="M8 8 a3.5 3 0 0 1 3.5 -3h1a3.5 3 0 0 1 3.5 3a3 3 0 0 1 -2 3a3 4 0 0 0 -2 4" /><line x1="12" y1="19" x2="12" y2="19.01" />
</symbol>
	<symbol id="select" class="icon icon-tabler icon-tabler-select" viewBox="0 0 24 24" stroke-width="2" stroke="currentColor" fill="none" stroke-linecap="round" stroke-linejoin="round"><path stroke="none" d="M0 0h24v24H0z"/><rect x="4" y="4" width="16" height="16" rx="2" /><path d="M9 11l3 3l3 -3" />
</symbol>
	<symbol id="subtask" class="icon icon-tabler icon-tabler-subtask" viewBox="0 0 24 24" stroke-width="2" stroke="currentColor" fill="none" stroke-linecap="round" stroke-linejoin="round"><path stroke="none" d="M0 0h24v24H0z"/><line x1="6" y1="9" x2="12" y2="9" /><line x1="4" y1="5" x2="8" y2="5" /><path d="M6 5v11a1 1 0 0 0 1 1h5" /><rect x="12" y="7" width="8" height="4" rx="1" /><rect x="12" y="15" width="8" height="4" rx="1" />
</symbol>

	<use xlink:href="#brand-figma" x="24" y="24" width="24" height="24" />
	<use xlink:href="#h-1" x="74" y="24" width="24" height="24" />
	<use xlink:href="#h-2" x="124" y="24" width="24" height="24" />
	<use xlink:href="#h-3" x="174" y="24" width="24" height="24" />
	<use xlink:href="#h-4" x="224" y="24" width="24" height="24" />
	<use xlink:href="#h-5" x="274" y="24" width="24" height="24" />
	<use xlink:href="#h-6" x="24" y="74" width="24" height="24" />
	<use xlink:href="#message-plus" x="74" y="74" width="24" height="24" />
	<use xlink:href="#message-report" x="124" y="74" width="24" height="24" />
	<use xlink:href="#pin" x="174" y="74" width="24" height="24" />
	<use xlink:href="#question-mark" x="224" y="74" width="24" height="24" />
	<use xlink:href="#select" x="274" y="74" width="24" height="24" />
	<use xlink:href="#subtask" x="24" y="124" width="24" height="24" />

</svg>