<svg xmlns="http://www.w3.org/2000/svg" xmlns:xlink="http://www.w3.org/1999/xlink" viewBox="0 0 292 160" width="292" height="160" style="color: #354052"><rect x="0" y="0" width="292" height="160" fill="#fff"></rect>
	<symbol id="antenna" class="icon icon-tabler icon-tabler-antenna" viewBox="0 0 24 24" stroke-width="2" stroke="currentColor" fill="none" stroke-linecap="round" stroke-linejoin="round"><path stroke="none" d="M0 0h24v24H0z" fill="none"/><path d="M20 4v8" /><path d="M16 4.5v7" /><path d="M12 5v16" /><path d="M8 5.5v5" /><path d="M4 6v4" /><path d="M20 8h-16" />
</symbol>
	<symbol id="arrows-random" class="icon icon-tabler icon-tabler-arrows-random" viewBox="0 0 24 24" stroke-width="2" stroke="currentColor" fill="none" stroke-linecap="round" stroke-linejoin="round"><path stroke="none" d="M0 0h24v24H0z" fill="none"/><path d="M20 21.004h-4v-4" /><path d="M16 21.004l5 -5" /><path d="M6.5 9.504l-3.5 -2l2 -3.504" /><path d="M3 7.504l6.83 -1.87" /><path d="M4 16.004l4 -1l1 4" /><path d="M8 15.004l-3.5 6" /><path d="M21 5.004l-.5 4l-4 -.5" /><path d="M20.5 9.004l-4.5 -5.5" />
</symbol>
	<symbol id="bow" class="icon icon-tabler icon-tabler-bow" viewBox="0 0 24 24" stroke-width="2" stroke="currentColor" fill="none" stroke-linecap="round" stroke-linejoin="round"><path stroke="none" d="M0 0h24v24H0z" fill="none"/><path d="M17 3h4v4" /><path d="M21 3l-15 15" /><path d="M3 18h3v3" /><path d="M16.5 20c1.576 -1.576 2.5 -4.095 2.5 -6.5c0 -4.81 -3.69 -8.5 -8.5 -8.5c-2.415 0 -4.922 .913 -6.5 2.5l12.5 12.5z" />
</symbol>
	<symbol id="chart-dots-2" class="icon icon-tabler icon-tabler-chart-dots-2" viewBox="0 0 24 24" stroke-width="2" stroke="currentColor" fill="none" stroke-linecap="round" stroke-linejoin="round"><path stroke="none" d="M0 0h24v24H0z" fill="none"/><path d="M3 3v18h18" /><circle cx="9" cy="15" r="2" /><circle cx="13" cy="5" r="2" /><circle cx="18" cy="12" r="2" /><path d="M21 3l-6 1.5" /><path d="M14.113 6.65l2.771 3.695" /><path d="M16 12.5l-5 2" />
</symbol>
	<symbol id="chart-dots-3" class="icon icon-tabler icon-tabler-chart-dots-3" viewBox="0 0 24 24" stroke-width="2" stroke="currentColor" fill="none" stroke-linecap="round" stroke-linejoin="round"><path stroke="none" d="M0 0h24v24H0z" fill="none"/><circle cx="5" cy="7" r="2" /><circle cx="16" cy="15" r="2" /><circle cx="18" cy="6" r="3" /><circle cx="6" cy="18" r="3" /><path d="M9 17l5 -1.5" /><path d="M6.5 8.5l7.81 5.37" /><path d="M7 7l8 -1" />
</symbol>
	<symbol id="clock-2" class="icon icon-tabler icon-tabler-clock-2" viewBox="0 0 24 24" stroke-width="2" stroke="currentColor" fill="none" stroke-linecap="round" stroke-linejoin="round"><path stroke="none" d="M0 0h24v24H0z" fill="none"/><rect x="4" y="4" width="16" height="16" rx="1" /><path d="M12 7v5l3 3" /><path d="M4 12h1" /><path d="M19 12h1" /><path d="M12 19v1" />
</symbol>
	<symbol id="cricket" class="icon icon-tabler icon-tabler-cricket" viewBox="0 0 24 24" stroke-width="2" stroke="currentColor" fill="none" stroke-linecap="round" stroke-linejoin="round"><path stroke="none" d="M0 0h24v24H0z" fill="none"/><path d="M11.105 18.79l-1.006 .992a4.159 4.159 0 0 1 -6.038 -5.715l.157 -.166l8.282 -8.401l1.5 1.5l3.45 -3.391a2.08 2.08 0 0 1 3.057 2.815l-.116 .126l-3.391 3.45l1.5 1.5l-3.668 3.617" /><path d="M10.5 7.5l6 6" /><circle cx="14" cy="18" r="3" />
</symbol>
	<symbol id="fountain" class="icon icon-tabler icon-tabler-fountain" viewBox="0 0 24 24" stroke-width="2" stroke="currentColor" fill="none" stroke-linecap="round" stroke-linejoin="round"><path stroke="none" d="M0 0h24v24H0z" fill="none"/><path d="M9 16v-5a2 2 0 1 0 -4 0" /><path d="M15 16v-5a2 2 0 1 1 4 0" /><path d="M12 16v-10a3 3 0 0 1 6 0" /><path d="M6 6a3 3 0 0 1 6 0" /><path d="M3 16h18v2a3 3 0 0 1 -3 3h-12a3 3 0 0 1 -3 -3v-2z" />
</symbol>
	<symbol id="hanger-2" class="icon icon-tabler icon-tabler-hanger-2" viewBox="0 0 24 24" stroke-width="2" stroke="currentColor" fill="none" stroke-linecap="round" stroke-linejoin="round"><path stroke="none" d="M0 0h24v24H0z" fill="none"/><path d="M12 9l-7.971 4.428a2 2 0 0 0 -1.029 1.749v.823a2 2 0 0 0 2 2h1" /><path d="M18 18h1a2 2 0 0 0 2 -2v-.823a2 2 0 0 0 -1.029 -1.749l-7.971 -4.428c-1.457 -.81 -1.993 -2.333 -1.996 -4a2 2 0 1 1 4 0" /><rect x="6" y="16" width="12" height="5" rx="2" />
</symbol>
	<symbol id="hexagons" class="icon icon-tabler icon-tabler-hexagons" viewBox="0 0 24 24" stroke-width="2" stroke="currentColor" fill="none" stroke-linecap="round" stroke-linejoin="round"><path stroke="none" d="M0 0h24v24H0z" fill="none"/><path d="M4 18v-5l4 -2l4 2v5l-4 2z" /><path d="M8 11v-5l4 -2l4 2v5" /><path d="M12 13l4 -2l4 2v5l-4 2l-4 -2" />
</symbol>
	<symbol id="lamp-2" class="icon icon-tabler icon-tabler-lamp-2" viewBox="0 0 24 24" stroke-width="2" stroke="currentColor" fill="none" stroke-linecap="round" stroke-linejoin="round"><path stroke="none" d="M0 0h24v24H0z" fill="none"/><path d="M5 21h9" /><path d="M10 21l-7 -8l8.5 -5.5" /><path d="M13 14c-2.148 -2.148 -2.148 -5.852 0 -8c2.088 -2.088 5.842 -1.972 8 0l-8 8z" /><path d="M11.742 7.574l-1.156 -1.156a2 2 0 0 1 2.828 -2.829l1.144 1.144" /><path d="M15.5 11.995l.208 .274a2.527 2.527 0 0 0 3.556 0c.939 -.933 .98 -2.42 .122 -3.4l-.366 -.369" />
</symbol>
	<symbol id="network" class="icon icon-tabler icon-tabler-network" viewBox="0 0 24 24" stroke-width="2" stroke="currentColor" fill="none" stroke-linecap="round" stroke-linejoin="round"><path stroke="none" d="M0 0h24v24H0z" fill="none"/><circle cx="12" cy="9" r="6" /><path d="M12 3c1.333 .333 2 2.333 2 6s-.667 5.667 -2 6" /><path d="M12 3c-1.333 .333 -2 2.333 -2 6s.667 5.667 2 6" /><path d="M6 9h12" /><path d="M3 19h7" /><path d="M14 19h7" /><circle cx="12" cy="19" r="2" /><path d="M12 15v2" />
</symbol>
	<symbol id="plug-connected-x" class="icon icon-tabler icon-tabler-plug-connected-x" viewBox="0 0 24 24" stroke-width="2" stroke="currentColor" fill="none" stroke-linecap="round" stroke-linejoin="round"><path stroke="none" d="M0 0h24v24H0z" fill="none"/><path d="M20 16l-4 4" /><path d="M7 12l5 5l-1.5 1.5a3.536 3.536 0 1 1 -5 -5l1.5 -1.5z" /><path d="M17 12l-5 -5l1.5 -1.5a3.536 3.536 0 1 1 5 5l-1.5 1.5z" /><path d="M3 21l2.5 -2.5" /><path d="M18.5 5.5l2.5 -2.5" /><path d="M10 11l-2 2" /><path d="M13 14l-2 2" /><path d="M16 16l4 4" />
</symbol>
	<symbol id="plug-x" class="icon icon-tabler icon-tabler-plug-x" viewBox="0 0 24 24" stroke-width="2" stroke="currentColor" fill="none" stroke-linecap="round" stroke-linejoin="round"><path stroke="none" d="M0 0h24v24H0z" fill="none"/><path d="M13.55 17.733a5.806 5.806 0 0 1 -7.356 -4.052a5.81 5.81 0 0 1 1.537 -5.627l2.054 -2.054l7.165 7.165" /><path d="M4 20l3.5 -3.5" /><path d="M15 4l-3.5 3.5" /><path d="M20 9l-3.5 3.5" /><path d="M16 16l4 4" /><path d="M20 16l-4 4" />
</symbol>
	<symbol id="rollercoaster" class="icon icon-tabler icon-tabler-rollercoaster" viewBox="0 0 24 24" stroke-width="2" stroke="currentColor" fill="none" stroke-linecap="round" stroke-linejoin="round"><path stroke="none" d="M0 0h24v24H0z" fill="none"/><path d="M3 21a5.55 5.55 0 0 0 5.265 -3.795l.735 -2.205a8.775 8.775 0 0 1 8.325 -6h3.675" /><path d="M20 9v12" /><path d="M8 21v-3" /><path d="M12 21v-10" /><path d="M16 9.5v11.5" /><path d="M15 3h5v3h-5z" /><path d="M6 8l4 -3l2 2.5l-4 3l-1.8 -.5z" />
</symbol>
	<symbol id="scribble" class="icon icon-tabler icon-tabler-scribble" viewBox="0 0 24 24" stroke-width="2" stroke="currentColor" fill="none" stroke-linecap="round" stroke-linejoin="round"><path stroke="none" d="M0 0h24v24H0z" fill="none"/><path d="M3 15c2 3 4 4 7 4s7 -3 7 -7s-3 -7 -6 -7s-5 1.5 -5 4s2 5 6 5s8.408 -2.453 10 -5" />
</symbol>
	<symbol id="test-pipe-2" class="icon icon-tabler icon-tabler-test-pipe-2" viewBox="0 0 24 24" stroke-width="2" stroke="currentColor" fill="none" stroke-linecap="round" stroke-linejoin="round"><path stroke="none" d="M0 0h24v24H0z" fill="none"/><path d="M15 3v15a3 3 0 0 1 -6 0v-15" /><path d="M9 12h6" /><path d="M8 3h8" />
</symbol>
	<symbol id="triangles" class="icon icon-tabler icon-tabler-triangles" viewBox="0 0 24 24" stroke-width="2" stroke="currentColor" fill="none" stroke-linecap="round" stroke-linejoin="round"><path stroke="none" d="M0 0h24v24H0z" fill="none"/><path d="M9.974 21h8.052a0.975 .975 0 0 0 .81 -1.517l-4.025 -6.048a0.973 .973 0 0 0 -1.622 0l-4.025 6.048a0.977 .977 0 0 0 .81 1.517z" /><path d="M4.98 16h14.04c.542 0 .98 -.443 .98 -.989a0.995 .995 0 0 0 -.156 -.534l-7.02 -11.023a0.974 .974 0 0 0 -1.648 0l-7.02 11.023a0.994 .994 0 0 0 .294 1.366a0.973 .973 0 0 0 .53 .157z" />
</symbol>

	<use xlink:href="#antenna" x="24" y="24" width="24" height="24" />
	<use xlink:href="#arrows-random" x="68" y="24" width="24" height="24" />
	<use xlink:href="#bow" x="112" y="24" width="24" height="24" />
	<use xlink:href="#chart-dots-2" x="156" y="24" width="24" height="24" />
	<use xlink:href="#chart-dots-3" x="200" y="24" width="24" height="24" />
	<use xlink:href="#clock-2" x="244" y="24" width="24" height="24" />
	<use xlink:href="#cricket" x="24" y="68" width="24" height="24" />
	<use xlink:href="#fountain" x="68" y="68" width="24" height="24" />
	<use xlink:href="#hanger-2" x="112" y="68" width="24" height="24" />
	<use xlink:href="#hexagons" x="156" y="68" width="24" height="24" />
	<use xlink:href="#lamp-2" x="200" y="68" width="24" height="24" />
	<use xlink:href="#network" x="244" y="68" width="24" height="24" />
	<use xlink:href="#plug-connected-x" x="24" y="112" width="24" height="24" />
	<use xlink:href="#plug-x" x="68" y="112" width="24" height="24" />
	<use xlink:href="#rollercoaster" x="112" y="112" width="24" height="24" />
	<use xlink:href="#scribble" x="156" y="112" width="24" height="24" />
	<use xlink:href="#test-pipe-2" x="200" y="112" width="24" height="24" />
	<use xlink:href="#triangles" x="244" y="112" width="24" height="24" />

</svg>