<svg xmlns="http://www.w3.org/2000/svg" xmlns:xlink="http://www.w3.org/1999/xlink" viewBox="0 0 292 160" width="292" height="160" style="color: #354052"><rect x="0" y="0" width="292" height="160" fill="#fff"></rect>
	<symbol id="mood-angry" class="icon icon-tabler icon-tabler-mood-angry" viewBox="0 0 24 24" stroke-width="2" stroke="currentColor" fill="none" stroke-linecap="round" stroke-linejoin="round"><path stroke="none" d="M0 0h24v24H0z" fill="none"/><path d="M12 21a9 9 0 1 1 0 -18a9 9 0 0 1 0 18z" /><path d="M8 9l2 1" /><path d="M16 9l-2 1" /><path d="M14.5 16.05a3.5 3.5 0 0 0 -5 0" />
</symbol>
	<symbol id="mood-annoyed-2" class="icon icon-tabler icon-tabler-mood-annoyed-2" viewBox="0 0 24 24" stroke-width="2" stroke="currentColor" fill="none" stroke-linecap="round" stroke-linejoin="round"><path stroke="none" d="M0 0h24v24H0z" fill="none"/><circle transform="matrix(-1 0 0 1 24 0)" cx="12" cy="12" r="9" /><path d="M15 14c-2 0 -3 1 -3.5 2.05" /><path d="M10 9.25c-.5 1 -2.5 1 -3 0" /><path d="M17 9.25c-.5 1 -2.5 1 -3 0" />
</symbol>
	<symbol id="mood-annoyed" class="icon icon-tabler icon-tabler-mood-annoyed" viewBox="0 0 24 24" stroke-width="2" stroke="currentColor" fill="none" stroke-linecap="round" stroke-linejoin="round"><path stroke="none" d="M0 0h24v24H0z" fill="none"/><path d="M12 21a9 9 0 1 1 0 -18a9 9 0 0 1 0 18z" /><path d="M15 14c-2 0 -3 1 -3.5 2.05" /><path d="M9 10h-.01" /><path d="M15 10h-.01" />
</symbol>
	<symbol id="mood-nerd" class="icon icon-tabler icon-tabler-mood-nerd" viewBox="0 0 24 24" stroke-width="2" stroke="currentColor" fill="none" stroke-linecap="round" stroke-linejoin="round"><path stroke="none" d="M0 0h24v24H0z" fill="none"/><circle cx="12" cy="12" r="9" /><circle cx="8" cy="10" r="2" /><circle cx="16" cy="10" r="2" /><path d="M9.5 15a3.5 3.5 0 0 0 5 0" /><path d="M3.5 9h2.5" /><path d="M18 9h2.5" /><path d="M10 9.5c1.333 -1.333 2.667 -1.333 4 0" />
</symbol>
	<symbol id="mood-sad-2" class="icon icon-tabler icon-tabler-mood-sad-2" viewBox="0 0 24 24" stroke-width="2" stroke="currentColor" fill="none" stroke-linecap="round" stroke-linejoin="round"><path stroke="none" d="M0 0h24v24H0z" fill="none"/><circle cx="12" cy="12" r="9" /><path d="M14.5 16.05a3.5 3.5 0 0 0 -5 0" /><path d="M10 9.25c-.5 1 -2.5 1 -3 0" /><path d="M17 9.25c-.5 1 -2.5 1 -3 0" />
</symbol>
	<symbol id="mood-sad-dizzy" class="icon icon-tabler icon-tabler-mood-sad-dizzy" viewBox="0 0 24 24" stroke-width="2" stroke="currentColor" fill="none" stroke-linecap="round" stroke-linejoin="round"><path stroke="none" d="M0 0h24v24H0z" fill="none"/><circle cx="12" cy="12" r="9" /><path d="M14.5 16.05a3.5 3.5 0 0 0 -5 0" /><path d="M8 9l2 2" /><path d="M10 9l-2 2" /><path d="M14 9l2 2" /><path d="M16 9l-2 2" />
</symbol>
	<symbol id="mood-sad-squint" class="icon icon-tabler icon-tabler-mood-sad-squint" viewBox="0 0 24 24" stroke-width="2" stroke="currentColor" fill="none" stroke-linecap="round" stroke-linejoin="round"><path stroke="none" d="M0 0h24v24H0z" fill="none"/><circle cx="12" cy="12" r="9" /><path d="M14.5 16.05a3.5 3.5 0 0 0 -5 0" /><path d="M8.5 11.5l1.5 -1.5l-1.5 -1.5" /><path d="M15.5 11.5l-1.5 -1.5l1.5 -1.5" />
</symbol>
	<symbol id="mood-sick" class="icon icon-tabler icon-tabler-mood-sick" viewBox="0 0 24 24" stroke-width="2" stroke="currentColor" fill="none" stroke-linecap="round" stroke-linejoin="round"><path stroke="none" d="M0 0h24v24H0z" fill="none"/><path d="M12 21a9 9 0 1 1 0 -18a9 9 0 0 1 0 18z" /><path d="M9 10h-.01" /><path d="M15 10h-.01" /><path d="M8 16l1 -1l1.5 1l1.5 -1l1.5 1l1.5 -1l1 1" />
</symbol>
	<symbol id="mood-silence" class="icon icon-tabler icon-tabler-mood-silence" viewBox="0 0 24 24" stroke-width="2" stroke="currentColor" fill="none" stroke-linecap="round" stroke-linejoin="round"><path stroke="none" d="M0 0h24v24H0z" fill="none"/><path d="M12 21a9 9 0 1 1 0 -18a9 9 0 0 1 0 18z" /><path d="M9 10h-.01" /><path d="M15 10h-.01" /><path d="M8 15h8" /><path d="M9 14v2" /><path d="M12 14v2" /><path d="M15 14v2" />
</symbol>
	<symbol id="mood-smile-beam" class="icon icon-tabler icon-tabler-mood-smile-beam" viewBox="0 0 24 24" stroke-width="2" stroke="currentColor" fill="none" stroke-linecap="round" stroke-linejoin="round"><path stroke="none" d="M0 0h24v24H0z" fill="none"/><path d="M12 21a9 9 0 1 1 0 -18a9 9 0 0 1 0 18z" /><path d="M10 10c-.5 -1 -2.5 -1 -3 0" /><path d="M17 10c-.5 -1 -2.5 -1 -3 0" /><path d="M14.5 15a3.5 3.5 0 0 1 -5 0" />
</symbol>
	<symbol id="mood-smile-dizzy" class="icon icon-tabler icon-tabler-mood-smile-dizzy" viewBox="0 0 24 24" stroke-width="2" stroke="currentColor" fill="none" stroke-linecap="round" stroke-linejoin="round"><path stroke="none" d="M0 0h24v24H0z" fill="none"/><circle cx="12" cy="12" r="9" /><path d="M14.5 15a3.5 3.5 0 0 1 -5 0" /><path d="M8 9l2 2" /><path d="M10 9l-2 2" /><path d="M14 9l2 2" /><path d="M16 9l-2 2" />
</symbol>
	<symbol id="mood-tongue-wink-2" class="icon icon-tabler icon-tabler-mood-tongue-wink-2" viewBox="0 0 24 24" stroke-width="2" stroke="currentColor" fill="none" stroke-linecap="round" stroke-linejoin="round"><path stroke="none" d="M0 0h24v24H0z" fill="none"/><circle cx="12" cy="12" r="9" /><path d="M12 21a9 9 0 1 1 0 -18a9 9 0 0 1 0 18z" /><path d="M15 10h-.01" /><path d="M10 14v2a2 2 0 1 0 4 0v-2m1.5 0h-7" /><path d="M7 10c.5 -1 2.5 -1 3 0" />
</symbol>
	<symbol id="mood-tongue-wink" class="icon icon-tabler icon-tabler-mood-tongue-wink" viewBox="0 0 24 24" stroke-width="2" stroke="currentColor" fill="none" stroke-linecap="round" stroke-linejoin="round"><path stroke="none" d="M0 0h24v24H0z" fill="none"/><circle transform="matrix(-1 0 0 1 24 0)" cx="12" cy="12" r="9" /><circle cx="12" cy="12" r="9" /><path d="M9 10h.01" /><path d="M10 14v2a2 2 0 1 0 4 0v-2m1.5 0h-7" /><path d="M17 10c-.5 -1 -2.5 -1 -3 0" />
</symbol>
	<symbol id="mood-unamused" class="icon icon-tabler icon-tabler-mood-unamused" viewBox="0 0 24 24" stroke-width="2" stroke="currentColor" fill="none" stroke-linecap="round" stroke-linejoin="round"><path stroke="none" d="M0 0h24v24H0z" fill="none"/><circle cx="12" cy="12" r="9" /><path d="M11 16l4 -1.5" /><path d="M10 10c-.5 -1 -2.5 -1 -3 0" /><path d="M17 10c-.5 -1 -2.5 -1 -3 0" />
</symbol>
	<symbol id="mood-wink-2" class="icon icon-tabler icon-tabler-mood-wink-2" viewBox="0 0 24 24" stroke-width="2" stroke="currentColor" fill="none" stroke-linecap="round" stroke-linejoin="round"><path stroke="none" d="M0 0h24v24H0z" fill="none"/><path d="M12 21a9 9 0 1 1 0 -18a9 9 0 0 1 0 18z" /><path d="M9 10h-.01" /><path d="M14.5 15a3.5 3.5 0 0 1 -5 0" /><path d="M15.5 8.5l-1.5 1.5l1.5 1.5" />
</symbol>
	<symbol id="mood-wink" class="icon icon-tabler icon-tabler-mood-wink" viewBox="0 0 24 24" stroke-width="2" stroke="currentColor" fill="none" stroke-linecap="round" stroke-linejoin="round"><path stroke="none" d="M0 0h24v24H0z" fill="none"/><circle cx="12" cy="12" r="9" /><path d="M15 10h.01" /><path d="M9.5 15a3.5 3.5 0 0 0 5 0" /><path d="M8.5 8.5l1.5 1.5l-1.5 1.5" />
</symbol>
	<symbol id="mood-wrrr" class="icon icon-tabler icon-tabler-mood-wrrr" viewBox="0 0 24 24" stroke-width="2" stroke="currentColor" fill="none" stroke-linecap="round" stroke-linejoin="round"><path stroke="none" d="M0 0h24v24H0z" fill="none"/><path d="M12 21a9 9 0 1 1 0 -18a9 9 0 0 1 0 18z" /><path d="M8 16l1 -1l1.5 1l1.5 -1l1.5 1l1.5 -1l1 1" /><path d="M8.5 11.5l1.5 -1.5l-1.5 -1.5" /><path d="M15.5 11.5l-1.5 -1.5l1.5 -1.5" />
</symbol>
	<symbol id="mood-xd" class="icon icon-tabler icon-tabler-mood-xd" viewBox="0 0 24 24" stroke-width="2" stroke="currentColor" fill="none" stroke-linecap="round" stroke-linejoin="round"><path stroke="none" d="M0 0h24v24H0z" fill="none"/><circle cx="12" cy="12" r="9" /><circle transform="matrix(-1 0 0 1 24 0)" cx="12" cy="12" r="9" /><path d="M9 14h6a3 3 0 0 1 -6 0z" /><path d="M9 8l6 3" /><path d="M9 11l6 -3" />
</symbol>

	<use xlink:href="#mood-angry" x="24" y="24" width="24" height="24" />
	<use xlink:href="#mood-annoyed-2" x="68" y="24" width="24" height="24" />
	<use xlink:href="#mood-annoyed" x="112" y="24" width="24" height="24" />
	<use xlink:href="#mood-nerd" x="156" y="24" width="24" height="24" />
	<use xlink:href="#mood-sad-2" x="200" y="24" width="24" height="24" />
	<use xlink:href="#mood-sad-dizzy" x="244" y="24" width="24" height="24" />
	<use xlink:href="#mood-sad-squint" x="24" y="68" width="24" height="24" />
	<use xlink:href="#mood-sick" x="68" y="68" width="24" height="24" />
	<use xlink:href="#mood-silence" x="112" y="68" width="24" height="24" />
	<use xlink:href="#mood-smile-beam" x="156" y="68" width="24" height="24" />
	<use xlink:href="#mood-smile-dizzy" x="200" y="68" width="24" height="24" />
	<use xlink:href="#mood-tongue-wink-2" x="244" y="68" width="24" height="24" />
	<use xlink:href="#mood-tongue-wink" x="24" y="112" width="24" height="24" />
	<use xlink:href="#mood-unamused" x="68" y="112" width="24" height="24" />
	<use xlink:href="#mood-wink-2" x="112" y="112" width="24" height="24" />
	<use xlink:href="#mood-wink" x="156" y="112" width="24" height="24" />
	<use xlink:href="#mood-wrrr" x="200" y="112" width="24" height="24" />
	<use xlink:href="#mood-xd" x="244" y="112" width="24" height="24" />

</svg>
