<svg xmlns="http://www.w3.org/2000/svg" xmlns:xlink="http://www.w3.org/1999/xlink" viewBox="0 0 292 204" width="292" height="204" style="color: #354052"><rect x="0" y="0" width="292" height="204" fill="#fff"></rect>
	<symbol id="baby-bottle" class="icon icon-tabler icon-tabler-baby-bottle" viewBox="0 0 24 24" stroke-width="2" stroke="currentColor" fill="none" stroke-linecap="round" stroke-linejoin="round"><path stroke="none" d="M0 0h24v24H0z" fill="none"/><path d="M5 10h14" /><path d="M12 2v2" /><path d="M12 4a5 5 0 0 1 5 5v11a2 2 0 0 1 -2 2h-6a2 2 0 0 1 -2 -2v-11a5 5 0 0 1 5 -5z" />
</symbol>
	<symbol id="binary-tree-2" class="icon icon-tabler icon-tabler-binary-tree-2" viewBox="0 0 24 24" stroke-width="2" stroke="currentColor" fill="none" stroke-linecap="round" stroke-linejoin="round"><path stroke="none" d="M0 0h24v24H0z" fill="none"/><path d="M14 6a2 2 0 1 0 -4 0a2 2 0 0 0 4 0z" /><path d="M7 14a2 2 0 1 0 -4 0a2 2 0 0 0 4 0z" /><path d="M21 14a2 2 0 1 0 -4 0a2 2 0 0 0 4 0z" /><path d="M14 18a2 2 0 1 0 -4 0a2 2 0 0 0 4 0z" /><path d="M12 8v8" /><path d="M6.316 12.496l4.368 -4.992" /><path d="M17.684 12.496l-4.366 -4.99" />
</symbol>
	<symbol id="binary-tree" class="icon icon-tabler icon-tabler-binary-tree" viewBox="0 0 24 24" stroke-width="2" stroke="currentColor" fill="none" stroke-linecap="round" stroke-linejoin="round"><path stroke="none" d="M0 0h24v24H0z" fill="none"/><path d="M6 20a2 2 0 1 0 -4 0a2 2 0 0 0 4 0z" /><path d="M16 4a2 2 0 1 0 -4 0a2 2 0 0 0 4 0z" /><path d="M16 20a2 2 0 1 0 -4 0a2 2 0 0 0 4 0z" /><path d="M11 12a2 2 0 1 0 -4 0a2 2 0 0 0 4 0z" /><path d="M21 12a2 2 0 1 0 -4 0a2 2 0 0 0 4 0z" /><path d="M5.058 18.306l2.88 -4.606" /><path d="M10.061 10.303l2.877 -4.604" /><path d="M10.065 13.705l2.876 4.6" /><path d="M15.063 5.7l2.881 4.61" />
</symbol>
	<symbol id="brand-cohost" class="icon icon-tabler icon-tabler-brand-cohost" viewBox="0 0 24 24" stroke-width="2" stroke="currentColor" fill="none" stroke-linecap="round" stroke-linejoin="round"><path stroke="none" d="M0 0h24v24H0z" fill="none"/><ellipse cx="17" cy="14" rx="3" ry="2" /><path d="M4.526 17.666c-1.133 -.772 -1.897 -1.924 -2.291 -3.456c-.398 -1.54 -.29 -2.937 .32 -4.19c.61 -1.255 1.59 -2.34 2.938 -3.254c1.348 -.914 2.93 -1.625 4.749 -2.132c1.81 -.504 3.516 -.708 5.12 -.61c1.608 .1 2.979 .537 4.112 1.31s1.897 1.924 2.291 3.456c.398 1.541 .29 2.938 -.32 4.192c-.61 1.253 -1.59 2.337 -2.938 3.252c-1.348 .915 -2.93 1.626 -4.749 2.133c-1.81 .503 -3.516 .707 -5.12 .61c-1.608 -.102 -2.979 -.538 -4.112 -1.31z" /><path d="M10.998 12.508c-.53 -.316 -1.23 -.508 -1.998 -.508c-1.657 0 -3 .895 -3 2s1.343 2 3 2c.767 0 1.467 -.192 1.998 -.508" />
</symbol>
	<symbol id="brand-gumroad" class="icon icon-tabler icon-tabler-brand-gumroad" viewBox="0 0 24 24" stroke-width="2" stroke="currentColor" fill="none" stroke-linecap="round" stroke-linejoin="round"><path stroke="none" d="M0 0h24v24H0z" fill="none"/><path d="M21 12a9 9 0 1 1 -18 0a9 9 0 0 1 18 0z" /><path d="M13.5 13h2.5v3" /><path d="M15.024 9.382a4 4 0 1 0 -3.024 6.618c1.862 0 2.554 -1.278 3 -3" />
</symbol>
	<symbol id="brand-onedrive" class="icon icon-tabler icon-tabler-brand-onedrive" viewBox="0 0 24 24" stroke-width="2" stroke="currentColor" fill="none" stroke-linecap="round" stroke-linejoin="round"><path stroke="none" d="M0 0h24v24H0z" fill="none"/><path d="M18.456 10.45a6.45 6.45 0 0 0 -11.999 -2.151a4.857 4.857 0 0 0 -4.44 5.241a4.856 4.856 0 0 0 5.236 4.444h10.751a3.771 3.771 0 0 0 3.99 -3.54a3.772 3.772 0 0 0 -3.538 -3.992z" />
</symbol>
	<symbol id="brand-waze" class="icon icon-tabler icon-tabler-brand-waze" viewBox="0 0 24 24" stroke-width="2" stroke="currentColor" fill="none" stroke-linecap="round" stroke-linejoin="round"><path stroke="none" d="M0 0h24v24H0z" fill="none"/><path d="M6.66 17.52a7 7 0 0 1 -3.66 -4.52c2 0 3 -1 3 -2.51c0 -3.92 2.25 -7.49 7.38 -7.49c4.62 0 7.62 3.51 7.62 8a8.08 8.08 0 0 1 -3.39 6.62" /><path d="M10 18.69a17.29 17.29 0 0 0 3.33 .3h.54" /><circle cx="16" cy="19" r="2" /><circle cx="8" cy="19" r="2" /><path d="M16 9h.01" /><path d="M11 9h.01" />
</symbol>
	<symbol id="topology-bus" class="icon icon-tabler icon-tabler-topology-bus" viewBox="0 0 24 24" stroke-width="2" stroke="currentColor" fill="none" stroke-linecap="round" stroke-linejoin="round"><path stroke="none" d="M0 0h24v24H0z" fill="none"/><path d="M14 10a2 2 0 1 0 -4 0a2 2 0 0 0 4 0z" /><path d="M6 10a2 2 0 1 0 -4 0a2 2 0 0 0 4 0z" /><path d="M22 10a2 2 0 1 0 -4 0a2 2 0 0 0 4 0z" /><path d="M2 16h20" /><path d="M4 12v4" /><path d="M12 12v4" /><path d="M20 12v4" />
</symbol>
	<symbol id="topology-complex" class="icon icon-tabler icon-tabler-topology-complex" viewBox="0 0 24 24" stroke-width="2" stroke="currentColor" fill="none" stroke-linecap="round" stroke-linejoin="round"><path stroke="none" d="M0 0h24v24H0z" fill="none"/><path d="M20 18a2 2 0 1 0 -4 0a2 2 0 0 0 4 0z" /><path d="M8 18a2 2 0 1 0 -4 0a2 2 0 0 0 4 0z" /><path d="M8 6a2 2 0 1 0 -4 0a2 2 0 0 0 4 0z" /><path d="M20 6a2 2 0 1 0 -4 0a2 2 0 0 0 4 0z" /><path d="M14 12a2 2 0 1 0 -4 0a2 2 0 0 0 4 0z" /><path d="M7.5 7.5l3 3" /><path d="M6 8v8" /><path d="M18 16v-8" /><path d="M8 6h8" /><path d="M16 18h-8" />
</symbol>
	<symbol id="topology-full-hierarchy" class="icon icon-tabler icon-tabler-topology-full-hierarchy" viewBox="0 0 24 24" stroke-width="2" stroke="currentColor" fill="none" stroke-linecap="round" stroke-linejoin="round"><path stroke="none" d="M0 0h24v24H0z" fill="none"/><path d="M20 18a2 2 0 1 0 -4 0a2 2 0 0 0 4 0z" /><path d="M8 18a2 2 0 1 0 -4 0a2 2 0 0 0 4 0z" /><path d="M8 6a2 2 0 1 0 -4 0a2 2 0 0 0 4 0z" /><path d="M20 6a2 2 0 1 0 -4 0a2 2 0 0 0 4 0z" /><path d="M14 12a2 2 0 1 0 -4 0a2 2 0 0 0 4 0z" /><path d="M6 8v8" /><path d="M18 16v-8" /><path d="M8 6h8" /><path d="M16 18h-8" /><path d="M7.5 7.5l3 3" /><path d="M13.5 13.5l3 3" /><path d="M16.5 7.5l-3 3" /><path d="M10.5 13.5l-3 3" />
</symbol>
	<symbol id="topology-full" class="icon icon-tabler icon-tabler-topology-full" viewBox="0 0 24 24" stroke-width="2" stroke="currentColor" fill="none" stroke-linecap="round" stroke-linejoin="round"><path stroke="none" d="M0 0h24v24H0z" fill="none"/><path d="M20 18a2 2 0 1 0 -4 0a2 2 0 0 0 4 0z" /><path d="M8 18a2 2 0 1 0 -4 0a2 2 0 0 0 4 0z" /><path d="M8 6a2 2 0 1 0 -4 0a2 2 0 0 0 4 0z" /><path d="M20 6a2 2 0 1 0 -4 0a2 2 0 0 0 4 0z" /><path d="M6 8v8" /><path d="M18 16v-8" /><path d="M8 6h8" /><path d="M16 18h-8" /><path d="M7.5 7.5l9 9" /><path d="M7.5 16.5l9 -9" />
</symbol>
	<symbol id="topology-ring-2" class="icon icon-tabler icon-tabler-topology-ring-2" viewBox="0 0 24 24" stroke-width="2" stroke="currentColor" fill="none" stroke-linecap="round" stroke-linejoin="round"><path stroke="none" d="M0 0h24v24H0z" fill="none"/><path d="M14 6a2 2 0 1 0 -4 0a2 2 0 0 0 4 0z" /><path d="M7 18a2 2 0 1 0 -4 0a2 2 0 0 0 4 0z" /><path d="M21 18a2 2 0 1 0 -4 0a2 2 0 0 0 4 0z" /><path d="M7 18h10" /><path d="M18 16l-5 -8" /><path d="M11 8l-5 8" />
</symbol>
	<symbol id="topology-ring-3" class="icon icon-tabler icon-tabler-topology-ring-3" viewBox="0 0 24 24" stroke-width="2" stroke="currentColor" fill="none" stroke-linecap="round" stroke-linejoin="round"><path stroke="none" d="M0 0h24v24H0z" fill="none"/><path d="M8 18a2 2 0 1 0 -4 0a2 2 0 0 0 4 0z" /><path d="M20 18a2 2 0 1 0 -4 0a2 2 0 0 0 4 0z" /><path d="M20 6a2 2 0 1 0 -4 0a2 2 0 0 0 4 0z" /><path d="M8 6a2 2 0 1 0 -4 0a2 2 0 0 0 4 0z" /><path d="M6 8v8" /><path d="M18 16v-8" /><path d="M8 6h8" /><path d="M16 18h-8" />
</symbol>
	<symbol id="topology-ring" class="icon icon-tabler icon-tabler-topology-ring" viewBox="0 0 24 24" stroke-width="2" stroke="currentColor" fill="none" stroke-linecap="round" stroke-linejoin="round"><path stroke="none" d="M0 0h24v24H0z" fill="none"/><path d="M14 20a2 2 0 1 0 -4 0a2 2 0 0 0 4 0z" /><path d="M14 4a2 2 0 1 0 -4 0a2 2 0 0 0 4 0z" /><path d="M6 12a2 2 0 1 0 -4 0a2 2 0 0 0 4 0z" /><path d="M22 12a2 2 0 1 0 -4 0a2 2 0 0 0 4 0z" /><path d="M13.5 5.5l5 5" /><path d="M5.5 13.5l5 5" /><path d="M13.5 18.5l5 -5" /><path d="M10.5 5.5l-5 5" />
</symbol>
	<symbol id="topology-star-2" class="icon icon-tabler icon-tabler-topology-star-2" viewBox="0 0 24 24" stroke-width="2" stroke="currentColor" fill="none" stroke-linecap="round" stroke-linejoin="round"><path stroke="none" d="M0 0h24v24H0z" fill="none"/><path d="M14 20a2 2 0 1 0 -4 0a2 2 0 0 0 4 0z" /><path d="M14 4a2 2 0 1 0 -4 0a2 2 0 0 0 4 0z" /><path d="M6 12a2 2 0 1 0 -4 0a2 2 0 0 0 4 0z" /><path d="M22 12a2 2 0 1 0 -4 0a2 2 0 0 0 4 0z" /><path d="M14 12a2 2 0 1 0 -4 0a2 2 0 0 0 4 0z" /><path d="M6 12h4" /><path d="M14 12h4" /><path d="M12 6v4" /><path d="M12 14v4" />
</symbol>
	<symbol id="topology-star-3" class="icon icon-tabler icon-tabler-topology-star-3" viewBox="0 0 24 24" stroke-width="2" stroke="currentColor" fill="none" stroke-linecap="round" stroke-linejoin="round"><path stroke="none" d="M0 0h24v24H0z" fill="none"/><path d="M10 19a2 2 0 1 0 -4 0a2 2 0 0 0 4 0z" /><path d="M18 5a2 2 0 1 0 -4 0a2 2 0 0 0 4 0z" /><path d="M10 5a2 2 0 1 0 -4 0a2 2 0 0 0 4 0z" /><path d="M6 12a2 2 0 1 0 -4 0a2 2 0 0 0 4 0z" /><path d="M18 19a2 2 0 1 0 -4 0a2 2 0 0 0 4 0z" /><path d="M14 12a2 2 0 1 0 -4 0a2 2 0 0 0 4 0z" /><path d="M22 12a2 2 0 1 0 -4 0a2 2 0 0 0 4 0z" /><path d="M6 12h4" /><path d="M14 12h4" /><path d="M15 7l-2 3" /><path d="M9 7l2 3" /><path d="M11 14l-2 3" /><path d="M13 14l2 3" />
</symbol>
	<symbol id="topology-star-ring-2" class="icon icon-tabler icon-tabler-topology-star-ring-2" viewBox="0 0 24 24" stroke-width="2" stroke="currentColor" fill="none" stroke-linecap="round" stroke-linejoin="round"><path stroke="none" d="M0 0h24v24H0z" fill="none"/><path d="M14 20a2 2 0 1 0 -4 0a2 2 0 0 0 4 0z" /><path d="M14 4a2 2 0 1 0 -4 0a2 2 0 0 0 4 0z" /><path d="M6 12a2 2 0 1 0 -4 0a2 2 0 0 0 4 0z" /><path d="M22 12a2 2 0 1 0 -4 0a2 2 0 0 0 4 0z" /><path d="M14 12a2 2 0 1 0 -4 0a2 2 0 0 0 4 0z" /><path d="M6 12h4" /><path d="M14 12h4" /><path d="M12 6v4" /><path d="M12 14v4" /><path d="M5.5 10.5l5 -5" /><path d="M13.5 5.5l5 5" /><path d="M18.5 13.5l-5 5" /><path d="M10.5 18.5l-5 -5" />
</symbol>
	<symbol id="topology-star-ring-3" class="icon icon-tabler icon-tabler-topology-star-ring-3" viewBox="0 0 24 24" stroke-width="2" stroke="currentColor" fill="none" stroke-linecap="round" stroke-linejoin="round"><path stroke="none" d="M0 0h24v24H0z" fill="none"/><path d="M10 19a2 2 0 1 0 -4 0a2 2 0 0 0 4 0z" /><path d="M18 5a2 2 0 1 0 -4 0a2 2 0 0 0 4 0z" /><path d="M10 5a2 2 0 1 0 -4 0a2 2 0 0 0 4 0z" /><path d="M6 12a2 2 0 1 0 -4 0a2 2 0 0 0 4 0z" /><path d="M18 19a2 2 0 1 0 -4 0a2 2 0 0 0 4 0z" /><path d="M14 12a2 2 0 1 0 -4 0a2 2 0 0 0 4 0z" /><path d="M22 12a2 2 0 1 0 -4 0a2 2 0 0 0 4 0z" /><path d="M6 12h4" /><path d="M14 12h4" /><path d="M15 7l-2 3" /><path d="M9 7l2 3" /><path d="M11 14l-2 3" /><path d="M13 14l2 3" /><path d="M10 5h4" /><path d="M10 19h4" /><path d="M17 17l2 -3" /><path d="M19 10l-2 -3" /><path d="M7 7l-2 3" /><path d="M5 14l2 3" />
</symbol>
	<symbol id="topology-star-ring" class="icon icon-tabler icon-tabler-topology-star-ring" viewBox="0 0 24 24" stroke-width="2" stroke="currentColor" fill="none" stroke-linecap="round" stroke-linejoin="round"><path stroke="none" d="M0 0h24v24H0z" fill="none"/><path d="M14 20a2 2 0 1 0 -4 0a2 2 0 0 0 4 0z" /><path d="M14 4a2 2 0 1 0 -4 0a2 2 0 0 0 4 0z" /><path d="M6 12a2 2 0 1 0 -4 0a2 2 0 0 0 4 0z" /><path d="M22 12a2 2 0 1 0 -4 0a2 2 0 0 0 4 0z" /><path d="M14 12a2 2 0 1 0 -4 0a2 2 0 0 0 4 0z" /><path d="M6 12h4" /><path d="M14 12h4" /><path d="M13.5 5.5l5 5" /><path d="M5.5 13.5l5 5" /><path d="M13.5 18.5l5 -5" /><path d="M10.5 5.5l-5 5" /><path d="M12 6v4" /><path d="M12 14v4" />
</symbol>
	<symbol id="topology-star" class="icon icon-tabler icon-tabler-topology-star" viewBox="0 0 24 24" stroke-width="2" stroke="currentColor" fill="none" stroke-linecap="round" stroke-linejoin="round"><path stroke="none" d="M0 0h24v24H0z" fill="none"/><path d="M8 18a2 2 0 1 0 -4 0a2 2 0 0 0 4 0z" /><path d="M20 6a2 2 0 1 0 -4 0a2 2 0 0 0 4 0z" /><path d="M8 6a2 2 0 1 0 -4 0a2 2 0 0 0 4 0z" /><path d="M20 18a2 2 0 1 0 -4 0a2 2 0 0 0 4 0z" /><path d="M14 12a2 2 0 1 0 -4 0a2 2 0 0 0 4 0z" /><path d="M7.5 7.5l3 3" /><path d="M7.5 16.5l3 -3" /><path d="M13.5 13.5l3 3" /><path d="M16.5 7.5l-3 3" />
</symbol>
	<symbol id="vacuum-cleaner" class="icon icon-tabler icon-tabler-vacuum-cleaner" viewBox="0 0 24 24" stroke-width="2" stroke="currentColor" fill="none" stroke-linecap="round" stroke-linejoin="round"><path stroke="none" d="M0 0h24v24H0z" fill="none"/><path d="M21 12a9 9 0 1 1 -18 0a9 9 0 0 1 18 0z" /><path d="M14 9a2 2 0 1 1 -4 0a2 2 0 0 1 4 0z" /><path d="M12 16h.01" />
</symbol>

	<use xlink:href="#baby-bottle" x="24" y="24" width="24" height="24" />
	<use xlink:href="#binary-tree-2" x="68" y="24" width="24" height="24" />
	<use xlink:href="#binary-tree" x="112" y="24" width="24" height="24" />
	<use xlink:href="#brand-cohost" x="156" y="24" width="24" height="24" />
	<use xlink:href="#brand-gumroad" x="200" y="24" width="24" height="24" />
	<use xlink:href="#brand-onedrive" x="244" y="24" width="24" height="24" />
	<use xlink:href="#brand-waze" x="24" y="68" width="24" height="24" />
	<use xlink:href="#topology-bus" x="68" y="68" width="24" height="24" />
	<use xlink:href="#topology-complex" x="112" y="68" width="24" height="24" />
	<use xlink:href="#topology-full-hierarchy" x="156" y="68" width="24" height="24" />
	<use xlink:href="#topology-full" x="200" y="68" width="24" height="24" />
	<use xlink:href="#topology-ring-2" x="244" y="68" width="24" height="24" />
	<use xlink:href="#topology-ring-3" x="24" y="112" width="24" height="24" />
	<use xlink:href="#topology-ring" x="68" y="112" width="24" height="24" />
	<use xlink:href="#topology-star-2" x="112" y="112" width="24" height="24" />
	<use xlink:href="#topology-star-3" x="156" y="112" width="24" height="24" />
	<use xlink:href="#topology-star-ring-2" x="200" y="112" width="24" height="24" />
	<use xlink:href="#topology-star-ring-3" x="244" y="112" width="24" height="24" />
	<use xlink:href="#topology-star-ring" x="24" y="156" width="24" height="24" />
	<use xlink:href="#topology-star" x="68" y="156" width="24" height="24" />
	<use xlink:href="#vacuum-cleaner" x="112" y="156" width="24" height="24" />

</svg>