<svg xmlns="http://www.w3.org/2000/svg" xmlns:xlink="http://www.w3.org/1999/xlink" viewBox="0 0 292 160" width="292" height="160" style="color: #354052"><rect x="0" y="0" width="292" height="160" fill="#fff"></rect>
	<symbol id="outline-arrow-down-dashed" xmlns="http://www.w3.org/2000/svg" width="24" height="24" viewBox="0 0 24 24" fill="none" stroke="currentColor" stroke-width="2" stroke-linecap="round" stroke-linejoin="round"
> <path d="M12 5v.5m0 3v1.5m0 3v6" /> <path d="M18 13l-6 6" /> <path d="M6 13l6 6" />
</symbol>
	<symbol id="outline-arrow-left-dashed" xmlns="http://www.w3.org/2000/svg" width="24" height="24" viewBox="0 0 24 24" fill="none" stroke="currentColor" stroke-width="2" stroke-linecap="round" stroke-linejoin="round"
> <path d="M5 12h6m3 0h1.5m3 0h.5" /> <path d="M5 12l6 6" /> <path d="M5 12l6 -6" />
</symbol>
	<symbol id="outline-arrow-narrow-down-dashed" xmlns="http://www.w3.org/2000/svg" width="24" height="24" viewBox="0 0 24 24" fill="none" stroke="currentColor" stroke-width="2" stroke-linecap="round" stroke-linejoin="round"
> <path d="M12 5v.5m0 3v1.5m0 3v6" /> <path d="M16 15l-4 4" /> <path d="M8 15l4 4" />
</symbol>
	<symbol id="outline-arrow-narrow-left-dashed" xmlns="http://www.w3.org/2000/svg" width="24" height="24" viewBox="0 0 24 24" fill="none" stroke="currentColor" stroke-width="2" stroke-linecap="round" stroke-linejoin="round"
> <path d="M5 12h6m3 0h1.5m3 0h.5" /> <path d="M5 12l4 4" /> <path d="M5 12l4 -4" />
</symbol>
	<symbol id="outline-arrow-narrow-right-dashed" xmlns="http://www.w3.org/2000/svg" width="24" height="24" viewBox="0 0 24 24" fill="none" stroke="currentColor" stroke-width="2" stroke-linecap="round" stroke-linejoin="round"
> <path d="M5 12h.5m3 0h1.5m3 0h6" /> <path d="M15 16l4 -4" /> <path d="M15 8l4 4" />
</symbol>
	<symbol id="outline-arrow-narrow-up-dashed" xmlns="http://www.w3.org/2000/svg" width="24" height="24" viewBox="0 0 24 24" fill="none" stroke="currentColor" stroke-width="2" stroke-linecap="round" stroke-linejoin="round"
> <path d="M12 5v6m0 3v1.5m0 3v.5" /> <path d="M16 9l-4 -4" /> <path d="M8 9l4 -4" />
</symbol>
	<symbol id="outline-arrow-right-dashed" xmlns="http://www.w3.org/2000/svg" width="24" height="24" viewBox="0 0 24 24" fill="none" stroke="currentColor" stroke-width="2" stroke-linecap="round" stroke-linejoin="round"
> <path d="M5 12h.5m3 0h1.5m3 0h6" /> <path d="M13 18l6 -6" /> <path d="M13 6l6 6" />
</symbol>
	<symbol id="outline-arrow-up-dashed" xmlns="http://www.w3.org/2000/svg" width="24" height="24" viewBox="0 0 24 24" fill="none" stroke="currentColor" stroke-width="2" stroke-linecap="round" stroke-linejoin="round"
> <path d="M12 5v6m0 3v1.5m0 3v.5" /> <path d="M18 11l-6 -6" /> <path d="M6 11l6 -6" />
</symbol>
	<symbol id="outline-building-cog" xmlns="http://www.w3.org/2000/svg" width="24" height="24" viewBox="0 0 24 24" fill="none" stroke="currentColor" stroke-width="2" stroke-linecap="round" stroke-linejoin="round"
> <path d="M3 21h9" /> <path d="M9 8h1" /> <path d="M9 12h1" /> <path d="M9 16h1" /> <path d="M14 8h1" /> <path d="M14 12h1" /> <path d="M5 21v-16c0 -.53 .211 -1.039 .586 -1.414c.375 -.375 .884 -.586 1.414 -.586h10c.53 0 1.039 .211 1.414 .586c.375 .375 .586 .884 .586 1.414v7" /> <path d="M16 18c0 .53 .211 1.039 .586 1.414c.375 .375 .884 .586 1.414 .586c.53 0 1.039 -.211 1.414 -.586c.375 -.375 .586 -.884 .586 -1.414c0 -.53 -.211 -1.039 -.586 -1.414c-.375 -.375 -.884 -.586 -1.414 -.586c-.53 0 -1.039 .211 -1.414 .586c-.375 .375 -.586 .884 -.586 1.414z" /> <path d="M18 14.5v1.5" /> <path d="M18 20v1.5" /> <path d="M21.032 16.25l-1.299 .75" /> <path d="M16.27 19l-1.3 .75" /> <path d="M14.97 16.25l1.3 .75" /> <path d="M19.733 19l1.3 .75" />
</symbol>
	<symbol id="outline-building-minus" xmlns="http://www.w3.org/2000/svg" width="24" height="24" viewBox="0 0 24 24" fill="none" stroke="currentColor" stroke-width="2" stroke-linecap="round" stroke-linejoin="round"
> <path d="M3 21h9" /> <path d="M9 8h1" /> <path d="M9 12h1" /> <path d="M9 16h1" /> <path d="M14 8h1" /> <path d="M14 12h1" /> <path d="M5 21v-16c0 -.53 .211 -1.039 .586 -1.414c.375 -.375 .884 -.586 1.414 -.586h10c.53 0 1.039 .211 1.414 .586c.375 .375 .586 .884 .586 1.414v7" /> <path d="M16 19h6" />
</symbol>
	<symbol id="outline-building-plus" xmlns="http://www.w3.org/2000/svg" width="24" height="24" viewBox="0 0 24 24" fill="none" stroke="currentColor" stroke-width="2" stroke-linecap="round" stroke-linejoin="round"
> <path d="M3 21h9" /> <path d="M9 8h1" /> <path d="M9 12h1" /> <path d="M9 16h1" /> <path d="M14 8h1" /> <path d="M14 12h1" /> <path d="M5 21v-16c0 -.53 .211 -1.039 .586 -1.414c.375 -.375 .884 -.586 1.414 -.586h10c.53 0 1.039 .211 1.414 .586c.375 .375 .586 .884 .586 1.414v7" /> <path d="M16 19h6" /> <path d="M19 16v6" />
</symbol>
	<symbol id="filled-favicon" xmlns="http://www.w3.org/2000/svg" width="24" height="24" viewBox="0 0 24 24" fill="currentColor"
> <path d="M19 4a4 4 0 0 1 4 4v8a4 4 0 0 1 -4 4h-14a4 4 0 0 1 -4 -4v-8a4 4 0 0 1 4 -4zm-13 5a1 1 0 0 0 -1 1v4a1 1 0 0 0 2 0v-4a1 1 0 0 0 -1 -1m5 0a3 3 0 0 0 0 6a1 1 0 0 0 .117 -1.993l-.117 -.007a1 1 0 0 1 -.117 -1.993l.117 -.007a1 1 0 0 0 0 -2m5 0a3 3 0 0 0 -2.995 2.824l-.005 .176a3 3 0 1 0 3 -3" /> <path d="M16 11a1 1 0 1 0 0 2a1 1 0 0 0 0 -2" />
</symbol>
	<symbol id="filled-icons" xmlns="http://www.w3.org/2000/svg" width="24" height="24" viewBox="0 0 24 24" fill="currentColor"
> <path d="M4.25 2.603a4.5 4.5 0 1 1 -2.25 3.897l.006 -.229a4.5 4.5 0 0 1 2.244 -3.668" /> <path d="M5.632 13.504a1 1 0 0 1 1.736 0l4 7a1 1 0 0 1 -.868 1.496h-8a1 1 0 0 1 -.868 -1.496z" /> <path d="M13.293 2.293a1 1 0 0 1 1.414 0l7 7a1 1 0 1 1 -1.414 1.414l-7 -7a1 1 0 0 1 0 -1.414" /> <path d="M20.293 2.293a1 1 0 0 1 1.414 1.414l-7 7a1 1 0 0 1 -1.414 -1.414z" /> <path d="M21 13a1 1 0 0 1 1 1v7a1 1 0 0 1 -1 1h-7a1 1 0 0 1 -1 -1v-7a1 1 0 0 1 1 -1z" />
</symbol>
	<symbol id="filled-ironing-1" xmlns="http://www.w3.org/2000/svg" width="24" height="24" viewBox="0 0 24 24" fill="currentColor"
> <path d="M16.459 5a4 4 0 0 1 3.945 3.343l1.387 8.329a2 2 0 0 1 -1.971 2.328h-16.82a1 1 0 0 1 -1 -1a8 8 0 0 1 8 -8h8.652l-.22 -1.329a2 2 0 0 0 -1.811 -1.665l-.162 -.006h-7.459a1 1 0 1 1 0 -2zm-4.449 9h-.01a1 1 0 0 0 -.117 1.993l.127 .007a1 1 0 0 0 0 -2" />
</symbol>
	<symbol id="filled-ironing-2" xmlns="http://www.w3.org/2000/svg" width="24" height="24" viewBox="0 0 24 24" fill="currentColor"
> <path d="M16.459 5a4 4 0 0 1 3.945 3.343l1.387 8.329a2 2 0 0 1 -1.971 2.328h-16.82a1 1 0 0 1 -1 -1a8 8 0 0 1 8 -8h8.652l-.22 -1.329a2 2 0 0 0 -1.811 -1.665l-.162 -.006h-7.459a1 1 0 1 1 0 -2zm-6.449 9h-.01a1 1 0 0 0 -.117 1.993l.127 .007a1 1 0 0 0 0 -2m4 0h-.01a1 1 0 0 0 -.117 1.993l.127 .007a1 1 0 0 0 0 -2" />
</symbol>
	<symbol id="filled-ironing-3" xmlns="http://www.w3.org/2000/svg" width="24" height="24" viewBox="0 0 24 24" fill="currentColor"
> <path d="M16.459 5a4 4 0 0 1 3.945 3.343l1.387 8.329a2 2 0 0 1 -1.971 2.328h-16.82a1 1 0 0 1 -1 -1a8 8 0 0 1 8 -8h8.652l-.22 -1.329a2 2 0 0 0 -1.811 -1.665l-.162 -.006h-7.459a1 1 0 1 1 0 -2zm-4.449 9h-.01a1 1 0 0 0 -.117 1.993l.127 .007a1 1 0 0 0 0 -2m-3 0h-.01a1 1 0 0 0 -.117 1.993l.127 .007a1 1 0 0 0 0 -2m6 0h-.01a1 1 0 0 0 -.117 1.993l.127 .007a1 1 0 0 0 0 -2" />
</symbol>
	<symbol id="filled-ironing-steam" xmlns="http://www.w3.org/2000/svg" width="24" height="24" viewBox="0 0 24 24" fill="currentColor"
> <path d="M12 18a1 1 0 0 1 1 1v2a1 1 0 0 1 -2 0v-2a1 1 0 0 1 1 -1" /> <path d="M16.459 3a4 4 0 0 1 3.945 3.343l.577 3.464l.81 4.865a2 2 0 0 1 -1.971 2.328h-16.82a1 1 0 0 1 -1 -1a8 8 0 0 1 8 -8h8.652l-.22 -1.329a2 2 0 0 0 -1.811 -1.665l-.162 -.006h-7.459a1 1 0 1 1 0 -2z" /> <path d="M7.106 18.553a1 1 0 0 1 1.788 .894l-1 2a1 1 0 0 1 -1.788 -.894z" /> <path d="M15.553 18.106a1 1 0 0 1 1.341 .447l1 2a1 1 0 0 1 -1.788 .894l-1 -2a1 1 0 0 1 .447 -1.341" />
</symbol>
	<symbol id="filled-sitemap" xmlns="http://www.w3.org/2000/svg" width="24" height="24" viewBox="0 0 24 24" fill="currentColor"
> <path d="M2 16.667a2.667 2.667 0 0 1 2.667 -2.667h2.666a2.667 2.667 0 0 1 2.667 2.667v2.666a2.667 2.667 0 0 1 -2.667 2.667h-2.666a2.667 2.667 0 0 1 -2.667 -2.667z" /> <path d="M14 16.667a2.667 2.667 0 0 1 2.667 -2.667h2.666a2.667 2.667 0 0 1 2.667 2.667v2.666a2.667 2.667 0 0 1 -2.667 2.667h-2.666a2.667 2.667 0 0 1 -2.667 -2.667z" /> <path d="M8 4.667a2.667 2.667 0 0 1 2.667 -2.667h2.666a2.667 2.667 0 0 1 2.667 2.667v2.666a2.667 2.667 0 0 1 -2.667 2.667h-2.666a2.667 2.667 0 0 1 -2.667 -2.667z" /> <path d="M12 8a1 1 0 0 0 -1 1v2h-3c-1.645 0 -3 1.355 -3 3v1a1 1 0 0 0 1 1a1 1 0 0 0 1 -1v-1c0 -.564 .436 -1 1 -1h8c.564 0 1 .436 1 1v1a1 1 0 0 0 1 1a1 1 0 0 0 1 -1v-1c0 -1.645 -1.355 -3 -3 -3h-3v-2a1 1 0 0 0 -1 -1z" />
</symbol>

	<use xlink:href="#outline-arrow-down-dashed" x="24" y="24" width="24" height="24" />
	<use xlink:href="#outline-arrow-left-dashed" x="68" y="24" width="24" height="24" />
	<use xlink:href="#outline-arrow-narrow-down-dashed" x="112" y="24" width="24" height="24" />
	<use xlink:href="#outline-arrow-narrow-left-dashed" x="156" y="24" width="24" height="24" />
	<use xlink:href="#outline-arrow-narrow-right-dashed" x="200" y="24" width="24" height="24" />
	<use xlink:href="#outline-arrow-narrow-up-dashed" x="244" y="24" width="24" height="24" />
	<use xlink:href="#outline-arrow-right-dashed" x="24" y="68" width="24" height="24" />
	<use xlink:href="#outline-arrow-up-dashed" x="68" y="68" width="24" height="24" />
	<use xlink:href="#outline-building-cog" x="112" y="68" width="24" height="24" />
	<use xlink:href="#outline-building-minus" x="156" y="68" width="24" height="24" />
	<use xlink:href="#outline-building-plus" x="200" y="68" width="24" height="24" />
	<use xlink:href="#filled-favicon" x="244" y="68" width="24" height="24" />
	<use xlink:href="#filled-icons" x="24" y="112" width="24" height="24" />
	<use xlink:href="#filled-ironing-1" x="68" y="112" width="24" height="24" />
	<use xlink:href="#filled-ironing-2" x="112" y="112" width="24" height="24" />
	<use xlink:href="#filled-ironing-3" x="156" y="112" width="24" height="24" />
	<use xlink:href="#filled-ironing-steam" x="200" y="112" width="24" height="24" />
	<use xlink:href="#filled-sitemap" x="244" y="112" width="24" height="24" />

</svg>