<svg xmlns="http://www.w3.org/2000/svg" xmlns:xlink="http://www.w3.org/1999/xlink" viewBox="0 0 292 160" width="292" height="160" style="color: #354052"><rect x="0" y="0" width="292" height="160" fill="#fff"></rect>
	<symbol id="outline-alphabet-polish" xmlns="http://www.w3.org/2000/svg" width="24" height="24" viewBox="0 0 24 24" fill="none" stroke="currentColor" stroke-width="2" stroke-linecap="round" stroke-linejoin="round"
> <path d="M7 10h2a2 2 0 0 1 2 2v5h-3a2 2 0 1 1 0 -4h3" /> <path d="M16 7v10" /> <path d="M18 11l-4 2" /> <path d="M10.5 17a1.5 1.5 0 0 0 0 3" />
</symbol>
	<symbol id="outline-alphabet-runes" xmlns="http://www.w3.org/2000/svg" width="24" height="24" viewBox="0 0 24 24" fill="none" stroke="currentColor" stroke-width="2" stroke-linecap="round" stroke-linejoin="round"
> <path d="M17 18v-12" /> <path d="M13 6l4 4l4 -4" /> <path d="M11 18l-7 -8l4 -4l4 4l-7 8" />
</symbol>
	<symbol id="outline-blind" xmlns="http://www.w3.org/2000/svg" width="24" height="24" viewBox="0 0 24 24" fill="none" stroke="currentColor" stroke-width="2" stroke-linecap="round" stroke-linejoin="round"
> <path d="M9 4a1 1 0 1 0 2 0a1 1 0 0 0 -2 0" /> <path d="M4 21l3 -4" /> <path d="M13 21l-2 -4l-3 -3l1 -6" /> <path d="M3 12l2 -3l4 -1l6 4" /> <path d="M16.5 14l3.5 7" />
</symbol>
	<symbol id="outline-brand-tabnine" xmlns="http://www.w3.org/2000/svg" width="24" height="24" viewBox="0 0 24 24" fill="none" stroke="currentColor" stroke-width="2" stroke-linecap="round" stroke-linejoin="round"
> <path d="M20 12l-12 6.75m12 -6.75l-12 -6.75m12 6.75v-4.527l-8 -4.473l-4 2.25m12 6.75v4.5l-8 4.5l-4 -2.25m0 -13.5l-4 2.222v9.028l4 2.25z" />
</symbol>
	<symbol id="outline-circle-asterisk" xmlns="http://www.w3.org/2000/svg" width="24" height="24" viewBox="0 0 24 24" fill="none" stroke="currentColor" stroke-width="2" stroke-linecap="round" stroke-linejoin="round"
> <path d="M12 8.5v7" /> <path d="M9 10l6 4" /> <path d="M9 14l6 -4" /> <path d="M3 12a9 9 0 1 0 18 0a9 9 0 0 0 -18 0" />
</symbol>
	<symbol id="outline-deaf" xmlns="http://www.w3.org/2000/svg" width="24" height="24" viewBox="0 0 24 24" fill="none" stroke="currentColor" stroke-width="2" stroke-linecap="round" stroke-linejoin="round"
> <path d="M6 10a7 7 0 1 1 13 3.6a10 10 0 0 1 -2 2a8 8 0 0 0 -2 3a4.5 4.5 0 0 1 -6.8 1.4" /> <path d="M10 10a3 3 0 1 1 5 2.2" /> <path d="M5 13l4 4" /> <path d="M9 13l-4 4" />
</symbol>
	<symbol id="outline-hexagon-asterisk" xmlns="http://www.w3.org/2000/svg" width="24" height="24" viewBox="0 0 24 24" fill="none" stroke="currentColor" stroke-width="2" stroke-linecap="round" stroke-linejoin="round"
> <path d="M19.875 6.27c.7 .398 1.13 1.143 1.125 1.948v7.284c0 .809 -.443 1.555 -1.158 1.948l-6.75 4.27a2.27 2.27 0 0 1 -2.184 0l-6.75 -4.27a2.23 2.23 0 0 1 -1.158 -1.948v-7.285c0 -.809 .443 -1.554 1.158 -1.947l6.75 -3.98a2.33 2.33 0 0 1 2.25 0l6.75 3.98z" /> <path d="M12 8.5v7" /> <path d="M9 10l6 4" /> <path d="M9 14l6 -4" />
</symbol>
	<symbol id="outline-ripple-down" xmlns="http://www.w3.org/2000/svg" width="24" height="24" viewBox="0 0 24 24" fill="none" stroke="currentColor" stroke-width="2" stroke-linecap="round" stroke-linejoin="round"
> <path d="M3 7q 4.5 -3 9 0t 9 0" /> <path d="M3 17q 4.5 -3 9 0q .213 .142 .427 .27" /> <path d="M3 12q 4.5 -3 9 0q 2.006 1.338 4.012 1.482" /> <path d="M19 16v6" /> <path d="M22 19l-3 3l-3 -3" />
</symbol>
	<symbol id="outline-ripple-up" xmlns="http://www.w3.org/2000/svg" width="24" height="24" viewBox="0 0 24 24" fill="none" stroke="currentColor" stroke-width="2" stroke-linecap="round" stroke-linejoin="round"
> <path d="M3 7q 4.5 -3 9 0t 9 0" /> <path d="M3 17q 4.5 -3 9 0q .218 .144 .434 .275" /> <path d="M3 12q 4.5 -3 9 0q 1.941 1.294 3.882 1.472" /> <path d="M19 22v-6" /> <path d="M22 19l-3 -3l-3 3" />
</symbol>
	<symbol id="outline-rosette-asterisk" xmlns="http://www.w3.org/2000/svg" width="24" height="24" viewBox="0 0 24 24" fill="none" stroke="currentColor" stroke-width="2" stroke-linecap="round" stroke-linejoin="round"
> <path d="M5 7.2a2.2 2.2 0 0 1 2.2 -2.2h1a2.2 2.2 0 0 0 1.55 -.64l.7 -.7a2.2 2.2 0 0 1 3.12 0l.7 .7c.412 .41 .97 .64 1.55 .64h1a2.2 2.2 0 0 1 2.2 2.2v1c0 .58 .23 1.138 .64 1.55l.7 .7a2.2 2.2 0 0 1 0 3.12l-.7 .7a2.2 2.2 0 0 0 -.64 1.55v1a2.2 2.2 0 0 1 -2.2 2.2h-1a2.2 2.2 0 0 0 -1.55 .64l-.7 .7a2.2 2.2 0 0 1 -3.12 0l-.7 -.7a2.2 2.2 0 0 0 -1.55 -.64h-1a2.2 2.2 0 0 1 -2.2 -2.2v-1a2.2 2.2 0 0 0 -.64 -1.55l-.7 -.7a2.2 2.2 0 0 1 0 -3.12l.7 -.7a2.2 2.2 0 0 0 .64 -1.55z" /> <path d="M12 8.5v7" /> <path d="M9 10l6 4" /> <path d="M9 14l6 -4" />
</symbol>
	<symbol id="outline-settings-ai" xmlns="http://www.w3.org/2000/svg" width="24" height="24" viewBox="0 0 24 24" fill="none" stroke="currentColor" stroke-width="2" stroke-linecap="round" stroke-linejoin="round"
> <path d="M10.325 4.317c.426 -1.756 2.924 -1.756 3.35 0a1.724 1.724 0 0 0 2.573 1.066c1.543 -.94 3.31 .826 2.37 2.37a1.724 1.724 0 0 0 1.065 2.572c1.756 .426 1.756 2.924 0 3.35a1.724 1.724 0 0 0 -1.066 2.573c.94 1.543 -.826 3.31 -2.37 2.37a1.724 1.724 0 0 0 -2.572 1.065c-.426 1.756 -2.924 1.756 -3.35 0a1.724 1.724 0 0 0 -2.573 -1.066c-1.543 .94 -3.31 -.826 -2.37 -2.37a1.724 1.724 0 0 0 -1.065 -2.572c-1.756 -.426 -1.756 -2.924 0 -3.35a1.724 1.724 0 0 0 1.066 -2.573c-.94 -1.543 .826 -3.31 2.37 -2.37c1 .608 2.296 .07 2.572 -1.065" /> <path d="M9 14v-2.5a1.5 1.5 0 0 1 3 0v2.5" /> <path d="M9 13h3" /> <path d="M15 10v4" />
</symbol>
	<symbol id="outline-sparkles-2" xmlns="http://www.w3.org/2000/svg" width="24" height="24" viewBox="0 0 24 24" fill="none" stroke="currentColor" stroke-width="2" stroke-linecap="round" stroke-linejoin="round"
> <path d="M13 7a9.3 9.3 0 0 0 1.516 -.546c.911 -.438 1.494 -1.015 1.937 -1.932c.207 -.428 .382 -.928 .547 -1.522c.165 .595 .34 1.095 .547 1.521c.443 .918 1.026 1.495 1.937 1.933c.426 .205 .925 .38 1.516 .546a9.3 9.3 0 0 0 -1.516 .547c-.911 .438 -1.494 1.015 -1.937 1.932a9 9 0 0 0 -.547 1.521c-.165 -.594 -.34 -1.095 -.547 -1.521c-.443 -.918 -1.026 -1.494 -1.937 -1.932a9 9 0 0 0 -1.516 -.547" /> <path d="M3 14a21 21 0 0 0 1.652 -.532c2.542 -.953 3.853 -2.238 4.816 -4.806a20 20 0 0 0 .532 -1.662a20 20 0 0 0 .532 1.662c.963 2.567 2.275 3.853 4.816 4.806q .75 .28 1.652 .532a21 21 0 0 0 -1.652 .532c-2.542 .953 -3.854 2.238 -4.816 4.806a20 20 0 0 0 -.532 1.662a20 20 0 0 0 -.532 -1.662c-.963 -2.568 -2.275 -3.853 -4.816 -4.806a21 21 0 0 0 -1.652 -.532" />
</symbol>
	<symbol id="outline-square-rotated-asterisk" xmlns="http://www.w3.org/2000/svg" width="24" height="24" viewBox="0 0 24 24" fill="none" stroke="currentColor" stroke-width="2" stroke-linecap="round" stroke-linejoin="round"
> <path d="M13.446 2.6l7.955 7.954a2.045 2.045 0 0 1 0 2.892l-7.955 7.955a2.045 2.045 0 0 1 -2.892 0l-7.955 -7.955a2.045 2.045 0 0 1 0 -2.892l7.955 -7.955a2.045 2.045 0 0 1 2.892 0z" /> <path d="M12 8.5v7" /> <path d="M9 10l6 4" /> <path d="M9 14l6 -4" />
</symbol>
	<symbol id="outline-subtitles-ai" xmlns="http://www.w3.org/2000/svg" width="24" height="24" viewBox="0 0 24 24" fill="none" stroke="currentColor" stroke-width="2" stroke-linecap="round" stroke-linejoin="round"
> <path d="M11.5 19h-5.5a3 3 0 0 1 -3 -3v-8a3 3 0 0 1 3 -3h12a3 3 0 0 1 3 3v4" /> <path d="M7 15h5" /> <path d="M17 12h-3" /> <path d="M11 12h-1" /> <path d="M19 22.5a4.75 4.75 0 0 1 3.5 -3.5a4.75 4.75 0 0 1 -3.5 -3.5a4.75 4.75 0 0 1 -3.5 3.5a4.75 4.75 0 0 1 3.5 3.5" />
</symbol>
	<symbol id="outline-subtitles-edit" xmlns="http://www.w3.org/2000/svg" width="24" height="24" viewBox="0 0 24 24" fill="none" stroke="currentColor" stroke-width="2" stroke-linecap="round" stroke-linejoin="round"
> <path d="M11.5 19h-5.5a3 3 0 0 1 -3 -3v-8a3 3 0 0 1 3 -3h12a3 3 0 0 1 3 3v3" /> <path d="M7 15h5" /> <path d="M17 12h-3" /> <path d="M11 12h-1" /> <path d="M18.42 15.61a2.1 2.1 0 0 1 2.97 2.97l-3.39 3.42h-3v-3z" />
</symbol>
	<symbol id="outline-subtitles-off" xmlns="http://www.w3.org/2000/svg" width="24" height="24" viewBox="0 0 24 24" fill="none" stroke="currentColor" stroke-width="2" stroke-linecap="round" stroke-linejoin="round"
> <path d="M9 5h9a3 3 0 0 1 3 3v8a3 3 0 0 1 -.13 .874m-2.006 2a3 3 0 0 1 -.864 .126h-12a3 3 0 0 1 -3 -3v-8c0 -1.35 .893 -2.493 2.12 -2.869" /> <path d="M7 15h5" /> <path d="M17 12h-1" /> <path d="M12 12h-2" /> <path d="M3 3l18 18" />
</symbol>
	<symbol id="outline-subtitles" xmlns="http://www.w3.org/2000/svg" width="24" height="24" viewBox="0 0 24 24" fill="none" stroke="currentColor" stroke-width="2" stroke-linecap="round" stroke-linejoin="round"
> <path d="M18 5a3 3 0 0 1 3 3v8a3 3 0 0 1 -3 3h-12a3 3 0 0 1 -3 -3v-8a3 3 0 0 1 3 -3z" /> <path d="M7 15h5" /> <path d="M15 15h2" /> <path d="M17 12h-3" /> <path d="M11 12h-1" />
</symbol>
	<symbol id="outline-whisk" xmlns="http://www.w3.org/2000/svg" width="24" height="24" viewBox="0 0 24 24" fill="none" stroke="currentColor" stroke-width="2" stroke-linecap="round" stroke-linejoin="round"
> <path d="M21.015 3.035l-16.515 16.465" /> <path d="M3.173 17.619a4.63 4.63 0 0 0 3.284 3.26a4.67 4.67 0 0 0 4.487 -1.194c1.85 -1.836 4.07 -10.65 4.07 -10.65s-8.88 2.296 -10.639 4.132a4.59 4.59 0 0 0 -1.202 4.452" />
</symbol>

	<use xlink:href="#outline-alphabet-polish" x="24" y="24" width="24" height="24" />
	<use xlink:href="#outline-alphabet-runes" x="68" y="24" width="24" height="24" />
	<use xlink:href="#outline-blind" x="112" y="24" width="24" height="24" />
	<use xlink:href="#outline-brand-tabnine" x="156" y="24" width="24" height="24" />
	<use xlink:href="#outline-circle-asterisk" x="200" y="24" width="24" height="24" />
	<use xlink:href="#outline-deaf" x="244" y="24" width="24" height="24" />
	<use xlink:href="#outline-hexagon-asterisk" x="24" y="68" width="24" height="24" />
	<use xlink:href="#outline-ripple-down" x="68" y="68" width="24" height="24" />
	<use xlink:href="#outline-ripple-up" x="112" y="68" width="24" height="24" />
	<use xlink:href="#outline-rosette-asterisk" x="156" y="68" width="24" height="24" />
	<use xlink:href="#outline-settings-ai" x="200" y="68" width="24" height="24" />
	<use xlink:href="#outline-sparkles-2" x="244" y="68" width="24" height="24" />
	<use xlink:href="#outline-square-rotated-asterisk" x="24" y="112" width="24" height="24" />
	<use xlink:href="#outline-subtitles-ai" x="68" y="112" width="24" height="24" />
	<use xlink:href="#outline-subtitles-edit" x="112" y="112" width="24" height="24" />
	<use xlink:href="#outline-subtitles-off" x="156" y="112" width="24" height="24" />
	<use xlink:href="#outline-subtitles" x="200" y="112" width="24" height="24" />
	<use xlink:href="#outline-whisk" x="244" y="112" width="24" height="24" />

</svg>