<svg xmlns="http://www.w3.org/2000/svg" xmlns:xlink="http://www.w3.org/1999/xlink" viewBox="0 0 292 160" width="292" height="160" style="color: #354052"><rect x="0" y="0" width="292" height="160" fill="#fff"></rect>
	<symbol id="brand-aws" class="icon icon-tabler icon-tabler-brand-aws" viewBox="0 0 24 24" stroke-width="2" stroke="currentColor" fill="none" stroke-linecap="round" stroke-linejoin="round"><path stroke="none" d="M0 0h24v24H0z" fill="none"/><path d="M17 18.5a15.198 15.198 0 0 1 -7.37 1.44a14.62 14.62 0 0 1 -6.63 -2.94" /><path d="M19.5 21c.907 -1.411 1.451 -3.323 1.5 -5c-1.197 -.773 -2.577 -.935 -4 -1" /><path d="M3 11v-4.5a1.5 1.5 0 0 1 3 0v4.5" /><path d="M3 9h3" /><path d="M9 5l1.2 6l1.8 -4l1.8 4l1.2 -6" /><path d="M18 10.25c0 .414 .336 .75 .75 .75h1.25a1 1 0 0 0 1 -1v-1a1 1 0 0 0 -1 -1h-1a1 1 0 0 1 -1 -1v-1a1 1 0 0 1 1 -1h1.25a.75 .75 0 0 1 .75 .75" />
</symbol>
	<symbol id="brand-azure" class="icon icon-tabler icon-tabler-brand-azure" viewBox="0 0 24 24" stroke-width="2" stroke="currentColor" fill="none" stroke-linecap="round" stroke-linejoin="round"><path stroke="none" d="M0 0h24v24H0z" fill="none"/><path d="M6 7.5l-4 9.5h4l6 -15z" /><path d="M22 20l-7 -15l-3 7l4 5l-8 3z" />
</symbol>
	<symbol id="brand-cloudflare" class="icon icon-tabler icon-tabler-brand-cloudflare" viewBox="0 0 24 24" stroke-width="2" stroke="currentColor" fill="none" stroke-linecap="round" stroke-linejoin="round"><path stroke="none" d="M0 0h24v24H0z" fill="none"/><path d="M13.031 7.007c2.469 -.007 3.295 1.293 3.969 2.993c4 0 4.994 3.825 5 6h-20c-.001 -1.64 1.36 -2.954 3 -3c0 -1.5 1 -3 3 -3c.66 -1.942 2.562 -2.986 5.031 -2.993z" /><path d="M12 13h6" /><path d="M17 10l-2.5 6" />
</symbol>
	<symbol id="brand-google-maps" class="icon icon-tabler icon-tabler-brand-google-maps" viewBox="0 0 24 24" stroke-width="2" stroke="currentColor" fill="none" stroke-linecap="round" stroke-linejoin="round"><path stroke="none" d="M0 0h24v24H0z" fill="none"/><path d="M12 9.5m-2.5 0a2.5 2.5 0 1 0 5 0a2.5 2.5 0 1 0 -5 0" /><path d="M6.428 12.494l7.314 -9.252" /><path d="M10.002 7.935l-2.937 -2.545" /><path d="M17.693 6.593l-8.336 9.979" /><path d="M17.591 6.376c.472 .907 .715 1.914 .709 2.935a7.263 7.263 0 0 1 -.72 3.18a19.085 19.085 0 0 1 -2.089 3c-.784 .933 -1.49 1.93 -2.11 2.98c-.314 .62 -.568 1.27 -.757 1.938c-.121 .36 -.277 .591 -.622 .591c-.315 0 -.463 -.136 -.626 -.593a10.595 10.595 0 0 0 -.779 -1.978a18.18 18.18 0 0 0 -1.423 -2.091c-.877 -1.184 -2.179 -2.535 -2.853 -4.071a7.077 7.077 0 0 1 -.621 -2.967a6.226 6.226 0 0 1 1.476 -4.055a6.25 6.25 0 0 1 4.811 -2.245a6.462 6.462 0 0 1 1.918 .284a6.255 6.255 0 0 1 3.686 3.092z" />
</symbol>
	<symbol id="brand-hexo" class="icon icon-tabler icon-tabler-brand-hexo" viewBox="0 0 24 24" stroke-width="2" stroke="currentColor" fill="none" stroke-linecap="round" stroke-linejoin="round"><path stroke="none" d="M0 0h24v24H0z" fill="none"/><path d="M19.875 6.27c.7 .398 1.13 1.143 1.125 1.948v7.284c0 .809 -.443 1.555 -1.158 1.948l-6.75 4.27a2.269 2.269 0 0 1 -2.184 0l-6.75 -4.27a2.225 2.225 0 0 1 -1.158 -1.948v-7.285c0 -.809 .443 -1.554 1.158 -1.947l6.75 -3.98a2.33 2.33 0 0 1 2.25 0l6.75 3.98h-.033z" /><path d="M9 8v8" /><path d="M15 8v8" /><path d="M9 12h6" />
</symbol>
	<symbol id="brand-leetcode" class="icon icon-tabler icon-tabler-brand-leetcode" viewBox="0 0 24 24" stroke-width="2" stroke="currentColor" fill="none" stroke-linecap="round" stroke-linejoin="round"><path stroke="none" d="M0 0h24v24H0z" fill="none"/><path d="M12 13h7.5" /><path d="M9.424 7.268l4.999 -4.999" /><path d="M16.633 16.644l-2.402 2.415a3.189 3.189 0 0 1 -4.524 0l-3.77 -3.787a3.223 3.223 0 0 1 0 -4.544l3.77 -3.787a3.189 3.189 0 0 1 4.524 0l2.302 2.313" />
</symbol>
	<symbol id="brand-oauth" class="icon icon-tabler icon-tabler-brand-oauth" viewBox="0 0 24 24" stroke-width="2" stroke="currentColor" fill="none" stroke-linecap="round" stroke-linejoin="round"><path stroke="none" d="M0 0h24v24H0z" fill="none"/><path d="M12 12m-10 0a10 10 0 1 0 20 0a10 10 0 1 0 -20 0" /><path d="M12.556 6c.65 0 1.235 .373 1.508 .947l2.839 7.848a1.646 1.646 0 0 1 -1.01 2.108a1.673 1.673 0 0 1 -2.068 -.851l-.46 -1.052h-2.73l-.398 .905a1.67 1.67 0 0 1 -1.977 1.045l-.153 -.047a1.647 1.647 0 0 1 -1.056 -1.956l2.824 -7.852a1.664 1.664 0 0 1 1.409 -1.087l1.272 -.008z" />
</symbol>
	<symbol id="brand-rust" class="icon icon-tabler icon-tabler-brand-rust" viewBox="0 0 24 24" stroke-width="2" stroke="currentColor" fill="none" stroke-linecap="round" stroke-linejoin="round"><path stroke="none" d="M0 0h24v24H0z" fill="none"/><path d="M10.139 3.463c.473 -1.95 3.249 -1.95 3.722 0a1.916 1.916 0 0 0 2.859 1.185c1.714 -1.045 3.678 .918 2.633 2.633a1.916 1.916 0 0 0 1.184 2.858c1.95 .473 1.95 3.249 0 3.722a1.916 1.916 0 0 0 -1.185 2.859c1.045 1.714 -.918 3.678 -2.633 2.633a1.916 1.916 0 0 0 -2.858 1.184c-.473 1.95 -3.249 1.95 -3.722 0a1.916 1.916 0 0 0 -2.859 -1.185c-1.714 1.045 -3.678 -.918 -2.633 -2.633a1.916 1.916 0 0 0 -1.184 -2.858c-1.95 -.473 -1.95 -3.249 0 -3.722a1.916 1.916 0 0 0 1.185 -2.859c-1.045 -1.714 .918 -3.678 2.633 -2.633a1.914 1.914 0 0 0 2.858 -1.184z" /><path d="M8 12h6a2 2 0 1 0 0 -4h-6v8v-4z" /><path d="M19 16h-2a2 2 0 0 1 -2 -2a2 2 0 0 0 -2 -2h-1" /><path d="M9 8h-4" /><path d="M5 16h4" />
</symbol>
	<symbol id="brand-storj" class="icon icon-tabler icon-tabler-brand-storj" viewBox="0 0 24 24" stroke-width="2" stroke="currentColor" fill="none" stroke-linecap="round" stroke-linejoin="round"><path stroke="none" d="M0 0h24v24H0z" fill="none"/><path d="M4 17m-1 0a1 1 0 1 0 2 0a1 1 0 1 0 -2 0" /><path d="M4 7m-1 0a1 1 0 1 0 2 0a1 1 0 1 0 -2 0" /><path d="M20 17m-1 0a1 1 0 1 0 2 0a1 1 0 1 0 -2 0" /><path d="M20 7m-1 0a1 1 0 1 0 2 0a1 1 0 1 0 -2 0" /><path d="M12 3m-1 0a1 1 0 1 0 2 0a1 1 0 1 0 -2 0" /><path d="M12 21m-1 0a1 1 0 1 0 2 0a1 1 0 1 0 -2 0" /><path d="M12 21l-8 -4v-10l8 -4l8 4v10z" /><path d="M9.1 15a2.1 2.1 0 0 1 -.648 -4.098c.282 -1.648 1.319 -2.902 3.048 -2.902c1.694 0 2.906 1.203 3.23 2.8h.17a2.1 2.1 0 0 1 .202 4.19l-.202 .01h-5.8z" /><path d="M4 7l4.323 2.702" /><path d="M16.413 14.758l3.587 2.242" /><path d="M4 17l3.529 -2.206" /><path d="M14.609 10.37l5.391 -3.37" /><path d="M12 3v5" /><path d="M12 15v6" />
</symbol>
	<symbol id="brand-swift" class="icon icon-tabler icon-tabler-brand-swift" viewBox="0 0 24 24" stroke-width="2" stroke="currentColor" fill="none" stroke-linecap="round" stroke-linejoin="round"><path stroke="none" d="M0 0h24v24H0z" fill="none"/><path d="M20.547 15.828c1.33 -4.126 -1.384 -9.521 -6.047 -12.828c-.135 -.096 2.39 6.704 1.308 9.124c-2.153 -1.454 -4.756 -3.494 -7.808 -6.124l-.5 2l-3.5 -1c4.36 4.748 7.213 7.695 8.56 8.841c-4.658 2.089 -10.65 -.978 -10.56 -.841c1.016 1.545 6 6 11 6c2 0 3.788 -.502 4.742 -1.389c.005 -.005 .432 -.446 1.378 -.17c.504 .148 1.463 .667 2.88 1.559v-1.507c0 -1.377 -.515 -2.67 -1.453 -3.665z" />
</symbol>
	<symbol id="brand-terraform" class="icon icon-tabler icon-tabler-brand-terraform" viewBox="0 0 24 24" stroke-width="2" stroke="currentColor" fill="none" stroke-linecap="round" stroke-linejoin="round"><path stroke="none" d="M0 0h24v24H0z" fill="none"/><path d="M15 15.5l-11.476 -6.216a1 1 0 0 1 -.524 -.88v-4.054a1.35 1.35 0 0 1 2.03 -1.166l9.97 5.816v10.65a1.35 1.35 0 0 1 -2.03 1.166l-3.474 -2.027a1 1 0 0 1 -.496 -.863v-11.926" /><path d="M15 15.5l5.504 -3.21a1 1 0 0 0 .496 -.864v-3.576a1.35 1.35 0 0 0 -2.03 -1.166l-3.97 2.316" />
</symbol>
	<symbol id="building-mosque" class="icon icon-tabler icon-tabler-building-mosque" viewBox="0 0 24 24" stroke-width="2" stroke="currentColor" fill="none" stroke-linecap="round" stroke-linejoin="round"><path stroke="none" d="M0 0h24v24H0z" fill="none"/><path d="M3 21h7v-2a2 2 0 1 1 4 0v2h7" /><path d="M4 21v-10" /><path d="M20 21v-10" /><path d="M4 16h3v-3h10v3h3" /><path d="M17 13a5 5 0 0 0 -10 0" /><path d="M21 10.5c0 -.329 -.077 -.653 -.224 -.947l-.776 -1.553l-.776 1.553a2.118 2.118 0 0 0 -.224 .947a.5 .5 0 0 0 .5 .5h1a.5 .5 0 0 0 .5 -.5z" /><path d="M5 10.5c0 -.329 -.077 -.653 -.224 -.947l-.776 -1.553l-.776 1.553a2.118 2.118 0 0 0 -.224 .947a.5 .5 0 0 0 .5 .5h1a.5 .5 0 0 0 .5 -.5z" /><path d="M12 2a2 2 0 1 0 2 2" /><path d="M12 6v2" />
</symbol>
	<symbol id="currency-iranian-rial" class="icon icon-tabler icon-tabler-currency-iranian-rial" viewBox="0 0 24 24" stroke-width="2" stroke="currentColor" fill="none" stroke-linecap="round" stroke-linejoin="round"><path stroke="none" d="M0 0h24v24H0z" fill="none"/><path d="M9 4v9a2 2 0 0 1 -2 2h-1a3 3 0 0 1 -3 -3v-1" /><path d="M12 5v8a1 1 0 0 0 1 1h1a2 2 0 0 0 2 -2v-1" /><path d="M21 14v1.096a5 5 0 0 1 -3.787 4.85l-.213 .054" /><path d="M11 18h.01" /><path d="M14 18h.01" />
</symbol>
	<symbol id="dual-screen" class="icon icon-tabler icon-tabler-dual-screen" viewBox="0 0 24 24" stroke-width="2" stroke="currentColor" fill="none" stroke-linecap="round" stroke-linejoin="round"><path stroke="none" d="M0 0h24v24H0z" fill="none"/><path d="M5 4l8 3v15l-8 -3z" /><path d="M13 19h6v-15h-14" />
</symbol>
	<symbol id="file-cv" class="icon icon-tabler icon-tabler-file-cv" viewBox="0 0 24 24" stroke-width="2" stroke="currentColor" fill="none" stroke-linecap="round" stroke-linejoin="round"><path stroke="none" d="M0 0h24v24H0z" fill="none"/><path d="M14 3v4a1 1 0 0 0 1 1h4" /><path d="M17 21h-10a2 2 0 0 1 -2 -2v-14a2 2 0 0 1 2 -2h7l5 5v11a2 2 0 0 1 -2 2z" /><path d="M11 12.5a1.5 1.5 0 0 0 -3 0v3a1.5 1.5 0 0 0 3 0" /><path d="M13 11l1.5 6l1.5 -6" />
</symbol>
	<symbol id="http-que" class="icon icon-tabler icon-tabler-http-que" viewBox="0 0 24 24" stroke-width="2" stroke="currentColor" fill="none" stroke-linecap="round" stroke-linejoin="round"><path stroke="none" d="M0 0h24v24H0z" fill="none"/><path d="M5 8a2 2 0 0 1 2 2v4a2 2 0 1 1 -4 0v-4a2 2 0 0 1 2 -2z" /><path d="M6 15l1 1" /><path d="M21 8h-4v8h4" /><path d="M17 12h2.5" /><path d="M10 8v6a2 2 0 1 0 4 0v-6" />
</symbol>
	<symbol id="load-balancer" class="icon icon-tabler icon-tabler-load-balancer" viewBox="0 0 24 24" stroke-width="2" stroke="currentColor" fill="none" stroke-linecap="round" stroke-linejoin="round"><path stroke="none" d="M0 0h24v24H0z" fill="none"/><path d="M12 13m-3 0a3 3 0 1 0 6 0a3 3 0 1 0 -6 0" /><path d="M12 20m-1 0a1 1 0 1 0 2 0a1 1 0 1 0 -2 0" /><path d="M12 16v3" /><path d="M12 10v-7" /><path d="M9 6l3 -3l3 3" /><path d="M12 10v-7" /><path d="M9 6l3 -3l3 3" /><path d="M14.894 12.227l6.11 -2.224" /><path d="M17.159 8.21l3.845 1.793l-1.793 3.845" /><path d="M9.101 12.214l-6.075 -2.211" /><path d="M6.871 8.21l-3.845 1.793l1.793 3.845" />
</symbol>
	<symbol id="toml" class="icon icon-tabler icon-tabler-toml" viewBox="0 0 24 24" stroke-width="2" stroke="currentColor" fill="none" stroke-linecap="round" stroke-linejoin="round"><path stroke="none" d="M0 0h24v24H0z" fill="none"/><path d="M1.499 8h3" /><path d="M2.999 8v8" /><path d="M8.5 8a1.5 1.5 0 0 1 1.5 1.5v5a1.5 1.5 0 0 1 -3 0v-5a1.5 1.5 0 0 1 1.5 -1.5z" /><path d="M13 16v-8l2 5l2 -5v8" /><path d="M20 8v8h2.5" />
</symbol>

	<use xlink:href="#brand-aws" x="24" y="24" width="24" height="24" />
	<use xlink:href="#brand-azure" x="68" y="24" width="24" height="24" />
	<use xlink:href="#brand-cloudflare" x="112" y="24" width="24" height="24" />
	<use xlink:href="#brand-google-maps" x="156" y="24" width="24" height="24" />
	<use xlink:href="#brand-hexo" x="200" y="24" width="24" height="24" />
	<use xlink:href="#brand-leetcode" x="244" y="24" width="24" height="24" />
	<use xlink:href="#brand-oauth" x="24" y="68" width="24" height="24" />
	<use xlink:href="#brand-rust" x="68" y="68" width="24" height="24" />
	<use xlink:href="#brand-storj" x="112" y="68" width="24" height="24" />
	<use xlink:href="#brand-swift" x="156" y="68" width="24" height="24" />
	<use xlink:href="#brand-terraform" x="200" y="68" width="24" height="24" />
	<use xlink:href="#building-mosque" x="244" y="68" width="24" height="24" />
	<use xlink:href="#currency-iranian-rial" x="24" y="112" width="24" height="24" />
	<use xlink:href="#dual-screen" x="68" y="112" width="24" height="24" />
	<use xlink:href="#file-cv" x="112" y="112" width="24" height="24" />
	<use xlink:href="#http-que" x="156" y="112" width="24" height="24" />
	<use xlink:href="#load-balancer" x="200" y="112" width="24" height="24" />
	<use xlink:href="#toml" x="244" y="112" width="24" height="24" />

</svg>