<svg xmlns="http://www.w3.org/2000/svg" xmlns:xlink="http://www.w3.org/1999/xlink" viewBox="0 0 292 160" width="292" height="160" style="color: #354052"><rect x="0" y="0" width="292" height="160" fill="#fff"></rect>
	<symbol id="360" class="icon icon-tabler icon-tabler-360" viewBox="0 0 24 24" stroke-width="2" stroke="currentColor" fill="none" stroke-linecap="round" stroke-linejoin="round"><path stroke="none" d="M0 0h24v24H0z" fill="none"/><path d="M16.996 15.328c2.414 -.718 4.004 -1.94 4.004 -3.328c0 -2.21 -4.03 -4 -9 -4s-9 1.79 -9 4s4.03 4 9 4" /><path d="M9 13l3 3l-3 3" />
</symbol>
	<symbol id="alarm-minus" class="icon icon-tabler icon-tabler-alarm-minus" viewBox="0 0 24 24" stroke-width="2" stroke="currentColor" fill="none" stroke-linecap="round" stroke-linejoin="round"><path stroke="none" d="M0 0h24v24H0z" fill="none"/><circle cx="12" cy="13" r="7" /><path d="M7 4l-2.75 2" /><path d="M17 4l2.75 2" /><path d="M10 13h4" />
</symbol>
	<symbol id="alarm-plus" class="icon icon-tabler icon-tabler-alarm-plus" viewBox="0 0 24 24" stroke-width="2" stroke="currentColor" fill="none" stroke-linecap="round" stroke-linejoin="round"><path stroke="none" d="M0 0h24v24H0z" fill="none"/><circle cx="12" cy="13" r="7" /><path d="M7 4l-2.75 2" /><path d="M17 4l2.75 2" /><path d="M10 13h4" /><path d="M12 11v4" />
</symbol>
	<symbol id="alarm-snooze" class="icon icon-tabler icon-tabler-alarm-snooze" viewBox="0 0 24 24" stroke-width="2" stroke="currentColor" fill="none" stroke-linecap="round" stroke-linejoin="round"><path stroke="none" d="M0 0h24v24H0z" fill="none"/><circle cx="12" cy="13" r="7" /><path d="M10 11h4l-4 4h4" /><path d="M7 4l-2.75 2" /><path d="M17 4l2.75 2" />
</symbol>
	<symbol id="circle-key" class="icon icon-tabler icon-tabler-circle-key" viewBox="0 0 24 24" stroke-width="2" stroke="currentColor" fill="none" stroke-linecap="round" stroke-linejoin="round"><path stroke="none" d="M0 0h24v24H0z" fill="none"/><circle cx="14" cy="10" r="2" /><path d="M21 12a9 9 0 1 1 -18 0a9 9 0 0 1 18 0z" /><path d="M12.5 11.5l-4 4l1.5 1.5" /><path d="M12 15l-1.5 -1.5" />
</symbol>
	<symbol id="exclamation-circle" class="icon icon-tabler icon-tabler-exclamation-circle" viewBox="0 0 24 24" stroke-width="2" stroke="currentColor" fill="none" stroke-linecap="round" stroke-linejoin="round"><path stroke="none" d="M0 0h24v24H0z" fill="none"/><circle cx="12" cy="12" r="9" /><path d="M12 9v4" /><path d="M12 16v.01" />
</symbol>
	<symbol id="info-square-rounded" class="icon icon-tabler icon-tabler-info-square-rounded" viewBox="0 0 24 24" stroke-width="2" stroke="currentColor" fill="none" stroke-linecap="round" stroke-linejoin="round"><path stroke="none" d="M0 0h24v24H0z" fill="none"/><path d="M12 8h.01" /><path d="M11 12h1v4h1" /><path d="M12 3c7.2 0 9 1.8 9 9s-1.8 9 -9 9s-9 -1.8 -9 -9s1.8 -9 9 -9z" />
</symbol>
	<symbol id="lock-square-rounded" class="icon icon-tabler icon-tabler-lock-square-rounded" viewBox="0 0 24 24" stroke-width="2" stroke="currentColor" fill="none" stroke-linecap="round" stroke-linejoin="round"><path stroke="none" d="M0 0h24v24H0z" fill="none"/><path d="M12 3c7.2 0 9 1.8 9 9s-1.8 9 -9 9s-9 -1.8 -9 -9s1.8 -9 9 -9z" /><rect x="8" y="11" width="8" height="5" rx="1" /><path d="M10 11v-2a2 2 0 1 1 4 0v2" />
</symbol>
	<symbol id="question-circle" class="icon icon-tabler icon-tabler-question-circle" viewBox="0 0 24 24" stroke-width="2" stroke="currentColor" fill="none" stroke-linecap="round" stroke-linejoin="round"><path stroke="none" d="M0 0h24v24H0z" fill="none"/><path d="M12 16v.01" /><path d="M12 13a2.003 2.003 0 0 0 .914 -3.782a1.98 1.98 0 0 0 -2.414 .483" /><circle cx="12" cy="12" r="9" />
</symbol>
	<symbol id="square-key" class="icon icon-tabler icon-tabler-square-key" viewBox="0 0 24 24" stroke-width="2" stroke="currentColor" fill="none" stroke-linecap="round" stroke-linejoin="round"><path stroke="none" d="M0 0h24v24H0z" fill="none"/><circle cx="14" cy="10" r="2" /><path d="M12.5 11.5l-4 4l1.5 1.5" /><path d="M12 15l-1.5 -1.5" /><path d="M20 6.667v10.666a2.667 2.667 0 0 1 -2.667 2.667h-10.666a2.667 2.667 0 0 1 -2.667 -2.667v-10.666a2.667 2.667 0 0 1 2.667 -2.667h10.666a2.667 2.667 0 0 1 2.667 2.667z" />
</symbol>
	<symbol id="square-rounded-arrow-down" class="icon icon-tabler icon-tabler-square-rounded-arrow-down" viewBox="0 0 24 24" stroke-width="2" stroke="currentColor" fill="none" stroke-linecap="round" stroke-linejoin="round"><path stroke="none" d="M0 0h24v24H0z" fill="none"/><path d="M8 12l4 4l4 -4" /><path d="M12 8v8" /><path d="M12 3c7.2 0 9 1.8 9 9s-1.8 9 -9 9s-9 -1.8 -9 -9s1.8 -9 9 -9z" />
</symbol>
	<symbol id="square-rounded-arrow-left" class="icon icon-tabler icon-tabler-square-rounded-arrow-left" viewBox="0 0 24 24" stroke-width="2" stroke="currentColor" fill="none" stroke-linecap="round" stroke-linejoin="round"><path stroke="none" d="M0 0h24v24H0z" fill="none"/><path d="M12 8l-4 4l4 4" /><path d="M16 12h-8" /><path d="M12 3c7.2 0 9 1.8 9 9s-1.8 9 -9 9s-9 -1.8 -9 -9s1.8 -9 9 -9z" />
</symbol>
	<symbol id="square-rounded-arrow-right" class="icon icon-tabler icon-tabler-square-rounded-arrow-right" viewBox="0 0 24 24" stroke-width="2" stroke="currentColor" fill="none" stroke-linecap="round" stroke-linejoin="round"><path stroke="none" d="M0 0h24v24H0z" fill="none"/><path d="M12 16l4 -4l-4 -4" /><path d="M8 12h8" /><path d="M12 3c7.2 0 9 1.8 9 9s-1.8 9 -9 9s-9 -1.8 -9 -9s1.8 -9 9 -9z" />
</symbol>
	<symbol id="square-rounded-arrow-up" class="icon icon-tabler icon-tabler-square-rounded-arrow-up" viewBox="0 0 24 24" stroke-width="2" stroke="currentColor" fill="none" stroke-linecap="round" stroke-linejoin="round"><path stroke="none" d="M0 0h24v24H0z" fill="none"/><path d="M16 12l-4 -4l-4 4" /><path d="M12 16v-8" /><path d="M12 3c7.2 0 9 1.8 9 9s-1.8 9 -9 9s-9 -1.8 -9 -9s1.8 -9 9 -9z" />
</symbol>
	<symbol id="square-rounded-check" class="icon icon-tabler icon-tabler-square-rounded-check" viewBox="0 0 24 24" stroke-width="2" stroke="currentColor" fill="none" stroke-linecap="round" stroke-linejoin="round"><path stroke="none" d="M0 0h24v24H0z" fill="none"/><path d="M9 12l2 2l4 -4" /><path d="M12 3c7.2 0 9 1.8 9 9s-1.8 9 -9 9s-9 -1.8 -9 -9s1.8 -9 9 -9z" />
</symbol>
	<symbol id="square-rounded-minus" class="icon icon-tabler icon-tabler-square-rounded-minus" viewBox="0 0 24 24" stroke-width="2" stroke="currentColor" fill="none" stroke-linecap="round" stroke-linejoin="round"><path stroke="none" d="M0 0h24v24H0z" fill="none"/><path d="M9 12h6" /><path d="M12 3c7.2 0 9 1.8 9 9s-1.8 9 -9 9s-9 -1.8 -9 -9s1.8 -9 9 -9z" />
</symbol>
	<symbol id="square-rounded-plus" class="icon icon-tabler icon-tabler-square-rounded-plus" viewBox="0 0 24 24" stroke-width="2" stroke="currentColor" fill="none" stroke-linecap="round" stroke-linejoin="round"><path stroke="none" d="M0 0h24v24H0z" fill="none"/><path d="M9 12h6" /><path d="M12 9v6" /><path d="M12 3c7.2 0 9 1.8 9 9s-1.8 9 -9 9s-9 -1.8 -9 -9s1.8 -9 9 -9z" />
</symbol>
	<symbol id="square-rounded-x" class="icon icon-tabler icon-tabler-square-rounded-x" viewBox="0 0 24 24" stroke-width="2" stroke="currentColor" fill="none" stroke-linecap="round" stroke-linejoin="round"><path stroke="none" d="M0 0h24v24H0z" fill="none"/><path d="M10 10l4 4m0 -4l-4 4" /><path d="M12 3c7.2 0 9 1.8 9 9s-1.8 9 -9 9s-9 -1.8 -9 -9s1.8 -9 9 -9z" />
</symbol>

	<use xlink:href="#360" x="24" y="24" width="24" height="24" />
	<use xlink:href="#alarm-minus" x="68" y="24" width="24" height="24" />
	<use xlink:href="#alarm-plus" x="112" y="24" width="24" height="24" />
	<use xlink:href="#alarm-snooze" x="156" y="24" width="24" height="24" />
	<use xlink:href="#circle-key" x="200" y="24" width="24" height="24" />
	<use xlink:href="#exclamation-circle" x="244" y="24" width="24" height="24" />
	<use xlink:href="#info-square-rounded" x="24" y="68" width="24" height="24" />
	<use xlink:href="#lock-square-rounded" x="68" y="68" width="24" height="24" />
	<use xlink:href="#question-circle" x="112" y="68" width="24" height="24" />
	<use xlink:href="#square-key" x="156" y="68" width="24" height="24" />
	<use xlink:href="#square-rounded-arrow-down" x="200" y="68" width="24" height="24" />
	<use xlink:href="#square-rounded-arrow-left" x="244" y="68" width="24" height="24" />
	<use xlink:href="#square-rounded-arrow-right" x="24" y="112" width="24" height="24" />
	<use xlink:href="#square-rounded-arrow-up" x="68" y="112" width="24" height="24" />
	<use xlink:href="#square-rounded-check" x="112" y="112" width="24" height="24" />
	<use xlink:href="#square-rounded-minus" x="156" y="112" width="24" height="24" />
	<use xlink:href="#square-rounded-plus" x="200" y="112" width="24" height="24" />
	<use xlink:href="#square-rounded-x" x="244" y="112" width="24" height="24" />

</svg>