<svg xmlns="http://www.w3.org/2000/svg" xmlns:xlink="http://www.w3.org/1999/xlink" viewBox="0 0 292 160" width="292" height="160" style="color: #354052"><rect x="0" y="0" width="292" height="160" fill="#fff"></rect>
	<symbol id="asterisk-simple" class="icon icon-tabler icon-tabler-asterisk-simple" viewBox="0 0 24 24" stroke-width="2" stroke="currentColor" fill="none" stroke-linecap="round" stroke-linejoin="round"><path stroke="none" d="M0 0h24v24H0z" fill="none"/><path d="M12 12v-9" /><path d="M12 12l-9 -2.5" /><path d="M12 12l9 -2.5" /><path d="M12 12l6 8.5" /><path d="M12 12l-6 8.5" />
</symbol>
	<symbol id="asterisk" class="icon icon-tabler icon-tabler-asterisk" viewBox="0 0 24 24" stroke-width="2" stroke="currentColor" fill="none" stroke-linecap="round" stroke-linejoin="round"><path stroke="none" d="M0 0h24v24H0z" fill="none"/><path d="M12 12l8 -4.5" /><path d="M12 12v9" /><path d="M12 12l-8 -4.5" /><path d="M12 12l8 4.5" /><path d="M12 3v9" /><path d="M12 12l-8 4.5" />
</symbol>
	<symbol id="browser-check" class="icon icon-tabler icon-tabler-browser-check" viewBox="0 0 24 24" stroke-width="2" stroke="currentColor" fill="none" stroke-linecap="round" stroke-linejoin="round"><path stroke="none" d="M0 0h24v24H0z" fill="none"/><rect x="4" y="4" width="16" height="16" rx="1" /><path d="M4 8h16" /><path d="M8 4v4" /><path d="M9.5 14.5l1.5 1.5l3 -3" />
</symbol>
	<symbol id="browser-plus" class="icon icon-tabler icon-tabler-browser-plus" viewBox="0 0 24 24" stroke-width="2" stroke="currentColor" fill="none" stroke-linecap="round" stroke-linejoin="round"><path stroke="none" d="M0 0h24v24H0z" fill="none"/><rect x="4" y="4" width="16" height="16" rx="1" /><path d="M4 8h16" /><path d="M8 4v4" /><path d="M10 14h4" /><path d="M12 12v4" />
</symbol>
	<symbol id="browser-x" class="icon icon-tabler icon-tabler-browser-x" viewBox="0 0 24 24" stroke-width="2" stroke="currentColor" fill="none" stroke-linecap="round" stroke-linejoin="round"><path stroke="none" d="M0 0h24v24H0z" fill="none"/><rect x="4" y="4" width="16" height="16" rx="1" /><path d="M4 8h16" /><path d="M8 4v4" /><path d="M10 16l4 -4" /><path d="M14 16l-4 -4" />
</symbol>
	<symbol id="butterfly" class="icon icon-tabler icon-tabler-butterfly" viewBox="0 0 24 24" stroke-width="2" stroke="currentColor" fill="none" stroke-linecap="round" stroke-linejoin="round"><path stroke="none" d="M0 0h24v24H0z" fill="none"/><path d="M11.995 18.176a3 3 0 1 1 -4.953 -2.449l-.025 .023a4.502 4.502 0 0 1 1.483 -8.75c1.414 0 2.675 .652 3.5 1.671a4.5 4.5 0 1 1 4.983 7.079a3 3 0 1 1 -4.983 2.25z" /><path d="M12 19v-10" /><path d="M9 3l3 2l3 -2" />
</symbol>
	<symbol id="cloud-lock-open" class="icon icon-tabler icon-tabler-cloud-lock-open" viewBox="0 0 24 24" stroke-width="2" stroke="currentColor" fill="none" stroke-linecap="round" stroke-linejoin="round"><path stroke="none" d="M0 0h24v24H0z" fill="none"/><path d="M19 18a3.5 3.5 0 0 0 0 -7h-1c.397 -1.768 -.285 -3.593 -1.788 -4.787c-1.503 -1.193 -3.6 -1.575 -5.5 -1s-3.315 2.019 -3.712 3.787c-2.199 -.088 -4.155 1.326 -4.666 3.373c-.512 2.047 .564 4.154 2.566 5.027" /><rect x="8" y="15" width="8" height="5" rx="1" /><path d="M10 15v-2a2 2 0 0 1 3.736 -.994" />
</symbol>
	<symbol id="cloud-lock" class="icon icon-tabler icon-tabler-cloud-lock" viewBox="0 0 24 24" stroke-width="2" stroke="currentColor" fill="none" stroke-linecap="round" stroke-linejoin="round"><path stroke="none" d="M0 0h24v24H0z" fill="none"/><path d="M19 18a3.5 3.5 0 0 0 0 -7h-1c.397 -1.768 -.285 -3.593 -1.788 -4.787c-1.503 -1.193 -3.6 -1.575 -5.5 -1s-3.315 2.019 -3.712 3.787c-2.199 -.088 -4.155 1.326 -4.666 3.373c-.512 2.047 .564 4.154 2.566 5.027" /><rect x="8" y="15" width="8" height="5" rx="1" /><path d="M10 15v-2a2 2 0 1 1 4 0v2" />
</symbol>
	<symbol id="cone-2" class="icon icon-tabler icon-tabler-cone-2" viewBox="0 0 24 24" stroke-width="2" stroke="currentColor" fill="none" stroke-linecap="round" stroke-linejoin="round"><path stroke="none" d="M0 0h24v24H0z" fill="none"/><ellipse cx="12" cy="7" rx="7" ry="3" /><path d="M19 7v.5l-7 12.5l-7 -12.5v-.5" />
</symbol>
	<symbol id="cone" class="icon icon-tabler icon-tabler-cone" viewBox="0 0 24 24" stroke-width="2" stroke="currentColor" fill="none" stroke-linecap="round" stroke-linejoin="round"><path stroke="none" d="M0 0h24v24H0z" fill="none"/><ellipse transform="matrix(1 0 0 -1 0 34)" cx="12" cy="17" rx="7" ry="3" /><path d="M19 17v-.5l-7 -12.5l-7 12.5v.5" />
</symbol>
	<symbol id="drop-circle" class="icon icon-tabler icon-tabler-drop-circle" viewBox="0 0 24 24" stroke-width="2" stroke="currentColor" fill="none" stroke-linecap="round" stroke-linejoin="round"><path stroke="none" d="M0 0h24v24H0z" fill="none"/><path d="M10.07 15.34c1.115 .88 2.74 .88 3.855 0c1.115 -.88 1.398 -2.388 .671 -3.575l-2.596 -3.765l-2.602 3.765c-.726 1.187 -.443 2.694 .672 3.575z" /><circle cx="12" cy="12" r="9" />
</symbol>
	<symbol id="elevator" class="icon icon-tabler icon-tabler-elevator" viewBox="0 0 24 24" stroke-width="2" stroke="currentColor" fill="none" stroke-linecap="round" stroke-linejoin="round"><path stroke="none" d="M0 0h24v24H0z" fill="none"/><rect x="5" y="4" width="14" height="16" rx="1" /><path d="M10 10l2 -2l2 2" /><path d="M10 14l2 2l2 -2" />
</symbol>
	<symbol id="file-dollar" class="icon icon-tabler icon-tabler-file-dollar" viewBox="0 0 24 24" stroke-width="2" stroke="currentColor" fill="none" stroke-linecap="round" stroke-linejoin="round"><path stroke="none" d="M0 0h24v24H0z" fill="none"/><path d="M14 3v4a1 1 0 0 0 1 1h4" /><path d="M17 21h-10a2 2 0 0 1 -2 -2v-14a2 2 0 0 1 2 -2h7l5 5v11a2 2 0 0 1 -2 2z" /><path d="M14 11h-2.5a1.5 1.5 0 0 0 0 3h1a1.5 1.5 0 0 1 0 3h-2.5" /><path d="M12 17v1m0 -8v1" />
</symbol>
	<symbol id="file-euro" class="icon icon-tabler icon-tabler-file-euro" viewBox="0 0 24 24" stroke-width="2" stroke="currentColor" fill="none" stroke-linecap="round" stroke-linejoin="round"><path stroke="none" d="M0 0h24v24H0z" fill="none"/><path d="M14 3v4a1 1 0 0 0 1 1h4" /><path d="M17 21h-10a2 2 0 0 1 -2 -2v-14a2 2 0 0 1 2 -2h7l5 5v11a2 2 0 0 1 -2 2z" /><path d="M12 14h-3" /><path d="M14.004 11.172a3 3 0 1 0 -.001 5.656" />
</symbol>
	<symbol id="ladder" class="icon icon-tabler icon-tabler-ladder" viewBox="0 0 24 24" stroke-width="2" stroke="currentColor" fill="none" stroke-linecap="round" stroke-linejoin="round"><path stroke="none" d="M0 0h24v24H0z" fill="none"/><path d="M8 3v18" /><path d="M16 3v18" /><path d="M8 14h8" /><path d="M8 10h8" /><path d="M8 6h8" /><path d="M8 18h8" />
</symbol>
	<symbol id="pentagon" class="icon icon-tabler icon-tabler-pentagon" viewBox="0 0 24 24" stroke-width="2" stroke="currentColor" fill="none" stroke-linecap="round" stroke-linejoin="round"><path stroke="none" d="M0 0h24v24H0z" fill="none"/><path d="M13.2 3.394l7.033 5.237a2 2 0 0 1 .7 2.247l-2.973 8.764a2 2 0 0 1 -1.894 1.358h-8.12a2 2 0 0 1 -1.9 -1.373l-2.896 -8.765a2 2 0 0 1 .696 -2.225l6.958 -5.237a2 2 0 0 1 2.397 -.006z" />
</symbol>
	<symbol id="picture-in-picture-top" class="icon icon-tabler icon-tabler-picture-in-picture-top" viewBox="0 0 24 24" stroke-width="2" stroke="currentColor" fill="none" stroke-linecap="round" stroke-linejoin="round"><path stroke="none" d="M0 0h24v24H0z" fill="none"/><path d="M11 5h-6a2 2 0 0 0 -2 2v10a2 2 0 0 0 2 2h14a2 2 0 0 0 2 -2v-4" /><rect transform="matrix(1 0 0 -1 0 15)" x="14" y="5" width="7" height="5" rx="1" />
</symbol>
	<symbol id="rotate-dot" class="icon icon-tabler icon-tabler-rotate-dot" viewBox="0 0 24 24" stroke-width="2" stroke="currentColor" fill="none" stroke-linecap="round" stroke-linejoin="round"><path stroke="none" d="M0 0h24v24H0z" fill="none"/><path d="M19.95 11a8 8 0 1 0 -.5 4m.5 5v-5h-5" /><circle cx="12" cy="12" r="1" />
</symbol>

	<use xlink:href="#asterisk-simple" x="24" y="24" width="24" height="24" />
	<use xlink:href="#asterisk" x="68" y="24" width="24" height="24" />
	<use xlink:href="#browser-check" x="112" y="24" width="24" height="24" />
	<use xlink:href="#browser-plus" x="156" y="24" width="24" height="24" />
	<use xlink:href="#browser-x" x="200" y="24" width="24" height="24" />
	<use xlink:href="#butterfly" x="244" y="24" width="24" height="24" />
	<use xlink:href="#cloud-lock-open" x="24" y="68" width="24" height="24" />
	<use xlink:href="#cloud-lock" x="68" y="68" width="24" height="24" />
	<use xlink:href="#cone-2" x="112" y="68" width="24" height="24" />
	<use xlink:href="#cone" x="156" y="68" width="24" height="24" />
	<use xlink:href="#drop-circle" x="200" y="68" width="24" height="24" />
	<use xlink:href="#elevator" x="244" y="68" width="24" height="24" />
	<use xlink:href="#file-dollar" x="24" y="112" width="24" height="24" />
	<use xlink:href="#file-euro" x="68" y="112" width="24" height="24" />
	<use xlink:href="#ladder" x="112" y="112" width="24" height="24" />
	<use xlink:href="#pentagon" x="156" y="112" width="24" height="24" />
	<use xlink:href="#picture-in-picture-top" x="200" y="112" width="24" height="24" />
	<use xlink:href="#rotate-dot" x="244" y="112" width="24" height="24" />

</svg>