<svg xmlns="http://www.w3.org/2000/svg" xmlns:xlink="http://www.w3.org/1999/xlink" viewBox="0 0 322 172" width="322" height="172" style="color: #354052"><rect x="0" y="0" width="322" height="172" fill="#fff"></rect>
	<symbol id="axis-x" class="icon icon-tabler icon-tabler-axis-x" viewBox="0 0 24 24" stroke-width="2" stroke="currentColor" fill="none" stroke-linecap="round" stroke-linejoin="round"><path stroke="none" d="M0 0h24v24H0z" fill="none"/><path d="M4 13v.01" /><path d="M4 9v.01" /><path d="M4 5v.01" /><path d="M17 20l3 -3l-3 -3" /><path d="M4 17h16" />
</symbol>
	<symbol id="axis-y" class="icon icon-tabler icon-tabler-axis-y" viewBox="0 0 24 24" stroke-width="2" stroke="currentColor" fill="none" stroke-linecap="round" stroke-linejoin="round"><path stroke="none" d="M0 0h24v24H0z" fill="none"/><path d="M11 20h-.01" /><path d="M15 20h-.01" /><path d="M19 20h-.01" /><path d="M4 7l3 -3l3 3" /><path d="M7 20v-16" />
</symbol>
	<symbol id="backpack" class="icon icon-tabler icon-tabler-backpack" viewBox="0 0 24 24" stroke-width="2" stroke="currentColor" fill="none" stroke-linecap="round" stroke-linejoin="round"><path stroke="none" d="M0 0h24v24H0z" fill="none"/><path d="M11 7h2a6 6 0 0 1 6 6v6a1 1 0 0 1 -1 1h-12a1 1 0 0 1 -1 -1v-6a6 6 0 0 1 6 -6z" /><path d="M10 7v-1a2 2 0 1 1 4 0v1" /><path d="M10 15h4" />
</symbol>
	<symbol id="bath" class="icon icon-tabler icon-tabler-bath" viewBox="0 0 24 24" stroke-width="2" stroke="currentColor" fill="none" stroke-linecap="round" stroke-linejoin="round"><path stroke="none" d="M0 0h24v24H0z" fill="none"/><path d="M4 12h16a1 1 0 0 1 1 1v3a4 4 0 0 1 -4 4h-10a4 4 0 0 1 -4 -4v-3a1 1 0 0 1 1 -1z" /><path d="M6 12v-7a2 2 0 0 1 2 -2h3v2.25" /><path d="M4 21l1 -1.5" /><path d="M20 21l-1 -1.5" />
</symbol>
	<symbol id="brand-mastercard" class="icon icon-tabler icon-tabler-brand-mastercard" viewBox="0 0 24 24" stroke-width="2" stroke="currentColor" fill="none" stroke-linecap="round" stroke-linejoin="round"><path stroke="none" d="M0 0h24v24H0z" fill="none"/><circle cx="14" cy="12" r="3" /><path d="M12.001 9.765a3 3 0 1 0 0 4.47" /><rect x="3" y="5" width="18" height="14" rx="2" />
</symbol>
	<symbol id="brand-stack-ofverflow" class="icon icon-tabler icon-tabler-brand-stack-ofverflow" viewBox="0 0 24 24" stroke-width="2" stroke="currentColor" fill="none" stroke-linecap="round" stroke-linejoin="round"><path stroke="none" d="M0 0h24v24H0z" fill="none"/><path d="M4 17v1a2 2 0 0 0 2 2h12a2 2 0 0 0 2 -2v-1" /><path d="M8 16h8" /><path d="M8.322 12.582l7.956 .836" /><path d="M8.787 9.168l7.826 1.664" /><path d="M10.096 5.764l7.608 2.472" />
</symbol>
	<symbol id="currency-dogecoin" class="icon icon-tabler icon-tabler-currency-dogecoin" viewBox="0 0 24 24" stroke-width="2" stroke="currentColor" fill="none" stroke-linecap="round" stroke-linejoin="round"><path stroke="none" d="M0 0h24v24H0z" fill="none"/><path d="M6 12h6" /><path d="M8 5v14" /><path d="M5 19h7a7 7 0 0 0 0 -14h-7" />
</symbol>
	<symbol id="door-enter" class="icon icon-tabler icon-tabler-door-enter" viewBox="0 0 24 24" stroke-width="2" stroke="currentColor" fill="none" stroke-linecap="round" stroke-linejoin="round"><path stroke="none" d="M0 0h24v24H0z" fill="none"/><path d="M13 12v.01" /><path d="M3 21h18" /><path d="M5 21v-16a2 2 0 0 1 2 -2h6m4 10.5v7.5" /><path d="M21 7h-7m3 -3l-3 3l3 3" />
</symbol>
	<symbol id="door-exit" class="icon icon-tabler icon-tabler-door-exit" viewBox="0 0 24 24" stroke-width="2" stroke="currentColor" fill="none" stroke-linecap="round" stroke-linejoin="round"><path stroke="none" d="M0 0h24v24H0z" fill="none"/><path d="M13 12v.01" /><path d="M3 21h18" /><path d="M5 21v-16a2 2 0 0 1 2 -2h7.5m2.5 10.5v7.5" /><path d="M14 7h7m-3 -3l3 3l-3 3" />
</symbol>
	<symbol id="door" class="icon icon-tabler icon-tabler-door" viewBox="0 0 24 24" stroke-width="2" stroke="currentColor" fill="none" stroke-linecap="round" stroke-linejoin="round"><path stroke="none" d="M0 0h24v24H0z" fill="none"/><path d="M14 12v.01" /><path d="M3 21h18" /><path d="M6 21v-16a2 2 0 0 1 2 -2h8a2 2 0 0 1 2 2v16" />
</symbol>
	<symbol id="hand-click" class="icon icon-tabler icon-tabler-hand-click" viewBox="0 0 24 24" stroke-width="2" stroke="currentColor" fill="none" stroke-linecap="round" stroke-linejoin="round"><path stroke="none" d="M0 0h24v24H0z" fill="none"/><path d="M8 13v-8.5a1.5 1.5 0 0 1 3 0v7.5" /><path d="M11 11.5v-2a1.5 1.5 0 0 1 3 0v2.5" /><path d="M14 10.5a1.5 1.5 0 0 1 3 0v1.5" /><path d="M17 11.5a1.5 1.5 0 0 1 3 0v4.5a6 6 0 0 1 -6 6h-2h.208a6 6 0 0 1 -5.012 -2.7l-.196 -.3c-.312 -.479 -1.407 -2.388 -3.286 -5.728a1.5 1.5 0 0 1 .536 -2.022a1.867 1.867 0 0 1 2.28 .28l1.47 1.47" /><path d="M5 3l-1 -1" /><path d="M4 7h-1" /><path d="M14 3l1 -1" /><path d="M15 6h1" />
</symbol>
	<symbol id="hand-move" class="icon icon-tabler icon-tabler-hand-move" viewBox="0 0 24 24" stroke-width="2" stroke="currentColor" fill="none" stroke-linecap="round" stroke-linejoin="round"><path stroke="none" d="M0 0h24v24H0z" fill="none"/><path d="M8 13v-8.5a1.5 1.5 0 0 1 3 0v7.5" /><path d="M11 11.5v-2a1.5 1.5 0 0 1 3 0v2.5" /><path d="M14 10.5a1.5 1.5 0 0 1 3 0v1.5" /><path d="M17 11.5a1.5 1.5 0 0 1 3 0v4.5a6 6 0 0 1 -6 6h-2h.208a6 6 0 0 1 -5.012 -2.7l-.196 -.3c-.312 -.479 -1.407 -2.388 -3.286 -5.728a1.5 1.5 0 0 1 .536 -2.022a1.867 1.867 0 0 1 2.28 .28l1.47 1.47" /><path d="M2.541 5.594a13.487 13.487 0 0 1 2.46 -1.427" /><path d="M14.001 3.458c1.32 .354 2.558 .902 3.685 1.612" />
</symbol>
	<symbol id="lock-square" class="icon icon-tabler icon-tabler-lock-square" viewBox="0 0 24 24" stroke-width="2" stroke="currentColor" fill="none" stroke-linecap="round" stroke-linejoin="round"><path stroke="none" d="M0 0h24v24H0z" fill="none"/><rect x="8" y="11" width="8" height="5" rx="1" /><path d="M10 11v-2a2 2 0 1 1 4 0v2" /><rect x="4" y="4" width="16" height="16" rx="2" />
</symbol>
	<symbol id="pig" class="icon icon-tabler icon-tabler-pig" viewBox="0 0 24 24" stroke-width="2" stroke="currentColor" fill="none" stroke-linecap="round" stroke-linejoin="round"><path stroke="none" d="M0 0h24v24H0z" fill="none"/><path d="M15 11v.01" /><path d="M16 3l.001 3.803a6.019 6.019 0 0 1 2.658 3.197h1.341a1 1 0 0 1 1 1v2a1 1 0 0 1 -1 1h-1.342a6.008 6.008 0 0 1 -1.658 2.473v2.027a1.5 1.5 0 0 1 -3 0v-.583a6.04 6.04 0 0 1 -1 .083h-4a6.04 6.04 0 0 1 -1 -.083v.583a1.5 1.5 0 0 1 -3 0v-2l.001 -.027a6 6 0 0 1 3.999 -10.473h2.5l4.5 -3z" />
</symbol>
	<symbol id="scale-outline" class="icon icon-tabler icon-tabler-scale-outline" viewBox="0 0 24 24" stroke-width="2" stroke="currentColor" fill="none" stroke-linecap="round" stroke-linejoin="round"><path stroke="none" d="M0 0h24v24H0z" fill="none"/><rect x="3" y="3" width="18" height="18" rx="4" /><path d="M12 7c1.956 0 3.724 .802 4.994 2.095l-2.956 2.904a3 3 0 0 0 -2.038 -.799a3 3 0 0 0 -2.038 .798l-2.956 -2.903a6.979 6.979 0 0 1 4.994 -2.095z" />
</symbol>
	<symbol id="spacing-horizontal" class="icon icon-tabler icon-tabler-spacing-horizontal" viewBox="0 0 24 24" stroke-width="2" stroke="currentColor" fill="none" stroke-linecap="round" stroke-linejoin="round"><path stroke="none" d="M0 0h24v24H0z" fill="none"/><path d="M20 20h-2a2 2 0 0 1 -2 -2v-12a2 2 0 0 1 2 -2h2" /><path d="M4 20h2a2 2 0 0 0 2 -2v-12a2 2 0 0 0 -2 -2h-2" /><path d="M12 8v8" />
</symbol>
	<symbol id="spacing-vertical" class="icon icon-tabler icon-tabler-spacing-vertical" viewBox="0 0 24 24" stroke-width="2" stroke="currentColor" fill="none" stroke-linecap="round" stroke-linejoin="round"><path stroke="none" d="M0 0h24v24H0z" fill="none"/><path d="M4 20v-2a2 2 0 0 1 2 -2h12a2 2 0 0 1 2 2v2" /><path d="M4 4v2a2 2 0 0 0 2 2h12a2 2 0 0 0 2 -2v-2" /><path d="M16 12h-8" />
</symbol>
	<symbol id="wallpaper" class="icon icon-tabler icon-tabler-wallpaper" viewBox="0 0 24 24" stroke-width="2" stroke="currentColor" fill="none" stroke-linecap="round" stroke-linejoin="round"><path stroke="none" d="M0 0h24v24H0z" fill="none"/><path d="M8 6h10a2 2 0 0 1 2 2v10a2 2 0 0 1 -2 2h-12" /><circle cx="6" cy="18" r="2" /><path d="M8 18v-12a2 2 0 1 0 -4 0v12" />
</symbol>

	<use xlink:href="#axis-x" x="24" y="24" width="24" height="24" />
	<use xlink:href="#axis-y" x="74" y="24" width="24" height="24" />
	<use xlink:href="#backpack" x="124" y="24" width="24" height="24" />
	<use xlink:href="#bath" x="174" y="24" width="24" height="24" />
	<use xlink:href="#brand-mastercard" x="224" y="24" width="24" height="24" />
	<use xlink:href="#brand-stack-ofverflow" x="274" y="24" width="24" height="24" />
	<use xlink:href="#currency-dogecoin" x="24" y="74" width="24" height="24" />
	<use xlink:href="#door-enter" x="74" y="74" width="24" height="24" />
	<use xlink:href="#door-exit" x="124" y="74" width="24" height="24" />
	<use xlink:href="#door" x="174" y="74" width="24" height="24" />
	<use xlink:href="#hand-click" x="224" y="74" width="24" height="24" />
	<use xlink:href="#hand-move" x="274" y="74" width="24" height="24" />
	<use xlink:href="#lock-square" x="24" y="124" width="24" height="24" />
	<use xlink:href="#pig" x="74" y="124" width="24" height="24" />
	<use xlink:href="#scale-outline" x="124" y="124" width="24" height="24" />
	<use xlink:href="#spacing-horizontal" x="174" y="124" width="24" height="24" />
	<use xlink:href="#spacing-vertical" x="224" y="124" width="24" height="24" />
	<use xlink:href="#wallpaper" x="274" y="124" width="24" height="24" />

</svg>