<svg xmlns="http://www.w3.org/2000/svg" xmlns:xlink="http://www.w3.org/1999/xlink" viewBox="0 0 292 160" width="292" height="160" style="color: #354052"><rect x="0" y="0" width="292" height="160" fill="#fff"></rect>
	<symbol id="12-hours" class="icon icon-tabler icon-tabler-12-hours" viewBox="0 0 24 24" stroke-width="2" stroke="currentColor" fill="none" stroke-linecap="round" stroke-linejoin="round"><path stroke="none" d="M0 0h24v24H0z" fill="none"/><path d="M20 11a8.1 8.1 0 0 0 -15.5 -2m-.5 -4v4h4" /><path d="M4 13c.468 3.6 3.384 6.546 7 7" /><path d="M18 15h2a1 1 0 0 1 1 1v1a1 1 0 0 1 -1 1h-1a1 1 0 0 0 -1 1v1a1 1 0 0 0 1 1h2" /><path d="M15 21v-6" />
</symbol>
	<symbol id="alt" class="icon icon-tabler icon-tabler-alt" viewBox="0 0 24 24" stroke-width="2" stroke="currentColor" fill="none" stroke-linecap="round" stroke-linejoin="round"><path stroke="none" d="M0 0h24v24H0z" fill="none"/><path d="M4 16v-6a2 2 0 1 1 4 0v6" /><path d="M4 13h4" /><path d="M11 8v8h4" /><path d="M16 8h4" /><path d="M18 8v8" />
</symbol>
	<symbol id="archery-arrow" class="icon icon-tabler icon-tabler-archery-arrow" viewBox="0 0 24 24" stroke-width="2" stroke="currentColor" fill="none" stroke-linecap="round" stroke-linejoin="round"><path stroke="none" d="M0 0h24v24H0z" fill="none"/><path d="M14 7v3h3l3 -3h-3v-3z" /><path d="M14 10l-9 9" /><path d="M5 15v4h4" />
</symbol>
	<symbol id="clock-12" class="icon icon-tabler icon-tabler-clock-12" viewBox="0 0 24 24" stroke-width="2" stroke="currentColor" fill="none" stroke-linecap="round" stroke-linejoin="round"><path stroke="none" d="M0 0h24v24H0z" fill="none"/><path d="M3 12a9 9 0 0 0 9 9m9 -9a9 9 0 1 0 -18 0" /><path d="M12 7v5l.5 .5" /><path d="M18 15h2a1 1 0 0 1 1 1v1a1 1 0 0 1 -1 1h-1a1 1 0 0 0 -1 1v1a1 1 0 0 0 1 1h2" /><path d="M15 21v-6" />
</symbol>
	<symbol id="clock-24" class="icon icon-tabler icon-tabler-clock-24" viewBox="0 0 24 24" stroke-width="2" stroke="currentColor" fill="none" stroke-linecap="round" stroke-linejoin="round"><path stroke="none" d="M0 0h24v24H0z" fill="none"/><path d="M3 12a9 9 0 0 0 5.998 8.485m12.002 -8.485a9 9 0 1 0 -18 0" /><path d="M12 7v5" /><path d="M12 15h2a1 1 0 0 1 1 1v1a1 1 0 0 1 -1 1h-1a1 1 0 0 0 -1 1v1a1 1 0 0 0 1 1h2" /><path d="M18 15v2a1 1 0 0 0 1 1h1" /><path d="M21 15v6" />
</symbol>
	<symbol id="device-game-pad" class="icon icon-tabler icon-tabler-device-game-pad" viewBox="0 0 24 24" stroke-width="2" stroke="currentColor" fill="none" stroke-linecap="round" stroke-linejoin="round"><path stroke="none" d="M0 0h24v24H0z" fill="none"/><path d="M10 12l-3 -3h-2a1 1 0 0 0 -1 1v4a1 1 0 0 0 1 1h2l3 -3z" /><path d="M14 12l3 -3h2a1 1 0 0 1 1 1v4a1 1 0 0 1 -1 1h-2l-3 -3z" /><path d="M12 14l-3 3v2a1 1 0 0 0 1 1h4a1 1 0 0 0 1 -1v-2l-3 -3z" /><path d="M12 10l-3 -3v-2a1 1 0 0 1 1 -1h4a1 1 0 0 1 1 1v2l-3 3z" />
</symbol>
	<symbol id="device-usb" class="icon icon-tabler icon-tabler-device-usb" viewBox="0 0 24 24" stroke-width="2" stroke="currentColor" fill="none" stroke-linecap="round" stroke-linejoin="round"><path stroke="none" d="M0 0h24v24H0z" fill="none"/><path d="M8 8h8v9a3 3 0 0 1 -3 3h-2a3 3 0 0 1 -3 -3v-9z" /><path d="M10 8v-4h4v4" />
</symbol>
	<symbol id="input-ai" class="icon icon-tabler icon-tabler-input-ai" viewBox="0 0 24 24" stroke-width="2" stroke="currentColor" fill="none" stroke-linecap="round" stroke-linejoin="round"><path stroke="none" d="M0 0h24v24H0z" fill="none"/><path d="M20 11v-2a2 2 0 0 0 -2 -2h-12a2 2 0 0 0 -2 2v5a2 2 0 0 0 2 2h4" /><path d="M14 21v-4a2 2 0 1 1 4 0v4" /><path d="M14 19h4" /><path d="M21 15v6" />
</symbol>
	<symbol id="input-check" class="icon icon-tabler icon-tabler-input-check" viewBox="0 0 24 24" stroke-width="2" stroke="currentColor" fill="none" stroke-linecap="round" stroke-linejoin="round"><path stroke="none" d="M0 0h24v24H0z" fill="none"/><path d="M20 13v-4a2 2 0 0 0 -2 -2h-12a2 2 0 0 0 -2 2v5a2 2 0 0 0 2 2h6" /><path d="M15 19l2 2l4 -4" />
</symbol>
	<symbol id="input-x" class="icon icon-tabler icon-tabler-input-x" viewBox="0 0 24 24" stroke-width="2" stroke="currentColor" fill="none" stroke-linecap="round" stroke-linejoin="round"><path stroke="none" d="M0 0h24v24H0z" fill="none"/><path d="M20 13v-4a2 2 0 0 0 -2 -2h-12a2 2 0 0 0 -2 2v5a2 2 0 0 0 2 2h7" /><path d="M22 22l-5 -5" /><path d="M17 22l5 -5" />
</symbol>
	<symbol id="map-east" class="icon icon-tabler icon-tabler-map-east" viewBox="0 0 24 24" stroke-width="2" stroke="currentColor" fill="none" stroke-linecap="round" stroke-linejoin="round"><path stroke="none" d="M0 0h24v24H0z" fill="none"/><path d="M12 12m-9 0a9 9 0 1 0 18 0a9 9 0 1 0 -18 0" /><path d="M14 9h-4v6h4" /><path d="M10 12h2.5" />
</symbol>
	<symbol id="map-north" class="icon icon-tabler icon-tabler-map-north" viewBox="0 0 24 24" stroke-width="2" stroke="currentColor" fill="none" stroke-linecap="round" stroke-linejoin="round"><path stroke="none" d="M0 0h24v24H0z" fill="none"/><path d="M12 12m-9 0a9 9 0 1 0 18 0a9 9 0 1 0 -18 0" /><path d="M10 15v-6l4 6v-6" />
</symbol>
	<symbol id="map-south" class="icon icon-tabler icon-tabler-map-south" viewBox="0 0 24 24" stroke-width="2" stroke="currentColor" fill="none" stroke-linecap="round" stroke-linejoin="round"><path stroke="none" d="M0 0h24v24H0z" fill="none"/><path d="M12 12m-9 0a9 9 0 1 0 18 0a9 9 0 1 0 -18 0" /><path d="M10 14.25c0 .414 .336 .75 .75 .75h2.25a1 1 0 0 0 1 -1v-1a1 1 0 0 0 -1 -1h-2a1 1 0 0 1 -1 -1v-1a1 1 0 0 1 1 -1h2.25a.75 .75 0 0 1 .75 .75" />
</symbol>
	<symbol id="map-west" class="icon icon-tabler icon-tabler-map-west" viewBox="0 0 24 24" stroke-width="2" stroke="currentColor" fill="none" stroke-linecap="round" stroke-linejoin="round"><path stroke="none" d="M0 0h24v24H0z" fill="none"/><path d="M12 12m-9 0a9 9 0 1 0 18 0a9 9 0 1 0 -18 0" /><path d="M9 9l1 6l2 -3.75l2 3.75l1 -6" />
</symbol>
	<symbol id="nut" class="icon icon-tabler icon-tabler-nut" viewBox="0 0 24 24" stroke-width="2" stroke="currentColor" fill="none" stroke-linecap="round" stroke-linejoin="round"><path stroke="none" d="M0 0h24v24H0z" fill="none"/><path d="M19 6.84a2.007 2.007 0 0 1 1 1.754v6.555c0 .728 -.394 1.4 -1.03 1.753l-6 3.844a1.995 1.995 0 0 1 -1.94 0l-6 -3.844a2.006 2.006 0 0 1 -1.03 -1.752v-6.557c0 -.728 .394 -1.399 1.03 -1.753l6 -3.582a2.049 2.049 0 0 1 2 0l6 3.582h-.03z" /><path d="M12 12m-3 0a3 3 0 1 0 6 0a3 3 0 1 0 -6 0" />
</symbol>
	<symbol id="photo-circle-minus" class="icon icon-tabler icon-tabler-photo-circle-minus" viewBox="0 0 24 24" stroke-width="2" stroke="currentColor" fill="none" stroke-linecap="round" stroke-linejoin="round"><path stroke="none" d="M0 0h24v24H0z" fill="none"/><path d="M15 8h.01" /><path d="M20.475 15.035a9 9 0 0 0 -8.475 -12.035a9 9 0 0 0 -9 9a9 9 0 0 0 9.525 8.985" /><path d="M4 15l4 -4c.928 -.893 2.072 -.893 3 0l4 4" /><path d="M14 14l1 -1c.928 -.893 2.072 -.893 3 0l2 2" /><path d="M16 19h6" />
</symbol>
	<symbol id="photo-circle-plus" class="icon icon-tabler icon-tabler-photo-circle-plus" viewBox="0 0 24 24" stroke-width="2" stroke="currentColor" fill="none" stroke-linecap="round" stroke-linejoin="round"><path stroke="none" d="M0 0h24v24H0z" fill="none"/><path d="M15 8h.01" /><path d="M20.964 12.806a9 9 0 0 0 -8.964 -9.806a9 9 0 0 0 -9 9a9 9 0 0 0 9.397 8.991" /><path d="M4 15l4 -4c.928 -.893 2.072 -.893 3 0l4 4" /><path d="M14 14l1 -1c.928 -.893 2.072 -.893 3 0" /><path d="M16 19.33h6" /><path d="M19 16.33v6" />
</symbol>
	<symbol id="wheel" class="icon icon-tabler icon-tabler-wheel" viewBox="0 0 24 24" stroke-width="2" stroke="currentColor" fill="none" stroke-linecap="round" stroke-linejoin="round"><path stroke="none" d="M0 0h24v24H0z" fill="none"/><path d="M12 12m-9 0a9 9 0 1 0 18 0a9 9 0 1 0 -18 0" /><path d="M12 12m-3 0a3 3 0 1 0 6 0a3 3 0 1 0 -6 0" /><path d="M3 12h6" /><path d="M15 12h6" /><path d="M13.6 9.4l3.4 -4.8" /><path d="M10.4 14.6l-3.4 4.8" /><path d="M7 4.6l3.4 4.8" /><path d="M13.6 14.6l3.4 4.8" />
</symbol>

	<use xlink:href="#12-hours" x="24" y="24" width="24" height="24" />
	<use xlink:href="#alt" x="68" y="24" width="24" height="24" />
	<use xlink:href="#archery-arrow" x="112" y="24" width="24" height="24" />
	<use xlink:href="#clock-12" x="156" y="24" width="24" height="24" />
	<use xlink:href="#clock-24" x="200" y="24" width="24" height="24" />
	<use xlink:href="#device-game-pad" x="244" y="24" width="24" height="24" />
	<use xlink:href="#device-usb" x="24" y="68" width="24" height="24" />
	<use xlink:href="#input-ai" x="68" y="68" width="24" height="24" />
	<use xlink:href="#input-check" x="112" y="68" width="24" height="24" />
	<use xlink:href="#input-x" x="156" y="68" width="24" height="24" />
	<use xlink:href="#map-east" x="200" y="68" width="24" height="24" />
	<use xlink:href="#map-north" x="244" y="68" width="24" height="24" />
	<use xlink:href="#map-south" x="24" y="112" width="24" height="24" />
	<use xlink:href="#map-west" x="68" y="112" width="24" height="24" />
	<use xlink:href="#nut" x="112" y="112" width="24" height="24" />
	<use xlink:href="#photo-circle-minus" x="156" y="112" width="24" height="24" />
	<use xlink:href="#photo-circle-plus" x="200" y="112" width="24" height="24" />
	<use xlink:href="#wheel" x="244" y="112" width="24" height="24" />

</svg>