<svg xmlns="http://www.w3.org/2000/svg" xmlns:xlink="http://www.w3.org/1999/xlink" viewBox="0 0 292 248" width="292" height="248" style="color: #354052"><rect x="0" y="0" width="292" height="248" fill="#fff"></rect>
	<symbol id="air-traffic-control" class="icon icon-tabler icon-tabler-air-traffic-control" viewBox="0 0 24 24" stroke-width="2" stroke="currentColor" fill="none" stroke-linecap="round" stroke-linejoin="round"><path stroke="none" d="M0 0h24v24H0z" fill="none"/><path d="M11 3h2" /><path d="M12 3v3" /><path d="M5.998 6h12.004a2 2 0 0 1 1.916 2.575l-1.8 6a2 2 0 0 1 -1.916 1.425h-8.404a2 2 0 0 1 -1.916 -1.425l-1.8 -6a2 2 0 0 1 1.916 -2.575z" /><path d="M8.5 6l1.5 10v5" /><path d="M15.5 6l-1.5 10v5" />
</symbol>
	<symbol id="brand-threads" class="icon icon-tabler icon-tabler-brand-threads" viewBox="0 0 24 24" stroke-width="2" stroke="currentColor" fill="none" stroke-linecap="round" stroke-linejoin="round"><path stroke="none" d="M0 0h24v24H0z" fill="none"/><path d="M19 7.5c-1.333 -3 -3.667 -4.5 -7 -4.5c-5 0 -8 2.5 -8 9s3.5 9 8 9s7 -3 7 -5s-1 -5 -7 -5c-2.5 0 -3 1.25 -3 2.5c0 1.5 1 2.5 2.5 2.5c2.5 0 3.5 -1.5 3.5 -5s-2 -4 -3 -4s-1.833 .333 -2.5 1" />
</symbol>
	<symbol id="briefcase-2" class="icon icon-tabler icon-tabler-briefcase-2" viewBox="0 0 24 24" stroke-width="2" stroke="currentColor" fill="none" stroke-linecap="round" stroke-linejoin="round"><path stroke="none" d="M0 0h24v24H0z" fill="none"/><path d="M3 9a2 2 0 0 1 2 -2h14a2 2 0 0 1 2 2v9a2 2 0 0 1 -2 2h-14a2 2 0 0 1 -2 -2v-9z" /><path d="M8 7v-2a2 2 0 0 1 2 -2h4a2 2 0 0 1 2 2v2" />
</symbol>
	<symbol id="escalator-down" class="icon icon-tabler icon-tabler-escalator-down" viewBox="0 0 24 24" stroke-width="2" stroke="currentColor" fill="none" stroke-linecap="round" stroke-linejoin="round"><path stroke="none" d="M0 0h24v24H0z" fill="none"/><path d="M4.5 7h2.733a2 2 0 0 1 1.337 .513l9.43 8.487h1.5a2.5 2.5 0 1 1 0 5h-2.733a2 2 0 0 1 -1.337 -.513l-9.43 -8.487h-1.5a2.5 2.5 0 1 1 0 -5z" /><path d="M18 3v7" /><path d="M15 7l3 3l3 -3" />
</symbol>
	<symbol id="escalator-up" class="icon icon-tabler icon-tabler-escalator-up" viewBox="0 0 24 24" stroke-width="2" stroke="currentColor" fill="none" stroke-linecap="round" stroke-linejoin="round"><path stroke="none" d="M0 0h24v24H0z" fill="none"/><path d="M19.5 7h-2.672a2 2 0 0 0 -1.414 .586l-8.414 8.414h-2.5a2.5 2.5 0 1 0 0 5h3.672a2 2 0 0 0 1.414 -.586l8.414 -8.414h1.5a2.5 2.5 0 1 0 0 -5z" /><path d="M6 10v-7" /><path d="M3 6l3 -3l3 3" />
</symbol>
	<symbol id="escalator" class="icon icon-tabler icon-tabler-escalator" viewBox="0 0 24 24" stroke-width="2" stroke="currentColor" fill="none" stroke-linecap="round" stroke-linejoin="round"><path stroke="none" d="M0 0h24v24H0z" fill="none"/><path d="M19.5 5h-2.672a2 2 0 0 0 -1.414 .586l-8.414 8.414h-2.5a2.5 2.5 0 1 0 0 5h3.672a2 2 0 0 0 1.414 -.586l8.414 -8.414h1.5a2.5 2.5 0 0 0 0 -5z" />
</symbol>
	<symbol id="file-type-bmp" class="icon icon-tabler icon-tabler-file-type-bmp" viewBox="0 0 24 24" stroke-width="2" stroke="currentColor" fill="none" stroke-linecap="round" stroke-linejoin="round"><path stroke="none" d="M0 0h24v24H0z" fill="none"/><path d="M14 3v4a1 1 0 0 0 1 1h4" /><path d="M5 12v-7a2 2 0 0 1 2 -2h7l5 5v4" /><path d="M18 18h1.5a1.5 1.5 0 0 0 0 -3h-1.5v6" /><path d="M4 21h1.5a1.5 1.5 0 0 0 0 -3h-1.5h1.5a1.5 1.5 0 0 0 0 -3h-1.5v6z" /><path d="M10 21v-6l2.5 3l2.5 -3v6" />
</symbol>
	<symbol id="file-type-css" class="icon icon-tabler icon-tabler-file-type-css" viewBox="0 0 24 24" stroke-width="2" stroke="currentColor" fill="none" stroke-linecap="round" stroke-linejoin="round"><path stroke="none" d="M0 0h24v24H0z" fill="none"/><path d="M14 3v4a1 1 0 0 0 1 1h4" /><path d="M5 12v-7a2 2 0 0 1 2 -2h7l5 5v4" /><path d="M8 16.5a1.5 1.5 0 0 0 -3 0v3a1.5 1.5 0 0 0 3 0" /><path d="M11 20.25c0 .414 .336 .75 .75 .75h1.25a1 1 0 0 0 1 -1v-1a1 1 0 0 0 -1 -1h-1a1 1 0 0 1 -1 -1v-1a1 1 0 0 1 1 -1h1.25a.75 .75 0 0 1 .75 .75" /><path d="M17 20.25c0 .414 .336 .75 .75 .75h1.25a1 1 0 0 0 1 -1v-1a1 1 0 0 0 -1 -1h-1a1 1 0 0 1 -1 -1v-1a1 1 0 0 1 1 -1h1.25a.75 .75 0 0 1 .75 .75" />
</symbol>
	<symbol id="file-type-csv" class="icon icon-tabler icon-tabler-file-type-csv" viewBox="0 0 24 24" stroke-width="2" stroke="currentColor" fill="none" stroke-linecap="round" stroke-linejoin="round"><path stroke="none" d="M0 0h24v24H0z" fill="none"/><path d="M14 3v4a1 1 0 0 0 1 1h4" /><path d="M5 12v-7a2 2 0 0 1 2 -2h7l5 5v4" /><path d="M7 16.5a1.5 1.5 0 0 0 -3 0v3a1.5 1.5 0 0 0 3 0" /><path d="M10 20.25c0 .414 .336 .75 .75 .75h1.25a1 1 0 0 0 1 -1v-1a1 1 0 0 0 -1 -1h-1a1 1 0 0 1 -1 -1v-1a1 1 0 0 1 1 -1h1.25a.75 .75 0 0 1 .75 .75" /><path d="M16 15l2 6l2 -6" />
</symbol>
	<symbol id="file-type-doc" class="icon icon-tabler icon-tabler-file-type-doc" viewBox="0 0 24 24" stroke-width="2" stroke="currentColor" fill="none" stroke-linecap="round" stroke-linejoin="round"><path stroke="none" d="M0 0h24v24H0z" fill="none"/><path d="M14 3v4a1 1 0 0 0 1 1h4" /><path d="M5 12v-7a2 2 0 0 1 2 -2h7l5 5v4" /><path d="M5 15v6h1a2 2 0 0 0 2 -2v-2a2 2 0 0 0 -2 -2h-1z" /><path d="M20 16.5a1.5 1.5 0 0 0 -3 0v3a1.5 1.5 0 0 0 3 0" /><path d="M12.5 15a1.5 1.5 0 0 1 1.5 1.5v3a1.5 1.5 0 0 1 -3 0v-3a1.5 1.5 0 0 1 1.5 -1.5z" />
</symbol>
	<symbol id="file-type-docx" class="icon icon-tabler icon-tabler-file-type-docx" viewBox="0 0 24 24" stroke-width="2" stroke="currentColor" fill="none" stroke-linecap="round" stroke-linejoin="round"><path stroke="none" d="M0 0h24v24H0z" fill="none"/><path d="M14 3v4a1 1 0 0 0 1 1h4" /><path d="M5 12v-7a2 2 0 0 1 2 -2h7l5 5v4" /><path d="M2 15v6h1a2 2 0 0 0 2 -2v-2a2 2 0 0 0 -2 -2h-1z" /><path d="M17 16.5a1.5 1.5 0 0 0 -3 0v3a1.5 1.5 0 0 0 3 0" /><path d="M9.5 15a1.5 1.5 0 0 1 1.5 1.5v3a1.5 1.5 0 0 1 -3 0v-3a1.5 1.5 0 0 1 1.5 -1.5z" /><path d="M19.5 15l3 6" /><path d="M19.5 21l3 -6" />
</symbol>
	<symbol id="file-type-html" class="icon icon-tabler icon-tabler-file-type-html" viewBox="0 0 24 24" stroke-width="2" stroke="currentColor" fill="none" stroke-linecap="round" stroke-linejoin="round"><path stroke="none" d="M0 0h24v24H0z" fill="none"/><path d="M14 3v4a1 1 0 0 0 1 1h4" /><path d="M5 12v-7a2 2 0 0 1 2 -2h7l5 5v4" /><path d="M2 21v-6" /><path d="M5 15v6" /><path d="M2 18h3" /><path d="M20 15v6h2" /><path d="M13 21v-6l2 3l2 -3v6" /><path d="M7.5 15h3" /><path d="M9 15v6" />
</symbol>
	<symbol id="file-type-jpg" class="icon icon-tabler icon-tabler-file-type-jpg" viewBox="0 0 24 24" stroke-width="2" stroke="currentColor" fill="none" stroke-linecap="round" stroke-linejoin="round"><path stroke="none" d="M0 0h24v24H0z" fill="none"/><path d="M14 3v4a1 1 0 0 0 1 1h4" /><path d="M5 12v-7a2 2 0 0 1 2 -2h7l5 5v4" /><path d="M11 18h1.5a1.5 1.5 0 0 0 0 -3h-1.5v6" /><path d="M20 15h-1a2 2 0 0 0 -2 2v2a2 2 0 0 0 2 2h1v-3" /><path d="M5 15h3v4.5a1.5 1.5 0 0 1 -3 0" />
</symbol>
	<symbol id="file-type-js" class="icon icon-tabler icon-tabler-file-type-js" viewBox="0 0 24 24" stroke-width="2" stroke="currentColor" fill="none" stroke-linecap="round" stroke-linejoin="round"><path stroke="none" d="M0 0h24v24H0z" fill="none"/><path d="M14 3v4a1 1 0 0 0 1 1h4" /><path d="M3 15h3v4.5a1.5 1.5 0 0 1 -3 0" /><path d="M9 20.25c0 .414 .336 .75 .75 .75h1.25a1 1 0 0 0 1 -1v-1a1 1 0 0 0 -1 -1h-1a1 1 0 0 1 -1 -1v-1a1 1 0 0 1 1 -1h1.25a.75 .75 0 0 1 .75 .75" /><path d="M5 12v-7a2 2 0 0 1 2 -2h7l5 5v11a2 2 0 0 1 -2 2h-1" />
</symbol>
	<symbol id="file-type-jsx" class="icon icon-tabler icon-tabler-file-type-jsx" viewBox="0 0 24 24" stroke-width="2" stroke="currentColor" fill="none" stroke-linecap="round" stroke-linejoin="round"><path stroke="none" d="M0 0h24v24H0z" fill="none"/><path d="M14 3v4a1 1 0 0 0 1 1h4" /><path d="M5 12v-7a2 2 0 0 1 2 -2h7l5 5v4" /><path d="M4 15h3v4.5a1.5 1.5 0 0 1 -3 0" /><path d="M10 20.25c0 .414 .336 .75 .75 .75h1.25a1 1 0 0 0 1 -1v-1a1 1 0 0 0 -1 -1h-1a1 1 0 0 1 -1 -1v-1a1 1 0 0 1 1 -1h1.25a.75 .75 0 0 1 .75 .75" /><path d="M16 15l4 6" /><path d="M16 21l4 -6" />
</symbol>
	<symbol id="file-type-pdf" class="icon icon-tabler icon-tabler-file-type-pdf" viewBox="0 0 24 24" stroke-width="2" stroke="currentColor" fill="none" stroke-linecap="round" stroke-linejoin="round"><path stroke="none" d="M0 0h24v24H0z" fill="none"/><path d="M14 3v4a1 1 0 0 0 1 1h4" /><path d="M5 12v-7a2 2 0 0 1 2 -2h7l5 5v4" /><path d="M5 18h1.5a1.5 1.5 0 0 0 0 -3h-1.5v6" /><path d="M17 18h2" /><path d="M20 15h-3v6" /><path d="M11 15v6h1a2 2 0 0 0 2 -2v-2a2 2 0 0 0 -2 -2h-1z" />
</symbol>
	<symbol id="file-type-php" class="icon icon-tabler icon-tabler-file-type-php" viewBox="0 0 24 24" stroke-width="2" stroke="currentColor" fill="none" stroke-linecap="round" stroke-linejoin="round"><path stroke="none" d="M0 0h24v24H0z" fill="none"/><path d="M14 3v4a1 1 0 0 0 1 1h4" /><path d="M5 12v-7a2 2 0 0 1 2 -2h7l5 5v4" /><path d="M5 18h1.5a1.5 1.5 0 0 0 0 -3h-1.5v6" /><path d="M17 18h1.5a1.5 1.5 0 0 0 0 -3h-1.5v6" /><path d="M11 21v-6" /><path d="M14 15v6" /><path d="M11 18h3" />
</symbol>
	<symbol id="file-type-png" class="icon icon-tabler icon-tabler-file-type-png" viewBox="0 0 24 24" stroke-width="2" stroke="currentColor" fill="none" stroke-linecap="round" stroke-linejoin="round"><path stroke="none" d="M0 0h24v24H0z" fill="none"/><path d="M14 3v4a1 1 0 0 0 1 1h4" /><path d="M5 12v-7a2 2 0 0 1 2 -2h7l5 5v4" /><path d="M20 15h-1a2 2 0 0 0 -2 2v2a2 2 0 0 0 2 2h1v-3" /><path d="M5 18h1.5a1.5 1.5 0 0 0 0 -3h-1.5v6" /><path d="M11 21v-6l3 6v-6" />
</symbol>
	<symbol id="file-type-ppt" class="icon icon-tabler icon-tabler-file-type-ppt" viewBox="0 0 24 24" stroke-width="2" stroke="currentColor" fill="none" stroke-linecap="round" stroke-linejoin="round"><path stroke="none" d="M0 0h24v24H0z" fill="none"/><path d="M14 3v4a1 1 0 0 0 1 1h4" /><path d="M14 3v4a1 1 0 0 0 1 1h4" /><path d="M5 18h1.5a1.5 1.5 0 0 0 0 -3h-1.5v6" /><path d="M11 18h1.5a1.5 1.5 0 0 0 0 -3h-1.5v6" /><path d="M16.5 15h3" /><path d="M18 15v6" /><path d="M5 12v-7a2 2 0 0 1 2 -2h7l5 5v4" />
</symbol>
	<symbol id="file-type-rs" class="icon icon-tabler icon-tabler-file-type-rs" viewBox="0 0 24 24" stroke-width="2" stroke="currentColor" fill="none" stroke-linecap="round" stroke-linejoin="round"><path stroke="none" d="M0 0h24v24H0z" fill="none"/><path d="M14 3v4a1 1 0 0 0 1 1h4" /><path d="M14 3v4a1 1 0 0 0 1 1h4" /><path d="M9 20.25c0 .414 .336 .75 .75 .75h1.25a1 1 0 0 0 1 -1v-1a1 1 0 0 0 -1 -1h-1a1 1 0 0 1 -1 -1v-1a1 1 0 0 1 1 -1h1.25a.75 .75 0 0 1 .75 .75" /><path d="M5 12v-7a2 2 0 0 1 2 -2h7l5 5v11a2 2 0 0 1 -2 2h-1" /><path d="M3 18h1.5a1.5 1.5 0 0 0 0 -3h-1.5v6m3 0l-2 -3" />
</symbol>
	<symbol id="file-type-sql" class="icon icon-tabler icon-tabler-file-type-sql" viewBox="0 0 24 24" stroke-width="2" stroke="currentColor" fill="none" stroke-linecap="round" stroke-linejoin="round"><path stroke="none" d="M0 0h24v24H0z" fill="none"/><path d="M14 3v4a1 1 0 0 0 1 1h4" /><path d="M14 3v4a1 1 0 0 0 1 1h4" /><path d="M5 20.25c0 .414 .336 .75 .75 .75h1.25a1 1 0 0 0 1 -1v-1a1 1 0 0 0 -1 -1h-1a1 1 0 0 1 -1 -1v-1a1 1 0 0 1 1 -1h1.25a.75 .75 0 0 1 .75 .75" /><path d="M5 12v-7a2 2 0 0 1 2 -2h7l5 5v4" /><path d="M18 15v6h2" /><path d="M13 15a2 2 0 0 1 2 2v2a2 2 0 1 1 -4 0v-2a2 2 0 0 1 2 -2z" /><path d="M14 20l1.5 1.5" />
</symbol>
	<symbol id="file-type-svg" class="icon icon-tabler icon-tabler-file-type-svg" viewBox="0 0 24 24" stroke-width="2" stroke="currentColor" fill="none" stroke-linecap="round" stroke-linejoin="round"><path stroke="none" d="M0 0h24v24H0z" fill="none"/><path d="M14 3v4a1 1 0 0 0 1 1h4" /><path d="M5 12v-7a2 2 0 0 1 2 -2h7l5 5v4" /><path d="M4 20.25c0 .414 .336 .75 .75 .75h1.25a1 1 0 0 0 1 -1v-1a1 1 0 0 0 -1 -1h-1a1 1 0 0 1 -1 -1v-1a1 1 0 0 1 1 -1h1.25a.75 .75 0 0 1 .75 .75" /><path d="M10 15l2 6l2 -6" /><path d="M20 15h-1a2 2 0 0 0 -2 2v2a2 2 0 0 0 2 2h1v-3" />
</symbol>
	<symbol id="file-type-ts" class="icon icon-tabler icon-tabler-file-type-ts" viewBox="0 0 24 24" stroke-width="2" stroke="currentColor" fill="none" stroke-linecap="round" stroke-linejoin="round"><path stroke="none" d="M0 0h24v24H0z" fill="none"/><path d="M14 3v4a1 1 0 0 0 1 1h4" /><path d="M5 12v-7a2 2 0 0 1 2 -2h7l5 5v11a2 2 0 0 1 -2 2h-1" /><path d="M14 3v4a1 1 0 0 0 1 1h4" /><path d="M9 20.25c0 .414 .336 .75 .75 .75h1.25a1 1 0 0 0 1 -1v-1a1 1 0 0 0 -1 -1h-1a1 1 0 0 1 -1 -1v-1a1 1 0 0 1 1 -1h1.25a.75 .75 0 0 1 .75 .75" /><path d="M3.5 15h3" /><path d="M5 15v6" />
</symbol>
	<symbol id="file-type-tsx" class="icon icon-tabler icon-tabler-file-type-tsx" viewBox="0 0 24 24" stroke-width="2" stroke="currentColor" fill="none" stroke-linecap="round" stroke-linejoin="round"><path stroke="none" d="M0 0h24v24H0z" fill="none"/><path d="M5 12v-7a2 2 0 0 1 2 -2h7l5 5v4" /><path d="M14 3v4a1 1 0 0 0 1 1h4" /><path d="M16 15l4 6" /><path d="M16 21l4 -6" /><path d="M10 20.25c0 .414 .336 .75 .75 .75h1.25a1 1 0 0 0 1 -1v-1a1 1 0 0 0 -1 -1h-1a1 1 0 0 1 -1 -1v-1a1 1 0 0 1 1 -1h1.25a.75 .75 0 0 1 .75 .75" /><path d="M4.5 15h3" /><path d="M6 15v6" />
</symbol>
	<symbol id="file-type-txt" class="icon icon-tabler icon-tabler-file-type-txt" viewBox="0 0 24 24" stroke-width="2" stroke="currentColor" fill="none" stroke-linecap="round" stroke-linejoin="round"><path stroke="none" d="M0 0h24v24H0z" fill="none"/><path d="M14 3v4a1 1 0 0 0 1 1h4" /><path d="M14 3v4a1 1 0 0 0 1 1h4" /><path d="M16.5 15h3" /><path d="M5 12v-7a2 2 0 0 1 2 -2h7l5 5v4" /><path d="M4.5 15h3" /><path d="M6 15v6" /><path d="M18 15v6" /><path d="M10 15l4 6" /><path d="M10 21l4 -6" />
</symbol>
	<symbol id="file-type-vue" class="icon icon-tabler icon-tabler-file-type-vue" viewBox="0 0 24 24" stroke-width="2" stroke="currentColor" fill="none" stroke-linecap="round" stroke-linejoin="round"><path stroke="none" d="M0 0h24v24H0z" fill="none"/><path d="M14 3v4a1 1 0 0 0 1 1h4" /><path d="M5 12v-7a2 2 0 0 1 2 -2h7l5 5v4" /><path d="M4 15l2 6l2 -6" /><path d="M11 15v4.5a1.5 1.5 0 0 0 3 0v-4.5" /><path d="M20 15h-3v6h3" /><path d="M17 18h2" />
</symbol>
	<symbol id="file-type-xls" class="icon icon-tabler icon-tabler-file-type-xls" viewBox="0 0 24 24" stroke-width="2" stroke="currentColor" fill="none" stroke-linecap="round" stroke-linejoin="round"><path stroke="none" d="M0 0h24v24H0z" fill="none"/><path d="M14 3v4a1 1 0 0 0 1 1h4" /><path d="M5 12v-7a2 2 0 0 1 2 -2h7l5 5v4" /><path d="M4 15l4 6" /><path d="M4 21l4 -6" /><path d="M17 20.25c0 .414 .336 .75 .75 .75h1.25a1 1 0 0 0 1 -1v-1a1 1 0 0 0 -1 -1h-1a1 1 0 0 1 -1 -1v-1a1 1 0 0 1 1 -1h1.25a.75 .75 0 0 1 .75 .75" /><path d="M11 15v6h3" />
</symbol>
	<symbol id="file-type-xml" class="icon icon-tabler icon-tabler-file-type-xml" viewBox="0 0 24 24" stroke-width="2" stroke="currentColor" fill="none" stroke-linecap="round" stroke-linejoin="round"><path stroke="none" d="M0 0h24v24H0z" fill="none"/><path d="M14 3v4a1 1 0 0 0 1 1h4" /><path d="M5 12v-7a2 2 0 0 1 2 -2h7l5 5v4" /><path d="M4 15l4 6" /><path d="M4 21l4 -6" /><path d="M19 15v6h3" /><path d="M11 21v-6l2.5 3l2.5 -3v6" />
</symbol>
	<symbol id="file-type-zip" class="icon icon-tabler icon-tabler-file-type-zip" viewBox="0 0 24 24" stroke-width="2" stroke="currentColor" fill="none" stroke-linecap="round" stroke-linejoin="round"><path stroke="none" d="M0 0h24v24H0z" fill="none"/><path d="M14 3v4a1 1 0 0 0 1 1h4" /><path d="M5 12v-7a2 2 0 0 1 2 -2h7l5 5v4" /><path d="M16 18h1.5a1.5 1.5 0 0 0 0 -3h-1.5v6" /><path d="M12 15v6" /><path d="M5 15h3l-3 6h3" />
</symbol>
	<symbol id="quotes" class="icon icon-tabler icon-tabler-quotes" viewBox="0 0 24 24" stroke-width="2" stroke="currentColor" fill="none" stroke-linecap="round" stroke-linejoin="round"><path stroke="none" d="M0 0h24v24H0z" fill="none"/><path d="M4 12c-1.333 -1.854 -1.333 -4.146 0 -6" /><path d="M8 12c-1.333 -1.854 -1.333 -4.146 0 -6" /><path d="M16 18c1.333 -1.854 1.333 -4.146 0 -6" /><path d="M20 18c1.333 -1.854 1.333 -4.146 0 -6" />
</symbol>

	<use xlink:href="#air-traffic-control" x="24" y="24" width="24" height="24" />
	<use xlink:href="#brand-threads" x="68" y="24" width="24" height="24" />
	<use xlink:href="#briefcase-2" x="112" y="24" width="24" height="24" />
	<use xlink:href="#escalator-down" x="156" y="24" width="24" height="24" />
	<use xlink:href="#escalator-up" x="200" y="24" width="24" height="24" />
	<use xlink:href="#escalator" x="244" y="24" width="24" height="24" />
	<use xlink:href="#file-type-bmp" x="24" y="68" width="24" height="24" />
	<use xlink:href="#file-type-css" x="68" y="68" width="24" height="24" />
	<use xlink:href="#file-type-csv" x="112" y="68" width="24" height="24" />
	<use xlink:href="#file-type-doc" x="156" y="68" width="24" height="24" />
	<use xlink:href="#file-type-docx" x="200" y="68" width="24" height="24" />
	<use xlink:href="#file-type-html" x="244" y="68" width="24" height="24" />
	<use xlink:href="#file-type-jpg" x="24" y="112" width="24" height="24" />
	<use xlink:href="#file-type-js" x="68" y="112" width="24" height="24" />
	<use xlink:href="#file-type-jsx" x="112" y="112" width="24" height="24" />
	<use xlink:href="#file-type-pdf" x="156" y="112" width="24" height="24" />
	<use xlink:href="#file-type-php" x="200" y="112" width="24" height="24" />
	<use xlink:href="#file-type-png" x="244" y="112" width="24" height="24" />
	<use xlink:href="#file-type-ppt" x="24" y="156" width="24" height="24" />
	<use xlink:href="#file-type-rs" x="68" y="156" width="24" height="24" />
	<use xlink:href="#file-type-sql" x="112" y="156" width="24" height="24" />
	<use xlink:href="#file-type-svg" x="156" y="156" width="24" height="24" />
	<use xlink:href="#file-type-ts" x="200" y="156" width="24" height="24" />
	<use xlink:href="#file-type-tsx" x="244" y="156" width="24" height="24" />
	<use xlink:href="#file-type-txt" x="24" y="200" width="24" height="24" />
	<use xlink:href="#file-type-vue" x="68" y="200" width="24" height="24" />
	<use xlink:href="#file-type-xls" x="112" y="200" width="24" height="24" />
	<use xlink:href="#file-type-xml" x="156" y="200" width="24" height="24" />
	<use xlink:href="#file-type-zip" x="200" y="200" width="24" height="24" />
	<use xlink:href="#quotes" x="244" y="200" width="24" height="24" />

</svg>