<svg xmlns="http://www.w3.org/2000/svg" xmlns:xlink="http://www.w3.org/1999/xlink" viewBox="0 0 322 172" width="322" height="172" style="color: #354052"><rect x="0" y="0" width="322" height="172" fill="#fff"></rect>
	<symbol id="brand-notion" class="icon icon-tabler icon-tabler-brand-notion" viewBox="0 0 24 24" stroke-width="2" stroke="currentColor" fill="none" stroke-linecap="round" stroke-linejoin="round"><path stroke="none" d="M0 0h24v24H0z" fill="none"/><rect x="4" y="4" width="16" height="16" rx="2" /><path d="M7 7h3l6 6" /><path d="M8 7v10" /><path d="M7 17h2" /><path d="M15 7h2" /><path d="M16 7v10h-1l-7 -7" />
</symbol>
	<symbol id="device-watch-stats-2" class="icon icon-tabler icon-tabler-device-watch-stats-2" viewBox="0 0 24 24" stroke-width="2" stroke="currentColor" fill="none" stroke-linecap="round" stroke-linejoin="round"><path stroke="none" d="M0 0h24v24H0z" fill="none"/><rect x="6" y="6" width="12" height="12" rx="3" /><path d="M9 18v3h6v-3" /><path d="M9 6v-3h6v3" /><path d="M12 10a2 2 0 1 0 2 2" />
</symbol>
	<symbol id="device-watch-stats" class="icon icon-tabler icon-tabler-device-watch-stats" viewBox="0 0 24 24" stroke-width="2" stroke="currentColor" fill="none" stroke-linecap="round" stroke-linejoin="round"><path stroke="none" d="M0 0h24v24H0z" fill="none"/><rect x="6" y="6" width="12" height="12" rx="3" /><path d="M9 18v3h6v-3" /><path d="M9 6v-3h6v3" /><path d="M9 14v-4" /><path d="M12 14v-1" /><path d="M15 14v-3" />
</symbol>
	<symbol id="engine" class="icon icon-tabler icon-tabler-engine" viewBox="0 0 24 24" stroke-width="2" stroke="currentColor" fill="none" stroke-linecap="round" stroke-linejoin="round"><path stroke="none" d="M0 0h24v24H0z" fill="none"/><path d="M3 10v6" /><path d="M12 5v3" /><path d="M10 5h4" /><path d="M5 13h-2" /><path d="M6 10h2l2 -2h3.382a1 1 0 0 1 .894 .553l1.448 2.894a1 1 0 0 0 .894 .553h1.382v-2h2a1 1 0 0 1 1 1v6a1 1 0 0 1 -1 1h-2v-2h-3v2a1 1 0 0 1 -1 1h-3.465a1 1 0 0 1 -.832 -.445l-1.703 -2.555h-2v-6z" />
</symbol>
	<symbol id="git-pull-request-closed" class="icon icon-tabler icon-tabler-git-pull-request-closed" viewBox="0 0 24 24" stroke-width="2" stroke="currentColor" fill="none" stroke-linecap="round" stroke-linejoin="round"><path stroke="none" d="M0 0h24v24H0z" fill="none"/><circle cx="6" cy="18" r="2" /><circle cx="6" cy="6" r="2" /><circle cx="18" cy="18" r="2" /><path d="M6 8v8" /><path d="M18 11v5" /><path d="M16 4l4 4m0 -4l-4 4" />
</symbol>
	<symbol id="hotel-service" class="icon icon-tabler icon-tabler-hotel-service" viewBox="0 0 24 24" stroke-width="2" stroke="currentColor" fill="none" stroke-linecap="round" stroke-linejoin="round"><path stroke="none" d="M0 0h24v24H0z" fill="none"/><path d="M8.5 10a1.5 1.5 0 0 1 -1.5 -1.5a5.5 5.5 0 0 1 11 0v10.5a2 2 0 0 1 -2 2h-7a2 2 0 0 1 -2 -2v-2c0 -1.38 .71 -2.444 1.88 -3.175l4.424 -2.765c1.055 -.66 1.696 -1.316 1.696 -2.56a2.5 2.5 0 1 0 -5 0a1.5 1.5 0 0 1 -1.5 1.5z" />
</symbol>
	<symbol id="lemon-2" class="icon icon-tabler icon-tabler-lemon-2" viewBox="0 0 24 24" stroke-width="2" stroke="currentColor" fill="none" stroke-linecap="round" stroke-linejoin="round"><path stroke="none" d="M0 0h24v24H0z" fill="none"/><path d="M18 4a2 2 0 0 1 1.185 3.611c1.55 2.94 .873 6.917 -1.892 9.682c-2.765 2.765 -6.743 3.442 -9.682 1.892a2 2 0 1 1 -2.796 -2.796c-1.55 -2.94 -.873 -6.917 1.892 -9.682c2.765 -2.765 6.743 -3.442 9.682 -1.892a1.999 1.999 0 0 1 1.611 -.815z" />
</symbol>
	<symbol id="map-search" class="icon icon-tabler icon-tabler-map-search" viewBox="0 0 24 24" stroke-width="2" stroke="currentColor" fill="none" stroke-linecap="round" stroke-linejoin="round"><path stroke="none" d="M0 0h24v24H0z" fill="none"/><path d="M11 18l-2 -1l-6 3v-13l6 -3l6 3l6 -3v10" /><path d="M9 4v13" /><path d="M15 7v5" /><circle cx="16.5" cy="17.5" r="2.5" /><path d="M18.5 19.5l2.5 2.5" />
</symbol>
	<symbol id="puzzle-2" class="icon icon-tabler icon-tabler-puzzle-2" viewBox="0 0 24 24" stroke-width="2" stroke="currentColor" fill="none" stroke-linecap="round" stroke-linejoin="round"><path stroke="none" d="M0 0h24v24H0z" fill="none"/><rect x="4" y="4" width="16" height="16" rx="2" /><path d="M12 4v2.5a0.5 .5 0 0 1 -.5 .5a1.5 1.5 0 0 0 0 3a0.5 .5 0 0 1 .5 .5v1.5" /><path d="M12 12v1.5a0.5 .5 0 0 0 .5 .5a1.5 1.5 0 0 1 0 3a0.5 .5 0 0 0 -.5 .5v2.5" /><path d="M20 12h-2.5a0.5 .5 0 0 1 -.5 -.5a1.5 1.5 0 0 0 -3 0a0.5 .5 0 0 1 -.5 .5h-1.5" /><path d="M12 12h-1.5a0.5 .5 0 0 0 -.5 .5a1.5 1.5 0 0 1 -3 0a0.5 .5 0 0 0 -.5 -.5h-2.5" />
</symbol>
	<symbol id="report-search" class="icon icon-tabler icon-tabler-report-search" viewBox="0 0 24 24" stroke-width="2" stroke="currentColor" fill="none" stroke-linecap="round" stroke-linejoin="round"><path stroke="none" d="M0 0h24v24H0z" fill="none"/><path d="M8 5h-2a2 2 0 0 0 -2 2v12a2 2 0 0 0 2 2h5.697" /><path d="M18 12v-5a2 2 0 0 0 -2 -2h-2" /><rect x="8" y="3" width="6" height="4" rx="2" /><path d="M8 11h4" /><path d="M8 15h3" /><circle cx="16.5" cy="17.5" r="2.5" /><path d="M18.5 19.5l2.5 2.5" />
</symbol>
	<symbol id="rotate-360" class="icon icon-tabler icon-tabler-rotate-360" viewBox="0 0 24 24" stroke-width="2" stroke="currentColor" fill="none" stroke-linecap="round" stroke-linejoin="round"><path stroke="none" d="M0 0h24v24H0z" fill="none"/><path d="M12 16h4v4" /><path d="M19.458 11.042c.86 -2.366 .722 -4.58 -.6 -5.9c-2.272 -2.274 -7.185 -1.045 -10.973 2.743c-3.788 3.788 -5.017 8.701 -2.744 10.974c2.227 2.226 6.987 1.093 10.74 -2.515" />
</symbol>
	<symbol id="tags" class="icon icon-tabler icon-tabler-tags" viewBox="0 0 24 24" stroke-width="2" stroke="currentColor" fill="none" stroke-linecap="round" stroke-linejoin="round"><path stroke="none" d="M0 0h24v24H0z" fill="none"/><path d="M7.859 6h-2.834a2.025 2.025 0 0 0 -2.025 2.025v2.834c0 .537 .213 1.052 .593 1.432l6.116 6.116a2.025 2.025 0 0 0 2.864 0l2.834 -2.834a2.025 2.025 0 0 0 0 -2.864l-6.117 -6.116a2.025 2.025 0 0 0 -1.431 -.593z" /><path d="M17.573 18.407l2.834 -2.834a2.025 2.025 0 0 0 0 -2.864l-7.117 -7.116" /><path d="M6 9h-.01" />
</symbol>
	<symbol id="text-resize" class="icon icon-tabler icon-tabler-text-resize" viewBox="0 0 24 24" stroke-width="2" stroke="currentColor" fill="none" stroke-linecap="round" stroke-linejoin="round"><path stroke="none" d="M0 0h24v24H0z" fill="none"/><circle cx="5" cy="5" r="2" /><circle cx="19" cy="5" r="2" /><circle cx="5" cy="19" r="2" /><circle cx="19" cy="19" r="2" /><path d="M5 7v10" /><path d="M7 5h10" /><path d="M7 19h10" /><path d="M19 7v10" /><path d="M10 10h4" /><path d="M12 14v-4" />
</symbol>
	<symbol id="trash-x" class="icon icon-tabler icon-tabler-trash-x" viewBox="0 0 24 24" stroke-width="2" stroke="currentColor" fill="none" stroke-linecap="round" stroke-linejoin="round"><path stroke="none" d="M0 0h24v24H0z" fill="none"/><path d="M4 7h16" /><path d="M5 7l1 12a2 2 0 0 0 2 2h8a2 2 0 0 0 2 -2l1 -12" /><path d="M9 7v-3a1 1 0 0 1 1 -1h4a1 1 0 0 1 1 1v3" /><path d="M10 12l4 4m0 -4l-4 4" />
</symbol>
	<symbol id="user-search" class="icon icon-tabler icon-tabler-user-search" viewBox="0 0 24 24" stroke-width="2" stroke="currentColor" fill="none" stroke-linecap="round" stroke-linejoin="round"><path stroke="none" d="M0 0h24v24H0z" fill="none"/><circle cx="12" cy="7" r="4" /><path d="M6 21v-2a4 4 0 0 1 4 -4h1" /><circle cx="16.5" cy="17.5" r="2.5" /><path d="M18.5 19.5l2.5 2.5" />
</symbol>
	<symbol id="world-download" class="icon icon-tabler icon-tabler-world-download" viewBox="0 0 24 24" stroke-width="2" stroke="currentColor" fill="none" stroke-linecap="round" stroke-linejoin="round"><path stroke="none" d="M0 0h24v24H0z" fill="none"/><path d="M21 12a9 9 0 1 0 -9 9" /><path d="M3.6 9h16.8" /><path d="M3.6 15h8.4" /><path d="M11.578 3a17 17 0 0 0 0 18" /><path d="M12.5 3c1.719 2.755 2.5 5.876 2.5 9" /><path d="M18 14v7m-3 -3l3 3l3 -3" />
</symbol>
	<symbol id="world-upload" class="icon icon-tabler icon-tabler-world-upload" viewBox="0 0 24 24" stroke-width="2" stroke="currentColor" fill="none" stroke-linecap="round" stroke-linejoin="round"><path stroke="none" d="M0 0h24v24H0z" fill="none"/><path d="M21 12a9 9 0 1 0 -9 9" /><path d="M3.6 9h16.8" /><path d="M3.6 15h8.4" /><path d="M11.578 3a17 17 0 0 0 0 18" /><path d="M12.5 3c1.719 2.755 2.5 5.876 2.5 9" /><path d="M18 21v-7m3 3l-3 -3l-3 3" />
</symbol>

	<use xlink:href="#brand-notion" x="24" y="24" width="24" height="24" />
	<use xlink:href="#device-watch-stats-2" x="74" y="24" width="24" height="24" />
	<use xlink:href="#device-watch-stats" x="124" y="24" width="24" height="24" />
	<use xlink:href="#engine" x="174" y="24" width="24" height="24" />
	<use xlink:href="#git-pull-request-closed" x="224" y="24" width="24" height="24" />
	<use xlink:href="#hotel-service" x="274" y="24" width="24" height="24" />
	<use xlink:href="#lemon-2" x="24" y="74" width="24" height="24" />
	<use xlink:href="#map-search" x="74" y="74" width="24" height="24" />
	<use xlink:href="#puzzle-2" x="124" y="74" width="24" height="24" />
	<use xlink:href="#report-search" x="174" y="74" width="24" height="24" />
	<use xlink:href="#rotate-360" x="224" y="74" width="24" height="24" />
	<use xlink:href="#tags" x="274" y="74" width="24" height="24" />
	<use xlink:href="#text-resize" x="24" y="124" width="24" height="24" />
	<use xlink:href="#trash-x" x="74" y="124" width="24" height="24" />
	<use xlink:href="#user-search" x="124" y="124" width="24" height="24" />
	<use xlink:href="#world-download" x="174" y="124" width="24" height="24" />
	<use xlink:href="#world-upload" x="224" y="124" width="24" height="24" />

</svg>