<svg xmlns="http://www.w3.org/2000/svg" xmlns:xlink="http://www.w3.org/1999/xlink" viewBox="0 0 322 222" width="322" height="222" style="color: #354052"><rect x="0" y="0" width="322" height="222" fill="#fff"></rect>
	<symbol id="arrow-autofit-content" class="icon icon-tabler icon-tabler-arrow-autofit-content" viewBox="0 0 24 24" stroke-width="2" stroke="currentColor" fill="none" stroke-linecap="round" stroke-linejoin="round"><path stroke="none" d="M0 0h24v24H0z" fill="none"/><path d="M6 4l-3 3l3 3" /><path d="M18 4l3 3l-3 3" /><rect x="4" y="14" width="16" height="6" rx="2" /><path d="M10 7h-7" /><path d="M21 7h-7" />
</symbol>
	<symbol id="arrow-autofit-down" class="icon icon-tabler icon-tabler-arrow-autofit-down" viewBox="0 0 24 24" stroke-width="2" stroke="currentColor" fill="none" stroke-linecap="round" stroke-linejoin="round"><path stroke="none" d="M0 0h24v24H0z" fill="none"/><path d="M12 20h-6a2 2 0 0 1 -2 -2v-12a2 2 0 0 1 2 -2h8" /><path d="M18 4v17" /><path d="M15 18l3 3l3 -3" />
</symbol>
	<symbol id="arrow-autofit-height" class="icon icon-tabler icon-tabler-arrow-autofit-height" viewBox="0 0 24 24" stroke-width="2" stroke="currentColor" fill="none" stroke-linecap="round" stroke-linejoin="round"><path stroke="none" d="M0 0h24v24H0z" fill="none"/><path d="M12 20h-6a2 2 0 0 1 -2 -2v-12a2 2 0 0 1 2 -2h6" /><path d="M18 14v7" /><path d="M18 3v7" /><path d="M15 18l3 3l3 -3" /><path d="M15 6l3 -3l3 3" />
</symbol>
	<symbol id="arrow-autofit-left" class="icon icon-tabler icon-tabler-arrow-autofit-left" viewBox="0 0 24 24" stroke-width="2" stroke="currentColor" fill="none" stroke-linecap="round" stroke-linejoin="round"><path stroke="none" d="M0 0h24v24H0z" fill="none"/><path d="M4 12v-6a2 2 0 0 1 2 -2h12a2 2 0 0 1 2 2v8" /><path d="M20 18h-17" /><path d="M6 15l-3 3l3 3" />
</symbol>
	<symbol id="arrow-autofit-right" class="icon icon-tabler icon-tabler-arrow-autofit-right" viewBox="0 0 24 24" stroke-width="2" stroke="currentColor" fill="none" stroke-linecap="round" stroke-linejoin="round"><path stroke="none" d="M0 0h24v24H0z" fill="none"/><path d="M20 12v-6a2 2 0 0 0 -2 -2h-12a2 2 0 0 0 -2 2v8" /><path d="M4 18h17" /><path d="M18 15l3 3l-3 3" />
</symbol>
	<symbol id="arrow-autofit-up" class="icon icon-tabler icon-tabler-arrow-autofit-up" viewBox="0 0 24 24" stroke-width="2" stroke="currentColor" fill="none" stroke-linecap="round" stroke-linejoin="round"><path stroke="none" d="M0 0h24v24H0z" fill="none"/><path d="M12 4h-6a2 2 0 0 0 -2 2v12a2 2 0 0 0 2 2h8" /><path d="M18 20v-17" /><path d="M15 6l3 -3l3 3" />
</symbol>
	<symbol id="arrow-autofit-width" class="icon icon-tabler icon-tabler-arrow-autofit-width" viewBox="0 0 24 24" stroke-width="2" stroke="currentColor" fill="none" stroke-linecap="round" stroke-linejoin="round"><path stroke="none" d="M0 0h24v24H0z" fill="none"/><path d="M4 12v-6a2 2 0 0 1 2 -2h12a2 2 0 0 1 2 2v6" /><path d="M10 18h-7" /><path d="M21 18h-7" /><path d="M6 15l-3 3l3 3" /><path d="M18 15l3 3l-3 3" />
</symbol>
	<symbol id="arrows-diagonal-minimize-2" class="icon icon-tabler icon-tabler-arrows-diagonal-minimize-2" viewBox="0 0 24 24" stroke-width="2" stroke="currentColor" fill="none" stroke-linecap="round" stroke-linejoin="round"><path stroke="none" d="M0 0h24v24H0z" fill="none"/><path d="M18 10h-4v-4" /><path d="M20 4l-6 6" /><path d="M6 14h4v4" /><path d="M10 14l-6 6" />
</symbol>
	<symbol id="arrows-diagonal-minimize" class="icon icon-tabler icon-tabler-arrows-diagonal-minimize" viewBox="0 0 24 24" stroke-width="2" stroke="currentColor" fill="none" stroke-linecap="round" stroke-linejoin="round"><path stroke="none" d="M0 0h24v24H0z" fill="none"/><path d="M6 10h4v-4" /><path d="M4 4l6 6" /><path d="M18 14h-4v4" /><path d="M14 14l6 6" />
</symbol>
	<symbol id="ballon" class="icon icon-tabler icon-tabler-ballon" viewBox="0 0 24 24" stroke-width="2" stroke="currentColor" fill="none" stroke-linecap="round" stroke-linejoin="round"><path stroke="none" d="M0 0h24v24H0z" fill="none"/><path d="M14 8a2 2 0 0 0 -2 -2" /><path d="M6 8a6 6 0 1 1 12 0c0 4.97 -2.686 9 -6 9s-6 -4.03 -6 -9" /><path d="M12 17v1a2 2 0 0 1 -2 2h-3a2 2 0 0 0 -2 2" />
</symbol>
	<symbol id="battery-charging-2" class="icon icon-tabler icon-tabler-battery-charging-2" viewBox="0 0 24 24" stroke-width="2" stroke="currentColor" fill="none" stroke-linecap="round" stroke-linejoin="round"><path stroke="none" d="M0 0h24v24H0z" fill="none"/><path d="M4 9a2 2 0 0 1 2 -2h11a2 2 0 0 1 2 2v.5a0.5 .5 0 0 0 .5 .5a0.5 .5 0 0 1 .5 .5v3a0.5 .5 0 0 1 -.5 .5a0.5 .5 0 0 0 -.5 .5v.5a2 2 0 0 1 -2 2h-4.5" /><path d="M3 15h6v2a2 2 0 0 1 -2 2h-2a2 2 0 0 1 -2 -2v-2z" /><path d="M6 22v-3" /><path d="M4 15v-2.5" /><path d="M8 15v-2.5" />
</symbol>
	<symbol id="battery-eco" class="icon icon-tabler icon-tabler-battery-eco" viewBox="0 0 24 24" stroke-width="2" stroke="currentColor" fill="none" stroke-linecap="round" stroke-linejoin="round"><path stroke="none" d="M0 0h24v24H0z" fill="none"/><path d="M4 9a2 2 0 0 1 2 -2h11a2 2 0 0 1 2 2v.5a0.5 .5 0 0 0 .5 .5a0.5 .5 0 0 1 .5 .5v3a0.5 .5 0 0 1 -.5 .5a0.5 .5 0 0 0 -.5 .5v.5a2 2 0 0 1 -2 2h-5.5" /><path d="M3 16.143c0 -2.84 2.09 -5.143 4.667 -5.143h2.333v.857c0 2.84 -2.09 5.143 -4.667 5.143h-2.333v-.857z" /><path d="M3 20v-3" />
</symbol>
	<symbol id="beach" class="icon icon-tabler icon-tabler-beach" viewBox="0 0 24 24" stroke-width="2" stroke="currentColor" fill="none" stroke-linecap="round" stroke-linejoin="round"><path stroke="none" d="M0 0h24v24H0z" fill="none"/><path d="M17.553 16.75a7.5 7.5 0 0 0 -10.606 0" /><path d="M18 3.804a6 6 0 0 0 -8.196 2.196l10.392 6a6 6 0 0 0 -2.196 -8.196z" /><path d="M16.732 10c1.658 -2.87 2.225 -5.644 1.268 -6.196c-.957 -.552 -3.075 1.326 -4.732 4.196" /><path d="M15 9l-3 5.196" /><path d="M3 19.25a2.4 2.4 0 0 1 1 -.25a2.4 2.4 0 0 1 2 1a2.4 2.4 0 0 0 2 1a2.4 2.4 0 0 0 2 -1a2.4 2.4 0 0 1 2 -1a2.4 2.4 0 0 1 2 1a2.4 2.4 0 0 0 2 1a2.4 2.4 0 0 0 2 -1a2.4 2.4 0 0 1 2 -1a2.4 2.4 0 0 1 1 .25" />
</symbol>
	<symbol id="brand-bootstrap" class="icon icon-tabler icon-tabler-brand-bootstrap" viewBox="0 0 24 24" stroke-width="2" stroke="currentColor" fill="none" stroke-linecap="round" stroke-linejoin="round"><path stroke="none" d="M0 0h24v24H0z" fill="none"/><path d="M2 12a2 2 0 0 0 2 -2v-4a2 2 0 0 1 2 -2h12a2 2 0 0 1 2 2v4a2 2 0 0 0 2 2" /><path d="M2 12a2 2 0 0 1 2 2v4a2 2 0 0 0 2 2h12a2 2 0 0 0 2 -2v-4a2 2 0 0 1 2 -2" /><path d="M9 16v-8h3.5a2 2 0 1 1 0 4h-3.5h4a2 2 0 1 1 0 4h-4z" />
</symbol>
	<symbol id="highlight" class="icon icon-tabler icon-tabler-highlight" viewBox="0 0 24 24" stroke-width="2" stroke="currentColor" fill="none" stroke-linecap="round" stroke-linejoin="round"><path stroke="none" d="M0 0h24v24H0z" fill="none"/><path d="M3 19h4l10.5 -10.5a2.828 2.828 0 1 0 -4 -4l-10.5 10.5v4" /><path d="M12.5 5.5l4 4" /><path d="M4.5 13.5l4 4" /><path d="M21 15v4h-8l4 -4z" />
</symbol>
	<symbol id="list-details" class="icon icon-tabler icon-tabler-list-details" viewBox="0 0 24 24" stroke-width="2" stroke="currentColor" fill="none" stroke-linecap="round" stroke-linejoin="round"><path stroke="none" d="M0 0h24v24H0z" fill="none"/><path d="M13 5h8" /><path d="M13 9h5" /><path d="M13 15h8" /><path d="M13 19h5" /><rect x="3" y="4" width="6" height="6" rx="1" /><rect x="3" y="14" width="6" height="6" rx="1" />
</symbol>
	<symbol id="multiplier-0-5x" class="icon icon-tabler icon-tabler-multiplier-0-5x" viewBox="0 0 24 24" stroke-width="2" stroke="currentColor" fill="none" stroke-linecap="round" stroke-linejoin="round"><path stroke="none" d="M0 0h24v24H0z" fill="none"/><path d="M8 16h2a2 2 0 1 0 0 -4h-2v-4h4" /><path d="M5 16v.01" /><path d="M15 16l4 -4" /><path d="M19 16l-4 -4" />
</symbol>
	<symbol id="multiplier-1-5x" class="icon icon-tabler icon-tabler-multiplier-1-5x" viewBox="0 0 24 24" stroke-width="2" stroke="currentColor" fill="none" stroke-linecap="round" stroke-linejoin="round"><path stroke="none" d="M0 0h24v24H0z" fill="none"/><path d="M4 16v-8l-2 2" /><path d="M10 16h2a2 2 0 1 0 0 -4h-2v-4h4" /><path d="M7 16v.01" /><path d="M17 16l4 -4" /><path d="M21 16l-4 -4" />
</symbol>
	<symbol id="multiplier-1x" class="icon icon-tabler icon-tabler-multiplier-1x" viewBox="0 0 24 24" stroke-width="2" stroke="currentColor" fill="none" stroke-linecap="round" stroke-linejoin="round"><path stroke="none" d="M0 0h24v24H0z" fill="none"/><path d="M9 16v-8l-2 2" /><path d="M13 16l4 -4" /><path d="M17 16l-4 -4" />
</symbol>
	<symbol id="multiplier-2x" class="icon icon-tabler icon-tabler-multiplier-2x" viewBox="0 0 24 24" stroke-width="2" stroke="currentColor" fill="none" stroke-linecap="round" stroke-linejoin="round"><path stroke="none" d="M0 0h24v24H0z" fill="none"/><path d="M14 16l4 -4" /><path d="M18 16l-4 -4" /><path d="M6 10a2 2 0 1 1 4 0c0 .591 -.417 1.318 -.816 1.858l-3.184 4.143l4 -.001" />
</symbol>

	<use xlink:href="#arrow-autofit-content" x="24" y="24" width="24" height="24" />
	<use xlink:href="#arrow-autofit-down" x="74" y="24" width="24" height="24" />
	<use xlink:href="#arrow-autofit-height" x="124" y="24" width="24" height="24" />
	<use xlink:href="#arrow-autofit-left" x="174" y="24" width="24" height="24" />
	<use xlink:href="#arrow-autofit-right" x="224" y="24" width="24" height="24" />
	<use xlink:href="#arrow-autofit-up" x="274" y="24" width="24" height="24" />
	<use xlink:href="#arrow-autofit-width" x="24" y="74" width="24" height="24" />
	<use xlink:href="#arrows-diagonal-minimize-2" x="74" y="74" width="24" height="24" />
	<use xlink:href="#arrows-diagonal-minimize" x="124" y="74" width="24" height="24" />
	<use xlink:href="#ballon" x="174" y="74" width="24" height="24" />
	<use xlink:href="#battery-charging-2" x="224" y="74" width="24" height="24" />
	<use xlink:href="#battery-eco" x="274" y="74" width="24" height="24" />
	<use xlink:href="#beach" x="24" y="124" width="24" height="24" />
	<use xlink:href="#brand-bootstrap" x="74" y="124" width="24" height="24" />
	<use xlink:href="#highlight" x="124" y="124" width="24" height="24" />
	<use xlink:href="#list-details" x="174" y="124" width="24" height="24" />
	<use xlink:href="#multiplier-0-5x" x="224" y="124" width="24" height="24" />
	<use xlink:href="#multiplier-1-5x" x="274" y="124" width="24" height="24" />
	<use xlink:href="#multiplier-1x" x="24" y="174" width="24" height="24" />
	<use xlink:href="#multiplier-2x" x="74" y="174" width="24" height="24" />

</svg>