<svg xmlns="http://www.w3.org/2000/svg" xmlns:xlink="http://www.w3.org/1999/xlink" viewBox="0 0 322 172" width="322" height="172" style="color: #354052"><rect x="0" y="0" width="322" height="172" fill="#fff"></rect>
	<symbol id="biohazard" class="icon icon-tabler icon-tabler-biohazard" viewBox="0 0 24 24" stroke-width="2" stroke="currentColor" fill="none" stroke-linecap="round" stroke-linejoin="round"><path stroke="none" d="M0 0h24v24H0z"/><circle cx="12" cy="12" r="2" /><path d="M11.939 14 c0.03 0.173 0.048 0.351 0.056 0.533 l 0.005 0.217 a4.75 4.75 0 0 1 -4.533 4.745 l -0.217 0.005 m -4.75 -4.75 a4.75 4.75 0 0 1 7.737 -3.693 m 6.513 8.443 a4.75 4.75 0 0 1 -4.69 -5.503 l -0.06 0.003 m 1.764 -2.944 a4.75 4.75 0 0 1 7.731 3.477 l 0.005 0.217 m -11.195 -3.813 a4.75 4.75 0 0 1 -1.828 -7.624 l 0.164 -0.172 m 6.718 0 a4.75 4.75 0 0 1 -1.665 7.798" />
</symbol>
	<symbol id="fall" class="icon icon-tabler icon-tabler-fall" viewBox="0 0 24 24" stroke-width="2" stroke="currentColor" fill="none" stroke-linecap="round" stroke-linejoin="round"><path stroke="none" d="M0 0h24v24H0z"/><path d="M11 21l1-5-1-4-3-4h4l3-3" /><path d="M6 16l-1-4l3-4" /><circle cx="6" cy="5" r="1" /><path d="M13.5 12h2.5l4 2" />
</symbol>
	<symbol id="heart-broken" class="icon icon-tabler icon-tabler-heart-broken" viewBox="0 0 24 24" stroke-width="2" stroke="currentColor" fill="none" stroke-linecap="round" stroke-linejoin="round"><path stroke="none" d="M0 0h24v24H0z"/><path d="M19.5 13.572 l-7.5 7.428 l-7.5 -7.428a5 5 0 1 1 7.5 -6.566 a5 5 0 1 1 7.5 6.572" /><path d="M12 7l-2 4l4 3l-2 4v3" />
</symbol>
	<symbol id="mood-cry" class="icon icon-tabler icon-tabler-mood-cry" viewBox="0 0 24 24" stroke-width="2" stroke="currentColor" fill="none" stroke-linecap="round" stroke-linejoin="round"><path stroke="none" d="M0 0h24v24H0z"/><line x1="9" y1="10" x2="9.01" y2="10" /><line x1="15" y1="10" x2="15.01" y2="10" /><path d="M9.5 15.25a3.5 3.5 0 0 1 5 0" /><path d="M17.566 17.606 a2 2 0 1 0 2.897 0.03 l-1.463 -1.636 l-1.434 1.606z" /><path d="M20.865 13.517 a8.937 8.937 0 0 0 0.135 -1.517 a9 9 0 1 0 -9 9 c0.69 0 1.36 -0.076 2.005 -0.222" />
</symbol>
	<symbol id="moped" class="icon icon-tabler icon-tabler-moped" viewBox="0 0 24 24" stroke-width="2" stroke="currentColor" fill="none" stroke-linecap="round" stroke-linejoin="round"><path stroke="none" d="M0 0h24v24H0z"/><circle cx="18" cy="17" r="2" /><path d="M5 16v1a2 2 0 0 0 4 0v-5h-3a3 3 0 0 0 -3 3v1h10a6 6 0 0 1 5 -4v-5a2 2 0 0 0 -2 -2h-1" /><line x1="6" y1="9" x2="9" y2="9" />
</symbol>
	<symbol id="octagon" class="icon icon-tabler icon-tabler-octagon" viewBox="0 0 24 24" stroke-width="2" stroke="currentColor" fill="none" stroke-linecap="round" stroke-linejoin="round"><path stroke="none" d="M0 0h24v24H0z"/><path d="M8.274 3 h 7.452 l 5.274 5.274 v 7.452 l -5.274 5.274 h -7.452 l -5.274 -5.274 v -7.452 z" />
</symbol>
	<symbol id="peace" class="icon icon-tabler icon-tabler-peace" viewBox="0 0 24 24" stroke-width="2" stroke="currentColor" fill="none" stroke-linecap="round" stroke-linejoin="round"><path stroke="none" d="M0 0h24v24H0z"/><circle cx="12" cy="12" r="9" /><line x1="12" y1="3" x2="12" y2="21" /><line x1="12" y1="12" x2="18.3" y2="18.3" /><line x1="12" y1="12" x2="5.7" y2="18.3" />
</symbol>
	<symbol id="pray" class="icon icon-tabler icon-tabler-pray" viewBox="0 0 24 24" stroke-width="2" stroke="currentColor" fill="none" stroke-linecap="round" stroke-linejoin="round"><path stroke="none" d="M0 0h24v24H0z"/><circle cx="12" cy="5" r="1" /><path d="M7 20h8l-4 -4v-7l4 3l2 -2" />
</symbol>
	<symbol id="radioactive" class="icon icon-tabler icon-tabler-radioactive" viewBox="0 0 24 24" stroke-width="2" stroke="currentColor" fill="none" stroke-linecap="round" stroke-linejoin="round"><path stroke="none" d="M0 0h24v24H0z"/><path d="M13.5 14.6 l 3 5.19 a9 9 0 0 0 4.5 -7.79 h -6 a3 3 0 0 1 -1.5 2.6" /><path d="M13.5 9.4 l 3 -5.19 a9 9 0 0 0 -9 0 l 3 5.19 a3 3 0 0 1 3 0" /><path d="M10.5 14.6 l -3 5.19 a9 9 0 0 1 -4.5 -7.79 h6 a3 3 0 0 0 1.5 2.6" />
</symbol>
	<symbol id="skateboard" class="icon icon-tabler icon-tabler-skateboard" viewBox="0 0 24 24" stroke-width="2" stroke="currentColor" fill="none" stroke-linecap="round" stroke-linejoin="round"><path stroke="none" d="M0 0h24v24H0z"/><circle cx="7" cy="15" r="2" /><circle cx="17" cy="15" r="2" /><path d="M3 9a2 1 0 0 0 2 1h14a2 1 0 0 0 2 -1" />
</symbol>
	<symbol id="smoking-no" class="icon icon-tabler icon-tabler-smoking-no" viewBox="0 0 24 24" stroke-width="2" stroke="currentColor" fill="none" stroke-linecap="round" stroke-linejoin="round"><path stroke="none" d="M0 0h24v24H0z"/><rect x="3" y="13" width="18" height="4" rx="1" /><line x1="8" y1="13" x2="8" y2="17" /><path d="M16 5v.5a2 2 0 0 0 2 2a2 2 0 0 1 2 2v.5" /><line x1="3" y1="3" x2="21" y2="21" />
</symbol>
	<symbol id="smoking" class="icon icon-tabler icon-tabler-smoking" viewBox="0 0 24 24" stroke-width="2" stroke="currentColor" fill="none" stroke-linecap="round" stroke-linejoin="round"><path stroke="none" d="M0 0h24v24H0z"/><rect x="3" y="13" width="18" height="4" rx="1" /><line x1="8" y1="13" x2="8" y2="17" /><path d="M16 5v.5a2 2 0 0 0 2 2a2 2 0 0 1 2 2v.5" />
</symbol>
	<symbol id="trident" class="icon icon-tabler icon-tabler-trident" viewBox="0 0 24 24" stroke-width="2" stroke="currentColor" fill="none" stroke-linecap="round" stroke-linejoin="round"><path stroke="none" d="M0 0h24v24H0z"/><path d="M3 6l2 -2v3a7 7 0 0 0 14 0v-3l2 2" /><path d="M12 21v-18l-2 2m4 0l-2 -2" />
</symbol>

	<use xlink:href="#biohazard" x="24" y="24" width="24" height="24" />
	<use xlink:href="#fall" x="74" y="24" width="24" height="24" />
	<use xlink:href="#heart-broken" x="124" y="24" width="24" height="24" />
	<use xlink:href="#mood-cry" x="174" y="24" width="24" height="24" />
	<use xlink:href="#moped" x="224" y="24" width="24" height="24" />
	<use xlink:href="#octagon" x="274" y="24" width="24" height="24" />
	<use xlink:href="#peace" x="24" y="74" width="24" height="24" />
	<use xlink:href="#pray" x="74" y="74" width="24" height="24" />
	<use xlink:href="#radioactive" x="124" y="74" width="24" height="24" />
	<use xlink:href="#skateboard" x="174" y="74" width="24" height="24" />
	<use xlink:href="#smoking-no" x="224" y="74" width="24" height="24" />
	<use xlink:href="#smoking" x="274" y="74" width="24" height="24" />
	<use xlink:href="#trident" x="24" y="124" width="24" height="24" />

</svg>