<svg xmlns="http://www.w3.org/2000/svg" xmlns:xlink="http://www.w3.org/1999/xlink" viewBox="0 0 292 160" width="292" height="160" style="color: #354052"><rect x="0" y="0" width="292" height="160" fill="#fff"></rect>
	<symbol id="backslash" class="icon icon-tabler icon-tabler-backslash" viewBox="0 0 24 24" stroke-width="2" stroke="currentColor" fill="none" stroke-linecap="round" stroke-linejoin="round"><path stroke="none" d="M0 0h24v24H0z" fill="none"/><path d="M7 5l10 14" />
</symbol>
	<symbol id="rewind-backward-10" class="icon icon-tabler icon-tabler-rewind-backward-10" viewBox="0 0 24 24" stroke-width="2" stroke="currentColor" fill="none" stroke-linecap="round" stroke-linejoin="round"><path stroke="none" d="M0 0h24v24H0z" fill="none"/><path d="M7 9l-3 -3l3 -3" /><path d="M15.997 17.918a6.002 6.002 0 0 0 -.997 -11.918h-11" /><path d="M6 14v6" /><path d="M9 15.5v3a1.5 1.5 0 0 0 3 0v-3a1.5 1.5 0 0 0 -3 0z" />
</symbol>
	<symbol id="rewind-backward-15" class="icon icon-tabler icon-tabler-rewind-backward-15" viewBox="0 0 24 24" stroke-width="2" stroke="currentColor" fill="none" stroke-linecap="round" stroke-linejoin="round"><path stroke="none" d="M0 0h24v24H0z" fill="none"/><path d="M8 20h2a1 1 0 0 0 1 -1v-1a1 1 0 0 0 -1 -1h-2v-3h3" /><path d="M15 18a6 6 0 1 0 0 -12h-11" /><path d="M5 14v6" /><path d="M7 9l-3 -3l3 -3" />
</symbol>
	<symbol id="rewind-backward-20" class="icon icon-tabler icon-tabler-rewind-backward-20" viewBox="0 0 24 24" stroke-width="2" stroke="currentColor" fill="none" stroke-linecap="round" stroke-linejoin="round"><path stroke="none" d="M0 0h24v24H0z" fill="none"/><path d="M19.007 16.466a6 6 0 0 0 -4.007 -10.466h-11" /><path d="M7 9l-3 -3l3 -3" /><path d="M12 15.5v3a1.5 1.5 0 0 0 3 0v-3a1.5 1.5 0 0 0 -3 0z" /><path d="M6 14h2a1 1 0 0 1 1 1v1a1 1 0 0 1 -1 1h-1a1 1 0 0 0 -1 1v1a1 1 0 0 0 1 1h2" />
</symbol>
	<symbol id="rewind-backward-30" class="icon icon-tabler icon-tabler-rewind-backward-30" viewBox="0 0 24 24" stroke-width="2" stroke="currentColor" fill="none" stroke-linecap="round" stroke-linejoin="round"><path stroke="none" d="M0 0h24v24H0z" fill="none"/><path d="M19.007 16.466a6 6 0 0 0 -4.007 -10.466h-11" /><path d="M12 15.5v3a1.5 1.5 0 0 0 3 0v-3a1.5 1.5 0 0 0 -3 0z" /><path d="M6 14h1.5a1.5 1.5 0 0 1 0 3h-.5h.5a1.5 1.5 0 0 1 0 3h-1.5" /><path d="M7 9l-3 -3l3 -3" />
</symbol>
	<symbol id="rewind-backward-40" class="icon icon-tabler icon-tabler-rewind-backward-40" viewBox="0 0 24 24" stroke-width="2" stroke="currentColor" fill="none" stroke-linecap="round" stroke-linejoin="round"><path stroke="none" d="M0 0h24v24H0z" fill="none"/><path d="M19.007 16.466a6 6 0 0 0 -4.007 -10.466h-11" /><path d="M12 15.5v3a1.5 1.5 0 0 0 3 0v-3a1.5 1.5 0 0 0 -3 0z" /><path d="M6 14v2a1 1 0 0 0 1 1h1" /><path d="M9 14v6" /><path d="M7 9l-3 -3l3 -3" />
</symbol>
	<symbol id="rewind-backward-5" class="icon icon-tabler icon-tabler-rewind-backward-5" viewBox="0 0 24 24" stroke-width="2" stroke="currentColor" fill="none" stroke-linecap="round" stroke-linejoin="round"><path stroke="none" d="M0 0h24v24H0z" fill="none"/><path d="M15 18a6 6 0 1 0 0 -12h-11" /><path d="M7 9l-3 -3l3 -3" /><path d="M8 20h2a1 1 0 0 0 1 -1v-1a1 1 0 0 0 -1 -1h-2v-3h3" />
</symbol>
	<symbol id="rewind-backward-50" class="icon icon-tabler icon-tabler-rewind-backward-50" viewBox="0 0 24 24" stroke-width="2" stroke="currentColor" fill="none" stroke-linecap="round" stroke-linejoin="round"><path stroke="none" d="M0 0h24v24H0z" fill="none"/><path d="M19.007 16.466a6 6 0 0 0 -4.007 -10.466h-11" /><path d="M12 15.5v3a1.5 1.5 0 0 0 3 0v-3a1.5 1.5 0 0 0 -3 0z" /><path d="M6 20h1.5a1.5 1.5 0 0 0 0 -3h-1.5v-3h3" /><path d="M7 9l-3 -3l3 -3" />
</symbol>
	<symbol id="rewind-backward-60" class="icon icon-tabler icon-tabler-rewind-backward-60" viewBox="0 0 24 24" stroke-width="2" stroke="currentColor" fill="none" stroke-linecap="round" stroke-linejoin="round"><path stroke="none" d="M0 0h24v24H0z" fill="none"/><path d="M19.007 16.466a6 6 0 0 0 -4.007 -10.466h-11" /><path d="M7 9l-3 -3l3 -3" /><path d="M12 15.5v3a1.5 1.5 0 0 0 3 0v-3a1.5 1.5 0 0 0 -3 0z" /><path d="M9 14h-2a1 1 0 0 0 -1 1v4a1 1 0 0 0 1 1h1a1 1 0 0 0 1 -1v-1a1 1 0 0 0 -1 -1h-2" />
</symbol>
	<symbol id="rewind-forward-10" class="icon icon-tabler icon-tabler-rewind-forward-10" viewBox="0 0 24 24" stroke-width="2" stroke="currentColor" fill="none" stroke-linecap="round" stroke-linejoin="round"><path stroke="none" d="M0 0h24v24H0z" fill="none"/><path d="M17 9l3 -3l-3 -3" /><path d="M8 17.918a5.997 5.997 0 0 1 -5 -5.918a6 6 0 0 1 6 -6h11" /><path d="M12 14v6" /><path d="M15 15.5v3a1.5 1.5 0 0 0 3 0v-3a1.5 1.5 0 0 0 -3 0z" />
</symbol>
	<symbol id="rewind-forward-15" class="icon icon-tabler icon-tabler-rewind-forward-15" viewBox="0 0 24 24" stroke-width="2" stroke="currentColor" fill="none" stroke-linecap="round" stroke-linejoin="round"><path stroke="none" d="M0 0h24v24H0z" fill="none"/><path d="M17 9l3 -3l-3 -3" /><path d="M9 18a6 6 0 1 1 0 -12h11" /><path d="M16 20h2a1 1 0 0 0 1 -1v-1a1 1 0 0 0 -1 -1h-2v-3h3" /><path d="M13 14v6" />
</symbol>
	<symbol id="rewind-forward-20" class="icon icon-tabler icon-tabler-rewind-forward-20" viewBox="0 0 24 24" stroke-width="2" stroke="currentColor" fill="none" stroke-linecap="round" stroke-linejoin="round"><path stroke="none" d="M0 0h24v24H0z" fill="none"/><path d="M5.007 16.478a6 6 0 0 1 3.993 -10.478h11" /><path d="M15 15.5v3a1.5 1.5 0 0 0 3 0v-3a1.5 1.5 0 0 0 -3 0z" /><path d="M17 9l3 -3l-3 -3" /><path d="M9 14h2a1 1 0 0 1 1 1v1a1 1 0 0 1 -1 1h-1a1 1 0 0 0 -1 1v1a1 1 0 0 0 1 1h2" />
</symbol>
	<symbol id="rewind-forward-30" class="icon icon-tabler icon-tabler-rewind-forward-30" viewBox="0 0 24 24" stroke-width="2" stroke="currentColor" fill="none" stroke-linecap="round" stroke-linejoin="round"><path stroke="none" d="M0 0h24v24H0z" fill="none"/><path d="M5.007 16.478a6 6 0 0 1 3.993 -10.478h11" /><path d="M15 15.5v3a1.5 1.5 0 0 0 3 0v-3a1.5 1.5 0 0 0 -3 0z" /><path d="M17 9l3 -3l-3 -3" /><path d="M9 14h1.5a1.5 1.5 0 0 1 0 3h-.5h.5a1.5 1.5 0 0 1 0 3h-1.5" />
</symbol>
	<symbol id="rewind-forward-40" class="icon icon-tabler icon-tabler-rewind-forward-40" viewBox="0 0 24 24" stroke-width="2" stroke="currentColor" fill="none" stroke-linecap="round" stroke-linejoin="round"><path stroke="none" d="M0 0h24v24H0z" fill="none"/><path d="M5.007 16.478a6 6 0 0 1 3.993 -10.478h11" /><path d="M15 15.5v3a1.5 1.5 0 0 0 3 0v-3a1.5 1.5 0 0 0 -3 0z" /><path d="M17 9l3 -3l-3 -3" /><path d="M9 14v2a1 1 0 0 0 1 1h1" /><path d="M12 14v6" />
</symbol>
	<symbol id="rewind-forward-5" class="icon icon-tabler icon-tabler-rewind-forward-5" viewBox="0 0 24 24" stroke-width="2" stroke="currentColor" fill="none" stroke-linecap="round" stroke-linejoin="round"><path stroke="none" d="M0 0h24v24H0z" fill="none"/><path d="M9 18a6 6 0 1 1 0 -12h11" /><path d="M13 20h2a1 1 0 0 0 1 -1v-1a1 1 0 0 0 -1 -1h-2v-3h3" /><path d="M17 9l3 -3l-3 -3" />
</symbol>
	<symbol id="rewind-forward-50" class="icon icon-tabler icon-tabler-rewind-forward-50" viewBox="0 0 24 24" stroke-width="2" stroke="currentColor" fill="none" stroke-linecap="round" stroke-linejoin="round"><path stroke="none" d="M0 0h24v24H0z" fill="none"/><path d="M5.007 16.478a6 6 0 0 1 3.993 -10.478h11" /><path d="M15 15.5v3a1.5 1.5 0 0 0 3 0v-3a1.5 1.5 0 0 0 -3 0z" /><path d="M17 9l3 -3l-3 -3" /><path d="M9 20h1.5a1.5 1.5 0 0 0 0 -3h-1.5v-3h3" />
</symbol>
	<symbol id="rewind-forward-60" class="icon icon-tabler icon-tabler-rewind-forward-60" viewBox="0 0 24 24" stroke-width="2" stroke="currentColor" fill="none" stroke-linecap="round" stroke-linejoin="round"><path stroke="none" d="M0 0h24v24H0z" fill="none"/><path d="M5.007 16.478a6 6 0 0 1 3.993 -10.478h11" /><path d="M15 15.5v3a1.5 1.5 0 0 0 3 0v-3a1.5 1.5 0 0 0 -3 0z" /><path d="M17 9l3 -3l-3 -3" /><path d="M12 14h-2a1 1 0 0 0 -1 1v4a1 1 0 0 0 1 1h1a1 1 0 0 0 1 -1v-1a1 1 0 0 0 -1 -1h-2" />
</symbol>
	<symbol id="skateboarding" class="icon icon-tabler icon-tabler-skateboarding" viewBox="0 0 24 24" stroke-width="2" stroke="currentColor" fill="none" stroke-linecap="round" stroke-linejoin="round"><path stroke="none" d="M0 0h24v24H0z" fill="none"/><path d="M16 4a1 1 0 1 0 2 0a1 1 0 0 0 -2 0" /><path d="M5.5 15h3.5l.75 -1.5" /><path d="M14 19v-5l-2.5 -3l2.5 -4" /><path d="M8 8l3 -1h4l1 3h3" /><path d="M17.5 21a.5 .5 0 1 0 0 -1a.5 .5 0 0 0 0 1z" fill="currentColor" /><path d="M3 18c0 .552 .895 1 2 1h14c1.105 0 2 -.448 2 -1" /><path d="M6.5 21a.5 .5 0 1 0 0 -1a.5 .5 0 0 0 0 1z" fill="currentColor" />
</symbol>

	<use xlink:href="#backslash" x="24" y="24" width="24" height="24" />
	<use xlink:href="#rewind-backward-10" x="68" y="24" width="24" height="24" />
	<use xlink:href="#rewind-backward-15" x="112" y="24" width="24" height="24" />
	<use xlink:href="#rewind-backward-20" x="156" y="24" width="24" height="24" />
	<use xlink:href="#rewind-backward-30" x="200" y="24" width="24" height="24" />
	<use xlink:href="#rewind-backward-40" x="244" y="24" width="24" height="24" />
	<use xlink:href="#rewind-backward-5" x="24" y="68" width="24" height="24" />
	<use xlink:href="#rewind-backward-50" x="68" y="68" width="24" height="24" />
	<use xlink:href="#rewind-backward-60" x="112" y="68" width="24" height="24" />
	<use xlink:href="#rewind-forward-10" x="156" y="68" width="24" height="24" />
	<use xlink:href="#rewind-forward-15" x="200" y="68" width="24" height="24" />
	<use xlink:href="#rewind-forward-20" x="244" y="68" width="24" height="24" />
	<use xlink:href="#rewind-forward-30" x="24" y="112" width="24" height="24" />
	<use xlink:href="#rewind-forward-40" x="68" y="112" width="24" height="24" />
	<use xlink:href="#rewind-forward-5" x="112" y="112" width="24" height="24" />
	<use xlink:href="#rewind-forward-50" x="156" y="112" width="24" height="24" />
	<use xlink:href="#rewind-forward-60" x="200" y="112" width="24" height="24" />
	<use xlink:href="#skateboarding" x="244" y="112" width="24" height="24" />

</svg>