<svg xmlns="http://www.w3.org/2000/svg" xmlns:xlink="http://www.w3.org/1999/xlink" viewBox="0 0 292 160" width="292" height="160" style="color: #354052"><rect x="0" y="0" width="292" height="160" fill="#fff"></rect>
	<symbol id="arrow-big-down-filled" class="icon icon-tabler icon-tabler-arrow-big-down-filled" viewBox="0 0 24 24" stroke-width="2" stroke="currentColor" fill="none" stroke-linecap="round" stroke-linejoin="round"><path stroke="none" d="M0 0h24v24H0z" fill="none"/><path d="M15 4v8h3.586a1 1 0 0 1 .707 1.707l-6.586 6.586a1 1 0 0 1 -1.414 0l-6.586 -6.586a1 1 0 0 1 .707 -1.707h3.586v-8a1 1 0 0 1 1 -1h4a1 1 0 0 1 1 1z" fill="currentColor" />
</symbol>
	<symbol id="arrow-big-down-line-filled" class="icon icon-tabler icon-tabler-arrow-big-down-line-filled" viewBox="0 0 24 24" stroke-width="2" stroke="currentColor" fill="none" stroke-linecap="round" stroke-linejoin="round"><path stroke="none" d="M0 0h24v24H0z" fill="none"/><path d="M15 12h3.586a1 1 0 0 1 .707 1.707l-6.586 6.586a1 1 0 0 1 -1.414 0l-6.586 -6.586a1 1 0 0 1 .707 -1.707h3.586v-6h6v6z" fill="currentColor" /><path d="M15 3h-6" />
</symbol>
	<symbol id="arrow-big-down-lines-filled" class="icon icon-tabler icon-tabler-arrow-big-down-lines-filled" viewBox="0 0 24 24" stroke-width="2" stroke="currentColor" fill="none" stroke-linecap="round" stroke-linejoin="round"><path stroke="none" d="M0 0h24v24H0z" fill="none"/><path d="M15 12h3.586a1 1 0 0 1 .707 1.707l-6.586 6.586a1 1 0 0 1 -1.414 0l-6.586 -6.586a1 1 0 0 1 .707 -1.707h3.586v-3h6v3z" fill="currentColor" /><path d="M15 3h-6" /><path d="M15 6h-6" />
</symbol>
	<symbol id="arrow-big-left-filled" class="icon icon-tabler icon-tabler-arrow-big-left-filled" viewBox="0 0 24 24" stroke-width="2" stroke="currentColor" fill="none" stroke-linecap="round" stroke-linejoin="round"><path stroke="none" d="M0 0h24v24H0z" fill="none"/><path d="M20 15h-8v3.586a1 1 0 0 1 -1.707 .707l-6.586 -6.586a1 1 0 0 1 0 -1.414l6.586 -6.586a1 1 0 0 1 1.707 .707v3.586h8a1 1 0 0 1 1 1v4a1 1 0 0 1 -1 1z" fill="currentColor" />
</symbol>
	<symbol id="arrow-big-left-line-filled" class="icon icon-tabler icon-tabler-arrow-big-left-line-filled" viewBox="0 0 24 24" stroke-width="2" stroke="currentColor" fill="none" stroke-linecap="round" stroke-linejoin="round"><path stroke="none" d="M0 0h24v24H0z" fill="none"/><path d="M12 15v3.586a1 1 0 0 1 -1.707 .707l-6.586 -6.586a1 1 0 0 1 0 -1.414l6.586 -6.586a1 1 0 0 1 1.707 .707v3.586h6v6h-6z" fill="currentColor" /><path d="M21 15v-6" />
</symbol>
	<symbol id="arrow-big-left-lines-filled" class="icon icon-tabler icon-tabler-arrow-big-left-lines-filled" viewBox="0 0 24 24" stroke-width="2" stroke="currentColor" fill="none" stroke-linecap="round" stroke-linejoin="round"><path stroke="none" d="M0 0h24v24H0z" fill="none"/><path d="M12 15v3.586a1 1 0 0 1 -1.707 .707l-6.586 -6.586a1 1 0 0 1 0 -1.414l6.586 -6.586a1 1 0 0 1 1.707 .707v3.586h3v6h-3z" fill="currentColor" /><path d="M21 15v-6" /><path d="M18 15v-6" />
</symbol>
	<symbol id="arrow-big-right-filled" class="icon icon-tabler icon-tabler-arrow-big-right-filled" viewBox="0 0 24 24" stroke-width="2" stroke="currentColor" fill="none" stroke-linecap="round" stroke-linejoin="round"><path stroke="none" d="M0 0h24v24H0z" fill="none"/><path d="M4 9h8v-3.586a1 1 0 0 1 1.707 -.707l6.586 6.586a1 1 0 0 1 0 1.414l-6.586 6.586a1 1 0 0 1 -1.707 -.707v-3.586h-8a1 1 0 0 1 -1 -1v-4a1 1 0 0 1 1 -1z" fill="currentColor" />
</symbol>
	<symbol id="arrow-big-right-line-filled" class="icon icon-tabler icon-tabler-arrow-big-right-line-filled" viewBox="0 0 24 24" stroke-width="2" stroke="currentColor" fill="none" stroke-linecap="round" stroke-linejoin="round"><path stroke="none" d="M0 0h24v24H0z" fill="none"/><path d="M12 9v-3.586a1 1 0 0 1 1.707 -.707l6.586 6.586a1 1 0 0 1 0 1.414l-6.586 6.586a1 1 0 0 1 -1.707 -.707v-3.586h-6v-6h6z" fill="currentColor" /><path d="M3 15v-6" />
</symbol>
	<symbol id="arrow-big-right-lines-filled" class="icon icon-tabler icon-tabler-arrow-big-right-lines-filled" viewBox="0 0 24 24" stroke-width="2" stroke="currentColor" fill="none" stroke-linecap="round" stroke-linejoin="round"><path stroke="none" d="M0 0h24v24H0z" fill="none"/><path d="M12 9v-3.586a1 1 0 0 1 1.707 -.707l6.586 6.586a1 1 0 0 1 0 1.414l-6.586 6.586a1 1 0 0 1 -1.707 -.707v-3.586h-3v-6h3z" fill="currentColor" /><path d="M3 9v6" /><path d="M6 9v6" />
</symbol>
	<symbol id="arrow-big-up-filled" class="icon icon-tabler icon-tabler-arrow-big-up-filled" viewBox="0 0 24 24" stroke-width="2" stroke="currentColor" fill="none" stroke-linecap="round" stroke-linejoin="round"><path stroke="none" d="M0 0h24v24H0z" fill="none"/><path d="M9 20v-8h-3.586a1 1 0 0 1 -.707 -1.707l6.586 -6.586a1 1 0 0 1 1.414 0l6.586 6.586a1 1 0 0 1 -.707 1.707h-3.586v8a1 1 0 0 1 -1 1h-4a1 1 0 0 1 -1 -1z" fill="currentColor" />
</symbol>
	<symbol id="arrow-big-up-line-filled" class="icon icon-tabler icon-tabler-arrow-big-up-line-filled" viewBox="0 0 24 24" stroke-width="2" stroke="currentColor" fill="none" stroke-linecap="round" stroke-linejoin="round"><path stroke="none" d="M0 0h24v24H0z" fill="none"/><path d="M9 12h-3.586a1 1 0 0 1 -.707 -1.707l6.586 -6.586a1 1 0 0 1 1.414 0l6.586 6.586a1 1 0 0 1 -.707 1.707h-3.586v6h-6v-6z" fill="currentColor" /><path d="M9 21h6" />
</symbol>
	<symbol id="arrow-big-up-lines-filled" class="icon icon-tabler icon-tabler-arrow-big-up-lines-filled" viewBox="0 0 24 24" stroke-width="2" stroke="currentColor" fill="none" stroke-linecap="round" stroke-linejoin="round"><path stroke="none" d="M0 0h24v24H0z" fill="none"/><path d="M9 12h-3.586a1 1 0 0 1 -.707 -1.707l6.586 -6.586a1 1 0 0 1 1.414 0l6.586 6.586a1 1 0 0 1 -.707 1.707h-3.586v3h-6v-3z" fill="currentColor" /><path d="M9 21h6" /><path d="M9 18h6" />
</symbol>
	<symbol id="brand-bilibili" class="icon icon-tabler icon-tabler-brand-bilibili" viewBox="0 0 24 24" stroke-width="2" stroke="currentColor" fill="none" stroke-linecap="round" stroke-linejoin="round"><path stroke="none" d="M0 0h24v24H0z" fill="none"/><path d="M3 10a4 4 0 0 1 4 -4h10a4 4 0 0 1 4 4v6a4 4 0 0 1 -4 4h-10a4 4 0 0 1 -4 -4v-6zm5 -7l2 3m6 -3l-2 3m-7 6l3 -1m4 0l3 1m-8 3a1.625 1.625 0 0 0 3 0a1.625 1.625 0 0 0 3 0" />
</symbol>
	<symbol id="brand-supabase" class="icon icon-tabler icon-tabler-brand-supabase" viewBox="0 0 24 24" stroke-width="2" stroke="currentColor" fill="none" stroke-linecap="round" stroke-linejoin="round"><path stroke="none" d="M0 0h24v24H0z" fill="none"/><path d="M4 14h8v7l8 -11h-8v-7z" />
</symbol>
	<symbol id="columns-1" class="icon icon-tabler icon-tabler-columns-1" viewBox="0 0 24 24" stroke-width="2" stroke="currentColor" fill="none" stroke-linecap="round" stroke-linejoin="round"><path stroke="none" d="M0 0h24v24H0z" fill="none"/><path d="M5 3m0 1a1 1 0 0 1 1 -1h12a1 1 0 0 1 1 1v16a1 1 0 0 1 -1 1h-12a1 1 0 0 1 -1 -1z" />
</symbol>
	<symbol id="columns-2" class="icon icon-tabler icon-tabler-columns-2" viewBox="0 0 24 24" stroke-width="2" stroke="currentColor" fill="none" stroke-linecap="round" stroke-linejoin="round"><path stroke="none" d="M0 0h24v24H0z" fill="none"/><path d="M3 3m0 1a1 1 0 0 1 1 -1h16a1 1 0 0 1 1 1v16a1 1 0 0 1 -1 1h-16a1 1 0 0 1 -1 -1zm9 -1v18" />
</symbol>
	<symbol id="columns-3" class="icon icon-tabler icon-tabler-columns-3" viewBox="0 0 24 24" stroke-width="2" stroke="currentColor" fill="none" stroke-linecap="round" stroke-linejoin="round"><path stroke="none" d="M0 0h24v24H0z" fill="none"/><path d="M3 3m0 1a1 1 0 0 1 1 -1h16a1 1 0 0 1 1 1v16a1 1 0 0 1 -1 1h-16a1 1 0 0 1 -1 -1zm6 -1v18m6 -18v18" />
</symbol>
	<symbol id="sparkles" class="icon icon-tabler icon-tabler-sparkles" viewBox="0 0 24 24" stroke-width="2" stroke="currentColor" fill="none" stroke-linecap="round" stroke-linejoin="round"><path stroke="none" d="M0 0h24v24H0z" fill="none"/><path d="M16 18a2 2 0 0 1 2 2a2 2 0 0 1 2 -2a2 2 0 0 1 -2 -2a2 2 0 0 1 -2 2zm0 -12a2 2 0 0 1 2 2a2 2 0 0 1 2 -2a2 2 0 0 1 -2 -2a2 2 0 0 1 -2 2zm-7 12a6 6 0 0 1 6 -6a6 6 0 0 1 -6 -6a6 6 0 0 1 -6 6a6 6 0 0 1 6 6z" />
</symbol>

	<use xlink:href="#arrow-big-down-filled" x="24" y="24" width="24" height="24" />
	<use xlink:href="#arrow-big-down-line-filled" x="68" y="24" width="24" height="24" />
	<use xlink:href="#arrow-big-down-lines-filled" x="112" y="24" width="24" height="24" />
	<use xlink:href="#arrow-big-left-filled" x="156" y="24" width="24" height="24" />
	<use xlink:href="#arrow-big-left-line-filled" x="200" y="24" width="24" height="24" />
	<use xlink:href="#arrow-big-left-lines-filled" x="244" y="24" width="24" height="24" />
	<use xlink:href="#arrow-big-right-filled" x="24" y="68" width="24" height="24" />
	<use xlink:href="#arrow-big-right-line-filled" x="68" y="68" width="24" height="24" />
	<use xlink:href="#arrow-big-right-lines-filled" x="112" y="68" width="24" height="24" />
	<use xlink:href="#arrow-big-up-filled" x="156" y="68" width="24" height="24" />
	<use xlink:href="#arrow-big-up-line-filled" x="200" y="68" width="24" height="24" />
	<use xlink:href="#arrow-big-up-lines-filled" x="244" y="68" width="24" height="24" />
	<use xlink:href="#brand-bilibili" x="24" y="112" width="24" height="24" />
	<use xlink:href="#brand-supabase" x="68" y="112" width="24" height="24" />
	<use xlink:href="#columns-1" x="112" y="112" width="24" height="24" />
	<use xlink:href="#columns-2" x="156" y="112" width="24" height="24" />
	<use xlink:href="#columns-3" x="200" y="112" width="24" height="24" />
	<use xlink:href="#sparkles" x="244" y="112" width="24" height="24" />

</svg>