<svg xmlns="http://www.w3.org/2000/svg" xmlns:xlink="http://www.w3.org/1999/xlink" viewBox="0 0 292 204" width="292" height="204" style="color: #354052"><rect x="0" y="0" width="292" height="204" fill="#fff"></rect>
	<symbol id="air-balloon" class="icon icon-tabler icon-tabler-air-balloon" viewBox="0 0 24 24" stroke-width="2" stroke="currentColor" fill="none" stroke-linecap="round" stroke-linejoin="round"><path stroke="none" d="M0 0h24v24H0z" fill="none"/><rect x="10" y="19" width="4" height="3" rx="1" /><path d="M12 16c3.314 0 6 -4.686 6 -8a6 6 0 1 0 -12 0c0 3.314 2.686 8 6 8z" /><ellipse cx="12" cy="9" rx="2" ry="7" />
</symbol>
	<symbol id="arrow-zig-zag" class="icon icon-tabler icon-tabler-arrow-zig-zag" viewBox="0 0 24 24" stroke-width="2" stroke="currentColor" fill="none" stroke-linecap="round" stroke-linejoin="round"><path stroke="none" d="M0 0h24v24H0z" fill="none"/><path d="M6 20v-10l10 6v-12" /><path d="M13 7l3 -3l3 3" />
</symbol>
	<symbol id="brand-github-copilot" class="icon icon-tabler icon-tabler-brand-github-copilot" viewBox="0 0 24 24" stroke-width="2" stroke="currentColor" fill="none" stroke-linecap="round" stroke-linejoin="round"><path stroke="none" d="M0 0h24v24H0z" fill="none"/><path d="M4 18v-5.5c0 -.667 .167 -1.333 .5 -2" /><path d="M12 7.5c0 -1 -.01 -4.07 -4 -3.5c-3.5 .5 -4 2.5 -4 3.5c0 1.5 .002 4 3 4c4 0 5 -2.5 5 -4z" /><path d="M4 12c-1.333 .667 -2 1.333 -2 2c0 1 0 3 1.5 4c3.001 2 6.5 3 8.5 3s5.499 -1 8.5 -3c1.5 -1 1.5 -3 1.5 -4c0 -.667 -.667 -1.333 -2 -2" /><path d="M20 18v-5.5c0 -.667 -.167 -1.333 -.5 -2" /><path d="M12 7.5l.003 -.297l.01 -.269l.027 -.298l.013 -.105l.033 -.215c.014 -.073 .029 -.146 .046 -.22l.06 -.223c.336 -1.118 1.262 -2.237 3.808 -1.873c2.838 .405 3.703 1.797 3.93 2.842l.036 .204c.005 .033 .01 .066 .013 .098l.016 .185l.005 .171l-.003 .49l-.015 .394l-.02 .271c-.122 1.366 -.655 2.845 -2.962 2.845c-3.256 0 -4.524 -1.656 -4.883 -3.081l-.053 -.242a3.865 3.865 0 0 1 -.036 -.235l-.021 -.227a3.518 3.518 0 0 1 -.007 -.215z" /><path d="M10 15v2" /><path d="M14 15v2" />
</symbol>
	<symbol id="circle-caret-down" class="icon icon-tabler icon-tabler-circle-caret-down" viewBox="0 0 24 24" stroke-width="2" stroke="currentColor" fill="none" stroke-linecap="round" stroke-linejoin="round"><path stroke="none" d="M0 0h24v24H0z" fill="none"/><circle cx="12" cy="12" r="9" /><path d="M12 15l-4 -4h8z" />
</symbol>
	<symbol id="circle-caret-left" class="icon icon-tabler icon-tabler-circle-caret-left" viewBox="0 0 24 24" stroke-width="2" stroke="currentColor" fill="none" stroke-linecap="round" stroke-linejoin="round"><path stroke="none" d="M0 0h24v24H0z" fill="none"/><path d="M9 12l4 -4v8z" /><path d="M12 21a9 9 0 1 1 0 -18a9 9 0 0 1 0 18z" />
</symbol>
	<symbol id="circle-caret-right" class="icon icon-tabler icon-tabler-circle-caret-right" viewBox="0 0 24 24" stroke-width="2" stroke="currentColor" fill="none" stroke-linecap="round" stroke-linejoin="round"><path stroke="none" d="M0 0h24v24H0z" fill="none"/><path d="M15 12l-4 -4v8z" /><circle cx="12" cy="12" r="9" />
</symbol>
	<symbol id="circle-caret-up" class="icon icon-tabler icon-tabler-circle-caret-up" viewBox="0 0 24 24" stroke-width="2" stroke="currentColor" fill="none" stroke-linecap="round" stroke-linejoin="round"><path stroke="none" d="M0 0h24v24H0z" fill="none"/><path d="M12 9l4 4h-8z" /><circle cx="12" cy="12" r="9" />
</symbol>
	<symbol id="circle-letter-v" class="icon icon-tabler icon-tabler-circle-letter-v" viewBox="0 0 24 24" stroke-width="2" stroke="currentColor" fill="none" stroke-linecap="round" stroke-linejoin="round"><path stroke="none" d="M0 0h24v24H0z" fill="none"/><circle cx="12" cy="12" r="9" /><path d="M10 8l2 8l2 -8" />
</symbol>
	<symbol id="circle-letter-x" class="icon icon-tabler icon-tabler-circle-letter-x" viewBox="0 0 24 24" stroke-width="2" stroke="currentColor" fill="none" stroke-linecap="round" stroke-linejoin="round"><path stroke="none" d="M0 0h24v24H0z" fill="none"/><circle cx="12" cy="12" r="9" /><path d="M10 8l4 8" /><path d="M10 16l4 -8" />
</symbol>
	<symbol id="device-sim-1" class="icon icon-tabler icon-tabler-device-sim-1" viewBox="0 0 24 24" stroke-width="2" stroke="currentColor" fill="none" stroke-linecap="round" stroke-linejoin="round"><path stroke="none" d="M0 0h24v24H0z" fill="none"/><path d="M6 3h8.5l4.5 4.5v12.5a1 1 0 0 1 -1 1h-12a1 1 0 0 1 -1 -1v-16a1 1 0 0 1 1 -1z" /><path d="M10 11l2 -2v8" />
</symbol>
	<symbol id="device-sim-2" class="icon icon-tabler icon-tabler-device-sim-2" viewBox="0 0 24 24" stroke-width="2" stroke="currentColor" fill="none" stroke-linecap="round" stroke-linejoin="round"><path stroke="none" d="M0 0h24v24H0z" fill="none"/><path d="M6 3h8.5l4.5 4.5v12.5a1 1 0 0 1 -1 1h-12a1 1 0 0 1 -1 -1v-16a1 1 0 0 1 1 -1z" /><path d="M10 9h3a1 1 0 0 1 1 1v2a1 1 0 0 1 -1 1h-2a1 1 0 0 0 -1 1v2a1 1 0 0 0 1 1h3" />
</symbol>
	<symbol id="device-sim-3" class="icon icon-tabler icon-tabler-device-sim-3" viewBox="0 0 24 24" stroke-width="2" stroke="currentColor" fill="none" stroke-linecap="round" stroke-linejoin="round"><path stroke="none" d="M0 0h24v24H0z" fill="none"/><path d="M6 3h8.5l4.5 4.5v12.5a1 1 0 0 1 -1 1h-12a1 1 0 0 1 -1 -1v-16a1 1 0 0 1 1 -1z" /><path d="M10 9h2.5a1.5 1.5 0 0 1 1.5 1.5v1a1.5 1.5 0 0 1 -1.5 1.5h-1.5h1.5a1.5 1.5 0 0 1 1.5 1.5v1a1.5 1.5 0 0 1 -1.5 1.5h-2.5" />
</symbol>
	<symbol id="device-sim" class="icon icon-tabler icon-tabler-device-sim" viewBox="0 0 24 24" stroke-width="2" stroke="currentColor" fill="none" stroke-linecap="round" stroke-linejoin="round"><path stroke="none" d="M0 0h24v24H0z" fill="none"/><path d="M6 3h8.5l4.5 4.5v12.5a1 1 0 0 1 -1 1h-12a1 1 0 0 1 -1 -1v-16a1 1 0 0 1 1 -1z" /><path d="M9 11h3v6" /><path d="M15 17v.01" /><path d="M15 14v.01" /><path d="M15 11v.01" /><path d="M9 14v.01" /><path d="M9 17v.01" />
</symbol>
	<symbol id="hexagon-letter-v" class="icon icon-tabler icon-tabler-hexagon-letter-v" viewBox="0 0 24 24" stroke-width="2" stroke="currentColor" fill="none" stroke-linecap="round" stroke-linejoin="round"><path stroke="none" d="M0 0h24v24H0z" fill="none"/><path d="M19 6.873a2 2 0 0 1 1 1.747v6.536a2 2 0 0 1 -1.029 1.748l-6 3.833a2 2 0 0 1 -1.942 0l-6 -3.833a2 2 0 0 1 -1.029 -1.747v-6.537a2 2 0 0 1 1.029 -1.748l6 -3.572a2.056 2.056 0 0 1 2 0l6 3.573h-.029z" /><path d="M10 8l2 8l2 -8" />
</symbol>
	<symbol id="razor-electric" class="icon icon-tabler icon-tabler-razor-electric" viewBox="0 0 24 24" stroke-width="2" stroke="currentColor" fill="none" stroke-linecap="round" stroke-linejoin="round"><path stroke="none" d="M0 0h24v24H0z" fill="none"/><path d="M8 3v2" /><path d="M12 3v2" /><path d="M16 3v2" /><path d="M9 12v6a3 3 0 0 0 6 0v-6h-6z" /><path d="M8 5h8l-1 4h-6z" /><path d="M12 17v1" />
</symbol>
	<symbol id="razor" class="icon icon-tabler icon-tabler-razor" viewBox="0 0 24 24" stroke-width="2" stroke="currentColor" fill="none" stroke-linecap="round" stroke-linejoin="round"><path stroke="none" d="M0 0h24v24H0z" fill="none"/><path d="M7 3h10v4h-10z" /><path d="M12 7v4" /><path d="M12 11a2 2 0 0 1 2 2v6a2 2 0 1 1 -4 0v-6a2 2 0 0 1 2 -2z" />
</symbol>
	<symbol id="route-2" class="icon icon-tabler icon-tabler-route-2" viewBox="0 0 24 24" stroke-width="2" stroke="currentColor" fill="none" stroke-linecap="round" stroke-linejoin="round"><path stroke="none" d="M0 0h24v24H0z" fill="none"/><path d="M3 17l4 4" /><path d="M7 17l-4 4" /><path d="M17 3l4 4" /><path d="M21 3l-4 4" /><path d="M14 5a2 2 0 0 0 -2 2v10a2 2 0 0 1 -2 2" />
</symbol>
	<symbol id="square-arrow-down" class="icon icon-tabler icon-tabler-square-arrow-down" viewBox="0 0 24 24" stroke-width="2" stroke="currentColor" fill="none" stroke-linecap="round" stroke-linejoin="round"><path stroke="none" d="M0 0h24v24H0z" fill="none"/><path d="M8 12l4 4l4 -4" /><path d="M12 8v8" /><path d="M6.667 4h10.666a2.667 2.667 0 0 1 2.667 2.667v10.666a2.667 2.667 0 0 1 -2.667 2.667h-10.666a2.667 2.667 0 0 1 -2.667 -2.667v-10.666a2.667 2.667 0 0 1 2.667 -2.667z" />
</symbol>
	<symbol id="square-arrow-left" class="icon icon-tabler icon-tabler-square-arrow-left" viewBox="0 0 24 24" stroke-width="2" stroke="currentColor" fill="none" stroke-linecap="round" stroke-linejoin="round"><path stroke="none" d="M0 0h24v24H0z" fill="none"/><path d="M12 8l-4 4l4 4" /><path d="M16 12h-8" /><path d="M20 6.667v10.666a2.667 2.667 0 0 1 -2.667 2.667h-10.666a2.667 2.667 0 0 1 -2.667 -2.667v-10.666a2.667 2.667 0 0 1 2.667 -2.667h10.666a2.667 2.667 0 0 1 2.667 2.667z" />
</symbol>
	<symbol id="square-arrow-right" class="icon icon-tabler icon-tabler-square-arrow-right" viewBox="0 0 24 24" stroke-width="2" stroke="currentColor" fill="none" stroke-linecap="round" stroke-linejoin="round"><path stroke="none" d="M0 0h24v24H0z" fill="none"/><path d="M12 16l4 -4l-4 -4" /><path d="M8 12h8" /><path d="M4 17.333v-10.666a2.667 2.667 0 0 1 2.667 -2.667h10.666a2.667 2.667 0 0 1 2.667 2.667v10.666a2.667 2.667 0 0 1 -2.667 2.667h-10.666a2.667 2.667 0 0 1 -2.667 -2.667z" />
</symbol>
	<symbol id="square-arrow-up" class="icon icon-tabler icon-tabler-square-arrow-up" viewBox="0 0 24 24" stroke-width="2" stroke="currentColor" fill="none" stroke-linecap="round" stroke-linejoin="round"><path stroke="none" d="M0 0h24v24H0z" fill="none"/><path d="M16 12l-4 -4l-4 4" /><path d="M12 16v-8" /><path d="M17.333 20h-10.666a2.667 2.667 0 0 1 -2.667 -2.667v-10.666a2.667 2.667 0 0 1 2.667 -2.667h10.666a2.667 2.667 0 0 1 2.667 2.667v10.666a2.667 2.667 0 0 1 -2.667 2.667z" />
</symbol>
	<symbol id="square-letter-v" class="icon icon-tabler icon-tabler-square-letter-v" viewBox="0 0 24 24" stroke-width="2" stroke="currentColor" fill="none" stroke-linecap="round" stroke-linejoin="round"><path stroke="none" d="M0 0h24v24H0z" fill="none"/><rect x="4" y="4" width="16" height="16" rx="2" /><path d="M10 8l2 8l2 -8" />
</symbol>
	<symbol id="square-letter-x" class="icon icon-tabler icon-tabler-square-letter-x" viewBox="0 0 24 24" stroke-width="2" stroke="currentColor" fill="none" stroke-linecap="round" stroke-linejoin="round"><path stroke="none" d="M0 0h24v24H0z" fill="none"/><rect x="4" y="4" width="16" height="16" rx="2" /><path d="M10 8l4 8" /><path d="M10 16l4 -8" />
</symbol>

	<use xlink:href="#air-balloon" x="24" y="24" width="24" height="24" />
	<use xlink:href="#arrow-zig-zag" x="68" y="24" width="24" height="24" />
	<use xlink:href="#brand-github-copilot" x="112" y="24" width="24" height="24" />
	<use xlink:href="#circle-caret-down" x="156" y="24" width="24" height="24" />
	<use xlink:href="#circle-caret-left" x="200" y="24" width="24" height="24" />
	<use xlink:href="#circle-caret-right" x="244" y="24" width="24" height="24" />
	<use xlink:href="#circle-caret-up" x="24" y="68" width="24" height="24" />
	<use xlink:href="#circle-letter-v" x="68" y="68" width="24" height="24" />
	<use xlink:href="#circle-letter-x" x="112" y="68" width="24" height="24" />
	<use xlink:href="#device-sim-1" x="156" y="68" width="24" height="24" />
	<use xlink:href="#device-sim-2" x="200" y="68" width="24" height="24" />
	<use xlink:href="#device-sim-3" x="244" y="68" width="24" height="24" />
	<use xlink:href="#device-sim" x="24" y="112" width="24" height="24" />
	<use xlink:href="#hexagon-letter-v" x="68" y="112" width="24" height="24" />
	<use xlink:href="#razor-electric" x="112" y="112" width="24" height="24" />
	<use xlink:href="#razor" x="156" y="112" width="24" height="24" />
	<use xlink:href="#route-2" x="200" y="112" width="24" height="24" />
	<use xlink:href="#square-arrow-down" x="244" y="112" width="24" height="24" />
	<use xlink:href="#square-arrow-left" x="24" y="156" width="24" height="24" />
	<use xlink:href="#square-arrow-right" x="68" y="156" width="24" height="24" />
	<use xlink:href="#square-arrow-up" x="112" y="156" width="24" height="24" />
	<use xlink:href="#square-letter-v" x="156" y="156" width="24" height="24" />
	<use xlink:href="#square-letter-x" x="200" y="156" width="24" height="24" />

</svg>