<svg xmlns="http://www.w3.org/2000/svg" xmlns:xlink="http://www.w3.org/1999/xlink" viewBox="0 0 292 160" width="292" height="160" style="color: #354052"><rect x="0" y="0" width="292" height="160" fill="#fff"></rect>
	<symbol id="outline-code-ai" xmlns="http://www.w3.org/2000/svg" width="24" height="24" viewBox="0 0 24 24" fill="none" stroke="currentColor" stroke-width="2" stroke-linecap="round" stroke-linejoin="round"
> <path d="M7 8l-4 4l4 4" /> <path d="M17 8l3.111 3.111" /> <path d="M14 4l-2.175 8.7" /> <path d="M14 21v-4a2 2 0 1 1 4 0v4" /> <path d="M14 19h4" /> <path d="M21 15v6" />
</symbol>
	<symbol id="outline-email-stamp" xmlns="http://www.w3.org/2000/svg" width="24" height="24" viewBox="0 0 24 24" fill="none" stroke="currentColor" stroke-width="2" stroke-linecap="round" stroke-linejoin="round"
> <path d="M7.586 4.586a2 2 0 0 0 -1.414 -.586h-.172a2 2 0 0 0 -2 2v.172a2 2 0 0 0 .586 1.414a2 2 0 0 1 0 2.828a2 2 0 0 0 -.586 1.414v.344a2 2 0 0 0 .586 1.414c.4 .4 .595 .928 .585 1.452c-.01 .5 -.204 .995 -.585 1.376a2 2 0 0 0 -.586 1.414v.172a2 2 0 0 0 2 2h.172a2 2 0 0 0 1.414 -.586a2 2 0 0 1 2.828 0a2 2 0 0 0 1.414 .586h.344a2 2 0 0 0 1.414 -.586a2 2 0 0 1 2.828 0a2 2 0 0 0 1.414 .586h.172a2 2 0 0 0 2 -2v-.172a2 2 0 0 0 -.586 -1.414a1.996 1.996 0 0 1 0 -2.828a2 2 0 0 0 .586 -1.414v-.344a2 2 0 0 0 -.586 -1.414a2 2 0 0 1 0 -2.828a2 2 0 0 0 .586 -1.414v-.172a2 2 0 0 0 -2 -2h-.172a2 2 0 0 0 -1.414 .586a2 2 0 0 1 -2.828 0a2 2 0 0 0 -1.414 -.586h-.344a2 2 0 0 0 -1.414 .586a2 2 0 0 1 -2.828 0" /> <path d="M10 10a2 2 0 1 0 4 0a2 2 0 0 0 -4 0" /> <path d="M9 15c0 -1.105 .672 -2 1.5 -2h3c.828 0 1.5 .895 1.5 2" />
</symbol>
	<symbol id="outline-foodsteps" xmlns="http://www.w3.org/2000/svg" width="24" height="24" viewBox="0 0 24 24" fill="none" stroke="currentColor" stroke-width="2" stroke-linecap="round" stroke-linejoin="round"
> <path d="M4 16.5a2.5 2.5 0 0 0 5 0a1.5 1.5 0 0 0 -1.5 -1.5h-2a1.5 1.5 0 0 0 -1.5 1.5" /> <path d="M15 18.5a2.5 2.5 0 0 0 5 0a1.5 1.5 0 0 0 -1.5 -1.5h-2a1.5 1.5 0 0 0 -1.5 1.5" /> <path d="M8.52 12h-4.04c-.348 0 -.678 -.179 -.823 -.496c-1.326 -2.904 -.774 -8.504 2.843 -8.504s4.17 5.6 2.843 8.504c-.145 .317 -.475 .496 -.824 .496" /> <path d="M19.52 14h-4.04c-.348 0 -.678 -.179 -.823 -.496c-1.326 -2.904 -.774 -8.504 2.843 -8.504s4.17 5.6 2.843 8.504c-.145 .317 -.475 .496 -.824 .496" />
</symbol>
	<symbol id="outline-git-pull-request-conflict" xmlns="http://www.w3.org/2000/svg" width="24" height="24" viewBox="0 0 24 24" fill="none" stroke="currentColor" stroke-width="2" stroke-linecap="round" stroke-linejoin="round"
> <path d="M16 18a2 2 0 1 0 4 0a2 2 0 0 0 -4 0" /> <path d="M11 6h5a2 2 0 0 1 2 2v8" /> <path d="M4 18a2 2 0 1 0 4 0a2 2 0 0 0 -4 0" /> <path d="M6 11v5" /> <path d="M4 4l4 4" /> <path d="M8 4l-4 4" />
</symbol>
	<symbol id="outline-noise-reduction" xmlns="http://www.w3.org/2000/svg" width="24" height="24" viewBox="0 0 24 24" fill="none" stroke="currentColor" stroke-width="2" stroke-linecap="round" stroke-linejoin="round"
> <path d="M21 12a9 9 0 1 1 -18 0a9 9 0 0 1 18 0" /> <path d="M10.01 18h-.01" /> <path d="M14.01 14h-.01" /> <path d="M16.01 12h-.01" /> <path d="M18.01 10h-.01" /> <path d="M16.01 16h-.01" /> <path d="M14.01 18h-.01" /> <path d="M18.01 14h-.01" /> <path d="M12.01 16h-.01" />
</symbol>
	<symbol id="outline-photo-alt" xmlns="http://www.w3.org/2000/svg" width="24" height="24" viewBox="0 0 24 24" fill="none" stroke="currentColor" stroke-width="2" stroke-linecap="round" stroke-linejoin="round"
> <path d="M6 18h5" /> <path d="M14 18h4" /> <path d="M15 7h.01" /> <path d="M3 6a3 3 0 0 1 3 -3h12a3 3 0 0 1 3 3v12a3 3 0 0 1 -3 3h-12a3 3 0 0 1 -3 -3v-12" /> <path d="M3 15l5 -5c.928 -.893 2.072 -.893 3 0l5 5" /> <path d="M14 13l1 -1c.928 -.893 2.072 -.893 3 0l3 3" /> <path d="M3 15h18" />
</symbol>
	<symbol id="outline-pointer-2" xmlns="http://www.w3.org/2000/svg" width="24" height="24" viewBox="0 0 24 24" fill="none" stroke="currentColor" stroke-width="2" stroke-linecap="round" stroke-linejoin="round"
> <path d="M14.185 13.14l5.644 -2.202c1.625 -.634 1.538 -2.962 -.13 -3.473l-14.319 -4.382c-1.41 -.431 -2.73 .888 -2.298 2.298l4.382 14.318c.51 1.668 2.84 1.755 3.473 .13l2.202 -5.644a1.84 1.84 0 0 1 1.045 -1.045" />
</symbol>
	<symbol id="outline-pointer-collaboration-2" xmlns="http://www.w3.org/2000/svg" width="24" height="24" viewBox="0 0 24 24" fill="none" stroke="currentColor" stroke-width="2" stroke-linecap="round" stroke-linejoin="round"
> <path d="M10.987 13.943l1.957 5.016c.563 1.445 2.633 1.367 3.087 -.116l3.895 -12.727c.384 -1.253 -.79 -2.426 -2.042 -2.042l-12.727 3.895c-1.483 .454 -1.56 2.524 -.116 3.087l5.017 1.957c.426 .166 .763 .503 .929 .93" /> <path d="M9 20l-1.064 -3.151a1.25 1.25 0 0 0 -.785 -.785l-3.151 -1.064" />
</symbol>
	<symbol id="outline-pointer-collaboration" xmlns="http://www.w3.org/2000/svg" width="24" height="24" viewBox="0 0 24 24" fill="none" stroke="currentColor" stroke-width="2" stroke-linecap="round" stroke-linejoin="round"
> <path d="M13.943 13.013l5.016 -1.957c1.445 -.563 1.367 -2.633 -.116 -3.087l-12.727 -3.895c-1.253 -.384 -2.426 .79 -2.042 2.042l3.895 12.727c.454 1.483 2.524 1.56 3.087 .116l1.957 -5.017c.166 -.426 .503 -.763 .93 -.929" /> <path d="M20 15l-3.151 1.064a1.25 1.25 0 0 0 -.785 .785l-1.064 3.151" />
</symbol>
	<symbol id="outline-roulette" xmlns="http://www.w3.org/2000/svg" width="24" height="24" viewBox="0 0 24 24" fill="none" stroke="currentColor" stroke-width="2" stroke-linecap="round" stroke-linejoin="round"
> <path d="M10.586 10.586l-1.586 -1.586" /> <path d="M13.414 10.586l1.586 -1.586" /> <path d="M13.414 13.414l1.586 1.586" /> <path d="M10.586 13.414l-1.586 1.586" /> <path d="M14 12a2 2 0 1 1 -4 0a2 2 0 0 1 4 0" /> <path d="M16.5 4.206l-.5 .866" /> <path d="M7.5 19.794l.5 -.866" /> <path d="M19.794 7.5l-.866 .5" /> <path d="M4.206 16.5l.866 -.5" /> <path d="M7.5 4.206l.5 .866" /> <path d="M16.5 19.794l-.5 -.866" /> <path d="M4.206 7.5l.866 .5" /> <path d="M19.794 16.5l-.866 -.5" /> <path d="M12 3v1" /> <path d="M12 21v-1" /> <path d="M21 12h-1" /> <path d="M3 12h1" /> <path d="M12 21a9 9 0 1 1 0 -18a9 9 0 0 1 0 18" />
</symbol>
	<symbol id="outline-scan-cube" xmlns="http://www.w3.org/2000/svg" width="24" height="24" viewBox="0 0 24 24" fill="none" stroke="currentColor" stroke-width="2" stroke-linecap="round" stroke-linejoin="round"
> <path d="M8.504 9.426l3 -1.714a1 1 0 0 1 .992 0l3 1.714a1 1 0 0 1 .504 .868v3.411a1 1 0 0 1 -.504 .868l-3 1.715a1 1 0 0 1 -.992 0l-3 -1.715a1 1 0 0 1 -.504 -.868v-3.41a1 1 0 0 1 .504 -.869" /> <path d="M15.75 9.964l-3.75 2.036" /> <path d="M12 12l-3.75 -2.036" /> <path d="M12 12v4.071" /> <path d="M3 7v-2a2 2 0 0 1 2 -2h2" /> <path d="M3 17v2a2 2 0 0 0 2 2h2" /> <path d="M17 3h2a2 2 0 0 1 2 2v2" /> <path d="M17 21h2a2 2 0 0 0 2 -2v-2" />
</symbol>
	<symbol id="outline-sketching" xmlns="http://www.w3.org/2000/svg" width="24" height="24" viewBox="0 0 24 24" fill="none" stroke="currentColor" stroke-width="2" stroke-linecap="round" stroke-linejoin="round"
> <path d="M4 15c2 -4.97 7.356 -11 9 -11c4.25 0 -5.5 11.958 -3 13s5.65 -6.678 7.4 -5.902c1.75 .777 -1.05 7.589 -.3 8.63s3.15 -.897 3.9 -2.728" />
</symbol>
	<symbol id="outline-sparkle-2" xmlns="http://www.w3.org/2000/svg" width="24" height="24" viewBox="0 0 24 24" fill="none" stroke="currentColor" stroke-width="2" stroke-linecap="round" stroke-linejoin="round"
> <path d="M12 3c.375 0 .711 .231 .846 .581l1.65 4.29a2.85 2.85 0 0 0 1.632 1.633l4.291 1.65a.906 .906 0 0 1 0 1.692l-4.29 1.65a2.84 2.84 0 0 0 -1.633 1.632l-1.65 4.291a.906 .906 0 0 1 -1.692 0l-1.65 -4.29a2.84 2.84 0 0 0 -1.632 -1.633l-4.291 -1.65a.906 .906 0 0 1 0 -1.692l4.29 -1.65a2.84 2.84 0 0 0 1.633 -1.632l1.65 -4.291a.91 .91 0 0 1 .846 -.581" />
</symbol>
	<symbol id="outline-sparkle-highlight" xmlns="http://www.w3.org/2000/svg" width="24" height="24" viewBox="0 0 24 24" fill="none" stroke="currentColor" stroke-width="2" stroke-linecap="round" stroke-linejoin="round"
> <path d="M14.504 8.522l-1.758 -4.032a.814 .814 0 0 0 -1.492 0l-1.759 4.032c-.19 .436 -.537 .784 -.973 .973l-4.032 1.759a.814 .814 0 0 0 0 1.492l4.033 1.758c.436 .19 .784 .538 .973 .974l1.759 4.033a.814 .814 0 0 0 1.492 0l1.758 -4.033c.19 -.436 .538 -.784 .974 -.974l4.033 -1.758a.814 .814 0 0 0 0 -1.492l-4.033 -1.759a1.88 1.88 0 0 1 -.974 -.973" /> <path d="M3 3l2 2" /> <path d="M21 3l-2 2" /> <path d="M3 21l2 -2" /> <path d="M21 21l-2 -2" />
</symbol>
	<symbol id="outline-sparkle" xmlns="http://www.w3.org/2000/svg" width="24" height="24" viewBox="0 0 24 24" fill="none" stroke="currentColor" stroke-width="2" stroke-linecap="round" stroke-linejoin="round"
> <path d="M21 12c-6.597 0 -9 2.403 -9 9c0 -6.597 -2.403 -9 -9 -9c6.597 0 9 -2.403 9 -9c0 6.597 2.403 9 9 9" />
</symbol>
	<symbol id="outline-sphere-2" xmlns="http://www.w3.org/2000/svg" width="24" height="24" viewBox="0 0 24 24" fill="none" stroke="currentColor" stroke-width="2" stroke-linecap="round" stroke-linejoin="round"
> <path d="M3 12c0 1.657 4.03 3 9 3s9 -1.343 9 -3" /> <path d="M3 12a9 9 0 1 0 18 0a9 9 0 0 0 -18 0" /> <path d="M12 3c-1.657 0 -3 4.03 -3 9s1.343 9 3 9" />
</symbol>
	<symbol id="outline-text-scan-ai" xmlns="http://www.w3.org/2000/svg" width="24" height="24" viewBox="0 0 24 24" fill="none" stroke="currentColor" stroke-width="2" stroke-linecap="round" stroke-linejoin="round"
> <path d="M8 12h4.5" /> <path d="M8 8h6" /> <path d="M8 16h2" /> <path d="M3 7v-2a2 2 0 0 1 2 -2h2" /> <path d="M3 17v2a2 2 0 0 0 2 2h2" /> <path d="M17 3h2a2 2 0 0 1 2 2v2" /> <path d="M14 21v-4a2 2 0 1 1 4 0v4" /> <path d="M14 19h4" /> <path d="M21 15v6" />
</symbol>
	<symbol id="outline-vignette" xmlns="http://www.w3.org/2000/svg" width="24" height="24" viewBox="0 0 24 24" fill="none" stroke="currentColor" stroke-width="2" stroke-linecap="round" stroke-linejoin="round"
> <path d="M21 12a9 9 0 1 1 -18 0a9 9 0 0 1 18 0" /> <path d="M7.02 12h-.01" /> <path d="M12.02 7h-.01" /> <path d="M17.02 12h-.01" /> <path d="M12.02 17h-.01" /> <path d="M8.483 8.468l-.007 -.007" /> <path d="M15.554 8.468l-.007 -.007" /> <path d="M15.554 15.539l-.007 -.007" /> <path d="M8.483 15.539l-.007 -.007" />
</symbol>

	<use xlink:href="#outline-code-ai" x="24" y="24" width="24" height="24" />
	<use xlink:href="#outline-email-stamp" x="68" y="24" width="24" height="24" />
	<use xlink:href="#outline-foodsteps" x="112" y="24" width="24" height="24" />
	<use xlink:href="#outline-git-pull-request-conflict" x="156" y="24" width="24" height="24" />
	<use xlink:href="#outline-noise-reduction" x="200" y="24" width="24" height="24" />
	<use xlink:href="#outline-photo-alt" x="244" y="24" width="24" height="24" />
	<use xlink:href="#outline-pointer-2" x="24" y="68" width="24" height="24" />
	<use xlink:href="#outline-pointer-collaboration-2" x="68" y="68" width="24" height="24" />
	<use xlink:href="#outline-pointer-collaboration" x="112" y="68" width="24" height="24" />
	<use xlink:href="#outline-roulette" x="156" y="68" width="24" height="24" />
	<use xlink:href="#outline-scan-cube" x="200" y="68" width="24" height="24" />
	<use xlink:href="#outline-sketching" x="244" y="68" width="24" height="24" />
	<use xlink:href="#outline-sparkle-2" x="24" y="112" width="24" height="24" />
	<use xlink:href="#outline-sparkle-highlight" x="68" y="112" width="24" height="24" />
	<use xlink:href="#outline-sparkle" x="112" y="112" width="24" height="24" />
	<use xlink:href="#outline-sphere-2" x="156" y="112" width="24" height="24" />
	<use xlink:href="#outline-text-scan-ai" x="200" y="112" width="24" height="24" />
	<use xlink:href="#outline-vignette" x="244" y="112" width="24" height="24" />

</svg>