<svg xmlns="http://www.w3.org/2000/svg" xmlns:xlink="http://www.w3.org/1999/xlink" viewBox="0 0 332 176" width="332" height="176" style="color: #354052"><rect x="0" y="0" width="332" height="176" fill="#fff"></rect>
	<symbol id="braces" class="icon icon-tabler icon-tabler-braces" viewBox="0 0 24 24" stroke-width="2" stroke="currentColor" fill="none" stroke-linecap="round" stroke-linejoin="round"><path stroke="none" d="M0 0h24v24H0z"/><path d="M7 4a2 2 0 0 0 -2 2v3a2 3 0 0 1 -2 3a2 3 0 0 1 2 3v3a2 2 0 0 0 2 2" /><path d="M17 4a2 2 0 0 1 2 2v3a2 3 0 0 0 2 3a2 3 0 0 0 -2 3v3a2 2 0 0 1 -2 2" />
</symbol>
	<symbol id="brackets" class="icon icon-tabler icon-tabler-brackets" viewBox="0 0 24 24" stroke-width="2" stroke="currentColor" fill="none" stroke-linecap="round" stroke-linejoin="round"><path stroke="none" d="M0 0h24v24H0z"/><path d="M8 4h-3v16h3" /><path d="M16 4h3v16h-3" />
</symbol>
	<symbol id="ear" class="icon icon-tabler icon-tabler-ear" viewBox="0 0 24 24" stroke-width="2" stroke="currentColor" fill="none" stroke-linecap="round" stroke-linejoin="round"><path stroke="none" d="M0 0h24v24H0z"/><path d="M6 10a7 7 0 1 1 13 3.6a10 10 0 0 1 -2 2a8 8 0 0 0 -2 3  a4.5 4.5 0 0 1 -6.8 1.4" /><path d="M10 10a3 3 0 1 1 5 2.2" />
</symbol>
	<symbol id="emphasis" class="icon icon-tabler icon-tabler-emphasis" viewBox="0 0 24 24" stroke-width="2" stroke="currentColor" fill="none" stroke-linecap="round" stroke-linejoin="round"><path stroke="none" d="M0 0h24v24H0z"/><path d="M16 5 h-8v10h8m-1 -5h-7" /><line x1="6" y1="20" x2="6" y2="20.01" /><line x1="10" y1="20" x2="10" y2="20.01" /><line x1="14" y1="20" x2="14" y2="20.01" /><line x1="18" y1="20" x2="18" y2="20.01" />
</symbol>
	<symbol id="file-code" class="icon icon-tabler icon-tabler-file-code" viewBox="0 0 24 24" stroke-width="2" stroke="currentColor" fill="none" stroke-linecap="round" stroke-linejoin="round"><path stroke="none" d="M0 0h24v24H0z"/><polyline points="14 3 14 8 19 8" /><path d="M17 21h-10a2 2 0 0 1 -2 -2v-14a2 2 0 0 1 2 -2h7l5 5v11a2 2 0 0 1 -2 2z" /><path d="M10 13l-1 2l1 2" /><path d="M14 13l1 2l-1 2" />
</symbol>
	<symbol id="fingerprint" class="icon icon-tabler icon-tabler-fingerprint" viewBox="0 0 24 24" stroke-width="2" stroke="currentColor" fill="none" stroke-linecap="round" stroke-linejoin="round"><path stroke="none" d="M0 0h24v24H0z"/><path d="M18.9 7a8 8 0 0 1 1.1 5v1a6 6 0 0 0 .8 3" /><path d="M8 11a4 4 0 0 1 8 0v1a10 10 0 0 0 2 6" /><path d="M12 11v2a14 14 0 0 0 2.5 8" /><path d="M8 15a18 18 0 0 0 1.8 6" /><path d="M4.9 19a22 22 0 0 1 -.9 -7v-1a8 8 0 0 1 12 -6.95" />
</symbol>
	<symbol id="flask" class="icon icon-tabler icon-tabler-flask" viewBox="0 0 24 24" stroke-width="2" stroke="currentColor" fill="none" stroke-linecap="round" stroke-linejoin="round"><path stroke="none" d="M0 0h24v24H0z"/><line x1="9" y1="3" x2="15" y2="3" /><line x1="10" y1="9" x2="14" y2="9" /><path d="M10 3v6l-4 11a.7 .7 0 0 0 .5 1h11a.7 .7 0 0 0 .5 -1l-4 -11v-6" />
</symbol>
	<symbol id="focus-2" class="icon icon-tabler icon-tabler-focus-2" viewBox="0 0 24 24" stroke-width="2" stroke="currentColor" fill="none" stroke-linecap="round" stroke-linejoin="round"><path stroke="none" d="M0 0h24v24H0z"/><circle cx="12" cy="12" r=".5" fill="currentColor" /><circle cx="12" cy="12" r="7" /><line x1="12" y1="3" x2="12" y2="5" /><line x1="3" y1="12" x2="5" y2="12" /><line x1="12" y1="19" x2="12" y2="21" /><line x1="19" y1="12" x2="21" y2="12" />
</symbol>
	<symbol id="forbid-2" class="icon icon-tabler icon-tabler-forbid-2" viewBox="0 0 24 24" stroke-width="2" stroke="currentColor" fill="none" stroke-linecap="round" stroke-linejoin="round"><path stroke="none" d="M0 0h24v24H0z"/><circle cx="12" cy="12" r="9" /><line x1="9" y1="15" x2="15" y2="9" />
</symbol>
	<symbol id="forbid" class="icon icon-tabler icon-tabler-forbid" viewBox="0 0 24 24" stroke-width="2" stroke="currentColor" fill="none" stroke-linecap="round" stroke-linejoin="round"><path stroke="none" d="M0 0h24v24H0z"/><circle cx="12" cy="12" r="9" /><line x1="9" y1="9" x2="15" y2="15" />
</symbol>
	<symbol id="keyboard" class="icon icon-tabler icon-tabler-keyboard" viewBox="0 0 24 24" stroke-width="2" stroke="currentColor" fill="none" stroke-linecap="round" stroke-linejoin="round"><path stroke="none" d="M0 0h24v24H0z"/><rect x="3" y="4" width="18" height="16" rx="2" /><line x1="7" y1="8" x2="7" y2="8.01" /><line x1="12" y1="8" x2="12" y2="8.01" /><line x1="17" y1="8" x2="17" y2="8.01" /><line x1="7" y1="12" x2="7" y2="12.01" /><line x1="12" y1="12" x2="12" y2="12.01" /><line x1="17" y1="12" x2="17" y2="12.01" /><line x1="7" y1="16" x2="17" y2="16" />
</symbol>
	<symbol id="outlet" class="icon icon-tabler icon-tabler-outlet" viewBox="0 0 24 24" stroke-width="2" stroke="currentColor" fill="none" stroke-linecap="round" stroke-linejoin="round"><path stroke="none" d="M0 0h24v24H0z"/><rect x="4" y="4" width="16" height="16" rx="2" /><circle cx="9" cy="12" r=".5" fill="currentColor" /><circle cx="15" cy="12" r=".5" fill="currentColor" />
</symbol>
	<symbol id="parentheses" class="icon icon-tabler icon-tabler-parentheses" viewBox="0 0 24 24" stroke-width="2" stroke="currentColor" fill="none" stroke-linecap="round" stroke-linejoin="round"><path stroke="none" d="M0 0h24v24H0z"/><path d="M7 4a12.25 12.25 0 0 0 0 16" /><path d="M17 4a12.25 12.25 0 0 1 0 16" />
</symbol>
	<symbol id="plug" class="icon icon-tabler icon-tabler-plug" viewBox="0 0 24 24" stroke-width="2" stroke="currentColor" fill="none" stroke-linecap="round" stroke-linejoin="round"><path stroke="none" d="M0 0h24v24H0z"/><path d="M7 7h10v6a3 3 0 0 1 -3 3h-4a3 3 0 0 1 -3 -3v-6" /><line x1="9" y1="3" x2="9" y2="7" /><line x1="15" y1="3" x2="15" y2="7" /><path d="M12 16v2a2 2 0 0 0 2 2h3" />
</symbol>
	<symbol id="separator" class="icon icon-tabler icon-tabler-separator" viewBox="0 0 24 24" stroke-width="2" stroke="currentColor" fill="none" stroke-linecap="round" stroke-linejoin="round"><path stroke="none" d="M0 0h24v24H0z"/><line x1="3" y1="12" x2="3" y2="12.01" /><line x1="7" y1="12" x2="17" y2="12" /><line x1="21" y1="12" x2="21" y2="12.01" />
</symbol>
	<symbol id="slice" class="icon icon-tabler icon-tabler-slice" viewBox="0 0 24 24" stroke-width="2" stroke="currentColor" fill="none" stroke-linecap="round" stroke-linejoin="round"><path stroke="none" d="M0 0h24v24H0z"/><path d="M3 19l15 -15l3 3l-6 6l2 2a14 14 0 0 1 -14 4" />
</symbol>
	<symbol id="terminal" class="icon icon-tabler icon-tabler-terminal" viewBox="0 0 24 24" stroke-width="2" stroke="currentColor" fill="none" stroke-linecap="round" stroke-linejoin="round"><path stroke="none" d="M0 0h24v24H0z"/><path d="M5 7l5 5l-5 5" /><line x1="12" y1="19" x2="19" y2="19" />
</symbol>
	<symbol id="text-wrap" class="icon icon-tabler icon-tabler-text-wrap" viewBox="0 0 24 24" stroke-width="2" stroke="currentColor" fill="none" stroke-linecap="round" stroke-linejoin="round"><path stroke="none" d="M0 0h24v24H0z"/><line x1="4" y1="6" x2="20" y2="6" /><line x1="4" y1="18" x2="9" y2="18" /><path d="M4 12h13a3 3 0 0 1 0 6h-4l2 -2m0 4l-2 -2" />
</symbol>

	<use xlink:href="#braces" x="24" y="24" width="24" height="24" />
	<use xlink:href="#brackets" x="76" y="24" width="24" height="24" />
	<use xlink:href="#ear" x="128" y="24" width="24" height="24" />
	<use xlink:href="#emphasis" x="180" y="24" width="24" height="24" />
	<use xlink:href="#file-code" x="232" y="24" width="24" height="24" />
	<use xlink:href="#fingerprint" x="284" y="24" width="24" height="24" />
	<use xlink:href="#flask" x="24" y="76" width="24" height="24" />
	<use xlink:href="#focus-2" x="76" y="76" width="24" height="24" />
	<use xlink:href="#forbid-2" x="128" y="76" width="24" height="24" />
	<use xlink:href="#forbid" x="180" y="76" width="24" height="24" />
	<use xlink:href="#keyboard" x="232" y="76" width="24" height="24" />
	<use xlink:href="#outlet" x="284" y="76" width="24" height="24" />
	<use xlink:href="#parentheses" x="24" y="128" width="24" height="24" />
	<use xlink:href="#plug" x="76" y="128" width="24" height="24" />
	<use xlink:href="#separator" x="128" y="128" width="24" height="24" />
	<use xlink:href="#slice" x="180" y="128" width="24" height="24" />
	<use xlink:href="#terminal" x="232" y="128" width="24" height="24" />
	<use xlink:href="#text-wrap" x="284" y="128" width="24" height="24" />

</svg>