<svg xmlns="http://www.w3.org/2000/svg" xmlns:xlink="http://www.w3.org/1999/xlink" viewBox="0 0 292 160" width="292" height="160" style="color: #354052"><rect x="0" y="0" width="292" height="160" fill="#fff"></rect>
	<symbol id="file-3d" class="icon icon-tabler icon-tabler-file-3d" viewBox="0 0 24 24" stroke-width="2" stroke="currentColor" fill="none" stroke-linecap="round" stroke-linejoin="round"><path stroke="none" d="M0 0h24v24H0z" fill="none"/><path d="M14 3v4a1 1 0 0 0 1 1h4" /><path d="M17 21h-10a2 2 0 0 1 -2 -2v-14a2 2 0 0 1 2 -2h7l5 5v11a2 2 0 0 1 -2 2z" /><path d="M12 13.5l4 -1.5" /><path d="M8 11.846l4 1.654v4.5l4 -1.846v-4.308l-4 -1.846z" /><path d="M8 12v4.2l4 1.8" />
</symbol>
	<symbol id="file-arrow-left" class="icon icon-tabler icon-tabler-file-arrow-left" viewBox="0 0 24 24" stroke-width="2" stroke="currentColor" fill="none" stroke-linecap="round" stroke-linejoin="round"><path stroke="none" d="M0 0h24v24H0z" fill="none"/><path d="M14 3v4a1 1 0 0 0 1 1h4" /><path d="M17 21h-10a2 2 0 0 1 -2 -2v-14a2 2 0 0 1 2 -2h7l5 5v11a2 2 0 0 1 -2 2z" /><path d="M15 15h-6" /><path d="M11.5 17.5l-2.5 -2.5l2.5 -2.5" />
</symbol>
	<symbol id="file-arrow-right" class="icon icon-tabler icon-tabler-file-arrow-right" viewBox="0 0 24 24" stroke-width="2" stroke="currentColor" fill="none" stroke-linecap="round" stroke-linejoin="round"><path stroke="none" d="M0 0h24v24H0z" fill="none"/><path d="M14 3v4a1 1 0 0 0 1 1h4" /><path d="M17 21h-10a2 2 0 0 1 -2 -2v-14a2 2 0 0 1 2 -2h7l5 5v11a2 2 0 0 1 -2 2z" /><path d="M9 15h6" /><path d="M12.5 17.5l2.5 -2.5l-2.5 -2.5" />
</symbol>
	<symbol id="file-barcode" class="icon icon-tabler icon-tabler-file-barcode" viewBox="0 0 24 24" stroke-width="2" stroke="currentColor" fill="none" stroke-linecap="round" stroke-linejoin="round"><path stroke="none" d="M0 0h24v24H0z" fill="none"/><path d="M14 3v4a1 1 0 0 0 1 1h4" /><path d="M17 21h-10a2 2 0 0 1 -2 -2v-14a2 2 0 0 1 2 -2h7l5 5v11a2 2 0 0 1 -2 2z" /><path d="M8 13h1v3h-1z" /><path d="M12 13v3" /><path d="M15 13h1v3h-1z" />
</symbol>
	<symbol id="file-chart" class="icon icon-tabler icon-tabler-file-chart" viewBox="0 0 24 24" stroke-width="2" stroke="currentColor" fill="none" stroke-linecap="round" stroke-linejoin="round"><path stroke="none" d="M0 0h24v24H0z" fill="none"/><path d="M14 3v4a1 1 0 0 0 1 1h4" /><path d="M17 21h-10a2 2 0 0 1 -2 -2v-14a2 2 0 0 1 2 -2h7l5 5v11a2 2 0 0 1 -2 2z" /><path d="M12 10v4h4" /><circle cx="12" cy="14" r="4" />
</symbol>
	<symbol id="file-database" class="icon icon-tabler icon-tabler-file-database" viewBox="0 0 24 24" stroke-width="2" stroke="currentColor" fill="none" stroke-linecap="round" stroke-linejoin="round"><path stroke="none" d="M0 0h24v24H0z" fill="none"/><ellipse cx="12" cy="12.75" rx="4" ry="1.75" /><path d="M8 12.5v3.75c0 .966 1.79 1.75 4 1.75s4 -.784 4 -1.75v-3.75" /><path d="M14 3v4a1 1 0 0 0 1 1h4" /><path d="M17 21h-10a2 2 0 0 1 -2 -2v-14a2 2 0 0 1 2 -2h7l5 5v11a2 2 0 0 1 -2 2z" />
</symbol>
	<symbol id="file-dots" class="icon icon-tabler icon-tabler-file-dots" viewBox="0 0 24 24" stroke-width="2" stroke="currentColor" fill="none" stroke-linecap="round" stroke-linejoin="round"><path stroke="none" d="M0 0h24v24H0z" fill="none"/><path d="M14 3v4a1 1 0 0 0 1 1h4" /><path d="M17 21h-10a2 2 0 0 1 -2 -2v-14a2 2 0 0 1 2 -2h7l5 5v11a2 2 0 0 1 -2 2z" /><path d="M9 14v.01" /><path d="M12 14v.01" /><path d="M15 14v.01" />
</symbol>
	<symbol id="file-pencil" class="icon icon-tabler icon-tabler-file-pencil" viewBox="0 0 24 24" stroke-width="2" stroke="currentColor" fill="none" stroke-linecap="round" stroke-linejoin="round"><path stroke="none" d="M0 0h24v24H0z" fill="none"/><path d="M14 3v4a1 1 0 0 0 1 1h4" /><path d="M17 21h-10a2 2 0 0 1 -2 -2v-14a2 2 0 0 1 2 -2h7l5 5v11a2 2 0 0 1 -2 2z" /><path d="M10 18l5 -5a1.414 1.414 0 0 0 -2 -2l-5 5v2h2z" />
</symbol>
	<symbol id="file-power" class="icon icon-tabler icon-tabler-file-power" viewBox="0 0 24 24" stroke-width="2" stroke="currentColor" fill="none" stroke-linecap="round" stroke-linejoin="round"><path stroke="none" d="M0 0h24v24H0z" fill="none"/><path d="M14 3v4a1 1 0 0 0 1 1h4" /><path d="M17 21h-10a2 2 0 0 1 -2 -2v-14a2 2 0 0 1 2 -2h7l5 5v11a2 2 0 0 1 -2 2z" /><path d="M12 11l-2 3h4l-2 3" />
</symbol>
	<symbol id="file-rss" class="icon icon-tabler icon-tabler-file-rss" viewBox="0 0 24 24" stroke-width="2" stroke="currentColor" fill="none" stroke-linecap="round" stroke-linejoin="round"><path stroke="none" d="M0 0h24v24H0z" fill="none"/><path d="M14 3v4a1 1 0 0 0 1 1h4" /><path d="M17 21h-10a2 2 0 0 1 -2 -2v-14a2 2 0 0 1 2 -2h7l5 5v11a2 2 0 0 1 -2 2z" /><path d="M12 17a3 3 0 0 0 -3 -3" /><path d="M15 17a6 6 0 0 0 -6 -6" /><path d="M9 17h.01" />
</symbol>
	<symbol id="file-scissors" class="icon icon-tabler icon-tabler-file-scissors" viewBox="0 0 24 24" stroke-width="2" stroke="currentColor" fill="none" stroke-linecap="round" stroke-linejoin="round"><path stroke="none" d="M0 0h24v24H0z" fill="none"/><path d="M14 3v4a1 1 0 0 0 1 1h4" /><path d="M17 21h-10a2 2 0 0 1 -2 -2v-14a2 2 0 0 1 2 -2h7l5 5v11a2 2 0 0 1 -2 2z" /><circle cx="15" cy="17" r="1" /><circle cx="9" cy="17" r="1" /><path d="M9 17l6 -6" /><path d="M15 17l-6 -6" />
</symbol>
	<symbol id="file-signal" class="icon icon-tabler icon-tabler-file-signal" viewBox="0 0 24 24" stroke-width="2" stroke="currentColor" fill="none" stroke-linecap="round" stroke-linejoin="round"><path stroke="none" d="M0 0h24v24H0z" fill="none"/><path d="M14 3v4a1 1 0 0 0 1 1h4" /><path d="M17 21h-10a2 2 0 0 1 -2 -2v-14a2 2 0 0 1 2 -2h7l5 5v11a2 2 0 0 1 -2 2z" /><path d="M12 14v.01" /><path d="M9.525 11.525a3.5 3.5 0 0 0 0 4.95m4.95 0a3.5 3.5 0 0 0 0 -4.95" />
</symbol>
	<symbol id="file-spreadsheet" class="icon icon-tabler icon-tabler-file-spreadsheet" viewBox="0 0 24 24" stroke-width="2" stroke="currentColor" fill="none" stroke-linecap="round" stroke-linejoin="round"><path stroke="none" d="M0 0h24v24H0z" fill="none"/><path d="M14 3v4a1 1 0 0 0 1 1h4" /><path d="M17 21h-10a2 2 0 0 1 -2 -2v-14a2 2 0 0 1 2 -2h7l5 5v11a2 2 0 0 1 -2 2z" /><path d="M8 11h8v7h-8z" /><path d="M8 15h8" /><path d="M11 11v7" />
</symbol>
	<symbol id="file-star" class="icon icon-tabler icon-tabler-file-star" viewBox="0 0 24 24" stroke-width="2" stroke="currentColor" fill="none" stroke-linecap="round" stroke-linejoin="round"><path stroke="none" d="M0 0h24v24H0z" fill="none"/><path d="M14 3v4a1 1 0 0 0 1 1h4" /><path d="M17 21h-10a2 2 0 0 1 -2 -2v-14a2 2 0 0 1 2 -2h7l5 5v11a2 2 0 0 1 -2 2z" /><path d="M11.8 16.817l-2.172 1.138a0.392 .392 0 0 1 -.568 -.41l.415 -2.411l-1.757 -1.707a0.389 .389 0 0 1 .217 -.665l2.428 -.352l1.086 -2.193a0.392 .392 0 0 1 .702 0l1.086 2.193l2.428 .352a0.39 .39 0 0 1 .217 .665l-1.757 1.707l.414 2.41a0.39 .39 0 0 1 -.567 .411l-2.172 -1.138z" />
</symbol>
	<symbol id="file-time" class="icon icon-tabler icon-tabler-file-time" viewBox="0 0 24 24" stroke-width="2" stroke="currentColor" fill="none" stroke-linecap="round" stroke-linejoin="round"><path stroke="none" d="M0 0h24v24H0z" fill="none"/><path d="M14 3v4a1 1 0 0 0 1 1h4" /><path d="M17 21h-10a2 2 0 0 1 -2 -2v-14a2 2 0 0 1 2 -2h7l5 5v11a2 2 0 0 1 -2 2z" /><circle cx="12" cy="14" r="4" /><path d="M12 12.496v1.504l1 1" />
</symbol>
	<symbol id="file-typography" class="icon icon-tabler icon-tabler-file-typography" viewBox="0 0 24 24" stroke-width="2" stroke="currentColor" fill="none" stroke-linecap="round" stroke-linejoin="round"><path stroke="none" d="M0 0h24v24H0z" fill="none"/><path d="M14 3v4a1 1 0 0 0 1 1h4" /><path d="M17 21h-10a2 2 0 0 1 -2 -2v-14a2 2 0 0 1 2 -2h7l5 5v11a2 2 0 0 1 -2 2z" /><path d="M11 18h2" /><path d="M12 18v-7" /><path d="M9 12v-1h6v1" />
</symbol>
	<symbol id="file-unknown" class="icon icon-tabler icon-tabler-file-unknown" viewBox="0 0 24 24" stroke-width="2" stroke="currentColor" fill="none" stroke-linecap="round" stroke-linejoin="round"><path stroke="none" d="M0 0h24v24H0z" fill="none"/><path d="M14 3v4a1 1 0 0 0 1 1h4" /><path d="M17 21h-10a2 2 0 0 1 -2 -2v-14a2 2 0 0 1 2 -2h7l5 5v11a2 2 0 0 1 -2 2z" /><path d="M12 17v.01" /><path d="M12 14a1.5 1.5 0 1 0 -1.14 -2.474" />
</symbol>
	<symbol id="file-vector" class="icon icon-tabler icon-tabler-file-vector" viewBox="0 0 24 24" stroke-width="2" stroke="currentColor" fill="none" stroke-linecap="round" stroke-linejoin="round"><path stroke="none" d="M0 0h24v24H0z" fill="none"/><path d="M14 3v4a1 1 0 0 0 1 1h4" /><circle cx="9.5" cy="16.5" r="1.5" /><circle cx="14.5" cy="12.5" r="1.5" /><path d="M17 21h-10a2 2 0 0 1 -2 -2v-14a2 2 0 0 1 2 -2h7l5 5v11a2 2 0 0 1 -2 2z" /><path d="M9.5 15a2.5 2.5 0 0 1 2.5 -2.5h1" />
</symbol>

	<use xlink:href="#file-3d" x="24" y="24" width="24" height="24" />
	<use xlink:href="#file-arrow-left" x="68" y="24" width="24" height="24" />
	<use xlink:href="#file-arrow-right" x="112" y="24" width="24" height="24" />
	<use xlink:href="#file-barcode" x="156" y="24" width="24" height="24" />
	<use xlink:href="#file-chart" x="200" y="24" width="24" height="24" />
	<use xlink:href="#file-database" x="244" y="24" width="24" height="24" />
	<use xlink:href="#file-dots" x="24" y="68" width="24" height="24" />
	<use xlink:href="#file-pencil" x="68" y="68" width="24" height="24" />
	<use xlink:href="#file-power" x="112" y="68" width="24" height="24" />
	<use xlink:href="#file-rss" x="156" y="68" width="24" height="24" />
	<use xlink:href="#file-scissors" x="200" y="68" width="24" height="24" />
	<use xlink:href="#file-signal" x="244" y="68" width="24" height="24" />
	<use xlink:href="#file-spreadsheet" x="24" y="112" width="24" height="24" />
	<use xlink:href="#file-star" x="68" y="112" width="24" height="24" />
	<use xlink:href="#file-time" x="112" y="112" width="24" height="24" />
	<use xlink:href="#file-typography" x="156" y="112" width="24" height="24" />
	<use xlink:href="#file-unknown" x="200" y="112" width="24" height="24" />
	<use xlink:href="#file-vector" x="244" y="112" width="24" height="24" />

</svg>