<svg xmlns="http://www.w3.org/2000/svg" xmlns:xlink="http://www.w3.org/1999/xlink" viewBox="0 0 337 284" width="337" height="284" style="color: #354052"><rect x="0" y="0" width="337" height="284" fill="#fff"></rect>
	<symbol id="aperture" class="icon icon-tabler icon-tabler-aperture" viewBox="0 0 24 24" stroke-width="2" stroke="currentColor" fill="none" stroke-linecap="round" stroke-linejoin="round"><path stroke="none" d="M0 0h24v24H0z"/><circle cx="12" cy="12" r="9" /><line x1="3.6" y1="15" x2="14.15" y2="15" /><line x1="3.6" y1="15" x2="14.15" y2="15" transform="rotate(72 12 12)" /><line x1="3.6" y1="15" x2="14.15" y2="15" transform="rotate(144 12 12)" /><line x1="3.6" y1="15" x2="14.15" y2="15" transform="rotate(216 12 12)" /><line x1="3.6" y1="15" x2="14.15" y2="15" transform="rotate(288 12 12)" />
</symbol>
	<symbol id="arrows-horizontal" class="icon icon-tabler icon-tabler-arrows-horizontal" viewBox="0 0 24 24" stroke-width="2" stroke="currentColor" fill="none" stroke-linecap="round" stroke-linejoin="round"><path stroke="none" d="M0 0h24v24H0z"/><polyline points="7 8 3 12 7 16" /><polyline points="17 8 21 12 17 16" /><line x1="3" y1="12" x2="21" y2="12" />
</symbol>
	<symbol id="arrows-sort" class="icon icon-tabler icon-tabler-arrows-sort" viewBox="0 0 24 24" stroke-width="2" stroke="currentColor" fill="none" stroke-linecap="round" stroke-linejoin="round"><path stroke="none" d="M0 0h24v24H0z"/><path d="M3 9l4-4l4 4m-4 -4v14" /><path d="M21 15l-4 4l-4-4m4 4v-14" />
</symbol>
	<symbol id="arrows-vertical" class="icon icon-tabler icon-tabler-arrows-vertical" viewBox="0 0 24 24" stroke-width="2" stroke="currentColor" fill="none" stroke-linecap="round" stroke-linejoin="round"><path stroke="none" d="M0 0h24v24H0z"/><polyline points="8 7 12 3 16 7" /><polyline points="8 17 12 21 16 17" /><line x1="12" y1="3" x2="12" y2="21" />
</symbol>
	<symbol id="bed" class="icon icon-tabler icon-tabler-bed" viewBox="0 0 24 24" stroke-width="2" stroke="currentColor" fill="none" stroke-linecap="round" stroke-linejoin="round"><path stroke="none" d="M0 0h24v24H0z"/><path d="M4 18v-5a2 2 0 0 1 2 -2h12a2 2 0 0 1 2 2v5m0 -2h-16" /><path d="M6 11v-2a2 2 0 0 1 2 -2h8a2 2 0 0 1 2 2v2" />
</symbol>
	<symbol id="caret-down" class="icon icon-tabler icon-tabler-caret-down" viewBox="0 0 24 24" stroke-width="2" stroke="currentColor" fill="none" stroke-linecap="round" stroke-linejoin="round"><path stroke="none" d="M0 0h24v24H0z"/><path d="M18 15l-6-6l-6 6h12" transform="rotate(180 12 12)" />
</symbol>
	<symbol id="caret-left" class="icon icon-tabler icon-tabler-caret-left" viewBox="0 0 24 24" stroke-width="2" stroke="currentColor" fill="none" stroke-linecap="round" stroke-linejoin="round"><path stroke="none" d="M0 0h24v24H0z"/><path d="M18 15l-6-6l-6 6h12" transform="rotate(270 12 12)" />
</symbol>
	<symbol id="caret-right" class="icon icon-tabler icon-tabler-caret-right" viewBox="0 0 24 24" stroke-width="2" stroke="currentColor" fill="none" stroke-linecap="round" stroke-linejoin="round"><path stroke="none" d="M0 0h24v24H0z"/><path d="M18 15l-6-6l-6 6h12" transform="rotate(90 12 12)" />
</symbol>
	<symbol id="caret-up" class="icon icon-tabler icon-tabler-caret-up" viewBox="0 0 24 24" stroke-width="2" stroke="currentColor" fill="none" stroke-linecap="round" stroke-linejoin="round"><path stroke="none" d="M0 0h24v24H0z"/><path d="M18 15l-6-6l-6 6h12" />
</symbol>
	<symbol id="color-swatch" class="icon icon-tabler icon-tabler-color-swatch" viewBox="0 0 24 24" stroke-width="2" stroke="currentColor" fill="none" stroke-linecap="round" stroke-linejoin="round"><path stroke="none" d="M0 0h24v24H0z"/><path d="M19 3h-4a2 2 0 0 0 -2 2v12a4 4 0 0 0 8 0v-12a2 2 0 0 0 -2 -2" /><path d="M13 7.35l-2 -2a2 2 0 0 0 -2.828 0l-2.828 2.828a2 2 0 0 0 0 2.828l 9 9" /><path d="M7.3 13h-2.3a2 2 0 0 0 -2 2v4a2 2 0 0 0 2 2h12" /><line x1="17" y1="17" x2="17" y2="17.01" />
</symbol>
	<symbol id="device-floppy" class="icon icon-tabler icon-tabler-device-floppy" viewBox="0 0 24 24" stroke-width="2" stroke="currentColor" fill="none" stroke-linecap="round" stroke-linejoin="round"><path stroke="none" d="M0 0h24v24H0z"/><path d="M6 4h10l4 4v10a2 2 0 0 1 -2 2h-12a2 2 0 0 1 -2 -2v-12a2 2 0 0 1 2 -2" /><circle cx="12" cy="14" r="2" /><polyline points="14 4 14 8 8 8 8 4" />
</symbol>
	<symbol id="device-gamepad" class="icon icon-tabler icon-tabler-device-gamepad" viewBox="0 0 24 24" stroke-width="2" stroke="currentColor" fill="none" stroke-linecap="round" stroke-linejoin="round"><path stroke="none" d="M0 0h24v24H0z"/><rect x="2" y="6" width="20" height="12" rx="2" /><path d="M6 12h4m-2 -2v4" /><line x1="15" y1="11" x2="15" y2="11.01" /><line x1="18" y1="13" x2="18" y2="13.01" />
</symbol>
	<symbol id="device-laptop" class="icon icon-tabler icon-tabler-device-laptop" viewBox="0 0 24 24" stroke-width="2" stroke="currentColor" fill="none" stroke-linecap="round" stroke-linejoin="round"><path stroke="none" d="M0 0h24v24H0z"/><line x1="3" y1="19" x2="21" y2="19" /><rect x="5" y="6" width="14" height="10" rx="1" />
</symbol>
	<symbol id="diamond" class="icon icon-tabler icon-tabler-diamond" viewBox="0 0 24 24" stroke-width="2" stroke="currentColor" fill="none" stroke-linecap="round" stroke-linejoin="round"><path stroke="none" d="M0 0h24v24H0z"/><path d="M6 5h12l3 5l-8.5 9.5a.7 .7 0 0 1 -1 0l-8.5 -9.5l3 -5" /><path d="M10 12l-2 -2.2l.6 -1" />
</symbol>
	<symbol id="dice" class="icon icon-tabler icon-tabler-dice" viewBox="0 0 24 24" stroke-width="2" stroke="currentColor" fill="none" stroke-linecap="round" stroke-linejoin="round"><path stroke="none" d="M0 0h24v24H0z"/><rect x="4" y="4" width="16" height="16" rx="2" /><circle cx="9" cy="9" r="1" /><circle cx="15" cy="9" r="1" /><circle cx="15" cy="15" r="1" /><circle cx="9" cy="15" r="1" />
</symbol>
	<symbol id="file-invoice" class="icon icon-tabler icon-tabler-file-invoice" viewBox="0 0 24 24" stroke-width="2" stroke="currentColor" fill="none" stroke-linecap="round" stroke-linejoin="round"><path stroke="none" d="M0 0h24v24H0z"/><polyline points="14 3 14 8 19 8" /><path d="M17 21H7a2 2 0 0 1 -2 -2V5a2 2 0 0 1 2 -2h7l5 5v11a2 2 0 0 1 -2 2z" /><line x1="9" y1="7" x2="10" y2="7" /><line x1="9" y1="13" x2="15" y2="13" /><line x1="13" y1="17" x2="15" y2="17" />
</symbol>
	<symbol id="gift" class="icon icon-tabler icon-tabler-gift" viewBox="0 0 24 24" stroke-width="2" stroke="currentColor" fill="none" stroke-linecap="round" stroke-linejoin="round"><path stroke="none" d="M0 0h24v24H0z"/><rect x="3" y="8" width="18" height="4" rx="1" /><line x1="12" y1="8" x2="12" y2="21" /><path d="M19 12v7a2 2 0 0 1 -2 2h-10a2 2 0 0 1 -2 -2v-7" /><path d="M7.5 8a2.5 2.5 0 0 1 0 -5a4.8 8 0 0 1 4.5 5a4.8 8 0 0 1 4.5 -5a2.5 2.5 0 0 1 0 5" />
</symbol>
	<symbol id="infinity" class="icon icon-tabler icon-tabler-infinity" viewBox="0 0 24 24" stroke-width="2" stroke="currentColor" fill="none" stroke-linecap="round" stroke-linejoin="round"><path stroke="none" d="M0 0h24v24H0z"/><path d="M9.828 9.172a4 4 0 1 0 0 5.656 a10 10 0 0 0 2.172 -2.828a10 10 0 0 1 2.172 -2.828 a4 4 0 1 1 0 5.656a10 10 0 0 1 -2.172 -2.828a10 10 0 0 0 -2.172 -2.828" />
</symbol>
	<symbol id="list-check" class="icon icon-tabler icon-tabler-list-check" viewBox="0 0 24 24" stroke-width="2" stroke="currentColor" fill="none" stroke-linecap="round" stroke-linejoin="round"><path stroke="none" d="M0 0h24v24H0z"/><path d="M3.5 5.5l1.5 1.5l2.5 -2.5" /><path d="M3.5 11.5l1.5 1.5l2.5 -2.5" /><path d="M3.5 17.5l1.5 1.5l2.5 -2.5" /><line x1="11" y1="6" x2="20" y2="6" /><line x1="11" y1="12" x2="20" y2="12" /><line x1="11" y1="18" x2="20" y2="18" />
</symbol>
	<symbol id="list" class="icon icon-tabler icon-tabler-list" viewBox="0 0 24 24" stroke-width="2" stroke="currentColor" fill="none" stroke-linecap="round" stroke-linejoin="round"><path stroke="none" d="M0 0h24v24H0z"/><line x1="10" y1="6" x2="20" y2="6" /><line x1="10" y1="12" x2="20" y2="12" /><line x1="10" y1="18" x2="20" y2="18" /><circle cx="5" cy="6" r="1" /><circle cx="5" cy="12" r="1" /><circle cx="5" cy="18" r="1" />
</symbol>
	<symbol id="messages" class="icon icon-tabler icon-tabler-messages" viewBox="0 0 24 24" stroke-width="2" stroke="currentColor" fill="none" stroke-linecap="round" stroke-linejoin="round"><path stroke="none" d="M0 0h24v24H0z"/><path d="M21 14l-3 -3h-7a1 1 0 0 1 -1 -1v-6a1 1 0 0 1 1 -1h9a1 1 0 0 1 1 1v10" /><path d="M14 15v2a1 1 0 0 1 -1 1h-7l-3 3v-10a1 1 0 0 1 1 -1h2" />
</symbol>
	<symbol id="note" class="icon icon-tabler icon-tabler-note" viewBox="0 0 24 24" stroke-width="2" stroke="currentColor" fill="none" stroke-linecap="round" stroke-linejoin="round"><path stroke="none" d="M0 0h24v24H0z"/><line x1="13" y1="20" x2="20" y2="13" /><path d="M13 20v-6a1 1 0 0 1 1 -1h6v-7a2 2 0 0 0 -2 -2h-12a2 2 0 0 0 -2 2v12a2 2 0 0 0 2 2h7" />
</symbol>
	<symbol id="notes" class="icon icon-tabler icon-tabler-notes" viewBox="0 0 24 24" stroke-width="2" stroke="currentColor" fill="none" stroke-linecap="round" stroke-linejoin="round"><path stroke="none" d="M0 0h24v24H0z"/><rect x="5" y="3" width="14" height="18" rx="2" /><line x1="9" y1="7" x2="15" y2="7" /><line x1="9" y1="11" x2="15" y2="11" /><line x1="9" y1="15" x2="13" y2="15" />
</symbol>
	<symbol id="plane" class="icon icon-tabler icon-tabler-plane" viewBox="0 0 24 24" stroke-width="2" stroke="currentColor" fill="none" stroke-linecap="round" stroke-linejoin="round"><path stroke="none" d="M0 0h24v24H0z"/><path d="M16 10h4a2 2 0 0 1 0 4h-4l-4 7h-3l2 -7h-4l-2 2h-3l2-4l-2 -4h3l2 2h4l-2 -7h4z" />
</symbol>
	<symbol id="presentation" class="icon icon-tabler icon-tabler-presentation" viewBox="0 0 24 24" stroke-width="2" stroke="currentColor" fill="none" stroke-linecap="round" stroke-linejoin="round"><path stroke="none" d="M0 0h24v24H0z"/><line x1="3" y1="4" x2="21" y2="4" /><path d="M4 4v10a2 2 0 0 0 2 2h12a2 2 0 0 0 2 -2v-10" /><line x1="12" y1="16" x2="12" y2="20" /><line x1="9" y1="20" x2="15" y2="20" /><path d="M8 12l3 -3l2 2l3 -3" />
</symbol>
	<symbol id="repeat-once" class="icon icon-tabler icon-tabler-repeat-once" viewBox="0 0 24 24" stroke-width="2" stroke="currentColor" fill="none" stroke-linecap="round" stroke-linejoin="round"><path stroke="none" d="M0 0h24v24H0z"/><path d="M4 12v-3a3 3 0 0 1 3 -3h13m-3 -3l3 3l-3 3" /><path d="M20 12v3a3 3 0 0 1 -3 3h-13m3 3l-3-3l3-3" /><path d="M11 11l1 -1v4" />
</symbol>
	<symbol id="repeat" class="icon icon-tabler icon-tabler-repeat" viewBox="0 0 24 24" stroke-width="2" stroke="currentColor" fill="none" stroke-linecap="round" stroke-linejoin="round"><path stroke="none" d="M0 0h24v24H0z"/><path d="M4 12v-3a3 3 0 0 1 3 -3h13m-3 -3l3 3l-3 3" /><path d="M20 12v3a3 3 0 0 1 -3 3h-13m3 3l-3-3l3-3" />
</symbol>
	<symbol id="sum" class="icon icon-tabler icon-tabler-sum" viewBox="0 0 24 24" stroke-width="2" stroke="currentColor" fill="none" stroke-linecap="round" stroke-linejoin="round"><path stroke="none" d="M0 0h24v24H0z"/><path d="M18 16v2a1 1 0 0 1 -1 1h-11l6-7l-6-7h11a1 1 0 0 1 1 1v2" />
</symbol>
	<symbol id="virus" class="icon icon-tabler icon-tabler-virus" viewBox="0 0 24 24" stroke-width="2" stroke="currentColor" fill="none" stroke-linecap="round" stroke-linejoin="round"><path stroke="none" d="M0 0h24v24H0z"/><circle cx="12" cy="12" r="5" /><path d="M12 7v-4m-1 0h2" /><path d="M12 7v-4m-1 0h2" transform="rotate(45 12 12)" /><path d="M12 7v-4m-1 0h2" transform="rotate(90 12 12)" /><path d="M12 7v-4m-1 0h2" transform="rotate(135 12 12)" /><path d="M12 7v-4m-1 0h2" transform="rotate(180 12 12)" /><path d="M12 7v-4m-1 0h2" transform="rotate(225 12 12)" /><path d="M12 7v-4m-1 0h2" transform="rotate(270 12 12)" /><path d="M12 7v-4m-1 0h2" transform="rotate(315 12 12)" />
</symbol>
	<symbol id="wallet" class="icon icon-tabler icon-tabler-wallet" viewBox="0 0 24 24" stroke-width="2" stroke="currentColor" fill="none" stroke-linecap="round" stroke-linejoin="round"><path stroke="none" d="M0 0h24v24H0z"/><path d="M17 8v-3a1 1 0 0 0 -1 -1h-10a2 2 0 0 0 0 4h12a1 1 0 0 1 1 1v3m0 4v3a1 1 0 0 1 -1 1h-12a2 2 0 0 1 -2 -2v-12" /><path d="M20 12v4h-4a2 2 0 0 1 0 -4h4" />
</symbol>

	<use xlink:href="#aperture" x="24" y="24" width="24" height="24" />
	<use xlink:href="#arrows-horizontal" x="77" y="24" width="24" height="24" />
	<use xlink:href="#arrows-sort" x="130" y="24" width="24" height="24" />
	<use xlink:href="#arrows-vertical" x="183" y="24" width="24" height="24" />
	<use xlink:href="#bed" x="236" y="24" width="24" height="24" />
	<use xlink:href="#caret-down" x="289" y="24" width="24" height="24" />
	<use xlink:href="#caret-left" x="24" y="77" width="24" height="24" />
	<use xlink:href="#caret-right" x="77" y="77" width="24" height="24" />
	<use xlink:href="#caret-up" x="130" y="77" width="24" height="24" />
	<use xlink:href="#color-swatch" x="183" y="77" width="24" height="24" />
	<use xlink:href="#device-floppy" x="236" y="77" width="24" height="24" />
	<use xlink:href="#device-gamepad" x="289" y="77" width="24" height="24" />
	<use xlink:href="#device-laptop" x="24" y="130" width="24" height="24" />
	<use xlink:href="#diamond" x="77" y="130" width="24" height="24" />
	<use xlink:href="#dice" x="130" y="130" width="24" height="24" />
	<use xlink:href="#file-invoice" x="183" y="130" width="24" height="24" />
	<use xlink:href="#gift" x="236" y="130" width="24" height="24" />
	<use xlink:href="#infinity" x="289" y="130" width="24" height="24" />
	<use xlink:href="#list-check" x="24" y="183" width="24" height="24" />
	<use xlink:href="#list" x="77" y="183" width="24" height="24" />
	<use xlink:href="#messages" x="130" y="183" width="24" height="24" />
	<use xlink:href="#note" x="183" y="183" width="24" height="24" />
	<use xlink:href="#notes" x="236" y="183" width="24" height="24" />
	<use xlink:href="#plane" x="289" y="183" width="24" height="24" />
	<use xlink:href="#presentation" x="24" y="236" width="24" height="24" />
	<use xlink:href="#repeat-once" x="77" y="236" width="24" height="24" />
	<use xlink:href="#repeat" x="130" y="236" width="24" height="24" />
	<use xlink:href="#sum" x="183" y="236" width="24" height="24" />
	<use xlink:href="#virus" x="236" y="236" width="24" height="24" />
	<use xlink:href="#wallet" x="289" y="236" width="24" height="24" />

</svg>