<svg xmlns="http://www.w3.org/2000/svg" xmlns:xlink="http://www.w3.org/1999/xlink" viewBox="0 0 292 204" width="292" height="204" style="color: #354052"><rect x="0" y="0" width="292" height="204" fill="#fff"></rect>
	<symbol id="alert-hexagon-filled" class="icon icon-tabler icon-tabler-alert-hexagon-filled" viewBox="0 0 24 24" stroke-width="2" stroke="currentColor" fill="none" stroke-linecap="round" stroke-linejoin="round"><path stroke="none" d="M0 0h24v24H0z" fill="none"/><path d="M10.425 1.414a3.33 3.33 0 0 1 3.026 -.097l.19 .097l6.775 3.995l.096 .063l.092 .077l.107 .075a3.224 3.224 0 0 1 1.266 2.188l.018 .202l.005 .204v7.284c0 1.106 -.57 2.129 -1.454 2.693l-.17 .1l-6.803 4.302c-.918 .504 -2.019 .535 -3.004 .068l-.196 -.1l-6.695 -4.237a3.225 3.225 0 0 1 -1.671 -2.619l-.007 -.207v-7.285c0 -1.106 .57 -2.128 1.476 -2.705l6.95 -4.098zm1.585 13.586l-.127 .007a1 1 0 0 0 0 1.986l.117 .007l.127 -.007a1 1 0 0 0 0 -1.986l-.117 -.007zm-.01 -8a1 1 0 0 0 -.993 .883l-.007 .117v4l.007 .117a1 1 0 0 0 1.986 0l.007 -.117v-4l-.007 -.117a1 1 0 0 0 -.993 -.883z" stroke-width="0" fill="currentColor" />
</symbol>
	<symbol id="alert-square-filled" class="icon icon-tabler icon-tabler-alert-square-filled" viewBox="0 0 24 24" stroke-width="2" stroke="currentColor" fill="none" stroke-linecap="round" stroke-linejoin="round"><path stroke="none" d="M0 0h24v24H0z" fill="none"/><path d="M19 2a3 3 0 0 1 2.995 2.824l.005 .176v14a3 3 0 0 1 -2.824 2.995l-.176 .005h-14a3 3 0 0 1 -2.995 -2.824l-.005 -.176v-14a3 3 0 0 1 2.824 -2.995l.176 -.005h14zm-6.99 13l-.127 .007a1 1 0 0 0 0 1.986l.117 .007l.127 -.007a1 1 0 0 0 0 -1.986l-.117 -.007zm-.01 -8a1 1 0 0 0 -.993 .883l-.007 .117v4l.007 .117a1 1 0 0 0 1.986 0l.007 -.117v-4l-.007 -.117a1 1 0 0 0 -.993 -.883z" stroke-width="0" fill="currentColor" />
</symbol>
	<symbol id="alert-square-rounded-filled" class="icon icon-tabler icon-tabler-alert-square-rounded-filled" viewBox="0 0 24 24" stroke-width="2" stroke="currentColor" fill="none" stroke-linecap="round" stroke-linejoin="round"><path stroke="none" d="M0 0h24v24H0z" fill="none"/><path d="M12 2l.642 .005l.616 .017l.299 .013l.579 .034l.553 .046c4.687 .455 6.65 2.333 7.166 6.906l.03 .29l.046 .553l.041 .727l.006 .15l.017 .617l.005 .642l-.005 .642l-.017 .616l-.013 .299l-.034 .579l-.046 .553c-.455 4.687 -2.333 6.65 -6.906 7.166l-.29 .03l-.553 .046l-.727 .041l-.15 .006l-.617 .017l-.642 .005l-.642 -.005l-.616 -.017l-.299 -.013l-.579 -.034l-.553 -.046c-4.687 -.455 -6.65 -2.333 -7.166 -6.906l-.03 -.29l-.046 -.553l-.041 -.727l-.006 -.15l-.017 -.617l-.004 -.318v-.648l.004 -.318l.017 -.616l.013 -.299l.034 -.579l.046 -.553c.455 -4.687 2.333 -6.65 6.906 -7.166l.29 -.03l.553 -.046l.727 -.041l.15 -.006l.617 -.017c.21 -.003 .424 -.005 .642 -.005zm.01 13l-.127 .007a1 1 0 0 0 0 1.986l.117 .007l.127 -.007a1 1 0 0 0 0 -1.986l-.117 -.007zm-.01 -8a1 1 0 0 0 -.993 .883l-.007 .117v4l.007 .117a1 1 0 0 0 1.986 0l.007 -.117v-4l-.007 -.117a1 1 0 0 0 -.993 -.883z" stroke-width="0" fill="currentColor" />
</symbol>
	<symbol id="camera-filled" class="icon icon-tabler icon-tabler-camera-filled" viewBox="0 0 24 24" stroke-width="2" stroke="currentColor" fill="none" stroke-linecap="round" stroke-linejoin="round"><path stroke="none" d="M0 0h24v24H0z" fill="none"/><path d="M15 3a2 2 0 0 1 1.995 1.85l.005 .15a1 1 0 0 0 .883 .993l.117 .007h1a3 3 0 0 1 2.995 2.824l.005 .176v9a3 3 0 0 1 -2.824 2.995l-.176 .005h-14a3 3 0 0 1 -2.995 -2.824l-.005 -.176v-9a3 3 0 0 1 2.824 -2.995l.176 -.005h1a1 1 0 0 0 1 -1a2 2 0 0 1 1.85 -1.995l.15 -.005h6zm-3 7a3 3 0 0 0 -2.985 2.698l-.011 .152l-.004 .15l.004 .15a3 3 0 1 0 2.996 -3.15z" stroke-width="0" fill="currentColor" />
</symbol>
	<symbol id="device-heart-monitor-filled" class="icon icon-tabler icon-tabler-device-heart-monitor-filled" viewBox="0 0 24 24" stroke-width="2" stroke="currentColor" fill="none" stroke-linecap="round" stroke-linejoin="round"><path stroke="none" d="M0 0h24v24H0z" fill="none"/><path d="M18 3a3 3 0 0 1 2.995 2.824l.005 .176v12a3 3 0 0 1 -2.824 2.995l-.176 .005h-12a3 3 0 0 1 -2.995 -2.824l-.005 -.176v-12a3 3 0 0 1 2.824 -2.995l.176 -.005h12zm-4 13a1 1 0 0 0 -.993 .883l-.007 .117l.007 .127a1 1 0 0 0 1.986 0l.007 -.117l-.007 -.127a1 1 0 0 0 -.993 -.883zm3 0a1 1 0 0 0 -.993 .883l-.007 .117l.007 .127a1 1 0 0 0 1.986 0l.007 -.117l-.007 -.127a1 1 0 0 0 -.993 -.883zm-6 -6.764l-.106 .211a1 1 0 0 1 -.77 .545l-.124 .008l-5 -.001v3.001h14v-3.001l-4.382 .001l-.724 1.447a1 1 0 0 1 -1.725 .11l-.063 -.11l-1.106 -2.211zm7 -4.236h-12a1 1 0 0 0 -.993 .883l-.007 .117v1.999l4.381 .001l.725 -1.447a1 1 0 0 1 1.725 -.11l.063 .11l1.106 2.21l.106 -.21a1 1 0 0 1 .77 -.545l.124 -.008l5 -.001v-1.999a1 1 0 0 0 -.883 -.993l-.117 -.007z" stroke-width="0" fill="currentColor" />
</symbol>
	<symbol id="device-mobile-filled" class="icon icon-tabler icon-tabler-device-mobile-filled" viewBox="0 0 24 24" stroke-width="2" stroke="currentColor" fill="none" stroke-linecap="round" stroke-linejoin="round"><path stroke="none" d="M0 0h24v24H0z" fill="none"/><path d="M16 2a3 3 0 0 1 2.995 2.824l.005 .176v14a3 3 0 0 1 -2.824 2.995l-.176 .005h-8a3 3 0 0 1 -2.995 -2.824l-.005 -.176v-14a3 3 0 0 1 2.824 -2.995l.176 -.005h8zm-4 14a1 1 0 0 0 -.993 .883l-.007 .117l.007 .127a1 1 0 0 0 1.986 0l.007 -.117l-.007 -.127a1 1 0 0 0 -.993 -.883zm1 -12h-2l-.117 .007a1 1 0 0 0 0 1.986l.117 .007h2l.117 -.007a1 1 0 0 0 0 -1.986l-.117 -.007z" stroke-width="0" fill="currentColor" />
</symbol>
	<symbol id="device-tablet-filled" class="icon icon-tabler icon-tabler-device-tablet-filled" viewBox="0 0 24 24" stroke-width="2" stroke="currentColor" fill="none" stroke-linecap="round" stroke-linejoin="round"><path stroke="none" d="M0 0h24v24H0z" fill="none"/><path d="M18 2a2 2 0 0 1 1.995 1.85l.005 .15v16a2 2 0 0 1 -1.85 1.995l-.15 .005h-12a2 2 0 0 1 -1.995 -1.85l-.005 -.15v-16a2 2 0 0 1 1.85 -1.995l.15 -.005h12zm-6 13a2 2 0 0 0 -1.977 1.697l-.018 .154l-.005 .149l.005 .15a2 2 0 1 0 1.995 -2.15z" stroke-width="0" fill="currentColor" />
</symbol>
	<symbol id="dialpad-filled" class="icon icon-tabler icon-tabler-dialpad-filled" viewBox="0 0 24 24" stroke-width="2" stroke="currentColor" fill="none" stroke-linecap="round" stroke-linejoin="round"><path stroke="none" d="M0 0h24v24H0z" fill="none"/><path d="M6 2h-2a2 2 0 0 0 -2 2v2a2 2 0 0 0 2 2h2a2 2 0 0 0 2 -2v-2a2 2 0 0 0 -2 -2z" stroke-width="0" fill="currentColor" /><path d="M20 2h-2a2 2 0 0 0 -2 2v2a2 2 0 0 0 2 2h2a2 2 0 0 0 2 -2v-2a2 2 0 0 0 -2 -2z" stroke-width="0" fill="currentColor" /><path d="M13 2h-2a2 2 0 0 0 -2 2v2a2 2 0 0 0 2 2h2a2 2 0 0 0 2 -2v-2a2 2 0 0 0 -2 -2z" stroke-width="0" fill="currentColor" /><path d="M6 9h-2a2 2 0 0 0 -2 2v2a2 2 0 0 0 2 2h2a2 2 0 0 0 2 -2v-2a2 2 0 0 0 -2 -2z" stroke-width="0" fill="currentColor" /><path d="M20 9h-2a2 2 0 0 0 -2 2v2a2 2 0 0 0 2 2h2a2 2 0 0 0 2 -2v-2a2 2 0 0 0 -2 -2z" stroke-width="0" fill="currentColor" /><path d="M13 9h-2a2 2 0 0 0 -2 2v2a2 2 0 0 0 2 2h2a2 2 0 0 0 2 -2v-2a2 2 0 0 0 -2 -2z" stroke-width="0" fill="currentColor" /><path d="M13 16h-2a2 2 0 0 0 -2 2v2a2 2 0 0 0 2 2h2a2 2 0 0 0 2 -2v-2a2 2 0 0 0 -2 -2z" stroke-width="0" fill="currentColor" />
</symbol>
	<symbol id="headphones-filled" class="icon icon-tabler icon-tabler-headphones-filled" viewBox="0 0 24 24" stroke-width="2" stroke="currentColor" fill="none" stroke-linecap="round" stroke-linejoin="round"><path stroke="none" d="M0 0h24v24H0z" fill="none"/><path d="M21 18a3 3 0 0 1 -2.824 2.995l-.176 .005h-1a3 3 0 0 1 -2.995 -2.824l-.005 -.176v-3a3 3 0 0 1 2.824 -2.995l.176 -.005h1c.351 0 .688 .06 1 .171v-.171a7 7 0 0 0 -13.996 -.24l-.004 .24v.17c.25 -.088 .516 -.144 .791 -.163l.209 -.007h1a3 3 0 0 1 2.995 2.824l.005 .176v3a3 3 0 0 1 -2.824 2.995l-.176 .005h-1a3 3 0 0 1 -2.995 -2.824l-.005 -.176v-6a9 9 0 0 1 17.996 -.265l.004 .265v6z" stroke-width="0" fill="currentColor" />
</symbol>
	<symbol id="help-circle-filled" class="icon icon-tabler icon-tabler-help-circle-filled" viewBox="0 0 24 24" stroke-width="2" stroke="currentColor" fill="none" stroke-linecap="round" stroke-linejoin="round"><path stroke="none" d="M0 0h24v24H0z" fill="none"/><path d="M12 2c5.523 0 10 4.477 10 10a10 10 0 0 1 -19.995 .324l-.005 -.324l.004 -.28c.148 -5.393 4.566 -9.72 9.996 -9.72zm0 13a1 1 0 0 0 -.993 .883l-.007 .117l.007 .127a1 1 0 0 0 1.986 0l.007 -.117l-.007 -.127a1 1 0 0 0 -.993 -.883zm1.368 -6.673a2.98 2.98 0 0 0 -3.631 .728a1 1 0 0 0 1.44 1.383l.171 -.18a.98 .98 0 0 1 1.11 -.15a1 1 0 0 1 -.34 1.886l-.232 .012a1 1 0 0 0 .111 1.994a3 3 0 0 0 1.371 -5.673z" stroke-width="0" fill="currentColor" />
</symbol>
	<symbol id="help-hexagon-filled" class="icon icon-tabler icon-tabler-help-hexagon-filled" viewBox="0 0 24 24" stroke-width="2" stroke="currentColor" fill="none" stroke-linecap="round" stroke-linejoin="round"><path stroke="none" d="M0 0h24v24H0z" fill="none"/><path d="M10.425 1.414a3.33 3.33 0 0 1 3.026 -.097l.19 .097l6.775 3.995l.096 .063l.092 .077l.107 .075a3.224 3.224 0 0 1 1.266 2.188l.018 .202l.005 .204v7.284c0 1.106 -.57 2.129 -1.454 2.693l-.17 .1l-6.803 4.302c-.918 .504 -2.019 .535 -3.004 .068l-.196 -.1l-6.695 -4.237a3.225 3.225 0 0 1 -1.671 -2.619l-.007 -.207v-7.285c0 -1.106 .57 -2.128 1.476 -2.705l6.95 -4.098zm1.575 13.586a1 1 0 0 0 -.993 .883l-.007 .117l.007 .127a1 1 0 0 0 1.986 0l.007 -.117l-.007 -.127a1 1 0 0 0 -.993 -.883zm1.368 -6.673a2.98 2.98 0 0 0 -3.631 .728a1 1 0 0 0 1.44 1.383l.171 -.18a.98 .98 0 0 1 1.11 -.15a1 1 0 0 1 -.34 1.886l-.232 .012a1 1 0 0 0 .111 1.994a3 3 0 0 0 1.371 -5.673z" stroke-width="0" fill="currentColor" />
</symbol>
	<symbol id="help-octagon-filled" class="icon icon-tabler icon-tabler-help-octagon-filled" viewBox="0 0 24 24" stroke-width="2" stroke="currentColor" fill="none" stroke-linecap="round" stroke-linejoin="round"><path stroke="none" d="M0 0h24v24H0z" fill="none"/><path d="M14.897 1a4 4 0 0 1 2.664 1.016l.165 .156l4.1 4.1a4 4 0 0 1 1.168 2.605l.006 .227v5.794a4 4 0 0 1 -1.016 2.664l-.156 .165l-4.1 4.1a4 4 0 0 1 -2.603 1.168l-.227 .006h-5.795a3.999 3.999 0 0 1 -2.664 -1.017l-.165 -.156l-4.1 -4.1a4 4 0 0 1 -1.168 -2.604l-.006 -.227v-5.794a4 4 0 0 1 1.016 -2.664l.156 -.165l4.1 -4.1a4 4 0 0 1 2.605 -1.168l.227 -.006h5.793zm-2.897 14a1 1 0 0 0 -.993 .883l-.007 .117l.007 .127a1 1 0 0 0 1.986 0l.007 -.117l-.007 -.127a1 1 0 0 0 -.993 -.883zm1.368 -6.673a2.98 2.98 0 0 0 -3.631 .728a1 1 0 0 0 1.44 1.383l.171 -.18a.98 .98 0 0 1 1.11 -.15a1 1 0 0 1 -.34 1.886l-.232 .012a1 1 0 0 0 .111 1.994a3 3 0 0 0 1.371 -5.673z" stroke-width="0" fill="currentColor" />
</symbol>
	<symbol id="help-square-filled" class="icon icon-tabler icon-tabler-help-square-filled" viewBox="0 0 24 24" stroke-width="2" stroke="currentColor" fill="none" stroke-linecap="round" stroke-linejoin="round"><path stroke="none" d="M0 0h24v24H0z" fill="none"/><path d="M19 2a3 3 0 0 1 2.995 2.824l.005 .176v14a3 3 0 0 1 -2.824 2.995l-.176 .005h-14a3 3 0 0 1 -2.995 -2.824l-.005 -.176v-14a3 3 0 0 1 2.824 -2.995l.176 -.005h14zm-7 13a1 1 0 0 0 -.993 .883l-.007 .117l.007 .127a1 1 0 0 0 1.986 0l.007 -.117l-.007 -.127a1 1 0 0 0 -.993 -.883zm1.368 -6.673a2.98 2.98 0 0 0 -3.631 .728a1 1 0 0 0 1.44 1.383l.171 -.18a.98 .98 0 0 1 1.11 -.15a1 1 0 0 1 -.34 1.886l-.232 .012a1 1 0 0 0 .111 1.994a3 3 0 0 0 1.371 -5.673z" stroke-width="0" fill="currentColor" />
</symbol>
	<symbol id="help-square-rounded-filled" class="icon icon-tabler icon-tabler-help-square-rounded-filled" viewBox="0 0 24 24" stroke-width="2" stroke="currentColor" fill="none" stroke-linecap="round" stroke-linejoin="round"><path stroke="none" d="M0 0h24v24H0z" fill="none"/><path d="M12 2l.642 .005l.616 .017l.299 .013l.579 .034l.553 .046c4.687 .455 6.65 2.333 7.166 6.906l.03 .29l.046 .553l.041 .727l.006 .15l.017 .617l.005 .642l-.005 .642l-.017 .616l-.013 .299l-.034 .579l-.046 .553c-.455 4.687 -2.333 6.65 -6.906 7.166l-.29 .03l-.553 .046l-.727 .041l-.15 .006l-.617 .017l-.642 .005l-.642 -.005l-.616 -.017l-.299 -.013l-.579 -.034l-.553 -.046c-4.687 -.455 -6.65 -2.333 -7.166 -6.906l-.03 -.29l-.046 -.553l-.041 -.727l-.006 -.15l-.017 -.617l-.004 -.318v-.648l.004 -.318l.017 -.616l.013 -.299l.034 -.579l.046 -.553c.455 -4.687 2.333 -6.65 6.906 -7.166l.29 -.03l.553 -.046l.727 -.041l.15 -.006l.617 -.017c.21 -.003 .424 -.005 .642 -.005zm0 13a1 1 0 0 0 -.993 .883l-.007 .117l.007 .127a1 1 0 0 0 1.986 0l.007 -.117l-.007 -.127a1 1 0 0 0 -.993 -.883zm1.368 -6.673a2.98 2.98 0 0 0 -3.631 .728a1 1 0 0 0 1.44 1.383l.171 -.18a.98 .98 0 0 1 1.11 -.15a1 1 0 0 1 -.34 1.886l-.232 .012a1 1 0 0 0 .111 1.994a3 3 0 0 0 1.371 -5.673z" stroke-width="0" fill="currentColor" />
</symbol>
	<symbol id="help-triangle-filled" class="icon icon-tabler icon-tabler-help-triangle-filled" viewBox="0 0 24 24" stroke-width="2" stroke="currentColor" fill="none" stroke-linecap="round" stroke-linejoin="round"><path stroke="none" d="M0 0h24v24H0z" fill="none"/><path d="M11.94 2a2.99 2.99 0 0 1 2.45 1.279l.108 .164l8.431 14.074a2.989 2.989 0 0 1 -2.366 4.474l-.2 .009h-16.856a2.99 2.99 0 0 1 -2.648 -4.308l.101 -.189l8.425 -14.065a2.989 2.989 0 0 1 2.555 -1.438zm.06 14a1 1 0 0 0 -.993 .883l-.007 .117l.007 .127a1 1 0 0 0 1.986 0l.007 -.117l-.007 -.127a1 1 0 0 0 -.993 -.883zm1.368 -6.673a2.98 2.98 0 0 0 -3.631 .728a1 1 0 0 0 1.44 1.383l.171 -.18a.98 .98 0 0 1 1.11 -.15a1 1 0 0 1 -.34 1.886l-.232 .012a1 1 0 0 0 .111 1.994a3 3 0 0 0 1.371 -5.673z" stroke-width="0" fill="currentColor" />
</symbol>
	<symbol id="info-hexagon-filled" class="icon icon-tabler icon-tabler-info-hexagon-filled" viewBox="0 0 24 24" stroke-width="2" stroke="currentColor" fill="none" stroke-linecap="round" stroke-linejoin="round"><path stroke="none" d="M0 0h24v24H0z" fill="none"/><path d="M10.425 1.414a3.33 3.33 0 0 1 3.026 -.097l.19 .097l6.775 3.995l.096 .063l.092 .077l.107 .075a3.224 3.224 0 0 1 1.266 2.188l.018 .202l.005 .204v7.284c0 1.106 -.57 2.129 -1.454 2.693l-.17 .1l-6.803 4.302c-.918 .504 -2.019 .535 -3.004 .068l-.196 -.1l-6.695 -4.237a3.225 3.225 0 0 1 -1.671 -2.619l-.007 -.207v-7.285c0 -1.106 .57 -2.128 1.476 -2.705l6.95 -4.098zm1.575 9.586h-1l-.117 .007a1 1 0 0 0 0 1.986l.117 .007v3l.007 .117a1 1 0 0 0 .876 .876l.117 .007h1l.117 -.007a1 1 0 0 0 .876 -.876l.007 -.117l-.007 -.117a1 1 0 0 0 -.764 -.857l-.112 -.02l-.117 -.006v-3l-.007 -.117a1 1 0 0 0 -.876 -.876l-.117 -.007zm.01 -3l-.127 .007a1 1 0 0 0 0 1.986l.117 .007l.127 -.007a1 1 0 0 0 0 -1.986l-.117 -.007z" stroke-width="0" fill="currentColor" />
</symbol>
	<symbol id="info-octagon-filled" class="icon icon-tabler icon-tabler-info-octagon-filled" viewBox="0 0 24 24" stroke-width="2" stroke="currentColor" fill="none" stroke-linecap="round" stroke-linejoin="round"><path stroke="none" d="M0 0h24v24H0z" fill="none"/><path d="M14.897 1a4 4 0 0 1 2.664 1.016l.165 .156l4.1 4.1a4 4 0 0 1 1.168 2.605l.006 .227v5.794a4 4 0 0 1 -1.016 2.664l-.156 .165l-4.1 4.1a4 4 0 0 1 -2.603 1.168l-.227 .006h-5.795a3.999 3.999 0 0 1 -2.664 -1.017l-.165 -.156l-4.1 -4.1a4 4 0 0 1 -1.168 -2.604l-.006 -.227v-5.794a4 4 0 0 1 1.016 -2.664l.156 -.165l4.1 -4.1a4 4 0 0 1 2.605 -1.168l.227 -.006h5.793zm-2.897 10h-1l-.117 .007a1 1 0 0 0 0 1.986l.117 .007v3l.007 .117a1 1 0 0 0 .876 .876l.117 .007h1l.117 -.007a1 1 0 0 0 .876 -.876l.007 -.117l-.007 -.117a1 1 0 0 0 -.764 -.857l-.112 -.02l-.117 -.006v-3l-.007 -.117a1 1 0 0 0 -.876 -.876l-.117 -.007zm.01 -3l-.127 .007a1 1 0 0 0 0 1.986l.117 .007l.127 -.007a1 1 0 0 0 0 -1.986l-.117 -.007z" stroke-width="0" fill="currentColor" />
</symbol>
	<symbol id="info-square-filled" class="icon icon-tabler icon-tabler-info-square-filled" viewBox="0 0 24 24" stroke-width="2" stroke="currentColor" fill="none" stroke-linecap="round" stroke-linejoin="round"><path stroke="none" d="M0 0h24v24H0z" fill="none"/><path d="M19 2a3 3 0 0 1 2.995 2.824l.005 .176v14a3 3 0 0 1 -2.824 2.995l-.176 .005h-14a3 3 0 0 1 -2.995 -2.824l-.005 -.176v-14a3 3 0 0 1 2.824 -2.995l.176 -.005h14zm-7 9h-1l-.117 .007a1 1 0 0 0 0 1.986l.117 .007v3l.007 .117a1 1 0 0 0 .876 .876l.117 .007h1l.117 -.007a1 1 0 0 0 .876 -.876l.007 -.117l-.007 -.117a1 1 0 0 0 -.764 -.857l-.112 -.02l-.117 -.006v-3l-.007 -.117a1 1 0 0 0 -.876 -.876l-.117 -.007zm.01 -3l-.127 .007a1 1 0 0 0 0 1.986l.117 .007l.127 -.007a1 1 0 0 0 0 -1.986l-.117 -.007z" stroke-width="0" fill="currentColor" />
</symbol>
	<symbol id="info-triangle-filled" class="icon icon-tabler icon-tabler-info-triangle-filled" viewBox="0 0 24 24" stroke-width="2" stroke="currentColor" fill="none" stroke-linecap="round" stroke-linejoin="round"><path stroke="none" d="M0 0h24v24H0z" fill="none"/><path d="M11.94 2a2.99 2.99 0 0 1 2.45 1.279l.108 .164l8.431 14.074a2.989 2.989 0 0 1 -2.366 4.474l-.2 .009h-16.856a2.99 2.99 0 0 1 -2.648 -4.308l.101 -.189l8.425 -14.065a2.989 2.989 0 0 1 2.555 -1.438zm.06 10h-1l-.117 .007a1 1 0 0 0 0 1.986l.117 .007v3l.007 .117a1 1 0 0 0 .876 .876l.117 .007h1l.117 -.007a1 1 0 0 0 .876 -.876l.007 -.117l-.007 -.117a1 1 0 0 0 -.764 -.857l-.112 -.02l-.117 -.006v-3l-.007 -.117a1 1 0 0 0 -.876 -.876l-.117 -.007zm.01 -3l-.127 .007a1 1 0 0 0 0 1.986l.117 .007l.127 -.007a1 1 0 0 0 0 -1.986l-.117 -.007z" stroke-width="0" fill="currentColor" />
</symbol>
	<symbol id="mail-filled" class="icon icon-tabler icon-tabler-mail-filled" viewBox="0 0 24 24" stroke-width="2" stroke="currentColor" fill="none" stroke-linecap="round" stroke-linejoin="round"><path stroke="none" d="M0 0h24v24H0z" fill="none"/><path d="M22 7.535v9.465a3 3 0 0 1 -2.824 2.995l-.176 .005h-14a3 3 0 0 1 -2.995 -2.824l-.005 -.176v-9.465l9.445 6.297l.116 .066a1 1 0 0 0 .878 0l.116 -.066l9.445 -6.297z" stroke-width="0" fill="currentColor" /><path d="M19 4c1.08 0 2.027 .57 2.555 1.427l-9.555 6.37l-9.555 -6.37a2.999 2.999 0 0 1 2.354 -1.42l.201 -.007h14z" stroke-width="0" fill="currentColor" />
</symbol>
	<symbol id="mail-opened-filled" class="icon icon-tabler icon-tabler-mail-opened-filled" viewBox="0 0 24 24" stroke-width="2" stroke="currentColor" fill="none" stroke-linecap="round" stroke-linejoin="round"><path stroke="none" d="M0 0h24v24H0z" fill="none"/><path d="M14.872 14.287l6.522 6.52a2.996 2.996 0 0 1 -2.218 1.188l-.176 .005h-14a2.995 2.995 0 0 1 -2.394 -1.191l6.521 -6.522l2.318 1.545l.116 .066a1 1 0 0 0 .878 0l.116 -.066l2.317 -1.545z" stroke-width="0" fill="currentColor" /><path d="M2 9.535l5.429 3.62l-5.429 5.43z" stroke-width="0" fill="currentColor" /><path d="M22 9.535v9.05l-5.43 -5.43z" stroke-width="0" fill="currentColor" /><path d="M12.44 2.102l.115 .066l8.444 5.629l-8.999 6l-9 -6l8.445 -5.63a1 1 0 0 1 .994 -.065z" stroke-width="0" fill="currentColor" />
</symbol>
	<symbol id="phone-filled" class="icon icon-tabler icon-tabler-phone-filled" viewBox="0 0 24 24" stroke-width="2" stroke="currentColor" fill="none" stroke-linecap="round" stroke-linejoin="round"><path stroke="none" d="M0 0h24v24H0z" fill="none"/><path d="M9 3a1 1 0 0 1 .877 .519l.051 .11l2 5a1 1 0 0 1 -.313 1.16l-.1 .068l-1.674 1.004l.063 .103a10 10 0 0 0 3.132 3.132l.102 .062l1.005 -1.672a1 1 0 0 1 1.113 -.453l.115 .039l5 2a1 1 0 0 1 .622 .807l.007 .121v4c0 1.657 -1.343 3 -3.06 2.998c-8.579 -.521 -15.418 -7.36 -15.94 -15.998a3 3 0 0 1 2.824 -2.995l.176 -.005h4z" stroke-width="0" fill="currentColor" />
</symbol>
	<symbol id="photo-filled" class="icon icon-tabler icon-tabler-photo-filled" viewBox="0 0 24 24" stroke-width="2" stroke="currentColor" fill="none" stroke-linecap="round" stroke-linejoin="round"><path stroke="none" d="M0 0h24v24H0z" fill="none"/><path d="M8.813 11.612c.457 -.38 .918 -.38 1.386 .011l.108 .098l4.986 4.986l.094 .083a1 1 0 0 0 1.403 -1.403l-.083 -.094l-1.292 -1.293l.292 -.293l.106 -.095c.457 -.38 .918 -.38 1.386 .011l.108 .098l4.674 4.675a4 4 0 0 1 -3.775 3.599l-.206 .005h-12a4 4 0 0 1 -3.98 -3.603l6.687 -6.69l.106 -.095zm9.187 -9.612a4 4 0 0 1 3.995 3.8l.005 .2v9.585l-3.293 -3.292l-.15 -.137c-1.256 -1.095 -2.85 -1.097 -4.096 -.017l-.154 .14l-.307 .306l-2.293 -2.292l-.15 -.137c-1.256 -1.095 -2.85 -1.097 -4.096 -.017l-.154 .14l-5.307 5.306v-9.585a4 4 0 0 1 3.8 -3.995l.2 -.005h12zm-2.99 5l-.127 .007a1 1 0 0 0 0 1.986l.117 .007l.127 -.007a1 1 0 0 0 0 -1.986l-.117 -.007z" stroke-width="0" fill="currentColor" />
</symbol>
	<symbol id="polaroid-filled" class="icon icon-tabler icon-tabler-polaroid-filled" viewBox="0 0 24 24" stroke-width="2" stroke="currentColor" fill="none" stroke-linecap="round" stroke-linejoin="round"><path stroke="none" d="M0 0h24v24H0z" fill="none"/><path d="M9.199 9.623l.108 .098l3.986 3.986l.094 .083a1 1 0 0 0 1.403 -1.403l-.083 -.094l-.292 -.293l1.292 -1.293l.106 -.095c.457 -.38 .918 -.38 1.386 .011l.108 .098l4.502 4.503a4.003 4.003 0 0 1 -3.596 2.77l-.213 .006h-12a4.002 4.002 0 0 1 -3.809 -2.775l5.516 -5.518l.106 -.095c.457 -.38 .918 -.38 1.386 .011zm8.801 -7.623a4 4 0 0 1 3.995 3.8l.005 .2v6.585l-3.293 -3.292l-.15 -.137c-1.256 -1.095 -2.85 -1.097 -4.096 -.017l-.154 .14l-1.307 1.306l-2.293 -2.292l-.15 -.137c-1.256 -1.095 -2.85 -1.097 -4.096 -.017l-.154 .14l-4.307 4.306v-6.585a4 4 0 0 1 3.8 -3.995l.2 -.005h12zm-2.99 3l-.127 .007a1 1 0 0 0 0 1.986l.117 .007l.127 -.007a1 1 0 0 0 0 -1.986l-.117 -.007z" stroke-width="0" fill="currentColor" /><path d="M8.01 20a1 1 0 0 1 .117 1.993l-.127 .007a1 1 0 0 1 -.117 -1.993l.127 -.007z" stroke-width="0" fill="currentColor" /><path d="M12.01 20a1 1 0 0 1 .117 1.993l-.127 .007a1 1 0 0 1 -.117 -1.993l.127 -.007z" stroke-width="0" fill="currentColor" /><path d="M16.01 20a1 1 0 0 1 .117 1.993l-.127 .007a1 1 0 0 1 -.117 -1.993l.127 -.007z" stroke-width="0" fill="currentColor" />
</symbol>

	<use xlink:href="#alert-hexagon-filled" x="24" y="24" width="24" height="24" />
	<use xlink:href="#alert-square-filled" x="68" y="24" width="24" height="24" />
	<use xlink:href="#alert-square-rounded-filled" x="112" y="24" width="24" height="24" />
	<use xlink:href="#camera-filled" x="156" y="24" width="24" height="24" />
	<use xlink:href="#device-heart-monitor-filled" x="200" y="24" width="24" height="24" />
	<use xlink:href="#device-mobile-filled" x="244" y="24" width="24" height="24" />
	<use xlink:href="#device-tablet-filled" x="24" y="68" width="24" height="24" />
	<use xlink:href="#dialpad-filled" x="68" y="68" width="24" height="24" />
	<use xlink:href="#headphones-filled" x="112" y="68" width="24" height="24" />
	<use xlink:href="#help-circle-filled" x="156" y="68" width="24" height="24" />
	<use xlink:href="#help-hexagon-filled" x="200" y="68" width="24" height="24" />
	<use xlink:href="#help-octagon-filled" x="244" y="68" width="24" height="24" />
	<use xlink:href="#help-square-filled" x="24" y="112" width="24" height="24" />
	<use xlink:href="#help-square-rounded-filled" x="68" y="112" width="24" height="24" />
	<use xlink:href="#help-triangle-filled" x="112" y="112" width="24" height="24" />
	<use xlink:href="#info-hexagon-filled" x="156" y="112" width="24" height="24" />
	<use xlink:href="#info-octagon-filled" x="200" y="112" width="24" height="24" />
	<use xlink:href="#info-square-filled" x="244" y="112" width="24" height="24" />
	<use xlink:href="#info-triangle-filled" x="24" y="156" width="24" height="24" />
	<use xlink:href="#mail-filled" x="68" y="156" width="24" height="24" />
	<use xlink:href="#mail-opened-filled" x="112" y="156" width="24" height="24" />
	<use xlink:href="#phone-filled" x="156" y="156" width="24" height="24" />
	<use xlink:href="#photo-filled" x="200" y="156" width="24" height="24" />
	<use xlink:href="#polaroid-filled" x="244" y="156" width="24" height="24" />

</svg>