<svg xmlns="http://www.w3.org/2000/svg" xmlns:xlink="http://www.w3.org/1999/xlink" viewBox="0 0 292 160" width="292" height="160" style="color: #354052"><rect x="0" y="0" width="292" height="160" fill="#fff"></rect>
	<symbol id="ampersand" class="icon icon-tabler icon-tabler-ampersand" viewBox="0 0 24 24" stroke-width="2" stroke="currentColor" fill="none" stroke-linecap="round" stroke-linejoin="round"><path stroke="none" d="M0 0h24v24H0z" fill="none"/><path d="M19 20l-10.403 -10.972a2.948 2.948 0 0 1 0 -4.165a2.94 2.94 0 0 1 4.161 0a2.948 2.948 0 0 1 0 4.165l-4.68 4.687a3.685 3.685 0 0 0 0 5.207a3.675 3.675 0 0 0 5.2 0l5.722 -5.922" />
</symbol>
	<symbol id="arrow-guide" class="icon icon-tabler icon-tabler-arrow-guide" viewBox="0 0 24 24" stroke-width="2" stroke="currentColor" fill="none" stroke-linecap="round" stroke-linejoin="round"><path stroke="none" d="M0 0h24v24H0z" fill="none"/><circle cx="5" cy="19" r="2" /><path d="M7 19h3a2 2 0 0 0 2 -2v-8a2 2 0 0 1 2 -2h7" /><path d="M18 4l3 3l-3 3" />
</symbol>
	<symbol id="arrow-roundabout-left" class="icon icon-tabler icon-tabler-arrow-roundabout-left" viewBox="0 0 24 24" stroke-width="2" stroke="currentColor" fill="none" stroke-linecap="round" stroke-linejoin="round"><path stroke="none" d="M0 0h24v24H0z" fill="none"/><path d="M3 9h8a5 5 0 1 1 5 5v7" /><path d="M7 5l-4 4l4 4" />
</symbol>
	<symbol id="arrow-roundabout-right" class="icon icon-tabler icon-tabler-arrow-roundabout-right" viewBox="0 0 24 24" stroke-width="2" stroke="currentColor" fill="none" stroke-linecap="round" stroke-linejoin="round"><path stroke="none" d="M0 0h24v24H0z" fill="none"/><path d="M21 9h-8a5 5 0 1 0 -5 5v7" /><path d="M17 5l4 4l-4 4" />
</symbol>
	<symbol id="arrows-move-horizontal" class="icon icon-tabler icon-tabler-arrows-move-horizontal" viewBox="0 0 24 24" stroke-width="2" stroke="currentColor" fill="none" stroke-linecap="round" stroke-linejoin="round"><path stroke="none" d="M0 0h24v24H0z" fill="none"/><path d="M18 9l3 3l-3 3" /><path d="M15 12h6" /><path d="M6 9l-3 3l3 3" /><path d="M3 12h6" />
</symbol>
	<symbol id="arrows-move-vertical" class="icon icon-tabler icon-tabler-arrows-move-vertical" viewBox="0 0 24 24" stroke-width="2" stroke="currentColor" fill="none" stroke-linecap="round" stroke-linejoin="round"><path stroke="none" d="M0 0h24v24H0z" fill="none"/><path d="M9 18l3 3l3 -3" /><path d="M12 15v6" /><path d="M15 6l-3 -3l-3 3" /><path d="M12 3v6" />
</symbol>
	<symbol id="arrows-move" class="icon icon-tabler icon-tabler-arrows-move" viewBox="0 0 24 24" stroke-width="2" stroke="currentColor" fill="none" stroke-linecap="round" stroke-linejoin="round"><path stroke="none" d="M0 0h24v24H0z" fill="none"/><path d="M18 9l3 3l-3 3" /><path d="M15 12h6" /><path d="M6 9l-3 3l3 3" /><path d="M3 12h6" /><path d="M9 18l3 3l3 -3" /><path d="M12 15v6" /><path d="M15 6l-3 -3l-3 3" /><path d="M12 3v6" />
</symbol>
	<symbol id="brand-amazon" class="icon icon-tabler icon-tabler-brand-amazon" viewBox="0 0 24 24" stroke-width="2" stroke="currentColor" fill="none" stroke-linecap="round" stroke-linejoin="round"><path stroke="none" d="M0 0h24v24H0z" fill="none"/><path d="M7 6c.5 -2 2 -3 4.089 -3c2.441 .08 3.93 1.557 3.911 3.667v5.5c0 .903 1.04 1.833 2 1.833" /><path d="M15 8.13c-14.133 -1.558 -6.545 11.61 0 2.82" /><path d="M19.877 22l2.123 -4l-4 -1" /><path d="M22 18.01c-3.05 1.966 -6.493 2.996 -9.993 2.99c-3.507 .006 -6.953 -1.027 -10.007 -3" />
</symbol>
	<symbol id="brand-appgallery" class="icon icon-tabler icon-tabler-brand-appgallery" viewBox="0 0 24 24" stroke-width="2" stroke="currentColor" fill="none" stroke-linecap="round" stroke-linejoin="round"><path stroke="none" d="M0 0h24v24H0z" fill="none"/><rect x="4" y="4" width="16" height="16" rx="4" /><path d="M9 8a3 3 0 0 0 6 0" />
</symbol>
	<symbol id="brand-google-one" class="icon icon-tabler icon-tabler-brand-google-one" viewBox="0 0 24 24" stroke-width="2" stroke="currentColor" fill="none" stroke-linecap="round" stroke-linejoin="round"><path stroke="none" d="M0 0h24v24H0z" fill="none"/><path d="M11 4.998v13.982a1.998 1.998 0 0 0 3.995 0v-13.982a1.998 1.998 0 1 0 -3.995 0z" /><path d="M6.63 8.407a2.125 2.125 0 0 0 -.074 2.944c.77 .834 2.051 .869 2.862 .077l4.95 -4.834c.812 -.792 .846 -2.11 .076 -2.945a1.984 1.984 0 0 0 -2.861 -.077l-4.953 4.835z" />
</symbol>
	<symbol id="device-camera-phone" class="icon icon-tabler icon-tabler-device-camera-phone" viewBox="0 0 24 24" stroke-width="2" stroke="currentColor" fill="none" stroke-linecap="round" stroke-linejoin="round"><path stroke="none" d="M0 0h24v24H0z" fill="none"/><circle cx="18.5" cy="8.5" r="2.5" /><path d="M13 7h-8a2 2 0 0 0 -2 2v7a2 2 0 0 0 2 2h13a2 2 0 0 0 2 -2v-2" /><path d="M17 15v-1" />
</symbol>
	<symbol id="stack-pop" class="icon icon-tabler icon-tabler-stack-pop" viewBox="0 0 24 24" stroke-width="2" stroke="currentColor" fill="none" stroke-linecap="round" stroke-linejoin="round"><path stroke="none" d="M0 0h24v24H0z" fill="none"/><path d="M7 9.5l-3 1.5l8 4l8 -4l-2.999 -1.5" /><path d="M4 15l8 4l8 -4" /><path d="M12 11v-7" /><path d="M9 7l3 -3l3 3" />
</symbol>
	<symbol id="stack-push" class="icon icon-tabler icon-tabler-stack-push" viewBox="0 0 24 24" stroke-width="2" stroke="currentColor" fill="none" stroke-linecap="round" stroke-linejoin="round"><path stroke="none" d="M0 0h24v24H0z" fill="none"/><path d="M6 10l-2 1l8 4l8 -4l-2 -1" /><path d="M4 15l8 4l8 -4" /><path d="M12 4v7" /><path d="M15 8l-3 3l-3 -3" />
</symbol>
	<symbol id="sun-high" class="icon icon-tabler icon-tabler-sun-high" viewBox="0 0 24 24" stroke-width="2" stroke="currentColor" fill="none" stroke-linecap="round" stroke-linejoin="round"><path stroke="none" d="M0 0h24v24H0z" fill="none"/><path d="M14.828 14.828a4 4 0 1 0 -5.656 -5.656a4 4 0 0 0 5.656 5.656z" /><path d="M6.343 17.657l-1.414 1.414" /><path d="M6.343 6.343l-1.414 -1.414" /><path d="M17.657 6.343l1.414 -1.414" /><path d="M17.657 17.657l1.414 1.414" /><path d="M4 12h-2" /><path d="M12 4v-2" /><path d="M20 12h2" /><path d="M12 20v2" />
</symbol>
	<symbol id="sun-low" class="icon icon-tabler icon-tabler-sun-low" viewBox="0 0 24 24" stroke-width="2" stroke="currentColor" fill="none" stroke-linecap="round" stroke-linejoin="round"><path stroke="none" d="M0 0h24v24H0z" fill="none"/><circle cx="12" cy="12" r="4" /><path d="M4 12h.01" /><path d="M12 4v.01" /><path d="M20 12h.01" /><path d="M12 20v.01" /><path d="M6.31 6.31l-.01 -.01" /><path d="M17.71 6.31l-.01 -.01" /><path d="M17.7 17.7l.01 .01" /><path d="M6.3 17.7l.01 .01" />
</symbol>
	<symbol id="sun-wind" class="icon icon-tabler icon-tabler-sun-wind" viewBox="0 0 24 24" stroke-width="2" stroke="currentColor" fill="none" stroke-linecap="round" stroke-linejoin="round"><path stroke="none" d="M0 0h24v24H0z" fill="none"/><path d="M14.468 10.005a4 4 0 1 0 -5.466 5.46" /><path d="M2 12h1" /><path d="M11 3v1" /><path d="M11 20v1" /><path d="M4.6 5.6l.7 .7" /><path d="M17.4 5.6l-.7 .7" /><path d="M5.3 17.7l-.7 .7" /><path d="M15 13h5a2 2 0 1 0 0 -4" /><path d="M12 16h5.714l.253 -.004a2.004 2.004 0 0 1 2.033 2.004a2 2 0 0 1 -2 2h-.286" />
</symbol>
	<symbol id="sunglasses" class="icon icon-tabler icon-tabler-sunglasses" viewBox="0 0 24 24" stroke-width="2" stroke="currentColor" fill="none" stroke-linecap="round" stroke-linejoin="round"><path stroke="none" d="M0 0h24v24H0z" fill="none"/><path d="M8 4h-2l-3 10" /><path d="M16 4h2l3 10" /><path d="M10 16h4" /><path d="M21 16.5a3.5 3.5 0 0 1 -7 0v-2.5h7v2.5" /><path d="M10 16.5a3.5 3.5 0 0 1 -7 0v-2.5h7v2.5" /><path d="M4 14l4.5 4.5" /><path d="M15 14l4.5 4.5" />
</symbol>
	<symbol id="sunset-2" class="icon icon-tabler icon-tabler-sunset-2" viewBox="0 0 24 24" stroke-width="2" stroke="currentColor" fill="none" stroke-linecap="round" stroke-linejoin="round"><path stroke="none" d="M0 0h24v24H0z" fill="none"/><path d="M3 13h1" /><path d="M20 13h1" /><path d="M5.6 6.6l.7 .7" /><path d="M18.4 6.6l-.7 .7" /><path d="M8 13a4 4 0 1 1 8 0" /><path d="M3 17h18" /><path d="M7 20h5" /><path d="M16 20h1" /><path d="M12 5v-1" />
</symbol>

	<use xlink:href="#ampersand" x="24" y="24" width="24" height="24" />
	<use xlink:href="#arrow-guide" x="68" y="24" width="24" height="24" />
	<use xlink:href="#arrow-roundabout-left" x="112" y="24" width="24" height="24" />
	<use xlink:href="#arrow-roundabout-right" x="156" y="24" width="24" height="24" />
	<use xlink:href="#arrows-move-horizontal" x="200" y="24" width="24" height="24" />
	<use xlink:href="#arrows-move-vertical" x="244" y="24" width="24" height="24" />
	<use xlink:href="#arrows-move" x="24" y="68" width="24" height="24" />
	<use xlink:href="#brand-amazon" x="68" y="68" width="24" height="24" />
	<use xlink:href="#brand-appgallery" x="112" y="68" width="24" height="24" />
	<use xlink:href="#brand-google-one" x="156" y="68" width="24" height="24" />
	<use xlink:href="#device-camera-phone" x="200" y="68" width="24" height="24" />
	<use xlink:href="#stack-pop" x="244" y="68" width="24" height="24" />
	<use xlink:href="#stack-push" x="24" y="112" width="24" height="24" />
	<use xlink:href="#sun-high" x="68" y="112" width="24" height="24" />
	<use xlink:href="#sun-low" x="112" y="112" width="24" height="24" />
	<use xlink:href="#sun-wind" x="156" y="112" width="24" height="24" />
	<use xlink:href="#sunglasses" x="200" y="112" width="24" height="24" />
	<use xlink:href="#sunset-2" x="244" y="112" width="24" height="24" />

</svg>