<svg xmlns="http://www.w3.org/2000/svg" xmlns:xlink="http://www.w3.org/1999/xlink" viewBox="0 0 292 160" width="292" height="160" style="color: #354052"><rect x="0" y="0" width="292" height="160" fill="#fff"></rect>
	<symbol id="border-corner-ios" class="icon icon-tabler icon-tabler-border-corner-ios" viewBox="0 0 24 24" stroke-width="2" stroke="currentColor" fill="none" stroke-linecap="round" stroke-linejoin="round"><path stroke="none" d="M0 0h24v24H0z" fill="none"/><path d="M4 20c0 -6.559 0 -9.838 1.628 -12.162a9 9 0 0 1 2.21 -2.21c2.324 -1.628 5.602 -1.628 12.162 -1.628" />
</symbol>
	<symbol id="brightness-auto" class="icon icon-tabler icon-tabler-brightness-auto" viewBox="0 0 24 24" stroke-width="2" stroke="currentColor" fill="none" stroke-linecap="round" stroke-linejoin="round"><path stroke="none" d="M0 0h24v24H0z" fill="none"/><path d="M6 6h3.5l2.5 -2.5l2.5 2.5h3.5v3.5l2.5 2.5l-2.5 2.5v3.5h-3.5l-2.5 2.5l-2.5 -2.5h-3.5v-3.5l-2.5 -2.5l2.5 -2.5z" /><path d="M10 14.5v-3.5a2 2 0 1 1 4 0v3.5" /><path d="M10 13h4" />
</symbol>
	<symbol id="clipboard-smile" class="icon icon-tabler icon-tabler-clipboard-smile" viewBox="0 0 24 24" stroke-width="2" stroke="currentColor" fill="none" stroke-linecap="round" stroke-linejoin="round"><path stroke="none" d="M0 0h24v24H0z" fill="none"/><path d="M10 13h.01" /><path d="M14 13h.01" /><path d="M10 16a3.5 3.5 0 0 0 4 0" /><path d="M9 5h-2a2 2 0 0 0 -2 2v12a2 2 0 0 0 2 2h10a2 2 0 0 0 2 -2v-12a2 2 0 0 0 -2 -2h-2" /><path d="M9 5a2 2 0 0 1 2 -2h2a2 2 0 0 1 2 2a2 2 0 0 1 -2 2h-2a2 2 0 0 1 -2 -2z" />
</symbol>
	<symbol id="database-smile" class="icon icon-tabler icon-tabler-database-smile" viewBox="0 0 24 24" stroke-width="2" stroke="currentColor" fill="none" stroke-linecap="round" stroke-linejoin="round"><path stroke="none" d="M0 0h24v24H0z" fill="none"/><path d="M10 14h.01" /><path d="M14 14h.01" /><path d="M10 17a3.5 3.5 0 0 0 4 0" /><path d="M4 6c0 1.657 3.582 3 8 3s8 -1.343 8 -3s-3.582 -3 -8 -3s-8 1.343 -8 3" /><path d="M4 6v12c0 1.657 3.582 3 8 3s8 -1.343 8 -3v-12" />
</symbol>
	<symbol id="glass-champagne" class="icon icon-tabler icon-tabler-glass-champagne" viewBox="0 0 24 24" stroke-width="2" stroke="currentColor" fill="none" stroke-linecap="round" stroke-linejoin="round"><path stroke="none" d="M0 0h24v24H0z" fill="none"/><path d="M9 21h6" /><path d="M12 16v5" /><path d="M12 5m-4 0a4 2 0 1 0 8 0a4 2 0 1 0 -8 0" /><path d="M8 5c0 6.075 1.79 11 4 11s4 -4.925 4 -11" />
</symbol>
	<symbol id="glass-cocktail" class="icon icon-tabler icon-tabler-glass-cocktail" viewBox="0 0 24 24" stroke-width="2" stroke="currentColor" fill="none" stroke-linecap="round" stroke-linejoin="round"><path stroke="none" d="M0 0h24v24H0z" fill="none"/><path d="M8 21h8" /><path d="M12 15v6" /><path d="M12 5m-7 0a7 2 0 1 0 14 0a7 2 0 1 0 -14 0" /><path d="M5 5v.388c0 .432 .126 .853 .362 1.206l5 7.509c.633 .951 1.88 1.183 2.785 .517c.191 -.141 .358 -.316 .491 -.517l5 -7.509c.236 -.353 .362 -.774 .362 -1.206v-.388" />
</symbol>
	<symbol id="glass-gin" class="icon icon-tabler icon-tabler-glass-gin" viewBox="0 0 24 24" stroke-width="2" stroke="currentColor" fill="none" stroke-linecap="round" stroke-linejoin="round"><path stroke="none" d="M0 0h24v24H0z" fill="none"/><path d="M8 21h8" /><path d="M12 15v6" /><path d="M12 5m-6.5 0a6.5 2 0 1 0 13 0a6.5 2 0 1 0 -13 0" /><path d="M5.75 4.5c-.612 .75 -.75 2 -.75 3.5a7 7 0 0 0 14 0c0 -1.5 -.094 -2.75 -.75 -3.5" />
</symbol>
	<symbol id="image-in-picture" class="icon icon-tabler icon-tabler-image-in-picture" viewBox="0 0 24 24" stroke-width="2" stroke="currentColor" fill="none" stroke-linecap="round" stroke-linejoin="round"><path stroke="none" d="M0 0h24v24H0z" fill="none"/><path d="M13 15c-2 0 -5 1 -5 5" /><path d="M4 11m0 2a2 2 0 0 1 2 -2h5a2 2 0 0 1 2 2v5a2 2 0 0 1 -2 2h-5a2 2 0 0 1 -2 -2z" /><path d="M4 7v-2a1 1 0 0 1 1 -1h2" /><path d="M11 4h2" /><path d="M17 4h2a1 1 0 0 1 1 1v2" /><path d="M20 11v2" /><path d="M20 17v2a1 1 0 0 1 -1 1h-2" />
</symbol>
	<symbol id="math-max-min" class="icon icon-tabler icon-tabler-math-max-min" viewBox="0 0 24 24" stroke-width="2" stroke="currentColor" fill="none" stroke-linecap="round" stroke-linejoin="round"><path stroke="none" d="M0 0h24v24H0z" fill="none"/><path d="M15 19a2 2 0 1 0 4 0a2 2 0 0 0 -4 0" /><path d="M5 5a2 2 0 1 0 4 0a2 2 0 0 0 -4 0" /><path d="M3 14s.605 -5.44 2.284 -7.862m3.395 .026c2.137 2.652 4.547 9.113 6.68 11.719" /><path d="M18.748 18.038c.702 -.88 1.452 -3.56 2.252 -8.038" />
</symbol>
	<symbol id="prong" class="icon icon-tabler icon-tabler-prong" viewBox="0 0 24 24" stroke-width="2" stroke="currentColor" fill="none" stroke-linecap="round" stroke-linejoin="round"><path stroke="none" d="M0 0h24v24H0z" fill="none"/><path d="M10.2 10.2l6.3 6.3" /><path d="M19.347 16.575l1.08 1.079a1.96 1.96 0 0 1 -2.773 2.772l-1.08 -1.079a1.96 1.96 0 0 1 2.773 -2.772z" /><path d="M3 7l3.05 3.15a2.9 2.9 0 0 0 4.1 -4.1l-3.15 -3.05" />
</symbol>
	<symbol id="shopping-bag-heart" class="icon icon-tabler icon-tabler-shopping-bag-heart" viewBox="0 0 24 24" stroke-width="2" stroke="currentColor" fill="none" stroke-linecap="round" stroke-linejoin="round"><path stroke="none" d="M0 0h24v24H0z" fill="none"/><path d="M11.5 21h-2.926a3 3 0 0 1 -2.965 -2.544l-1.255 -8.152a2 2 0 0 1 1.977 -2.304h11.339a2 2 0 0 1 1.977 2.304c-.057 .368 -.1 .644 -.127 .828" /><path d="M9 11v-5a3 3 0 0 1 6 0v5" /><path d="M18 22l3.35 -3.284a2.143 2.143 0 0 0 .005 -3.071a2.242 2.242 0 0 0 -3.129 -.006l-.224 .22l-.223 -.22a2.242 2.242 0 0 0 -3.128 -.006a2.143 2.143 0 0 0 -.006 3.071l3.355 3.296z" />
</symbol>
	<symbol id="temperature-snow" class="icon icon-tabler icon-tabler-temperature-snow" viewBox="0 0 24 24" stroke-width="2" stroke="currentColor" fill="none" stroke-linecap="round" stroke-linejoin="round"><path stroke="none" d="M0 0h24v24H0z" fill="none"/><path d="M4 13.5a4 4 0 1 0 4 0v-8.5a2 2 0 1 0 -4 0v8.5" /><path d="M4 9h4" /><path d="M14.75 4l1 2h2.25" /><path d="M17 4l-3 5l2 3" /><path d="M20.25 10l-1.25 2l1.25 2" /><path d="M22 12h-6l-2 3" /><path d="M18 18h-2.25l-1 2" /><path d="M17 20l-3 -5h-1" /><path d="M12 9l2.088 .008" />
</symbol>
	<symbol id="temperature-sun" class="icon icon-tabler icon-tabler-temperature-sun" viewBox="0 0 24 24" stroke-width="2" stroke="currentColor" fill="none" stroke-linecap="round" stroke-linejoin="round"><path stroke="none" d="M0 0h24v24H0z" fill="none"/><path d="M4 13.5a4 4 0 1 0 4 0v-8.5a2 2 0 1 0 -4 0v8.5" /><path d="M4 9h4" /><path d="M13 16a4 4 0 1 0 0 -8a4.07 4.07 0 0 0 -1 .124" /><path d="M13 3v1" /><path d="M21 12h1" /><path d="M13 20v1" /><path d="M19.4 5.6l-.7 .7" /><path d="M18.7 17.7l.7 .7" />
</symbol>
	<symbol id="transform-point-bottom-left" class="icon icon-tabler icon-tabler-transform-point-bottom-left" viewBox="0 0 24 24" stroke-width="2" stroke="currentColor" fill="none" stroke-linecap="round" stroke-linejoin="round"><path stroke="none" d="M0 0h24v24H0z" fill="none"/><path d="M3 3m0 1a1 1 0 0 1 1 -1h2a1 1 0 0 1 1 1v2a1 1 0 0 1 -1 1h-2a1 1 0 0 1 -1 -1z" /><path d="M3 17m0 1a1 1 0 0 1 1 -1h2a1 1 0 0 1 1 1v2a1 1 0 0 1 -1 1h-2a1 1 0 0 1 -1 -1z" fill="currentColor" /><path d="M17 3m0 1a1 1 0 0 1 1 -1h2a1 1 0 0 1 1 1v2a1 1 0 0 1 -1 1h-2a1 1 0 0 1 -1 -1z" /><path d="M17 17m0 1a1 1 0 0 1 1 -1h2a1 1 0 0 1 1 1v2a1 1 0 0 1 -1 1h-2a1 1 0 0 1 -1 -1z" /><path d="M11 5h2" /><path d="M5 11v2" /><path d="M19 11v2" /><path d="M11 19h2" />
</symbol>
	<symbol id="transform-point-bottom-right" class="icon icon-tabler icon-tabler-transform-point-bottom-right" viewBox="0 0 24 24" stroke-width="2" stroke="currentColor" fill="none" stroke-linecap="round" stroke-linejoin="round"><path stroke="none" d="M0 0h24v24H0z" fill="none"/><path d="M3 3m0 1a1 1 0 0 1 1 -1h2a1 1 0 0 1 1 1v2a1 1 0 0 1 -1 1h-2a1 1 0 0 1 -1 -1z" /><path d="M3 17m0 1a1 1 0 0 1 1 -1h2a1 1 0 0 1 1 1v2a1 1 0 0 1 -1 1h-2a1 1 0 0 1 -1 -1z" /><path d="M17 3m0 1a1 1 0 0 1 1 -1h2a1 1 0 0 1 1 1v2a1 1 0 0 1 -1 1h-2a1 1 0 0 1 -1 -1z" /><path d="M17 17m0 1a1 1 0 0 1 1 -1h2a1 1 0 0 1 1 1v2a1 1 0 0 1 -1 1h-2a1 1 0 0 1 -1 -1z" fill="currentColor" /><path d="M11 5h2" /><path d="M5 11v2" /><path d="M19 11v2" /><path d="M11 19h2" />
</symbol>
	<symbol id="transform-point-top-left" class="icon icon-tabler icon-tabler-transform-point-top-left" viewBox="0 0 24 24" stroke-width="2" stroke="currentColor" fill="none" stroke-linecap="round" stroke-linejoin="round"><path stroke="none" d="M0 0h24v24H0z" fill="none"/><path d="M3 3m0 1a1 1 0 0 1 1 -1h2a1 1 0 0 1 1 1v2a1 1 0 0 1 -1 1h-2a1 1 0 0 1 -1 -1z" fill="currentColor" /><path d="M3 17m0 1a1 1 0 0 1 1 -1h2a1 1 0 0 1 1 1v2a1 1 0 0 1 -1 1h-2a1 1 0 0 1 -1 -1z" /><path d="M17 3m0 1a1 1 0 0 1 1 -1h2a1 1 0 0 1 1 1v2a1 1 0 0 1 -1 1h-2a1 1 0 0 1 -1 -1z" /><path d="M17 17m0 1a1 1 0 0 1 1 -1h2a1 1 0 0 1 1 1v2a1 1 0 0 1 -1 1h-2a1 1 0 0 1 -1 -1z" /><path d="M11 5h2" /><path d="M5 11v2" /><path d="M19 11v2" /><path d="M11 19h2" />
</symbol>
	<symbol id="transform-point-top-right" class="icon icon-tabler icon-tabler-transform-point-top-right" viewBox="0 0 24 24" stroke-width="2" stroke="currentColor" fill="none" stroke-linecap="round" stroke-linejoin="round"><path stroke="none" d="M0 0h24v24H0z" fill="none"/><path d="M3 3m0 1a1 1 0 0 1 1 -1h2a1 1 0 0 1 1 1v2a1 1 0 0 1 -1 1h-2a1 1 0 0 1 -1 -1z" /><path d="M3 17m0 1a1 1 0 0 1 1 -1h2a1 1 0 0 1 1 1v2a1 1 0 0 1 -1 1h-2a1 1 0 0 1 -1 -1z" /><path d="M17 3m0 1a1 1 0 0 1 1 -1h2a1 1 0 0 1 1 1v2a1 1 0 0 1 -1 1h-2a1 1 0 0 1 -1 -1z" fill="currentColor" /><path d="M17 17m0 1a1 1 0 0 1 1 -1h2a1 1 0 0 1 1 1v2a1 1 0 0 1 -1 1h-2a1 1 0 0 1 -1 -1z" /><path d="M11 5h2" /><path d="M5 11v2" /><path d="M19 11v2" /><path d="M11 19h2" />
</symbol>
	<symbol id="transform-point" class="icon icon-tabler icon-tabler-transform-point" viewBox="0 0 24 24" stroke-width="2" stroke="currentColor" fill="none" stroke-linecap="round" stroke-linejoin="round"><path stroke="none" d="M0 0h24v24H0z" fill="none"/><path d="M3 3m0 1a1 1 0 0 1 1 -1h2a1 1 0 0 1 1 1v2a1 1 0 0 1 -1 1h-2a1 1 0 0 1 -1 -1z" /><path d="M3 17m0 1a1 1 0 0 1 1 -1h2a1 1 0 0 1 1 1v2a1 1 0 0 1 -1 1h-2a1 1 0 0 1 -1 -1z" /><path d="M17 3m0 1a1 1 0 0 1 1 -1h2a1 1 0 0 1 1 1v2a1 1 0 0 1 -1 1h-2a1 1 0 0 1 -1 -1z" /><path d="M17 17m0 1a1 1 0 0 1 1 -1h2a1 1 0 0 1 1 1v2a1 1 0 0 1 -1 1h-2a1 1 0 0 1 -1 -1z" /><path d="M11 5h2" /><path d="M5 11v2" /><path d="M19 11v2" /><path d="M11 19h2" />
</symbol>

	<use xlink:href="#border-corner-ios" x="24" y="24" width="24" height="24" />
	<use xlink:href="#brightness-auto" x="68" y="24" width="24" height="24" />
	<use xlink:href="#clipboard-smile" x="112" y="24" width="24" height="24" />
	<use xlink:href="#database-smile" x="156" y="24" width="24" height="24" />
	<use xlink:href="#glass-champagne" x="200" y="24" width="24" height="24" />
	<use xlink:href="#glass-cocktail" x="244" y="24" width="24" height="24" />
	<use xlink:href="#glass-gin" x="24" y="68" width="24" height="24" />
	<use xlink:href="#image-in-picture" x="68" y="68" width="24" height="24" />
	<use xlink:href="#math-max-min" x="112" y="68" width="24" height="24" />
	<use xlink:href="#prong" x="156" y="68" width="24" height="24" />
	<use xlink:href="#shopping-bag-heart" x="200" y="68" width="24" height="24" />
	<use xlink:href="#temperature-snow" x="244" y="68" width="24" height="24" />
	<use xlink:href="#temperature-sun" x="24" y="112" width="24" height="24" />
	<use xlink:href="#transform-point-bottom-left" x="68" y="112" width="24" height="24" />
	<use xlink:href="#transform-point-bottom-right" x="112" y="112" width="24" height="24" />
	<use xlink:href="#transform-point-top-left" x="156" y="112" width="24" height="24" />
	<use xlink:href="#transform-point-top-right" x="200" y="112" width="24" height="24" />
	<use xlink:href="#transform-point" x="244" y="112" width="24" height="24" />

</svg>