<svg xmlns="http://www.w3.org/2000/svg" xmlns:xlink="http://www.w3.org/1999/xlink" viewBox="0 0 292 160" width="292" height="160" style="color: #354052"><rect x="0" y="0" width="292" height="160" fill="#fff"></rect>
	<symbol id="filled-arrow-autofit-down" xmlns="http://www.w3.org/2000/svg" width="24" height="24" viewBox="0 0 24 24" fill="currentColor"
> <path d="M14 3a1 1 0 0 1 1 1v11.001h-.092a3 3 0 0 0 -2.03 5.12a.515 .515 0 0 1 -.363 .879h-6.515a3 3 0 0 1 -3 -3v-12a3 3 0 0 1 3 -3z" /> <path d="M18 3a1 1 0 0 1 1 1v14.584l1.293 -1.291a1 1 0 0 1 1.32 -.083l.094 .083a1 1 0 0 1 0 1.414l-3 3a1 1 0 0 1 -.112 .097l-.11 .071l-.114 .054l-.105 .035l-.149 .03l-.117 .006l-.075 -.003l-.126 -.017l-.111 -.03l-.111 -.044l-.098 -.052l-.096 -.067l-.09 -.08l-3 -3a1 1 0 0 1 1.414 -1.414l1.293 1.293v-14.586a1 1 0 0 1 1 -1" />
</symbol>
	<symbol id="filled-arrow-autofit-height" xmlns="http://www.w3.org/2000/svg" width="24" height="24" viewBox="0 0 24 24" fill="currentColor"
> <path d="M12.879 3.879a3 3 0 0 0 0 4.242l.09 .085l.094 .083l.096 .08l.158 .115a3 3 0 0 0 1.59 .515l.093 -.001v6.003h-.092a3 3 0 0 0 -2.03 5.12a.514 .514 0 0 1 -.363 .878l-6.515 .001a3 3 0 0 1 -3 -3v-12a3 3 0 0 1 3 -3h6.514a.515 .515 0 0 1 .365 .879" /> <path d="M18 13a1 1 0 0 1 1 1v4.584l1.293 -1.291a1 1 0 0 1 1.32 -.083l.094 .083a1 1 0 0 1 0 1.414l-3 3a1 1 0 0 1 -.112 .097l-.11 .071l-.114 .054l-.105 .035l-.149 .03l-.117 .006l-.075 -.003l-.126 -.017l-.111 -.03l-.111 -.044l-.098 -.052l-.096 -.067l-.09 -.08l-3 -3a1 1 0 0 1 1.414 -1.414l1.293 1.293v-4.586a1 1 0 0 1 1 -1" /> <path d="M17.852 2.011l.058 -.007l.09 -.004l.075 .003l.126 .017l.111 .03l.111 .044l.098 .052l.104 .074l.082 .073l3 3a1 1 0 1 1 -1.414 1.414l-1.293 -1.292v4.585a1 1 0 0 1 -2 0v-4.585l-1.293 1.292a1 1 0 0 1 -1.32 .083l-.094 -.083a1 1 0 0 1 0 -1.414l3 -3q .053 -.054 .112 -.097l.11 -.071l.114 -.054l.105 -.035z" />
</symbol>
	<symbol id="filled-arrow-autofit-left" xmlns="http://www.w3.org/2000/svg" width="24" height="24" viewBox="0 0 24 24" fill="currentColor"
> <path d="M21 14a1 1 0 0 1 -1 1h-11.001v-.092a3 3 0 0 0 -5.12 -2.03a.515 .515 0 0 1 -.879 -.363v-6.515a3 3 0 0 1 3 -3h12a3 3 0 0 1 3 3z" /> <path d="M21 18a1 1 0 0 1 -1 1h-14.584l1.291 1.293a1 1 0 0 1 .083 1.32l-.083 .094a1 1 0 0 1 -1.414 0l-3 -3a1 1 0 0 1 -.097 -.112l-.071 -.11l-.054 -.114l-.035 -.105l-.03 -.149l-.006 -.117l.003 -.075l.017 -.126l.03 -.111l.044 -.111l.052 -.098l.067 -.096l.08 -.09l3 -3a1 1 0 1 1 1.414 1.414l-1.293 1.293h14.586a1 1 0 0 1 1 1" />
</symbol>
	<symbol id="filled-arrow-autofit-right" xmlns="http://www.w3.org/2000/svg" width="24" height="24" viewBox="0 0 24 24" fill="currentColor"
> <path d="M3 14a1 1 0 0 0 1 1h11.001v-.092a3 3 0 0 1 5.12 -2.03a.515 .515 0 0 0 .879 -.363v-6.515a3 3 0 0 0 -3 -3h-12a3 3 0 0 0 -3 3z" /> <path d="M3 18a1 1 0 0 0 1 1h14.584l-1.291 1.293a1 1 0 0 0 -.083 1.32l.083 .094a1 1 0 0 0 1.414 0l3 -3q .054 -.053 .097 -.112l.071 -.11l.054 -.114l.035 -.105l.03 -.149l.006 -.117l-.003 -.075l-.017 -.126l-.03 -.111l-.044 -.111l-.052 -.098l-.067 -.096l-.08 -.09l-3 -3a1 1 0 0 0 -1.414 1.414l1.293 1.293h-14.586a1 1 0 0 0 -1 1" />
</symbol>
	<symbol id="filled-arrow-autofit-up" xmlns="http://www.w3.org/2000/svg" width="24" height="24" viewBox="0 0 24 24" fill="currentColor"
> <path d="M14 21a1 1 0 0 0 1 -1v-11.001h-.092a3 3 0 0 1 -2.03 -5.12a.515 .515 0 0 0 -.363 -.879h-6.515a3 3 0 0 0 -3 3v12a3 3 0 0 0 3 3z" /> <path d="M18 21a1 1 0 0 0 1 -1v-14.584l1.293 1.291a1 1 0 0 0 1.32 .083l.094 -.083a1 1 0 0 0 0 -1.414l-3 -3a1 1 0 0 0 -.112 -.097l-.11 -.071l-.114 -.054l-.105 -.035l-.149 -.03l-.117 -.006l-.075 .003l-.126 .017l-.111 .03l-.111 .044l-.098 .052l-.096 .067l-.09 .08l-3 3a1 1 0 1 0 1.414 1.414l1.293 -1.293v14.586a1 1 0 0 0 1 1" />
</symbol>
	<symbol id="filled-arrow-autofit-width" xmlns="http://www.w3.org/2000/svg" width="24" height="24" viewBox="0 0 24 24" fill="currentColor"
> <path d="M20.121 12.879a3 3 0 0 0 -4.242 0l-.085 .09l-.083 .094l-.08 .096l-.115 .158a3 3 0 0 0 -.515 1.59l.001 .093h-6.003v-.092a3 3 0 0 0 -5.12 -2.03a.514 .514 0 0 1 -.878 -.363l-.001 -6.515a3 3 0 0 1 3 -3h12a3 3 0 0 1 3 3v6.514a.515 .515 0 0 1 -.879 .365" /> <path d="M11 18a1 1 0 0 1 -1 1h-4.584l1.291 1.293a1 1 0 0 1 .083 1.32l-.083 .094a1 1 0 0 1 -1.414 0l-3 -3a1 1 0 0 1 -.097 -.112l-.071 -.11l-.054 -.114l-.035 -.105l-.03 -.149l-.006 -.117l.003 -.075l.017 -.126l.03 -.111l.044 -.111l.052 -.098l.067 -.096l.08 -.09l3 -3a1 1 0 0 1 1.414 1.414l-1.293 1.293h4.586a1 1 0 0 1 1 1m10.989 -.148l.007 .058l.004 .09l-.003 .075l-.017 .126l-.03 .111l-.044 .111l-.052 .098l-.074 .104l-.073 .082l-3 3a1 1 0 1 1 -1.414 -1.414l1.292 -1.293h-4.585a1 1 0 0 1 0 -2h4.585l-1.292 -1.293a1 1 0 0 1 -.083 -1.32l.083 -.094a1 1 0 0 1 1.414 0l3 3q .054 .053 .097 .112l.071 .11l.054 .114l.035 .105z" />
</symbol>
	<symbol id="filled-cloud-computing" xmlns="http://www.w3.org/2000/svg" width="24" height="24" viewBox="0 0 24 24" fill="currentColor"
> <path d="M9 20a2 2 0 0 1 -2 2h-4a1 1 0 0 1 0 -2h4v-2.997l-.343 .001a1 1 0 0 1 -.117 -.007l-.105 -.001c-2.94 -.11 -5.317 -2.399 -5.43 -5.263l-.005 -.216c0 -2.747 2.08 -5.01 4.784 -5.417l.114 -.016l.07 -.181c.663 -1.62 2.056 -2.906 3.829 -3.518l.244 -.08c2.194 -.667 4.614 -.224 6.36 1.176c1.385 1.108 2.187 2.686 2.25 4.34l.004 .212l.091 .003c2.3 .107 4.143 1.961 4.25 4.27l.004 .211c0 2.478 -1.997 4.487 -4.465 4.487h-1.535v2.996h4a1 1 0 0 1 0 2h-4a2 2 0 0 1 -2 -2v-2.997h-2v3.997a1 1 0 0 1 -2 0v-3.997h-2z" />
</symbol>
	<symbol id="filled-cloud-data-connection" xmlns="http://www.w3.org/2000/svg" width="24" height="24" viewBox="0 0 24 24" fill="currentColor"
> <path d="M15.262 4.087c.974 .768 1.566 1.848 1.678 2.997l.007 .107l.18 .025a3.42 3.42 0 0 1 2.867 3.184l.006 .188a3.42 3.42 0 0 1 -3.425 3.412h-3.575l.001 1.171a3 3 0 0 1 1.829 1.829h6.17a1 1 0 0 1 0 2h-6.17a3.001 3.001 0 0 1 -5.66 0h-6.17a1 1 0 0 1 0 -2h6.171a3 3 0 0 1 1.829 -1.83v-1.17h-2.74c-2.341 0 -4.26 -1.826 -4.26 -4.103c0 -2.001 1.481 -3.655 3.43 -4.026l.086 -.015l.049 -.112c.514 -1.124 1.508 -2.01 2.756 -2.447l.222 -.072c1.627 -.49 3.42 -.166 4.72 .862" />
</symbol>
	<symbol id="filled-fish-bone" xmlns="http://www.w3.org/2000/svg" width="24" height="24" viewBox="0 0 24 24" fill="currentColor"
> <path d="M16.675 6.44l.118 .005a1 1 0 0 1 .232 .052l.032 .015l.273 .103c1.936 .771 3.69 2.27 5.253 4.476l.245 .355a1 1 0 0 1 0 1.12c-1.702 2.519 -3.636 4.176 -5.792 4.947a1 1 0 0 1 -1.093 -.288a7.97 7.97 0 0 1 -1.883 -4.225h-2.06v3a1 1 0 0 1 -2 0v-3h-2v1a1 1 0 0 1 -2 0v-1h-1.166l-.335 .324a39 39 0 0 0 -1.751 1.846a1 1 0 0 1 -1.496 -1.328q .593 -.667 1.214 -1.308l.522 -.528l-.523 -.529a42 42 0 0 1 -.613 -.648l-.6 -.661a1 1 0 1 1 1.496 -1.328a40 40 0 0 0 2.069 2.161l1.183 -.001v-1a1 1 0 1 1 2 0v1h2v-3a1 1 0 0 1 2 0v3h2.062a7.97 7.97 0 0 1 1.656 -3.953l.196 -.24l.075 -.081l.105 -.088l.068 -.048l.097 -.052l.069 -.03l.138 -.042l.091 -.017q .059 -.007 .118 -.009m1.325 3.56a1 1 0 0 0 -.993 .883l-.007 .127a1 1 0 0 0 1.993 .117l.007 -.127a1 1 0 0 0 -1 -1" />
</symbol>
	<symbol id="filled-pig" xmlns="http://www.w3.org/2000/svg" width="24" height="24" viewBox="0 0 24 24" fill="currentColor"
> <path d="M15.999 2a1 1 0 0 1 1.001 1v3.255l.026 .018a7 7 0 0 1 2.204 2.537l.092 .19h.676a2 2 0 0 1 1.995 1.85l.005 .15v2a2 2 0 0 1 -2 2h-.676l-.104 .213a7 7 0 0 1 -1.097 1.558l-.123 .125v1.604a2.5 2.5 0 0 1 -2.336 2.495l-.162 .005c-1.16 0 -2.135 -.79 -2.418 -1.86l-.032 -.141l-4.05 .001l-.05 -.002l-.032 .141a2.5 2.5 0 0 1 -2.254 1.856l-.164 .005a2.5 2.5 0 0 1 -2.5 -2.5v-1.602l-.056 -.055a7 7 0 0 1 -1.576 -7.085l.092 -.256a7 7 0 0 1 6.539 -4.502h2.196l4.25 -2.832a1 1 0 0 1 .436 -.161zm-.999 8a1 1 0 0 0 -.993 .883l-.007 .127a1 1 0 0 0 1.993 .117l.007 -.127a1 1 0 0 0 -1 -1" />
</symbol>
	<symbol id="filled-spider" xmlns="http://www.w3.org/2000/svg" width="24" height="24" viewBox="0 0 24 24" fill="currentColor"
> <path d="M19 3a1 1 0 0 1 1 1v2a1 1 0 0 1 -.293 .707l-3.293 3.293h3.17l1.209 -1.207a1 1 0 0 1 1.414 1.414l-1.5 1.5a1 1 0 0 1 -.707 .293h-3.585l4.292 4.293a1 1 0 0 1 .293 .707v2a1 1 0 0 1 -2 0v-1.585l-2.016 -2.016a5 5 0 0 1 -9.968 0l-2.016 2.015v1.586a1 1 0 0 1 -.883 .993l-.117 .007a1 1 0 0 1 -1 -1v-2a1 1 0 0 1 .293 -.707l4.291 -4.293h-3.584a1 1 0 0 1 -.707 -.293l-1.5 -1.5a1 1 0 0 1 1.414 -1.414l1.208 1.207h3.17l-3.292 -3.293a1 1 0 0 1 -.293 -.707v-2a1 1 0 1 1 2 0v1.585l3.025 3.025a3 3 0 0 1 5.95 0l3.025 -3.026v-1.584a1 1 0 0 1 .883 -.993z" />
</symbol>
	<symbol id="filled-sun-high" xmlns="http://www.w3.org/2000/svg" width="24" height="24" viewBox="0 0 24 24" fill="currentColor"
> <path d="M12 19a1 1 0 0 1 1 1v2a1 1 0 0 1 -2 0v-2a1 1 0 0 1 1 -1m-4.95 -2.05a1 1 0 0 1 0 1.414l-1.414 1.414a1 1 0 1 1 -1.414 -1.414l1.414 -1.414a1 1 0 0 1 1.414 0m11.314 0l1.414 1.414a1 1 0 0 1 -1.414 1.414l-1.414 -1.414a1 1 0 0 1 1.414 -1.414m-5.049 -9.836a5 5 0 1 1 -2.532 9.674a5 5 0 0 1 2.532 -9.674m-9.315 3.886a1 1 0 0 1 0 2h-2a1 1 0 0 1 0 -2zm18 0a1 1 0 0 1 0 2h-2a1 1 0 0 1 0 -2zm-16.364 -6.778l1.414 1.414a1 1 0 0 1 -1.414 1.414l-1.414 -1.414a1 1 0 0 1 1.414 -1.414m14.142 0a1 1 0 0 1 0 1.414l-1.414 1.414a1 1 0 0 1 -1.414 -1.414l1.414 -1.414a1 1 0 0 1 1.414 0m-7.778 -3.222a1 1 0 0 1 1 1v2a1 1 0 0 1 -2 0v-2a1 1 0 0 1 1 -1" />
</symbol>
	<symbol id="filled-sun-low" xmlns="http://www.w3.org/2000/svg" width="24" height="24" viewBox="0 0 24 24" fill="currentColor"
> <path d="M18.407 16.993l.01 .01a1 1 0 0 1 -1.32 1.497l-.104 -.093a1 1 0 0 1 1.414 -1.414m-11.4 0l.01 .01a1 1 0 0 1 -1.32 1.497l-.104 -.093a1 1 0 0 1 1.414 -1.414m4.993 -9.993a5 5 0 1 1 -5 5l.005 -.217a5 5 0 0 1 4.995 -4.783m-4.993 -1.407l.01 .01a1 1 0 0 1 -1.32 1.497l-.104 -.093a1 1 0 0 1 1.414 -1.414m11.4 0l.01 .01a1 1 0 0 1 -1.32 1.497l-.104 -.093a1 1 0 1 1 1.414 -1.414m-14.397 5.407a1 1 0 0 1 .117 1.993l-.127 .007a1 1 0 0 1 -.117 -1.993zm7.99 -8a1 1 0 0 1 .993 .883l.007 .127a1 1 0 0 1 -1.993 .117l-.007 -.127a1 1 0 0 1 1 -1m8.01 8a1 1 0 0 1 .117 1.993l-.127 .007a1 1 0 0 1 -.117 -1.993zm-8.01 8a1 1 0 0 1 .993 .883l.007 .127a1 1 0 0 1 -1.993 .117l-.007 -.127a1 1 0 0 1 1 -1" />
</symbol>
	<symbol id="filled-sunrise" xmlns="http://www.w3.org/2000/svg" width="24" height="24" viewBox="0 0 24 24" fill="currentColor"
> <path d="M4 16a1 1 0 0 1 0 2h-1a1 1 0 0 1 0 -2z" /> <path d="M12 12a5 5 0 0 1 5 5a1 1 0 0 1 -1 1h-8a1 1 0 0 1 -1 -1a5 5 0 0 1 5 -5" /> <path d="M21 16a1 1 0 0 1 0 2h-1a1 1 0 0 1 0 -2z" /> <path d="M6.307 9.893l.7 .7a1 1 0 0 1 -1.414 1.414l-.7 -.7a1 1 0 0 1 1.414 -1.414" /> <path d="M19.107 9.893a1 1 0 0 1 0 1.414l-.7 .7a1 1 0 0 1 -1.414 -1.414l.7 -.7a1 1 0 0 1 1.414 0" /> <path d="M12.707 2.293l3 3a1 1 0 1 1 -1.414 1.414l-1.293 -1.292v3.585a1 1 0 0 1 -.883 .993l-.117 .007a1 1 0 0 1 -1 -1v-3.586l-1.293 1.293a1 1 0 0 1 -1.414 -1.414l2.958 -2.96a1 1 0 0 1 .15 -.135l.127 -.08l.068 -.033l.11 -.041l.12 -.029c.3 -.055 .627 .024 .881 .278" /> <path d="M3 20h18a1 1 0 0 1 0 2h-18a1 1 0 0 1 0 -2" /> <path d="M12 12a5 5 0 0 1 4.583 7.002h-9.166a5 5 0 0 1 4.583 -7.002" />
</symbol>
	<symbol id="filled-sunset-2" xmlns="http://www.w3.org/2000/svg" width="24" height="24" viewBox="0 0 24 24" fill="currentColor"
> <path d="M4 12a1 1 0 0 1 0 2h-1a1 1 0 0 1 0 -2z" /> <path d="M21 12a1 1 0 0 1 0 2h-1a1 1 0 0 1 0 -2z" /> <path d="M6.307 5.893l.7 .7a1 1 0 0 1 -1.414 1.414l-.7 -.7a1 1 0 0 1 1.414 -1.414" /> <path d="M19.107 5.893a1 1 0 0 1 0 1.414l-.7 .7a1 1 0 0 1 -1.414 -1.414l.7 -.7a1 1 0 0 1 1.414 0" /> <path d="M12 3a1 1 0 0 1 1 1v1a1 1 0 0 1 -2 0v-1a1 1 0 0 1 1 -1" /> <path d="M3 16h18a1 1 0 0 1 0 2h-18a1 1 0 0 1 0 -2" /> <path d="M12 8a5 5 0 0 1 4.583 7.002h-9.166a5 5 0 0 1 4.583 -7.002" /> <path d="M12 19a1 1 0 0 1 0 2h-5a1 1 0 0 1 0 -2z" /> <path d="M17 19a1 1 0 0 1 0 2h-1a1 1 0 0 1 0 -2z" />
</symbol>
	<symbol id="filled-sunset" xmlns="http://www.w3.org/2000/svg" width="24" height="24" viewBox="0 0 24 24" fill="currentColor"
> <path d="M4 16a1 1 0 0 1 0 2h-1a1 1 0 0 1 0 -2z" /> <path d="M21 16a1 1 0 0 1 0 2h-1a1 1 0 0 1 0 -2z" /> <path d="M6.307 9.893l.7 .7a1 1 0 0 1 -1.414 1.414l-.7 -.7a1 1 0 0 1 1.414 -1.414" /> <path d="M19.107 9.893a1 1 0 0 1 0 1.414l-.7 .7a1 1 0 0 1 -1.414 -1.414l.7 -.7a1 1 0 0 1 1.414 0" /> <path d="M12 2a1 1 0 0 1 1 1v3.584l1.293 -1.291a1 1 0 0 1 1.32 -.083l.094 .083a1 1 0 0 1 0 1.414l-3 3a.98 .98 0 0 1 -.767 .293l-.124 -.017l-.127 -.032l-.104 -.04l-.115 -.063a1 1 0 0 1 -.151 -.114l-3.026 -3.027a1 1 0 0 1 1.414 -1.414l1.293 1.292v-3.585a1 1 0 0 1 1 -1" /> <path d="M3 20h18a1 1 0 0 1 0 2h-18a1 1 0 0 1 0 -2" /> <path d="M12 12a5 5 0 0 1 4.583 7.002h-9.166a5 5 0 0 1 4.583 -7.002" />
</symbol>
	<symbol id="filled-temperature-minus" xmlns="http://www.w3.org/2000/svg" width="24" height="24" viewBox="0 0 24 24" fill="currentColor"
> <path d="M10 2a3 3 0 0 1 3 3v7.965l.075 .056a5 5 0 0 1 1.81 5.01l-.055 .227a5 5 0 1 1 -7.905 -5.237l.075 -.056v-7.965a3 3 0 0 1 2.824 -2.995zm12 6a1 1 0 0 1 0 2h-6a1 1 0 0 1 0 -2zm-12 -4a1 1 0 0 0 -1 1v4h2v-4a1 1 0 0 0 -1 -1" />
</symbol>
	<symbol id="filled-temperature-plus" xmlns="http://www.w3.org/2000/svg" width="24" height="24" viewBox="0 0 24 24" fill="currentColor"
> <path d="M10 2a3 3 0 0 1 3 3v7.965l.075 .056a5 5 0 0 1 1.81 5.01l-.055 .227a5 5 0 1 1 -7.905 -5.237l.075 -.056v-7.965a3 3 0 0 1 2.824 -2.995zm9 3a1 1 0 0 1 1 1v2h2a1 1 0 0 1 0 2h-2v2a1 1 0 0 1 -2 0v-2h-2a1 1 0 0 1 0 -2h2v-2a1 1 0 0 1 1 -1m-9 -1a1 1 0 0 0 -1 1v4h2v-4a1 1 0 0 0 -1 -1" />
</symbol>

	<use xlink:href="#filled-arrow-autofit-down" x="24" y="24" width="24" height="24" />
	<use xlink:href="#filled-arrow-autofit-height" x="68" y="24" width="24" height="24" />
	<use xlink:href="#filled-arrow-autofit-left" x="112" y="24" width="24" height="24" />
	<use xlink:href="#filled-arrow-autofit-right" x="156" y="24" width="24" height="24" />
	<use xlink:href="#filled-arrow-autofit-up" x="200" y="24" width="24" height="24" />
	<use xlink:href="#filled-arrow-autofit-width" x="244" y="24" width="24" height="24" />
	<use xlink:href="#filled-cloud-computing" x="24" y="68" width="24" height="24" />
	<use xlink:href="#filled-cloud-data-connection" x="68" y="68" width="24" height="24" />
	<use xlink:href="#filled-fish-bone" x="112" y="68" width="24" height="24" />
	<use xlink:href="#filled-pig" x="156" y="68" width="24" height="24" />
	<use xlink:href="#filled-spider" x="200" y="68" width="24" height="24" />
	<use xlink:href="#filled-sun-high" x="244" y="68" width="24" height="24" />
	<use xlink:href="#filled-sun-low" x="24" y="112" width="24" height="24" />
	<use xlink:href="#filled-sunrise" x="68" y="112" width="24" height="24" />
	<use xlink:href="#filled-sunset-2" x="112" y="112" width="24" height="24" />
	<use xlink:href="#filled-sunset" x="156" y="112" width="24" height="24" />
	<use xlink:href="#filled-temperature-minus" x="200" y="112" width="24" height="24" />
	<use xlink:href="#filled-temperature-plus" x="244" y="112" width="24" height="24" />

</svg>