<svg xmlns="http://www.w3.org/2000/svg" xmlns:xlink="http://www.w3.org/1999/xlink" viewBox="0 0 332 72" width="332" height="72" style="color: #354052"><rect x="0" y="0" width="332" height="72" fill="#fff"></rect>
	<symbol id="barcode" class="icon icon-tabler icon-tabler-barcode" viewBox="0 0 24 24" stroke-width="2" stroke="currentColor" fill="none" stroke-linecap="round" stroke-linejoin="round"><path stroke="none" d="M0 0h24v24H0z"/><path d="M4 7v-1a2 2 0 0 1 2 -2h2" /><path d="M4 17v1a2 2 0 0 0 2 2h2" /><path d="M16 4h2a2 2 0 0 1 2 2v1" /><path d="M16 20h2a2 2 0 0 0 2 -2v-1" /><rect x="5" y="11" width="1" height="2" /><line x1="10" y1="11" x2="10" y2="13" /><rect x="14" y="11" width="1" height="2" /><line x1="19" y1="11" x2="19" y2="13" />
</symbol>
	<symbol id="replace" class="icon icon-tabler icon-tabler-replace" viewBox="0 0 24 24" stroke-width="2" stroke="currentColor" fill="none" stroke-linecap="round" stroke-linejoin="round"><path stroke="none" d="M0 0h24v24H0z"/><rect x="3" y="3" width="6" height="6" rx="1" /><rect x="15" y="15" width="6" height="6" rx="1" /><path d="M21 11v-3a2 2 0 0 0 -2 -2h-6l3 3m0 -6l-3 3" /><path d="M3 13v3a2 2 0 0 0 2 2h6l-3 -3m0 6l3 -3" />
</symbol>
	<symbol id="scan" class="icon icon-tabler icon-tabler-scan" viewBox="0 0 24 24" stroke-width="2" stroke="currentColor" fill="none" stroke-linecap="round" stroke-linejoin="round"><path stroke="none" d="M0 0h24v24H0z"/><path d="M4 7v-1a2 2 0 0 1 2 -2h2" /><path d="M4 17v1a2 2 0 0 0 2 2h2" /><path d="M16 4h2a2 2 0 0 1 2 2v1" /><path d="M16 20h2a2 2 0 0 0 2 -2v-1" /><line x1="5" y1="12" x2="19" y2="12" />
</symbol>
	<symbol id="slideshow" class="icon icon-tabler icon-tabler-slideshow" viewBox="0 0 24 24" stroke-width="2" stroke="currentColor" fill="none" stroke-linecap="round" stroke-linejoin="round"><path stroke="none" d="M0 0h24v24H0z"/><line x1="15" y1="6" x2="15.01" y2="6" /><rect x="3" y="3" width="18" height="14" rx="3" /><path d="M3 13l4 -4a3 5 0 0 1 3 0l 4 4" /><path d="M13 12l2 -2a3 5 0 0 1 3 0l 3 3" /><line x1="8" y1="21" x2="8.01" y2="21" /><line x1="12" y1="21" x2="12.01" y2="21" /><line x1="16" y1="21" x2="16.01" y2="21" />
</symbol>
	<symbol id="tools" class="icon icon-tabler icon-tabler-tools" viewBox="0 0 24 24" stroke-width="2" stroke="currentColor" fill="none" stroke-linecap="round" stroke-linejoin="round"><path stroke="none" d="M0 0h24v24H0z"/><path d="M3 21h4l13 -13a1.5 1.5 0 0 0 -4 -4l-13 13v4" /><line x1="14.5" y1="5.5" x2="18.5" y2="9.5" /><polyline points="12 8 7 3 3 7 8 12" /><line x1="7" y1="8" x2="5.5" y2="9.5" /><polyline points="16 12 21 17 17 21 12 16" /><line x1="16" y1="17" x2="14.5" y2="18.5" />
</symbol>
	<symbol id="wand" class="icon icon-tabler icon-tabler-wand" viewBox="0 0 24 24" stroke-width="2" stroke="currentColor" fill="none" stroke-linecap="round" stroke-linejoin="round"><path stroke="none" d="M0 0h24v24H0z"/><polyline points="6 21 21 6 18 3 3 18 6 21" /><line x1="15" y1="6" x2="18" y2="9" /><path d="M9 3a2 2 0 0 0 2 2a2 2 0 0 0 -2 2a2 2 0 0 0 -2 -2a2 2 0 0 0 2 -2" /><path d="M19 13a2 2 0 0 0 2 2a2 2 0 0 0 -2 2a2 2 0 0 0 -2 -2a2 2 0 0 0 2 -2" />
</symbol>

	<use xlink:href="#barcode" x="24" y="24" width="24" height="24" />
	<use xlink:href="#replace" x="76" y="24" width="24" height="24" />
	<use xlink:href="#scan" x="128" y="24" width="24" height="24" />
	<use xlink:href="#slideshow" x="180" y="24" width="24" height="24" />
	<use xlink:href="#tools" x="232" y="24" width="24" height="24" />
	<use xlink:href="#wand" x="284" y="24" width="24" height="24" />

</svg>