<svg xmlns="http://www.w3.org/2000/svg" xmlns:xlink="http://www.w3.org/1999/xlink" viewBox="0 0 322 172" width="322" height="172" style="color: #354052"><rect x="0" y="0" width="322" height="172" fill="#fff"></rect>
	<symbol id="backhoe" class="icon icon-tabler icon-tabler-backhoe" viewBox="0 0 24 24" stroke-width="2" stroke="currentColor" fill="none" stroke-linecap="round" stroke-linejoin="round"><path stroke="none" d="M0 0h24v24H0z" fill="none"/><circle cx="4" cy="17" r="2" /><circle cx="13" cy="17" r="2" /><line x1="13" y1="19" x2="4" y2="19" /><line x1="4" y1="15" x2="13" y2="15" /><path d="M8 12V7h2a3 3 0 0 1 3 3v5" /><path d="M5 15v-2a1 1 0 0 1 1 -1h7" /><path d="M21.12 9.88l-3.12 -4.88l-5 5" /><path d="M21.12 9.88a3 3 0 0 1 -2.12 5.12a3 3 0 0 1 -2.12 -.88l4.24 -4.24z" />
</symbol>
	<symbol id="building-carousel" class="icon icon-tabler icon-tabler-building-carousel" viewBox="0 0 24 24" stroke-width="2" stroke="currentColor" fill="none" stroke-linecap="round" stroke-linejoin="round"><path stroke="none" d="M0 0h24v24H0z" fill="none"/><circle cx="12" cy="12" r="6" /><circle cx="5" cy="8" r="2" /><circle cx="12" cy="4" r="2" /><circle cx="19" cy="8" r="2" /><circle cx="5" cy="16" r="2" /><circle cx="19" cy="16" r="2" /><path d="M8 22l4-10 4 10" />
</symbol>
	<symbol id="building-castle" class="icon icon-tabler icon-tabler-building-castle" viewBox="0 0 24 24" stroke-width="2" stroke="currentColor" fill="none" stroke-linecap="round" stroke-linejoin="round"><path stroke="none" d="M0 0h24v24H0z" fill="none"/><path d="M15 19v-2a3 3 0 0 0 -6 0v2a1 1 0 0 1 -1 1h-4a1 1 0 0 1 -1 -1v-14h4v3h3v-3h4v3h3v-3h4v14a1 1 0 0 1 -1 1h-4a1 1 0 0 1 -1 -1z" /><line x1="3" y1="11" x2="21" y2="11" />
</symbol>
	<symbol id="building-fortress" class="icon icon-tabler icon-tabler-building-fortress" viewBox="0 0 24 24" stroke-width="2" stroke="currentColor" fill="none" stroke-linecap="round" stroke-linejoin="round"><path stroke="none" d="M0 0h24v24H0z" fill="none"/><path d="M7 21h1a1 1 0 0 0 1 -1v-1h0a3 3 0 0 1 6 0m3 2h1a1 1 0 0 0 1 -1v-15l-3 -2l-3 2v6h-4v-6l-3 -2l-3 2v15a1 1 0 0 0 1 1h2m8 -2v1a1 1 0 0 0 1 1h2" /><path d="M7 7h0v.01" /><path d="M7 10h0v.01" /><path d="M7 13h0v.01" /><path d="M17 7h0v.01" /><path d="M17 10h0v.01" /><path d="M17 13h0v.01" />
</symbol>
	<symbol id="building-lighthouse" class="icon icon-tabler icon-tabler-building-lighthouse" viewBox="0 0 24 24" stroke-width="2" stroke="currentColor" fill="none" stroke-linecap="round" stroke-linejoin="round"><path stroke="none" d="M0 0h24v24H0z" fill="none"/><path d="M12 3l2 3l2 15h-8l2 -15z" /><line x1="8" y1="9" x2="16" y2="9" /><path d="M3 11l2 -2l-2 -2" /><path d="M21 11l-2 -2l2 -2" />
</symbol>
	<symbol id="buldozer" class="icon icon-tabler icon-tabler-buldozer" viewBox="0 0 24 24" stroke-width="2" stroke="currentColor" fill="none" stroke-linecap="round" stroke-linejoin="round"><path stroke="none" d="M0 0h24v24H0z" fill="none"/><circle cx="4" cy="17" r="2" /><circle cx="13" cy="17" r="2" /><path d="M18 13v6h3" /><line x1="13" y1="19" x2="4" y2="19" /><line x1="4" y1="15" x2="13" y2="15" /><path d="M8 12v-5h2a3 3 0 0 1 3 3v5" /><path d="M5 15v-2a1 1 0 0 1 1 -1h7" /><line x1="18" y1="17" x2="15" y2="17" />
</symbol>
	<symbol id="golf" class="icon icon-tabler icon-tabler-golf" viewBox="0 0 24 24" stroke-width="2" stroke="currentColor" fill="none" stroke-linecap="round" stroke-linejoin="round"><path stroke="none" d="M0 0h24v24H0z" fill="none"/><path d="M12 18v-15l7 4l-7 4" /><path d="M9 17.67c-.62 .36 -1 .82 -1 1.33c0 1.1 1.8 2 4 2s4 -.9 4 -2c0 -.5 -.38 -.97 -1 -1.33" />
</symbol>
	<symbol id="helicopter-landing" class="icon icon-tabler icon-tabler-helicopter-landing" viewBox="0 0 24 24" stroke-width="2" stroke="currentColor" fill="none" stroke-linecap="round" stroke-linejoin="round"><path stroke="none" d="M0 0h24v24H0z" fill="none"/><rect x="4" y="4" width="16" height="16" rx="2" /><line x1="9" y1="8" x2="9" y2="16" /><line x1="9" y1="12" x2="15" y2="12" /><line x1="15" y1="8" x2="15" y2="16" />
</symbol>
	<symbol id="helicopter" class="icon icon-tabler icon-tabler-helicopter" viewBox="0 0 24 24" stroke-width="2" stroke="currentColor" fill="none" stroke-linecap="round" stroke-linejoin="round"><path stroke="none" d="M0 0h24v24H0z" fill="none"/><path d="M3 10l1 2h6" /><path d="M12 9a2 2 0 0 0 -2 2v3c0 1.1 .9 2 2 2h7a2 2 0 0 0 2 -2c0 -3.31 -3.13 -5 -7 -5h-2z" /><line x1="13" y1="9" x2="13" y2="6" /><line x1="5" y1="6" x2="20" y2="6" /><path d="M15 9.1v3.9h5.5" /><line x1="15" y1="19" x2="15" y2="16" /><line x1="19" y1="19" x2="11" y2="19" />
</symbol>
	<symbol id="jump-rope" class="icon icon-tabler icon-tabler-jump-rope" viewBox="0 0 24 24" stroke-width="2" stroke="currentColor" fill="none" stroke-linecap="round" stroke-linejoin="round"><path stroke="none" d="M0 0h24v24H0z" fill="none"/><path d="M6 14v-6a3 3 0 1 1 6 0v8a3 3 0 0 0 6 0v-6" /><rect x="16" y="3" width="4" height="7" rx="2" /><rect x="4" y="14" width="4" height="7" rx="2" />
</symbol>
	<symbol id="mood-crazy-happy" class="icon icon-tabler icon-tabler-mood-crazy-happy" viewBox="0 0 24 24" stroke-width="2" stroke="currentColor" fill="none" stroke-linecap="round" stroke-linejoin="round"><path stroke="none" d="M0 0h24v24H0z" fill="none"/><circle cx="12" cy="12" r="9" /><line x1="7" y1="8.5" x2="10" y2="11.5" /><path d="M7 11.5l3-3" /><line x1="14" y1="8.5" x2="17" y2="11.5" /><path d="M14 11.5l3-3" /><path d="M9.5 15a3.5 3.5 0 0 0 5 0" />
</symbol>
	<symbol id="pool" class="icon icon-tabler icon-tabler-pool" viewBox="0 0 24 24" stroke-width="2" stroke="currentColor" fill="none" stroke-linecap="round" stroke-linejoin="round"><path stroke="none" d="M0 0h24v24H0z" fill="none"/><path d="M2 20a2.4 2.4 0 0 0 2 1 2.4 2.4 0 002-1 2.4 2.4 0 012-1 2.4 2.4 0 012 1 2.4 2.4 0 002 1 2.4 2.4 0 002-1 2.4 2.4 0 012-1 2.4 2.4 0 012 1 2.4 2.4 0 002 1 2.4 2.4 0 002-1" /><path d="M2 16a2.4 2.4 0 0 0 2 1 2.4 2.4 0 002-1 2.4 2.4 0 012-1 2.4 2.4 0 012 1 2.4 2.4 0 002 1 2.4 2.4 0 002-1 2.4 2.4 0 012-1 2.4 2.4 0 012 1 2.4 2.4 0 002 1 2.4 2.4 0 002-1" /><path d="M15 12v-7.5a1.5 1.5 0 0 1 3 0" /><path d="M9 12v-7.5a1.5 1.5 0 0 0 -3 0" /><line x1="15" y1="5" x2="9" y2="5" /><line x1="9" y1="10" x2="15" y2="10" />
</symbol>
	<symbol id="soccer-field" class="icon icon-tabler icon-tabler-soccer-field" viewBox="0 0 24 24" stroke-width="2" stroke="currentColor" fill="none" stroke-linecap="round" stroke-linejoin="round"><path stroke="none" d="M0 0h24v24H0z" fill="none"/><circle cx="12" cy="12" r="3" /><path d="M3 9h3v6h-3z" /><path d="M18 9h3v6h-3z" /><rect x="3" y="5" width="18" height="14" rx="2" /><line x1="12" y1="5" x2="12" y2="19" />
</symbol>
	<symbol id="speedboat" class="icon icon-tabler icon-tabler-speedboat" viewBox="0 0 24 24" stroke-width="2" stroke="currentColor" fill="none" stroke-linecap="round" stroke-linejoin="round"><path stroke="none" d="M0 0h24v24H0z" fill="none"/><path d="M3 17h13.4a3 3 0 0 0 2.5 -1.34l3.1 -4.66h0h-6.23a4 4 0 0 0 -1.49 .29l-3.56 1.42a4 4 0 0 1 -1.49 .29h-3.73h0h-1l-1.5 4z" /><line x1="6" y1="13" x2="7.5" y2="8" /><path d="M6 8h8l2 3" />
</symbol>
	<symbol id="submarine" class="icon icon-tabler icon-tabler-submarine" viewBox="0 0 24 24" stroke-width="2" stroke="currentColor" fill="none" stroke-linecap="round" stroke-linejoin="round"><path stroke="none" d="M0 0h24v24H0z" fill="none"/><path d="M3 11v6h2l1 -1.5l3 1.5h10a3 3 0 0 0 0 -6h-10h0l-3 1.5l-1 -1.5h-2z" /><path d="M17 11l-1 -3h-5l-1 3" /><path d="M13 8v-2a1 1 0 0 1 1 -1h1" />
</symbol>
	<symbol id="tank" class="icon icon-tabler icon-tabler-tank" viewBox="0 0 24 24" stroke-width="2" stroke="currentColor" fill="none" stroke-linecap="round" stroke-linejoin="round"><path stroke="none" d="M0 0h24v24H0z" fill="none"/><rect x="2" y="12" width="18" height="6" rx="3" /><path d="M6 12l1 -5h5l3 5" /><line x1="21" y1="9" x2="13.2" y2="9" />
</symbol>
	<symbol id="train" class="icon icon-tabler icon-tabler-train" viewBox="0 0 24 24" stroke-width="2" stroke="currentColor" fill="none" stroke-linecap="round" stroke-linejoin="round"><path stroke="none" d="M0 0h24v24H0z" fill="none"/><path d="M21 13c0 -3.87 -3.37 -7 -10 -7h-8" /><path d="M3 15h16a2 2 0 0 0 2 -2" /><path d="M3 6v5h17.5" /><line x1="3" y1="10" x2="3" y2="14" /><line x1="8" y1="11" x2="8" y2="6" /><line x1="13" y1="11" x2="13" y2="6.5" /><line x1="3" y1="19" x2="21" y2="19" />
</symbol>
	<symbol id="wrecking-ball" class="icon icon-tabler icon-tabler-wrecking-ball" viewBox="0 0 24 24" stroke-width="2" stroke="currentColor" fill="none" stroke-linecap="round" stroke-linejoin="round"><path stroke="none" d="M0 0h24v24H0z" fill="none"/><circle cx="19" cy="13" r="2" /><circle cx="4" cy="17" r="2" /><circle cx="13" cy="17" r="2" /><line x1="13" y1="19" x2="4" y2="19" /><line x1="4" y1="15" x2="13" y2="15" /><path d="M8 12v-5h2a3 3 0 0 1 3 3v5" /><path d="M5 15v-2a1 1 0 0 1 1 -1h7" /><path d="M19 11v-7l-6 7" />
</symbol>

	<use xlink:href="#backhoe" x="24" y="24" width="24" height="24" />
	<use xlink:href="#building-carousel" x="74" y="24" width="24" height="24" />
	<use xlink:href="#building-castle" x="124" y="24" width="24" height="24" />
	<use xlink:href="#building-fortress" x="174" y="24" width="24" height="24" />
	<use xlink:href="#building-lighthouse" x="224" y="24" width="24" height="24" />
	<use xlink:href="#buldozer" x="274" y="24" width="24" height="24" />
	<use xlink:href="#golf" x="24" y="74" width="24" height="24" />
	<use xlink:href="#helicopter-landing" x="74" y="74" width="24" height="24" />
	<use xlink:href="#helicopter" x="124" y="74" width="24" height="24" />
	<use xlink:href="#jump-rope" x="174" y="74" width="24" height="24" />
	<use xlink:href="#mood-crazy-happy" x="224" y="74" width="24" height="24" />
	<use xlink:href="#pool" x="274" y="74" width="24" height="24" />
	<use xlink:href="#soccer-field" x="24" y="124" width="24" height="24" />
	<use xlink:href="#speedboat" x="74" y="124" width="24" height="24" />
	<use xlink:href="#submarine" x="124" y="124" width="24" height="24" />
	<use xlink:href="#tank" x="174" y="124" width="24" height="24" />
	<use xlink:href="#train" x="224" y="124" width="24" height="24" />
	<use xlink:href="#wrecking-ball" x="274" y="124" width="24" height="24" />

</svg>