<svg xmlns="http://www.w3.org/2000/svg" xmlns:xlink="http://www.w3.org/1999/xlink" viewBox="0 0 292 160" width="292" height="160" style="color: #354052"><rect x="0" y="0" width="292" height="160" fill="#fff"></rect>
	<symbol id="blade" class="icon icon-tabler icon-tabler-blade" viewBox="0 0 24 24" stroke-width="2" stroke="currentColor" fill="none" stroke-linecap="round" stroke-linejoin="round"><path stroke="none" d="M0 0h24v24H0z" fill="none"/><path d="M17.707 3.707l2.586 2.586a1 1 0 0 1 0 1.414l-.586 .586a1 1 0 0 0 0 1.414l.586 .586a1 1 0 0 1 0 1.414l-8.586 8.586a1 1 0 0 1 -1.414 0l-.586 -.586a1 1 0 0 0 -1.414 0l-.586 .586a1 1 0 0 1 -1.414 0l-2.586 -2.586a1 1 0 0 1 0 -1.414l.586 -.586a1 1 0 0 0 0 -1.414l-.586 -.586a1 1 0 0 1 0 -1.414l8.586 -8.586a1 1 0 0 1 1.414 0l.586 .586a1 1 0 0 0 1.414 0l.586 -.586a1 1 0 0 1 1.414 0z" /><path d="M8 16l3.2 -3.2" /><path d="M12.8 11.2l3.2 -3.2" /><path d="M14 8l2 2" /><path d="M8 14l2 2" /><circle cx="12" cy="12" r="1" />
</symbol>
	<symbol id="building-broadcast-tower" class="icon icon-tabler icon-tabler-building-broadcast-tower" viewBox="0 0 24 24" stroke-width="2" stroke="currentColor" fill="none" stroke-linecap="round" stroke-linejoin="round"><path stroke="none" d="M0 0h24v24H0z" fill="none"/><circle cx="12" cy="12" r="1" /><path d="M16.616 13.924a5 5 0 1 0 -9.23 .004" /><path d="M20.307 15.469a9 9 0 1 0 -16.615 0" /><path d="M9 21l3 -9l3 9" /><path d="M10 19h4" />
</symbol>
	<symbol id="building-circus" class="icon icon-tabler icon-tabler-building-circus" viewBox="0 0 24 24" stroke-width="2" stroke="currentColor" fill="none" stroke-linecap="round" stroke-linejoin="round"><path stroke="none" d="M0 0h24v24H0z" fill="none"/><path d="M4 11h16" /><path d="M12 6.5c0 1 -5 4.5 -8 4.5" /><path d="M12 6.5c0 1 5 4.5 8 4.5" /><path d="M6 11c-.333 5.333 -1 8.667 -2 10h4c1 0 4 -4 4 -9v-1" /><path d="M18 11c.333 5.333 1 8.667 2 10h-4c-1 0 -4 -4 -4 -9v-1" /><path d="M12 7v-4l2 1h-2" />
</symbol>
	<symbol id="building-wind-turbine" class="icon icon-tabler icon-tabler-building-wind-turbine" viewBox="0 0 24 24" stroke-width="2" stroke="currentColor" fill="none" stroke-linecap="round" stroke-linejoin="round"><path stroke="none" d="M0 0h24v24H0z" fill="none"/><circle cx="12" cy="11" r="2" /><path d="M10 11v-2.573c0 -.18 .013 -.358 .04 -.536l.716 -4.828c.064 -.597 .597 -1.063 1.244 -1.063s1.18 .466 1.244 1.063l.716 4.828c.027 .178 .04 .357 .04 .536v2.573" /><path d="M13.01 9.28l2.235 1.276c.156 .09 .305 .19 .446 .3l3.836 2.911c.487 .352 .624 1.04 .3 1.596c-.325 .556 -.997 .782 -1.548 .541l-4.555 -1.68a3.624 3.624 0 0 1 -.486 -.231l-2.235 -1.277" /><path d="M13 12.716l-2.236 1.277a3.624 3.624 0 0 1 -.485 .23l-4.555 1.681c-.551 .241 -1.223 .015 -1.548 -.54c-.324 -.557 -.187 -1.245 .3 -1.597l3.836 -2.91a3.41 3.41 0 0 1 .446 -.3l2.235 -1.277" /><path d="M7 21h10" /><path d="M10 21l1 -7" /><path d="M13 14l1 7" />
</symbol>
	<symbol id="cannabis" class="icon icon-tabler icon-tabler-cannabis" viewBox="0 0 24 24" stroke-width="2" stroke="currentColor" fill="none" stroke-linecap="round" stroke-linejoin="round"><path stroke="none" d="M0 0h24v24H0z" fill="none"/><path d="M7 20s0 -2 1 -3.5c-1.5 0 -2 -.5 -4 -1.5c0 0 1.839 -1.38 5 -1c-1.789 -.97 -3.279 -2.03 -5 -6c0 0 3.98 -.3 6.5 3.5c-2.284 -4.9 1.5 -9.5 1.5 -9.5c2.734 5.47 2.389 7.5 1.5 9.5c2.531 -3.77 6.5 -3.5 6.5 -3.5c-1.721 3.97 -3.211 5.03 -5 6c3.161 -.38 5 1 5 1c-2 1 -2.5 1.5 -4 1.5c1 1.5 1 3.5 1 3.5c-2 0 -4.438 -2.22 -5 -3c-.563 .78 -3 3 -5 3z" /><path d="M12 22v-5" />
</symbol>
	<symbol id="chart-grid-dots" class="icon icon-tabler icon-tabler-chart-grid-dots" viewBox="0 0 24 24" stroke-width="2" stroke="currentColor" fill="none" stroke-linecap="round" stroke-linejoin="round"><path stroke="none" d="M0 0h24v24H0z" fill="none"/><circle cx="18" cy="6" r="2" /><circle cx="6" cy="12" r="2" /><circle cx="6" cy="18" r="2" /><circle cx="18" cy="18" r="2" /><path d="M8 18h8" /><path d="M18 20v1" /><path d="M18 3v1" /><path d="M6 20v1" /><path d="M6 10v-7" /><path d="M12 3v18" /><path d="M18 8v8" /><path d="M8 12h13" /><path d="M21 6h-1" /><path d="M16 6h-13" /><path d="M3 12h1" /><path d="M20 18h1" /><path d="M3 18h1" /><path d="M6 14v2" />
</symbol>
	<symbol id="circles-relation" class="icon icon-tabler icon-tabler-circles-relation" viewBox="0 0 24 24" stroke-width="2" stroke="currentColor" fill="none" stroke-linecap="round" stroke-linejoin="round"><path stroke="none" d="M0 0h24v24H0z" fill="none"/><path d="M9.183 6.117a6 6 0 1 0 4.511 3.986" /><path d="M14.813 17.883a6 6 0 1 0 -4.496 -3.954" />
</symbol>
	<symbol id="cookie-man" class="icon icon-tabler icon-tabler-cookie-man" viewBox="0 0 24 24" stroke-width="2" stroke="currentColor" fill="none" stroke-linecap="round" stroke-linejoin="round"><path stroke="none" d="M0 0h24v24H0z" fill="none"/><path d="M12 2a5 5 0 0 1 2.845 9.112l.147 .369l1.755 -.803c.969 -.443 2.12 -.032 2.571 .918a1.88 1.88 0 0 1 -.787 2.447l-.148 .076l-2.383 1.089v2.02l1.426 1.425l.114 .125a1.96 1.96 0 0 1 -2.762 2.762l-.125 -.114l-2.079 -2.08l-.114 -.124a1.957 1.957 0 0 1 -.161 -.22h-.599c-.047 .075 -.101 .15 -.16 .22l-.115 .125l-2.08 2.079a1.96 1.96 0 0 1 -2.886 -2.648l.114 -.125l1.427 -1.426v-2.019l-2.383 -1.09l-.148 -.075a1.88 1.88 0 0 1 -.787 -2.447c.429 -.902 1.489 -1.318 2.424 -.978l.147 .06l1.755 .803l.147 -.369a4.995 4.995 0 0 1 -2.15 -3.895l-.005 -.217a5 5 0 0 1 5 -5z" /><path d="M12 16h.01" /><path d="M12 13h.01" /><path d="M10 7h.01" /><path d="M14 7h.01" /><path d="M12 9h.01" />
</symbol>
	<symbol id="deer" class="icon icon-tabler icon-tabler-deer" viewBox="0 0 24 24" stroke-width="2" stroke="currentColor" fill="none" stroke-linecap="round" stroke-linejoin="round"><path stroke="none" d="M0 0h24v24H0z" fill="none"/><path d="M3 3c0 2 1 3 4 3c2 0 3 1 3 3" /><path d="M21 3c0 2 -1 3 -4 3c-2 0 -3 .333 -3 3" /><path d="M12 18c-1 0 -4 -3 -4 -6c0 -2 1.333 -3 4 -3s4 1 4 3c0 3 -3 6 -4 6" /><path d="M15.185 14.889l.095 -.18a4 4 0 1 1 -6.56 0" /><path d="M17 3c0 1.333 -.333 2.333 -1 3" /><path d="M7 3c0 1.333 .333 2.333 1 3" /><path d="M7 6c-2.667 .667 -4.333 1.667 -5 3" /><path d="M17 6c2.667 .667 4.333 1.667 5 3" /><path d="M8.5 10l-1.5 -1" /><path d="M15.5 10l1.5 -1" /><path d="M12 15h.01" />
</symbol>
	<symbol id="guitar-pick" class="icon icon-tabler icon-tabler-guitar-pick" viewBox="0 0 24 24" stroke-width="2" stroke="currentColor" fill="none" stroke-linecap="round" stroke-linejoin="round"><path stroke="none" d="M0 0h24v24H0z" fill="none"/><path d="M16 18.5c2 -2.5 4 -6.5 4 -10.5c0 -2.946 -2.084 -4.157 -4.204 -4.654c-.864 -.23 -2.13 -.346 -3.796 -.346c-1.667 0 -2.932 .115 -3.796 .346c-2.12 .497 -4.204 1.708 -4.204 4.654c0 3.312 2 8 4 10.5c.297 .37 .618 .731 .963 1.081l.354 .347a3.9 3.9 0 0 0 5.364 0a14.05 14.05 0 0 0 1.319 -1.428z" />
</symbol>
	<symbol id="hexagon-3d" class="icon icon-tabler icon-tabler-hexagon-3d" viewBox="0 0 24 24" stroke-width="2" stroke="currentColor" fill="none" stroke-linecap="round" stroke-linejoin="round"><path stroke="none" d="M0 0h24v24H0z" fill="none"/><path d="M19 6.844a2.007 2.007 0 0 1 1 1.752v6.555c0 .728 -.394 1.399 -1.03 1.753l-5.999 3.844a1.995 1.995 0 0 1 -1.942 0l-6 -3.844a2.007 2.007 0 0 1 -1.029 -1.752v-6.556c0 -.729 .394 -1.4 1.029 -1.753l6 -3.583a2.05 2.05 0 0 1 2 0l6 3.584h-.03z" /><path d="M12 16.5v4.5" /><path d="M4.5 7.5l3.5 2.5" /><path d="M16 10l4 -2.5" /><path d="M12 7.5v4.5l-4 2" /><path d="M12 12l4 2" /><path d="M12 16.5l4 -2.5v-4l-4 -2.5l-4 2.5v4z" />
</symbol>
	<symbol id="milkshake" class="icon icon-tabler icon-tabler-milkshake" viewBox="0 0 24 24" stroke-width="2" stroke="currentColor" fill="none" stroke-linecap="round" stroke-linejoin="round"><path stroke="none" d="M0 0h24v24H0z" fill="none"/><path d="M17 10a5 5 0 0 0 -10 0" /><rect x="6" y="10" width="12" height="3" rx="1" /><path d="M7 13l1.81 7.243a1 1 0 0 0 .97 .757h4.44a1 1 0 0 0 .97 -.757l1.81 -7.243" /><path d="M12 5v-2" />
</symbol>
	<symbol id="moustache" class="icon icon-tabler icon-tabler-moustache" viewBox="0 0 24 24" stroke-width="2" stroke="currentColor" fill="none" stroke-linecap="round" stroke-linejoin="round"><path stroke="none" d="M0 0h24v24H0z" fill="none"/><path d="M15 9a3 3 0 0 1 2.599 1.5h.001c.933 1.333 2.133 1.556 3.126 1.556l.291 -.006l.77 -.044l.213 -.006c-.963 1.926 -3.163 2.925 -6.6 2.996l-.4 .004l-.165 -.005a3 3 0 0 1 .165 -5.995z" /><path d="M9 9a3 3 0 0 0 -2.599 1.5h-.001c-.933 1.333 -2.133 1.556 -3.126 1.556l-.291 -.006l-.77 -.044l-.213 -.006c.963 1.926 3.163 2.925 6.6 2.996l.4 .004l.165 -.005a3 3 0 0 0 -.165 -5.995z" />
</symbol>
	<symbol id="password" class="icon icon-tabler icon-tabler-password" viewBox="0 0 24 24" stroke-width="2" stroke="currentColor" fill="none" stroke-linecap="round" stroke-linejoin="round"><path stroke="none" d="M0 0h24v24H0z" fill="none"/><path d="M12 10v4" /><path d="M10 13l4 -2" /><path d="M10 11l4 2" /><path d="M5 10v4" /><path d="M3 13l4 -2" /><path d="M3 11l4 2" /><path d="M19 10v4" /><path d="M17 13l4 -2" /><path d="M17 11l4 2" />
</symbol>
	<symbol id="stereo-glasses" class="icon icon-tabler icon-tabler-stereo-glasses" viewBox="0 0 24 24" stroke-width="2" stroke="currentColor" fill="none" stroke-linecap="round" stroke-linejoin="round"><path stroke="none" d="M0 0h24v24H0z" fill="none"/><path d="M8 3h-2l-3 9" /><path d="M16 3h2l3 9" /><path d="M3 12v7a1 1 0 0 0 1 1h4.586a1 1 0 0 0 .707 -.293l2 -2a1 1 0 0 1 1.414 0l2 2a1 1 0 0 0 .707 .293h4.586a1 1 0 0 0 1 -1v-7h-18z" /><path d="M7 16h1" /><path d="M16 16h1" />
</symbol>
	<symbol id="trolley" class="icon icon-tabler icon-tabler-trolley" viewBox="0 0 24 24" stroke-width="2" stroke="currentColor" fill="none" stroke-linecap="round" stroke-linejoin="round"><path stroke="none" d="M0 0h24v24H0z" fill="none"/><circle cx="11" cy="19" r="2" /><path d="M6 16l3 2" /><path d="M12 17l8 -12" /><path d="M17 10l2 1" /><path d="M9.592 4.695l3.306 2.104a1.3 1.3 0 0 1 .396 1.8l-3.094 4.811a1.3 1.3 0 0 1 -1.792 .394l-3.306 -2.104a1.3 1.3 0 0 1 -.396 -1.8l3.094 -4.81a1.3 1.3 0 0 1 1.792 -.394z" />
</symbol>
	<symbol id="vector-bezier-arc" class="icon icon-tabler icon-tabler-vector-bezier-arc" viewBox="0 0 24 24" stroke-width="2" stroke="currentColor" fill="none" stroke-linecap="round" stroke-linejoin="round"><path stroke="none" d="M0 0h24v24H0z" fill="none"/><rect x="3" y="10" width="4" height="4" rx="1" /><rect x="17" y="10" width="4" height="4" rx="1" /><rect x="10" y="3" width="4" height="4" rx="1" /><rect x="10" y="17" width="4" height="4" rx="1" /><path d="M19 10a5 5 0 0 0 -5 -5" /><path d="M5 14a5 5 0 0 0 5 5" /><path d="M5 10a5 5 0 0 1 5 -5" />
</symbol>
	<symbol id="vector-bezier-circle" class="icon icon-tabler icon-tabler-vector-bezier-circle" viewBox="0 0 24 24" stroke-width="2" stroke="currentColor" fill="none" stroke-linecap="round" stroke-linejoin="round"><path stroke="none" d="M0 0h24v24H0z" fill="none"/><rect x="3" y="10" width="4" height="4" rx="1" /><rect x="17" y="10" width="4" height="4" rx="1" /><rect x="10" y="3" width="4" height="4" rx="1" /><rect x="10" y="17" width="4" height="4" rx="1" /><path d="M19 10a5 5 0 0 0 -5 -5" /><path d="M19 14a5 5 0 0 1 -5 5" /><path d="M5 14a5 5 0 0 0 5 5" /><path d="M5 10a5 5 0 0 1 5 -5" />
</symbol>

	<use xlink:href="#blade" x="24" y="24" width="24" height="24" />
	<use xlink:href="#building-broadcast-tower" x="68" y="24" width="24" height="24" />
	<use xlink:href="#building-circus" x="112" y="24" width="24" height="24" />
	<use xlink:href="#building-wind-turbine" x="156" y="24" width="24" height="24" />
	<use xlink:href="#cannabis" x="200" y="24" width="24" height="24" />
	<use xlink:href="#chart-grid-dots" x="244" y="24" width="24" height="24" />
	<use xlink:href="#circles-relation" x="24" y="68" width="24" height="24" />
	<use xlink:href="#cookie-man" x="68" y="68" width="24" height="24" />
	<use xlink:href="#deer" x="112" y="68" width="24" height="24" />
	<use xlink:href="#guitar-pick" x="156" y="68" width="24" height="24" />
	<use xlink:href="#hexagon-3d" x="200" y="68" width="24" height="24" />
	<use xlink:href="#milkshake" x="244" y="68" width="24" height="24" />
	<use xlink:href="#moustache" x="24" y="112" width="24" height="24" />
	<use xlink:href="#password" x="68" y="112" width="24" height="24" />
	<use xlink:href="#stereo-glasses" x="112" y="112" width="24" height="24" />
	<use xlink:href="#trolley" x="156" y="112" width="24" height="24" />
	<use xlink:href="#vector-bezier-arc" x="200" y="112" width="24" height="24" />
	<use xlink:href="#vector-bezier-circle" x="244" y="112" width="24" height="24" />

</svg>