<svg xmlns="http://www.w3.org/2000/svg" xmlns:xlink="http://www.w3.org/1999/xlink" viewBox="0 0 292 160" width="292" height="160" style="color: #354052"><rect x="0" y="0" width="292" height="160" fill="#fff"></rect>
	<symbol id="arrow-bar-both" class="icon icon-tabler icon-tabler-arrow-bar-both" viewBox="0 0 24 24" stroke-width="2" stroke="currentColor" fill="none" stroke-linecap="round" stroke-linejoin="round"><path stroke="none" d="M0 0h24v24H0z" fill="none"/><path d="M8 12h-6" /><path d="M5 15l-3 -3l3 -3" /><path d="M22 12h-6" /><path d="M19 15l3 -3l-3 -3" /><path d="M12 4v16" />
</symbol>
	<symbol id="arrow-capsule" class="icon icon-tabler icon-tabler-arrow-capsule" viewBox="0 0 24 24" stroke-width="2" stroke="currentColor" fill="none" stroke-linecap="round" stroke-linejoin="round"><path stroke="none" d="M0 0h24v24H0z" fill="none"/><path d="M18 15a6 6 0 1 1 -12 0v-6a6 6 0 1 1 12 0v2" /><path d="M15 8l3 3l3 -3" />
</symbol>
	<symbol id="brand-microsoft-teams" class="icon icon-tabler icon-tabler-brand-microsoft-teams" viewBox="0 0 24 24" stroke-width="2" stroke="currentColor" fill="none" stroke-linecap="round" stroke-linejoin="round"><path stroke="none" d="M0 0h24v24H0z" fill="none"/><path d="M3 7h10v10h-10z" /><path d="M6 10h4" /><path d="M8 10v4" /><path d="M8.104 17c.47 2.274 2.483 4 4.896 4a5 5 0 0 0 5 -5v-7h-5" /><path d="M18 18a4 4 0 0 0 4 -4v-5h-4" /><path d="M13.003 8.83a3 3 0 1 0 -1.833 -1.833" /><path d="M15.83 8.36a2.5 2.5 0 1 0 .594 -4.117" />
</symbol>
	<symbol id="brand-nodejs" class="icon icon-tabler icon-tabler-brand-nodejs" viewBox="0 0 24 24" stroke-width="2" stroke="currentColor" fill="none" stroke-linecap="round" stroke-linejoin="round"><path stroke="none" d="M0 0h24v24H0z" fill="none"/><path d="M9 9v8.044a2 2 0 0 1 -2.996 1.734l-1.568 -.9a3 3 0 0 1 -1.436 -2.561v-6.635a3 3 0 0 1 1.436 -2.56l6 -3.667a3 3 0 0 1 3.128 0l6 3.667a3 3 0 0 1 1.436 2.561v6.634a3 3 0 0 1 -1.436 2.56l-6 3.667a3 3 0 0 1 -3.128 0" /><path d="M17 9h-3.5a1.5 1.5 0 0 0 0 3h2a1.5 1.5 0 0 1 0 3h-3.5" />
</symbol>
	<symbol id="brand-yandex" class="icon icon-tabler icon-tabler-brand-yandex" viewBox="0 0 24 24" stroke-width="2" stroke="currentColor" fill="none" stroke-linecap="round" stroke-linejoin="round"><path stroke="none" d="M0 0h24v24H0z" fill="none"/><path d="M15 20v-16h-2a4 4 0 0 0 -4 4v1a4 4 0 0 0 4 4h2" /><path d="M9 20l3 -7" />
</symbol>
	<symbol id="capsule-horizontal" class="icon icon-tabler icon-tabler-capsule-horizontal" viewBox="0 0 24 24" stroke-width="2" stroke="currentColor" fill="none" stroke-linecap="round" stroke-linejoin="round"><path stroke="none" d="M0 0h24v24H0z" fill="none"/><path d="M3 6m0 6a6 6 0 0 1 6 -6h6a6 6 0 0 1 6 6v0a6 6 0 0 1 -6 6h-6a6 6 0 0 1 -6 -6z" />
</symbol>
	<symbol id="capsule" class="icon icon-tabler icon-tabler-capsule" viewBox="0 0 24 24" stroke-width="2" stroke="currentColor" fill="none" stroke-linecap="round" stroke-linejoin="round"><path stroke="none" d="M0 0h24v24H0z" fill="none"/><path d="M6 3m0 6a6 6 0 0 1 6 -6h0a6 6 0 0 1 6 6v6a6 6 0 0 1 -6 6h0a6 6 0 0 1 -6 -6z" />
</symbol>
	<symbol id="chevron-left-pipe" class="icon icon-tabler icon-tabler-chevron-left-pipe" viewBox="0 0 24 24" stroke-width="2" stroke="currentColor" fill="none" stroke-linecap="round" stroke-linejoin="round"><path stroke="none" d="M0 0h24v24H0z" fill="none"/><path d="M7 6v12" /><path d="M18 6l-6 6l6 6" />
</symbol>
	<symbol id="chevron-right-pipe" class="icon icon-tabler icon-tabler-chevron-right-pipe" viewBox="0 0 24 24" stroke-width="2" stroke="currentColor" fill="none" stroke-linecap="round" stroke-linejoin="round"><path stroke="none" d="M0 0h24v24H0z" fill="none"/><path d="M6 6l6 6l-6 6" /><path d="M17 5v13" />
</symbol>
	<symbol id="device-airtag" class="icon icon-tabler icon-tabler-device-airtag" viewBox="0 0 24 24" stroke-width="2" stroke="currentColor" fill="none" stroke-linecap="round" stroke-linejoin="round"><path stroke="none" d="M0 0h24v24H0z" fill="none"/><path d="M4 12a8 8 0 1 0 16 0a8 8 0 0 0 -16 0" /><path d="M9 15v.01" /><path d="M15 15a6 6 0 0 0 -6 -6" /><path d="M12 15a3 3 0 0 0 -3 -3" />
</symbol>
	<symbol id="device-vision-pro" class="icon icon-tabler icon-tabler-device-vision-pro" viewBox="0 0 24 24" stroke-width="2" stroke="currentColor" fill="none" stroke-linecap="round" stroke-linejoin="round"><path stroke="none" d="M0 0h24v24H0z" fill="none"/><path d="M12 7c1.143 0 2.235 .035 3.275 .104c1.017 .068 1.95 .207 2.798 .42c.813 .203 1.52 .505 2.119 .909a3.903 3.903 0 0 1 1.328 1.531c.326 .657 .48 1.48 .48 2.466c0 1.006 -.189 1.91 -.574 2.707c-.375 .779 -.886 1.396 -1.537 1.848a3.696 3.696 0 0 1 -2.16 .66c-.509 0 -.97 -.068 -1.382 -.21a5.84 5.84 0 0 1 -1.17 -.548a18.45 18.45 0 0 1 -1.045 -.695a9.104 9.104 0 0 0 -1.001 -.63a2.376 2.376 0 0 0 -1.13 -.301c-.373 0 -.75 .097 -1.132 .3c-.316 .17 -.65 .38 -1 .63c-.322 .23 -.67 .462 -1.047 .695a5.78 5.78 0 0 1 -1.168 .548c-.413 .142 -.872 .21 -1.378 .21a3.706 3.706 0 0 1 -2.165 -.659c-.651 -.452 -1.162 -1.07 -1.537 -1.848c-.385 -.798 -.574 -1.7 -.574 -2.709c-.004 -.98 .15 -1.802 .477 -2.46a3.897 3.897 0 0 1 1.33 -1.531c.6 -.403 1.307 -.704 2.12 -.907a16.088 16.088 0 0 1 2.8 -.423c1.04 -.071 2.13 -.107 3.273 -.107z" />
</symbol>
	<symbol id="medical-cross-circle" class="icon icon-tabler icon-tabler-medical-cross-circle" viewBox="0 0 24 24" stroke-width="2" stroke="currentColor" fill="none" stroke-linecap="round" stroke-linejoin="round"><path stroke="none" d="M0 0h24v24H0z" fill="none"/><path d="M3 12a9 9 0 1 0 18 0a9 9 0 0 0 -18 0" /><path d="M12 8v8" /><path d="M15.5 10l-7 4" /><path d="M15.5 14l-7 -4" />
</symbol>
	<symbol id="michelin-bib-gourmand" class="icon icon-tabler icon-tabler-michelin-bib-gourmand" viewBox="0 0 24 24" stroke-width="2" stroke="currentColor" fill="none" stroke-linecap="round" stroke-linejoin="round"><path stroke="none" d="M0 0h24v24H0z" fill="none"/><path d="M4.97 20c-2.395 -1.947 -4.763 -5.245 -1.005 -8c-.52 -4 3.442 -7.5 5.524 -7.5c.347 -1 1.499 -1.5 2.54 -1.5c1.04 0 2.135 .5 2.482 1.5c2.082 0 6.044 3.5 5.524 7.5c3.758 2.755 1.39 6.053 -1.005 8" /><path d="M9 11m-1 0a1 2 0 1 0 2 0a1 2 0 1 0 -2 0" /><path d="M15 11m-1 0a1 2 0 1 0 2 0a1 2 0 1 0 -2 0" /><path d="M8 17.085c3.5 2.712 6.5 2.712 9 -1.085" /><path d="M13 18.5c.815 -2.337 1.881 -1.472 2 -.55" />
</symbol>
	<symbol id="michelin-star-green" class="icon icon-tabler icon-tabler-michelin-star-green" viewBox="0 0 24 24" stroke-width="2" stroke="currentColor" fill="none" stroke-linecap="round" stroke-linejoin="round"><path stroke="none" d="M0 0h24v24H0z" fill="none"/><path d="M12.432 17.949c.863 1.544 2.589 1.976 4.13 1.112c1.54 -.865 1.972 -2.594 1.048 -4.138c-.185 -.309 -.309 -.556 -.494 -.74c.247 .06 .555 .06 .925 .06c1.726 0 2.959 -1.234 2.959 -2.963c0 -1.73 -1.233 -2.965 -3.02 -2.965c-.37 0 -.617 0 -.925 .062c.185 -.185 .308 -.432 .493 -.74c.863 -1.545 .431 -3.274 -1.048 -4.138c-1.541 -.865 -3.205 -.433 -4.13 1.111c-.185 .309 -.308 .556 -.432 .803c-.123 -.247 -.246 -.494 -.431 -.803c-.802 -1.605 -2.528 -2.038 -4.007 -1.173c-1.541 .865 -1.973 2.594 -1.048 4.137c.185 .31 .308 .556 .493 .741c-.246 -.061 -.555 -.061 -.924 -.061c-1.788 0 -3.021 1.235 -3.021 2.964c0 1.729 1.233 2.964 3.02 2.964" /><path d="M4.073 21c4.286 -2.756 5.9 -5.254 7.927 -9" />
</symbol>
	<symbol id="michelin-star" class="icon icon-tabler icon-tabler-michelin-star" viewBox="0 0 24 24" stroke-width="2" stroke="currentColor" fill="none" stroke-linecap="round" stroke-linejoin="round"><path stroke="none" d="M0 0h24v24H0z" fill="none"/><path d="M14.792 17.063c0 .337 .057 .618 .057 .9c0 1.8 -1.238 3.037 -2.982 3.037c-1.8 0 -2.98 -1.238 -2.98 -3.206v-.731c-.957 .675 -1.576 .9 -2.42 .9c-1.518 0 -2.925 -1.463 -2.925 -3.094c0 -1.181 .844 -2.194 2.082 -2.756l.28 -.113c-1.574 -.787 -2.362 -1.688 -2.362 -2.925c0 -1.687 1.294 -3.094 2.925 -3.094c.675 0 1.52 .338 2.138 .788l.281 .112c0 -.337 -.056 -.619 -.056 -.844c0 -1.8 1.237 -3.037 2.98 -3.037c1.8 0 2.981 1.237 2.981 3.206v.394l-.056 .281c.956 -.675 1.575 -.9 2.419 -.9c1.519 0 2.925 1.463 2.925 3.094c0 1.181 -.844 2.194 -2.081 2.756l-.282 .169c1.575 .787 2.363 1.688 2.363 2.925c0 1.688 -1.294 3.094 -2.925 3.094c-.675 0 -1.575 -.281 -2.138 -.788l-.225 -.169z" />
</symbol>
	<symbol id="navigation-north" class="icon icon-tabler icon-tabler-navigation-north" viewBox="0 0 24 24" stroke-width="2" stroke="currentColor" fill="none" stroke-linecap="round" stroke-linejoin="round"><path stroke="none" d="M0 0h24v24H0z" fill="none"/><path d="M16.54 19.977a.34 .34 0 0 0 .357 -.07a.33 .33 0 0 0 .084 -.35l-4.981 -10.557l-4.982 10.557a.33 .33 0 0 0 .084 .35a.34 .34 0 0 0 .357 .07l4.541 -1.477l4.54 1.477z" /><path d="M12 3v2" />
</symbol>
	<symbol id="rectangle-rounded-bottom" class="icon icon-tabler icon-tabler-rectangle-rounded-bottom" viewBox="0 0 24 24" stroke-width="2" stroke="currentColor" fill="none" stroke-linecap="round" stroke-linejoin="round"><path stroke="none" d="M0 0h24v24H0z" fill="none"/><path d="M9 18h6a6 6 0 0 0 6 -6v-5a1 1 0 0 0 -1 -1h-16a1 1 0 0 0 -1 1v5a6 6 0 0 0 6 6z" />
</symbol>
	<symbol id="rectangle-rounded-top" class="icon icon-tabler icon-tabler-rectangle-rounded-top" viewBox="0 0 24 24" stroke-width="2" stroke="currentColor" fill="none" stroke-linecap="round" stroke-linejoin="round"><path stroke="none" d="M0 0h24v24H0z" fill="none"/><path d="M9 6h6a6 6 0 0 1 6 6v5a1 1 0 0 1 -1 1h-16a1 1 0 0 1 -1 -1v-5a6 6 0 0 1 6 -6z" />
</symbol>

	<use xlink:href="#arrow-bar-both" x="24" y="24" width="24" height="24" />
	<use xlink:href="#arrow-capsule" x="68" y="24" width="24" height="24" />
	<use xlink:href="#brand-microsoft-teams" x="112" y="24" width="24" height="24" />
	<use xlink:href="#brand-nodejs" x="156" y="24" width="24" height="24" />
	<use xlink:href="#brand-yandex" x="200" y="24" width="24" height="24" />
	<use xlink:href="#capsule-horizontal" x="244" y="24" width="24" height="24" />
	<use xlink:href="#capsule" x="24" y="68" width="24" height="24" />
	<use xlink:href="#chevron-left-pipe" x="68" y="68" width="24" height="24" />
	<use xlink:href="#chevron-right-pipe" x="112" y="68" width="24" height="24" />
	<use xlink:href="#device-airtag" x="156" y="68" width="24" height="24" />
	<use xlink:href="#device-vision-pro" x="200" y="68" width="24" height="24" />
	<use xlink:href="#medical-cross-circle" x="244" y="68" width="24" height="24" />
	<use xlink:href="#michelin-bib-gourmand" x="24" y="112" width="24" height="24" />
	<use xlink:href="#michelin-star-green" x="68" y="112" width="24" height="24" />
	<use xlink:href="#michelin-star" x="112" y="112" width="24" height="24" />
	<use xlink:href="#navigation-north" x="156" y="112" width="24" height="24" />
	<use xlink:href="#rectangle-rounded-bottom" x="200" y="112" width="24" height="24" />
	<use xlink:href="#rectangle-rounded-top" x="244" y="112" width="24" height="24" />

</svg>