<svg xmlns="http://www.w3.org/2000/svg" xmlns:xlink="http://www.w3.org/1999/xlink" viewBox="0 0 882 396" width="882" height="396" style="color: #354052"><rect x="0" y="0" width="882" height="396" fill="#f5f7fb"></rect>
	<symbol id="tabler-activity" class="icon tabler-icon tabler-icon-activity" viewBox="0 0 24 24" stroke-width="2" stroke="currentColor" fill="none" stroke-linecap="round" stroke-linejoin="round"><polyline points="21 12 17 12 14 20 10 4 7 12 3 12" />
</symbol>
	<symbol id="tabler-ajdustments" class="icon tabler-icon tabler-icon-ajdustments" viewBox="0 0 24 24" stroke-width="2" stroke="currentColor" fill="none" stroke-linecap="round" stroke-linejoin="round"><circle cx="6" cy="10" r="2" /><line x1="6" y1="4" x2="6" y2="8" /><line x1="6" y1="12" x2="6" y2="20" />
<circle cx="12" cy="16" r="2" /><line x1="12" y1="4" x2="12" y2="14" /><line x1="12" y1="18" x2="12" y2="20" />
<circle cx="18" cy="7" r="2" /><line x1="18" y1="4" x2="18" y2="5" /><line x1="18" y1="9" x2="18" y2="20" />
</symbol>
	<symbol id="tabler-alert-circle" class="icon tabler-icon tabler-icon-alert-circle" viewBox="0 0 24 24" stroke-width="2" stroke="currentColor" fill="none" stroke-linecap="round" stroke-linejoin="round"><circle cx="12" cy="12" r="9" /><line x1="12" y1="8" x2="12" y2="12" /><line x1="12" y1="16" x2="12.01" y2="16" />
</symbol>
	<symbol id="tabler-align-center" class="icon tabler-icon tabler-icon-align-center" viewBox="0 0 24 24" stroke-width="2" stroke="currentColor" fill="none" stroke-linecap="round" stroke-linejoin="round"><line x1="4" y1="6" x2="20" y2="6" /><line x1="8" y1="12" x2="16" y2="12" /><line x1="6" y1="18" x2="18" y2="18" />
</symbol>
	<symbol id="tabler-align-justified" class="icon tabler-icon tabler-icon-align-justified" viewBox="0 0 24 24" stroke-width="2" stroke="currentColor" fill="none" stroke-linecap="round" stroke-linejoin="round"><line x1="4" y1="6" x2="20" y2="6" /><line x1="4" y1="12" x2="20" y2="12" /><line x1="4" y1="18" x2="20" y2="18" />
</symbol>
	<symbol id="tabler-align-left" class="icon tabler-icon tabler-icon-align-left" viewBox="0 0 24 24" stroke-width="2" stroke="currentColor" fill="none" stroke-linecap="round" stroke-linejoin="round"><line x1="4" y1="6" x2="20" y2="6" /><line x1="4" y1="12" x2="14" y2="12" /><line x1="4" y1="18" x2="18" y2="18" />
</symbol>
	<symbol id="tabler-align-right" class="icon tabler-icon tabler-icon-align-right" viewBox="0 0 24 24" stroke-width="2" stroke="currentColor" fill="none" stroke-linecap="round" stroke-linejoin="round"><line x1="4" y1="6" x2="20" y2="6" /><line x1="10" y1="12" x2="20" y2="12" /><line x1="6" y1="18" x2="20" y2="18" />
</symbol>
	<symbol id="tabler-arrow-down-circle" class="icon tabler-icon tabler-icon-arrow-down-circle" viewBox="0 0 24 24" stroke-width="2" stroke="currentColor" fill="none" stroke-linecap="round" stroke-linejoin="round"><circle cx="12" cy="12" r="9" />
<line x1="8" y1="12" x2="12" y2="16" /><line x1="12" y1="8" x2="12" y2="16" /><line x1="16" y1="12" x2="12" y2="16" />
</symbol>
	<symbol id="tabler-arrow-down-left-circle" class="icon tabler-icon tabler-icon-arrow-down-left-circle" viewBox="0 0 24 24" stroke-width="2" stroke="currentColor" fill="none" stroke-linecap="round" stroke-linejoin="round"><circle cx="12" cy="12" r="9" />
<line x1="15" y1="9" x2="9" y2="15" /><polyline points="15 15 9 15 9 9" />
</symbol>
	<symbol id="tabler-arrow-down-left" class="icon tabler-icon tabler-icon-arrow-down-left" viewBox="0 0 24 24" stroke-width="2" stroke="currentColor" fill="none" stroke-linecap="round" stroke-linejoin="round"><line x1="17" y1="7" x2="7" y2="17" /><polyline points="16 17 7 17 7 8" />
</symbol>
	<symbol id="tabler-arrow-down-right-circle" class="icon tabler-icon tabler-icon-arrow-down-right-circle" viewBox="0 0 24 24" stroke-width="2" stroke="currentColor" fill="none" stroke-linecap="round" stroke-linejoin="round"><circle cx="12" cy="12" r="9" />
<line x1="15" y1="15" x2="9" y2="15" /><polyline points="15 9 15 15 9 9" />
</symbol>
	<symbol id="tabler-arrow-down-right" class="icon tabler-icon tabler-icon-arrow-down-right" viewBox="0 0 24 24" stroke-width="2" stroke="currentColor" fill="none" stroke-linecap="round" stroke-linejoin="round"><line x1="7" y1="7" x2="17" y2="17" /><polyline points="17 8 17 17 8 17" />
</symbol>
	<symbol id="tabler-arrow-down" class="icon tabler-icon tabler-icon-arrow-down" viewBox="0 0 24 24" stroke-width="2" stroke="currentColor" fill="none" stroke-linecap="round" stroke-linejoin="round"><line x1="12" y1="5" x2="12" y2="19" /><line x1="19" y1="12" x2="12" y2="19" /><line x1="5" y1="12" x2="12" y2="19" />
</symbol>
	<symbol id="tabler-arrow-left-circle" class="icon tabler-icon tabler-icon-arrow-left-circle" viewBox="0 0 24 24" stroke-width="2" stroke="currentColor" fill="none" stroke-linecap="round" stroke-linejoin="round"><circle cx="12" cy="12" r="9" />
<line x1="8" y1="12" x2="16" y2="12" /><line x1="8" y1="12" x2="12" y2="16" /><line x1="8" y1="12" x2="12" y2="8" />
</symbol>
	<symbol id="tabler-arrow-left" class="icon tabler-icon tabler-icon-arrow-left" viewBox="0 0 24 24" stroke-width="2" stroke="currentColor" fill="none" stroke-linecap="round" stroke-linejoin="round"><line x1="5" y1="12" x2="19" y2="12" /><line x1="5" y1="12" x2="12" y2="19" /><line x1="5" y1="12" x2="12" y2="5" />
</symbol>
	<symbol id="tabler-arrow-narrow-down" class="icon tabler-icon tabler-icon-arrow-narrow-down" viewBox="0 0 24 24" stroke-width="2" stroke="currentColor" fill="none" stroke-linecap="round" stroke-linejoin="round"><line x1="12" y1="5" x2="12" y2="19" /><line x1="16" y1="15" x2="12" y2="19" /><line x1="8" y1="15" x2="12" y2="19" />
</symbol>
	<symbol id="tabler-arrow-narrow-left" class="icon tabler-icon tabler-icon-arrow-narrow-left" viewBox="0 0 24 24" stroke-width="2" stroke="currentColor" fill="none" stroke-linecap="round" stroke-linejoin="round"><line x1="5" y1="12" x2="19" y2="12" /><line x1="5" y1="12" x2="9" y2="16" /><line x1="5" y1="12" x2="9" y2="8" />
</symbol>
	<symbol id="tabler-arrow-narrow-right" class="icon tabler-icon tabler-icon-arrow-narrow-right" viewBox="0 0 24 24" stroke-width="2" stroke="currentColor" fill="none" stroke-linecap="round" stroke-linejoin="round"><line x1="5" y1="12" x2="19" y2="12" /><line x1="15" y1="16" x2="19" y2="12" /><line x1="15" y1="8" x2="19" y2="12" />
</symbol>
	<symbol id="tabler-arrow-narrow-up" class="icon tabler-icon tabler-icon-arrow-narrow-up" viewBox="0 0 24 24" stroke-width="2" stroke="currentColor" fill="none" stroke-linecap="round" stroke-linejoin="round">
<line x1="12" y1="5" x2="12" y2="19" />
<line x1="16" y1="9" x2="12" y2="5" />
<line x1="8" y1="9" x2="12" y2="5" />
</symbol>
	<symbol id="tabler-arrow-right-circle" class="icon tabler-icon tabler-icon-arrow-right-circle" viewBox="0 0 24 24" stroke-width="2" stroke="currentColor" fill="none" stroke-linecap="round" stroke-linejoin="round"><circle cx="12" cy="12" r="9" />
<line x1="16" y1="12" x2="8" y2="12" /><line x1="16" y1="12" x2="12" y2="16" /><line x1="16" y1="12" x2="12" y2="8" />
</symbol>
	<symbol id="tabler-arrow-right" class="icon tabler-icon tabler-icon-arrow-right" viewBox="0 0 24 24" stroke-width="2" stroke="currentColor" fill="none" stroke-linecap="round" stroke-linejoin="round"><line x1="5" y1="12" x2="19" y2="12" /><line x1="12" y1="19" x2="19" y2="12" /><line x1="12" y1="5" x2="19" y2="12" />
</symbol>
	<symbol id="tabler-arrow-up-circle" class="icon tabler-icon tabler-icon-arrow-up-circle" viewBox="0 0 24 24" stroke-width="2" stroke="currentColor" fill="none" stroke-linecap="round" stroke-linejoin="round"><circle cx="12" cy="12" r="9" />
<line x1="12" y1="8" x2="8" y2="12" /><line x1="12" y1="8" x2="12" y2="16" /><line x1="16" y1="12" x2="12" y2="8" />
</symbol>
	<symbol id="tabler-arrow-up-left-circle" class="icon tabler-icon tabler-icon-arrow-up-left-circle" viewBox="0 0 24 24" stroke-width="2" stroke="currentColor" fill="none" stroke-linecap="round" stroke-linejoin="round"><circle cx="12" cy="12" r="9" />
<line x1="9" y1="9" x2="15" y2="15" /><polyline points="15 9 9 9 9 15" />
</symbol>
	<symbol id="tabler-arrow-up-left" class="icon tabler-icon tabler-icon-arrow-up-left" viewBox="0 0 24 24" stroke-width="2" stroke="currentColor" fill="none" stroke-linecap="round" stroke-linejoin="round"><line x1="7" y1="7" x2="17" y2="17" /><polyline points="16 7 7 7 7 16" />
</symbol>
	<symbol id="tabler-arrow-up-right-circle" class="icon tabler-icon tabler-icon-arrow-up-right-circle" viewBox="0 0 24 24" stroke-width="2" stroke="currentColor" fill="none" stroke-linecap="round" stroke-linejoin="round"><circle cx="12" cy="12" r="9" />
<line x1="15" y1="9" x2="9" y2="15" /><polyline points="15 15 15 9 9 9" />
</symbol>
	<symbol id="tabler-arrow-up-right" class="icon tabler-icon tabler-icon-arrow-up-right" viewBox="0 0 24 24" stroke-width="2" stroke="currentColor" fill="none" stroke-linecap="round" stroke-linejoin="round"><line x1="17" y1="7" x2="7" y2="17" /><polyline points="8 7 17 7 17 16" />
</symbol>
	<symbol id="tabler-arrow-up" class="icon tabler-icon tabler-icon-arrow-up" viewBox="0 0 24 24" stroke-width="2" stroke="currentColor" fill="none" stroke-linecap="round" stroke-linejoin="round"><line x1="12" y1="5" x2="12" y2="19" /><line x1="19" y1="12" x2="12" y2="5" /><line x1="5" y1="12" x2="12" y2="5" />
</symbol>
	<symbol id="tabler-battery-1" class="icon tabler-icon tabler-icon-battery-1" viewBox="0 0 24 24" stroke-width="2" stroke="currentColor" fill="none" stroke-linecap="round" stroke-linejoin="round"><rect x="4" y="7" width="15" height="10" rx="2"></rect><rect x="19" y="10" width="1" height="4" ></rect><polyline points="7 10 7 14"></polyline>
</symbol>
	<symbol id="tabler-battery-2" class="icon tabler-icon tabler-icon-battery-2" viewBox="0 0 24 24" stroke-width="2" stroke="currentColor" fill="none" stroke-linecap="round" stroke-linejoin="round"><rect x="4" y="7" width="15" height="10" rx="2"></rect><rect x="19" y="10" width="1" height="4" ></rect><polyline points="7 10 7 14"></polyline><polyline points="10 10 10 14"></polyline>
</symbol>
	<symbol id="tabler-battery-3" class="icon tabler-icon tabler-icon-battery-3" viewBox="0 0 24 24" stroke-width="2" stroke="currentColor" fill="none" stroke-linecap="round" stroke-linejoin="round"><rect x="4" y="7" width="15" height="10" rx="2"></rect><rect x="19" y="10" width="1" height="4" ></rect><polyline points="7 10 7 14"></polyline><polyline points="10 10 10 14"></polyline><polyline points="13 10 13 14"></polyline>
</symbol>
	<symbol id="tabler-battery-4" class="icon tabler-icon tabler-icon-battery-4" viewBox="0 0 24 24" stroke-width="2" stroke="currentColor" fill="none" stroke-linecap="round" stroke-linejoin="round"><rect x="4" y="7" width="15" height="10" rx="2"></rect><rect x="19" y="10" width="1" height="4" ></rect><polyline points="7 10 7 14"></polyline><polyline points="10 10 10 14"></polyline><polyline points="13 10 13 14"></polyline><polyline points="16 10 16 14"></polyline>
</symbol>
	<symbol id="tabler-battery-charging" class="icon tabler-icon tabler-icon-battery-charging" viewBox="0 0 24 24" stroke-width="2" stroke="currentColor" fill="none" stroke-linecap="round" stroke-linejoin="round"><path d="M7 7H6a2 2 0 00-2 2v6a2 2 0 002 2h2m7-10h2a2 2 0 012 2v6a2 2 0 01-2 2h-1" /><rect x="19" y="10" width="1" height="4" ></rect><polyline points="11 8 10 12 13 12 12 16"></polyline>
</symbol>
	<symbol id="tabler-battery-empty" class="icon tabler-icon tabler-icon-battery-empty" viewBox="0 0 24 24" stroke-width="2" stroke="currentColor" fill="none" stroke-linecap="round" stroke-linejoin="round"><rect x="4" y="7" width="15" height="10" rx="2"></rect><rect x="19" y="10" width="1" height="4" ></rect>
</symbol>
	<symbol id="tabler-border-all" class="icon tabler-icon tabler-icon-border-all" viewBox="0 0 24 24" stroke-width="2" stroke="currentColor" fill="none" stroke-linecap="round" stroke-linejoin="round"><rect x="4" y="4" width="16" height="16" rx="2" /><line x1="4" y1="12" x2="20" y2="12" /><line x1="12" y1="4" x2="12" y2="20" />
</symbol>
	<symbol id="tabler-border-bottom" class="icon tabler-icon tabler-icon-border-bottom" viewBox="0 0 24 24" stroke-width="2" stroke="currentColor" fill="none" stroke-linecap="round" stroke-linejoin="round"><line x1="20" y1="20" x2="4" y2="20" /><g stroke-dasharray=".001 4"><line x1="4" y1="4" x2="20" y2="4" /><line x1="20" y1="4" x2="20" y2="20" /><line x1="4" y1="20" x2="4" y2="4" /><line x1="4" y1="12" x2="20" y2="12" /><line x1="12" y1="4" x2="12" y2="20" /></g>
</symbol>
	<symbol id="tabler-border-horizontal" class="icon tabler-icon tabler-icon-border-horizontal" viewBox="0 0 24 24" stroke-width="2" stroke="currentColor" fill="none" stroke-linecap="round" stroke-linejoin="round"><line x1="4" y1="12" x2="20" y2="12" /><g stroke-dasharray=".001 4"><line x1="4" y1="4" x2="20" y2="4" /><line x1="4" y1="20" x2="4" y2="4" /><line x1="20" y1="20" x2="4" y2="20" /><line x1="20" y1="4" x2="20" y2="20" /><line x1="12" y1="4" x2="12" y2="20" /></g>
</symbol>
	<symbol id="tabler-border-inner" class="icon tabler-icon tabler-icon-border-inner" viewBox="0 0 24 24" stroke-width="2" stroke="currentColor" fill="none" stroke-linecap="round" stroke-linejoin="round"><line x1="4" y1="12" x2="20" y2="12" /><line x1="12" y1="4" x2="12" y2="20" /><g stroke-dasharray=".001 4"><line x1="4" y1="4" x2="20" y2="4" /><line x1="4" y1="20" x2="4" y2="4" /><line x1="20" y1="20" x2="4" y2="20" /><line x1="20" y1="4" x2="20" y2="20" /></g>
</symbol>
	<symbol id="tabler-border-left" class="icon tabler-icon tabler-icon-border-left" viewBox="0 0 24 24" stroke-width="2" stroke="currentColor" fill="none" stroke-linecap="round" stroke-linejoin="round"><line x1="4" y1="20" x2="4" y2="4" /><g stroke-dasharray=".001 4"><line x1="4" y1="4" x2="20" y2="4" /><line x1="20" y1="4" x2="20" y2="20" /><line x1="20" y1="20" x2="4" y2="20" /><line x1="4" y1="12" x2="20" y2="12" /><line x1="12" y1="4" x2="12" y2="20" /></g>
</symbol>
	<symbol id="tabler-border-none" class="icon tabler-icon tabler-icon-border-none" viewBox="0 0 24 24" stroke-width="2" stroke="currentColor" fill="none" stroke-linecap="round" stroke-linejoin="round"><g stroke-dasharray=".001 4"><line x1="4" y1="4" x2="20" y2="4" /><line x1="20" y1="4" x2="20" y2="20" /><line x1="20" y1="20" x2="4" y2="20" /><line x1="4" y1="20" x2="4" y2="4" /><line x1="4" y1="12" x2="20" y2="12" /><line x1="12" y1="4" x2="12" y2="20" /></g>
</symbol>
	<symbol id="tabler-border-outer" class="icon tabler-icon tabler-icon-border-outer" viewBox="0 0 24 24" stroke-width="2" stroke="currentColor" fill="none" stroke-linecap="round" stroke-linejoin="round"><rect x="4" y="4" width="16" height="16" rx="2" /><g stroke-dasharray=".001 4"><line x1="4" y1="12" x2="20" y2="12" /><line x1="12" y1="4" x2="12" y2="20" /></g>
</symbol>
	<symbol id="tabler-border-right" class="icon tabler-icon tabler-icon-border-right" viewBox="0 0 24 24" stroke-width="2" stroke="currentColor" fill="none" stroke-linecap="round" stroke-linejoin="round"><line x1="20" y1="4" x2="20" y2="20" /><g stroke-dasharray=".001 4"><line x1="4" y1="4" x2="20" y2="4" /><line x1="20" y1="20" x2="4" y2="20" /><line x1="4" y1="20" x2="4" y2="4" /><line x1="4" y1="12" x2="20" y2="12" /><line x1="12" y1="4" x2="12" y2="20" /></g>
</symbol>
	<symbol id="tabler-border-top" class="icon tabler-icon tabler-icon-border-top" viewBox="0 0 24 24" stroke-width="2" stroke="currentColor" fill="none" stroke-linecap="round" stroke-linejoin="round"><line x1="4" y1="4" x2="20" y2="4" /><g stroke-dasharray=".001 4"><line x1="20" y1="4" x2="20" y2="20" /><line x1="20" y1="20" x2="4" y2="20" /><line x1="4" y1="20" x2="4" y2="4" /><line x1="4" y1="12" x2="20" y2="12" /><line x1="12" y1="4" x2="12" y2="20" /></g>
</symbol>
	<symbol id="tabler-border-vertical" class="icon tabler-icon tabler-icon-border-vertical" viewBox="0 0 24 24" stroke-width="2" stroke="currentColor" fill="none" stroke-linecap="round" stroke-linejoin="round"><line x1="12" y1="4" x2="12" y2="20" /><g stroke-dasharray=".001 4"><line x1="4" y1="12" x2="20" y2="12" /><line x1="4" y1="4" x2="20" y2="4" /><line x1="4" y1="20" x2="4" y2="4" /><line x1="20" y1="20" x2="4" y2="20" /><line x1="20" y1="4" x2="20" y2="20" /></g>
</symbol>
	<symbol id="tabler-check" class="icon tabler-icon tabler-icon-check" viewBox="0 0 24 24" stroke-width="2" stroke="currentColor" fill="none" stroke-linecap="round" stroke-linejoin="round"><polyline points="20 7 10 17 5 12" />
</symbol>
	<symbol id="tabler-chevron-down" class="icon tabler-icon tabler-icon-chevron-down" viewBox="0 0 24 24" stroke-width="2" stroke="currentColor" fill="none" stroke-linecap="round" stroke-linejoin="round"><polyline points="6 9 12 15 18 9" />
</symbol>
	<symbol id="tabler-chevron-left" class="icon tabler-icon tabler-icon-chevron-left" viewBox="0 0 24 24" stroke-width="2" stroke="currentColor" fill="none" stroke-linecap="round" stroke-linejoin="round"><polyline points="15 6 9 12 15 18" />
</symbol>
	<symbol id="tabler-chevron-right" class="icon tabler-icon tabler-icon-chevron-right" viewBox="0 0 24 24" stroke-width="2" stroke="currentColor" fill="none" stroke-linecap="round" stroke-linejoin="round"><polyline points="9 6 15 12 9 18" />
</symbol>
	<symbol id="tabler-chevron-up" class="icon tabler-icon tabler-icon-chevron-up" viewBox="0 0 24 24" stroke-width="2" stroke="currentColor" fill="none" stroke-linecap="round" stroke-linejoin="round"><polyline points="6 15 12 9 18 15" />
</symbol>
	<symbol id="tabler-chevrons-down" class="icon tabler-icon tabler-icon-chevrons-down" viewBox="0 0 24 24" stroke-width="2" stroke="currentColor" fill="none" stroke-linecap="round" stroke-linejoin="round"><polyline points="7 7 12 12 17 7" /><polyline points="7 13 12 18 17 13" />
</symbol>
	<symbol id="tabler-chevrons-left" class="icon tabler-icon tabler-icon-chevrons-left" viewBox="0 0 24 24" stroke-width="2" stroke="currentColor" fill="none" stroke-linecap="round" stroke-linejoin="round"><polyline points="11 7 6 12 11 17" /><polyline points="17 7 12 12 17 17" />
</symbol>
	<symbol id="tabler-chevrons-right" class="icon tabler-icon tabler-icon-chevrons-right" viewBox="0 0 24 24" stroke-width="2" stroke="currentColor" fill="none" stroke-linecap="round" stroke-linejoin="round"><polyline points="7 7 12 12 7 17" /><polyline points="13 7 18 12 13 17" />
</symbol>
	<symbol id="tabler-chevrons-up" class="icon tabler-icon tabler-icon-chevrons-up" viewBox="0 0 24 24" stroke-width="2" stroke="currentColor" fill="none" stroke-linecap="round" stroke-linejoin="round"><polyline points="7 11 12 6 17 11" /><polyline points="7 17 12 12 17 17" />
</symbol>
	<symbol id="tabler-circle" class="icon tabler-icon tabler-icon-circle" viewBox="0 0 24 24" stroke-width="2" stroke="currentColor" fill="none" stroke-linecap="round" stroke-linejoin="round"><circle cx="12" cy="12" r="9" />
</symbol>
	<symbol id="tabler-clipboard" class="icon tabler-icon tabler-icon-clipboard" viewBox="0 0 24 24" stroke-width="2" stroke="currentColor" fill="none" stroke-linecap="round" stroke-linejoin="round"><path d="M9 5H7a2 2 0 00-2 2v12a2 2 0 002 2h10a2 2 0 002-2V7a2 2 0 00-2-2h-2" /><rect x="9" y="3" width="6" height="4" rx="2" />
</symbol>
	<symbol id="tabler-clock" class="icon tabler-icon tabler-icon-clock" viewBox="0 0 24 24" stroke-width="2" stroke="currentColor" fill="none" stroke-linecap="round" stroke-linejoin="round"><circle cx="12" cy="12" r="9" /><polyline points="12 7 12 12 9 15" />
</symbol>
	<symbol id="tabler-code" class="icon tabler-icon tabler-icon-code" viewBox="0 0 24 24" stroke-width="2" stroke="currentColor" fill="none" stroke-linecap="round" stroke-linejoin="round"><polyline points="7 8 3 12 7 16" /><polyline points="17 8 21 12 17 16" /><polyline points="14 4 10 20" />
</symbol>
	<symbol id="tabler-cog" class="icon tabler-icon tabler-icon-cog" viewBox="0 0 24 24" stroke-width="2" stroke="currentColor" fill="none" stroke-linecap="round" stroke-linejoin="round"><path d="M10.325 4.317c.426-1.756 2.924-1.756 3.35 0a1.724 1.724 0 002.573 1.066c1.543-.94 3.31.826 2.37 2.37a1.724 1.724 0 001.065 2.572c1.756.426 1.756 2.924 0 3.35a1.724 1.724 0 00-1.066 2.573c.94 1.543-.826 3.31-2.37 2.37a1.724 1.724 0 00-2.572 1.065c-.426 1.756-2.924 1.756-3.35 0a1.724 1.724 0 00-2.573-1.066c-1.543.94-3.31-.826-2.37-2.37a1.724 1.724 0 00-1.065-2.572c-1.756-.426-1.756-2.924 0-3.35a1.724 1.724 0 001.066-2.573c-.94-1.543.826-3.31 2.37-2.37.996.608 2.296.07 2.572-1.065z"/><circle cx="12" cy="12" r="3"></circle>
</symbol>
	<symbol id="tabler-device-desktop" class="icon tabler-icon tabler-icon-device-desktop" viewBox="0 0 24 24" stroke-width="2" stroke="currentColor" fill="none" stroke-linecap="round" stroke-linejoin="round"><rect x="3" y="4" width="18" height="12" rx="1"></rect><polyline points="7 20 17 20"></polyline><polyline points="9 16 9 20"></polyline><polyline points="15 16 15 20"></polyline>
</symbol>
	<symbol id="tabler-device-mobile" class="icon tabler-icon tabler-icon-device-mobile" viewBox="0 0 24 24" stroke-width="2" stroke="currentColor" fill="none" stroke-linecap="round" stroke-linejoin="round"><rect x="7" y="4" width="10" height="16" rx="1"></rect><polyline points="11 5 13 5"></polyline><polyline points="12 17 12 17.01"></polyline>
</symbol>
	<symbol id="tabler-device-tablet" class="icon tabler-icon tabler-icon-device-tablet" viewBox="0 0 24 24" stroke-width="2" stroke="currentColor" fill="none" stroke-linecap="round" stroke-linejoin="round"><rect x="5" y="3" width="14" height="18" rx="1"></rect><circle cx="12" cy="17" r="1" />
</symbol>
	<symbol id="tabler-download" class="icon tabler-icon tabler-icon-download" viewBox="0 0 24 24" stroke-width="2" stroke="currentColor" fill="none" stroke-linecap="round" stroke-linejoin="round"><path d="M4 17v2a2 2 0 002 2h12a2 2 0 002 -2v-2"></path><polyline points="7 11 12 16 17 11"></polyline><polyline points="12 4 12 16"></polyline>
</symbol>
	<symbol id="tabler-file-check" class="icon tabler-icon tabler-icon-file-check" viewBox="0 0 24 24" stroke-width="2" stroke="currentColor" fill="none" stroke-linecap="round" stroke-linejoin="round"><polyline points="14 3 14 8 19 8"/><path d="M17 21H7a2 2 0 01-2-2V5a2 2 0 012-2h7l5 5v11a2 2 0 01-2 2z"/><polyline points="9 15 11 17 15 13"/>
</symbol>
	<symbol id="tabler-file-download" class="icon tabler-icon tabler-icon-file-download" viewBox="0 0 24 24" stroke-width="2" stroke="currentColor" fill="none" stroke-linecap="round" stroke-linejoin="round"><polyline points="14 3 14 8 19 8"/><path d="M17 21H7a2 2 0 01-2-2V5a2 2 0 012-2h7l5 5v11a2 2 0 01-2 2z"/><line x1="12" y1="11" x2="12" y2="17" /><polyline points="9 14 12 17 15 14"/>
</symbol>
	<symbol id="tabler-file-minus" class="icon tabler-icon tabler-icon-file-minus" viewBox="0 0 24 24" stroke-width="2" stroke="currentColor" fill="none" stroke-linecap="round" stroke-linejoin="round"><polyline points="14 3 14 8 19 8"/><path d="M17 21H7a2 2 0 01-2-2V5a2 2 0 012-2h7l5 5v11a2 2 0 01-2 2z"/><line x1="9" y1="14" x2="15" y2="14" />
</symbol>
	<symbol id="tabler-file-plus" class="icon tabler-icon tabler-icon-file-plus" viewBox="0 0 24 24" stroke-width="2" stroke="currentColor" fill="none" stroke-linecap="round" stroke-linejoin="round"><polyline points="14 3 14 8 19 8"/><path d="M17 21H7a2 2 0 01-2-2V5a2 2 0 012-2h7l5 5v11a2 2 0 01-2 2z"/><line x1="12" y1="11" x2="12" y2="17" /><line x1="9" y1="14" x2="15" y2="14" />
</symbol>
	<symbol id="tabler-file-text" class="icon tabler-icon tabler-icon-file-text" viewBox="0 0 24 24" stroke-width="2" stroke="currentColor" fill="none" stroke-linecap="round" stroke-linejoin="round"><polyline points="14 3 14 8 19 8"/><path d="M17 21H7a2 2 0 01-2-2V5a2 2 0 012-2h7l5 5v11a2 2 0 01-2 2z"/><line x1="9" y1="9" x2="10" y2="9" /><line x1="9" y1="13" x2="15" y2="13" /><line x1="9" y1="17" x2="15" y2="17" />
</symbol>
	<symbol id="tabler-file-x" class="icon tabler-icon tabler-icon-file-x" viewBox="0 0 24 24" stroke-width="2" stroke="currentColor" fill="none" stroke-linecap="round" stroke-linejoin="round"><polyline points="14 3 14 8 19 8"/><path d="M17 21H7a2 2 0 01-2-2V5a2 2 0 012-2h7l5 5v11a2 2 0 01-2 2z"/><line x1="10" y1="12" x2="14" y2="16" /><line x1="10" y1="16" x2="14" y2="12" />
</symbol>
	<symbol id="tabler-file" class="icon tabler-icon tabler-icon-file" viewBox="0 0 24 24" stroke-width="2" stroke="currentColor" fill="none" stroke-linecap="round" stroke-linejoin="round"><polyline points="14 3 14 8 19 8"/><path d="M17 21H7a2 2 0 01-2-2V5a2 2 0 012-2h7l5 5v11a2 2 0 01-2 2z"/>
</symbol>
	<symbol id="tabler-grid" class="icon tabler-icon tabler-icon-grid" viewBox="0 0 24 24" stroke-width="2" stroke="currentColor" fill="none" stroke-linecap="round" stroke-linejoin="round"><rect x="4" y="4" width="6" height="6" rx="1" ry="1"/><rect x="14" y="4" width="6" height="6" rx="1" ry="1"/><rect x="4" y="14" width="6" height="6" rx="1" ry="1"/><rect x="14" y="14" width="6" height="6" rx="1" ry="1"/>
</symbol>
	<symbol id="tabler-heart" class="icon tabler-icon tabler-icon-heart" viewBox="0 0 24 24" stroke-width="2" stroke="currentColor" fill="none" stroke-linecap="round" stroke-linejoin="round"><path d="M4.318 6.318a4.5 4.5 0 000 6.364L12 20.364l7.682-7.682a4.5 4.5 0 00-6.364-6.364L12 7.636l-1.318-1.318a4.5 4.5 0 00-6.364 0z"></path>
</symbol>
	<symbol id="tabler-home" class="icon tabler-icon tabler-icon-home" viewBox="0 0 24 24" stroke-width="2" stroke="currentColor" fill="none" stroke-linecap="round" stroke-linejoin="round"><polyline points="5 12 3 12 12 3 21 12 19 12" /><path d="M5 12v7a2 2 0 002 2h10a2 2 0 002-2v-7" /><path d="M9 21v-6a2 2 0 012 -2h2a2 2 0 012 2v6" />
</symbol>
	<symbol id="tabler-layout" class="icon tabler-icon tabler-icon-layout" viewBox="0 0 24 24" stroke-width="2" stroke="currentColor" fill="none" stroke-linecap="round" stroke-linejoin="round"><rect x="3" y="3" width="8" height="6" rx="2"></rect><rect x="3" y="13" width="8" height="8" rx="2"></rect><rect x="15" y="3" width="6" height="18" rx="2"></rect>
</symbol>
	<symbol id="tabler-lock-open" class="icon tabler-icon tabler-icon-lock-open" viewBox="0 0 24 24" stroke-width="2" stroke="currentColor" fill="none" stroke-linecap="round" stroke-linejoin="round"><rect x="5" y="11" width="14" height="10" rx="2"></rect><polyline points="12 15 12 17"></polyline><path d="M8 11v-5a4 4 0 018 0"></path>
</symbol>
	<symbol id="tabler-lock" class="icon tabler-icon tabler-icon-lock" viewBox="0 0 24 24" stroke-width="2" stroke="currentColor" fill="none" stroke-linecap="round" stroke-linejoin="round"><rect x="5" y="11" width="14" height="10" rx="2"></rect><polyline points="12 15 12 17"></polyline><path d="M8 11v-4a4 4 0 018 0v4"></path>
</symbol>
	<symbol id="tabler-map-pin" class="icon tabler-icon tabler-icon-map-pin" viewBox="0 0 24 24" stroke-width="2" stroke="currentColor" fill="none" stroke-linecap="round" stroke-linejoin="round"><circle cx="12" cy="11" r="3"></circle><path d="M17.657 16.657L13.414 20.9a1.998 1.998 0 01-2.827 0l-4.244-4.243a8 8 0 1111.314 0z"></path>
</symbol>
	<symbol id="tabler-menu" class="icon tabler-icon tabler-icon-menu" viewBox="0 0 24 24" stroke-width="2" stroke="currentColor" fill="none" stroke-linecap="round" stroke-linejoin="round"><line x1="4" y1="8" x2="20" y2="8" /><line x1="4" y1="16" x2="20" y2="16" />
</symbol>
	<symbol id="tabler-minus-circle" class="icon tabler-icon tabler-icon-minus-circle" viewBox="0 0 24 24" stroke-width="2" stroke="currentColor" fill="none" stroke-linecap="round" stroke-linejoin="round"><circle cx="12" cy="12" r="9" /><line x1="8" y1="12" x2="16" y2="12" />
</symbol>
	<symbol id="tabler-minus-square" class="icon tabler-icon tabler-icon-minus-square" viewBox="0 0 24 24" stroke-width="2" stroke="currentColor" fill="none" stroke-linecap="round" stroke-linejoin="round"><rect x="4" y="4" width="16" height="16" rx="2" /><line x1="8" y1="12" x2="16" y2="12" />
</symbol>
	<symbol id="tabler-minus" class="icon tabler-icon tabler-icon-minus" viewBox="0 0 24 24" stroke-width="2" stroke="currentColor" fill="none" stroke-linecap="round" stroke-linejoin="round"><line x1="5" y1="12" x2="19" y2="12" />
</symbol>
	<symbol id="tabler-mood-confuzed" class="icon tabler-icon tabler-icon-mood-confuzed" viewBox="0 0 24 24" stroke-width="2" stroke="currentColor" fill="none" stroke-linecap="round" stroke-linejoin="round"><circle cx="12" cy="12" r="9" /><line x1="9" y1="9" x2="9.01" y2="9" /><line x1="15" y1="9" x2="15.01" y2="9" /><line x1="9" y1="15" x2="16" y2="13.5" />
</symbol>
	<symbol id="tabler-mood-happy" class="icon tabler-icon tabler-icon-mood-happy" viewBox="0 0 24 24" stroke-width="2" stroke="currentColor" fill="none" stroke-linecap="round" stroke-linejoin="round"><circle cx="12" cy="12" r="9" /><line x1="9" y1="9" x2="9.01" y2="9" /><line x1="15" y1="9" x2="15.01" y2="9" /><path d="M8 13a4 4 0 108 0m0 0H8" />
</symbol>
	<symbol id="tabler-mood-neutral" class="icon tabler-icon tabler-icon-mood-neutral" viewBox="0 0 24 24" stroke-width="2" stroke="currentColor" fill="none" stroke-linecap="round" stroke-linejoin="round"><circle cx="12" cy="12" r="9" /><line x1="9" y1="9" x2="9.01" y2="9" /><line x1="15" y1="9" x2="15.01" y2="9" /><line x1="9" y1="15" x2="15" y2="15" />
</symbol>
	<symbol id="tabler-mood-sad" class="icon tabler-icon tabler-icon-mood-sad" viewBox="0 0 24 24" stroke-width="2" stroke="currentColor" fill="none" stroke-linecap="round" stroke-linejoin="round"><circle cx="12" cy="12" r="9" /><line x1="9" y1="9" x2="9.01" y2="9" /><line x1="15" y1="9" x2="15.01" y2="9" /><path stroke-linecap="round" d="M9 9v.01M15 9v.01M14.828 15.328a3.987 3.987 0 00-2.82-1.171 3.988 3.988 0 00-2.836 1.171"/>
</symbol>
	<symbol id="tabler-mood-smile" class="icon tabler-icon tabler-icon-mood-smile" viewBox="0 0 24 24" stroke-width="2" stroke="currentColor" fill="none" stroke-linecap="round" stroke-linejoin="round"><circle cx="12" cy="12" r="9" /><line x1="9" y1="9" x2="9.01" y2="9" /><line x1="15" y1="9" x2="15.01" y2="9" /><path d="M9 9h.01M15 9h.01M9.172 14.828c.707.708 1.799 1.17 2.82 1.172a3.988 3.988 0 002.836-1.172"/>
</symbol>
	<symbol id="tabler-more-vertical" class="icon tabler-icon tabler-icon-more-vertical" viewBox="0 0 24 24" stroke-width="2" stroke="currentColor" fill="none" stroke-linecap="round" stroke-linejoin="round"><circle cx="12" cy="12" r=".75" /><circle cx="12" cy="19" r=".75" /><circle cx="12" cy="5" r=".75" />
</symbol>
	<symbol id="tabler-more" class="icon tabler-icon tabler-icon-more" viewBox="0 0 24 24" stroke-width="2" stroke="currentColor" fill="none" stroke-linecap="round" stroke-linejoin="round"><circle cx="5" cy="12" r=".75" /><circle cx="12" cy="12" r=".75" /><circle cx="19" cy="12" r=".75" />
</symbol>
	<symbol id="tabler-photo" class="icon tabler-icon tabler-icon-photo" viewBox="0 0 24 24" stroke-width="2" stroke="currentColor" fill="none" stroke-linecap="round" stroke-linejoin="round"><line x1="15" y1="8" x2="15.01" y2="8" /><rect x="4" y="4" width="16" height="16" rx="3" /><path d="M4 15l4 -4a3 5 0 013 0l 5 5"></path><path d="M14 14l1 -1a3 5 0 013 0l 2 2"></path>
</symbol>
	<symbol id="tabler-plus-circle" class="icon tabler-icon tabler-icon-plus-circle" viewBox="0 0 24 24" stroke-width="2" stroke="currentColor" fill="none" stroke-linecap="round" stroke-linejoin="round"><circle cx="12" cy="12" r="9" /><line x1="12" y1="8" x2="12" y2="16" /><line x1="8" y1="12" x2="16" y2="12" />
</symbol>
	<symbol id="tabler-plus-square" class="icon tabler-icon tabler-icon-plus-square" viewBox="0 0 24 24" stroke-width="2" stroke="currentColor" fill="none" stroke-linecap="round" stroke-linejoin="round"><rect x="4" y="4" width="16" height="16" rx="2" /><line x1="12" y1="8" x2="12" y2="16" /><line x1="8" y1="12" x2="16" y2="12" />
</symbol>
	<symbol id="tabler-plus" class="icon tabler-icon tabler-icon-plus" viewBox="0 0 24 24" stroke-width="2" stroke="currentColor" fill="none" stroke-linecap="round" stroke-linejoin="round"><line x1="12" y1="5" x2="12" y2="19" /><line x1="5" y1="12" x2="19" y2="12" />
</symbol>
	<symbol id="tabler-qrcode" class="icon tabler-icon tabler-icon-qrcode" viewBox="0 0 24 24" stroke-width="2" stroke="currentColor" fill="none" stroke-linecap="round" stroke-linejoin="round"><rect x="4" y="4" width="4" height="4" rx="1" ry="1"/><rect x="16" y="4" width="4" height="4" rx="1" ry="1"/><rect x="4" y="16" width="4" height="4" rx="1" ry="1"/><polyline points="12 4 12 5"/><polyline points="12 8 12 12 15 12"/><polyline points="4 12 5 12"/><polyline points="8 12 9 12"/><polyline points="18 12 20 12"/><polyline points="12 16 16 16"/><polyline points="19 16 20 16"/><polyline points="12 20 14 20"/><polyline points="17 20 20 20"/>
</symbol>
	<symbol id="tabler-search" class="icon tabler-icon tabler-icon-search" viewBox="0 0 24 24" stroke-width="2" stroke="currentColor" fill="none" stroke-linecap="round" stroke-linejoin="round"><circle cx="10" cy="10" r="7"></circle><line x1="21" y1="21" x2="15" y2="15"></line>
</symbol>
	<symbol id="tabler-square" class="icon tabler-icon tabler-icon-square" viewBox="0 0 24 24" stroke-width="2" stroke="currentColor" fill="none" stroke-linecap="round" stroke-linejoin="round"><rect x="4" y="4" width="16" height="16" rx="2" />
</symbol>
	<symbol id="tabler-star" class="icon tabler-icon tabler-icon-star" viewBox="0 0 24 24" stroke-width="2" stroke="currentColor" fill="none" stroke-linecap="round" stroke-linejoin="round"><path d="M12 17.75l-6.172 3.245 1.179-6.873-4.993-4.867 6.9-1.002L12 2l3.086 6.253 6.9 1.002-4.993 4.867 1.179 6.873z" />
</symbol>
	<symbol id="tabler-swich-horizontal" class="icon tabler-icon tabler-icon-swich-horizontal" viewBox="0 0 24 24" stroke-width="2" stroke="currentColor" fill="none" stroke-linecap="round" stroke-linejoin="round"><polyline points="16 3 20 7 16 11"/><polyline points="10 7 20 7"/><polyline points="8 13 4 17 8 21"/><polyline points="4 17 13 17"/>
</symbol>
	<symbol id="tabler-switch-vertical" class="icon tabler-icon tabler-icon-switch-vertical" viewBox="0 0 24 24" stroke-width="2" stroke="currentColor" fill="none" stroke-linecap="round" stroke-linejoin="round"><g><polyline points="3 8 7 4 11 8"/><polyline points="7 4 7 13"/><polyline points="13 16 17 20 21 16"/><polyline points="17 10 17 20"/></g>
</symbol>
	<symbol id="tabler-trending-down" class="icon tabler-icon tabler-icon-trending-down" viewBox="0 0 24 24" stroke-width="2" stroke="currentColor" fill="none" stroke-linecap="round" stroke-linejoin="round"><polyline points="3 7 9 13 13 9 21 17" /><polyline points="21 9 21 17 13 17" />
</symbol>
	<symbol id="tabler-trending-up" class="icon tabler-icon tabler-icon-trending-up" viewBox="0 0 24 24" stroke-width="2" stroke="currentColor" fill="none" stroke-linecap="round" stroke-linejoin="round"><polyline points="3 17 9 11 13 15 21 7" /><polyline points="13 7 21 7 21 15" />
</symbol>
	<symbol id="tabler-upload" class="icon tabler-icon tabler-icon-upload" viewBox="0 0 24 24" stroke-width="2" stroke="currentColor" fill="none" stroke-linecap="round" stroke-linejoin="round"><path d="M4 17v2a2 2 0 002 2h12a2 2 0 002 -2v-2"></path><polyline points="7 9 12 4 17 9"></polyline><polyline points="12 4 12 16"></polyline>
</symbol>
	<symbol id="tabler-user-check" class="icon tabler-icon tabler-icon-user-check" viewBox="0 0 24 24" stroke-width="2" stroke="currentColor" fill="none" stroke-linecap="round" stroke-linejoin="round"><circle cx="8.5" cy="7" r="4"></circle><path d="M2 21v-2a4 4 0 014-4h5a4 4 0 014 4v2" /><polyline points="16 11 18 13 22 9"/>
</symbol>
	<symbol id="tabler-user-minus" class="icon tabler-icon tabler-icon-user-minus" viewBox="0 0 24 24" stroke-width="2" stroke="currentColor" fill="none" stroke-linecap="round" stroke-linejoin="round"><circle cx="8.5" cy="7" r="4"></circle><path d="M2 21v-2a4 4 0 014-4h5a4 4 0 014 4v2" /><line x1="16" y1="11" x2="22" y2="11"></line>
</symbol>
	<symbol id="tabler-user-plus" class="icon tabler-icon tabler-icon-user-plus" viewBox="0 0 24 24" stroke-width="2" stroke="currentColor" fill="none" stroke-linecap="round" stroke-linejoin="round"><circle cx="8.5" cy="7" r="4"></circle><path d="M2 21v-2a4 4 0 014-4h5a4 4 0 014 4v2" /><line x1="16" y1="11" x2="22" y2="11"></line><line x1="19" y1="8" x2="19" y2="14"></line>
</symbol>
	<symbol id="tabler-user-x" class="icon tabler-icon tabler-icon-user-x" viewBox="0 0 24 24" stroke-width="2" stroke="currentColor" fill="none" stroke-linecap="round" stroke-linejoin="round"><circle cx="8.5" cy="7" r="4"></circle><path d="M2 21v-2a4 4 0 014-4h5a4 4 0 014 4v2" /><line x1="17" y1="9" x2="21" y2="13" /><line x1="17" y1="13" x2="21" y2="9" />
</symbol>
	<symbol id="tabler-user" class="icon tabler-icon tabler-icon-user" viewBox="0 0 24 24" stroke-width="2" stroke="currentColor" fill="none" stroke-linecap="round" stroke-linejoin="round"><circle cx="12" cy="7" r="4"></circle><path d="M5.5 21v-2a4 4 0 014-4h5a4 4 0 014 4v2" />
</symbol>
	<symbol id="tabler-viewfinder" class="icon tabler-icon tabler-icon-viewfinder" viewBox="0 0 24 24" stroke-width="2" stroke="currentColor" fill="none" stroke-linecap="round" stroke-linejoin="round"><circle cx="12" cy="12" r="9" /><polyline points="12 3 12 7"></polyline><polyline points="12 21 12 18"></polyline><polyline points="3 12 7 12"></polyline><polyline points="21 12 18 12"></polyline><polyline points="12 12 12 12.01"></polyline>
</symbol>
	<symbol id="tabler-x" class="icon tabler-icon tabler-icon-x" viewBox="0 0 24 24" stroke-width="2" stroke="currentColor" fill="none" stroke-linecap="round" stroke-linejoin="round"><line x1="18" y1="6" x2="6" y2="18" /><line x1="6" y1="6" x2="18" y2="18" />
</symbol>
	<symbol id="tabler-zoom-in" class="icon tabler-icon tabler-icon-zoom-in" viewBox="0 0 24 24" stroke-width="2" stroke="currentColor" fill="none" stroke-linecap="round" stroke-linejoin="round"><circle cx="10" cy="10" r="7"></circle><line x1="7" y1="10" x2="13" y2="10"></line><line x1="10" y1="7" x2="10" y2="13"></line><line x1="21" y1="21" x2="15" y2="15"></line>
</symbol>
	<symbol id="tabler-zoom-out" class="icon tabler-icon tabler-icon-zoom-out" viewBox="0 0 24 24" stroke-width="2" stroke="currentColor" fill="none" stroke-linecap="round" stroke-linejoin="round"><circle cx="10" cy="10" r="7"></circle><line x1="7" y1="10" x2="13" y2="10"></line><line x1="21" y1="21" x2="15" y2="15"></line>
</symbol>

	<use xlink:href="#tabler-activity" x="24" y="24" width="24" height="24" />
	<use xlink:href="#tabler-ajdustments" x="78" y="24" width="24" height="24" />
	<use xlink:href="#tabler-alert-circle" x="132" y="24" width="24" height="24" />
	<use xlink:href="#tabler-align-center" x="186" y="24" width="24" height="24" />
	<use xlink:href="#tabler-align-justified" x="240" y="24" width="24" height="24" />
	<use xlink:href="#tabler-align-left" x="294" y="24" width="24" height="24" />
	<use xlink:href="#tabler-align-right" x="348" y="24" width="24" height="24" />
	<use xlink:href="#tabler-arrow-down-circle" x="402" y="24" width="24" height="24" />
	<use xlink:href="#tabler-arrow-down-left-circle" x="456" y="24" width="24" height="24" />
	<use xlink:href="#tabler-arrow-down-left" x="510" y="24" width="24" height="24" />
	<use xlink:href="#tabler-arrow-down-right-circle" x="564" y="24" width="24" height="24" />
	<use xlink:href="#tabler-arrow-down-right" x="618" y="24" width="24" height="24" />
	<use xlink:href="#tabler-arrow-down" x="672" y="24" width="24" height="24" />
	<use xlink:href="#tabler-arrow-left-circle" x="726" y="24" width="24" height="24" />
	<use xlink:href="#tabler-arrow-left" x="780" y="24" width="24" height="24" />
	<use xlink:href="#tabler-arrow-narrow-down" x="834" y="24" width="24" height="24" />
	<use xlink:href="#tabler-arrow-narrow-left" x="24" y="78" width="24" height="24" />
	<use xlink:href="#tabler-arrow-narrow-right" x="78" y="78" width="24" height="24" />
	<use xlink:href="#tabler-arrow-narrow-up" x="132" y="78" width="24" height="24" />
	<use xlink:href="#tabler-arrow-right-circle" x="186" y="78" width="24" height="24" />
	<use xlink:href="#tabler-arrow-right" x="240" y="78" width="24" height="24" />
	<use xlink:href="#tabler-arrow-up-circle" x="294" y="78" width="24" height="24" />
	<use xlink:href="#tabler-arrow-up-left-circle" x="348" y="78" width="24" height="24" />
	<use xlink:href="#tabler-arrow-up-left" x="402" y="78" width="24" height="24" />
	<use xlink:href="#tabler-arrow-up-right-circle" x="456" y="78" width="24" height="24" />
	<use xlink:href="#tabler-arrow-up-right" x="510" y="78" width="24" height="24" />
	<use xlink:href="#tabler-arrow-up" x="564" y="78" width="24" height="24" />
	<use xlink:href="#tabler-battery-1" x="618" y="78" width="24" height="24" />
	<use xlink:href="#tabler-battery-2" x="672" y="78" width="24" height="24" />
	<use xlink:href="#tabler-battery-3" x="726" y="78" width="24" height="24" />
	<use xlink:href="#tabler-battery-4" x="780" y="78" width="24" height="24" />
	<use xlink:href="#tabler-battery-charging" x="834" y="78" width="24" height="24" />
	<use xlink:href="#tabler-battery-empty" x="24" y="132" width="24" height="24" />
	<use xlink:href="#tabler-border-all" x="78" y="132" width="24" height="24" />
	<use xlink:href="#tabler-border-bottom" x="132" y="132" width="24" height="24" />
	<use xlink:href="#tabler-border-horizontal" x="186" y="132" width="24" height="24" />
	<use xlink:href="#tabler-border-inner" x="240" y="132" width="24" height="24" />
	<use xlink:href="#tabler-border-left" x="294" y="132" width="24" height="24" />
	<use xlink:href="#tabler-border-none" x="348" y="132" width="24" height="24" />
	<use xlink:href="#tabler-border-outer" x="402" y="132" width="24" height="24" />
	<use xlink:href="#tabler-border-right" x="456" y="132" width="24" height="24" />
	<use xlink:href="#tabler-border-top" x="510" y="132" width="24" height="24" />
	<use xlink:href="#tabler-border-vertical" x="564" y="132" width="24" height="24" />
	<use xlink:href="#tabler-check" x="618" y="132" width="24" height="24" />
	<use xlink:href="#tabler-chevron-down" x="672" y="132" width="24" height="24" />
	<use xlink:href="#tabler-chevron-left" x="726" y="132" width="24" height="24" />
	<use xlink:href="#tabler-chevron-right" x="780" y="132" width="24" height="24" />
	<use xlink:href="#tabler-chevron-up" x="834" y="132" width="24" height="24" />
	<use xlink:href="#tabler-chevrons-down" x="24" y="186" width="24" height="24" />
	<use xlink:href="#tabler-chevrons-left" x="78" y="186" width="24" height="24" />
	<use xlink:href="#tabler-chevrons-right" x="132" y="186" width="24" height="24" />
	<use xlink:href="#tabler-chevrons-up" x="186" y="186" width="24" height="24" />
	<use xlink:href="#tabler-circle" x="240" y="186" width="24" height="24" />
	<use xlink:href="#tabler-clipboard" x="294" y="186" width="24" height="24" />
	<use xlink:href="#tabler-clock" x="348" y="186" width="24" height="24" />
	<use xlink:href="#tabler-code" x="402" y="186" width="24" height="24" />
	<use xlink:href="#tabler-cog" x="456" y="186" width="24" height="24" />
	<use xlink:href="#tabler-device-desktop" x="510" y="186" width="24" height="24" />
	<use xlink:href="#tabler-device-mobile" x="564" y="186" width="24" height="24" />
	<use xlink:href="#tabler-device-tablet" x="618" y="186" width="24" height="24" />
	<use xlink:href="#tabler-download" x="672" y="186" width="24" height="24" />
	<use xlink:href="#tabler-file-check" x="726" y="186" width="24" height="24" />
	<use xlink:href="#tabler-file-download" x="780" y="186" width="24" height="24" />
	<use xlink:href="#tabler-file-minus" x="834" y="186" width="24" height="24" />
	<use xlink:href="#tabler-file-plus" x="24" y="240" width="24" height="24" />
	<use xlink:href="#tabler-file-text" x="78" y="240" width="24" height="24" />
	<use xlink:href="#tabler-file-x" x="132" y="240" width="24" height="24" />
	<use xlink:href="#tabler-file" x="186" y="240" width="24" height="24" />
	<use xlink:href="#tabler-grid" x="240" y="240" width="24" height="24" />
	<use xlink:href="#tabler-heart" x="294" y="240" width="24" height="24" />
	<use xlink:href="#tabler-home" x="348" y="240" width="24" height="24" />
	<use xlink:href="#tabler-layout" x="402" y="240" width="24" height="24" />
	<use xlink:href="#tabler-lock-open" x="456" y="240" width="24" height="24" />
	<use xlink:href="#tabler-lock" x="510" y="240" width="24" height="24" />
	<use xlink:href="#tabler-map-pin" x="564" y="240" width="24" height="24" />
	<use xlink:href="#tabler-menu" x="618" y="240" width="24" height="24" />
	<use xlink:href="#tabler-minus-circle" x="672" y="240" width="24" height="24" />
	<use xlink:href="#tabler-minus-square" x="726" y="240" width="24" height="24" />
	<use xlink:href="#tabler-minus" x="780" y="240" width="24" height="24" />
	<use xlink:href="#tabler-mood-confuzed" x="834" y="240" width="24" height="24" />
	<use xlink:href="#tabler-mood-happy" x="24" y="294" width="24" height="24" />
	<use xlink:href="#tabler-mood-neutral" x="78" y="294" width="24" height="24" />
	<use xlink:href="#tabler-mood-sad" x="132" y="294" width="24" height="24" />
	<use xlink:href="#tabler-mood-smile" x="186" y="294" width="24" height="24" />
	<use xlink:href="#tabler-more-vertical" x="240" y="294" width="24" height="24" />
	<use xlink:href="#tabler-more" x="294" y="294" width="24" height="24" />
	<use xlink:href="#tabler-photo" x="348" y="294" width="24" height="24" />
	<use xlink:href="#tabler-plus-circle" x="402" y="294" width="24" height="24" />
	<use xlink:href="#tabler-plus-square" x="456" y="294" width="24" height="24" />
	<use xlink:href="#tabler-plus" x="510" y="294" width="24" height="24" />
	<use xlink:href="#tabler-qrcode" x="564" y="294" width="24" height="24" />
	<use xlink:href="#tabler-search" x="618" y="294" width="24" height="24" />
	<use xlink:href="#tabler-square" x="672" y="294" width="24" height="24" />
	<use xlink:href="#tabler-star" x="726" y="294" width="24" height="24" />
	<use xlink:href="#tabler-swich-horizontal" x="780" y="294" width="24" height="24" />
	<use xlink:href="#tabler-switch-vertical" x="834" y="294" width="24" height="24" />
	<use xlink:href="#tabler-trending-down" x="24" y="348" width="24" height="24" />
	<use xlink:href="#tabler-trending-up" x="78" y="348" width="24" height="24" />
	<use xlink:href="#tabler-upload" x="132" y="348" width="24" height="24" />
	<use xlink:href="#tabler-user-check" x="186" y="348" width="24" height="24" />
	<use xlink:href="#tabler-user-minus" x="240" y="348" width="24" height="24" />
	<use xlink:href="#tabler-user-plus" x="294" y="348" width="24" height="24" />
	<use xlink:href="#tabler-user-x" x="348" y="348" width="24" height="24" />
	<use xlink:href="#tabler-user" x="402" y="348" width="24" height="24" />
	<use xlink:href="#tabler-viewfinder" x="456" y="348" width="24" height="24" />
	<use xlink:href="#tabler-x" x="510" y="348" width="24" height="24" />
	<use xlink:href="#tabler-zoom-in" x="564" y="348" width="24" height="24" />
	<use xlink:href="#tabler-zoom-out" x="618" y="348" width="24" height="24" />

</svg>