<svg xmlns="http://www.w3.org/2000/svg" xmlns:xlink="http://www.w3.org/1999/xlink" viewBox="0 0 832 192" width="832" height="192" style="color: #354052"><rect x="0" y="0" width="832" height="192" fill="#fafbfc"></rect>
	<symbol id="icon-.5" class="icon tabler-icon tabler-icon-disabled" viewBox="0 0 24 24" stroke-width=".5" stroke="currentColor" fill="none" stroke-linecap="round" stroke-linejoin="round"><circle cx="11" cy="5" r="2" /><polyline points="11 7 11 15 15 15 19 20" /><line x1="11" y1="11" x2="16" y2="11" /><path d="M7 11.5a5 5 0 106 7.5" />
</symbol>
	<symbol id="icon-1" class="icon tabler-icon tabler-icon-disabled" viewBox="0 0 24 24" stroke-width="1" stroke="currentColor" fill="none" stroke-linecap="round" stroke-linejoin="round"><circle cx="11" cy="5" r="2" /><polyline points="11 7 11 15 15 15 19 20" /><line x1="11" y1="11" x2="16" y2="11" /><path d="M7 11.5a5 5 0 106 7.5" />
</symbol>
	<symbol id="icon-1.5" class="icon tabler-icon tabler-icon-disabled" viewBox="0 0 24 24" stroke-width="1.5" stroke="currentColor" fill="none" stroke-linecap="round" stroke-linejoin="round"><circle cx="11" cy="5" r="2" /><polyline points="11 7 11 15 15 15 19 20" /><line x1="11" y1="11" x2="16" y2="11" /><path d="M7 11.5a5 5 0 106 7.5" />
</symbol>
	<symbol id="icon-2" class="icon tabler-icon tabler-icon-disabled" viewBox="0 0 24 24" stroke-width="2" stroke="currentColor" fill="none" stroke-linecap="round" stroke-linejoin="round"><circle cx="11" cy="5" r="2" /><polyline points="11 7 11 15 15 15 19 20" /><line x1="11" y1="11" x2="16" y2="11" /><path d="M7 11.5a5 5 0 106 7.5" />
</symbol>
	<symbol id="icon-2.75" class="icon tabler-icon tabler-icon-disabled" viewBox="0 0 24 24" stroke-width="2.75" stroke="currentColor" fill="none" stroke-linecap="round" stroke-linejoin="round"><circle cx="11" cy="5" r="2" /><polyline points="11 7 11 15 15 15 19 20" /><line x1="11" y1="11" x2="16" y2="11" /><path d="M7 11.5a5 5 0 106 7.5" />
</symbol>

	<use xlink:href="#icon-.5" x="32" y="32" width="128" height="128" />
	<use xlink:href="#icon-1" x="192" y="32" width="128" height="128" />
	<use xlink:href="#icon-1.5" x="352" y="32" width="128" height="128" />
	<use xlink:href="#icon-2" x="512" y="32" width="128" height="128" />
	<use xlink:href="#icon-2.75" x="672" y="32" width="128" height="128" />

</svg>