<!--
tags: [equalizer, sliders, controls, settings, filter]
category: Filled
version: "2.3"
unicode: "f6ec"
-->
<svg
  xmlns="http://www.w3.org/2000/svg"
  width="24"
  height="24"
  viewBox="0 0 24 24"
  fill="currentColor"
>
  <path d="M6 3a1 1 0 0 1 .993 .883l.007 .117v3.171a3.001 3.001 0 0 1 0 5.658v7.171a1 1 0 0 1 -1.993 .117l-.007 -.117v-7.17a3.002 3.002 0 0 1 -1.995 -2.654l-.005 -.176l.005 -.176a3.002 3.002 0 0 1 1.995 -2.654v-3.17a1 1 0 0 1 1 -1z" />
  <path d="M12 3a1 1 0 0 1 .993 .883l.007 .117v9.171a3.001 3.001 0 0 1 0 5.658v1.171a1 1 0 0 1 -1.993 .117l-.007 -.117v-1.17a3.002 3.002 0 0 1 -1.995 -2.654l-.005 -.176l.005 -.176a3.002 3.002 0 0 1 1.995 -2.654v-9.17a1 1 0 0 1 1 -1z" />
  <path d="M18 3a1 1 0 0 1 .993 .883l.007 .117v.171a3.001 3.001 0 0 1 0 5.658v10.171a1 1 0 0 1 -1.993 .117l-.007 -.117v-10.17a3.002 3.002 0 0 1 -1.995 -2.654l-.005 -.176l.005 -.176a3.002 3.002 0 0 1 1.995 -2.654v-.17a1 1 0 0 1 1 -1z" />
</svg>
