<!--
version: "2.4"
unicode: "f70c"
-->
<svg
  xmlns="http://www.w3.org/2000/svg"
  width="24"
  height="24"
  viewBox="0 0 24 24"
  fill="currentColor"
>
  <path d="M16 6.072a8 8 0 1 1 -11.995 7.213l-.005 -.285l.005 -.285a8 8 0 0 1 11.995 -6.643zm-2 3.928h-4l-.117 .007a1 1 0 0 0 -.883 .993l.007 .117a1 1 0 0 0 .993 .883h1.584l-2.291 2.293l-.076 .084c-.514 .637 -.07 1.623 .783 1.623h4l.117 -.007a1 1 0 0 0 .883 -.993l-.007 -.117a1 1 0 0 0 -.993 -.883h-1.586l2.293 -2.293l.076 -.084c.514 -.637 .07 -1.623 -.783 -1.623z" />
  <path d="M6.412 3.191a1 1 0 0 1 1.273 1.539l-.097 .08l-2.75 2a1 1 0 0 1 -1.273 -1.54l.097 -.08l2.75 -2z" />
  <path d="M16.191 3.412a1 1 0 0 1 1.291 -.288l.106 .067l2.75 2a1 1 0 0 1 -1.07 1.685l-.106 -.067l-2.75 -2a1 1 0 0 1 -.22 -1.397z" />
</svg>
