<!--
version: "2.15"
unicode: "fa36"
-->
<svg
  xmlns="http://www.w3.org/2000/svg"
  width="24"
  height="24"
  viewBox="0 0 24 24"
  fill="currentColor"
>
  <path d="M12 2l.642 .005l.616 .017l.299 .013l.579 .034l.553 .046c4.687 .455 6.65 2.333 7.166 6.906l.03 .29l.046 .553l.041 .727l.006 .15l.017 .617l.005 .642l-.005 .642l-.017 .616l-.013 .299l-.034 .579l-.046 .553c-.455 4.687 -2.333 6.65 -6.906 7.166l-.29 .03l-.553 .046l-.727 .041l-.15 .006l-.617 .017l-.642 .005l-.642 -.005l-.616 -.017l-.299 -.013l-.579 -.034l-.553 -.046c-4.687 -.455 -6.65 -2.333 -7.166 -6.906l-.03 -.29l-.046 -.553l-.041 -.727l-.006 -.15l-.017 -.617l-.004 -.318v-.648l.004 -.318l.017 -.616l.013 -.299l.034 -.579l.046 -.553c.455 -4.687 2.333 -6.65 6.906 -7.166l.29 -.03l.553 -.046l.727 -.041l.15 -.006l.617 -.017c.21 -.003 .424 -.005 .642 -.005zm.01 13l-.127 .007a1 1 0 0 0 0 1.986l.117 .007l.127 -.007a1 1 0 0 0 0 -1.986l-.117 -.007zm-.01 -8a1 1 0 0 0 -.993 .883l-.007 .117v4l.007 .117a1 1 0 0 0 1.986 0l.007 -.117v-4l-.007 -.117a1 1 0 0 0 -.993 -.883z" />
</svg>
