<!--
unicode: "1010f"
version: "3.28"
-->
<svg
  xmlns="http://www.w3.org/2000/svg"
  width="24"
  height="24"
  viewBox="0 0 24 24"
  fill="currentColor"
>
  <path d="M14 21a1 1 0 0 0 1 -1v-11.001h-.092a3 3 0 0 1 -2.03 -5.12a.515 .515 0 0 0 -.363 -.879h-6.515a3 3 0 0 0 -3 3v12a3 3 0 0 0 3 3z" />
  <path d="M18 21a1 1 0 0 0 1 -1v-14.584l1.293 1.291a1 1 0 0 0 1.32 .083l.094 -.083a1 1 0 0 0 0 -1.414l-3 -3a1 1 0 0 0 -.112 -.097l-.11 -.071l-.114 -.054l-.105 -.035l-.149 -.03l-.117 -.006l-.075 .003l-.126 .017l-.111 .03l-.111 .044l-.098 .052l-.096 .067l-.09 .08l-3 3a1 1 0 1 0 1.414 1.414l1.293 -1.293v14.586a1 1 0 0 0 1 1" />
</svg>
