<!--
unicode: "1002f"
version: "3.16"
-->
<svg
  xmlns="http://www.w3.org/2000/svg"
  width="24"
  height="24"
  viewBox="0 0 24 24"
  fill="currentColor"
>
  <path d="M18.707 8.293l3 3l.097 .112l.071 .11l.031 .062l.034 .081l.024 .076l.03 .148l.006 .118l-.004 .085l-.016 .116l-.03 .111l-.044 .111l-.052 .098l-.074 .104l-.073 .082l-3 3a1 1 0 0 1 -1.414 -1.414l1.292 -1.293h-10.171l-2.207 2.207a1 1 0 0 1 -1.414 0l-2.5 -2.5a1 1 0 0 1 0 -1.414l2.5 -2.5a1 1 0 0 1 1.414 0l2.208 2.207h10.17l-1.292 -1.293a1 1 0 0 1 -.083 -1.32l.083 -.094a1 1 0 0 1 1.414 0" />
</svg>
