<!--
unicode: "1002b"
version: "3.16"
-->
<svg
  xmlns="http://www.w3.org/2000/svg"
  width="24"
  height="24"
  viewBox="0 0 24 24"
  fill="currentColor"
>
  <path d="M11.852 2.011l.058 -.007l.09 -.004l.075 .003l.126 .017l.111 .03l.111 .044l.098 .052l.104 .074l.082 .073l3 3a1 1 0 1 1 -1.414 1.414l-1.293 -1.292v10.585h1a1 1 0 0 1 1 1v4a1 1 0 0 1 -1 1h-4a1 1 0 0 1 -1 -1v-4a1 1 0 0 1 1 -1h1v-10.585l-1.293 1.292a1 1 0 0 1 -1.32 .083l-.094 -.083a1 1 0 0 1 0 -1.414l3 -3q .053 -.054 .112 -.097l.11 -.071l.114 -.054l.105 -.035z" />
</svg>
