<!--
-->
<svg
  xmlns="http://www.w3.org/2000/svg"
  width="24"
  height="24"
  viewBox="0 0 24 24"
  fill="currentColor"
>
  <path d="M14 2a1 1 0 0 1 1 .999l1.802 .001a2 2 0 0 1 1.968 2.358l-1.679 9.231a4 4 0 0 1 1.909 3.411v2a2 2 0 0 1 -2 2h-8a2 2 0 0 1 -2 -2v-2c0 -1.443 .764 -2.707 1.909 -3.41l-.653 -3.591l-2.256 .001a2 2 0 0 1 -2 -2v-4a2 2 0 0 1 2 -2l5 -.001l.007 -.116a1 1 0 0 1 .993 -.883zm-1 15a1 1 0 0 0 -.993 .883l-.007 .127a1 1 0 0 0 1.993 .117l.007 -.127a1 1 0 0 0 -1 -1m2.165 -2.997l1.637 -9.003l-7.605 -.001l1.637 9.004l.083 -.002l4.083 -.001zm-8 -9.004l-1.165 .001v4l1.893 -.001z" />
</svg>
