<!--
category: Filled
version: "2.45"
unicode: "fd74"
-->
<svg
  xmlns="http://www.w3.org/2000/svg"
  width="24"
  height="24"
  viewBox="0 0 24 24"
  fill="currentColor"
>
  <path d="M15.079 5.999l.239 .012c1.43 .097 3.434 1.013 4.508 2.586a1 1 0 0 1 -.344 1.44c-.05 .028 -.372 .158 -.497 .217a4.15 4.15 0 0 0 -.722 .431c-.614 .461 -.948 1.009 -.942 1.694c.01 .885 .339 1.454 .907 1.846c.208 .143 .436 .253 .666 .33c.126 .043 .426 .116 .444 .122a1 1 0 0 1 .662 .942c0 2.621 -3.04 6.381 -5.286 6.381c-.79 0 -1.272 -.091 -1.983 -.315l-.098 -.031c-.463 -.146 -.702 -.192 -1.133 -.192c-.52 0 -.863 .06 -1.518 .237l-.197 .053c-.575 .153 -.964 .226 -1.5 .248c-2.749 0 -5.285 -5.093 -5.285 -9.072c0 -3.87 1.786 -6.92 5.286 -6.92c.297 0 .598 .045 .909 .128c.403 .107 .774 .26 1.296 .508c.787 .374 .948 .44 1.009 .44h.016c.03 -.003 .128 -.047 1.056 -.457c1.061 -.467 1.864 -.685 2.746 -.616l-.24 -.012z" />
  <path d="M14 1a1 1 0 0 1 1 1a3 3 0 0 1 -3 3a1 1 0 0 1 -1 -1a3 3 0 0 1 3 -3z" />
</svg>
