<!--
tags: [logo, website, corporation, work, business, internet]
category: Brand
version: "1.0"
unicode: "ec8c"
-->
<svg
  xmlns="http://www.w3.org/2000/svg"
  width="24"
  height="24"
  viewBox="0 0 24 24"
  fill="currentColor"
>
  <path d="M 6,3 C 4.355,3 3,4.355 3,6 v 12 c 0,1.644998 1.355,3 3,3 h 12 c 1.644998,0 3,-1.355002 3,-3 V 6 C 21,4.355 19.644998,3 18,3 Z m 2,4 a 1,1 0 0 1 1,1 v 0.00977 a 1,1 0 0 1 -1,1 1,1 0 0 1 -1,-1 V 8 A 1,1 0 0 1 8,7 Z m 0,3 a 1,1 0 0 1 1,1 v 5 A 1,1 0 0 1 8,17 1,1 0 0 1 7,16 v -5 a 1,1 0 0 1 1,-1 z m 4,0 a 1,1 0 0 1 0.689453,0.279297 C 13.105461,10.089766 13.554893,10 14,10 c 0.72222,0 1.457882,0.235349 2.039062,0.751953 C 16.620244,11.268559 17,12.083335 17,13 v 3 a 1,1 0 0 1 -1,1 1,1 0 0 1 -1,-1 V 13 C 15,12.583334 14.879754,12.398107 14.710938,12.248047 14.54212,12.09799 14.277778,12 14,12 13.722222,12 13.457879,12.097987 13.289062,12.248047 13.120245,12.398107 13,12.583334 13,13 v 3 a 1,1 0 0 1 -1,1 1,1 0 0 1 -1,-1 v -3 -2 a 1,1 0 0 1 1,-1 z" />
</svg>
