<!--
version: "2.10"
unicode: "f7e4"
-->
<svg
  xmlns="http://www.w3.org/2000/svg"
  width="24"
  height="24"
  viewBox="0 0 24 24"
  fill="currentColor"
>
  <path d="M20.98 4.406a18.868 18.868 0 00-4.736-1.57.084.084 0 00-.089.042c-.206.381-.438.882-.602 1.276a19.753 19.753 0 00-5.958 0c-.166-.396-.403-.895-.609-1.276a.084.084 0 00-.089-.042c-1.62.369-3.184.945-4.736 1.57a.077.077 0 00-.037.028C.747 9.026-.372 13.495.167 17.898a.078.078 0 00.031.054 19.179 19.179 0 005.906 2.982.084.084 0 00.09-.03c.465-.636.879-1.314 1.23-2.02a.081.081 0 00-.041-.105 12.745 12.745 0 01-1.83-.878.084.084 0 01-.008-.143c.123-.091.246-.187.361-.287a.084.084 0 01.086-.01c3.82 1.733 7.947 1.733 11.72 0a.084.084 0 01.087.01c.116.1.238.196.362.287a.084.084 0 01-.007.143c-.583.35-1.188.646-1.83.878a.081.081 0 00-.041.105c.366.707.779 1.384 1.23 2.02a.084.084 0 00.09.03 19.173 19.173 0 005.905-2.982.078.078 0 00.031-.054c.576-4.244-.916-8.688-4.61-11.464a.077.077 0 00-.037-.028zM9.47 14.546c-.99 0-1.8-.918-1.8-2.051s.805-2.051 1.8-2.051c.996 0 1.8.918 1.8 2.051 0 1.127-.805 2.051-1.8 2.051zm5.062 0c-.991 0-1.8-.918-1.8-2.051s.805-2.051 1.8-2.051c.996 0 1.8.918 1.8 2.051 0 1.127-.805 2.051-1.8 2.051z"/>
</svg>
