<!--
-->
<svg
  xmlns="http://www.w3.org/2000/svg"
  width="24"
  height="24"
  viewBox="0 0 24 24"
  fill="currentColor"
>
  <path d="M2.482 21.753l0.969 -0.225c0.538,-0.125 1.075,0.209 1.2,0.746 0.124,0.537 -0.21,1.075 -0.747,1.2l-0.969 0.225c-0.166,0.039 -0.334,0.059 -0.498,0.059 -0.172,-0.004 -0.339,-0.023 -0.494,-0.058 -0.593,-0.138 -1.073,-0.502 -1.369,-0.979 -0.297,-0.476 -0.411,-1.067 -0.274,-1.656l0.226 -0.969c0.125,-0.537 0.662,-0.871 1.199,-0.747 0.537,0.125 0.872,0.662 0.747,1.2l-0.227 0.965c-0.012,0.057 -0.001,0.11 0.025,0.153 0.026,0.042 0.069,0.075 0.122,0.087l0.041 0.007 0.049 -0.008zm4.176 1.079c-0.537,0.125 -1.074,-0.209 -1.199,-0.746 -0.125,-0.537 0.21,-1.075 0.747,-1.2l0.472 -0.11 0.687 0.09c0.194,0.101 0.419,0.208 0.67,0.316 0.258,0.11 0.49,0.202 0.694,0.272 0.52,0.179 0.796,0.746 0.617,1.266 -0.179,0.52 -0.746,0.796 -1.266,0.617 -0.311,-0.108 -0.59,-0.215 -0.834,-0.319 -0.147,-0.063 -0.302,-0.135 -0.465,-0.215l-0.123 0.029zm4.627 1.144c-0.55,-0.032 -0.97,-0.505 -0.937,-1.055 0.032,-0.55 0.505,-0.97 1.054,-0.937l0.295 0.014 0.605 0 0.296 -0.015c0.55,-0.032 1.023,0.388 1.055,0.938 0.032,0.55 -0.388,1.023 -0.938,1.055l-0.715 0.024 -0.715 -0.024zm4.636 -0.637c-0.52,0.179 -1.087,-0.098 -1.266,-0.617 -0.179,-0.52 0.097,-1.087 0.617,-1.266 0.177,-0.061 0.364,-0.133 0.558,-0.213 0.172,-0.073 0.355,-0.156 0.545,-0.248 0.496,-0.242 1.095,-0.036 1.336,0.46 0.242,0.496 0.035,1.095 -0.46,1.336 -0.203,0.099 -0.423,0.198 -0.655,0.294 -0.213,0.087 -0.438,0.172 -0.675,0.254zm4.036 -2.363c-0.412,0.364 -1.042,0.326 -1.406,-0.086 -0.364,-0.412 -0.326,-1.042 0.086,-1.406 0.142,-0.126 0.288,-0.264 0.434,-0.411l0.005 -0.004c0.146,-0.146 0.282,-0.291 0.408,-0.433 0.365,-0.411 0.995,-0.45 1.407,-0.085 0.412,0.364 0.45,0.994 0.085,1.406 -0.164,0.186 -0.329,0.361 -0.492,0.524 -0.164,0.164 -0.34,0.33 -0.527,0.495zm2.835 -3.726c-0.242,0.496 -0.841,0.702 -1.336,0.46 -0.496,-0.241 -0.703,-0.84 -0.461,-1.336 0.092,-0.19 0.175,-0.372 0.247,-0.545 0.086,-0.208 0.158,-0.394 0.214,-0.557 0.179,-0.52 0.746,-0.796 1.266,-0.618 0.52,0.179 0.796,0.746 0.617,1.266 -0.087,0.253 -0.172,0.479 -0.254,0.675 -0.096,0.233 -0.194,0.452 -0.293,0.655zm1.184 -4.535c-0.032,0.55 -0.505,0.97 -1.055,0.937 -0.55,-0.032 -0.97,-0.505 -0.938,-1.054l0.015 -0.296 0 -0.604 -0.015 -0.296c-0.032,-0.55 0.388,-1.023 0.938,-1.055 0.55,-0.032 1.023,0.388 1.055,0.938l0.024 0.715 -0.024 0.715zm-0.637 -4.636c0.179,0.52 -0.098,1.087 -0.617,1.266 -0.52,0.179 -1.087,-0.097 -1.266,-0.617 -0.056,-0.163 -0.128,-0.349 -0.214,-0.556 -0.079,-0.192 -0.163,-0.376 -0.247,-0.551 -0.24,-0.496 -0.031,-1.093 0.464,-1.332 0.496,-0.239 1.093,-0.031 1.332,0.465 0.107,0.219 0.206,0.438 0.295,0.653 0.081,0.195 0.166,0.42 0.253,0.672zm-2.363 -4.036c0.364,0.412 0.326,1.042 -0.086,1.406 -0.412,0.364 -1.042,0.326 -1.406,-0.086 -0.126,-0.142 -0.264,-0.287 -0.41,-0.433l-0.004 -0.005c-0.146,-0.146 -0.291,-0.283 -0.434,-0.409 -0.411,-0.365 -0.45,-0.995 -0.085,-1.407 0.364,-0.412 0.994,-0.45 1.406,-0.085 0.186,0.164 0.362,0.33 0.525,0.493 0.164,0.164 0.329,0.34 0.494,0.526zm-3.726 -2.835c0.496,0.242 0.702,0.841 0.46,1.336 -0.241,0.496 -0.84,0.703 -1.336,0.461 -0.19,-0.092 -0.372,-0.175 -0.545,-0.247 -0.208,-0.086 -0.394,-0.158 -0.557,-0.214 -0.52,-0.179 -0.796,-0.746 -0.618,-1.266 0.179,-0.52 0.746,-0.796 1.266,-0.617 0.253,0.087 0.479,0.172 0.675,0.254 0.233,0.096 0.452,0.194 0.655,0.293zm-4.535 -1.184c0.55,0.032 0.97,0.505 0.937,1.055 -0.032,0.55 -0.505,0.97 -1.054,0.938l-0.296 -0.015 -0.604 0 -0.296 0.015c-0.55,0.032 -1.023,-0.388 -1.055,-0.938 -0.032,-0.55 0.388,-1.023 0.938,-1.055l0.715 -0.024 0.715 0.024zm-4.636 0.637c0.52,-0.179 1.087,0.098 1.266,0.617 0.179,0.52 -0.097,1.087 -0.617,1.266 -0.163,0.056 -0.349,0.128 -0.556,0.214 -0.192,0.079 -0.376,0.163 -0.551,0.247 -0.496,0.24 -1.093,0.031 -1.332,-0.464 -0.239,-0.496 -0.031,-1.093 0.465,-1.332 0.219,-0.107 0.438,-0.206 0.653,-0.295 0.195,-0.081 0.42,-0.166 0.672,-0.253zm-4.036 2.363c0.412,-0.364 1.042,-0.326 1.406,0.086 0.364,0.412 0.326,1.042 -0.086,1.406 -0.142,0.126 -0.287,0.264 -0.433,0.41l-0.005 0.004c-0.146,0.146 -0.283,0.291 -0.409,0.434 -0.365,0.411 -0.995,0.45 -1.407,0.085 -0.412,-0.364 -0.45,-0.994 -0.085,-1.406 0.164,-0.186 0.33,-0.362 0.493,-0.525 0.164,-0.164 0.34,-0.329 0.526,-0.494zm-2.835 3.726c0.242,-0.496 0.841,-0.702 1.336,-0.46 0.496,0.241 0.703,0.84 0.461,1.336 -0.092,0.19 -0.176,0.373 -0.247,0.545 -0.071,0.172 -0.142,0.358 -0.211,0.557 -0.178,0.522 -0.747,0.8 -1.269,0.621 -0.522,-0.178 -0.8,-0.747 -0.621,-1.269 0.074,-0.216 0.161,-0.442 0.257,-0.674 0.097,-0.234 0.195,-0.453 0.294,-0.656zm-1.184 4.535c0.032,-0.55 0.505,-0.97 1.055,-0.937 0.55,0.032 0.97,0.505 0.938,1.054l-0.015 0.296 0 0.605 0.014 0.295c0.033,0.55 -0.387,1.023 -0.937,1.055 -0.55,0.032 -1.023,-0.388 -1.055,-0.938l-0.024 -0.715 0.024 -0.715zm0.639 4.635c-0.179,-0.52 0.097,-1.087 0.617,-1.266 0.52,-0.178 1.087,0.098 1.266,0.618 0.07,0.203 0.161,0.435 0.272,0.692 0.094,0.226 0.201,0.45 0.317,0.672l0.09 0.687 -0.11 0.471c-0.125,0.537 -0.662,0.872 -1.2,0.747 -0.537,-0.125 -0.871,-0.662 -0.746,-1.199l0.029 -0.124 -0.212 -0.465c-0.109,-0.244 -0.216,-0.523 -0.323,-0.833z" />
  <path d="M7.164 19.638l-2.089 0.487c-0.145,0.033 -0.299,0.036 -0.453,0 -0.537,-0.125 -0.871,-0.662 -0.746,-1.199l0.487 -2.089 -0.346 -0.662c-0.165,-0.316 -0.312,-0.646 -0.439,-0.985 -0.122,-0.325 -0.226,-0.66 -0.311,-1.001l-0.012 -0.041c-0.085,-0.347 -0.149,-0.701 -0.191,-1.057 -0.042,-0.363 -0.063,-0.729 -0.063,-1.091 0,-2.485 1.007,-4.736 2.635,-6.364 0.825,-0.825 1.818,-1.493 2.925,-1.951 1.064,-0.441 2.227,-0.684 3.439,-0.684 2.485,0 4.736,1.007 6.364,2.635 0.825,0.825 1.493,1.818 1.951,2.925 0.441,1.064 0.684,2.227 0.684,3.439 0,2.485 -1.007,4.736 -2.635,6.364 -0.825,0.825 -1.818,1.493 -2.925,1.951 -1.064,0.441 -2.227,0.684 -3.439,0.684 -0.365,0 -0.732,-0.021 -1.095,-0.063 -0.356,-0.042 -0.708,-0.106 -1.051,-0.191 -0.355,-0.088 -0.704,-0.196 -1.043,-0.322 -0.339,-0.127 -0.669,-0.274 -0.985,-0.439l-0.662 -0.346z" />
</svg>
