<!--
unicode: "10086"
version: "3.21"
-->
<svg
  xmlns="http://www.w3.org/2000/svg"
  width="24"
  height="24"
  viewBox="0 0 24 24"
  fill="currentColor"
>
  <path d="M18.5 3c2.38 0 3.985 2.174 3.486 5.164c-.535 3.21 -2.25 6.074 -4.808 8.675c-1.277 1.298 -2.211 2.061 -4.112 3.485c-2.323 1.597 -4.408 .365 -5.47 -1.897c-.292 -.618 -.586 -1.724 -1.248 -4.477l-.03 -.126c-.483 -2.01 -.819 -3.319 -.982 -3.878l-.016 -.052l-.031 .013l-.13 .06l-.137 .07a4 4 0 0 0 -.43 .269a1 1 0 0 1 -1.3 -.099l-1 -1a1 1 0 0 1 -.124 -1.262a20 20 0 0 1 1.918 -2.382c.98 -1.037 1.955 -1.816 2.928 -2.233c.5 -.214 .996 -.33 1.486 -.33c2.237 0 3.02 1.588 3.567 4.963c.03 .183 .057 .359 .112 .709c.123 .784 .197 1.198 .292 1.588c.292 1.185 .528 1.984 .735 2.483l-.016 -.039l.096 -.107c.354 -.411 .757 -1.014 1.172 -1.771l.157 -.291c.391 -.745 .505 -1.528 .363 -1.9c-.028 -.073 .007 -.065 -.456 .218a1 1 0 0 1 -1.51 -1.013c.496 -3.053 2.745 -4.84 5.488 -4.84" />
</svg>
