<!--
-->
<svg
  xmlns="http://www.w3.org/2000/svg"
  width="24"
  height="24"
  viewBox="0 0 24 24"
  fill="currentColor"
>
  <path d="M2.708 22.726l0.148 -0.034 0.822 -0.191m2.754 -0.642l0.472 -0.11c0.485,0.254 0.987,0.469 1.501,0.647m2.939 0.584c0.218,0.013 0.437,0.02 0.656,0.02 0.22,0 0.439,-0.008 0.657,-0.02m2.939 -0.583c0.418,-0.144 0.824,-0.312 1.217,-0.504m2.484 -1.663c0.329,-0.292 0.641,-0.604 0.933,-0.933m1.663 -2.485c0.192,-0.393 0.36,-0.799 0.505,-1.216m0.582 -2.94c0.012,-0.217 0.02,-0.436 0.02,-0.656 0,-0.22 -0.008,-0.439 -0.02,-0.657m-0.583 -2.939c-0.144,-0.418 -0.313,-0.824 -0.504,-1.217m-1.663 -2.484c-0.292,-0.329 -0.604,-0.641 -0.933,-0.933m-2.485 -1.663c-0.393,-0.192 -0.799,-0.36 -1.216,-0.505m-2.94 -0.582c-0.217,-0.012 -0.436,-0.02 -0.656,-0.02 -0.22,0 -0.439,0.008 -0.657,0.02m-2.939 0.583c-0.418,0.144 -0.824,0.313 -1.217,0.504m-2.484 1.663c-0.329,0.292 -0.641,0.604 -0.933,0.933m-1.663 2.485c-0.192,0.393 -0.36,0.799 -0.505,1.216m-0.582 2.94c-0.012,0.217 -0.02,0.436 -0.02,0.656 0,0.219 0.007,0.438 0.02,0.657m0.584 2.939c0.178,0.514 0.394,1.016 0.648,1.501l-0.11 0.471m-0.643 2.754l-0.217 0.93 -0.009 0.039c-0.15,0.643 0.249,1.286 0.892,1.436 0.179,0.041 0.365,0.041 0.543,-0.001" />
  <path d="M4.848 19.152l2.446 -0.57 0.993 0.519c0.56,0.292 1.167,0.519 1.805,0.675 0.597,0.149 1.238,0.223 1.908,0.223 2.21,0 4.21,-0.895 5.657,-2.342 1.447,-1.447 2.342,-3.447 2.342,-5.657 0,-2.21 -0.895,-4.21 -2.342,-5.657 -1.447,-1.447 -3.447,-2.342 -5.657,-2.342 -2.21,0 -4.21,0.895 -5.657,2.342 -1.447,1.447 -2.342,3.447 -2.342,5.657 0,0.666 0.075,1.308 0.223,1.909 0.156,0.637 0.383,1.244 0.676,1.805l0.519 0.993 -0.571 2.445z" />
</svg>
