<!--
unicode: "1027b"
version: "3.45"
-->
<svg
  xmlns="http://www.w3.org/2000/svg"
  width="24"
  height="24"
  viewBox="0 0 24 24"
  fill="currentColor"
>
  <path d="M2.482 21.753l.969 -.225c.538 -.125 1.075 .209 1.2 .746c.124 .537 -.21 1.075 -.747 1.2l-.969 .225c-.166 .039 -.334 .059 -.498 .059c-.172 -.004 -.339 -.023 -.494 -.058c-.593 -.138 -1.073 -.502 -1.369 -.979c-.297 -.476 -.411 -1.067 -.274 -1.656l.226 -.969c.125 -.537 .662 -.871 1.199 -.747c.537 .125 .872 .662 .747 1.2l-.227 .965c-.012 .057 -.001 .11 .025 .153c.026 .042 .069 .075 .122 .087l.041 .007l.049 -.008zm4.176 1.079c-.537 .125 -1.074 -.209 -1.199 -.746c-.125 -.537 .21 -1.075 .747 -1.2l.472 -.11l.687 .09c.194 .101 .419 .208 .67 .316c.258 .11 .49 .202 .694 .272c.52 .179 .796 .746 .617 1.266c-.179 .52 -.746 .796 -1.266 .617c-.311 -.108 -.59 -.215 -.834 -.319c-.147 -.063 -.302 -.135 -.465 -.215l-.123 .029zm4.627 1.144c-.55 -.032 -.97 -.505 -.937 -1.055c.032 -.55 .505 -.97 1.054 -.937l.295 .014l.605 0l.296 -.015c.55 -.032 1.023 .388 1.055 .938c.032 .55 -.388 1.023 -.938 1.055l-.715 .024l-.715 -.024zm4.636 -.637c-.52 .179 -1.087 -.098 -1.266 -.617c-.179 -.52 .097 -1.087 .617 -1.266c.177 -.061 .364 -.133 .558 -.213c.172 -.073 .355 -.156 .545 -.248c.496 -.242 1.095 -.036 1.336 .46c.242 .496 .035 1.095 -.46 1.336c-.203 .099 -.423 .198 -.655 .294c-.213 .087 -.438 .172 -.675 .254zm4.036 -2.363c-.412 .364 -1.042 .326 -1.406 -.086c-.364 -.412 -.326 -1.042 .086 -1.406c.142 -.126 .288 -.264 .434 -.411l.005 -.004c.146 -.146 .282 -.291 .408 -.433c.365 -.411 .995 -.45 1.407 -.085c.412 .364 .45 .994 .085 1.406c-.164 .186 -.329 .361 -.492 .524c-.164 .164 -.34 .33 -.527 .495zm2.835 -3.726c-.242 .496 -.841 .702 -1.336 .46c-.496 -.241 -.703 -.84 -.461 -1.336c.092 -.19 .175 -.372 .247 -.545c.086 -.208 .158 -.394 .214 -.557c.179 -.52 .746 -.796 1.266 -.618c.52 .179 .796 .746 .617 1.266c-.087 .253 -.172 .479 -.254 .675c-.096 .233 -.194 .452 -.293 .655zm1.184 -4.535c-.032 .55 -.505 .97 -1.055 .937c-.55 -.032 -.97 -.505 -.938 -1.054l.015 -.296l0 -.604l-.015 -.296c-.032 -.55 .388 -1.023 .938 -1.055c.55 -.032 1.023 .388 1.055 .938l.024 .715l-.024 .715zm-.637 -4.636c.179 .52 -.098 1.087 -.617 1.266c-.52 .179 -1.087 -.097 -1.266 -.617c-.056 -.163 -.128 -.349 -.214 -.556c-.079 -.192 -.163 -.376 -.247 -.551c-.24 -.496 -.031 -1.093 .464 -1.332c.496 -.239 1.093 -.031 1.332 .465c.107 .219 .206 .438 .295 .653c.081 .195 .166 .42 .253 .672zm-2.363 -4.036c.364 .412 .326 1.042 -.086 1.406c-.412 .364 -1.042 .326 -1.406 -.086c-.126 -.142 -.264 -.287 -.41 -.433l-.004 -.005c-.146 -.146 -.291 -.283 -.434 -.409c-.411 -.365 -.45 -.995 -.085 -1.407c.364 -.412 .994 -.45 1.406 -.085c.186 .164 .362 .33 .525 .493c.164 .164 .329 .34 .494 .526zm-3.726 -2.835c.496 .242 .702 .841 .46 1.336c-.241 .496 -.84 .703 -1.336 .461c-.19 -.092 -.372 -.175 -.545 -.247c-.208 -.086 -.394 -.158 -.557 -.214c-.52 -.179 -.796 -.746 -.618 -1.266c.179 -.52 .746 -.796 1.266 -.617c.253 .087 .479 .172 .675 .254c.233 .096 .452 .194 .655 .293zm-4.535 -1.184c.55 .032 .97 .505 .937 1.055c-.032 .55 -.505 .97 -1.054 .938l-.296 -.015l-.604 0l-.296 .015c-.55 .032 -1.023 -.388 -1.055 -.938c-.032 -.55 .388 -1.023 .938 -1.055l.715 -.024l.715 .024zm-4.636 .637c.52 -.179 1.087 .098 1.266 .617c.179 .52 -.097 1.087 -.617 1.266c-.163 .056 -.349 .128 -.556 .214c-.192 .079 -.376 .163 -.551 .247c-.496 .24 -1.093 .031 -1.332 -.464c-.239 -.496 -.031 -1.093 .465 -1.332c.219 -.107 .438 -.206 .653 -.295c.195 -.081 .42 -.166 .672 -.253zm-4.036 2.363c.412 -.364 1.042 -.326 1.406 .086c.364 .412 .326 1.042 -.086 1.406c-.142 .126 -.287 .264 -.433 .41l-.005 .004c-.146 .146 -.283 .291 -.409 .434c-.365 .411 -.995 .45 -1.407 .085c-.412 -.364 -.45 -.994 -.085 -1.406c.164 -.186 .33 -.362 .493 -.525c.164 -.164 .34 -.329 .526 -.494zm-2.835 3.726c.242 -.496 .841 -.702 1.336 -.46c.496 .241 .703 .84 .461 1.336c-.092 .19 -.176 .373 -.247 .545c-.071 .172 -.142 .358 -.211 .557c-.178 .522 -.747 .8 -1.269 .621c-.522 -.178 -.8 -.747 -.621 -1.269c.074 -.216 .161 -.442 .257 -.674c.097 -.234 .195 -.453 .294 -.656zm-1.184 4.535c.032 -.55 .505 -.97 1.055 -.937c.55 .032 .97 .505 .938 1.054l-.015 .296l0 .605l.014 .295c.033 .55 -.387 1.023 -.937 1.055c-.55 .032 -1.023 -.388 -1.055 -.938l-.024 -.715l.024 -.715zm.639 4.635c-.179 -.52 .097 -1.087 .617 -1.266c.52 -.178 1.087 .098 1.266 .618c.07 .203 .161 .435 .272 .692c.094 .226 .201 .45 .317 .672l.09 .687l-.11 .471c-.125 .537 -.662 .872 -1.2 .747c-.537 -.125 -.871 -.662 -.746 -1.199l.029 -.124l-.212 -.465c-.109 -.244 -.216 -.523 -.323 -.833z" />
  <path d="M7.164 19.638l-2.089 .487c-.145 .033 -.299 .036 -.453 0c-.537 -.125 -.871 -.662 -.746 -1.199l.487 -2.089l-.346 -.662c-.165 -.316 -.312 -.646 -.439 -.985c-.122 -.325 -.226 -.66 -.311 -1.001l-.012 -.041c-.085 -.347 -.149 -.701 -.191 -1.057c-.042 -.363 -.063 -.729 -.063 -1.091c0 -2.485 1.007 -4.736 2.635 -6.364c.825 -.825 1.818 -1.493 2.925 -1.951c1.064 -.441 2.227 -.684 3.439 -.684c2.485 0 4.736 1.007 6.364 2.635c.825 .825 1.493 1.818 1.951 2.925c.441 1.064 .684 2.227 .684 3.439c0 2.485 -1.007 4.736 -2.635 6.364c-.825 .825 -1.818 1.493 -2.925 1.951c-1.064 .441 -2.227 .684 -3.439 .684c-.365 0 -.732 -.021 -1.095 -.063c-.356 -.042 -.708 -.106 -1.051 -.191c-.355 -.088 -.704 -.196 -1.043 -.322c-.339 -.127 -.669 -.274 -.985 -.439l-.662 -.346z" />
</svg>
