<!--
version: "2.39"
unicode: "fd00"
-->
<svg
  xmlns="http://www.w3.org/2000/svg"
  width="24"
  height="24"
  viewBox="0 0 24 24"
  fill="currentColor"
>
  <path d="M22 13.478v4.522a3 3 0 0 1 -3 3h-14a3 3 0 0 1 -3 -3v-4.522l.553 .277a20.999 20.999 0 0 0 18.897 -.002l.55 -.275zm-8 -11.478a3 3 0 0 1 3 3v1h2a3 3 0 0 1 3 3v2.242l-1.447 .724a19.002 19.002 0 0 1 -16.726 .186l-.647 -.32l-1.18 -.59v-2.242a3 3 0 0 1 3 -3h2v-1a3 3 0 0 1 3 -3h4zm-2 8a1 1 0 0 0 -1 1a1 1 0 1 0 2 .01c0 -.562 -.448 -1.01 -1 -1.01zm2 -6h-4a1 1 0 0 0 -1 1v1h6v-1a1 1 0 0 0 -1 -1z" />
</svg>
