<svg xmlns="http://www.w3.org/2000/svg" width="24" height="24" viewBox="0 0 24 24" fill="currentColor" class="icon icon-tabler icons-tabler-filled icon-tabler-bus"> 
  <path stroke="none" d="M0 0h24v24H0z" fill="none"/>


  <path d="M 3,18 H 1 V 5 c 0,-0.5 0.5,-1 1,-1 H 17.5 c 3,0 5.5,3.5 5.5,8.5 V 18 h -2.198637 m -4.397274,0 H 7.63778 M 6.5,5.5 h -4 v 4 h 4 m 5,-4 h -4 v 4 h 4 m 4.5,-4 h -3.5 l 0,4 4,0 M 18,11 h 3.5 c 0,0 -0.756086,-5.4298928 -4.5,-5.5" style="fill-rule:evenodd;"/>
  <path d="M6 17.5m-3 0a3 3 0 1 0 6 0a3 3 0 1 0 -6 0"/>
  <path d="M18 17.5m-3 0a3 3 0 1 0 6 0a3 3 0 1 0 -6 0"/>
</svg>