<!--
category: Filled
version: "2.19"
unicode: "fa92"
-->
<svg
  xmlns="http://www.w3.org/2000/svg"
  width="24"
  height="24"
  viewBox="0 0 24 24"
  fill="currentColor"
>
  <path d="M16 4h-8a2 2 0 0 0 -2 2v12a2 2 0 0 0 2 2h8a2 2 0 0 0 2 -2v-12a2 2 0 0 0 -2 -2z" />
  <path d="M22 6a1 1 0 0 1 .117 1.993l-.117 .007h-1v8h1a1 1 0 0 1 .117 1.993l-.117 .007h-1a2 2 0 0 1 -1.995 -1.85l-.005 -.15v-8a2 2 0 0 1 1.85 -1.995l.15 -.005h1z" />
  <path d="M3 6a2 2 0 0 1 1.995 1.85l.005 .15v8a2 2 0 0 1 -1.85 1.995l-.15 .005h-1a1 1 0 0 1 -.117 -1.993l.117 -.007h1v-8h-1a1 1 0 0 1 -.117 -1.993l.117 -.007h1z" />
</svg>
