<!--
unicode: "100d7"
version: "3.25"
-->
<svg
  xmlns="http://www.w3.org/2000/svg"
  width="24"
  height="24"
  viewBox="0 0 24 24"
  fill="currentColor"
>
  <path d="M19 19.002v1.998a1 1 0 0 1 -.883 .993l-.117 .007h-12a1 1 0 0 1 -1 -1v-1.994a1 1 0 0 1 1 -1l12 -.004a1 1 0 0 1 1 1" />
  <path d="M12 2a5 5 0 0 1 4.533 2.888l.06 .137l.136 -.009a5 5 0 0 1 4.99 3.477l.063 .213a5 5 0 0 1 -2.696 5.831l-.087 .037v1.428a1 1 0 0 1 -1 1l-12 .004a1 1 0 0 1 -.993 -.883l-.007 -.117v-1.433l-.123 -.055a5 5 0 0 1 -2.6 -3.001l-.064 -.223a5 5 0 0 1 5.193 -6.27l.066 -.142a5 5 0 0 1 4.302 -2.877z" />
</svg>
