<!--
tags: [shape, number, digit]
category: Filled
version: "2.4"
unicode: "f736"
-->
<svg
  xmlns="http://www.w3.org/2000/svg"
  width="24"
  height="24"
  viewBox="0 0 24 24"
  fill="currentColor"
>
  <path d="M12 2c5.523 0 10 4.477 10 10s-4.477 10 -10 10s-10 -4.477 -10 -10s4.477 -10 10 -10zm2 5h-4l-.117 .007a1 1 0 0 0 -.876 .876l-.007 .117l.007 .117a1 1 0 0 0 .876 .876l.117 .007h2.718l-1.688 6.757l-.022 .115a1 1 0 0 0 1.927 .482l.035 -.111l2 -8l.021 -.112a1 1 0 0 0 -.878 -1.125l-.113 -.006z" />
</svg>
