<!--
version: "2.4"
unicode: "f734"
-->
<svg
  xmlns="http://www.w3.org/2000/svg"
  width="24"
  height="24"
  viewBox="0 0 24 24"
  fill="currentColor"
>
  <path d="M12 2c5.523 0 10 4.477 10 10s-4.477 10 -10 10s-10 -4.477 -10 -10s4.477 -10 10 -10zm2 5h-4a1 1 0 0 0 -.993 .883l-.007 .117v4a1 1 0 0 0 .883 .993l.117 .007h3v2h-2l-.007 -.117a1 1 0 0 0 -1.993 .117a2 2 0 0 0 1.85 1.995l.15 .005h2a2 2 0 0 0 1.995 -1.85l.005 -.15v-2a2 2 0 0 0 -1.85 -1.995l-.15 -.005h-2v-2h3a1 1 0 0 0 .993 -.883l.007 -.117a1 1 0 0 0 -.883 -.993l-.117 -.007z" />
</svg>
