<!--
category: Filled
version: "3.0.0-alpha.1"
-->
<svg
  xmlns="http://www.w3.org/2000/svg"
  width="24"
  height="24"
  viewBox="0 0 24 24"
  fill="none"
  stroke="currentColor"
  stroke-width="2"
  stroke-linecap="round"
  stroke-linejoin="round"
>
  <path d="M12 2c5.523 0 10 4.477 10 10s-4.477 10 -10 10s-10 -4.477 -10 -10s4.477 -10 10 -10m2 5h-4a1 1 0 0 0 -1 1l.007 .117a1 1 0 0 0 .993 .883h2.382l-3.276 6.553a1 1 0 0 0 .894 1.447h4a1 1 0 0 0 1 -1l-.007 -.117a1 1 0 0 0 -.993 -.883h-2.382l3.276 -6.553a1 1 0 0 0 -.894 -1.447" stroke-width="0" fill="currentColor" />
</svg>
