<!--
unicode: "100cd"
version: "3.25"
-->
<svg
  xmlns="http://www.w3.org/2000/svg"
  width="24"
  height="24"
  viewBox="0 0 24 24"
  fill="currentColor"
>
  <path d="M17.997 4.17a3 3 0 0 1 2.003 2.83v12a3 3 0 0 1 -3 3h-10a3 3 0 0 1 -3 -3v-12a3 3 0 0 1 2.003 -2.83a4 4 0 0 0 3.997 3.83h4a4 4 0 0 0 3.98 -3.597zm-7.29 7.123a1 1 0 0 0 -1.414 0l-.083 .094a1 1 0 0 0 .083 1.32l1.292 1.293l-1.292 1.293a1 1 0 0 0 0 1.414l.094 .083a1 1 0 0 0 1.32 -.083l1.293 -1.293l1.293 1.293a1 1 0 0 0 1.414 0l.083 -.094a1 1 0 0 0 -.083 -1.32l-1.293 -1.293l1.293 -1.293a1 1 0 0 0 0 -1.414l-.094 -.083a1 1 0 0 0 -1.32 .083l-1.293 1.292zm3.293 -9.293a2 2 0 1 1 0 4h-4a2 2 0 1 1 0 -4z" />
</svg>
