---
category: Filled
version: "3.0.0-alpha.1"
---
<svg
  xmlns="http://www.w3.org/2000/svg"
  width="24"
  height="24"
  viewBox="0 0 24 24"
  fill="none"
  stroke="currentColor"
  stroke-width="2"
  stroke-linecap="round"
  stroke-linejoin="round"
>
  <path d="M17 3.34A10 10 0 1 1 2 12l.005-.324A10 10 0 0 1 17 3.34M12 6a1 1 0 0 0-1 1v5.026l.009.105.02.107.04.129.048.102.046.078.042.06.069.08.088.083.083.062 3 2a1 1 0 1 0 1.11-1.664L13 11.464V7a1 1 0 0 0-.883-.993z" stroke-width="0" fill="currentColor" />
</svg>
