<!--
unicode: "10125"
version: "3.29"
-->
<svg
  xmlns="http://www.w3.org/2000/svg"
  width="24"
  height="24"
  viewBox="0 0 24 24"
  fill="currentColor"
>
  <path d="M12 1a1 1 0 0 1 1 1v1.055a9.004 9.004 0 0 1 7.946 7.945h1.054a1 1 0 0 1 0 2h-1.055a9.004 9.004 0 0 1 -7.944 7.945l-.001 1.055a1 1 0 0 1 -2 0v-1.055a9.004 9.004 0 0 1 -7.945 -7.944l-1.055 -.001a1 1 0 0 1 0 -2h1.055a9.004 9.004 0 0 1 7.945 -7.945v-1.055a1 1 0 0 1 1 -1m0 4a7 7 0 1 0 0 14a7 7 0 0 0 0 -14m0 3a4 4 0 1 1 -4 4l.005 -.2a4 4 0 0 1 3.995 -3.8" />
</svg>
