<!--
version: "2.15"
unicode: "fa3b"
-->
<svg
  xmlns="http://www.w3.org/2000/svg"
  width="24"
  height="24"
  viewBox="0 0 24 24"
  fill="currentColor"
>
  <path d="M6 2h-2a2 2 0 0 0 -2 2v2a2 2 0 0 0 2 2h2a2 2 0 0 0 2 -2v-2a2 2 0 0 0 -2 -2z" />
  <path d="M20 2h-2a2 2 0 0 0 -2 2v2a2 2 0 0 0 2 2h2a2 2 0 0 0 2 -2v-2a2 2 0 0 0 -2 -2z" />
  <path d="M13 2h-2a2 2 0 0 0 -2 2v2a2 2 0 0 0 2 2h2a2 2 0 0 0 2 -2v-2a2 2 0 0 0 -2 -2z" />
  <path d="M6 9h-2a2 2 0 0 0 -2 2v2a2 2 0 0 0 2 2h2a2 2 0 0 0 2 -2v-2a2 2 0 0 0 -2 -2z" />
  <path d="M20 9h-2a2 2 0 0 0 -2 2v2a2 2 0 0 0 2 2h2a2 2 0 0 0 2 -2v-2a2 2 0 0 0 -2 -2z" />
  <path d="M13 9h-2a2 2 0 0 0 -2 2v2a2 2 0 0 0 2 2h2a2 2 0 0 0 2 -2v-2a2 2 0 0 0 -2 -2z" />
  <path d="M13 16h-2a2 2 0 0 0 -2 2v2a2 2 0 0 0 2 2h2a2 2 0 0 0 2 -2v-2a2 2 0 0 0 -2 -2z" />
</svg>
