<!--
tags: [game, boardgame, roll, throw, cube, numbers, gambling]
category: Filled
version: "2.4"
unicode: "f73f"
-->
<svg
  xmlns="http://www.w3.org/2000/svg"
  width="24"
  height="24"
  viewBox="0 0 24 24"
  fill="currentColor"
>
  <path d="M18.333 2c1.96 0 3.56 1.537 3.662 3.472l.005 .195v12.666c0 1.96 -1.537 3.56 -3.472 3.662l-.195 .005h-12.666a3.667 3.667 0 0 1 -3.662 -3.472l-.005 -.195v-12.666c0 -1.96 1.537 -3.56 3.472 -3.662l.195 -.005h12.666zm-3.833 11a1.5 1.5 0 1 0 0 3a1.5 1.5 0 0 0 0 -3zm-5 -5a1.5 1.5 0 1 0 0 3a1.5 1.5 0 0 0 0 -3z" />
</svg>
