<!--
-->
<svg
  xmlns="http://www.w3.org/2000/svg"
  width="24"
  height="24"
  viewBox="0 0 24 24"
  fill="currentColor"
>
  <path d="M18.393 2.038c-.771.142-1.231.411-1.963 1.149l-.429.434 2.191 2.191 2.192 2.192.518-.533c.676-.697.91-1.096 1.04-1.776.303-1.581-.652-3.14-2.188-3.576-.33-.093-1.057-.137-1.361-.081M11.354 8.23c-2.94 2.946-3.229 3.247-3.289 3.427-.056.17-.065.428-.063 1.86.002 1.789.006 1.828.215 2.102.058.077.191.189.294.25l.189.111 1.715.012c1.509.01 1.739.003 1.92-.055.191-.062.424-.285 3.455-3.311l3.251-3.245L16.85 7.19C15.646 5.986 14.642 5 14.619 5s-1.491 1.453-3.265 3.23M5.499 6.043C4.383 6.23 3.461 7.048 3.114 8.16l-.094.3v10.08l.094.3a3.09 3.09 0 0 0 2.046 2.046l.3.094h10.08l.3-.094a3.09 3.09 0 0 0 2.046-2.046c.087-.278.094-.367.094-1.22v-.92l-.109-.186a1.01 1.01 0 0 0-1.742 0c-.106.181-.11.208-.132.966-.013.454-.042.827-.07.893a1.1 1.1 0 0 1-.443.499l-.184.108H5.7l-.184-.108a1.2 1.2 0 0 1-.291-.249C4.989 18.314 5 18.562 5 13.522c0-5.223-.019-4.897.303-5.219.258-.258.44-.303 1.234-.305.693-.002.841-.031 1.082-.215.077-.058.189-.191.25-.294.095-.161.111-.233.111-.489 0-.254-.017-.328-.108-.484a1.02 1.02 0 0 0-.582-.461c-.206-.062-1.445-.07-1.791-.012" />
</svg>
