<!--
-->
<svg
  xmlns="http://www.w3.org/2000/svg"
  width="24"
  height="24"
  viewBox="0 0 24 24"
  fill="currentColor"
>
  <path d="M8 7a1 1 0 0 1 -1 1h-1a1 1 0 0 0 -1 1v9a1 1 0 0 0 1 1h9a1 1 0 0 0 1 -1v-1a1 1 0 0 1 2 0v1a3 3 0 0 1 -3 3h-9a3 3 0 0 1 -3 -3v-9a3 3 0 0 1 3 -3h1a1 1 0 0 1 1 1" />
  <path d="M14.596 5.011l4.392 4.392l-6.28 6.303a1 1 0 0 1 -.708 .294h-3a1 1 0 0 1 -1 -1v-3a1 1 0 0 1 .294 -.708zm6.496 -2.103a3.097 3.097 0 0 1 .165 4.203l-.164 .18l-.693 .694l-4.387 -4.387l.695 -.69a3.1 3.1 0 0 1 4.384 0" />
</svg>
