<!--
unicode: "10132"
version: "3.30"
-->
<svg
  xmlns="http://www.w3.org/2000/svg"
  width="24"
  height="24"
  viewBox="0 0 24 24"
  fill="currentColor"
>
  <path d="M19.5 6a3.5 3.5 0 0 1 0 7h-1.086l-8.12 8.121a3 3 0 0 1 -1.924 .872l-.198 .007h-3.672a3.5 3.5 0 0 1 0 -7h2.084l8.123 -8.121a3 3 0 0 1 1.923 -.872l.198 -.007z" />
  <path d="M19.5 8h-2.672a1 1 0 0 0 -.707 .293l-8.414 8.414a1 1 0 0 1 -.707 .293h-2.5a1.5 1.5 0 0 0 0 3h3.672a1 1 0 0 0 .707 -.293l8.414 -8.414a1 1 0 0 1 .707 -.293h1.5a1.5 1.5 0 0 0 0 -3" />
  <path d="M5.852 2.011l.058 -.007l.09 -.004l.075 .003l.126 .017l.111 .03l.111 .044l.098 .052l.104 .074l.082 .073l3 3a1 1 0 1 1 -1.414 1.414l-1.293 -1.292v4.585a1 1 0 0 1 -2 0v-4.585l-1.293 1.292a1 1 0 0 1 -1.32 .083l-.094 -.083a1 1 0 0 1 0 -1.414l3 -3q .053 -.054 .112 -.097l.11 -.071l.114 -.054l.105 -.035z" />
</svg>
