<!--
unicode: "1011f"
version: "3.29"
-->
<svg
  xmlns="http://www.w3.org/2000/svg"
  width="24"
  height="24"
  viewBox="0 0 24 24"
  fill="currentColor"
>
  <path d="M12 0a5 5 0 0 1 3.584 8.488l-.012 .012a5 5 0 0 1 1.33 2.517l.018 .101l.251 -.048q .15 -.025 .3 -.041l.304 -.024l.225 -.005a5 5 0 1 1 -4.89 6.046l-.032 -.164l-.24 .048a5 5 0 0 1 -.556 .062l-.282 .008q -.427 0 -.84 -.07l-.239 -.048l-.004 .025a5 5 0 0 1 -3.331 3.834l-.22 .068a5 5 0 1 1 -.461 -9.728l.173 .036l.019 -.102c.19 -.95 .653 -1.824 1.331 -2.516l-.05 -.052a5.02 5.02 0 0 1 -1.355 -2.978l-.018 -.244l-.005 -.225a5 5 0 0 1 5 -5m6 15a1 1 0 0 0 -1 1v.01a1 1 0 0 0 2 0v-.01a1 1 0 0 0 -1 -1m-12 0a1 1 0 0 0 -1 1v.01a1 1 0 0 0 2 0v-.01a1 1 0 0 0 -1 -1m6 -4.995c-1.1 0 -1.99 .891 -1.99 1.99v.02a1.99 1.99 0 0 0 3.98 0v-.02a1.99 1.99 0 0 0 -1.99 -1.99m0 -6.005a1 1 0 0 0 -1 1v.01a1 1 0 0 0 2 0v-.01a1 1 0 0 0 -1 -1" />
</svg>
