<!--
unicode: "1012c"
version: "3.30"
-->
<svg
  xmlns="http://www.w3.org/2000/svg"
  width="24"
  height="24"
  viewBox="0 0 24 24"
  fill="currentColor"
>
  <path d="M12 2l.117 .007a1 1 0 0 1 .876 .876l.007 .117v4l.005 .15a2 2 0 0 0 1.838 1.844l.157 .006h4l.117 .007a1 1 0 0 1 .876 .876l.007 .117v9a3 3 0 0 1 -2.824 2.995l-.176 .005h-10a3 3 0 0 1 -2.995 -2.824l-.005 -.176v-14a3 3 0 0 1 2.824 -2.995l.176 -.005zm-2.5 8a2.5 2.5 0 0 0 -2.5 2.5v3a2.5 2.5 0 1 0 5 0a1 1 0 0 0 -2 0a.5 .5 0 1 1 -1 0v-3a.5 .5 0 1 1 1 0a1 1 0 0 0 2 0a2.5 2.5 0 0 0 -2.5 -2.5m6.743 .03a1 1 0 0 0 -1.213 .727l-.53 2.119l-.53 -2.119a1 1 0 1 0 -1.94 .486l1.5 6c.252 1.01 1.688 1.01 1.94 0l1.5 -6a1 1 0 0 0 -.727 -1.213m-1.244 -7.031l4.001 4.001h-4z" />
</svg>
