<!--
unicode: "10128"
version: "3.30"
-->
<svg
  xmlns="http://www.w3.org/2000/svg"
  width="24"
  height="24"
  viewBox="0 0 24 24"
  fill="currentColor"
>
  <path d="M12 2l.117 .007a1 1 0 0 1 .876 .876l.007 .117v4l.005 .15a2 2 0 0 0 1.838 1.844l.157 .006h4l.117 .007a1 1 0 0 1 .876 .876l.007 .117v9a3 3 0 0 1 -2.824 2.995l-.176 .005h-10a3 3 0 0 1 -2.995 -2.824l-.005 -.176v-14a3 3 0 0 1 2.824 -2.995l.176 -.005zm2.01 14h-.01a1 1 0 0 0 -.117 1.993l.127 .007a1 1 0 0 0 0 -2m.697 -3.707a1 1 0 0 0 -1.414 0l-4 4a1 1 0 0 0 1.414 1.414l4 -4a1 1 0 0 0 0 -1.414m-4.697 -.293h-.01a1 1 0 0 0 -.117 1.993l.127 .007a1 1 0 0 0 0 -2m4.989 -9.001l4.001 4.001h-4z" />
</svg>
