<!--
unicode: "1012a"
version: "3.30"
-->
<svg
  xmlns="http://www.w3.org/2000/svg"
  width="24"
  height="24"
  viewBox="0 0 24 24"
  fill="currentColor"
>
  <path d="M12 2l.117 .007a1 1 0 0 1 .876 .876l.007 .117v4l.005 .15a2 2 0 0 0 1.838 1.844l.157 .006h4l.117 .007a1 1 0 0 1 .876 .876l.007 .117v9a3 3 0 0 1 -2.824 2.995l-.176 .005h-10a3 3 0 0 1 -2.995 -2.824l-.005 -.176v-14a3 3 0 0 1 2.824 -2.995l.176 -.005zm0 8a1 1 0 0 0 -1 1v3.585l-.793 -.792a1 1 0 0 0 -1.32 -.083l-.094 .083a1 1 0 0 0 0 1.414l2.5 2.5l.044 .042l.068 .055l.11 .071l.114 .054l.105 .035l.15 .03l.116 .006l.117 -.007l.117 -.02l.108 -.033l.081 -.034l.098 -.052l.092 -.064l.094 -.083l2.5 -2.5a1 1 0 0 0 0 -1.414l-.094 -.083a1 1 0 0 0 -1.32 .083l-.793 .791v-3.584a1 1 0 0 0 -.883 -.993zm2.999 -7.001l4.001 4.001h-4z" />
</svg>
