<!--
unicode: "10116"
version: "3.29"
-->
<svg
  xmlns="http://www.w3.org/2000/svg"
  width="24"
  height="24"
  viewBox="0 0 24 24"
  fill="currentColor"
>
  <path d="M12 2l.117 .007a1 1 0 0 1 .876 .876l.007 .117v4l.005 .15a2 2 0 0 0 1.838 1.844l.157 .006h4l.117 .007a1 1 0 0 1 .876 .876l.007 .117v9a3 3 0 0 1 -2.824 2.995l-.176 .005h-10a3 3 0 0 1 -2.995 -2.824l-.005 -.176v-14a3 3 0 0 1 2.824 -2.995l.176 -.005zm2.82 14.429a1 1 0 0 0 -1.391 -.25a2.5 2.5 0 0 1 -2.858 0a1 1 0 0 0 -1.142 1.642a4.5 4.5 0 0 0 5.142 0a1 1 0 0 0 .25 -1.392m-4.815 -4.429h-.01a1 1 0 0 0 0 2h.01a1 1 0 0 0 0 -2m4 0h-.01a1 1 0 0 0 0 2h.01a1 1 0 0 0 0 -2" />
  <path d="M19 7h-4l-.001 -4.001z" />
</svg>
