<!--
-->
<svg
  xmlns="http://www.w3.org/2000/svg"
  width="24"
  height="24"
  viewBox="0 0 24 24"
  fill="currentColor"
>
  <path d="M2 6c0 -.796 .316 -1.558 .879 -2.121c.563 -.563 1.325 -.879 2.121 -.879h4l.099 .005c.229 .023 .444 .124 .608 .288l2.707 2.707h6.586c.796 0 1.558 .316 2.121 .879c.319 .319 .559 .703 .707 1.121l-14.523 0c-.407 0 -.805 .125 -1.14 .356c-.292 .203 -.525 .48 -.674 .801l-.058 .141l-1.379 3.676c-.194 .517 .068 1.093 .585 1.287c.517 .194 1.094 -.068 1.288 -.585l1.134 -3.027c.146 -.39 .519 -.649 .937 -.649h13.002l.217 .012c.216 .024 .426 .082 .624 .173c.054 .025 .107 .053 .159 .083c.199 .115 .377 .263 .525 .439c.188 .222 .325 .482 .403 .762c.077 .28 .092 .573 .045 .859c-.001 .008 -.003 .016 -.005 .024l-.995 5.21c-.131 .686 -.497 1.304 -1.036 1.749c-.47 .389 -1.046 .624 -1.65 .677l-.261 .012h-14.026c-.796 0 -1.558 -.316 -2.121 -.879c-.563 -.563 -.879 -1.325 -.879 -2.121v-11z" fill="black" />
</svg>
