<!--
version: "2.30"
unicode: "fc2b"
-->
<svg
  xmlns="http://www.w3.org/2000/svg"
  width="24"
  height="24"
  viewBox="0 0 24 24"
  fill="currentColor"
>
  <path d="M17.333 3a3.667 3.667 0 0 1 3.667 3.667v10.666a3.667 3.667 0 0 1 -3.667 3.667h-10.666a3.667 3.667 0 0 1 -3.667 -3.667v-10.666a3.667 3.667 0 0 1 3.667 -3.667zm-3.583 3a2.38 2.38 0 0 0 -2.37 2.145l-.285 2.855h-2.095l-.117 .007a1 1 0 0 0 .117 1.993h1.894l-.265 2.656l-.014 .071a.38 .38 0 0 1 -.365 .273a.25 .25 0 0 1 -.25 -.25v-.25l-.007 -.117a1 1 0 0 0 -1.993 .117v.25l.005 .154a2.25 2.25 0 0 0 2.245 2.096a2.38 2.38 0 0 0 2.37 -2.145l.284 -2.855h2.096l.117 -.007a1 1 0 0 0 -.117 -1.993h-1.895l.266 -2.656l.014 -.071a.381 .381 0 0 1 .365 -.273a.25 .25 0 0 1 .25 .25v.25l.007 .117a1 1 0 0 0 1.993 -.117v-.25l-.005 -.154a2.25 2.25 0 0 0 -2.245 -2.096z" />
</svg>
