<!--
category: Filled
version: "2.39"
unicode: "fd14"
-->
<svg
  xmlns="http://www.w3.org/2000/svg"
  width="24"
  height="24"
  viewBox="0 0 24 24"
  fill="currentColor"
>
  <path d="M11 14v8h-4a3 3 0 0 1 -3 -3v-4a1 1 0 0 1 1 -1h6zm8 0a1 1 0 0 1 1 1v4a3 3 0 0 1 -3 3h-4v-8h6zm-2.5 -12a3.5 3.5 0 0 1 3.163 5h.337a2 2 0 0 1 2 2v1a2 2 0 0 1 -2 2h-7v-5h-2v5h-7a2 2 0 0 1 -2 -2v-1a2 2 0 0 1 2 -2h.337a3.486 3.486 0 0 1 -.337 -1.5c0 -1.933 1.567 -3.5 3.483 -3.5c1.755 -.03 3.312 1.092 4.381 2.934l.136 .243c1.033 -1.914 2.56 -3.114 4.291 -3.175l.209 -.002zm-9 2a1.5 1.5 0 0 0 0 3h3.143c-.741 -1.905 -1.949 -3.02 -3.143 -3zm8.983 0c-1.18 -.02 -2.385 1.096 -3.126 3h3.143a1.5 1.5 0 1 0 -.017 -3z" />
</svg>
