<!--
unicode: "100c2"
version: "3.24"
-->
<svg
  xmlns="http://www.w3.org/2000/svg"
  width="24"
  height="24"
  viewBox="0 0 24 24"
  fill="currentColor"
>
  <path d="M18 3a3 3 0 0 1 3 3v12a3 3 0 0 1 -3 3h-12a3 3 0 0 1 -3 -3v-12a3 3 0 0 1 3 -3zm-4 4a1 1 0 0 0 -1 1v1h-2v-1a1 1 0 0 0 -.883 -.993l-.117 -.007a1 1 0 0 0 -1 1v1h-1a1 1 0 0 0 -.993 .883l-.007 .117a1 1 0 0 0 1 1h1v2h-1a1 1 0 0 0 -.993 .883l-.007 .117a1 1 0 0 0 1 1h1v1a1 1 0 0 0 .883 .993l.117 .007a1 1 0 0 0 1 -1v-1h2v1a1 1 0 0 0 .883 .993l.117 .007a1 1 0 0 0 1 -1v-1h1a1 1 0 0 0 .993 -.883l.007 -.117a1 1 0 0 0 -1 -1h-1v-2h1a1 1 0 0 0 .993 -.883l.007 -.117a1 1 0 0 0 -1 -1h-1v-1a1 1 0 0 0 -.883 -.993zm-1 4v2h-2v-2z" />
</svg>
