<!--
version: "2.15"
unicode: "fa3f"
-->
<svg
  xmlns="http://www.w3.org/2000/svg"
  width="24"
  height="24"
  viewBox="0 0 24 24"
  fill="currentColor"
>
  <path d="M14.897 1a4 4 0 0 1 2.664 1.016l.165 .156l4.1 4.1a4 4 0 0 1 1.168 2.605l.006 .227v5.794a4 4 0 0 1 -1.016 2.664l-.156 .165l-4.1 4.1a4 4 0 0 1 -2.603 1.168l-.227 .006h-5.795a3.999 3.999 0 0 1 -2.664 -1.017l-.165 -.156l-4.1 -4.1a4 4 0 0 1 -1.168 -2.604l-.006 -.227v-5.794a4 4 0 0 1 1.016 -2.664l.156 -.165l4.1 -4.1a4 4 0 0 1 2.605 -1.168l.227 -.006h5.793zm-2.897 14a1 1 0 0 0 -.993 .883l-.007 .117l.007 .127a1 1 0 0 0 1.986 0l.007 -.117l-.007 -.127a1 1 0 0 0 -.993 -.883zm1.368 -6.673a2.98 2.98 0 0 0 -3.631 .728a1 1 0 0 0 1.44 1.383l.171 -.18a.98 .98 0 0 1 1.11 -.15a1 1 0 0 1 -.34 1.886l-.232 .012a1 1 0 0 0 .111 1.994a3 3 0 0 0 1.371 -5.673z" />
</svg>
