<!--
unicode: "100a2"
version: "3.22"
-->
<svg
  xmlns="http://www.w3.org/2000/svg"
  width="24"
  height="24"
  viewBox="0 0 24 24"
  fill="currentColor"
>
  <path d="M20 5a3 3 0 0 1 3 3v8a3 3 0 0 1 -3 3h-16a3 3 0 0 1 -3 -3v-8a3 3 0 0 1 3 -3zm-14 8a1 1 0 0 0 -1 1v.01a1 1 0 0 0 2 0v-.01a1 1 0 0 0 -1 -1m12 0a1 1 0 0 0 -1 1v.01a1 1 0 0 0 2 0v-.01a1 1 0 0 0 -1 -1m-7.998 0a1 1 0 0 0 -.004 2l4 .01a1 1 0 0 0 .005 -2zm-4.002 -4a1 1 0 0 0 -1 1v.01a1 1 0 0 0 2 0v-.01a1 1 0 0 0 -1 -1m4 0a1 1 0 0 0 -1 1v.01a1 1 0 0 0 2 0v-.01a1 1 0 0 0 -1 -1m4 0a1 1 0 0 0 -1 1v.01a1 1 0 0 0 2 0v-.01a1 1 0 0 0 -1 -1m4 0a1 1 0 0 0 -1 1v.01a1 1 0 0 0 2 0v-.01a1 1 0 0 0 -1 -1" />
</svg>
