<!--
unicode: "fe1c"
version: "3.0"
-->
<svg
  xmlns="http://www.w3.org/2000/svg"
  width="24"
  height="24"
  viewBox="0 0 24 24"
  fill="currentColor"
>
  <path d="M9 3a2 2 0 0 1 2 2v4a2 2 0 0 1 -2 2h-4a2 2 0 0 1 -2 -2v-4a2 2 0 0 1 2 -2z" />
  <path d="M19 3a2 2 0 0 1 2 2v4a2 2 0 0 1 -2 2h-4a2 2 0 0 1 -2 -2v-4a2 2 0 0 1 2 -2z" />
  <path d="M9 13a2 2 0 0 1 2 2v4a2 2 0 0 1 -2 2h-4a2 2 0 0 1 -2 -2v-4a2 2 0 0 1 2 -2z" />
  <path d="M19 13a2 2 0 0 1 2 2v4a2 2 0 0 1 -2 2h-4a2 2 0 0 1 -2 -2v-4a2 2 0 0 1 2 -2z" />
</svg>
