<!--
version: "2.15"
unicode: "fa48"
-->
<svg
  xmlns="http://www.w3.org/2000/svg"
  width="24"
  height="24"
  viewBox="0 0 24 24"
  fill="currentColor"
>
  <path d="M14.872 14.287l6.522 6.52a2.996 2.996 0 0 1 -2.218 1.188l-.176 .005h-14a2.995 2.995 0 0 1 -2.394 -1.191l6.521 -6.522l2.318 1.545l.116 .066a1 1 0 0 0 .878 0l.116 -.066l2.317 -1.545z" />
  <path d="M2 9.535l5.429 3.62l-5.429 5.43z" />
  <path d="M22 9.535v9.05l-5.43 -5.43z" />
  <path d="M12.44 2.102l.115 .066l8.444 5.629l-8.999 6l-9 -6l8.445 -5.63a1 1 0 0 1 .994 -.065z" />
</svg>
