<!--
unicode: "fe10"
version: "3.0"
-->
<svg
  xmlns="http://www.w3.org/2000/svg"
  width="24"
  height="24"
  viewBox="0 0 24 24"
  fill="currentColor"
>
  <path d="M19 3a3 3 0 0 1 1 5.829v1.171a3 3 0 0 1 -3 3h-4v2.171a3.001 3.001 0 1 1 -4 2.829l.005 -.176a3 3 0 0 1 1.995 -2.654v-2.17h-5v2.171a3.001 3.001 0 1 1 -4 2.829l.005 -.176a3 3 0 0 1 1.995 -2.654v-6.341a3 3 0 0 1 -2 -2.829l.005 -.176a3 3 0 1 1 3.996 3.005l-.001 2.171h5v-2.17a3 3 0 0 1 -2 -2.83l.005 -.176a3 3 0 1 1 3.996 3.005l-.001 2.171h4a1 1 0 0 0 1 -1v-1.17a3 3 0 0 1 -2 -2.83l.005 -.176a3 3 0 0 1 2.995 -2.824" />
</svg>
