<!--
-->
<svg
  xmlns="http://www.w3.org/2000/svg"
  width="24"
  height="24"
  viewBox="0 0 24 24"
  fill="currentColor"
>
  <path d="M20.901 14.995l-.044 -.006a.4 .4 0 0 1 -.102 -.02l-.045 -.012l-.048 -.017l-.045 -.016l-.043 -.02l-.045 -.022l-.04 -.024l-.044 -.026l-.043 -.032l-.036 -.027a1 1 0 0 1 -.073 -.066l-2.707 -2.707h-6.586a2 2 0 0 1 -2 -2v-6a2 2 0 0 1 2 -2h9a2 2 0 0 1 2 2v10a1 1 0 0 1 -.076 .383l-.02 .043l-.022 .045l-.024 .04l-.026 .044l-.032 .043l-.027 .036a1 1 0 0 1 -.578 .347l-.052 .008l-.044 .006a1 1 0 0 1 -.198 0" />
  <path d="M7 8.999v1.001a4 4 0 0 0 4 4h4v3a2 2 0 0 1 -2 2h-6.586l-2.707 2.707c-.63 .63 -1.707 .184 -1.707 -.707v-10a2 2 0 0 1 2 -2z" />
</svg>
