<!--
version: "2.9"
unicode: "f7f3"
-->
<svg
  xmlns="http://www.w3.org/2000/svg"
  width="24"
  height="24"
  viewBox="0 0 24 24"
  fill="currentColor"
>
  <path d="M17 3.34a10 10 0 1 1 -14.995 8.984l-.005 -.324l.005 -.324a10 10 0 0 1 14.995 -8.336zm-2 10.66h-6l-.117 .007a1 1 0 0 0 0 1.986l.117 .007h6l.117 -.007a1 1 0 0 0 0 -1.986l-.117 -.007zm-5.99 -5l-.127 .007a1 1 0 0 0 0 1.986l.117 .007l.127 -.007a1 1 0 0 0 0 -1.986l-.117 -.007zm6 0l-.127 .007a1 1 0 0 0 0 1.986l.117 .007l.127 -.007a1 1 0 0 0 0 -1.986l-.117 -.007z" />
</svg>
