<!--
unicode: "ff0a"
version: "3.6"
-->
<svg
  xmlns="http://www.w3.org/2000/svg"
  width="24"
  height="24"
  viewBox="0 0 24 24"
  fill="currentColor"
>
  <path d="M12 2c5.523 0 10 4.477 10 10s-4.477 10 -10 10a10 10 0 1 1 0 -20m0 12a4.5 4.5 0 0 0 -3.214 1.35a1 1 0 1 0 1.428 1.4a2.5 2.5 0 0 1 3.572 0a1 1 0 0 0 1.428 -1.4a4.5 4.5 0 0 0 -3.214 -1.35m-3.553 -5.895a1 1 0 0 0 -.894 1.788l2 1a1 1 0 0 0 .894 -1.788zm8.447 .447a1 1 0 0 0 -1.341 -.447l-2 1a1 1 0 0 0 .894 1.788l2 -1a1 1 0 0 0 .447 -1.341" />
</svg>
