<!--
tags: [face, emoji, emotion]
category: Filled
version: "2.9"
unicode: "f7f6"
-->
<svg
  xmlns="http://www.w3.org/2000/svg"
  width="24"
  height="24"
  viewBox="0 0 24 24"
  fill="none"
  stroke="currentColor"
  stroke-width="2"
  stroke-linecap="round"
  stroke-linejoin="round"
>
  <path d="M17 3.34a10 10 0 1 1 -14.995 8.984l-.005 -.324l.005 -.324a10 10 0 0 1 14.995 -8.336zm-7.99 5.66l-.127 .007a1 1 0 0 0 0 1.986l.117 .007l.127 -.007a1 1 0 0 0 0 -1.986l-.117 -.007zm6 0l-.127 .007a1 1 0 0 0 0 1.986l.117 .007l.127 -.007a1 1 0 0 0 0 -1.986l-.117 -.007z" stroke-width="0" fill="currentColor" />
</svg>
