<!--
unicode: "1009e"
version: "3.22"
-->
<svg
  xmlns="http://www.w3.org/2000/svg"
  width="24"
  height="24"
  viewBox="0 0 24 24"
  fill="currentColor"
>
  <path d="M12.002 4c2.866 0 6.7 1.365 9.532 3.155a1 1 0 0 1 .45 1.024l-2 11a1 1 0 0 1 -.984 .821h-14a1 1 0 0 1 -.984 -.821l-2 -11a1 1 0 0 1 .45 -1.024c2.834 -1.792 6.724 -3.16 9.536 -3.155m-.002 5a1 1 0 0 0 -1 1v1h-1a1 1 0 0 0 -.993 .883l-.007 .117a1 1 0 0 0 1 1h1v1a1 1 0 0 0 .883 .993l.117 .007a1 1 0 0 0 1 -1v-1h1a1 1 0 0 0 .993 -.883l.007 -.117a1 1 0 0 0 -1 -1h-1v-1a1 1 0 0 0 -.883 -.993z" />
</svg>
