<!--
-->
<svg
  xmlns="http://www.w3.org/2000/svg"
  width="24"
  height="24"
  viewBox="0 0 24 24"
  fill="currentColor"
>
  <path d="M9.928 3.629l2 5a1 1 0 0 1 -.414 1.228l-1.67 1.003a9.9 9.9 0 0 0 3.296 3.297l1.003 -1.671a1 1 0 0 1 1.228 -.414l5 2a1 1 0 0 1 .629 .928v4c0 1.657 -1.343 3 -3.06 2.998c-8.579 -.521 -15.418 -7.36 -15.94 -15.998a3 3 0 0 1 3 -3h4a1 1 0 0 1 .928 .629" />
  <path d="M21.707 3.293a1 1 0 0 1 0 1.414l-4 4a1 1 0 0 1 -1.414 0l-2 -2a1 1 0 1 1 1.414 -1.414l1.293 1.293l3.293 -3.293a1 1 0 0 1 1.414 0" />
</svg>
