<!--
unicode: "10076"
version: "3.20"
-->
<svg
  xmlns="http://www.w3.org/2000/svg"
  width="24"
  height="24"
  viewBox="0 0 24 24"
  fill="currentColor"
>
  <path d="M17 2a3 3 0 0 1 3 3v14a3 3 0 0 1 -3 3h-10a3 3 0 0 1 -3 -3v-14a3 3 0 0 1 3 -3zm.01 16h-.01a1 1 0 0 0 -.117 1.993l.127 .007a1 1 0 0 0 0 -2m-5.01 -10a3 3 0 0 0 -3 3v2a3 3 0 0 0 4.293 2.708l.5 .5a1 1 0 0 0 1.414 -1.415l-.499 -.5c.187 -.392 .292 -.83 .292 -1.293v-2a3 3 0 0 0 -3 -3m0 2a1 1 0 0 1 1 1v2a1 1 0 0 1 -2 0v-2a1 1 0 0 1 1 -1m-4.99 -6h-.01a1 1 0 0 0 -.117 1.993l.127 .007a1 1 0 1 0 0 -2" />
</svg>
