<!--
-->
<svg
  xmlns="http://www.w3.org/2000/svg"
  width="24"
  height="24"
  viewBox="0 0 24 24"
  fill="currentColor"
>
  <path d="M17 2a3 3 0 0 1 3 3v14a3 3 0 0 1 -3 3h-10a3 3 0 0 1 -3 -3v-14a3 3 0 0 1 3 -3zm.01 16h-.01a1 1 0 0 0 -.117 1.993l.127 .007a1 1 0 0 0 0 -2m-5.26 -10l-.133 .006a1.3 1.3 0 0 0 -1.026 .711l-.583 1.175l-1.3 .19a1.29 1.29 0 0 0 -1.045 .877l-.038 .143c-.087 .429 .049 .878 .368 1.187l.937 .91l-.22 1.29c-.08 .493 .121 .979 .518 1.265l.122 .078c.378 .213 .842 .224 1.232 .02l1.167 -.611l1.165 .61c.431 .229 .96 .192 1.36 -.097l.114 -.093c.322 -.295 .476 -.737 .4 -1.174l-.22 -1.287l.94 -.913c.353 -.346 .48 -.86 .327 -1.327l-.048 -.125a1.3 1.3 0 0 0 -.997 -.754l-1.3 -.19l-.581 -1.172a1.3 1.3 0 0 0 -1.16 -.72m-4.739 -3.999h-.01a1 1 0 0 0 -.117 1.993l.127 .007a1 1 0 1 0 0 -2" />
</svg>
