<!--
unicode: "1007f"
version: "3.20"
-->
<svg
  xmlns="http://www.w3.org/2000/svg"
  width="24"
  height="24"
  viewBox="0 0 24 24"
  fill="currentColor"
>
  <path d="M17 2a3 3 0 0 1 3 3v14a3 3 0 0 1 -3 3h-10a3 3 0 0 1 -3 -3v-14a3 3 0 0 1 3 -3zm.01 16h-.01a1 1 0 0 0 -.117 1.993l.127 .007a1 1 0 0 0 0 -2m-3.01 -10a1 1 0 0 0 -1 1v2h-2v-2a1 1 0 0 0 -2 0v2a2 2 0 0 0 2 2h2v2a1 1 0 0 0 .883 .993l.117 .007a1 1 0 0 0 1 -1v-6a1 1 0 0 0 -1 -1m-6.99 -4h-.01a1 1 0 0 0 -.117 1.993l.127 .007a1 1 0 1 0 0 -2" />
</svg>
