<!--
category: Filled
unicode: "fe0b"
version: "3.0"
-->
<svg
  xmlns="http://www.w3.org/2000/svg"
  width="24"
  height="24"
  viewBox="0 0 24 24"
  fill="currentColor"
>
  <path d="M19 4a3 3 0 0 1 3 3v10a3 3 0 0 1 -3 3h-14a3 3 0 0 1 -3 -3v-10a3 3 0 0 1 3 -3zm-4.2 5.4c-.577 -.769 -1.8 -.361 -1.8 .6v4a1 1 0 0 0 1 1l.117 -.007a1 1 0 0 0 .883 -.993v-1l1.2 1.6c.577 .769 1.8 .361 1.8 -.6v-4a1 1 0 0 0 -1 -1l-.117 .007a1 1 0 0 0 -.883 .993v1zm-6.8 -.4h-1a1 1 0 1 0 0 2v3a1 1 0 0 0 2 0v-4a1 1 0 0 0 -1 -1m3 3.5a1 1 0 0 0 -1 1v.01a1 1 0 0 0 2 0v-.01a1 1 0 0 0 -1 -1m0 -3a1 1 0 0 0 -1 1v.01a1 1 0 0 0 2 0v-.01a1 1 0 0 0 -1 -1" />
</svg>
