<!--
tags: [change, place, position, move, exchange]
category: Filled
version: "2.0"
unicode: "f69c"
-->
<svg
  xmlns="http://www.w3.org/2000/svg"
  width="24"
  height="24"
  viewBox="0 0 24 24"
  fill="currentColor"
>
  <path d="M8 2h-4a2 2 0 0 0 -2 2v4a2 2 0 0 0 2 2h4a2 2 0 0 0 2 -2v-4a2 2 0 0 0 -2 -2z" />
  <path d="M20 14h-4a2 2 0 0 0 -2 2v4a2 2 0 0 0 2 2h4a2 2 0 0 0 2 -2v-4a2 2 0 0 0 -2 -2z" />
  <path d="M16.707 2.293a1 1 0 0 1 .083 1.32l-.083 .094l-1.293 1.293h3.586a3 3 0 0 1 2.995 2.824l.005 .176v3a1 1 0 0 1 -1.993 .117l-.007 -.117v-3a1 1 0 0 0 -.883 -.993l-.117 -.007h-3.585l1.292 1.293a1 1 0 0 1 -1.32 1.497l-.094 -.083l-3 -3a.98 .98 0 0 1 -.28 -.872l.036 -.146l.04 -.104c.058 -.126 .14 -.24 .245 -.334l2.959 -2.958a1 1 0 0 1 1.414 0z" />
  <path d="M3 12a1 1 0 0 1 .993 .883l.007 .117v3a1 1 0 0 0 .883 .993l.117 .007h3.585l-1.292 -1.293a1 1 0 0 1 -.083 -1.32l.083 -.094a1 1 0 0 1 1.32 -.083l.094 .083l3 3a.98 .98 0 0 1 .28 .872l-.036 .146l-.04 .104a1.02 1.02 0 0 1 -.245 .334l-2.959 2.958a1 1 0 0 1 -1.497 -1.32l.083 -.094l1.291 -1.293h-3.584a3 3 0 0 1 -2.995 -2.824l-.005 -.176v-3a1 1 0 0 1 1 -1z" />
</svg>
