<!--
tags: [dive, diving, water, open water, underwater, pressure, compressed air, air]
category: Sport
-->
<svg
  xmlns="http://www.w3.org/2000/svg"
  width="24"
  height="24"
  viewBox="0 0 24 24"
  fill="currentColor"
>
  <path d="M12 6a5 5 0 0 0-5 5v4a1 1 0 0 0 1 1h8a1 1 0 0 0 1-1v-4a5 5 0 0 0-5-5Z" />
  <path d="M8 18a1 1 0 0 0-1 1 3 3 0 0 0 3 3h4a3 3 0 0 0 3-3 1 1 0 0 0-1-1H8Z" />
  <path d="M15 3H8v2h7a1 1 0 1 0 0-2Z" />
  <rect width="2" height="4" x="11" y="3" />
  <circle cx="12" cy="4" r="1.5" />
  <circle cx="8" cy="4" r="2" />
</svg>