<!--
category: Filled
version: "3.0.0-alpha.1"
-->
<svg
  xmlns="http://www.w3.org/2000/svg"
  width="24"
  height="24"
  viewBox="0 0 24 24"
  fill="none"
  stroke="currentColor"
  stroke-width="2"
  stroke-linecap="round"
  stroke-linejoin="round"
>
  <path d="M20.01 19a1 1 0 0 1 .117 1.993L20 21a1 1 0 0 1-.117-1.993zm-16 0a1 1 0 0 1 0 2 1 1 0 0 1-.127-1.993zm4 0a1 1 0 0 1 0 2 1 1 0 0 1-.127-1.993zm4 0a1 1 0 0 1 .117 1.993L12 21a1 1 0 0 1-.117-1.993zm4 0a1 1 0 0 1 .117 1.993L16 21a1 1 0 0 1-.117-1.993zm4-16a1 1 0 0 1 .117 1.993L20 5a1 1 0 0 1-.117-1.993zm-16 0a1 1 0 1 1 0 2 1 1 0 0 1-.127-1.993zm4 0a1 1 0 1 1 0 2 1 1 0 0 1-.127-1.993zm4 0a1 1 0 0 1 .117 1.993L12 5a1 1 0 0 1-.117-1.993zM16 3a1 1 0 0 1 1 1 1 1 0 1 1-2 .01c0-.562.448-1.01 1-1.01m3 4a2 2 0 0 1 2 2v6a2 2 0 0 1-2 2H5a2 2 0 0 1-2-2V9a2 2 0 0 1 2-2z" stroke-width="0" fill="currentColor" />
</svg>
