<!--
tags: [gear, outfit, mocker]
category: Filled
version: "2.0"
unicode: "f6a0"
-->
<svg
  xmlns="http://www.w3.org/2000/svg"
  width="24"
  height="24"
  viewBox="0 0 24 24"
  fill="currentColor"
>
  <path d="M14.883 3.007l.095 -.007l.112 .004l.113 .017l.113 .03l6 2a1 1 0 0 1 .677 .833l.007 .116v5a1 1 0 0 1 -.883 .993l-.117 .007h-2v7a2 2 0 0 1 -1.85 1.995l-.15 .005h-10a2 2 0 0 1 -1.995 -1.85l-.005 -.15v-7h-2a1 1 0 0 1 -.993 -.883l-.007 -.117v-5a1 1 0 0 1 .576 -.906l.108 -.043l6 -2a1 1 0 0 1 1.316 .949a2 2 0 0 0 3.995 .15l.009 -.24l.017 -.113l.037 -.134l.044 -.103l.05 -.092l.068 -.093l.069 -.08c.056 -.054 .113 -.1 .175 -.14l.096 -.053l.103 -.044l.108 -.032l.112 -.02z" />
</svg>
