<!--
version: "3.37"
-->
<svg
  xmlns="http://www.w3.org/2000/svg"
  width="24"
  height="24"
  viewBox="0 0 24 24"
  fill="currentColor"
>
  <path d="M16 19a1 1 0 0 1 0 -2a1 1 0 0 0 1 -1c0 -1.333 2 -1.333 2 0a1 1 0 0 0 1 1c1.333 0 1.333 2 0 2a1 1 0 0 0 -1 1c0 1.333 -2 1.333 -2 0a1 1 0 0 0 -1 -1" />
  <path d="M3 11a5 5 0 0 0 5 -5c0 -1.333 2 -1.333 2 0a5 5 0 0 0 5 5c1.333 0 1.333 2 0 2a5 5 0 0 0 -5 5a1 1 0 0 1 -2 0a5 5 0 0 0 -5 -5c-1.333 0 -1.333 -2 0 -2" />
  <path d="M16 7a1 1 0 0 1 0 -2a1 1 0 0 0 1 -1c0 -1.333 2 -1.333 2 0a1 1 0 0 0 1 1c1.333 0 1.333 2 0 2a1 1 0 0 0 -1 1c0 1.333 -2 1.333 -2 0a1 1 0 0 0 -1 -1" />
</svg>
