<!--
version: "2.27"
unicode: "fb32"
-->
<svg
  xmlns="http://www.w3.org/2000/svg"
  width="24"
  height="24"
  viewBox="0 0 24 24"
  fill="currentColor"
>
  <path d="M19 2a3 3 0 0 1 3 3v14a3 3 0 0 1 -3 3h-14a3 3 0 0 1 -3 -3v-14a3 3 0 0 1 3 -3zm-6.293 5.293a1 1 0 0 0 -1.414 0l-4 4l-.083 .094l-.064 .092l-.052 .098l-.044 .11l-.03 .112l-.017 .126l-.003 .075l.004 .09l.007 .058l.025 .118l.035 .105l.054 .113l.071 .111c.03 .04 .061 .077 .097 .112l4 4l.094 .083a1 1 0 0 0 1.32 -.083l.083 -.094a1 1 0 0 0 -.083 -1.32l-2.292 -2.293h5.585l.117 -.007a1 1 0 0 0 -.117 -1.993h-5.585l2.292 -2.293l.083 -.094a1 1 0 0 0 -.083 -1.32z" />
</svg>
