<!--
unicode: "fdd8"
version: "3.0"
-->
<svg
  xmlns="http://www.w3.org/2000/svg"
  width="24"
  height="24"
  viewBox="0 0 24 24"
  fill="currentColor"
>
  <path d="M11.676 2.001l.324 -.001c7.752 0 10 2.248 10 10l-.005 .642c-.126 7.235 -2.461 9.358 -9.995 9.358l-.642 -.005c-7.13 -.125 -9.295 -2.395 -9.358 -9.67v-.325c0 -7.643 2.185 -9.936 9.676 -9.999m2.567 5.029a1 1 0 0 0 -1.213 .727l-1.03 4.118l-1.03 -4.118a1 1 0 1 0 -1.94 .486l2 8c.252 1.01 1.688 1.01 1.94 0l2 -8a1 1 0 0 0 -.727 -1.213" />
</svg>
