---
category: Filled
version: "3.0.0-alpha.1"
---
<svg
  xmlns="http://www.w3.org/2000/svg"
  width="24"
  height="24"
  viewBox="0 0 24 24"
  fill="none"
  stroke="currentColor"
  stroke-width="2"
  stroke-linecap="round"
  stroke-linejoin="round"
>
  <path d="M19 2a3 3 0 0 1 3 3v14a3 3 0 0 1-3 3H5a3 3 0 0 1-3-3V5a3 3 0 0 1 3-3zm-5 5a1 1 0 0 0-1 1v3h-2V8a1 1 0 0 0-.883-.993L10 7a1 1 0 0 0-1 1v8a1 1 0 0 0 2 0v-3h2v3a1 1 0 0 0 .883.993L14 17a1 1 0 0 0 1-1V8a1 1 0 0 0-1-1" stroke-width="0" fill="currentColor" />
</svg>
