<!--
category: Filled
unicode: "fddc"
version: "3.0"
-->
<svg
  xmlns="http://www.w3.org/2000/svg"
  width="24"
  height="24"
  viewBox="0 0 24 24"
  fill="currentColor"
>
  <path d="M11.676 2.001l.324 -.001c7.752 0 10 2.248 10 10l-.005 .642c-.126 7.235 -2.461 9.358 -9.995 9.358l-.642 -.005c-7.13 -.125 -9.295 -2.395 -9.358 -9.67v-.325c0 -7.643 2.185 -9.936 9.676 -9.999m.324 4.999h-2a1 1 0 0 0 -1 1v8a1 1 0 0 0 1 1l.117 -.007a1 1 0 0 0 .883 -.993v-2.332l2.2 2.932a1 1 0 0 0 1.4 .2l.096 -.081a1 1 0 0 0 .104 -1.319l-1.903 -2.538l.115 -.037a3.001 3.001 0 0 0 -1.012 -5.825m0 2a1 1 0 0 1 0 2h-1v-2z" />
</svg>
