<!--
tags: [shape, keyboard, button, key, hotkey]
category: Filled
version: "2.4"
unicode: "f776"
-->
<svg
  xmlns="http://www.w3.org/2000/svg"
  width="24"
  height="24"
  viewBox="0 0 24 24"
  fill="currentColor"
>
  <path d="M18.333 2c1.96 0 3.56 1.537 3.662 3.472l.005 .195v12.666c0 1.96 -1.537 3.56 -3.472 3.662l-.195 .005h-12.666a3.667 3.667 0 0 1 -3.662 -3.472l-.005 -.195v-12.666c0 -1.96 1.537 -3.56 3.472 -3.662l.195 -.005h12.666zm-3.333 6h-1l-.15 .005a2 2 0 0 0 -1.844 1.838l-.006 .157v1l.005 .15c.018 .236 .077 .46 .17 .667l.075 .152l.018 .03l-.018 .032c-.133 .24 -.218 .509 -.243 .795l-.007 .174v1l.005 .15a2 2 0 0 0 1.838 1.844l.157 .006h1l.15 -.005a2 2 0 0 0 1.844 -1.838l.006 -.157v-1l-.005 -.15a1.988 1.988 0 0 0 -.17 -.667l-.075 -.152l-.019 -.032l.02 -.03a2.01 2.01 0 0 0 .242 -.795l.007 -.174v-1l-.005 -.15a2 2 0 0 0 -1.838 -1.844l-.157 -.006zm-5 0h-2l-.117 .007a1 1 0 0 0 -.876 .876l-.007 .117v6l.007 .117a1 1 0 0 0 .876 .876l.117 .007l.117 -.007a1 1 0 0 0 .876 -.876l.007 -.117v-2h1l.117 -.007a1 1 0 0 0 0 -1.986l-.117 -.007h-1v-1h1l.117 -.007a1 1 0 0 0 0 -1.986l-.117 -.007zm5 5v1h-1v-1h1zm0 -3v1h-1v-1h1z" />
</svg>
