<!--
category: Filled
version: "2.27"
unicode: "fb3b"
-->
<svg
  xmlns="http://www.w3.org/2000/svg"
  width="24"
  height="24"
  viewBox="0 0 24 24"
  fill="currentColor"
>
  <path d="M19 2a3 3 0 0 1 3 3v14a3 3 0 0 1 -3 3h-14a3 3 0 0 1 -3 -3v-14a3 3 0 0 1 3 -3zm-2.293 6.293a1 1 0 0 0 -1.414 0l-3 3l-.083 .094a1 1 0 0 0 .083 1.32l3 3l.094 .083a1 1 0 0 0 1.32 -.083l.083 -.094a1 1 0 0 0 -.083 -1.32l-2.292 -2.293l2.292 -2.293l.083 -.094a1 1 0 0 0 -.083 -1.32zm-5 0a1 1 0 0 0 -1.414 0l-3 3l-.083 .094a1 1 0 0 0 .083 1.32l3 3l.094 .083a1 1 0 0 0 1.32 -.083l.083 -.094a1 1 0 0 0 -.083 -1.32l-2.292 -2.293l2.292 -2.293l.083 -.094a1 1 0 0 0 -.083 -1.32z" />
</svg>
