<!--
category: Filled
version: "3.0.0-alpha.1"
-->
<svg
  xmlns="http://www.w3.org/2000/svg"
  width="24"
  height="24"
  viewBox="0 0 24 24"
  fill="none"
  stroke="currentColor"
  stroke-width="2"
  stroke-linecap="round"
  stroke-linejoin="round"
>
  <path d="M11.676 2.001l.324 -.001c7.752 0 10 2.248 10 10l-.005 .642c-.126 7.235 -2.461 9.358 -9.995 9.358l-.642 -.005c-7.13 -.125 -9.295 -2.395 -9.358 -9.67v-.325c0 -7.643 2.185 -9.936 9.676 -9.999m-.782 5.552c-.471 -.944 -1.894 -.608 -1.894 .447v8a1 1 0 0 0 1 1l.117 -.007a1 1 0 0 0 .883 -.993v-3.764l2.106 4.211c.471 .944 1.894 .608 1.894 -.447v-8a1 1 0 0 0 -1 -1l-.117 .007a1 1 0 0 0 -.883 .993v3.764z" stroke-width="0" fill="currentColor" />
</svg>
