<!--
category: Filled
unicode: "fde9"
version: "3.0"
-->
<svg
  xmlns="http://www.w3.org/2000/svg"
  width="24"
  height="24"
  viewBox="0 0 24 24"
  fill="currentColor"
>
  <path d="M11.676 2.001l.324 -.001c7.752 0 10 2.248 10 10l-.005 .642c-.126 7.235 -2.461 9.358 -9.995 9.358l-.642 -.005c-7.13 -.125 -9.295 -2.395 -9.358 -9.67v-.325c0 -7.643 2.185 -9.936 9.676 -9.999m2.324 4.999h-4a1 1 0 0 0 -1 1v8a1 1 0 0 0 1 1h4a1 1 0 0 0 1 -1l-.007 -.117a1 1 0 0 0 -.993 -.883h-3v-2h1.5a1 1 0 0 0 .993 -.883l.007 -.117a1 1 0 0 0 -1 -1h-1.5v-2h3a1 1 0 0 0 0 -2" />
</svg>
