<!--
tags: [shape, number, digit]
category: Filled
version: "2.4"
unicode: "f77f"
-->
<svg
  xmlns="http://www.w3.org/2000/svg"
  width="24"
  height="24"
  viewBox="0 0 24 24"
  fill="currentColor"
>
  <path d="M12 2l.642 .005l.616 .017l.299 .013l.579 .034l.553 .046c4.687 .455 6.65 2.333 7.166 6.906l.03 .29l.046 .553l.041 .727l.006 .15l.017 .617l.005 .642l-.005 .642l-.017 .616l-.013 .299l-.034 .579l-.046 .553c-.455 4.687 -2.333 6.65 -6.906 7.166l-.29 .03l-.553 .046l-.727 .041l-.15 .006l-.617 .017l-.642 .005l-.642 -.005l-.616 -.017l-.299 -.013l-.579 -.034l-.553 -.046c-4.687 -.455 -6.65 -2.333 -7.166 -6.906l-.03 -.29l-.046 -.553l-.041 -.727l-.006 -.15l-.017 -.617l-.004 -.318v-.648l.004 -.318l.017 -.616l.013 -.299l.034 -.579l.046 -.553c.455 -4.687 2.333 -6.65 6.906 -7.166l.29 -.03l.553 -.046l.727 -.041l.15 -.006l.617 -.017c.21 -.003 .424 -.005 .642 -.005zm2 5h-4l-.117 .007a1 1 0 0 0 -.876 .876l-.007 .117l.007 .117a1 1 0 0 0 .876 .876l.117 .007h2.718l-1.688 6.757l-.022 .115a1 1 0 0 0 1.927 .482l.035 -.111l2 -8l.021 -.112a1 1 0 0 0 -.878 -1.125l-.113 -.006z" />
</svg>
