<!--
tags: [shape, number, digit]
category: Filled
version: "2.4"
unicode: "f769"
-->
<svg
  xmlns="http://www.w3.org/2000/svg"
  width="24"
  height="24"
  viewBox="0 0 24 24"
  fill="currentColor"
>
  <path d="M18.333 2c1.96 0 3.56 1.537 3.662 3.472l.005 .195v12.666c0 1.96 -1.537 3.56 -3.472 3.662l-.195 .005h-12.666a3.667 3.667 0 0 1 -3.662 -3.472l-.005 -.195v-12.666c0 -1.96 1.537 -3.56 3.472 -3.662l.195 -.005h12.666zm-5.333 5h-2l-.15 .005a2 2 0 0 0 -1.844 1.838l-.006 .157v6l.005 .15a2 2 0 0 0 1.838 1.844l.157 .006h2l.15 -.005a2 2 0 0 0 1.844 -1.838l.006 -.157v-2l-.005 -.15a2 2 0 0 0 -1.838 -1.844l-.157 -.006h-2v-2h2l.007 .117a1 1 0 0 0 1.993 -.117a2 2 0 0 0 -1.85 -1.995l-.15 -.005zm0 6v2h-2v-2h2z" />
</svg>
