<!--
version: "2.2"
unicode: "f6dc"
-->
<svg
  xmlns="http://www.w3.org/2000/svg"
  width="24"
  height="24"
  viewBox="0 0 24 24"
  fill="currentColor"
>
  <path d="M12 2l.324 .001l.318 .004l.616 .017l.299 .013l.579 .034l.553 .046c4.785 .464 6.732 2.411 7.196 7.196l.046 .553l.034 .579c.005 .098 .01 .198 .013 .299l.017 .616l.005 .642l-.005 .642l-.017 .616l-.013 .299l-.034 .579l-.046 .553c-.464 4.785 -2.411 6.732 -7.196 7.196l-.553 .046l-.579 .034c-.098 .005 -.198 .01 -.299 .013l-.616 .017l-.642 .005l-.642 -.005l-.616 -.017l-.299 -.013l-.579 -.034l-.553 -.046c-4.785 -.464 -6.732 -2.411 -7.196 -7.196l-.046 -.553l-.034 -.579a28.058 28.058 0 0 1 -.013 -.299l-.017 -.616c-.003 -.21 -.005 -.424 -.005 -.642l.001 -.324l.004 -.318l.017 -.616l.013 -.299l.034 -.579l.046 -.553c.464 -4.785 2.411 -6.732 7.196 -7.196l.553 -.046l.579 -.034c.098 -.005 .198 -.01 .299 -.013l.616 -.017c.21 -.003 .424 -.005 .642 -.005zm.707 5.293a1 1 0 0 0 -1.414 0l-4 4a1.037 1.037 0 0 0 -.2 .284l-.022 .052a.95 .95 0 0 0 -.06 .222l-.008 .067l-.002 .063v-.035v.073a1.034 1.034 0 0 0 .07 .352l.023 .052l.03 .061l.022 .037a1.2 1.2 0 0 0 .05 .074l.024 .03l.073 .082l4 4l.094 .083a1 1 0 0 0 1.32 -.083l.083 -.094a1 1 0 0 0 -.083 -1.32l-2.292 -2.293h5.585l.117 -.007a1 1 0 0 0 -.117 -1.993h-5.585l2.292 -2.293l.083 -.094a1 1 0 0 0 -.083 -1.32z" fill="currentColor" stroke-width="0" />
</svg>
