---
category: Filled
version: "3.0.0-alpha.1"
---
<svg
  xmlns="http://www.w3.org/2000/svg"
  width="24"
  height="24"
  viewBox="0 0 24 24"
  fill="none"
  stroke="currentColor"
  stroke-width="2"
  stroke-linecap="round"
  stroke-linejoin="round"
>
  <path d="M20.894 15.553a1 1 0 0 1-.447 1.341l-8 4a1 1 0 0 1-.894 0l-8-4a1 1 0 0 1 .894-1.788L12 18.88l7.554-3.775a1 1 0 0 1 1.341.447m0-4a1 1 0 0 1-.447 1.341l-8 4a1 1 0 0 1-.894 0l-8-4a1 1 0 0 1 .894-1.788L12 14.88l7.554-3.775a1 1 0 0 1 1.341.447M12.008 3q.056 0 .111.007l.111.02.086.024.012.006.012.002.029.014.05.019.016.009.012.005 8 4a1 1 0 0 1 0 1.788l-8 4a1 1 0 0 1-.894 0l-8-4a1 1 0 0 1 0-1.788l8-4 .011-.005.018-.01.078-.032.011-.002.013-.006.086-.024.11-.02.056-.005z" stroke-width="0" fill="currentColor" />
</svg>
