<!--
unicode: "10107"
version: "3.28"
-->
<svg
  xmlns="http://www.w3.org/2000/svg"
  width="24"
  height="24"
  viewBox="0 0 24 24"
  fill="currentColor"
>
  <path d="M18.407 16.993l.01 .01a1 1 0 0 1 -1.32 1.497l-.104 -.093a1 1 0 0 1 1.414 -1.414m-11.4 0l.01 .01a1 1 0 0 1 -1.32 1.497l-.104 -.093a1 1 0 0 1 1.414 -1.414m4.993 -9.993a5 5 0 1 1 -5 5l.005 -.217a5 5 0 0 1 4.995 -4.783m-4.993 -1.407l.01 .01a1 1 0 0 1 -1.32 1.497l-.104 -.093a1 1 0 0 1 1.414 -1.414m11.4 0l.01 .01a1 1 0 0 1 -1.32 1.497l-.104 -.093a1 1 0 1 1 1.414 -1.414m-14.397 5.407a1 1 0 0 1 .117 1.993l-.127 .007a1 1 0 0 1 -.117 -1.993zm7.99 -8a1 1 0 0 1 .993 .883l.007 .127a1 1 0 0 1 -1.993 .117l-.007 -.127a1 1 0 0 1 1 -1m8.01 8a1 1 0 0 1 .117 1.993l-.127 .007a1 1 0 0 1 -.117 -1.993zm-8.01 8a1 1 0 0 1 .993 .883l.007 .127a1 1 0 0 1 -1.993 .117l-.007 -.127a1 1 0 0 1 1 -1" />
</svg>
