<!--
unicode: "10108"
version: "3.28"
-->
<svg
  xmlns="http://www.w3.org/2000/svg"
  width="24"
  height="24"
  viewBox="0 0 24 24"
  fill="currentColor"
>
  <path d="M12 19a1 1 0 0 1 1 1v2a1 1 0 0 1 -2 0v-2a1 1 0 0 1 1 -1m-4.95 -2.05a1 1 0 0 1 0 1.414l-1.414 1.414a1 1 0 1 1 -1.414 -1.414l1.414 -1.414a1 1 0 0 1 1.414 0m11.314 0l1.414 1.414a1 1 0 0 1 -1.414 1.414l-1.414 -1.414a1 1 0 0 1 1.414 -1.414m-5.049 -9.836a5 5 0 1 1 -2.532 9.674a5 5 0 0 1 2.532 -9.674m-9.315 3.886a1 1 0 0 1 0 2h-2a1 1 0 0 1 0 -2zm18 0a1 1 0 0 1 0 2h-2a1 1 0 0 1 0 -2zm-16.364 -6.778l1.414 1.414a1 1 0 0 1 -1.414 1.414l-1.414 -1.414a1 1 0 0 1 1.414 -1.414m14.142 0a1 1 0 0 1 0 1.414l-1.414 1.414a1 1 0 0 1 -1.414 -1.414l1.414 -1.414a1 1 0 0 1 1.414 0m-7.778 -3.222a1 1 0 0 1 1 1v2a1 1 0 0 1 -2 0v-2a1 1 0 0 1 1 -1" />
</svg>
