<!--
unicode: "ff56"
version: "3.10"
-->
<svg
  xmlns="http://www.w3.org/2000/svg"
  width="24"
  height="24"
  viewBox="0 0 24 24"
  fill="currentColor"
>
  <path d="M16 7a5 5 0 1 1 -4.9 6.001l-4.685 -.001l1.292 1.293a1 1 0 0 1 .083 1.32l-.083 .094a1 1 0 0 1 -1.414 0l-3 -3a1 1 0 0 1 -.097 -.112l-.071 -.11l-.054 -.114l-.035 -.105l-.025 -.118l-.007 -.058l-.004 -.09l.003 -.075l.017 -.126l.03 -.111l.044 -.111l.052 -.098l.067 -.096l.08 -.09l3 -3a1 1 0 0 1 1.414 1.414l-1.292 1.293h4.685a5 5 0 0 1 4.9 -4" />
</svg>
