<!--
unicode: "10177"
version: "3.34"
-->
<svg
  xmlns="http://www.w3.org/2000/svg"
  width="24"
  height="24"
  viewBox="0 0 24 24"
  fill="currentColor"
>
  <path d="M19 3a2 2 0 0 1 2 2v2a2 2 0 0 1 -2 2h-14a2 2 0 0 1 -2 -2v-2a2 2 0 0 1 2 -2z" />
  <path d="M9 11a2 2 0 0 1 2 2v6a2 2 0 0 1 -2 2h-4a2 2 0 0 1 -2 -2v-6a2 2 0 0 1 2 -2z" />
  <path d="M20 11a1 1 0 0 1 0 2h-6a1 1 0 0 1 0 -2z" />
  <path d="M20 15a1 1 0 0 1 0 2h-6a1 1 0 0 1 0 -2z" />
  <path d="M20 19a1 1 0 0 1 0 2h-6a1 1 0 0 1 0 -2z" />
</svg>
