<!--
unicode: "fdbf"
version: "3.0"
-->
<svg
  xmlns="http://www.w3.org/2000/svg"
  width="24"
  height="24"
  viewBox="0 0 24 24"
  fill="currentColor"
>
  <path d="M4 15a1 1 0 0 1 1 1v2a1 1 0 0 0 1 1h2a1 1 0 0 1 0 2h-2a3 3 0 0 1 -3 -3v-2a1 1 0 0 1 1 -1" />
  <path d="M20 15a1 1 0 0 1 1 1v2a3 3 0 0 1 -3 3h-2a1 1 0 0 1 0 -2h2a1 1 0 0 0 1 -1v-2a1 1 0 0 1 1 -1" />
  <path d="M11 7a4 4 0 0 1 3.446 6.031l2.261 2.262a1 1 0 0 1 -1.414 1.414l-2.262 -2.26l-.031 .017a4 4 0 0 1 -6 -3.464l.005 -.2a4 4 0 0 1 3.995 -3.8" />
  <path d="M8 3a1 1 0 1 1 0 2h-2a1 1 0 0 0 -1 1v2a1 1 0 1 1 -2 0v-2a3 3 0 0 1 3 -3z" />
  <path d="M18 3a3 3 0 0 1 3 3v2a1 1 0 0 1 -2 0v-2a1 1 0 0 0 -1 -1h-2a1 1 0 0 1 0 -2z" />
</svg>
