---
category: Filled
version: "2.30"
unicode: "fc35"
---
<svg>
  <path d="M18 3a3 3 0 0 1 2.995 2.824l.005 .176v12a3 3 0 0 1 -2.824 2.995l-.176 .005h-12a3 3 0 0 1 -2.995 -2.824l-.005 -.176v-12a3 3 0 0 1 2.824 -2.995l.176 -.005h12zm0 2h-12a1 1 0 0 0 -.993 .883l-.007 .117v9h14v-9a1 1 0 0 0 -.883 -.993l-.117 -.007zm-7.387 3.21l.094 .083l1.293 1.292l1.293 -1.292a1 1 0 0 1 1.32 -.083l.094 .083a1 1 0 0 1 .083 1.32l-.083 .094l-2 2a1 1 0 0 1 -1.32 .083l-.094 -.083l-2 -2a1 1 0 0 1 1.32 -1.497z" stroke-width="0" fill="currentColor" />
</svg>
