<svg xmlns="http://www.w3.org/2000/svg" class="icon icon-tabler icon-tabler-air-balloon" width="24" height="24" viewBox="0 0 24 24" stroke-width="2" stroke="currentColor" fill="none" stroke-linecap="round" stroke-linejoin="round">
  <path stroke="none" d="M0 0h24v24H0z" fill="none"/>
  <path d="M10 19m0 1a1 1 0 0 1 1 -1h2a1 1 0 0 1 1 1v1a1 1 0 0 1 -1 1h-2a1 1 0 0 1 -1 -1z" />
  <path d="M12 16c3.314 0 6 -4.686 6 -8a6 6 0 1 0 -12 0c0 3.314 2.686 8 6 8z" />
  <path d="M12 9m-2 0a2 7 0 1 0 4 0a2 7 0 1 0 -4 0" />
</svg>


