<svg xmlns="http://www.w3.org/2000/svg" class="icon icon-tabler icon-tabler-alarm-minus-filled" width="24" height="24" viewBox="0 0 24 24" stroke-width="2" stroke="currentColor" fill="none" stroke-linecap="round" stroke-linejoin="round">
  <path stroke="none" d="M0 0h24v24H0z" fill="none"/>
  <path d="M16 6.072a8 8 0 1 1 -11.995 7.213l-.005 -.285l.005 -.285a8 8 0 0 1 11.995 -6.643zm-2 5.928h-4l-.117 .007a1 1 0 0 0 .117 1.993h4l.117 -.007a1 1 0 0 0 -.117 -1.993z" stroke-width="0" fill="currentColor" />
  <path d="M6.412 3.191a1 1 0 0 1 1.273 1.539l-.097 .08l-2.75 2a1 1 0 0 1 -1.273 -1.54l.097 -.08l2.75 -2z" stroke-width="0" fill="currentColor" />
  <path d="M16.191 3.412a1 1 0 0 1 1.291 -.288l.106 .067l2.75 2a1 1 0 0 1 -1.07 1.685l-.106 -.067l-2.75 -2a1 1 0 0 1 -.22 -1.397z" stroke-width="0" fill="currentColor" />
</svg>


