<svg xmlns="http://www.w3.org/2000/svg" class="icon icon-tabler icon-tabler-alert-triangle-filled" width="24" height="24" viewBox="0 0 24 24" stroke-width="2" stroke="currentColor" fill="none" stroke-linecap="round" stroke-linejoin="round">
  <path stroke="none" d="M0 0h24v24H0z" fill="none"/>
  <path d="M11.99 1.968c1.023 0 1.97 .521 2.512 1.359l.103 .172l7.1 12.25l.062 .126a3 3 0 0 1 -2.568 4.117l-.199 .008h-14l-.049 -.003l-.112 .002a3 3 0 0 1 -2.268 -1.226l-.109 -.16a3 3 0 0 1 -.32 -2.545l.072 -.194l.06 -.125l7.092 -12.233a3 3 0 0 1 2.625 -1.548zm.02 12.032l-.127 .007a1 1 0 0 0 0 1.986l.117 .007l.127 -.007a1 1 0 0 0 0 -1.986l-.117 -.007zm-.01 -6a1 1 0 0 0 -.993 .883l-.007 .117v2l.007 .117a1 1 0 0 0 1.986 0l.007 -.117v-2l-.007 -.117a1 1 0 0 0 -.993 -.883z" stroke-width="0" fill="currentColor" />
</svg>


