<svg xmlns="http://www.w3.org/2000/svg" class="icon icon-tabler icon-tabler-align-box-left-middle-filled" width="24" height="24" viewBox="0 0 24 24" stroke-width="2" stroke="currentColor" fill="none" stroke-linecap="round" stroke-linejoin="round">
  <path stroke="none" d="M0 0h24v24H0z" fill="none"/>
  <path d="M18.222 3a2.778 2.778 0 0 1 2.778 2.778v12.444a2.778 2.778 0 0 1 -2.778 2.778h-12.444a2.778 2.778 0 0 1 -2.778 -2.778v-12.444a2.778 2.778 0 0 1 2.778 -2.778zm-9.222 11h-2l-.117 .007a1 1 0 0 0 .117 1.993h2l.117 -.007a1 1 0 0 0 -.117 -1.993zm4 -3h-6l-.117 .007a1 1 0 0 0 .117 1.993h6l.117 -.007a1 1 0 0 0 -.117 -1.993zm-2 -3h-4l-.117 .007a1 1 0 0 0 .117 1.993h4l.117 -.007a1 1 0 0 0 -.117 -1.993z" stroke-width="0" fill="currentColor" />
</svg>


