<svg xmlns="http://www.w3.org/2000/svg" class="icon icon-tabler icon-tabler-align-box-top-left-filled" width="24" height="24" viewBox="0 0 24 24" stroke-width="2" stroke="currentColor" fill="none" stroke-linecap="round" stroke-linejoin="round">
  <path stroke="none" d="M0 0h24v24H0z" fill="none"/>
  <path d="M18.222 3a2.778 2.778 0 0 1 2.778 2.778v12.444a2.778 2.778 0 0 1 -2.778 2.778h-12.444a2.778 2.778 0 0 1 -2.778 -2.778v-12.444a2.778 2.778 0 0 1 2.778 -2.778zm-8.222 3a1 1 0 0 0 -1 1v6l.007 .117a1 1 0 0 0 1.993 -.117v-6l-.007 -.117a1 1 0 0 0 -.993 -.883zm3 0a1 1 0 0 0 -1 1v4l.007 .117a1 1 0 0 0 1.993 -.117v-4l-.007 -.117a1 1 0 0 0 -.993 -.883zm-6 0a1 1 0 0 0 -1 1v2l.007 .117a1 1 0 0 0 1.993 -.117v-2l-.007 -.117a1 1 0 0 0 -.993 -.883z" stroke-width="0" fill="currentColor" />
</svg>


