<svg xmlns="http://www.w3.org/2000/svg" class="icon icon-tabler icon-tabler-arrow-big-down-line-filled" width="24" height="24" viewBox="0 0 24 24" stroke-width="2" stroke="currentColor" fill="none" stroke-linecap="round" stroke-linejoin="round">
  <path stroke="none" d="M0 0h24v24H0z" fill="none"/>
  <path d="M9 5l-.117 .007a1 1 0 0 0 -.883 .993v4.999l-2.586 .001a2 2 0 0 0 -1.414 3.414l6.586 6.586a2 2 0 0 0 2.828 0l6.586 -6.586a2 2 0 0 0 .434 -2.18l-.068 -.145a2 2 0 0 0 -1.78 -1.089l-2.586 -.001v-4.999a1 1 0 0 0 -1 -1h-6z" stroke-width="0" fill="currentColor" />
  <path d="M15 2a1 1 0 0 1 .117 1.993l-.117 .007h-6a1 1 0 0 1 -.117 -1.993l.117 -.007h6z" stroke-width="0" fill="currentColor" />
</svg>


