<svg xmlns="http://www.w3.org/2000/svg" class="icon icon-tabler icon-tabler-arrow-big-down-filled" width="24" height="24" viewBox="0 0 24 24" stroke-width="2" stroke="currentColor" fill="none" stroke-linecap="round" stroke-linejoin="round">
  <path stroke="none" d="M0 0h24v24H0z" fill="none"/>
  <path d="M10 2l-.15 .005a2 2 0 0 0 -1.85 1.995v6.999l-2.586 .001a2 2 0 0 0 -1.414 3.414l6.586 6.586a2 2 0 0 0 2.828 0l6.586 -6.586a2 2 0 0 0 .434 -2.18l-.068 -.145a2 2 0 0 0 -1.78 -1.089l-2.586 -.001v-6.999a2 2 0 0 0 -2 -2h-4z" stroke-width="0" fill="currentColor" />
</svg>


