<svg xmlns="http://www.w3.org/2000/svg" class="icon icon-tabler icon-tabler-aspect-ratio-filled" width="24" height="24" viewBox="0 0 24 24" stroke-width="2" stroke="currentColor" fill="none" stroke-linecap="round" stroke-linejoin="round">
  <path stroke="none" d="M0 0h24v24H0z" fill="none"/>
  <path d="M19 4h-14a3 3 0 0 0 -3 3v10a3 3 0 0 0 3 3h14a3 3 0 0 0 3 -3v-10a3 3 0 0 0 -3 -3zm-10 3a1 1 0 0 1 .117 1.993l-.117 .007h-2v2a1 1 0 0 1 -.883 .993l-.117 .007a1 1 0 0 1 -.993 -.883l-.007 -.117v-3a1 1 0 0 1 .883 -.993l.117 -.007h3zm9 5a1 1 0 0 1 .993 .883l.007 .117v3a1 1 0 0 1 -.883 .993l-.117 .007h-3a1 1 0 0 1 -.117 -1.993l.117 -.007h2v-2a1 1 0 0 1 .883 -.993l.117 -.007z" stroke-width="0" fill="currentColor" />
</svg>


