<svg xmlns="http://www.w3.org/2000/svg" class="icon icon-tabler icon-tabler-augmented-reality" width="24" height="24" viewBox="0 0 24 24" stroke-width="2" stroke="currentColor" fill="none" stroke-linecap="round" stroke-linejoin="round">
  <desc>Download more icon variants from https://tabler-icons.io/i/augmented-reality</desc>
  <path stroke="none" d="M0 0h24v24H0z" fill="none"/>
  <path d="M4 8v-2a2 2 0 0 1 2 -2h2" />
  <path d="M4 16v2a2 2 0 0 0 2 2h2" />
  <path d="M16 4h2a2 2 0 0 1 2 2v2" />
  <path d="M16 20h2a2 2 0 0 0 2 -2v-2" />
  <path d="M12 12.5l4 -2.5" />
  <path d="M8 10l4 2.5v4.5l4 -2.5v-4.5l-4 -2.5z" />
  <path d="M8 10v4.5l4 2.5" />
</svg>


