<svg xmlns="http://www.w3.org/2000/svg" class="icon icon-tabler icon-tabler-backspace-filled" width="24" height="24" viewBox="0 0 24 24" stroke-width="2" stroke="currentColor" fill="none" stroke-linecap="round" stroke-linejoin="round">
  <path stroke="none" d="M0 0h24v24H0z" fill="none"/>
  <path d="M20 5a2 2 0 0 1 1.995 1.85l.005 .15v10a2 2 0 0 1 -1.85 1.995l-.15 .005h-11a1 1 0 0 1 -.608 -.206l-.1 -.087l-5.037 -5.04c-.809 -.904 -.847 -2.25 -.083 -3.23l.12 -.144l5 -5a1 1 0 0 1 .577 -.284l.131 -.009h11zm-7.489 4.14a1 1 0 0 0 -1.301 1.473l.083 .094l1.292 1.293l-1.292 1.293l-.083 .094a1 1 0 0 0 1.403 1.403l.094 -.083l1.293 -1.292l1.293 1.292l.094 .083a1 1 0 0 0 1.403 -1.403l-.083 -.094l-1.292 -1.293l1.292 -1.293l.083 -.094a1 1 0 0 0 -1.403 -1.403l-.094 .083l-1.293 1.292l-1.293 -1.292l-.094 -.083l-.102 -.07z" stroke-width="0" fill="currentColor" />
</svg>


