<svg xmlns="http://www.w3.org/2000/svg" class="icon icon-tabler icon-tabler-basket-check" width="24" height="24" viewBox="0 0 24 24" stroke-width="2" stroke="currentColor" fill="none" stroke-linecap="round" stroke-linejoin="round">
  <path stroke="none" d="M0 0h24v24H0z" fill="none"/>
  <path d="M17 10l-2 -6" />
  <path d="M7 10l2 -6" />
  <path d="M11 20h-3.756a3 3 0 0 1 -2.965 -2.544l-1.255 -7.152a2 2 0 0 1 1.977 -2.304h13.999a2 2 0 0 1 1.977 2.304l-.479 2.729" />
  <path d="M10 14a2 2 0 1 0 4 0a2 2 0 0 0 -4 0" />
  <path d="M15 19l2 2l4 -4" />
</svg>


