<svg xmlns="http://www.w3.org/2000/svg" class="icon icon-tabler icon-tabler-basket-pin" width="24" height="24" viewBox="0 0 24 24" stroke-width="2" stroke="currentColor" fill="none" stroke-linecap="round" stroke-linejoin="round">
  <path stroke="none" d="M0 0h24v24H0z" fill="none"/>
  <path d="M7 10l5 -6l5 6" />
  <path d="M12.5 20h-5.5c-.966 .024 -1.807 -.817 -2 -2l-2 -8h18l-.304 1.217" />
  <path d="M13.475 13.65a2 2 0 1 0 -1.475 3.35" />
  <path d="M21.121 20.121a3 3 0 1 0 -4.242 0c.418 .419 1.125 1.045 2.121 1.879c1.051 -.89 1.759 -1.516 2.121 -1.879z" />
  <path d="M19 18v.01" />
</svg>


