<svg xmlns="http://www.w3.org/2000/svg" class="icon icon-tabler icon-tabler-basket-heart" width="24" height="24" viewBox="0 0 24 24" stroke-width="2" stroke="currentColor" fill="none" stroke-linecap="round" stroke-linejoin="round">
  <path stroke="none" d="M0 0h24v24H0z" fill="none"/>
  <path d="M7 10l5 -6l5 6" />
  <path d="M10.5 20h-3.5c-.966 .024 -1.807 -.817 -2 -2l-2 -8h18l-.258 1.034" />
  <path d="M12 13a2 2 0 0 0 -1.782 2.908" />
  <path d="M18 22l3.35 -3.284a2.143 2.143 0 0 0 .005 -3.071a2.242 2.242 0 0 0 -3.129 -.006l-.224 .22l-.223 -.22a2.242 2.242 0 0 0 -3.128 -.006a2.143 2.143 0 0 0 -.006 3.071l3.355 3.296z" />
</svg>


