<svg xmlns="http://www.w3.org/2000/svg" class="icon icon-tabler icon-tabler-battery" width="24" height="24" viewBox="0 0 24 24" stroke-width="2" stroke="currentColor" fill="none" stroke-linecap="round" stroke-linejoin="round">
  <desc>Download more icon variants from https://tabler-icons.io/i/battery</desc>
  <path stroke="none" d="M0 0h24v24H0z" fill="none"/>
  <path d="M6 7h11a2 2 0 0 1 2 2v.5a0.5 .5 0 0 0 .5 .5a0.5 .5 0 0 1 .5 .5v3a0.5 .5 0 0 1 -.5 .5a0.5 .5 0 0 0 -.5 .5v.5a2 2 0 0 1 -2 2h-11a2 2 0 0 1 -2 -2v-6a2 2 0 0 1 2 -2" />
</svg>


