<svg xmlns="http://www.w3.org/2000/svg" class="icon icon-tabler icon-tabler-battery-charging" width="24" height="24" viewBox="0 0 24 24" stroke-width="2" stroke="currentColor" fill="none" stroke-linecap="round" stroke-linejoin="round">
  <desc>Download more icon variants from https://tabler-icons.io/i/battery-charging</desc>
  <path stroke="none" d="M0 0h24v24H0z" fill="none"/>
  <path d="M16 7h1a2 2 0 0 1 2 2v.5a0.5 .5 0 0 0 .5 .5a0.5 .5 0 0 1 .5 .5v3a0.5 .5 0 0 1 -.5 .5a0.5 .5 0 0 0 -.5 .5v.5a2 2 0 0 1 -2 2h-2" />
  <path d="M8 7h-2a2 2 0 0 0 -2 2v6a2 2 0 0 0 2 2h1" />
  <path d="M12 8l-2 4h3l-2 4" />
</svg>


