<svg xmlns="http://www.w3.org/2000/svg" class="icon icon-tabler icon-tabler-bell-search" width="24" height="24" viewBox="0 0 24 24" stroke-width="2" stroke="currentColor" fill="none" stroke-linecap="round" stroke-linejoin="round">
  <path stroke="none" d="M0 0h24v24H0z" fill="none"/>
  <path d="M11 17h-7a4 4 0 0 0 2 -3v-3a7 7 0 0 1 4 -6a2 2 0 1 1 4 0a7 7 0 0 1 4 6" />
  <path d="M9 17v1a3 3 0 0 0 2.685 2.984" />
  <path d="M18 18m-3 0a3 3 0 1 0 6 0a3 3 0 1 0 -6 0" />
  <path d="M20.2 20.2l1.8 1.8" />
</svg>


