<svg xmlns="http://www.w3.org/2000/svg" class="icon icon-tabler icon-tabler-bell-x" width="24" height="24" viewBox="0 0 24 24" stroke-width="2" stroke="currentColor" fill="none" stroke-linecap="round" stroke-linejoin="round">
  <desc>Download more icon variants from https://tabler-icons.io/i/bell-x</desc>
  <path stroke="none" d="M0 0h24v24H0z" fill="none"/>
  <path d="M10 5a2 2 0 1 1 4 0a7 7 0 0 1 4 6v3a4 4 0 0 0 2 3h-16a4 4 0 0 0 2 -3v-3a7 7 0 0 1 4 -6" />
  <path d="M9 17v1a3 3 0 0 0 6 0v-1" />
  <path d="M10.5 9.5l3 3m0 -3l-3 3" />
</svg>


