<svg xmlns="http://www.w3.org/2000/svg" class="icon icon-tabler icon-tabler-bell-off" width="24" height="24" viewBox="0 0 24 24" stroke-width="2" stroke="currentColor" fill="none" stroke-linecap="round" stroke-linejoin="round">
  <path stroke="none" d="M0 0h24v24H0z" fill="none"/>
  <path d="M9.346 5.353c.21 -.129 .428 -.246 .654 -.353a2 2 0 1 1 4 0a7 7 0 0 1 4 6v3m-1 3h-13a4 4 0 0 0 2 -3v-3a6.996 6.996 0 0 1 1.273 -3.707" />
  <path d="M9 17v1a3 3 0 0 0 6 0v-1" />
  <path d="M3 3l18 18" />
</svg>


