<svg xmlns="http://www.w3.org/2000/svg" class="icon icon-tabler icon-tabler-binary" width="24" height="24" viewBox="0 0 24 24" stroke-width="2" stroke="currentColor" fill="none" stroke-linecap="round" stroke-linejoin="round">
  <path stroke="none" d="M0 0h24v24H0z" fill="none"/>
  <path d="M11 10v-5h-1m8 14v-5h-1m-2 -9m0 .5a0.5 .5 0 0 1 .5 -.5h2a0.5 .5 0 0 1 .5 .5v4a0.5 .5 0 0 1 -.5 .5h-2a0.5 .5 0 0 1 -.5 -.5zm-5 8.5m0 .5a0.5 .5 0 0 1 .5 -.5h2a0.5 .5 0 0 1 .5 .5v4a0.5 .5 0 0 1 -.5 .5h-2a0.5 .5 0 0 1 -.5 -.5zm-4 -4.5h.01m-.01 9h.01" />
</svg>


