<svg xmlns="http://www.w3.org/2000/svg" class="icon icon-tabler icon-tabler-binary-off" width="24" height="24" viewBox="0 0 24 24" stroke-width="2" stroke="currentColor" fill="none" stroke-linecap="round" stroke-linejoin="round">
  <path stroke="none" d="M0 0h24v24H0z" fill="none"/>
  <path d="M11 7v-2h-1m8 14v-1m-2.5 -13h2a0.5 .5 0 0 1 .5 .5v4a0.5 .5 0 0 1 -.5 .5h-2a0.5 .5 0 0 1 -.5 -.5v-4a0.5 .5 0 0 1 .5 -.5zm-5 9h2a0.5 .5 0 0 1 .5 .5v4a0.5 .5 0 0 1 -.5 .5h-2a0.5 .5 0 0 1 -.5 -.5v-4a0.5 .5 0 0 1 .5 -.5zm-4.5 -4v.01m0 8.99v.01m-3 -16.01l18 18" />
</svg>


