<svg xmlns="http://www.w3.org/2000/svg" class="icon icon-tabler icon-tabler-biohazard-filled" width="24" height="24" viewBox="0 0 24 24" stroke-width="2" stroke="currentColor" fill="none" stroke-linecap="round" stroke-linejoin="round">
  <path stroke="none" d="M0 0h24v24H0z" fill="none"/>
  <path d="M9.321 2.41a1 1 0 0 1 .034 1.413l-.146.153a3.75 3.75 0 0 0 .855 5.734A2.98 2.98 0 0 1 12 9c.735 0 1.408.264 1.93.703a3.747 3.747 0 0 0 .712-5.863 1 1 0 0 1 1.414-1.414 5.75 5.75 0 0 1 1.165 6.458l-.061.123.225.02c.502.057 1 .18 1.48.37l.238.101c1.978.89 3.287 2.815 3.387 5.027v.217a1 1 0 0 1-2 0l.001-.171a3.75 3.75 0 0 0-5.542-3.121q.051.268.051.55a3 3 0 0 1-2.003 2.83 3.75 3.75 0 0 0 3.748 3.665 1 1 0 0 1 0 2 5.75 5.75 0 0 1-4.717-2.462l-.032-.048a5.79 5.79 0 0 1-4.307 2.495l-.227.015h-.217a1 1 0 0 1 0-2l.171.001a3.75 3.75 0 0 0 3.578-3.67A3 3 0 0 1 9 12l.005-.176q.01-.187.044-.367a3.75 3.75 0 0 0-5.554 3.288 1 1 0 0 1-2 0A5.75 5.75 0 0 1 6.69 9.022l.132-.01-.015-.029a6 6 0 0 1-.346-.912l-.063-.239a5.76 5.76 0 0 1 1.345-5.217l.164-.172a1 1 0 0 1 1.414-.034" stroke-width="0" fill="currentColor" />
</svg>


