<svg xmlns="http://www.w3.org/2000/svg" class="icon icon-tabler icon-tabler-bomb-filled" width="24" height="24" viewBox="0 0 24 24" stroke-width="2" stroke="currentColor" fill="none" stroke-linecap="round" stroke-linejoin="round">
  <path stroke="none" d="M0 0h24v24H0z" fill="none"/>
  <path d="M14.499 3.996a2.2 2.2 0 0 1 1.556 .645l3.302 3.301a2.2 2.2 0 0 1 0 3.113l-.567 .567l.043 .192a8.5 8.5 0 0 1 -3.732 8.83l-.23 .144a8.5 8.5 0 1 1 -2.687 -15.623l.192 .042l.567 -.566a2.2 2.2 0 0 1 1.362 -.636zm-4.499 5.004a4 4 0 0 0 -4 4a1 1 0 0 0 2 0a2 2 0 0 1 2 -2a1 1 0 0 0 0 -2z" stroke-width="0" fill="currentColor" />
  <path d="M21 2a1 1 0 0 1 .117 1.993l-.117 .007h-1c0 .83 -.302 1.629 -.846 2.25l-.154 .163l-1.293 1.293a1 1 0 0 1 -1.497 -1.32l.083 -.094l1.293 -1.292c.232 -.232 .375 -.537 .407 -.86l.007 -.14a2 2 0 0 1 1.85 -1.995l.15 -.005h1z" stroke-width="0" fill="currentColor" />
</svg>


