<svg xmlns="http://www.w3.org/2000/svg" class="icon icon-tabler icon-tabler-box-align-left-filled" width="24" height="24" viewBox="0 0 24 24" stroke-width="2" stroke="currentColor" fill="none" stroke-linecap="round" stroke-linejoin="round">
  <path stroke="none" d="M0 0h24v24H0z" fill="none"/>
  <path d="M10.002 3.003h-5a2 2 0 0 0 -2 2v14a2 2 0 0 0 2 2h5a1 1 0 0 0 1 -1v-16a1 1 0 0 0 -1 -1z" stroke-width="0" fill="currentColor" />
  <path d="M15.002 19.003a1 1 0 0 1 .117 1.993l-.127 .007a1 1 0 0 1 -.117 -1.993l.127 -.007z" stroke-width="0" fill="currentColor" />
  <path d="M20.003 19.003a1 1 0 0 1 .117 1.993l-.128 .007a1 1 0 0 1 -.117 -1.993l.128 -.007z" stroke-width="0" fill="currentColor" />
  <path d="M20.003 14.002a1 1 0 0 1 .117 1.993l-.128 .007a1 1 0 0 1 -.117 -1.993l.128 -.007z" stroke-width="0" fill="currentColor" />
  <path d="M20.003 8.002a1 1 0 0 1 .117 1.993l-.128 .007a1 1 0 0 1 -.117 -1.993l.128 -.007z" stroke-width="0" fill="currentColor" />
  <path d="M20.003 3.002a1 1 0 0 1 .117 1.993l-.128 .007a1 1 0 0 1 -.117 -1.993l.128 -.007z" stroke-width="0" fill="currentColor" />
  <path d="M15.002 3.002a1 1 0 0 1 .117 1.993l-.127 .007a1 1 0 0 1 -.117 -1.993l.127 -.007z" stroke-width="0" fill="currentColor" />
</svg>


