<svg xmlns="http://www.w3.org/2000/svg" class="icon icon-tabler icon-tabler-box-margin" width="24" height="24" viewBox="0 0 24 24" stroke-width="2" stroke="currentColor" fill="none" stroke-linecap="round" stroke-linejoin="round">
  <path stroke="none" d="M0 0h24v24H0z" fill="none"/>
  <path d="M8 8h8v8h-8zm-4 -4v.01m4 -.01v.01m4 -.01v.01m4 -.01v.01m4 -.01v.01m-16 15.99v.01m4 -.01v.01m4 -.01v.01m4 -.01v.01m4 -.01v.01m0 -4.01v.01m0 -4.01v.01m0 -4.01v.01m-16 7.99v.01m0 -4.01v.01m0 -4.01v.01" />
</svg>


