<svg xmlns="http://www.w3.org/2000/svg" class="icon icon-tabler icon-tabler-braces-off" width="24" height="24" viewBox="0 0 24 24" stroke-width="2" stroke="currentColor" fill="none" stroke-linecap="round" stroke-linejoin="round">
  <desc>Download more icon variants from https://tabler-icons.io/i/braces-off</desc>
  <path stroke="none" d="M0 0h24v24H0z" fill="none"/>
  <path d="M5.176 5.177c-.113 .251 -.176 .53 -.176 .823v3c0 1.657 -.895 3 -2 3c1.105 0 2 1.343 2 3v3a2 2 0 0 0 2 2" />
  <path d="M17 4a2 2 0 0 1 2 2v3c0 1.657 .895 3 2 3c-1.105 0 -2 1.343 -2 3m-.176 3.821a2 2 0 0 1 -1.824 1.179" />
  <path d="M3 3l18 18" />
</svg>


