<svg xmlns="http://www.w3.org/2000/svg" class="icon icon-tabler icon-tabler-brand-tailwind" width="24" height="24" viewBox="0 0 24 24" stroke-width="2" stroke="currentColor" fill="none" stroke-linecap="round" stroke-linejoin="round">
  <desc>Download more icon variants from https://tabler-icons.io/i/brand-tailwind</desc>
  <path stroke="none" d="M0 0h24v24H0z" fill="none"/>
  <path d="M11.667 6c-2.49 0 -4.044 1.222 -4.667 3.667c.933 -1.223 2.023 -1.68 3.267 -1.375c.71 .174 1.217 .68 1.778 1.24c.916 .912 2 1.968 4.288 1.968c2.49 0 4.044 -1.222 4.667 -3.667c-.933 1.223 -2.023 1.68 -3.267 1.375c-.71 -.174 -1.217 -.68 -1.778 -1.24c-.916 -.912 -1.975 -1.968 -4.288 -1.968zm-4 6.5c-2.49 0 -4.044 1.222 -4.667 3.667c.933 -1.223 2.023 -1.68 3.267 -1.375c.71 .174 1.217 .68 1.778 1.24c.916 .912 1.975 1.968 4.288 1.968c2.49 0 4.044 -1.222 4.667 -3.667c-.933 1.223 -2.023 1.68 -3.267 1.375c-.71 -.174 -1.217 -.68 -1.778 -1.24c-.916 -.912 -1.975 -1.968 -4.288 -1.968z" />
</svg>


