<svg xmlns="http://www.w3.org/2000/svg" class="icon icon-tabler icon-tabler-brand-discord-filled" width="24" height="24" viewBox="0 0 24 24" stroke-width="2" stroke="currentColor" fill="none" stroke-linecap="round" stroke-linejoin="round">
  <path stroke="none" d="M0 0h24v24H0z" fill="none"/>
  <path d="M14.983 3l.123 .006c2.014 .214 3.527 .672 4.966 1.673a1 1 0 0 1 .371 .488c1.876 5.315 2.373 9.987 1.451 12.28c-1.003 2.005 -2.606 3.553 -4.394 3.553c-.94 0 -2.257 -1.596 -2.777 -2.969l-.02 .005c.838 -.131 1.69 -.323 2.572 -.574a1 1 0 1 0 -.55 -1.924c-3.32 .95 -6.13 .95 -9.45 0a1 1 0 0 0 -.55 1.924c.725 .207 1.431 .373 2.126 .499l.444 .074c-.477 1.37 -1.695 2.965 -2.627 2.965c-1.743 0 -3.276 -1.555 -4.267 -3.644c-.841 -2.206 -.369 -6.868 1.414 -12.174a1 1 0 0 1 .358 -.49c1.392 -1.016 2.807 -1.475 4.717 -1.685a1 1 0 0 1 .938 .435l.063 .107l.652 1.288l.16 -.019c.877 -.09 1.718 -.09 2.595 0l.158 .019l.65 -1.287a1 1 0 0 1 .754 -.54l.123 -.01zm-5.983 6a2 2 0 0 0 -1.977 1.697l-.018 .154l-.005 .149l.005 .15a2 2 0 1 0 1.995 -2.15zm6 0a2 2 0 0 0 -1.977 1.697l-.018 .154l-.005 .149l.005 .15a2 2 0 1 0 1.995 -2.15z" stroke-width="0" fill="currentColor" />
</svg>


