<svg xmlns="http://www.w3.org/2000/svg" class="icon icon-tabler icon-tabler-brand-graphql" width="24" height="24" viewBox="0 0 24 24" stroke-width="2" stroke="currentColor" fill="none" stroke-linecap="round" stroke-linejoin="round">
  <path stroke="none" d="M0 0h24v24H0z" fill="none"/>
  <path d="m4 8 8-5 8 5v8l-8 5-8-5z"/>
  <path d="m12 4 7.5 12h-15z"/>
  <path d="M11 3a1 1 0 1 0 2 0 1 1 0 0 0-2 0"/>
  <path d="M11 21a1 1 0 1 0 2 0 1 1 0 0 0-2 0"/>
  <path d="M3 8a1 1 0 1 0 2 0 1 1 0 0 0-2 0"/>
  <path d="M3 16a1 1 0 1 0 2 0 1 1 0 0 0-2 0"/>
  <path d="M19 16a1 1 0 1 0 2 0 1 1 0 0 0-2 0"/>
  <path d="M19 8a1 1 0 1 0 2 0 1 1 0 0 0-2 0"/>
</svg>


