<svg xmlns="http://www.w3.org/2000/svg" class="icon icon-tabler icon-tabler-brand-booking" width="24" height="24" viewBox="0 0 24 24" stroke-width="2" stroke="currentColor" fill="none" stroke-linecap="round" stroke-linejoin="round">
  <path stroke="none" d="M0 0h24v24H0z" fill="none"/>
  <path d="M4 18v-9.5a4.5 4.5 0 0 1 4.5 -4.5h7a4.5 4.5 0 0 1 4.5 4.5v7a4.5 4.5 0 0 1 -4.5 4.5h-9.5a2 2 0 0 1 -2 -2z" />
  <path d="M8 12h3.5a2 2 0 1 1 0 4h-3.5v-7a1 1 0 0 1 1 -1h1.5a2 2 0 1 1 0 4h-1.5" />
  <line x1="16" y1="16" x2="16.01" y2="16" />
</svg>


