<svg xmlns="http://www.w3.org/2000/svg" class="icon icon-tabler icon-tabler-brand-alipay" width="24" height="24" viewBox="0 0 24 24" stroke-width="2" stroke="currentColor" fill="none" stroke-linecap="round" stroke-linejoin="round">
  <path stroke="none" d="M0 0h24v24H0z" fill="none"/>
  <path d="M19 3h-14a2 2 0 0 0 -2 2v14a2 2 0 0 0 2 2h14a2 2 0 0 0 2 -2v-14a2 2 0 0 0 -2 -2z" />
  <path d="M7 7h10" />
  <path d="M12 3v7" />
  <path d="M21 17.314c-2.971 -1.923 -15 -8.779 -15 -1.864c0 1.716 1.52 2.55 2.985 2.55c3.512 0 6.814 -5.425 6.814 -8h-6.604" />
</svg>


