<svg xmlns="http://www.w3.org/2000/svg" class="icon icon-tabler icon-tabler-brand-qq" width="24" height="24" viewBox="0 0 24 24" stroke-width="2" stroke="currentColor" fill="none" stroke-linecap="round" stroke-linejoin="round">
  <path stroke="none" d="M0 0h24v24H0z" fill="none"/>
  <path d="M14 7h.01m-4.01 0h.01m-4.01 4c4 4 8 4 12 0m-9 2.5v2.5m1.5 -6c.667 1.333 2.333 1.333 3 0h-3zm5.5 11c1.5 0 3.065 -1 1 -3c4.442 2 1.987 -4.5 1 -7c0 -4 -1.558 -8 -6 -8s-6 4 -6 8c-.987 2.5 -3.442 9 1 7c-2.065 2 -.5 3 1 3h8z" />
</svg>


