<svg xmlns="http://www.w3.org/2000/svg" class="icon icon-tabler icon-tabler-brand-amazon" width="24" height="24" viewBox="0 0 24 24" stroke-width="1" stroke="currentColor" fill="none" stroke-linecap="round" stroke-linejoin="round">
  <desc>Download more icon variants from https://tabler-icons.io/i/brand-amazon</desc>
  <path stroke="none" d="M0 0h24v24H0z" fill="none"/>
  <path stroke="none" fill="rgb(0%,0%,0%)" fill-rule="evenodd" fill-opacity="1" d="M 10.75 0.546875 C 7.707031 1.054688 5.628906 2.765625 5.0625 5.234375 C 4.84375 6.1875 5 6.277344 7.292969 6.492188 C 9.335938 6.683594 9.242188 6.710938 9.558594 5.84375 C 9.988281 4.65625 10.863281 4.066406 12.199219 4.0625 C 13.84375 4.058594 14.535156 4.875 14.535156 6.828125 L 14.535156 7.671875 L 12.902344 7.847656 C 8.402344 8.324219 6.324219 9.28125 5.144531 11.414062 C 4.519531 12.546875 4.285156 14.464844 4.597656 15.921875 C 5.460938 19.945312 11.125 20.953125 14.695312 17.722656 C 15.304688 17.171875 15.214844 17.171875 15.613281 17.730469 C 16.441406 18.890625 17.277344 19.578125 17.722656 19.46875 C 17.859375 19.433594 18.628906 18.851562 19.425781 18.179688 C 21.164062 16.710938 21.144531 16.765625 20.332031 15.601562 C 19.449219 14.347656 19.480469 14.5625 19.414062 9.21875 C 19.339844 3.664062 19.335938 3.625 18.078125 2.234375 C 16.785156 0.804688 13.59375 0.0703125 10.75 0.546875 M 14.535156 11.503906 C 14.535156 13.746094 13.925781 15.167969 12.671875 15.851562 C 10.84375 16.847656 9.136719 15.3125 9.601562 13.089844 C 9.949219 11.417969 11.480469 10.480469 13.925781 10.449219 L 14.535156 10.4375 L 14.535156 11.503906 M 20.730469 18.867188 C 18.957031 19.433594 19.046875 19.769531 20.960938 19.722656 C 23.0625 19.671875 23.105469 19.71875 22.484375 21.5625 C 21.992188 23.007812 21.992188 23.023438 22.210938 23.023438 C 22.886719 23.023438 24 20.90625 24 19.628906 L 24 18.949219 L 23.519531 18.792969 C 22.820312 18.5625 21.582031 18.597656 20.730469 18.867188 M 0.00390625 19.339844 C 0.0117188 19.855469 3.089844 21.863281 5.222656 22.746094 C 7.773438 23.800781 12.363281 24.324219 14.632812 23.816406 C 14.875 23.761719 15.441406 23.648438 15.890625 23.5625 C 18.535156 23.050781 22.269531 21.210938 21.886719 20.601562 C 21.726562 20.34375 21.457031 20.359375 20.578125 20.6875 C 19.320312 21.15625 17.988281 21.546875 17.097656 21.707031 C 16.65625 21.789062 15.910156 21.925781 15.4375 22.019531 C 13.945312 22.304688 10.191406 22.25 8.339844 21.914062 C 5.433594 21.382812 3.578125 20.777344 1.246094 19.601562 C 0.179688 19.0625 0 19.023438 0.00390625 19.339844 "/>
</svg>
