<svg xmlns="http://www.w3.org/2000/svg" class="icon icon-tabler icon-tabler-brand-bootstrap" width="24" height="24" viewBox="0 0 24 24" stroke-width="2" stroke="currentColor" fill="none" stroke-linecap="round" stroke-linejoin="round">
  <desc>Download more icon variants from https://tabler-icons.io/i/brand-bootstrap</desc>
  <path stroke="none" d="M0 0h24v24H0z" fill="none"/>
  <path d="M2 12a2 2 0 0 0 2 -2v-4a2 2 0 0 1 2 -2h12a2 2 0 0 1 2 2v4a2 2 0 0 0 2 2" />
  <path d="M2 12a2 2 0 0 1 2 2v4a2 2 0 0 0 2 2h12a2 2 0 0 0 2 -2v-4a2 2 0 0 1 2 -2" />
  <path d="M9 16v-8h3.5a2 2 0 1 1 0 4h-3.5h4a2 2 0 1 1 0 4h-4z" />
</svg>


