<svg xmlns="http://www.w3.org/2000/svg" class="icon icon-tabler icon-tabler-brand-blackberry" width="24" height="24" viewBox="0 0 24 24" stroke-width="2" stroke="currentColor" fill="none" stroke-linecap="round" stroke-linejoin="round">
  <path stroke="none" d="M0 0h24v24H0z" fill="none"/>
  <path d="M7 6a1 1 0 0 0 -1 -1h-2l-.5 2h2.5a1 1 0 0 0 1 -1z" />
  <path d="M6 12a1 1 0 0 0 -1 -1h-2l-.5 2h2.5a1 1 0 0 0 1 -1z" />
  <path d="M13 12a1 1 0 0 0 -1 -1h-2l-.5 2h2.5a1 1 0 0 0 1 -1z" />
  <path d="M14 6a1 1 0 0 0 -1 -1h-2l-.5 2h2.5a1 1 0 0 0 1 -1z" />
  <path d="M12 18a1 1 0 0 0 -1 -1h-2l-.5 2h2.5a1 1 0 0 0 1 -1z" />
  <path d="M20 15a1 1 0 0 0 -1 -1h-2l-.5 2h2.5a1 1 0 0 0 1 -1z" />
  <path d="M21 9a1 1 0 0 0 -1 -1h-2l-.5 2h2.5a1 1 0 0 0 1 -1z" />
</svg>


