<svg xmlns="http://www.w3.org/2000/svg" class="icon icon-tabler icon-tabler-brand-paypal" width="24" height="24" viewBox="0 0 24 24" stroke-width="2" stroke="currentColor" fill="none" stroke-linecap="round" stroke-linejoin="round">
  <path stroke="none" d="M0 0h24v24H0z"/>
  <path d="M10 13l2.538-.003c2.46 0 4.962-2.497 4.962-4.997 0-3-1.89-5-4.962-5H7c-.5 0-1 .5-1 1L4 18c0 .5.5 1 1 1h2.846L9 14c.089-.564.43-1 1-1zm7.467-5.837C19.204 8.153 20 10 20 12c0 2.467-2.54 4.505-5 4.505h.021-2.629l-.576 3.65a.998.998 0 01-.988.844l-2.712-.002a.5.5 0 01-.494-.578L7.846 19" />
</svg>


