<svg xmlns="http://www.w3.org/2000/svg" class="icon icon-tabler icon-tabler-brand-amd" width="24" height="24" viewBox="0 0 24 24" stroke-width="2" stroke="currentColor" fill="none" stroke-linecap="round" stroke-linejoin="round">
  <path stroke="none" d="M0 0h24v24H0z" fill="none"/>
  <path d="M16 16v-7c0 -.566 -.434 -1 -1 -1h-7l-5 -5h17c.566 0 1 .434 1 1v17l-5 -5z" />
  <path d="M11.293 20.707l4.707 -4.707h-7a1 1 0 0 1 -1 -1v-7l-4.707 4.707a1 1 0 0 0 -.293 .707v6.586a1 1 0 0 0 1 1h6.586a1 1 0 0 0 .707 -.293z" />
</svg>


