<svg xmlns="http://www.w3.org/2000/svg" class="icon icon-tabler icon-tabler-brand-netbeans" width="24" height="24" viewBox="0 0 24 24" stroke-width="2" stroke="currentColor" fill="none" stroke-linecap="round" stroke-linejoin="round">
  <path stroke="none" d="M0 0h24v24H0z" fill="none"/>
  <path d="M19 6.873a2 2 0 0 1 1 1.747v6.536a2 2 0 0 1 -1.029 1.748l-6 3.833a2 2 0 0 1 -1.942 0l-6 -3.833a2 2 0 0 1 -1.029 -1.747v-6.537a2 2 0 0 1 1.029 -1.748l6 -3.572a2.056 2.056 0 0 1 2 0l6 3.573h-.029zm-3.5 2.557a1 1 0 0 1 .5 .874v3.268a1 1 0 0 1 -.515 .874l-3 1.917a1 1 0 0 1 -.97 0l-3 -1.917a1 1 0 0 1 -.515 -.873v-3.269a1 1 0 0 1 .514 -.874l3 -1.786c.311 -.173 .69 -.173 1 0l3 1.787h-.014zm-3.5 11.57v-9l-7.5 -4.5m7.5 4.5l7.5 -4.5m-7.5 -4.5v4.5m7.5 8.5l-3.5 -2m-8 0l-3.5 2" />
</svg>


