<svg xmlns="http://www.w3.org/2000/svg" class="icon icon-tabler icon-tabler-brand-hipchat" width="24" height="24" viewBox="0 0 24 24" stroke-width="2" stroke="currentColor" fill="none" stroke-linecap="round" stroke-linejoin="round">
  <desc>Download more icon variants from https://tabler-icons.io/i/brand-hipchat</desc>
  <path stroke="none" d="M0 0h24v24H0z" fill="none"/>
  <path d="M17.802 17.292s.077 -.055 .2 -.149c1.843 -1.425 2.998 -3.49 2.998 -5.789c0 -4.286 -4.03 -7.764 -8.998 -7.764c-4.97 0 -9.002 3.478 -9.002 7.764c0 4.288 4.03 7.646 9 7.646c.424 0 1.12 -.028 2.088 -.084c1.262 .82 3.104 1.493 4.716 1.493c.499 0 .734 -.41 .414 -.828c-.486 -.596 -1.156 -1.551 -1.416 -2.29z" />
  <path d="M7.5 13.5c2.5 2.5 6.5 2.5 9 0" />
</svg>


