<svg xmlns="http://www.w3.org/2000/svg" class="icon icon-tabler icon-tabler-brand-zulip" width="24" height="24" viewBox="0 0 24 24" stroke-width="2" stroke="currentColor" fill="none" stroke-linecap="round" stroke-linejoin="round">
  <path stroke="none" d="M0 0h24v24H0z" fill="none"/>
  <path d="M6.5 3h11c1.325 0 2.5 1 2.5 2.5c0 2 -1.705 3.264 -2 3.5l-4.5 4l2 -5h-9a2.5 2.5 0 0 1 0 -5z" />
  <path d="M17.5 21h-11c-1.325 0 -2.5 -1 -2.5 -2.5c0 -2 1.705 -3.264 2 -3.5l4.5 -4l-2 5h9a2.5 2.5 0 1 1 0 5z" />
</svg>


