<svg xmlns="http://www.w3.org/2000/svg" class="icon icon-tabler icon-tabler-brand-graphql" width="24" height="24" viewBox="0 0 24 24" stroke-width="2" stroke="currentColor" fill="none" stroke-linecap="round" stroke-linejoin="round">
  <path stroke="none" d="M0 0h24v24H0z" fill="none"/>
  <g transform="translate(2.5 2)">
  <path d="M2.808 5.265l5.385 -3.029" />
  <path d="M10.808 2.235l5.384 3.03" />
  <path d="M17.5 7.5v5" />
  <path d="M16.193 14.736l-5.385 3.029" />
  <path d="M8.192 17.765l-5.384 -3.03" />
  <path d="M1.5 12.5v-5" />
  <path d="M10.272 2.786l6.121 10.202" />
  <path d="M16 14h-13" />
  <path d="M2.607 12.988l6.122 -10.201" />
  <circle cx="9.5" cy="1.5" r="1.5" />
  <circle cx="9.5" cy="18.5" r="1.5" />
  <circle cx="1.5" cy="6" r="1.5" />
  <circle cx="1.5" cy="14" r="1.5" />
  <circle cx="17.5" cy="14" r="1.5" />
  <circle cx="17.5" cy="6" r="1.5" />
  </g>
</svg>


