<svg xmlns="http://www.w3.org/2000/svg" class="icon icon-tabler icon-tabler-brand-carbon" width="24" height="24" viewBox="0 0 24 24" stroke-width="2" stroke="currentColor" fill="none" stroke-linecap="round" stroke-linejoin="round">
  <path stroke="none" d="M0 0h24v24H0z" fill="none"/>
  <path d="M14 10v-.2a1.8 1.8 0 0 0 -1.8 -1.8h-.4a1.8 1.8 0 0 0 -1.8 1.8v4.4a1.8 1.8 0 0 0 1.8 1.8h.4a1.8 1.8 0 0 0 1.8 -1.8v-.2" />
  <path d="M3 3m0 3a3 3 0 0 1 3 -3h12a3 3 0 0 1 3 3v12a3 3 0 0 1 -3 3h-12a3 3 0 0 1 -3 -3z" />
</svg>


