<svg xmlns="http://www.w3.org/2000/svg" class="icon icon-tabler icon-tabler-building-castle" width="24" height="24" viewBox="0 0 24 24" stroke-width="2" stroke="currentColor" fill="none" stroke-linecap="round" stroke-linejoin="round">
  <desc>Download more icon variants from https://tabler-icons.io/i/building-castle</desc>
  <path stroke="none" d="M0 0h24v24H0z" fill="none"/>
  <path d="M15 19v-2a3 3 0 0 0 -6 0v2a1 1 0 0 1 -1 1h-4a1 1 0 0 1 -1 -1v-14h4v3h3v-3h4v3h3v-3h4v14a1 1 0 0 1 -1 1h-4a1 1 0 0 1 -1 -1z" />
  <line x1="3" y1="11" x2="21" y2="11" />
</svg>


