<svg xmlns="http://www.w3.org/2000/svg" class="icon icon-tabler icon-tabler-bus-off" width="24" height="24" viewBox="0 0 24 24" stroke-width="2" stroke="currentColor" fill="none" stroke-linecap="round" stroke-linejoin="round">
  <path stroke="none" d="M0 0h24v24H0z" fill="none"/>
  <path d="M6 17m-2 0a2 2 0 1 0 4 0a2 2 0 1 0 -4 0m12.18 -.828a2 2 0 0 0 2.652 2.648m-14.832 -1.82h-2v-11a1 1 0 0 1 1 -1h2m4 0h8c2.761 0 5 3.134 5 7v5h-1m-5 0h-8m8 -12l1.5 7h4.5m-20 -2h8m4 0h3m-10 -3v3m5 -5v3m-9 -5l18 18" />
</svg>


