<svg xmlns="http://www.w3.org/2000/svg" class="icon icon-tabler icon-tabler-cake-off" width="24" height="24" viewBox="0 0 24 24" stroke-width="2" stroke="currentColor" fill="none" stroke-linecap="round" stroke-linejoin="round">
  <desc>Download more icon variants from https://tabler-icons.io/i/cake-off</desc>
  <path stroke="none" d="M0 0h24v24H0z" fill="none"/>
  <path d="M21 17v-5a3 3 0 0 0 -3 -3h-5m-4 0h-3a3 3 0 0 0 -3 3v8h17" />
  <path d="M2.996 14.803c.312 .135 .654 .204 1.004 .197a2.4 2.4 0 0 0 2 -1a2.4 2.4 0 0 1 2 -1a2.4 2.4 0 0 1 2 1a2.4 2.4 0 0 0 2 1a2.4 2.4 0 0 0 2 -1m4 0a2.4 2.4 0 0 0 2 1c.35 .007 .692 -.062 1.004 -.197" />
  <path d="M10.172 6.188c.07 -.158 .163 -.31 .278 -.451l1.55 -1.737l1.465 1.638a2 2 0 0 1 -.65 3.19" />
  <path d="M3 3l18 18" />
</svg>


