<svg xmlns="http://www.w3.org/2000/svg" class="icon icon-tabler icon-tabler-calendar-filled" width="24" height="24" viewBox="0 0 24 24" stroke-width="2" stroke="currentColor" fill="none" stroke-linecap="round" stroke-linejoin="round">
  <path stroke="none" d="M0 0h24v24H0z" fill="none"/>
  <path d="M16 2a1 1 0 0 1 .993 .883l.007 .117v1h1a3 3 0 0 1 2.995 2.824l.005 .176v12a3 3 0 0 1 -2.824 2.995l-.176 .005h-12a3 3 0 0 1 -2.995 -2.824l-.005 -.176v-12a3 3 0 0 1 2.824 -2.995l.176 -.005h1v-1a1 1 0 0 1 1.993 -.117l.007 .117v1h6v-1a1 1 0 0 1 1 -1zm3 7h-14v9.625c0 .705 .386 1.286 .883 1.366l.117 .009h12c.513 0 .936 -.53 .993 -1.215l.007 -.16v-9.625z" stroke-width="0" fill="currentColor" />
  <path d="M12 12a1 1 0 0 1 .993 .883l.007 .117v3a1 1 0 0 1 -1.993 .117l-.007 -.117v-2a1 1 0 0 1 -.117 -1.993l.117 -.007h1z" stroke-width="0" fill="currentColor" />
</svg>


