<svg xmlns="http://www.w3.org/2000/svg" class="icon icon-tabler icon-tabler-camera-search" width="24" height="24" viewBox="0 0 24 24" stroke-width="2" stroke="currentColor" fill="none" stroke-linecap="round" stroke-linejoin="round">
  <path stroke="none" d="M0 0h24v24H0z" fill="none"/>
  <path d="M11.5 20h-6.5a2 2 0 0 1 -2 -2v-9a2 2 0 0 1 2 -2h1a2 2 0 0 0 2 -2a1 1 0 0 1 1 -1h6a1 1 0 0 1 1 1a2 2 0 0 0 2 2h1a2 2 0 0 1 2 2v2.5" />
  <path d="M14.757 11.815a3 3 0 1 0 -3.431 4.109" />
  <path d="M18 18m-3 0a3 3 0 1 0 6 0a3 3 0 1 0 -6 0" />
  <path d="M20.2 20.2l1.8 1.8" />
</svg>


