<svg xmlns="http://www.w3.org/2000/svg" class="icon icon-tabler icon-tabler-candy-off" width="24" height="24" viewBox="0 0 24 24" stroke-width="2" stroke="currentColor" fill="none" stroke-linecap="round" stroke-linejoin="round">
  <path stroke="none" d="M0 0h24v24H0z" fill="none"/>
  <path d="M11.174 7.17l.119 -.12a2 2 0 0 1 2.828 0l2.829 2.83a2 2 0 0 1 0 2.828l-.124 .124m-1.996 1.996l-2.123 2.123a2 2 0 0 1 -2.828 0l-2.829 -2.831a2 2 0 0 1 0 -2.828l2.113 -2.112" />
  <path d="M16.243 9.172l3.086 -.772a1.5 1.5 0 0 0 .697 -2.516l-2.216 -2.217a1.5 1.5 0 0 0 -2.44 .47l-1.248 2.913" />
  <path d="M9.172 16.243l-.772 3.086a1.5 1.5 0 0 1 -2.516 .697l-2.217 -2.216a1.5 1.5 0 0 1 .47 -2.44l2.913 -1.248" />
  <path d="M3 3l18 18" />
</svg>


