<svg xmlns="http://www.w3.org/2000/svg" class="icon icon-tabler icon-tabler-capture-off" width="24" height="24" viewBox="0 0 24 24" stroke-width="2" stroke="currentColor" fill="none" stroke-linecap="round" stroke-linejoin="round">
  <path stroke="none" d="M0 0h24v24H0z" fill="none"/>
  <path d="M4 16v2a2 2 0 0 0 2 2h2m8 -16h2a2 2 0 0 1 2 2v2m-4 12h2c.554 0 1.055 -.225 1.417 -.589m-9.547 -9.524a3 3 0 0 0 4.255 4.23m.58 -3.416a3.012 3.012 0 0 0 -1.4 -1.403m-9.305 -1.298v-2c0 -.548 .22 -1.044 .577 -1.405m-1.577 -1.595l18 18" />
</svg>


