<svg xmlns="http://www.w3.org/2000/svg" class="icon icon-tabler icon-tabler-car-turbine" width="24" height="24" viewBox="0 0 24 24" stroke-width="2" stroke="currentColor" fill="none" stroke-linecap="round" stroke-linejoin="round">
  <path stroke="none" d="M0 0h24v24H0z" fill="none"/>
  <path d="M11 13m-4 0a4 4 0 1 0 8 0a4 4 0 1 0 -8 0m11.86 -2c.088 .66 .14 1.512 .14 2a8 8 0 1 1 -8 -8h6m-6 4c2.489 .108 4.489 .108 6 0m0 -6m0 1a1 1 0 0 1 1 -1h2a1 1 0 0 1 1 1v6a1 1 0 0 1 -1 1h-2a1 1 0 0 1 -1 -1zm-6 9l-3.5 -1.5m3.5 1.5l2.5 3m-5 0l2.5 -3l3.5 -1.5m-3.5 -2.5v4" />
</svg>


