<svg xmlns="http://www.w3.org/2000/svg" class="icon icon-tabler icon-tabler-cash-off" width="24" height="24" viewBox="0 0 24 24" stroke-width="2" stroke="currentColor" fill="none" stroke-linecap="round" stroke-linejoin="round">
  <desc>Download more icon variants from https://tabler-icons.io/i/cash-off</desc>
  <path stroke="none" d="M0 0h24v24H0z" fill="none"/>
  <path d="M13 9h6a2 2 0 0 1 2 2v6m-2 2h-10a2 2 0 0 1 -2 -2v-6a2 2 0 0 1 2 -2" />
  <path d="M12.582 12.59a2 2 0 0 0 2.83 2.826" />
  <path d="M17 9v-2a2 2 0 0 0 -2 -2h-6m-4 0a2 2 0 0 0 -2 2v6a2 2 0 0 0 2 2h2" />
  <path d="M3 3l18 18" />
</svg>


