<svg xmlns="http://www.w3.org/2000/svg" class="icon icon-tabler icon-tabler-cat" width="24" height="24" viewBox="0 0 24 24" stroke-width="2" stroke="currentColor" fill="none" stroke-linecap="round" stroke-linejoin="round">
  <path stroke="none" d="M0 0h24v24H0z" fill="none"/>
  <path d="M20 3v10a8 8 0 1 1 -16 0v-10l3.432 3.432a7.963 7.963 0 0 1 4.568 -1.432c1.769 0 3.403 .574 4.728 1.546l3.272 -3.546zm-18 13h5l-4 4m19 -4h-5l4 4m-9 -4m-1 0a1 1 0 1 0 2 0a1 1 0 1 0 -2 0m-2 -5v.01m6 -.01v.01" />
</svg>


