<svg xmlns="http://www.w3.org/2000/svg" class="icon icon-tabler icon-tabler-circle-8-filled" width="24" height="24" viewBox="0 0 24 24" stroke-width="2" stroke="currentColor" fill="none" stroke-linecap="round" stroke-linejoin="round">
  <path stroke="none" d="M0 0h24v24H0z" fill="none"/>
  <path d="M12 2c5.523 0 10 4.477 10 10s-4.477 10 -10 10s-10 -4.477 -10 -10s4.477 -10 10 -10zm1 5h-2l-.15 .005a2 2 0 0 0 -1.844 1.838l-.006 .157v2l.005 .15c.018 .236 .077 .46 .17 .667l.075 .152l.018 .03l-.018 .032c-.133 .24 -.218 .509 -.243 .795l-.007 .174v2l.005 .15a2 2 0 0 0 1.838 1.844l.157 .006h2l.15 -.005a2 2 0 0 0 1.844 -1.838l.006 -.157v-2l-.005 -.15a1.988 1.988 0 0 0 -.17 -.667l-.075 -.152l-.019 -.032l.02 -.03a2.01 2.01 0 0 0 .242 -.795l.007 -.174v-2l-.005 -.15a2 2 0 0 0 -1.838 -1.844l-.157 -.006zm0 6v2h-2v-2h2zm0 -4v2h-2v-2h2z" stroke-width="0" fill="currentColor" />
</svg>


