<svg xmlns="http://www.w3.org/2000/svg" class="icon icon-tabler icon-tabler-circle-letter-j-filled" width="24" height="24" viewBox="0 0 24 24" stroke-width="2" stroke="currentColor" fill="none" stroke-linecap="round" stroke-linejoin="round">
  <path stroke="none" d="M0 0h24v24H0z" fill="none"/>
  <path d="M12 2c5.523 0 10 4.477 10 10s-4.477 10-10 10S2 17.523 2 12 6.477 2 12 2m2 5h-4a1 1 0 0 0-1 1l.007.117A1 1 0 0 0 10 9h3v5a1 1 0 0 1-1.993.117L11 14a1 1 0 0 0-2 0 3 3 0 0 0 6 0V8a1 1 0 0 0-1-1" stroke-width="0" fill="currentColor" />
</svg>


