<svg xmlns="http://www.w3.org/2000/svg" class="icon icon-tabler icon-tabler-circle-letter-a-filled" width="24" height="24" viewBox="0 0 24 24" stroke-width="2" stroke="currentColor" fill="none" stroke-linecap="round" stroke-linejoin="round">
  <path stroke="none" d="M0 0h24v24H0z" fill="none"/>
  <path d="M12 2c5.523 0 10 4.477 10 10s-4.477 10-10 10S2 17.523 2 12 6.477 2 12 2m0 5a3 3 0 0 0-3 3v6a1 1 0 0 0 2 0v-2h2v2a1 1 0 0 0 .883.993L14 17a1 1 0 0 0 1-1v-6a3 3 0 0 0-3-3m0 2a1 1 0 0 1 1 1v2h-2v-2a1 1 0 0 1 .883-.993z" stroke-width="0" fill="currentColor" />
</svg>


