<svg xmlns="http://www.w3.org/2000/svg" class="icon icon-tabler icon-tabler-circle-letter-n-filled" width="24" height="24" viewBox="0 0 24 24" stroke-width="2" stroke="currentColor" fill="none" stroke-linecap="round" stroke-linejoin="round">
  <path stroke="none" d="M0 0h24v24H0z" fill="none"/>
  <path d="M12 2c5.523 0 10 4.477 10 10s-4.477 10-10 10S2 17.523 2 12 6.477 2 12 2m-1.106 5.553C10.423 6.609 9 6.945 9 8v8a1 1 0 0 0 1 1l.117-.007A1 1 0 0 0 11 16v-3.764l2.106 4.211c.471.944 1.894.608 1.894-.447V8a1 1 0 0 0-1-1l-.117.007A1 1 0 0 0 13 8v3.764z" stroke-width="0" fill="currentColor" />
</svg>


