<svg xmlns="http://www.w3.org/2000/svg" class="icon icon-tabler icon-tabler-circles-filled" width="24" height="24" viewBox="0 0 24 24" stroke-width="2" stroke="currentColor" fill="none" stroke-linecap="round" stroke-linejoin="round">
  <path stroke="none" d="M0 0h24v24H0z" fill="none"/>
  <path d="M6.5 12a5 5 0 1 1 -4.995 5.217l-.005 -.217l.005 -.217a5 5 0 0 1 4.995 -4.783z" stroke-width="0" fill="currentColor" />
  <path d="M17.5 12a5 5 0 1 1 -4.995 5.217l-.005 -.217l.005 -.217a5 5 0 0 1 4.995 -4.783z" stroke-width="0" fill="currentColor" />
  <path d="M12 2a5 5 0 1 1 -4.995 5.217l-.005 -.217l.005 -.217a5 5 0 0 1 4.995 -4.783z" stroke-width="0" fill="currentColor" />
</svg>


