<svg xmlns="http://www.w3.org/2000/svg" class="icon icon-tabler icon-tabler-circle-x-filled" width="24" height="24" viewBox="0 0 24 24" stroke-width="2" stroke="currentColor" fill="none" stroke-linecap="round" stroke-linejoin="round">
  <path stroke="none" d="M0 0h24v24H0z" fill="none"/>
  <path d="M17 3.34a10 10 0 1 1 -14.995 8.984l-.005 -.324l.005 -.324a10 10 0 0 1 14.995 -8.336zm-6.489 5.8a1 1 0 0 0 -1.218 1.567l1.292 1.293l-1.292 1.293l-.083 .094a1 1 0 0 0 1.497 1.32l1.293 -1.292l1.293 1.292l.094 .083a1 1 0 0 0 1.32 -1.497l-1.292 -1.293l1.292 -1.293l.083 -.094a1 1 0 0 0 -1.497 -1.32l-1.293 1.292l-1.293 -1.292l-.094 -.083z" stroke-width="0" fill="currentColor" />
</svg>


