<svg xmlns="http://www.w3.org/2000/svg" class="icon icon-tabler icon-tabler-circle-letter-v-filled" width="24" height="24" viewBox="0 0 24 24" stroke-width="2" stroke="currentColor" fill="none" stroke-linecap="round" stroke-linejoin="round">
  <path stroke="none" d="M0 0h24v24H0z" fill="none"/>
  <path d="M12 2c5.523 0 10 4.477 10 10s-4.477 10-10 10S2 17.523 2 12 6.477 2 12 2m2.243 5.03a1 1 0 0 0-1.213.727L12 11.875l-1.03-4.118a1 1 0 1 0-1.94.486l2 8c.252 1.01 1.688 1.01 1.94 0l2-8a1 1 0 0 0-.727-1.213" stroke-width="0" fill="currentColor" />
</svg>


