<svg xmlns="http://www.w3.org/2000/svg" class="icon icon-tabler icon-tabler-clock-hour-11-filled" width="24" height="24" viewBox="0 0 24 24" stroke-width="2" stroke="currentColor" fill="none" stroke-linecap="round" stroke-linejoin="round">
  <path stroke="none" d="M0 0h24v24H0z" fill="none"/>
  <path d="M17 3.34A10 10 0 1 1 2 12l.005-.324A10 10 0 0 1 17 3.34m-4.952 9.659.069-.006.096-.016.089-.023.099-.038.082-.04.113-.073.073-.06.074-.074.075-.094.052-.08.035-.07.051-.132.031-.135.01-.082L13 12V7a1 1 0 0 0-2 0v1.697l-.168-.252a1 1 0 0 0-1.286-.336l-.1.059a1 1 0 0 0-.278 1.387l2.018 3.027.07.087.075.074.094.075.08.052.07.035.132.051.135.031.082.01z" stroke-width="0" fill="currentColor" />
</svg>


