<svg xmlns="http://www.w3.org/2000/svg" class="icon icon-tabler icon-tabler-clock-hour-9-filled" width="24" height="24" viewBox="0 0 24 24" stroke-width="2" stroke="currentColor" fill="none" stroke-linecap="round" stroke-linejoin="round">
  <path stroke="none" d="M0 0h24v24H0z" fill="none"/>
  <path d="M17 3.34A10 10 0 1 1 2 12l.005-.324A10 10 0 0 1 17 3.34m-4.883 9.653A1 1 0 0 0 13 12V7a1 1 0 0 0-2 0v4H8.5a1 1 0 0 0-.993.883L7.5 12a1 1 0 0 0 1 1H12z" stroke-width="0" fill="currentColor" />
</svg>


