<svg xmlns="http://www.w3.org/2000/svg" class="icon icon-tabler icon-tabler-cloud-computing" width="24" height="24" viewBox="0 0 24 24" stroke-width="2" stroke="currentColor" fill="none" stroke-linecap="round" stroke-linejoin="round">
  <path stroke="none" d="M0 0h24v24H0z" fill="none"/>
  <path d="M6.657 16c-2.572 0 -4.657 -2.007 -4.657 -4.483c0 -2.475 2.085 -4.482 4.657 -4.482c.393 -1.762 1.794 -3.2 3.675 -3.773c1.88 -.572 3.956 -.193 5.444 .996c1.488 1.19 2.162 3.007 1.77 4.769h.99c1.913 0 3.464 1.56 3.464 3.486c0 1.927 -1.551 3.487 -3.465 3.487h-11.878" />
  <path d="M12 16v5" />
  <path d="M16 16v4a1 1 0 0 0 1 1h4" />
  <path d="M8 16v4a1 1 0 0 1 -1 1h-4" />
</svg>


