<svg xmlns="http://www.w3.org/2000/svg" class="icon icon-tabler icon-tabler-coffee-off" width="24" height="24" viewBox="0 0 24 24" stroke-width="2" stroke="currentColor" fill="none" stroke-linecap="round" stroke-linejoin="round">
  <path stroke="none" d="M0 0h24v24H0z" fill="none"/>
  <path d="M3 14c.83 .642 2.077 1.017 3.5 1c1.423 .017 2.67 -.358 3.5 -1c.73 -.565 1.783 -.923 3 -.99m-5 -10.01c-.194 .14 -.364 .305 -.506 .49m4.506 -.49a2.4 2.4 0 0 0 -1 2a2.4 2.4 0 0 0 1 2m2 3h3v3m-.257 3.743a6 6 0 0 1 -5.743 4.257h-2a6 6 0 0 1 -6 -6v-5h7m10.116 6.124a3 3 0 0 0 -3.118 -4.953m-14 -8.171l18 18" />
</svg>


