<svg xmlns="http://www.w3.org/2000/svg" class="icon icon-tabler icon-tabler-contrast-2-filled" width="24" height="24" viewBox="0 0 24 24" stroke-width="2" stroke="currentColor" fill="none" stroke-linecap="round" stroke-linejoin="round">
  <path stroke="none" d="M0 0h24v24H0z" fill="none"/>
  <path d="M19 2a3 3 0 0 1 3 3v14a3 3 0 0 1-3 3H5a3 3 0 0 1-3-3V5a3 3 0 0 1 3-3zm0 2H5a1 1 0 0 0-1 1v14a1 1 0 0 0 .769.973c3.499-.347 7.082-4.127 7.226-7.747L12 12c0-3.687 3.66-7.619 7.232-7.974A1 1 0 0 0 19 4" stroke-width="0" fill="currentColor" />
</svg>


