<svg xmlns="http://www.w3.org/2000/svg" class="icon icon-tabler icon-tabler-copy-off" width="24" height="24" viewBox="0 0 24 24" stroke-width="2" stroke="currentColor" fill="none" stroke-linecap="round" stroke-linejoin="round">
  <path stroke="none" d="M0 0h24v24H0z" fill="none"/>
  <path d="M19.414 19.415a1.994 1.994 0 0 1 -1.414 .585h-8a2 2 0 0 1 -2 -2v-8c0 -.554 .225 -1.055 .589 -1.417m3.411 -.583h6a2 2 0 0 1 2 2v6" />
  <path d="M16 8v-2a2 2 0 0 0 -2 -2h-6m-3.418 .59c-.36 .36 -.582 .86 -.582 1.41v8a2 2 0 0 0 2 2h2" />
  <path d="M3 3l18 18" />
</svg>


