<svg xmlns="http://www.w3.org/2000/svg" class="icon icon-tabler icon-tabler-device-mobile-search" width="24" height="24" viewBox="0 0 24 24" stroke-width="2" stroke="currentColor" fill="none" stroke-linecap="round" stroke-linejoin="round">
  <path stroke="none" d="M0 0h24v24H0z" fill="none"/>
  <path d="M12 21h-4a2 2 0 0 1 -2 -2v-14a2 2 0 0 1 2 -2h8a2 2 0 0 1 2 2v6" />
  <path d="M18 18m-3 0a3 3 0 1 0 6 0a3 3 0 1 0 -6 0" />
  <path d="M20.2 20.2l1.8 1.8" />
  <path d="M11 4h2" />
  <path d="M12 17v.01" />
</svg>


