<svg xmlns="http://www.w3.org/2000/svg" class="icon icon-tabler icon-tabler-dice-filled" width="24" height="24" viewBox="0 0 24 24" stroke-width="2" stroke="currentColor" fill="none" stroke-linecap="round" stroke-linejoin="round">
  <path stroke="none" d="M0 0h24v24H0z" fill="none"/>
  <path d="M18 3a3 3 0 0 1 2.995 2.824l.005 .176v12a3 3 0 0 1 -2.824 2.995l-.176 .005h-12a3 3 0 0 1 -2.995 -2.824l-.005 -.176v-12a3 3 0 0 1 2.824 -2.995l.176 -.005h12zm-2.5 11a1.5 1.5 0 1 0 0 3a1.5 1.5 0 0 0 0 -3zm-7 0a1.5 1.5 0 1 0 0 3a1.5 1.5 0 0 0 0 -3zm0 -7a1.5 1.5 0 1 0 0 3a1.5 1.5 0 0 0 0 -3zm7 0a1.5 1.5 0 1 0 0 3a1.5 1.5 0 0 0 0 -3z" stroke-width="0" fill="currentColor" />
</svg>


