<svg xmlns="http://www.w3.org/2000/svg" class="icon icon-tabler icon-tabler-engine" width="24" height="24" viewBox="0 0 24 24" stroke-width="2" stroke="currentColor" fill="none" stroke-linecap="round" stroke-linejoin="round">
  <desc>Download more icon variants from https://tabler-icons.io/i/engine</desc>
  <path stroke="none" d="M0 0h24v24H0z" fill="none"/>
  <path d="M3 10v6" />
  <path d="M12 5v3" />
  <path d="M10 5h4" />
  <path d="M5 13h-2" />
  <path d="M6 10h2l2 -2h3.382a1 1 0 0 1 .894 .553l1.448 2.894a1 1 0 0 0 .894 .553h1.382v-2h2a1 1 0 0 1 1 1v6a1 1 0 0 1 -1 1h-2v-2h-3v2a1 1 0 0 1 -1 1h-3.465a1 1 0 0 1 -.832 -.445l-1.703 -2.555h-2v-6z" />
</svg>


