<svg xmlns="http://www.w3.org/2000/svg" class="icon icon-tabler icon-tabler-feather-off" width="24" height="24" viewBox="0 0 24 24" stroke-width="2" stroke="currentColor" fill="none" stroke-linecap="round" stroke-linejoin="round">
  <path stroke="none" d="M0 0h24v24H0z" fill="none"/>
  <path d="M4 20l8 -8m2 -7v5h5m-10 1v4h4m-7 -2v5h5m-5 -5l3.502 -3.502m2.023 -2.023l2.475 -2.475m5 5c.638 -.636 1 -1.515 1 -2.486a3.515 3.515 0 0 0 -3.517 -3.514c-.97 0 -1.847 .367 -2.483 1m-3 13l3.499 -3.499m2.008 -2.008l2.493 -2.493m-16 -7l18 18" />
</svg>


