<svg xmlns="http://www.w3.org/2000/svg" class="icon icon-tabler icon-tabler-file-vector" width="24" height="24" viewBox="0 0 24 24" stroke-width="2" stroke="currentColor" fill="none" stroke-linecap="round" stroke-linejoin="round">
  <desc>Download more icon variants from https://tabler-icons.io/i/file-vector</desc>
  <path stroke="none" d="M0 0h24v24H0z" fill="none"/>
  <path d="M14 3v4a1 1 0 0 0 1 1h4" />
  <circle cx="9.5" cy="16.5" r="1.5" />
  <circle cx="14.5" cy="12.5" r="1.5" />
  <path d="M17 21h-10a2 2 0 0 1 -2 -2v-14a2 2 0 0 1 2 -2h7l5 5v11a2 2 0 0 1 -2 2z" />
  <path d="M9.5 15a2.5 2.5 0 0 1 2.5 -2.5h1" />
</svg>


