<svg xmlns="http://www.w3.org/2000/svg" class="icon icon-tabler icon-tabler-file-type-ppt" width="24" height="24" viewBox="0 0 24 24" stroke-width="2" stroke="currentColor" fill="none" stroke-linecap="round" stroke-linejoin="round">
  <path stroke="none" d="M0 0h24v24H0z" fill="none"/>
  <path d="M14 3v4a1 1 0 0 0 1 1h4" />
  <path d="M14 3v4a1 1 0 0 0 1 1h4" />
  <path d="M5 18h1.5a1.5 1.5 0 0 0 0 -3h-1.5v6" />
  <path d="M11 18h1.5a1.5 1.5 0 0 0 0 -3h-1.5v6" />
  <path d="M16.5 15h3" />
  <path d="M18 15v6" />
  <path d="M5 12v-7a2 2 0 0 1 2 -2h7l5 5v4" />
</svg>


