<svg xmlns="http://www.w3.org/2000/svg" class="icon icon-tabler icon-tabler-free-rights" width="24" height="24" viewBox="0 0 24 24" stroke-width="2" stroke="currentColor" fill="none" stroke-linecap="round" stroke-linejoin="round">
  <desc>Download more icon variants from https://tabler-icons.io/i/free-rights</desc>
  <path stroke="none" d="M0 0h24v24H0z" fill="none"/>
  <circle cx="12" cy="12" r="9" />
  <path d="M13.867 9.75c-.246 -.48 -.708 -.769 -1.2 -.75h-1.334c-.736 0 -1.333 .67 -1.333 1.5c0 .827 .597 1.499 1.333 1.499h1.334c.736 0 1.333 .671 1.333 1.5c0 .828 -.597 1.499 -1.333 1.499h-1.334c-.492 .019 -.954 -.27 -1.2 -.75" />
  <path d="M12 7v2" />
  <path d="M12 15v2" />
  <path d="M6 6l1.5 1.5" />
  <path d="M16.5 16.5l1.5 1.5" />
</svg>


