<svg xmlns="http://www.w3.org/2000/svg" class="icon icon-tabler icon-tabler-grill" width="24" height="24" viewBox="0 0 24 24" stroke-width="2" stroke="currentColor" fill="none" stroke-linecap="round" stroke-linejoin="round">
  <desc>Download more icon variants from https://tabler-icons.io/i/grill</desc>
  <path stroke="none" d="M0 0h24v24H0z" fill="none"/>
  <path d="M19 8h-14a6 6 0 0 0 6 6h2a6 6 0 0 0 5.996 -5.775l.004 -.225z" />
  <path d="M17 20a2 2 0 1 1 0 -4a2 2 0 0 1 0 4z" />
  <path d="M15 14l1 2" />
  <path d="M9 14l-3 6" />
  <path d="M15 18h-8" />
  <path d="M15 5v-1" />
  <path d="M12 5v-1" />
  <path d="M9 5v-1" />
</svg>


