<svg xmlns="http://www.w3.org/2000/svg" class="icon icon-tabler icon-tabler-health-recognition" width="24" height="24" viewBox="0 0 24 24" stroke-width="2" stroke="currentColor" fill="none" stroke-linecap="round" stroke-linejoin="round">
  <path stroke="none" d="M0 0h24v24H0z" fill="none"/>
  <path d="M4 8v-2a2 2 0 0 1 2 -2h2m-4 12v2a2 2 0 0 0 2 2h2m8 -16h2a2 2 0 0 1 2 2v2m-4 12h2a2 2 0 0 0 2 -2v-2m-11.397 -6.39a2.04 2.04 0 0 1 2.912 0l.485 .39l.5 -.396a2.035 2.035 0 0 1 2.897 .007a2.104 2.104 0 0 1 0 2.949l-3.397 3.44l-3.397 -3.44a2.104 2.104 0 0 1 0 -2.95z" />
</svg>


