<svg xmlns="http://www.w3.org/2000/svg" class="icon icon-tabler icon-tabler-help-square-rounded-filled" width="24" height="24" viewBox="0 0 24 24" stroke-width="2" stroke="currentColor" fill="none" stroke-linecap="round" stroke-linejoin="round">
  <path stroke="none" d="M0 0h24v24H0z" fill="none"/>
  <path d="M12 2l.642 .005l.616 .017l.299 .013l.579 .034l.553 .046c4.687 .455 6.65 2.333 7.166 6.906l.03 .29l.046 .553l.041 .727l.006 .15l.017 .617l.005 .642l-.005 .642l-.017 .616l-.013 .299l-.034 .579l-.046 .553c-.455 4.687 -2.333 6.65 -6.906 7.166l-.29 .03l-.553 .046l-.727 .041l-.15 .006l-.617 .017l-.642 .005l-.642 -.005l-.616 -.017l-.299 -.013l-.579 -.034l-.553 -.046c-4.687 -.455 -6.65 -2.333 -7.166 -6.906l-.03 -.29l-.046 -.553l-.041 -.727l-.006 -.15l-.017 -.617l-.004 -.318v-.648l.004 -.318l.017 -.616l.013 -.299l.034 -.579l.046 -.553c.455 -4.687 2.333 -6.65 6.906 -7.166l.29 -.03l.553 -.046l.727 -.041l.15 -.006l.617 -.017c.21 -.003 .424 -.005 .642 -.005zm0 13a1 1 0 0 0 -.993 .883l-.007 .117l.007 .127a1 1 0 0 0 1.986 0l.007 -.117l-.007 -.127a1 1 0 0 0 -.993 -.883zm1.368 -6.673a2.98 2.98 0 0 0 -3.631 .728a1 1 0 0 0 1.44 1.383l.171 -.18a.98 .98 0 0 1 1.11 -.15a1 1 0 0 1 -.34 1.886l-.232 .012a1 1 0 0 0 .111 1.994a3 3 0 0 0 1.371 -5.673z" stroke-width="0" fill="currentColor" />
</svg>


