<svg xmlns="http://www.w3.org/2000/svg" class="icon icon-tabler icon-tabler-help-hexagon" width="24" height="24" viewBox="0 0 24 24" stroke-width="2" stroke="currentColor" fill="none" stroke-linecap="round" stroke-linejoin="round">
  <path stroke="none" d="M0 0h24v24H0z" fill="none"/>
  <path d="M12 13.5a1.5 1.5 0 0 1 1 -1.5a2.6 2.6 0 1 0 -3 -4" />  <path d="M12 17l0 .01" />
  <path d="M19.875 6.27a2.225 2.225 0 0 1 1.125 1.948v7.284c0 .809 -.443 1.555 -1.158 1.948l-6.75 4.27a2.269 2.269 0 0 1 -2.184 0l-6.75 -4.27a2.225 2.225 0 0 1 -1.158 -1.948v-7.285c0 -.809 .443 -1.554 1.158 -1.947l6.75 -3.98a2.33 2.33 0 0 1 2.25 0l6.75 3.98h-.033z" />
</svg>


