<svg xmlns="http://www.w3.org/2000/svg" class="icon icon-tabler icon-tabler-hexagon-7-filled" width="24" height="24" viewBox="0 0 24 24" stroke-width="2" stroke="currentColor" fill="none" stroke-linecap="round" stroke-linejoin="round">
  <path stroke="none" d="M0 0h24v24H0z" fill="none"/>
  <path d="M10.425 1.414a3.33 3.33 0 0 1 3.216 0l6.775 3.995c.067 .04 .127 .084 .18 .133l.008 .007l.107 .076a3.223 3.223 0 0 1 1.284 2.39l.005 .203v7.284c0 1.175 -.643 2.256 -1.623 2.793l-6.804 4.302c-.98 .538 -2.166 .538 -3.2 -.032l-6.695 -4.237a3.226 3.226 0 0 1 -1.678 -2.826v-7.285a3.21 3.21 0 0 1 1.65 -2.808zm3.575 5.586h-4l-.117 .007a1 1 0 0 0 -.876 .876l-.007 .117l.007 .117a1 1 0 0 0 .876 .876l.117 .007h2.718l-1.688 6.757l-.022 .115a1 1 0 0 0 1.927 .482l.035 -.111l2 -8l.021 -.112a1 1 0 0 0 -.878 -1.125l-.113 -.006z" stroke-width="0" fill="currentColor" />
</svg>


