<svg xmlns="http://www.w3.org/2000/svg" class="icon icon-tabler icon-tabler-hexagon-off" width="24" height="24" viewBox="0 0 24 24" stroke-width="2" stroke="currentColor" fill="none" stroke-linecap="round" stroke-linejoin="round">
  <path stroke="none" d="M0 0h24v24H0z" fill="none"/>
  <path d="M8.693 4.69l2.336 -1.39a2.056 2.056 0 0 1 2 0l6 3.573h-.029a2 2 0 0 1 1 1.747v6.536c0 .246 -.045 .485 -.13 .707m-2.16 1.847l-4.739 3.027a2 2 0 0 1 -1.942 0l-6 -3.833a2 2 0 0 1 -1.029 -1.747v-6.537a2 2 0 0 1 1.029 -1.748l1.154 -.687" />
  <path d="M3 3l18 18" />
</svg>


