<svg xmlns="http://www.w3.org/2000/svg" class="icon icon-tabler icon-tabler-hexagon-3d" width="24" height="24" viewBox="0 0 24 24" stroke-width="2" stroke="currentColor" fill="none" stroke-linecap="round" stroke-linejoin="round">
  <path stroke="none" d="M0 0h24v24H0z" fill="none"/>
  <path d="M19 6.844a2.007 2.007 0 0 1 1 1.752v6.555c0 .728 -.394 1.399 -1.03 1.753l-6 3.844a2 2 0 0 1 -1.942 0l-6 -3.844a2.007 2.007 0 0 1 -1.029 -1.752v-6.556c0 -.729 .394 -1.4 1.029 -1.753l6 -3.583a2.05 2.05 0 0 1 2 0l6 3.584h-.03zm-7 9.656v4.5m-7.5 -13.5l3.5 2.5m8 0l4 -2.5m-8 0v4.5l-4 2m4 -2l4 2m-4 2.5l4 -2.5v-4l-4 -2.5l-4 2.5v4z" />
</svg>


