<svg xmlns="http://www.w3.org/2000/svg" class="icon icon-tabler icon-tabler-hierarchy-3" width="24" height="24" viewBox="0 0 24 24" stroke-width="2" stroke="currentColor" fill="none" stroke-linecap="round" stroke-linejoin="round">
  <path stroke="none" d="M0 0h24v24H0z" fill="none"/>
  <path d="M12 5m-2 0a2 2 0 1 0 4 0a2 2 0 1 0 -4 0" />
  <path d="M8 12m-2 0a2 2 0 1 0 4 0a2 2 0 1 0 -4 0" />
  <path d="M12 19m-2 0a2 2 0 1 0 4 0a2 2 0 1 0 -4 0" />
  <path d="M20 19m-2 0a2 2 0 1 0 4 0a2 2 0 1 0 -4 0" />
  <path d="M4 19m-2 0a2 2 0 1 0 4 0a2 2 0 1 0 -4 0" />
  <path d="M16 12m-2 0a2 2 0 1 0 4 0a2 2 0 1 0 -4 0" />
  <path d="M5 17l2 -3" />
  <path d="M9 10l2 -3" />
  <path d="M13 7l2 3" />
  <path d="M17 14l2 3" />
  <path d="M15 14l-2 3" />
  <path d="M9 14l2 3" />
</svg>


