<svg xmlns="http://www.w3.org/2000/svg" class="icon icon-tabler icon-tabler-id-off" width="24" height="24" viewBox="0 0 24 24" stroke-width="2" stroke="currentColor" fill="none" stroke-linecap="round" stroke-linejoin="round">
  <path stroke="none" d="M0 0h24v24H0z" fill="none"/>
  <path d="M8 4h10a3 3 0 0 1 3 3v10m-1.437 2.561c-.455 .279 -.99 .439 -1.563 .439h-12a3 3 0 0 1 -3 -3v-10c0 -1.083 .573 -2.031 1.433 -2.559m3.742 3.737a2 2 0 1 0 2.646 2.65m4.179 -2.828h2m-1 4h1m-10 4h9m-13 -13l18 18" />
</svg>


