<svg xmlns="http://www.w3.org/2000/svg" class="icon icon-tabler icon-tabler-info-octagon-filled" width="24" height="24" viewBox="0 0 24 24" stroke-width="2" stroke="currentColor" fill="none" stroke-linecap="round" stroke-linejoin="round">
  <path stroke="none" d="M0 0h24v24H0z" fill="none"/>
  <path d="M14.897 1a4 4 0 0 1 2.664 1.016l.165 .156l4.1 4.1a4 4 0 0 1 1.168 2.605l.006 .227v5.794a4 4 0 0 1 -1.016 2.664l-.156 .165l-4.1 4.1a4 4 0 0 1 -2.603 1.168l-.227 .006h-5.795a3.999 3.999 0 0 1 -2.664 -1.017l-.165 -.156l-4.1 -4.1a4 4 0 0 1 -1.168 -2.604l-.006 -.227v-5.794a4 4 0 0 1 1.016 -2.664l.156 -.165l4.1 -4.1a4 4 0 0 1 2.605 -1.168l.227 -.006h5.793zm-2.897 10h-1l-.117 .007a1 1 0 0 0 0 1.986l.117 .007v3l.007 .117a1 1 0 0 0 .876 .876l.117 .007h1l.117 -.007a1 1 0 0 0 .876 -.876l.007 -.117l-.007 -.117a1 1 0 0 0 -.764 -.857l-.112 -.02l-.117 -.006v-3l-.007 -.117a1 1 0 0 0 -.876 -.876l-.117 -.007zm.01 -3l-.127 .007a1 1 0 0 0 0 1.986l.117 .007l.127 -.007a1 1 0 0 0 0 -1.986l-.117 -.007z" stroke-width="0" fill="currentColor" />
</svg>


