<svg xmlns="http://www.w3.org/2000/svg" class="icon icon-tabler icon-tabler-inner-shadow-bottom-right-filled" width="24" height="24" viewBox="0 0 24 24" stroke-width="2" stroke="currentColor" fill="none" stroke-linecap="round" stroke-linejoin="round">
  <path stroke="none" d="M0 0h24v24H0z" fill="none"/>
  <path d="M12 2c5.523 0 10 4.477 10 10s-4.477 10 -10 10s-10 -4.477 -10 -10s4.477 -10 10 -10zm6 9a1 1 0 0 0 -1 1a5 5 0 0 1 -5 5a1 1 0 0 0 0 2a7 7 0 0 0 7 -7a1 1 0 0 0 -1 -1z" stroke-width="0" fill="currentColor" />
</svg>


