<svg xmlns="http://www.w3.org/2000/svg" class="icon icon-tabler icon-tabler-layout-align-right-filled" width="24" height="24" viewBox="0 0 24 24" stroke-width="2" stroke="currentColor" fill="none" stroke-linecap="round" stroke-linejoin="round">
  <path stroke="none" d="M0 0h24v24H0z" fill="none"/>
  <path d="M20 3a1 1 0 0 1 1 1v16a1 1 0 0 1-2 0V4a1 1 0 0 1 1-1" stroke-width="0" fill="currentColor" />
  <path d="M14 8a3 3 0 0 1 3 3v2a3 3 0 0 1-3 3H6a3 3 0 0 1-3-3v-2a3 3 0 0 1 3-3z" stroke-width="0" fill="currentColor" />
</svg>


