<svg xmlns="http://www.w3.org/2000/svg" class="icon icon-tabler icon-tabler-layout-navbar-filled" width="24" height="24" viewBox="0 0 24 24" stroke-width="2" stroke="currentColor" fill="none" stroke-linecap="round" stroke-linejoin="round">
  <path stroke="none" d="M0 0h24v24H0z" fill="none"/>
  <path d="M18 3a3 3 0 0 1 2.995 2.824l.005 .176v12a3 3 0 0 1 -2.824 2.995l-.176 .005h-12a3 3 0 0 1 -2.995 -2.824l-.005 -.176v-12a3 3 0 0 1 2.824 -2.995l.176 -.005h12zm1 6h-14v9a1 1 0 0 0 .883 .993l.117 .007h12a1 1 0 0 0 .993 -.883l.007 -.117v-9z" stroke-width="0" fill="currentColor" />
</svg>


