<svg xmlns="http://www.w3.org/2000/svg" class="icon icon-tabler icon-tabler-lock-access-off" width="24" height="24" viewBox="0 0 24 24" stroke-width="2" stroke="currentColor" fill="none" stroke-linecap="round" stroke-linejoin="round">
  <path stroke="none" d="M0 0h24v24H0z" fill="none"/>
  <path d="M4 8v-2c0 -.554 .225 -1.055 .588 -1.417m-.588 11.417v2a2 2 0 0 0 2 2h2m8 -16h2a2 2 0 0 1 2 2v2m-4 12h2c.55 0 1.05 -.222 1.41 -.582m-4.41 -8.418a1 1 0 0 1 1 1m-.29 3.704a1 1 0 0 1 -.71 .296h-6a1 1 0 0 1 -1 -1v-3a1 1 0 0 1 1 -1h2m-1 0v-1m1.182 -2.826a2 2 0 0 1 2.818 1.826v1m-11 -7l18 18" />
</svg>


