<svg xmlns="http://www.w3.org/2000/svg" class="icon icon-tabler icon-tabler-lock-open-off" width="24" height="24" viewBox="0 0 24 24" stroke-width="2" stroke="currentColor" fill="none" stroke-linecap="round" stroke-linejoin="round">
  <desc>Download more icon variants from https://tabler-icons.io/i/lock-open-off</desc>
  <path stroke="none" d="M0 0h24v24H0z" fill="none"/>
  <path d="M15 11h2a2 2 0 0 1 2 2v2m0 4a2 2 0 0 1 -2 2h-10a2 2 0 0 1 -2 -2v-6a2 2 0 0 1 2 -2h4" />
  <circle cx="12" cy="16" r="1" />
  <path d="M8 11v-3m.347 -3.631a4 4 0 0 1 7.653 1.631" />
  <path d="M3 3l18 18" />
</svg>


