<svg xmlns="http://www.w3.org/2000/svg" class="icon icon-tabler icon-tabler-lollipop-off" width="24" height="24" viewBox="0 0 24 24" stroke-width="2" stroke="currentColor" fill="none" stroke-linecap="round" stroke-linejoin="round">
  <path stroke="none" d="M0 0h24v24H0z" fill="none"/>
  <path d="M7.462 7.493a7 7 0 0 0 9.06 9.039m2.416 -1.57a7 7 0 1 0 -9.884 -9.915m11.946 4.953a3.5 3.5 0 0 0 -7 0m-1.29 2.715a3.5 3.5 0 0 1 -5.71 -2.715m7 7c.838 0 1.607 -.294 2.209 -.785m1.291 -2.715a3.5 3.5 0 0 0 -3.5 -3.5m0 -7a3.5 3.5 0 0 0 -3.5 3.5m-7.5 14.5l6 -6m-6 -12l18 18" />
</svg>


