<svg xmlns="http://www.w3.org/2000/svg" class="icon icon-tabler icon-tabler-macro" width="24" height="24" viewBox="0 0 24 24" stroke-width="2" stroke="currentColor" fill="none" stroke-linecap="round" stroke-linejoin="round">
  <path stroke="none" d="M0 0h24v24H0z" fill="none"/>
  <path d="M6 15a6 6 0 1 0 12 0" />
  <path d="M18 15a6 6 0 0 0 -6 6" />
  <path d="M12 21a6 6 0 0 0 -6 -6" />
  <path d="M12 21v-10" />
  <path d="M12 11a5 5 0 0 1 -5 -5v-3l3 2l2 -2l2 2l3 -2v3a5 5 0 0 1 -5 5z" />
</svg>


