<svg xmlns="http://www.w3.org/2000/svg" class="icon icon-tabler icon-tabler-microphone-filled" width="24" height="24" viewBox="0 0 24 24" stroke-width="2" stroke="currentColor" fill="none" stroke-linecap="round" stroke-linejoin="round">
  <path stroke="none" d="M0 0h24v24H0z" fill="none"/>
  <path d="M19 9a1 1 0 0 1 1 1 8 8 0 0 1-6.999 7.938L13 20h3a1 1 0 0 1 0 2H8a1 1 0 0 1 0-2h3v-2.062A8 8 0 0 1 4 10a1 1 0 1 1 2 0 6 6 0 0 0 12 0 1 1 0 0 1 1-1m-7-8a4 4 0 0 1 4 4v5a4 4 0 1 1-8 0V5a4 4 0 0 1 4-4" stroke-width="0" fill="currentColor" />
</svg>


