<svg xmlns="http://www.w3.org/2000/svg" class="icon icon-tabler icon-tabler-milkshake" width="24" height="24" viewBox="0 0 24 24" stroke-width="2" stroke="currentColor" fill="none" stroke-linecap="round" stroke-linejoin="round">
  <path stroke="none" d="M0 0h24v24H0z" fill="none"/>
  <path d="M17 10a5 5 0 0 0 -10 0" />
  <path d="M6 10m0 1a1 1 0 0 1 1 -1h10a1 1 0 0 1 1 1v1a1 1 0 0 1 -1 1h-10a1 1 0 0 1 -1 -1z" />
  <path d="M7 13l1.81 7.243a1 1 0 0 0 .97 .757h4.44a1 1 0 0 0 .97 -.757l1.81 -7.243" />
  <path d="M12 5v-2" />
</svg>


