<svg xmlns="http://www.w3.org/2000/svg" class="icon icon-tabler icon-tabler-mood-pin" width="24" height="24" viewBox="0 0 24 24" stroke-width="2" stroke="currentColor" fill="none" stroke-linecap="round" stroke-linejoin="round">
  <path stroke="none" d="M0 0h24v24H0z" fill="none"/>
  <path d="M21 12a9 9 0 1 0 -8.352 8.977" />
  <path d="M9 10h.01" />
  <path d="M15 10h.01" />
  <path d="M9.5 15c.658 .672 1.56 1 2.5 1c.102 0 .203 -.004 .304 -.012" />
  <path d="M21.121 20.121a3 3 0 1 0 -4.242 0c.418 .419 1.125 1.045 2.121 1.879c1.051 -.89 1.759 -1.516 2.121 -1.879z" />
  <path d="M19 18v.01" />
</svg>


