<svg xmlns="http://www.w3.org/2000/svg" class="icon icon-tabler icon-tabler-mood-confuzed-filled" width="24" height="24" viewBox="0 0 24 24" stroke-width="2" stroke="currentColor" fill="none" stroke-linecap="round" stroke-linejoin="round">
  <path stroke="none" d="M0 0h24v24H0z" fill="none"/>
  <path d="M17 3.34a10 10 0 1 1 -14.995 8.984l-.005 -.324l.005 -.324a10 10 0 0 1 14.995 -8.336zm-1.43 10.162a11 11 0 0 0 -6.6 1.65a1 1 0 0 0 1.06 1.696a9 9 0 0 1 5.4 -1.35a1 1 0 0 0 .14 -1.996zm-6.56 -4.502l-.127 .007a1 1 0 0 0 0 1.986l.117 .007l.127 -.007a1 1 0 0 0 0 -1.986l-.117 -.007zm6 0l-.127 .007a1 1 0 0 0 0 1.986l.117 .007l.127 -.007a1 1 0 0 0 0 -1.986l-.117 -.007z" stroke-width="0" fill="currentColor" />
</svg>


