<svg xmlns="http://www.w3.org/2000/svg" class="icon icon-tabler icon-tabler-mouse-filled" width="24" height="24" viewBox="0 0 24 24" stroke-width="2" stroke="currentColor" fill="none" stroke-linecap="round" stroke-linejoin="round">
  <path stroke="none" d="M0 0h24v24H0z" fill="none"/>
  <path d="M14 2a5 5 0 0 1 5 5v10a5 5 0 0 1 -5 5h-4a5 5 0 0 1 -5 -5v-10a5 5 0 0 1 5 -5zm-2 4a1 1 0 0 0 -1 1v4l.007 .117a1 1 0 0 0 1.993 -.117v-4l-.007 -.117a1 1 0 0 0 -.993 -.883z" stroke-width="0" fill="currentColor" />
</svg>


