<svg xmlns="http://www.w3.org/2000/svg" class="icon icon-tabler icon-tabler-nfc-off" width="24" height="24" viewBox="0 0 24 24" stroke-width="2" stroke="currentColor" fill="none" stroke-linecap="round" stroke-linejoin="round">
  <path stroke="none" d="M0 0h24v24H0z" fill="none"/>
  <path d="M11 20a3 3 0 0 1 -3 -3v-9m5 -4a3 3 0 0 1 3 3v5m0 4v2l-5 -5m-3 -9h9a3 3 0 0 1 3 3v9m-.873 3.116a2.99 2.99 0 0 1 -2.127 .884h-10a3 3 0 0 1 -3 -3v-10c0 -.83 .337 -1.582 .882 -2.125m-1.882 -1.875l18 18" />
</svg>


