<svg xmlns="http://www.w3.org/2000/svg" class="icon icon-tabler icon-tabler-no-creative-commons" width="24" height="24" viewBox="0 0 24 24" stroke-width="2" stroke="currentColor" fill="none" stroke-linecap="round" stroke-linejoin="round">
  <desc>Download more icon variants from https://tabler-icons.io/i/no-creative-commons</desc>
  <path stroke="none" d="M0 0h24v24H0z" fill="none"/>
  <circle cx="12" cy="12" r="9" />
  <path d="M10.5 10.5c-.847 -.71 -2.132 -.658 -2.914 .116a1.928 1.928 0 0 0 0 2.768c.782 .774 2.067 .825 2.914 .116" />
  <path d="M16.5 10.5c-.847 -.71 -2.132 -.658 -2.914 .116a1.928 1.928 0 0 0 0 2.768c.782 .774 2.067 .825 2.914 .116" />
  <path d="M6 6l1.5 1.5" />
  <path d="M16.5 16.5l1.5 1.5" />
</svg>


