<svg xmlns="http://www.w3.org/2000/svg" class="icon icon-tabler icon-tabler-nut" width="24" height="24" viewBox="0 0 24 24" stroke-width="2" stroke="currentColor" fill="none" stroke-linecap="round" stroke-linejoin="round">
  <path stroke="none" d="M0 0h24v24H0z" fill="none"/>
  <path d="M19 6.84a2.007 2.007 0 0 1 1 1.754v6.555c0 .728 -.394 1.4 -1.03 1.753l-6 3.844a1.995 1.995 0 0 1 -1.94 0l-6 -3.844a2.006 2.006 0 0 1 -1.03 -1.752v-6.557c0 -.728 .394 -1.399 1.03 -1.753l6 -3.582a2.049 2.049 0 0 1 2 0l6 3.582h-.03z" />
  <path d="M12 12m-3 0a3 3 0 1 0 6 0a3 3 0 1 0 -6 0" />
</svg>


