<svg xmlns="http://www.w3.org/2000/svg" class="icon icon-tabler icon-tabler-page-break" width="24" height="24" viewBox="0 0 24 24" stroke-width="2" stroke="currentColor" fill="none" stroke-linecap="round" stroke-linejoin="round">
  <desc>Download more icon variants from https://tabler-icons.io/i/page-break</desc>
  <path stroke="none" d="M0 0h24v24H0z" fill="none"/>
  <path d="M14 3v4a1 1 0 0 0 1 1h4" />
  <path d="M19 18v1a2 2 0 0 1 -2 2h-10a2 2 0 0 1 -2 -2v-1" />
  <path d="M3 14h3m4.5 0h3m4.5 0h3" />
  <path d="M5 10v-5a2 2 0 0 1 2 -2h7l5 5v2" />
</svg>


