<svg xmlns="http://www.w3.org/2000/svg" class="icon icon-tabler icon-tabler-palette-off" width="24" height="24" viewBox="0 0 24 24" stroke-width="2" stroke="currentColor" fill="none" stroke-linecap="round" stroke-linejoin="round">
  <desc>Download more icon variants from https://tabler-icons.io/i/palette-off</desc>
  <path stroke="none" d="M0 0h24v24H0z" fill="none"/>
  <path d="M7.934 3.97a8.993 8.993 0 0 1 4.066 -.97c4.97 0 9 3.582 9 8c0 1.06 -.474 2.078 -1.318 2.828a4.515 4.515 0 0 1 -1.118 .726m-3.564 .446h-1a2 2 0 0 0 -1 3.75a1.3 1.3 0 0 1 -1 2.25a9 9 0 0 1 -6.372 -15.356" />
  <circle cx="7.5" cy="10.5" r="1" />
  <circle cx="12" cy="7.5" r="1" />
  <circle cx="16.5" cy="10.5" r="1" />
  <path d="M3 3l18 18" />
</svg>


