<svg xmlns="http://www.w3.org/2000/svg" class="icon icon-tabler icon-tabler-palette-off" width="24" height="24" viewBox="0 0 24 24" stroke-width="2" stroke="currentColor" fill="none" stroke-linecap="round" stroke-linejoin="round">
  <path stroke="none" d="M0 0h24v24H0z" fill="none"/>
  <path d="M15 15h-1a2 2 0 0 0 -1 3.75a1.3 1.3 0 0 1 -1 2.25a9 9 0 0 1 -6.372 -15.356" />
  <path d="M8 4c1.236 -.623 2.569 -1 4 -1c4.97 0 9 3.582 9 8c0 1.06 -.474 2.078 -1.318 2.828a4.516 4.516 0 0 1 -1.127 .73" />
  <circle cx="8.5" cy="10.5" r="1" />
  <circle cx="12.5" cy="7.5" r="1" />
  <circle cx="16.5" cy="10.5" r="1" />
  <path d="M3 3l18 18" />
</svg>


