<svg xmlns="http://www.w3.org/2000/svg" class="icon icon-tabler icon-tabler-palette" width="24" height="24" viewBox="0 0 24 24" stroke-width="2" stroke="currentColor" fill="none" stroke-linecap="round" stroke-linejoin="round">
  <path stroke="none" d="M0 0h24v24H0z" fill="none"/>
  <path d="M12 21a9 9 0 0 1 0 -18c4.97 0 9 3.582 9 8c0 1.06 -.474 2.078 -1.318 2.828c-.844 .75 -1.989 1.172 -3.182 1.172h-2.5a2 2 0 0 0 -1 3.75a1.3 1.3 0 0 1 -1 2.25" />
  <path d="M8.5 10.5m-1 0a1 1 0 1 0 2 0a1 1 0 1 0 -2 0" />
  <path d="M12.5 7.5m-1 0a1 1 0 1 0 2 0a1 1 0 1 0 -2 0" />
  <path d="M16.5 10.5m-1 0a1 1 0 1 0 2 0a1 1 0 1 0 -2 0" />
</svg>


