<svg xmlns="http://www.w3.org/2000/svg" class="icon icon-tabler icon-tabler-paper-bag" width="24" height="24" viewBox="0 0 24 24" stroke-width="2" stroke="currentColor" fill="none" stroke-linecap="round" stroke-linejoin="round">
  <desc>Download more icon variants from https://tabler-icons.io/i/paper-bag</desc>
  <path stroke="none" d="M0 0h24v24H0z" fill="none"/>
  <path d="M8 3h8a2 2 0 0 1 2 2v1.82a5 5 0 0 0 .528 2.236l.944 1.888a5 5 0 0 1 .528 2.236v5.82a2 2 0 0 1 -2 2h-12a2 2 0 0 1 -2 -2v-5.82a5 5 0 0 1 .528 -2.236l1.472 -2.944v-3a2 2 0 0 1 2 -2z" />
  <circle cx="14" cy="15" r="2" />
  <path d="M6 21a2 2 0 0 0 2 -2v-5.82a5 5 0 0 0 -.528 -2.236l-1.472 -2.944" />
  <path d="M11 7h2" />
</svg>


