<svg xmlns="http://www.w3.org/2000/svg" class="icon icon-tabler icon-tabler-photo-heart" width="24" height="24" viewBox="0 0 24 24" stroke-width="2" stroke="currentColor" fill="none" stroke-linecap="round" stroke-linejoin="round">
  <path stroke="none" d="M0 0h24v24H0z" fill="none"/>
  <path d="M15 8h.01" />
  <path d="M12.5 20h-5.5a3 3 0 0 1 -3 -3v-10a3 3 0 0 1 3 -3h10a3 3 0 0 1 3 3v5" />
  <path d="M4 15l4 -4c.928 -.893 2.072 -.893 3 0l2.5 2.5" />
  <path d="M19 21.5l2.518 -2.58a1.74 1.74 0 0 0 0 -2.413a1.627 1.627 0 0 0 -2.346 0l-.168 .172l-.168 -.172a1.627 1.627 0 0 0 -2.346 0a1.74 1.74 0 0 0 0 2.412l2.51 2.59z" />
</svg>


