<svg xmlns="http://www.w3.org/2000/svg" class="icon icon-tabler icon-tabler-photo-cancel" width="24" height="24" viewBox="0 0 24 24" stroke-width="2" stroke="currentColor" fill="none" stroke-linecap="round" stroke-linejoin="round">
  <path stroke="none" d="M0 0h24v24H0z" fill="none"/>
  <path d="M15 8h.01m-3.01 12h-5a3 3 0 0 1 -3 -3v-10a3 3 0 0 1 3 -3h10a3 3 0 0 1 3 3v5m-16 3l4 -4c.928 -.893 2.072 -.893 3 0l3 3l1 -1c.553 -.532 1.182 -.747 1.796 -.645m2.204 6.645m-3 0a3 3 0 1 0 6 0a3 3 0 1 0 -6 0m1 2l4 -4" />
</svg>


