<svg xmlns="http://www.w3.org/2000/svg" class="icon icon-tabler icon-tabler-photo-shield" width="24" height="24" viewBox="0 0 24 24" stroke-width="2" stroke="currentColor" fill="none" stroke-linecap="round" stroke-linejoin="round">
  <path stroke="none" d="M0 0h24v24H0z" fill="none"/>
  <path d="M15 8h.01m-3.51 12h-4.5a3 3 0 0 1 -3 -3v-10a3 3 0 0 1 3 -3h10a3 3 0 0 1 3 3v4m-16 4l4 -4c.928 -.893 2.072 -.893 3 0l1.5 1.5m9.5 3.5c0 4 -2.5 6 -3.5 6s-3.5 -2 -3.5 -6c1 0 2.5 -.5 3.5 -1.5c1 1 2.5 1.5 3.5 1.5z" />
</svg>


