<svg xmlns="http://www.w3.org/2000/svg" class="icon icon-tabler icon-tabler-plant" width="24" height="24" viewBox="0 0 24 24" stroke-width="2" stroke="currentColor" fill="none" stroke-linecap="round" stroke-linejoin="round">
  <desc>Download more icon variants from https://tabler-icons.io/i/plant</desc>
  <path stroke="none" d="M0 0h24v24H0z" fill="none"/>
  <path d="M7 15h10v4a2 2 0 0 1 -2 2h-6a2 2 0 0 1 -2 -2v-4z" />
  <path d="M12 9a6 6 0 0 0 -6 -6h-3v2a6 6 0 0 0 6 6h3" />
  <path d="M12 11a6 6 0 0 1 6 -6h3v1a6 6 0 0 1 -6 6h-3" />
  <line x1="12" y1="15" x2="12" y2="9" />
</svg>


