<svg xmlns="http://www.w3.org/2000/svg" class="icon icon-tabler icon-tabler-pointer-filled" width="24" height="24" viewBox="0 0 24 24" stroke-width="2" stroke="currentColor" fill="none" stroke-linecap="round" stroke-linejoin="round">
  <path stroke="none" d="M0 0h24v24H0z" fill="none"/>
  <path d="M3.039 4.277l3.904 13.563c.185 .837 .92 1.516 1.831 1.642l.17 .016a2.2 2.2 0 0 0 1.982 -1.006l.045 -.078l1.4 -2.072l4.05 4.05a2.067 2.067 0 0 0 2.924 0l1.047 -1.047c.388 -.388 .606 -.913 .606 -1.461l-.008 -.182a2.067 2.067 0 0 0 -.598 -1.28l-4.047 -4.048l2.103 -1.412c.726 -.385 1.18 -1.278 1.053 -2.189a2.2 2.2 0 0 0 -1.701 -1.845l-13.524 -3.89a1 1 0 0 0 -1.236 1.24z" stroke-width="0" fill="currentColor" />
</svg>


