<svg xmlns="http://www.w3.org/2000/svg" class="icon icon-tabler icon-tabler-printer-off" width="24" height="24" viewBox="0 0 24 24" stroke-width="2" stroke="currentColor" fill="none" stroke-linecap="round" stroke-linejoin="round">
  <desc>Download more icon variants from https://tabler-icons.io/i/printer-off</desc>
  <path stroke="none" d="M0 0h24v24H0z" fill="none"/>
  <path d="M20.412 16.416c.363 -.362 .588 -.863 .588 -1.416v-4a2 2 0 0 0 -2 -2h-6m-4 0h-4a2 2 0 0 0 -2 2v4a2 2 0 0 0 2 2h2" />
  <path d="M17 9v-4a2 2 0 0 0 -2 -2h-6c-.551 0 -1.05 .223 -1.412 .584m-.588 3.416v2" />
  <path d="M17 17v2a2 2 0 0 1 -2 2h-6a2 2 0 0 1 -2 -2v-4a2 2 0 0 1 2 -2h4" />
  <path d="M3 3l18 18" />
</svg>


