<svg xmlns="http://www.w3.org/2000/svg" class="icon icon-tabler icon-tabler-prism-plus" width="24" height="24" viewBox="0 0 24 24" stroke-width="2" stroke="currentColor" fill="none" stroke-linecap="round" stroke-linejoin="round">
  <path stroke="none" d="M0 0h24v24H0z" fill="none"/>
  <path d="M12 9v13" />
  <path d="M13.02 21.655a1.7 1.7 0 0 1 -2.04 0l-5.98 -4.485a2.5 2.5 0 0 1 -1 -2v-11.17a1 1 0 0 1 1 -1h14a1 1 0 0 1 1 1v8" />
  <path d="M4.3 3.3l6.655 5.186a1.7 1.7 0 0 0 2.09 0l6.655 -5.186" />
  <path d="M16 19h6" />
  <path d="M19 16v6" />
</svg>


