<svg xmlns="http://www.w3.org/2000/svg" class="icon icon-tabler icon-tabler-puzzle" width="24" height="24" viewBox="0 0 24 24" stroke-width="2" stroke="currentColor" fill="none" stroke-linecap="round" stroke-linejoin="round">
  <rect x="0" y="0" width="24" height="24" stroke="none"></rect>
  <path d="M4 7h3a1 1 0 0 0 1 -1v-1a2 2 0 0 1 4 0v1a1 1 0 0 0 1 1h3a1 1 0 0 1 1 1v3a1 1 0 0 0 1 1h1a2 2 0 0 1 0 4h-1a1 1 0 0 0 -1 1v3a1 1 0 0 1 -1 1h-3a1 1 0 0 1 -1 -1v-1a2 2 0 0 0 -4 0v1a1 1 0 0 1 -1 1h-3a1 1 0 0 1 -1 -1v-3a1 1 0 0 1 1 -1h1a2 2 0 0 0 0 -4h-1a1 1 0 0 1 -1 -1v-3a1 1 0 0 1 1 -1" />
</svg>


