<svg xmlns="http://www.w3.org/2000/svg" class="icon icon-tabler icon-tabler-report-money" width="24" height="24" viewBox="0 0 24 24" stroke-width="2" stroke="currentColor" fill="none" stroke-linecap="round" stroke-linejoin="round">
  <desc>Download more icon variants from https://tabler-icons.io/i/report-money</desc>
  <path stroke="none" d="M0 0h24v24H0z" fill="none"/>
  <path d="M9 5h-2a2 2 0 0 0 -2 2v12a2 2 0 0 0 2 2h10a2 2 0 0 0 2 -2v-12a2 2 0 0 0 -2 -2h-2" />
  <rect x="9" y="3" width="6" height="4" rx="2" />
  <path d="M14 11h-2.5a1.5 1.5 0 0 0 0 3h1a1.5 1.5 0 0 1 0 3h-2.5" />
  <path d="M12 17v1m0 -8v1" />
</svg>


