<svg xmlns="http://www.w3.org/2000/svg" class="icon icon-tabler icon-tabler-robot-off" width="24" height="24" viewBox="0 0 24 24" stroke-width="2" stroke="currentColor" fill="none" stroke-linecap="round" stroke-linejoin="round">
  <path stroke="none" d="M0 0h24v24H0z" fill="none"/>
  <path d="M11 7h6a2 2 0 0 1 2 2v1l1 1v3l-1 1m-.171 3.811a2 2 0 0 1 -1.829 1.189h-10a2 2 0 0 1 -2 -2v-3l-1 -1v-3l1 -1v-1a2 2 0 0 1 2 -2" />
  <path d="M10 16h4" />
  <circle cx="8.5" cy="11.5" r="1" />
  <path d="M15.854 11.853a0.498 .498 0 0 0 -.354 -.853a0.498 .498 0 0 0 -.356 .149" />
  <path d="M8.336 4.343l-.336 -1.343" />
  <path d="M15 7l1 -4" />
  <path d="M3 3l18 18" />
</svg>


