<svg xmlns="http://www.w3.org/2000/svg" class="icon icon-tabler icon-tabler-router-off" width="24" height="24" viewBox="0 0 24 24" stroke-width="2" stroke="currentColor" fill="none" stroke-linecap="round" stroke-linejoin="round">
  <path stroke="none" d="M0 0h24v24H0z" fill="none"/>
  <path d="M17 13h2a2 2 0 0 1 2 2v2m-.588 3.417c-.362 .36 -.861 .583 -1.412 .583h-14a2 2 0 0 1 -2 -2v-4a2 2 0 0 1 2 -2h8m4 4v.01m-4 -.01v.01m-.774 -8.81a4 4 0 0 1 6.024 .55m-8.805 -3.343a8 8 0 0 1 12.055 1.093m-18.5 -3.5l18 18" />
</svg>


