<svg xmlns="http://www.w3.org/2000/svg" class="icon icon-tabler icon-tabler-sailboat" width="24" height="24" viewBox="0 0 24 24" stroke-width="2" stroke="currentColor" fill="none" stroke-linecap="round" stroke-linejoin="round">
  <path stroke="none" d="M0 0h24v24H0z" fill="none"/>
  <path d="M2 20a2.4 2.4 0 0 0 2 1a2.4 2.4 0 0 0 2 -1a2.4 2.4 0 0 1 2 -1a2.4 2.4 0 0 1 2 1a2.4 2.4 0 0 0 2 1a2.4 2.4 0 0 0 2 -1a2.4 2.4 0 0 1 2 -1a2.4 2.4 0 0 1 2 1a2.4 2.4 0 0 0 2 1a2.4 2.4 0 0 0 2 -1m-18 -2l-1 -3h18l-1 3m-9 -6h7l-7 -9v9m-3 -5l-2 5" />
</svg>


