<svg xmlns="http://www.w3.org/2000/svg" class="icon icon-tabler icon-tabler-shape-off" width="24" height="24" viewBox="0 0 24 24" stroke-width="2" stroke="currentColor" fill="none" stroke-linecap="round" stroke-linejoin="round">
  <path stroke="none" d="M0 0h24v24H0z" fill="none"/>
  <path d="M3.575 3.597a2 2 0 0 0 2.849 2.808m12.576 -1.405m-2 0a2 2 0 1 0 4 0a2 2 0 1 0 -4 0m-12 14m-2 0a2 2 0 1 0 4 0a2 2 0 1 0 -4 0m14.574 -1.402a2 2 0 0 0 2.826 2.83m-15.4 -13.428v10m4 -12h8m-10 14h10m2 -12v8m-16 -12l18 18" />
</svg>


