<svg xmlns="http://www.w3.org/2000/svg" class="icon icon-tabler icon-tabler-share-off" width="24" height="24" viewBox="0 0 24 24" stroke-width="2" stroke="currentColor" fill="none" stroke-linecap="round" stroke-linejoin="round">
  <path stroke="none" d="M0 0h24v24H0z" fill="none"/>
  <path d="M6 12m-3 0a3 3 0 1 0 6 0a3 3 0 1 0 -6 0m15 -6m-3 0a3 3 0 1 0 6 0a3 3 0 1 0 -6 0m.861 9.896a3 3 0 0 0 4.265 4.22m.578 -3.417a3.012 3.012 0 0 0 -1.507 -1.45m-10.497 -4.549l1.336 -.688m2.624 -1.352l2.64 -1.36m-6.6 6l6.6 3.4m-12.3 -13.7l18 18" />
</svg>


