<svg xmlns="http://www.w3.org/2000/svg" class="icon icon-tabler icon-tabler-ship" width="24" height="24" viewBox="0 0 24 24" stroke-width="2" stroke="currentColor" fill="none" stroke-linecap="round" stroke-linejoin="round">
  <desc>Download more icon variants from https://tabler-icons.io/i/ship</desc>
  <path stroke="none" d="M0 0h24v24H0z" fill="none"/>
  <path d="M2 20a2.4 2.4 0 0 0 2 1a2.4 2.4 0 0 0 2 -1a2.4 2.4 0 0 1 2 -1a2.4 2.4 0 0 1 2 1a2.4 2.4 0 0 0 2 1a2.4 2.4 0 0 0 2 -1a2.4 2.4 0 0 1 2 -1a2.4 2.4 0 0 1 2 1a2.4 2.4 0 0 0 2 1a2.4 2.4 0 0 0 2 -1" />
  <path d="M4 18l-1 -5h18l-2 4" />
  <path d="M5 13v-6h8l4 6" />
  <path d="M7 7v-4h-1" />
</svg>


