<svg xmlns="http://www.w3.org/2000/svg" class="icon icon-tabler icon-tabler-shopping-cart-x" width="24" height="24" viewBox="0 0 24 24" stroke-width="2" stroke="currentColor" fill="none" stroke-linecap="round" stroke-linejoin="round">
  <path stroke="none" d="M0 0h24v24H0z" fill="none"/>
  <path d="M6 19m-2 0a2 2 0 1 0 4 0a2 2 0 1 0 -4 0" />
  <path d="M17 19m-2 0a2 2 0 1 0 4 0a2 2 0 1 0 -4 0" />
  <path d="M17 17h-11v-14h-2" />
  <path d="M6 5l8 .571m5.43 4.43l-.429 3h-13" />
  <path d="M17 3l4 4" />
  <path d="M21 3l-4 4" />
</svg>


