<svg xmlns="http://www.w3.org/2000/svg" class="icon icon-tabler icon-tabler-shopping-bag-heart" width="24" height="24" viewBox="0 0 24 24" stroke-width="2" stroke="currentColor" fill="none" stroke-linecap="round" stroke-linejoin="round">
  <path stroke="none" d="M0 0h24v24H0z" fill="none"/>
  <path d="M11.5 21h-2.926a3 3 0 0 1 -2.965 -2.544l-1.255 -8.152a2 2 0 0 1 1.977 -2.304h11.339a2 2 0 0 1 1.977 2.304c-.057 .368 -.1 .644 -.127 .828" />
  <path d="M9 11v-5a3 3 0 0 1 6 0v5" />
  <path d="M18 22l3.35 -3.284a2.143 2.143 0 0 0 .005 -3.071a2.242 2.242 0 0 0 -3.129 -.006l-.224 .22l-.223 -.22a2.242 2.242 0 0 0 -3.128 -.006a2.143 2.143 0 0 0 -.006 3.071l3.355 3.296z" />
</svg>


