<svg xmlns="http://www.w3.org/2000/svg" class="icon icon-tabler icon-tabler-speakerphone" width="24" height="24" viewBox="0 0 24 24" stroke-width="2" stroke="currentColor" fill="none" stroke-linecap="round" stroke-linejoin="round">
  <path stroke="none" d="M0 0h24v24H0z" fill="none"/>
  <path d="M18 8a3 3 0 0 1 0 6" />
  <path d="M10 8v11a1 1 0 0 1 -1 1h-1a1 1 0 0 1 -1 -1v-5" />
  <path d="M12 8h0l4.524 -3.77a0.9 .9 0 0 1 1.476 .692v12.156a0.9 .9 0 0 1 -1.476 .692l-4.524 -3.77h-8a1 1 0 0 1 -1 -1v-4a1 1 0 0 1 1 -1h8" />
</svg>


