<svg xmlns="http://www.w3.org/2000/svg" class="icon icon-tabler icon-tabler-square-rounded-letter-k-filled" width="24" height="24" viewBox="0 0 24 24" stroke-width="2" stroke="currentColor" fill="none" stroke-linecap="round" stroke-linejoin="round">
  <path stroke="none" d="M0 0h24v24H0z" fill="none"/>
  <path d="M11.676 2.001 12 2c7.752 0 10 2.248 10 10l-.005.642C21.869 19.877 19.534 22 12 22l-.642-.005C4.228 21.87 2.063 19.6 2 12.325V12c0-7.643 2.185-9.936 9.676-9.999m2.854 5.151a1 1 0 0 0-1.378.318L11 10.913V8a1 1 0 0 0-.883-.993L10 7a1 1 0 0 0-1 1v8a1 1 0 0 0 2 0v-2.914l2.152 3.444a1 1 0 0 0 1.276.374l.102-.056.095-.068a1 1 0 0 0 .223-1.31L12.678 12l2.17-3.47a1 1 0 0 0-.318-1.378" stroke-width="0" fill="currentColor" />
</svg>


