<svg xmlns="http://www.w3.org/2000/svg" class="icon icon-tabler icon-tabler-square-key" width="24" height="24" viewBox="0 0 24 24" stroke-width="2" stroke="currentColor" fill="none" stroke-linecap="round" stroke-linejoin="round">
  <path stroke="none" d="M0 0h24v24H0z" fill="none"/>
  <path d="M14 10m-2 0a2 2 0 1 0 4 0a2 2 0 1 0 -4 0m.5 1.5l-4 4l1.5 1.5m2 -2l-1.5 -1.5m9.5 -6.833v10.666a2.667 2.667 0 0 1 -2.667 2.667h-10.666a2.667 2.667 0 0 1 -2.667 -2.667v-10.666a2.667 2.667 0 0 1 2.667 -2.667h10.666a2.667 2.667 0 0 1 2.667 2.667z" />
</svg>


