<svg xmlns="http://www.w3.org/2000/svg" class="icon icon-tabler icon-tabler-square-letter-l-filled" width="24" height="24" viewBox="0 0 24 24" stroke-width="2" stroke="currentColor" fill="none" stroke-linecap="round" stroke-linejoin="round">
  <path stroke="none" d="M0 0h24v24H0z" fill="none"/>
  <path d="M19 2a3 3 0 0 1 3 3v14a3 3 0 0 1-3 3H5a3 3 0 0 1-3-3V5a3 3 0 0 1 3-3zm-9 5a1 1 0 0 0-1 1v8a1 1 0 0 0 1 1h4a1 1 0 0 0 1-1l-.007-.117A1 1 0 0 0 14 15h-3V8a1 1 0 0 0-1-1" stroke-width="0" fill="currentColor" />
</svg>


