<svg xmlns="http://www.w3.org/2000/svg" class="icon icon-tabler icon-tabler-square-rounded-letter-x-filled" width="24" height="24" viewBox="0 0 24 24" stroke-width="2" stroke="currentColor" fill="none" stroke-linecap="round" stroke-linejoin="round">
  <path stroke="none" d="M0 0h24v24H0z" fill="none"/>
  <path d="M11.676 2.001 12 2c7.752 0 10 2.248 10 10l-.005.642C21.869 19.877 19.534 22 12 22l-.642-.005C4.228 21.87 2.063 19.6 2 12.325V12c0-7.643 2.185-9.936 9.676-9.999m2.771 5.105a1 1 0 0 0-1.341.447L12 9.763l-1.106-2.21a1 1 0 0 0-1.234-.494l-.107.047a1 1 0 0 0-.447 1.341L10.88 12l-1.775 3.553a1 1 0 0 0 .345 1.283l.102.058a1 1 0 0 0 1.341-.447L12 14.236l1.106 2.211a1 1 0 0 0 1.234.494l.107-.047a1 1 0 0 0 .447-1.341L13.118 12l1.776-3.553a1 1 0 0 0-.345-1.283z" stroke-width="0" fill="currentColor" />
</svg>


