<svg xmlns="http://www.w3.org/2000/svg" class="icon icon-tabler icon-tabler-square-letter-y-filled" width="24" height="24" viewBox="0 0 24 24" stroke-width="2" stroke="currentColor" fill="none" stroke-linecap="round" stroke-linejoin="round">
  <path stroke="none" d="M0 0h24v24H0z" fill="none"/>
  <path d="M19 2a3 3 0 0 1 3 3v14a3 3 0 0 1-3 3H5a3 3 0 0 1-3-3V5a3 3 0 0 1 3-3zm-4.629 5.072a1 1 0 0 0-1.3.557L12 10.307l-1.072-2.678a1 1 0 0 0-1.856.742L11 13.194V16a1 1 0 0 0 .883.993L12 17a1 1 0 0 0 1-1v-2.809l1.928-4.82a1 1 0 0 0-.45-1.25z" stroke-width="0" fill="currentColor" />
</svg>


