<svg xmlns="http://www.w3.org/2000/svg" class="icon icon-tabler icon-tabler-square-5-filled" width="24" height="24" viewBox="0 0 24 24" stroke-width="2" stroke="currentColor" fill="none" stroke-linecap="round" stroke-linejoin="round">
  <path stroke="none" d="M0 0h24v24H0z" fill="none"/>
  <path d="M18 3a3 3 0 0 1 2.995 2.824l.005 .176v12a3 3 0 0 1 -2.824 2.995l-.176 .005h-12a3 3 0 0 1 -2.995 -2.824l-.005 -.176v-12a3 3 0 0 1 2.824 -2.995l.176 -.005h12zm-4 4h-4a1 1 0 0 0 -.993 .883l-.007 .117v4a1 1 0 0 0 .883 .993l.117 .007h3v2h-2l-.007 -.117a1 1 0 0 0 -1.993 .117a2 2 0 0 0 1.85 1.995l.15 .005h2a2 2 0 0 0 1.995 -1.85l.005 -.15v-2a2 2 0 0 0 -1.85 -1.995l-.15 -.005h-2v-2h3a1 1 0 0 0 .993 -.883l.007 -.117a1 1 0 0 0 -.883 -.993l-.117 -.007z" stroke-width="0" fill="currentColor" />
</svg>


