<svg xmlns="http://www.w3.org/2000/svg" class="icon icon-tabler icon-tabler-square-rounded-letter-v-filled" width="24" height="24" viewBox="0 0 24 24" stroke-width="2" stroke="currentColor" fill="none" stroke-linecap="round" stroke-linejoin="round">
  <path stroke="none" d="M0 0h24v24H0z" fill="none"/>
  <path d="M11.676 2.001 12 2c7.752 0 10 2.248 10 10l-.005.642C21.869 19.877 19.534 22 12 22l-.642-.005C4.228 21.87 2.063 19.6 2 12.325V12c0-7.643 2.185-9.936 9.676-9.999m2.567 5.029a1 1 0 0 0-1.213.727L12 11.875l-1.03-4.118a1 1 0 1 0-1.94.486l2 8c.252 1.01 1.688 1.01 1.94 0l2-8a1 1 0 0 0-.727-1.213" stroke-width="0" fill="currentColor" />
</svg>


