<svg xmlns="http://www.w3.org/2000/svg" class="icon icon-tabler icon-tabler-square-9-filled" width="24" height="24" viewBox="0 0 24 24" stroke-width="2" stroke="currentColor" fill="none" stroke-linecap="round" stroke-linejoin="round">
  <path stroke="none" d="M0 0h24v24H0z" fill="none"/>
  <path d="M18 3a3 3 0 0 1 2.995 2.824l.005 .176v12a3 3 0 0 1 -2.824 2.995l-.176 .005h-12a3 3 0 0 1 -2.995 -2.824l-.005 -.176v-12a3 3 0 0 1 2.824 -2.995l.176 -.005h12zm-5 4h-2l-.15 .005a2 2 0 0 0 -1.844 1.838l-.006 .157v2l.005 .15a2 2 0 0 0 1.838 1.844l.157 .006h2v2h-2l-.007 -.117a1 1 0 0 0 -1.993 .117a2 2 0 0 0 1.85 1.995l.15 .005h2l.15 -.005a2 2 0 0 0 1.844 -1.838l.006 -.157v-6l-.005 -.15a2 2 0 0 0 -1.838 -1.844l-.157 -.006zm0 2v2h-2v-2h2z" stroke-width="0" fill="currentColor" />
</svg>


