<svg xmlns="http://www.w3.org/2000/svg" class="icon icon-tabler icon-tabler-square-letter-t-filled" width="24" height="24" viewBox="0 0 24 24" stroke-width="2" stroke="currentColor" fill="none" stroke-linecap="round" stroke-linejoin="round">
  <path stroke="none" d="M0 0h24v24H0z" fill="none"/>
  <path d="M19 2a3 3 0 0 1 3 3v14a3 3 0 0 1-3 3H5a3 3 0 0 1-3-3V5a3 3 0 0 1 3-3zm-5 5h-4a1 1 0 1 0 0 2h1v7a1 1 0 0 0 .883.993L12 17a1 1 0 0 0 1-1V9h1a1 1 0 0 0 .993-.883L15 8a1 1 0 0 0-1-1" stroke-width="0" fill="currentColor" />
</svg>


