<svg xmlns="http://www.w3.org/2000/svg" class="icon icon-tabler icon-tabler-square-f3" width="24" height="24" viewBox="0 0 24 24" stroke-width="2" stroke="currentColor" fill="none" stroke-linecap="round" stroke-linejoin="round">
  <path stroke="none" d="M0 0h24v24H0z" fill="none"/>
  <path d="M3 3m0 2a2 2 0 0 1 2 -2h14a2 2 0 0 1 2 2v14a2 2 0 0 1 -2 2h-14a2 2 0 0 1 -2 -2z" />
  <path d="M13 9.5a.5 .5 0 0 1 .5 -.5h1a1.5 1.5 0 0 1 0 3h-.5h.5a1.5 1.5 0 0 1 0 3h-1a.5 .5 0 0 1 -.5 -.5" />
  <path d="M8 12h2" />
  <path d="M10 9h-2v6" />
</svg>


