<svg xmlns="http://www.w3.org/2000/svg" class="icon icon-tabler icon-tabler-square-letter-b-filled" width="24" height="24" viewBox="0 0 24 24" stroke-width="2" stroke="currentColor" fill="none" stroke-linecap="round" stroke-linejoin="round">
  <path stroke="none" d="M0 0h24v24H0z" fill="none"/>
  <path d="M19 2a3 3 0 0 1 3 3v14a3 3 0 0 1-3 3H5a3 3 0 0 1-3-3V5a3 3 0 0 1 3-3zm-7 5h-2a1 1 0 0 0-1 1v8a1 1 0 0 0 1 1h2a3 3 0 0 0 3-3l-.005-.176a3 3 0 0 0-.654-1.7L14.235 12l.106-.124A3 3 0 0 0 12 7m0 6a1 1 0 0 1 0 2h-1v-2zm0-4a1 1 0 0 1 0 2h-1V9z" stroke-width="0" fill="currentColor" />
</svg>


