<svg xmlns="http://www.w3.org/2000/svg" class="icon icon-tabler icon-tabler-square-rounded-letter-w-filled" width="24" height="24" viewBox="0 0 24 24" stroke-width="2" stroke="currentColor" fill="none" stroke-linecap="round" stroke-linejoin="round">
  <path stroke="none" d="M0 0h24v24H0z" fill="none"/>
  <path d="M11.676 2.001 12 2c7.752 0 10 2.248 10 10l-.005.642C21.869 19.877 19.534 22 12 22l-.642-.005C4.228 21.87 2.063 19.6 2 12.325V12c0-7.643 2.185-9.936 9.676-9.999m2.332 5.875-.52 4.153-.56-1.4c-.319-.799-1.41-.837-1.803-.114l-.053.114-.561 1.4-.519-4.153a1 1 0 0 0-1-.876l-.116.008a1 1 0 0 0-.868 1.116l1 8c.128 1.025 1.537 1.207 1.92.247L12 13.693l1.072 2.678c.383.96 1.792.778 1.92-.247l1-8a1 1 0 0 0-1.984-.248" stroke-width="0" fill="currentColor" />
</svg>


