<svg xmlns="http://www.w3.org/2000/svg" class="icon icon-tabler icon-tabler-squares-filled" width="24" height="24" viewBox="0 0 24 24" stroke-width="2" stroke="currentColor" fill="none" stroke-linecap="round" stroke-linejoin="round">
  <path stroke="none" d="M0 0h24v24H0z" fill="none"/>
  <path d="M8 8m0 2a2 2 0 0 1 2 -2h8a2 2 0 0 1 2 2v8a2 2 0 0 1 -2 2h-8a2 2 0 0 1 -2 -2zm0 4.5l6.492 -6.492m-1 12l6.504 -6.504l-6.504 6.504zm-4.91 -.59l10.827 -10.827m-3.413 -.587v-2a2 2 0 0 0 -2 -2h-8a2 2 0 0 0 -2 2v8a2 2 0 0 0 2 2h2" />
</svg>


