<svg xmlns="http://www.w3.org/2000/svg" class="icon icon-tabler icon-tabler-stars-off" width="24" height="24" viewBox="0 0 24 24" stroke-width="2" stroke="currentColor" fill="none" stroke-linecap="round" stroke-linejoin="round">
  <path stroke="none" d="M0 0h24v24H0z" fill="none"/>
  <path d="M17.373 13.371l.076 -.154a0.392 .392 0 0 1 .702 0l.907 1.831m.367 .39c.498 .071 1.245 .18 2.24 .324a0.39 .39 0 0 1 .217 .665c-.326 .316 -.57 .553 -.732 .712m-.611 3.405a0.39 .39 0 0 1 -.567 .411l-2.172 -1.138l-2.172 1.138a0.392 .392 0 0 1 -.568 -.41l.415 -2.411l-1.757 -1.707a0.389 .389 0 0 1 .217 -.665l1.601 -.232m-9.336 4.287l-2.172 1.138a0.392 .392 0 0 1 -.568 -.41l.415 -2.411l-1.757 -1.707a0.389 .389 0 0 1 .217 -.665l2.428 -.352l1.086 -2.193a0.392 .392 0 0 1 .702 0l1.086 2.193l2.428 .352a0.39 .39 0 0 1 .217 .665l-1.757 1.707l.414 2.41a0.39 .39 0 0 1 -.567 .411l-2.172 -1.138zm3.357 -14.261l1 -.146l1.086 -2.193a0.392 .392 0 0 1 .702 0l1.086 2.193l2.428 .352a0.39 .39 0 0 1 .217 .665l-1.757 1.707l.414 2.41a0.39 .39 0 0 1 -.014 .187m-4.153 -.166l-.744 .39a0.392 .392 0 0 1 -.568 -.41l.188 -1.093m-6.448 -6.452l18 18" />
</svg>


