<svg xmlns="http://www.w3.org/2000/svg" class="icon icon-tabler icon-tabler-swimming" width="24" height="24" viewBox="0 0 24 24" stroke-width="2" stroke="currentColor" fill="none" stroke-linecap="round" stroke-linejoin="round">
  <path stroke="none" d="M0 0h24v24H0z" fill="none"/>
  <circle cx="16" cy="9" r="1" />
  <path d="M6 11l4 -2l3.5 3l-1.5 2" />
  <path d="M3 16.75a2.4 2.4 0 0 0 1 .25a2.4 2.4 0 0 0 2 -1a2.4 2.4 0 0 1 2 -1a2.4 2.4 0 0 1 2 1a2.4 2.4 0 0 0 2 1a2.4 2.4 0 0 0 2 -1a2.4 2.4 0 0 1 2 -1a2.4 2.4 0 0 1 2 1a2.4 2.4 0 0 0 2 1a2.4 2.4 0 0 0 1 -.25" />
</svg>


