<svg xmlns="http://www.w3.org/2000/svg" class="icon icon-tabler icon-tabler-table-filled" width="24" height="24" viewBox="0 0 24 24" stroke-width="2" stroke="currentColor" fill="none" stroke-linecap="round" stroke-linejoin="round">
  <path stroke="none" d="M0 0h24v24H0z" fill="none"/>
  <path d="M4 11h4a1 1 0 0 1 1 1v8a1 1 0 0 1 -1 1h-2a3 3 0 0 1 -2.995 -2.824l-.005 -.176v-6a1 1 0 0 1 1 -1z" stroke-width="0" fill="currentColor" />
  <path d="M21 12v6a3 3 0 0 1 -2.824 2.995l-.176 .005h-6a1 1 0 0 1 -1 -1v-8a1 1 0 0 1 1 -1h8a1 1 0 0 1 1 1z" stroke-width="0" fill="currentColor" />
  <path d="M18 3a3 3 0 0 1 2.995 2.824l.005 .176v2a1 1 0 0 1 -1 1h-8a1 1 0 0 1 -1 -1v-4a1 1 0 0 1 1 -1h6z" stroke-width="0" fill="currentColor" />
  <path d="M9 4v4a1 1 0 0 1 -1 1h-4a1 1 0 0 1 -1 -1v-2a3 3 0 0 1 2.824 -2.995l.176 -.005h2a1 1 0 0 1 1 1z" stroke-width="0" fill="currentColor" />
</svg>


