<svg xmlns="http://www.w3.org/2000/svg" class="icon icon-tabler icon-tabler-tag" width="24" height="24" viewBox="0 0 24 24" stroke-width="2" stroke="currentColor" fill="none" stroke-linecap="round" stroke-linejoin="round">
  <path stroke="none" d="M0 0h24v24H0z" fill="none"/>
  <path d="M8.5 8.5m-1 0a1 1 0 1 0 2 0a1 1 0 1 0 -2 0m-3.5 -1.5v3.859c0 .537 .213 1.052 .593 1.432l8.116 8.116a2.025 2.025 0 0 0 2.864 0l4.834 -4.834a2.025 2.025 0 0 0 0 -2.864l-8.117 -8.116a2.025 2.025 0 0 0 -1.431 -.593h-3.859a3 3 0 0 0 -3 3z" />
</svg>


