<svg xmlns="http://www.w3.org/2000/svg" class="icon icon-tabler icon-tabler-template-off" width="24" height="24" viewBox="0 0 24 24" stroke-width="2" stroke="currentColor" fill="none" stroke-linecap="round" stroke-linejoin="round">
  <path stroke="none" d="M0 0h24v24H0z" fill="none"/>
  <path d="M8 4h11a1 1 0 0 1 1 1v2a1 1 0 0 1 -1 1h-7m-4 0h-3a1 1 0 0 1 -1 -1v-2c0 -.271 .108 -.517 .283 -.697m-.283 7.697m0 1a1 1 0 0 1 1 -1h4a1 1 0 0 1 1 1v6a1 1 0 0 1 -1 1h-4a1 1 0 0 1 -1 -1zm12 -1h4m-6 4h2m-2 4h6m-17 -17l18 18" />
</svg>


