<svg xmlns="http://www.w3.org/2000/svg" class="icon icon-tabler icon-tabler-ticket-off" width="24" height="24" viewBox="0 0 24 24" stroke-width="2" stroke="currentColor" fill="none" stroke-linecap="round" stroke-linejoin="round">
  <desc>Download more icon variants from https://tabler-icons.io/i/ticket-off</desc>
  <path stroke="none" d="M0 0h24v24H0z" fill="none"/>
  <path d="M15 5v2" />
  <path d="M15 17v2" />
  <path d="M9 5h10a2 2 0 0 1 2 2v3a2 2 0 1 0 0 4v3m-2 2h-14a2 2 0 0 1 -2 -2v-3a2 2 0 1 0 0 -4v-3a2 2 0 0 1 2 -2" />
  <path d="M3 3l18 18" />
</svg>


