<svg xmlns="http://www.w3.org/2000/svg" class="icon icon-tabler icon-tabler-topology-star-2" width="24" height="24" viewBox="0 0 24 24" stroke-width="2" stroke="currentColor" fill="none" stroke-linecap="round" stroke-linejoin="round">
  <path stroke="none" d="M0 0h24v24H0z" fill="none"/>
  <path d="M14 20a2 2 0 1 0 -4 0a2 2 0 0 0 4 0zm0 -16a2 2 0 1 0 -4 0a2 2 0 0 0 4 0zm-8 8a2 2 0 1 0 -4 0a2 2 0 0 0 4 0zm16 0a2 2 0 1 0 -4 0a2 2 0 0 0 4 0zm-8 0a2 2 0 1 0 -4 0a2 2 0 0 0 4 0zm-8 0h4m4 0h4m-6 -6v4m0 4v4" />
</svg>


