<svg xmlns="http://www.w3.org/2000/svg" class="icon icon-tabler icon-tabler-tournament" width="24" height="24" viewBox="0 0 24 24" stroke-width="2" stroke="currentColor" fill="none" stroke-linecap="round" stroke-linejoin="round">
  <path stroke="none" d="M0 0h24v24H0z" fill="none"/>
  <path d="M5 6h3a1 1 0 0 1 1 1v2a1 1 0 0 1 -1 1h-3" />
  <path d="M5 14h3a1 1 0 0 1 1 1v2a1 1 0 0 1 -1 1h-3" />
  <path d="M9 8h4a1 1 0 0 1 1 1v6a1 1 0 0 1 -1 1h-4" />
  <line x1="14" y1="12" x2="19" y2="12" />
</svg>


