<svg xmlns="http://www.w3.org/2000/svg" class="icon icon-tabler icon-tabler-traffic-lights" width="24" height="24" viewBox="0 0 24 24" stroke-width="2" stroke="currentColor" fill="none" stroke-linecap="round" stroke-linejoin="round">
  <path stroke="none" d="M0 0h24v24H0z" fill="none"/>
  <path d="M7 2m0 5a5 5 0 0 1 5 -5h0a5 5 0 0 1 5 5v10a5 5 0 0 1 -5 5h0a5 5 0 0 1 -5 -5z" />
  <path d="M12 7m-1 0a1 1 0 1 0 2 0a1 1 0 1 0 -2 0" />
  <path d="M12 12m-1 0a1 1 0 1 0 2 0a1 1 0 1 0 -2 0" />
  <path d="M12 17m-1 0a1 1 0 1 0 2 0a1 1 0 1 0 -2 0" />
</svg>


