<svg xmlns="http://www.w3.org/2000/svg" class="icon icon-tabler icon-tabler-triangle-square-circle-filled" width="24" height="24" viewBox="0 0 24 24" stroke-width="2" stroke="currentColor" fill="none" stroke-linecap="round" stroke-linejoin="round">
  <path stroke="none" d="M0 0h24v24H0z" fill="none"/>
  <path d="M11.132 2.504l-4 7a1 1 0 0 0 .868 1.496h8a1 1 0 0 0 .868 -1.496l-4 -7a1 1 0 0 0 -1.736 0z" stroke-width="0" fill="currentColor" />
  <path d="M17 13a4 4 0 1 1 -3.995 4.2l-.005 -.2l.005 -.2a4 4 0 0 1 3.995 -3.8z" stroke-width="0" fill="currentColor" />
  <path d="M9 13h-4a2 2 0 0 0 -2 2v4a2 2 0 0 0 2 2h4a2 2 0 0 0 2 -2v-4a2 2 0 0 0 -2 -2z" stroke-width="0" fill="currentColor" />
</svg>


