<svg xmlns="http://www.w3.org/2000/svg" class="icon icon-tabler icon-tabler-typeface" width="24" height="24" viewBox="0 0 24 24" stroke-width="2" stroke="currentColor" fill="none" stroke-linecap="round" stroke-linejoin="round">
  <path stroke="none" d="M0 0h24v24H0z" fill="none"/>
  <path d="M3 5a2 2 0 0 1 2-2h14a2 2 0 0 1 2 2v14a2 2 0 0 1-2 2H5a2 2 0 0 1-2-2z"/>
  <path d="M17 17a2 2 0 0 1-2-2V7h-5a2 2 0 0 0-2 2"/>
  <path d="M7 17a2.775 2.775 0 0 0 2.632-1.897L10 14a13.4 13.4 0 0 1 3.236-5.236L15 7"/>
  <path d="M10 14h5"/>
</svg>


