<svg xmlns="http://www.w3.org/2000/svg" class="icon icon-tabler icon-tabler-ufo-off" width="24" height="24" viewBox="0 0 24 24" stroke-width="2" stroke="currentColor" fill="none" stroke-linecap="round" stroke-linejoin="round">
  <path stroke="none" d="M0 0h24v24H0z" fill="none"/>
  <path d="M16.95 9.01c3.02 .739 5.05 2.123 5.05 3.714c0 1.08 -.931 2.063 -2.468 2.814m-3 1c-1.36 .295 -2.9 .462 -4.531 .462c-5.52 0 -10 -1.909 -10 -4.276c0 -1.59 2.04 -2.985 5.07 -3.724m7.62 1.686c1.388 -.355 2.31 -.976 2.31 -1.686v-.035c0 -2.742 -2.239 -4.965 -5 -4.965c-1.125 0 -2.164 .37 -3 .992m-1.707 2.297a4.925 4.925 0 0 0 -.293 1.676v.035c0 .961 1.696 1.764 3.956 1.956m4.044 6.044l2 3m-8.5 -3l-1.5 3m5 -6h.01m-5.01 -1h.01m9.99 0h.01m-14.01 -10l18 18" />
</svg>


