<svg xmlns="http://www.w3.org/2000/svg" class="icon icon-tabler icon-tabler-unlink" width="24" height="24" viewBox="0 0 24 24" stroke-width="2" stroke="currentColor" fill="none" stroke-linecap="round" stroke-linejoin="round">
  <path stroke="none" d="M0 0h24v24H0z" fill="none"/>
  <path d="M10 14a3.5 3.5 0 0 0 5 0l4 -4a3.5 3.5 0 0 0 -5 -5l-.5 .5" />
  <path d="M14 10a3.5 3.5 0 0 0 -5 0l-4 4a3.5 3.5 0 0 0 5 5l.5 -.5" />
  <path d="M16 21l0 -2" />
  <path d="M19 16l2 0" />
  <path d="M3 8l2 0" />
  <path d="M8 3l0 2" />
</svg>


