<svg xmlns="http://www.w3.org/2000/svg" class="icon icon-tabler icon-tabler-vaccine-bottle" width="24" height="24" viewBox="0 0 24 24" stroke-width="2" stroke="currentColor" fill="none" stroke-linecap="round" stroke-linejoin="round">
  <desc>Download more icon variants from https://tabler-icons.io/i/vaccine-bottle</desc>
  <path stroke="none" d="M0 0h24v24H0z" fill="none"/>
  <rect x="9" y="3" width="6" height="3" rx="1" />
  <path d="M10 6v.98c0 .877 -.634 1.626 -1.5 1.77c-.866 .144 -1.5 .893 -1.5 1.77v8.48a2 2 0 0 0 2 2h6a2 2 0 0 0 2 -2v-8.48c0 -.877 -.634 -1.626 -1.5 -1.77a1.795 1.795 0 0 1 -1.5 -1.77v-.98" />
  <path d="M7 12h10" />
  <path d="M7 18h10" />
  <path d="M11 15h2" />
</svg>


