<svg xmlns="http://www.w3.org/2000/svg" class="icon icon-tabler icon-tabler-vector-off" width="24" height="24" viewBox="0 0 24 24" stroke-width="2" stroke="currentColor" fill="none" stroke-linecap="round" stroke-linejoin="round">
  <desc>Download more icon variants from https://tabler-icons.io/i/vector-off</desc>
  <path stroke="none" d="M0 0h24v24H0z" fill="none"/>
  <path d="M6.68 6.733a0.996 .996 0 0 1 -.68 .267h-2a1 1 0 0 1 -1 -1v-2c0 -.276 .112 -.527 .293 -.708" />
  <rect x="17" y="3" width="4" height="4" rx="1" />
  <path d="M20.72 20.693a0.997 .997 0 0 1 -.72 .307h-2a1 1 0 0 1 -1 -1v-2c0 -.282 .116 -.536 .304 -.718" />
  <rect x="3" y="17" width="4" height="4" rx="1" />
  <path d="M5 7v10" />
  <path d="M19 7v8" />
  <path d="M9 5h8" />
  <path d="M7 19h10" />
  <path d="M3 3l18 18" />
</svg>


