<svg xmlns="http://www.w3.org/2000/svg" class="icon icon-tabler icon-tabler-video-off" width="24" height="24" viewBox="0 0 24 24" stroke-width="2" stroke="currentColor" fill="none" stroke-linecap="round" stroke-linejoin="round">
  <path stroke="none" d="M0 0h24v24H0z" fill="none"/>
  <line x1="3" y1="3" x2="21" y2="21" />
  <path d="M15 11v-1l4.553 -2.276a1 1 0 0 1 1.447 .894v6.764a1 1 0 0 1 -.675 .946" />
  <path d="M10 6h3a2 2 0 0 1 2 2v3m0 4v1a2 2 0 0 1 -2 2h-8a2 2 0 0 1 -2 -2v-8a2 2 0 0 1 2 -2h1" />
</svg>


