<svg xmlns="http://www.w3.org/2000/svg" class="icon icon-tabler icon-tabler-volume" width="24" height="24" viewBox="0 0 24 24" stroke-width="2" stroke="currentColor" fill="none" stroke-linecap="round" stroke-linejoin="round">
  <desc>Download more icon variants from https://tabler-icons.io/i/volume</desc>
  <path stroke="none" d="M0 0h24v24H0z" fill="none"/>
  <path d="M15 8a5 5 0 0 1 0 8" />
  <path d="M17.7 5a9 9 0 0 1 0 14" />
  <path d="M6 15h-2a1 1 0 0 1 -1 -1v-4a1 1 0 0 1 1 -1h2l3.5 -4.5a0.8 .8 0 0 1 1.5 .5v14a0.8 .8 0 0 1 -1.5 .5l-3.5 -4.5" />
</svg>


