<svg xmlns="http://www.w3.org/2000/svg" class="icon icon-tabler icon-tabler-wiper-wash" width="24" height="24" viewBox="0 0 24 24" stroke-width="2" stroke="currentColor" fill="none" stroke-linecap="round" stroke-linejoin="round">
  <path stroke="none" d="M0 0h24v24H0z" fill="none"/>
  <path d="M12 20m-1 0a1 1 0 1 0 2 0a1 1 0 1 0 -2 0m-8 -9l5.5 5.5a5 5 0 0 1 7 0l5.5 -5.5a12 12 0 0 0 -18 0m9 9l0 -14m-8 0a4 4 0 0 1 .4 -1.8m2.6 -2.1a4 4 0 0 1 2 0m3 3.9a4 4 0 0 0 -.4 -1.8m.4 1.8a4 4 0 0 1 .4 -1.8m2.6 -2.1a4 4 0 0 1 2 0m3 3.9a4 4 0 0 0 -.4 -1.8" />
</svg>


