<svg xmlns="http://www.w3.org/2000/svg" class="icon icon-tabler icon-tabler-world-dollar" width="24" height="24" viewBox="0 0 24 24" stroke-width="2" stroke="currentColor" fill="none" stroke-linecap="round" stroke-linejoin="round">
  <path stroke="none" d="M0 0h24v24H0z" fill="none"/>
  <path d="M20.876 10.51a9 9 0 1 0 -7.839 10.43" />
  <path d="M3.6 9h16.8" />
  <path d="M3.6 15h9.9" />
  <path d="M11.5 3a17 17 0 0 0 0 18" />
  <path d="M12.5 3a16.986 16.986 0 0 1 2.578 9.02" />
  <path d="M21 15h-2.5a1.5 1.5 0 0 0 0 3h1a1.5 1.5 0 0 1 0 3h-2.5" />
  <path d="M19 21v1m0 -8v1" />
</svg>


