<svg xmlns="http://www.w3.org/2000/svg" class="icon icon-tabler icon-tabler-world-www" width="24" height="24" viewBox="0 0 24 24" stroke-width="2" stroke="currentColor" fill="none" stroke-linecap="round" stroke-linejoin="round">
  <path stroke="none" d="M0 0h24v24H0z" fill="none"/>
  <path d="M19.5 7a9 9 0 0 0 -7.5 -4a8.991 8.991 0 0 0 -7.484 4m6.984 -4a16.989 16.989 0 0 0 -1.826 4m2.826 -4a16.989 16.989 0 0 1 1.828 4m5.172 10a9 9 0 0 1 -7.5 4a8.991 8.991 0 0 1 -7.484 -4m6.984 4a16.989 16.989 0 0 1 -1.826 -4m2.826 4a16.989 16.989 0 0 0 1.828 -4m-12.328 -7l1 4l1.5 -4l1.5 4l1 -4m10 0l1 4l1.5 -4l1.5 4l1 -4m-12.5 0l1 4l1.5 -4l1.5 4l1 -4" />
</svg>


