<svg xmlns="http://www.w3.org/2000/svg" class="icon icon-tabler icon-tabler-yin-yang-filled" width="24" height="24" viewBox="0 0 24 24" stroke-width="2" stroke="currentColor" fill="none" stroke-linecap="round" stroke-linejoin="round">
  <path stroke="none" d="M0 0h24v24H0z" fill="none"/>
  <path d="M17 3.34a10 10 0 1 1 -14.995 8.984l-.005 -.324l.005 -.324a10 10 0 0 1 14.995 -8.336zm-9 1.732a8 8 0 0 0 4 14.928l.2 -.005a4 4 0 0 0 0 -7.99l-.2 -.005a4 4 0 0 1 -.2 -7.995l.2 -.005a7.995 7.995 0 0 0 -4 1.072zm4 1.428a1.5 1.5 0 1 0 0 3a1.5 1.5 0 0 0 0 -3z" stroke-width="0" fill="currentColor" />
  <path d="M12 14.5a1.5 1.5 0 1 1 0 3a1.5 1.5 0 0 1 0 -3z" stroke-width="0" fill="currentColor" />
</svg>


