<svg width="24" height="24" viewBox="0 0 24 24"
  xmlns="http://www.w3.org/2000/svg">
  <g fill="none" fill-rule="evenodd" stroke="#206bc4" stroke-width=".025" opacity=".5">
    <rect x="4" y="2" width="16" height="20" rx="3" stroke-dasharray=".5 .5"/>
    <rect x="2" y="4" width="20" height="16" rx="3" stroke-dasharray=".5 .5"/>
    <rect x="3" y="3" width="18" height="18" rx="3" />
    <circle cx="12" cy="12" r="5" />
    <circle cx="12" cy="12" r="10" />
    <line x1="0" y1="12" x2="24" y2="12" />
    <line x1="12" y1="0" x2="12" y2="24" />
  </g>
  <g font-family="system-ui, -apple-system, BlinkMacSystemFont, Segoe UI, Roboto, Helvetica Neue, Arial, Noto Sans, sans-serif, Apple Color Emoji, Segoe UI Emoji, Segoe UI Symbol, Noto Color Emoji">

    <g fill="#ccc" font-size=".3">
      <text x="0" y="1.35">1</text>
      <text x="1.1" y=".25">1</text>
    </g>
    <g stroke="#666" stroke-width=".01">
      <line x1="0" y1="1" x2="24" y2="1" />
      <line x1="1" y1="0" x2="1" y2="24" />
    </g>

    <g fill="#ccc" font-size=".3">
      <text x="0" y="2.35">2</text>
      <text x="2.1" y=".25">2</text>
    </g>
    <g stroke="#666" stroke-width=".01">
      <line x1="0" y1="2" x2="24" y2="2" />
      <line x1="2" y1="0" x2="2" y2="24" />
    </g>

    <g fill="#ccc" font-size=".3">
      <text x="0" y="3.35">3</text>
      <text x="3.1" y=".25">3</text>
    </g>
    <g stroke="#666" stroke-width=".01">
      <line x1="0" y1="3" x2="24" y2="3" />
      <line x1="3" y1="0" x2="3" y2="24" />
    </g>

    <g fill="#ccc" font-size=".3">
      <text x="0" y="4.35">4</text>
      <text x="4.1" y=".25">4</text>
    </g>
    <g stroke="#666" stroke-width=".01">
      <line x1="0" y1="4" x2="24" y2="4" />
      <line x1="4" y1="0" x2="4" y2="24" />
    </g>

    <g fill="#ccc" font-size=".3">
      <text x="0" y="5.35">5</text>
      <text x="5.1" y=".25">5</text>
    </g>
    <g stroke="#666" stroke-width=".01">
      <line x1="0" y1="5" x2="24" y2="5" />
      <line x1="5" y1="0" x2="5" y2="24" />
    </g>

    <g fill="#ccc" font-size=".3">
      <text x="0" y="6.35">6</text>
      <text x="6.1" y=".25">6</text>
    </g>
    <g stroke="#666" stroke-width=".01">
      <line x1="0" y1="6" x2="24" y2="6" />
      <line x1="6" y1="0" x2="6" y2="24" />
    </g>

    <g fill="#ccc" font-size=".3">
      <text x="0" y="7.35">7</text>
      <text x="7.1" y=".25">7</text>
    </g>
    <g stroke="#666" stroke-width=".01">
      <line x1="0" y1="7" x2="24" y2="7" />
      <line x1="7" y1="0" x2="7" y2="24" />
    </g>

    <g fill="#ccc" font-size=".3">
      <text x="0" y="8.35">8</text>
      <text x="8.1" y=".25">8</text>
    </g>
    <g stroke="#666" stroke-width=".01">
      <line x1="0" y1="8" x2="24" y2="8" />
      <line x1="8" y1="0" x2="8" y2="24" />
    </g>

    <g fill="#ccc" font-size=".3">
      <text x="0" y="9.35">9</text>
      <text x="9.1" y=".25">9</text>
    </g>
    <g stroke="#666" stroke-width=".01">
      <line x1="0" y1="9" x2="24" y2="9" />
      <line x1="9" y1="0" x2="9" y2="24" />
    </g>

    <g fill="#ccc" font-size=".3">
      <text x="0" y="10.35">10</text>
      <text x="10.1" y=".25">10</text>
    </g>
    <g stroke="#666" stroke-width=".01">
      <line x1="0" y1="10" x2="24" y2="10" />
      <line x1="10" y1="0" x2="10" y2="24" />
    </g>

    <g fill="#ccc" font-size=".3">
      <text x="0" y="11.35">11</text>
      <text x="11.1" y=".25">11</text>
    </g>
    <g stroke="#666" stroke-width=".01">
      <line x1="0" y1="11" x2="24" y2="11" />
      <line x1="11" y1="0" x2="11" y2="24" />
    </g>

    <g fill="#ccc" font-size=".3">
      <text x="0" y="12.35">12</text>
      <text x="12.1" y=".25">12</text>
    </g>
    <g stroke="#666" stroke-width=".01">
      <line x1="0" y1="12" x2="24" y2="12" />
      <line x1="12" y1="0" x2="12" y2="24" />
    </g>

    <g fill="#ccc" font-size=".3">
      <text x="0" y="13.35">13</text>
      <text x="13.1" y=".25">13</text>
    </g>
    <g stroke="#666" stroke-width=".01">
      <line x1="0" y1="13" x2="24" y2="13" />
      <line x1="13" y1="0" x2="13" y2="24" />
    </g>

    <g fill="#ccc" font-size=".3">
      <text x="0" y="14.35">14</text>
      <text x="14.1" y=".25">14</text>
    </g>
    <g stroke="#666" stroke-width=".01">
      <line x1="0" y1="14" x2="24" y2="14" />
      <line x1="14" y1="0" x2="14" y2="24" />
    </g>

    <g fill="#ccc" font-size=".3">
      <text x="0" y="15.35">15</text>
      <text x="15.1" y=".25">15</text>
    </g>
    <g stroke="#666" stroke-width=".01">
      <line x1="0" y1="15" x2="24" y2="15" />
      <line x1="15" y1="0" x2="15" y2="24" />
    </g>

    <g fill="#ccc" font-size=".3">
      <text x="0" y="16.35">16</text>
      <text x="16.1" y=".25">16</text>
    </g>
    <g stroke="#666" stroke-width=".01">
      <line x1="0" y1="16" x2="24" y2="16" />
      <line x1="16" y1="0" x2="16" y2="24" />
    </g>

    <g fill="#ccc" font-size=".3">
      <text x="0" y="17.35">17</text>
      <text x="17.1" y=".25">17</text>
    </g>
    <g stroke="#666" stroke-width=".01">
      <line x1="0" y1="17" x2="24" y2="17" />
      <line x1="17" y1="0" x2="17" y2="24" />
    </g>

    <g fill="#ccc" font-size=".3">
      <text x="0" y="18.35">18</text>
      <text x="18.1" y=".25">18</text>
    </g>
    <g stroke="#666" stroke-width=".01">
      <line x1="0" y1="18" x2="24" y2="18" />
      <line x1="18" y1="0" x2="18" y2="24" />
    </g>

    <g fill="#ccc" font-size=".3">
      <text x="0" y="19.35">19</text>
      <text x="19.1" y=".25">19</text>
    </g>
    <g stroke="#666" stroke-width=".01">
      <line x1="0" y1="19" x2="24" y2="19" />
      <line x1="19" y1="0" x2="19" y2="24" />
    </g>

    <g fill="#ccc" font-size=".3">
      <text x="0" y="20.35">20</text>
      <text x="20.1" y=".25">20</text>
    </g>
    <g stroke="#666" stroke-width=".01">
      <line x1="0" y1="20" x2="24" y2="20" />
      <line x1="20" y1="0" x2="20" y2="24" />
    </g>

    <g fill="#ccc" font-size=".3">
      <text x="0" y="21.35">21</text>
      <text x="21.1" y=".25">21</text>
    </g>
    <g stroke="#666" stroke-width=".01">
      <line x1="0" y1="21" x2="24" y2="21" />
      <line x1="21" y1="0" x2="21" y2="24" />
    </g>

    <g fill="#ccc" font-size=".3">
      <text x="0" y="22.35">22</text>
      <text x="22.1" y=".25">22</text>
    </g>
    <g stroke="#666" stroke-width=".01">
      <line x1="0" y1="22" x2="24" y2="22" />
      <line x1="22" y1="0" x2="22" y2="24" />
    </g>

    <g fill="#ccc" font-size=".3">
      <text x="0" y="23.35">23</text>
      <text x="23.1" y=".25">23</text>
    </g>
    <g stroke="#666" stroke-width=".01">
      <line x1="0" y1="23" x2="24" y2="23" />
      <line x1="23" y1="0" x2="23" y2="24" />
    </g>

    <g fill="#ccc" font-size=".3">
      <text x="0" y="24.35">24</text>
      <text x="24.1" y=".25">24</text>
    </g>
    <g stroke="#666" stroke-width=".01">
      <line x1="0" y1="24" x2="24" y2="24" />
      <line x1="24" y1="0" x2="24" y2="24" />
    </g>

  </g>
</svg>
