---
tags: [plant, garden, rose, lotus]
category: Nature
version: "1.65"
unicode: "f131"
---
<svg>
  <path d="M9.875 9.882a3 3 0 0 0 4.247 4.238m.581 -3.423a3.012 3.012 0 0 0 -1.418 -1.409" />
  <path d="M9 5a3 3 0 0 1 6 0c0 .562 -.259 1.442 -.776 2.64l-.724 1.36l1.76 -1.893c.499 -.6 .922 -1 1.27 -1.205a2.968 2.968 0 0 1 4.07 1.099a3.011 3.011 0 0 1 -1.09 4.098c-.374 .217 -.99 .396 -1.846 .535l-1.779 .244m.292 .282l1.223 .166c1 .145 1.698 .337 2.11 .576a3.011 3.011 0 0 1 1.226 3.832m-2.277 1.733a2.968 2.968 0 0 1 -1.929 -.369c-.348 -.202 -.771 -.604 -1.27 -1.205l-1.76 -1.893l.724 1.36c.516 1.199 .776 2.079 .776 2.64a3 3 0 0 1 -6 0c0 -.562 .259 -1.442 .776 -2.64l.724 -1.36l-1.76 1.893c-.499 .601 -.922 1 -1.27 1.205a2.968 2.968 0 0 1 -4.07 -1.098a3.011 3.011 0 0 1 1.09 -4.098c.374 -.218 .99 -.396 1.846 -.536l2.664 -.366l-2.4 -.325c-1 -.145 -1.698 -.337 -2.11 -.576a3.011 3.011 0 0 1 -1.09 -4.099a2.968 2.968 0 0 1 2.134 -1.467" />
  <path d="M3 3l18 18" />
</svg>
