---
tags: [vr, virtual reality, watch, viewer, technology]
category: Devices
version: "1.63"
unicode: "f0c8"
---
<svg>
  <path d="M20.96 16.953c.026 -.147 .04 -.298 .04 -.453v-8.5a2 2 0 0 0 -2 -2h-9m-4 0h-1a2 2 0 0 0 -2 2v8.5a2.5 2.5 0 0 0 2.5 2.5h1.06a3 3 0 0 0 2.34 -1.13l1.54 -1.92a2 2 0 0 1 3.12 0l1.54 1.92a3 3 0 0 0 2.34 1.13h1.06c.155 0 .307 -.014 .454 -.041" />
  <path d="M8 12m-1 0a1 1 0 1 0 2 0a1 1 0 1 0 -2 0" />
  <path d="M16.714 12.7a1 1 0 0 0 -1.417 -1.411l1.417 1.41z" />
  <path d="M3 3l18 18" />
</svg>
