<svg xmlns="http://www.w3.org/2000/svg" class="icon icon-tabler icon-tabler-device-imac-dollar" width="24" height="24" viewBox="0 0 24 24" stroke-width="2" stroke="currentColor" fill="none" stroke-linecap="round" stroke-linejoin="round">
  <path stroke="none" d="M0 0h24v24H0z" fill="none"/>
  <path d="M13 17h-9a1 1 0 0 1 -1 -1v-12a1 1 0 0 1 1 -1h16a1 1 0 0 1 1 1v6.5" />
  <path d="M3 13h11" />
  <path d="M8 21h5" />
  <path d="M10 17l-.5 4" />
  <path d="M21 15h-2.5a1.5 1.5 0 0 0 0 3h1a1.5 1.5 0 0 1 0 3h-2.5" />
  <path d="M19 21v1m0 -8v1" />
</svg>


