<svg xmlns="http://www.w3.org/2000/svg" class="icon icon-tabler icon-tabler-device-game-pad" width="24" height="24" viewBox="0 0 24 24" stroke-width="2" stroke="currentColor" fill="none" stroke-linecap="round" stroke-linejoin="round">
  <path stroke="none" d="M0 0h24v24H0z" fill="none"/>
  <path d="M10 12l-3 -3h-2a1 1 0 0 0 -1 1v4a1 1 0 0 0 1 1h2l3 -3z" />
  <path d="M14 12l3 -3h2a1 1 0 0 1 1 1v4a1 1 0 0 1 -1 1h-2l-3 -3z" />
  <path d="M12 14l-3 3v2a1 1 0 0 0 1 1h4a1 1 0 0 0 1 -1v-2l-3 -3z" />
  <path d="M12 10l-3 -3v-2a1 1 0 0 1 1 -1h4a1 1 0 0 1 1 1v2l-3 3z" />
</svg>


