<svg xmlns="http://www.w3.org/2000/svg" class="icon icon-tabler icon-tabler-device-tablet-pin" width="24" height="24" viewBox="0 0 24 24" stroke-width="2" stroke="currentColor" fill="none" stroke-linecap="round" stroke-linejoin="round">
  <path stroke="none" d="M0 0h24v24H0z" fill="none"/>
  <path d="M12.5 21h-6.5a1 1 0 0 1 -1 -1v-16a1 1 0 0 1 1 -1h12a1 1 0 0 1 1 1v7" />
  <path d="M12 16a1 1 0 0 0 0 2" />
  <path d="M21.121 20.121a3 3 0 1 0 -4.242 0c.418 .419 1.125 1.045 2.121 1.879c1.051 -.89 1.759 -1.516 2.121 -1.879z" />
  <path d="M19 18v.01" />
</svg>


