<svg xmlns="http://www.w3.org/2000/svg" class="icon icon-tabler icon-tabler-device-watch-stats" width="24" height="24" viewBox="0 0 24 24" stroke-width="2" stroke="currentColor" fill="none" stroke-linecap="round" stroke-linejoin="round">
  <path stroke="none" d="M0 0h24v24H0z" fill="none"/>
  <path d="M6 6m0 3a3 3 0 0 1 3 -3h6a3 3 0 0 1 3 3v6a3 3 0 0 1 -3 3h-6a3 3 0 0 1 -3 -3z" />
  <path d="M9 18v3h6v-3" />
  <path d="M9 6v-3h6v3" />
  <path d="M9 14v-4" />
  <path d="M12 14v-1" />
  <path d="M15 14v-3" />
</svg>


