<!--
tags: [test, visual, user]
version: "1.76"
unicode: "f25f"
-->
<svg
  xmlns="http://www.w3.org/2000/svg"
  width="24"
  height="24"
  viewBox="0 0 24 24"
  fill="none"
  stroke="currentColor"
  stroke-width="2"
  stroke-linecap="round"
  stroke-linejoin="round"
>
  <path d="M16 21h3c.81 0 1.48 -.67 1.48 -1.48l.02 -.02c0 -.82 -.69 -1.5 -1.5 -1.5h-3v3zm0 -6h2.5c.84 -.01 1.5 .66 1.5 1.5s-.66 1.5 -1.5 1.5h-2.5v-3zm-12 -6v-4c0 -1.036 .895 -2 2 -2s2 .964 2 2v4m-5.01 2.98a9 9 0 0 0 9 9m9 -9a9 9 0 0 0 -9 -9m-3.99 4.02h-4" />
</svg>
