<!--
category: System
tags: [settings, tweak, modify, electric, lightning, power, energy, zap, volt, charge]
version: "2.10"
unicode: "f7fb"
-->
<svg
  xmlns="http://www.w3.org/2000/svg"
  width="24"
  height="24"
  viewBox="0 0 24 24"
  fill="none"
  stroke="currentColor"
  stroke-width="2"
  stroke-linecap="round"
  stroke-linejoin="round"
>
  <path d="M4 10a2 2 0 1 0 4 0a2 2 0 0 0 -4 0m2 -6v4m0 4v8m4 -4a2 2 0 1 0 4 0a2 2 0 0 0 -4 0m2 -12v10m7 2l-2 3h4l-2 3m-7 -4v2m4 -13a2 2 0 1 0 4 0a2 2 0 0 0 -4 0m2 -3v1m0 4v3" />
</svg>
