<!--
category: System
tags: [settings, gear, mechanism, machinery, wheel, engine, operation, control, process, system]
version: "2.10"
unicode: "f7ff"
-->
<svg
  xmlns="http://www.w3.org/2000/svg"
  width="24"
  height="24"
  viewBox="0 0 24 24"
  fill="none"
  stroke="currentColor"
  stroke-width="2"
  stroke-linecap="round"
  stroke-linejoin="round"
>
  <path d="M4 10a2 2 0 1 0 4 0a2 2 0 0 0 -4 0m2 -6v4m0 4v8m7.199 -5.601a2 2 0 1 0 -1.199 3.601m0 -14v10m0 4v2m4 -13a2 2 0 1 0 4 0a2 2 0 0 0 -4 0m2 -3v1m0 4v2.5m1.001 7.5m-2 0a2 2 0 1 0 4 0a2 2 0 1 0 -4 0m2 -3.5v1.5m0 4v1.5m3.031 -5.25l-1.299 .75m-3.463 2l-1.3 .75m0 -3.5l1.3 .75m3.463 2l1.3 .75" />
</svg>
