<!--
category: System
tags: [settings, distribute, spread, transmit, broadcast, impart, exchange, pass, disseminate, convey]
version: "2.10"
unicode: "f80a"
-->
<svg
  xmlns="http://www.w3.org/2000/svg"
  width="24"
  height="24"
  viewBox="0 0 24 24"
  fill="none"
  stroke="currentColor"
  stroke-width="2"
  stroke-linecap="round"
  stroke-linejoin="round"
>
  <path d="M4 10a2 2 0 1 0 4 0a2 2 0 0 0 -4 0" />
  <path d="M6 4v4" />
  <path d="M6 12v8" />
  <path d="M13.387 14.56a2 2 0 1 0 -.798 3.352" />
  <path d="M12 4v10" />
  <path d="M12 18v2" />
  <path d="M16 7a2 2 0 1 0 4 0a2 2 0 0 0 -4 0" />
  <path d="M18 4v1" />
  <path d="M16 22l5 -5" />
  <path d="M21 21.5v-4.5h-4.5" />
  <path d="M18 9v4" />
</svg>
