<!--
category: System
tags: [settings, break, halt, stop, temporary, wait, intermission, hold, suspend, interruption]
version: "2.10"
unicode: "f805"
-->
<svg
  xmlns="http://www.w3.org/2000/svg"
  width="24"
  height="24"
  viewBox="0 0 24 24"
  fill="none"
  stroke="currentColor"
  stroke-width="2"
  stroke-linecap="round"
  stroke-linejoin="round"
>
  <path d="M4 10a2 2 0 1 0 4 0a2 2 0 0 0 -4 0" />
  <path d="M6 4v4" />
  <path d="M6 12v8" />
  <path d="M13.627 14.836a2 2 0 1 0 -.62 2.892" />
  <path d="M12 4v10" />
  <path d="M12 18v2" />
  <path d="M16 7a2 2 0 1 0 4 0a2 2 0 0 0 -4 0" />
  <path d="M18 4v1" />
  <path d="M17 17v5" />
  <path d="M21 17v5" />
  <path d="M18 9v4.5" />
</svg>
