<!--
category: System
tags: [settings, increase, raise, grow, ascend, elevate, boost, uplift, rise, amplify]
version: "2.10"
unicode: "f80c"
-->
<svg
  xmlns="http://www.w3.org/2000/svg"
  width="24"
  height="24"
  viewBox="0 0 24 24"
  fill="none"
  stroke="currentColor"
  stroke-width="2"
  stroke-linecap="round"
  stroke-linejoin="round"
>
  <path d="M4 10a2 2 0 1 0 4 0a2 2 0 0 0 -4 0" />
  <path d="M6 4v4" />
  <path d="M6 12v8" />
  <path d="M13.927 15.462a2 2 0 1 0 -1.927 2.538" />
  <path d="M12 4v10" />
  <path d="M12 18v2" />
  <path d="M16 7a2 2 0 1 0 4 0a2 2 0 0 0 -4 0" />
  <path d="M18 4v1" />
  <path d="M18 9v3" />
  <path d="M19 22v-6" />
  <path d="M22 19l-3 -3l-3 3" />
</svg>
