<!--
category: System
tags: [equalizer, sliders, controls, settings, filter]
version: "1.11"
unicode: "ec38"
-->
<svg
  xmlns="http://www.w3.org/2000/svg"
  width="24"
  height="24"
  viewBox="0 0 24 24"
  fill="none"
  stroke="currentColor"
  stroke-width="2"
  stroke-linecap="round"
  stroke-linejoin="round"
>
  <path d="M14 6m-2 0a2 2 0 1 0 4 0a2 2 0 1 0 -4 0" />
  <path d="M4 6l8 0" />
  <path d="M16 6l4 0" />
  <path d="M8 12m-2 0a2 2 0 1 0 4 0a2 2 0 1 0 -4 0" />
  <path d="M4 12l2 0" />
  <path d="M10 12l10 0" />
  <path d="M17 18m-2 0a2 2 0 1 0 4 0a2 2 0 1 0 -4 0" />
  <path d="M4 18l11 0" />
  <path d="M19 18l1 0" />
</svg>
