<!--
category: System
tags: [equalizer, sliders, controls, settings, filter]
version: "1.11"
unicode: "ec38"
-->
<svg
  xmlns="http://www.w3.org/2000/svg"
  width="24"
  height="24"
  viewBox="0 0 24 24"
  fill="none"
  stroke="currentColor"
  stroke-width="2"
  stroke-linecap="round"
  stroke-linejoin="round"
>
  <path d="M14 6m-2 0a2 2 0 1 0 4 0a2 2 0 1 0 -4 0m-8 0l8 0m4 0l4 0m-12 6m-2 0a2 2 0 1 0 4 0a2 2 0 1 0 -4 0m-2 0l2 0m4 0l10 0m-3 6m-2 0a2 2 0 1 0 4 0a2 2 0 1 0 -4 0m-11 0l11 0m4 0l1 0" />
</svg>
