<!--
tags: [travel, adventure, attraction, fly, transport, air, balloon, vehicle, automobile, mobility]
category: Vehicles
version: "1.97"
unicode: "f4a6"
-->
<svg
  xmlns="http://www.w3.org/2000/svg"
  width="24"
  height="24"
  viewBox="0 0 24 24"
  fill="none"
  stroke="currentColor"
  stroke-width="2"
  stroke-linecap="round"
  stroke-linejoin="round"
>
  <path d="M10 20a1 1 0 0 1 1 -1h2a1 1 0 0 1 1 1v1a1 1 0 0 1 -1 1h-2a1 1 0 0 1 -1 -1l0 -1" />
  <path d="M12 16c3.314 0 6 -4.686 6 -8a6 6 0 1 0 -12 0c0 3.314 2.686 8 6 8" />
  <path d="M10 9a2 7 0 1 0 4 0a2 7 0 1 0 -4 0" />
</svg>
