<!--
category: System
tags: [analytics, data, statistics, graph, analyze, examination, study, review, assessment]
version: "1.93"
unicode: "f3a3"
-->
<svg
  xmlns="http://www.w3.org/2000/svg"
  width="24"
  height="24"
  viewBox="0 0 24 24"
  fill="none"
  stroke="currentColor"
  stroke-width="2"
  stroke-linecap="round"
  stroke-linejoin="round"
>
  <path d="M20 11a8.1 8.1 0 0 0 -6.986 -6.918a8.095 8.095 0 0 0 -8.019 3.918" />
  <path d="M4 13a8.1 8.1 0 0 0 15 3" />
  <path d="M18 16a1 1 0 1 0 2 0a1 1 0 1 0 -2 0" />
  <path d="M4 8a1 1 0 1 0 2 0a1 1 0 1 0 -2 0" />
  <path d="M9 12a3 3 0 1 0 6 0a3 3 0 1 0 -6 0" />
</svg>
