<!--
tags: [seat, chair, sofa, home, furniture]
unicode: "f3bd"
version: "1.94"
-->
<svg
  xmlns="http://www.w3.org/2000/svg"
  width="24"
  height="24"
  viewBox="0 0 24 24"
  fill="none"
  stroke="currentColor"
  stroke-width="2"
  stroke-linecap="round"
  stroke-linejoin="round"
>
  <path d="M5 10v-4a3 3 0 0 1 .128 -.869m2.038 -2.013c.264 -.078 .544 -.118 .834 -.118h8a3 3 0 0 1 3 3v4m-2.876 2.145a3 3 0 1 1 3.756 3.724m-.88 3.131h-14v-3a3 3 0 1 1 3 -3v2m0 -3h4m-5 7v2m10 -2v2m-14 -18l18 18" />
</svg>
