<!--
category: Design
tags: [graphics, drawing, design, art, canvas]
version: "1.62"
unicode: "f0ae"
-->
<svg
  xmlns="http://www.w3.org/2000/svg"
  width="24"
  height="24"
  viewBox="0 0 24 24"
  fill="none"
  stroke="currentColor"
  stroke-width="2"
  stroke-linecap="round"
  stroke-linejoin="round"
>
  <path d="M12 8h3a1 1 0 0 1 1 1v3" />
  <path d="M15.716 15.698a1 1 0 0 1 -.716 .302h-6a1 1 0 0 1 -1 -1v-6c0 -.273 .11 -.52 .287 -.7" />
  <path d="M3 8h1" />
  <path d="M3 16h1" />
  <path d="M8 3v1" />
  <path d="M16 3v1" />
  <path d="M20 8h1" />
  <path d="M20 16h1" />
  <path d="M8 20v1" />
  <path d="M16 20v1" />
  <path d="M3 3l18 18" />
</svg>
