<!--
tags: [assembly, engineering, manufacturing, production, robotics]
version: "1.75"
unicode: "f24d"
category: Development
-->
<svg
  xmlns="http://www.w3.org/2000/svg"
  width="24"
  height="24"
  viewBox="0 0 24 24"
  fill="none"
  stroke="currentColor"
  stroke-width="2"
  stroke-linecap="round"
  stroke-linejoin="round"
>
  <path d="M19.875 6.27a2.225 2.225 0 0 1 1.125 1.948v7.284c0 .809 -.443 1.555 -1.158 1.948l-6.75 4.27a2.269 2.269 0 0 1 -2.184 0l-6.75 -4.27a2.225 2.225 0 0 1 -1.158 -1.948v-7.285c0 -.809 .443 -1.554 1.158 -1.947l6.75 -3.98a2.33 2.33 0 0 1 2.25 0l6.75 3.98h-.033z" />
  <path d="M15.5 9.422c.312 .18 .503 .515 .5 .876v3.277c0 .364 -.197 .7 -.515 .877l-3 1.922a1 1 0 0 1 -.97 0l-3 -1.922a1 1 0 0 1 -.515 -.876v-3.278c0 -.364 .197 -.7 .514 -.877l3 -1.79c.311 -.174 .69 -.174 1 0l3 1.79h-.014z" />
</svg>
