<!--
tags: [assembly, engineering, manufacturing, production, robotics, off, programming, software, disabled, inactive]
category: Development
version: "1.94"
unicode: "f3c0"
-->
<svg
  xmlns="http://www.w3.org/2000/svg"
  width="24"
  height="24"
  viewBox="0 0 24 24"
  fill="none"
  stroke="currentColor"
  stroke-width="2"
  stroke-linecap="round"
  stroke-linejoin="round"
>
  <path d="M18.376 18.377l-5.284 3.343a2.27 2.27 0 0 1 -2.184 0l-6.75 -4.27a2.23 2.23 0 0 1 -1.158 -1.948v-7.285c0 -.809 .443 -1.554 1.158 -1.947l1.328 -.783m2.514 -1.487l2.908 -1.71a2.33 2.33 0 0 1 2.25 0l6.75 3.98h-.033c.7 .398 1.13 1.143 1.125 1.948v7.284c0 .417 -.118 .817 -.33 1.16" />
  <path d="M14.855 14.855l-2.37 1.519a1 1 0 0 1 -.97 0l-3 -1.922a1 1 0 0 1 -.515 -.876v-3.278c0 -.364 .197 -.7 .514 -.877l.563 -.336m2.437 -1.454a1.03 1.03 0 0 1 1 0l3 1.79h-.014c.312 .181 .503 .516 .5 .877v1.702" />
  <path d="M3 3l18 18" />
</svg>
