<!--
tags: [assembly, engineering, manufacturing, production, robotics, asset, programming, software, coding, technical]
category: Development
version: "1.68"
unicode: "f1ce"
-->
<svg
  xmlns="http://www.w3.org/2000/svg"
  width="24"
  height="24"
  viewBox="0 0 24 24"
  fill="none"
  stroke="currentColor"
  stroke-width="2"
  stroke-linecap="round"
  stroke-linejoin="round"
>
  <path d="M3 15a6 6 0 1 0 12 0a6 6 0 1 0 -12 0" />
  <path d="M7 15a2 2 0 1 0 4 0a2 2 0 1 0 -4 0" />
  <path d="M17 5a2 2 0 1 0 4 0a2 2 0 1 0 -4 0" />
  <path d="M14.218 17.975l6.619 -12.174" />
  <path d="M6.079 9.756l12.217 -6.631" />
  <path d="M7 15a2 2 0 1 0 4 0a2 2 0 1 0 -4 0" />
</svg>
