<!--
tags: [assembly, engineering, manufacturing, production, robotics]
version: "1.68"
unicode: "f1ce"
category: Development
-->
<svg
  xmlns="http://www.w3.org/2000/svg"
  width="24"
  height="24"
  viewBox="0 0 24 24"
  fill="none"
  stroke="currentColor"
  stroke-width="2"
  stroke-linecap="round"
  stroke-linejoin="round"
>
  <path d="M9 15m-6 0a6 6 0 1 0 12 0a6 6 0 1 0 -12 0m6 0m-2 0a2 2 0 1 0 4 0a2 2 0 1 0 -4 0m12 -10m-2 0a2 2 0 1 0 4 0a2 2 0 1 0 -4 0m-2.782 12.975l6.619 -12.174m-14.758 3.955l12.217 -6.631m-9.296 11.875m-2 0a2 2 0 1 0 4 0a2 2 0 1 0 -4 0" />
</svg>
