<!--
tags: [technology, dimensional, geometry, augmented, reality, control, operation, function, interface, management]
category: System
version: "1.55"
unicode: "f023"
-->
<svg
  xmlns="http://www.w3.org/2000/svg"
  width="24"
  height="24"
  viewBox="0 0 24 24"
  fill="none"
  stroke="currentColor"
  stroke-width="2"
  stroke-linecap="round"
  stroke-linejoin="round"
>
  <path d="M4 8v-2a2 2 0 0 1 2 -2h2" />
  <path d="M4 16v2a2 2 0 0 0 2 2h2" />
  <path d="M16 4h2a2 2 0 0 1 2 2v2" />
  <path d="M16 20h2a2 2 0 0 0 2 -2v-2" />
  <path d="M12 12.5l4 -2.5" />
  <path d="M8 10l4 2.5v4.5l4 -2.5v-4.5l-4 -2.5l-4 2.5" />
  <path d="M8 10v4.5l4 2.5" />
</svg>
