<!--
tags: [rear, equipment, digger, excavation, tractor, loader, construction, site, excavator]
category: Vehicles
version: "1.34"
unicode: "ed86"
-->
<svg
  xmlns="http://www.w3.org/2000/svg"
  width="24"
  height="24"
  viewBox="0 0 24 24"
  fill="none"
  stroke="currentColor"
  stroke-width="2"
  stroke-linecap="round"
  stroke-linejoin="round"
>
    <path d="M4 17m-2 0a2 2 0 1 0 4 0a2 2 0 1 0 -4 0M13 17m-2 0a2 2 0 1 0 4 0a2 2 0 1 0 -4 0M13 19l-9 0M4 15l9 0M8 12v-5h2a3 3 0 0 1 3 3v5M5 15v-2a1 1 0 0 1 1 -1h7M21.12 9.88l-3.12 -4.88l-5 5M21.12 9.88a3 3 0 0 1 -2.12 5.12a3 3 0 0 1 -2.12 -.88l4.24 -4.24z" />
</svg>
