<!--
tags: [point, set, match, attacker, ace, setter, serve]
category: Sport
version: "1.10"
unicode: "ec2b"
-->
<svg
  xmlns="http://www.w3.org/2000/svg"
  width="24"
  height="24"
  viewBox="0 0 24 24"
  fill="none"
  stroke="currentColor"
  stroke-width="2"
  stroke-linecap="round"
  stroke-linejoin="round"
>
  <path d="M12 12m-9 0a9 9 0 1 0 18 0a9 9 0 1 0 -18 0m9 0a8 8 0 0 0 8 4m-12.5 -2.5a12 12 0 0 0 8.5 6.5m-4 -8a8 8 0 0 0 -7.464 4.928m8.415 -9.575a12 12 0 0 0 -9.88 4.111m8.929 .536a8 8 0 0 0 -.536 -8.928m4.085 12.075a12 12 0 0 0 1.38 -10.611" />
</svg>
