<!--
tags: [weight, gym, fitness, powerlift]
category: Sport
version: "1.52"
unicode: "eff0"
-->
<svg
  xmlns="http://www.w3.org/2000/svg"
  width="24"
  height="24"
  viewBox="0 0 24 24"
  fill="none"
  stroke="currentColor"
  stroke-width="2"
  stroke-linecap="round"
  stroke-linejoin="round"
>
    <path d="M2 12h1M6 8h-2a1 1 0 0 0 -1 1v6a1 1 0 0 0 1 1h2M6 7v10a1 1 0 0 0 1 1h1a1 1 0 0 0 1 -1v-10a1 1 0 0 0 -1 -1h-1a1 1 0 0 0 -1 1zM9 12h6M15 7v10a1 1 0 0 0 1 1h1a1 1 0 0 0 1 -1v-10a1 1 0 0 0 -1 -1h-1a1 1 0 0 0 -1 1zM18 8h2a1 1 0 0 1 1 1v6a1 1 0 0 1 -1 1h-2M22 12h-1" />
</svg>
