<!--
tags: [weight, gym, fitness, powerlift, barbell, off, athletic, disabled, inactive, exercise]
category: Sport
version: "1.62"
unicode: "f0b2"
-->
<svg
  xmlns="http://www.w3.org/2000/svg"
  width="24"
  height="24"
  viewBox="0 0 24 24"
  fill="none"
  stroke="currentColor"
  stroke-width="2"
  stroke-linecap="round"
  stroke-linejoin="round"
>
  <path d="M2 12h1" />
  <path d="M6 8h-2a1 1 0 0 0 -1 1v6a1 1 0 0 0 1 1h2" />
  <path d="M6.298 6.288a1 1 0 0 0 -.298 .712v10a1 1 0 0 0 1 1h1a1 1 0 0 0 1 -1v-8" />
  <path d="M9 12h3" />
  <path d="M15 15v2a1 1 0 0 0 1 1h1c.275 0 .523 -.11 .704 -.29m.296 -3.71v-7a1 1 0 0 0 -1 -1h-1a1 1 0 0 0 -1 1v4" />
  <path d="M18 8h2a1 1 0 0 1 1 1v6a1 1 0 0 1 -1 1" />
  <path d="M22 12h-1" />
  <path d="M3 3l18 18" />
</svg>
