<!--
category: System
tags: [product, shop, scan, supermarket]
version: "1.5"
unicode: "ebc6"
-->
<svg
  xmlns="http://www.w3.org/2000/svg"
  width="24"
  height="24"
  viewBox="0 0 24 24"
  fill="none"
  stroke="currentColor"
  stroke-width="2"
  stroke-linecap="round"
  stroke-linejoin="round"
>
  <path d="M4 7v-1a2 2 0 0 1 2 -2h2" />
  <path d="M4 17v1a2 2 0 0 0 2 2h2" />
  <path d="M16 4h2a2 2 0 0 1 2 2v1" />
  <path d="M16 20h2a2 2 0 0 0 2 -2v-1" />
  <path d="M5 11h1v2h-1z" />
  <path d="M10 11l0 2" />
  <path d="M14 11h1v2h-1z" />
  <path d="M19 11l0 2" />
</svg>
