<!--
category: E-commerce
tags: [shopping, cart, programming, digital, purchase, store, goods, technology, buy, code]
version: "2.28"
unicode: "fb46"
-->
<svg
  xmlns="http://www.w3.org/2000/svg"
  width="24"
  height="24"
  viewBox="0 0 24 24"
  fill="none"
  stroke="currentColor"
  stroke-width="2"
  stroke-linecap="round"
  stroke-linejoin="round"
>
  <path d="M17 10l-2 -6m-8 6l2 -6m2 16h-3.756a3 3 0 0 1 -2.965 -2.544l-1.255 -7.152a2 2 0 0 1 1.977 -2.304h13.999a2 2 0 0 1 1.977 2.304c-.21 1.202 -.37 2.104 -.475 2.705m-10.502 .991a2 2 0 1 0 4 0a2 2 0 0 0 -4 0m10 7l2 -2l-2 -2m-3 0l-2 2l2 2" />
</svg>
