<!--
version: "2.28"
unicode: "fb4c"
-->
<svg
  xmlns="http://www.w3.org/2000/svg"
  width="24"
  height="24"
  viewBox="0 0 24 24"
  fill="none"
  stroke="currentColor"
  stroke-width="2"
  stroke-linecap="round"
  stroke-linejoin="round"
>
  <path d="M17 10l-2 -6" />
  <path d="M7 10l2 -6" />
  <path d="M10.5 20h-3.256a3 3 0 0 1 -2.965 -2.544l-1.255 -7.152a2 2 0 0 1 1.977 -2.304h13.999a2 2 0 0 1 1.977 2.304l-.143 .817" />
  <path d="M12.602 12.092a2 2 0 0 0 -2.233 3.066" />
  <path d="M18 22l3.35 -3.284a2.143 2.143 0 0 0 .005 -3.071a2.242 2.242 0 0 0 -3.129 -.006l-.224 .22l-.223 -.22a2.242 2.242 0 0 0 -3.128 -.006a2.143 2.143 0 0 0 -.006 3.071l3.355 3.296z" />
</svg>
