<!--
category: E-commerce
tags: [alert, notification, warning, caution, attention, danger, notice, error, urgent, emergency]
version: "2.28"
unicode: "fb4b"
-->
<svg
  xmlns="http://www.w3.org/2000/svg"
  width="24"
  height="24"
  viewBox="0 0 24 24"
  fill="none"
  stroke="currentColor"
  stroke-width="2"
  stroke-linecap="round"
  stroke-linejoin="round"
>
  <path d="M17 10l-2 -6" />
  <path d="M7 10l2 -6" />
  <path d="M15 20h-7.756a3 3 0 0 1 -2.965 -2.544l-1.255 -7.152a2 2 0 0 1 1.977 -2.304h13.999a2 2 0 0 1 1.977 2.304l-.36 2.055" />
  <path d="M10 14a2 2 0 1 0 4 0a2 2 0 0 0 -4 0" />
  <path d="M19 16v3" />
  <path d="M19 22v.01" />
</svg>
