<!--
category: E-commerce
tags: [shopping, cart, purchase, lower, store, goods, buy, drop, offload, inventory]
version: "2.28"
unicode: "fb4a"
-->
<svg
  xmlns="http://www.w3.org/2000/svg"
  width="24"
  height="24"
  viewBox="0 0 24 24"
  fill="none"
  stroke="currentColor"
  stroke-width="2"
  stroke-linecap="round"
  stroke-linejoin="round"
>
  <path d="M17 10l-2 -6m-8 6l2 -6m3 16h-4.756a3 3 0 0 1 -2.965 -2.544l-1.255 -7.152a2 2 0 0 1 1.977 -2.304h13.999a2 2 0 0 1 1.977 2.304l-.349 1.989m-10.628 1.707a2 2 0 1 0 4 0a2 2 0 0 0 -4 0m9 2v6m3 -3l-3 3l-3 -3" />
</svg>
