<!--
category: E-commerce
tags: [inquire, ask, query, doubt, wonder, ponder, probe, investigate, interrogate, examine]
version: "2.28"
unicode: "fb51"
-->
<svg
  xmlns="http://www.w3.org/2000/svg"
  width="24"
  height="24"
  viewBox="0 0 24 24"
  fill="none"
  stroke="currentColor"
  stroke-width="2"
  stroke-linecap="round"
  stroke-linejoin="round"
>
    <path d="M17 10l-2 -6M7 10l2 -6M15 20h-7.756a3 3 0 0 1 -2.965 -2.544l-1.255 -7.152a2 2 0 0 1 1.977 -2.304h13.999a2 2 0 0 1 1.977 2.304l-.161 .918M12 16a2 2 0 1 0 0 -4a2 2 0 0 0 0 4zM19 22v.01M19 19a2.003 2.003 0 0 0 .914 -3.782a1.98 1.98 0 0 0 -2.414 .483" />
</svg>
