<!--
category: E-commerce
tags: [close, dismiss, cancel, terminate, end, reject, abort, eliminate, halt, stop]
version: "2.28"
unicode: "fb56"
-->
<svg
  xmlns="http://www.w3.org/2000/svg"
  width="24"
  height="24"
  viewBox="0 0 24 24"
  fill="none"
  stroke="currentColor"
  stroke-width="2"
  stroke-linecap="round"
  stroke-linejoin="round"
>
  <path d="M17 10l-2 -6m-8 6l2 -6m4.5 16h-6.256a3 3 0 0 1 -2.965 -2.544l-1.255 -7.152a2 2 0 0 1 1.977 -2.304h13.999a2 2 0 0 1 1.977 2.304l-.532 3.03m-10.445 .666a2 2 0 1 0 4 0a2 2 0 0 0 -4 0m12 8l-5 -5m0 5l5 -5" />
</svg>
