<!--
category: E-commerce
tags: [add, increase, augment, expand, supplement, boost, enhance, enlarge, grow, magnify]
version: "2.28"
unicode: "fb50"
-->
<svg
  xmlns="http://www.w3.org/2000/svg"
  width="24"
  height="24"
  viewBox="0 0 24 24"
  fill="none"
  stroke="currentColor"
  stroke-width="2"
  stroke-linecap="round"
  stroke-linejoin="round"
>
  <path d="M17 10l-2 -6m-8 6l2 -6m3 16h-4.756a3 3 0 0 1 -2.965 -2.544l-1.255 -7.152a2 2 0 0 1 1.977 -2.304h13.999a2 2 0 0 1 1.977 2.304l-.359 2.043m-10.618 1.653a2 2 0 1 0 4 0a2 2 0 0 0 -4 0m6 5h6m-3 -3v6" />
</svg>
