<!--
category: Devices
tags: [charge, energy, power, electricity]
version: "1.42"
unicode: "ef3b"
-->
<svg
  xmlns="http://www.w3.org/2000/svg"
  width="24"
  height="24"
  viewBox="0 0 24 24"
  fill="none"
  stroke="currentColor"
  stroke-width="2"
  stroke-linecap="round"
  stroke-linejoin="round"
>
  <path d="M4 9a2 2 0 0 1 2 -2h11a2 2 0 0 1 2 2v.5a.5 .5 0 0 0 .5 .5a.5 .5 0 0 1 .5 .5v3a.5 .5 0 0 1 -.5 .5a.5 .5 0 0 0 -.5 .5v.5a2 2 0 0 1 -2 2h-4.5" />
  <path d="M3 15h6v2a2 2 0 0 1 -2 2h-2a2 2 0 0 1 -2 -2v-2z" />
  <path d="M6 22v-3" />
  <path d="M4 15v-2.5" />
  <path d="M8 15v-2.5" />
</svg>
