<!--
category: Devices
tags: [energy, power, electricity]
unicode: "ff19"
version: "3.7"
-->
<svg
  xmlns="http://www.w3.org/2000/svg"
  width="24"
  height="24"
  viewBox="0 0 24 24"
  fill="none"
  stroke="currentColor"
  stroke-width="2"
  stroke-linecap="round"
  stroke-linejoin="round"
>
  <path d="M7 18v-11a2 2 0 0 1 2 -2h.5a.5 .5 0 0 0 .5 -.5a.5 .5 0 0 1 .5 -.5h3a.5 .5 0 0 1 .5 .5a.5 .5 0 0 0 .5 .5h.5a2 2 0 0 1 2 2v11a2 2 0 0 1 -2 2h-6a2 2 0 0 1 -2 -2" />
  <path d="M10 17h4" />
  <path d="M10 14h4" />
  <path d="M10 11h4" />
  <path d="M10 8h4" />
</svg>
