<!--
tags: [ecology, charge, energy, power, electricity, battery, vertical, eco, hardware, technology]
category: Devices
version: "3.7"
unicode: "ff16"
-->
<svg
  xmlns="http://www.w3.org/2000/svg"
  width="24"
  height="24"
  viewBox="0 0 24 24"
  fill="none"
  stroke="currentColor"
  stroke-width="2"
  stroke-linecap="round"
  stroke-linejoin="round"
>
  <path d="M7 18v-11c0 -1.105 .895 -2 2 -2h.5c.276 0 .5 -.224 .5 -.5s.224 -.5 .5 -.5h3c.276 0 .5 .224 .5 .5s.224 .5 .5 .5h.5c1.105 0 2 .895 2 2v1m-8 12c-1.105 0 -2 -.895 -2 -2" />
  <path d="M13 17.143c0 -2.84 2.09 -5.143 4.667 -5.143h2.333v.857c0 2.84 -2.09 5.143 -4.667 5.143h-2.333l0 -.857" />
  <path d="M13 21v-3" />
</svg>
