<!--
category: Devices
tags: [charge, energy, power, electricity]
version: "1.0"
unicode: "ea33"
-->
<svg
  xmlns="http://www.w3.org/2000/svg"
  width="24"
  height="24"
  viewBox="0 0 24 24"
  fill="none"
  stroke="currentColor"
  stroke-width="2"
  stroke-linecap="round"
  stroke-linejoin="round"
>
  <path d="M16 7h1a2 2 0 0 1 2 2v.5a.5 .5 0 0 0 .5 .5a.5 .5 0 0 1 .5 .5v3a.5 .5 0 0 1 -.5 .5a.5 .5 0 0 0 -.5 .5v.5a2 2 0 0 1 -2 2h-2" />
  <path d="M8 7h-2a2 2 0 0 0 -2 2v6a2 2 0 0 0 2 2h1" />
  <path d="M12 8l-2 4h3l-2 4" />
</svg>
