<!--
category: Devices
tags: [ecology, charge, energy, power, electricity]
-->
<svg
  xmlns="http://www.w3.org/2000/svg"
  width="24"
  height="24"
  viewBox="0 0 24 24"
  fill="none"
  stroke="currentColor"
  stroke-width="2"
  stroke-linecap="round"
  stroke-linejoin="round"
>
  <path d="M7 18V7c0-1.105.895-2 2-2h.5c.276 0 .5-.224.5-.5s.224-.5.5-.5h3c.276 0 .5.224.5.5s.224.5.5.5h.5c1.105 0 2 .895 2 2v1M9 20c-1.105 0-2-.895-2-2" />
  <path d="M13 17.143C13 14.303 15.09 12 17.667 12H20v.857C20 15.697 17.91 18 15.333 18H13z" />
  <path d="M13 21v-3" />
</svg>
