<!--
tags: [sand, sun, umbrella, vacation, travel]
category: Map
version: "1.62"
unicode: "f0b7"
-->
<svg
  xmlns="http://www.w3.org/2000/svg"
  width="24"
  height="24"
  viewBox="0 0 24 24"
  fill="none"
  stroke="currentColor"
  stroke-width="2"
  stroke-linecap="round"
  stroke-linejoin="round"
>
  <path d="M15.071 15.102a7.502 7.502 0 0 0 -8.124 1.648" />
  <path d="M10.27 6.269l9.926 5.731a6 6 0 0 0 -10.32 -6.123" />
  <path d="M16.732 10c1.658 -2.87 2.225 -5.644 1.268 -6.196c-.957 -.552 -3.075 1.326 -4.732 4.196" />
  <path d="M15 9l-.739 1.279" />
  <path d="M12.794 12.82l-.794 1.376" />
  <path d="M3 19.25a2.4 2.4 0 0 1 1 -.25a2.4 2.4 0 0 1 2 1a2.4 2.4 0 0 0 2 1a2.4 2.4 0 0 0 2 -1a2.4 2.4 0 0 1 2 -1a2.4 2.4 0 0 1 2 1a2.4 2.4 0 0 0 2 1a2.4 2.4 0 0 0 2 -1a2.4 2.4 0 0 1 1.135 -.858" />
  <path d="M3 3l18 18" />
</svg>
