<!--
category: System
tags: [find, look, seek, explore, detect, discover, locate, track, scout, investigate]
version: "2.10"
unicode: "f81e"
-->
<svg
  xmlns="http://www.w3.org/2000/svg"
  width="24"
  height="24"
  viewBox="0 0 24 24"
  fill="none"
  stroke="currentColor"
  stroke-width="2"
  stroke-linecap="round"
  stroke-linejoin="round"
>
  <path d="M11 17h-7a4 4 0 0 0 2 -3v-3a7 7 0 0 1 4 -6a2 2 0 1 1 4 0a7 7 0 0 1 4 6m-9 6v1a3 3 0 0 0 2.685 2.984m6.315 -2.984m-3 0a3 3 0 1 0 6 0a3 3 0 1 0 -6 0m5.2 2.2l1.8 1.8" />
</svg>
