<!--
tags: [alarm, education, alert, sound, notification, study]
version: "1.58"
unicode: "f05e"
-->
<svg
  xmlns="http://www.w3.org/2000/svg"
  width="24"
  height="24"
  viewBox="0 0 24 24"
  fill="none"
  stroke="currentColor"
  stroke-width="2"
  stroke-linecap="round"
  stroke-linejoin="round"
>
  <path d="M10 10m-6 0a6 6 0 1 0 12 0a6 6 0 1 0 -12 0m9.5 5h.5a2 2 0 0 1 2 2v1a2 2 0 0 1 -2 2h-8a2 2 0 0 1 -2 -2v-1a2 2 0 0 1 2 -2h.5m9.5 2a5.698 5.698 0 0 0 4.467 -7.932l-.467 -1.068m-10 2v.01m10 -2.01m-1 0a1 1 0 1 0 2 0a1 1 0 1 0 -2 0" />
</svg>
