<!--
category: System
tags: [stop, end, terminate, close, reject, eliminate, annul, void, abolish, halt]
version: "2.10"
unicode: "f813"
-->
<svg
  xmlns="http://www.w3.org/2000/svg"
  width="24"
  height="24"
  viewBox="0 0 24 24"
  fill="none"
  stroke="currentColor"
  stroke-width="2"
  stroke-linecap="round"
  stroke-linejoin="round"
>
  <path d="M12.5 17h-8.5a4 4 0 0 0 2 -3v-3a7 7 0 0 1 4 -6a2 2 0 1 1 4 0a7 7 0 0 1 4 6v1" />
  <path d="M9 17v1a3 3 0 0 0 3 3" />
  <path d="M16 19a3 3 0 1 0 6 0a3 3 0 1 0 -6 0" />
  <path d="M17 21l4 -4" />
</svg>
