<!--
category: Computers
tags: [binary]
unicode: "f3c5"
version: "1.94"
-->
<svg
  xmlns="http://www.w3.org/2000/svg"
  width="24"
  height="24"
  viewBox="0 0 24 24"
  fill="none"
  stroke="currentColor"
  stroke-width="2"
  stroke-linecap="round"
  stroke-linejoin="round"
>
  <path d="M11 7v-2h-1m8 14v-1m-2.5 -13h2a.5 .5 0 0 1 .5 .5v4a.5 .5 0 0 1 -.5 .5h-2a.5 .5 0 0 1 -.5 -.5v-4a.5 .5 0 0 1 .5 -.5zm-5 9h2a.5 .5 0 0 1 .5 .5v4a.5 .5 0 0 1 -.5 .5h-2a.5 .5 0 0 1 -.5 -.5v-4a.5 .5 0 0 1 .5 -.5zm-4.5 -4v.01m0 8.99v.01m-3 -16.01l18 18" />
</svg>
