<!--
category: Computers
tags: [binary]
unicode: "f3c5"
version: "1.94"
-->
<svg
  xmlns="http://www.w3.org/2000/svg"
  width="24"
  height="24"
  viewBox="0 0 24 24"
  fill="none"
  stroke="currentColor"
  stroke-width="2"
  stroke-linecap="round"
  stroke-linejoin="round"
>
  <path d="M11 7v-2h-1" />
  <path d="M18 19v-1" />
  <path d="M15.5 5h2a.5 .5 0 0 1 .5 .5v4a.5 .5 0 0 1 -.5 .5h-2a.5 .5 0 0 1 -.5 -.5v-4a.5 .5 0 0 1 .5 -.5z" />
  <path d="M10.5 14h2a.5 .5 0 0 1 .5 .5v4a.5 .5 0 0 1 -.5 .5h-2a.5 .5 0 0 1 -.5 -.5v-4a.5 .5 0 0 1 .5 -.5z" />
  <path d="M6 10v.01" />
  <path d="M6 19v.01" />
  <path d="M3 3l18 18" />
</svg>
