<!--
category: Computers
tags: [data, diversity, it, math]
unicode: "f5d3"
version: "1.112"
-->
<svg
  xmlns="http://www.w3.org/2000/svg"
  width="24"
  height="24"
  viewBox="0 0 24 24"
  fill="none"
  stroke="currentColor"
  stroke-width="2"
  stroke-linecap="round"
  stroke-linejoin="round"
>
  <path d="M14 6a2 2 0 1 0 -4 0a2 2 0 0 0 4 0zm-7 8a2 2 0 1 0 -4 0a2 2 0 0 0 4 0zm14 0a2 2 0 1 0 -4 0a2 2 0 0 0 4 0zm-7 4a2 2 0 1 0 -4 0a2 2 0 0 0 4 0zm-2 -10v8m-5.684 -3.504l4.368 -4.992m7 4.992l-4.366 -4.99" />
</svg>
