<!--
tags: [birds, explorer, field glasses, magnifying eye glasses, observe, view, watch]
-->
<svg
  xmlns="http://www.w3.org/2000/svg"
  width="24"
  height="24"
  viewBox="0 0 24 24"
  fill="none"
  stroke="currentColor"
  stroke-width="2"
  stroke-linecap="round"
  stroke-linejoin="round"
>
  <circle cx="7" cy="16" r="3" />
  <circle cx="17" cy="16" r="3" />
  <path d="m16.346 9.17-.729-1.261c-.16-.248-1.056-.203-1.117.091l-.177 1.38" />
  <path d="m19.761 14.813-2.84-5.133C16.732 9.37 16.329 9 15.5 9c-.828 0-1.5.448-1.5 1v6" />
  <path d="m7.654 9.17.729-1.261C8.543 7.66 9.439 7.706 9.5 8l.177 1.38" />
  <path d="m4.239 14.813 2.84-5.133C7.268 9.37 7.671 9 8.5 9c.828 0 1.5.448 1.5 1v6" />
  <rect width="4" height="2" x="10" y="12" />
</svg>
