<!--
tags: [birds, explorer, field glasses, magnifying eye glasses, observe, view, watch]
unicode: "fefe"
version: "3.6"
-->
<svg
  xmlns="http://www.w3.org/2000/svg"
  width="24"
  height="24"
  viewBox="0 0 24 24"
  fill="none"
  stroke="currentColor"
  stroke-width="2"
  stroke-linecap="round"
  stroke-linejoin="round"
>
  <path d="M7 16m-3 0a3 3 0 1 0 6 0a3 3 0 1 0 -6 0m13 0m-3 0a3 3 0 1 0 6 0a3 3 0 1 0 -6 0m2.346 -6.83l-.729 -1.261c-.16 -.248 -1.056 -.203 -1.117 .091l-.177 1.38m5.438 5.433l-2.84 -5.133c-.189 -.31 -.592 -.68 -1.421 -.68c-.828 0 -1.5 .448 -1.5 1v6m-6.346 -6.83l.729 -1.261c.16 -.249 1.056 -.203 1.117 .091l.177 1.38m-5.438 5.433l2.84 -5.133c.189 -.31 .592 -.68 1.421 -.68c.828 0 1.5 .448 1.5 1v6" />
  <rect width="4" height="2" x="10" y="12" />
</svg>
