<!--
category: System
tags: [structure, stack, build, cube, brick, construct, arrange, assemble, piece, model]
unicode: "100b2"
version: "3.23"
-->
<svg
  xmlns="http://www.w3.org/2000/svg"
  width="24"
  height="24"
  viewBox="0 0 24 24"
  fill="none"
  stroke="currentColor"
  stroke-width="2"
  stroke-linecap="round"
  stroke-linejoin="round"
>
  <path d="M14 4a1 1 0 0 1 1 -1h5a1 1 0 0 1 1 1v5a1 1 0 0 1 -1 1h-5a1 1 0 0 1 -1 -1l0 -5" />
  <path d="M3 14h12a2 2 0 0 1 2 2v3a2 2 0 0 1 -2 2h-10a2 2 0 0 1 -2 -2v-10a2 2 0 0 1 2 -2h3a2 2 0 0 1 2 2v12" />
</svg>
