<!--
tags: [medical, health, biometric, wellness, check-up, diagnostic, physical, anatomy, examination, body-health]
category: System
version: "2.36"
unicode: "fca3"
-->
<svg
  xmlns="http://www.w3.org/2000/svg"
  width="24"
  height="24"
  viewBox="0 0 24 24"
  fill="none"
  stroke="currentColor"
  stroke-width="2"
  stroke-linecap="round"
  stroke-linejoin="round"
>
  <path d="M11 8a1 1 0 1 0 2 0a1 1 0 0 0 -2 0" />
  <path d="M10 17v-1a2 2 0 1 1 4 0v1" />
  <path d="M8 10q 1 1 2 1h4q 1 0 2 -1" />
  <path d="M12 11v3" />
  <path d="M3 7v-2a2 2 0 0 1 2 -2h2" />
  <path d="M3 17v2a2 2 0 0 0 2 2h2" />
  <path d="M17 3h2a2 2 0 0 1 2 2v2" />
  <path d="M17 21h2a2 2 0 0 0 2 -2v-2" />
</svg>
