<!--
tags: [medical, health, biometric, wellness, check-up, diagnostic, physical, anatomy, examination, body-health]
category: System
version: "2.36"
unicode: "fca3"
-->
<svg
  xmlns="http://www.w3.org/2000/svg"
  width="24"
  height="24"
  viewBox="0 0 24 24"
  fill="none"
  stroke="currentColor"
  stroke-width="2"
  stroke-linecap="round"
  stroke-linejoin="round"
>
  <path d="M4 8v-2a2 2 0 0 1 2 -2h2m-4 12v2a2 2 0 0 0 2 2h2m8 -16h2a2 2 0 0 1 2 2v2m-4 12h2a2 2 0 0 0 2 -2v-2m-8 -8m-1 0a1 1 0 1 0 2 0a1 1 0 1 0 -2 0m-1 9v-1a2 2 0 1 1 4 0v1m-6 -7c.666 .666 1.334 1 2 1h4c.666 0 1.334 -.334 2 -1m-4 1v3" />
</svg>
