<!--
tags: [table, side, line]
category: Design
version: "1.0"
unicode: "ea44"
-->
<svg
  xmlns="http://www.w3.org/2000/svg"
  width="24"
  height="24"
  viewBox="0 0 24 24"
  fill="none"
  stroke="currentColor"
  stroke-width="2"
  stroke-linecap="round"
  stroke-linejoin="round"
>
  <path d="M12 4l0 16m-8 -16l0 .01m4 -.01l0 .01m8 -.01l0 .01m4 -.01l0 .01m-16 3.99l0 .01m16 -.01l0 .01m-16 3.99l0 .01m4 -.01l0 .01m8 -.01l0 .01m4 -.01l0 .01m-16 3.99l0 .01m16 -.01l0 .01m-16 3.99l0 .01m4 -.01l0 .01m8 -.01l0 .01m4 -.01l0 .01" />
</svg>
