<!--
category: Development
tags: [robot, identifier, automation, machine, authentication, identity, digital, user, account, recognition, verify, credentials]
unicode: "101f6"
version: "3.39"
-->
<svg
  xmlns="http://www.w3.org/2000/svg"
  width="24"
  height="24"
  viewBox="0 0 24 24"
  fill="none"
  stroke="currentColor"
  stroke-width="2"
  stroke-linecap="round"
  stroke-linejoin="round"
>
  <path d="M7 10.5c0 -.828 .746 -1.5 1.667 -1.5h6.666c.92 0 1.667 .672 1.667 1.5v3c0 .828 -.746 1.5 -1.667 1.5h-6.666c-.92 0 -1.667 -.672 -1.667 -1.5v-3" />
  <path d="M12 7v2" />
  <path d="M10 12v.01" />
  <path d="M14 12v.01" />
  <path d="M4 8v-2a2 2 0 0 1 2 -2h2" />
  <path d="M4 16v2a2 2 0 0 0 2 2h2" />
  <path d="M16 4h2a2 2 0 0 1 2 2v2" />
  <path d="M16 20h2a2 2 0 0 0 2 -2v-2" />
</svg>
