<!--
tags: [sport, game, pins, ball, strike, lane, alley, bowl, competition, scoring]
category: Sport
unicode: "100b1"
version: "3.23"
-->
<svg
  xmlns="http://www.w3.org/2000/svg"
  width="24"
  height="24"
  viewBox="0 0 24 24"
  fill="none"
  stroke="currentColor"
  stroke-width="2"
  stroke-linecap="round"
  stroke-linejoin="round"
>
  <path d="M7 11v.01m4 -1.01v.01m-1 3.99v.01m1.059 -7.94a8 8 0 1 0 .32 15.81m4.59 -12.88h4m-5 -4c0 1.5 1 2 1 4c0 2.5 -2 4.5 -2 7c0 2.6 1.9 6 1.9 6h4.1s2 -3.4 2 -6c0 -2.5 -2 -4.5 -2 -7c0 -2 1 -2.5 1 -4a3 3 0 1 0 -6 0" />
</svg>
