<!--
tags: [css, cascading, style, sheet, background, section, six, website, layer]
category: Numbers
version: "1.39"
unicode: "ee13"
-->
<svg
  xmlns="http://www.w3.org/2000/svg"
  width="24"
  height="24"
  viewBox="0 0 24 24"
  fill="none"
  stroke="currentColor"
  stroke-width="2"
  stroke-linecap="round"
  stroke-linejoin="round"
>
  <path d="M7 3m0 2a2 2 0 0 1 2 -2h10a2 2 0 0 1 2 2v10a2 2 0 0 1 -2 2h-10a2 2 0 0 1 -2 -2zm7 7m-2 0a2 2 0 1 0 4 0a2 2 0 1 0 -4 0m4 -4a2 2 0 1 0 -4 0v4m5 5v2a2 2 0 0 1 -2 2h-10a2 2 0 0 1 -2 -2v-10a2 2 0 0 1 2 -2h2" />
</svg>
