<!--
tags: [cube, side, down, south-west]
category: Design
version: "1.82"
unicode: "f2ce"
-->
<svg
  xmlns="http://www.w3.org/2000/svg"
  width="24"
  height="24"
  viewBox="0 0 24 24"
  fill="none"
  stroke="currentColor"
  stroke-width="2"
  stroke-linecap="round"
  stroke-linejoin="round"
>
  <path d="M5 13h5a1 1 0 0 1 1 1v5a1 1 0 0 1 -1 1h-5a1 1 0 0 1 -1 -1v-5a1 1 0 0 1 1 -1z" />
  <path d="M4 9v.01" />
  <path d="M4 4v.01" />
  <path d="M9 4v.01" />
  <path d="M15 4v.01" />
  <path d="M15 20v.01" />
  <path d="M20 4v.01" />
  <path d="M20 9v.01" />
  <path d="M20 15v.01" />
  <path d="M20 20v.01" />
</svg>
