<!--
tags: [css, cascading, style, section, element, square, website, container]
category: Design
unicode: "f3ca"
version: "1.94"
-->
<svg
  xmlns="http://www.w3.org/2000/svg"
  width="24"
  height="24"
  viewBox="0 0 24 24"
  fill="none"
  stroke="currentColor"
  stroke-width="2"
  stroke-linecap="round"
  stroke-linejoin="round"
>
  <path d="M12 8h4v4m0 4h-8v-8" />
  <path d="M8 4h10a2 2 0 0 1 2 2v10m-.586 3.414a2 2 0 0 1 -1.414 .586h-12a2 2 0 0 1 -2 -2v-12c0 -.547 .22 -1.043 .576 -1.405" />
  <path d="M16 16l3.3 3.3" />
  <path d="M16 8l3.3 -3.3" />
  <path d="M8 8l-3.3 -3.3" />
  <path d="M8 16l-3.3 3.3" />
  <path d="M3 3l18 18" />
</svg>
