<!--
tags: [cube, side, down, south-east, box, align, bottom, right, creative, artistic]
category: Design
version: "1.82"
unicode: "f2cf"
-->
<svg
  xmlns="http://www.w3.org/2000/svg"
  width="24"
  height="24"
  viewBox="0 0 24 24"
  fill="none"
  stroke="currentColor"
  stroke-width="2"
  stroke-linecap="round"
  stroke-linejoin="round"
>
  <path d="M19 13h-5a1 1 0 0 0 -1 1v5a1 1 0 0 0 1 1h5a1 1 0 0 0 1 -1v-5a1 1 0 0 0 -1 -1" />
  <path d="M20 9v.01" />
  <path d="M20 4v.01" />
  <path d="M15 4v.01" />
  <path d="M9 4v.01" />
  <path d="M9 20v.01" />
  <path d="M4 4v.01" />
  <path d="M4 9v.01" />
  <path d="M4 15v.01" />
  <path d="M4 20v.01" />
</svg>
