<!--
tags: [cube, side, up, north-east]
category: Design
version: "1.82"
unicode: "f2d1"
-->
<svg
  xmlns="http://www.w3.org/2000/svg"
  width="24"
  height="24"
  viewBox="0 0 24 24"
  fill="none"
  stroke="currentColor"
  stroke-width="2"
  stroke-linecap="round"
  stroke-linejoin="round"
>
  <path d="M19 11.01h-5a1 1 0 0 1 -1 -1v-5a1 1 0 0 1 1 -1h5a1 1 0 0 1 1 1v5a1 1 0 0 1 -1 1zm1 4v-.01m0 5.01v-.01m-5 .01v-.01m-6 .01v-.01m0 -15.99v-.01m-5 16.01v-.01m0 -4.99v-.01m0 -5.99v-.01m0 -4.99v-.01" />
</svg>
