<!--
tags: [cube, side, up, north-west, box, align, top, left, creative, artistic]
category: Design
version: "1.82"
unicode: "f2d0"
-->
<svg
  xmlns="http://www.w3.org/2000/svg"
  width="24"
  height="24"
  viewBox="0 0 24 24"
  fill="none"
  stroke="currentColor"
  stroke-width="2"
  stroke-linecap="round"
  stroke-linejoin="round"
>
  <path d="M11 5v5a1 1 0 0 1 -1 1h-5a1 1 0 0 1 -1 -1v-5a1 1 0 0 1 1 -1h5a1 1 0 0 1 1 1" />
  <path d="M15 4h-.01" />
  <path d="M20 4h-.01" />
  <path d="M20 9h-.01" />
  <path d="M20 15h-.01" />
  <path d="M4 15h-.01" />
  <path d="M20 20h-.01" />
  <path d="M15 20h-.01" />
  <path d="M9 20h-.01" />
  <path d="M4 20h-.01" />
</svg>
