<!--
tags: [css, cascading, style, section, square, website, container, box, model, creative]
category: Design
version: "1.39"
unicode: "ee0c"
-->
<svg
  xmlns="http://www.w3.org/2000/svg"
  width="24"
  height="24"
  viewBox="0 0 24 24"
  fill="none"
  stroke="currentColor"
  stroke-width="2"
  stroke-linecap="round"
  stroke-linejoin="round"
>
  <path d="M8 8h8v8h-8l0 -8" />
  <path d="M4 6a2 2 0 0 1 2 -2h12a2 2 0 0 1 2 2v12a2 2 0 0 1 -2 2h-12a2 2 0 0 1 -2 -2l0 -12" />
  <path d="M16 16l3.3 3.3" />
  <path d="M16 8l3.3 -3.3" />
  <path d="M8 8l-3.3 -3.3" />
  <path d="M8 16l-3.3 3.3" />
</svg>
