<!--
tags: [css, cascading, style, sheet, background, section, two, website, layer]
category: Numbers
version: "1.39"
unicode: "ee0f"
-->
<svg
  xmlns="http://www.w3.org/2000/svg"
  width="24"
  height="24"
  viewBox="0 0 24 24"
  fill="none"
  stroke="currentColor"
  stroke-width="2"
  stroke-linecap="round"
  stroke-linejoin="round"
>
  <path d="M7 3m0 2a2 2 0 0 1 2 -2h10a2 2 0 0 1 2 2v10a2 2 0 0 1 -2 2h-10a2 2 0 0 1 -2 -2z" />
  <path d="M17 17v2a2 2 0 0 1 -2 2h-10a2 2 0 0 1 -2 -2v-10a2 2 0 0 1 2 -2h2" />
  <path d="M12 8a2 2 0 1 1 4 0c0 .591 -.417 1.318 -.816 1.858l-3.184 4.143l4 0" />
</svg>
