<!--
tags: [mind, human, iq, inteligence, organ]
category: Health
unicode: "f59f"
version: "1.110"
-->
<svg
  xmlns="http://www.w3.org/2000/svg"
  width="24"
  height="24"
  viewBox="0 0 24 24"
  fill="none"
  stroke="currentColor"
  stroke-width="2"
  stroke-linecap="round"
  stroke-linejoin="round"
>
  <path d="M15.5 13a3.5 3.5 0 0 0 -3.5 3.5v1a3.5 3.5 0 0 0 7 0v-1.8m-10.5 -2.7a3.5 3.5 0 0 1 3.5 3.5v1a3.5 3.5 0 0 1 -7 0v-1.8m12.5 .3a3.5 3.5 0 0 0 0 -7h-.5m2 .3v-2.8a3.5 3.5 0 0 0 -7 0m-5.5 9.5a3.5 3.5 0 0 1 0 -7h.5m-2 .3v-2.8a3.5 3.5 0 0 1 7 0v10" />
</svg>
