<!--
tags: [logo, language, programming, source]
category: Brand
version: "1.23"
unicode: "ed01"
-->
<svg
  xmlns="http://www.w3.org/2000/svg"
  width="24"
  height="24"
  viewBox="0 0 24 24"
  fill="none"
  stroke="currentColor"
  stroke-width="2"
  stroke-linecap="round"
  stroke-linejoin="round"
>
  <path d="M12 9h-7a2 2 0 0 0 -2 2v4a2 2 0 0 0 2 2h3m4 -2h7a2 2 0 0 0 2 -2v-4a2 2 0 0 0 -2 -2h-3m-8 2v-4a2 2 0 0 1 2 -2h4a2 2 0 0 1 2 2v5a2 2 0 0 1 -2 2h-4a2 2 0 0 0 -2 2v5a2 2 0 0 0 2 2h4a2 2 0 0 0 2 -2v-4m-5 -9l0 .01m2 11.99l0 .01" />
</svg>
