<!--
tags: [logo, language, programming, source]
category: Brand
version: "1.23"
unicode: "ed01"
-->
<svg
  xmlns="http://www.w3.org/2000/svg"
  width="24"
  height="24"
  viewBox="0 0 300 200"
  fill="none"
  stroke="currentColor"
  stroke-width="2"
  stroke-linecap="round"
  stroke-linejoin="round"
>
<style xmlns="http://www.w3.org/2000/svg" type="text/css">
	.st0{fill:#FFFFFF;}
	.st1{fill:#2A3238;}
	.st2{fill:#4DA925;}
</style>
<g xmlns="http://www.w3.org/2000/svg">
	<g>
		<g>
			<path class="st0" d="M105.9,66.3L68.7,44.2c-4.4-2.6-9.9-2.6-14.4,0L17.1,66.3c-4.4,2.6-7.2,7.5-7.2,12.8v44.2     c0,5.3,2.7,10.1,7.2,12.8l37.2,22.1c2.2,1.3,4.7,2,7.2,2c2.5,0,5-0.7,7.2-2l37.2-22.1c4.4-2.6,7.2-7.5,7.2-12.8V79     C113.1,73.8,110.4,68.9,105.9,66.3z"/>
		</g>
		<g>
			<g>
				<path class="st1" d="M105.9,66.3L68.7,44.2c-2.2-1.3-4.7-2-7.2-2s-5,0.7-7.2,2L17.1,66.3c-4.4,2.6-7.2,7.5-7.2,12.8v44.2      c0,5.3,2.7,10.1,7.2,12.8l37.2,22.1c2.2,1.3,4.7,2,7.2,2c2.5,0,5-0.7,7.2-2l37.2-22.1c4.4-2.6,7.2-7.5,7.2-12.8V79      C113.1,73.8,110.4,68.9,105.9,66.3z M55.6,155.8l-37.2-22.1c-3.6-2.2-5.9-6.2-5.9-10.5V79c0-4.3,2.3-8.4,5.9-10.5l37.2-22.1      c1.8-1.1,3.8-1.6,5.9-1.6c2.1,0,4.1,0.6,5.9,1.6l37.2,22.1c3.1,1.8,5.1,5,5.7,8.5c-1.2-2.6-4-3.4-7.3-1.5L67.9,97.3      c-4.4,2.6-7.6,5.4-7.6,10.7v43.4c0,3.2,1.3,5.2,3.2,5.8c-0.6,0.1-1.3,0.2-2,0.2C59.5,157.5,57.4,156.9,55.6,155.8z"/>
			</g>
		</g>
		<g>
			<path class="st2" d="M96.2,127.5l-9.3,5.5c-0.2,0.1-0.4,0.3-0.4,0.6v2.4c0,0.3,0.2,0.4,0.4,0.3l9.4-5.7c0.2-0.1,0.3-0.4,0.3-0.7     v-2.1C96.6,127.5,96.4,127.4,96.2,127.5z"/>
		</g>
		<g>
			<path class="st0" d="M76.4,107.1c0.3-0.2,0.5,0,0.6,0.4l0,3.2c1.3-0.5,2.5-0.7,3.6-0.4c0.2,0.1,0.3,0.4,0.2,0.7l-0.7,2.8     c-0.1,0.2-0.2,0.4-0.3,0.6c-0.1,0.1-0.1,0.1-0.2,0.1c-0.1,0-0.2,0.1-0.3,0c-0.5-0.1-1.6-0.4-3.4,0.6c-1.9,1-2.6,2.6-2.5,3.8     c0,1.5,0.8,1.9,3.3,1.9c3.4,0.1,4.9,1.6,5,5c0,3.4-1.8,7.1-4.6,9.3l0.1,3.2c0,0.4-0.2,0.8-0.5,1l-1.9,1.1c-0.3,0.2-0.5,0-0.6-0.4     l0-3.1c-1.6,0.7-3.2,0.8-4.3,0.4c-0.2-0.1-0.3-0.4-0.2-0.7l0.7-2.9c0.1-0.2,0.2-0.5,0.3-0.6c0.1-0.1,0.1-0.1,0.2-0.1     c0.1-0.1,0.2-0.1,0.3,0c1.1,0.4,2.6,0.2,3.9-0.5c1.8-0.9,2.9-2.7,2.9-4.5c0-1.6-0.9-2.3-3-2.3c-2.7,0-5.2-0.5-5.3-4.5     c0-3.3,1.7-6.7,4.4-8.8l0-3.2c0-0.4,0.2-0.8,0.5-1L76.4,107.1z"/>
		</g>
	</g>
	<g>
		<path class="st1" d="M161.2,102.8c-0.9-1.1-2-2.1-3.3-2.9c-0.2-0.1-0.3-0.2-0.5-0.3c1-0.7,1.9-1.5,2.7-2.4c0.8-1,1.5-2.1,2-3.3    c0.5-1.2,0.7-2.6,0.8-4c0-2.5-0.5-4.7-1.6-6.6c-1.1-1.8-2.5-3.4-4.3-4.5c-1.7-1.1-3.7-2-5.9-2.5c-2.1-0.5-4.3-0.8-6.5-0.8h-14.9    c-1,0-1.9,0.8-1.9,1.8v47.6c0,1,0.8,1.8,1.9,1.8h16.1c2.3,0,4.6-0.4,6.8-1c2.2-0.7,4.2-1.7,5.9-2.9c1.7-1.3,3.2-2.9,4.2-4.9    c1.1-2,1.6-4.2,1.5-6.7c0-1.6-0.3-3.1-0.8-4.5C162.9,105.2,162.2,104,161.2,102.8z M152.1,92.4c-0.4,0.7-1,1.3-1.7,1.8    c-0.7,0.5-1.6,0.9-2.5,1.2c-1,0.3-2,0.4-3,0.5h-7V84.3h6.8c1.1,0,2.2,0.2,3.2,0.4c1,0.2,1.8,0.6,2.5,1.1c0.7,0.4,1.2,1,1.6,1.7    c0.4,0.7,0.6,1.5,0.6,2.5C152.7,90.9,152.5,91.7,152.1,92.4z M138,104.5h8.2c1.2,0,2.2,0.2,3.2,0.6c0.9,0.3,1.8,0.8,2.4,1.3    c0.7,0.6,1.2,1.2,1.6,2.1c0.4,0.8,0.6,1.8,0.5,2.9c0,1-0.2,2-0.6,2.8c-0.4,0.8-1,1.5-1.7,2.1c-0.7,0.6-1.6,1-2.6,1.4    c-1,0.3-2.1,0.5-3.2,0.5H138V104.5z"/>
		<path class="st1" d="M192.2,76.8c-0.2-0.7-1-1.2-1.8-1.2h-5.3c-0.8,0-1.5,0.5-1.8,1.2l-16.2,47.6c-0.2,0.5-0.1,1.1,0.3,1.6    s0.9,0.7,1.5,0.7h6.4c0.8,0,1.6-0.5,1.8-1.3l3.6-11.1h13.9l3.6,11.1c0.2,0.8,1,1.3,1.8,1.3h6.3c0.6,0,1.2-0.3,1.5-0.7    c0.4-0.5,0.5-1.1,0.3-1.6L192.2,76.8z M191.8,105.5h-8.2l4.1-12.8L191.8,105.5z"/>
		<path class="st1" d="M246.3,104.7c-0.9-1.1-1.9-2.1-3-2.9c-1.1-0.8-2.3-1.6-3.5-2.2c-1.2-0.6-2.5-1.2-3.9-1.7    c-1.3-0.5-2.6-0.9-3.9-1.3c-1.1-0.3-2.3-0.7-3.5-1.1c-1.1-0.4-2.2-0.9-3.2-1.5c-0.9-0.5-1.6-1.2-2.2-1.9c-0.5-0.7-0.7-1.5-0.8-2.4    c0-1,0.2-1.8,0.6-2.5c0.4-0.7,1-1.3,1.6-1.8c0.7-0.5,1.6-0.9,2.5-1.2c2.2-0.6,4.6-0.5,6.4,0.1c1,0.4,1.8,0.9,2.5,1.5    c0.7,0.6,1.3,1.4,1.7,2.3c0.4,1,0.8,2,0.9,3.2c0.1,0.9,0.9,1.6,1.9,1.6h6.5c0.5,0,1-0.2,1.3-0.5c0.4-0.3,0.5-0.8,0.5-1.3    c-0.1-2.4-0.6-4.7-1.7-6.7c-1.1-2-2.5-3.7-4.2-5.1c-1.7-1.4-3.7-2.5-5.9-3.2c-4.2-1.4-8.9-1.5-13.4-0.2c-2.2,0.6-4.1,1.6-5.8,2.8    c-1.7,1.3-3.2,2.8-4.2,4.6c-1.1,1.9-1.7,4-1.7,6.4c0,2.4,0.6,4.5,1.7,6.3c1.1,1.7,2.5,3.2,4.1,4.4c1.6,1.2,3.4,2.2,5.4,3    c1.9,0.8,3.7,1.5,5.6,2c1.2,0.4,2.4,0.8,3.7,1.2c1.2,0.4,2.3,0.9,3.2,1.5c0.9,0.6,1.6,1.2,2.2,2c0.5,0.7,0.7,1.6,0.7,2.7    c0,1-0.2,1.8-0.6,2.5c-0.5,0.7-1,1.3-1.8,1.8c-0.8,0.5-1.6,0.9-2.6,1.1c-2.4,0.6-4.9,0.5-6.9-0.1c-1.1-0.3-2-0.8-2.9-1.5    c-0.8-0.6-1.5-1.4-2-2.4c-0.5-0.9-0.9-2.1-1.1-3.3c-0.1-0.9-0.9-1.6-1.9-1.6h-6.5c-0.5,0-1,0.2-1.4,0.5c-0.4,0.3-0.5,0.8-0.5,1.3    c0.1,2.6,0.7,4.9,1.9,6.9c1.2,2,2.7,3.7,4.6,5.1c1.8,1.4,4,2.4,6.3,3.1c2.3,0.7,4.7,1.1,7.1,1.1c2.2,0,4.3-0.3,6.5-0.9    c2.2-0.6,4.2-1.5,5.9-2.6c1.8-1.2,3.3-2.7,4.4-4.5c1.2-1.9,1.8-4.1,1.8-6.5c0-1.6-0.2-3.1-0.7-4.5    C247.9,107,247.2,105.8,246.3,104.7z"/>
		<path class="st1" d="M288.1,75.5h-6c-1,0-1.9,0.8-1.9,1.8V96h-16.8V77.3c0-1-0.8-1.8-1.9-1.8h-6c-1,0-1.9,0.8-1.9,1.8v47.6    c0,1,0.8,1.8,1.9,1.8h6c1,0,1.9-0.8,1.9-1.8v-20.2h16.8v20.2c0,1,0.8,1.8,1.9,1.8h6c1,0,1.9-0.8,1.9-1.8V77.3    C289.9,76.3,289.1,75.5,288.1,75.5z"/>
	</g>
	<g>
		<path class="st1" d="M133.6,135h-2.3v6.1h-1.2V135h-2.3v-1h5.8V135z"/>
		<path class="st1" d="M140.6,141.1h-1.2v-3.1h-2.5v3.1h-1.2V134h1.2v3h2.5v-3h1.2V141.1z"/>
		<path class="st1" d="M147.6,137.9h-3.1v2.2h3.6v0.9h-4.8V134h4.8v1h-3.5v2h3.1V137.9z"/>
		<path class="st1" d="M158.2,141.1V134h2.4c0.4,0,0.7,0,1,0.1c0.3,0.1,0.6,0.2,0.8,0.3c0.2,0.2,0.4,0.4,0.5,0.6s0.2,0.5,0.2,0.9    c0,0.3-0.1,0.6-0.3,0.9c-0.2,0.2-0.5,0.4-0.8,0.6c0.2,0.1,0.4,0.1,0.6,0.2c0.2,0.1,0.3,0.2,0.4,0.4c0.1,0.1,0.2,0.3,0.3,0.5    c0.1,0.2,0.1,0.4,0.1,0.6c0,0.3-0.1,0.6-0.2,0.9c-0.1,0.3-0.3,0.5-0.5,0.6c-0.2,0.2-0.5,0.3-0.8,0.4c-0.3,0.1-0.7,0.1-1,0.1H158.2    z M159.4,137h1.2c0.2,0,0.4,0,0.5-0.1c0.2,0,0.3-0.1,0.4-0.2c0.1-0.1,0.2-0.2,0.3-0.3c0.1-0.1,0.1-0.3,0.1-0.4    c0-0.2,0-0.3-0.1-0.5c-0.1-0.1-0.2-0.2-0.3-0.3c-0.1-0.1-0.3-0.1-0.4-0.2c-0.2,0-0.3-0.1-0.5-0.1h-1.2V137z M159.4,137.9v2.2h1.3    c0.2,0,0.4,0,0.5-0.1c0.2-0.1,0.3-0.1,0.4-0.2c0.1-0.1,0.2-0.2,0.3-0.3c0.1-0.1,0.1-0.3,0.1-0.5c0-0.2,0-0.3-0.1-0.5    c-0.1-0.1-0.1-0.3-0.2-0.4c-0.1-0.1-0.2-0.2-0.4-0.2c-0.2-0.1-0.3-0.1-0.5-0.1H159.4z"/>
		<path class="st1" d="M170.7,138c0,0.4-0.1,0.8-0.2,1.2s-0.3,0.7-0.5,1c-0.2,0.3-0.5,0.5-0.8,0.7c-0.3,0.2-0.7,0.3-1.2,0.3    c-0.4,0-0.8-0.1-1.2-0.3c-0.3-0.2-0.6-0.4-0.8-0.7c-0.2-0.3-0.4-0.6-0.5-1c-0.1-0.4-0.2-0.8-0.2-1.2v-0.9c0-0.3,0-0.5,0.1-0.8    c0-0.3,0.1-0.5,0.2-0.7c0.1-0.2,0.2-0.5,0.4-0.6c0.1-0.2,0.3-0.4,0.5-0.5c0.2-0.1,0.4-0.3,0.7-0.3c0.2-0.1,0.5-0.1,0.8-0.1    c0.4,0,0.8,0.1,1.2,0.3c0.3,0.2,0.6,0.4,0.8,0.7c0.2,0.3,0.4,0.6,0.5,1c0.1,0.4,0.2,0.8,0.2,1.2V138z M169.5,137.1    c0-0.3,0-0.5-0.1-0.8c0-0.3-0.1-0.5-0.2-0.7c-0.1-0.2-0.3-0.4-0.4-0.5c-0.2-0.1-0.4-0.2-0.7-0.2c-0.3,0-0.5,0.1-0.7,0.2    c-0.2,0.1-0.3,0.3-0.4,0.5c-0.1,0.2-0.2,0.4-0.2,0.7c0,0.3-0.1,0.5-0.1,0.8v0.9c0,0.3,0,0.5,0.1,0.8c0,0.3,0.1,0.5,0.2,0.7    c0.1,0.2,0.3,0.4,0.4,0.5c0.2,0.1,0.4,0.2,0.7,0.2c0.3,0,0.5-0.1,0.7-0.2c0.2-0.1,0.3-0.3,0.4-0.5c0.1-0.2,0.2-0.4,0.2-0.7    c0-0.3,0.1-0.5,0.1-0.8V137.1z"/>
		<path class="st1" d="M177.9,134l0,4.7c0,0.4-0.1,0.7-0.2,1c-0.1,0.3-0.3,0.6-0.5,0.8c-0.2,0.2-0.5,0.4-0.8,0.5    c-0.3,0.1-0.6,0.2-1,0.2c-0.4,0-0.7-0.1-1-0.2c-0.3-0.1-0.6-0.3-0.8-0.5c-0.2-0.2-0.4-0.5-0.5-0.8c-0.1-0.3-0.2-0.6-0.2-1l0-4.7    h1.2l0,4.7c0,0.2,0,0.4,0.1,0.6c0.1,0.2,0.1,0.3,0.2,0.5c0.1,0.1,0.2,0.2,0.4,0.3c0.2,0.1,0.3,0.1,0.5,0.1c0.2,0,0.4,0,0.5-0.1    c0.2-0.1,0.3-0.2,0.4-0.3c0.1-0.1,0.2-0.3,0.2-0.5c0.1-0.2,0.1-0.4,0.1-0.6l0-4.7H177.9z"/>
		<path class="st1" d="M183.1,138.3h-1.2v2.8h-1.2V134h2.3c0.4,0,0.7,0,1.1,0.1c0.3,0.1,0.6,0.2,0.8,0.4c0.2,0.2,0.4,0.4,0.5,0.7    c0.1,0.3,0.2,0.6,0.2,0.9c0,0.2,0,0.5-0.1,0.7c-0.1,0.2-0.2,0.4-0.3,0.5c-0.1,0.2-0.3,0.3-0.4,0.4c-0.2,0.1-0.3,0.2-0.5,0.3l1.6,3    v0.1h-1.3L183.1,138.3z M181.8,137.4h1.1c0.2,0,0.4,0,0.6-0.1c0.2-0.1,0.3-0.1,0.4-0.2c0.1-0.1,0.2-0.2,0.3-0.4    c0.1-0.1,0.1-0.3,0.1-0.5c0-0.2,0-0.4-0.1-0.5c-0.1-0.2-0.2-0.3-0.3-0.4c-0.1-0.1-0.3-0.2-0.4-0.2c-0.2-0.1-0.4-0.1-0.6-0.1h-1.1    V137.4z"/>
		<path class="st1" d="M192.9,141.1h-1.2l-2.4-4.9l0,4.9H188V134h1.2l2.4,4.8l0-4.8h1.2V141.1z"/>
		<path class="st1" d="M199.9,137.9h-3.1v2.2h3.6v0.9h-4.8V134h4.8v1h-3.5v2h3.1V137.9z"/>
		<path class="st1" d="M207.6,138.5h-4.1v-0.9h4.1V138.5z"/>
		<path class="st1" d="M214,139.4h-2.3l-0.5,1.6h-1.3l2.4-7.1h1.1l2.4,7.1h-1.3L214,139.4z M212,138.5h1.7l-0.8-2.8L212,138.5z"/>
		<path class="st1" d="M222.9,140.2c-0.1,0.1-0.3,0.3-0.4,0.4c-0.2,0.1-0.4,0.2-0.6,0.3c-0.2,0.1-0.4,0.2-0.7,0.2    c-0.2,0-0.5,0.1-0.8,0.1c-0.4,0-0.8-0.1-1.2-0.2c-0.3-0.2-0.6-0.4-0.9-0.7c-0.2-0.3-0.4-0.6-0.5-1c-0.1-0.4-0.2-0.8-0.2-1.3v-0.9    c0-0.4,0.1-0.9,0.2-1.3c0.1-0.4,0.3-0.7,0.5-1c0.2-0.3,0.5-0.5,0.8-0.7c0.3-0.2,0.7-0.3,1.1-0.3c0.4,0,0.7,0.1,1,0.2    c0.3,0.1,0.6,0.2,0.8,0.4c0.2,0.2,0.4,0.4,0.5,0.7c0.1,0.3,0.2,0.6,0.2,0.9h-1.2c0-0.2-0.1-0.4-0.1-0.5c-0.1-0.2-0.2-0.3-0.3-0.4    c-0.1-0.1-0.2-0.2-0.4-0.2s-0.3-0.1-0.5-0.1c-0.3,0-0.5,0.1-0.7,0.2s-0.3,0.3-0.5,0.5c-0.1,0.2-0.2,0.4-0.3,0.7    c-0.1,0.3-0.1,0.6-0.1,0.8v0.9c0,0.3,0,0.6,0.1,0.8c0.1,0.3,0.2,0.5,0.3,0.7c0.1,0.2,0.3,0.4,0.5,0.5c0.2,0.1,0.4,0.2,0.7,0.2    c0.1,0,0.2,0,0.4,0c0.1,0,0.2,0,0.3-0.1c0.1,0,0.2-0.1,0.3-0.1c0.1-0.1,0.2-0.1,0.2-0.2l0-1.4h-1.3v-0.9h2.5L222.9,140.2z"/>
		<path class="st1" d="M229,139.4h-2.3l-0.5,1.6h-1.3l2.4-7.1h1.1l2.4,7.1h-1.3L229,139.4z M227,138.5h1.7l-0.8-2.8L227,138.5z"/>
		<path class="st1" d="M233,134h4.4v1h-1.6v5.1h1.6v1H233v-1h1.6V135H233V134z"/>
		<path class="st1" d="M245.1,141.1h-1.2l-2.4-4.9l0,4.9h-1.2V134h1.2l2.4,4.8l0-4.8h1.2V141.1z"/>
		<path class="st1" d="M259.1,139.3c0-0.2,0-0.3-0.1-0.4c-0.1-0.1-0.2-0.2-0.3-0.3c-0.1-0.1-0.3-0.2-0.5-0.3s-0.4-0.1-0.6-0.2    c-0.3-0.1-0.6-0.2-0.9-0.3c-0.3-0.1-0.5-0.3-0.8-0.4c-0.2-0.2-0.4-0.4-0.5-0.6c-0.1-0.2-0.2-0.5-0.2-0.8s0.1-0.6,0.2-0.8    c0.1-0.2,0.3-0.4,0.6-0.6c0.2-0.2,0.5-0.3,0.8-0.4c0.3-0.1,0.6-0.1,1-0.1c0.4,0,0.7,0.1,1,0.2c0.3,0.1,0.6,0.3,0.8,0.4    c0.2,0.2,0.4,0.4,0.6,0.7c0.1,0.3,0.2,0.6,0.2,0.9h-1.2c0-0.2-0.1-0.3-0.1-0.5c-0.1-0.1-0.2-0.3-0.3-0.4c-0.1-0.1-0.3-0.2-0.4-0.2    c-0.2-0.1-0.4-0.1-0.6-0.1c-0.2,0-0.4,0-0.5,0.1c-0.2,0-0.3,0.1-0.4,0.2c-0.1,0.1-0.2,0.2-0.3,0.3c-0.1,0.1-0.1,0.3-0.1,0.4    c0,0.2,0,0.3,0.1,0.4c0.1,0.1,0.2,0.2,0.3,0.3c0.1,0.1,0.3,0.2,0.5,0.2c0.2,0.1,0.4,0.1,0.6,0.2c0.3,0.1,0.6,0.2,0.9,0.3    c0.3,0.1,0.5,0.3,0.7,0.5c0.2,0.2,0.4,0.4,0.5,0.6c0.1,0.2,0.2,0.5,0.2,0.8c0,0.3-0.1,0.6-0.2,0.8c-0.1,0.2-0.3,0.4-0.6,0.6    c-0.2,0.2-0.5,0.3-0.8,0.4c-0.3,0.1-0.6,0.1-1,0.1c-0.2,0-0.5,0-0.7-0.1c-0.2,0-0.4-0.1-0.6-0.2c-0.2-0.1-0.4-0.2-0.6-0.3    c-0.2-0.1-0.3-0.3-0.5-0.4c-0.1-0.2-0.2-0.3-0.3-0.5c-0.1-0.2-0.1-0.4-0.1-0.7h1.2c0,0.2,0.1,0.4,0.1,0.6c0.1,0.2,0.2,0.3,0.3,0.4    c0.1,0.1,0.3,0.2,0.5,0.2c0.2,0.1,0.4,0.1,0.6,0.1c0.2,0,0.4,0,0.5-0.1c0.2,0,0.3-0.1,0.4-0.2c0.1-0.1,0.2-0.2,0.3-0.3    C259,139.6,259.1,139.4,259.1,139.3z"/>
		<path class="st1" d="M267.5,141.1h-1.2v-3.1h-2.5v3.1h-1.2V134h1.2v3h2.5v-3h1.2V141.1z"/>
		<path class="st1" d="M274.5,137.9h-3.1v2.2h3.6v0.9h-4.8V134h4.8v1h-3.5v2h3.1V137.9z"/>
		<path class="st1" d="M278.9,140.1h3.5v0.9h-4.8V134h1.2V140.1z"/>
		<path class="st1" d="M286.4,140.1h3.5v0.9h-4.8V134h1.2V140.1z"/>
	</g>
</g>
</svg>
