<!--
tags: [chat, communicate, communication, talk, discuss, app, collaborate, collaboration, technology, brand]
category: Brand
version: "1.36"
unicode: "edcd"
-->
<svg
  xmlns="http://www.w3.org/2000/svg"
  width="24"
  height="24"
  viewBox="0 0 24 24"
  fill="none"
  stroke="currentColor"
  stroke-width="2"
  stroke-linecap="round"
  stroke-linejoin="round"
>
  <path d="M17.802 17.292s.077 -.055 .2 -.149c1.843 -1.425 3 -3.49 3 -5.789c0 -4.286 -4.03 -7.764 -9 -7.764c-4.97 0 -9 3.478 -9 7.764c0 4.288 4.03 7.646 9 7.646c.424 0 1.12 -.028 2.088 -.084c1.262 .82 3.104 1.493 4.716 1.493c.499 0 .734 -.41 .414 -.828c-.486 -.596 -1.156 -1.551 -1.416 -2.29l-.002 .001" />
  <path d="M7.5 13.5c2.5 2.5 6.5 2.5 9 0" />
</svg>
