<!--
tags: [china, communicator, internet]
category: Brand
unicode: "f606"
version: "1.114"
-->
<svg
  xmlns="http://www.w3.org/2000/svg"
  width="24"
  height="24"
  viewBox="0 0 24 24"
  fill="none"
  stroke="currentColor"
  stroke-width="2"
  stroke-linecap="round"
  stroke-linejoin="round"
>
  <path d="M6 9.748a14.716 14.716 0 0 0 11.995 -.052c.275 -9.236 -11.104 -11.256 -11.995 .052zm12 .252c.984 2.762 1.949 4.765 2 7.153c.014 .688 -.664 1.346 -1.184 .303c-.346 -.696 -.952 -1.181 -1.816 -1.456m0 0c.031 1.831 .147 3.102 -1 4m-8 0c-1.099 -.87 -.914 -2.24 -1 -4m-1 -6c-.783 2.338 -1.742 4.12 -1.968 6.43c-.217 2.227 .716 1.644 1.16 .917c.296 -.487 .898 -.934 1.808 -1.347m8.898 -3l-.476 -2m-7.422 9l-1.5 1c-.5 .5 -.5 1 .5 1h10c1 0 1 -.5 .5 -1l-1.5 -1m-2.25 -13m-1 0a1 1 0 1 0 2 0a1 1 0 1 0 -2 0m-2.5 0m-1 0a1 1 0 1 0 2 0a1 1 0 1 0 -2 0" />
</svg>
