<!--
tags: [phone, mobile, system, operating, os, electronics, brand, blackberry, logo, company]
category: Brand
version: "1.107"
unicode: "f568"
-->
<svg
  xmlns="http://www.w3.org/2000/svg"
  width="24"
  height="24"
  viewBox="0 0 24 24"
  fill="none"
  stroke="currentColor"
  stroke-width="2"
  stroke-linecap="round"
  stroke-linejoin="round"
>
  <path d="M7 6a1 1 0 0 0 -1 -1h-2l-.5 2h2.5a1 1 0 0 0 1 -1" />
  <path d="M6 12a1 1 0 0 0 -1 -1h-2l-.5 2h2.5a1 1 0 0 0 1 -1" />
  <path d="M13 12a1 1 0 0 0 -1 -1h-2l-.5 2h2.5a1 1 0 0 0 1 -1" />
  <path d="M14 6a1 1 0 0 0 -1 -1h-2l-.5 2h2.5a1 1 0 0 0 1 -1" />
  <path d="M12 18a1 1 0 0 0 -1 -1h-2l-.5 2h2.5a1 1 0 0 0 1 -1" />
  <path d="M20 15a1 1 0 0 0 -1 -1h-2l-.5 2h2.5a1 1 0 0 0 1 -1" />
  <path d="M21 9a1 1 0 0 0 -1 -1h-2l-.5 2h2.5a1 1 0 0 0 1 -1" />
</svg>
