<!--
tags: [logo, website, sharing, watching, video, users, brand, vimeo, company, trademark]
category: Brand
version: "1.23"
unicode: "ed06"
-->
<svg
  xmlns="http://www.w3.org/2000/svg"
  width="24"
  height="24"
  viewBox="0 0 24 24"
  fill="none"
  stroke="currentColor"
  stroke-width="2"
  stroke-linecap="round"
  stroke-linejoin="round"
>
  <path d="M3 8.5l1 1s1.5 -1.102 2 -.5c.509 .609 1.863 7.65 2.5 9c.556 1.184 1.978 2.89 4 1.5c2 -1.5 7.5 -5.5 8.5 -11.5c.444 -2.661 -1 -4 -2.5 -4c-2 0 -4.047 1.202 -4.5 4c2.05 -1.254 2.551 1 1.5 3c-1.052 2 -2 3 -2.5 3c-.49 0 -.924 -1.165 -1.5 -3.5c-.59 -2.42 -.5 -6.5 -3 -6.5s-5.5 4.5 -5.5 4.5" />
</svg>
