<!--
tags: [delivery, service, tracking, pickup]
category: Brand
unicode: "f32e"
version: "1.86"
-->
<svg
  xmlns="http://www.w3.org/2000/svg"
  width="24"
  height="24"
  viewBox="0 0 24 24"
  fill="none"
  stroke="currentColor"
  stroke-width="2"
  stroke-linecap="round"
  stroke-linejoin="round"
>
  <path d="M17 12a2 2 0 1 0 4 0a9 9 0 1 0 -2.987 6.697" />
  <path d="M12 12m-5 0a5 5 0 1 0 10 0a5 5 0 1 0 -10 0" />
  <path d="M12 12m-1 0a1 1 0 1 0 2 0a1 1 0 1 0 -2 0" />
  <path d="M12 12m-1 0a1 1 0 1 0 2 0a1 1 0 1 0 -2 0" />
</svg>
