<!--
tags: [app, control, devices, speaker]
category: Brand
unicode: "f601"
version: "1.114"
-->
<svg
  xmlns="http://www.w3.org/2000/svg"
  width="24"
  height="24"
  viewBox="0 0 24 24"
  fill="none"
  stroke="currentColor"
  stroke-width="2"
  stroke-linecap="round"
  stroke-linejoin="round"
>
  <path d="M19.072 21h-14.144a1.928 1.928 0 0 1 -1.928 -1.928v-6.857c0 -.512 .203 -1 .566 -1.365l7.07 -7.063a1.928 1.928 0 0 1 2.727 0l7.071 7.063c.363 .362 .566 .853 .566 1.365v6.857a1.928 1.928 0 0 1 -1.928 1.928zm-12.072 -8v4h10v-4l-5 -5m2.8 -2.8l-11.8 11.8m4 0v4m10 -4v4" />
</svg>
