<!--
tags: [sandbox, build, exploration, blocks, creative, survival, craft, adventure, multiplayer, pixels]
category: Brand
version: "2.24"
unicode: "faef"
-->
<svg
  xmlns="http://www.w3.org/2000/svg"
  width="24"
  height="24"
  viewBox="0 0 24 24"
  fill="none"
  stroke="currentColor"
  stroke-width="2"
  stroke-linecap="round"
  stroke-linejoin="round"
>
  <path d="M21 16.008v-8.018a1.98 1.98 0 0 0 -1 -1.717l-7 -4.008a2.016 2.016 0 0 0 -2 0l-7 4.008c-.619 .355 -1 1.01 -1 1.718v8.018c0 .709 .381 1.363 1 1.717l7 4.008c.62 .354 1.38 .354 2 0l7 -4.008c.619 -.355 1 -1.01 1 -1.718zm-9 5.992v-10m0 0l8.73 -5.04m-17.46 0l8.73 5.04m0 5l3.003 -1.668m3 -1.667l2.997 -1.665m-9 5l-9 -5m12 5l3 -1.67v-3l-3 1.67z" />
</svg>
