<!--
tags: [data, analysis, cloud, petabytes, sql, brand, google, big, query, logo]
category: Brand
version: "1.115"
unicode: "f612"
-->
<svg
  xmlns="http://www.w3.org/2000/svg"
  width="24"
  height="24"
  viewBox="0 0 24 24"
  fill="none"
  stroke="currentColor"
  stroke-width="2"
  stroke-linecap="round"
  stroke-linejoin="round"
>
  <path d="M17.73 19.875a2.225 2.225 0 0 1 -1.948 1.125h-7.283a2.222 2.222 0 0 1 -1.947 -1.158l-4.272 -6.75a2.269 2.269 0 0 1 0 -2.184l4.272 -6.75a2.225 2.225 0 0 1 1.946 -1.158h7.285c.809 0 1.554 .443 1.947 1.158l3.98 6.75a2.33 2.33 0 0 1 0 2.25l-3.98 6.75v-.033" />
  <path d="M8 11.5a3.5 3.5 0 1 0 7 0a3.5 3.5 0 1 0 -7 0" />
  <path d="M14 14l2 2" />
</svg>
