<!--
tags: [payment, money, debit, finance, brand, mastercard, logo, company, trademark, identity]
category: Brand
version: "1.43"
unicode: "ef49"
-->
<svg
  xmlns="http://www.w3.org/2000/svg"
  width="24"
  height="24"
  viewBox="0 0 24 24"
  fill="none"
  stroke="currentColor"
  stroke-width="2"
  stroke-linecap="round"
  stroke-linejoin="round"
>
  <path d="M11 12a3 3 0 1 0 6 0a3 3 0 1 0 -6 0" />
  <path d="M12 9.765a3 3 0 1 0 0 4.47" />
  <path d="M3 7a2 2 0 0 1 2 -2h14a2 2 0 0 1 2 2v10a2 2 0 0 1 -2 2h-14a2 2 0 0 1 -2 -2v-10" />
</svg>
