<!--
category: Brand
unicode: "feae"
version: "3.1"
-->
<svg
  xmlns="http://www.w3.org/2000/svg"
  width="24"
  height="24"
  viewBox="0 0 24 24"
  fill="none"
  stroke="currentColor"
  stroke-width="2"
  stroke-linecap="round"
  stroke-linejoin="round"
>
  <path d="M4.687 14.694l-.987 2.103c-.502 1.07 -.125 2.387 .908 2.945c1.096 .59 2.444 .13 2.972 -.995l.9 -1.92" />
  <path d="M18.317 14.576c1.818 -1.6 3.16 -3.78 3.64 -6.217c.235 -1.194 -.525 -2.351 -1.695 -2.586a2.14 2.14 0 0 0 -1.625 .326c-.478 .323 -.81 .826 -.922 1.398c-.208 1.054 -.695 2.037 -1.366 2.872" />
  <path d="M12.68 12.759a5.4 5.4 0 0 1 -1.283 .157c-.336 0 -.683 -.04 -1.03 -.115c-1.44 -.31 -2.89 -1.215 -3.709 -2.315a3.7 3.7 0 0 1 -.487 -.853a2.157 2.157 0 0 0 -2.818 -1.213c-1.107 .455 -1.641 1.736 -1.196 2.86c.508 1.278 1.404 2.45 2.53 3.415a11.2 11.2 0 0 0 3.791 2.133c.953 .31 1.942 .483 2.916 .483a9.8 9.8 0 0 0 3.162 -.537" />
  <path d="M10.37 12.801l.943 -2.013c.09 -.19 .357 -.19 .446 0l.923 1.97h.006h-.006l1.88 4.015l.923 1.971a2.16 2.16 0 0 0 1.957 1.254q .29 0 .576 -.081c1.303 -.365 1.92 -1.887 1.339 -3.129l-1.04 -2.218l-1.968 -4.204l-.003 .003l.003 -.003l-2.862 -6.112a2.16 2.16 0 0 0 -1.954 -1.254c-.833 0 -1.593 .488 -1.953 1.254l-2.92 6.232" />
</svg>
