<!--
tags: [education, learning, language, word, game, design, brand, drops, logo, company]
category: Brand
version: "1.99"
unicode: "f4d5"
-->
<svg
  xmlns="http://www.w3.org/2000/svg"
  width="24"
  height="24"
  viewBox="0 0 24 24"
  fill="none"
  stroke="currentColor"
  stroke-width="2"
  stroke-linecap="round"
  stroke-linejoin="round"
>
  <path d="M17.637 7.416a7.907 7.907 0 0 1 1.76 8.666a8 8 0 0 1 -7.397 4.918a8 8 0 0 1 -7.396 -4.918a7.907 7.907 0 0 1 1.759 -8.666l5.637 -5.416l5.637 5.416" />
  <path d="M14.466 10.923a3.595 3.595 0 0 1 .77 3.877a3.5 3.5 0 0 1 -3.236 2.2a3.5 3.5 0 0 1 -3.236 -2.2a3.595 3.595 0 0 1 .77 -3.877l2.466 -2.423l2.466 2.423" />
</svg>
