<!--
tags: [programming, coding, script, format, file]
category: Brand
version: "1.45"
unicode: "ef72"
-->
<svg
  xmlns="http://www.w3.org/2000/svg"
  width="24"
  height="24"
  viewBox="0 0 24 24"
  fill="none"
  stroke="currentColor"
  stroke-width="2"
  stroke-linecap="round"
  stroke-linejoin="round"
>
  <path d="M12 12m-10 0a10 9 0 1 0 20 0a10 9 0 1 0 -20 0" />
  <path d="M5.5 15l.395 -1.974l.605 -3.026h1.32a1 1 0 0 1 .986 1.164l-.167 1a1 1 0 0 1 -.986 .836h-1.653" />
  <path d="M15.5 15l.395 -1.974l.605 -3.026h1.32a1 1 0 0 1 .986 1.164l-.167 1a1 1 0 0 1 -.986 .836h-1.653" />
  <path d="M12 7.5l-1 5.5" />
  <path d="M11.6 10h2.4l-.5 3" />
</svg>
