<!--
tags: [footwear, shoes, clotches, app, online, shop, brand, zalando, logo, company]
category: Brand
version: "1.96"
unicode: "f49e"
-->
<svg
  xmlns="http://www.w3.org/2000/svg"
  width="24"
  height="24"
  viewBox="0 0 24 24"
  fill="none"
  stroke="currentColor"
  stroke-width="2"
  stroke-linecap="round"
  stroke-linejoin="round"
>
  <path d="M7.531 21c-.65 0 -1 -.15 -1.196 -.27c-.266 -.157 -.753 -.563 -1.197 -1.747a20.583 20.583 0 0 1 -1.137 -6.983c.015 -2.745 .436 -5.07 1.137 -6.975c.444 -1.2 .93 -1.605 1.197 -1.763c.192 -.103 .545 -.262 1.195 -.262c.244 0 .532 .022 .871 .075a19.093 19.093 0 0 1 6.425 2.475h.007a19.572 19.572 0 0 1 5.287 4.508c.783 .99 .879 1.627 .879 1.942c0 .315 -.096 .953 -.879 1.943a19.571 19.571 0 0 1 -5.287 4.5h-.007a19.041 19.041 0 0 1 -6.425 2.474a5.01 5.01 0 0 1 -.871 .083" />
</svg>
