<!--
tags: [cloud, computing, services, infrastructure, storage, networking, scalable, datacenter, virtualization, deployment]
category: Brand
version: "2.16"
unicode: "fa4c"
-->
<svg
  xmlns="http://www.w3.org/2000/svg"
  width="24"
  height="24"
  viewBox="0 0 24 24"
  fill="none"
  stroke="currentColor"
  stroke-width="2"
  stroke-linecap="round"
  stroke-linejoin="round"
>
  <path d="M17 18.5a15.198 15.198 0 0 1 -7.37 1.44a14.62 14.62 0 0 1 -6.63 -2.94m16.5 4c.907 -1.411 1.451 -3.323 1.5 -5c-1.197 -.773 -2.577 -.935 -4 -1m-14 -4v-4.5a1.5 1.5 0 0 1 3 0v4.5m-3 -2h3m3 -4l1.2 6l1.8 -4l1.8 4l1.2 -6m3 5.25c0 .414 .336 .75 .75 .75h1.25a1 1 0 0 0 1 -1v-1a1 1 0 0 0 -1 -1h-1a1 1 0 0 1 -1 -1v-1a1 1 0 0 1 1 -1h1.25a.75 .75 0 0 1 .75 .75" />
</svg>
