<!--
tags: [logic, debate, discussion, thinking, rational, argument, sense, intellect, judgment, mental]
category: Brand
unicode: "f49a"
version: "1.96"
-->
<svg
  xmlns="http://www.w3.org/2000/svg"
  width="24"
  height="24"
  viewBox="0 0 24 24"
  fill="none"
  stroke="currentColor"
  stroke-width="2"
  stroke-linecap="round"
  stroke-linejoin="round"
>
  <path d="M3 3m0 2a2 2 0 0 1 2 -2h14a2 2 0 0 1 2 2v14a2 2 0 0 1 -2 2h-14a2 2 0 0 1 -2 -2zm15 13h-3v-6h3m0 3h-3m-7 3v-6h2.5a1.5 1.5 0 0 1 0 3h-2.5m4 3l-2 -3" />
</svg>
