<!--
tags: [app, dating, social, media, communication]
category: Brand
unicode: "f5fb"
version: "1.114"
-->
<svg
  xmlns="http://www.w3.org/2000/svg"
  width="24"
  height="24"
  viewBox="0 0 24 24"
  fill="none"
  stroke="currentColor"
  stroke-width="2"
  stroke-linecap="round"
  stroke-linejoin="round"
>
  <path d="M7 12h10" />
  <path d="M9 8h6" />
  <path d="M10 16h4" />
  <path d="M16.268 3h-8.536a1.46 1.46 0 0 0 -1.268 .748l-4.268 7.509a1.507 1.507 0 0 0 0 1.486l4.268 7.509c.26 .462 .744 .747 1.268 .748h8.536a1.46 1.46 0 0 0 1.268 -.748l4.268 -7.509a1.507 1.507 0 0 0 0 -1.486l-4.268 -7.509a1.46 1.46 0 0 0 -1.268 -.748z" />
</svg>
