<!--
tags: [communication, answering, calls, messages]
category: Brand
unicode: "f617"
version: "1.115"
-->
<svg
  xmlns="http://www.w3.org/2000/svg"
  width="24"
  height="24"
  viewBox="0 0 24 24"
  fill="none"
  stroke="currentColor"
  stroke-width="2"
  stroke-linecap="round"
  stroke-linejoin="round"
>
  <path d="M21 12a9 9 0 1 1 -18 0a9 9 0 0 1 18 0z" />
  <path d="M9 9m-1 0a1 1 0 1 0 2 0a1 1 0 1 0 -2 0" />
  <path d="M15 9m-1 0a1 1 0 1 0 2 0a1 1 0 1 0 -2 0" />
  <path d="M15 15m-1 0a1 1 0 1 0 2 0a1 1 0 1 0 -2 0" />
  <path d="M9 15m-1 0a1 1 0 1 0 2 0a1 1 0 1 0 -2 0" />
</svg>
