<!--
tags: [photography, application, brand, vsco, logo, company, trademark, identity, corporate, business]
category: Brand
version: "1.86"
unicode: "f334"
-->
<svg
  xmlns="http://www.w3.org/2000/svg"
  width="24"
  height="24"
  viewBox="0 0 24 24"
  fill="none"
  stroke="currentColor"
  stroke-width="2"
  stroke-linecap="round"
  stroke-linejoin="round"
>
  <path d="M21 12a9 9 0 1 1 -18 0a9 9 0 0 1 18 0" />
  <path d="M17 12a5 5 0 1 0 -10 0a5 5 0 0 0 10 0" />
  <path d="M12 3v4" />
  <path d="M21 12h-4" />
  <path d="M12 21v-4" />
  <path d="M3 12h4" />
  <path d="M18.364 5.636l-2.828 2.828" />
  <path d="M18.364 18.364l-2.828 -2.828" />
  <path d="M5.636 18.364l2.828 -2.828" />
  <path d="M5.636 5.636l2.828 2.828" />
</svg>
