<!--
tags: [software, communication, server]
category: Brand
unicode: "f32c"
version: "1.86"
-->
<svg
  xmlns="http://www.w3.org/2000/svg"
  width="24"
  height="24"
  viewBox="0 0 24 24"
  fill="none"
  stroke="currentColor"
  stroke-width="2"
  stroke-linecap="round"
  stroke-linejoin="round"
>
  <path d="M4 8l8 -5l8 5v8l-8 5l-8 -5zm8 -4l7.5 12h-15zm-1 -1a1 1 0 1 0 2 0a1 1 0 0 0 -2 0m0 18a1 1 0 1 0 2 0a1 1 0 0 0 -2 0m-8 -13a1 1 0 1 0 2 0a1 1 0 0 0 -2 0m0 8a1 1 0 1 0 2 0a1 1 0 0 0 -2 0m16 0a1 1 0 1 0 2 0a1 1 0 0 0 -2 0m0 -8a1 1 0 1 0 2 0a1 1 0 0 0 -2 0" />
</svg>
