<!--
tags: [logo, free, internet, service, stuff, electron, app, application, communicator, textual, audio, multimedia]
category: Brand
version: "1.13"
unicode: "ec72"
-->
<svg
  xmlns="http://www.w3.org/2000/svg"
  width="24"
  height="24"
  viewBox="0 0 24 24"
  fill="none"
  stroke="currentColor"
  stroke-width="2"
  stroke-linecap="round"
  stroke-linejoin="round"
>
  <path d="M12 12v-6a2 2 0 0 1 4 0v6m0 -2a2 2 0 1 1 2 2h-6" />
  <path d="M12 12h6a2 2 0 0 1 0 4h-6m2 0a2 2 0 1 1 -2 2v-6" />
  <path d="M12 12v6a2 2 0 0 1 -4 0v-6m0 2a2 2 0 1 1 -2 -2h6" />
  <path d="M12 12h-6a2 2 0 0 1 0 -4h6m-2 0a2 2 0 1 1 2 -2v6" />
</svg>
