<!--
tags: [logic, debate, discussion, thinking, rational, argument, sense, intellect, judgment, mental]
category: Brand
unicode: "f49a"
version: "1.96"
-->
<svg
  xmlns="http://www.w3.org/2000/svg"
  width="24"
  height="24"
  viewBox="0 0 24 24"
  fill="none"
  stroke="currentColor"
  stroke-width="2"
  stroke-linecap="round"
  stroke-linejoin="round"
>
  <path d="M3 5a2 2 0 0 1 2 -2h14a2 2 0 0 1 2 2v14a2 2 0 0 1 -2 2h-14a2 2 0 0 1 -2 -2v-14" />
  <path d="M18 18h-3v-6h3" />
  <path d="M18 15h-3" />
  <path d="M8 18v-6h2.5a1.5 1.5 0 0 1 0 3h-2.5" />
  <path d="M12 18l-2 -3" />
</svg>
