<!--
tags: [creation, web, application, framework, brand, django, logo, company, trademark, identity]
category: Brand
version: "1.88"
unicode: "f349"
-->
<svg
  xmlns="http://www.w3.org/2000/svg"
  width="24"
  height="24"
  viewBox="0 0 24 24"
  fill="none"
  stroke="currentColor"
  stroke-width="2"
  stroke-linecap="round"
  stroke-linejoin="round"
>
  <path d="M3 6a3 3 0 0 1 3 -3h12a3 3 0 0 1 3 3v12a3 3 0 0 1 -3 3h-12a3 3 0 0 1 -3 -3v-12" />
  <path d="M12 7v8.5l-2.015 .201a2.715 2.715 0 1 1 0 -5.402l2.015 .201" />
  <path d="M16 7v.01" />
  <path d="M16 10v5.586c0 .905 -.36 1.774 -1 2.414" />
</svg>
