<!--
tags: [element, chemistry, organic, structure, graphite, diamond, molecule, material, carbon-fiber, compound]
category: Brand
unicode: "f348"
version: "1.88"
-->
<svg
  xmlns="http://www.w3.org/2000/svg"
  width="24"
  height="24"
  viewBox="0 0 24 24"
  fill="none"
  stroke="currentColor"
  stroke-width="2"
  stroke-linecap="round"
  stroke-linejoin="round"
>
  <path d="M14 10v-.2a1.8 1.8 0 0 0 -1.8 -1.8h-.4a1.8 1.8 0 0 0 -1.8 1.8v4.4a1.8 1.8 0 0 0 1.8 1.8h.4a1.8 1.8 0 0 0 1.8 -1.8v-.2" />
  <path d="M3 3m0 3a3 3 0 0 1 3 -3h12a3 3 0 0 1 3 3v12a3 3 0 0 1 -3 3h-12a3 3 0 0 1 -3 -3z" />
</svg>
