<!--
tags: [technology, social, media, networking, service, russian, brand, logo, company, trademark]
category: Brand
version: "1.32"
unicode: "ed72"
-->
<svg
  xmlns="http://www.w3.org/2000/svg"
  width="24"
  height="24"
  viewBox="0 0 24 24"
  fill="none"
  stroke="currentColor"
  stroke-width="2"
  stroke-linecap="round"
  stroke-linejoin="round"
>
  <path d="M14 19h-4a8 8 0 0 1 -8 -8v-5h4v5a4 4 0 0 0 4 4v-9h4v4.5l.03 0a4.531 4.531 0 0 0 3.97 -4.496h4l-.342 1.711a6.858 6.858 0 0 1 -3.658 4.789a5.34 5.34 0 0 1 3.566 4.111l.434 2.389h-4a4.531 4.531 0 0 0 -3.97 -4.496v4.5l-.03 -.008" />
</svg>
