<!--
tags: [programming, coding, software, perl, boume shell]
category: Brand
version: "1.45"
unicode: "ef6f"
-->
<svg
  xmlns="http://www.w3.org/2000/svg"
  width="24"
  height="24"
  viewBox="0 0 24 24"
  fill="none"
  stroke="currentColor"
  stroke-width="2"
  stroke-linecap="round"
  stroke-linejoin="round"
>
  <path d="M16 12m-1 0a1 1 0 1 0 2 0a1 1 0 1 0 -2 0m-3 -4m-1 0a1 1 0 1 0 2 0a1 1 0 1 0 -2 0m1 8m-1 0a1 1 0 1 0 2 0a1 1 0 1 0 -2 0m1 -1v-6m3 2l-2 -2m-2 -2l-1.9 -1.9m4.346 -2.5l7.955 7.954a2.045 2.045 0 0 1 0 2.892l-7.955 7.955a2.045 2.045 0 0 1 -2.892 0l-7.955 -7.955a2.045 2.045 0 0 1 0 -2.892l7.955 -7.955a2.045 2.045 0 0 1 2.892 0z" />
</svg>
