<!--
tags: [programming, coding, typescript]
category: Brand
version: "1.45"
unicode: "ef6b"
-->
<svg
  xmlns="http://www.w3.org/2000/svg"
  width="24"
  height="24"
  viewBox="0 0 24 24"
  fill="none"
  stroke="currentColor"
  stroke-width="2"
  stroke-linecap="round"
  stroke-linejoin="round"
>
  <path d="M5.428 17.245l6.076 3.471a1 1 0 0 0 .992 0l6.076 -3.471a1 1 0 0 0 .495 -.734l1.323 -9.704a1 1 0 0 0 -.658 -1.078l-7.4 -2.612a1 1 0 0 0 -.665 0l-7.399 2.613a1 1 0 0 0 -.658 1.078l1.323 9.704a1 1 0 0 0 .495 .734z" />
  <path d="M9 15l3 -8l3 8" />
  <path d="M10 13h4" />
</svg>
