<!--
tags: [phone, mobile, system, operating, os, electronics]
category: Brand
unicode: "f568"
version: "1.107"
-->
<svg
  xmlns="http://www.w3.org/2000/svg"
  width="24"
  height="24"
  viewBox="0 0 24 24"
  fill="none"
  stroke="currentColor"
  stroke-width="2"
  stroke-linecap="round"
  stroke-linejoin="round"
>
  <path d="M7 6a1 1 0 0 0 -1 -1h-2l-.5 2h2.5a1 1 0 0 0 1 -1zm-1 6a1 1 0 0 0 -1 -1h-2l-.5 2h2.5a1 1 0 0 0 1 -1zm7 0a1 1 0 0 0 -1 -1h-2l-.5 2h2.5a1 1 0 0 0 1 -1zm1 -6a1 1 0 0 0 -1 -1h-2l-.5 2h2.5a1 1 0 0 0 1 -1zm-2 12a1 1 0 0 0 -1 -1h-2l-.5 2h2.5a1 1 0 0 0 1 -1zm8 -3a1 1 0 0 0 -1 -1h-2l-.5 2h2.5a1 1 0 0 0 1 -1zm1 -6a1 1 0 0 0 -1 -1h-2l-.5 2h2.5a1 1 0 0 0 1 -1z" />
</svg>
