<!--
tags: [database, startups, business, funding, investment, innovation, entrepreneurship, data, analytics, profile]
category: Brand
version: "2.9"
unicode: "f7e3"
-->
<svg
  xmlns="http://www.w3.org/2000/svg"
  width="24"
  height="24"
  viewBox="0 0 24 24"
  fill="none"
  stroke="currentColor"
  stroke-width="2"
  stroke-linecap="round"
  stroke-linejoin="round"
>
  <path d="M3 19v-14a2 2 0 0 1 2 -2h14a2 2 0 0 1 2 2v14a2 2 0 0 1 -2 2h-14a2 2 0 0 1 -2 -2zm7.414 -7.414a2 2 0 1 0 0 2.828m4.586 -1.414m-2 0a2 2 0 1 0 4 0a2 2 0 1 0 -4 0m0 -6v6" />
</svg>
