<!--
tags: [cloud, storage, decentralized, data, network, security, blockchain, sharing, space, file]
category: Brand
version: "2.16"
unicode: "fa54"
-->
<svg
  xmlns="http://www.w3.org/2000/svg"
  width="24"
  height="24"
  viewBox="0 0 24 24"
  fill="none"
  stroke="currentColor"
  stroke-width="2"
  stroke-linecap="round"
  stroke-linejoin="round"
>
  <path d="M4 17m-1 0a1 1 0 1 0 2 0a1 1 0 1 0 -2 0m1 -10m-1 0a1 1 0 1 0 2 0a1 1 0 1 0 -2 0m17 10m-1 0a1 1 0 1 0 2 0a1 1 0 1 0 -2 0m1 -10m-1 0a1 1 0 1 0 2 0a1 1 0 1 0 -2 0m-7 -4m-1 0a1 1 0 1 0 2 0a1 1 0 1 0 -2 0m1 18m-1 0a1 1 0 1 0 2 0a1 1 0 1 0 -2 0m1 0l-8 -4v-10l8 -4l8 4v10zm-2.9 -6a2.1 2.1 0 0 1 -.648 -4.098c.282 -1.648 1.319 -2.902 3.048 -2.902c1.694 0 2.906 1.203 3.23 2.8h.17a2.1 2.1 0 0 1 .202 4.19l-.202 .01h-5.8zm-5.1 -8l4.323 2.702m8.09 5.056l3.587 2.242m-16 0l3.529 -2.206m7.08 -4.424l5.391 -3.37m-8 -4v5m0 7v6" />
</svg>
