<!--
tags: [software, files, manager, macos, osx, programming]
category: Brand
version: "1.72"
unicode: "f218"
-->
<svg
  xmlns="http://www.w3.org/2000/svg"
  width="24"
  height="24"
  viewBox="0 0 24 24"
  fill="none"
  stroke="currentColor"
  stroke-width="2"
  stroke-linecap="round"
  stroke-linejoin="round"
>
  <path d="M3 4m0 1a1 1 0 0 1 1 -1h16a1 1 0 0 1 1 1v14a1 1 0 0 1 -1 1h-16a1 1 0 0 1 -1 -1z" />
  <path d="M7 8v1" />
  <path d="M17 8v1" />
  <path d="M12.5 4c-.654 1.486 -1.26 3.443 -1.5 9h2.5c-.19 2.867 .094 5.024 .5 7" />
  <path d="M7 15.5c3.667 2 6.333 2 10 0" />
</svg>
