<svg
  xmlns="http://www.w3.org/2000/svg"
  width="24"
  height="24"
  viewBox="0 0 24 24"
  fill="currentColor"
  stroke-width="2"
  stroke-linecap="round"
  stroke-linejoin="round"
>
  <g transform="scale(0.48)">
    <path
      d="M19.75,35.53l-.68-.44c-2.06-1.32-3.58-3.23-4.41-5.52l-.27-.76,6.34-1.08,.05,.06c.65,.07,1.2,.54,1.35,1.2h0c.04,.18,.05,.37,.03,.54l.04,.05-.13,.38-2.3,5.56Zm-3.51-5.66c.66,1.43,1.64,2.67,2.9,3.62l1.52-3.68h0l.14-.38s.02-.08,.01-.12h0c-.02-.11-.12-.16-.19-.16l-.41,.08-.02-.02-3.95,.67Z"/>
    <path
      d="M14.15,27.78l-.09-.8c-.26-2.41,.29-4.87,1.55-6.92l.42-.69,4.81,4.3-.02,.08c.36,.55,.34,1.28-.09,1.81-.11,.14-.25,.26-.4,.35l-.02,.08-6.17,1.78Zm2.22-6.3c-.71,1.42-1.06,2.97-1.02,4.55l4.23-1.24s.07-.03,.1-.07c.07-.08,.06-.21-.03-.28l-.3-.26v-.03l-2.99-2.68Z"/>
    <path
      d="M22.56,22.33c-.19,0-.37-.03-.54-.09l-.07,.03-5.26-3.73,.57-.57c1.45-1.42,3.27-2.42,5.27-2.87,.38-.09,.75-.15,1.13-.2l.8-.1-.36,6.42-.08,.04c-.21,.62-.79,1.06-1.48,1.06Zm-.44-1.61l.32,.23c.12,.09,.32,0,.32-.16l.04-.41,.23-4c-.06,.01-.13,.03-.19,.04-1.49,.34-2.86,1.01-4.02,1.97l3.29,2.33h0Z"/>
    <path
      d="M25,28.42l-2.03-.98-.5-2.19,1.41-1.75h2.25l1.4,1.75-.5,2.19-2.02,.97Zm-.86-1.91l.86,.41,.85-.41,.21-.92-.59-.74h-.96l-.59,.74,.21,.92Z"/>
    <path
      d="M27.43,22.32c-.46,0-.91-.2-1.21-.59-.11-.14-.19-.29-.25-.45l-.07-.03-.37-6.44,.8,.1c2.38,.29,4.64,1.38,6.36,3.07l.58,.57-5.22,3.7-.07-.03c-.18,.07-.37,.1-.56,.1Zm-.23-1.97h0l.02,.42s.02,.08,.04,.12c.07,.09,.19,.1,.28,.04l.3-.22h.02l3.27-2.31c-1.21-1-2.65-1.69-4.17-2.01l.23,3.97Z"/>
    <path
      d="M15.76,48.92c-1.18,0-2.28-.52-3.02-1.44L1.22,33.14c-.08-.1-.15-.2-.22-.3-.57-.87-.76-1.94-.52-2.94L4.58,12.02c.26-1.14,1.02-2.09,2.09-2.6L23.32,1.46c.47-.22,.96-.35,1.48-.37,.64-.04,1.29,.1,1.87,.37l16.66,7.95c1.06,.51,1.83,1.46,2.09,2.6l4.12,17.87c.26,1.15,0,2.33-.75,3.25l-11.52,14.33c-.74,.92-1.84,1.44-3.02,1.44H15.76ZM24.99,2.43s-.08,0-.13,0c-.33,.02-.66,.1-.96,.24L7.25,10.64c-.69,.33-1.19,.94-1.36,1.68L1.79,30.2c-.15,.65-.03,1.34,.34,1.9,.04,.07,.09,.14,.14,.2l11.52,14.33c.48,.59,1.19,.94,1.96,.94h18.49c.77,0,1.48-.34,1.96-.94l11.52-14.33c.48-.59,.65-1.36,.48-2.1l-4.12-17.87c-.17-.74-.66-1.35-1.36-1.68L26.09,2.68c-.34-.16-.72-.25-1.09-.25Zm-7.4,40.39c-.23,0-.46-.05-.68-.16-.82-.4-1.15-1.43-.74-2.31l.04-.09c.03-.07,.07-.15,.1-.2,.13-.24,.26-.43,.4-.62,.06-.08,.11-.16,.17-.24,.34-.54,.63-.99,.8-1.4,0-.03-.02-.08-.05-.17l-.1-.25,.06-.15c-2.46-1.6-4.34-3.95-5.35-6.69l-.11,.02-.21-.12c-.1-.06-.19-.11-.23-.12-.37,.06-.86,.24-1.48,.46-.12,.05-.21,.08-.3,.12-.22,.09-.43,.18-.69,.25-.06,.01-.13,.03-.2,.05l-.12,.03c-.96,.2-1.89-.35-2.09-1.24-.2-.89,.4-1.79,1.34-2.02l.1-.03c.08-.02,.16-.04,.22-.05,.27-.05,.5-.06,.73-.07,.1,0,.19,0,.3-.02,.64-.07,1.14-.12,1.56-.24,.04-.04,.1-.12,.14-.17l.13-.18,.12-.06c-.3-2.93,.37-5.87,1.89-8.4l-.07-.06-.04-.24c-.02-.1-.03-.21-.05-.25-.29-.26-.74-.54-1.32-.9-.08-.04-.16-.09-.25-.13-.21-.11-.41-.22-.63-.38-.05-.04-.12-.09-.18-.14-.42-.34-.66-.74-.74-1.18-.08-.46,.04-.93,.32-1.29,.32-.4,.81-.65,1.34-.61,.39,.01,.78,.16,1.09,.41,.12,.09,.19,.15,.24,.2,.2,.17,.36,.35,.51,.53,.06,.07,.12,.14,.19,.22,.48,.49,.85,.86,1.23,1.12l.39-.09,.1,.08c1.79-1.74,4-2.94,6.44-3.49,.43-.1,.87-.17,1.31-.23v-.11l.2-.18c.09-.09,.13-.15,.13-.17,.02-.38-.04-.9-.12-1.57-.01-.11-.03-.2-.05-.29-.04-.23-.08-.46-.09-.73,0-.06,0-.14,0-.21,0-1.08,.75-1.88,1.67-1.88s1.67,.8,1.67,1.78c0,.16,0,.25,0,.31-.01,.27-.05,.5-.09,.73-.02,.09-.04,.19-.05,.29-.08,.69-.15,1.2-.11,1.66l.32,.25v.14c2.9,.38,5.6,1.69,7.71,3.72l.11-.08h.24c.11,.02,.22,.03,.26,.02,.31-.22,.67-.59,1.14-1.06,.08-.09,.15-.16,.21-.23,.16-.18,.31-.35,.51-.53,.05-.04,.11-.09,.18-.14,.83-.66,1.93-.58,2.5,.15,.57,.72,.42,1.8-.35,2.42-.13,.11-.19,.16-.24,.19-.22,.16-.42,.27-.62,.38-.09,.05-.17,.09-.26,.15-.57,.35-1.02,.63-1.36,.95h0l.02,.13-.02,.26-.13,.11c.76,1.25,1.32,2.61,1.65,4.05,.33,1.43,.42,2.88,.29,4.32l.08,.02,.14,.19c.06,.09,.13,.19,.16,.21,.36,.11,.88,.16,1.54,.23,.13,.01,.22,.02,.32,.02,.23,0,.46,.02,.73,.07,.06,.01,.14,.03,.22,.05l.1,.03c.94,.23,1.55,1.13,1.34,2.02-.2,.88-1.12,1.44-2.07,1.24l-.12-.03c-.09-.01-.16-.03-.21-.04-.26-.07-.47-.16-.69-.25-.09-.04-.18-.08-.27-.11-.65-.23-1.14-.41-1.59-.47l-.33,.25-.11-.02c-1.01,2.75-2.86,5.09-5.29,6.69l.03,.03-.21,.55c.16,.37,.45,.83,.81,1.4,.05,.07,.11,.15,.16,.23,.14,.19,.27,.38,.4,.61l.11,.22c.45,.96,.12,2-.71,2.39-.38,.19-.82,.21-1.24,.06-.45-.16-.83-.5-1.04-.94-.06-.12-.1-.21-.13-.28-.11-.25-.17-.47-.23-.7-.02-.09-.05-.18-.08-.28-.22-.65-.39-1.14-.62-1.54l-.38-.09-.07-.12c-.41,.14-.83,.25-1.25,.35-2.44,.55-4.96,.42-7.33-.37l-.09,.16-.28,.07c-.05,.01-.11,.02-.15,.05-.11,.15-.24,.53-.37,.93-.07,.21-.14,.42-.22,.62-.01,.05-.04,.14-.06,.24-.06,.23-.12,.45-.23,.7-.02,.05-.06,.13-.09,.19l-.02,.1-.08,.08c-.33,.59-.93,.93-1.54,.93Zm1.38-5.4c.06,.22,.09,.47,.02,.73-.23,.6-.56,1.14-.98,1.79-.07,.11-.14,.21-.21,.3-.1,.14-.21,.28-.3,.45l-.12,.25c-.09,.2-.05,.44,.11,.51,.16,.08,.37-.04,.48-.25l.11-.23c.08-.18,.12-.34,.17-.51,.03-.11,.06-.22,.1-.34,.09-.23,.15-.42,.22-.61,.17-.5,.34-1.01,.68-1.42,.15-.17,.32-.27,.49-.34l.38-.69,.55,.21c2.27,.87,4.73,1.05,7.1,.51,.55-.12,1.09-.29,1.62-.49l.54-.2,.37,.66c.2,.08,.42,.22,.6,.49,.32,.55,.52,1.13,.75,1.8,.05,.16,.08,.27,.11,.38,.05,.17,.09,.33,.17,.52l.08,.17c.09,.18,.19,.28,.3,.32,.05,.02,.13,.03,.21,0,.16-.07,.2-.31,.11-.52l-.12-.24c-.09-.17-.19-.3-.29-.44-.07-.09-.14-.19-.2-.29-.4-.62-.73-1.15-.95-1.72-.11-.35-.08-.62-.02-.81l-.02-.05-.27-.66,.51-.3c2.59-1.53,4.53-3.96,5.45-6.85l.17-.55,.57,.09c.05,0,.12,.02,.18,.03,.19-.1,.43-.19,.75-.17,.63,.09,1.21,.3,1.88,.54,.16,.06,.27,.11,.38,.15,.16,.07,.31,.14,.5,.19l.32,.06c.24,0,.39-.08,.42-.22h0c.04-.17-.12-.35-.34-.41l-.26-.06c-.19-.04-.36-.04-.53-.05-.12,0-.23,0-.36-.02-.76-.08-1.37-.14-1.93-.32-.31-.12-.51-.33-.64-.49l-.74-.21,.08-.58c.2-1.47,.14-2.95-.2-4.41-.34-1.47-.93-2.84-1.77-4.09l-.32-.48,.59-.54c.04-.21,.12-.46,.34-.7,.47-.45,1-.77,1.62-1.15,.12-.07,.23-.13,.33-.19,.15-.08,.3-.16,.45-.27l.2-.16c.18-.15,.25-.38,.14-.52-.11-.14-.36-.13-.54,.02l-.2,.16c-.15,.13-.26,.26-.38,.39-.07,.09-.15,.17-.23,.26-.53,.54-.96,.98-1.46,1.31-.28,.17-.57,.2-.78,.19l-.66,.47-.4-.42c-2.08-2.18-4.87-3.53-7.85-3.79l-.57-.05-.04-.57c0-.05,0-.12-.01-.2-.14-.16-.29-.38-.33-.7-.05-.63,.02-1.24,.11-1.94,.02-.18,.05-.3,.07-.41,.03-.17,.06-.33,.07-.53v-.25c0-.24-.15-.44-.32-.44s-.32,.2-.32,.43v.26c0,.19,.04,.36,.07,.53,.02,.11,.04,.23,.06,.35,.09,.75,.16,1.36,.11,1.96-.06,.32-.2,.55-.34,.73l-.04,.77-.59,.05c-.58,.05-1.15,.14-1.71,.26-2.37,.54-4.5,1.76-6.17,3.53l-.4,.42-.48-.33s-.1-.07-.16-.11c-.22,.02-.47-.01-.75-.18-.53-.36-.96-.79-1.46-1.3-.12-.12-.19-.21-.27-.29-.11-.13-.22-.26-.38-.39l-.14-.11c-.15-.12-.26-.16-.36-.17-.06,0-.17,0-.24,.1-.06,.07-.06,.16-.05,.22,.02,.11,.09,.22,.19,.3l.2,.16c.16,.12,.31,.2,.46,.28,.1,.05,.2,.11,.31,.17,.63,.39,1.16,.72,1.6,1.13,.23,.24,.32,.51,.36,.72l.58,.52-.32,.49c-1.67,2.52-2.36,5.54-1.93,8.52l.08,.58-.77,.23c-.15,.19-.33,.37-.57,.47-.62,.2-1.23,.26-1.93,.34-.17,.02-.29,.02-.41,.03-.17,0-.34,.01-.53,.05l-.23,.05h-.04c-.21,.06-.37,.25-.33,.42,.04,.17,.26,.27,.49,.22l.26-.06c.19-.05,.35-.12,.51-.19,.1-.04,.21-.09,.32-.13,.72-.26,1.29-.46,1.88-.55,.32-.03,.6,.07,.79,.17l.78-.13,.18,.56c.92,2.85,2.85,5.27,5.45,6.8l.5,.3-.31,.75Zm-10.5-8.14h0Z"/>
    <path
      d="M35.88,27.76l-6.22-1.79-.02-.09c-.55-.34-.84-1-.69-1.67,.04-.18,.11-.35,.22-.51v-.06l.27-.26,4.49-4.02,.42,.69c.63,1.03,1.1,2.15,1.37,3.34,.27,1.17,.35,2.37,.23,3.56l-.08,.81Zm-5.06-2.86l3.84,1.11c0-.77-.07-1.55-.25-2.31-.18-.78-.45-1.52-.8-2.22l-2.98,2.67h0l-.29,.27s-.06,.06-.06,.11c-.02,.11,.04,.21,.14,.24l.41,.14Z"/>
    <path
      d="M25.01,36.84c-1.2,0-2.39-.2-3.54-.58l-.76-.26,3.11-5.63h.07c.28-.28,.65-.45,1.05-.46,.25-.01,.5,.04,.73,.15,.16,.08,.31,.18,.44,.31h.08l3.12,5.64-.77,.26c-.35,.12-.71,.22-1.08,.3-.81,.18-1.64,.28-2.46,.28Zm-2.32-1.63c1.46,.36,2.99,.38,4.48,.04,.05-.01,.11-.03,.16-.04l-2.15-3.85s-.05-.07-.09-.08c-.15-.02-.23,0-.27,.09l-2.13,3.85Z"/>
    <path
      d="M30.27,35.55l-2.48-5.98,.05-.06c-.08-.64,.26-1.29,.87-1.58,.16-.08,.33-.13,.51-.15l.05-.06,6.38,1.08-.27,.76c-.81,2.29-2.39,4.26-4.43,5.56l-.68,.43Zm-.92-5.76l1.54,3.72c1.25-.96,2.26-2.22,2.91-3.66l-3.96-.67h0l-.42-.06s-.03,0-.05,0c-.17,.07-.21,.19-.17,.29l.16,.38h-.01Z"/>
  </g>
</svg>
