<!--
tags: [video, editing, movie, cut, film, production, sequence, timeline, media, compose]
category: Brand
unicode: "ff26"
version: "3.8"
-->
<svg
  xmlns="http://www.w3.org/2000/svg"
  width="24"
  height="24"
  viewBox="0 0 24 24"
  fill="none"
  stroke="currentColor"
  stroke-width="2"
  stroke-linecap="round"
  stroke-linejoin="round"
>
  <path d="M3 12c0 -4.243 0 -6.364 1.318 -7.682s3.44 -1.318 7.682 -1.318s6.364 0 7.682 1.318s1.318 3.44 1.318 7.682s0 6.364 -1.318 7.682s-3.44 1.318 -7.682 1.318s-6.364 0 -7.682 -1.318s-1.318 -3.44 -1.318 -7.682" />
  <path d="M7.263 15.79v-3.79m0 0v-3.248c0 -.335 .222 -.541 .542 -.541h1.353a1.895 1.895 0 1 1 0 3.789z" />
  <path d="M13.895 10.579v1.895m0 0v3.315m0 -3.315c.531 -.709 1.026 -1.592 1.894 -1.832q .22 -.062 .474 -.063" />
</svg>
