<!--
tags: [app, organisation, notes, storage, archiving]
category: Brand
unicode: "f600"
version: "1.114"
-->
<svg
  xmlns="http://www.w3.org/2000/svg"
  width="24"
  height="24"
  viewBox="0 0 24 24"
  fill="none"
  stroke="currentColor"
  stroke-width="2"
  stroke-linecap="round"
  stroke-linejoin="round"
>
  <path d="M4 8h5v-5" />
  <path d="M17.9 19c.6 -2.5 1.1 -5.471 1.1 -9c0 -4.5 -2 -5 -3 -5c-1.906 0 -3 -.5 -3.5 -1c-.354 -.354 -.5 -1 -1.5 -1h-2l-5 5c0 6 2.5 8 5 8c1 0 1.5 -.5 2 -1.5s1.414 -.326 2.5 0c1.044 .313 2.01 .255 2.5 .5c1 .5 2 1.5 2 3c0 .5 0 3 -3 3s-3 -3 -1 -3" />
  <path d="M15 10h1" />
</svg>
