<!--
tags: [worship, religion, islam, architecture, prayer, dome, minaret, community, faith, sacred]
category: Buildings
version: "2.16"
unicode: "fa57"
-->
<svg
  xmlns="http://www.w3.org/2000/svg"
  width="24"
  height="24"
  viewBox="0 0 24 24"
  fill="none"
  stroke="currentColor"
  stroke-width="2"
  stroke-linecap="round"
  stroke-linejoin="round"
>
  <path d="M3 21h7v-2a2 2 0 1 1 4 0v2h7m-17 0v-10m16 10v-10m-16 5h3v-3h10v3h3m-3 -3a5 5 0 0 0 -10 0m14 -2.5c0 -.329 -.077 -.653 -.224 -.947l-.776 -1.553l-.776 1.553a2.118 2.118 0 0 0 -.224 .947a.5 .5 0 0 0 .5 .5h1a.5 .5 0 0 0 .5 -.5zm-16 0c0 -.329 -.077 -.653 -.224 -.947l-.776 -1.553l-.776 1.553a2.118 2.118 0 0 0 -.224 .947a.5 .5 0 0 0 .5 .5h1a.5 .5 0 0 0 .5 -.5zm7 -8.5a2 2 0 1 0 2 2m-2 2v2" />
</svg>
