<!--
tags: [amusement, park, fair, merry-go-round, fun, entertaianment, building, carousel, architecture, structure]
category: Buildings
version: "1.34"
unicode: "ed87"
-->
<svg
  xmlns="http://www.w3.org/2000/svg"
  width="24"
  height="24"
  viewBox="0 0 24 24"
  fill="none"
  stroke="currentColor"
  stroke-width="2"
  stroke-linecap="round"
  stroke-linejoin="round"
>
  <path d="M6 12a6 6 0 1 0 12 0a6 6 0 1 0 -12 0" />
  <path d="M3 8a2 2 0 1 0 4 0a2 2 0 1 0 -4 0" />
  <path d="M10 4a2 2 0 1 0 4 0a2 2 0 1 0 -4 0" />
  <path d="M17 8a2 2 0 1 0 4 0a2 2 0 1 0 -4 0" />
  <path d="M3 16a2 2 0 1 0 4 0a2 2 0 1 0 -4 0" />
  <path d="M17 16a2 2 0 1 0 4 0a2 2 0 1 0 -4 0" />
  <path d="M8 22l4 -10l4 10" />
</svg>
