<!--
tags: [tractor, construction, site, build, rear, machine]
category: Vehicles
version: "1.34"
unicode: "ee1d"
-->
<svg
  xmlns="http://www.w3.org/2000/svg"
  width="24"
  height="24"
  viewBox="0 0 24 24"
  fill="none"
  stroke="currentColor"
  stroke-width="2"
  stroke-linecap="round"
  stroke-linejoin="round"
>
    <path d="M2 17a2 2 0 1 0 4 0a2 2 0 0 0 -4 0M12 17a2 2 0 1 0 4 0a2 2 0 0 0 -4 0M19 13v4a2 2 0 0 0 2 2h1M14 19h-10M4 15h10M9 11v-5h2a3 3 0 0 1 3 3v6M5 15v-3a1 1 0 0 1 1 -1h8M19 17h-3" />
</svg>
