<!--
tags: [vehicle, drive, driver, engine, motor, journey, trip]
category: Vehicles
unicode: "f3ce"
version: "1.94"
-->
<svg
  xmlns="http://www.w3.org/2000/svg"
  width="24"
  height="24"
  viewBox="0 0 24 24"
  fill="none"
  stroke="currentColor"
  stroke-width="2"
  stroke-linecap="round"
  stroke-linejoin="round"
>
  <path d="M6 17m-2 0a2 2 0 1 0 4 0a2 2 0 1 0 -4 0" />
  <path d="M16.18 16.172a2 2 0 0 0 2.652 2.648" />
  <path d="M4 17h-2v-11a1 1 0 0 1 1 -1h2m4 0h8c2.761 0 5 3.134 5 7v5h-1m-5 0h-8" />
  <path d="M16 5l1.5 7h4.5" />
  <path d="M2 10h8m4 0h3" />
  <path d="M7 7v3" />
  <path d="M12 5v3" />
  <path d="M3 3l18 18" />
</svg>
