<!--
tags: [vehicle, drive, driver, engine, motor, journey, trip]
category: Vehicles
version: "1.7"
unicode: "ebe4"
-->
<svg
  xmlns="http://www.w3.org/2000/svg"
  width="24"
  height="24"
  viewBox="0 0 24 24"
  fill="none"
  stroke="currentColor"
  stroke-width="2"
  stroke-linecap="round"
  stroke-linejoin="round"
>
  <path d="M6 17m-2 0a2 2 0 1 0 4 0a2 2 0 1 0 -4 0m14 0m-2 0a2 2 0 1 0 4 0a2 2 0 1 0 -4 0m-12 0h-2v-11a1 1 0 0 1 1 -1h14a5 7 0 0 1 5 7v5h-2m-4 0h-8m8 -12l1.5 7l4.5 0m-20 -2l15 0m-10 -5l0 5m5 -5l0 5" />
</svg>
