<!--
category: Food
tags: [baking, birthday, party, chocolate, sweet]
version: "1.65"
unicode: "f104"
-->
<svg
  xmlns="http://www.w3.org/2000/svg"
  width="24"
  height="24"
  viewBox="0 0 24 24"
  fill="none"
  stroke="currentColor"
  stroke-width="2"
  stroke-linecap="round"
  stroke-linejoin="round"
>
  <path d="M21 17v-5a3 3 0 0 0 -3 -3h-5m-4 0h-3a3 3 0 0 0 -3 3v8h17m-17 -5.197c.312 .135 .654 .204 1 .197a2.4 2.4 0 0 0 2 -1a2.4 2.4 0 0 1 2 -1a2.4 2.4 0 0 1 2 1a2.4 2.4 0 0 0 2 1a2.4 2.4 0 0 0 2 -1m4 0a2.4 2.4 0 0 0 2 1c.35 .007 .692 -.062 1 -.197m-10.828 -8.615c.07 -.158 .163 -.31 .278 -.451l1.55 -1.737l1.465 1.638a2 2 0 0 1 -.65 3.19m-9.815 -5.828l18 18" />
</svg>
