<!--
category: System
tags: [plan, timetable, schedule, meeting, busy, month, year, date, statistics, calender]
version: "1.39"
unicode: "ee20"
-->
<svg
  xmlns="http://www.w3.org/2000/svg"
  width="24"
  height="24"
  viewBox="0 0 24 24"
  fill="none"
  stroke="currentColor"
  stroke-width="2"
  stroke-linecap="round"
  stroke-linejoin="round"
>
    <path d="M11.795 21h-6.795a2 2 0 0 1 -2 -2v-12a2 2 0 0 1 2 -2h12a2 2 0 0 1 2 2v4M18 14v4h4M18 18m-4 0a4 4 0 1 0 8 0a4 4 0 1 0 -8 0M15 3v4M7 3v4M3 11h16" />
</svg>
