<!--
tags: [person, participant, profile, individual, member, identity, account, actor, registrant, subscriber]
category: System
version: "2.40"
unicode: "fd1f"
-->
<svg
  xmlns="http://www.w3.org/2000/svg"
  width="24"
  height="24"
  viewBox="0 0 24 24"
  fill="none"
  stroke="currentColor"
  stroke-width="2"
  stroke-linecap="round"
  stroke-linejoin="round"
>
  <path d="M12 21h-6a2 2 0 0 1 -2 -2v-12a2 2 0 0 1 2 -2h12a2 2 0 0 1 2 2v4.5m-4 -8.5v4m-8 -4v4m-4 4h16m-1 6m-2 0a2 2 0 1 0 4 0a2 2 0 1 0 -4 0m5 5a2 2 0 0 0 -2 -2h-2a2 2 0 0 0 -2 2" />
</svg>
