<!--
tags: [photo, photography, picture, face, instagram, portrait, digital, smartphone]
category: Photography
version: "1.39"
unicode: "ee23"
-->
<svg
  xmlns="http://www.w3.org/2000/svg"
  width="24"
  height="24"
  viewBox="0 0 24 24"
  fill="none"
  stroke="currentColor"
  stroke-width="2"
  stroke-linecap="round"
  stroke-linejoin="round"
>
  <path d="M5 7h1a2 2 0 0 0 2 -2a1 1 0 0 1 1 -1h6a1 1 0 0 1 1 1a2 2 0 0 0 2 2h1a2 2 0 0 1 2 2v9a2 2 0 0 1 -2 2h-14a2 2 0 0 1 -2 -2v-9a2 2 0 0 1 2 -2" />
  <path d="M9.5 15a3.5 3.5 0 0 0 5 0" />
  <path d="M15 11l.01 0" />
  <path d="M9 11l.01 0" />
</svg>
