<!--
category: Media
tags: [alert, notice, warning, attention, caution, notify, critical, important, signal, urgent]
version: "2.10"
unicode: "f83a"
-->
<svg
  xmlns="http://www.w3.org/2000/svg"
  width="24"
  height="24"
  viewBox="0 0 24 24"
  fill="none"
  stroke="currentColor"
  stroke-width="2"
  stroke-linecap="round"
  stroke-linejoin="round"
>
  <path d="M15 20h-10a2 2 0 0 1 -2 -2v-9a2 2 0 0 1 2 -2h1a2 2 0 0 0 2 -2a1 1 0 0 1 1 -1h6a1 1 0 0 1 1 1a2 2 0 0 0 2 2h1a2 2 0 0 1 2 2v3.5m-12 .5a3 3 0 1 0 6 0a3 3 0 0 0 -6 0m10 3v3m0 3v.01" />
</svg>
