<!--
category: Media
tags: [program, software, develop, encrypt, script, scripting, technology, data, cyber, compute]
version: "2.10"
unicode: "f836"
-->
<svg
  xmlns="http://www.w3.org/2000/svg"
  width="24"
  height="24"
  viewBox="0 0 24 24"
  fill="none"
  stroke="currentColor"
  stroke-width="2"
  stroke-linecap="round"
  stroke-linejoin="round"
>
  <path d="M11 20h-6a2 2 0 0 1 -2 -2v-9a2 2 0 0 1 2 -2h1a2 2 0 0 0 2 -2a1 1 0 0 1 1 -1h6a1 1 0 0 1 1 1a2 2 0 0 0 2 2h1a2 2 0 0 1 2 2v4m-6.052 .559a3 3 0 1 0 -2.58 2.419m7.632 5.022l2 -2l-2 -2m-3 0l-2 2l2 2" />
</svg>
