<!--
category: Media
tags: [photography, query, inquiry, lens, confusion, focus, doubt, investigation, curiosity, snapshot]
version: "2.10"
unicode: "f83e"
-->
<svg
  xmlns="http://www.w3.org/2000/svg"
  width="24"
  height="24"
  viewBox="0 0 24 24"
  fill="none"
  stroke="currentColor"
  stroke-width="2"
  stroke-linecap="round"
  stroke-linejoin="round"
>
  <path d="M15 20h-10a2 2 0 0 1 -2 -2v-9a2 2 0 0 1 2 -2h1a2 2 0 0 0 2 -2a1 1 0 0 1 1 -1h6a1 1 0 0 1 1 1a2 2 0 0 0 2 2h1a2 2 0 0 1 2 2v2.5" />
  <path d="M14.975 12.612a3 3 0 1 0 -1.507 3.005" />
  <path d="M19 22v.01" />
  <path d="M19 19a2.003 2.003 0 0 0 .914 -3.782a1.98 1.98 0 0 0 -2.414 .483" />
</svg>
