<!--
tags: [photo, photography, picture, face, instagram, portrait, digital, smartphone, selfie, camera]
category: Photography
version: "1.39"
unicode: "ee22"
-->
<svg
  xmlns="http://www.w3.org/2000/svg"
  width="24"
  height="24"
  viewBox="0 0 24 24"
  fill="none"
  stroke="currentColor"
  stroke-width="2"
  stroke-linecap="round"
  stroke-linejoin="round"
>
  <path d="M5 7h1a2 2 0 0 0 2 -2a1 1 0 0 1 1 -1h6a1 1 0 0 1 1 1a2 2 0 0 0 2 2h1a2 2 0 0 1 2 2v9a2 2 0 0 1 -2 2h-14a2 2 0 0 1 -2 -2v-9a2 2 0 0 1 2 -2" />
  <path d="M11.245 15.904a3 3 0 0 0 3.755 -2.904m-2.25 -2.905a3 3 0 0 0 -3.75 2.905" />
  <path d="M14 13h2v2" />
  <path d="M10 13h-2v-2" />
</svg>
