<!--
category: Media
tags: [video, photo, aperture]
unicode: "ffa8"
version: "3.12"
-->
<svg
  xmlns="http://www.w3.org/2000/svg"
  width="24"
  height="24"
  viewBox="0 0 24 24"
  fill="none"
  stroke="currentColor"
  stroke-width="2"
  stroke-linecap="round"
  stroke-linejoin="round"
>
  <path d="M10 20h-5a2 2 0 0 1 -2 -2v-9a2 2 0 0 1 2 -2h1a2 2 0 0 0 2 -2a1 1 0 0 1 1 -1h6a1 1 0 0 1 1 1a2 2 0 0 0 2 2h1a2 2 0 0 1 2 2v2m-6.638 .15a3 3 0 1 0 -4.144 4.263m3.782 5.587v-4a2 2 0 1 1 4 0v4m-4 -2h4m3 -4v6" />
</svg>
