<!--
category: Media
tags: [stop, terminate, cease, abort, void, nullify, eliminate, delete, end, remove]
version: "2.10"
unicode: "f834"
-->
<svg
  xmlns="http://www.w3.org/2000/svg"
  width="24"
  height="24"
  viewBox="0 0 24 24"
  fill="none"
  stroke="currentColor"
  stroke-width="2"
  stroke-linecap="round"
  stroke-linejoin="round"
>
  <path d="M12 20h-7a2 2 0 0 1 -2 -2v-9a2 2 0 0 1 2 -2h1a2 2 0 0 0 2 -2a1 1 0 0 1 1 -1h6a1 1 0 0 1 1 1a2 2 0 0 0 2 2h1a2 2 0 0 1 2 2v3.5m-6.016 .807a3 3 0 1 0 -2.32 2.62m6.336 3.073m-3 0a3 3 0 1 0 6 0a3 3 0 1 0 -6 0m1 2l4 -4" />
</svg>
