<!--
tags: [recreational, vehicle, outdoor, holiday, vacation, travel, camping, adventure, trip, caravan]
category: Vehicles
version: "2.14"
unicode: "fa25"
-->
<svg
  xmlns="http://www.w3.org/2000/svg"
  width="24"
  height="24"
  viewBox="0 0 24 24"
  fill="none"
  stroke="currentColor"
  stroke-width="2"
  stroke-linecap="round"
  stroke-linejoin="round"
>
  <path d="M5 18a2 2 0 1 0 4 0a2 2 0 0 0 -4 0m10 0a2 2 0 1 0 4 0a2 2 0 0 0 -4 0m-10 0h-1a1 1 0 0 1 -1 -1v-11a2 2 0 0 1 2 -2h12a4 4 0 0 1 4 4h-18m6 10h6m4 0h1a1 1 0 0 0 1 -1v-4l-3 -5m3 5h-7m0 -5v10" />
</svg>
