<!--
tags: [transport, truck, machine, lifter]
category: Vehicles
version: "1.41"
unicode: "ef25"
-->
<svg
  xmlns="http://www.w3.org/2000/svg"
  width="24"
  height="24"
  viewBox="0 0 24 24"
  fill="none"
  stroke="currentColor"
  stroke-width="2"
  stroke-linecap="round"
  stroke-linejoin="round"
>
  <path d="M5 17m-2 0a2 2 0 1 0 4 0a2 2 0 1 0 -4 0m14 0m-2 0a2 2 0 1 0 4 0a2 2 0 1 0 -4 0m-8 1h8m4 0h2v-6a5 5 0 0 0 -5 -5h-1l1.5 5h4.5m-9 6v-11h3m-12 10v-5h9m-8 0v-6l18 -3v2m-14 7v-4l-4 -2" />
</svg>
