<!--
category: Vehicles
tags: [vehicle, ventilation, cooling, circulation, automobile, drive, auto, mechanic, fan, airflow]
unicode: "fdb6"
version: "3.0"
-->
<svg
  xmlns="http://www.w3.org/2000/svg"
  width="24"
  height="24"
  viewBox="0 0 24 24"
  fill="none"
  stroke="currentColor"
  stroke-width="2"
  stroke-linecap="round"
  stroke-linejoin="round"
>
  <path d="M12 12v-9l4.912 1.914a1.7 1.7 0 0 1 .428 2.925l-5.34 4.161" />
  <path d="M14.044 14.624l-2.044 -2.624h4" />
  <path d="M12 12h-9l1.914 -4.912a1.7 1.7 0 0 1 2.925 -.428l4.161 5.34" />
  <path d="M12 12v9l-4.912 -1.914a1.7 1.7 0 0 1 -.428 -2.925l5.34 -4.161" />
  <path d="M18 15h2a1 1 0 0 1 1 1v1a1 1 0 0 1 -1 1h-1a1 1 0 0 0 -1 1v1a1 1 0 0 0 1 1h2" />
</svg>
