<!--
tags: [transport, truck, machine, lifter, car, crane, travel, vehicle, automobile, mobility]
category: Vehicles
version: "1.41"
unicode: "ef25"
-->
<svg
  xmlns="http://www.w3.org/2000/svg"
  width="24"
  height="24"
  viewBox="0 0 24 24"
  fill="none"
  stroke="currentColor"
  stroke-width="2"
  stroke-linecap="round"
  stroke-linejoin="round"
>
  <path d="M3 17a2 2 0 1 0 4 0a2 2 0 1 0 -4 0" />
  <path d="M15 17a2 2 0 1 0 4 0a2 2 0 1 0 -4 0" />
  <path d="M7 18h8m4 0h2v-6a5 5 0 0 0 -5 -5h-1l1.5 5h4.5" />
  <path d="M12 18v-11h3" />
  <path d="M3 17v-5h9" />
  <path d="M4 12v-6l18 -3v2" />
  <path d="M8 12v-4l-4 -2" />
</svg>
