<!--
tags: [accident, collision, damage, insurance]
category: Vehicles
version: "1.48"
unicode: "efa4"
-->
<svg
  xmlns="http://www.w3.org/2000/svg"
  width="24"
  height="24"
  viewBox="0 0 24 24"
  fill="none"
  stroke="currentColor"
  stroke-width="2"
  stroke-linecap="round"
  stroke-linejoin="round"
>
  <path d="M10 17m-2 0a2 2 0 1 0 4 0a2 2 0 1 0 -4 0" />
  <path d="M7 6l4 5h1a2 2 0 0 1 2 2v4h-2m-4 0h-5m0 -6h8m-6 0v-5m2 0h-4" />
  <path d="M14 8v-2" />
  <path d="M19 12h2" />
  <path d="M17.5 15.5l1.5 1.5" />
  <path d="M17.5 8.5l1.5 -1.5" />
</svg>
