<!--
category: Vehicles
tags: [off-road, terrain, 4x4, suv, adventure, vehicle, car, automobile, drive, transport]
unicode: "10230"
version: "3.41"
-->
<svg
  xmlns="http://www.w3.org/2000/svg"
  width="24"
  height="24"
  viewBox="0 0 24 24"
  fill="none"
  stroke="currentColor"
  stroke-width="2"
  stroke-linecap="round"
  stroke-linejoin="round"
>
  <path d="M9 17h6" />
  <path d="M9 17a2 2 0 1 1 -4 0a2 2 0 0 1 4 0" />
  <path d="M19 17a2 2 0 1 1 -4 0a2 2 0 0 1 4 0" />
  <path d="M17 10l-2 -3" />
  <path d="M19 17h2v-5a2 2 0 0 0 -2 -2h-5v2h-2.586a1 1 0 0 1 -.707 -.293l-1.121 -1.121a2 2 0 0 0 -1.414 -.586h-4.172a1 1 0 0 0 -1 1v6h2" />
</svg>
