<!--
tags: [sport-utility, crossover, automobile, suv, off-road, four-wheel-drive, vehicle, transportation, auto, truck]
category: Vehicles
version: "2.35"
unicode: "fc8b"
-->
<svg
  xmlns="http://www.w3.org/2000/svg"
  width="24"
  height="24"
  viewBox="0 0 24 24"
  fill="none"
  stroke="currentColor"
  stroke-width="2"
  stroke-linecap="round"
  stroke-linejoin="round"
>
  <path d="M5 17a2 2 0 1 0 4 0a2 2 0 0 0 -4 0m11 0a2 2 0 1 0 4 0a2 2 0 0 0 -4 0m-11 -8l2 -4h7.438a2 2 0 0 1 1.94 1.515l.622 2.485h3a2 2 0 0 1 2 2v3m-12 -5v-4m-8 2v4m20.001 3.001a4.992 4.992 0 0 0 -4.001 -2.001a4.992 4.992 0 0 0 -4 2h-3a4.998 4.998 0 0 0 -8.003 .003m2.003 -2.003v-3h13" />
</svg>
