<!--
tags: [auto-shop, vehicle-repair, automobile-maintenance, parking-garage, car-storage, automotive, garage-service, car-park, vehicle-maintenance, car-repair]
category: Buildings
version: "2.34"
unicode: "fc77"
-->
<svg
  xmlns="http://www.w3.org/2000/svg"
  width="24"
  height="24"
  viewBox="0 0 24 24"
  fill="none"
  stroke="currentColor"
  stroke-width="2"
  stroke-linecap="round"
  stroke-linejoin="round"
>
  <path d="M5 20a2 2 0 1 0 4 0a2 2 0 0 0 -4 0m10 0a2 2 0 1 0 4 0a2 2 0 0 0 -4 0m-10 0h-2v-6l2 -5h9l4 5h1a2 2 0 0 1 2 2v4h-2m-4 0h-6m-6 -6h15m-6 0v-5m-9 -3l9 -4l9 4" />
</svg>
