<!--
tags: [vehicle, drive, driver, engine, motor, journey, trip, car, transport, travel]
category: Vehicles
version: "1.5"
unicode: "ebbb"
-->
<svg
  xmlns="http://www.w3.org/2000/svg"
  width="24"
  height="24"
  viewBox="0 0 24 24"
  fill="none"
  stroke="currentColor"
  stroke-width="2"
  stroke-linecap="round"
  stroke-linejoin="round"
>
  <path d="M5 17a2 2 0 1 0 4 0a2 2 0 1 0 -4 0" />
  <path d="M15 17a2 2 0 1 0 4 0a2 2 0 1 0 -4 0" />
  <path d="M5 17h-2v-6l2 -5h9l4 5h1a2 2 0 0 1 2 2v4h-2m-4 0h-6m-6 -6h15m-6 0v-5" />
</svg>
