<!--
tags: [journey, trip, holidays, camping, trailer]
category: Vehicles
version: "1.14"
unicode: "ec7c"
-->
<svg
  xmlns="http://www.w3.org/2000/svg"
  width="24"
  height="24"
  viewBox="0 0 24 24"
  fill="none"
  stroke="currentColor"
  stroke-width="2"
  stroke-linecap="round"
  stroke-linejoin="round"
>
  <path d="M7 18a2 2 0 1 0 4 0a2 2 0 0 0 -4 0m4 0h7a2 2 0 0 0 2 -2v-7a2 2 0 0 0 -2 -2h-9.5a5.5 5.5 0 0 0 -5.5 5.5v3.5a2 2 0 0 0 2 2h2m1 -11l7 -3l1 3m-3 4m0 .5a.5 .5 0 0 1 .5 -.5h2a.5 .5 0 0 1 .5 .5v2a.5 .5 0 0 1 -.5 .5h-2a.5 .5 0 0 1 -.5 -.5zm7 4.5h2" />
</svg>
