<!--
unicode: "10142"
version: "3.31"
-->
<svg
  xmlns="http://www.w3.org/2000/svg"
  width="24"
  height="24"
  viewBox="0 0 24 24"
  fill="none"
  stroke="currentColor"
  stroke-width="2"
  stroke-linecap="round"
  stroke-linejoin="round"
>
  <path d="M7 15h-3a1 1 0 0 1 -1 -1v-8a1 1 0 0 1 1 -1h12a1 1 0 0 1 1 1v3" />
  <path d="M10.25 19h-2.25a1 1 0 0 1 -1 -1v-8a1 1 0 0 1 1 -1h12a1 1 0 0 1 1 1v1.25" />
  <path d="M18 22l3.35 -3.284a2.143 2.143 0 0 0 .005 -3.071a2.24 2.24 0 0 0 -3.129 -.006l-.224 .22l-.223 -.22a2.24 2.24 0 0 0 -3.128 -.006a2.143 2.143 0 0 0 -.006 3.071z" />
</svg>
