<!--
category: E-commerce
tags: [cash, banknote, edit, modify, change, update, revise, adjust, money, currency]
version: "3.31"
unicode: "10149"
-->
<svg
  xmlns="http://www.w3.org/2000/svg"
  width="24"
  height="24"
  viewBox="0 0 24 24"
  fill="none"
  stroke="currentColor"
  stroke-width="2"
  stroke-linecap="round"
  stroke-linejoin="round"
>
  <path d="M11 18h-6a2 2 0 0 1 -2 -2v-8a2 2 0 0 1 2 -2h14a2 2 0 0 1 2 2v3" />
  <path d="M9 12a3 3 0 1 0 6 0a3 3 0 0 0 -6 0" />
  <path d="M6 12h.01" />
  <path d="M18.42 15.61a2.1 2.1 0 1 1 2.97 2.97l-3.39 3.42h-3v-3l3.42 -3.39" />
</svg>
