<!--
category: E-commerce
tags: [currency, payment, money, pay]
version: "1.65"
unicode: "f105"
-->
<svg
  xmlns="http://www.w3.org/2000/svg"
  width="24"
  height="24"
  viewBox="0 0 24 24"
  fill="none"
  stroke="currentColor"
  stroke-width="2"
  stroke-linecap="round"
  stroke-linejoin="round"
>
  <path d="M13 9h6a2 2 0 0 1 2 2v6m-2 2h-10a2 2 0 0 1 -2 -2v-6a2 2 0 0 1 2 -2m3.582 3.59a2 2 0 0 0 2.83 2.826m1.588 -6.416v-2a2 2 0 0 0 -2 -2h-6m-4 0a2 2 0 0 0 -2 2v6a2 2 0 0 0 2 2h2m-4 -12l18 18" />
</svg>
