<!--
tags: [payment, money, pay, cashier, register, purchase, checkout, transaction]
category: E-commerce
unicode: "fee6"
version: "3.4"
-->
<svg
  xmlns="http://www.w3.org/2000/svg"
  width="24"
  height="24"
  viewBox="0 0 24 24"
  fill="none"
  stroke="currentColor"
  stroke-width="2"
  stroke-linecap="round"
  stroke-linejoin="round"
>
    <path d="M21 15h-2.5c-.398 0 -.779 .158 -1.061 .439c-.281 .281 -.439 .663 -.439 1.061c0 .398 .158 .779 .439 1.061c.281 .281 .663 .439 1.061 .439h1c.398 0 .779 .158 1.061 .439c.281 .281 .439 .663 .439 1.061c0 .398 -.158 .779 -.439 1.061c-.281 .281 -.663 .439 -1.061 .439h-2.5M19 21v1m0 -8v1M13 21h-7c-.53 0 -1.039 -.211 -1.414 -.586c-.375 -.375 -.586 -.884 -.586 -1.414v-10c0 -.53 .211 -1.039 .586 -1.414c.375 -.375 .884 -.586 1.414 -.586h2m12 3.12v-1.12c0 -.53 -.211 -1.039 -.586 -1.414c-.375 -.375 -.884 -.586 -1.414 -.586h-2M16 10v-6c0 -.53 -.211 -1.039 -.586 -1.414c-.375 -.375 -.884 -.586 -1.414 -.586h-4c-.53 0 -1.039 .211 -1.414 .586c-.375 .375 -.586 .884 -.586 1.414v6m8 0h-8m8 0h1m-9 0h-1M8 14v.01M8 17v.01M12 13.99v.01M12 17v.01" />
</svg>
