<!--
tags: [broadcast, stream, mirroring, apple, airplay, chromecast, cast, off, content, entertainment]
category: Media
version: "1.63"
unicode: "f0c9"
-->
<svg
  xmlns="http://www.w3.org/2000/svg"
  width="24"
  height="24"
  viewBox="0 0 24 24"
  fill="none"
  stroke="currentColor"
  stroke-width="2"
  stroke-linecap="round"
  stroke-linejoin="round"
>
  <path d="M3 19h.01" />
  <path d="M7 19a4 4 0 0 0 -4 -4" />
  <path d="M11 19a8 8 0 0 0 -8 -8" />
  <path d="M15 19h3a3 3 0 0 0 .875 -.13m2 -2a3 3 0 0 0 .128 -.868v-8a3 3 0 0 0 -3 -3h-9m-3.865 .136a3 3 0 0 0 -1.935 1.864" />
  <path d="M3 3l18 18" />
</svg>
