<!--
category: Document
tags: [document, official, attest, signature, birth, death, gift, authenticity, seal, course, complete, qualification]
version: "1.33"
unicode: "ed76"
-->
<svg
  xmlns="http://www.w3.org/2000/svg"
  width="24"
  height="24"
  viewBox="0 0 24 24"
  fill="none"
  stroke="currentColor"
  stroke-width="2"
  stroke-linecap="round"
  stroke-linejoin="round"
>
    <path d="M15 15m-3 0a3 3 0 1 0 6 0a3 3 0 1 0 -6 0M13 17.5v4.5l2 -1.5l2 1.5v-4.5M10 19h-5a2 2 0 0 1 -2 -2v-10c0 -1.1 .9 -2 2 -2h14a2 2 0 0 1 2 2v10a2 2 0 0 1 -1 1.73M6 9l12 0M6 12l3 0M6 15l2 0" />
</svg>
