<!--
tags: [statistics, data, value, variable, scale, statistical, chart, dots, visualization, analytics]
category: Charts
version: "1.39"
unicode: "ee2f"
-->
<svg
  xmlns="http://www.w3.org/2000/svg"
  width="24"
  height="24"
  viewBox="0 0 24 24"
  fill="none"
  stroke="currentColor"
  stroke-width="2"
  stroke-linecap="round"
  stroke-linejoin="round"
>
  <path d="M3 3v18h18" />
  <path d="M7 9a2 2 0 1 0 4 0a2 2 0 1 0 -4 0" />
  <path d="M17 7a2 2 0 1 0 4 0a2 2 0 1 0 -4 0" />
  <path d="M12 15a2 2 0 1 0 4 0a2 2 0 1 0 -4 0" />
  <path d="M10.16 10.62l2.34 2.88" />
  <path d="M15.088 13.328l2.837 -4.586" />
</svg>
