<!--
category: Charts
tags: [graph, diagram, analyticks, statistics, data, value, variable, scale, statistical]
version: "1.61"
unicode: "f098"
-->
<svg
  xmlns="http://www.w3.org/2000/svg"
  width="24"
  height="24"
  viewBox="0 0 24 24"
  fill="none"
  stroke="currentColor"
  stroke-width="2"
  stroke-linecap="round"
  stroke-linejoin="round"
>
  <path d="M5 7m-2 0a2 2 0 1 0 4 0a2 2 0 1 0 -4 0m13 8m-2 0a2 2 0 1 0 4 0a2 2 0 1 0 -4 0m4 -9m-3 0a3 3 0 1 0 6 0a3 3 0 1 0 -6 0m-9 12m-3 0a3 3 0 1 0 6 0a3 3 0 1 0 -6 0m6 -1l5 -1.5m-7.5 -7l7.81 5.37m-7.31 -6.87l8 -1" />
</svg>
