<!--
tags: [statistics, data, value, variable, scale, statistical]
category: Charts
version: "1.39"
unicode: "ee2f"
-->
<svg
  xmlns="http://www.w3.org/2000/svg"
  width="24"
  height="24"
  viewBox="0 0 24 24"
  fill="none"
  stroke="currentColor"
  stroke-width="2"
  stroke-linecap="round"
  stroke-linejoin="round"
>
  <path d="M3 3v18h18m-12 -12m-2 0a2 2 0 1 0 4 0a2 2 0 1 0 -4 0m12 -2m-2 0a2 2 0 1 0 4 0a2 2 0 1 0 -4 0m-3 8m-2 0a2 2 0 1 0 4 0a2 2 0 1 0 -4 0m-1.84 -4.38l2.34 2.88m2.588 -.172l2.837 -4.586" />
</svg>
