<!--
tags: [electric, electricity, hybrid, tesla, station, electronic, point]
category: Vehicles
version: "1.39"
unicode: "ee26"
-->
<svg
  xmlns="http://www.w3.org/2000/svg"
  width="24"
  height="24"
  viewBox="0 0 24 24"
  fill="none"
  stroke="currentColor"
  stroke-width="2"
  stroke-linecap="round"
  stroke-linejoin="round"
>
  <path d="M18 7l-1 1m-3 3h1a2 2 0 0 1 2 2v3a1.5 1.5 0 0 0 3 0v-7l-3 -3m-13 14v-14a2 2 0 0 1 2 -2h6a2 2 0 0 1 2 2v14m-5 -8.5l-1.5 2.5h3l-1.5 2.5m-6 3.5l12 0m-11 -12l10 0" />
</svg>
