<!--
tags: [alphabet, monogram, typography, symbol, emblem, character, initial, graphic, design, decoration]
category: Letters
unicode: "ff6f"
version: "3.11"
-->
<svg
  xmlns="http://www.w3.org/2000/svg"
  width="24"
  height="24"
  viewBox="0 0 24 24"
  fill="none"
  stroke="currentColor"
  stroke-width="2"
  stroke-linecap="round"
  stroke-linejoin="round"
>
  <path d="M12 8a2 2 0 0 1 2 2v4a2 2 0 1 1 -4 0v-4a2 2 0 0 1 2 -2m1 7l1 1m-6.5 -11.79v.01m-3.29 3.28v.01m-1.21 4.49v.01m1.21 4.49v.01m3.29 3.28v.01m4.5 1.2v.01m4.5 -1.22v.01m3.29 -3.3v.01m1.21 -4.51v.01m-1.21 -4.51v.01m-3.29 -3.3v.01m-4.5 -1.22v.01" />
</svg>
