<!--
tags: [six, zero, number, digit, quantity, amount, order, maths, sum, total]
category: Numbers
version: "1.39"
unicode: "ee3a"
-->
<svg
  xmlns="http://www.w3.org/2000/svg"
  width="24"
  height="24"
  viewBox="0 0 24 24"
  fill="none"
  stroke="currentColor"
  stroke-width="2"
  stroke-linecap="round"
  stroke-linejoin="round"
>
  <path d="M12 12m-9 0a9 9 0 1 0 18 0a9 9 0 1 0 -18 0" />
  <path d="M14 9a1 1 0 0 0 -1 -1h-2a1 1 0 0 0 -1 1v6a1 1 0 0 0 1 1h2a1 1 0 0 0 1 -1v-2a1 1 0 0 0 -1 -1h-3" />
</svg>
