<!--
tags: [time, hour, watch, timepiece, twelve-hour, am/pm, noon, midday, daytime, clock-face]
category: System
version: "2.32"
unicode: "fc56"
-->
<svg
  xmlns="http://www.w3.org/2000/svg"
  width="24"
  height="24"
  viewBox="0 0 24 24"
  fill="none"
  stroke="currentColor"
  stroke-width="2"
  stroke-linecap="round"
  stroke-linejoin="round"
>
  <path d="M3 12a9 9 0 0 0 9 9m9 -9a9 9 0 1 0 -18 0" />
  <path d="M12 7v5l.5 .5" />
  <path d="M18 15h2a1 1 0 0 1 1 1v1a1 1 0 0 1 -1 1h-1a1 1 0 0 0 -1 1v1a1 1 0 0 0 1 1h2" />
  <path d="M15 21v-6" />
</svg>
