<!--
tags: [weather, dry]
category: Weather
version: "1.0"
unicode: "ea7a"
-->
<svg
  xmlns="http://www.w3.org/2000/svg"
  width="24"
  height="24"
  viewBox="0 0 24 24"
  fill="none"
  stroke="currentColor"
  stroke-width="2"
  stroke-linecap="round"
  stroke-linejoin="round"
>
  <path
     d="M 14.99,2 V 2.01" />
  <path
     d="M 22.99,10 H 23" />
  <path
     d="M 9.3,4.31 9.29,4.3" />
  <path
     d="M 20.7,4.31 20.69,4.3" />
  <path
     d="m 20.69,15.7 0.01,0.01" />
  <path
     d="m 1,18.210468 c 0,-2.093218 1.772184,-3.790752 3.957065,-3.790752 0.333803,-1.489919 1.523351,-2.705061 3.121957,-3.188671 1.598609,-0.484836 3.362297,-0.163648 4.625888,0.84266 1.264805,1.003863 1.837728,2.540191 1.503928,4.030111 h 0.84118 a 2.9374553,2.9554167 0 0 1 2.943524,2.94809 2.9374553,2.9554167 0 0 1 -2.943524,2.948088 H 4.957065 C 2.772184,21.999994 1,20.302463 1,18.210468 Z" />
  <path
     d="m 11.5,8 c 0.745458,-1.1516882 1.991966,-2.0193283 3.38766,-2.0358107 2.350055,-0.067257 4.395734,2.1039639 4.143693,4.4032157 -0.126817,1.07269 -0.487119,1.57199 -1.093853,2.351345" />
</svg>
