<!--
tags: [coding, programming, html]
category: Text
version: "1.85"
unicode: "f312"
-->
<svg
  xmlns="http://www.w3.org/2000/svg"
  width="24"
  height="24"
  viewBox="0 0 24 24"
  fill="none"
  stroke="currentColor"
  stroke-width="2"
  stroke-linecap="round"
  stroke-linejoin="round"
>
  <path d="M6 19a2 2 0 0 1 -2 -2v-4l-1 -1l1 -1v-4a2 2 0 0 1 2 -2m6 6.875l3 -1.687m-3 1.687v3.375m0 -3.375l-3 -1.687m3 1.687l3 1.688m-3 -5.063v3.375m0 0l-3 1.688m9 5.437a2 2 0 0 0 2 -2v-4l1 -1l-1 -1v-4a2 2 0 0 0 -2 -2" />
</svg>
