<!--
category: Design
tags: [sample, choice, selection]
version: "1.63"
unicode: "f0d3"
-->
<svg
  xmlns="http://www.w3.org/2000/svg"
  width="24"
  height="24"
  viewBox="0 0 24 24"
  fill="none"
  stroke="currentColor"
  stroke-width="2"
  stroke-linecap="round"
  stroke-linejoin="round"
>
  <path d="M13 13v4a4 4 0 0 0 6.832 2.825m1.168 -2.825v-12a2 2 0 0 0 -2 -2h-4a2 2 0 0 0 -2 2v4m0 -1.65l-2 -2a2 2 0 0 0 -2.11 -.461m-2.13 1.874l-1.416 1.415a2 2 0 0 0 0 2.828l9 9m-7.044 -7.006h-2.3a2 2 0 0 0 -2 2v4a2 2 0 0 0 2 2h12m0 -4v.01m-14 -14.01l18 18" />
</svg>
