<!--
category: Design
tags: [element, html, block, store, inside]
version: "1.39"
unicode: "ee47"
-->
<svg
  xmlns="http://www.w3.org/2000/svg"
  width="24"
  height="24"
  viewBox="0 0 24 24"
  fill="none"
  stroke="currentColor"
  stroke-width="2"
  stroke-linecap="round"
  stroke-linejoin="round"
>
  <path d="M20 4v.01" />
  <path d="M20 20v.01" />
  <path d="M20 16v.01" />
  <path d="M20 12v.01" />
  <path d="M20 8v.01" />
  <path d="M8 4m0 1a1 1 0 0 1 1 -1h6a1 1 0 0 1 1 1v14a1 1 0 0 1 -1 1h-6a1 1 0 0 1 -1 -1z" />
  <path d="M4 4v.01" />
  <path d="M4 20v.01" />
  <path d="M4 16v.01" />
  <path d="M4 12v.01" />
  <path d="M4 8v.01" />
</svg>
