<!--
category: Devices
tags: [processor, computer, chip, hardware, technology, electronic]
version: "1.59"
unicode: "f075"
-->
<svg
  xmlns="http://www.w3.org/2000/svg"
  width="24"
  height="24"
  viewBox="0 0 24 24"
  fill="none"
  stroke="currentColor"
  stroke-width="2"
  stroke-linecap="round"
  stroke-linejoin="round"
>
  <path d="M5 5m0 1a1 1 0 0 1 1 -1h12a1 1 0 0 1 1 1v12a1 1 0 0 1 -1 1h-12a1 1 0 0 1 -1 -1z" />
  <path d="M8 10v-2h2m6 6v2h-2m-4 0h-2v-2m8 -4v-2h-2" />
  <path d="M3 10h2" />
  <path d="M3 14h2" />
  <path d="M10 3v2" />
  <path d="M14 3v2" />
  <path d="M21 10h-2" />
  <path d="M21 14h-2" />
  <path d="M14 21v-2" />
  <path d="M10 21v-2" />
</svg>
