<!--
tags: [licence, license, creative, commons, control, operation, function, interface, management]
category: System
version: "1.49"
unicode: "efb3"
-->
<svg
  xmlns="http://www.w3.org/2000/svg"
  width="24"
  height="24"
  viewBox="0 0 24 24"
  fill="none"
  stroke="currentColor"
  stroke-width="2"
  stroke-linecap="round"
  stroke-linejoin="round"
>
  <path d="M3 12a9 9 0 1 0 18 0a9 9 0 1 0 -18 0" />
  <path d="M10.5 10.5c-.847 -.71 -2.132 -.658 -2.914 .116a1.928 1.928 0 0 0 0 2.768c.782 .774 2.067 .825 2.914 .116" />
  <path d="M16.5 10.5c-.847 -.71 -2.132 -.658 -2.914 .116a1.928 1.928 0 0 0 0 2.768c.782 .774 2.067 .825 2.914 .116" />
</svg>
