<svg xmlns="http://www.w3.org/2000/svg" width="24" height="24" viewBox="0 0 24 24" fill="none" stroke="#000000" stroke-width="2" stroke-linecap="round" stroke-linejoin="round" class="icon icon-tabler icon-tabler-credit-card-refresh">
  <!-- Cartão -->
  <path stroke="none" d="M0 0h24v24H0z" fill="none"/>
  <path d="M12 19h-6a3 3 0 0 1 -3 -3v-8a3 3 0 0 1 3 -3h12a3 3 0 0 1 3 3v4.5" />
  <path d="M3 10h18" />
  <path d="M7.005 15h.005" />
  <path d="M11 15h2" />

  <!-- Ícone de refresh menor, stroke maior apenas para ele -->
  <g transform="translate(13.5,12) scale(0.4)" stroke-width="1.9">
    <path d="M20 11a8.1 8.1 0 0 0 -15.5 -2m-.5 -4v4h4" />
    <path d="M4 13a8.1 8.1 0 0 0 15.5 2m.5 4v-4h-4" />
  </g>
</svg>