<!--
tags: [3d, pattern, abstract, geometric, shape]
category: Shapes
unicode: "ffbb"
version: "3.13"
-->
<svg
  xmlns="http://www.w3.org/2000/svg"
  width="24"
  height="24"
  viewBox="0 0 24 24"
  fill="none"
  stroke="currentColor"
  stroke-width="2"
  stroke-linecap="round"
  stroke-linejoin="round"
>
  <path d="M21 12v-4.01a1.98 1.98 0 0 0 -1 -1.717l-7 -4.008a2.02 2.02 0 0 0 -2 0l-7 4.008c-.619 .355 -1 1.01 -1 1.718v8.018c0 .709 .381 1.363 1 1.717l7 4.008c.62 .354 1.38 .354 2 0m-1 .266v-10m0 0l8.73 -5.04m-17.46 0l8.73 5.04m7 10.5a4.75 4.75 0 0 1 3.5 -3.5a4.75 4.75 0 0 1 -3.5 -3.5a4.75 4.75 0 0 1 -3.5 3.5a4.75 4.75 0 0 1 3.5 3.5" />
</svg>
