<!--
category: Database
tags: [delete, remove, cancel, erase, terminate, void, revoke, nullify, clear, discard]
version: "2.13"
unicode: "fa1b"
-->
<svg
  xmlns="http://www.w3.org/2000/svg"
  width="24"
  height="24"
  viewBox="0 0 24 24"
  fill="none"
  stroke="currentColor"
  stroke-width="2"
  stroke-linecap="round"
  stroke-linejoin="round"
>
  <path d="M4 6c0 1.657 3.582 3 8 3s8 -1.343 8 -3s-3.582 -3 -8 -3s-8 1.343 -8 3" />
  <path d="M4 6v6c0 1.657 3.582 3 8 3c.537 0 1.062 -.02 1.57 -.058" />
  <path d="M20 13.5v-7.5" />
  <path d="M4 12v6c0 1.657 3.582 3 8 3c.384 0 .762 -.01 1.132 -.03" />
  <path d="M22 22l-5 -5" />
  <path d="M17 22l5 -5" />
</svg>
