<!--
tags: [data, backup, file, storage, system]
category: Database
version: "1.39"
unicode: "ee6e"
-->
<svg
  xmlns="http://www.w3.org/2000/svg"
  width="24"
  height="24"
  viewBox="0 0 24 24"
  fill="none"
  stroke="currentColor"
  stroke-width="2"
  stroke-linecap="round"
  stroke-linejoin="round"
>
  <path d="M4 6c0 1.657 3.582 3 8 3s8 -1.343 8 -3s-3.582 -3 -8 -3s-8 1.343 -8 3" />
  <path d="M4 6v6c0 1.657 3.582 3 8 3c1.118 0 2.183 -.086 3.15 -.241" />
  <path d="M20 12v-6" />
  <path d="M4 12v6c0 1.657 3.582 3 8 3c.157 0 .312 -.002 .466 -.005" />
  <path d="M16 19h6" />
  <path d="M19 16l3 3l-3 3" />
</svg>
