<!--
category: Database
tags: [storage, data, memory]
version: "1.39"
unicode: "ee70"
-->
<svg
  xmlns="http://www.w3.org/2000/svg"
  width="24"
  height="24"
  viewBox="0 0 24 24"
  fill="none"
  stroke="currentColor"
  stroke-width="2"
  stroke-linecap="round"
  stroke-linejoin="round"
>
  <path d="M12.983 8.978c3.955 -.182 7.017 -1.446 7.017 -2.978c0 -1.657 -3.582 -3 -8 -3c-1.661 0 -3.204 .19 -4.483 .515m-2.783 1.228c-.471 .382 -.734 .808 -.734 1.257c0 1.22 1.944 2.271 4.734 2.74" />
  <path d="M4 6v6c0 1.657 3.582 3 8 3c.986 0 1.93 -.067 2.802 -.19m3.187 -.82c1.251 -.53 2.011 -1.228 2.011 -1.99v-6" />
  <path d="M4 12v6c0 1.657 3.582 3 8 3c3.217 0 5.991 -.712 7.261 -1.74m.739 -3.26v-4" />
  <path d="M3 3l18 18" />
</svg>
