<!--
category: Database
version: "2.13"
unicode: "fa17"
-->
<svg
  xmlns="http://www.w3.org/2000/svg"
  width="24"
  height="24"
  viewBox="0 0 24 24"
  fill="none"
  stroke="currentColor"
  stroke-width="2"
  stroke-linecap="round"
  stroke-linejoin="round"
>
  <path d="M4 6c0 1.657 3.582 3 8 3s8 -1.343 8 -3s-3.582 -3 -8 -3s-8 1.343 -8 3" />
  <path d="M4 6v6c0 1.657 3.582 3 8 3c1.075 0 2.1 -.08 3.037 -.224" />
  <path d="M20 12v-6" />
  <path d="M4 12v6c0 1.657 3.582 3 8 3c.166 0 .331 -.002 .495 -.006" />
  <path d="M16 19h6" />
  <path d="M19 16v6" />
</svg>
