<!--
category: Database
tags: [find, lookup, explore, discover, locate, probe, scan, inspect, seek, browse]
version: "2.13"
unicode: "fa18"
-->
<svg
  xmlns="http://www.w3.org/2000/svg"
  width="24"
  height="24"
  viewBox="0 0 24 24"
  fill="none"
  stroke="currentColor"
  stroke-width="2"
  stroke-linecap="round"
  stroke-linejoin="round"
>
  <path d="M4 6c0 1.657 3.582 3 8 3s8 -1.343 8 -3s-3.582 -3 -8 -3s-8 1.343 -8 3m0 0v6c0 1.657 3.582 3 8 3m8 -3.5v-5.5m-16 6v6c0 1.657 3.582 3 8 3m6 -3m-3 0a3 3 0 1 0 6 0a3 3 0 1 0 -6 0m5.2 2.2l1.8 1.8" />
</svg>
