<!--
category: Database
tags: [add, increase, expand, enlarge, amplify, grow, enhance, boost, supplement, raise]
version: "2.13"
unicode: "fa17"
-->
<svg
  xmlns="http://www.w3.org/2000/svg"
  width="24"
  height="24"
  viewBox="0 0 24 24"
  fill="none"
  stroke="currentColor"
  stroke-width="2"
  stroke-linecap="round"
  stroke-linejoin="round"
>
  <path d="M4 6c0 1.657 3.582 3 8 3s8 -1.343 8 -3s-3.582 -3 -8 -3s-8 1.343 -8 3m0 0v6c0 1.657 3.582 3 8 3c1.075 0 2.1 -.08 3.037 -.224m4.963 -2.776v-6m-16 6v6c0 1.657 3.582 3 8 3c.166 0 .331 -.002 .495 -.006m3.505 -1.994h6m-3 -3v6" />
</svg>
