<!--
tags: [unselect, clear-selection, deselection, unpick, uncheck, deactivate, unmark, remove-selection, untag, unchoose]
version: "2.11"
unicode: "f9f3"
-->
<svg
  xmlns="http://www.w3.org/2000/svg"
  width="24"
  height="24"
  viewBox="0 0 24 24"
  fill="none"
  stroke="currentColor"
  stroke-width="2"
  stroke-linecap="round"
  stroke-linejoin="round"
>
  <path d="M12 8h3a1 1 0 0 1 1 1v3m0 4h-7a1 1 0 0 1 -1 -1v-7m4 12v.01m4 -.01v.01m-8 -.01v.01m-4 -.01v.01m0 -4.01v.01m0 -4.01v.01m0 -4.01v.01m4 -4.01v.01m4 -.01v.01m4 -.01v.01m4 -.01v.01m0 3.99v.01m0 3.99v.01m0 3.99v.01m-17 -13.01l18 18" />
</svg>
