<!--
category: Devices
tags: [program, develop, script, compile, debug, build, software, language, syntax, execute]
version: "2.10"
unicode: "f8e9"
-->
<svg
  xmlns="http://www.w3.org/2000/svg"
  width="24"
  height="24"
  viewBox="0 0 24 24"
  fill="none"
  stroke="currentColor"
  stroke-width="2"
  stroke-linecap="round"
  stroke-linejoin="round"
>
  <path d="M13 15.5v-6.5a1 1 0 0 1 1 -1h6a1 1 0 0 1 1 1v4m0 6a1 1 0 0 1 -1 1m-2 -12v-3a1 1 0 0 0 -1 -1h-13a1 1 0 0 0 -1 1v12a1 1 0 0 0 1 1h7m9 3l2 -2l-2 -2m-3 0l-2 2l2 2m-1 -12h2" />
</svg>
