<!--
category: Devices
tags: [controller, gaming, console, joystick, device, equipment, instrument, gear, peripheral, machine]
version: "2.32"
unicode: "fc58"
-->
<svg
  xmlns="http://www.w3.org/2000/svg"
  width="24"
  height="24"
  viewBox="0 0 24 24"
  fill="none"
  stroke="currentColor"
  stroke-width="2"
  stroke-linecap="round"
  stroke-linejoin="round"
>
  <path d="M9 12l-3 -3h-2a1 1 0 0 0 -1 1v4a1 1 0 0 0 1 1h2zm6 0l3 -3h2a1 1 0 0 1 1 1v4a1 1 0 0 1 -1 1h-2zm-3 3l-3 3v2a1 1 0 0 0 1 1h4a1 1 0 0 0 1 -1v-2zm0 -6l-3 -3v-2a1 1 0 0 1 1 -1h4a1 1 0 0 1 1 1v2z" />
</svg>
