<!--
category: Devices
tags: [find, locate, explore, discover, seek, hunt, probe, scan, survey, inspect]
version: "2.10"
unicode: "f880"
-->
<svg
  xmlns="http://www.w3.org/2000/svg"
  width="24"
  height="24"
  viewBox="0 0 24 24"
  fill="none"
  stroke="currentColor"
  stroke-width="2"
  stroke-linecap="round"
  stroke-linejoin="round"
>
  <path d="M11 17h-7a1 1 0 0 1 -1 -1v-12a1 1 0 0 1 1 -1h16a1 1 0 0 1 1 1v8m-18 1h10m-5 8h4m-2 -4l-.5 4m8.5 -3m-3 0a3 3 0 1 0 6 0a3 3 0 1 0 -6 0m5.2 2.2l1.8 1.8" />
</svg>
