<!--
category: Devices
tags: [attach, fasten, fix, secure, anchor, tack, clip, affix, stick, bind]
version: "2.10"
unicode: "f87d"
-->
<svg
  xmlns="http://www.w3.org/2000/svg"
  width="24"
  height="24"
  viewBox="0 0 24 24"
  fill="none"
  stroke="currentColor"
  stroke-width="2"
  stroke-linecap="round"
  stroke-linejoin="round"
>
  <path d="M12 17h-8a1 1 0 0 1 -1 -1v-12a1 1 0 0 1 1 -1h16a1 1 0 0 1 1 1v7.5m.121 8.621a3 3 0 1 0 -4.242 0c.418 .419 1.125 1.045 2.121 1.879c1.051 -.89 1.759 -1.516 2.121 -1.879zm-2.121 -2.121v.01m-16 -5.01h11m-6 8h4.5m-2.5 -4l-.5 4" />
</svg>
