<!--
category: Devices
tags: [money, currency, finance, wealth, cash, funds, capital, income, profit, earnings]
version: "2.10"
unicode: "f876"
-->
<svg
  xmlns="http://www.w3.org/2000/svg"
  width="24"
  height="24"
  viewBox="0 0 24 24"
  fill="none"
  stroke="currentColor"
  stroke-width="2"
  stroke-linecap="round"
  stroke-linejoin="round"
>
  <path d="M13 17h-9a1 1 0 0 1 -1 -1v-12a1 1 0 0 1 1 -1h16a1 1 0 0 1 1 1v6.5m-18 2.5h11m-6 8h5m-3 -4l-.5 4m11.5 -6h-2.5a1.5 1.5 0 0 0 0 3h1a1.5 1.5 0 0 1 0 3h-2.5m2 0v1m0 -8v1" />
</svg>
