<!--
category: Devices
tags: [attach, secure, fix, fasten, stick, place, bookmark, position, clip, hold]
version: "2.10"
unicode: "f8f1"
-->
<svg
  xmlns="http://www.w3.org/2000/svg"
  width="24"
  height="24"
  viewBox="0 0 24 24"
  fill="none"
  stroke="currentColor"
  stroke-width="2"
  stroke-linecap="round"
  stroke-linejoin="round"
>
  <path d="M13 14v-5a1 1 0 0 1 1 -1h6a1 1 0 0 1 1 1v2" />
  <path d="M18 8v-3a1 1 0 0 0 -1 -1h-13a1 1 0 0 0 -1 1v12a1 1 0 0 0 1 1h8" />
  <path d="M21.121 20.121a3 3 0 1 0 -4.242 0c.418 .419 1.125 1.045 2.121 1.879c1.051 -.89 1.759 -1.516 2.121 -1.879" />
  <path d="M19 18v.01" />
  <path d="M16 9h2" />
</svg>
