<!--
tags: [closed, circuit, television, video, surveillance, signal, monitor, record]
category: Devices
version: "1.39"
unicode: "ee74"
-->
<svg
  xmlns="http://www.w3.org/2000/svg"
  width="24"
  height="24"
  viewBox="0 0 24 24"
  fill="none"
  stroke="currentColor"
  stroke-width="2"
  stroke-linecap="round"
  stroke-linejoin="round"
>
  <path d="M3 3m0 1a1 1 0 0 1 1 -1h16a1 1 0 0 1 1 1v2a1 1 0 0 1 -1 1h-16a1 1 0 0 1 -1 -1z" />
  <path d="M12 14m-4 0a4 4 0 1 0 8 0a4 4 0 1 0 -8 0" />
  <path d="M19 7v7a7 7 0 0 1 -14 0v-7" />
  <path d="M12 14l.01 0" />
</svg>
