<!--
category: Devices
tags: [tablet, attach, fasten, secure, affix, anchor, hold, tack, nail, bind]
version: "2.10"
unicode: "f8cb"
-->
<svg
  xmlns="http://www.w3.org/2000/svg"
  width="24"
  height="24"
  viewBox="0 0 24 24"
  fill="none"
  stroke="currentColor"
  stroke-width="2"
  stroke-linecap="round"
  stroke-linejoin="round"
>
  <path d="M12.5 21h-6.5a1 1 0 0 1 -1 -1v-16a1 1 0 0 1 1 -1h12a1 1 0 0 1 1 1v7m-7 5a1 1 0 0 0 0 2m9.121 2.121a3 3 0 1 0 -4.242 0c.418 .419 1.125 1.045 2.121 1.879c1.051 -.89 1.759 -1.516 2.121 -1.879zm-2.121 -2.121v.01" />
</svg>
