<!--
category: Devices
tags: [inquire, ask, query, probe, interrogate, wonder, doubt, speculate, ponder, explore]
version: "2.10"
unicode: "f87f"
-->
<svg
  xmlns="http://www.w3.org/2000/svg"
  width="24"
  height="24"
  viewBox="0 0 24 24"
  fill="none"
  stroke="currentColor"
  stroke-width="2"
  stroke-linecap="round"
  stroke-linejoin="round"
>
  <path d="M14 17h-10a1 1 0 0 1 -1 -1v-12a1 1 0 0 1 1 -1h16a1 1 0 0 1 1 1v7.5m-18 1.5h11.5m-6.5 8h7m-5 -4l-.5 4m4.5 -4l.5 4m4.5 1v.01m0 -3.01a2.003 2.003 0 0 0 .914 -3.782a1.98 1.98 0 0 0 -2.414 .483" />
</svg>
