<!--
category: Devices
tags: [find, locate, discover, explore, seek, look, browse, scout, investigate, probe]
version: "2.10"
unicode: "f8e1"
-->
<svg
  xmlns="http://www.w3.org/2000/svg"
  width="24"
  height="24"
  viewBox="0 0 24 24"
  fill="none"
  stroke="currentColor"
  stroke-width="2"
  stroke-linecap="round"
  stroke-linejoin="round"
>
  <path d="M11 18h-2a3 3 0 0 1 -3 -3v-6a3 3 0 0 1 3 -3h6a3 3 0 0 1 3 3v2m0 7m-3 0a3 3 0 1 0 6 0a3 3 0 1 0 -6 0m5.2 2.2l1.8 1.8m-13 -4v3h3m-3 -15v-3h6v3" />
</svg>
