<!--
tags: [music, iphone, apple, wireless, headphones, sound, earbuds]
category: Devices
unicode: "f5a9"
version: "1.110"
-->
<svg
  xmlns="http://www.w3.org/2000/svg"
  width="24"
  height="24"
  viewBox="0 0 24 24"
  fill="none"
  stroke="currentColor"
  stroke-width="2"
  stroke-linecap="round"
  stroke-linejoin="round"
>
  <path d="M6 4a4 4 0 0 1 4 3.8l0 .2v10.5a1.5 1.5 0 0 1 -3 0v-6.5h-1a4 4 0 0 1 -4 -3.8l0 -.2a4 4 0 0 1 4 -4z" />
  <path d="M18 4a4 4 0 0 0 -4 3.8l0 .2v10.5a1.5 1.5 0 0 0 3 0v-6.5h1a4 4 0 0 0 4 -3.8l0 -.2a4 4 0 0 0 -4 -4z" />
</svg>
