<!--
category: Devices
tags: [video, meeting, record, recording, webcam]
version: "1.39"
unicode: "ee75"
-->
<svg
  xmlns="http://www.w3.org/2000/svg"
  width="24"
  height="24"
  viewBox="0 0 24 24"
  fill="none"
  stroke="currentColor"
  stroke-width="2"
  stroke-linecap="round"
  stroke-linejoin="round"
>
  <path d="M6.15 6.153a7 7 0 0 0 9.696 9.696m2 -2a7 7 0 0 0 -9.699 -9.695" />
  <path d="M9.13 9.122a3 3 0 0 0 3.743 3.749m2 -2a3 3 0 0 0 -3.737 -3.736" />
  <path d="M8 16l-2.091 3.486a1 1 0 0 0 .857 1.514h10.468a1 1 0 0 0 .857 -1.514l-2.091 -3.486" />
  <path d="M3 3l18 18" />
</svg>
