<!--
category: Devices
tags: [ascend, rise, increase, climb, elevate, boost, uplift, soar, progress, advance]
version: "2.10"
unicode: "f8f7"
-->
<svg
  xmlns="http://www.w3.org/2000/svg"
  width="24"
  height="24"
  viewBox="0 0 24 24"
  fill="none"
  stroke="currentColor"
  stroke-width="2"
  stroke-linecap="round"
  stroke-linejoin="round"
>
  <path d="M13 16.5v-7.5a1 1 0 0 1 1 -1h6a1 1 0 0 1 1 1v3.5m-3 -4.5v-3a1 1 0 0 0 -1 -1h-13a1 1 0 0 0 -1 1v12a1 1 0 0 0 1 1h8m7 4v-6m3 3l-3 -3l-3 3m0 -10h2" />
</svg>
