<!--
category: Devices
version: "2.10"
unicode: "f872"
-->
<svg
  xmlns="http://www.w3.org/2000/svg"
  width="24"
  height="24"
  viewBox="0 0 24 24"
  fill="none"
  stroke="currentColor"
  stroke-width="2"
  stroke-linecap="round"
  stroke-linejoin="round"
>
  <path d="M12.5 17h-8.5a1 1 0 0 1 -1 -1v-12a1 1 0 0 1 1 -1h16a1 1 0 0 1 1 1v8" />
  <path d="M3 13h12.5" />
  <path d="M8 21h4.5" />
  <path d="M10 17l-.5 4" />
  <path d="M19 19m-3 0a3 3 0 1 0 6 0a3 3 0 1 0 -6 0" />
  <path d="M17 21l4 -4" />
</svg>
