<!--
category: Devices
tags: [money, finance, currency, cost, expense, price, value, fee, charge, transaction]
version: "2.10"
unicode: "f8b2"
-->
<svg
  xmlns="http://www.w3.org/2000/svg"
  width="24"
  height="24"
  viewBox="0 0 24 24"
  fill="none"
  stroke="currentColor"
  stroke-width="2"
  stroke-linecap="round"
  stroke-linejoin="round"
>
  <path d="M13 21h-5a2 2 0 0 1 -2 -2v-14a2 2 0 0 1 2 -2h8a2 2 0 0 1 2 2v5m-7 -6h2m-1 13v.01m9 -2.01h-2.5a1.5 1.5 0 0 0 0 3h1a1.5 1.5 0 0 1 0 3h-2.5m2 0v1m0 -8v1" />
</svg>
