<!--
category: Devices
tags: [tablet, cancel, remove, stop, block, end, terminate, discontinue, halt, interfere]
version: "2.10"
unicode: "f8c1"
-->
<svg
  xmlns="http://www.w3.org/2000/svg"
  width="24"
  height="24"
  viewBox="0 0 24 24"
  fill="none"
  stroke="currentColor"
  stroke-width="2"
  stroke-linecap="round"
  stroke-linejoin="round"
>
  <path d="M12.5 21h-6.5a1 1 0 0 1 -1 -1v-16a1 1 0 0 1 1 -1h12a1 1 0 0 1 1 1v8" />
  <path d="M16 19a3 3 0 1 0 6 0a3 3 0 1 0 -6 0" />
  <path d="M17 21l4 -4" />
  <path d="M11 17a1 1 0 1 0 2 0a1 1 0 0 0 -2 0" />
</svg>
