<!--
category: Devices
tags: [favorite, highlight, important, notable, prominent, emphasize, shine, remarkable, bright]
version: "2.10"
unicode: "f89f"
-->
<svg
  xmlns="http://www.w3.org/2000/svg"
  width="24"
  height="24"
  viewBox="0 0 24 24"
  fill="none"
  stroke="currentColor"
  stroke-width="2"
  stroke-linecap="round"
  stroke-linejoin="round"
>
  <path d="M10.5 20h-5.5a2 2 0 0 1 -2 -2v-12a2 2 0 0 1 2 -2h14a2 2 0 0 1 2 2v5.5m-12 5.5h1m7.8 3.817l-2.172 1.138a.392 .392 0 0 1 -.568 -.41l.415 -2.411l-1.757 -1.707a.389 .389 0 0 1 .217 -.665l2.428 -.352l1.086 -2.193a.392 .392 0 0 1 .702 0l1.086 2.193l2.428 .352a.39 .39 0 0 1 .217 .665l-1.757 1.707l.414 2.41a.39 .39 0 0 1 -.567 .411l-2.172 -1.138z" />
</svg>
