<!--
category: Devices
tags: [attach, secure, fasten, bookmark, clip, stick, mark, peg, fix, place]
version: "2.10"
unicode: "f8de"
-->
<svg
  xmlns="http://www.w3.org/2000/svg"
  width="24"
  height="24"
  viewBox="0 0 24 24"
  fill="none"
  stroke="currentColor"
  stroke-width="2"
  stroke-linecap="round"
  stroke-linejoin="round"
>
  <path d="M12 18h-3a3 3 0 0 1 -3 -3v-6a3 3 0 0 1 3 -3h6a3 3 0 0 1 3 3v2m-9 7v3h3.5m-3.5 -15v-3h6v3m6.121 14.121a3 3 0 1 0 -4.242 0c.418 .419 1.125 1.045 2.121 1.879c1.051 -.89 1.759 -1.516 2.121 -1.879zm-2.121 -2.121v.01" />
</svg>
