<!--
category: Devices
tags: [abort, terminate, void, retract, nullify, invalidate, abolish, quit, disallow, revoke]
version: "2.10"
unicode: "f872"
-->
<svg
  xmlns="http://www.w3.org/2000/svg"
  width="24"
  height="24"
  viewBox="0 0 24 24"
  fill="none"
  stroke="currentColor"
  stroke-width="2"
  stroke-linecap="round"
  stroke-linejoin="round"
>
  <path d="M12.5 17h-8.5a1 1 0 0 1 -1 -1v-12a1 1 0 0 1 1 -1h16a1 1 0 0 1 1 1v8m-18 1h12.5m-7.5 8h4.5m-2.5 -4l-.5 4m9.5 -2m-3 0a3 3 0 1 0 6 0a3 3 0 1 0 -6 0m1 2l4 -4" />
</svg>
