<!--
unicode: "ffa2"
version: "3.12"
-->
<svg
  xmlns="http://www.w3.org/2000/svg"
  width="24"
  height="24"
  viewBox="0 0 24 24"
  fill="none"
  stroke="currentColor"
  stroke-width="2"
  stroke-linecap="round"
  stroke-linejoin="round"
>
  <path d="M3 8.323c0 -.579 0 -.868 .044 -1.11a2.7 2.7 0 0 1 2.17 -2.169c.239 -.044 .529 -.044 1.109 -.044h11.353c.579 0 .868 0 1.11 .044a2.7 2.7 0 0 1 2.169 2.17c.044 .24 .044 .53 .044 1.11v2.676a9 9 0 0 1 -18 0z" />
  <path d="M17 9h4" />
  <path d="M3 9h4" />
  <path d="M14.25 19.7v-1.4a6.3 6.3 0 0 1 6.3 -6.3" />
  <path d="M9.75 19.7v-1.4a6.3 6.3 0 0 0 -6.3 -6.3" />
</svg>
