<!--
tags: [game, boardgame, roll, throw, cube, numbers, gambling, dice, entertainment, playing]
category: Games
version: "1.60"
unicode: "f090"
-->
<svg
  xmlns="http://www.w3.org/2000/svg"
  width="24"
  height="24"
  viewBox="0 0 24 24"
  fill="none"
  stroke="currentColor"
  stroke-width="2"
  stroke-linecap="round"
  stroke-linejoin="round"
>
  <path d="M3 5a2 2 0 0 1 2 -2h14a2 2 0 0 1 2 2v14a2 2 0 0 1 -2 2h-14a2 2 0 0 1 -2 -2v-14" />
  <path d="M8 7.5a.5 .5 0 1 0 1 0a.5 .5 0 1 0 -1 0" fill="currentColor" />
  <path d="M15 7.5a.5 .5 0 1 0 1 0a.5 .5 0 1 0 -1 0" fill="currentColor" />
  <path d="M8 12a.5 .5 0 1 0 1 0a.5 .5 0 1 0 -1 0" fill="currentColor" />
  <path d="M15 12a.5 .5 0 1 0 1 0a.5 .5 0 1 0 -1 0" fill="currentColor" />
  <path d="M15 16.5a.5 .5 0 1 0 1 0a.5 .5 0 1 0 -1 0" fill="currentColor" />
  <path d="M8 16.5a.5 .5 0 1 0 1 0a.5 .5 0 1 0 -1 0" fill="currentColor" />
</svg>
