<!--
tags: [pet, animal, cute, bone, home, puppy]
category: Animals
unicode: "f660"
version: "1.119"
-->
<svg
  xmlns="http://www.w3.org/2000/svg"
  width="24"
  height="24"
  viewBox="0 0 24 24"
  fill="none"
  stroke="currentColor"
  stroke-width="2"
  stroke-linecap="round"
  stroke-linejoin="round"
>
  <path d="M11 5h2m6 7c-.667 5.333 -2.333 8 -5 8h-4c-2.667 0 -4.333 -2.667 -5 -8m6 4c0 .667 .333 1 1 1s1 -.333 1 -1h-2zm1 2v2m-2 -9v.01m4 -.01v.01m-9 -7.01l6 .97l-6.238 6.688a1.021 1.021 0 0 1 -1.41 .111a.953 .953 0 0 1 -.327 -.954l1.975 -6.815zm14 0l-6 .97l6.238 6.688c.358 .408 .989 .458 1.41 .111a.953 .953 0 0 0 .327 -.954l-1.975 -6.815z" />
</svg>
