<svg
  xmlns="http://www.w3.org/2000/svg"
  width="24"
  height="24"
  viewBox="0 0 24 24"
  fill="none"
  stroke="currentColor"
  stroke-width="2"
  stroke-linecap="round"
  stroke-linejoin="round"
>
  <path d="M11.157 6.507c-1.21 1.854-2.308 3.786-3.36 5.734-.5.831.796 1.86 1.446 1.08.99-1.37 1.747-2.895 2.607-4.35.275-.521.631-1.025.857-1.557.101-.773-.694-1.38-1.408-1.035zM21.554 6.397c-.614.596-.92 1.457-1.387 2.174-.707 1.288-1.515 2.526-2.13 3.86-.304.83.939 1.541 1.535.895 1.2-1.822 2.245-3.747 3.273-5.671.553-.828-.49-1.693-1.291-1.258M4.675 10.519c-.661.432-.871 1.296-1.326 1.919-.79 1.41-1.668 2.78-2.335 4.253-.171.946 1.269 1.427 1.729.62 1.09-1.862 2.202-3.716 3.187-5.635.383-.745-.564-1.498-1.255-1.157M14.886 10.56c-.64.64-.984 1.521-1.47 2.28-.688 1.261-1.494 2.467-2.058 3.792-.32.904 1.124 1.507 1.614.728 1.17-1.896 2.304-3.822 3.31-5.81.22-.746-.755-1.406-1.396-.99" />
</svg>
