<!--
category: Design
tags: [stop, reject, close, deny, remove, terminate, halt, abort, cease, cross]
version: "2.10"
unicode: "f8fa"
-->
<svg
  xmlns="http://www.w3.org/2000/svg"
  width="24"
  height="24"
  viewBox="0 0 24 24"
  fill="none"
  stroke="currentColor"
  stroke-width="2"
  stroke-linecap="round"
  stroke-linejoin="round"
>
  <path d="M18.606 12.014a6.659 6.659 0 0 0 -.542 -1.137l-4.89 -7.26c-.42 -.625 -1.287 -.803 -1.936 -.397a1.376 1.376 0 0 0 -.41 .397l-4.893 7.26c-1.695 2.838 -1.035 6.441 1.567 8.546a7.154 7.154 0 0 0 4.826 1.572" />
  <path d="M16 19a3 3 0 1 0 6 0a3 3 0 1 0 -6 0" />
  <path d="M17 21l4 -4" />
</svg>
