<!--
category: System
tags: [ear, scan, audiology, hearing-test, ear-exam, medical, healthcare, ear-scan, diagnosis, hearing-health]
version: "2.43"
unicode: "fd57"
-->
<svg
  xmlns="http://www.w3.org/2000/svg"
  width="24"
  height="24"
  viewBox="0 0 24 24"
  fill="none"
  stroke="currentColor"
  stroke-width="2"
  stroke-linecap="round"
  stroke-linejoin="round"
>
  <path d="M15 15a2 2 0 0 1 -2 2c-.732 0 -1.555 -.247 -1.72 -.98c-.634 -2.8 -3.17 -2.628 -3.28 -5.02v-.5a3.5 3.5 0 0 1 6.671 -1.483m-10.671 -1.017v-2a2 2 0 0 1 2 -2h2m-4 12v2a2 2 0 0 0 2 2h2m8 -16h2a2 2 0 0 1 2 2v2m-4 12h2a2 2 0 0 0 2 -2v-2m-7 -4v.01" />
</svg>
