<!--
tags: [email, mail, stamp, postmark, envelope, certified, letter, postage, delivery, communication]
category: Communication
unicode: "10266"
version: "3.44"
-->
<svg
  xmlns="http://www.w3.org/2000/svg"
  width="24"
  height="24"
  viewBox="0 0 24 24"
  fill="none"
  stroke="currentColor"
  stroke-width="2"
  stroke-linecap="round"
  stroke-linejoin="round"
>
  <path d="M7.586 4.586a2 2 0 0 0 -1.414 -.586h-.172a2 2 0 0 0 -2 2v.172a2 2 0 0 0 .586 1.414a2 2 0 0 1 0 2.828a2 2 0 0 0 -.586 1.414v.344a2 2 0 0 0 .586 1.414c.4 .4 .595 .928 .585 1.452c-.01 .5 -.204 .995 -.585 1.376a2 2 0 0 0 -.586 1.414v.172a2 2 0 0 0 2 2h.172a2 2 0 0 0 1.414 -.586a2 2 0 0 1 2.828 0a2 2 0 0 0 1.414 .586h.344a2 2 0 0 0 1.414 -.586a2 2 0 0 1 2.828 0a2 2 0 0 0 1.414 .586h.172a2 2 0 0 0 2 -2v-.172a2 2 0 0 0 -.586 -1.414a1.996 1.996 0 0 1 0 -2.828a2 2 0 0 0 .586 -1.414v-.344a2 2 0 0 0 -.586 -1.414a2 2 0 0 1 0 -2.828a2 2 0 0 0 .586 -1.414v-.172a2 2 0 0 0 -2 -2h-.172a2 2 0 0 0 -1.414 .586a2 2 0 0 1 -2.828 0a2 2 0 0 0 -1.414 -.586h-.344a2 2 0 0 0 -1.414 .586a2 2 0 0 1 -2.828 0" />
  <path d="M10 10a2 2 0 1 0 4 0a2 2 0 0 0 -4 0" />
  <path d="M9 15c0 -1.105 .672 -2 1.5 -2h3c.828 0 1.5 .895 1.5 2" />
</svg>
