<!--
category: System
tags: [love, affection, vision, sight, emotion, passion, admire, adore, view, focus]
version: "2.9"
unicode: "f7f0"
-->
<svg
  xmlns="http://www.w3.org/2000/svg"
  width="24"
  height="24"
  viewBox="0 0 24 24"
  fill="none"
  stroke="currentColor"
  stroke-width="2"
  stroke-linecap="round"
  stroke-linejoin="round"
>
  <path d="M13.905 11.39a2 2 0 1 0 -2.855 2.37" />
  <path d="M9.992 17.779c-2.722 -.621 -5.053 -2.547 -6.992 -5.779c2.4 -4 5.4 -6 9 -6c3.332 0 6.15 1.714 8.454 5.14" />
  <path d="M18 22l3.35 -3.284a2.143 2.143 0 0 0 .005 -3.071a2.242 2.242 0 0 0 -3.129 -.006l-.224 .22l-.223 -.22a2.242 2.242 0 0 0 -3.128 -.006a2.143 2.143 0 0 0 -.006 3.071l3.355 3.296" />
</svg>
