<!--
category: System
tags: [attach, fasten, secure, vision, sight, hold, fix, stick, view, focus]
version: "2.28"
unicode: "fb75"
-->
<svg
  xmlns="http://www.w3.org/2000/svg"
  width="24"
  height="24"
  viewBox="0 0 24 24"
  fill="none"
  stroke="currentColor"
  stroke-width="2"
  stroke-linecap="round"
  stroke-linejoin="round"
>
  <path d="M10 12a2 2 0 1 0 4 0a2 2 0 0 0 -4 0" />
  <path d="M12 18c-3.6 0 -6.6 -2 -9 -6c2.4 -4 5.4 -6 9 -6c3.362 0 6.202 1.745 8.517 5.234" />
  <path d="M21.121 20.121a3 3 0 1 0 -4.242 0c.418 .419 1.125 1.045 2.121 1.879c1.051 -.89 1.759 -1.516 2.121 -1.879z" />
  <path d="M19 18v.01" />
</svg>
