<!--
tags: [image, graphic, picture, photo, raster, bitmap, transparency, png, compressed, visual]
category: Document
version: "2.25"
unicode: "fb12"
-->
<svg
  xmlns="http://www.w3.org/2000/svg"
  width="24"
  height="24"
  viewBox="0 0 24 24"
  fill="none"
  stroke="currentColor"
  stroke-width="2"
  stroke-linecap="round"
  stroke-linejoin="round"
>
  <path d="M14 3v4a1 1 0 0 0 1 1h4m-14 4v-7a2 2 0 0 1 2 -2h7l5 5v4m1 3h-1a2 2 0 0 0 -2 2v2a2 2 0 0 0 2 2h1v-3m-15 0h1.5a1.5 1.5 0 0 0 0 -3h-1.5v6m6 0v-6l3 6v-6" />
</svg>
