<!--
tags: [database, query, language, data, table, sql, structure, querying, relational, management]
category: Document
version: "2.25"
unicode: "fb15"
-->
<svg
  xmlns="http://www.w3.org/2000/svg"
  width="24"
  height="24"
  viewBox="0 0 24 24"
  fill="none"
  stroke="currentColor"
  stroke-width="2"
  stroke-linecap="round"
  stroke-linejoin="round"
>
  <path d="M14 3v4a1 1 0 0 0 1 1h4m-5 -5v4a1 1 0 0 0 1 1h4m-14 12.25c0 .414 .336 .75 .75 .75h1.25a1 1 0 0 0 1 -1v-1a1 1 0 0 0 -1 -1h-1a1 1 0 0 1 -1 -1v-1a1 1 0 0 1 1 -1h1.25a.75 .75 0 0 1 .75 .75m-3 -3.75v-7a2 2 0 0 1 2 -2h7l5 5v4m-1 3v6h2m-7 -6a2 2 0 0 1 2 2v2a2 2 0 1 1 -4 0v-2a2 2 0 0 1 2 -2zm1 5l1.5 1.5" />
</svg>
