<!--
tags: [data, document, extension, paper]
category: Document
unicode: "f53e"
version: "1.104"
-->
<svg
  xmlns="http://www.w3.org/2000/svg"
  width="24"
  height="24"
  viewBox="0 0 24 24"
  fill="none"
  stroke="currentColor"
  stroke-width="2"
  stroke-linecap="round"
  stroke-linejoin="round"
>
  <path d="M14 3v4a1 1 0 0 0 1 1h4" />
  <path d="M17 21h-10a2 2 0 0 1 -2 -2v-14a2 2 0 0 1 2 -2h7l5 5v11a2 2 0 0 1 -2 2z" />
  <path d="M10.5 17h.333c.474 0 .87 -.323 .916 -.746l.502 -4.508c.047 -.423 .443 -.746 .916 -.746h.333" />
  <path d="M10.5 14h3" />
</svg>
