<!--
tags: [bitmap, image, graphics, raster, format, visual, picture, digital, photo, art]
category: Document
version: "2.25"
unicode: "fb07"
-->
<svg
  xmlns="http://www.w3.org/2000/svg"
  width="24"
  height="24"
  viewBox="0 0 24 24"
  fill="none"
  stroke="currentColor"
  stroke-width="2"
  stroke-linecap="round"
  stroke-linejoin="round"
>
  <path d="M14 3v4a1 1 0 0 0 1 1h4m-14 4v-7a2 2 0 0 1 2 -2h7l5 5v4m-1 6h1.5a1.5 1.5 0 0 0 0 -3h-1.5v6m-14 0h1.5a1.5 1.5 0 0 0 0 -3h-1.5h1.5a1.5 1.5 0 0 0 0 -3h-1.5v6zm6 0v-6l2.5 3l2.5 -3v6" />
</svg>
