<!--
category: Document
tags: [document, protection, security, safe, privacy, guard, lock, confidential, secure, data]
unicode: "100f2"
version: "3.27"
-->
<svg
  xmlns="http://www.w3.org/2000/svg"
  width="24"
  height="24"
  viewBox="0 0 24 24"
  fill="none"
  stroke="currentColor"
  stroke-width="2"
  stroke-linecap="round"
  stroke-linejoin="round"
>
  <path d="M13 3v4a.997 .997 0 0 0 1 1h4" />
  <path d="M11 21h-5a2 2 0 0 1 -2 -2v-14a2 2 0 0 1 2 -2h7l5 5v3.5" />
  <path d="M8 9h1" />
  <path d="M8 12.994l3 0" />
  <path d="M8 16.997l2 0" />
  <path d="M21 15.994c0 4 -2.5 6 -3.5 6s-3.5 -2 -3.5 -6c1 0 2.5 -.5 3.5 -1.5c1 1 2.5 1.5 3.5 1.5" />
</svg>
