<!--
tags: [scripting, backend, server, web, dynamic, programming, php, open-source, hypertext, preprocessor]
category: Document
version: "2.25"
unicode: "fb11"
-->
<svg
  xmlns="http://www.w3.org/2000/svg"
  width="24"
  height="24"
  viewBox="0 0 24 24"
  fill="none"
  stroke="currentColor"
  stroke-width="2"
  stroke-linecap="round"
  stroke-linejoin="round"
>
    <path d="M14 3v4a1 1 0 0 0 1 1h4M5 12v-7a2 2 0 0 1 2 -2h7l5 5v4M5 18h1.5a1.5 1.5 0 0 0 0 -3h-1.5v6M17 18h1.5a1.5 1.5 0 0 0 0 -3h-1.5v6M11 21v-6M14 15v6M11 18h3" />
</svg>
