<!--
tags: [presentation, slides, powerpoint, office, talk, ppt, slideshow, lecture, seminar, deck]
category: Document
version: "2.25"
unicode: "fb13"
-->
<svg
  xmlns="http://www.w3.org/2000/svg"
  width="24"
  height="24"
  viewBox="0 0 24 24"
  fill="none"
  stroke="currentColor"
  stroke-width="2"
  stroke-linecap="round"
  stroke-linejoin="round"
>
  <path d="M14 3v4a1 1 0 0 0 1 1h4m-5 -5v4a1 1 0 0 0 1 1h4m-14 10h1.5a1.5 1.5 0 0 0 0 -3h-1.5v6m6 -3h1.5a1.5 1.5 0 0 0 0 -3h-1.5v6m5.5 -6h3m-1.5 0v6m-13 -9v-7a2 2 0 0 1 2 -2h7l5 5v4" />
</svg>
