<!--
tags: [cut, cutting, tool, cutter, office]
category: Document
version: "1.56"
unicode: "f03c"
-->
<svg
  xmlns="http://www.w3.org/2000/svg"
  width="24"
  height="24"
  viewBox="0 0 24 24"
  fill="none"
  stroke="currentColor"
  stroke-width="2"
  stroke-linecap="round"
  stroke-linejoin="round"
>
  <path d="M14 3v4a1 1 0 0 0 1 1h4m-2 13h-10a2 2 0 0 1 -2 -2v-14a2 2 0 0 1 2 -2h7l5 5v11a2 2 0 0 1 -2 2zm-2 -4m-1 0a1 1 0 1 0 2 0a1 1 0 1 0 -2 0m-5 0m-1 0a1 1 0 1 0 2 0a1 1 0 1 0 -2 0m1 0l6 -6m0 6l-6 -6" />
</svg>
