<!--
tags: [document, word, text, format, writing, file, report, letter, composition, manuscript]
category: Document
version: "2.25"
unicode: "fb0a"
-->
<svg
  xmlns="http://www.w3.org/2000/svg"
  width="24"
  height="24"
  viewBox="0 0 24 24"
  fill="none"
  stroke="currentColor"
  stroke-width="2"
  stroke-linecap="round"
  stroke-linejoin="round"
>
  <path d="M14 3v4a1 1 0 0 0 1 1h4m-14 4v-7a2 2 0 0 1 2 -2h7l5 5v4m-14 3v6h1a2 2 0 0 0 2 -2v-2a2 2 0 0 0 -2 -2h-1zm15 1.5a1.5 1.5 0 0 0 -3 0v3a1.5 1.5 0 0 0 3 0m-7.5 -4.5a1.5 1.5 0 0 1 1.5 1.5v3a1.5 1.5 0 0 1 -3 0v-3a1.5 1.5 0 0 1 1.5 -1.5z" />
</svg>
