<!--
tags: [resume, career, profile, document, job, application, work, history, experience, portfolio]
category: Document
version: "2.16"
unicode: "fa5a"
-->
<svg
  xmlns="http://www.w3.org/2000/svg"
  width="24"
  height="24"
  viewBox="0 0 24 24"
  fill="none"
  stroke="currentColor"
  stroke-width="2"
  stroke-linecap="round"
  stroke-linejoin="round"
>
  <path d="M14 3v4a1 1 0 0 0 1 1h4" />
  <path d="M17 21h-10a2 2 0 0 1 -2 -2v-14a2 2 0 0 1 2 -2h7l5 5v11a2 2 0 0 1 -2 2" />
  <path d="M11 12.5a1.5 1.5 0 0 0 -3 0v3a1.5 1.5 0 0 0 3 0" />
  <path d="M13 11l1.5 6l1.5 -6" />
</svg>
