<!--
tags: [mp3, wma, wav]
category: Document
version: "1.0"
unicode: "ea9f"
-->
<svg
  xmlns="http://www.w3.org/2000/svg"
  width="24"
  height="24"
  viewBox="0 0 24 24"
  fill="none"
  stroke="currentColor"
  stroke-width="2"
  stroke-linecap="round"
  stroke-linejoin="round"
>
  <path d="M14 3v4a1 1 0 0 0 1 1h4" />
  <path d="M17 21h-10a2 2 0 0 1 -2 -2v-14a2 2 0 0 1 2 -2h7l5 5v11a2 2 0 0 1 -2 2z" />
  <path d="M11 16m-1 0a1 1 0 1 0 2 0a1 1 0 1 0 -2 0" />
  <path d="M12 16l0 -5l2 1" />
</svg>
