<!--
tags: [model, document]
category: Document
version: "1.56"
unicode: "f032"
-->
<svg
  xmlns="http://www.w3.org/2000/svg"
  width="24"
  height="24"
  viewBox="0 0 24 24"
  fill="none"
  stroke="currentColor"
  stroke-width="2"
  stroke-linecap="round"
  stroke-linejoin="round"
>
  <path d="M14 3v4a1 1 0 0 0 1 1h4" />
  <path d="M17 21h-10a2 2 0 0 1 -2 -2v-14a2 2 0 0 1 2 -2h7l5 5v11a2 2 0 0 1 -2 2z" />
  <path d="M12 13.5l4 -1.5" />
  <path d="M8 11.846l4 1.654v4.5l4 -1.846v-4.308l-4 -1.846z" />
  <path d="M8 12v4.2l4 1.8" />
</svg>
