<!--
tags: [typescript, javascript, typed, code, programming, strict, superset, type-safe, development, frontend]
category: Document
version: "2.25"
unicode: "fb17"
-->
<svg
  xmlns="http://www.w3.org/2000/svg"
  width="24"
  height="24"
  viewBox="0 0 24 24"
  fill="none"
  stroke="currentColor"
  stroke-width="2"
  stroke-linecap="round"
  stroke-linejoin="round"
>
  <path d="M14 3v4a1 1 0 0 0 1 1h4m-14 4v-7a2 2 0 0 1 2 -2h7l5 5v11a2 2 0 0 1 -2 2h-1m-2 -18v4a1 1 0 0 0 1 1h4m-10 12.25c0 .414 .336 .75 .75 .75h1.25a1 1 0 0 0 1 -1v-1a1 1 0 0 0 -1 -1h-1a1 1 0 0 1 -1 -1v-1a1 1 0 0 1 1 -1h1.25a.75 .75 0 0 1 .75 .75m-8.5 -.75h3m-1.5 0v6" />
</svg>
