<!--
-->
<svg
  xmlns="http://www.w3.org/2000/svg"
  width="24"
  height="24"
  viewBox="0 0 24 24"
  fill="none"
  stroke="currentColor"
  stroke-width="2"
  stroke-linecap="round"
  stroke-linejoin="round"
>
  <path d="M15 12.5v-.5l4.414 -4.414c.375 -.375 .586 -.884 .586 -1.414v-2.172h-16v2.227c0 .497 .185 .977 .52 1.345l4.48 4.928v8.5l2 -.667" stroke="black" stroke-width="2" stroke-linecap="round" stroke-linejoin="round" />
  <path d="M18.5 22c.205 -.849 .641 -1.625 1.258 -2.242c.617 -.617 1.393 -1.053 2.242 -1.258c-.849 -.205 -1.625 -.641 -2.242 -1.258c-.617 -.617 -1.053 -1.393 -1.258 -2.242c-.205 .849 -.641 1.625 -1.258 2.242c-.617 .617 -1.393 1.053 -2.242 1.258c.849 .205 1.625 .641 2.242 1.258c.617 .617 1.053 1.393 1.258 2.242z" stroke="black" stroke-width="2" stroke-linecap="round" stroke-linejoin="round" />
</svg>
