<!--
tags: [filter, spark, sort, organize, arrange, select, refine, sieve, screen, glitter]
category: System
version: "3.32"
unicode: "1014e"
-->
<svg
  xmlns="http://www.w3.org/2000/svg"
  width="24"
  height="24"
  viewBox="0 0 24 24"
  fill="none"
  stroke="currentColor"
  stroke-width="2"
  stroke-linecap="round"
  stroke-linejoin="round"
>
  <path d="M4 6h16" />
  <path d="M6 12h9.5" />
  <path d="M9 18h2.5" />
  <path d="M19 21.5c.205 -.849 .641 -1.625 1.258 -2.242c.617 -.617 1.393 -1.053 2.242 -1.258c-.849 -.205 -1.625 -.641 -2.242 -1.258c-.617 -.617 -1.053 -1.393 -1.258 -2.242c-.205 .849 -.641 1.625 -1.258 2.242c-.617 .617 -1.393 1.053 -2.242 1.258c.849 .205 1.625 .641 2.242 1.258c.617 .617 1.053 1.393 1.258 2.242" />
</svg>
