<!--
category: Sytem
unicode: "10157"
version: "3.32"
-->
<svg
  xmlns="http://www.w3.org/2000/svg"
  width="24"
  height="24"
  viewBox="0 0 24 24"
  fill="none"
  stroke="currentColor"
  stroke-width="2"
  stroke-linecap="round"
  stroke-linejoin="round"
>
  <path d="M4 6h16" />
  <path d="M6 12h11" />
  <path d="M9 18h2" />
  <path d="M18.42 15.61c.195 -.195 .426 -.35 .681 -.455c.255 -.106 .528 -.16 .804 -.16c.276 0 .549 .054 .804 .16c.255 .106 .486 .26 .681 .455c.195 .195 .35 .427 .455 .681c.106 .255 .16 .528 .16 .804c0 .276 -.054 .549 -.16 .804c-.105 .255 -.26 .486 -.455 .681l-3.39 3.42h-3v-3l3.42 -3.39z" />
</svg>
