<!--
category: Health
tags: [medical, healthcare, hospital, health]
unicode: "f3ed"
version: "1.94"
-->
<svg
  xmlns="http://www.w3.org/2000/svg"
  width="24"
  height="24"
  viewBox="0 0 24 24"
  fill="none"
  stroke="currentColor"
  stroke-width="2"
  stroke-linecap="round"
  stroke-linejoin="round"
>
  <path d="M8.595 4.577a2 2 0 0 1 1.405 -.577h4a2 2 0 0 1 2 2v2m-4 0h6a2 2 0 0 1 2 2v6m-.576 3.405a2 2 0 0 1 -1.424 .595h-12a2 2 0 0 1 -2 -2v-8a2 2 0 0 1 2 -2h2m2 6h4m-2 -2v4m-9 -13l18 18" />
</svg>
