<!--
tags: [medical, healthcare, hospital, health]
category: Health
version: "1.44"
unicode: "ef5f"
-->
<svg
  xmlns="http://www.w3.org/2000/svg"
  width="24"
  height="24"
  viewBox="0 0 24 24"
  fill="none"
  stroke="currentColor"
  stroke-width="2"
  stroke-linecap="round"
  stroke-linejoin="round"
>
  <path d="M8 8v-2a2 2 0 0 1 2 -2h4a2 2 0 0 1 2 2v2" />
  <path d="M4 8m0 2a2 2 0 0 1 2 -2h12a2 2 0 0 1 2 2v8a2 2 0 0 1 -2 2h-12a2 2 0 0 1 -2 -2z" />
  <path d="M10 14h4" />
  <path d="M12 12v4" />
</svg>
