<!--
category: Map
tags: [love, like, passion, affection, adore, cherish, fondness, romance, emotion, favor]
version: "2.28"
unicode: "fb93"
-->
<svg
  xmlns="http://www.w3.org/2000/svg"
  width="24"
  height="24"
  viewBox="0 0 24 24"
  fill="none"
  stroke="currentColor"
  stroke-width="2"
  stroke-linecap="round"
  stroke-linejoin="round"
>
  <path d="M11.33 13.447a5.001 5.001 0 0 0 -6.33 .553v-9a5 5 0 0 1 7 0a5 5 0 0 0 7 0v6" />
  <path d="M5 21v-7" />
  <path d="M18 22l3.35 -3.284a2.143 2.143 0 0 0 .005 -3.071a2.242 2.242 0 0 0 -3.129 -.006l-.224 .22l-.223 -.22a2.242 2.242 0 0 0 -3.128 -.006a2.143 2.143 0 0 0 -.006 3.071l3.355 3.296z" />
</svg>
