<!--
category: Map
tags: [favorite, rate, highlight, spotlight, pinnacle, premier, top, peak, acclaim, noteworthy]
version: "2.28"
unicode: "fb9b"
-->
<svg
  xmlns="http://www.w3.org/2000/svg"
  width="24"
  height="24"
  viewBox="0 0 24 24"
  fill="none"
  stroke="currentColor"
  stroke-width="2"
  stroke-linecap="round"
  stroke-linejoin="round"
>
  <path d="M11.475 13.551a5.001 5.001 0 0 0 -6.475 .449v-9a5 5 0 0 1 7 0a5 5 0 0 0 7 0v5" />
  <path d="M5 21v-7" />
  <path d="M17.8 20.817l-2.172 1.138a.392 .392 0 0 1 -.568 -.41l.415 -2.411l-1.757 -1.707a.389 .389 0 0 1 .217 -.665l2.428 -.352l1.086 -2.193a.392 .392 0 0 1 .702 0l1.086 2.193l2.428 .352a.39 .39 0 0 1 .217 .665l-1.757 1.707l.414 2.41a.39 .39 0 0 1 -.567 .411l-2.172 -1.138z" />
</svg>
