<!--
tags: [banner, pin, report, map, warning, alert, flag, spark, location, navigation]
category: Map
version: "3.13"
unicode: "ffb7"
-->
<svg
  xmlns="http://www.w3.org/2000/svg"
  width="24"
  height="24"
  viewBox="0 0 24 24"
  fill="none"
  stroke="currentColor"
  stroke-width="2"
  stroke-linecap="round"
  stroke-linejoin="round"
>
  <path d="M14.165 15.249a5 5 0 0 1 -2.165 -1.249a5 5 0 0 0 -7 0v-9a5 5 0 0 1 7 0a5 5 0 0 0 7 0v6.5" />
  <path d="M5 21v-7" />
  <path d="M19 22.5a4.75 4.75 0 0 1 3.5 -3.5a4.75 4.75 0 0 1 -3.5 -3.5a4.75 4.75 0 0 1 -3.5 3.5a4.75 4.75 0 0 1 3.5 3.5" />
</svg>
