<!--
tags: [autonomous, automatic, robotic, self-governing, auto-pilot, auto-track, self-directed, auto-focus, self-regulated, auto-navigate]
category: Photography
version: "2.17"
unicode: "fa62"
-->
<svg
  xmlns="http://www.w3.org/2000/svg"
  width="24"
  height="24"
  viewBox="0 0 24 24"
  fill="none"
  stroke="currentColor"
  stroke-width="2"
  stroke-linecap="round"
  stroke-linejoin="round"
>
  <path d="M4 8v-2a2 2 0 0 1 2 -2h2m-4 12v2a2 2 0 0 0 2 2h2m8 -16h2a2 2 0 0 1 2 2v2m-4 12h2a2 2 0 0 0 2 -2v-2m-10 -1v-4a2 2 0 1 1 4 0v4m-4 -2h4" />
</svg>
