<!--
tags: [filter, photo, photography, camera, image]
version: "1.55"
unicode: "f02a"
-->
<svg
  xmlns="http://www.w3.org/2000/svg"
  width="24"
  height="24"
  viewBox="0 0 24 24"
  fill="none"
  stroke="currentColor"
  stroke-width="2"
  stroke-linecap="round"
  stroke-linejoin="round"
>
  <path d="M12 12m-1 0a1 1 0 1 0 2 0a1 1 0 1 0 -2 0" />
  <path d="M4 8v-2a2 2 0 0 1 2 -2h2" />
  <path d="M4 16v2a2 2 0 0 0 2 2h2" />
  <path d="M16 4h2a2 2 0 0 1 2 2v2" />
  <path d="M16 20h2a2 2 0 0 0 2 -2v-2" />
</svg>
