<!--
tags: [directory, dir, clone, copy]
category: Document
version: "1.66"
unicode: "f133"
-->
<svg
  xmlns="http://www.w3.org/2000/svg"
  width="24"
  height="24"
  viewBox="0 0 24 24"
  fill="none"
  stroke="currentColor"
  stroke-width="2"
  stroke-linecap="round"
  stroke-linejoin="round"
>
  <path d="M17 17h-8a2 2 0 0 1 -2 -2v-8m1.177 -2.823c.251 -.114 .53 -.177 .823 -.177h3l2 2h5a2 2 0 0 1 2 2v7c0 .55 -.223 1.05 -.583 1.411" />
  <path d="M17 17v2a2 2 0 0 1 -2 2h-10a2 2 0 0 1 -2 -2v-9a2 2 0 0 1 2 -2h2" />
  <path d="M3 3l18 18" />
</svg>
