<!--
tags: [steps, footsteps, footprint, walking, fitness, activity, wellness, pedometer, path, exercise]
category: Health
unicode: "10265"
version: "3.44"
-->
<svg
  xmlns="http://www.w3.org/2000/svg"
  width="24"
  height="24"
  viewBox="0 0 24 24"
  fill="none"
  stroke="currentColor"
  stroke-width="2"
  stroke-linecap="round"
  stroke-linejoin="round"
>
  <path d="M4 16.5a2.5 2.5 0 0 0 5 0a1.5 1.5 0 0 0 -1.5 -1.5h-2a1.5 1.5 0 0 0 -1.5 1.5" />
  <path d="M15 18.5a2.5 2.5 0 0 0 5 0a1.5 1.5 0 0 0 -1.5 -1.5h-2a1.5 1.5 0 0 0 -1.5 1.5" />
  <path d="M8.52 12h-4.04c-.348 0 -.678 -.179 -.823 -.496c-1.326 -2.904 -.774 -8.504 2.843 -8.504s4.17 5.6 2.843 8.504c-.145 .317 -.475 .496 -.824 .496" />
  <path d="M19.52 14h-4.04c-.348 0 -.678 -.179 -.823 -.496c-1.326 -2.904 -.774 -8.504 2.843 -8.504s4.17 5.6 2.843 8.504c-.145 .317 -.475 .496 -.824 .496" />
</svg>
