<!--
tags: [formbuilder, input, url, textarea]
category: Text
version: "1.39"
unicode: "ee8f"
-->
<svg
  xmlns="http://www.w3.org/2000/svg"
  width="24"
  height="24"
  viewBox="0 0 24 24"
  fill="none"
  stroke="currentColor"
  stroke-width="2"
  stroke-linecap="round"
  stroke-linejoin="round"
>
  <path d="M12 3a3 3 0 0 0 -3 3v12a3 3 0 0 0 3 3" />
  <path d="M6 3a3 3 0 0 1 3 3v12a3 3 0 0 1 -3 3" />
  <path d="M13 7h7a1 1 0 0 1 1 1v8a1 1 0 0 1 -1 1h-7" />
  <path d="M5 7h-1a1 1 0 0 0 -1 1v8a1 1 0 0 0 1 1h1" />
  <path d="M17 12h.01" />
  <path d="M13 12h.01" />
</svg>
