<!--
tags: [park, decoration, water, spring, public]
category: Map
version: "1.61"
unicode: "f09b"
-->
<svg
  xmlns="http://www.w3.org/2000/svg"
  width="24"
  height="24"
  viewBox="0 0 24 24"
  fill="none"
  stroke="currentColor"
  stroke-width="2"
  stroke-linecap="round"
  stroke-linejoin="round"
>
  <path d="M9 16v-5a2 2 0 1 0 -4 0" />
  <path d="M15 16v-5a2 2 0 1 1 4 0" />
  <path d="M12 16v-10a3 3 0 0 1 6 0" />
  <path d="M6 6a3 3 0 0 1 6 0" />
  <path d="M3 16h18v2a3 3 0 0 1 -3 3h-12a3 3 0 0 1 -3 -3v-2z" />
</svg>
