<!--
category: System
tags: [justice, inviolability, freedom, free, rights]
version: "1.49"
unicode: "efb6"
-->
<svg
  xmlns="http://www.w3.org/2000/svg"
  width="24"
  height="24"
  viewBox="0 0 24 24"
  fill="none"
  stroke="currentColor"
  stroke-width="2"
  stroke-linecap="round"
  stroke-linejoin="round"
>
  <path d="M3 12a9 9 0 1 0 18 0a9 9 0 1 0 -18 0" />
  <path d="M13.867 9.75c-.246 -.48 -.708 -.769 -1.2 -.75h-1.334c-.736 0 -1.333 .67 -1.333 1.5c0 .827 .597 1.499 1.333 1.499h1.334c.736 0 1.333 .671 1.333 1.5c0 .828 -.597 1.499 -1.333 1.499h-1.334c-.492 .019 -.954 -.27 -1.2 -.75" />
  <path d="M12 7v2" />
  <path d="M12 15v2" />
  <path d="M6 6l1.5 1.5" />
  <path d="M16.5 16.5l1.5 1.5" />
</svg>
