<!--
category: Shapes
tags: [3d, pattern, abstract, geometric, shape]
version: "2.20"
unicode: "fa9f"
-->
<svg
  xmlns="http://www.w3.org/2000/svg"
  width="24"
  height="24"
  viewBox="0 0 24 24"
  fill="none"
  stroke="currentColor"
  stroke-width="2"
  stroke-linecap="round"
  stroke-linejoin="round"
>
  <path d="M18.402 5.508l2.538 10.158a1.99 1.99 0 0 1 -1.064 2.278l-7.036 3.366a1.945 1.945 0 0 1 -1.682 0l-7.035 -3.365a1.99 1.99 0 0 1 -1.064 -2.278l2.539 -10.159a1.98 1.98 0 0 1 1.11 -1.328l4.496 -2.01a1.95 1.95 0 0 1 1.59 0l4.496 2.01c.554 .246 .963 .736 1.112 1.328z" />
  <path d="M18 4.82l-5.198 2.324a1.963 1.963 0 0 1 -1.602 0l-5.2 -2.325" />
  <path d="M12 7.32v14.18" />
</svg>
