<!--
category: Vehicles
tags: [fuel, oil, cars, vehicles, shop, distributor]
version: "1.66"
unicode: "f137"
-->
<svg
  xmlns="http://www.w3.org/2000/svg"
  width="24"
  height="24"
  viewBox="0 0 24 24"
  fill="none"
  stroke="currentColor"
  stroke-width="2"
  stroke-linecap="round"
  stroke-linejoin="round"
>
  <path d="M15 11a2 2 0 0 1 2 2m3 3v-7l-3 -3m-13 14v-14c0 -.548 .22 -1.044 .577 -1.405m3.423 -.595h4a2 2 0 0 1 2 2v4m0 4v6m-11 0h12m3 -13v1a1 1 0 0 0 1 1h1m-16 2h7m-8 -8l18 18" />
</svg>
