<!--
tags: [justice, law, hammer, legal, auction]
version: "1.47"
unicode: "ef90"
-->
<svg
  xmlns="http://www.w3.org/2000/svg"
  width="24"
  height="24"
  viewBox="0 0 24 24"
  fill="none"
  stroke="currentColor"
  stroke-width="2"
  stroke-linecap="round"
  stroke-linejoin="round"
>
  <path d="M13 10l7.383 7.418c.823 .82 .823 2.148 0 2.967a2.11 2.11 0 0 1 -2.976 0l-7.407 -7.385m-4 -4l4 4m3 -3l-4 -4m-6 15h7m-3.207 -5.207l-3.586 -3.586a1 1 0 0 1 0 -1.414l2.293 -2.293l.5 .5l3 -3l-.5 -.5l2.293 -2.293a1 1 0 0 1 1.414 0l3.586 3.586a1 1 0 0 1 0 1.414l-2.293 2.293l-.5 -.5l-3 3l.5 .5l-2.293 2.293a1 1 0 0 1 -1.414 0z" />
</svg>
