<!--
tags: [spirit, transparent, fairytale, horror, movie, shadow, haunt]
unicode: "f3f2"
version: "1.94"
-->
<svg
  xmlns="http://www.w3.org/2000/svg"
  width="24"
  height="24"
  viewBox="0 0 24 24"
  fill="none"
  stroke="currentColor"
  stroke-width="2"
  stroke-linecap="round"
  stroke-linejoin="round"
>
  <path d="M8.794 4.776a7 7 0 0 1 10.206 6.224v4m-.12 3.898a1.779 1.779 0 0 1 -2.98 .502a1.65 1.65 0 0 0 -2.6 0a1.65 1.65 0 0 1 -2.6 0a1.65 1.65 0 0 0 -2.6 0a1.78 1.78 0 0 1 -3.1 -1.4v-7c0 -1.683 .594 -3.227 1.583 -4.434" />
  <path d="M14 10h.01" />
  <path d="M10 14a3.5 3.5 0 0 0 4 0" />
  <path d="M3 3l18 18" />
</svg>
