<!--
tags: [spirit, transparent, fairytale, horror, movie, shadow, haunt]
version: "1.3"
unicode: "eb8e"
-->
<svg
  xmlns="http://www.w3.org/2000/svg"
  width="24"
  height="24"
  viewBox="0 0 24 24"
  fill="none"
  stroke="currentColor"
  stroke-width="2"
  stroke-linecap="round"
  stroke-linejoin="round"
>
  <path d="M5 11a7 7 0 0 1 14 0v7a1.78 1.78 0 0 1 -3.1 1.4a1.65 1.65 0 0 0 -2.6 0a1.65 1.65 0 0 1 -2.6 0a1.65 1.65 0 0 0 -2.6 0a1.78 1.78 0 0 1 -3.1 -1.4v-7" />
  <path d="M10 10l.01 0" />
  <path d="M14 10l.01 0" />
  <path d="M10 14a3.5 3.5 0 0 0 4 0" />
</svg>
