<!--
tags: [code, version control, git, pull, request, unlisted, hidden, private, draft, repository]
category: Version control
unicode: "102ab"
version: "3.48"
-->
<svg
  xmlns="http://www.w3.org/2000/svg"
  width="24"
  height="24"
  viewBox="0 0 24 24"
  fill="none"
  stroke="currentColor"
  stroke-width="2"
  stroke-linecap="round"
  stroke-linejoin="round"
>
  <path d="M16.5 5.5a1 1 0 1 0 2 0a1 1 0 1 0 -2 0" />
  <path d="M16.5 11.5a1 1 0 1 0 2 0a1 1 0 1 0 -2 0" />
  <path d="M4 18a2 2 0 1 0 4 0a2 2 0 0 0 -4 0" />
  <path d="M4 6a2 2 0 1 0 4 0a2 2 0 0 0 -4 0" />
  <path d="M6 8v8" />
  <path d="M16 17l3 3" />
</svg>
