<!--
tags: [code, version control, command]
version: "1.0"
unicode: "eab2"
category: Version control
-->
<svg
  xmlns="http://www.w3.org/2000/svg"
  width="24"
  height="24"
  viewBox="0 0 24 24"
  fill="none"
  stroke="currentColor"
  stroke-width="2"
  stroke-linecap="round"
  stroke-linejoin="round"
>
  <path d="M7 18m-2 0a2 2 0 1 0 4 0a2 2 0 1 0 -4 0" />
  <path d="M7 6m-2 0a2 2 0 1 0 4 0a2 2 0 1 0 -4 0" />
  <path d="M17 6m-2 0a2 2 0 1 0 4 0a2 2 0 1 0 -4 0" />
  <path d="M7 8l0 8" />
  <path d="M9 18h6a2 2 0 0 0 2 -2v-5" />
  <path d="M14 14l3 -3l3 3" />
</svg>
