<!--
tags: [code, version control, command, git, branch, deleted, versioning, repository, tracking, revision]
category: Version control
version: "1.108"
unicode: "f57d"
-->
<svg
  xmlns="http://www.w3.org/2000/svg"
  width="24"
  height="24"
  viewBox="0 0 24 24"
  fill="none"
  stroke="currentColor"
  stroke-width="2"
  stroke-linecap="round"
  stroke-linejoin="round"
>
  <path d="M5 18a2 2 0 1 0 4 0a2 2 0 1 0 -4 0" />
  <path d="M5 6a2 2 0 1 0 4 0a2 2 0 1 0 -4 0" />
  <path d="M7 8v8" />
  <path d="M9 18h6a2 2 0 0 0 2 -2v-5" />
  <path d="M14 14l3 -3l3 3" />
  <path d="M15 4l4 4" />
  <path d="M15 8l4 -4" />
</svg>
