<!--
tags: [dots, pattern, random, round, circle, nodes]
version: "1.39"
unicode: "ee92"
-->
<svg
  xmlns="http://www.w3.org/2000/svg"
  width="24"
  height="24"
  viewBox="0 0 24 24"
  fill="none"
  stroke="currentColor"
  stroke-width="2"
  stroke-linecap="round"
  stroke-linejoin="round"
>
  <path d="M4.5 9.5m-1 0a1 1 0 1 0 2 0a1 1 0 1 0 -2 0m6 -5m-1 0a1 1 0 1 0 2 0a1 1 0 1 0 -2 0m1 10m-1 0a1 1 0 1 0 2 0a1 1 0 1 0 -2 0m-4 5m-1 0a1 1 0 1 0 2 0a1 1 0 1 0 -2 0m11 -10m-1 0a1 1 0 1 0 2 0a1 1 0 1 0 -2 0m6 -5m-1 0a1 1 0 1 0 2 0a1 1 0 1 0 -2 0m-4 15m-1 0a1 1 0 1 0 2 0a1 1 0 1 0 -2 0m6 -5m-1 0a1 1 0 1 0 2 0a1 1 0 1 0 -2 0" />
</svg>
