<!--
tags: [network, pattern, layout]
category: System
version: "1.0"
unicode: "eaba"
-->
<svg
  xmlns="http://www.w3.org/2000/svg"
  width="24"
  height="24"
  viewBox="0 0 24 24"
  fill="none"
  stroke="currentColor"
  stroke-width="2"
  stroke-linecap="round"
  stroke-linejoin="round"
>
  <path d="M5 5m-1 0a1 1 0 1 0 2 0a1 1 0 1 0 -2 0m8 0m-1 0a1 1 0 1 0 2 0a1 1 0 1 0 -2 0m8 0m-1 0a1 1 0 1 0 2 0a1 1 0 1 0 -2 0m-13 7m-1 0a1 1 0 1 0 2 0a1 1 0 1 0 -2 0m8 0m-1 0a1 1 0 1 0 2 0a1 1 0 1 0 -2 0m8 0m-1 0a1 1 0 1 0 2 0a1 1 0 1 0 -2 0m-13 7m-1 0a1 1 0 1 0 2 0a1 1 0 1 0 -2 0m8 0m-1 0a1 1 0 1 0 2 0a1 1 0 1 0 -2 0m8 0m-1 0a1 1 0 1 0 2 0a1 1 0 1 0 -2 0" />
</svg>
