<!--
tags: [picture, abstract, symbol, design, across, dots, drag]
category: System
version: "1.8"
unicode: "ec00"
-->
<svg
  xmlns="http://www.w3.org/2000/svg"
  width="24"
  height="24"
  viewBox="0 0 24 24"
  fill="none"
  stroke="currentColor"
  stroke-width="2"
  stroke-linecap="round"
  stroke-linejoin="round"
>
  <path d="M5 9m-1 0a1 1 0 1 0 2 0a1 1 0 1 0 -2 0m1 6m-1 0a1 1 0 1 0 2 0a1 1 0 1 0 -2 0m8 -6m-1 0a1 1 0 1 0 2 0a1 1 0 1 0 -2 0m1 6m-1 0a1 1 0 1 0 2 0a1 1 0 1 0 -2 0m8 -6m-1 0a1 1 0 1 0 2 0a1 1 0 1 0 -2 0m1 6m-1 0a1 1 0 1 0 2 0a1 1 0 1 0 -2 0" />
</svg>
