<!--
tags: [music, instrument, melody, accesories]
unicode: "f4c6"
version: "1.98"
-->
<svg
  xmlns="http://www.w3.org/2000/svg"
  width="24"
  height="24"
  viewBox="0 0 24 24"
  fill="none"
  stroke="currentColor"
  stroke-width="2"
  stroke-linecap="round"
  stroke-linejoin="round"
>
  <path d="M16 18.5c2 -2.5 4 -6.5 4 -10.5c0 -2.946 -2.084 -4.157 -4.204 -4.654c-.864 -.23 -2.13 -.346 -3.796 -.346c-1.667 0 -2.932 .115 -3.796 .346c-2.12 .497 -4.204 1.708 -4.204 4.654c0 3.312 2 8 4 10.5c.297 .37 .618 .731 .963 1.081l.354 .347a3.9 3.9 0 0 0 5.364 0a14.05 14.05 0 0 0 1.319 -1.428z" />
</svg>
