<!--
category: Gestures
tags: [gesture, touch, press, phone, finger, index, forefinger, hand, mouse]
unicode: "100f1"
version: "3.27"
-->
<svg
  xmlns="http://www.w3.org/2000/svg"
  width="24"
  height="24"
  viewBox="0 0 24 24"
  fill="none"
  stroke="currentColor"
  stroke-width="2"
  stroke-linecap="round"
  stroke-linejoin="round"
>
    <path d="M8 13v-5M8.06 4.077a1.5 1.5 0 0 1 2.94 .423v2.5m0 4v1M12.063 8.065a1.5 1.5 0 0 1 1.937 1.435v.5M14.06 10.082a1.5 1.5 0 0 1 2.94 .418v1.5M17 11.5a1.5 1.5 0 0 1 3 0v4.5m-.88 3.129a6 6 0 0 1 -5.12 2.871h-2h.208a6 6 0 0 1 -5.012 -2.7l-.196 -.3c-.312 -.479 -1.407 -2.388 -3.286 -5.728a1.5 1.5 0 0 1 .536 -2.022a1.867 1.867 0 0 1 2.28 .28l1.47 1.47M3 3l18 18M4 7h-1M14 3l1 -1M15 6h1" />
</svg>
