<!--
tags: [heavy, metal, party, concert, rebel]
category: Gestures
version: "1.39"
unicode: "1f918"
-->
<svg
  xmlns="http://www.w3.org/2000/svg"
  width="24"
  height="24"
  viewBox="0 0 24 24"
  fill="none"
  stroke="currentColor"
  stroke-width="1"
  stroke-linecap="round"
  stroke-linejoin="round"
>
  <path d="M11 11.5v-1a1.5 1.5 0 0 1 3 0V12" />
  <path d="M17 12V5.5a1.5 1.5 0 0 1 3 0V16a6 6 0 0 1-6 6h-2 .2a6 6 0 0 1-5-2.7s-.8-1.1-.9-2.6c0-1.6.6-3 1.1-3.4C8 13 8 12 8 12" />
  <path d="M14 10.5a1.5 1.5 0 0 1 3 0V12m-9 0V4.5a1.5 1.5 0 0 1 3 0V12m-4.36 2.85S7.4 13.91 8 13.5c1.16-.8 2.6-.8 3-.8h4.5" />
  <path d="M15.5 12.7a1.5 1.5 0 0 1 0 3h-3.3s-.4 0-.85.13c-.8.23-.95 1.07-.65 1.47" />
</svg>
  