<!--
category: Shapes
tags: [settings, adjust, configure, gear, mechanics, tool, customize, control, function, optimize]
version: "2.28"
unicode: "fba2"
-->
<svg
  xmlns="http://www.w3.org/2000/svg"
  width="24"
  height="24"
  viewBox="0 0 24 24"
  fill="none"
  stroke="currentColor"
  stroke-width="2"
  stroke-linecap="round"
  stroke-linejoin="round"
>
    <path d="M12 20l-7.5 -7.428a5 5 0 1 1 7.5 -6.566a5 5 0 0 1 8.21 5.697M19.001 19m-2 0a2 2 0 1 0 4 0a2 2 0 1 0 -4 0M19.001 15.5v1.5M19.001 21v1.5M22.032 17.25l-1.299 .75M17.27 20l-1.3 .75M15.97 17.25l1.3 .75M20.733 20l1.3 .75" />
</svg>
