<!--
category: Shapes
tags: [settings, adjust, configure, gear, mechanics, tool, customize, control, function, optimize]
version: "2.28"
unicode: "fba2"
-->
<svg
  xmlns="http://www.w3.org/2000/svg"
  width="24"
  height="24"
  viewBox="0 0 24 24"
  fill="none"
  stroke="currentColor"
  stroke-width="2"
  stroke-linecap="round"
  stroke-linejoin="round"
>
  <path d="M12 20l-7.5 -7.428a5 5 0 1 1 7.5 -6.566a5 5 0 0 1 8.21 5.697m-1.209 7.297m-2 0a2 2 0 1 0 4 0a2 2 0 1 0 -4 0m2 -3.5v1.5m0 4v1.5m3.031 -5.25l-1.299 .75m-3.463 2l-1.3 .75m0 -3.5l1.3 .75m3.463 2l1.3 .75" />
</svg>
