<svg
  xmlns="http://www.w3.org/2000/svg"
  width="24"
  height="24"
  viewBox="0 0 24 24"
  fill="none"
  stroke="currentColor"
  stroke-width="2"
  stroke-linecap="round"
  stroke-linejoin="round"
>
  <path d="M18.1301 19.2754C17.7321 19.9754 16.9871 20.4054 16.1821 20.4004L8.89806 20.4004C8.08906 20.4004 7.34306 19.9574 6.95006 19.2424L2.68006 12.4924C2.49633 12.1577 2.4 11.7822 2.4 11.4004C2.4 11.0186 2.49633 10.643 2.68006 10.3084L6.95006 3.55839C7.14124 3.20856 7.4229 2.91651 7.76558 2.7128C8.10827 2.50909 8.4994 2.40119 8.89806 2.40039L16.1831 2.40039C16.9921 2.40039 17.7371 2.84339 18.1301 3.55839L22.1101 10.3084C22.3 10.6529 22.3997 11.04 22.3997 11.4334C22.3997 11.8268 22.3 12.2139 22.1101 12.5584L18.1301 19.3084L18.1301 19.2754Z"/>
</svg>

