<svg
  xmlns="http://www.w3.org/2000/svg"
  width="24"
  height="24"
  viewBox="0 0 24 24"
  fill="none"
  stroke="currentColor"
  stroke-width="2"
  stroke-linecap="round"
  stroke-linejoin="round"
>
  <path d="M15.9999 18.9941H21.9999"/>
  <path d="M18.9999 15.9941V21.9941"/>
  <path d="M21.7103 13.1453C21.9002 12.8008 21.9998 12.4137 21.9998 12.0203C21.9998 11.6269 21.9002 11.2398 21.7103 10.8953L17.7303 4.1453C17.3373 3.4303 16.5923 2.9873 15.7833 2.9873L8.49826 2.9873C8.0996 2.98811 7.70847 3.096 7.36578 3.29972C7.0231 3.50343 6.74144 3.79547 6.55026 4.1453L2.28026 10.8953C2.09653 11.2299 2.0002 11.6055 2.0002 11.9873C2.0002 12.3691 2.09653 12.7447 2.28026 13.0793L6.55026 19.8293C6.94326 20.5443 7.68926 20.9873 8.49826 20.9873L12 20.9873"/>
</svg>
