<svg
  xmlns="http://www.w3.org/2000/svg"
  width="24"
  height="24"
  viewBox="0 0 24 24"
  fill="none"
  stroke="currentColor"
  stroke-width="2"
  stroke-linecap="round"
  stroke-linejoin="round"
>
  <path d="M9 12H15" stroke="black"/>
  <path d="M12 9V15" stroke="black"/>
  <path d="M17.7302 19.8623C17.3322 20.5623 16.5872 20.9923 15.7822 20.9873L8.49823 20.9873C7.68923 20.9873 6.94323 20.5443 6.55023 19.8293L2.28023 13.0793C2.0965 12.7447 2.00017 12.3691 2.00017 11.9873C2.00017 11.6055 2.0965 11.2299 2.28023 10.8953L6.55023 4.1453C6.7414 3.79547 7.02306 3.50343 7.36575 3.29972C7.70844 3.096 8.09957 2.98811 8.49823 2.9873L15.7832 2.9873C16.5922 2.9873 17.3372 3.4303 17.7302 4.1453L21.7102 10.8953C21.9002 11.2398 21.9998 11.6269 21.9998 12.0203C21.9998 12.4137 21.9002 12.8008 21.7102 13.1453L17.7302 19.8953L17.7302 19.8623Z" stroke="black"/>
</svg>
