<svg
  xmlns="http://www.w3.org/2000/svg"
  width="24"
  height="24"
  viewBox="0 0 24 24"
  fill="none"
  stroke="currentColor"
  stroke-width="2"
  stroke-linecap="round"
  stroke-linejoin="round"
>
  <path d="M3 3L21 21"/>
  <path d="M7.36578 3.29972C7.70847 3.096 8.0996 2.98811 8.49826 2.9873L15.7833 2.9873C16.5923 2.9873 17.3373 3.4303 17.7303 4.1453L21.7103 10.8953C21.9002 11.2398 21.9998 11.6269 21.9998 12.0203C21.9998 12.4137 21.9002 12.8008 21.7103 13.1453L19.909 16.2002M18.2749 18.9715L17.7303 19.8953L17.7303 19.8623C17.3323 20.5623 16.5873 20.9923 15.7823 20.9873L8.49826 20.9873C7.68926 20.9873 6.94326 20.5443 6.55026 19.8293L2.28026 13.0793C2.09653 12.7447 2.0002 12.3691 2.0002 11.9873C2.0002 11.6055 2.09653 11.2299 2.28026 10.8953L5.44873 5.88659"/>
</svg>

