<!--
tags: [shape, number, digit, hexagon, numeric, numeral, count, quantity, 7]
category: Numbers
version: "1.95"
unicode: "f460"
-->
<svg
  xmlns="http://www.w3.org/2000/svg"
  width="24"
  height="24"
  viewBox="0 0 24 24"
  fill="none"
  stroke="currentColor"
  stroke-width="2"
  stroke-linecap="round"
  stroke-linejoin="round"
>
  <path d="M19.02 6.858a2 2 0 0 1 1 1.752v6.555c0 .728 -.395 1.4 -1.032 1.753l-6.017 3.844a2 2 0 0 1 -1.948 0l-6.016 -3.844a2 2 0 0 1 -1.032 -1.752v-6.556c0 -.728 .395 -1.4 1.032 -1.753l6.017 -3.582a2.062 2.062 0 0 1 2 0l6.017 3.583h-.029l.008 0" />
  <path d="M10 8h4l-2 8" />
</svg>
