<!--
category: Design
tags: [relation, above, below, status, society, important]
unicode: "f3fa"
version: "1.94"
-->
<svg
  xmlns="http://www.w3.org/2000/svg"
  width="24"
  height="24"
  viewBox="0 0 24 24"
  fill="none"
  stroke="currentColor"
  stroke-width="2"
  stroke-linecap="round"
  stroke-linejoin="round"
>
  <path d="M12 5m-2 0a2 2 0 1 0 4 0a2 2 0 1 0 -4 0m-5 14m-2 0a2 2 0 1 0 4 0a2 2 0 1 0 -4 0m14.585 -1.413a2 2 0 0 0 2.813 2.843m-13.898 -2.93l5.5 -4.5l5.5 4.5m-5.5 -10.5v1m0 4v1m-9 -10l18 18" />
</svg>
