<!--
tags: [relation, above, below, status, society, important]
category: Design
version: "1.39"
unicode: "ee9e"
-->
<svg
  xmlns="http://www.w3.org/2000/svg"
  width="24"
  height="24"
  viewBox="0 0 24 24"
  fill="none"
  stroke="currentColor"
  stroke-width="2"
  stroke-linecap="round"
  stroke-linejoin="round"
>
  <path d="M12 5m-2 0a2 2 0 1 0 4 0a2 2 0 1 0 -4 0m-5 14m-2 0a2 2 0 1 0 4 0a2 2 0 1 0 -4 0m16 0m-2 0a2 2 0 1 0 4 0a2 2 0 1 0 -4 0m-10.5 -1.5l5.5 -4.5l5.5 4.5m-5.5 -10.5l0 6" />
</svg>
