<!--
category: Buildings
tags: [home, lock, security, protected, house, access, secure]
-->
<svg
  xmlns="http://www.w3.org/2000/svg"
  width="24"
  height="24"
  viewBox="0 0 24 24"
  fill="none"
  stroke="currentColor"
  stroke-width="2"
  stroke-linecap="round"
  stroke-linejoin="round"
>
  <path d="M5 12h-2l9 -9l8 8" />
  <path d="M5 12v7a2 2 0 0 0 2 2h6" />
  <path d="M9 21v-6a2 2 0 0 1 2 -2h2c.688 0 1.294 .347 1.654 .875" />
  <path d="M16.97 18.8c0 -.212 .067 -.416 .184 -.566a.56 .56 0 0 1 .442 -.234h3.75c.165 0 .324 .084 .442 .234s.183 .354 .183 .566v2.4a.93 .93 0 0 1 -.183 .566a.56 .56 0 0 1 -.442 .234h-3.75a.56 .56 0 0 1 -.442 -.234a.93 .93 0 0 1 -.183 -.566z" />
  <path d="M18 18v-1.5a1.5 1.5 0 1 1 3 0v1.5" />
</svg>
