<!--
category: Buildings
tags: [home, lock, security, protected, house, access, secure]
unicode: "10204"
version: "3.40"
-->
<svg
  xmlns="http://www.w3.org/2000/svg"
  width="24"
  height="24"
  viewBox="0 0 24 24"
  fill="none"
  stroke="currentColor"
  stroke-width="2"
  stroke-linecap="round"
  stroke-linejoin="round"
>
  <path d="M5 12h-2l9 -9l8 8" />
  <path d="M5 12v7a2 2 0 0 0 2 2h6" />
  <path d="M9 21v-6a2 2 0 0 1 2 -2h2c.688 0 1.294 .347 1.654 .875" />
  <path d="M17 19a1 1 0 0 1 1 -1h3a1 1 0 0 1 1 1v2a1 1 0 0 1 -1 1h-3a1 1 0 0 1 -1 -1v-2"  />
  <path d="M18 18v-1.5a1.5 1.5 0 1 1 3 0v1.5" />
</svg>
