<!--
tags: [address, technology, smart, internet, home, link, house, main, architecture, structure]
category: Buildings
version: "1.88"
unicode: "f354"
-->
<svg
  xmlns="http://www.w3.org/2000/svg"
  width="24"
  height="24"
  viewBox="0 0 24 24"
  fill="none"
  stroke="currentColor"
  stroke-width="2"
  stroke-linecap="round"
  stroke-linejoin="round"
>
  <path d="M20.085 11.085l-8.085 -8.085l-9 9h2v7a2 2 0 0 0 2 2h4.5" />
  <path d="M9 21v-6a2 2 0 0 1 2 -2h2a2 2 0 0 1 1.807 1.143" />
  <path d="M20 21a1 1 0 1 0 2 0a1 1 0 1 0 -2 0" />
  <path d="M20 16a1 1 0 1 0 2 0a1 1 0 1 0 -2 0" />
  <path d="M15 19a1 1 0 1 0 2 0a1 1 0 1 0 -2 0" />
  <path d="M21 16l-5 3l5 2" />
</svg>
