<!--
category: Buildings
tags: [food, reception, accommodation, room, bell, hotel, service]
version: "1.46"
unicode: "ef80"
-->
<svg
  xmlns="http://www.w3.org/2000/svg"
  width="24"
  height="24"
  viewBox="0 0 24 24"
  fill="none"
  stroke="currentColor"
  stroke-width="2"
  stroke-linecap="round"
  stroke-linejoin="round"
>
  <path d="M8.5 10a1.5 1.5 0 0 1 -1.5 -1.5a5.5 5.5 0 0 1 11 0v10.5a2 2 0 0 1 -2 2h-7a2 2 0 0 1 -2 -2v-2c0 -1.38 .71 -2.444 1.88 -3.175l4.424 -2.765c1.055 -.66 1.696 -1.316 1.696 -2.56a2.5 2.5 0 1 0 -5 0a1.5 1.5 0 0 1 -1.5 1.5" />
</svg>
