<!--
tags: [clock, time, day, support, service]
unicode: "f5e7"
version: "1.113"
category: System
-->
<svg
  xmlns="http://www.w3.org/2000/svg"
  width="24"
  height="24"
  viewBox="0 0 24 24"
  fill="none"
  stroke="currentColor"
  stroke-width="2"
  stroke-linecap="round"
  stroke-linejoin="round"
>
  <path d="M4 13c.325 2.532 1.881 4.781 4 6m12 -8a8.1 8.1 0 0 0 -15.5 -2m-.5 -4v4h4m4 6h2a1 1 0 0 1 1 1v1a1 1 0 0 1 -1 1h-1a1 1 0 0 0 -1 1v1a1 1 0 0 0 1 1h2m3 -6v2a1 1 0 0 0 1 1h1m1 -3v6" />
</svg>
