<!--
category: Computers
tags: [send, upload, submit, broadcast, network, disable, halt, down, disconnect, block]
unicode: "100e1"
version: "3.26"
-->
<svg
  xmlns="http://www.w3.org/2000/svg"
  width="24"
  height="24"
  viewBox="0 0 24 24"
  fill="none"
  stroke="currentColor"
  stroke-width="2"
  stroke-linecap="round"
  stroke-linejoin="round"
>
  <path d="M3 12h2a2 2 0 1 0 0 -4h-2v8" />
  <path d="M12 8a2 2 0 0 1 2 2m0 4a2 2 0 1 1 -4 0v-4" />
  <path d="M20 16a1 1 0 0 0 1 -1v-2a1 1 0 0 0 -1 -1h-2a1 1 0 0 1 -1 -1v-2a1 1 0 0 1 1 -1h2a1 1 0 0 1 1 1" />
  <path d="M3 3l18 18" />
</svg>
