<!--
tags: [geometry, polyhedron, twenty, faces, shapes, 3d, solid, structure, form, multisided]
unicode: "fec6"
version: "3.3"
-->
<svg
  xmlns="http://www.w3.org/2000/svg"
  width="24"
  height="24"
  viewBox="0 0 24 24"
  fill="none"
  stroke="currentColor"
  stroke-width="2"
  stroke-linecap="round"
  stroke-linejoin="round"
>
  <path d="M21 8.007v7.986a2 2 0 0 1 -1.006 1.735l-7 4.007a2 2 0 0 1 -1.988 0l-7 -4.007a2 2 0 0 1 -1.006 -1.735v-7.986a2 2 0 0 1 1.006 -1.735l7 -4.007a2 2 0 0 1 1.988 0l7 4.007a2 2 0 0 1 1.006 1.735m-17.71 -1.037l4.21 2.03m13.21 -2.03l-4.21 2.03m4.2 8h-17.4m8.46 -14.97l-4.26 6.97l-4.3 7.84m9.04 -14.81q 2.797 4.44 4.26 6.97t 4.3 7.84m-8.8 .16l-4.5 -8h9zm0 0v5" />
</svg>
