<!--
tags: [photo, snapshot, visual, frame, layer, embed, nest, overlay, merge, media]
version: "2.47"
unicode: "fd9f"
-->
<svg
  xmlns="http://www.w3.org/2000/svg"
  width="24"
  height="24"
  viewBox="0 0 24 24"
  fill="none"
  stroke="currentColor"
  stroke-width="2"
  stroke-linecap="round"
  stroke-linejoin="round"
>
  <path d="M13 15c-2 0 -5 1 -5 5m-4 -9m0 2a2 2 0 0 1 2 -2h5a2 2 0 0 1 2 2v5a2 2 0 0 1 -2 2h-5a2 2 0 0 1 -2 -2zm0 -6v-2a1 1 0 0 1 1 -1h2m4 0h2m4 0h2a1 1 0 0 1 1 1v2m0 4v2m0 4v2a1 1 0 0 1 -1 1h-2" />
</svg>
