<!--
category: Math
tags: [endless, eternity, continuum, time]
unicode: "f3fe"
version: "1.94"
-->
<svg
  xmlns="http://www.w3.org/2000/svg"
  width="24"
  height="24"
  viewBox="0 0 24 24"
  fill="none"
  stroke="currentColor"
  stroke-width="2"
  stroke-linecap="round"
  stroke-linejoin="round"
>
  <path d="M8.165 8.174a4 4 0 0 0 -5.166 3.826a4 4 0 0 0 6.829 2.828a10 10 0 0 0 2.172 -2.828m1.677 -2.347a10 10 0 0 1 .495 -.481a4 4 0 1 1 5.129 6.1m-3.521 .537a4 4 0 0 1 -1.608 -.981a10 10 0 0 1 -2.172 -2.828" />
  <path d="M3 3l18 18" />
</svg>
