<!--
category: Vehicles
tags: [jetski, jet-ski, pwc, watercraft, speed, water, sea, lake, summer, transport]
-->
<svg
  xmlns="http://www.w3.org/2000/svg"
  width="24"
  height="24"
  viewBox="0 0 24 24"
  fill="none"
  stroke="currentColor"
  stroke-width="2"
  stroke-linecap="round"
  stroke-linejoin="round"
>
  <path d="M10 5h1.4a1 1 0 0 1 .882 .53l1.718 3.22" />
  <path d="M3.06 15.239l.561 2.246a2 2 0 0 0 1.94 1.515h7.439a10 10 0 0 0 8 -4c0 -6 -5 -8 -5 -8c-1.889 2.518 -5.852 4 -9 4h-2a2 2 0 0 0 -2 2v1.754a2 2 0 0 0 .06 .485" />
  <path d="M3 15h18" />
</svg>
