<!--
tags: [water, adventure, river, camp, sport, summer, activity]
category: Sport
version: "1.68"
unicode: "f1d6"
-->
<svg
  xmlns="http://www.w3.org/2000/svg"
  width="24"
  height="24"
  viewBox="0 0 24 24"
  fill="none"
  stroke="currentColor"
  stroke-width="2"
  stroke-linecap="round"
  stroke-linejoin="round"
>
  <path d="M6.414 6.414a2 2 0 0 0 0 -2.828l-1.414 -1.414l-2.828 2.828l1.414 1.414a2 2 0 0 0 2.828 0zm11.172 11.172a2 2 0 0 0 0 2.828l1.414 1.414l2.828 -2.828l-1.414 -1.414a2 2 0 0 0 -2.828 0zm-11.086 -11.086l11 11m4.5 -15c-9.983 2.601 -17.627 7.952 -20 19.5c9.983 -2.601 17.627 -7.952 20 -19.5zm-15.5 10l5 5m1 -11l5 5" />
</svg>
