<!--
tags: [animation, shape, design, align, keyframes, content, entertainment, multimedia, broadcast, audio]
category: Media
version: "1.108"
unicode: "f585"
-->
<svg
  xmlns="http://www.w3.org/2000/svg"
  width="24"
  height="24"
  viewBox="0 0 24 24"
  fill="none"
  stroke="currentColor"
  stroke-width="2"
  stroke-linecap="round"
  stroke-linejoin="round"
>
  <path d="M9.225 18.412a1.595 1.595 0 0 1 -1.225 .588c-.468 0 -.914 -.214 -1.225 -.588l-4.361 -5.248a1.844 1.844 0 0 1 0 -2.328l4.361 -5.248a1.595 1.595 0 0 1 1.225 -.588c.468 0 .914 .214 1.225 .588l4.361 5.248a1.844 1.844 0 0 1 0 2.328l-4.361 5.248" />
  <path d="M17 5l4.586 5.836a1.844 1.844 0 0 1 0 2.328l-4.586 5.836" />
  <path d="M13 5l4.586 5.836a1.844 1.844 0 0 1 0 2.328l-4.586 5.836" />
</svg>
