<!--
tags: [victory, achievement, winner, honor, prize, gala, celebrate, ornament, leaf, garland]
unicode: "ff48"
version: "3.10"
-->
<svg
  xmlns="http://www.w3.org/2000/svg"
  width="24"
  height="24"
  viewBox="0 0 24 24"
  fill="none"
  stroke="currentColor"
  stroke-width="2"
  stroke-linecap="round"
  stroke-linejoin="round"
>
  <path d="M6.436 8a8.6 8.6 0 0 0 -.436 2.727c0 4.017 2.686 7.273 6 7.273s6 -3.256 6 -7.273a8.6 8.6 0 0 0 -.436 -2.727m-3.064 13s-.682 -3 -2.5 -3s-2.5 3 -2.5 3m9.02 -15.77c.292 1.666 -1.02 2.77 -1.02 2.77s-1.603 -.563 -1.895 -2.23c-.292 -1.666 1.02 -2.77 1.02 -2.77s1.603 .563 1.895 2.23m2.574 6.91c-1.281 1.266 -3.016 .76 -3.016 .76s-.454 -1.772 .828 -3.04c1.28 -1.266 3.016 -.76 3.016 -.76s.454 1.772 -.828 3.04m-3.36 6.686c-1.5 -.575 -1.734 -2.19 -1.734 -2.19s1.267 -1.038 2.767 -.462c1.5 .575 1.733 2.19 1.733 2.19s-1.267 1.038 -2.767 .462m-11.466 0c1.5 -.575 1.733 -2.19 1.733 -2.19s-1.267 -1.038 -2.767 -.462c-1.5 .575 -1.733 2.19 -1.733 2.19s1.267 1.038 2.767 .462m-3.361 -6.686c1.281 1.266 3.016 .76 3.016 .76s.454 -1.772 -.828 -3.04c-1.281 -1.265 -3.016 -.76 -3.016 -.76s-.454 1.772 .828 3.04m2.574 -6.91c-.292 1.666 1.02 2.77 1.02 2.77s1.603 -.563 1.895 -2.23c.292 -1.666 -1.02 -2.77 -1.02 -2.77s-1.603 .563 -1.895 2.23m5.52 3.77l1 -1v6" />
</svg>
