<!--
tags: [stack, arrange, pile, base, underneath, beneath, select, bottom, sort]
category: Design
unicode: "feaa"
version: "3.1"
-->
<svg
  xmlns="http://www.w3.org/2000/svg"
  width="24"
  height="24"
  viewBox="0 0 24 24"
  fill="none"
  stroke="currentColor"
  stroke-width="2"
  stroke-linecap="round"
  stroke-linejoin="round"
>
  <path d="M4 14.5l4 -4m1.496 9.5l4.004 -4zm-4.91 -.586l3.914 -3.914m-.5 -9.5a2 2 0 0 1 2 -2h8a2 2 0 0 1 2 2v8a2 2 0 0 1 -2 2h-8a2 2 0 0 1 -2 -2zm8 10v2a2 2 0 0 1 -2 2h-8a2 2 0 0 1 -2 -2v-8a2 2 0 0 1 2 -2h2" />
</svg>
