<!--
tags: [stack, arrange, pile, order, sort, group, select, organize, choose, layout]
category: Design
unicode: "fea9"
version: "3.1"
-->
<svg
  xmlns="http://www.w3.org/2000/svg"
  width="24"
  height="24"
  viewBox="0 0 24 24"
  fill="none"
  stroke="currentColor"
  stroke-width="2"
  stroke-linecap="round"
  stroke-linejoin="round"
>
  <path d="M8 10.5l6.492 -6.492m-.996 11.992l6.504 -6.504zm-4.91 -.586l10.827 -10.827m-11.413 1.413a2 2 0 0 1 2 -2h8a2 2 0 0 1 2 2v8a2 2 0 0 1 -2 2h-8a2 2 0 0 1 -2 -2zm8 10v2a2 2 0 0 1 -2 2h-8a2 2 0 0 1 -2 -2v-8a2 2 0 0 1 2 -2h2" />
</svg>
