<!--
tags: [position, element, design, board, processing, task]
category: Design
version: "1.11"
unicode: "ec3f"
-->
<svg
  xmlns="http://www.w3.org/2000/svg"
  width="24"
  height="24"
  viewBox="0 0 24 24"
  fill="none"
  stroke="currentColor"
  stroke-width="2"
  stroke-linecap="round"
  stroke-linejoin="round"
>
  <path d="M4 4l6 0" />
  <path d="M14 4l6 0" />
  <path d="M4 8m0 2a2 2 0 0 1 2 -2h2a2 2 0 0 1 2 2v8a2 2 0 0 1 -2 2h-2a2 2 0 0 1 -2 -2z" />
  <path d="M14 8m0 2a2 2 0 0 1 2 -2h2a2 2 0 0 1 2 2v2a2 2 0 0 1 -2 2h-2a2 2 0 0 1 -2 -2z" />
</svg>
