<!--
tags: [grid, view, display, page, masonry]
category: Design
version: "1.55"
unicode: "f02c"
-->
<svg
  xmlns="http://www.w3.org/2000/svg"
  width="24"
  height="24"
  viewBox="0 0 24 24"
  fill="none"
  stroke="currentColor"
  stroke-width="2"
  stroke-linecap="round"
  stroke-linejoin="round"
>
  <path d="M5 4h4a1 1 0 0 1 1 1v6a1 1 0 0 1 -1 1h-4a1 1 0 0 1 -1 -1v-6a1 1 0 0 1 1 -1" />
  <path d="M5 16h4a1 1 0 0 1 1 1v2a1 1 0 0 1 -1 1h-4a1 1 0 0 1 -1 -1v-2a1 1 0 0 1 1 -1" />
  <path d="M15 12h4a1 1 0 0 1 1 1v6a1 1 0 0 1 -1 1h-4a1 1 0 0 1 -1 -1v-6a1 1 0 0 1 1 -1" />
  <path d="M15 4h4a1 1 0 0 1 1 1v2a1 1 0 0 1 -1 1h-4a1 1 0 0 1 -1 -1v-2a1 1 0 0 1 1 -1" />
</svg>
