<!--
tags: [position, design, doable, layout, list, creative, artistic, visual, aesthetic, style]
category: Design
version: "1.8"
unicode: "ec14"
-->
<svg
  xmlns="http://www.w3.org/2000/svg"
  width="24"
  height="24"
  viewBox="0 0 24 24"
  fill="none"
  stroke="currentColor"
  stroke-width="2"
  stroke-linecap="round"
  stroke-linejoin="round"
>
  <path d="M4 6a2 2 0 0 1 2 -2h12a2 2 0 0 1 2 2v2a2 2 0 0 1 -2 2h-12a2 2 0 0 1 -2 -2l0 -2" />
  <path d="M4 16a2 2 0 0 1 2 -2h12a2 2 0 0 1 2 2v2a2 2 0 0 1 -2 2h-12a2 2 0 0 1 -2 -2l0 -2" />
</svg>
