<!--
tags: [authorisation, permission, consent, permit, document, agree]
version: "1.66"
unicode: "f153"
-->
<svg
  xmlns="http://www.w3.org/2000/svg"
  width="24"
  height="24"
  viewBox="0 0 24 24"
  fill="none"
  stroke="currentColor"
  stroke-width="2"
  stroke-linecap="round"
  stroke-linejoin="round"
>
  <path d="M15 21h-9a3 3 0 0 1 -3 -3v-1h10v2a2 2 0 1 0 4 0v-2m0 -4v-8a2 2 0 1 1 2 2h-2m2 -4h-11a3 3 0 0 0 -.864 .126m-2.014 2.025a3 3 0 0 0 -.122 .849v11m6 -10h2m-4 4h2m-8 -8l18 18" />
</svg>
