<!--
category: Photography
tags: [capture, photo, movement, sound, memory, image, camera]
unicode: "f403"
version: "1.94"
-->
<svg
  xmlns="http://www.w3.org/2000/svg"
  width="24"
  height="24"
  viewBox="0 0 24 24"
  fill="none"
  stroke="currentColor"
  stroke-width="2"
  stroke-linecap="round"
  stroke-linejoin="round"
>
    <path d="M11.296 11.29a1 1 0 1 0 1.414 1.415M8.473 8.456a5 5 0 1 0 7.076 7.066m1.365 -2.591a5 5 0 0 0 -5.807 -5.851M15.9 20.11v.01M19.04 17.61v.01M20.77 14v.01M20.77 10v.01M19.04 6.39v.01M15.9 3.89v.01M12 3v.01M8.1 3.89v.01M4.96 6.39v.01M3.23 10v.01M3.23 14v.01M4.96 17.61v.01M8.1 20.11v.01M12 21v.01M3 3l18 18" />
</svg>
