<!--
category: System
tags: [add, increase, additional, more, expand, extra, plus, growth, gain, increment]
version: "2.10"
unicode: "f930"
-->
<svg
  xmlns="http://www.w3.org/2000/svg"
  width="24"
  height="24"
  viewBox="0 0 24 24"
  fill="none"
  stroke="currentColor"
  stroke-width="2"
  stroke-linecap="round"
  stroke-linejoin="round"
>
  <path d="M12.5 21h-5.5a2 2 0 0 1 -2 -2v-6a2 2 0 0 1 2 -2h10a2 2 0 0 1 1.74 1.012m-7.74 3.988a1 1 0 1 0 2 0a1 1 0 0 0 -2 0m-3 -5v-4a4 4 0 1 1 8 0v4m0 8h6m-3 -3v6" />
</svg>
