<!--
category: System
tags: [revoke, remove, undo, void, nullify, abort, cease, delete, stop, end]
version: "2.10"
unicode: "f925"
-->
<svg
  xmlns="http://www.w3.org/2000/svg"
  width="24"
  height="24"
  viewBox="0 0 24 24"
  fill="none"
  stroke="currentColor"
  stroke-width="2"
  stroke-linecap="round"
  stroke-linejoin="round"
>
  <path d="M12.5 21h-5.5a2 2 0 0 1 -2 -2v-6a2 2 0 0 1 2 -2h10a2 2 0 0 1 1.749 1.028m-7.749 3.972a1 1 0 1 0 2 0a1 1 0 0 0 -2 0m-3 -5v-4a4 4 0 1 1 8 0v4m3 8m-3 0a3 3 0 1 0 6 0a3 3 0 1 0 -6 0m1 2l4 -4" />
</svg>
