<!--
category: System
tags: [cryptocurrency, blockchain, secure, wallet, token, crypto, safety, coin, digital]
unicode: "ff37"
version: "3.9"
-->
<svg
  xmlns="http://www.w3.org/2000/svg"
  width="24"
  height="24"
  viewBox="0 0 24 24"
  fill="none"
  stroke="currentColor"
  stroke-width="2"
  stroke-linecap="round"
  stroke-linejoin="round"
>
  <path d="M17 21v-6m2 0v-1.5m0 9v-1.5m-2 -3h3m-1 0h.5a1.5 1.5 0 0 1 0 3h-3.5m3 -3h.5a1.5 1.5 0 0 0 0 -3h-3.5" />
  <path d="M13 21h-6a2 2 0 0 1 -2 -2v-6a2 2 0 0 1 2 -2h10" />
  <path d="M11 16a1 1 0 1 0 2 0a1 1 0 0 0 -2 0" />
  <path d="M8 11v-4a4 4 0 1 1 8 0v4" />
</svg>
