<!--
category: System
tags: [security, password, secure, unprotected]
version: "1.0"
unicode: "eae1"
-->
<svg
  xmlns="http://www.w3.org/2000/svg"
  width="24"
  height="24"
  viewBox="0 0 24 24"
  fill="none"
  stroke="currentColor"
  stroke-width="2"
  stroke-linecap="round"
  stroke-linejoin="round"
>
  <path d="M5 11m0 2a2 2 0 0 1 2 -2h10a2 2 0 0 1 2 2v6a2 2 0 0 1 -2 2h-10a2 2 0 0 1 -2 -2z" />
  <path d="M12 16m-1 0a1 1 0 1 0 2 0a1 1 0 1 0 -2 0" />
  <path d="M8 11v-5a4 4 0 0 1 8 0" />
</svg>
