<!--
tags: [security, secure, locked, password, shape, safe, lock, square, rounded, private]
category: System
version: "1.117"
unicode: "f636"
-->
<svg
  xmlns="http://www.w3.org/2000/svg"
  width="24"
  height="24"
  viewBox="0 0 24 24"
  fill="none"
  stroke="currentColor"
  stroke-width="2"
  stroke-linecap="round"
  stroke-linejoin="round"
>
  <path d="m12 3c7.2 0 9 1.8 9 9 0 7.2-1.8 9-9 9-7.2 0-9-1.8-9-9 0-7.2 1.8-9 9-9" />
  <path d="M8 11m0 1a1 1 0 0 1 1 -1h6a1 1 0 0 1 1 1v3a1 1 0 0 1 -1 1h-6a1 1 0 0 1 -1 -1z" />
  <path d="M10 11v-2a2 2 0 1 1 4 0v2" />
</svg>
