<!--
category: System
tags: [secure, code, number, access, key, protection, guard, password, entry, lock]
version: "2.10"
unicode: "f92f"
-->
<svg
  xmlns="http://www.w3.org/2000/svg"
  width="24"
  height="24"
  viewBox="0 0 24 24"
  fill="none"
  stroke="currentColor"
  stroke-width="2"
  stroke-linecap="round"
  stroke-linejoin="round"
>
  <path d="M12.5 21h-5.5a2 2 0 0 1 -2 -2v-6a2 2 0 0 1 2 -2h10c.24 0 .47 .042 .683 .12m-6.683 4.88a1 1 0 1 0 2 0a1 1 0 0 0 -2 0m-3 -5v-4a4 4 0 1 1 8 0v4m5.121 9.121a3 3 0 1 0 -4.242 0c.418 .419 1.125 1.045 2.121 1.879c1.051 -.89 1.759 -1.516 2.121 -1.879zm-2.121 -2.121v.01" />
</svg>
