<!--
category: System
tags: [distribute, send, publish, post, connect, spread, transfer, partake, give, circulate]
version: "2.10"
unicode: "f933"
-->
<svg
  xmlns="http://www.w3.org/2000/svg"
  width="24"
  height="24"
  viewBox="0 0 24 24"
  fill="none"
  stroke="currentColor"
  stroke-width="2"
  stroke-linecap="round"
  stroke-linejoin="round"
>
  <path d="M11 16a1 1 0 1 0 2 0a1 1 0 0 0 -2 0" />
  <path d="M12 21h-5a2 2 0 0 1 -2 -2v-6a2 2 0 0 1 2 -2h10a2 2 0 0 1 2 2" />
  <path d="M8 11v-4a4 4 0 1 1 8 0v4" />
  <path d="M16 22l5 -5" />
  <path d="M21 21.5v-4.5h-4.5" />
</svg>
