<!--
category: System
tags: [encrypt, decrypt, cipher, password, secure, protect, key, pin, safeguard, access]
version: "2.10"
unicode: "f927"
-->
<svg
  xmlns="http://www.w3.org/2000/svg"
  width="24"
  height="24"
  viewBox="0 0 24 24"
  fill="none"
  stroke="currentColor"
  stroke-width="2"
  stroke-linecap="round"
  stroke-linejoin="round"
>
  <path d="M11.5 21h-4.5a2 2 0 0 1 -2 -2v-6a2 2 0 0 1 2 -2h10a2 2 0 0 1 2 2m-8 3a1 1 0 1 0 2 0a1 1 0 0 0 -2 0m-3 -5v-4a4 4 0 1 1 8 0v4m4 10l2 -2l-2 -2m-3 0l-2 2l2 2" />
</svg>
