<!--
tags: [security, password, secure, lock, private, control, operation, protected, closed, function]
category: System
version: "1.0"
unicode: "eae2"
-->
<svg
  xmlns="http://www.w3.org/2000/svg"
  width="24"
  height="24"
  viewBox="0 0 24 24"
  fill="none"
  stroke="currentColor"
  stroke-width="2"
  stroke-linecap="round"
  stroke-linejoin="round"
>
  <path d="M5 13a2 2 0 0 1 2 -2h10a2 2 0 0 1 2 2v6a2 2 0 0 1 -2 2h-10a2 2 0 0 1 -2 -2v-6" />
  <path d="M11 16a1 1 0 1 0 2 0a1 1 0 0 0 -2 0" />
  <path d="M8 11v-4a4 4 0 1 1 8 0v4" />
</svg>
