<!--
tags: [travel, vacation, suitcase, bag, holiday, baggage]
version: "1.66"
unicode: "f158"
-->
<svg
  xmlns="http://www.w3.org/2000/svg"
  width="24"
  height="24"
  viewBox="0 0 24 24"
  fill="none"
  stroke="currentColor"
  stroke-width="2"
  stroke-linecap="round"
  stroke-linejoin="round"
>
  <path d="M10 6h6a2 2 0 0 1 2 2v6m0 4a2 2 0 0 1 -2 2h-8a2 2 0 0 1 -2 -2v-10c0 -.546 .218 -1.04 .573 -1.4" />
  <path d="M9 5a2 2 0 0 1 2 -2h2a2 2 0 0 1 2 2v1" />
  <path d="M6 10h4m4 0h4" />
  <path d="M6 16h10" />
  <path d="M9 20v1" />
  <path d="M15 20v1" />
  <path d="M3 3l18 18" />
</svg>
