<!--
category: Design
tags: [magnetic field, pole, iron, attract, magnet, off, disabled, inactive]
version: "1.66"
unicode: "f159"
-->
<svg
  xmlns="http://www.w3.org/2000/svg"
  width="24"
  height="24"
  viewBox="0 0 24 24"
  fill="none"
  stroke="currentColor"
  stroke-width="2"
  stroke-linecap="round"
  stroke-linejoin="round"
>
  <path d="M7 3a2 2 0 0 1 2 2m0 4v4a3 3 0 0 0 5.552 1.578m.448 -3.578v-6a2 2 0 0 1 2 -2h1a2 2 0 0 1 2 2v8a7.99 7.99 0 0 1 -.424 2.577m-1.463 2.584a8 8 0 0 1 -14.113 -5.161v-8c0 -.297 .065 -.58 .181 -.833" />
  <path d="M4 8h4" />
  <path d="M15 8h4" />
  <path d="M3 3l18 18" />
</svg>
