<!--
tags: [car, vehicle, torque, transmission, mechanics, motor, engine]
version: "1.33"
unicode: "ed7b"
-->
<svg
  xmlns="http://www.w3.org/2000/svg"
  width="24"
  height="24"
  viewBox="0 0 24 24"
  fill="none"
  stroke="currentColor"
  stroke-width="2"
  stroke-linecap="round"
  stroke-linejoin="round"
>
  <path d="M5 6m-2 0a2 2 0 1 0 4 0a2 2 0 1 0 -4 0m9 0m-2 0a2 2 0 1 0 4 0a2 2 0 1 0 -4 0m9 0m-2 0a2 2 0 1 0 4 0a2 2 0 1 0 -4 0m-12 12m-2 0a2 2 0 1 0 4 0a2 2 0 1 0 -4 0m9 0m-2 0a2 2 0 1 0 4 0a2 2 0 1 0 -4 0m-5 -10l0 8m7 -8l0 8m7 -8v2a2 2 0 0 1 -2 2h-12" />
</svg>
