<!--
tags: [sign, hospital, help, indication, medical, cross, off, location, navigation, disabled]
category: Map
version: "1.66"
unicode: "f160"
-->
<svg
  xmlns="http://www.w3.org/2000/svg"
  width="24"
  height="24"
  viewBox="0 0 24 24"
  fill="none"
  stroke="currentColor"
  stroke-width="2"
  stroke-linecap="round"
  stroke-linejoin="round"
>
  <path d="M17.928 17.733l-.574 -.331l-3.354 -1.938v4.536a1 1 0 0 1 -1 1h-2a1 1 0 0 1 -1 -1v-4.536l-3.928 2.268a1 1 0 0 1 -1.366 -.366l-1 -1.732a1 1 0 0 1 .366 -1.366l3.927 -2.268l-3.927 -2.268a1 1 0 0 1 -.366 -1.366l1 -1.732a1 1 0 0 1 1.366 -.366l.333 .192m3.595 -.46v-2a1 1 0 0 1 1 -1h2a1 1 0 0 1 1 1v4.535l3.928 -2.267a1 1 0 0 1 1.366 .366l1 1.732a1 1 0 0 1 -.366 1.366l-3.927 2.268l3.927 2.269a1 1 0 0 1 .366 1.366l-.24 .416" />
  <path d="M3 3l18 18" />
</svg>
