<!--
category: Communication
tags: [abort, stop, dismiss, terminate, reject, halt, void, cease, cancelation, deny]
version: "2.10"
unicode: "f96e"
-->
<svg
  xmlns="http://www.w3.org/2000/svg"
  width="24"
  height="24"
  viewBox="0 0 24 24"
  fill="none"
  stroke="currentColor"
  stroke-width="2"
  stroke-linecap="round"
  stroke-linejoin="round"
>
  <path d="M8 9h8m-8 4h6m-2.005 5.603l-3.995 2.397v-3h-2a3 3 0 0 1 -3 -3v-8a3 3 0 0 1 3 -3h12a3 3 0 0 1 3 3v5.5m-2 6.5m-3 0a3 3 0 1 0 6 0a3 3 0 1 0 -6 0m1 2l4 -4" />
</svg>
