<!--
category: Communication
tags: [identity, member, person, individual, participant, customer, viewer, visitor, client, account]
unicode: "fec4"
version: "3.3"
-->
<svg
  xmlns="http://www.w3.org/2000/svg"
  width="24"
  height="24"
  viewBox="0 0 24 24"
  fill="none"
  stroke="currentColor"
  stroke-width="2"
  stroke-linecap="round"
  stroke-linejoin="round"
>
  <path d="M13 18l-5 3v-3h-2a3 3 0 0 1 -3 -3v-8a3 3 0 0 1 3 -3h12a3 3 0 0 1 3 3v4.5" />
  <path d="M17 17a2 2 0 1 0 4 0a2 2 0 1 0 -4 0" />
  <path d="M22 22a2 2 0 0 0 -2 -2h-2a2 2 0 0 0 -2 2" />
</svg>
