<!--
category: Communication
tags: [find, look, explore, seek, scan, discover, locate, probe, inspect, inquire]
version: "2.10"
unicode: "f969"
-->
<svg
  xmlns="http://www.w3.org/2000/svg"
  width="24"
  height="24"
  viewBox="0 0 24 24"
  fill="none"
  stroke="currentColor"
  stroke-width="2"
  stroke-linecap="round"
  stroke-linejoin="round"
>
  <path d="M8 9h8m-8 4h5m-1 8l-.5 -.5l-2.5 -2.5h-3a3 3 0 0 1 -3 -3v-8a3 3 0 0 1 3 -3h12a3 3 0 0 1 3 3v4.5m-3 6.5m-3 0a3 3 0 1 0 6 0a3 3 0 1 0 -6 0m5.2 2.2l1.8 1.8" />
</svg>
