<!--
tags: [person, individual, member, participant, profile, chat, communication, dialogue, identity, actor]
unicode: "fec5"
version: "3.3"
-->
<svg
  xmlns="http://www.w3.org/2000/svg"
  width="24"
  height="24"
  viewBox="0 0 24 24"
  fill="none"
  stroke="currentColor"
  stroke-width="2"
  stroke-linecap="round"
  stroke-linejoin="round"
>
  <path d="M19 17m-2 0a2 2 0 1 0 4 0a2 2 0 1 0 -4 0m5 5a2 2 0 0 0 -2 -2h-2a2 2 0 0 0 -2 2m-3.546 -2.03a9.9 9.9 0 0 1 -4.754 -.97l-4.7 1l1.3 -3.9c-2.324 -3.437 -1.426 -7.872 2.1 -10.374c3.526 -2.501 8.59 -2.296 11.845 .48c1.667 1.423 2.596 3.294 2.747 5.216" />
</svg>
