<!--
tags: [area, size, measure, dimensions, space, extent, region, scope, expanse, measurement]
version: "2.45"
unicode: "fd7d"
-->
<svg
  xmlns="http://www.w3.org/2000/svg"
  width="24"
  height="24"
  viewBox="0 0 24 24"
  fill="none"
  stroke="currentColor"
  stroke-width="2"
  stroke-linecap="round"
  stroke-linejoin="round"
>
  <path d="M17 5h2a1 1 0 0 1 1 1v1a1 1 0 0 1 -1 1h-1a1 1 0 0 0 -1 1v1a1 1 0 0 0 1 1h2m-16 1v6m0 -4a2 2 0 0 1 2 -2h.5a2.5 2.5 0 0 1 2.5 2.5v3.5m0 -2.5v-1a2.5 2.5 0 1 1 5 0v3.5" />
</svg>
