<!--
tags: [sustainable, ecofriendly, responsible, ethical, green, environment, quality, dining, food, cuisine]
category: Food
version: "2.23"
unicode: "faea"
-->
<svg
  xmlns="http://www.w3.org/2000/svg"
  width="24"
  height="24"
  viewBox="0 0 24 24"
  fill="none"
  stroke="currentColor"
  stroke-width="2"
  stroke-linecap="round"
  stroke-linejoin="round"
>
  <path d="M12.432 17.949c.863 1.544 2.589 1.976 4.13 1.112c1.54 -.865 1.972 -2.594 1.048 -4.138c-.185 -.309 -.309 -.556 -.494 -.74c.247 .06 .555 .06 .925 .06c1.726 0 2.959 -1.234 2.959 -2.963c0 -1.73 -1.233 -2.965 -3.02 -2.965c-.37 0 -.617 0 -.925 .062c.185 -.185 .308 -.432 .493 -.74c.863 -1.545 .431 -3.274 -1.048 -4.138c-1.541 -.865 -3.205 -.433 -4.13 1.111c-.185 .309 -.308 .556 -.432 .803c-.123 -.247 -.246 -.494 -.431 -.803c-.802 -1.605 -2.528 -2.038 -4.007 -1.173c-1.541 .865 -1.973 2.594 -1.048 4.137c.185 .31 .308 .556 .493 .741c-.246 -.061 -.555 -.061 -.924 -.061c-1.788 0 -3.021 1.235 -3.021 2.964c0 1.729 1.233 2.964 3.02 2.964" />
  <path d="M4.073 21c4.286 -2.756 5.9 -5.254 7.927 -9" />
</svg>
