<!--
tags: [fable, cartoon, mouse, kids]
version: "1.79"
unicode: "f2a3"
-->
<svg
  xmlns="http://www.w3.org/2000/svg"
  width="24"
  height="24"
  viewBox="0 0 24 24"
  fill="none"
  stroke="currentColor"
  stroke-width="2"
  stroke-linecap="round"
  stroke-linejoin="round"
>
  <path d="M5.5 3a3.5 3.5 0 0 1 3.25 4.8a7.017 7.017 0 0 0 -2.424 2.1a3.5 3.5 0 1 1 -.826 -6.9z" />
  <path d="M18.5 3a3.5 3.5 0 1 1 -.826 6.902a7.013 7.013 0 0 0 -2.424 -2.103a3.5 3.5 0 0 1 3.25 -4.799z" />
  <path d="M12 14m-7 0a7 7 0 1 0 14 0a7 7 0 1 0 -14 0" />
</svg>
