<!--
tags: [oven, kitchen, cooking, food, cook, microwave, meal, cuisine, eating, nutrition]
category: Food
version: "1.74"
unicode: "f248"
-->
<svg
  xmlns="http://www.w3.org/2000/svg"
  width="24"
  height="24"
  viewBox="0 0 24 24"
  fill="none"
  stroke="currentColor"
  stroke-width="2"
  stroke-linecap="round"
  stroke-linejoin="round"
>
  <path d="M3 7a1 1 0 0 1 1 -1h16a1 1 0 0 1 1 1v10a1 1 0 0 1 -1 1h-16a1 1 0 0 1 -1 -1l0 -10" />
  <path d="M15 6v12" />
  <path d="M18 12h.01" />
  <path d="M18 15h.01" />
  <path d="M18 9h.01" />
  <path d="M6.5 10.5c1 -.667 1.5 -.667 2.5 0c.833 .347 1.667 .926 2.5 0" />
  <path d="M6.5 13.5c1 -.667 1.5 -.667 2.5 0c.833 .347 1.667 .926 2.5 0" />
</svg>
