<!--
category: Food
tags: [oven, kitchen, cooking, food, cook]
version: "1.76"
unicode: "f264"
-->
<svg
  xmlns="http://www.w3.org/2000/svg"
  width="24"
  height="24"
  viewBox="0 0 24 24"
  fill="none"
  stroke="currentColor"
  stroke-width="2"
  stroke-linecap="round"
  stroke-linejoin="round"
>
  <path d="M18 18h-14a1 1 0 0 1 -1 -1v-10a1 1 0 0 1 1 -1h2m4 0h10a1 1 0 0 1 1 1v10m-6 -11v5m0 4v3m3 -6h.01m-.01 -3h.01m-11.51 1.5c1 -.667 1.5 -.667 2.5 0c.636 .265 1.272 .665 1.907 .428m-4.407 2.572c1 -.667 1.5 -.667 2.5 0c.833 .347 1.667 .926 2.5 0m-8.5 -10.5l18 18" />
</svg>
