<!--
category: Food
tags: [food, drink, cow, healthy, breakfast, bottle, coffee]
unicode: "f40f"
version: "1.94"
-->
<svg
  xmlns="http://www.w3.org/2000/svg"
  width="24"
  height="24"
  viewBox="0 0 24 24"
  fill="none"
  stroke="currentColor"
  stroke-width="2"
  stroke-linecap="round"
  stroke-linejoin="round"
>
  <path d="M10 6h6v-2a1 1 0 0 0 -1 -1h-6a1 1 0 0 0 -1 1" />
  <path d="M16 6l1.094 1.759a6 6 0 0 1 .906 3.17v3.071m0 4v1a2 2 0 0 1 -2 2h-8a2 2 0 0 1 -2 -2v-8.071a6 6 0 0 1 .906 -3.17l.327 -.525" />
  <path d="M12 16m-2 0a2 2 0 1 0 4 0a2 2 0 1 0 -4 0" />
  <path d="M3 3l18 18" />
</svg>
