<!--
category: E-commerce
tags: [finance, cash, dollar, currency, bank, moneybag, wealth, rich, money, savings]
version: "1.101"
unicode: "f506"
-->
<svg
  xmlns="http://www.w3.org/2000/svg"
  width="24"
  height="24"
  viewBox="0 0 24 24"
  fill="none"
  stroke="currentColor"
  stroke-width="2"
  stroke-linecap="round"
  stroke-linejoin="round"
>
  <path d="M9.5 3h5a1.5 1.5 0 0 1 1.5 1.5a3.5 3.5 0 0 1 -3.5 3.5h-1a3.5 3.5 0 0 1 -3.5 -3.5a1.5 1.5 0 0 1 1.5 -1.5" />
  <path d="M4 17v-1a8 8 0 1 1 16 0v1a4 4 0 0 1 -4 4h-8a4 4 0 0 1 -4 -4" />
</svg>
