<!--
category: E-commerce
tags: [moneybag, move, wealth, rich, money, finance, savings, treasure, transfer, shift]
version: "3.31"
unicode: "10139"
-->
<svg
  xmlns="http://www.w3.org/2000/svg"
  width="24"
  height="24"
  viewBox="0 0 24 24"
  fill="none"
  stroke="currentColor"
  stroke-width="2"
  stroke-linecap="round"
  stroke-linejoin="round"
>
  <path d="M9.5 3h5a1.5 1.5 0 0 1 1.5 1.5a3.5 3.5 0 0 1 -3.5 3.5h-1a3.5 3.5 0 0 1 -3.5 -3.5a1.5 1.5 0 0 1 1.5 -1.5" />
  <path d="M12.5 21h-4.5a4 4 0 0 1 -4 -4v-1a8 8 0 0 1 14.946 -3.971" />
  <path d="M16 19h6" />
  <path d="M19 16l3 3l-3 3" />
</svg>
