<!--
unicode: "1013c"
version: "3.31"
-->
<svg
  xmlns="http://www.w3.org/2000/svg"
  width="24"
  height="24"
  viewBox="0 0 24 24"
  fill="none"
  stroke="currentColor"
  stroke-width="2"
  stroke-linecap="round"
  stroke-linejoin="round"
>
  <path d="M9.5 3h5a1.5 1.5 0 0 1 1.5 1.5a3.5 3.5 0 0 1 -3.5 3.5h-1a3.5 3.5 0 0 1 -3.5 -3.5a1.5 1.5 0 0 1 1.5 -1.5" />
  <path d="M11.5 21h-3.5a4 4 0 0 1 -4 -4v-1a8 8 0 0 1 14.376 -4.833" />
  <path d="M18 22l3.35 -3.284a2.143 2.143 0 0 0 .005 -3.071a2.24 2.24 0 0 0 -3.129 -.006l-.224 .22l-.223 -.22a2.24 2.24 0 0 0 -3.128 -.006a2.143 2.143 0 0 0 -.006 3.071z" />
</svg>
