<!--
category: Mood
tags: [cryptocurrency, smile, emotion, blockchain, wealth, digital, finance, happy, investment, coin]
unicode: "ff32"
version: "3.9"
-->
<svg
  xmlns="http://www.w3.org/2000/svg"
  width="24"
  height="24"
  viewBox="0 0 24 24"
  fill="none"
  stroke="currentColor"
  stroke-width="2"
  stroke-linecap="round"
  stroke-linejoin="round"
>
  <path d="M17 21v-6m2 0v-1.5m0 9v-1.5m-2 -3h3m-1 0h.5a1.5 1.5 0 0 1 0 3h-3.5m3 -3h.5a1.5 1.5 0 0 0 0 -3h-3.5" />
  <path d="M20.87 10.48a9 9 0 1 0 -7.876 10.465" />
  <path d="M9 10h.01" />
  <path d="M15 10h.01" />
  <path d="M9.5 15c.658 .64 1.56 1 2.5 1c.357 0 .709 -.052 1.043 -.151" />
</svg>
