<!--
tags: [man, face, beard, male]
unicode: "f4c9"
version: "1.98"
-->
<svg
  xmlns="http://www.w3.org/2000/svg"
  width="24"
  height="24"
  viewBox="0 0 24 24"
  fill="none"
  stroke="currentColor"
  stroke-width="2"
  stroke-linecap="round"
  stroke-linejoin="round"
>
  <path d="M15 9a3 3 0 0 1 2.599 1.5h0c.933 1.333 2.133 1.556 3.126 1.556l.291 0l.77 -.044l.213 0c-.963 1.926 -3.163 2.925 -6.6 3l-.4 0l-.165 0a3 3 0 0 1 .165 -6z" />
  <path d="M9 9a3 3 0 0 0 -2.599 1.5h0c-.933 1.333 -2.133 1.556 -3.126 1.556l-.291 0l-.77 -.044l-.213 0c.963 1.926 3.163 2.925 6.6 3l.4 0l.165 0a3 3 0 0 0 -.165 -6z" />
</svg>
