<!--
category: Map
tags: [love, affection, like, favorite, care, passion, romance, emotion, devotion, pulse]
version: "2.28"
unicode: "fbf2"
-->
<svg
  xmlns="http://www.w3.org/2000/svg"
  width="24"
  height="24"
  viewBox="0 0 24 24"
  fill="none"
  stroke="currentColor"
  stroke-width="2"
  stroke-linecap="round"
  stroke-linejoin="round"
>
  <path d="M15.721 11.067l-3.721 -8.067l-7.97 17.275c-.07 .2 -.017 .424 .135 .572c.15 .148 .374 .193 .57 .116l5.614 -1.903" />
  <path d="M18 22l3.35 -3.284a2.143 2.143 0 0 0 .005 -3.071a2.242 2.242 0 0 0 -3.129 -.006l-.224 .22l-.223 -.22a2.242 2.242 0 0 0 -3.128 -.006a2.143 2.143 0 0 0 -.006 3.071l3.355 3.296" />
</svg>
