<!--
tags: [connection, internet, communication, connect, web, signal]
version: "1.61"
unicode: "f09f"
category: Computers
-->
<svg
  xmlns="http://www.w3.org/2000/svg"
  width="24"
  height="24"
  viewBox="0 0 24 24"
  fill="none"
  stroke="currentColor"
  stroke-width="2"
  stroke-linecap="round"
  stroke-linejoin="round"
>
  <path d="M6 9a6 6 0 1 0 12 0a6 6 0 0 0 -12 0m6 -6c1.333 .333 2 2.333 2 6s-.667 5.667 -2 6m0 -12c-1.333 .333 -2 2.333 -2 6s.667 5.667 2 6m-6 -6h12m-15 11h7m4 0h7m-11 0a2 2 0 1 0 4 0a2 2 0 0 0 -4 0m2 -5v3" />
</svg>
