<!--
category: Computers
tags: [connection, internet, communication, connect, web, signal]
unicode: "f414"
version: "1.94"
-->
<svg
  xmlns="http://www.w3.org/2000/svg"
  width="24"
  height="24"
  viewBox="0 0 24 24"
  fill="none"
  stroke="currentColor"
  stroke-width="2"
  stroke-linecap="round"
  stroke-linejoin="round"
>
  <path d="M6.528 6.536a6 6 0 0 0 7.942 7.933m2.247 -1.76a6 6 0 0 0 -8.427 -8.425m3.71 -1.284c1.333 .333 2 2.333 2 6c0 .337 -.006 .66 -.017 .968m-.55 3.473c-.333 .884 -.81 1.403 -1.433 1.559m0 -12c-.936 .234 -1.544 1.29 -1.822 3.167m-.16 3.838c.116 3.029 .776 4.695 1.982 4.995m-6 -6h3m4 0h5m-15 11h7m4 0h7m-11 0a2 2 0 1 0 4 0a2 2 0 0 0 -4 0m2 -5v3m-9 -15l18 18" />
</svg>
