<!--
tags: [newspaper, article]
category: Document
version: "1.66"
unicode: "f167"
-->
<svg
  xmlns="http://www.w3.org/2000/svg"
  width="24"
  height="24"
  viewBox="0 0 24 24"
  fill="none"
  stroke="currentColor"
  stroke-width="2"
  stroke-linecap="round"
  stroke-linejoin="round"
>
  <path d="M16 6h3a1 1 0 0 1 1 1v9m-.606 3.435a2 2 0 0 1 -3.394 -1.435v-2m0 -4v-7a1 1 0 0 0 -1 -1h-7m-3.735 .321a1 1 0 0 0 -.265 .679v12a3 3 0 0 0 3 3h11" />
  <path d="M8 12h4" />
  <path d="M8 16h4" />
  <path d="M3 3l18 18" />
</svg>
