<!--
category: Numbers
unicode: "ffc9"
version: "3.14"
-->
<svg
  xmlns="http://www.w3.org/2000/svg"
  width="24"
  height="24"
  viewBox="0 0 24 24"
  fill="none"
  stroke="currentColor"
  stroke-width="2"
  stroke-linecap="round"
  stroke-linejoin="round"
>
  <path d="M14 15a1 1 0 0 0 1 1h2a1 1 0 0 0 1 -1v-6a1 1 0 0 0 -1 -1h-2a1 1 0 0 0 -1 1v2a1 1 0 0 0 1 1h3" />
  <path d="M8 12h-1a1 1 0 0 1 -1 -1v-2a1 1 0 0 1 1 -1h2a1 1 0 0 1 1 1v2a1 1 0 0 1 -1 1zh-1a1 1 0 0 0 -1 1v2a1 1 0 0 0 1 1h2a1 1 0 0 0 1 -1v-2a1 1 0 0 0 -1 -1" />
</svg>
