<!--
tags: [eight, octet, octuple, octad, eightfold, octenary, oct, octuplet, eighth, octa]
category: Numbers
version: "2.38"
unicode: "fcfd"
-->
<svg
  xmlns="http://www.w3.org/2000/svg"
  width="24"
  height="24"
  viewBox="0 0 24 24"
  fill="none"
  stroke="currentColor"
  stroke-width="2"
  stroke-linecap="round"
  stroke-linejoin="round"
>
  <path d="M12 12h-1a1 1 0 0 1 -1 -1v-2a1 1 0 0 1 1 -1h2a1 1 0 0 1 1 1v2a1 1 0 0 1 -1 1h-2a1 1 0 0 0 -1 1v2a1 1 0 0 0 1 1h2a1 1 0 0 0 1 -1v-2a1 1 0 0 0 -1 -1" />
</svg>
