<!--
category: System
tags: [barcode, reader, scanner, inventory, retail, identification, inspection, analyze, tracking, detect]
unicode: "fef1"
version: "3.5"
-->
<svg
  xmlns="http://www.w3.org/2000/svg"
  width="24"
  height="24"
  viewBox="0 0 24 24"
  fill="none"
  stroke="currentColor"
  stroke-width="2"
  stroke-linecap="round"
  stroke-linejoin="round"
>
  <path d="M8 10a2 2 0 0 1 2 -2h4a2 2 0 0 1 2 2v4a2 2 0 0 1 -2 2h-4a2 2 0 0 1 -2 -2v-4" />
  <path d="M3 7v-2a2 2 0 0 1 2 -2h2" />
  <path d="M3 17v2a2 2 0 0 0 2 2h2" />
  <path d="M17 3h2a2 2 0 0 1 2 2v2" />
  <path d="M17 21h2a2 2 0 0 0 2 -2v-2" />
</svg>
