<!--
category: Shapes
tags: [add, increase, boost, enhance, amplify, enlarge, gain, expand, supplement, magnify]
version: "2.35"
unicode: "fc93"
-->
<svg
  xmlns="http://www.w3.org/2000/svg"
  width="24"
  height="24"
  viewBox="0 0 24 24"
  fill="none"
  stroke="currentColor"
  stroke-width="2"
  stroke-linecap="round"
  stroke-linejoin="round"
>
  <path d="M13.023 21.74l-.221 .095c-.512 .22 -1.092 .22 -1.604 0l-5.575 -2.389a2.036 2.036 0 0 1 -1.07 -1.07l-2.388 -5.574a2.036 2.036 0 0 1 0 -1.604l2.389 -5.575c.206 -.48 .589 -.863 1.07 -1.07l5.574 -2.388a2.036 2.036 0 0 1 1.604 0l5.575 2.389c.48 .206 .863 .589 1.07 1.07l2.388 5.574c.22 .512 .22 1.092 0 1.604l-.081 .19" />
  <path d="M16 19h6" />
  <path d="M19 16v6" />
</svg>
