<!--
tags: [shape, geometric, math, 2d, building, government, octagon, off, disabled, inactive]
category: Shapes
version: "1.39"
unicode: "eeb8"
-->
<svg
  xmlns="http://www.w3.org/2000/svg"
  width="24"
  height="24"
  viewBox="0 0 24 24"
  fill="none"
  stroke="currentColor"
  stroke-width="2"
  stroke-linecap="round"
  stroke-linejoin="round"
>
  <path d="M19.027 19.002a2.03 2.03 0 0 1 -.65 .444l-5.575 2.39a2.04 2.04 0 0 1 -1.604 0l-5.575 -2.39a2.036 2.036 0 0 1 -1.07 -1.07l-2.388 -5.574a2.036 2.036 0 0 1 0 -1.604l2.389 -5.575c.103 -.24 .25 -.457 .433 -.639m2.689 -1.31l3.522 -1.51a2.036 2.036 0 0 1 1.604 0l5.575 2.39c.48 .206 .863 .589 1.07 1.07l2.388 5.574c.22 .512 .22 1.092 0 1.604l-1.509 3.522" />
  <path d="M3 3l18 18" />
</svg>
