<!--
category: Shapes
tags: [3d, pattern, abstract, geometric, shape]
version: "2.20"
unicode: "faad"
-->
<svg
  xmlns="http://www.w3.org/2000/svg"
  width="24"
  height="24"
  viewBox="0 0 24 24"
  fill="none"
  stroke="currentColor"
  stroke-width="2"
  stroke-linecap="round"
  stroke-linejoin="round"
>
  <path d="M21.498 12.911l.206 -.208a.984 .984 0 0 0 0 -1.407l-8.845 -8.948a1.233 1.233 0 0 0 -1.718 0l-8.845 8.949a.984 .984 0 0 0 0 1.407l8.845 8.949a1.234 1.234 0 0 0 1.718 -.001l.08 -.081m-10.939 -9.571c.004 .086 .103 .178 .296 .246l8.845 2.632c.459 .163 1.259 .163 1.718 0l2.634 -.784m5.41 -1.61l.801 -.238c.195 -.07 .294 -.156 .296 -.243m-10 -9.883v19.76m4 -2.88h6m-3 -3v6" />
</svg>
