<!--
tags: [brush, renovation, refurbishment, color, wall]
category: Design
version: "1.66"
unicode: "f16d"
-->
<svg
  xmlns="http://www.w3.org/2000/svg"
  width="24"
  height="24"
  viewBox="0 0 24 24"
  fill="none"
  stroke="currentColor"
  stroke-width="2"
  stroke-linecap="round"
  stroke-linejoin="round"
>
  <path d="M7 3h10a2 2 0 0 1 2 2v2a2 2 0 0 1 -2 2h-4m-4 0h-2a2 2 0 0 1 -2 -2v-2" />
  <path d="M19 6h1a2 2 0 0 1 2 2a5 5 0 0 1 -5 5m-4 0h-1v2" />
  <path d="M10 15m0 1a1 1 0 0 1 1 -1h2a1 1 0 0 1 1 1v4a1 1 0 0 1 -1 1h-2a1 1 0 0 1 -1 -1z" />
  <path d="M3 3l18 18" />
</svg>
