<!--
tags: [brush, renovation, refurbishment, color, wall, paint, creative, artistic, visual, aesthetic]
category: Design
version: "1.0"
unicode: "eb00"
-->
<svg
  xmlns="http://www.w3.org/2000/svg"
  width="24"
  height="24"
  viewBox="0 0 24 24"
  fill="none"
  stroke="currentColor"
  stroke-width="2"
  stroke-linecap="round"
  stroke-linejoin="round"
>
  <path d="M5 5a2 2 0 0 1 2 -2h10a2 2 0 0 1 2 2v2a2 2 0 0 1 -2 2h-10a2 2 0 0 1 -2 -2l0 -2" />
  <path d="M19 6h1a2 2 0 0 1 2 2a5 5 0 0 1 -5 5l-5 0v2" />
  <path d="M10 16a1 1 0 0 1 1 -1h2a1 1 0 0 1 1 1v4a1 1 0 0 1 -1 1h-2a1 1 0 0 1 -1 -1l0 -4" />
</svg>
