<!--
tags: [authentication, login, account, identity, credentials, access, secure, protection, privacy, profile]
category: System
version: "2.34"
unicode: "fc7d"
-->
<svg
  xmlns="http://www.w3.org/2000/svg"
  width="24"
  height="24"
  viewBox="0 0 24 24"
  fill="none"
  stroke="currentColor"
  stroke-width="2"
  stroke-linecap="round"
  stroke-linejoin="round"
>
  <path d="M12 17v4m-2 -1l4 -2m-4 0l4 2m-9 -3v4m-2 -1l4 -2m-4 0l4 2m12 -3v4m-2 -1l4 -2m-4 0l4 2m-12 -14a3 3 0 1 0 6 0a3 3 0 0 0 -6 0m-2 8a2 2 0 0 1 2 -2h6a2 2 0 0 1 2 2" />
</svg>
