<!--
-->
<svg
  xmlns="http://www.w3.org/2000/svg"
  width="24"
  height="24"
  viewBox="0 0 24 24"
  fill="none"
  stroke="currentColor"
  stroke-width="2"
  stroke-linecap="round"
  stroke-linejoin="round"
>
  <path d="M7 21v-9.366a6 6 0 0 1 .828 -3.042l2.836 -4.82a1.55 1.55 0 0 1 2.672 0l2.836 4.82a6 6 0 0 1 .828 3.042v9.366" />
  <path d="M12 12v9" />
  <path d="M9.5 6h5" />
  <path d="M7 12.125c.173 -.078 .362 -.12 .556 -.125c.439 -.008 .854 .178 1.11 .5c.257 .32 .672 .508 1.112 .5c.44 .008 .855 -.18 1.11 -.5a1.39 1.39 0 0 1 1.112 -.5c.44 -.008 .855 .178 1.111 .5c.256 .32 .672 .508 1.111 .5c.44 .008 .855 -.18 1.111 -.5a1.39 1.39 0 0 1 1.111 -.5c.194 .005 .383 .047 .556 .125" />
</svg>
