<!--
tags: [three, trio, triple, threesome, ternary, triad, trine, triune, tertiary, pentagon]
category: Numbers
version: "2.34"
unicode: "fc81"
-->
<svg
  xmlns="http://www.w3.org/2000/svg"
  width="24"
  height="24"
  viewBox="0 0 24 24"
  fill="none"
  stroke="currentColor"
  stroke-width="2"
  stroke-linecap="round"
  stroke-linejoin="round"
>
  <path d="M13.163 2.168l8.021 5.828c.694 .504 .984 1.397 .719 2.212l-3.064 9.43a1.978 1.978 0 0 1 -1.881 1.367h-9.916a1.978 1.978 0 0 1 -1.881 -1.367l-3.064 -9.43a1.978 1.978 0 0 1 .719 -2.212l8.021 -5.828a1.978 1.978 0 0 1 2.326 0" />
  <path d="M10 8h2.5a1.5 1.5 0 0 1 1.5 1.5v1a1.5 1.5 0 0 1 -1.5 1.5h-1.5h1.5a1.5 1.5 0 0 1 1.5 1.5v1a1.5 1.5 0 0 1 -1.5 1.5h-2.5" />
</svg>
