<!--
unicode: "ff31"
version: "3.9"
-->
<svg
  xmlns="http://www.w3.org/2000/svg"
  width="24"
  height="24"
  viewBox="0 0 24 24"
  fill="none"
  stroke="currentColor"
  stroke-width="2"
  stroke-linecap="round"
  stroke-linejoin="round"
>
  <path d="M17 21v-6m2 0v-1.5m0 9v-1.5m-2 -3h3m-1 0h.5a1.5 1.5 0 0 1 0 3h-3.5m3 -3h.5a1.5 1.5 0 0 0 0 -3h-3.5" />
  <path d="M15 8h.01" />
  <path d="M13 21h-7a3 3 0 0 1 -3 -3v-12a3 3 0 0 1 3 -3h12a3 3 0 0 1 3 3v5" />
  <path d="M3 16l5 -5c.928 -.893 2.072 -.893 3 0l2.5 2.5" />
</svg>
