<!--
category: Media
tags: [alert, warning, notice, attention, caution, mark, icon, capture, highlight, symbol]
version: "2.10"
unicode: "f994"
-->
<svg
  xmlns="http://www.w3.org/2000/svg"
  width="24"
  height="24"
  viewBox="0 0 24 24"
  fill="none"
  stroke="currentColor"
  stroke-width="2"
  stroke-linecap="round"
  stroke-linejoin="round"
>
  <path d="M15 8h.01m-.01 13h-9a3 3 0 0 1 -3 -3v-12a3 3 0 0 1 3 -3h12a3 3 0 0 1 3 3v6m-18 4l5 -5c.928 -.893 2.072 -.893 3 0l4 4m-1 -1l1 -1c.665 -.64 1.44 -.821 2.167 -.545m1.833 3.545v3m0 3v.01" />
</svg>
