<!--
category: Media
tags: [success, complete, image, gallery]
unicode: "f35e"
version: "1.89"
-->
<svg
  xmlns="http://www.w3.org/2000/svg"
  width="24"
  height="24"
  viewBox="0 0 24 24"
  fill="none"
  stroke="currentColor"
  stroke-width="2"
  stroke-linecap="round"
  stroke-linejoin="round"
>
  <path d="M15 8h.01m-3.51 13h-5.5a3 3 0 0 1 -3 -3v-12a3 3 0 0 1 3 -3h12a3 3 0 0 1 3 3v7m-18 3l5 -5c.928 -.893 2.072 -.893 3 0l4 4m-1 -1l1 -1c.928 -.893 2.072 -.893 3 0l.5 .5m-3.5 5.5l2 2l4 -4" />
</svg>
