<!--
category: Media
tags: [image, gallery, download, arrow, south]
unicode: "f35f"
version: "1.89"
-->
<svg
  xmlns="http://www.w3.org/2000/svg"
  width="24"
  height="24"
  viewBox="0 0 24 24"
  fill="none"
  stroke="currentColor"
  stroke-width="2"
  stroke-linecap="round"
  stroke-linejoin="round"
>
  <path d="M15 8h.01m-2.51 13h-6.5a3 3 0 0 1 -3 -3v-12a3 3 0 0 1 3 -3h12a3 3 0 0 1 3 3v6.5m-18 3.5l5 -5c.928 -.893 2.072 -.893 3 0l4 4m-1 -1l1 -1c.653 -.629 1.413 -.815 2.13 -.559m1.87 3.559v6m3 -3l-3 3l-3 -3" />
</svg>
