<!--
tags: [image, capture, photograph, picture, snapshot, scan-image, photogrammetry, visual-scan, picture-analysis, photo-analysis]
category: System
version: "2.36"
unicode: "fca8"
-->
<svg
  xmlns="http://www.w3.org/2000/svg"
  width="24"
  height="24"
  viewBox="0 0 24 24"
  fill="none"
  stroke="currentColor"
  stroke-width="2"
  stroke-linecap="round"
  stroke-linejoin="round"
>
  <path d="M15 8h.01m-9.01 5l2.644 -2.644a1.21 1.21 0 0 1 1.712 0l3.644 3.644m-1 -1l1.644 -1.644a1.21 1.21 0 0 1 1.712 0l1.644 1.644m-14 -5v-2a2 2 0 0 1 2 -2h2m-4 12v2a2 2 0 0 0 2 2h2m8 -16h2a2 2 0 0 1 2 2v2m-4 12h2a2 2 0 0 0 2 -2v-2" />
</svg>
