<!--
tags: [motion, film, footage, clip, capture, record, snap, visual, media, icon]
version: "2.35"
unicode: "fc95"
-->
<svg
  xmlns="http://www.w3.org/2000/svg"
  width="24"
  height="24"
  viewBox="0 0 24 24"
  fill="none"
  stroke="currentColor"
  stroke-width="2"
  stroke-linecap="round"
  stroke-linejoin="round"
>
  <path d="M9 15h-3a3 3 0 0 1 -3 -3v-6a3 3 0 0 1 3 -3h6a3 3 0 0 1 3 3v3m-6 0m0 3a3 3 0 0 1 3 -3h6a3 3 0 0 1 3 3v6a3 3 0 0 1 -3 3h-6a3 3 0 0 1 -3 -3zm-6 0l2.296 -2.296a2.41 2.41 0 0 1 3.408 0l.296 .296m5 3.5v3l2.5 -1.5zm-7 -7.5v.01" />
</svg>
