<!--
category: Media
tags: [image, picture, landscape, camera]
version: "2.14"
unicode: "fa32"
-->
<svg
  xmlns="http://www.w3.org/2000/svg"
  width="24"
  height="24"
  viewBox="0 0 24 24"
  fill="none"
  stroke="currentColor"
  stroke-width="2"
  stroke-linecap="round"
  stroke-linejoin="round"
>
  <path d="M15 8h.01" />
  <path d="M10 21h-4a3 3 0 0 1 -3 -3v-12a3 3 0 0 1 3 -3h12a3 3 0 0 1 3 3v5" />
  <path d="M3 16l5 -5c.928 -.893 2.072 -.893 3 0l1 1" />
  <path d="M14 21v-4a2 2 0 1 1 4 0v4" />
  <path d="M14 19h4" />
  <path d="M21 15v6" />
</svg>
