<!--
category: Media
tags: [distribute, broadcast, spread, disseminate, post, photograph, connect, icon, send, transfer]
version: "2.10"
unicode: "f998"
-->
<svg
  xmlns="http://www.w3.org/2000/svg"
  width="24"
  height="24"
  viewBox="0 0 24 24"
  fill="none"
  stroke="currentColor"
  stroke-width="2"
  stroke-linecap="round"
  stroke-linejoin="round"
>
  <path d="M15 8h.01m-3.01 13h-6a3 3 0 0 1 -3 -3v-12a3 3 0 0 1 3 -3h12a3 3 0 0 1 3 3v7m-18 3l5 -5c.928 -.893 2.072 -.893 3 0l3 3m0 0l1 -1c.928 -.893 2.072 -.893 3 0m-2 9l5 -5m0 4.5v-4.5h-4.5" />
</svg>
