<!--
category: Media
tags: [delete, gallery, image]
unicode: "f35d"
version: "1.89"
-->
<svg
  xmlns="http://www.w3.org/2000/svg"
  width="24"
  height="24"
  viewBox="0 0 24 24"
  fill="none"
  stroke="currentColor"
  stroke-width="2"
  stroke-linecap="round"
  stroke-linejoin="round"
>
  <path d="M15 8h.01m-2.51 13h-6.5a3 3 0 0 1 -3 -3v-12a3 3 0 0 1 3 -3h12a3 3 0 0 1 3 3v6.5m-18 3.5l5 -5c.928 -.893 2.072 -.893 3 0l3 3m0 0l1 -1c.616 -.593 1.328 -.792 2.008 -.598m1.992 6.598m-3 0a3 3 0 1 0 6 0a3 3 0 1 0 -6 0m1 2l4 -4" />
</svg>
