<!--
tags: [physiotherapy, spa, therapy, treatment, pain, exercise]
version: "1.39"
category: Health
unicode: "eebe"
-->
<svg
  xmlns="http://www.w3.org/2000/svg"
  width="24"
  height="24"
  viewBox="0 0 24 24"
  fill="none"
  stroke="currentColor"
  stroke-width="2"
  stroke-linecap="round"
  stroke-linejoin="round"
>
  <path d="M9 15l-1 -3l4 -2l4 1h3.5" />
  <path d="M4 19m-1 0a1 1 0 1 0 2 0a1 1 0 1 0 -2 0" />
  <path d="M12 6m-1 0a1 1 0 1 0 2 0a1 1 0 1 0 -2 0" />
  <path d="M12 17v-7" />
  <path d="M8 20h7l1 -4l4 -2" />
  <path d="M18 20h3" />
</svg>
