<!--
tags: [size, photo, elements, adjust, picture, off, content, entertainment, disabled, in]
category: Media
version: "1.28"
unicode: "ed43"
-->
<svg
  xmlns="http://www.w3.org/2000/svg"
  width="24"
  height="24"
  viewBox="0 0 24 24"
  fill="none"
  stroke="currentColor"
  stroke-width="2"
  stroke-linecap="round"
  stroke-linejoin="round"
>
  <path d="M11 19h-6a2 2 0 0 1 -2 -2v-10a2 2 0 0 1 2 -2h14a2 2 0 0 1 2 2v4" />
  <path d="M14 15a1 1 0 0 1 1 -1h5a1 1 0 0 1 1 1v3a1 1 0 0 1 -1 1h-5a1 1 0 0 1 -1 -1l0 -3" />
  <path d="M7 9l4 4" />
  <path d="M7 12v-3h3" />
</svg>
