<!--
category: Games
tags: [game, deck, ten, count, gamble, shuffle, deal, card, table, hand]
unicode: "1005b"
version: "3.18"
-->
<svg
  xmlns="http://www.w3.org/2000/svg"
  width="24"
  height="24"
  viewBox="0 0 24 24"
  fill="none"
  stroke="currentColor"
  stroke-width="2"
  stroke-linecap="round"
  stroke-linejoin="round"
>
  <path d="M19 5v14a2 2 0 0 1 -2 2h-10a2 2 0 0 1 -2 -2v-14a2 2 0 0 1 2 -2h10a2 2 0 0 1 2 2m-11 1h.01m7.99 12h.01m-7.01 -9v6m3 -2c0 1.105 .672 2 1.5 2s1.5 -.895 1.5 -2v-2c0 -1.105 -.672 -2 -1.5 -2s-1.5 .895 -1.5 2z" />
</svg>
