<!--
category: Games
tags: [eight, carding, fun, deck, number, gameplay, gamble, odds, poker, strategy]
unicode: "10054"
version: "3.18"
-->
<svg
  xmlns="http://www.w3.org/2000/svg"
  width="24"
  height="24"
  viewBox="0 0 24 24"
  fill="none"
  stroke="currentColor"
  stroke-width="2"
  stroke-linecap="round"
  stroke-linejoin="round"
>
  <path d="M19 5v14a2 2 0 0 1 -2 2h-10a2 2 0 0 1 -2 -2v-14a2 2 0 0 1 2 -2h10a2 2 0 0 1 2 2m-11 1h.01m7.99 12h.01m-4.01 -6h-1a1 1 0 0 1 -1 -1v-1a1 1 0 0 1 1 -1h2a1 1 0 0 1 1 1v1a1 1 0 0 1 -1 1zm0 0h-1a1 1 0 0 0 -1 1v1a1 1 0 0 0 1 1h2a1 1 0 0 0 1 -1v-1a1 1 0 0 0 -1 -1" />
</svg>
