<!--
category: Games
tags: [game, deck, two, pair, gamble, shuffle, deal, card, table, hand]
unicode: "1005a"
version: "3.18"
-->
<svg
  xmlns="http://www.w3.org/2000/svg"
  width="24"
  height="24"
  viewBox="0 0 24 24"
  fill="none"
  stroke="currentColor"
  stroke-width="2"
  stroke-linecap="round"
  stroke-linejoin="round"
>
  <path d="M19 5v14a2 2 0 0 1 -2 2h-10a2 2 0 0 1 -2 -2v-14a2 2 0 0 1 2 -2h10a2 2 0 0 1 2 2" />
  <path d="M8 6h.01" />
  <path d="M16 18h.01" />
  <path d="M10 9h3a1 1 0 0 1 1 1v1a1 1 0 0 1 -1 1h-2a1 1 0 0 0 -1 1v1a1 1 0 0 0 1 1h3" />
</svg>
