<!--
category: Games
tags: [wild, joker, deck, special, bonus, shine, lucky, power, poker, strategy]
unicode: "1004e"
version: "3.18"
-->
<svg
  xmlns="http://www.w3.org/2000/svg"
  width="24"
  height="24"
  viewBox="0 0 24 24"
  fill="none"
  stroke="currentColor"
  stroke-width="2"
  stroke-linecap="round"
  stroke-linejoin="round"
>
  <path d="M19 5v14a2 2 0 0 1 -2 2h-10a2 2 0 0 1 -2 -2v-14a2 2 0 0 1 2 -2h10a2 2 0 0 1 2 2" />
  <path d="M8 6h.01" />
  <path d="M16 18h.01" />
  <path d="M11.75 14.112l-1.63 .853a.294 .294 0 0 1 -.425 -.307l.31 -1.808l-1.317 -1.28a.292 .292 0 0 1 .163 -.499l1.82 -.264l.815 -1.644a.294 .294 0 0 1 .527 0l.814 1.644l1.82 .264a.292 .292 0 0 1 .164 .499l-1.318 1.28l.31 1.807a.292 .292 0 0 1 -.425 .308l-1.628 -.853" />
</svg>
