<!--
category: System
tags: [favorite, highlight, important, special, gold, rate, shine, elite]
version: "2.10"
unicode: "f9aa"
-->
<svg
  xmlns="http://www.w3.org/2000/svg"
  width="24"
  height="24"
  viewBox="0 0 24 24"
  fill="none"
  stroke="currentColor"
  stroke-width="2"
  stroke-linecap="round"
  stroke-linejoin="round"
>
  <path d="M17.891 10.132a1.2 1.2 0 0 0 -.309 -2.228l-13.582 -3.904l3.904 13.563a1.2 1.2 0 0 0 2.228 .308" />
  <path d="M17.8 20.817l-2.172 1.138a.392 .392 0 0 1 -.568 -.41l.415 -2.411l-1.757 -1.707a.389 .389 0 0 1 .217 -.665l2.428 -.352l1.086 -2.193a.392 .392 0 0 1 .702 0l1.086 2.193l2.428 .352a.39 .39 0 0 1 .217 .665l-1.757 1.707l.414 2.41a.39 .39 0 0 1 -.567 .411l-2.172 -1.138z" />
</svg>
