<!--
tags: [casino, game, money, gambling]
version: "1.102"
unicode: "f515"
category: Games
-->
<svg
  xmlns="http://www.w3.org/2000/svg"
  width="24"
  height="24"
  viewBox="0 0 24 24"
  fill="none"
  stroke="currentColor"
  stroke-width="2"
  stroke-linecap="round"
  stroke-linejoin="round"
>
    <path d="M12 12m-9 0a9 9 0 1 0 18 0a9 9 0 1 0 -18 0M12 12m-5 0a5 5 0 1 0 10 0a5 5 0 1 0 -10 0M12 3v4M12 17v4M3 12h4M17 12h4M18.364 5.636l-2.828 2.828M8.464 15.536l-2.828 2.828M5.636 5.636l2.828 2.828M15.536 15.536l2.828 2.828" />
</svg>
