<!--
tags: [picture, photo, camera, polarization, develop, film, lens, polaroid, capture, image]
category: Photography
version: "1.39"
unicode: "eec2"
-->
<svg
  xmlns="http://www.w3.org/2000/svg"
  width="24"
  height="24"
  viewBox="0 0 24 24"
  fill="none"
  stroke="currentColor"
  stroke-width="2"
  stroke-linecap="round"
  stroke-linejoin="round"
>
  <path d="M4 6a2 2 0 0 1 2 -2h12a2 2 0 0 1 2 2v12a2 2 0 0 1 -2 2h-12a2 2 0 0 1 -2 -2l0 -12" />
  <path d="M4 16l16 0" />
  <path d="M4 12l3 -3c.928 -.893 2.072 -.893 3 0l4 4" />
  <path d="M13 12l2 -2c.928 -.893 2.072 -.893 3 0l2 2" />
  <path d="M14 7l.01 0" />
</svg>
