<!--
tags: [shape, form, geometry, circle, line]
category: Design
version: "1.50"
unicode: "efd0"
-->
<svg
  xmlns="http://www.w3.org/2000/svg"
  width="24"
  height="24"
  viewBox="0 0 24 24"
  fill="none"
  stroke="currentColor"
  stroke-width="2"
  stroke-linecap="round"
  stroke-linejoin="round"
>
  <path d="M12 5m-2 0a2 2 0 1 0 4 0a2 2 0 1 0 -4 0m9 3m-2 0a2 2 0 1 0 4 0a2 2 0 1 0 -4 0m-12 3m-2 0a2 2 0 1 0 4 0a2 2 0 1 0 -4 0m12 8m-2 0a2 2 0 1 0 4 0a2 2 0 1 0 -4 0m-6.5 -9.5l3.5 -3m4 -1l3 1.5m1.5 3l-2.5 7m-2.5 .5l-7 -5" />
</svg>
