---
tags: [swim, water, swimmer, holiday, swimming, vacation, relax, sport]
category: Sport
version: "1.34"
unicode: "ed91"
---
<svg>
  <path d="M2 20a2.4 2.4 0 0 0 2 1a2.4 2.4 0 0 0 2 -1a2.4 2.4 0 0 1 2 -1a2.4 2.4 0 0 1 2 1a2.4 2.4 0 0 0 2 1a2.4 2.4 0 0 0 2 -1a2.4 2.4 0 0 1 2 -1a2.4 2.4 0 0 1 2 1a2.4 2.4 0 0 0 2 1a2.4 2.4 0 0 0 2 -1" />
  <path d="M2 16a2.4 2.4 0 0 0 2 1a2.4 2.4 0 0 0 2 -1a2.4 2.4 0 0 1 2 -1a2.4 2.4 0 0 1 2 1a2.4 2.4 0 0 0 2 1a2.4 2.4 0 0 0 2 -1a2.4 2.4 0 0 1 2 -1a2.4 2.4 0 0 1 2 1a2.4 2.4 0 0 0 2 1a2.4 2.4 0 0 0 2 -1" />
  <path d="M15 12v-7.5a1.5 1.5 0 0 1 3 0" />
  <path d="M9 12v-7.5a1.5 1.5 0 0 0 -3 0" />
  <path d="M15 5l-6 0" />
  <path d="M9 10l6 0" />
</svg>
