<!--
tags: [fax, office, device, printer, hardware, technology, electronic, gadget, equipment]
category: Devices
version: "1.0"
unicode: "eb0e"
-->
<svg
  xmlns="http://www.w3.org/2000/svg"
  width="24"
  height="24"
  viewBox="0 0 24 24"
  fill="none"
  stroke="currentColor"
  stroke-width="2"
  stroke-linecap="round"
  stroke-linejoin="round"
>
  <path d="M17 17h2a2 2 0 0 0 2 -2v-4a2 2 0 0 0 -2 -2h-14a2 2 0 0 0 -2 2v4a2 2 0 0 0 2 2h2" />
  <path d="M17 9v-4a2 2 0 0 0 -2 -2h-6a2 2 0 0 0 -2 2v4" />
  <path d="M7 15a2 2 0 0 1 2 -2h6a2 2 0 0 1 2 2v4a2 2 0 0 1 -2 2h-6a2 2 0 0 1 -2 -2l0 -4" />
</svg>
