<!--
category: Games
tags: [jigsaw, extension, add-on]
version: "1.46"
unicode: "ef83"
-->
<svg
  xmlns="http://www.w3.org/2000/svg"
  width="24"
  height="24"
  viewBox="0 0 24 24"
  fill="none"
  stroke="currentColor"
  stroke-width="2"
  stroke-linecap="round"
  stroke-linejoin="round"
>
  <path d="M4 4m0 2a2 2 0 0 1 2 -2h12a2 2 0 0 1 2 2v12a2 2 0 0 1 -2 2h-12a2 2 0 0 1 -2 -2zm8 -2v2.5a.5 .5 0 0 1 -.5 .5a1.5 1.5 0 0 0 0 3a.5 .5 0 0 1 .5 .5v1.5m0 0v1.5a.5 .5 0 0 0 .5 .5a1.5 1.5 0 0 1 0 3a.5 .5 0 0 0 -.5 .5v2.5m8 -8h-2.5a.5 .5 0 0 1 -.5 -.5a1.5 1.5 0 0 0 -3 0a.5 .5 0 0 1 -.5 .5h-1.5m0 0h-1.5a.5 .5 0 0 0 -.5 .5a1.5 1.5 0 0 1 -3 0a.5 .5 0 0 0 -.5 -.5h-2.5" />
</svg>
