<!--
tags: [jigsaw, extension, add-on, puzzle, entertainment, playing, recreation, fun, activity, 2]
category: Games
version: "1.46"
unicode: "ef83"
-->
<svg
  xmlns="http://www.w3.org/2000/svg"
  width="24"
  height="24"
  viewBox="0 0 24 24"
  fill="none"
  stroke="currentColor"
  stroke-width="2"
  stroke-linecap="round"
  stroke-linejoin="round"
>
  <path d="M4 6a2 2 0 0 1 2 -2h12a2 2 0 0 1 2 2v12a2 2 0 0 1 -2 2h-12a2 2 0 0 1 -2 -2l0 -12" />
  <path d="M12 4v2.5a.5 .5 0 0 1 -.5 .5a1.5 1.5 0 0 0 0 3a.5 .5 0 0 1 .5 .5v1.5" />
  <path d="M12 12v1.5a.5 .5 0 0 0 .5 .5a1.5 1.5 0 0 1 0 3a.5 .5 0 0 0 -.5 .5v2.5" />
  <path d="M20 12h-2.5a.5 .5 0 0 1 -.5 -.5a1.5 1.5 0 0 0 -3 0a.5 .5 0 0 1 -.5 .5h-1.5" />
  <path d="M12 12h-1.5a.5 .5 0 0 0 -.5 .5a1.5 1.5 0 0 1 -3 0a.5 .5 0 0 0 -.5 -.5h-2.5" />
</svg>
