<!--
tags: [scan, data]
category: Devices
unicode: "f41e"
version: "1.94"
-->
<svg
  xmlns="http://www.w3.org/2000/svg"
  width="24"
  height="24"
  viewBox="0 0 24 24"
  fill="none"
  stroke="currentColor"
  stroke-width="2"
  stroke-linecap="round"
  stroke-linejoin="round"
>
  <path d="M8 4h1a1 1 0 0 1 1 1v1m-.297 3.711a1 1 0 0 1 -.703 .289h-4a1 1 0 0 1 -1 -1v-4c0 -.275 .11 -.524 .29 -.705" />
  <path d="M7 17v.01" />
  <path d="M14 4m0 1a1 1 0 0 1 1 -1h4a1 1 0 0 1 1 1v4a1 1 0 0 1 -1 1h-4a1 1 0 0 1 -1 -1z" />
  <path d="M7 7v.01" />
  <path d="M4 14m0 1a1 1 0 0 1 1 -1h4a1 1 0 0 1 1 1v4a1 1 0 0 1 -1 1h-4a1 1 0 0 1 -1 -1z" />
  <path d="M17 7v.01" />
  <path d="M20 14v.01" />
  <path d="M14 14v3" />
  <path d="M14 20h3" />
  <path d="M3 3l18 18" />
</svg>
