<!--
category: Text
tags: [chat, message, text, punctuation, quotation, comment]
version: "1.66"
unicode: "f188"
-->
<svg
  xmlns="http://www.w3.org/2000/svg"
  width="24"
  height="24"
  viewBox="0 0 24 24"
  fill="none"
  stroke="currentColor"
  stroke-width="2"
  stroke-linecap="round"
  stroke-linejoin="round"
>
  <path d="M10 11h-4a1 1 0 0 1 -1 -1v-3a1 1 0 0 1 1 -1m4 4v3c0 2.667 -1.333 4.333 -4 5" />
  <path d="M19 11h-4m-1 -1v-3a1 1 0 0 1 1 -1h3a1 1 0 0 1 1 1v6c0 .66 -.082 1.26 -.245 1.798m-1.653 2.29c-.571 .4 -1.272 .704 -2.102 .912" />
  <path d="M3 3l18 18" />
</svg>
