<!--
tags: [chat, message, text, punctuation, quotation, comment]
category: Text
version: "1.49"
unicode: "efbe"
-->
<svg
  xmlns="http://www.w3.org/2000/svg"
  width="24"
  height="24"
  viewBox="0 0 24 24"
  fill="none"
  stroke="currentColor"
  stroke-width="2"
  stroke-linecap="round"
  stroke-linejoin="round"
>
  <path d="M10 11h-4a1 1 0 0 1 -1 -1v-3a1 1 0 0 1 1 -1h3a1 1 0 0 1 1 1v6c0 2.667 -1.333 4.333 -4 5" />
  <path d="M19 11h-4a1 1 0 0 1 -1 -1v-3a1 1 0 0 1 1 -1h3a1 1 0 0 1 1 1v6c0 2.667 -1.333 4.333 -4 5" />
</svg>
