<!--
tags: [quotation, citation, saying, text, quote, typography, writing, open, speech]
category: Text
unicode: "10224"
version: "3.41"
-->
<svg
  xmlns="http://www.w3.org/2000/svg"
  width="24"
  height="24"
  viewBox="0 0 24 24"
  fill="none"
  stroke="currentColor"
  stroke-width="2"
  stroke-linecap="round"
  stroke-linejoin="round"
>
  <path d="M14 13h4a1 1 0 0 1 1 1v3a1 1 0 0 1 -1 1h-3a1 1 0 0 1 -1 -1v-6q 0 -4 4 -5" />
  <path d="M5 13h4a1 1 0 0 1 1 1v3a1 1 0 0 1 -1 1h-3a1 1 0 0 1 -1 -1v-6q 0 -4 4 -5" />
</svg>
