<!--
category: Media
tags: [music, news, sound, broadcost, communication, station]
unicode: "f420"
version: "1.94"
-->
<svg
  xmlns="http://www.w3.org/2000/svg"
  width="24"
  height="24"
  viewBox="0 0 24 24"
  fill="none"
  stroke="currentColor"
  stroke-width="2"
  stroke-linecap="round"
  stroke-linejoin="round"
>
  <path d="M14 3l-4.986 2m-2.875 1.15l-1.51 .604a1 1 0 0 0 -.629 .928v11.323a1 1 0 0 0 1 1h14a1 1 0 0 0 .708 -.294m.292 -3.706v-8a1 1 0 0 0 -1 -1h-8m-4 0h-2.5m-.5 4.995h8m4 0h4m-13 0v-2m6 6v.01m-10 -13.01l18 18" />
</svg>
