<!--
tags: [dangerous, precarious, danger, sign, warning, caution, chernobyl, reactor, atomic, powerhouses, generator]
category: Symbols
version: "1.18"
unicode: "ecc0"
-->
<svg
  xmlns="http://www.w3.org/2000/svg"
  width="24"
  height="24"
  viewBox="0 0 24 24"
  fill="none"
  stroke="currentColor"
  stroke-width="2"
  stroke-linecap="round"
  stroke-linejoin="round"
>
  <path d="M13.5 14.6l3 5.19a9 9 0 0 0 4.5 -7.79h-6a3 3 0 0 1 -1.5 2.6" />
  <path d="M13.5 9.4l3 -5.19a9 9 0 0 0 -9 0l3 5.19a3 3 0 0 1 3 0" />
  <path d="M10.5 14.6l-3 5.19a9 9 0 0 1 -4.5 -7.79h6a3 3 0 0 0 1.5 2.6" />
</svg>
