<!--
tags: [arrange, organize, sort, structure, sequence, position, alignment, list, adjust, systemize]
version: "2.29"
unicode: "fc15"
-->
<svg
  xmlns="http://www.w3.org/2000/svg"
  width="24"
  height="24"
  viewBox="0 0 24 24"
  fill="none"
  stroke="currentColor"
  stroke-width="2"
  stroke-linecap="round"
  stroke-linejoin="round"
>
  <path d="M3 15m0 1a1 1 0 0 1 1 -1h2a1 1 0 0 1 1 1v2a1 1 0 0 1 -1 1h-2a1 1 0 0 1 -1 -1zm7 -1m0 1a1 1 0 0 1 1 -1h2a1 1 0 0 1 1 1v2a1 1 0 0 1 -1 1h-2a1 1 0 0 1 -1 -1zm7 -1m0 1a1 1 0 0 1 1 -1h2a1 1 0 0 1 1 1v2a1 1 0 0 1 -1 1h-2a1 1 0 0 1 -1 -1zm-12 -5v-3a3 3 0 0 1 3 -3h8a3 3 0 0 1 3 3v3m-2.5 -2.5l2.5 2.5l2.5 -2.5" />
</svg>
