<!--
category: System
tags: [swap, exchange, change, substitute, switch, alternate, modify, update, alter, transition]
unicode: "100f0"
version: "3.27"
-->
<svg
  xmlns="http://www.w3.org/2000/svg"
  width="24"
  height="24"
  viewBox="0 0 24 24"
  fill="none"
  stroke="currentColor"
  stroke-width="2"
  stroke-linecap="round"
  stroke-linejoin="round"
>
  <path d="M21 11v-3c0 -.53 -.211 -1.039 -.586 -1.414c-.375 -.375 -.884 -.586 -1.414 -.586h-6m0 0l3 3m-3 -3l3 -3" />
  <path d="M3 13.013v3c0 .53 .211 1.039 .586 1.414c.375 .375 .884 .586 1.414 .586h6m0 0l-3 -3m3 3l-3 3" />
  <path d="M16 16.502c0 .53 .211 1.039 .586 1.414c.375 .375 .884 .586 1.414 .586c.53 0 1.039 -.211 1.414 -.586c.375 -.375 .586 -.884 .586 -1.414c0 -.53 -.211 -1.039 -.586 -1.414c-.375 -.375 -.884 -.586 -1.414 -.586c-.53 0 -1.039 .211 -1.414 .586c-.375 .375 -.586 .884 -.586 1.414" />
  <path d="M4 4.502c0 .53 .211 1.039 .586 1.414c.375 .375 .884 .586 1.414 .586c.53 0 1.039 -.211 1.414 -.586c.375 -.375 .586 -.884 .586 -1.414c0 -.53 -.211 -1.039 -.586 -1.414c-.375 -.375 -.884 -.586 -1.414 -.586c-.53 0 -1.039 .211 -1.414 .586c-.375 .375 -.586 .884 -.586 1.414" />
  <path d="M21 21.499c0 -.53 -.211 -1.039 -.586 -1.414c-.375 -.375 -.884 -.586 -1.414 -.586h-2c-.53 0 -1.039 .211 -1.414 .586c-.375 .375 -.586 .884 -.586 1.414" />
  <path d="M9 9.499c0 -.53 -.211 -1.039 -.586 -1.414c-.375 -.375 -.884 -.586 -1.414 -.586h-2c-.53 0 -1.039 .211 -1.414 .586c-.375 .375 -.586 .884 -.586 1.414" />
</svg>
