<!--
category: System
tags: [change, place, position, move, exchange, replace]
version: "1.5"
unicode: "ebc7"
-->
<svg
  xmlns="http://www.w3.org/2000/svg"
  width="24"
  height="24"
  viewBox="0 0 24 24"
  fill="none"
  stroke="currentColor"
  stroke-width="2"
  stroke-linecap="round"
  stroke-linejoin="round"
>
  <path d="M3 4a1 1 0 0 1 1 -1h4a1 1 0 0 1 1 1v4a1 1 0 0 1 -1 1h-4a1 1 0 0 1 -1 -1l0 -4" />
  <path d="M15 16a1 1 0 0 1 1 -1h4a1 1 0 0 1 1 1v4a1 1 0 0 1 -1 1h-4a1 1 0 0 1 -1 -1l0 -4" />
  <path d="M21 11v-3a2 2 0 0 0 -2 -2h-6l3 3m0 -6l-3 3" />
  <path d="M3 13v3a2 2 0 0 0 2 2h6l-3 -3m0 6l3 -3" />
</svg>
