<!--
category: Document
tags: [analytic, statistics, data, results, graph, document]
version: "1.46"
unicode: "ef84"
-->
<svg
  xmlns="http://www.w3.org/2000/svg"
  width="24"
  height="24"
  viewBox="0 0 24 24"
  fill="none"
  stroke="currentColor"
  stroke-width="2"
  stroke-linecap="round"
  stroke-linejoin="round"
>
  <path d="M8 5h-2a2 2 0 0 0 -2 2v12a2 2 0 0 0 2 2h5.697" />
  <path d="M18 12v-5a2 2 0 0 0 -2 -2h-2" />
  <path d="M8 3m0 2a2 2 0 0 1 2 -2h2a2 2 0 0 1 2 2v0a2 2 0 0 1 -2 2h-2a2 2 0 0 1 -2 -2z" />
  <path d="M8 11h4" />
  <path d="M8 15h3" />
  <path d="M16.5 17.5m-2.5 0a2.5 2.5 0 1 0 5 0a2.5 2.5 0 1 0 -5 0" />
  <path d="M18.5 19.5l2.5 2.5" />
</svg>
