<!--
tags: [time, timesheet, analysis, analyse, results, business, company]
category: Document
version: "1.66"
unicode: "f18f"
-->
<svg
  xmlns="http://www.w3.org/2000/svg"
  width="24"
  height="24"
  viewBox="0 0 24 24"
  fill="none"
  stroke="currentColor"
  stroke-width="2"
  stroke-linecap="round"
  stroke-linejoin="round"
>
  <path d="M5.576 5.595a2 2 0 0 0 -.576 1.405v12a2 2 0 0 0 2 2h10a2 2 0 0 0 2 -2m0 -4v-8a2 2 0 0 0 -2 -2h-2" />
  <path d="M9 5a2 2 0 0 1 2 -2h2a2 2 0 1 1 0 4h-2" />
  <path d="M3 3l18 18" />
</svg>
