<!--
tags: [forward, advance, fast-forward, rewind, skip, jump, next, move-60, fast, ahead]
category: Media
version: "2.21"
unicode: "fac9"
-->
<svg
  xmlns="http://www.w3.org/2000/svg"
  width="24"
  height="24"
  viewBox="0 0 24 24"
  fill="none"
  stroke="currentColor"
  stroke-width="2"
  stroke-linecap="round"
  stroke-linejoin="round"
>
  <path d="M5.007 16.478a6 6 0 0 1 3.993 -10.478h11" />
  <path d="M15 15.5v3a1.5 1.5 0 0 0 3 0v-3a1.5 1.5 0 0 0 -3 0z" />
  <path d="M17 9l3 -3l-3 -3" />
  <path d="M12 14h-2a1 1 0 0 0 -1 1v4a1 1 0 0 0 1 1h1a1 1 0 0 0 1 -1v-1a1 1 0 0 0 -1 -1h-2" />
</svg>
