<!--
tags: [technology, ai, machine, bot, android, robot, entertainment, playing, recreation, fun]
category: Games
version: "1.53"
unicode: "f00b"
-->
<svg
  xmlns="http://www.w3.org/2000/svg"
  width="24"
  height="24"
  viewBox="0 0 24 24"
  fill="none"
  stroke="currentColor"
  stroke-width="2"
  stroke-linecap="round"
  stroke-linejoin="round"
>
  <path d="M6 6a2 2 0 0 1 2 -2h8a2 2 0 0 1 2 2v4a2 2 0 0 1 -2 2h-8a2 2 0 0 1 -2 -2l0 -4" />
  <path d="M12 2v2" />
  <path d="M9 12v9" />
  <path d="M15 12v9" />
  <path d="M5 16l4 -2" />
  <path d="M15 14l4 2" />
  <path d="M9 18h6" />
  <path d="M10 8v.01" />
  <path d="M14 8v.01" />
</svg>
