<!--
tags: [universe, galaxy, space, journey, discover, extraterrestrial, spaceship, rocket, location, navigation]
category: Map
version: "1.11"
unicode: "ec45"
-->
<svg
  xmlns="http://www.w3.org/2000/svg"
  width="24"
  height="24"
  viewBox="0 0 24 24"
  fill="none"
  stroke="currentColor"
  stroke-width="2"
  stroke-linecap="round"
  stroke-linejoin="round"
>
  <path d="M4 13a8 8 0 0 1 7 7a6 6 0 0 0 3 -5a9 9 0 0 0 6 -8a3 3 0 0 0 -3 -3a9 9 0 0 0 -8 6a6 6 0 0 0 -5 3" />
  <path d="M7 14a6 6 0 0 0 -3 6a6 6 0 0 0 6 -3" />
  <path d="M14 9a1 1 0 1 0 2 0a1 1 0 1 0 -2 0" />
</svg>
