<!--
tags: [path, direction, track, find, gps, map, navigate, explore, trace, survey]
version: "2.37"
unicode: "fcbf"
-->
<svg
  xmlns="http://www.w3.org/2000/svg"
  width="24"
  height="24"
  viewBox="0 0 24 24"
  fill="none"
  stroke="currentColor"
  stroke-width="2"
  stroke-linecap="round"
  stroke-linejoin="round"
>
  <path d="M4 8v-2a2 2 0 0 1 2 -2h2m-4 12v2a2 2 0 0 0 2 2h2m8 -16h2a2 2 0 0 1 2 2v2m-4 12h2a2 2 0 0 0 2 -2v-2m-13 -4v-3h3m4 0h3v3m-10 -3l4.414 4.414a2 2 0 0 1 .586 1.414v2.172m5 -8l-4.414 4.414a2 2 0 0 0 -.586 1.414v2.172" />
</svg>
