<!--
category: Map
tags: [path, journey, direction, trail, navigate, travel, way, road, travel-route, route-way]
version: "1.66"
unicode: "f194"
-->
<svg
  xmlns="http://www.w3.org/2000/svg"
  width="24"
  height="24"
  viewBox="0 0 24 24"
  fill="none"
  stroke="currentColor"
  stroke-width="2"
  stroke-linecap="round"
  stroke-linejoin="round"
>
  <path d="M4 19a2 2 0 1 0 4 0a2 2 0 1 0 -4 0" />
  <path d="M16 5a2 2 0 1 0 4 0a2 2 0 1 0 -4 0" />
  <path d="M12 19h4.5c.71 0 1.372 -.212 1.924 -.576m1.545 -2.459a3.5 3.5 0 0 0 -3.469 -3.965h-.499m-4 0h-3.501a3.5 3.5 0 0 1 -2.477 -5.972m2.477 -1.028h3.5" />
  <path d="M3 3l18 18" />
</svg>
