<!--
category: Devices
tags: [wifi, device, wireless, signal, station, cast]
version: "1.0"
unicode: "eb18"
-->
<svg
  xmlns="http://www.w3.org/2000/svg"
  width="24"
  height="24"
  viewBox="0 0 24 24"
  fill="none"
  stroke="currentColor"
  stroke-width="2"
  stroke-linecap="round"
  stroke-linejoin="round"
>
  <path d="M3 13m0 2a2 2 0 0 1 2 -2h14a2 2 0 0 1 2 2v4a2 2 0 0 1 -2 2h-14a2 2 0 0 1 -2 -2zm14 2l0 .01m-4 -.01l0 .01m2 -4.01l0 -2m-3.25 -2.25a4 4 0 0 1 6.5 0m-9.75 -2.25a8 8 0 0 1 13 0" />
</svg>
