<!--
category: Devices
tags: [wifi, device, wireless, signal, station, cast]
version: "1.0"
unicode: "eb18"
-->
<svg
  xmlns="http://www.w3.org/2000/svg"
  width="24"
  height="24"
  viewBox="0 0 24 24"
  fill="none"
  stroke="currentColor"
  stroke-width="2"
  stroke-linecap="round"
  stroke-linejoin="round"
>
    <path d="M3 13m0 2a2 2 0 0 1 2 -2h14a2 2 0 0 1 2 2v4a2 2 0 0 1 -2 2h-14a2 2 0 0 1 -2 -2zM17 17l0 .01M13 17l0 .01M15 13l0 -2M11.75 8.75a4 4 0 0 1 6.5 0M8.5 6.5a8 8 0 0 1 13 0" />
</svg>
