<!--
tags: [maths, dimensions, size, width, length, geometry, measure, technical]
version: "1.1"
unicode: "eb1a"
category: Design
-->
<svg
  xmlns="http://www.w3.org/2000/svg"
  width="24"
  height="24"
  viewBox="0 0 24 24"
  fill="none"
  stroke="currentColor"
  stroke-width="2"
  stroke-linecap="round"
  stroke-linejoin="round"
>
  <path d="M5 4h14a1 1 0 0 1 1 1v5a1 1 0 0 1 -1 1h-7a1 1 0 0 0 -1 1v7a1 1 0 0 1 -1 1h-5a1 1 0 0 1 -1 -1v-14a1 1 0 0 1 1 -1m-1 4l2 0m-2 4l3 0m-3 4l2 0m2 -12l0 2m4 -2l0 3m4 -3l0 2" />
</svg>
