<!--
category: Design
tags: [maths, dimensions, size, width, length, geometry, measure, technical]
version: "1.66"
unicode: "f196"
-->
<svg
  xmlns="http://www.w3.org/2000/svg"
  width="24"
  height="24"
  viewBox="0 0 24 24"
  fill="none"
  stroke="currentColor"
  stroke-width="2"
  stroke-linecap="round"
  stroke-linejoin="round"
>
    <path d="M8 4h11a1 1 0 0 1 1 1v5a1 1 0 0 1 -1 1h-4m-3.713 .299a1 1 0 0 0 -.287 .701v7a1 1 0 0 1 -1 1h-5a1 1 0 0 1 -1 -1v-14c0 -.284 .118 -.54 .308 -.722M4 8h2M4 12h3M4 16h2M12 4v3M16 4v2M3 3l18 18" />
</svg>
