<!--
category: System
tags: [technology, security, safety, safe, secure]
version: "1.70"
unicode: "f1ff"
-->
<svg
  xmlns="http://www.w3.org/2000/svg"
  width="24"
  height="24"
  viewBox="0 0 24 24"
  fill="none"
  stroke="currentColor"
  stroke-width="2"
  stroke-linecap="round"
  stroke-linejoin="round"
>
  <path d="M4 8v-2a2 2 0 0 1 2 -2h2m-4 12v2a2 2 0 0 0 2 2h2m8 -16h2a2 2 0 0 1 2 2v2m-4 12h2a2 2 0 0 0 2 -2v-2m-13 -4c3.333 -4.667 6.667 -4.667 10 0m-10 0c3.333 4.667 6.667 4.667 10 0m-5 0h-.01" />
</svg>
