<!--
category: Devices
tags: [data, database, storage, lighting, power, energy]
version: "1.85"
unicode: "f320"
-->
<svg
  xmlns="http://www.w3.org/2000/svg"
  width="24"
  height="24"
  viewBox="0 0 24 24"
  fill="none"
  stroke="currentColor"
  stroke-width="2"
  stroke-linecap="round"
  stroke-linejoin="round"
>
  <path d="M3 4m0 3a3 3 0 0 1 3 -3h12a3 3 0 0 1 3 3v2a3 3 0 0 1 -3 3h-12a3 3 0 0 1 -3 -3z" />
  <path d="M15 20h-9a3 3 0 0 1 -3 -3v-2a3 3 0 0 1 3 -3h12" />
  <path d="M7 8v.01" />
  <path d="M7 16v.01" />
  <path d="M20 15l-2 3h3l-2 3" />
</svg>
