<!--
tags: [storage, hosting, www, server, off, hardware, technology, disabled, inactive, electronic]
category: Devices
version: "1.66"
unicode: "f19e"
-->
<svg
  xmlns="http://www.w3.org/2000/svg"
  width="24"
  height="24"
  viewBox="0 0 24 24"
  fill="none"
  stroke="currentColor"
  stroke-width="2"
  stroke-linecap="round"
  stroke-linejoin="round"
>
  <path d="M12 12h-6a3 3 0 0 1 -3 -3v-2c0 -1.083 .574 -2.033 1.435 -2.56m3.565 -.44h10a3 3 0 0 1 3 3v2a3 3 0 0 1 -3 3h-2" />
  <path d="M16 12h2a3 3 0 0 1 3 3v2m-1.448 2.568a2.986 2.986 0 0 1 -1.552 .432h-12a3 3 0 0 1 -3 -3v-2a3 3 0 0 1 3 -3h6" />
  <path d="M7 8v.01" />
  <path d="M7 16v.01" />
  <path d="M3 3l18 18" />
</svg>
