<!--
tags: [cog, edit, gear, preferences, tools, settings, config, options, control, operation]
category: System
version: "1.110"
unicode: "f5ac"
-->
<svg
  xmlns="http://www.w3.org/2000/svg"
  width="24"
  height="24"
  viewBox="0 0 24 24"
  fill="none"
  stroke="currentColor"
  stroke-width="2"
  stroke-linecap="round"
  stroke-linejoin="round"
>
  <path d="M19.875 6.27a2.225 2.225 0 0 1 1.125 1.948v7.284c0 .809 -.443 1.555 -1.158 1.948l-6.75 4.27a2.269 2.269 0 0 1 -2.184 0l-6.75 -4.27a2.225 2.225 0 0 1 -1.158 -1.948v-7.285c0 -.809 .443 -1.554 1.158 -1.947l6.75 -3.98a2.33 2.33 0 0 1 2.25 0l6.75 3.98h-.033" />
  <path d="M9 12a3 3 0 1 0 6 0a3 3 0 1 0 -6 0" />
</svg>
