<!--
category: System
tags: [configuration, preferences, increase, elevate, ascend, rise, boost, improvement, upgrade, advance]
version: "2.10"
unicode: "f9be"
-->
<svg
  xmlns="http://www.w3.org/2000/svg"
  width="24"
  height="24"
  viewBox="0 0 24 24"
  fill="none"
  stroke="currentColor"
  stroke-width="2"
  stroke-linecap="round"
  stroke-linejoin="round"
>
  <path d="M12.501 20.93c-.866 .25 -1.914 -.166 -2.176 -1.247a1.724 1.724 0 0 0 -2.573 -1.066c-1.543 .94 -3.31 -.826 -2.37 -2.37a1.724 1.724 0 0 0 -1.065 -2.572c-1.756 -.426 -1.756 -2.924 0 -3.35a1.724 1.724 0 0 0 1.066 -2.573c-.94 -1.543 .826 -3.31 2.37 -2.37c1 .608 2.296 .07 2.572 -1.065c.426 -1.756 2.924 -1.756 3.35 0a1.724 1.724 0 0 0 2.573 1.066c1.543 -.94 3.31 .826 2.37 2.37a1.724 1.724 0 0 0 1.065 2.572c1.074 .26 1.49 1.296 1.252 2.158" />
  <path d="M19 22v-6" />
  <path d="M22 19l-3 -3l-3 3" />
  <path d="M9 12a3 3 0 1 0 6 0a3 3 0 0 0 -6 0" />
</svg>
