<!--
category: System
tags: [protection, highlight, excellent, security, guard, favorite, elite, premium, focus, top]
version: "2.10"
unicode: "f9cf"
-->
<svg
  xmlns="http://www.w3.org/2000/svg"
  width="24"
  height="24"
  viewBox="0 0 24 24"
  fill="none"
  stroke="currentColor"
  stroke-width="2"
  stroke-linecap="round"
  stroke-linejoin="round"
>
  <path d="M11.143 20.743a12 12 0 0 1 -7.643 -14.743a12 12 0 0 0 8.5 -3a12 12 0 0 0 8.5 3c.504 1.716 .614 3.505 .343 5.237" />
  <path d="M17.8 20.817l-2.172 1.138a.392 .392 0 0 1 -.568 -.41l.415 -2.411l-1.757 -1.707a.389 .389 0 0 1 .217 -.665l2.428 -.352l1.086 -2.193a.392 .392 0 0 1 .702 0l1.086 2.193l2.428 .352a.39 .39 0 0 1 .217 .665l-1.757 1.707l.414 2.41a.39 .39 0 0 1 -.567 .411l-2.172 -1.138" />
</svg>
