<!--
category: Vehicles
tags: [sail, sail across, ocean, river, lake, sea, sailor, journey, transit, manufactures, containers]
unicode: "f42a"
version: "1.94"
-->
<svg
  xmlns="http://www.w3.org/2000/svg"
  width="24"
  height="24"
  viewBox="0 0 24 24"
  fill="none"
  stroke="currentColor"
  stroke-width="2"
  stroke-linecap="round"
  stroke-linejoin="round"
>
  <path d="M2 20a2.4 2.4 0 0 0 2 1a2.4 2.4 0 0 0 2 -1a2.4 2.4 0 0 1 2 -1a2.4 2.4 0 0 1 2 1a2.4 2.4 0 0 0 2 1a2.4 2.4 0 0 0 2 -1a2.4 2.4 0 0 1 2 -1a2.4 2.4 0 0 1 2 1a2.4 2.4 0 0 0 2 1a2.4 2.4 0 0 0 2 -1" />
  <path d="M4 18l-1 -5h10m4 0h4l-1.334 2.668" />
  <path d="M5 13v-6h2m4 0h2l4 6" />
  <path d="M3 3l18 18" />
</svg>
