<!--
category: E-commerce
tags: [settings, gear, control, adjust, configure, tune, calibrate, manage, preference, customize]
version: "2.28"
unicode: "fb5b"
-->
<svg
  xmlns="http://www.w3.org/2000/svg"
  width="24"
  height="24"
  viewBox="0 0 24 24"
  fill="none"
  stroke="currentColor"
  stroke-width="2"
  stroke-linecap="round"
  stroke-linejoin="round"
>
    <path d="M4 19a2 2 0 1 0 4 0a2 2 0 0 0 -4 0M12 17h-6v-14h-2M6 5l14 1l-.79 5.526m-3.21 1.474h-10M19.001 19m-2 0a2 2 0 1 0 4 0a2 2 0 1 0 -4 0M19.001 15.5v1.5M19.001 21v1.5M22.032 17.25l-1.299 .75M17.27 20l-1.3 .75M15.97 17.25l1.3 .75M20.733 20l1.3 .75" />
</svg>
