<!--
category: E-commerce
tags: [find, locate, discover, explore, investigate, browse, inquire, inspect, seek, look]
version: "2.29"
unicode: "fc1c"
-->
<svg
  xmlns="http://www.w3.org/2000/svg"
  width="24"
  height="24"
  viewBox="0 0 24 24"
  fill="none"
  stroke="currentColor"
  stroke-width="2"
  stroke-linecap="round"
  stroke-linejoin="round"
>
  <path d="M11.5 21h-2.926a3 3 0 0 1 -2.965 -2.544l-1.255 -8.152a2 2 0 0 1 1.977 -2.304h11.339a2 2 0 0 1 1.977 2.304l-.117 .761" />
  <path d="M9 11v-5a3 3 0 0 1 6 0v5" />
  <path d="M15 18a3 3 0 1 0 6 0a3 3 0 1 0 -6 0" />
  <path d="M20.2 20.2l1.8 1.8" />
</svg>
