<!--
tags: [photo, picture, video, presentation, camera, display, ad]
category: Text
version: "1.5"
unicode: "ebc9"
-->
<svg
  xmlns="http://www.w3.org/2000/svg"
  width="24"
  height="24"
  viewBox="0 0 24 24"
  fill="none"
  stroke="currentColor"
  stroke-width="2"
  stroke-linecap="round"
  stroke-linejoin="round"
>
    <path d="M15 6l.01 0M3 3m0 3a3 3 0 0 1 3 -3h12a3 3 0 0 1 3 3v8a3 3 0 0 1 -3 3h-12a3 3 0 0 1 -3 -3zM3 13l4 -4a3 5 0 0 1 3 0l4 4M13 12l2 -2a3 5 0 0 1 3 0l3 3M8 21l.01 0M12 21l.01 0M16 21l.01 0" />
</svg>
