<!--
tags: [ban, prohibition, cigarette, public place]
version: "1.18"
category: Health
unicode: "ecc3"
-->
<svg
  xmlns="http://www.w3.org/2000/svg"
  width="24"
  height="24"
  viewBox="0 0 24 24"
  fill="none"
  stroke="currentColor"
  stroke-width="2"
  stroke-linecap="round"
  stroke-linejoin="round"
>
  <path d="M8 13l0 4" />
  <path d="M16 5v.5a2 2 0 0 0 2 2a2 2 0 0 1 2 2v.5" />
  <path d="M3 3l18 18" />
  <path d="M17 13h3a1 1 0 0 1 1 1v2c0 .28 -.115 .533 -.3 .714m-3.7 .286h-13a1 1 0 0 1 -1 -1v-2a1 1 0 0 1 1 -1h9" />
</svg>
