<!--
tags: [society, community, collectivity]
version: "1.7"
unicode: "ebec"
-->
<svg
  xmlns="http://www.w3.org/2000/svg"
  width="24"
  height="24"
  viewBox="0 0 24 24"
  fill="none"
  stroke="currentColor"
  stroke-width="2"
  stroke-linecap="round"
  stroke-linejoin="round"
>
    <path d="M12 5m-2 0a2 2 0 1 0 4 0a2 2 0 1 0 -4 0M5 19m-2 0a2 2 0 1 0 4 0a2 2 0 1 0 -4 0M19 19m-2 0a2 2 0 1 0 4 0a2 2 0 1 0 -4 0M12 14m-3 0a3 3 0 1 0 6 0a3 3 0 1 0 -6 0M12 7l0 4M6.7 17.8l2.8 -2M17.3 17.8l-2.8 -2" />
</svg>
