<!--
tags: [filter, classify, arrange, order, sort, ascending, numbers, typography, writing, font]
category: Text
version: "1.40"
unicode: "ef19"
-->
<svg
  xmlns="http://www.w3.org/2000/svg"
  width="24"
  height="24"
  viewBox="0 0 24 24"
  fill="none"
  stroke="currentColor"
  stroke-width="2"
  stroke-linecap="round"
  stroke-linejoin="round"
>
  <path d="M4 15l3 3l3 -3" />
  <path d="M7 6v12" />
  <path d="M17 3a2 2 0 0 1 2 2v3a2 2 0 1 1 -4 0v-3a2 2 0 0 1 2 -2" />
  <path d="M15 16a2 2 0 1 0 4 0a2 2 0 1 0 -4 0" />
  <path d="M19 16v3a2 2 0 0 1 -2 2h-1.5" />
</svg>
