<!--
tags: [halloween, animal, scary, horror, cobweb, insect]
category: Animals
version: "1.78"
unicode: "f293"
-->
<svg
  xmlns="http://www.w3.org/2000/svg"
  width="24"
  height="24"
  viewBox="0 0 24 24"
  fill="none"
  stroke="currentColor"
  stroke-width="2"
  stroke-linecap="round"
  stroke-linejoin="round"
>
  <path d="M5 4v2l5 5m-7.5 -1.5l1.5 1.5h6m-6 8v-2l6 -6m9 -7v2l-5 5m7.5 -1.5l-1.5 1.5h-6m6 8v-2l-6 -6m-2 4m-4 0a4 4 0 1 0 8 0a4 4 0 1 0 -8 0m4 -6m-2 0a2 2 0 1 0 4 0a2 2 0 1 0 -4 0" />
</svg>
