<!--
category: System
tags: [security, incognito, privacy, browser, web, spy, off, disabled, inactive]
version: "1.94"
unicode: "f42f"
-->
<svg
  xmlns="http://www.w3.org/2000/svg"
  width="24"
  height="24"
  viewBox="0 0 24 24"
  fill="none"
  stroke="currentColor"
  stroke-width="2"
  stroke-linecap="round"
  stroke-linejoin="round"
>
  <path d="M3 11h8m4 0h6" />
  <path d="M5 11v-4c0 -.571 .16 -1.105 .437 -1.56m2.563 -1.44h8a3 3 0 0 1 3 3v4" />
  <path d="M4 17a3 3 0 1 0 6 0a3 3 0 1 0 -6 0" />
  <path d="M14.88 14.877a3 3 0 1 0 4.239 4.247m.59 -3.414a3.012 3.012 0 0 0 -1.425 -1.422" />
  <path d="M10 17h4" />
  <path d="M3 3l18 18" />
</svg>
