<!--
category: Shapes
tags: [shape, lock, door, acsses, square, key, rectangular]
version: "1.117"
unicode: "f638"
-->
<svg
  xmlns="http://www.w3.org/2000/svg"
  width="24"
  height="24"
  viewBox="0 0 24 24"
  fill="none"
  stroke="currentColor"
  stroke-width="2"
  stroke-linecap="round"
  stroke-linejoin="round"
>
  <path d="M12 10a2 2 0 1 0 4 0a2 2 0 1 0 -4 0" />
  <path d="M12.5 11.5l-4 4l1.5 1.5" />
  <path d="M12 15l-1.5 -1.5" />
  <path d="M3 5a2 2 0 0 1 2 -2h14a2 2 0 0 1 2 2v14a2 2 0 0 1 -2 2h-14a2 2 0 0 1 -2 -2v-14" />
</svg>
