<!--
tags: [shape, keyboard, button, key, hotkey]
unicode: "f529"
version: "1.103"
category: System
-->
<svg
  xmlns="http://www.w3.org/2000/svg"
  width="24"
  height="24"
  viewBox="0 0 24 24"
  fill="none"
  stroke="currentColor"
  stroke-width="2"
  stroke-linecap="round"
  stroke-linejoin="round"
>
  <path d="M3 3m0 2a2 2 0 0 1 2 -2h14a2 2 0 0 1 2 2v14a2 2 0 0 1 -2 2h-14a2 2 0 0 1 -2 -2zm10 4.5a.5 .5 0 0 1 .5 -.5h1a1.5 1.5 0 0 1 0 3h-.5h.5a1.5 1.5 0 0 1 0 3h-1a.5 .5 0 0 1 -.5 -.5m-5 -2.5h2m0 -3h-2v6" />
</svg>
