<!--
tags: [app, social, games, platform, software]
version: "1.74"
unicode: "f24b"
-->
<svg
  xmlns="http://www.w3.org/2000/svg"
  width="24"
  height="24"
  viewBox="0 0 24 24"
  fill="none"
  stroke="currentColor"
  stroke-width="2"
  stroke-linecap="round"
  stroke-linejoin="round"
>
  <path d="M12 4m-1 0a1 1 0 1 0 2 0a1 1 0 1 0 -2 0m-7 8m-1 0a1 1 0 1 0 2 0a1 1 0 1 0 -2 0m17 0m-1 0a1 1 0 1 0 2 0a1 1 0 1 0 -2 0m-7 8m-1 0a1 1 0 1 0 2 0a1 1 0 1 0 -2 0m-5.5 -14.5l3 3m7 7l3 3m0 -13l-3 3m-7 7l-3 3" />
</svg>
