<!--
tags: [app, social, games, platform, software]
version: "1.74"
unicode: "f24b"
-->
<svg
  xmlns="http://www.w3.org/2000/svg"
  width="24"
  height="24"
  viewBox="0 0 24 24"
  fill="none"
  stroke="currentColor"
  stroke-width="2"
  stroke-linecap="round"
  stroke-linejoin="round"
>
    <path d="M12 4m-1 0a1 1 0 1 0 2 0a1 1 0 1 0 -2 0M4 12m-1 0a1 1 0 1 0 2 0a1 1 0 1 0 -2 0M20 12m-1 0a1 1 0 1 0 2 0a1 1 0 1 0 -2 0M12 20m-1 0a1 1 0 1 0 2 0a1 1 0 1 0 -2 0M5.5 5.5l3 3M15.5 15.5l3 3M18.5 5.5l-3 3M8.5 15.5l-3 3" />
</svg>
