<!--
category: Currencies
tags: [finance, charge, duty, levy, value, government, revenue, fee, assessment, payment]
unicode: "feee"
version: "3.5"
-->
<svg
  xmlns="http://www.w3.org/2000/svg"
  width="24"
  height="24"
  viewBox="0 0 24 24"
  fill="none"
  stroke="currentColor"
  stroke-width="2"
  stroke-linecap="round"
  stroke-linejoin="round"
>
  <path d="M8.487 21h7.026a4 4 0 0 0 3.808 -5.224l-1.706 -5.306a5 5 0 0 0 -4.76 -3.47h-1.71a5 5 0 0 0 -4.76 3.47l-1.706 5.306a4 4 0 0 0 3.808 5.224" />
  <path d="M15 3q -1 4 -3 4t -3 -4l6 0" />
  <path d="M14 11h-2.5a1.5 1.5 0 0 0 0 3h1a1.5 1.5 0 0 1 0 3h-2.5" />
  <path d="M12 10v1" />
  <path d="M12 17v1" />
</svg>
