<!--
tags: [kettle, kitchen, hot, coffee, kitchenware]
version: "1.105"
unicode: "f552"
-->
<svg
  xmlns="http://www.w3.org/2000/svg"
  width="24"
  height="24"
  viewBox="0 0 24 24"
  fill="none"
  stroke="currentColor"
  stroke-width="2"
  stroke-linecap="round"
  stroke-linejoin="round"
>
  <path d="M10.29 3h3.42a2 2 0 0 1 1.988 1.78l1.555 14a2 2 0 0 1 -1.988 2.22h-6.53a2 2 0 0 1 -1.988 -2.22l1.555 -14a2 2 0 0 1 1.988 -1.78z" />
  <path d="M7.47 12.5l-4.257 -5.019a.899 .899 0 0 1 .69 -1.481h13.09a3 3 0 0 1 3.007 3v3c0 1.657 -1.346 3 -3.007 3" />
  <path d="M7 17h10" />
</svg>
