<!--
tags: [text, outline, font, typography, writing, letter, character, style, editor, border, stroke]
category: Text
unicode: "1026f"
version: "3.45"
-->
<svg
  xmlns="http://www.w3.org/2000/svg"
  width="24"
  height="24"
  viewBox="0 0 24 24"
  fill="none"
  stroke="currentColor"
  stroke-width="2"
  stroke-linecap="round"
  stroke-linejoin="round"
>
  <path d="M3 8v-1a2 2 0 0 1 2 -2h14a2 2 0 0 1 2 2v1" />
  <path d="M3 16v1a2 2 0 0 0 2 2h14a2 2 0 0 0 2 -2v-1" />
  <path d="M21.01 12h.01" />
  <path d="M3.01 12h.01" />
  <path d="M10 15v-4a2 2 0 1 1 4 0v4" />
  <path d="M10 13h4" />
</svg>
