<!--
tags: [dislike, bad, emotion, thumb, down, off, bottom, decrease, control, operation]
category: System
version: "1.94"
unicode: "f436"
-->
<svg
  xmlns="http://www.w3.org/2000/svg"
  width="24"
  height="24"
  viewBox="0 0 24 24"
  fill="none"
  stroke="currentColor"
  stroke-width="2"
  stroke-linecap="round"
  stroke-linejoin="round"
>
  <path d="M7 13v-6m-3 -3a1 1 0 0 0 -1 1v7a1 1 0 0 0 1 1h3a4 4 0 0 1 4 4v1a2 2 0 1 0 4 0v-3m2 -2h1a2 2 0 0 0 2 -2l-1 -5c-.295 -1.26 -1.11 -2.076 -2 -2h-7c-.57 0 -1.102 .159 -1.556 .434" />
  <path d="M3 3l18 18" />
</svg>
