<!--
tags: [process, plan, planning, diagram, chart, roadmap]
version: "1.55"
unicode: "f031"
-->
<svg
  xmlns="http://www.w3.org/2000/svg"
  width="24"
  height="24"
  viewBox="0 0 24 24"
  fill="none"
  stroke="currentColor"
  stroke-width="2"
  stroke-linecap="round"
  stroke-linejoin="round"
>
  <path d="M4 16l6 -7l5 5l5 -6" />
  <path d="M15 14m-1 0a1 1 0 1 0 2 0a1 1 0 1 0 -2 0" />
  <path d="M10 9m-1 0a1 1 0 1 0 2 0a1 1 0 1 0 -2 0" />
  <path d="M4 16m-1 0a1 1 0 1 0 2 0a1 1 0 1 0 -2 0" />
  <path d="M20 8m-1 0a1 1 0 1 0 2 0a1 1 0 1 0 -2 0" />
</svg>
