<!--
tags: [half-hour, thirty, minutes, interval, timer, duration, medium, span, time, clock]
category: System
version: "2.22"
unicode: "fad7"
-->
<svg
  xmlns="http://www.w3.org/2000/svg"
  width="24"
  height="24"
  viewBox="0 0 24 24"
  fill="none"
  stroke="currentColor"
  stroke-width="2"
  stroke-linecap="round"
  stroke-linejoin="round"
>
  <path d="M14 10.5v3a1.5 1.5 0 0 0 3 0v-3a1.5 1.5 0 0 0 -3 0" />
  <path d="M8 9h1.5a1.5 1.5 0 0 1 0 3h-.5h.5a1.5 1.5 0 0 1 0 3h-1.5" />
  <path d="M3 12v.01" />
  <path d="M7.5 4.2v.01" />
  <path d="M7.5 19.8v.01" />
  <path d="M4.2 16.5v.01" />
  <path d="M4.2 7.5v.01" />
  <path d="M12 21a9 9 0 0 0 0 -18" />
</svg>
