<!--
tags: [half-hour, thirty, minutes, interval, timer, duration, medium, span, time, clock]
category: System
version: "2.22"
unicode: "fad7"
-->
<svg
  xmlns="http://www.w3.org/2000/svg"
  width="24"
  height="24"
  viewBox="0 0 24 24"
  fill="none"
  stroke="currentColor"
  stroke-width="2"
  stroke-linecap="round"
  stroke-linejoin="round"
>
  <path d="M14 10.5v3a1.5 1.5 0 0 0 3 0v-3a1.5 1.5 0 0 0 -3 0zm-6 -1.5h1.5a1.5 1.5 0 0 1 0 3h-.5h.5a1.5 1.5 0 0 1 0 3h-1.5m-5 -3v.01m4.5 -7.81v.01m0 15.59v.01m-3.3 -3.31v.01m0 -9.01v.01m7.8 13.49a9 9 0 0 0 0 -18" />
</svg>
