<!--
category: System
version: "2.22"
unicode: "fadb"
-->
<svg
  xmlns="http://www.w3.org/2000/svg"
  width="24"
  height="24"
  viewBox="0 0 24 24"
  fill="none"
  stroke="currentColor"
  stroke-width="2"
  stroke-linecap="round"
  stroke-linejoin="round"
>
  <path d="M8 14.25c0 .414 .336 .75 .75 .75h1.5a.75 .75 0 0 0 .75 -.75v-4.5a.75 .75 0 0 0 -.75 -.75h-1.5a.75 .75 0 0 0 -.75 .75v1.5c0 .414 .336 .75 .75 .75h2.25" />
  <path d="M14 10.5v3a1.5 1.5 0 0 0 3 0v-3a1.5 1.5 0 0 0 -3 0z" />
  <path d="M3 12a9 9 0 1 0 18 0a9 9 0 0 0 -18 0" />
</svg>
