<!--
tags: [delivery, transportation, transport, logistics, vehicle, goods]
category: Vehicles
version: "1.7"
unicode: "ebf0"
-->
<svg
  xmlns="http://www.w3.org/2000/svg"
  width="24"
  height="24"
  viewBox="0 0 24 24"
  fill="none"
  stroke="currentColor"
  stroke-width="2"
  stroke-linecap="round"
  stroke-linejoin="round"
>
  <path d="M5 17m-2 0a2 2 0 1 0 4 0a2 2 0 1 0 -4 0" />
  <path d="M17 17m-2 0a2 2 0 1 0 4 0a2 2 0 1 0 -4 0" />
  <path d="M7 18h8m4 0h2v-6a5 7 0 0 0 -5 -7h-1l1.5 7h4.5" />
  <path d="M12 18v-13h3" />
  <path d="M3 17l0 -5l9 0" />
</svg>
