<!--
category: Computers
tags: [hierarchy, network, structure, connection]
unicode: "f5de"
version: "1.112"
-->
<svg
  xmlns="http://www.w3.org/2000/svg"
  width="24"
  height="24"
  viewBox="0 0 24 24"
  fill="none"
  stroke="currentColor"
  stroke-width="2"
  stroke-linecap="round"
  stroke-linejoin="round"
>
    <path d="M8 18a2 2 0 1 0 -4 0a2 2 0 0 0 4 0zM20 18a2 2 0 1 0 -4 0a2 2 0 0 0 4 0zM20 6a2 2 0 1 0 -4 0a2 2 0 0 0 4 0zM8 6a2 2 0 1 0 -4 0a2 2 0 0 0 4 0zM6 8v8M18 16v-8M8 6h8M16 18h-8" />
</svg>
