<!--
tags: [hierarchy, network, structure, connection]
category: Computers
unicode: "f5e4"
version: "1.112"
-->
<svg
  xmlns="http://www.w3.org/2000/svg"
  width="24"
  height="24"
  viewBox="0 0 24 24"
  fill="none"
  stroke="currentColor"
  stroke-width="2"
  stroke-linecap="round"
  stroke-linejoin="round"
>
    <path d="M14 20a2 2 0 1 0 -4 0a2 2 0 0 0 4 0zM14 4a2 2 0 1 0 -4 0a2 2 0 0 0 4 0zM6 12a2 2 0 1 0 -4 0a2 2 0 0 0 4 0zM22 12a2 2 0 1 0 -4 0a2 2 0 0 0 4 0zM14 12a2 2 0 1 0 -4 0a2 2 0 0 0 4 0zM6 12h4M14 12h4M13.5 5.5l5 5M5.5 13.5l5 5M13.5 18.5l5 -5M10.5 5.5l-5 5M12 6v4M12 14v4" />
</svg>
