<!--
category: Computers
tags: [hierarchy, network, structure, connection]
unicode: "f5e0"
version: "1.112"
-->
<svg
  xmlns="http://www.w3.org/2000/svg"
  width="24"
  height="24"
  viewBox="0 0 24 24"
  fill="none"
  stroke="currentColor"
  stroke-width="2"
  stroke-linecap="round"
  stroke-linejoin="round"
>
  <path d="M14 20a2 2 0 1 0 -4 0a2 2 0 0 0 4 0zm0 -16a2 2 0 1 0 -4 0a2 2 0 0 0 4 0zm-8 8a2 2 0 1 0 -4 0a2 2 0 0 0 4 0zm16 0a2 2 0 1 0 -4 0a2 2 0 0 0 4 0zm-8 0a2 2 0 1 0 -4 0a2 2 0 0 0 4 0zm-8 0h4m4 0h4m-6 -6v4m0 4v4" />
</svg>
