<!--
category: Computers
tags: [hierarchy, network, structure, connection]
unicode: "f5dd"
version: "1.112"
-->
<svg
  xmlns="http://www.w3.org/2000/svg"
  width="24"
  height="24"
  viewBox="0 0 24 24"
  fill="none"
  stroke="currentColor"
  stroke-width="2"
  stroke-linecap="round"
  stroke-linejoin="round"
>
  <path d="M14 6a2 2 0 1 0 -4 0a2 2 0 0 0 4 0z" />
  <path d="M7 18a2 2 0 1 0 -4 0a2 2 0 0 0 4 0z" />
  <path d="M21 18a2 2 0 1 0 -4 0a2 2 0 0 0 4 0z" />
  <path d="M7 18h10" />
  <path d="M18 16l-5 -8" />
  <path d="M11 8l-5 8" />
</svg>
