<!--
category: Computers
tags: [hierarchy, network, structure, connection]
unicode: "f5e3"
version: "1.112"
-->
<svg
  xmlns="http://www.w3.org/2000/svg"
  width="24"
  height="24"
  viewBox="0 0 24 24"
  fill="none"
  stroke="currentColor"
  stroke-width="2"
  stroke-linecap="round"
  stroke-linejoin="round"
>
    <path d="M10 19a2 2 0 1 0 -4 0a2 2 0 0 0 4 0zM18 5a2 2 0 1 0 -4 0a2 2 0 0 0 4 0zM10 5a2 2 0 1 0 -4 0a2 2 0 0 0 4 0zM6 12a2 2 0 1 0 -4 0a2 2 0 0 0 4 0zM18 19a2 2 0 1 0 -4 0a2 2 0 0 0 4 0zM14 12a2 2 0 1 0 -4 0a2 2 0 0 0 4 0zM22 12a2 2 0 1 0 -4 0a2 2 0 0 0 4 0zM6 12h4M14 12h4M15 7l-2 3M9 7l2 3M11 14l-2 3M13 14l2 3M10 5h4M10 19h4M17 17l2 -3M19 10l-2 -3M7 7l-2 3M5 14l2 3" />
</svg>
