<!--
category: Computers
tags: [hierarchy, network, structure, connection]
unicode: "f5e3"
version: "1.112"
-->
<svg
  xmlns="http://www.w3.org/2000/svg"
  width="24"
  height="24"
  viewBox="0 0 24 24"
  fill="none"
  stroke="currentColor"
  stroke-width="2"
  stroke-linecap="round"
  stroke-linejoin="round"
>
  <path d="M10 19a2 2 0 1 0 -4 0a2 2 0 0 0 4 0zm8 -14a2 2 0 1 0 -4 0a2 2 0 0 0 4 0zm-8 0a2 2 0 1 0 -4 0a2 2 0 0 0 4 0zm-4 7a2 2 0 1 0 -4 0a2 2 0 0 0 4 0zm12 7a2 2 0 1 0 -4 0a2 2 0 0 0 4 0zm-4 -7a2 2 0 1 0 -4 0a2 2 0 0 0 4 0zm8 0a2 2 0 1 0 -4 0a2 2 0 0 0 4 0zm-16 0h4m4 0h4m-3 -5l-2 3m-4 -3l2 3m0 4l-2 3m4 -3l2 3m-5 -12h4m-4 14h4m3 -2l2 -3m0 -4l-2 -3m-10 0l-2 3m0 4l2 3" />
</svg>
