<!--
category: Computers
tags: [hierarchy, network, structure, connection]
unicode: "f5de"
version: "1.112"
-->
<svg
  xmlns="http://www.w3.org/2000/svg"
  width="24"
  height="24"
  viewBox="0 0 24 24"
  fill="none"
  stroke="currentColor"
  stroke-width="2"
  stroke-linecap="round"
  stroke-linejoin="round"
>
  <path d="M8 18a2 2 0 1 0 -4 0a2 2 0 0 0 4 0zm12 0a2 2 0 1 0 -4 0a2 2 0 0 0 4 0zm0 -12a2 2 0 1 0 -4 0a2 2 0 0 0 4 0zm-12 0a2 2 0 1 0 -4 0a2 2 0 0 0 4 0zm-2 2v8m12 0v-8m-10 -2h8m0 12h-8" />
</svg>
