<!--
tags: [hierarchy, network, structure, connection]
category: Computers
unicode: "f5da"
version: "1.112"
-->
<svg
  xmlns="http://www.w3.org/2000/svg"
  width="24"
  height="24"
  viewBox="0 0 24 24"
  fill="none"
  stroke="currentColor"
  stroke-width="2"
  stroke-linecap="round"
  stroke-linejoin="round"
>
  <path d="M20 18a2 2 0 1 0 -4 0a2 2 0 0 0 4 0z" />
  <path d="M8 18a2 2 0 1 0 -4 0a2 2 0 0 0 4 0z" />
  <path d="M8 6a2 2 0 1 0 -4 0a2 2 0 0 0 4 0z" />
  <path d="M20 6a2 2 0 1 0 -4 0a2 2 0 0 0 4 0z" />
  <path d="M14 12a2 2 0 1 0 -4 0a2 2 0 0 0 4 0z" />
  <path d="M7.5 7.5l3 3" />
  <path d="M6 8v8" />
  <path d="M18 16v-8" />
  <path d="M8 6h8" />
  <path d="M16 18h-8" />
</svg>
