<!--
tags: [hierarchy, network, structure, connection, topology, star, ring, favorite, rating, computing]
category: Computers
version: "1.112"
unicode: "f5e2"
-->
<svg
  xmlns="http://www.w3.org/2000/svg"
  width="24"
  height="24"
  viewBox="0 0 24 24"
  fill="none"
  stroke="currentColor"
  stroke-width="2"
  stroke-linecap="round"
  stroke-linejoin="round"
>
  <path d="M14 20a2 2 0 1 0 -4 0a2 2 0 0 0 4 0" />
  <path d="M14 4a2 2 0 1 0 -4 0a2 2 0 0 0 4 0" />
  <path d="M6 12a2 2 0 1 0 -4 0a2 2 0 0 0 4 0" />
  <path d="M22 12a2 2 0 1 0 -4 0a2 2 0 0 0 4 0" />
  <path d="M14 12a2 2 0 1 0 -4 0a2 2 0 0 0 4 0" />
  <path d="M6 12h4" />
  <path d="M14 12h4" />
  <path d="M12 6v4" />
  <path d="M12 14v4" />
  <path d="M5.5 10.5l5 -5" />
  <path d="M13.5 5.5l5 5" />
  <path d="M18.5 13.5l-5 5" />
  <path d="M10.5 18.5l-5 -5" />
</svg>
