<!--
tags: [countryside, vehicle, harvest, machine, motor, farm, trailer]
category: Vehicles
version: "1.8"
unicode: "ec0d"
-->
<svg
  xmlns="http://www.w3.org/2000/svg"
  width="24"
  height="24"
  viewBox="0 0 24 24"
  fill="none"
  stroke="currentColor"
  stroke-width="2"
  stroke-linecap="round"
  stroke-linejoin="round"
>
  <path d="M7 15m-4 0a4 4 0 1 0 8 0a4 4 0 1 0 -8 0m4 0l0 .01m12 1.99m-2 0a2 2 0 1 0 4 0a2 2 0 1 0 -4 0m-6.5 0l6.5 0m3 -1.8v-4.2a1 1 0 0 0 -1 -1h-6l-2 -5h-6v6.5m13 -6.5h-1a1 1 0 0 0 -1 1v4" />
</svg>
