<!--
category: Map
tags: [street, road, green, red, yellow, vehicle, stop, drive, crossing, pedestrian, crossroads, junction, intersection]
version: "1.27"
unicode: "ed39"
-->
<svg
  xmlns="http://www.w3.org/2000/svg"
  width="24"
  height="24"
  viewBox="0 0 24 24"
  fill="none"
  stroke="currentColor"
  stroke-width="2"
  stroke-linecap="round"
  stroke-linejoin="round"
>
  <path d="M7 7a5 5 0 0 1 5 -5a5 5 0 0 1 5 5v10a5 5 0 0 1 -5 5a5 5 0 0 1 -5 -5l0 -10" />
  <path d="M11 7a1 1 0 1 0 2 0a1 1 0 1 0 -2 0" />
  <path d="M11 12a1 1 0 1 0 2 0a1 1 0 1 0 -2 0" />
  <path d="M11 17a1 1 0 1 0 2 0a1 1 0 1 0 -2 0" />
</svg>
