<!--
tags: [currency, exchange, trade, payment, cash, money, rupee, finance, transfer, india]
version: "2.45"
unicode: "fd85"
-->
<svg
  xmlns="http://www.w3.org/2000/svg"
  width="24"
  height="24"
  viewBox="0 0 24 24"
  fill="none"
  stroke="currentColor"
  stroke-width="2"
  stroke-linecap="round"
  stroke-linejoin="round"
>
    <path d="M21 12h-6h1a3 3 0 0 1 0 6h-1l3 3M15 15h6M5 5m-2 0a2 2 0 1 0 4 0a2 2 0 1 0 -4 0M17 5m-2 0a2 2 0 1 0 4 0a2 2 0 1 0 -4 0M7 5h8M7 5v8a3 3 0 0 0 3 3h1" />
</svg>
