<!--
tags: [china, currency, exchange, trade, payment, cash, money, yuan, finance, transfer]
category: E-commerce
version: "2.44"
unicode: "fd73"
-->
<svg
  xmlns="http://www.w3.org/2000/svg"
  width="24"
  height="24"
  viewBox="0 0 24 24"
  fill="none"
  stroke="currentColor"
  stroke-width="2"
  stroke-linecap="round"
  stroke-linejoin="round"
>
  <path d="M15 17h6m-6 -5l3 4.5m3 -4.5l-3 4.5v4.5m-13 -16m-2 0a2 2 0 1 0 4 0a2 2 0 1 0 -4 0m14 0m-2 0a2 2 0 1 0 4 0a2 2 0 1 0 -4 0m-8 0h8m-8 0v8a3 3 0 0 0 3 3h1" />
</svg>
