<!--
tags: [usd, currency, exchange, trade, payment, cash, money, dollar, finance, transfer]
category: E-commerce
version: "2.44"
unicode: "fd6f"
-->
<svg
  xmlns="http://www.w3.org/2000/svg"
  width="24"
  height="24"
  viewBox="0 0 24 24"
  fill="none"
  stroke="currentColor"
  stroke-width="2"
  stroke-linecap="round"
  stroke-linejoin="round"
>
  <path d="M20.8 13a2 2 0 0 0 -1.8 -1h-2a2 2 0 1 0 0 4h2a2 2 0 1 1 0 4h-2a2 2 0 0 1 -1.8 -1m2.8 -8v10m-13 -16m-2 0a2 2 0 1 0 4 0a2 2 0 1 0 -4 0m14 0m-2 0a2 2 0 1 0 4 0a2 2 0 1 0 -4 0m-8 0h8m-8 0v8a3 3 0 0 0 3 3h1" />
</svg>
