<!--
tags: [crypto, currency, exchange, trade, payment, blockchain, digital, bitcoin, decentralized, transfer]
category: Currencies
version: "2.44"
unicode: "fd6e"
-->
<svg
  xmlns="http://www.w3.org/2000/svg"
  width="24"
  height="24"
  viewBox="0 0 24 24"
  fill="none"
  stroke="currentColor"
  stroke-width="2"
  stroke-linecap="round"
  stroke-linejoin="round"
>
  <path d="M15 12h4.09c1.055 0 1.91 .895 1.91 2s-.855 2 -1.91 2c1.055 0 1.91 .895 1.91 2s-.855 2 -1.91 2h-4.09" />
  <path d="M16 16h4" />
  <path d="M16 11v10v-9" />
  <path d="M19 11v1" />
  <path d="M19 20v1" />
  <path d="M3 5a2 2 0 1 0 4 0a2 2 0 1 0 -4 0" />
  <path d="M15 5a2 2 0 1 0 4 0a2 2 0 1 0 -4 0" />
  <path d="M7 5h8" />
  <path d="M7 5v8a3 3 0 0 0 3 3h1" />
</svg>
