<!--
tags: [direction, south, down, moving]
category: Arrows
version: "1.80"
unicode: "f2b2"
-->
<svg
  xmlns="http://www.w3.org/2000/svg"
  width="24"
  height="24"
  viewBox="0 0 24 24"
  fill="none"
  stroke="currentColor"
  stroke-width="2"
  stroke-linecap="round"
  stroke-linejoin="round"
>
  <path d="M21 18a3 3 0 0 1 -3 3h-12a3 3 0 0 1 -3 -3" />
  <path d="M3 3m0 3a3 3 0 0 1 3 -3h12a3 3 0 0 1 3 3v0a3 3 0 0 1 -3 3h-12a3 3 0 0 1 -3 -3z" />
  <path d="M12 9v8" />
  <path d="M9 14l3 3l3 -3" />
</svg>
