<!--
tags: [currency, exchange, trade, payment, cash, money, euro, finance, transfer, bank]
category: E-commerce
version: "2.44"
unicode: "fd70"
-->
<svg
  xmlns="http://www.w3.org/2000/svg"
  width="24"
  height="24"
  viewBox="0 0 24 24"
  fill="none"
  stroke="currentColor"
  stroke-width="2"
  stroke-linecap="round"
  stroke-linejoin="round"
>
  <path d="M21 12.8c-.523 -.502 -1.172 -.8 -1.875 -.8c-1.727 0 -3.125 1.791 -3.125 4s1.398 4 3.125 4c.703 0 1.352 -.298 1.874 -.8m-5.999 -3.2h4m-14 -11m-2 0a2 2 0 1 0 4 0a2 2 0 1 0 -4 0m14 0m-2 0a2 2 0 1 0 4 0a2 2 0 1 0 -4 0m-8 0h8m-8 0v8a3 3 0 0 0 3 3h1" />
</svg>
