<!--
tags: [crypto, currency, exchange, trade, payment, blockchain, digital, bitcoin, decentralized, transfer]
Category: E-commerce
version: "2.44"
unicode: "fd6e"
-->
<svg
  xmlns="http://www.w3.org/2000/svg"
  width="24"
  height="24"
  viewBox="0 0 24 24"
  fill="none"
  stroke="currentColor"
  stroke-width="2"
  stroke-linecap="round"
  stroke-linejoin="round"
>
  <path d="M15 12h4.09c1.055 0 1.91 .895 1.91 2s-.855 2 -1.91 2c1.055 0 1.91 .895 1.91 2s-.855 2 -1.91 2h-4.09m1 -4h4m-4 -5v10v-9m3 -1v1m0 8v1m-14 -16m-2 0a2 2 0 1 0 4 0a2 2 0 1 0 -4 0m14 0m-2 0a2 2 0 1 0 4 0a2 2 0 1 0 -4 0m-8 0h8m-8 0v8a3 3 0 0 0 3 3h1" />
</svg>
