<!--
tags: [currency, exchange, trade, payment, cash, money, pound, finance, transfer, bank]
category: E-commerce
version: "2.44"
unicode: "fd71"
-->
<svg
  xmlns="http://www.w3.org/2000/svg"
  width="24"
  height="24"
  viewBox="0 0 24 24"
  fill="none"
  stroke="currentColor"
  stroke-width="2"
  stroke-linecap="round"
  stroke-linejoin="round"
>
  <path d="M21 14a2 2 0 1 0 -4 0v4a2 2 0 0 1 -2 2h6m-6 -3h4m-14 -12m-2 0a2 2 0 1 0 4 0a2 2 0 1 0 -4 0m14 0m-2 0a2 2 0 1 0 4 0a2 2 0 1 0 -4 0m-8 0h8m-8 0v8a3 3 0 0 0 3 3h1" />
</svg>
