<!--
category: System
tags: [garbage, delete, remove, bin, ash-bin, uninstall, dustbin]
version: "1.31"
unicode: "ed65"
-->
<svg
  xmlns="http://www.w3.org/2000/svg"
  width="24"
  height="24"
  viewBox="0 0 24 24"
  fill="none"
  stroke="currentColor"
  stroke-width="2"
  stroke-linecap="round"
  stroke-linejoin="round"
>
    <path d="M3 3l18 18M4 7h3m4 0h9M10 11l0 6M14 14l0 3M5 7l1 12a2 2 0 0 0 2 2h8a2 2 0 0 0 2 -2l.077 -.923M18.384 14.373l.616 -7.373M9 5v-1a1 1 0 0 1 1 -1h4a1 1 0 0 1 1 1v3" />
</svg>
