<!--
tags: [exercise, workout, fitness, running, cardio, machine, gym, aerobic, health, training]
category: Sport
version: "2.17"
unicode: "fa6e"
-->
<svg
  xmlns="http://www.w3.org/2000/svg"
  width="24"
  height="24"
  viewBox="0 0 24 24"
  fill="none"
  stroke="currentColor"
  stroke-width="2"
  stroke-linecap="round"
  stroke-linejoin="round"
>
  <path d="M10 3a1 1 0 1 0 2 0a1 1 0 0 0 -2 0" />
  <path d="M3 14l4 1l.5 -.5" />
  <path d="M12 18v-3l-3 -2.923l.75 -5.077" />
  <path d="M6 10v-2l4 -1l2.5 2.5l2.5 .5" />
  <path d="M21 22a1 1 0 0 0 -1 -1h-16a1 1 0 0 0 -1 1" />
  <path d="M18 21l1 -11l2 -1" />
</svg>
