<!--
tags: [adventure, travel, walking, hiking, activity]
category: Sport
unicode: "f5ad"
version: "1.110"
-->
<svg
  xmlns="http://www.w3.org/2000/svg"
  width="24"
  height="24"
  viewBox="0 0 24 24"
  fill="none"
  stroke="currentColor"
  stroke-width="2"
  stroke-linecap="round"
  stroke-linejoin="round"
>
    <path d="M12 4m-1 0a1 1 0 1 0 2 0a1 1 0 1 0 -2 0M7 21l2 -4M13 21v-4l-3 -3l1 -6l3 4l3 2M10 14l-1.827 -1.218a2 2 0 0 1 -.831 -2.15l.28 -1.117a2 2 0 0 1 1.939 -1.515h1.439l4 1l3 -2M17 12v9M16 20h2" />
</svg>
