<!--
tags: [shape, geometry, round, angle, triangle, square, circle, circular, rectangular, form]
category: Shapes
version: "1.21"
unicode: "ece8"
-->
<svg
  xmlns="http://www.w3.org/2000/svg"
  width="24"
  height="24"
  viewBox="0 0 24 24"
  fill="none"
  stroke="currentColor"
  stroke-width="2"
  stroke-linecap="round"
  stroke-linejoin="round"
>
  <path d="M12 3l-4 7h8l-4 -7" />
  <path d="M14 17a3 3 0 1 0 6 0a3 3 0 1 0 -6 0" />
  <path d="M4 15a1 1 0 0 1 1 -1h4a1 1 0 0 1 1 1v4a1 1 0 0 1 -1 1h-4a1 1 0 0 1 -1 -1l0 -4" />
</svg>
