<!--
tags: [shapes, figure, geometry, geometric, pyramid, design]
category: Shapes
version: "1.61"
unicode: "f0a5"
-->
<svg
  xmlns="http://www.w3.org/2000/svg"
  width="24"
  height="24"
  viewBox="0 0 24 24"
  fill="none"
  stroke="currentColor"
  stroke-width="2"
  stroke-linecap="round"
  stroke-linejoin="round"
>
  <path d="M9.974 21h8.052a.975 .975 0 0 0 .81 -1.517l-4.025 -6.048a.973 .973 0 0 0 -1.622 0l-4.025 6.048a.977 .977 0 0 0 .81 1.517z" />
  <path d="M4.98 16h14.04c.542 0 .98 -.443 .98 -.989a1 1 0 0 0 -.156 -.534l-7.02 -11.023a.974 .974 0 0 0 -1.648 0l-7.02 11.023a1 1 0 0 0 .294 1.366a.973 .973 0 0 0 .53 .157z" />
</svg>
