<!--
tags: [transport, delivery, logistics, vehicle, truck, loading, store, purchase, shopping, retail]
category: E-commerce
version: "1.68"
unicode: "f1da"
-->
<svg
  xmlns="http://www.w3.org/2000/svg"
  width="24"
  height="24"
  viewBox="0 0 24 24"
  fill="none"
  stroke="currentColor"
  stroke-width="2"
  stroke-linecap="round"
  stroke-linejoin="round"
>
  <path d="M2 3h1a2 2 0 0 1 2 2v10a2 2 0 0 0 2 2h15" />
  <path d="M9 9a3 3 0 0 1 3 -3h4a3 3 0 0 1 3 3v2a3 3 0 0 1 -3 3h-4a3 3 0 0 1 -3 -3l0 -2" />
  <path d="M7 19a2 2 0 1 0 4 0a2 2 0 1 0 -4 0" />
  <path d="M16 19a2 2 0 1 0 4 0a2 2 0 1 0 -4 0" />
</svg>
