<!--
tags: [transport, vahicle, van, lorry, cargo, delivery, truck, travel, vehicle, automobile]
category: Vehicles
version: "1.5"
unicode: "ebc4"
-->
<svg
  xmlns="http://www.w3.org/2000/svg"
  width="24"
  height="24"
  viewBox="0 0 24 24"
  fill="none"
  stroke="currentColor"
  stroke-width="2"
  stroke-linecap="round"
  stroke-linejoin="round"
>
  <path d="M5 17a2 2 0 1 0 4 0a2 2 0 1 0 -4 0" />
  <path d="M15 17a2 2 0 1 0 4 0a2 2 0 1 0 -4 0" />
  <path d="M5 17h-2v-11a1 1 0 0 1 1 -1h9v12m-4 0h6m4 0h2v-6h-8m0 -5h5l3 5" />
</svg>
