<!--
tags: [order, purchase, online, shop, store, e-commerce, lorry]
category: E-commerce
version: "1.11"
unicode: "ec4b"
-->
<svg
  xmlns="http://www.w3.org/2000/svg"
  width="24"
  height="24"
  viewBox="0 0 24 24"
  fill="none"
  stroke="currentColor"
  stroke-width="2"
  stroke-linecap="round"
  stroke-linejoin="round"
>
  <path d="M7 17m-2 0a2 2 0 1 0 4 0a2 2 0 1 0 -4 0" />
  <path d="M17 17m-2 0a2 2 0 1 0 4 0a2 2 0 1 0 -4 0" />
  <path d="M5 17h-2v-4m-1 -8h11v12m-4 0h6m4 0h2v-6h-8m0 -5h5l3 5" />
  <path d="M3 9l4 0" />
</svg>
