<!--
category: System
tags: [cosmos, galaxy, space, astronomy, stars, planets, infinite, vast, beyond, expanse]
version: "2.37"
unicode: "fcc4"
-->
<svg
  xmlns="http://www.w3.org/2000/svg"
  width="24"
  height="24"
  viewBox="0 0 24 24"
  fill="none"
  stroke="currentColor"
  stroke-width="2"
  stroke-linecap="round"
  stroke-linejoin="round"
>
  <path d="M7.027 11.477a5 5 0 1 0 5.496 -4.45a4.951 4.951 0 0 0 -3.088 .681" />
  <path d="M5.636 5.636a9 9 0 1 0 3.555 -2.188" />
  <path d="M17 5a1 1 0 1 0 2 0a1 1 0 1 0 -2 0" />
  <path d="M11 12a1 1 0 1 0 2 0a1 1 0 1 0 -2 0" />
  <path d="M8 16a1 1 0 1 0 2 0a1 1 0 1 0 -2 0" />
</svg>
