<svg
  xmlns="http://www.w3.org/2000/svg"
  width="24"
  height="24"
  viewBox="0 0 24 24"
  fill="none"
  stroke="currentColor"
  stroke-width="2"
  stroke-linecap="round"
  stroke-linejoin="round"
>
  <path d="M1.396 2.546h.188q.255-.001.51 0H6.66c.367-.002.696.004.995.243.207.26.298.443.299.778v.331l.002.69.003 1.49.008 3.584.005 2.287.001.666.012 5.525.19-.188.053-.054q.178-.178.34-.37c.098-.11.203-.21.307-.314a4 4 0 0 0 .204-.223c.117-.136.243-.26.37-.387a4 4 0 0 0 .205-.223c.116-.136.242-.26.37-.387q.105-.108.204-.223c.116-.136.242-.26.37-.387a4 4 0 0 0 .204-.223 6 6 0 0 1 .37-.387 4 4 0 0 0 .204-.223 6 6 0 0 1 .37-.387q.106-.108.204-.223c.117-.136.243-.261.37-.387q.107-.108.205-.223c.116-.136.242-.261.37-.387a4 4 0 0 0 .204-.223c.116-.136.242-.261.37-.387q.106-.108.204-.223c.117-.136.242-.261.37-.387q.106-.108.204-.223c.117-.137.243-.261.37-.387a4 4 0 0 0 .204-.223 6 6 0 0 1 .37-.387q.107-.109.204-.224.138-.158.288-.305.149-.144.284-.302c.126-.147.263-.282.4-.417q.144-.148.275-.303c.097-.11.203-.212.308-.315q.106-.109.204-.224c.117-.136.242-.26.37-.387q.106-.108.204-.223c.117-.136.243-.26.37-.387a4 4 0 0 0 .204-.223 6 6 0 0 1 .37-.387q.107-.108.204-.223c.117-.136.243-.26.37-.387q.107-.108.205-.223c.116-.136.242-.261.37-.387q.106-.108.204-.223c.117-.136.242-.261.37-.387a4 4 0 0 0 .204-.223 6 6 0 0 1 .37-.387 4 4 0 0 0 .204-.223 6 6 0 0 1 .37-.387q.106-.108.204-.223c.117-.136.243-.261.37-.387a3 3 0 0 0 .205-.232c.154-.18.384-.332.626-.358.323-.007.563.072.801.296.175.2.257.442.25.707-.04.35-.253.57-.49.812q-.119.123-.235.25-.41.441-.826.88l-.36.382-.143.153-.072.076-1.938 2.06-.072.075-.142.152-.594.632q-.163.174-.331.342a4 4 0 0 0-.238.256q-.14.161-.292.31-.15.146-.287.305a6 6 0 0 1-.37.387 4 4 0 0 0-.204.223 6 6 0 0 1-.37.387 4 4 0 0 0-.204.223 6 6 0 0 1-.37.387 4 4 0 0 0-.204.223 6 6 0 0 1-.37.387 4 4 0 0 0-.204.223 6 6 0 0 1-.37.387 4 4 0 0 0-.205.223 6 6 0 0 1-.37.387 4 4 0 0 0-.204.223 6 6 0 0 1-.37.387 4 4 0 0 0-.204.223 6 6 0 0 1-.37.387 4 4 0 0 0-.204.223 6 6 0 0 1-.37.387 4 4 0 0 0-.204.223 6 6 0 0 1-.37.387 4 4 0 0 0-.205.223 6 6 0 0 1-.37.387 4 4 0 0 0-.204.223 6 6 0 0 1-.37.387 4 4 0 0 0-.204.224 5 5 0 0 1-.287.305q-.15.144-.285.302c-.126.147-.263.282-.4.417q-.142.148-.274.304c-.098.11-.204.211-.308.314a4 4 0 0 0-.204.224 6 6 0 0 1-.37.387 4 4 0 0 0-.205.223 5 5 0 0 1-.287.305c-.096.095-.188.19-.276.294-.648.746-.648.746-1.079.813a.98.98 0 0 1-.704-.244l-.076-.092-.078-.087c-.131-.185-.148-.368-.146-.589v-1.724l.002-2.546.003-4.813v-.073l.004-6.891h-.083q-.995.005-1.99.007l-.963.003q-.42.002-.84.002L1.8 4.41q-.21.002-.419.001l-.153.001c-.364.004-.67-.028-.954-.27A1.12 1.12 0 0 1 0 3.458c.035-.273.126-.512.338-.695.316-.24.68-.22 1.058-.219z" />
</svg>
