<svg
  xmlns="http://www.w3.org/2000/svg"
  width="24"
  height="24"
  viewBox="0 0 24 24"
  fill="none"
  stroke="currentColor"
  stroke-width="2"
  stroke-linecap="round"
  stroke-linejoin="round"
>
  <path d="M2.83 3.94h4.552c.317 0 .602.004.86.211.18.225.258.383.26.673v.883l.003 1.289.007 3.1.005 1.977v.576l.01 4.778.165-.162.046-.047q.154-.154.294-.32c.085-.095.176-.182.266-.271a4 4 0 0 0 .176-.193c.101-.118.21-.225.32-.335a4 4 0 0 0 .177-.193c.1-.118.21-.225.32-.335q.091-.093.177-.192c.1-.118.21-.225.32-.335a4 4 0 0 0 .176-.193 5 5 0 0 1 .32-.335 4 4 0 0 0 .177-.193 5 5 0 0 1 .32-.334q.091-.094.176-.193c.101-.118.21-.226.32-.335q.093-.093.177-.193c.1-.117.21-.225.32-.334a4 4 0 0 0 .177-.193c.1-.118.21-.226.32-.335q.091-.093.176-.193.153-.174.32-.334.092-.094.177-.193c.1-.119.21-.226.32-.335a4 4 0 0 0 .176-.193 5 5 0 0 1 .32-.335q.093-.094.176-.193.12-.137.25-.264.128-.125.245-.261c.11-.127.228-.244.346-.36q.125-.129.238-.263.128-.14.266-.272.092-.095.177-.194c.1-.118.209-.225.32-.335q.091-.093.176-.193c.101-.117.21-.225.32-.334a4 4 0 0 0 .177-.193 5 5 0 0 1 .32-.335q.092-.093.176-.193c.101-.117.21-.225.32-.334q.093-.094.177-.193c.1-.118.21-.226.32-.335q.092-.093.177-.193c.1-.118.209-.226.32-.335a4 4 0 0 0 .176-.192 5 5 0 0 1 .32-.335 4 4 0 0 0 .177-.193 5 5 0 0 1 .32-.335q.091-.093.176-.193c.101-.117.21-.225.32-.334a3 3 0 0 0 .177-.2c.133-.157.332-.288.542-.31.279-.007.487.062.692.255a.87.87 0 0 1 .217.612c-.035.303-.22.493-.424.702q-.103.107-.203.216-.355.382-.715.761l-.311.33-.124.133-.062.066-1.676 1.781-.062.065-.123.132-.514.546q-.14.15-.286.296a4 4 0 0 0-.206.222q-.121.139-.253.268-.13.126-.248.263a5 5 0 0 1-.32.335 4 4 0 0 0-.176.193 5 5 0 0 1-.32.335 4 4 0 0 0-.177.193 5 5 0 0 1-.32.334 4 4 0 0 0-.176.193 5 5 0 0 1-.32.335 4 4 0 0 0-.176.193 5 5 0 0 1-.32.334 4 4 0 0 0-.178.193 5 5 0 0 1-.32.335 4 4 0 0 0-.176.193 5 5 0 0 1-.32.334 4 4 0 0 0-.177.193 5 5 0 0 1-.32.335 4 4 0 0 0-.176.193 5 5 0 0 1-.32.335 4 4 0 0 0-.176.192 5 5 0 0 1-.32.335 4 4 0 0 0-.178.193 5 5 0 0 1-.32.335 4 4 0 0 0-.176.193 5 5 0 0 1-.32.334 4 4 0 0 0-.177.194 4 4 0 0 1-.248.264q-.13.124-.246.26a6 6 0 0 1-.346.362q-.123.128-.237.262c-.085.096-.177.183-.267.272a4 4 0 0 0-.176.194 5 5 0 0 1-.32.334 4 4 0 0 0-.177.193 4 4 0 0 1-.248.264 4 4 0 0 0-.24.254c-.56.646-.56.646-.932.703a.85.85 0 0 1-.61-.21l-.065-.08-.067-.075c-.114-.16-.128-.319-.127-.51v-1.49l.002-2.203.003-4.162V11.5l.003-5.96h-.072l-1.72.006-.834.003-.726.001-.383.003q-.182.002-.363 0l-.132.002c-.315.003-.58-.024-.825-.234a.97.97 0 0 1-.237-.591c.03-.236.11-.443.292-.601.274-.208.589-.19.915-.19Z" />
</svg>
