<!--
tags: [medical, medicine, pharmacy, covid, virus, drug, vaccine, bottle, wellness, healthcare]
category: Health
version: "1.44"
unicode: "ef69"
-->
<svg
  xmlns="http://www.w3.org/2000/svg"
  width="24"
  height="24"
  viewBox="0 0 24 24"
  fill="none"
  stroke="currentColor"
  stroke-width="2"
  stroke-linecap="round"
  stroke-linejoin="round"
>
  <path d="M9 4a1 1 0 0 1 1 -1h4a1 1 0 0 1 1 1v1a1 1 0 0 1 -1 1h-4a1 1 0 0 1 -1 -1l0 -1" />
  <path d="M10 6v.98c0 .877 -.634 1.626 -1.5 1.77c-.866 .144 -1.5 .893 -1.5 1.77v8.48a2 2 0 0 0 2 2h6a2 2 0 0 0 2 -2v-8.48c0 -.877 -.634 -1.626 -1.5 -1.77a1.795 1.795 0 0 1 -1.5 -1.77v-.98" />
  <path d="M7 12h10" />
  <path d="M7 18h10" />
  <path d="M11 15h2" />
</svg>
