<!--
tags: [curve, parametric, design, vector graphics, representation]
category: Design
version: "1.27"
unicode: "ef1d"
-->
<svg
  xmlns="http://www.w3.org/2000/svg"
  width="24"
  height="24"
  viewBox="0 0 24 24"
  fill="none"
  stroke="currentColor"
  stroke-width="2"
  stroke-linecap="round"
  stroke-linejoin="round"
>
    <path d="M3 14m0 1a1 1 0 0 1 1 -1h2a1 1 0 0 1 1 1v2a1 1 0 0 1 -1 1h-2a1 1 0 0 1 -1 -1zM17 14m0 1a1 1 0 0 1 1 -1h2a1 1 0 0 1 1 1v2a1 1 0 0 1 -1 1h-2a1 1 0 0 1 -1 -1zM10 6m0 1a1 1 0 0 1 1 -1h2a1 1 0 0 1 1 1v2a1 1 0 0 1 -1 1h-2a1 1 0 0 1 -1 -1zM10 8.5a6 6 0 0 0 -5 5.5M14 8.5a6 6 0 0 1 5 5.5M10 8l-6 0M20 8l-6 0M3 8m-1 0a1 1 0 1 0 2 0a1 1 0 1 0 -2 0M21 8m-1 0a1 1 0 1 0 2 0a1 1 0 1 0 -2 0" />
</svg>
