<!--
category: Design
tags: [curve, parametric, design, vector graphics, placement]
version: "1.67"
unicode: "f1bf"
-->
<svg
  xmlns="http://www.w3.org/2000/svg"
  width="24"
  height="24"
  viewBox="0 0 24 24"
  fill="none"
  stroke="currentColor"
  stroke-width="2"
  stroke-linecap="round"
  stroke-linejoin="round"
>
  <path d="M10 6v-1a1 1 0 0 1 1 -1h2a1 1 0 0 1 1 1v2a1 1 0 0 1 -1 1h-1m-9 9m0 1a1 1 0 0 1 1 -1h2a1 1 0 0 1 1 1v2a1 1 0 0 1 -1 1h-2a1 1 0 0 1 -1 -1zm17.705 2.709a1 1 0 0 1 -.705 .291h-2a1 1 0 0 1 -1 -1v-2c0 -.28 .115 -.532 .3 -.714m-10.8 -.186l3.749 -6.823m2.909 -1.08l-.658 -1.197m-5.5 11h10m-14 -16l18 18" />
</svg>
