<!--
category: Design
tags: [curve, parametric, design, vector graphics, representation]
version: "1.27"
unicode: "f1a3"
-->
<svg
  xmlns="http://www.w3.org/2000/svg"
  width="24"
  height="24"
  viewBox="0 0 24 24"
  fill="none"
  stroke="currentColor"
  stroke-width="2"
  stroke-linecap="round"
  stroke-linejoin="round"
>
  <path d="M3 3m0 1a1 1 0 0 1 1 -1h2a1 1 0 0 1 1 1v2a1 1 0 0 1 -1 1h-2a1 1 0 0 1 -1 -1zm14 13m0 1a1 1 0 0 1 1 -1h2a1 1 0 0 1 1 1v2a1 1 0 0 1 -1 1h-2a1 1 0 0 1 -1 -1zm-10 -13l7 0m-4 14l7 0m-8 0m-1 0a1 1 0 1 0 2 0a1 1 0 1 0 -2 0m7 -14m-1 0a1 1 0 1 0 2 0a1 1 0 1 0 -2 0m-7 .5a5 6.5 0 0 1 5 6.5a5 6.5 0 0 0 5 6.5" />
</svg>
