<!--
category: Design
tags: [curve, parametric, design, vector graphics, placement]
version: "1.67"
unicode: "f1be"
-->
<svg
  xmlns="http://www.w3.org/2000/svg"
  width="24"
  height="24"
  viewBox="0 0 24 24"
  fill="none"
  stroke="currentColor"
  stroke-width="2"
  stroke-linecap="round"
  stroke-linejoin="round"
>
    <path d="M6.68 6.733a1 1 0 0 1 -.68 .267h-2a1 1 0 0 1 -1 -1v-2c0 -.276 .112 -.527 .293 -.708M17 3m0 1a1 1 0 0 1 1 -1h2a1 1 0 0 1 1 1v2a1 1 0 0 1 -1 1h-2a1 1 0 0 1 -1 -1zM20.72 20.693a1 1 0 0 1 -.72 .307h-2a1 1 0 0 1 -1 -1v-2c0 -.282 .116 -.536 .304 -.718M3 17m0 1a1 1 0 0 1 1 -1h2a1 1 0 0 1 1 1v2a1 1 0 0 1 -1 1h-2a1 1 0 0 1 -1 -1zM5 7v10M19 7v8M9 5h8M7 19h10M3 3l18 18" />
</svg>
