<!--
tags: [virtual, space, spatial, 3d, environment, room, metaverse, augmented, reality, dimension, immersive]
category: System
unicode: "10268"
version: "3.45"
-->
<svg
  xmlns="http://www.w3.org/2000/svg"
  width="24"
  height="24"
  viewBox="0 0 24 24"
  fill="none"
  stroke="currentColor"
  stroke-width="2"
  stroke-linecap="round"
  stroke-linejoin="round"
>
  <path d="M16 14.808a25 25 0 0 0 -4 -.312c-1.439 0 -2.796 .113 -4 .312" />
  <path d="M21 17.439c0 1.148 -2.034 2.142 -4.997 2.625l-.003 -10.439c2.965 -.482 5 -1.477 5 -2.625v-.064c0 -1.622 -4.03 -2.936 -9 -2.936s-9 1.314 -9 2.936c0 1.148 2.035 2.142 5 2.624l-.003 10.44c-2.963 -.483 -4.997 -1.477 -4.997 -2.625" />
  <path d="M3 6.936v10.439" />
  <path d="M21 6.936v10.439" />
</svg>
