<!--
tags: [language, traffic, text, book, study, dictionary]
category: Text
version: "1.40"
unicode: "ef1e"
-->
<svg
  xmlns="http://www.w3.org/2000/svg"
  width="24"
  height="24"
  viewBox="0 0 24 24"
  fill="none"
  stroke="currentColor"
  stroke-width="2"
  stroke-linecap="round"
  stroke-linejoin="round"
>
  <path d="M10 19h-6a1 1 0 0 1 -1 -1v-14a1 1 0 0 1 1 -1h6a2 2 0 0 1 2 2a2 2 0 0 1 2 -2h6a1 1 0 0 1 1 1v14a1 1 0 0 1 -1 1h-6a2 2 0 0 0 -2 2a2 2 0 0 0 -2 -2zm2 -14v16m-5 -14h1m-1 4h1m8 -4h1m-1 4h1m-1 4h1" />
</svg>
