<!--
category: Laundry
tags: [green, sustainable, eco-friendly, conserve, planet, environment, economical, preserve, resource, efficiency]
version: "2.18"
unicode: "fa80"
-->
<svg
  xmlns="http://www.w3.org/2000/svg"
  width="24"
  height="24"
  viewBox="0 0 24 24"
  fill="none"
  stroke="currentColor"
  stroke-width="2"
  stroke-linecap="round"
  stroke-linejoin="round"
>
  <path d="M3 6l1.721 10.329a2 2 0 0 0 1.973 1.671h5.306m8.162 -6.972l.838 -5.028" />
  <path d="M3.486 8.965c.168 .02 .34 .033 .514 .035c.79 .009 1.539 -.178 2 -.5c.461 -.32 1.21 -.507 2 -.5c.79 -.007 1.539 .18 2 .5c.461 .322 1.21 .509 2 .5c.79 .009 1.539 -.178 2 -.5c.461 -.32 1.21 -.507 2 -.5c.79 -.007 1.539 .18 2 .5c.461 .322 1.21 .509 2 .5c.17 0 .339 -.014 .503 -.034" />
  <path d="M16 22s0 -2 3 -4" />
  <path d="M19 21a3 3 0 0 1 0 -6h3v3a3 3 0 0 1 -3 3z" />
</svg>
