<!--
category: Food
tags: [food, nature, greenary, grow, soil, harvest, plant, leaf, tree, flower]
version: "1.0"
-->
<svg 
   width="24" 
   height="24" 
   viewBox="0 0 24 24" 
   fill="none" 
   xmlns="http://www.w3.org/2000/svg"
   stroke="currentColor" 
   stroke-width="2" 
   stroke-linecap="round" 
   stroke-linejoin="round"
>
   <path d="M3 3L21 21"/>
   <path d="M12 21.5V17.75" />
   <path d="M5.91551 9.48956L5.48551 11.0943C4.77341 13.7531 6.35116 16.4858 9.00968 17.1985C10.0062 17.4666 11.0032 17.733 12 18V14.5601C11.8358 12.4547 10.3628 10.6814 8.32334 10.1337L5.91551 9.48956Z" />
   <path d="M10.2495 4.25055C10.2563 4.24366 10.2631 4.23683 10.2699 4.22998L11.9999 2.5" />
   <path d="M10.27 11.1499C9.68139 10.5613 9.25269 9.8323 9.02441 9.03186" />
   <path d="M14.9879 8.98798C15.2172 8.15448 15.2216 7.27509 15.0006 6.43933C14.7797 5.60357 14.3413 4.84126 13.73 4.22998L12 2.5" />
   <path d="M16.0377 10.0371L18.0845 9.48956L18.5145 11.0943C18.6564 11.6243 18.7074 12.1573 18.6769 12.6766" />
   <path d="M16.5056 16.5053C16.0552 16.812 15.5464 17.0494 14.9904 17.1985C13.9938 17.4666 12.9968 17.733 12 18V14.5601C12.0552 13.8519 12.2586 13.1812 12.5818 12.5821" />
</svg>
