<!--
tags: [food, nature, greenary, grow, soil, harvest, plant, leaf, tree, flower]
category: Food
-->
<!-- Created with Inkscape (http://www.inkscape.org/) -->
<svg
  width="24"
  height="24"
  viewBox="0 0 24 24"
  fill="none"
  stroke="currentColor"
  stroke-width="2"
  stroke-linecap="round"
  stroke-linejoin="round"
  xmlns="http://www.w3.org/2000/svg"
>
  <path stroke="none" d="m 1619,1434 h 24 v 24 h -24 z" />
  <path d="m 1631.0141,1455.5141 v -3.75" />
  <path d="m 1624.9297,1443.5037 -0.43,1.6048 c -0.7121,2.6587 0.8656,5.3915 3.5242,6.1042 0.9965,0.268 1.9935,0.5344 2.9903,0.8015 v -3.4399 c -0.1642,-2.1054 -1.6372,-3.8788 -3.6767,-4.4265 z" />
  <path d="m 1632.7441,1445.164 a 4.8930951,4.8930951 0 0 0 0,-6.9199 l -1.73,-1.73 m -1.7299,8.6499 a 4.8930951,4.8930951 0 0 1 0,-6.9199 l 1.7299,-1.73" />
  <path d="m 1637.0987,1443.5037 0.4299,1.6048 c 0.7121,2.6587 -0.8656,5.3915 -3.5241,6.1042 -0.9965,0.268 -1.9935,0.5344 -2.9903,0.8015 v -3.4399 c 0.1642,-2.1054 1.6372,-3.8788 3.6766,-4.4265 z" />
</svg>
