<!--
tags: [circular, round, spin, rotation, revolve, hub, axle, turn, motion, vehicle]
version: "2.32"
unicode: "fc64"
-->
<svg
  xmlns="http://www.w3.org/2000/svg"
  width="24"
  height="24"
  viewBox="0 0 24 24"
  fill="none"
  stroke="currentColor"
  stroke-width="2"
  stroke-linecap="round"
  stroke-linejoin="round"
>
    <path d="M12 12m-9 0a9 9 0 1 0 18 0a9 9 0 1 0 -18 0M12 12m-3 0a3 3 0 1 0 6 0a3 3 0 1 0 -6 0M3 12h6M15 12h6M13.6 9.4l3.4 -4.8M10.4 14.6l-3.4 4.8M7 4.6l3.4 4.8M13.6 14.6l3.4 4.8" />
</svg>
