<!--
tags: [circular, round, spin, rotation, revolve, hub, axle, turn, motion, vehicle]
version: "2.32"
unicode: "fc64"
-->
<svg
  xmlns="http://www.w3.org/2000/svg"
  width="24"
  height="24"
  viewBox="0 0 24 24"
  fill="none"
  stroke="currentColor"
  stroke-width="2"
  stroke-linecap="round"
  stroke-linejoin="round"
>
  <path d="M12 12m-9 0a9 9 0 1 0 18 0a9 9 0 1 0 -18 0m9 0m-3 0a3 3 0 1 0 6 0a3 3 0 1 0 -6 0m-6 0h6m6 0h6m-7.4 -2.6l3.4 -4.8m-6.6 10l-3.4 4.8m0 -14.8l3.4 4.8m3.2 5.2l3.4 4.8" />
</svg>
