<!--
tags: [disabled, disability, patient, medical, handicapped]
category: Vehicles
version: "1.68"
unicode: "f1db"
-->
<svg
  xmlns="http://www.w3.org/2000/svg"
  width="24"
  height="24"
  viewBox="0 0 24 24"
  fill="none"
  stroke="currentColor"
  stroke-width="2"
  stroke-linecap="round"
  stroke-linejoin="round"
>
  <path d="M8 16m-5 0a5 5 0 1 0 10 0a5 5 0 1 0 -10 0" />
  <path d="M19 19m-2 0a2 2 0 1 0 4 0a2 2 0 1 0 -4 0" />
  <path d="M19 17a3 3 0 0 0 -3 -3h-3.4" />
  <path d="M3 3h1a2 2 0 0 1 2 2v6" />
  <path d="M6 8h11" />
  <path d="M15 8v6" />
</svg>
