<!--
tags: [cosmos, galaxy, space, spin, spiral, hypnosis]
version: "1.102"
unicode: "f51d"
category: Weather
-->
<svg
  xmlns="http://www.w3.org/2000/svg"
  width="24"
  height="24"
  viewBox="0 0 24 24"
  fill="none"
  stroke="currentColor"
  stroke-width="2"
  stroke-linecap="round"
  stroke-linejoin="round"
>
  <path d="M14 12a2 2 0 1 0 -4 0a2 2 0 0 0 4 0zm-2 9c-3.314 0 -6 -2.462 -6 -5.5s2.686 -5.5 6 -5.5m9 2c0 3.314 -2.462 6 -5.5 6s-5.5 -2.686 -5.5 -6m2 2c3.314 0 6 -2.462 6 -5.5s-2.686 -5.5 -6 -5.5m2 9c0 -3.314 -2.462 -6 -5.5 -6s-5.5 2.686 -5.5 6" />
</svg>
