<!--
tags: [fullscreen, browser, size, full, resize, window, maximize, control, operation, function]
category: System
version: "1.69"
unicode: "f1f1"
-->
<svg
  xmlns="http://www.w3.org/2000/svg"
  width="24"
  height="24"
  viewBox="0 0 24 24"
  fill="none"
  stroke="currentColor"
  stroke-width="2"
  stroke-linecap="round"
  stroke-linejoin="round"
>
  <path d="M3 17a1 1 0 0 1 1 -1h3a1 1 0 0 1 1 1v3a1 1 0 0 1 -1 1h-3a1 1 0 0 1 -1 -1l0 -3" />
  <path d="M4 12v-6a2 2 0 0 1 2 -2h12a2 2 0 0 1 2 2v12a2 2 0 0 1 -2 2h-6" />
  <path d="M12 8h4v4" />
  <path d="M16 8l-5 5" />
</svg>
