<!--
category: Map
tags: [settings, configure, gear, adjust, mechanism, system, control, customize, global, engine]
version: "2.10"
unicode: "f9dd"
-->
<svg
  xmlns="http://www.w3.org/2000/svg"
  width="24"
  height="24"
  viewBox="0 0 24 24"
  fill="none"
  stroke="currentColor"
  stroke-width="2"
  stroke-linecap="round"
  stroke-linejoin="round"
>
  <path d="M21 12a9 9 0 1 0 -8.979 9m-8.421 -12h16.8m-16.8 6h8.9m-1 -12a17 17 0 0 0 0 18m1 -18a16.992 16.992 0 0 1 2.522 10.376m3.979 5.624m-2 0a2 2 0 1 0 4 0a2 2 0 1 0 -4 0m2 -3.5v1.5m0 4v1.5m3.031 -5.25l-1.299 .75m-3.463 2l-1.3 .75m0 -3.5l1.3 .75m3.463 2l1.3 .75" />
</svg>
