<!--
category: Map
tags: [finance, currency, economics, global, money, trade, wealth, business, budget, fiscal]
version: "2.10"
unicode: "f9de"
-->
<svg
  xmlns="http://www.w3.org/2000/svg"
  width="24"
  height="24"
  viewBox="0 0 24 24"
  fill="none"
  stroke="currentColor"
  stroke-width="2"
  stroke-linecap="round"
  stroke-linejoin="round"
>
  <path d="M20.876 10.51a9 9 0 1 0 -7.839 10.43m-9.437 -11.94h16.8m-16.8 6h9.9m-2 -12a17 17 0 0 0 0 18m1 -18a16.986 16.986 0 0 1 2.578 9.02m5.922 2.98h-2.5a1.5 1.5 0 0 0 0 3h1a1.5 1.5 0 0 1 0 3h-2.5m2 0v1m0 -8v1" />
</svg>
