<!--
category: Map
tags: [inquire, ask, wonder, curiosity, global, puzzle, query, doubt, uncertainty, probe]
version: "2.10"
unicode: "f9e6"
-->
<svg
  xmlns="http://www.w3.org/2000/svg"
  width="24"
  height="24"
  viewBox="0 0 24 24"
  fill="none"
  stroke="currentColor"
  stroke-width="2"
  stroke-linecap="round"
  stroke-linejoin="round"
>
  <path d="M20.975 11.33a9 9 0 1 0 -5.673 9.043m-11.702 -11.373h16.8m-16.8 6h9.9m-2 -12a17 17 0 0 0 0 18m1 -18a16.988 16.988 0 0 1 2.57 9.518m-1.056 5.403a17 17 0 0 1 -1.514 3.079m6.5 1v.01m0 -3.01a2.003 2.003 0 0 0 .914 -3.782a1.98 1.98 0 0 0 -2.414 .483" />
</svg>
