<!--
tags: [name, certficate, sign, edit, write, document, writing, pen, off, disabled]
category: Text
version: "1.67"
unicode: "f1cc"
-->
<svg
  xmlns="http://www.w3.org/2000/svg"
  width="24"
  height="24"
  viewBox="0 0 24 24"
  fill="none"
  stroke="currentColor"
  stroke-width="2"
  stroke-linecap="round"
  stroke-linejoin="round"
>
  <path d="M3 19c3.333 -2 5 -4 5 -6c0 -3 -1 -3 -2 -3s-2.032 1.085 -2 3c.034 2.048 1.658 2.877 2.5 4c1.5 2 2.5 2.5 3.5 1c.667 -1 1.167 -1.833 1.5 -2.5c1 2.333 2.333 3.5 4 3.5h2.5" />
  <path d="M16 16v1l2 2l.5 -.5m1.5 -2.5v-11c0 -1.121 -.879 -2 -2 -2s-2 .879 -2 2v7" />
  <path d="M16 7h4" />
  <path d="M3 3l18 18" />
</svg>
