<!--
tags: [cancel, remove, delete, close, x, clear, dismiss, exit]
category: System
-->
<svg
  xmlns="http://www.w3.org/2000/svg"
  width="24"
  height="24"
  viewBox="0 0 24 24"
  fill="none"
  stroke="currentColor"
  stroke-width="2"
  stroke-linecap="round"
  stroke-linejoin="round"
>
  <path d="m12 16 3.644 3.644a1.21 1.21 0 001.712 0l2.288-2.288a1.21 1.21 0 000-1.712l-3.644-3.644 3.644-3.644a1.21 1.21 0 000-1.712l-2.288-2.288a1.21 1.21 0 00-1.712 0l-3.644 3.644-3.644-3.644a1.21 1.21 0 00-1.712 0l-2.288 2.288a1.21 1.21 0 000 1.712l3.644 3.644-3.644 3.644a1.21 1.21 0 000 1.712l2.288 2.288a1.21 1.21 0 001.712 0l3.644-3.644" />
</svg>
