<!--
tags: [magnify, enlarge, analyze, focus, enhance, view, magnification, zoom-in, scan-zoom, magnify-scan]
category: System
version: "2.36"
unicode: "fcb0"
-->
<svg
  xmlns="http://www.w3.org/2000/svg"
  width="24"
  height="24"
  viewBox="0 0 24 24"
  fill="none"
  stroke="currentColor"
  stroke-width="2"
  stroke-linecap="round"
  stroke-linejoin="round"
>
  <path d="M4 8v-2a2 2 0 0 1 2 -2h2m-4 12v2a2 2 0 0 0 2 2h2m8 -16h2a2 2 0 0 1 2 2v2m-4 12h2a2 2 0 0 0 2 -2v-2m-12 -5a3 3 0 1 0 6 0a3 3 0 0 0 -6 0m8 5l-2.5 -2.5" />
</svg>
