<svg xmlns="http://www.w3.org/2000/svg" class="icon icon-tabler icon-tabler-droplet-off" width="24" height="24" viewBox="0 0 24 24" stroke-width="2" stroke="currentColor" fill="none" stroke-linecap="round" stroke-linejoin="round">
  <path stroke="none" d="M0 0h24v24H0z" fill="none"/>
  <path d="M18.963 14.938a6.54 6.54 0 0 0 -.899 -4.06l-4.89 -7.26c-.42 -.626 -1.287 -.804 -1.936 -.398a1.376 1.376 0 0 0 -.41 .397l-1.282 1.9m-1.625 2.415l-1.986 2.946c-1.695 2.837 -1.035 6.44 1.567 8.545c2.602 2.105 6.395 2.105 8.996 0a6.83 6.83 0 0 0 1.376 -1.499" />
  <path d="M3 3l18 18" />
</svg>


