<svg xmlns="http://www.w3.org/2000/svg" class="icon icon-tabler icon-tabler-hierarchy-off" width="24" height="24" viewBox="0 0 24 24" stroke-width="2" stroke="currentColor" fill="none" stroke-linecap="round" stroke-linejoin="round">
  <path stroke="none" d="M0 0h24v24H0z" fill="none"/>
  <path d="M12 5m-2 0a2 2 0 1 0 4 0a2 2 0 1 0 -4 0" />
  <path d="M5 19m-2 0a2 2 0 1 0 4 0a2 2 0 1 0 -4 0" />
  <path d="M17.585 17.587a2 2 0 0 0 2.813 2.843" />
  <path d="M6.5 17.5l5.5 -4.5l5.5 4.5" />
  <path d="M12 7v1m0 4v1" />
  <path d="M3 3l18 18" />
</svg>


