<svg xmlns="http://www.w3.org/2000/svg" class="icon icon-tabler icon-tabler-map-pin-star" width="24" height="24" viewBox="0 0 24 24" stroke-width="2" stroke="currentColor" fill="none" stroke-linecap="round" stroke-linejoin="round">
  <path stroke="none" d="M0 0h24v24H0z" fill="none"/>
  <path d="M15 11a3 3 0 1 0 -3.908 2.86" />
  <path d="M11.059 21.25a2 2 0 0 1 -.472 -.35l-4.244 -4.243a8 8 0 1 1 13.646 -6.079" />
  <path d="M17.8 20.817l-2.172 1.138a.392 .392 0 0 1 -.568 -.41l.415 -2.411l-1.757 -1.707a.389 .389 0 0 1 .217 -.665l2.428 -.352l1.086 -2.193a.392 .392 0 0 1 .702 0l1.086 2.193l2.428 .352a.39 .39 0 0 1 .217 .665l-1.757 1.707l.414 2.41a.39 .39 0 0 1 -.567 .411l-2.172 -1.138z" />
</svg>


