<svg xmlns="http://www.w3.org/2000/svg" class="icon icon-tabler icon-tabler-rocket-off" width="24" height="24" viewBox="0 0 24 24" stroke-width="2" stroke="currentColor" fill="none" stroke-linecap="round" stroke-linejoin="round">
  <path stroke="none" d="M0 0h24v24H0z" fill="none"/>
  <path d="M9.29 9.275a9.03 9.03 0 0 0 -.29 .725a6 6 0 0 0 -5 3a8 8 0 0 1 7 7a6 6 0 0 0 3 -5c.241 -.085 .478 -.18 .708 -.283m2.428 -1.61a9 9 0 0 0 2.864 -6.107a3 3 0 0 0 -3 -3a9 9 0 0 0 -6.107 2.864" />
  <path d="M7 14a6 6 0 0 0 -3 6a6 6 0 0 0 6 -3" />
  <path d="M15 9m-1 0a1 1 0 1 0 2 0a1 1 0 1 0 -2 0" />
  <path d="M3 3l18 18" />
</svg>


