<svg xmlns="http://www.w3.org/2000/svg" class="icon icon-tabler icon-tabler-beer" width="24" height="24" viewBox="0 0 24 24" stroke-width="2" stroke="currentColor" fill="none" stroke-linecap="round" stroke-linejoin="round">
  <path stroke="none" d="M0 0h24v24H0z" fill="none"/>
  <path d="M9 21h6a1 1 0 0 0 1 -1v-3.625c0 -1.397 .29 -2.775 .845 -4.025l.31 -.7c.556 -1.25 .845 -2.253 .845 -3.65v-4a1 1 0 0 0 -1 -1h-10a1 1 0 0 0 -1 1v4c0 1.397 .29 2.4 .845 3.65l.31 .7a9.931 9.931 0 0 1 .845 4.025v3.625a1 1 0 0 0 1 1z" />
  <path d="M6 8h12" />
</svg>


