<svg xmlns="http://www.w3.org/2000/svg" class="icon icon-tabler icon-tabler-table-column" width="24" height="24" viewBox="0 0 24 24" stroke-width="2" stroke="currentColor" fill="none" stroke-linecap="round" stroke-linejoin="round">
  <path stroke="none" d="M0 0h24v24H0z" fill="none"/>
  <path d="M3 5a2 2 0 0 1 2 -2h14a2 2 0 0 1 2 2v14a2 2 0 0 1 -2 2h-14a2 2 0 0 1 -2 -2v-14z" />
  <path d="M10 10h11" />
  <path d="M10 3v18" />
  <path d="M9 3l-6 6" />
  <path d="M10 7l-7 7" />
  <path d="M10 12l-7 7" />
  <path d="M10 17l-4 4" />
</svg>


