<svg xmlns="http://www.w3.org/2000/svg" class="icon icon-tabler icon-tabler-brand-stripe" width="24" height="24" viewBox="0 0 24 24" stroke-width="2" stroke="currentColor" fill="none" stroke-linecap="round" stroke-linejoin="round">
  <path stroke="none" d="M0 0h24v24H0z" fill="none"/>
  <path d="M11.453 8.056c0 -.623 .518 -.979 1.442 -.979c1.69 0 3.41 .343 4.605 .923l.5 -4c-.948 -.449 -2.82 -1 -5.5 -1c-1.895 0 -3.373 .087 -4.5 1c-1.172 .956 -2 2.33 -2 4c0 3.03 1.958 4.906 5 6c1.961 .69 3 .743 3 1.5c0 .735 -.851 1.5 -2 1.5c-1.423 0 -3.963 -.609 -5.5 -1.5l-.5 4c1.321 .734 3.474 1.5 6 1.5c2 0 3.957 -.468 5.084 -1.36c1.263 -.979 1.916 -2.268 1.916 -4.14c0 -3.096 -1.915 -4.547 -5 -5.637c-1.646 -.605 -2.544 -1.07 -2.544 -1.807z" />
</svg>


