<svg xmlns="http://www.w3.org/2000/svg" class="icon icon-tabler icon-tabler-brand-coinbase" width="24" height="24" viewBox="0 0 24 24" stroke-width="2" stroke="currentColor" fill="none" stroke-linecap="round" stroke-linejoin="round">
  <path stroke="none" d="M0 0h24v24H0z" fill="none"/>
  <path d="M12.95 22c-4.503 0 -8.445 -3.04 -9.61 -7.413c-1.165 -4.373 .737 -8.988 4.638 -11.25a9.906 9.906 0 0 1 12.008 1.598l-3.335 3.367a5.185 5.185 0 0 0 -7.354 .013a5.252 5.252 0 0 0 0 7.393a5.185 5.185 0 0 0 7.354 .013l3.349 3.367a9.887 9.887 0 0 1 -7.05 2.912z" />
</svg>


