<svg xmlns="http://www.w3.org/2000/svg" class="icon icon-tabler icon-tabler-brand-sugarizer" width="24" height="24" viewBox="0 0 24 24" stroke-width="2" stroke="currentColor" fill="none" stroke-linecap="round" stroke-linejoin="round">
  <path stroke="none" d="M0 0h24v24H0z" fill="none"/>
  <path d="M14.277 16l3.252 -3.252a1.61 1.61 0 0 0 -2.277 -2.276l-3.252 3.251l-3.252 -3.251a1.61 1.61 0 0 0 -2.276 2.276l3.251 3.252l-3.251 3.252a1.61 1.61 0 1 0 2.276 2.277l3.252 -3.252l3.252 3.252a1.61 1.61 0 1 0 2.277 -2.277l-3.252 -3.252z" />
  <path d="M12 5m-3 0a3 3 0 1 0 6 0a3 3 0 1 0 -6 0" />
</svg>


