<svg xmlns="http://www.w3.org/2000/svg" class="icon icon-tabler icon-tabler-photo-dollar" width="24" height="24" viewBox="0 0 24 24" stroke-width="2" stroke="currentColor" fill="none" stroke-linecap="round" stroke-linejoin="round">
  <path stroke="none" d="M0 0h24v24H0z" fill="none"/>
  <path d="M15 8h.01" />
  <path d="M13 21h-7a3 3 0 0 1 -3 -3v-12a3 3 0 0 1 3 -3h12a3 3 0 0 1 3 3v4.5" />
  <path d="M3 16l5 -5c.928 -.893 2.072 -.893 3 0l2.5 2.5" />
  <path d="M21 15h-2.5a1.5 1.5 0 0 0 0 3h1a1.5 1.5 0 0 1 0 3h-2.5" />
  <path d="M19 21v1m0 -8v1" />
</svg>


