<svg xmlns="http://www.w3.org/2000/svg" class="icon icon-tabler icon-tabler-rewind-forward-30" width="24" height="24" viewBox="0 0 24 24" stroke-width="2" stroke="currentColor" fill="none" stroke-linecap="round" stroke-linejoin="round">
  <path stroke="none" d="M0 0h24v24H0z" fill="none"/>
  <path d="M5.007 16.478a6 6 0 0 1 3.993 -10.478h11" />
  <path d="M15 15.5v3a1.5 1.5 0 0 0 3 0v-3a1.5 1.5 0 0 0 -3 0z" />
  <path d="M17 9l3 -3l-3 -3" />
  <path d="M9 14h1.5a1.5 1.5 0 0 1 0 3h-.5h.5a1.5 1.5 0 0 1 0 3h-1.5" />
</svg>


