<!--
version: "2.1"
unicode: "f6ca"
-->
<svg
  xmlns="http://www.w3.org/2000/svg"
  width="24"
  height="24"
  viewBox="0 0 24 24"
  fill="currentColor"
>
  <path d="M9.586 4l-6.586 6.586a2 2 0 0 0 0 2.828l6.586 6.586a2 2 0 0 0 2.18 .434l.145 -.068a2 2 0 0 0 1.089 -1.78v-2.586h5a1 1 0 0 0 1 -1v-6l-.007 -.117a1 1 0 0 0 -.993 -.883l-5 -.001v-2.585a2 2 0 0 0 -3.414 -1.414z" />
  <path d="M4.415 12l6.585 -6.586v3.586l.007 .117a1 1 0 0 0 .993 .883l5 -.001v4l-5 .001a1 1 0 0 0 -1 1v3.586l-6.585 -6.586z" />
  <path d="M21 8a1 1 0 0 1 .993 .883l.007 .117v6a1 1 0 0 1 -1.993 .117l-.007 -.117v-6a1 1 0 0 1 1 -1z" />
</svg>
