<!--
unicode: "fe88"
version: "3.0"
-->
<svg
  xmlns="http://www.w3.org/2000/svg"
  width="24"
  height="24"
  viewBox="0 0 24 24"
  fill="currentColor"
>
  <path d="M20 10a2 2 0 0 1 2 2v.5c0 1.694 -2.247 5.49 -3.983 6.983l-.017 .013v.504a2 2 0 0 1 -1.85 1.995l-.15 .005h-8a2 2 0 0 1 -2 -2v-.496l-.065 -.053c-1.76 -1.496 -3.794 -4.965 -3.928 -6.77l-.007 -.181v-.5a2 2 0 0 1 2 -2z" />
  <path d="M18.929 6.003a1 1 0 1 1 .142 1.994l-14 1a1 1 0 1 1 -.142 -1.994z" />
  <path d="M18.79 1.022a1 1 0 1 1 .42 1.956l-14 3a1 1 0 1 1 -.42 -1.956z" />
</svg>
