<!--
version: "2.19"
unicode: "fa8f"
-->
<svg
  xmlns="http://www.w3.org/2000/svg"
  width="24"
  height="24"
  viewBox="0 0 24 24"
  fill="currentColor"
>
  <path d="M19 3.005h-14a2 2 0 0 0 -2 2v5a1 1 0 0 0 1 1h16a1 1 0 0 0 1 -1v-5a2 2 0 0 0 -2 -2z" />
  <path d="M4 13.995a1 1 0 0 1 .993 .883l.007 .127a1 1 0 0 1 -1.993 .117l-.007 -.127a1 1 0 0 1 1 -1z" />
  <path d="M4 18.995a1 1 0 0 1 .993 .883l.007 .127a1 1 0 0 1 -1.993 .117l-.007 -.127a1 1 0 0 1 1 -1z" />
  <path d="M9 18.995a1 1 0 0 1 .993 .883l.007 .127a1 1 0 0 1 -1.993 .117l-.007 -.127a1 1 0 0 1 1 -1z" />
  <path d="M15 18.995a1 1 0 0 1 .993 .883l.007 .127a1 1 0 0 1 -1.993 .117l-.007 -.127a1 1 0 0 1 1 -1z" />
  <path d="M20 18.995a1 1 0 0 1 .993 .883l.007 .127a1 1 0 0 1 -1.993 .117l-.007 -.127a1 1 0 0 1 1 -1z" />
  <path d="M20 13.995a1 1 0 0 1 .993 .883l.007 .127a1 1 0 0 1 -1.993 .117l-.007 -.127a1 1 0 0 1 1 -1z" />
</svg>
