<!--
version: "2.3"
unicode: "f706"
-->
<svg
  xmlns="http://www.w3.org/2000/svg"
  width="24"
  height="24"
  viewBox="0 0 24 24"
  fill="currentColor"
>
  <path d="M12 2c5.523 0 10 4.477 10 10a10 10 0 0 1 -20 0c0 -5.523 4.477 -10 10 -10zm2 5a3 3 0 0 0 -2.98 2.65l-.015 .174l-.005 .176l.005 .176c.019 .319 .087 .624 .197 .908l.09 .209l-3.5 3.5l-.082 .094a1 1 0 0 0 0 1.226l.083 .094l1.5 1.5l.094 .083a1 1 0 0 0 1.226 0l.094 -.083l.083 -.094a1 1 0 0 0 0 -1.226l-.083 -.094l-.792 -.793l.585 -.585l.793 .792l.094 .083a1 1 0 0 0 1.403 -1.403l-.083 -.094l-.792 -.793l.792 -.792a3 3 0 1 0 1.293 -5.708zm0 2a1 1 0 1 1 0 2a1 1 0 0 1 0 -2" />
</svg>
