<!--
unicode: "100ea"
version: "3.26"
-->
<svg
  xmlns="http://www.w3.org/2000/svg"
  width="24"
  height="24"
  viewBox="0 0 24 24"
  fill="currentColor"
>
  <path d="M17.997 4.17a3 3 0 0 1 2.003 2.83v12a3 3 0 0 1 -3 3h-10a3 3 0 0 1 -3 -3v-12a3 3 0 0 1 2.003 -2.83a4 4 0 0 0 3.997 3.83h4a4 4 0 0 0 3.98 -3.597zm-8.987 10.83h-.01a1 1 0 0 0 -.117 1.993l.127 .007a1 1 0 0 0 0 -2m5.99 0h-2a1 1 0 0 0 0 2h2a1 1 0 0 0 0 -2m-5.99 -4h-.01a1 1 0 0 0 -.117 1.993l.127 .007a1 1 0 0 0 0 -2m5.99 0h-2a1 1 0 0 0 0 2h2a1 1 0 0 0 0 -2m-1 -9a2 2 0 1 1 0 4h-4a2 2 0 1 1 0 -4z" />
</svg>
