<!--
unicode: "fed3"
version: "3.3"
-->
<svg
  xmlns="http://www.w3.org/2000/svg"
  width="24"
  height="24"
  viewBox="0 0 24 24"
  fill="currentColor"
>
  <path d="M17 3.34a10 10 0 1 1 -15 8.66l.005 -.324a10 10 0 0 1 14.995 -8.336m-6.293 5.953a1 1 0 0 0 -1.414 0l-2 2a1 1 0 0 0 0 1.414l2 2a1 1 0 0 0 1.414 0l.083 -.094a1 1 0 0 0 -.083 -1.32l-1.292 -1.293l1.292 -1.293a1 1 0 0 0 0 -1.414m4 0a1 1 0 0 0 -1.414 0l-.083 .094a1 1 0 0 0 .083 1.32l1.292 1.293l-1.292 1.293a1 1 0 0 0 1.414 1.414l2 -2a1 1 0 0 0 0 -1.414z" />
</svg>
