<!--
unicode: "101da"
version: "3.38"
-->
<svg
  xmlns="http://www.w3.org/2000/svg"
  width="24"
  height="24"
  viewBox="0 0 24 24"
  fill="currentColor"
>
  <path d="M12 5a1 1 0 0 1 0 2h-6a1 1 0 0 0 -1 1v10a1 1 0 0 0 1 1h10a1 1 0 0 0 1 -1v-6a1 1 0 0 1 2 0v6a3 3 0 0 1 -3 3h-10a3 3 0 0 1 -3 -3v-10a3 3 0 0 1 3 -3zm3 -2h5l.075 .003l.126 .017l.111 .03l.111 .044l.098 .052l.096 .067l.09 .08q .054 .053 .097 .112l.071 .11l.054 .114l.035 .105l.03 .148l.006 .118v5a1 1 0 0 1 -2 0v-2.586l-7.293 7.293a1 1 0 0 1 -1.414 -1.414l7.291 -7.293h-2.584a1 1 0 0 1 0 -2" />
</svg>
