<!--
unicode: "10122"
version: "3.29"
-->
<svg
  xmlns="http://www.w3.org/2000/svg"
  width="24"
  height="24"
  viewBox="0 0 24 24"
  fill="currentColor"
>
  <path d="M8 3a1 1 0 1 1 0 2h-1.257l-2.24 7.467a4.5 4.5 0 0 1 6.24 2.533h2.513a4.502 4.502 0 0 1 6.241 -2.534l-2.241 -7.466h-1.256a1 1 0 0 1 -.993 -.883l-.007 -.117a1 1 0 0 1 1 -1h2a1 1 0 0 1 .958 .713l3 10a1 1 0 0 1 .042 .287v2.5a4.5 4.5 0 0 1 -8.972 .5h-2.056a4.5 4.5 0 0 1 -8.972 -.5v-2.5a1 1 0 0 1 .042 -.287l3 -10a1 1 0 0 1 .958 -.713z" />
</svg>
