<!--
unicode: "fe16"
version: "3.0"
-->
<svg
  xmlns="http://www.w3.org/2000/svg"
  width="24"
  height="24"
  viewBox="0 0 24 24"
  fill="currentColor"
>
  <path d="M16 2a1 1 0 0 1 1 1v1l.2 .005a4 4 0 0 1 3.795 3.795l.005 .2v9a4 4 0 0 1 -2.845 3.83l-.155 .043v.127a1 1 0 0 1 -.883 .993l-.117 .007h-10a1 1 0 0 1 -1 -1v-.127l-.155 -.042a4 4 0 0 1 -2.84 -3.631l-.005 -.2v-9a4 4 0 0 1 4 -4v-1a1 1 0 0 1 1 -1zm-.8 12.286a1 1 0 0 0 -1.414 .014a2.5 2.5 0 0 1 -3.572 0a1 1 0 0 0 -1.428 1.4a4.5 4.5 0 0 0 6.428 0a1 1 0 0 0 -.014 -1.414m-5.69 -4.286h-.01a1 1 0 0 0 0 2h.01a1 1 0 0 0 0 -2m5 0h-.01a1 1 0 0 0 0 2h.01a1 1 0 0 0 0 -2" />
</svg>
