<!--
version: "2.15"
unicode: "fa4a"
-->
<svg
  xmlns="http://www.w3.org/2000/svg"
  width="24"
  height="24"
  viewBox="0 0 24 24"
  fill="currentColor"
>
  <path d="M8.813 11.612c.457 -.38 .918 -.38 1.386 .011l.108 .098l4.986 4.986l.094 .083a1 1 0 0 0 1.403 -1.403l-.083 -.094l-1.292 -1.293l.292 -.293l.106 -.095c.457 -.38 .918 -.38 1.386 .011l.108 .098l4.674 4.675a4 4 0 0 1 -3.775 3.599l-.206 .005h-12a4 4 0 0 1 -3.98 -3.603l6.687 -6.69l.106 -.095zm9.187 -9.612a4 4 0 0 1 3.995 3.8l.005 .2v9.585l-3.293 -3.292l-.15 -.137c-1.256 -1.095 -2.85 -1.097 -4.096 -.017l-.154 .14l-.307 .306l-2.293 -2.292l-.15 -.137c-1.256 -1.095 -2.85 -1.097 -4.096 -.017l-.154 .14l-5.307 5.306v-9.585a4 4 0 0 1 3.8 -3.995l.2 -.005h12zm-2.99 5l-.127 .007a1 1 0 0 0 0 1.986l.117 .007l.127 -.007a1 1 0 0 0 0 -1.986l-.117 -.007z" />
</svg>
