<!--
version: "2.4"
unicode: "f760"
-->
<svg
  xmlns="http://www.w3.org/2000/svg"
  width="24"
  height="24"
  viewBox="0 0 24 24"
  fill="currentColor"
>
  <path d="M21 11a1 1 0 0 1 1 1a10 10 0 0 1 -5 8.656a1 1 0 0 1 -1.302 -.268l-.064 -.098l-3 -5.19a.995 .995 0 0 1 -.133 -.542l.01 -.11l.023 -.106l.034 -.106l.046 -.1l.056 -.094l.067 -.089a.994 .994 0 0 1 .165 -.155l.098 -.064a2 2 0 0 0 .993 -1.57l.007 -.163a1 1 0 0 1 .883 -.994l.117 -.007h6z" />
  <path d="M7 3.344a10 10 0 0 1 10 0a1 1 0 0 1 .418 1.262l-.052 .104l-3 5.19l-.064 .098a.994 .994 0 0 1 -.155 .165l-.089 .067a1 1 0 0 1 -.195 .102l-.105 .034l-.107 .022a1.003 1.003 0 0 1 -.547 -.07l-.104 -.052a2 2 0 0 0 -1.842 -.082l-.158 .082a1 1 0 0 1 -1.302 -.268l-.064 -.098l-3 -5.19a1 1 0 0 1 .366 -1.366z" />
  <path d="M9 11a1 1 0 0 1 .993 .884l.007 .117a2 2 0 0 0 .861 1.645l.237 .152a.994 .994 0 0 1 .165 .155l.067 .089l.056 .095l.045 .099c.014 .036 .026 .07 .035 .106l.022 .107l.011 .11a.994 .994 0 0 1 -.08 .437l-.053 .104l-3 5.19a1 1 0 0 1 -1.366 .366a10 10 0 0 1 -5 -8.656a1 1 0 0 1 .883 -.993l.117 -.007h6z" />
</svg>
