<!--
unicode: "ff05"
version: "3.6"
-->
<svg
  xmlns="http://www.w3.org/2000/svg"
  width="24"
  height="24"
  viewBox="0 0 24 24"
  fill="currentColor"
>
  <path d="M12.01 2.011c.852 0 1.668 .34 2.267 .942l.698 .698a1.2 1.2 0 0 0 .845 .349h1a3.2 3.2 0 0 1 3.2 3.2v1c0 .316 .126 .62 .347 .843l.698 .698a3.2 3.2 0 0 1 .002 4.536l-.698 .698a1.2 1.2 0 0 0 -.349 .845v1a3.2 3.2 0 0 1 -3.2 3.2h-1a1.2 1.2 0 0 0 -.843 .347l-.698 .698a3.2 3.2 0 0 1 -4.536 .002l-.698 -.698a1.2 1.2 0 0 0 -.845 -.349h-1a3.2 3.2 0 0 1 -3.2 -3.2v-1a1.2 1.2 0 0 0 -.347 -.843l-.698 -.698a3.2 3.2 0 0 1 -.002 -4.536l.698 -.698a1.2 1.2 0 0 0 .349 -.845v-1l.005 -.182a3.2 3.2 0 0 1 3.195 -3.018h1a1.2 1.2 0 0 0 .843 -.347l.698 -.698a3.2 3.2 0 0 1 2.269 -.944m2.49 10.989a1.5 1.5 0 1 0 0 3a1.5 1.5 0 0 0 0 -3m1.207 -4.707a1 1 0 0 0 -1.414 0l-6 6a1 1 0 0 0 1.414 1.414l6 -6a1 1 0 0 0 0 -1.414m-6.207 -.293a1.5 1.5 0 1 0 0 3a1.5 1.5 0 0 0 0 -3" />
</svg>
