<!--
version: "2.0"
unicode: "f6a3"
-->
<svg
  xmlns="http://www.w3.org/2000/svg"
  width="24"
  height="24"
  viewBox="0 0 24 24"
  fill="currentColor"
>
  <path d="M11.327 2.26a1395.065 1395.065 0 0 0 -4.923 4.504c-.626 .6 -1.212 1.21 -1.774 1.843a6.528 6.528 0 0 0 -.314 8.245l.14 .177c1.012 1.205 2.561 1.755 4.055 1.574l.246 -.037l-.706 2.118a1 1 0 0 0 .949 1.316h6l.118 -.007a1 1 0 0 0 .83 -1.31l-.688 -2.065l.104 .02c1.589 .25 3.262 -.387 4.32 -1.785a6.527 6.527 0 0 0 -.311 -8.243a31.787 31.787 0 0 0 -1.76 -1.83l-4.938 -4.518a1 1 0 0 0 -1.348 -.001z" />
</svg>
