<!--
version: "2.4"
unicode: "f76a"
-->
<svg
  xmlns="http://www.w3.org/2000/svg"
  width="24"
  height="24"
  viewBox="0 0 24 24"
  fill="currentColor"
>
  <path d="M18.333 2c1.96 0 3.56 1.537 3.662 3.472l.005 .195v12.666c0 1.96 -1.537 3.56 -3.472 3.662l-.195 .005h-12.666a3.667 3.667 0 0 1 -3.662 -3.472l-.005 -.195v-12.666c0 -1.96 1.537 -3.56 3.472 -3.662l.195 -.005h12.666zm-4.333 5h-4l-.117 .007a1 1 0 0 0 -.876 .876l-.007 .117l.007 .117a1 1 0 0 0 .876 .876l.117 .007h2.718l-1.688 6.757l-.022 .115a1 1 0 0 0 1.927 .482l.035 -.111l2 -8l.021 -.112a1 1 0 0 0 -.878 -1.125l-.113 -.006z" />
</svg>
