<!--
version: "2.27"
unicode: "fb34"
-->
<svg
  xmlns="http://www.w3.org/2000/svg"
  width="24"
  height="24"
  viewBox="0 0 24 24"
  fill="currentColor"
>
  <path d="M19 2a3 3 0 0 1 3 3v14a3 3 0 0 1 -3 3h-14a3 3 0 0 1 -3 -3v-14a3 3 0 0 1 3 -3zm-7 5l-.09 .004l-.058 .007l-.118 .025l-.105 .035l-.113 .054l-.111 .071a1.008 1.008 0 0 0 -.112 .097l-4 4l-.083 .094a1 1 0 0 0 .083 1.32l.094 .083a1 1 0 0 0 1.32 -.083l2.293 -2.292v5.585l.007 .117a1 1 0 0 0 1.993 -.117v-5.585l2.293 2.292l.094 .083a1 1 0 0 0 1.32 -1.497l-4 -4l-.082 -.073l-.104 -.074l-.098 -.052l-.11 -.044l-.112 -.03l-.126 -.017l-.075 -.003z" />
</svg>
