<!--
version: "2.4"
unicode: "f764"
-->
<svg
  xmlns="http://www.w3.org/2000/svg"
  width="24"
  height="24"
  viewBox="0 0 24 24"
  fill="currentColor"
>
  <path d="M18.333 2c1.96 0 3.56 1.537 3.662 3.472l.005 .195v12.666c0 1.96 -1.537 3.56 -3.472 3.662l-.195 .005h-12.666a3.667 3.667 0 0 1 -3.662 -3.472l-.005 -.195v-12.666c0 -1.96 1.537 -3.56 3.472 -3.662l.195 -.005h12.666zm-6.333 5a3 3 0 0 0 -2.995 2.824l-.005 .176v4l.005 .176a3 3 0 0 0 5.99 0l.005 -.176v-4l-.005 -.176a3 3 0 0 0 -2.995 -2.824zm0 2a1 1 0 0 1 .993 .883l.007 .117v4l-.007 .117a1 1 0 0 1 -1.986 0l-.007 -.117v-4l.007 -.117a1 1 0 0 1 .993 -.883z" />
</svg>
