<!--
unicode: "fdf0"
version: "3.0"
-->
<svg
  xmlns="http://www.w3.org/2000/svg"
  width="24"
  height="24"
  viewBox="0 0 24 24"
  fill="currentColor"
>
  <path d="M19 2a3 3 0 0 1 3 3v14a3 3 0 0 1 -3 3h-14a3 3 0 0 1 -3 -3v-14a3 3 0 0 1 3 -3zm-4.553 5.106a1 1 0 0 0 -1.341 .447l-1.106 2.21l-1.106 -2.21a1 1 0 0 0 -1.234 -.494l-.107 .047a1 1 0 0 0 -.447 1.341l1.774 3.553l-1.775 3.553a1 1 0 0 0 .345 1.283l.102 .058a1 1 0 0 0 1.341 -.447l1.107 -2.211l1.106 2.211a1 1 0 0 0 1.234 .494l.107 -.047a1 1 0 0 0 .447 -1.341l-1.776 -3.553l1.776 -3.553a1 1 0 0 0 -.345 -1.283z" />
</svg>
