<!--
version: "2.0"
unicode: "f6a8"
-->
<svg
  xmlns="http://www.w3.org/2000/svg"
  width="24"
  height="24"
  viewBox="0 0 24 24"
  fill="currentColor"
>
  <path d="M17.657 12.007a1.39 1.39 0 0 0 -1.103 .765l-.855 1.723l-1.907 .277c-.52 .072 -.96 .44 -1.124 .944l-.038 .14c-.1 .465 .046 .954 .393 1.29l1.377 1.337l-.326 1.892a1.393 1.393 0 0 0 2.018 1.465l1.708 -.895l1.708 .896a1.388 1.388 0 0 0 1.462 -.105l.112 -.09a1.39 1.39 0 0 0 .442 -1.272l-.325 -1.891l1.38 -1.339c.38 -.371 .516 -.924 .352 -1.427l-.051 -.134a1.39 1.39 0 0 0 -1.073 -.81l-1.907 -.278l-.853 -1.722a1.393 1.393 0 0 0 -1.247 -.773l-.143 .007z" />
  <path d="M6.057 12.007a1.39 1.39 0 0 0 -1.103 .765l-.855 1.723l-1.907 .277c-.52 .072 -.96 .44 -1.124 .944l-.038 .14c-.1 .465 .046 .954 .393 1.29l1.377 1.337l-.326 1.892a1.393 1.393 0 0 0 2.018 1.465l1.708 -.895l1.708 .896a1.388 1.388 0 0 0 1.462 -.105l.112 -.09a1.39 1.39 0 0 0 .442 -1.272l-.324 -1.891l1.38 -1.339c.38 -.371 .516 -.924 .352 -1.427l-.051 -.134a1.39 1.39 0 0 0 -1.073 -.81l-1.908 -.279l-.853 -1.722a1.393 1.393 0 0 0 -1.247 -.772l-.143 .007z" />
  <path d="M11.857 2.007a1.39 1.39 0 0 0 -1.103 .765l-.855 1.723l-1.907 .277c-.52 .072 -.96 .44 -1.124 .944l-.038 .14c-.1 .465 .046 .954 .393 1.29l1.377 1.337l-.326 1.892a1.393 1.393 0 0 0 2.018 1.465l1.708 -.894l1.709 .896a1.388 1.388 0 0 0 1.462 -.105l.112 -.09a1.39 1.39 0 0 0 .442 -1.272l-.325 -1.892l1.38 -1.339c.38 -.371 .516 -.924 .352 -1.427l-.051 -.134a1.39 1.39 0 0 0 -1.073 -.81l-1.908 -.279l-.853 -1.722a1.393 1.393 0 0 0 -1.247 -.772l-.143 .007z" />
</svg>
