<!--
unicode: "ff55"
version: "3.10"
-->
<svg
  xmlns="http://www.w3.org/2000/svg"
  width="24"
  height="24"
  viewBox="0 0 24 24"
  fill="currentColor"
>
  <path d="M8 7a5 5 0 0 1 4.9 4h4.685l-1.292 -1.293a1 1 0 0 1 -.083 -1.32l.083 -.094a1 1 0 0 1 1.414 0l3 3q .054 .053 .097 .112l.071 .11l.054 .114l.035 .105l.03 .148l.006 .118l-.003 .075l-.017 .126l-.03 .111l-.044 .111l-.052 .098l-.074 .104l-.073 .082l-3 3a1 1 0 0 1 -1.414 -1.414l1.291 -1.293l-4.684 .001a5.002 5.002 0 0 1 -9.9 -1.001a5 5 0 0 1 5 -5" />
</svg>
