<!--
unicode: "100f3"
version: "3.27"
-->
<svg
  xmlns="http://www.w3.org/2000/svg"
  width="24"
  height="24"
  viewBox="0 0 24 24"
  fill="currentColor"
>
  <path d="M13 4a1 1 0 0 1 1 1h4a1 1 0 0 1 .783 .378l.074 .108l3 5l.055 .103l.04 .107l.029 .109l.016 .11l.003 .085v6a1 1 0 0 1 -1 1h-1.171a3.001 3.001 0 0 1 -5.658 0h-4.342a3.001 3.001 0 0 1 -5.658 0h-1.171a1 1 0 0 1 -1 -1v-11a2 2 0 0 1 2 -2zm-6 12a1 1 0 1 0 0 2a1 1 0 0 0 0 -2m10 0a1 1 0 1 0 0 2a1 1 0 0 0 0 -2m.434 -9h-3.434v3h5.234z" />
</svg>
