<!--
unicode: "fdc7"
version: "3.0"
-->
<svg
  xmlns="http://www.w3.org/2000/svg"
  width="24"
  height="24"
  viewBox="0 0 24 24"
  fill="currentColor"
>
  <path d="M13.5 3c5.187 0 9.5 3.044 9.5 7c0 3.017 -2.508 5.503 -6 6.514v3.486a1 1 0 0 1 -1 1h-6a1 1 0 0 1 -1 -1v-4.046a21 21 0 0 1 -2.66 -1.411l-.13 -.082l-1.57 1.308a1 1 0 0 1 -1.634 -.656l-.006 -.113v-2.851l-.31 -.25a47 47 0 0 1 -.682 -.568l-.67 -.582a1 1 0 0 1 0 -1.498a47 47 0 0 1 1.351 -1.151l.311 -.25v-2.85a1 1 0 0 1 1.55 -.836l.09 .068l1.57 1.307l.128 -.08c2.504 -1.553 4.784 -2.378 6.853 -2.453zm-2.499 13.657l-.001 2.343h4l.001 -2.086q -.735 .086 -1.501 .086a9.6 9.6 0 0 1 -2.13 -.252z" />
</svg>
