<!--
version: "2.4"
unicode: "f789"
-->
<svg
  xmlns="http://www.w3.org/2000/svg"
  width="24"
  height="24"
  viewBox="0 0 24 24"
  fill="currentColor"
>
  <path d="M14 3.072a8 8 0 0 1 2.617 11.424l4.944 4.943a1.5 1.5 0 0 1 -2.008 2.225l-.114 -.103l-4.943 -4.944a8 8 0 0 1 -12.49 -6.332l-.006 -.285l.005 -.285a8 8 0 0 1 11.995 -6.643zm-4 2.928a1 1 0 0 0 -.993 .883l-.007 .117v2h-2l-.117 .007a1 1 0 0 0 0 1.986l.117 .007h2v2l.007 .117a1 1 0 0 0 1.986 0l.007 -.117v-2h2l.117 -.007a1 1 0 0 0 0 -1.986l-.117 -.007h-2v-2l-.007 -.117a1 1 0 0 0 -.993 -.883z" />
</svg>
