<svg xmlns="http://www.w3.org/2000/svg" class="icon icon-tabler icon-tabler-file-type-sql" width="24" height="24" viewBox="0 0 24 24" stroke-width="2" stroke="currentColor" fill="none" stroke-linecap="round" stroke-linejoin="round">
  <path stroke="none" d="M0 0h24v24H0z" fill="none"/>
  <path d="M14 3v4a1 1 0 0 0 1 1h4" />
  <path d="M14 3v4a1 1 0 0 0 1 1h4" />
  <path d="M5 20.25c0 .414 .336 .75 .75 .75h1.25a1 1 0 0 0 1 -1v-1a1 1 0 0 0 -1 -1h-1a1 1 0 0 1 -1 -1v-1a1 1 0 0 1 1 -1h1.25a.75 .75 0 0 1 .75 .75" />
  <path d="M5 12v-7a2 2 0 0 1 2 -2h7l5 5v4" />
  <path d="M18 15v6h2" />
  <path d="M13 15a2 2 0 0 1 2 2v2a2 2 0 1 1 -4 0v-2a2 2 0 0 1 2 -2z" />
  <path d="M14 20l1.5 1.5" />
</svg>


