<!--
tags: [acorn, oak, nut, seed, forest, nature, autumn, wildlife, tree, woodland]
category: Nature
unicode: "10255"
version: "3.43"
-->
<svg
  xmlns="http://www.w3.org/2000/svg"
  width="24"
  height="24"
  viewBox="0 0 24 24"
  fill="none"
  stroke="currentColor"
  stroke-width="2"
  stroke-linecap="round"
  stroke-linejoin="round"
>
  <path d="M18 10l-.45 4.1a8.36 8.36 0 0 1 -5.18 6.83a1 1 0 0 1 -.74 0a8.36 8.36 0 0 1 -5.18 -6.83l-.45 -4.1" />
  <path d="M13 3a4.9 4.9 0 0 0 -1 3" />
  <path d="M8 6h8a3 3 0 0 1 3 3a1 1 0 0 1 -1 1h-12a1 1 0 0 1 -1 -1a3 3 0 0 1 3 -3" />
</svg>
