<!--
category: System
tags: [ask, inquire, query, investigate, probe, examine, doubt, wonder, ponder, interrogate]
version: "2.10"
unicode: "f81d"
-->
<svg
  xmlns="http://www.w3.org/2000/svg"
  width="24"
  height="24"
  viewBox="0 0 24 24"
  fill="none"
  stroke="currentColor"
  stroke-width="2"
  stroke-linecap="round"
  stroke-linejoin="round"
>
  <path d="M13.5 17h-9.5a4 4 0 0 0 2 -3v-3a7 7 0 0 1 4 -6a2 2 0 1 1 4 0a7 7 0 0 1 4 6" />
  <path d="M9 17v1a3 3 0 0 0 5.914 .716" />
  <path d="M19 22v.01" />
  <path d="M19 19a2.003 2.003 0 0 0 .914 -3.782a1.98 1.98 0 0 0 -2.414 .483" />
</svg>
