<!--
tags: [project, management, agile, software, tasks, issues, brand, jira, logo, company]
category: Brand
unicode: "10231"
version: "3.41"
-->
<svg
  xmlns="http://www.w3.org/2000/svg"
  width="24"
  height="24"
  viewBox="0 0 24 24"
  fill="none"
  stroke="currentColor"
  stroke-width="2"
  stroke-linecap="round"
  stroke-linejoin="round"
>
  <path d="M20 4h-9v1.5a2.5 2.5 0 0 0 2.5 2.5h1.5a1 1 0 0 1 1 1v1.5a2.5 2.5 0 0 0 2.5 2.5h1.5v-9" />
  <path d="M15 8h-8v1.5a2.5 2.5 0 0 0 2.5 2.5h1.5a1 1 0 0 1 1 1v1.5a2.5 2.5 0 0 0 2.5 2.5h1.5v-8a1 1 0 0 0 -1 -1" />
  <path d="M11 12h-8v1.5a2.5 2.5 0 0 0 2.5 2.5h1.5a1 1 0 0 1 1 1v1.5a2.5 2.5 0 0 0 2.5 2.5h1.5v-8a1 1 0 0 0 -1 -1" />
</svg>
