<!--
tags: [edit, imagery, design, retouch, creative, graphics, modify, art, visuals, compose]
category: Brand
unicode: "ff27"
version: "3.8"
-->
<svg
  xmlns="http://www.w3.org/2000/svg"
  width="24"
  height="24"
  viewBox="0 0 24 24"
  fill="none"
  stroke="currentColor"
  stroke-width="2"
  stroke-linecap="round"
  stroke-linejoin="round"
>
  <path d="M3 12c0 -4.243 0 -6.364 1.318 -7.682s3.44 -1.318 7.682 -1.318s6.364 0 7.682 1.318s1.318 3.44 1.318 7.682s0 6.364 -1.318 7.682s-3.44 1.318 -7.682 1.318s-6.364 0 -7.682 -1.318s-1.318 -3.44 -1.318 -7.682" />
  <path d="M6.79 15.79v-3.79m0 0v-2.724c0 -.11 0 -.165 .004 -.211c.044 -.45 .4 -.806 .85 -.85c.046 -.004 .101 -.004 .211 -.004h1.303a1.895 1.895 0 1 1 0 3.789l-2.368 0" />
  <path d="M17.178 11.263c-.164 -.659 -.935 -1.158 -1.862 -1.158c-1.047 0 -1.895 .637 -1.895 1.421c0 .785 .848 1.421 1.895 1.421c1.046 0 1.895 .637 1.895 1.421c0 .785 -.849 1.421 -1.895 1.421c-.93 0 -1.704 -.502 -1.864 -1.165" />
</svg>
