<!--
tags: [opensource, database, system, web, app, brand, mysql, logo, company, trademark]
category: Brand
version: "1.115"
unicode: "f614"
-->
<svg
  xmlns="http://www.w3.org/2000/svg"
  width="24"
  height="24"
  viewBox="0 0 24 24"
  fill="none"
  stroke="currentColor"
  stroke-width="2"
  stroke-linecap="round"
  stroke-linejoin="round"
>
  <path d="M13 21c-1.427 -1.026 -3.59 -3.854 -4 -6c-.486 .77 -1.501 2 -2 2c-1.499 -.888 -.574 -3.973 0 -6c-1.596 -1.433 -2.468 -2.458 -2.5 -4c-3.35 -3.44 -.444 -5.27 2.5 -3h1c8.482 .5 6.421 8.07 9 11.5c2.295 .522 3.665 2.254 5 3.5c-2.086 -.2 -2.784 -.344 -3.5 0c.478 1.64 2.123 2.2 3.5 3" />
  <path d="M9 7h.01" />
</svg>
