<!--
category: Design
tags: [bag, baggage, folder, carrier, documents, suitcase, job, work, luggage, briefcase]
version: "1.0"
unicode: "ea46"
-->
<svg
  xmlns="http://www.w3.org/2000/svg"
  width="24"
  height="24"
  viewBox="0 0 24 24"
  fill="none"
  stroke="currentColor"
  stroke-width="2"
  stroke-linecap="round"
  stroke-linejoin="round"
>
  <path d="M3 9a2 2 0 0 1 2 -2h14a2 2 0 0 1 2 2v9a2 2 0 0 1 -2 2h-14a2 2 0 0 1 -2 -2l0 -9" />
  <path d="M8 7v-2a2 2 0 0 1 2 -2h4a2 2 0 0 1 2 2v2" />
  <path d="M12 12l0 .01" />
  <path d="M3 13a20 20 0 0 0 18 0" />
</svg>
