<!--
tags: [weekly-calendar, week-view, date-week, weekly-schedule, timeframe, calendar-grid, week, week-planner, weekly, date-grid]
category: System
version: "2.41"
unicode: "fd30"
-->
<svg
  xmlns="http://www.w3.org/2000/svg"
  width="24"
  height="24"
  viewBox="0 0 24 24"
  fill="none"
  stroke="currentColor"
  stroke-width="2"
  stroke-linecap="round"
  stroke-linejoin="round"
>
  <path d="M4 7a2 2 0 0 1 2 -2h12a2 2 0 0 1 2 2v12a2 2 0 0 1 -2 2h-12a2 2 0 0 1 -2 -2v-12z" />
  <path d="M16 3v4" />
  <path d="M8 3v4" />
  <path d="M4 11h16" />
  <path d="M7 14h.013" />
  <path d="M10.01 14h.005" />
  <path d="M13.01 14h.005" />
  <path d="M16.015 14h.005" />
  <path d="M13.015 17h.005" />
  <path d="M7.01 17h.005" />
  <path d="M10.01 17h.005" />
</svg>
