<!--
tags: [currency, payment, money, pay, cash, store, purchase, finance, dollar, banknote]
category: E-commerce
version: "1.0"
unicode: "ea55"
-->
<svg
  xmlns="http://www.w3.org/2000/svg"
  width="24"
  height="24"
  viewBox="0 0 24 24"
  fill="none"
  stroke="currentColor"
  stroke-width="2"
  stroke-linecap="round"
  stroke-linejoin="round"
>
  <path d="M7 15h-3a1 1 0 0 1 -1 -1v-8a1 1 0 0 1 1 -1h12a1 1 0 0 1 1 1v3" />
  <path d="M7 10a1 1 0 0 1 1 -1h12a1 1 0 0 1 1 1v8a1 1 0 0 1 -1 1h-12a1 1 0 0 1 -1 -1l0 -8" />
  <path d="M12 14a2 2 0 1 0 4 0a2 2 0 0 0 -4 0" />
</svg>
