<!--
category: Buildings
tags: [chalkboard, teacher, board, classroom, education, teaching, school, educator, instructor, professor]
version: "3.32"
unicode: "10160"
-->
<svg
  xmlns="http://www.w3.org/2000/svg"
  width="24"
  height="24"
  viewBox="0 0 24 24"
  fill="none"
  stroke="currentColor"
  stroke-width="2"
  stroke-linecap="round"
  stroke-linejoin="round"
>
  <path d="M8 19h-3a2 2 0 0 1 -2 -2v-10a2 2 0 0 1 2 -2h14a2 2 0 0 1 2 2v11a1 1 0 0 1 -1 1" />
  <path d="M12 14a2 2 0 1 0 4.001 -.001a2 2 0 0 0 -4.001 .001" />
  <path d="M17 19a2 2 0 0 0 -2 -2h-2a2 2 0 0 0 -2 2" />
</svg>
