<!--
tags: [edit, paint, photo, contrast, off, disabled, inactive, camera, picture, image]
category: Photography
version: "1.94"
unicode: "f3da"
-->
<svg
  xmlns="http://www.w3.org/2000/svg"
  width="24"
  height="24"
  viewBox="0 0 24 24"
  fill="none"
  stroke="currentColor"
  stroke-width="2"
  stroke-linecap="round"
  stroke-linejoin="round"
>
  <path d="M4 18h2a6 6 0 0 0 6 -6m.878 -3.126a6 6 0 0 1 5.122 -2.874h2" />
  <path d="M8 4h10a2 2 0 0 1 2 2v10m-.586 3.414a2 2 0 0 1 -1.414 .586h-12a2 2 0 0 1 -2 -2v-12c0 -.547 .22 -1.043 .576 -1.405" />
  <path d="M3 3l18 18" />
</svg>
