<!--
tags: [data, file, storage, backup, system, database, import, repository, records, information]
category: Database
version: "1.39"
unicode: "ee6f"
-->
<svg
  xmlns="http://www.w3.org/2000/svg"
  width="24"
  height="24"
  viewBox="0 0 24 24"
  fill="none"
  stroke="currentColor"
  stroke-width="2"
  stroke-linecap="round"
  stroke-linejoin="round"
>
  <path d="M4 6c0 1.657 3.582 3 8 3s8 -1.343 8 -3s-3.582 -3 -8 -3s-8 1.343 -8 3" />
  <path d="M4 6v6c0 1.657 3.582 3 8 3c.856 0 1.68 -.05 2.454 -.144m5.546 -2.856v-6" />
  <path d="M4 12v6c0 1.657 3.582 3 8 3c.171 0 .341 -.002 .51 -.006" />
  <path d="M19 22v-6" />
  <path d="M22 19l-3 -3l-3 3" />
</svg>
