<!--
category: Devices
tags: [stop, end, abort, dismiss, void, terminate, nullify, revoke, erase, cease]
version: "2.10"
unicode: "f8e7"
-->
<svg
  xmlns="http://www.w3.org/2000/svg"
  width="24"
  height="24"
  viewBox="0 0 24 24"
  fill="none"
  stroke="currentColor"
  stroke-width="2"
  stroke-linecap="round"
  stroke-linejoin="round"
>
  <path d="M13 15.5v-6.5a1 1 0 0 1 1 -1h6a1 1 0 0 1 1 1v3.5" />
  <path d="M18 8v-3a1 1 0 0 0 -1 -1h-13a1 1 0 0 0 -1 1v12a1 1 0 0 0 1 1h8" />
  <path d="M16 19a3 3 0 1 0 6 0a3 3 0 1 0 -6 0" />
  <path d="M17 21l4 -4" />
  <path d="M16 9h2" />
</svg>
