<!--
category: Devices
tags: [3d, depth-camera, scanner, sensor, capture, hardware, device, spatial, technology, modeling]
unicode: "1022d"
version: "3.41"
-->
<svg
  xmlns="http://www.w3.org/2000/svg"
  width="24"
  height="24"
  viewBox="0 0 24 24"
  fill="none"
  stroke="currentColor"
  stroke-width="2"
  stroke-linecap="round"
  stroke-linejoin="round"
>
  <path d="M11 8a2 2 0 0 1 2 -2a2 2 0 0 1 2 2a2 2 0 0 1 -2 2a2 2 0 0 1 -2 -2" />
  <path d="M8 6a3 3 0 0 1 3 -3h4a3 3 0 0 1 3 3v12a3 3 0 0 1 -3 3h-4a3 3 0 0 1 -3 -3v-12"  />
  <path d="M13 14v2" />
</svg>
