<!--
tags: [record, music, radio, cassette, recording, play, device, audio, tape, hardware]
category: Devices
version: "1.39"
unicode: "ee73"
-->
<svg
  xmlns="http://www.w3.org/2000/svg"
  width="24"
  height="24"
  viewBox="0 0 24 24"
  fill="none"
  stroke="currentColor"
  stroke-width="2"
  stroke-linecap="round"
  stroke-linejoin="round"
>
  <path d="M3 7a2 2 0 0 1 2 -2h14a2 2 0 0 1 2 2v10a2 2 0 0 1 -2 2h-14a2 2 0 0 1 -2 -2v-10" />
  <path d="M3 17l4 -3h10l4 3" />
  <path d="M7 9.5a.5 .5 0 1 0 1 0a.5 .5 0 1 0 -1 0" fill="currentColor" />
  <path d="M16 9.5a.5 .5 0 1 0 1 0a.5 .5 0 1 0 -1 0" fill="currentColor" />
</svg>
