<!--
tags: [animal, creature, living, organism, fantasy, monster]
category: Animals
unicode: "10272"
version: "3.45"
-->
<svg
  xmlns="http://www.w3.org/2000/svg"
  width="24"
  height="24"
  viewBox="0 0 24 24"
  fill="none"
  stroke="currentColor"
  stroke-width="2"
  stroke-linecap="round"
  stroke-linejoin="round"
>
  <path d="M10.706 8.849l-5.706 -3.301l-2 6.452l3.5 -1.973l.5 2.973l3.555 -1.385" />
  <path d="M15 9c0 3.5 4 3 4 7c0 3 -3 5 -5.5 5s-6 -.5 -6.5 -5c2 2 6.592 3.043 7.5 1c1.094 -2.461 -4 -3.459 -4 -6.5c0 -2.062 .5 -2.5 1.8 -3.2" />
  <path d="M18 6a3 3 270 1 0 -3 3h5l1 -3h-3" />
  <path d="M15 3h-8l5 3" />
</svg>
