<!--
tags: [location, gesture, move, drag, drop, creative, artistic, visual, aesthetic, style]
category: Design
version: "1.3"
unicode: "eb89"
-->
<svg
  xmlns="http://www.w3.org/2000/svg"
  width="24"
  height="24"
  viewBox="0 0 24 24"
  fill="none"
  stroke="currentColor"
  stroke-width="2"
  stroke-linecap="round"
  stroke-linejoin="round"
>
  <path d="M19 11v-2a2 2 0 0 0 -2 -2h-8a2 2 0 0 0 -2 2v8a2 2 0 0 0 2 2h2" />
  <path d="M13 13l9 3l-4 2l-2 4l-3 -9" />
  <path d="M3 3l0 .01" />
  <path d="M7 3l0 .01" />
  <path d="M11 3l0 .01" />
  <path d="M15 3l0 .01" />
  <path d="M3 7l0 .01" />
  <path d="M3 11l0 .01" />
  <path d="M3 15l0 .01" />
</svg>
