<!--
category: System
tags: [apple, iphone, ipad, face, id]
version: "1.0"
unicode: "ea9b"
-->
<svg
  xmlns="http://www.w3.org/2000/svg"
  width="24"
  height="24"
  viewBox="0 0 24 24"
  fill="none"
  stroke="currentColor"
  stroke-width="2"
  stroke-linecap="round"
  stroke-linejoin="round"
>
  <path d="M4 8v-2a2 2 0 0 1 2 -2h2" />
  <path d="M4 16v2a2 2 0 0 0 2 2h2" />
  <path d="M16 4h2a2 2 0 0 1 2 2v2" />
  <path d="M16 20h2a2 2 0 0 0 2 -2v-2" />
  <path d="M9 10l.01 0" />
  <path d="M15 10l.01 0" />
  <path d="M9.5 15a3.5 3.5 0 0 0 5 0" />
</svg>
