<!--
tags: [document, eternity, sync, loop, file, infinity, data, content, record, paper]
category: Document
version: "1.101"
unicode: "f502"
-->
<svg
  xmlns="http://www.w3.org/2000/svg"
  width="24"
  height="24"
  viewBox="0 0 24 24"
  fill="none"
  stroke="currentColor"
  stroke-width="2"
  stroke-linecap="round"
  stroke-linejoin="round"
>
  <path d="M15.536 17.586a2.123 2.123 0 0 0 -2.929 0a1.951 1.951 0 0 0 0 2.828c.809 .781 2.12 .781 2.929 0c.809 -.781 -.805 .778 0 0l1.46 -1.41l1.46 -1.419" />
  <path d="M15.54 17.582l1.46 1.42l1.46 1.41c.809 .78 -.805 -.779 0 0s2.12 .781 2.929 0a1.951 1.951 0 0 0 0 -2.828a2.123 2.123 0 0 0 -2.929 0" />
  <path d="M14 3v4a1 1 0 0 0 1 1h4" />
  <path d="M9.5 21h-2.5a2 2 0 0 1 -2 -2v-14a2 2 0 0 1 2 -2h7l5 5v6" />
</svg>
