<!--
category: System
tags: [love, romantic, like, affection, favorite, heartbeat, care, emotion, passion, desire]
version: "2.28"
unicode: "fb83"
-->
<svg
  xmlns="http://www.w3.org/2000/svg"
  width="24"
  height="24"
  viewBox="0 0 24 24"
  fill="none"
  stroke="currentColor"
  stroke-width="2"
  stroke-linecap="round"
  stroke-linejoin="round"
>
  <path d="M10.888 20.37l-1.888 .63v-8.5l-4.48 -4.928a2 2 0 0 1 -.52 -1.345v-2.227h16v2.172a2 2 0 0 1 -.586 1.414l-3.503 3.503" />
  <path d="M18 22l3.35 -3.284a2.143 2.143 0 0 0 .005 -3.071a2.242 2.242 0 0 0 -3.129 -.006l-.224 .22l-.223 -.22a2.242 2.242 0 0 0 -3.128 -.006a2.143 2.143 0 0 0 -.006 3.071l3.355 3.296" />
</svg>
