<!--
category: Health
tags: [biometric, security, identity, authentication, access, verify, unique, pattern, touch, print]
version: "2.37"
unicode: "fcb5"
-->
<svg
  xmlns="http://www.w3.org/2000/svg"
  width="24"
  height="24"
  viewBox="0 0 24 24"
  fill="none"
  stroke="currentColor"
  stroke-width="2"
  stroke-linecap="round"
  stroke-linejoin="round"
>
  <path d="M9 11a3 3 0 0 1 6 0c0 1.657 .612 3.082 1 4" />
  <path d="M12 11v1.75c-.001 1.11 .661 2.206 1 3.25" />
  <path d="M9 14.25c.068 .58 .358 1.186 .5 1.75" />
  <path d="M4 8v-2a2 2 0 0 1 2 -2h2" />
  <path d="M4 16v2a2 2 0 0 0 2 2h2" />
  <path d="M16 4h2a2 2 0 0 1 2 2v2" />
  <path d="M16 20h2a2 2 0 0 0 2 -2v-2" />
</svg>
