<!--
category: Map
tags: [attach, fix, anchor, mark, stick, position, secure, location, tag, place]
version: "2.28"
unicode: "fb96"
-->
<svg
  xmlns="http://www.w3.org/2000/svg"
  width="24"
  height="24"
  viewBox="0 0 24 24"
  fill="none"
  stroke="currentColor"
  stroke-width="2"
  stroke-linecap="round"
  stroke-linejoin="round"
>
  <path d="M12.857 14.675a5.016 5.016 0 0 1 -.857 -.675a5 5 0 0 0 -7 0v-9a5 5 0 0 1 7 0a5 5 0 0 0 7 0v6" />
  <path d="M5 21v-7" />
  <path d="M21.121 20.121a3 3 0 1 0 -4.242 0c.418 .419 1.125 1.045 2.121 1.879c1.051 -.89 1.759 -1.516 2.121 -1.879" />
  <path d="M19 18v.01" />
</svg>
