<!--
category: Map
tags: [money, currency, finance, cash, funds, payment, wealth, economy, capital, trade]
version: "2.28"
unicode: "fb90"
-->
<svg
  xmlns="http://www.w3.org/2000/svg"
  width="24"
  height="24"
  viewBox="0 0 24 24"
  fill="none"
  stroke="currentColor"
  stroke-width="2"
  stroke-linecap="round"
  stroke-linejoin="round"
>
  <path d="M13.222 14.882a4.998 4.998 0 0 1 -1.222 -.882a5 5 0 0 0 -7 0v-9a5 5 0 0 1 7 0a5 5 0 0 0 7 0v5" />
  <path d="M5 21v-7" />
  <path d="M21 15h-2.5a1.5 1.5 0 0 0 0 3h1a1.5 1.5 0 0 1 0 3h-2.5" />
  <path d="M19 21v1m0 -8v1" />
</svg>
