<!--
category: Document
tags: [love, affection, emotion, care, favor, adore, benevolence, devotion, fondness, cherish]
version: "2.10"
unicode: "f914"
-->
<svg
  xmlns="http://www.w3.org/2000/svg"
  width="24"
  height="24"
  viewBox="0 0 24 24"
  fill="none"
  stroke="currentColor"
  stroke-width="2"
  stroke-linecap="round"
  stroke-linejoin="round"
>
  <path d="M10.5 19h-5.5a2 2 0 0 1 -2 -2v-11a2 2 0 0 1 2 -2h4l3 3h7a2 2 0 0 1 2 2v2" />
  <path d="M18 22l3.35 -3.284a2.143 2.143 0 0 0 .005 -3.071a2.242 2.242 0 0 0 -3.129 -.006l-.224 .22l-.223 -.22a2.242 2.242 0 0 0 -3.128 -.006a2.143 2.143 0 0 0 -.006 3.071l3.355 3.296z" />
</svg>
