<!--
tags: [code, version control, command, git, pull, request, versioning, repository, tracking, revision]
category: Version control
version: "1.0"
unicode: "eab6"
-->
<svg
  xmlns="http://www.w3.org/2000/svg"
  width="24"
  height="24"
  viewBox="0 0 24 24"
  fill="none"
  stroke="currentColor"
  stroke-width="2"
  stroke-linecap="round"
  stroke-linejoin="round"
>
  <path d="M4 18a2 2 0 1 0 4 0a2 2 0 1 0 -4 0" />
  <path d="M4 6a2 2 0 1 0 4 0a2 2 0 1 0 -4 0" />
  <path d="M16 18a2 2 0 1 0 4 0a2 2 0 1 0 -4 0" />
  <path d="M6 8l0 8" />
  <path d="M11 6h5a2 2 0 0 1 2 2v8" />
  <path d="M14 9l-3 -3l3 -3" />
</svg>
