<!--
tags: [code, version control, command, git, merge, versioning, repository, tracking, revision]
category: Version control
version: "1.0"
unicode: "eab5"
-->
<svg
  xmlns="http://www.w3.org/2000/svg"
  width="24"
  height="24"
  viewBox="0 0 24 24"
  fill="none"
  stroke="currentColor"
  stroke-width="2"
  stroke-linecap="round"
  stroke-linejoin="round"
>
  <path d="M5 18a2 2 0 1 0 4 0a2 2 0 1 0 -4 0" />
  <path d="M5 6a2 2 0 1 0 4 0a2 2 0 1 0 -4 0" />
  <path d="M15 12a2 2 0 1 0 4 0a2 2 0 1 0 -4 0" />
  <path d="M7 8l0 8" />
  <path d="M7 8a4 4 0 0 0 4 4h4" />
</svg>
