<!--
tags: [picture, abstract, design, across, dots, drag, grip, horizontal, control, operation]
category: System
version: "1.8"
unicode: "ec00"
-->
<svg
  xmlns="http://www.w3.org/2000/svg"
  width="24"
  height="24"
  viewBox="0 0 24 24"
  fill="none"
  stroke="currentColor"
  stroke-width="2"
  stroke-linecap="round"
  stroke-linejoin="round"
>
  <path d="M4 9a1 1 0 1 0 2 0a1 1 0 1 0 -2 0" />
  <path d="M4 15a1 1 0 1 0 2 0a1 1 0 1 0 -2 0" />
  <path d="M11 9a1 1 0 1 0 2 0a1 1 0 1 0 -2 0" />
  <path d="M11 15a1 1 0 1 0 2 0a1 1 0 1 0 -2 0" />
  <path d="M18 9a1 1 0 1 0 2 0a1 1 0 1 0 -2 0" />
  <path d="M18 15a1 1 0 1 0 2 0a1 1 0 1 0 -2 0" />
</svg>
