<!--
tags: [bill, statement, receipt, charge, account, record, summary, document, detail, accounting]
category: Document
unicode: "feab"
version: "3.1"
-->
<svg
  xmlns="http://www.w3.org/2000/svg"
  width="24"
  height="24"
  viewBox="0 0 24 24"
  fill="none"
  stroke="currentColor"
  stroke-width="2"
  stroke-linecap="round"
  stroke-linejoin="round"
>
  <path d="M14 3v4a1 1 0 0 0 1 1h4" />
  <path d="M19 12v7a1.78 1.78 0 0 1 -3.1 1.4a1.65 1.65 0 0 0 -2.6 0a1.65 1.65 0 0 1 -2.6 0a1.65 1.65 0 0 0 -2.6 0a1.78 1.78 0 0 1 -3.1 -1.4v-14a2 2 0 0 1 2 -2h7l5 5v4.25" />
</svg>
