<!--
tags: [miter, corner, angle, edge, intersection, splice, connect, junction, joint, seam]
unicode: "ff4c"
version: "3.10"
-->
<svg
  xmlns="http://www.w3.org/2000/svg"
  width="24"
  height="24"
  viewBox="0 0 24 24"
  fill="none"
  stroke="currentColor"
  stroke-width="2"
  stroke-linecap="round"
  stroke-linejoin="round"
>
  <path d="M6 4h3a2 2 0 0 1 2 2v6a1 1 0 0 0 1 1h6a2 2 0 0 1 2 2v3a2 2 0 0 1 -2 2h-6.586a1 1 0 0 1 -.707 -.293l-6.414 -6.414a1 1 0 0 1 -.293 -.707v-6.586a2 2 0 0 1 2 -2" />
</svg>
