<!--
category: Games
tags: [wildcard, trickster, card, entertain, fool, jest, playful, clown, funny, comedy]
unicode: "1005f"
version: "3.18"
-->
<svg
  xmlns="http://www.w3.org/2000/svg"
  width="24"
  height="24"
  viewBox="0 0 24 24"
  fill="none"
  stroke="currentColor"
  stroke-width="2"
  stroke-linecap="round"
  stroke-linejoin="round"
>
  <path d="M5 16m0 1.5a1.5 1.5 0 0 1 1.5 -1.5h11a1.5 1.5 0 0 1 1.5 1.5v0a1.5 1.5 0 0 1 -1.5 1.5h-11a1.5 1.5 0 0 1 -1.5 -1.5z" />
  <path d="M12 16q -2.5 -8 -6 -8q -2.5 0 -3 2c2.953 .31 3.308 3.33 4 6" />
  <path d="M12 16q 2.5 -8 6 -8q 2.5 0 3 2c-2.953 .31 -3.308 3.33 -4 6" />
  <path d="M9 9.5q 2 -3.5 3 -3.5t 3 3.5" />
</svg>
