<!--
tags: [sport, fitness, workout, gym, skipping, cardio, fit, shape, jump, rope]
category: Sport
version: "1.34"
unicode: "ed8f"
-->
<svg
  xmlns="http://www.w3.org/2000/svg"
  width="24"
  height="24"
  viewBox="0 0 24 24"
  fill="none"
  stroke="currentColor"
  stroke-width="2"
  stroke-linecap="round"
  stroke-linejoin="round"
>
  <path d="M6 14v-6a3 3 0 1 1 6 0v8a3 3 0 0 0 6 0v-6" />
  <path d="M16 5a2 2 0 0 1 2 -2a2 2 0 0 1 2 2v3a2 2 0 0 1 -2 2a2 2 0 0 1 -2 -2l0 -3" />
  <path d="M4 16a2 2 0 0 1 2 -2a2 2 0 0 1 2 2v3a2 2 0 0 1 -2 2a2 2 0 0 1 -2 -2l0 -3" />
</svg>
