<!--
tags: [position, design, arrangement, layout, cards, creative, artistic, visual, aesthetic, style]
category: Design
version: "1.8"
unicode: "ec13"
-->
<svg
  xmlns="http://www.w3.org/2000/svg"
  width="24"
  height="24"
  viewBox="0 0 24 24"
  fill="none"
  stroke="currentColor"
  stroke-width="2"
  stroke-linecap="round"
  stroke-linejoin="round"
>
  <path d="M4 6a2 2 0 0 1 2 -2h2a2 2 0 0 1 2 2v12a2 2 0 0 1 -2 2h-2a2 2 0 0 1 -2 -2l0 -12" />
  <path d="M14 6a2 2 0 0 1 2 -2h2a2 2 0 0 1 2 2v6a2 2 0 0 1 -2 2h-2a2 2 0 0 1 -2 -2l0 -6" />
</svg>
