<!--
category: Map
tags: [secure, attach, fix, position, locate, mark, anchor, stable, stick, fasten]
version: "2.10"
unicode: "f955"
-->
<svg
  xmlns="http://www.w3.org/2000/svg"
  width="24"
  height="24"
  viewBox="0 0 24 24"
  fill="none"
  stroke="currentColor"
  stroke-width="2"
  stroke-linecap="round"
  stroke-linejoin="round"
>
  <path d="M9 11a3 3 0 1 0 6 0a3 3 0 0 0 -6 0" />
  <path d="M12.783 21.326a2 2 0 0 1 -2.196 -.426l-4.244 -4.243a8 8 0 1 1 13.657 -5.62" />
  <path d="M21.121 20.121a3 3 0 1 0 -4.242 0c.418 .419 1.125 1.045 2.121 1.879c1.051 -.89 1.759 -1.516 2.121 -1.879" />
  <path d="M19 18v.01" />
</svg>
