<!--
category: Development
tags: [bridge, layer, software, integration, connect, intermediate, service, glue, mediator, processor, handler, interface]
unicode: "101ed"
version: "3.39"
-->
<svg
  xmlns="http://www.w3.org/2000/svg"
  width="24"
  height="24"
  viewBox="0 0 24 24"
  fill="none"
  stroke="currentColor"
  stroke-width="2"
  stroke-linecap="round"
  stroke-linejoin="round"
>
  <path d="M4 20l2.25 -2.25" />
  <path d="M20 20l-2.25 -2.25" />
  <path d="M20 4l-2.25 2.25" />
  <path d="M4 4l2.25 2.25" />
  <path d="M10 19.748a8.01 8.01 0 0 1 -5.747 -5.748" />
  <path d="M19.748 14a8.01 8.01 0 0 1 -5.748 5.748" />
  <path d="M4.252 10a8.02 8.02 0 0 1 5.478 -5.672l.27 -.075" />
  <path d="M14 4.252a8.01 8.01 0 0 1 5.748 5.749" />
  <path d="M11 12a1 1 0 1 0 2 0a1 1 0 0 0 -2 0" />
</svg>
