<!--
category: E-commerce
tags: [moneybag, edit, modify, change, update, revise, adjust, wealth, rich, money]
version: "3.31"
unicode: "1013d"
-->
<svg
  xmlns="http://www.w3.org/2000/svg"
  width="24"
  height="24"
  viewBox="0 0 24 24"
  fill="none"
  stroke="currentColor"
  stroke-width="2"
  stroke-linecap="round"
  stroke-linejoin="round"
>
  <path d="M9.5 3h5a1.5 1.5 0 0 1 1.5 1.5a3.5 3.5 0 0 1 -3.5 3.5h-1a3.5 3.5 0 0 1 -3.5 -3.5a1.5 1.5 0 0 1 1.5 -1.5" />
  <path d="M11 21h-3a4 4 0 0 1 -4 -4v-1a8 8 0 0 1 14.376 -4.833" />
  <path d="M18.42 15.61a2.1 2.1 0 1 1 2.97 2.97l-3.39 3.42h-3v-3l3.42 -3.39" />
</svg>
