<!--
tags: [gallery, love, romance, wedding, photo, heart, content, entertainment, like, multimedia]
category: Media
version: "1.89"
unicode: "f361"
-->
<svg
  xmlns="http://www.w3.org/2000/svg"
  width="24"
  height="24"
  viewBox="0 0 24 24"
  fill="none"
  stroke="currentColor"
  stroke-width="2"
  stroke-linecap="round"
  stroke-linejoin="round"
>
  <path d="M15 8h.01" />
  <path d="M11.5 21h-5.5a3 3 0 0 1 -3 -3v-12a3 3 0 0 1 3 -3h12a3 3 0 0 1 3 3v5" />
  <path d="M3 16l5 -5c.928 -.893 2.072 -.893 3 0l1.5 1.5" />
  <path d="M18 22l3.35 -3.284a2.143 2.143 0 0 0 .005 -3.071a2.242 2.242 0 0 0 -3.129 -.006l-.224 .22l-.223 -.22a2.242 2.242 0 0 0 -3.128 -.006a2.143 2.143 0 0 0 -.006 3.071l3.355 3.296" />
</svg>
