<!--
category: Nature
tags: [nature, green, flower, pot, tree, leaf, greenery, root, stem, seed]
version: "1.66"
unicode: "f17d"
-->
<svg
  xmlns="http://www.w3.org/2000/svg"
  width="24"
  height="24"
  viewBox="0 0 24 24"
  fill="none"
  stroke="currentColor"
  stroke-width="2"
  stroke-linecap="round"
  stroke-linejoin="round"
>
  <path d="M17 17v2a2 2 0 0 1 -2 2h-6a2 2 0 0 1 -2 -2v-4h8" />
  <path d="M11.9 7.908a6 6 0 0 0 -4.79 -4.806m-4.11 -.102v2a6 6 0 0 0 6 6h2" />
  <path d="M12.531 8.528a6 6 0 0 1 5.469 -3.528h3v1a6 6 0 0 1 -5.037 5.923" />
  <path d="M12 15v-3" />
  <path d="M3 3l18 18" />
</svg>
