<!--
category: Games
tags: [queen, carding, crown, deck, royalty, high, prestige, poker, strategy, face]
unicode: "1004f"
version: "3.18"
-->
<svg
  xmlns="http://www.w3.org/2000/svg"
  width="24"
  height="24"
  viewBox="0 0 24 24"
  fill="none"
  stroke="currentColor"
  stroke-width="2"
  stroke-linecap="round"
  stroke-linejoin="round"
>
  <path d="M19 5v14a2 2 0 0 1 -2 2h-10a2 2 0 0 1 -2 -2v-14a2 2 0 0 1 2 -2h10a2 2 0 0 1 2 2" />
  <path d="M8 6h.01" />
  <path d="M16 18h.01" />
  <path d="M12 9a2 2 0 0 1 2 2v2a2 2 0 1 1 -4 0v-2a2 2 0 0 1 2 -2" />
  <path d="M13 14l1.5 1.5" />
</svg>
