<!--
category: System
tags: [love, care, like, emotion, affection, passion, favorite, adore, sweet, romance]
version: "2.10"
unicode: "f9a1"
-->
<svg
  xmlns="http://www.w3.org/2000/svg"
  width="24"
  height="24"
  viewBox="0 0 24 24"
  fill="none"
  stroke="currentColor"
  stroke-width="2"
  stroke-linecap="round"
  stroke-linejoin="round"
>
  <path d="M16.571 11.018l1.32 -.886a1.2 1.2 0 0 0 -.309 -2.228l-13.582 -3.904l3.904 13.563a1.2 1.2 0 0 0 2.228 .308" />
  <path d="M18 22l3.35 -3.284a2.143 2.143 0 0 0 .005 -3.071a2.242 2.242 0 0 0 -3.129 -.006l-.224 .22l-.223 -.22a2.242 2.242 0 0 0 -3.128 -.006a2.143 2.143 0 0 0 -.006 3.071l3.355 3.296z" />
</svg>
