<!--
category: Development
tags: [queue, pop, in, insert, stack, data-structure, add, development]
unicode: "10200"
version: "3.40"
-->
<svg
  xmlns="http://www.w3.org/2000/svg"
  width="24"
  height="24"
  viewBox="0 0 24 24"
  fill="none"
  stroke="currentColor"
  stroke-width="2"
  stroke-linecap="round"
  stroke-linejoin="round"
>
  <path d="M8 6h-3a2 2 0 0 0 -2 2v11a2 2 0 0 0 2 2h11a2 2 0 0 0 2 -2v-3.357" />
  <path d="M13 5a2 2 0 0 1 2 -2h4a2 2 0 0 1 2 2v4a2 2 0 0 1 -2 2h-4a2 2 0 0 1 -2 -2v-4"  />
  <path d="M13.5 10.5l-5.5 5.5" />
  <path d="M8 11v5h5" />
</svg>
