<!--
tags: [reverse, backward, reverse-60, rewind, undo, start, rotate-60, previous, step-back, reset]
category: Media
version: "2.21"
unicode: "fac1"
-->
<svg
  xmlns="http://www.w3.org/2000/svg"
  width="24"
  height="24"
  viewBox="0 0 24 24"
  fill="none"
  stroke="currentColor"
  stroke-width="2"
  stroke-linecap="round"
  stroke-linejoin="round"
>
  <path d="M19.007 16.466a6 6 0 0 0 -4.007 -10.466h-11" />
  <path d="M7 9l-3 -3l3 -3" />
  <path d="M12 15.5v3a1.5 1.5 0 0 0 3 0v-3a1.5 1.5 0 0 0 -3 0z" />
  <path d="M9 14h-2a1 1 0 0 0 -1 1v4a1 1 0 0 0 1 1h1a1 1 0 0 0 1 -1v-1a1 1 0 0 0 -1 -1h-2" />
</svg>
