<!--
tags: [paper, document, destroy, device, office, confidential, shredder, hardware, technology, electronic]
category: Devices
version: "1.39"
unicode: "eedf"
-->
<svg
  xmlns="http://www.w3.org/2000/svg"
  width="24"
  height="24"
  viewBox="0 0 24 24"
  fill="none"
  stroke="currentColor"
  stroke-width="2"
  stroke-linecap="round"
  stroke-linejoin="round"
>
  <path d="M4 11a1 1 0 0 1 1 -1h14a1 1 0 0 1 1 1v3a1 1 0 0 1 -1 1h-14a1 1 0 0 1 -1 -1l0 -3" />
  <path d="M17 10v-4a2 2 0 0 0 -2 -2h-6a2 2 0 0 0 -2 2v4m5 5v5m4 -5v2m-8 -2v3" />
</svg>
