<!--
tags: [photo, picture, video, presentation, camera, display, ad, slideshow, typography, writing]
category: Text
version: "1.5"
unicode: "ebc9"
-->
<svg
  xmlns="http://www.w3.org/2000/svg"
  width="24"
  height="24"
  viewBox="0 0 24 24"
  fill="none"
  stroke="currentColor"
  stroke-width="2"
  stroke-linecap="round"
  stroke-linejoin="round"
>
  <path d="M15 6l.01 0" />
  <path d="M3 6a3 3 0 0 1 3 -3h12a3 3 0 0 1 3 3v8a3 3 0 0 1 -3 3h-12a3 3 0 0 1 -3 -3l0 -8" />
  <path d="M3 13l4 -4a3 5 0 0 1 3 0l4 4" />
  <path d="M13 12l2 -2a3 5 0 0 1 3 0l3 3" />
  <path d="M8 21l.01 0" />
  <path d="M12 21l.01 0" />
  <path d="M16 21l.01 0" />
</svg>
