<!--
tags: [sparkles, magic, stars, glitter, shine, effect, ai, new, highlight, special]
category: Design
unicode: "101a6"
version: "3.36"
-->
<svg
  xmlns="http://www.w3.org/2000/svg"
  width="24"
  height="24"
  viewBox="0 0 24 24"
  fill="none"
  stroke="currentColor"
  stroke-width="2"
  stroke-linecap="round"
  stroke-linejoin="round"
>
  <path d="M13 7a9.3 9.3 0 0 0 1.516 -.546c.911 -.438 1.494 -1.015 1.937 -1.932c.207 -.428 .382 -.928 .547 -1.522c.165 .595 .34 1.095 .547 1.521c.443 .918 1.026 1.495 1.937 1.933c.426 .205 .925 .38 1.516 .546a9.3 9.3 0 0 0 -1.516 .547c-.911 .438 -1.494 1.015 -1.937 1.932a9 9 0 0 0 -.547 1.521c-.165 -.594 -.34 -1.095 -.547 -1.521c-.443 -.918 -1.026 -1.494 -1.937 -1.932a9 9 0 0 0 -1.516 -.547" />
  <path d="M3 14a21 21 0 0 0 1.652 -.532c2.542 -.953 3.853 -2.238 4.816 -4.806a20 20 0 0 0 .532 -1.662a20 20 0 0 0 .532 1.662c.963 2.567 2.275 3.853 4.816 4.806q .75 .28 1.652 .532a21 21 0 0 0 -1.652 .532c-2.542 .953 -3.854 2.238 -4.816 4.806a20 20 0 0 0 -.532 1.662a20 20 0 0 0 -.532 -1.662c-.963 -2.568 -2.275 -3.853 -4.816 -4.806a21 21 0 0 0 -1.652 -.532" />
</svg>
