<!--
tags: [shape, keyboard, button, key, hotkey, square, control, operation, rectangular, f3]
category: System
version: "1.103"
unicode: "f529"
-->
<svg
  xmlns="http://www.w3.org/2000/svg"
  width="24"
  height="24"
  viewBox="0 0 24 24"
  fill="none"
  stroke="currentColor"
  stroke-width="2"
  stroke-linecap="round"
  stroke-linejoin="round"
>
  <path d="M3 5a2 2 0 0 1 2 -2h14a2 2 0 0 1 2 2v14a2 2 0 0 1 -2 2h-14a2 2 0 0 1 -2 -2v-14" />
  <path d="M13 9.5a.5 .5 0 0 1 .5 -.5h1a1.5 1.5 0 0 1 0 3h-.5h.5a1.5 1.5 0 0 1 0 3h-1a.5 .5 0 0 1 -.5 -.5" />
  <path d="M8 12h2" />
  <path d="M10 9h-2v6" />
</svg>
