<!--
category: Shapes
tags: [checkbox, chosen, highlight, marked, pick, selected, choice, option, choose, preference]
unicode: "fea3"
version: "3.1"
-->
<svg
  xmlns="http://www.w3.org/2000/svg"
  width="24"
  height="24"
  viewBox="0 0 24 24"
  fill="none"
  stroke="currentColor"
  stroke-width="2"
  stroke-linecap="round"
  stroke-linejoin="round"
>
  <path d="M8 10a2 2 0 0 1 2 -2h8a2 2 0 0 1 2 2v8a2 2 0 0 1 -2 2h-8a2 2 0 0 1 -2 -2l0 -8" />
  <path d="M8 14.5l6.492 -6.492" />
  <path d="M13.496 20l6.504 -6.504l-6.504 6.504" />
  <path d="M8.586 19.414l10.827 -10.827" />
  <path d="M16 8v-2a2 2 0 0 0 -2 -2h-8a2 2 0 0 0 -2 2v8a2 2 0 0 0 2 2h2" />
</svg>
