<!--
tags: [dislike, bad, emotion, thumb, down, bottom, decrease, control, operation, fall]
category: System
version: "1.0"
unicode: "eb3b"
-->
<svg
  xmlns="http://www.w3.org/2000/svg"
  width="24"
  height="24"
  viewBox="0 0 24 24"
  fill="none"
  stroke="currentColor"
  stroke-width="2"
  stroke-linecap="round"
  stroke-linejoin="round"
>
  <path d="M7 13v-8a1 1 0 0 0 -1 -1h-2a1 1 0 0 0 -1 1v7a1 1 0 0 0 1 1h3a4 4 0 0 1 4 4v1a2 2 0 0 0 4 0v-5h3a2 2 0 0 0 2 -2l-1 -5a2 3 0 0 0 -2 -2h-7a3 3 0 0 0 -3 3" />
</svg>
