<!--
tags: [calendar, schedule, date, remove, cross, delete, timeline, event, programming, software]
category: Development
version: "1.119"
unicode: "f666"
-->
<svg
  xmlns="http://www.w3.org/2000/svg"
  width="24"
  height="24"
  viewBox="0 0 24 24"
  fill="none"
  stroke="currentColor"
  stroke-width="2"
  stroke-linecap="round"
  stroke-linejoin="round"
>
  <path d="M10 20a2 2 0 1 0 4 0a2 2 0 1 0 -4 0" />
  <path d="M10 20h-6" />
  <path d="M14 20h6" />
  <path d="M12 15l-2 -2h-3a1 1 0 0 1 -1 -1v-8a1 1 0 0 1 1 -1h10a1 1 0 0 1 1 1v8a1 1 0 0 1 -1 1h-3l-2 2" />
  <path d="M13.5 9.5l-3 -3" />
  <path d="M10.5 9.5l3 -3" />
</svg>
