<!--
tags: [hierarchy, network, structure, connection, topology, star, favorite, rating, computing, machine]
category: Computers
version: "1.112"
unicode: "f5e1"
-->
<svg
  xmlns="http://www.w3.org/2000/svg"
  width="24"
  height="24"
  viewBox="0 0 24 24"
  fill="none"
  stroke="currentColor"
  stroke-width="2"
  stroke-linecap="round"
  stroke-linejoin="round"
>
  <path d="M10 19a2 2 0 1 0 -4 0a2 2 0 0 0 4 0" />
  <path d="M18 5a2 2 0 1 0 -4 0a2 2 0 0 0 4 0" />
  <path d="M10 5a2 2 0 1 0 -4 0a2 2 0 0 0 4 0" />
  <path d="M6 12a2 2 0 1 0 -4 0a2 2 0 0 0 4 0" />
  <path d="M18 19a2 2 0 1 0 -4 0a2 2 0 0 0 4 0" />
  <path d="M14 12a2 2 0 1 0 -4 0a2 2 0 0 0 4 0" />
  <path d="M22 12a2 2 0 1 0 -4 0a2 2 0 0 0 4 0" />
  <path d="M6 12h4" />
  <path d="M14 12h4" />
  <path d="M15 7l-2 3" />
  <path d="M9 7l2 3" />
  <path d="M11 14l-2 3" />
  <path d="M13 14l2 3" />
</svg>
