<!--
tags: [china, currency, exchange, trade, payment, cash, money, yuan, finance, transfer]
category: E-commerce
version: "2.44"
unicode: "fd73"
-->
<svg
  xmlns="http://www.w3.org/2000/svg"
  width="24"
  height="24"
  viewBox="0 0 24 24"
  fill="none"
  stroke="currentColor"
  stroke-width="2"
  stroke-linecap="round"
  stroke-linejoin="round"
>
  <path d="M15 17h6" />
  <path d="M15 12l3 4.5" />
  <path d="M21 12l-3 4.5v4.5" />
  <path d="M5 5m-2 0a2 2 0 1 0 4 0a2 2 0 1 0 -4 0" />
  <path d="M17 5m-2 0a2 2 0 1 0 4 0a2 2 0 1 0 -4 0" />
  <path d="M7 5h8" />
  <path d="M7 5v8a3 3 0 0 0 3 3h1" />
</svg>
