<!--
tags: [identity, biometric, authentication, recognition, profile, verification, user-data, user-profile, scan-identity, identity-verification]
category: System
version: "2.36"
unicode: "fcaf"
-->
<svg
  xmlns="http://www.w3.org/2000/svg"
  width="24"
  height="24"
  viewBox="0 0 24 24"
  fill="none"
  stroke="currentColor"
  stroke-width="2"
  stroke-linecap="round"
  stroke-linejoin="round"
>
  <path d="M10 9a2 2 0 1 0 4 0a2 2 0 0 0 -4 0" />
  <path d="M8 16a2 2 0 0 1 2 -2h4a2 2 0 0 1 2 2" />
  <path d="M3 7v-2a2 2 0 0 1 2 -2h2" />
  <path d="M3 17v2a2 2 0 0 0 2 2h2" />
  <path d="M17 3h2a2 2 0 0 1 2 2v2" />
  <path d="M17 21h2a2 2 0 0 0 2 -2v-2" />
</svg>
