<!--
category: System
tags: [cryptocurrency, blockchain, investment, wallet, digital, finance, trade, currency, virtual, peer-to-peer]
unicode: "ff30"
version: "3.9"
-->
<svg
  xmlns="http://www.w3.org/2000/svg"
  width="24"
  height="24"
  viewBox="0 0 24 24"
  fill="none"
  stroke="currentColor"
  stroke-width="2"
  stroke-linecap="round"
  stroke-linejoin="round"
>
  <path d="M17 21v-6m2 0v-1.5m0 9v-1.5m-2 -3h3m-1 0h.5a1.5 1.5 0 0 1 0 3h-3.5m3 -3h.5a1.5 1.5 0 0 0 0 -3h-3.5" />
  <path d="M8 7a4 4 0 1 0 8 0a4 4 0 0 0 -8 0" />
  <path d="M6 21v-2a4 4 0 0 1 4 -4h3" />
</svg>
