<!--
tags: [border, frame, rectangle, shape, geometry, design, pattern, corners, form, angular]
version: "2.31"
unicode: "fc51"
-->
<svg
  xmlns="http://www.w3.org/2000/svg"
  width="24"
  height="24"
  viewBox="0 0 24 24"
  fill="none"
  stroke="currentColor"
  stroke-width="2"
  stroke-linecap="round"
  stroke-linejoin="round"
>
  <path d="M9 10a3 3 0 1 0 6 0a3 3 0 0 0 -6 0" />
  <path d="M6 21v-1a4 4 0 0 1 4 -4h4a4 4 0 0 1 4 4v1" />
  <path d="M3 5a2 2 0 0 1 2 -2h14a2 2 0 0 1 2 2v14a2 2 0 0 1 -2 2h-14a2 2 0 0 1 -2 -2v-14z" />
</svg>
