<!--
tags: [curve, parametric, design, vector graphics, placement, vector, triangle, creative, artistic, visual]
category: Design
version: "1.17"
unicode: "eca8"
-->
<svg
  xmlns="http://www.w3.org/2000/svg"
  width="24"
  height="24"
  viewBox="0 0 24 24"
  fill="none"
  stroke="currentColor"
  stroke-width="2"
  stroke-linecap="round"
  stroke-linejoin="round"
>
  <path d="M10 5a1 1 0 0 1 1 -1h2a1 1 0 0 1 1 1v2a1 1 0 0 1 -1 1h-2a1 1 0 0 1 -1 -1l0 -2" />
  <path d="M3 18a1 1 0 0 1 1 -1h2a1 1 0 0 1 1 1v2a1 1 0 0 1 -1 1h-2a1 1 0 0 1 -1 -1l0 -2" />
  <path d="M17 18a1 1 0 0 1 1 -1h2a1 1 0 0 1 1 1v2a1 1 0 0 1 -1 1h-2a1 1 0 0 1 -1 -1l0 -2" />
  <path d="M6.5 17.1l5 -9.1" />
  <path d="M17.5 17.1l-5 -9.1" />
  <path d="M7 19l10 0" />
</svg>
