<!--
tags: [curve, parametric, design, vector graphics, representation, vector, bezier, creative, artistic, visual]
category: Design
version: "1.27"
unicode: "f1a3"
-->
<svg
  xmlns="http://www.w3.org/2000/svg"
  width="24"
  height="24"
  viewBox="0 0 24 24"
  fill="none"
  stroke="currentColor"
  stroke-width="2"
  stroke-linecap="round"
  stroke-linejoin="round"
>
  <path d="M3 4a1 1 0 0 1 1 -1h2a1 1 0 0 1 1 1v2a1 1 0 0 1 -1 1h-2a1 1 0 0 1 -1 -1l0 -2" />
  <path d="M17 18a1 1 0 0 1 1 -1h2a1 1 0 0 1 1 1v2a1 1 0 0 1 -1 1h-2a1 1 0 0 1 -1 -1l0 -2" />
  <path d="M7 5l7 0" />
  <path d="M10 19l7 0" />
  <path d="M8 19a1 1 0 1 0 2 0a1 1 0 1 0 -2 0" />
  <path d="M14 5a1 1 0 1 0 2 0a1 1 0 1 0 -2 0" />
  <path d="M7 5.5a5 6.5 0 0 1 5 6.5a5 6.5 0 0 0 5 6.5" />
</svg>
