<!--
tags: [math, line, curve, geometry, vector, spline, creative, artistic, visual, aesthetic]
category: Design
version: "1.106"
unicode: "f565"
-->
<svg
  xmlns="http://www.w3.org/2000/svg"
  width="24"
  height="24"
  viewBox="0 0 24 24"
  fill="none"
  stroke="currentColor"
  stroke-width="2"
  stroke-linecap="round"
  stroke-linejoin="round"
>
  <path d="M17 4a1 1 0 0 1 1 -1h2a1 1 0 0 1 1 1v2a1 1 0 0 1 -1 1h-2a1 1 0 0 1 -1 -1l0 -2" />
  <path d="M3 18a1 1 0 0 1 1 -1h2a1 1 0 0 1 1 1v2a1 1 0 0 1 -1 1h-2a1 1 0 0 1 -1 -1l0 -2" />
  <path d="M17 5c-6.627 0 -12 5.373 -12 12" />
</svg>
