<!--
tags: [laundry, clean, clear, clothes, machine, delicate, wash, gentle, cleaning, washing]
category: Laundry
version: "1.84"
unicode: "f306"
-->
<svg
  xmlns="http://www.w3.org/2000/svg"
  width="24"
  height="24"
  viewBox="0 0 24 24"
  fill="none"
  stroke="currentColor"
  stroke-width="2"
  stroke-linecap="round"
  stroke-linejoin="round"
>
  <path d="M3.486 5.965c.168 .02 .34 .033 .514 .035c.79 .009 1.539 -.178 2 -.5c.461 -.32 1.21 -.507 2 -.5c.79 -.007 1.539 .18 2 .5c.461 .322 1.21 .509 2 .5c.79 .009 1.539 -.178 2 -.5c.461 -.32 1.21 -.507 2 -.5c.79 -.007 1.539 .18 2 .5c.461 .322 1.21 .509 2 .5c.17 0 .339 -.014 .503 -.034" />
  <path d="M3 3l1.721 10.329a2 2 0 0 0 1.973 1.671h10.612a2 2 0 0 0 1.973 -1.671l1.721 -10.329" />
  <path d="M5 18h14" />
  <path d="M5 21h14" />
</svg>
