<!--
tags: [equality, good, evil, balance, peace, yin, yang, sign, mark, emblem]
category: Symbols
version: "1.10"
unicode: "ec35"
-->
<svg
  xmlns="http://www.w3.org/2000/svg"
  width="24"
  height="24"
  viewBox="0 0 24 24"
  fill="none"
  stroke="currentColor"
  stroke-width="2"
  stroke-linecap="round"
  stroke-linejoin="round"
>
  <path d="M3 12a9 9 0 1 0 18 0a9 9 0 1 0 -18 0" />
  <path d="M12 3a4.5 4.5 0 0 0 0 9a4.5 4.5 0 0 1 0 9" />
  <path d="M11.5 7.5a.5 .5 0 1 0 1 0a.5 .5 0 1 0 -1 0" fill="currentColor" />
  <path d="M11.5 16.5a.5 .5 0 1 0 1 0a.5 .5 0 1 0 -1 0" fill="currentColor" />
</svg>
