<svg xmlns="http://www.w3.org/2000/svg" class="icon icon-tabler icon-tabler-battery-4" width="24" height="24" viewBox="0 0 24 24" stroke-width="2" stroke="currentColor" fill="none" stroke-linecap="round" stroke-linejoin="round">
  <path d="M6 7h11a2 2 0 012 2v.5a.5 .5 0 00.5 .5a.5 .5 0 01.5 .5v3a.5 .5 0 01-.5 .5a.5 .5 0 00-.5 .5v.5a2 2 0 01-2 2h-11a2 2 0 01-2 -2v-6a2 2 0 012 -2" />
  <line x1="7" y1="10" x2="7" y2="14" />
  <line x1="10" y1="10" x2="10" y2="14" />
  <line x1="13" y1="10" x2="13" y2="14" />
  <line x1="16" y1="10" x2="16" y2="14" />
</svg>


