<svg xmlns="http://www.w3.org/2000/svg" class="icon icon-tabler icon-tabler-puzzle" width="24" height="24" viewBox="0 0 24 24" stroke-width="2" stroke="currentColor" fill="none" stroke-linecap="round" stroke-linejoin="round">
  <path d="M4 7h3a1 1 0 001 -1v-1a2 2 0 014 0v1a1 1 0 001 1h3a1 1 0 011 1v3a1 1 0 001 1h1a2 2 0 010 4h-1a1 1 0 00-1 1v3a1 1 0 01-1 1h-3a1 1 0 01-1 -1v-1a2 2 0 00-4 0v1a1 1 0 01-1 1h-3a1 1 0 01-1 -1v-3a1 1 0 011 -1h1a2 2 0 000 -4h-1a1 1 0 01-1 -1v-3a1 1 0 011 -1" />
</svg>


