<svg xmlns="http://www.w3.org/2000/svg" class="icon icon-tabler icon-tabler-12-hours" width="24" height="24" viewBox="0 0 24 24" stroke-width="2" stroke="currentColor" fill="none" stroke-linecap="round" stroke-linejoin="round">
  <path stroke="none" d="M0 0h24v24H0z" fill="none"/>
  <path d="M20 11a8.1 8.1 0 0 0 -15.5 -2m-.5 -4v4h4" />
  <path d="M4 13c.468 3.6 3.384 6.546 7 7" />
  <path d="M18 15h2a1 1 0 0 1 1 1v1a1 1 0 0 1 -1 1h-1a1 1 0 0 0 -1 1v1a1 1 0 0 0 1 1h2" />
  <path d="M15 21v-6" />
</svg>


