<svg xmlns="http://www.w3.org/2000/svg" class="icon icon-tabler icon-tabler-adjustments-bolt" width="24" height="24" viewBox="0 0 24 24" stroke-width="2" stroke="currentColor" fill="none" stroke-linecap="round" stroke-linejoin="round">
  <path stroke="none" d="M0 0h24v24H0z" fill="none"/>
  <path d="M4 10a2 2 0 1 0 4 0a2 2 0 0 0 -4 0" />
  <path d="M6 4v4" />
  <path d="M6 12v8" />
  <path d="M10 16a2 2 0 1 0 4 0a2 2 0 0 0 -4 0" />
  <path d="M12 4v10" />
  <path d="M19 16l-2 3h4l-2 3" />
  <path d="M12 18v2" />
  <path d="M16 7a2 2 0 1 0 4 0a2 2 0 0 0 -4 0" />
  <path d="M18 4v1" />
  <path d="M18 9v3" />
</svg>


