<svg xmlns="http://www.w3.org/2000/svg" class="icon icon-tabler icon-tabler-adjustments-code" width="24" height="24" viewBox="0 0 24 24" stroke-width="2" stroke="currentColor" fill="none" stroke-linecap="round" stroke-linejoin="round">
  <path stroke="none" d="M0 0h24v24H0z" fill="none"/>
  <path d="M4 10a2 2 0 1 0 4 0a2 2 0 0 0 -4 0" />
  <path d="M6 4v4" />
  <path d="M6 12v8" />
  <path d="M13.557 14.745a2 2 0 1 0 -1.557 3.255" />
  <path d="M12 4v10" />
  <path d="M12 18v2" />
  <path d="M16 7a2 2 0 1 0 4 0a2 2 0 0 0 -4 0" />
  <path d="M18 4v1" />
  <path d="M18 9v4" />
  <path d="M20 21l2 -2l-2 -2" />
  <path d="M17 17l-2 2l2 2" />
</svg>


