<svg xmlns="http://www.w3.org/2000/svg" class="icon icon-tabler icon-tabler-calendar-stats" width="24" height="24" viewBox="0 0 24 24" stroke-width="2" stroke="currentColor" fill="none" stroke-linecap="round" stroke-linejoin="round">
  <path stroke="none" d="M0 0h24v24H0z" fill="none"/>
  <path d="M11.795 21h-6.795a2 2 0 0 1 -2 -2v-12a2 2 0 0 1 2 -2h12a2 2 0 0 1 2 2v4" />
  <path d="M18 14v4h4" />
  <path d="M18 18m-4 0a4 4 0 1 0 8 0a4 4 0 1 0 -8 0" />
  <path d="M15 3v4" />
  <path d="M7 3v4" />
  <path d="M3 11h16" />
</svg>


