<svg xmlns="http://www.w3.org/2000/svg" class="icon icon-tabler icon-tabler-clock-24" width="24" height="24" viewBox="0 0 24 24" stroke-width="2" stroke="currentColor" fill="none" stroke-linecap="round" stroke-linejoin="round">
  <path stroke="none" d="M0 0h24v24H0z" fill="none"/>
  <path d="M3 12a9 9 0 0 0 5.998 8.485m12.002 -8.485a9 9 0 1 0 -18 0" />
  <path d="M12 7v5" />
  <path d="M12 15h2a1 1 0 0 1 1 1v1a1 1 0 0 1 -1 1h-1a1 1 0 0 0 -1 1v1a1 1 0 0 0 1 1h2" />
  <path d="M18 15v2a1 1 0 0 0 1 1h1" />
  <path d="M21 15v6" />
</svg>


