<svg xmlns="http://www.w3.org/2000/svg" class="icon icon-tabler icon-tabler-eye-heart" width="24" height="24" viewBox="0 0 24 24" stroke-width="2" stroke="currentColor" fill="none" stroke-linecap="round" stroke-linejoin="round">
  <path stroke="none" d="M0 0h24v24H0z" fill="none"/>
  <path d="M13.923 11.45a2 2 0 1 0 -2.87 2.312" />
  <path d="M10 17.78c-2.726 -.618 -5.059 -2.545 -7 -5.78c2.4 -4 5.4 -6 9 -6c3.325 0 6.137 1.705 8.438 5.117" />
  <path d="M18 22l3.35 -3.284a2.143 2.143 0 0 0 .005 -3.071a2.242 2.242 0 0 0 -3.129 -.006l-.224 .22l-.223 -.22a2.242 2.242 0 0 0 -3.128 -.006a2.143 2.143 0 0 0 -.006 3.071l3.355 3.296z" />
</svg>


