<svg xmlns="http://www.w3.org/2000/svg" class="icon icon-tabler icon-tabler-id" width="24" height="24" viewBox="0 0 24 24" stroke-width="2" stroke="currentColor" fill="none" stroke-linecap="round" stroke-linejoin="round">
  <path stroke="none" d="M0 0h24v24H0z" fill="none"/>
  <path d="M3 4m0 3a3 3 0 0 1 3 -3h12a3 3 0 0 1 3 3v10a3 3 0 0 1 -3 3h-12a3 3 0 0 1 -3 -3z" />
  <path d="M9 10m-2 0a2 2 0 1 0 4 0a2 2 0 1 0 -4 0" />
  <path d="M15 8l2 0" />
  <path d="M15 12l2 0" />
  <path d="M7 16l10 0" />
</svg>


