<svg xmlns="http://www.w3.org/2000/svg" class="icon icon-tabler icon-tabler-shield-pin" width="24" height="24" viewBox="0 0 24 24" stroke-width="2" stroke="currentColor" fill="none" stroke-linecap="round" stroke-linejoin="round">
  <path stroke="none" d="M0 0h24v24H0z" fill="none"/>
  <path d="M12.597 20.829a12 12 0 0 1 -.597 .171a12 12 0 0 1 -8.5 -15a12 12 0 0 0 8.5 -3a12 12 0 0 0 8.5 3c.506 1.72 .614 3.512 .342 5.248" />
  <path d="M21.121 20.121a3 3 0 1 0 -4.242 0c.418 .419 1.125 1.045 2.121 1.879c1.051 -.89 1.759 -1.516 2.121 -1.879z" />
  <path d="M19 18v.01" />
</svg>


