<svg xmlns="http://www.w3.org/2000/svg" class="icon icon-tabler icon-tabler-discount-off" width="24" height="24" viewBox="0 0 24 24" stroke-width="2" stroke="currentColor" fill="none" stroke-linecap="round" stroke-linejoin="round">
  <path stroke="none" d="M0 0h24v24H0z" fill="none"/>
  <path d="M9 15l3 -3m2 -2l1 -1" />
  <path d="M9.148 9.145a.498 .498 0 0 0 .352 .855a.5 .5 0 0 0 .35 -.142" />
  <path d="M14.148 14.145a.498 .498 0 0 0 .352 .855a.5 .5 0 0 0 .35 -.142" />
  <path d="M5.641 5.631a9 9 0 1 0 12.719 12.738m1.68 -2.318a9 9 0 0 0 -12.074 -12.098" />
  <path d="M3 3l18 18" />
</svg>


