<svg xmlns="http://www.w3.org/2000/svg" class="icon icon-tabler icon-tabler-receipt-bitcoin" width="24" height="24" viewBox="0 0 24 24" stroke-width="2" stroke="currentColor" fill="none" stroke-linecap="round" stroke-linejoin="round">
  <path stroke="none" d="M0 0h24v24H0z" fill="none"/>
  <path d="M5 21v-16a2 2 0 0 1 2 -2h10a2 2 0 0 1 2 2v16l-3 -2l-2 2l-2 -2l-2 2l-2 -2l-3 2" />
  <path d="M9 7h4.09c1.055 0 1.91 .895 1.91 2s-.855 2 -1.91 2c1.055 0 1.91 .895 1.91 2s-.855 2 -1.91 2h-4.09" />
  <path d="M10 11h4" />
  <path d="M10 6v10v-9" />
  <path d="M13 6v1" />
  <path d="M13 15v1" />
</svg>


