<svg xmlns="http://www.w3.org/2000/svg" class="icon icon-tabler icon-tabler-truck-return" width="24" height="24" viewBox="0 0 24 24" stroke-width="2" stroke="currentColor" fill="none" stroke-linecap="round" stroke-linejoin="round">
  <path stroke="none" d="M0 0h24v24H0z" fill="none"/>
  <path d="M7 17m-2 0a2 2 0 1 0 4 0a2 2 0 1 0 -4 0" />
  <path d="M17 17m-2 0a2 2 0 1 0 4 0a2 2 0 1 0 -4 0" />
  <path d="M5 17h-2v-11a1 1 0 0 1 1 -1h9v6h-5l2 2m0 -4l-2 2" />
  <path d="M9 17l6 0" />
  <path d="M13 6h5l3 5v6h-2" />
</svg>


