---
tags: [equalizer, sliders, controls, settings, filter]
category: System
version: "1.62"
unicode: "f0a8"
---
<svg>
  <path d="M6 10m-2 0a2 2 0 1 0 4 0a2 2 0 1 0 -4 0" />
  <path d="M6 6v2" />
  <path d="M6 12v8" />
  <path d="M12 16m-2 0a2 2 0 1 0 4 0a2 2 0 1 0 -4 0" />
  <path d="M12 4v4" />
  <path d="M12 12v2" />
  <path d="M12 18v2" />
  <path d="M18 7m-2 0a2 2 0 1 0 4 0a2 2 0 1 0 -4 0" />
  <path d="M18 4v1" />
  <path d="M18 9v5" />
  <path d="M18 18v2" />
  <path d="M3 3l18 18" />
</svg>
