---
tags: [text, type, up, north, west, corner]
category: Filled
version: "2.4"
unicode: "f718"
---
<svg>
  <path d="M18.222 3a2.778 2.778 0 0 1 2.778 2.778v12.444a2.778 2.778 0 0 1 -2.778 2.778h-12.444a2.778 2.778 0 0 1 -2.778 -2.778v-12.444a2.778 2.778 0 0 1 2.778 -2.778zm-4.222 3a1 1 0 0 0 -1 1v6l.007 .117a1 1 0 0 0 1.993 -.117v-6l-.007 -.117a1 1 0 0 0 -.993 -.883zm3 0a1 1 0 0 0 -1 1v4l.007 .117a1 1 0 0 0 1.993 -.117v-4l-.007 -.117a1 1 0 0 0 -.993 -.883zm-6 0a1 1 0 0 0 -1 1v2l.007 .117a1 1 0 0 0 1.993 -.117v-2l-.007 -.117a1 1 0 0 0 -.993 -.883z" stroke-width="0" fill="currentColor" />
</svg>
