---
tags: [direction, north]
category: Filled
version: "2.1"
unicode: "f6d1"
---
<svg>
  <path d="M10.586 3l-6.586 6.586a2 2 0 0 0 -.434 2.18l.068 .145a2 2 0 0 0 1.78 1.089h2.586v2a1 1 0 0 0 1 1h6l.117 -.007a1 1 0 0 0 .883 -.993l-.001 -2h2.587a2 2 0 0 0 1.414 -3.414l-6.586 -6.586a2 2 0 0 0 -2.828 0z" stroke-width="0" fill="currentColor" />
  <path d="M15 20a1 1 0 0 1 .117 1.993l-.117 .007h-6a1 1 0 0 1 -.117 -1.993l.117 -.007h6z" stroke-width="0" fill="currentColor" />
  <path d="M15 17a1 1 0 0 1 .117 1.993l-.117 .007h-6a1 1 0 0 1 -.117 -1.993l.117 -.007h6z" stroke-width="0" fill="currentColor" />
</svg>
