---
tags: [sand, sun, umbrella, vacation, travel]
category: Map
version: "1.42"
unicode: "ef3d"
---
<svg>
  <path d="M17.553 16.75a7.5 7.5 0 0 0 -10.606 0m11.053 -12.946a6 6 0 0 0 -8.196 2.196l10.392 6a6 6 0 0 0 -2.196 -8.196zm-1.268 6.196c1.658 -2.87 2.225 -5.644 1.268 -6.196c-.957 -.552 -3.075 1.326 -4.732 4.196m1.732 1l-3 5.196m-9 5.054a2.4 2.4 0 0 1 1 -.25a2.4 2.4 0 0 1 2 1a2.4 2.4 0 0 0 2 1a2.4 2.4 0 0 0 2 -1a2.4 2.4 0 0 1 2 -1a2.4 2.4 0 0 1 2 1a2.4 2.4 0 0 0 2 1a2.4 2.4 0 0 0 2 -1a2.4 2.4 0 0 1 2 -1a2.4 2.4 0 0 1 1 .25" />
</svg>
