---
tags: [alarm, ring, sound, alert, disabled]
category: System
version: "1.37"
unicode: "ede5"
---
<svg>
  <path d="M10.613 8.21l.094 .083l1.293 1.292l1.293 -1.292a1 1 0 0 1 1.497 1.32l-.083 .094l-1.292 1.293l1.292 1.293a1 1 0 0 1 -1.32 1.497l-.094 -.083l-1.293 -1.292l-1.293 1.292a1 1 0 0 1 -1.497 -1.32l.083 -.094l1.292 -1.293l-1.292 -1.293a1 1 0 0 1 1.217 -1.567l.102 .07z" fill="#FFF" />
  <path d="M10 5a2 2 0 1 1 4 0a7 7 0 0 1 4 6v3a4 4 0 0 0 2 3h-16a4 4 0 0 0 2 -3v-3a7 7 0 0 1 4 -6" />
  <path d="M9 17v1a3 3 0 0 0 6 0v-1" />
  <path d="M10 9l4 4m0 -4l-4 4" />
</svg>
