---
tags: [education, learning, reading, school, library]
category: Document
version: "1.63"
unicode: "f0be"
---
<svg>
  <path d="M9 9v10a1 1 0 0 1 -1 1h-2a1 1 0 0 1 -1 -1v-14m3 -1a1 1 0 0 1 1 1a1 1 0 0 1 1 -1h2a1 1 0 0 1 1 1v4m0 4v6a1 1 0 0 1 -1 1h-2a1 1 0 0 1 -1 -1v-10m-4 -1h3m1 8h4m1.254 -5.756l-1.218 -4.424a1.02 1.02 0 0 1 .634 -1.219l.133 -.041l2.184 -.53c.562 -.135 1.133 .19 1.282 .732l3.236 11.75m-.92 3.077l-1.572 .38c-.562 .136 -1.133 -.19 -1.282 -.731l-.952 -3.458m-1.779 -6.78l4 -1m1.207 7.199l.716 -.18m-16.923 -12.019l18 18" />
</svg>
