---
tags: [table, side, line]
category: Design
version: "1.0"
unicode: "ea3d"
---
<svg>
  <path d="M4 12l16 0" />
  <path d="M4 4l0 .01" />
  <path d="M8 4l0 .01" />
  <path d="M12 4l0 .01" />
  <path d="M16 4l0 .01" />
  <path d="M20 4l0 .01" />
  <path d="M4 8l0 .01" />
  <path d="M12 8l0 .01" />
  <path d="M20 8l0 .01" />
  <path d="M4 16l0 .01" />
  <path d="M12 16l0 .01" />
  <path d="M20 16l0 .01" />
  <path d="M4 20l0 .01" />
  <path d="M8 20l0 .01" />
  <path d="M12 20l0 .01" />
  <path d="M16 20l0 .01" />
  <path d="M20 20l0 .01" />
</svg>
