---
category: Filled
version: "2.19"
unicode: "fa8c"
---
<svg>
  <path d="M19 12h-5a2 2 0 0 0 -2 2v5a2 2 0 0 0 2 2h5a2 2 0 0 0 2 -2v-5a2 2 0 0 0 -2 -2z" stroke-width="0" fill="currentColor" />
  <path d="M20 8a1 1 0 0 1 .993 .883l.007 .127a1 1 0 0 1 -1.993 .117l-.007 -.127a1 1 0 0 1 1 -1z" stroke-width="0" fill="currentColor" />
  <path d="M20 3a1 1 0 0 1 .993 .883l.007 .127a1 1 0 0 1 -1.993 .117l-.007 -.127a1 1 0 0 1 1 -1z" stroke-width="0" fill="currentColor" />
  <path d="M15 3a1 1 0 0 1 .993 .883l.007 .127a1 1 0 0 1 -1.993 .117l-.007 -.127a1 1 0 0 1 1 -1z" stroke-width="0" fill="currentColor" />
  <path d="M9 3a1 1 0 0 1 .993 .883l.007 .127a1 1 0 0 1 -1.993 .117l-.007 -.127a1 1 0 0 1 1 -1z" stroke-width="0" fill="currentColor" />
  <path d="M9 19a1 1 0 0 1 .993 .883l.007 .127a1 1 0 0 1 -1.993 .117l-.007 -.127a1 1 0 0 1 1 -1z" stroke-width="0" fill="currentColor" />
  <path d="M4 3a1 1 0 0 1 .993 .883l.007 .127a1 1 0 0 1 -1.993 .117l-.007 -.127a1 1 0 0 1 1 -1z" stroke-width="0" fill="currentColor" />
  <path d="M4 8a1 1 0 0 1 .993 .883l.007 .127a1 1 0 0 1 -1.993 .117l-.007 -.127a1 1 0 0 1 1 -1z" stroke-width="0" fill="currentColor" />
  <path d="M4 14a1 1 0 0 1 .993 .883l.007 .127a1 1 0 0 1 -1.993 .117l-.007 -.127a1 1 0 0 1 1 -1z" stroke-width="0" fill="currentColor" />
  <path d="M4 19a1 1 0 0 1 .993 .883l.007 .127a1 1 0 0 1 -1.993 .117l-.007 -.127a1 1 0 0 1 1 -1z" stroke-width="0" fill="currentColor" />
</svg>
