---
tags: [web, website, app, social, nodes, network, community, communication, user, post, images, photos, comment, feedback]
category: Brand
---
<svg>
	<path d="M11.762 13.497c-0.241,-0.264 -0.611,-0.472 -1.109,-0.625 -0.495,-0.164 -1.096,-0.248 -1.806,-0.25 -0.374,0.006 -0.753,0.04 -1.137,0.101 -0.37,0.073 -0.711,0.184 -1.022,0.331 -0.303,0.155 -0.549,0.361 -0.736,0.62 -0.183,0.256 -0.276,0.577 -0.276,0.966 0,0.385 0.092,0.702 0.276,0.957 0.187,0.256 0.432,0.463 0.736,0.624 0.3,0.153 0.63,0.264 0.989,0.336 0.394,0.066 0.784,0.102 1.17,0.111 0.699,-0.004 1.305,-0.095 1.817,-0.276 0.519,-0.169 0.884,-0.366 1.094,-0.592"/>
	<path d="M8.302 19.909c-1.769,-0.107 -3.277,-0.569 -4.523,-1.386 -1.247,-0.817 -2.087,-2.036 -2.521,-3.657 -0.437,-1.629 -0.319,-3.107 0.353,-4.433 0.671,-1.327 1.749,-2.474 3.231,-3.442 1.483,-0.967 3.224,-1.719 5.224,-2.255 1.991,-0.534 3.868,-0.749 5.632,-0.646 1.769,0.107 3.277,0.569 4.523,1.386 1.247,0.818 2.087,2.036 2.521,3.657 0.437,1.63 0.319,3.108 -0.353,4.434 -0.671,1.326 -1.749,2.473 -3.231,3.441 -1.483,0.968 -3.224,1.72 -5.224,2.256 -1.991,0.533 -3.868,0.748 -5.632,0.645z"/>
	<path d="M21.156 15.337c0.091,-0.206 0.136,-0.435 0.136,-0.687 0,-0.507 -0.185,-0.921 -0.556,-1.241 -0.273,-0.258 -0.625,-0.452 -1.059,-0.582 -0.433,-0.13 -0.919,-0.195 -1.459,-0.195 -0.54,0 -1.027,0.064 -1.459,0.193 -0.433,0.128 -0.785,0.322 -1.056,0.58 -0.369,0.321 -0.553,0.734 -0.553,1.24 0,0.509 0.185,0.922 0.554,1.24 0.272,0.257 0.624,0.45 1.056,0.579 0.432,0.129 0.918,0.194 1.458,0.194 0.54,0 1.026,-0.064 1.459,-0.192 0.168,-0.049 0.322,-0.107 0.466,-0.176"/>
</svg>
