---
tags: [software, application development, cloud base platform]
category: Brand
version: "1.72"
unicode: "f219"
---
<svg>
  <circle fill="currentColor" cx="19.5" cy="15.5" r="1.5" />
  <path d="M9.5 7a1.5 1.5 0 0 1 1.339 2.177l-4.034 7.074c-.264 .447 -.75 .749 -1.305 .749a1.5 1.5 0 0 1 -1.271 -2.297l3.906 -6.827a1.5 1.5 0 0 1 1.365 -.876z" />
  <path d="M16.5 7a1.5 1.5 0 0 1 1.339 2.177l-4.034 7.074c-.264 .447 -.75 .749 -1.305 .749a1.5 1.5 0 0 1 -1.271 -2.297l3.906 -6.827a1.5 1.5 0 0 1 1.365 -.876z" />
</svg>
