---
category: Filled
---
<svg>
  <path d="M14.985 3l.121 .006c2.014 .214 3.527 .672 4.966 1.673a1 1 0 0 1 .371 .488c1.876 5.315 2.373 9.987 1.451 12.28c-1.003 2.005 -2.606 3.553 -4.394 3.553c-.732 0 -1.693 -.968 -2.328 -2.045a21.508 21.508 0 0 0 2.103 -.493a1 1 0 1 0 -.55 -1.924c-3.32 .95 -6.13 .95 -9.45 0a1 1 0 0 0 -.55 1.924c.734 .21 1.449 .377 2.152 .503c-.587 1.072 -1.484 2.035 -2.209 2.035c-1.743 0 -3.276 -1.555 -4.267 -3.644c-.841 -2.206 -.369 -6.868 1.414 -12.174a1 1 0 0 1 .358 -.49c1.392 -1.016 2.807 -1.475 4.717 -1.685a1 1 0 0 1 .986 .513l.051 .11l.49 1.22c-.976 .121 -2.007 .35 -3.193 .69a1 1 0 0 0 .55 1.923c3.32 -.95 5.13 -.95 8.45 0a1 1 0 1 0 .55 -1.924c-1.186 -.338 -2.217 -.568 -3.193 -.688l.49 -1.221a1 1 0 0 1 .914 -.63zm-5.985 7a2 2 0 0 0 -1.977 1.697l-.018 .154l-.005 .149l.005 .15a2 2 0 1 0 1.995 -2.15zm6 0a2 2 0 0 0 -1.977 1.697l-.018 .154l-.005 .149l.005 .15a2 2 0 1 0 1.995 -2.15z" stroke-width="0" fill="currentColor" />
</svg>
