---
tags: [library, javascript, menagment, centralization, application, status]
category: Brand
version: "1.93"
unicode: "f3a8"
---
<svg>
  <path d="M16.54 7c-.805 -2.365 -2.536 -4 -4.54 -4c-2.774 0 -5.023 2.632 -5.023 6.496c0 1.956 1.582 4.727 2.512 6m-4.778 -3.513c-1.656 1.877 -2.214 4.185 -1.211 5.911c1.387 2.39 5.138 2.831 8.501 .9c1.703 -.979 2.875 -3.362 3.516 -4.798m-.503 6c2.511 0 4.523 -.438 5.487 -2.1c1.387 -2.39 -.215 -5.893 -3.579 -7.824c-1.702 -.979 -4.357 -1.235 -5.927 -1.07m-.502 .866c.48 .276 1.095 .112 1.372 -.366a1 1 0 0 0 -.367 -1.365a1.007 1.007 0 0 0 -1.373 .366a1 1 0 0 0 .368 1.365zm-.993 5.638m-1 0a1 1 0 1 0 2 0a1 1 0 1 0 -2 0m7 -1.5m-1 0a1 1 0 1 0 2 0a1 1 0 1 0 -2 0" />
</svg>
