---
tags: [web, website, app, social, nodes, network, community, communication, user, post, images, photos, comment, feedback]
category: Brand
---
<svg xmlns="http://www.w3.org/2000/svg">
	<path d="M11.741 13.633c-0.264,-0.288 -0.667,-0.515 -1.211,-0.682 -0.539,-0.179 -1.196,-0.27 -1.97,-0.272 -0.408,0.006 -0.822,0.043 -1.24,0.11 -0.404,0.08 -0.776,0.2 -1.115,0.362 -0.331,0.168 -0.599,0.392 -0.804,0.675 -0.199,0.279 -0.3,0.63 -0.3,1.054 0,0.42 0.101,0.766 0.3,1.044 0.205,0.279 0.472,0.505 0.804,0.681 0.327,0.166 0.687,0.288 1.079,0.367 0.43,0.071 0.855,0.111 1.276,0.12 0.763,-0.004 1.424,-0.104 1.982,-0.301 0.567,-0.184 0.964,-0.399 1.194,-0.645"/>
	<path d="M7.966 20.628c-1.93,-0.116 -3.575,-0.62 -4.935,-1.512 -1.359,-0.891 -2.276,-2.221 -2.75,-3.989 -0.476,-1.778 -0.348,-3.39 0.385,-4.837 0.733,-1.447 1.908,-2.698 3.525,-3.754 1.618,-1.056 3.517,-1.876 5.699,-2.461 2.172,-0.582 4.22,-0.817 6.144,-0.704 1.93,0.117 3.575,0.62 4.935,1.512 1.359,0.892 2.276,2.222 2.75,3.989 0.476,1.778 0.348,3.39 -0.385,4.837 -0.733,1.447 -1.908,2.699 -3.525,3.755 -1.618,1.055 -3.517,1.876 -5.699,2.46 -2.172,0.582 -4.22,0.817 -6.144,0.704z"/>
	<path d="M14.11 19.924c-2.172,0.582 -4.22,0.817 -6.144,0.704 -1.93,-0.116 -3.575,-0.62 -4.935,-1.512 -1.359,-0.891 -2.276,-2.221 -2.75,-3.989 -0.476,-1.778 -0.348,-3.39 0.385,-4.837 0.733,-1.447 1.908,-2.698 3.525,-3.754 1.618,-1.056 3.517,-1.876 5.699,-2.461 2.172,-0.582 4.22,-0.817 6.144,-0.704 1.93,0.117 3.575,0.62 4.935,1.512 1.359,0.892 2.276,2.222 2.75,3.989 0.476,1.778 0.348,3.39 -0.385,4.837 -0.349,0.688 -0.797,1.331 -1.345,1.931 0.099,-0.224 0.148,-0.474 0.148,-0.749 0,-0.554 -0.202,-1.005 -0.607,-1.354 -0.297,-0.282 -0.682,-0.493 -1.154,-0.635 -0.473,-0.141 -1.004,-0.212 -1.593,-0.212 -0.589,0 -1.12,0.07 -1.592,0.21 -0.471,0.14 -0.855,0.351 -1.151,0.632 -0.402,0.351 -0.603,0.802 -0.603,1.353 0,0.556 0.201,1.007 0.604,1.353 0.297,0.28 0.68,0.491 1.152,0.632 0.472,0.141 1.002,0.211 1.59,0.211 0.589,0 1.12,-0.07 1.593,-0.208 0.182,-0.054 0.351,-0.118 0.507,-0.193 -0.334,0.272 -0.691,0.534 -1.074,0.784 -1.618,1.055 -3.517,1.876 -5.699,2.46z"/>
</svg>
