---
tags: [advertising, track, website, traffic, e-commerce, online, technology]
category: Brand
version: "1.36"
unicode: "edcb"
---
<svg>
  <path d="M10 9m0 1.105a1.105 1.105 0 0 1 1.105 -1.105h1.79a1.105 1.105 0 0 1 1.105 1.105v9.79a1.105 1.105 0 0 1 -1.105 1.105h-1.79a1.105 1.105 0 0 1 -1.105 -1.105zm7 -7.105m0 1.105a1.105 1.105 0 0 1 1.105 -1.105h1.79a1.105 1.105 0 0 1 1.105 1.105v15.79a1.105 1.105 0 0 1 -1.105 1.105h-1.79a1.105 1.105 0 0 1 -1.105 -1.105zm-12 14.895m-2 0a2 2 0 1 0 4 0a2 2 0 1 0 -4 0" />
</svg>
