---
tags: [programming, coding, software, perl, boume shell]
category: Brand
version: "1.45"
unicode: "ef6f"
---
<svg>
  <path d="M16 12m-1 0a1 1 0 1 0 2 0a1 1 0 1 0 -2 0" />
  <path d="M12 8m-1 0a1 1 0 1 0 2 0a1 1 0 1 0 -2 0" />
  <path d="M12 16m-1 0a1 1 0 1 0 2 0a1 1 0 1 0 -2 0" />
  <path d="M12 15v-6" />
  <path d="M15 11l-2 -2" />
  <path d="M11 7l-1.9 -1.9" />
  <path d="M10.5 20.4l-6.9 -6.9c-.781 -.781 -.781 -2.219 0 -3l6.9 -6.9c.781 -.781 2.219 -.781 3 0l6.9 6.9c.781 .781 .781 2.219 0 3l-6.9 6.9c-.781 .781 -2.219 .781 -3 0z" />
</svg>
