---
category: Brand
tags: [browser, internet, web, logo]
---
<svg>
      <path d="m 4.028 7.82 a 9 9 0 1 0 12.823 -3.4 c -1.636 -1.02 -3.064 -1.02 -4.851 -1.02 h -1.647"/>
      <path d="m 4.914 9.485 c -1.756 -1.569 -0.805 -5.38 0.109 -6.17 c 0.086 0.896 0.585 1.208 1.111 1.685 c 0.88 -0.275 1.313 -0.282 1.867 0 c 0.82 -0.91 1.694 -2.354 2.628 -2.093 c -1.082 1.741 -0.07 3.733 1.371 4.173 c -0.17 0.975 -1.484 1.913 -2.76 2.686 c -1.296 0.938 -0.722 1.85 0 2.234 c 0.949 0.506 3.611 -0.995 4.545 0.354 c -1.698 0.102 -1.536 3.107 -3.983 2.727 c 2.523 0.957 4.345 0.462 5.458 -0.34 c 1.965 -1.52 2.879 -3.542 2.879 -5.557 c -0.014 -1.398 0.194 -2.695 -1.26 -4.75"/>
</svg>
