---
tags: [logo, website, information, link, internet]
category: Brand
version: "1.15"
unicode: "ec8e"
---
<svg>
  <path d="M12 8c2.648 0 5.028 .826 6.675 2.14a2.5 2.5 0 0 1 2.326 4.36c0 3.59 -4.03 6.5 -9 6.5c-4.875 0 -8.845 -2.8 -9 -6.294l-1 -.206a2.5 2.5 0 0 1 2.326 -4.36c1.646 -1.313 4.026 -2.14 6.674 -2.14zm0 0l1 -5l6 1m0 0m-1 0a1 1 0 1 0 2 0a1 1 0 1 0 -2 0m-9 9m-.5 0a0.5 .5 0 1 0 1 0a0.5 .5 0 1 0 -1 0m6.5 0m-.5 0a0.5 .5 0 1 0 1 0a0.5 .5 0 1 0 -1 0m-4.5 4c.667 .333 1.333 .5 2 .5s1.333 -.167 2 -.5" />
</svg>
