---
category: Filled
---
<svg>
  <path d="M3 2a1 1 0 0 1 1 1v17h17a1 1 0 0 1 .993 .883l.007 .117a1 1 0 0 1 -1 1h-18a1 1 0 0 1 -1 -1v-18a1 1 0 0 1 1 -1z" stroke-width="0" fill="currentColor" />
  <path d="M19 5a2 2 0 1 1 0 4l-.07 -.002l-3.164 5.064l.048 .095l.029 .064l-.077 -.16a1.962 1.962 0 0 1 .163 .409l.033 .14l.015 .087l.015 .123a2 2 0 1 1 -3.992 .18l.005 -.15l.01 -.092l.024 -.155l.039 -.158l.045 -.136l-2.783 -3.338l-.142 .019l-.198 .01a2 2 0 1 1 1.972 -1.667l-.02 .104l-.03 .118l-.045 .136l2.783 3.338l.153 -.02l-.152 .022a1.747 1.747 0 0 1 .339 -.031l.069 .003l3.165 -5.064l-.015 -.028a1.99 1.99 0 0 1 -.06 -.13l.075 .158a1.997 1.997 0 0 1 -.087 -.184l-.026 -.069l-.034 -.1l-.025 -.088l-.029 -.132l-.01 -.063l-.015 -.128a2 2 0 0 1 1.992 -2.175z" stroke-width="0" fill="currentColor" />
</svg>
