---
category: Numbers
version: "2.33"
unicode: "fc6e"
---
<svg>
  <path d="M8.56 3.69a9 9 0 0 0 -2.92 1.95" />
  <path d="M3.69 8.56a9 9 0 0 0 -.69 3.44" />
  <path d="M3.69 15.44a9 9 0 0 0 1.95 2.92" />
  <path d="M8.56 20.31a9 9 0 0 0 3.44 .69" />
  <path d="M15.44 20.31a9 9 0 0 0 2.92 -1.95" />
  <path d="M20.31 15.44a9 9 0 0 0 .69 -3.44" />
  <path d="M20.31 8.56a9 9 0 0 0 -1.95 -2.92" />
  <path d="M15.44 3.69a9 9 0 0 0 -3.44 -.69" />
  <path d="M10 8h2.5a1.5 1.5 0 0 1 1.5 1.5v1a1.5 1.5 0 0 1 -1.5 1.5h-1.5h1.5a1.5 1.5 0 0 1 1.5 1.5v1a1.5 1.5 0 0 1 -1.5 1.5h-2.5" />
</svg>
