---
tags: [shape, marbles, balls, juggle, spots]
category: Filled
version: "2.0"
unicode: "f672"
---
<svg>
  <path d="M6.5 12a5 5 0 1 1 -4.995 5.217l-.005 -.217l.005 -.217a5 5 0 0 1 4.995 -4.783z" stroke-width="0" fill="currentColor" />
  <path d="M17.5 12a5 5 0 1 1 -4.995 5.217l-.005 -.217l.005 -.217a5 5 0 0 1 4.995 -4.783z" stroke-width="0" fill="currentColor" />
  <path d="M12 2a5 5 0 1 1 -4.995 5.217l-.005 -.217l.005 -.217a5 5 0 0 1 4.995 -4.783z" stroke-width="0" fill="currentColor" />
</svg>
