---
tags: [luck, leaf, patrick, irleand, irish]
version: "1.72"
unicode: "f21e"
---
<svg>
  <path d="M11 11l-3.397 -3.44a2.104 2.104 0 0 1 0 -2.95a2.04 2.04 0 0 1 2.912 0l.485 .39l.485 -.39a2.04 2.04 0 0 1 2.912 0a2.104 2.104 0 0 1 0 2.95l-3.397 3.44z" />
  <path d="M11 11l-3.397 3.44a2.104 2.104 0 0 0 0 2.95a2.04 2.04 0 0 0 2.912 0l.485 -.39l.485 .39a2.04 2.04 0 0 0 2.912 0a2.104 2.104 0 0 0 0 -2.95l-3.397 -3.44z" />
  <path d="M14.44 7.603a2.104 2.104 0 0 1 2.95 0a2.04 2.04 0 0 1 0 2.912l-.39 .485l.39 .485a2.04 2.04 0 0 1 0 2.912a2.104 2.104 0 0 1 -2.95 0" />
  <path d="M7.56 7.603a2.104 2.104 0 0 0 -2.95 0a2.04 2.04 0 0 0 0 2.912l.39 .485l-.39 .485a2.04 2.04 0 0 0 0 2.912a2.104 2.104 0 0 0 2.95 0" />
  <path d="M15 15l6 6" />
</svg>
