---
tags: [tooth, toothbrush, mouth, hygiene]
category: Health
version: "1.55"
unicode: "f025"
---
<svg>
  <path d="M12 5.5c-1.074 -.586 -2.583 -1.5 -4 -1.5c-2.1 0 -4 1.247 -4 5c0 4.899 1.056 8.41 2.671 10.537c.573 .756 1.97 .521 2.567 -.236c.398 -.505 .819 -1.439 1.262 -2.801c.292 -.771 .892 -1.504 1.5 -1.5c.602 .004 1.21 .737 1.5 1.5c.443 1.362 .864 2.295 1.262 2.8c.597 .759 1.994 .993 2.567 .237c1.615 -2.127 2.671 -5.637 2.671 -10.537c0 -3.74 -1.908 -4.994 -4 -5c-1.423 -.004 -2.92 .911 -4 1.5zl3 1.5" />
</svg>
