---
---
<svg>
  <path d="M12 20h-7a2 2 0 0 1 -2 -2v-12a2 2 0 0 1 2 -2h14a2 2 0 0 1 2 2v6.5" />
  <path d="M9 17h3.5" />
  <path d="M19.673 25.944l-.274 .036a3.994 3.994 0 0 1 -1.44 -.117l-.227 -.068l-.175 -.063l-.146 -.06l-.216 -.101l-.186 -.1l-.16 -.098l-.277 -.194l-.146 -.117a3.637 3.637 0 0 1 -.095 -.083l-.16 -.15l-3 -3a4 4 0 0 1 1.931 -6.728a4 4 0 0 1 7.797 .002c.64 .145 1.251 .452 1.77 .918l.16 .15a4 4 0 0 1 .15 5.498l-.15 .16l-3.095 3.091l-.143 .128a3.913 3.913 0 0 1 -.427 .316l-.212 .128l-.266 .136l-.184 .08l-.186 .07l-.118 .04l-.184 .052l-.204 .048a3.28 3.28 0 0 1 -.137 .026z" fill-opacity=".1" fill="red" />
  <path d="M19 16v6" />
  <path d="M22 19l-3 3l-3 -3" />
</svg>
