---
---
<svg>
  <path d="M13 20h-8a2 2 0 0 1 -2 -2v-12a2 2 0 0 1 2 -2h14a2 2 0 0 1 2 2v4.5" />
  <path d="M9 17h4" />
  <path d="M19 10c1.049 0 2.004 .404 2.717 1.064a4 4 0 0 1 2.847 5.754l-.135 .24l.076 .158c.289 .632 .462 1.329 .49 2.063l.005 .221a5.497 5.497 0 0 1 -2.67 4.717a3.995 3.995 0 0 1 -3.33 1.783a3.986 3.986 0 0 1 -2.717 -1.064a4 4 0 0 1 -2.847 -5.754l.134 -.241l-.075 -.157a5.472 5.472 0 0 1 -.49 -2.063l-.005 -.221a5.497 5.497 0 0 1 2.67 -4.717a3.995 3.995 0 0 1 3.33 -1.783z" fill-opacity=".1" fill="red" />
  <path d="M21 15h-2.5a1.5 1.5 0 0 0 0 3h1a1.5 1.5 0 0 1 0 3h-2.5" />
  <path d="M19 21v1m0 -8v1" />
</svg>
