---
---
<svg>
  <path d="M13.5 16h-9.5a1 1 0 0 1 -1 -1v-10a1 1 0 0 1 1 -1h16a1 1 0 0 1 1 1v7.5" />
  <path d="M19.399 12.02l.119 .013l.224 .036l.272 .06l.227 .067l.2 .072l.196 .081l.096 .045l.219 .113l.226 .137l.155 .106l.13 .098l.174 .144l.152 .141l3.04 3.039l.15 .159a4 4 0 0 1 0 5.338l-.15 .16l-.16 .15a3.975 3.975 0 0 1 -1.771 .92a4 4 0 0 1 -7.797 -.002a4 4 0 0 1 -2.08 -6.566l.15 -.16l3 -3l.16 -.15l.186 -.157l.205 -.153l.23 -.148l.182 -.102l.23 -.112l.238 -.098l.194 -.066a3.928 3.928 0 0 1 1.204 -.185c.135 0 .268 .007 .399 .02z" fill-opacity=".1" fill="red" />
  <path d="M19 22v-6" />
  <path d="M22 19l-3 -3l-3 3" />
  <path d="M7 20h5" />
  <path d="M9 16v4" />
</svg>
