---
tags: [game, boardgame, roll, throw, cube, numbers, gambling]
category: Filled
version: "2.4"
unicode: "f743"
---
<svg>
  <path d="M18 3a3 3 0 0 1 3 3v12a3 3 0 0 1 -3 3h-12a3 3 0 0 1 -3 -3v-12a3 3 0 0 1 3 -3zm-2.5 12a1.5 1.5 0 1 0 0 3a1.5 1.5 0 0 0 0 -3zm-7 0a1.5 1.5 0 1 0 0 3a1.5 1.5 0 0 0 0 -3zm0 -4.5a1.5 1.5 0 1 0 0 3a1.5 1.5 0 0 0 0 -3zm7 0a1.5 1.5 0 1 0 0 3a1.5 1.5 0 0 0 0 -3zm-7 -4.5a1.5 1.5 0 1 0 0 3a1.5 1.5 0 0 0 0 -3zm7 0a1.5 1.5 0 1 0 0 3a1.5 1.5 0 0 0 0 -3z" stroke-width="0" fill="currentColor" />
</svg>
