---
category: Vehicles
---
<svg>
    <path d="M14 14h-4v-4"/>
    <path d="M10 10L6.5 6.5"/>
    <path d="M9.957 5.95A3.503 3.503 0 0 0 7.04 3.04m-3.02.989A3.5 3.5 0 0 0 6 9.965"/>
    <path d="M14 10l3.5-3.5"/>
    <path d="M18 9.965A3.5 3.5 0 1 0 14.034 6"/>
    <path d="M14 14l3.5 3.5"/>
    <path d="M14.035 18a3.5 3.5 0 0 0 5.936 1.98m.987-3.026a3.503 3.503 0 0 0-2.918-2.913"/>
    <path d="M10 14l-3.5 3.5"/>
    <path d="M6 14.035A3.5 3.5 0 1 0 9.966 18"/>
    <path d="M3 3l18 18"/>
</svg>
