---
tags: [dots, pattern, random, round, circle, nodes]
version: "1.39"
unicode: "ee92"
---
<svg>
  <path d="M4.5 9.5m-1 0a1 1 0 1 0 2 0a1 1 0 1 0 -2 0" />
  <path d="M9.5 4.5m-1 0a1 1 0 1 0 2 0a1 1 0 1 0 -2 0" />
  <path d="M9.5 14.5m-1 0a1 1 0 1 0 2 0a1 1 0 1 0 -2 0" />
  <path d="M4.5 19.5m-1 0a1 1 0 1 0 2 0a1 1 0 1 0 -2 0" />
  <path d="M14.5 9.5m-1 0a1 1 0 1 0 2 0a1 1 0 1 0 -2 0" />
  <path d="M19.5 4.5m-1 0a1 1 0 1 0 2 0a1 1 0 1 0 -2 0" />
  <path d="M14.5 19.5m-1 0a1 1 0 1 0 2 0a1 1 0 1 0 -2 0" />
  <path d="M19.5 14.5m-1 0a1 1 0 1 0 2 0a1 1 0 1 0 -2 0" />
</svg>
