---
tags: [gear, house, building, settings, renovation]
category: Buildings
unicode: "f338"
version: "1.87"
---
<svg>
  <path d="M9 21v-6a2 2 0 0 1 2 -2h1.6" />
  <path d="M20.001 11.001l-8.001 -8.001l-9 9h2v7a2 2 0 0 0 2 2h4.159" />
  <path d="M18.001 18m-2 0a2 2 0 1 0 4 0a2 2 0 1 0 -4 0" />
  <path d="M18.001 14.5v1.5" />
  <path d="M18.001 20v1.5" />
  <path d="M21.032 16.25l-1.299 .75" />
  <path d="M16.27 19l-1.3 .75" />
  <path d="M14.97 16.25l1.3 .75" />
  <path d="M19.733 19l1.3 .75" />
</svg>
