---
category: Filled
version: "2.15"
unicode: "fa46"
---
<svg>
  <path d="M11.94 2a2.99 2.99 0 0 1 2.45 1.279l.108 .164l8.431 14.074a2.989 2.989 0 0 1 -2.366 4.474l-.2 .009h-16.856a2.99 2.99 0 0 1 -2.648 -4.308l.101 -.189l8.425 -14.065a2.989 2.989 0 0 1 2.555 -1.438zm.06 10h-1l-.117 .007a1 1 0 0 0 0 1.986l.117 .007v3l.007 .117a1 1 0 0 0 .876 .876l.117 .007h1l.117 -.007a1 1 0 0 0 .876 -.876l.007 -.117l-.007 -.117a1 1 0 0 0 -.764 -.857l-.112 -.02l-.117 -.006v-3l-.007 -.117a1 1 0 0 0 -.876 -.876l-.117 -.007zm.01 -3l-.127 .007a1 1 0 0 0 0 1.986l.117 .007l.127 -.007a1 1 0 0 0 0 -1.986l-.117 -.007z" stroke-width="0" fill="currentColor" />
</svg>
