---
category: Filled
version: "2.30"
unicode: "fc32"
---
<svg>
  <path d="M12 1a1 1 0 0 1 .993 .883l.007 .117v2a1 1 0 0 1 -1.993 .117l-.007 -.117v-2a1 1 0 0 1 1 -1z" stroke-width="0" fill="currentColor" />
  <path d="M12 6c-.629 0 -1.214 .301 -1.606 .807l-2.908 3.748a2.395 2.395 0 0 0 -.011 2.876l2.919 3.762c.39 .505 .977 .807 1.606 .807c.629 0 1.214 -.301 1.606 -.807l2.908 -3.748a2.395 2.395 0 0 0 .011 -2.876l-2.919 -3.762a2.032 2.032 0 0 0 -1.606 -.807z" stroke-width="0" fill="currentColor" />
  <path d="M12 19a1 1 0 0 1 .993 .883l.007 .117v2a1 1 0 0 1 -1.993 .117l-.007 -.117v-2a1 1 0 0 1 1 -1z" stroke-width="0" fill="currentColor" />
</svg>
