---
tags: [swim, water, swimmer, holiday, swimming, vacation, relax, sport]
category: Sport
unicode: "f41d"
version: "1.94"
---
<svg>
  <path d="M2 20a2.4 2.4 0 0 0 2 1a2.4 2.4 0 0 0 2 -1a2.4 2.4 0 0 1 2 -1a2.4 2.4 0 0 1 2 1a2.4 2.4 0 0 0 2 1a2.4 2.4 0 0 0 2 -1a2.4 2.4 0 0 1 2 -1a2.4 2.4 0 0 1 2 1a2.4 2.4 0 0 0 2 1c.303 0 .6 -.045 .876 -.146m-18.876 -4.854a2.4 2.4 0 0 0 2 1a2.4 2.4 0 0 0 2 -1a2.4 2.4 0 0 1 2 -1a2.4 2.4 0 0 1 2 1a2.4 2.4 0 0 0 2 1a2.4 2.4 0 0 0 2 -1a2.4 2.4 0 0 1 1.13 -.856m5.727 1.717a2.4 2.4 0 0 0 1.143 -.861m-7 -5v-6.5a1.5 1.5 0 0 1 3 0m-9 7.5v-3m0 -4v-.5a1.5 1.5 0 0 0 -1.936 -1.436m7.936 1.936h-6m0 5h1m4 0h1m-12 -7l18 18" />
</svg>
