---
tags: [swim, water, swimmer, holiday, swimming, vacation, relax, sport]
category: Sport
version: "1.34"
unicode: "ed91"
---
<svg>
  <path d="M2 20a2.4 2.4 0 0 0 2 1a2.4 2.4 0 0 0 2 -1a2.4 2.4 0 0 1 2 -1a2.4 2.4 0 0 1 2 1a2.4 2.4 0 0 0 2 1a2.4 2.4 0 0 0 2 -1a2.4 2.4 0 0 1 2 -1a2.4 2.4 0 0 1 2 1a2.4 2.4 0 0 0 2 1a2.4 2.4 0 0 0 2 -1" />
  <path d="M2 16a2.4 2.4 0 0 0 2 1a2.4 2.4 0 0 0 2 -1a2.4 2.4 0 0 1 2 -1a2.4 2.4 0 0 1 2 1a2.4 2.4 0 0 0 2 1a2.4 2.4 0 0 0 2 -1a2.4 2.4 0 0 1 2 -1a2.4 2.4 0 0 1 2 1a2.4 2.4 0 0 0 2 1a2.4 2.4 0 0 0 2 -1" />
  <path d="M15 12v-7.5a1.5 1.5 0 0 1 3 0" />
  <path d="M9 12v-7.5a1.5 1.5 0 0 0 -3 0" />
  <line x1="15" y1="5" x2="9" y2="5" />
  <line x1="9" y1="10" x2="15" y2="10" />
</svg>
