---
---
<svg>
    <circle cx="12" cy="13" r="3"/>
    <path d="M13.857 10.5c.619-1.333.991-2.637 1.117-3.912C15.164 5.176 14.321 4 12 4S8.837 5.176 9.026 6.588c.126 1.275.498 2.579 1.117 3.912"/>
    <path d="M13.237 15.858c.845 1.203 1.788 2.177 2.829 2.924 1.128.87 2.568.728 3.728-1.282 1.16-2.01.563-3.328-.754-3.87-1.167-.528-2.482-.857-3.947-.988"/>
    <path d="M8.907 12.642c-1.465.13-2.78.46-3.947.988-1.317.542-1.915 1.86-.754 3.87 1.16 2.01 2.6 2.151 3.728 1.282 1.041-.747 1.984-1.721 2.83-2.924"/>
</svg>
