---
tags: [technology, ai, machine, bot, android]
version: "1.66"
unicode: "f192"
---
<svg>
  <path d="M11 7h6a2 2 0 0 1 2 2v1l1 1v3l-1 1m-.171 3.811a2 2 0 0 1 -1.829 1.189h-10a2 2 0 0 1 -2 -2v-3l-1 -1v-3l1 -1v-1a2 2 0 0 1 2 -2" />
  <path d="M10 16h4" />
  <path d="M8.5 11.5m-1 0a1 1 0 1 0 2 0a1 1 0 1 0 -2 0" />
  <path d="M15.854 11.853a.498 .498 0 0 0 -.354 -.853a.498 .498 0 0 0 -.356 .149" />
  <path d="M8.336 4.343l-.336 -1.343" />
  <path d="M15 7l1 -4" />
  <path d="M3 3l18 18" />
</svg>
