---
tags: [shape, keyboard, button, key, hotkey,]
category: Filled
version: "2.4"
unicode: "f777"
---
<svg>
  <path d="M17.333 3a3.667 3.667 0 0 1 3.667 3.667v10.666a3.667 3.667 0 0 1 -3.667 3.667h-10.666a3.667 3.667 0 0 1 -3.667 -3.667v-10.666a3.667 3.667 0 0 1 3.667 -3.667zm-2.083 5h-1.5l-.144 .006a1.75 1.75 0 0 0 -1.606 1.744v1.5l.006 .144a1.75 1.75 0 0 0 1.744 1.606h1.25v1h-1.033l-.025 -.087a1 1 0 0 0 -1.942 .337c0 .966 .784 1.75 1.75 1.75h1.5l.144 -.006a1.75 1.75 0 0 0 1.606 -1.744v-4.5l-.006 -.144a1.75 1.75 0 0 0 -1.744 -1.606zm-5.25 0h-2l-.117 .007a1 1 0 0 0 -.883 .993v6l.007 .117a1 1 0 0 0 .993 .883l.117 -.007a1 1 0 0 0 .883 -.993v-2h1l.117 -.007a1 1 0 0 0 -.117 -1.993h-1v-1h1l.117 -.007a1 1 0 0 0 -.117 -1.993zm5 2v1h-1v-1h1z" stroke-width="0" fill="currentColor" />
</svg>
