---
tags: [shape, keyboard, button, key, hotkey,]
category: Filled
version: "2.4"
unicode: "f775"
---
<svg>
  <path d="M17.333 3a3.667 3.667 0 0 1 3.667 3.667v10.666a3.667 3.667 0 0 1 -3.667 3.667h-10.666a3.667 3.667 0 0 1 -3.667 -3.667v-10.666a3.667 3.667 0 0 1 3.667 -3.667zm-1.333 5h-3l-.117 .007a1 1 0 0 0 -.883 .993l.007 .117a1 1 0 0 0 .993 .883h1.718l-1.188 4.757l-.022 .115a1 1 0 0 0 1.962 .37l1.5 -6l.021 -.11a1 1 0 0 0 -.991 -1.132zm-6 0h-2l-.117 .007a1 1 0 0 0 -.883 .993v6l.007 .117a1 1 0 0 0 .993 .883l.117 -.007a1 1 0 0 0 .883 -.993v-2h1l.117 -.007a1 1 0 0 0 -.117 -1.993h-1v-1h1l.117 -.007a1 1 0 0 0 -.117 -1.993z" stroke-width="0" fill="currentColor" />
</svg>
