---
category: Filled
version: "2.27"
unicode: "fb3c"
---
<svg>
  <path d="M19 2a3 3 0 0 1 3 3v14a3 3 0 0 1 -3 3h-14a3 3 0 0 1 -3 -3v-14a3 3 0 0 1 3 -3zm-10.387 6.21a1 1 0 0 0 -1.32 .083l-.083 .094a1 1 0 0 0 .083 1.32l2.292 2.293l-2.292 2.293l-.083 .094a1 1 0 0 0 1.497 1.32l3 -3l.083 -.094a1 1 0 0 0 -.083 -1.32l-3 -3zm5 0a1 1 0 0 0 -1.32 .083l-.083 .094a1 1 0 0 0 .083 1.32l2.292 2.293l-2.292 2.293l-.083 .094a1 1 0 0 0 1.497 1.32l3 -3l.083 -.094a1 1 0 0 0 -.083 -1.32l-3 -3z" stroke-width="0" fill="currentColor" />
</svg>
