---
category: Filled
---
<svg>
  <path d="M12.008 1q.056 0 .111.007l.075.013.016.002.02.005.05.015.036.01.012.005.012.002.029.014.05.019.016.009.012.005 8 4a1 1 0 0 1 0 1.788l-8 4a1 1 0 0 1-.894 0l-8-4a1 1 0 0 1 0-1.788l8-4 .011-.005.018-.01.048-.018.03-.014.011-.002.013-.006.035-.009.05-.015.016-.003.02-.004.076-.013A1 1 0 0 1 11.99 1z" stroke-width="0" fill="currentColor" />
  <path d="M19.553 9.106a1 1 0 0 1 .894 1.788l-8 4a1 1 0 0 1-.894 0l-8-4a1 1 0 0 1 .894-1.788L12 12.88z" stroke-width="0" fill="currentColor" />
  <path d="M19.553 17.106a1 1 0 0 1 .894 1.788l-8 4a1 1 0 0 1-.894 0l-8-4a1 1 0 0 1 .894-1.788L12 20.88z" stroke-width="0" fill="currentColor" />
  <path d="M19.553 13.106a1 1 0 0 1 .894 1.788l-8 4a1 1 0 0 1-.894 0l-8-4a1 1 0 0 1 .894-1.788L12 16.88z" stroke-width="0" fill="currentColor" />
</svg>
