---
tags: [hierarchy, network, structure, connection]
category: Computers
unicode: "f5e4"
version: "1.112"
---
<svg>
  <path d="M14 20a2 2 0 1 0 -4 0a2 2 0 0 0 4 0z" />
  <path d="M14 4a2 2 0 1 0 -4 0a2 2 0 0 0 4 0z" />
  <path d="M6 12a2 2 0 1 0 -4 0a2 2 0 0 0 4 0z" />
  <path d="M22 12a2 2 0 1 0 -4 0a2 2 0 0 0 4 0z" />
  <path d="M14 12a2 2 0 1 0 -4 0a2 2 0 0 0 4 0z" />
  <path d="M6 12h4" />
  <path d="M14 12h4" />
  <path d="M13.5 5.5l5 5" />
  <path d="M5.5 13.5l5 5" />
  <path d="M13.5 18.5l5 -5" />
  <path d="M10.5 5.5l-5 5" />
  <path d="M12 6v4" />
  <path d="M12 14v4" />
</svg>
