---
tags: [curve, parametric, design, vector graphics, representation]
category: Design
version: "1.27"
unicode: "ef1d"
---
<svg>
  <path d="M3 14m0 1a1 1 0 0 1 1 -1h2a1 1 0 0 1 1 1v2a1 1 0 0 1 -1 1h-2a1 1 0 0 1 -1 -1zm14 -1m0 1a1 1 0 0 1 1 -1h2a1 1 0 0 1 1 1v2a1 1 0 0 1 -1 1h-2a1 1 0 0 1 -1 -1zm-7 -9m0 1a1 1 0 0 1 1 -1h2a1 1 0 0 1 1 1v2a1 1 0 0 1 -1 1h-2a1 1 0 0 1 -1 -1zm0 1.5a6 6 0 0 0 -5 5.5m9 -5.5a6 6 0 0 1 5 5.5m-9 -6l-6 0m16 0l-6 0m-11 0m-1 0a1 1 0 1 0 2 0a1 1 0 1 0 -2 0m19 0m-1 0a1 1 0 1 0 2 0a1 1 0 1 0 -2 0" />
</svg>
