---
tags: [curve, parametric, design, vector graphics, representation]
category: Design
version: "1.27"
unicode: "ef1d"
---
<svg>
  <rect x="3" y="14" width="4" height="4" rx="1" />
  <rect x="17" y="14" width="4" height="4" rx="1" />
  <rect x="10" y="6" width="4" height="4" rx="1" />
  <path d="M10 8.5a6 6 0 0 0 -5 5.5" />
  <path d="M14 8.5a6 6 0 0 1 5 5.5" />
  <path d="M10 8l-6 0" />
  <path d="M20 8l-6 0" />
  <path d="M3 8m-1 0a1 1 0 1 0 2 0a1 1 0 1 0 -2 0" />
  <path d="M21 8m-1 0a1 1 0 1 0 2 0a1 1 0 1 0 -2 0" />
</svg>
