---
tags: [curve, parametric, design, vector graphics, placement ]
category: Design
version: "1.67"
unicode: "f1be"
---
<svg>
  <path d="M6.68 6.733a1 1 0 0 1 -.68 .267h-2a1 1 0 0 1 -1 -1v-2c0 -.276 .112 -.527 .293 -.708m13.707 -.292m0 1a1 1 0 0 1 1 -1h2a1 1 0 0 1 1 1v2a1 1 0 0 1 -1 1h-2a1 1 0 0 1 -1 -1zm3.72 16.693a1 1 0 0 1 -.72 .307h-2a1 1 0 0 1 -1 -1v-2c0 -.282 .116 -.536 .304 -.718m-14.304 -.282m0 1a1 1 0 0 1 1 -1h2a1 1 0 0 1 1 1v2a1 1 0 0 1 -1 1h-2a1 1 0 0 1 -1 -1zm2 -11v10m14 -10v8m-10 -10h8m-10 14h10m-14 -16l18 18" />
</svg>
