---
tags: [panoramic, degrees, image, around]
version: "1.67"
unicode: "f1c1"
---
<svg>
  <path d="M8.335 8.388a18.998 18.998 0 0 0 -.335 3.612c0 4.97 1.79 9 4 9c1.622 0 3.018 -2.172 3.646 -5.294m.354 -3.706c0 -4.97 -1.79 -9 -4 -9c-1.035 0 -1.979 .885 -2.689 2.337m-3.661 .286a9 9 0 1 0 12.71 12.745m1.684 -2.328a9 9 0 0 0 -12.094 -12.08m.37 4.389c-3.136 .625 -5.32 2.025 -5.32 3.651c0 2.21 4.03 4 9 4c1.286 0 2.51 -.12 3.616 -.336m3.059 -.98c1.445 -.711 2.325 -1.653 2.325 -2.684c0 -2.21 -4.03 -4 -9 -4m-9 -5l18 18" />
</svg>
