---
tags: [laundry, clean, clear, clothes, high, hot]
category: Laundry
unicode: "f30d"
version: "1.84"
---
<svg>
  <path d="M10 15h.01m-7.01 -9l1.721 10.329a2 2 0 0 0 1.973 1.671h10.612a2 2 0 0 0 1.973 -1.671l1.721 -10.329m-7 9h.01m.99 -3h.01m-3.01 0h.01m-3.01 0h.01m-5.524 -3.035c.168 .02 .34 .033 .514 .035c.79 .009 1.539 -.178 2 -.5c.461 -.32 1.21 -.507 2 -.5c.79 -.007 1.539 .18 2 .5c.461 .322 1.21 .509 2 .5c.79 .009 1.539 -.178 2 -.5c.461 -.32 1.21 -.507 2 -.5c.79 -.007 1.539 .18 2 .5c.461 .322 1.21 .509 2 .5c.17 -.002 .339 -.014 .503 -.034" />
</svg>
