---
tags: [laundry, clean, clear, clothes, medium]
category: Laundry
unicode: "f30b"
version: "1.84"
---
<svg>
  <path d="M3.486 8.965c.168 .02 .34 .033 .514 .035c.79 .009 1.539 -.178 2 -.5c.461 -.32 1.21 -.507 2 -.5c.79 -.007 1.539 .18 2 .5c.461 .322 1.21 .509 2 .5c.79 .009 1.539 -.178 2 -.5c.461 -.32 1.21 -.507 2 -.5c.79 -.007 1.539 .18 2 .5c.461 .322 1.21 .509 2 .5c.17 -.002 .339 -.014 .503 -.034m-17.503 -2.966l1.721 10.329a2 2 0 0 0 1.973 1.671h10.612a2 2 0 0 0 1.973 -1.671l1.721 -10.329m-9 7h.01m2.99 0h.01m-6.01 0h.01" />
</svg>
