---
tags: [internet, online, web, website, browser]
category: Map
unicode: "f38f"
version: "1.91"
---
<svg>
  <path d="M19.5 7a8.998 8.998 0 0 0 -7.5 -4a8.991 8.991 0 0 0 -7.484 4m6.984 -4a16.989 16.989 0 0 0 -1.826 4m2.826 -4a16.989 16.989 0 0 1 1.828 4.004m5.172 9.996a8.998 8.998 0 0 1 -7.5 4a8.991 8.991 0 0 1 -7.484 -4m6.984 4a16.989 16.989 0 0 1 -1.826 -4m2.826 4a16.989 16.989 0 0 0 1.828 -4.004m-12.328 -6.996l1 4l1.5 -4l1.5 4l1 -4m10 0l1 4l1.5 -4l1.5 4l1 -4m-12.5 0l1 4l1.5 -4l1.5 4l1 -4" />
</svg>
