---
tags: [game, boardgame, roll, throw, cube, numbers, gambling]
category: Filled
version: "2.4"
unicode: "f744"
---
<svg>
  <path d="M18 3a3 3 0 0 1 2.995 2.824l.005 .176v12a3 3 0 0 1 -2.824 2.995l-.176 .005h-12a3 3 0 0 1 -2.995 -2.824l-.005 -.176v-12a3 3 0 0 1 2.824 -2.995l.176 -.005h12zm-2.5 11a1.5 1.5 0 1 0 0 3a1.5 1.5 0 0 0 0 -3zm-7 0a1.5 1.5 0 1 0 0 3a1.5 1.5 0 0 0 0 -3zm0 -7a1.5 1.5 0 1 0 0 3a1.5 1.5 0 0 0 0 -3zm7 0a1.5 1.5 0 1 0 0 3a1.5 1.5 0 0 0 0 -3z" stroke-width="0" fill="currentColor" />
</svg>
