---
category: Filled
version: "2.4"
unicode: "f755"
---
<svg>
  <path d="M10.543 2.426c.862 -.48 1.9 -.512 2.785 -.096l.187 .096l6.026 3.588l.095 .063l.084 .07l.113 .083a3 3 0 0 1 1.143 1.992l.019 .198l.005 .2v6.536c0 1.022 -.52 1.968 -1.326 2.492l-.165 .099l-6.053 3.864c-.845 .47 -1.86 .501 -2.772 .069l-.193 -.1l-5.947 -3.802a3 3 0 0 1 -1.537 -2.418l-.007 -.203v-6.537c0 -1.022 .52 -1.968 1.348 -2.505l6.195 -3.689zm2.457 4.574h-2l-.15 .005a2 2 0 0 0 -1.844 1.838l-.006 .157v2l.005 .15a2 2 0 0 0 1.838 1.844l.157 .006h2v2h-2l-.007 -.117a1 1 0 0 0 -1.993 .117a2 2 0 0 0 1.85 1.995l.15 .005h2l.15 -.005a2 2 0 0 0 1.844 -1.838l.006 -.157v-6l-.005 -.15a2 2 0 0 0 -1.838 -1.844l-.157 -.006zm0 2v2h-2v-2h2z" stroke-width="0" fill="currentColor" />
</svg>
