---
category: Filled
version: "2.4"
unicode: "f74d"
---
<svg>
  <path d="M10.543 2.426c.862 -.48 1.9 -.512 2.785 -.096l.187 .096l6.026 3.588l.095 .063l.084 .07l.113 .083a3 3 0 0 1 1.143 1.992l.019 .198l.005 .2v6.536c0 1.022 -.52 1.968 -1.326 2.492l-.165 .099l-6.053 3.864c-.845 .47 -1.86 .501 -2.772 .069l-.193 -.1l-5.947 -3.802a3 3 0 0 1 -1.537 -2.418l-.007 -.203v-6.537c0 -1.022 .52 -1.968 1.348 -2.505l6.195 -3.689zm2.451 5.46c-.083 -.777 -1.008 -1.16 -1.617 -.67l-.084 .077l-2 2l-.083 .094a1 1 0 0 0 0 1.226l.083 .094l.094 .083a1 1 0 0 0 1.226 0l.094 -.083l.293 -.293v5.586l.007 .117a1 1 0 0 0 1.986 0l.007 -.117v-8l-.006 -.114z" stroke-width="0" fill="currentColor" />
</svg>
