---
tags: [information, advice, news, tip, sign]
category: Filled
version: "2.2"
unicode: "f6d8"
---
<svg>
  <path d="M17 3.34a10 10 0 1 1 -14.995 8.984l-.005 -.324l.005 -.324a10 10 0 0 1 14.995 -8.336zm-5 7.66h-1l-.117 .007a1 1 0 0 0 .117 1.993v3l.007 .117a1 1 0 0 0 .993 .883h1l.117 -.007a1 1 0 0 0 .883 -.993l-.007 -.117a1 1 0 0 0 -.876 -.876l-.117 -.007v-3l-.007 -.117a1 1 0 0 0 -.993 -.883zm.01 -4l-.127 .007a1 1 0 0 0 .117 1.993l.127 -.007a1 1 0 0 0 -.117 -1.993z" fill="currentColor" stroke-width="0" />
</svg>
