---
category: Filled
version: "2.4"
unicode: "f764"
---
<svg>
  <path d="M18 3a3 3 0 0 1 2.995 2.824l.005 .176v12a3 3 0 0 1 -2.824 2.995l-.176 .005h-12a3 3 0 0 1 -2.995 -2.824l-.005 -.176v-12a3 3 0 0 1 2.824 -2.995l.176 -.005h12zm-6 4a3 3 0 0 0 -2.995 2.824l-.005 .176v4l.005 .176a3 3 0 0 0 5.99 0l.005 -.176v-4l-.005 -.176a3 3 0 0 0 -2.995 -2.824zm0 2a1 1 0 0 1 .993 .883l.007 .117v4l-.007 .117a1 1 0 0 1 -1.986 0l-.007 -.117v-4l.007 -.117a1 1 0 0 1 .993 -.883z" stroke-width="0" fill="currentColor" />
</svg>
