---
tags: [edit, chart, customization, repair, settings]
category: Database
version: "1.75"
unicode: "f25c"
---
<svg>
  <path d="M4 12v-6a2 2 0 0 1 2 -2h12a2 2 0 0 1 2 2v12a2 2 0 0 1 -2 2h-6" />
  <path d="M4 10h16" />
  <path d="M10 4v9" />
  <path d="M5.281 18.5m-2 0a2 2 0 1 0 4 0a2 2 0 1 0 -4 0" />
  <path d="M5.281 15v1.5" />
  <path d="M5.281 20.5v1.5" />
  <path d="M8.312 16.75l-1.299 .75" />
  <path d="M3.55 19.5l-1.3 .75" />
  <path d="M2.25 16.75l1.3 .75" />
  <path d="M7.013 19.5l1.3 .75" />
</svg>
