<svg xmlns="http://www.w3.org/2000/svg" class="icon icon-tabler icon-tabler-basket-question" width="24" height="24" viewBox="0 0 24 24" stroke-width="2" stroke="currentColor" fill="none" stroke-linecap="round" stroke-linejoin="round">
  <path stroke="none" d="M0 0h24v24H0z" fill="none"/>
  <path d="M7 10l5 -6l5 6" />
  <path d="M15 20h-8c-.966 .024 -1.807 -.817 -2 -2l-2 -8h18l-.3 1.198" />
  <path d="M10 15a2 2 0 1 0 4 0a2 2 0 0 0 -4 0" />
  <path d="M19 22v.01" />
  <path d="M19 19a2.003 2.003 0 0 0 .914 -3.782a1.98 1.98 0 0 0 -2.414 .483" />
</svg>


