<svg xmlns="http://www.w3.org/2000/svg" class="icon icon-tabler icon-tabler-carousel-horizontal" width="24" height="24" viewBox="0 0 24 24" stroke-width="2" stroke="currentColor" fill="none" stroke-linecap="round" stroke-linejoin="round">
  <path stroke="none" d="M0 0h24v24H0z" fill="none"/>
  <path d="M7 5m0 1a1 1 0 0 1 1 -1h8a1 1 0 0 1 1 1v12a1 1 0 0 1 -1 1h-8a1 1 0 0 1 -1 -1z" />
  <path d="M22 17h-1a1 1 0 0 1 -1 -1v-8a1 1 0 0 1 1 -1h1" />
  <path d="M2 17h1a1 1 0 0 0 1 -1v-8a1 1 0 0 0 -1 -1h-1" />
</svg>


