<svg xmlns="http://www.w3.org/2000/svg" class="icon icon-tabler icon-tabler-database-dollar" width="24" height="24" viewBox="0 0 24 24" stroke-width="2" stroke="currentColor" fill="none" stroke-linecap="round" stroke-linejoin="round">
  <path stroke="none" d="M0 0h24v24H0z" fill="none"/>
  <path d="M4 6c0 1.657 3.582 3 8 3s8 -1.343 8 -3s-3.582 -3 -8 -3s-8 1.343 -8 3" />
  <path d="M4 6v6c0 1.657 3.582 3 8 3c.415 0 .822 -.012 1.22 -.035" />
  <path d="M20 10v-4" />
  <path d="M4 12v6c0 1.657 3.582 3 8 3c.352 0 .698 -.009 1.037 -.025" />
  <path d="M21 15h-2.5a1.5 1.5 0 0 0 0 3h1a1.5 1.5 0 0 1 0 3h-2.5" />
  <path d="M19 21v1m0 -8v1" />
</svg>


