<svg xmlns="http://www.w3.org/2000/svg" class="icon icon-tabler icon-tabler-devices-plus" width="24" height="24" viewBox="0 0 24 24" stroke-width="2" stroke="currentColor" fill="none" stroke-linecap="round" stroke-linejoin="round">
  <path stroke="none" d="M0 0h24v24H0z" fill="none"/>
  <path d="M13 16.5v-7.5a1 1 0 0 1 1 -1h6a1 1 0 0 1 1 1v3.5" />
  <path d="M18 8v-3a1 1 0 0 0 -1 -1h-13a1 1 0 0 0 -1 1v12a1 1 0 0 0 1 1h8" />
  <path d="M16 9h2" />
  <path d="M16 19h6" />
  <path d="M19 16v6" />
</svg>


