<svg xmlns="http://www.w3.org/2000/svg" class="icon icon-tabler icon-tabler-pencil-heart" width="24" height="24" viewBox="0 0 24 24" stroke-width="2" stroke="currentColor" fill="none" stroke-linecap="round" stroke-linejoin="round">
  <path stroke="none" d="M0 0h24v24H0z" fill="none"/>
  <path d="M17 11l1.5 -1.5a2.828 2.828 0 1 0 -4 -4l-10.5 10.5v4h4l2 -2" />
  <path d="M13.5 6.5l4 4" />
  <path d="M18 22l3.35 -3.284a2.143 2.143 0 0 0 .005 -3.071a2.242 2.242 0 0 0 -3.129 -.006l-.224 .22l-.223 -.22a2.242 2.242 0 0 0 -3.128 -.006a2.143 2.143 0 0 0 -.006 3.071l3.355 3.296z" />
</svg>


