<svg xmlns="http://www.w3.org/2000/svg" class="icon icon-tabler icon-tabler-photo-share" width="24" height="24" viewBox="0 0 24 24" stroke-width="2" stroke="currentColor" fill="none" stroke-linecap="round" stroke-linejoin="round">
  <path stroke="none" d="M0 0h24v24H0z" fill="none"/>
  <path d="M15 8h.01" />
  <path d="M12 21h-6a3 3 0 0 1 -3 -3v-12a3 3 0 0 1 3 -3h12a3 3 0 0 1 3 3v7" />
  <path d="M3 16l5 -5c.928 -.893 2.072 -.893 3 0l3 3" />
  <path d="M14 14l1 -1c.928 -.893 2.072 -.893 3 0" />
  <path d="M16 22l5 -5" />
  <path d="M21 21.5v-4.5h-4.5" />
</svg>


