<svg xmlns="http://www.w3.org/2000/svg" class="icon icon-tabler icon-tabler-photo-video" width="24" height="24" viewBox="0 0 24 24" stroke-width="2" stroke="currentColor" fill="none" stroke-linecap="round" stroke-linejoin="round">
  <path stroke="none" d="M0 0h24v24H0z" fill="none"/>
  <path d="M9 15h-3a3 3 0 0 1 -3 -3v-6a3 3 0 0 1 3 -3h6a3 3 0 0 1 3 3v3" />
  <path d="M9 9m0 3a3 3 0 0 1 3 -3h6a3 3 0 0 1 3 3v6a3 3 0 0 1 -3 3h-6a3 3 0 0 1 -3 -3z" />
  <path d="M3 12l2.296 -2.296a2.41 2.41 0 0 1 3.408 0l.296 .296" />
  <path d="M14 13.5v3l2.5 -1.5z" />
  <path d="M7 6v.01" />
</svg>


