<svg xmlns="http://www.w3.org/2000/svg" class="icon icon-tabler icon-tabler-pick" width="24" height="24" viewBox="0 0 24 24" stroke-width="2" stroke="currentColor" fill="none" stroke-linecap="round" stroke-linejoin="round">
  <path stroke="none" d="M0 0h24v24H0z" fill="none"/>
  <path d="M13 8l-9.383 9.418a2.091 2.091 0 0 0 0 2.967a2.11 2.11 0 0 0 2.976 0l9.407 -9.385" />
  <path d="M9 3h4.586a1 1 0 0 1 .707 .293l6.414 6.414a1 1 0 0 1 .293 .707v4.586a2 2 0 1 1 -4 0v-3l-5 -5h-3a2 2 0 1 1 0 -4z" />
</svg>


