<svg xmlns="http://www.w3.org/2000/svg" class="icon icon-tabler icon-tabler-shield-cog" width="24" height="24" viewBox="0 0 24 24" stroke-width="2" stroke="currentColor" fill="none" stroke-linecap="round" stroke-linejoin="round">
  <path stroke="none" d="M0 0h24v24H0z" fill="none"/>
  <path d="M12 21a12 12 0 0 1 -8.5 -15a12 12 0 0 0 8.5 -3a12 12 0 0 0 8.5 3c.568 1.933 .635 3.957 .223 5.89" />
  <path d="M19.001 19m-2 0a2 2 0 1 0 4 0a2 2 0 1 0 -4 0" />
  <path d="M19.001 15.5v1.5" />
  <path d="M19.001 21v1.5" />
  <path d="M22.032 17.25l-1.299 .75" />
  <path d="M17.27 20l-1.3 .75" />
  <path d="M15.97 17.25l1.3 .75" />
  <path d="M20.733 20l1.3 .75" />
</svg>


