<svg xmlns="http://www.w3.org/2000/svg" class="icon icon-tabler icon-tabler-sort-ascending-small-big" width="24" height="24" viewBox="0 0 24 24" stroke-width="2" stroke="currentColor" fill="none" stroke-linecap="round" stroke-linejoin="round">
  <path stroke="none" d="M0 0h24v24H0z" fill="none"/>
  <path d="M4 15l3 3l3 -3" />
  <path d="M7 6v12" />
  <path d="M14 5.667c0 -.369 .298 -.667 .667 -.667h2.666c.369 0 .667 .298 .667 .667v2.666a.667 .667 0 0 1 -.667 .667h-2.666a.667 .667 0 0 1 -.667 -.667v-2.666z" />
  <path d="M14 13.167c0 -.645 .522 -1.167 1.167 -1.167h4.666c.645 0 1.167 .522 1.167 1.167v4.666c0 .645 -.522 1.167 -1.167 1.167h-4.666a1.167 1.167 0 0 1 -1.167 -1.167v-4.666z" />
</svg>


