<svg xmlns="http://www.w3.org/2000/svg" class="icon icon-tabler icon-tabler-transform" width="24" height="24" viewBox="0 0 24 24" stroke-width="2" stroke="currentColor" fill="none" stroke-linecap="round" stroke-linejoin="round">
  <path stroke="none" d="M0 0h24v24H0z" fill="none"/>
  <path d="M3 6a3 3 0 1 0 6 0a3 3 0 0 0 -6 0" />
  <path d="M21 11v-3a2 2 0 0 0 -2 -2h-6l3 3m0 -6l-3 3" />
  <path d="M3 13v3a2 2 0 0 0 2 2h6l-3 -3m0 6l3 -3" />
  <path d="M15 18a3 3 0 1 0 6 0a3 3 0 0 0 -6 0" />
</svg>


