<svg xmlns="http://www.w3.org/2000/svg" class="icon icon-tabler icon-tabler-vs" width="24" height="24" viewBox="0 0 24 24" stroke-width="2" stroke="currentColor" fill="none" stroke-linecap="round" stroke-linejoin="round">
  <path stroke="none" d="M0 0h24v24H0z" fill="none"/>
  <path d="M2 12c0 5.523 4.477 10 10 10s10 -4.477 10 -10s-4.477 -10 -10 -10s-10 4.477 -10 10" />
  <path d="M14 14.25c0 .414 .336 .75 .75 .75h1.25a1 1 0 0 0 1 -1v-1a1 1 0 0 0 -1 -1h-1a1 1 0 0 1 -1 -1v-1a1 1 0 0 1 1 -1h1.25a.75 .75 0 0 1 .75 .75" />
  <path d="M7 9l2 6l2 -6" />
</svg>


