<svg xmlns="http://www.w3.org/2000/svg" class="icon icon-tabler icon-tabler-wand" width="24" height="24" viewBox="0 0 24 24" stroke-width="2" stroke="currentColor" fill="none" stroke-linecap="round" stroke-linejoin="round">
  <path stroke="none" d="M0 0h24v24H0z" fill="none"/>
  <path d="M6 21l15 -15l-3 -3l-15 15l3 3" />
  <path d="M15 6l3 3" />
  <path d="M9 3a2 2 0 0 0 2 2a2 2 0 0 0 -2 2a2 2 0 0 0 -2 -2a2 2 0 0 0 2 -2" />
  <path d="M19 13a2 2 0 0 0 2 2a2 2 0 0 0 -2 2a2 2 0 0 0 -2 -2a2 2 0 0 0 2 -2" />
</svg>


