---
tags: [edit, chart, customization, repair, settings]
category: Database
version: "1.75"
unicode: "f25c"
---
<svg>
  <path d="M12 21h-7a2 2 0 0 1 -2 -2v-14a2 2 0 0 1 2 -2h14a2 2 0 0 1 2 2v7" />
  <path d="M3 10h18" />
  <path d="M10 3v18" />
  <path d="M19.001 19m-2 0a2 2 0 1 0 4 0a2 2 0 1 0 -4 0" />
  <path d="M19.001 15.5v1.5" />
  <path d="M19.001 21v1.5" />
  <path d="M22.032 17.25l-1.299 .75" />
  <path d="M17.27 20l-1.3 .75" />
  <path d="M15.97 17.25l1.3 .75" />
  <path d="M20.733 20l1.3 .75" />
</svg>
